<?xml version="1.0" encoding="UTF-8"?>
<svg width="800" height="600" xmlns="http://www.w3.org/2000/svg">
  <title>Algiers Subway Map</title>
  <rect width="100%" height="100%" fill="#f8f9fa"/>

  <!-- 지하철 선로 -->
  <g stroke="#2563eb" stroke-width="2" fill="none" opacity="0.8">
    <polyline points="360.4,222.2 364.5,216.8 364.9,215.7 365.2,214.5 365.3,214.2 365.4,213.5 365.4,212.8 365.4,211.1 364.5,205.3 359.9,177.0 359.0,171.5 358.9,169.5 359.0,168.2 359.7,163.9 360.5,162.1 362.9,154.8 363.7,152.4 364.0,150.5 364.5,146.4 365.0,144.3 365.9,141.1 367.1,138.9 367.8,138.2 368.4,137.5 374.0,132.5 377.7,128.4 379.0,126.1 380.1,123.9 380.4,122.4 380.5,121.6 380.5,121.1 380.5,119.5 380.4,111.6 381.1,104.2 381.1,102.8 381.1,101.3 380.6,99.5 380.2,97.9"/>
    <polyline points="360.4,222.2 348.2,240.3 347.9,241.1 347.7,241.5 346.4,244.1 346.3,244.6 344.8,251.3 342.7,260.4 340.3,268.1 339.7,269.4 339.2,272.9 339.3,276.0 340.6,280.7 349.5,304.1 353.5,318.9 354.9,320.3 356.1,321.3 357.5,322.2 359.5,323.4 361.1,324.8 362.4,326.0 370.3,336.3 377.7,346.3 385.0,356.8 388.7,362.0 392.1,367.9 400.1,378.7 408.8,389.7 409.4,390.9 410.2,392.4 410.7,394.1 411.0,395.7 411.1,397.1 411.3,402.9 412.1,406.9 413.8,410.4 420.1,419.3 423.1,423.4 426.4,427.4 429.3,429.8 449.1,445.0 454.0,448.7 454.8,449.3 468.9,460.5 470.9,462.1 478.2,466.9 481.2,469.1 492.1,476.8 493.5,477.7 493.7,477.9 495.3,478.9 501.3,483.0 528.5,499.3 529.8,500.2 531.3,501.7 537.5,509.4 538.0,510.0 543.6,517.3 545.2,519.2 548.6,525.1 550.9,528.2 559.0,535.3 561.8,537.1 562.5,537.6 565.2,540.1 565.6,540.4 567.0,541.8 568.1,543.8 568.6,546.6 568.2,553.5 567.2,562.5 566.7,567.3 566.3,574.5 566.3,587.0"/>
  </g>

  <!-- 지하철 역 -->
  <g>
    <circle cx="360.4" cy="222.2" r="3" fill="#dc2626" stroke="#fff" stroke-width="1"/>
    <circle cx="353.5" cy="318.9" r="3" fill="#dc2626" stroke="#fff" stroke-width="1"/>
    <circle cx="377.7" cy="346.3" r="3" fill="#dc2626" stroke="#fff" stroke-width="1"/>
    <circle cx="400.1" cy="378.7" r="3" fill="#dc2626" stroke="#fff" stroke-width="1"/>
    <circle cx="429.3" cy="429.8" r="3" fill="#dc2626" stroke="#fff" stroke-width="1"/>
    <circle cx="478.2" cy="466.9" r="3" fill="#dc2626" stroke="#fff" stroke-width="1"/>
    <circle cx="531.3" cy="501.7" r="3" fill="#dc2626" stroke="#fff" stroke-width="1"/>
    <circle cx="380.4" cy="111.6" r="3" fill="#dc2626" stroke="#fff" stroke-width="1"/>
    <circle cx="362.9" cy="154.8" r="3" fill="#dc2626" stroke="#fff" stroke-width="1"/>
    <circle cx="561.8" cy="537.1" r="3" fill="#dc2626" stroke="#fff" stroke-width="1"/>
    <circle cx="339.7" cy="269.4" r="3" fill="#dc2626" stroke="#fff" stroke-width="1"/>
    <circle cx="357.5" cy="68.5" r="3" fill="#dc2626" stroke="#fff" stroke-width="1"/>
    <circle cx="326.7" cy="71.0" r="3" fill="#dc2626" stroke="#fff" stroke-width="1"/>
    <circle cx="306.2" cy="100.1" r="3" fill="#dc2626" stroke="#fff" stroke-width="1"/>
    <circle cx="357.6" cy="69.2" r="3" fill="#dc2626" stroke="#fff" stroke-width="1"/>
  </g>
</svg>