<?xml version="1.0" encoding="UTF-8"?>
<svg width="800" height="600" xmlns="http://www.w3.org/2000/svg">
  <title>Amsterdam Subway Map</title>
  <rect width="100%" height="100%" fill="#f8f9fa"/>
  <g stroke="#2563eb" stroke-width="3" fill="none">
    <polyline points="440.2,359.8 440.3,360.7 440.3,361.0 440.3,362.2 440.3,363.2 440.3,363.9 440.2,364.4 440.2,364.8 440.1,365.3 440.0,365.7 439.8,366.1 439.7,366.5 439.5,366.9 439.3,367.3"/>
    <polyline points="521.1,496.0 521.5,496.1 522.0,496.3 522.4,496.4 522.8,496.5 523.1,496.6 523.5,496.7 523.9,496.7 524.2,496.7 524.7,496.8 525.0,496.8 525.4,496.7 525.8,496.7 526.3,496.6 526.9,496.5 527.3,496.4"/>
    <polyline points="517.2,492.6 517.6,493.1 517.9,493.5 518.2,493.9 518.6,494.3 519.0,494.6 519.4,494.9 519.7,495.1"/>
    <polyline points="286.8,166.9 287.6,166.9"/>
    <polyline points="275.2,171.7 276.6,170.4 277.9,169.1 278.4,168.8 279.0,168.4 279.6,168.0 280.2,167.7 280.7,167.5 281.2,167.3 281.7,167.2 282.3,167.0 282.7,167.0 283.1,167.0 283.3,167.0 284.9,166.9 286.8,166.9"/>
    <polyline points="271.8,209.6 272.5,207.2 272.7,206.0 272.8,205.5 272.9,204.9 272.9,204.4 272.9,203.7 272.9,203.1 272.8,202.6 272.8,202.2"/>
    <polyline points="271.5,210.8 271.8,209.6"/>
    <polyline points="269.2,219.6 268.7,221.3"/>
    <polyline points="266.7,229.8 267.3,227.5"/>
    <polyline points="264.3,240.0 264.8,238.3"/>
    <polyline points="262.2,307.7 262.2,307.1"/>
    <polyline points="262.2,310.6 262.2,307.7"/>
    <polyline points="261.6,283.6 261.8,286.0 261.9,287.2 261.9,287.8 261.9,288.4 261.9,289.2 261.9,289.9 261.9,290.8 261.9,291.6 261.9,294.9"/>
    <polyline points="261.2,269.6 261.2,272.4"/>
    <polyline points="261.1,267.9 261.2,269.6"/>
    <polyline points="262.3,249.7 262.4,248.6 262.4,248.4 262.5,248.1 262.5,247.9"/>
    <polyline points="262.1,323.9 262.2,325.3"/>
    <polyline points="262.2,328.5 262.2,329.8"/>
    <polyline points="262.2,325.3 262.2,326.5 262.2,328.3"/>
    <polyline points="290.1,354.2 287.6,354.4"/>
    <polyline points="300.5,353.5 299.9,353.5"/>
    <polyline points="299.4,353.6 298.1,353.7 297.1,353.8 296.1,353.9 295.1,353.9 293.1,354.0 292.1,354.1 291.1,354.1 290.1,354.2"/>
    <polyline points="307.3,352.5 306.9,352.5 306.4,352.5 306.0,352.6 305.6,352.7 305.2,352.7 304.7,352.8 303.9,352.9 303.5,353.0 303.0,353.1 302.6,353.2 302.2,353.2 301.8,353.3 301.3,353.3 300.5,353.4"/>
    <polyline points="329.5,351.3 331.4,351.2"/>
    <polyline points="439.3,367.3 439.2,367.5 439.0,367.8 438.8,368.1 438.7,368.4 438.5,368.6 438.0,369.1 437.6,369.6"/>
    <polyline points="460.7,392.6 460.9,392.9"/>
    <polyline points="460.9,392.9 461.1,393.1 461.2,393.4 461.4,393.6 461.5,393.8 461.7,394.0 461.8,394.2 462.0,394.5 462.1,394.7 462.4,395.1 462.7,395.5 463.0,396.0 463.3,396.4 463.4,396.6 463.6,396.9 463.7,397.1 463.8,397.3 464.3,398.3 464.4,398.5 464.5,398.7 464.7,399.0 464.8,399.2 465.1,399.6 465.4,400.1"/>
    <polyline points="477.1,396.4 479.3,394.7"/>
    <polyline points="498.7,382.8 499.2,382.6 499.8,382.3 500.3,382.0 500.8,381.8 501.4,381.6 501.9,381.3 502.4,381.1"/>
    <polyline points="506.4,378.9 508.4,377.9"/>
    <polyline points="525.1,383.8 525.5,384.2 527.0,385.7"/>
    <polyline points="524.7,383.4 525.1,383.8"/>
    <polyline points="538.4,400.7 539.7,403.2 540.7,404.9 546.9,415.9 547.2,416.5 550.6,422.6 551.8,424.8 553.9,428.6"/>
    <polyline points="557.4,434.5 557.9,435.5 558.6,436.7"/>
    <polyline points="556.6,433.1 557.3,434.4 557.4,434.5"/>
    <polyline points="561.2,441.6 562.1,443.2"/>
    <polyline points="560.7,440.7 561.2,441.6"/>
    <polyline points="465.4,400.1 465.9,401.0 466.9,402.5"/>
    <polyline points="496.5,384.1 497.9,383.3 498.7,382.8"/>
    <polyline points="566.0,450.2 564.7,448.0 564.1,446.8 563.8,446.3 563.6,446.0 563.5,445.7 563.3,445.4 563.2,445.0 563.1,444.6 562.9,444.1 562.8,443.8"/>
    <polyline points="531.6,381.6 532.1,381.8"/>
    <polyline points="525.3,379.4 525.6,379.4 525.8,379.5 528.3,380.3 529.4,380.6 530.4,380.9 531.2,381.4 531.6,381.6"/>
    <polyline points="518.7,376.3 519.1,376.5 519.4,376.6 519.6,376.7 521.0,377.5 522.5,378.3 522.7,378.5 522.9,378.6 523.4,378.7 523.5,378.8 523.7,378.8 523.9,378.8 524.2,378.9 524.5,378.9 525.6,379.3 526.5,379.6 526.8,379.7 528.3,380.1 530.6,380.9 532.9,381.6 533.5,381.7 533.8,381.8 534.1,381.9 535.1,382.3 535.2,382.3"/>
    <polyline points="523.9,378.8 523.2,378.7 522.9,378.7 522.6,378.6 522.3,378.6 522.1,378.5 521.8,378.4 521.5,378.2 521.2,378.1 521.0,377.9 520.7,377.8"/>
    <polyline points="521.2,377.5 522.6,378.0 524.7,378.9 525.3,379.2 525.4,379.2 525.6,379.3"/>
    <polyline points="572.7,489.8 573.7,489.8 575.2,490.0 575.9,490.0"/>
    <polyline points="294.2,167.3 294.5,167.3 294.7,167.3"/>
    <polyline points="329.5,350.6 329.3,350.6 317.4,351.4 316.7,351.4 316.1,351.5 315.4,351.6 314.7,351.6 312.1,352.0 310.8,352.1 310.2,352.2 309.6,352.3"/>
    <polyline points="331.4,351.2 337.7,350.8 341.1,350.5"/>
    <polyline points="300.5,353.5 303.9,353.2 307.4,352.9"/>
  </g>
  <g>
    <circle cx="308.4" cy="352.6" r="4" fill="#dc2626"/>
    <circle cx="264.0" cy="240.7" r="4" fill="#dc2626"/>
    <circle cx="453.9" cy="381.9" r="4" fill="#dc2626"/>
    <circle cx="428.2" cy="374.4" r="4" fill="#dc2626"/>
    <circle cx="269.8" cy="217.9" r="4" fill="#dc2626"/>
    <circle cx="570.5" cy="490.1" r="4" fill="#dc2626"/>
    <circle cx="541.4" cy="492.3" r="4" fill="#dc2626"/>
    <circle cx="561.2" cy="441.1" r="4" fill="#dc2626"/>
    <circle cx="539.7" cy="402.7" r="4" fill="#dc2626"/>
    <circle cx="550.8" cy="422.4" r="4" fill="#dc2626"/>
    <circle cx="485.4" cy="390.6" r="4" fill="#dc2626"/>
    <circle cx="475.5" cy="417.5" r="4" fill="#dc2626"/>
    <circle cx="497.2" cy="456.5" r="4" fill="#dc2626"/>
    <circle cx="262.0" cy="306.6" r="4" fill="#dc2626"/>
    <circle cx="525.1" cy="383.5" r="4" fill="#dc2626"/>
    <circle cx="434.9" cy="347.5" r="4" fill="#dc2626"/>
    <circle cx="417.0" cy="300.1" r="4" fill="#dc2626"/>
    <circle cx="394.8" cy="245.0" r="4" fill="#dc2626"/>
    <circle cx="262.4" cy="326.5" r="4" fill="#dc2626"/>
    <circle cx="294.9" cy="167.1" r="4" fill="#dc2626"/>
    <circle cx="261.3" cy="268.0" r="4" fill="#dc2626"/>
    <circle cx="342.4" cy="350.0" r="4" fill="#dc2626"/>
    <circle cx="271.1" cy="187.2" r="4" fill="#dc2626"/>
    <circle cx="371.7" cy="354.9" r="4" fill="#dc2626"/>
    <circle cx="394.9" cy="225.1" r="4" fill="#dc2626"/>
    <circle cx="376.0" cy="342.1" r="4" fill="#dc2626"/>
    <circle cx="374.5" cy="301.7" r="4" fill="#dc2626"/>
    <circle cx="375.4" cy="279.4" r="4" fill="#dc2626"/>
    <circle cx="430.3" cy="187.5" r="4" fill="#dc2626"/>
    <circle cx="457.6" cy="144.8" r="4" fill="#dc2626"/>
    <circle cx="394.8" cy="219.3" r="4" fill="#dc2626"/>
  </g>
</svg>