<?xml version="1.0" encoding="UTF-8"?>
<svg width="800" height="600" xmlns="http://www.w3.org/2000/svg">
  <title>Atlanta Subway Map</title>
  <rect width="100%" height="100%" fill="#f8f9fa"/>

  <!-- 지하철 선로 -->
  <g stroke="#2563eb" stroke-width="2" fill="none" opacity="0.8">
    <polyline points="652.0,315.5 651.4,315.5 650.9,315.4 649.9,315.4 648.9,315.3 647.9,315.1 647.4,315.0"/>
    <polyline points="682.4,57.6 683.2,57.4 685.5,56.8 687.5,56.2"/>
    <polyline points="721.6,285.9 723.1,285.5 723.7,285.4 724.2,285.3 725.1,285.2 726.4,285.2 732.6,285.1 733.8,285.1 742.2,285.2 748.1,285.3 753.1,285.5 754.8,285.6"/>
    <polyline points="700.1,303.2 703.3,302.1 705.5,301.1 707.4,299.7 708.2,299.0 708.7,298.4 710.0,296.2 710.8,294.7 712.9,291.0 713.2,290.6 713.5,290.3 714.0,289.7"/>
    <polyline points="669.1,310.4 667.5,311.2 665.4,312.2 663.7,312.9 661.5,313.9 661.0,314.0 660.3,314.3 659.5,314.6 658.9,314.7 658.2,314.9 657.4,315.0 656.5,315.2 655.4,315.3 654.5,315.4 653.6,315.5 652.6,315.5 652.0,315.5"/>
    <polyline points="697.9,52.2 698.6,52.0 698.9,51.9 699.3,51.8 699.8,51.6 700.0,51.6 700.7,51.3"/>
    <polyline points="698.1,52.4 700.7,51.3"/>
    <polyline points="611.2,312.3 609.5,312.6 607.3,312.9 605.9,313.1 604.3,313.3 603.2,313.4 601.9,313.6 600.9,313.7 600.2,313.8 599.2,314.0 598.4,314.1 597.3,314.3 596.3,314.5 595.2,314.8 594.1,315.0 593.1,315.4 592.1,315.7 591.3,316.0 590.6,316.3"/>
    <polyline points="488.6,231.7 488.6,231.5 488.7,231.2 488.8,230.8"/>
    <polyline points="343.4,498.4 343.1,499.0 342.4,500.6 341.5,502.5 341.1,503.1"/>
    <polyline points="327.0,549.2 327.2,549.5 327.3,549.7 327.4,549.8 327.5,550.0 327.6,550.2 327.8,550.4 328.1,550.8 328.3,551.0 328.7,551.4 329.7,552.5"/>
    <polyline points="492.2,264.9 492.1,264.6 492.1,264.3 491.1,259.8 490.4,255.7 490.1,254.7 489.8,253.3 489.1,251.1 489.1,250.9 489.0,250.7 489.0,250.4 488.9,250.2 488.9,249.9 488.9,249.7 488.9,249.4 488.9,249.2 488.8,249.1 488.8,248.9 488.6,233.0 488.6,232.6 488.6,232.5 488.6,232.4 488.6,232.2 488.6,232.0 488.6,231.7"/>
    <polyline points="387.5,302.4 388.4,303.2 389.0,303.9 389.3,304.3"/>
    <polyline points="555.3,165.6 556.9,164.7 558.4,163.8 559.1,163.4 559.8,162.9 560.4,162.4 560.9,161.9 561.4,161.4 561.8,160.9"/>
    <polyline points="419.5,369.4 419.5,370.2 419.4,370.4 419.4,370.7 419.4,371.0 419.4,371.2 419.4,371.4 419.3,371.8 419.3,372.1 419.2,372.5 419.2,372.7 419.1,372.9 419.1,373.1 419.0,373.4 418.9,373.7 418.8,373.9 418.8,374.1 418.7,374.3 418.6,374.5 418.4,374.9 418.3,375.0 418.3,375.2 418.2,375.3 417.9,375.7 417.9,375.8 417.8,375.9 417.7,376.1 417.6,376.2 417.5,376.3 417.4,376.4 417.2,376.7 417.1,376.9 416.8,377.1 416.7,377.3 416.6,377.4 416.3,377.7 416.1,377.9 413.5,380.6 411.8,382.2 411.5,382.5 411.1,383.0 410.9,383.2 410.6,383.4 410.4,383.6 410.2,383.7 410.0,383.9 409.9,384.0 409.6,384.2 409.5,384.3 409.3,384.5 409.1,384.6 409.0,384.7 408.8,384.8 408.6,385.0 399.1,391.5 397.4,392.7 397.2,392.8 397.0,393.0 396.7,393.1 396.5,393.3 396.2,393.5 395.9,393.8 395.6,394.0 395.4,394.2 395.1,394.5 394.9,394.7 394.6,395.0 394.4,395.2 394.1,395.5 394.0,395.6 393.7,395.9 393.5,396.1 393.4,396.2 393.3,396.4 393.1,396.6 392.9,396.9 392.8,397.2 392.6,397.4 392.5,397.6 392.3,397.9 392.1,398.2"/>
    <polyline points="583.9,130.1 584.8,129.4 585.3,128.8 585.8,128.3 586.2,127.8 586.6,127.3 586.9,126.8 587.2,126.3 587.5,125.8 588.2,124.6 588.4,124.2 589.1,122.9 589.3,122.6 589.8,121.9 590.4,121.3 591.1,120.7 591.7,120.1 592.3,119.7 593.2,119.1 593.8,118.8 594.4,118.5"/>
    <polyline points="561.8,160.9 562.2,160.4 562.6,159.9 562.8,159.3 563.0,158.8 563.2,158.4 563.3,157.9 563.4,157.4 563.5,157.0 564.0,153.9 564.1,153.4 564.2,152.9 564.2,152.4 564.2,152.0 564.2,151.6 564.2,151.1 564.1,150.6 564.1,150.1"/>
    <polyline points="389.3,304.3 389.8,305.1 390.0,305.7 390.4,306.7 390.7,308.0 390.9,308.7 391.3,310.6 391.9,313.1 392.1,314.1 392.4,315.1"/>
    <polyline points="555.3,165.6 558.2,163.8 558.9,163.3 559.6,162.9 560.2,162.4 560.8,161.8 561.2,161.4 561.6,160.9 562.0,160.4 562.3,159.9 562.6,159.4 562.8,158.8 563.0,158.3 563.1,157.8 563.2,157.4 563.3,157.0 563.3,156.5 563.3,156.1 563.3,155.7 563.2,155.1 563.0,154.4 562.8,153.8 562.5,153.3 562.1,152.6 561.8,152.1"/>
    <polyline points="561.7,152.1 562.0,152.7 562.3,153.3 562.6,153.9 562.8,154.5 563.0,155.1 563.1,155.7 563.2,156.1 563.2,156.5 563.1,157.0 563.1,157.4 563.0,157.9 562.9,158.3 562.7,158.8 562.5,159.3 562.2,159.9 561.9,160.3 561.5,160.9 561.1,161.4 560.6,161.8 560.1,162.3 559.5,162.8 558.8,163.3 558.1,163.7 555.7,165.2"/>
    <polyline points="590.6,316.3 589.8,316.6 589.1,316.9 588.5,317.2 587.5,317.7 586.8,318.2 586.1,318.5 585.4,319.0 583.4,320.2 581.4,321.4 580.3,322.1"/>
    <polyline points="349.1,481.2 349.2,481.8 349.3,482.5 349.3,483.6 349.2,484.0 349.1,484.3"/>
    <polyline points="565.8,327.7 566.7,327.5 567.7,327.4"/>
    <polyline points="713.9,289.7 713.4,290.1 713.0,290.5 712.7,291.0 710.8,294.1 708.7,298.0 707.9,299.0 706.9,300.0 705.3,301.0 703.2,302.1 700.0,303.2"/>
    <polyline points="714.0,289.7 714.2,289.6 714.3,289.5 714.4,289.4 714.6,289.2 714.8,289.1 714.9,289.0 715.1,288.8 715.3,288.7 715.5,288.6 715.8,288.4 716.0,288.3 716.2,288.2 716.4,288.0 716.6,287.9"/>
    <polyline points="721.6,285.8 721.0,286.0 720.9,286.0 720.7,286.1 720.6,286.1 720.4,286.1 720.3,286.2 720.1,286.2 720.0,286.3 719.8,286.4 719.6,286.4 719.4,286.5 719.2,286.6 719.0,286.7 718.8,286.7 718.7,286.8"/>
    <polyline points="492.7,335.7 492.5,335.6"/>
    <polyline points="560.1,141.8 560.4,141.4 560.8,141.0 561.2,140.6 561.6,140.3 562.0,140.0 562.4,139.7 562.9,139.4"/>
    <polyline points="575.0,134.4 575.5,134.2"/>
    <polyline points="559.0,143.9 559.2,143.5 559.4,143.1 559.6,142.7 559.8,142.3 560.1,141.8"/>
    <polyline points="561.8,152.1 559.8,149.0 559.6,148.6 559.3,148.2 559.2,147.8 559.0,147.4 558.9,146.9 558.8,146.5 558.8,146.0 558.7,145.6 558.8,145.2 558.8,144.8 558.9,144.4 559.0,143.9"/>
    <polyline points="575.5,134.2 579.7,132.4 580.7,132.0 581.6,131.6 582.4,131.1 583.3,130.5"/>
    <polyline points="583.3,130.5 583.9,130.1"/>
    <polyline points="539.1,127.3 538.5,126.5 538.2,126.0 537.9,125.6 537.6,125.1 537.3,124.5 537.1,124.0 537.0,123.5 536.8,123.0 536.8,122.5 536.7,121.9 536.7,121.4 536.7,120.8 536.7,120.3 536.7,119.8 536.9,118.4"/>
    <polyline points="537.5,111.0 537.4,112.4"/>
    <polyline points="543.9,89.2 543.0,90.1 542.4,90.6 541.9,91.0 541.5,91.5 541.0,92.0 540.6,92.6 540.3,93.1 540.0,93.6 539.7,94.2 539.5,94.8 539.3,95.3 539.2,95.9 539.1,96.5 539.0,97.1 538.9,97.7 537.5,111.0"/>
    <polyline points="619.3,104.2 618.7,105.1 618.2,106.0 616.4,109.0 616.0,109.6 615.6,110.1 614.6,111.0"/>
    <polyline points="594.4,118.5 595.0,118.2 595.8,117.9 596.6,117.6 597.5,117.3 599.1,116.8 600.3,116.4 601.3,116.1 610.4,113.4 611.7,112.9 612.2,112.7 612.5,112.6 613.2,112.2 613.4,112.1 614.0,111.7 614.4,111.5 614.8,111.2"/>
    <polyline points="614.8,111.2 615.7,110.3 616.3,109.6 616.9,108.8 617.6,107.7 618.6,106.1 619.6,104.3"/>
    <polyline points="614.6,111.0 614.2,111.3 613.3,111.9 612.3,112.5 611.5,112.8 610.3,113.3 607.7,114.1 603.7,115.3 601.3,116.1 600.8,116.2 599.5,116.6 597.4,117.2 596.1,117.6 595.2,118.0"/>
    <polyline points="692.7,304.7 693.8,304.6 694.2,304.5 694.5,304.5 694.8,304.5 695.1,304.5 695.4,304.4 695.8,304.4 696.2,304.3 696.4,304.3 696.6,304.2 696.8,304.2 697.1,304.1 697.2,304.1 697.4,304.1 697.9,303.9 698.1,303.9 698.4,303.8 698.6,303.7 698.9,303.7 699.1,303.6 699.4,303.5 699.6,303.4 699.9,303.3 700.1,303.2"/>
    <polyline points="754.8,285.5 753.1,285.3 750.7,285.2 748.3,285.1 733.8,285.1 731.3,285.1 731.2,285.1 726.6,285.1 726.2,285.1 724.7,285.2 723.4,285.3 722.8,285.4 721.6,285.8"/>
    <polyline points="718.8,286.8 718.9,286.8 719.1,286.7 719.4,286.6 719.5,286.5 719.7,286.5 719.8,286.4 720.0,286.4 720.2,286.3 720.4,286.3 720.5,286.2 720.7,286.2 720.8,286.1 721.0,286.1 721.6,285.9"/>
    <polyline points="718.7,286.8 718.4,286.9 718.1,287.0 717.9,287.1 717.7,287.2 717.5,287.3 717.3,287.4 717.2,287.5 717.1,287.5 716.9,287.6 716.8,287.7 716.6,287.8 716.4,287.9"/>
    <polyline points="716.4,287.9 716.1,288.1 715.8,288.3 715.6,288.4 715.3,288.6 715.1,288.8 714.8,288.9 714.6,289.1 714.3,289.3 714.1,289.5 713.9,289.7"/>
    <polyline points="716.6,287.9 716.7,287.9 716.8,287.8 717.0,287.7 717.1,287.6 717.2,287.6 717.3,287.5 717.4,287.5 717.5,287.4 717.7,287.3 717.9,287.2 718.1,287.2 718.3,287.1 718.5,287.0 718.8,286.8"/>
    <polyline points="437.5,355.4 436.7,355.5 436.2,355.6 435.8,355.6 435.4,355.7 434.7,355.7 434.0,355.8 433.5,355.8 432.5,355.9 429.9,356.1 429.4,356.1 429.0,356.2 428.5,356.2 428.1,356.3 427.9,356.3 427.7,356.3 427.4,356.4 427.1,356.4 426.8,356.5 426.6,356.6 426.4,356.6 426.2,356.6 426.1,356.7 425.9,356.7 425.7,356.8 425.4,356.9 425.2,356.9 425.1,357.0 424.9,357.0 424.7,357.1 424.6,357.2 424.4,357.2 424.3,357.3 424.1,357.4 424.0,357.4 423.7,357.6 423.5,357.7 423.3,357.8 423.2,357.8 423.1,357.9 422.9,358.0 422.8,358.1 422.6,358.2 422.5,358.3 422.4,358.3 422.3,358.4"/>
    <polyline points="640.5,313.3 641.0,313.4 643.9,314.3 644.7,314.6 645.5,314.8 646.8,315.1 647.9,315.3 648.8,315.4 650.4,315.6 651.6,315.7 652.6,315.7 653.9,315.7 655.0,315.6 656.2,315.5 657.2,315.3 658.1,315.1 659.1,314.9 660.0,314.7 660.9,314.4 662.0,314.0 663.0,313.6 665.8,312.3 666.5,312.0 669.4,310.7"/>
    <polyline points="669.4,310.7 671.8,309.5 674.7,308.2 675.9,307.7 677.0,307.2 677.7,306.9 678.6,306.5 679.4,306.2 679.8,306.1 680.4,305.9 681.1,305.8 681.8,305.6 682.6,305.5 683.6,305.4 685.0,305.2 686.3,305.1"/>
    <polyline points="700.0,303.2 699.6,303.3 699.1,303.5 698.8,303.6 698.6,303.6 698.3,303.7 698.0,303.8 697.6,303.9 697.4,303.9 697.1,304.0 696.8,304.0 696.5,304.1 696.2,304.1 695.9,304.2 695.7,304.2 695.4,304.2 694.4,304.3 692.7,304.4"/>
    <polyline points="686.3,304.9 685.1,305.0 684.0,305.1 683.3,305.1 682.5,305.2 681.9,305.3 681.3,305.4 680.6,305.6 680.0,305.7 679.5,305.9 679.0,306.0 678.4,306.2 677.8,306.5 677.0,306.8 676.1,307.2 674.6,307.9 672.0,309.1 669.1,310.4"/>
    <polyline points="466.2,340.4 465.8,340.8 464.3,342.3"/>
    <polyline points="449.5,352.2 447.8,352.7 447.2,352.9 444.1,353.8 443.7,353.9 441.9,354.4 441.3,354.6 440.7,354.7 440.2,354.8 439.8,354.9"/>
    <polyline points="439.8,354.9 439.0,355.1 438.3,355.2 437.8,355.3 437.5,355.4"/>
    <polyline points="451.6,351.5 450.5,351.9 449.5,352.2"/>
    <polyline points="464.3,342.3 463.7,342.9 462.1,344.6 461.9,344.8 461.6,345.0 459.5,347.2 459.1,347.5 458.8,347.9 458.6,348.0 458.5,348.1 458.3,348.2 458.2,348.3 458.0,348.5 457.8,348.6 457.6,348.8 457.4,348.9 457.1,349.1 456.9,349.2 456.7,349.3 456.3,349.5 455.9,349.8 455.6,349.9 455.3,350.1 454.9,350.3 454.5,350.5 454.2,350.6 453.9,350.7 453.6,350.8 453.3,350.9 452.9,351.1 452.6,351.2 452.1,351.4 451.6,351.5"/>
    <polyline points="468.0,338.6 466.2,340.4"/>
    <polyline points="392.1,398.2 391.9,398.7 391.7,399.0 391.4,399.6 391.2,400.0 391.0,400.5 390.8,400.8 390.7,401.1 390.0,402.6"/>
    <polyline points="389.6,403.5 388.6,406.0 387.7,408.1 387.1,409.7 386.3,411.9 385.6,413.4 385.1,414.8 383.9,417.5 383.6,418.5 383.3,419.3 383.2,420.0 383.0,420.9 382.3,424.6 381.8,427.2 381.7,427.8 381.0,431.0 379.8,435.2 379.7,435.9 379.5,437.0 379.3,437.7"/>
    <polyline points="390.0,402.6 389.6,403.5"/>
    <polyline points="282.7,327.4 283.7,327.6 284.8,328.0 287.8,328.8 294.6,330.7"/>
    <polyline points="294.6,330.7 295.5,330.9 297.4,331.4 301.4,332.6 303.9,333.3 305.1,333.6 306.0,333.8 307.5,334.1 308.9,334.3 310.1,334.4 312.0,334.6 313.5,334.6 314.8,334.5 316.0,334.4 317.2,334.2 318.6,334.0 320.2,333.7 322.3,333.2 325.9,332.2 327.1,331.9 332.0,330.5"/>
    <polyline points="611.2,312.5 611.8,312.4"/>
    <polyline points="647.4,315.0 646.6,314.8 645.6,314.6 644.9,314.4 642.3,313.6 640.5,313.1"/>
    <polyline points="640.5,313.1 640.0,312.9"/>
    <polyline points="620.0,311.4 622.3,311.1 623.6,311.0 624.5,310.9 625.9,310.8 627.2,310.7 628.1,310.7 628.6,310.7 630.0,310.7 631.1,310.9 631.9,311.0 632.8,311.1 633.7,311.3 635.2,311.6 636.6,312.0 640.0,313.1"/>
    <polyline points="640.0,313.1 640.5,313.3"/>
    <polyline points="619.9,311.2 616.7,311.6 614.5,311.9 613.2,312.0 611.9,312.2"/>
    <polyline points="611.9,312.2 611.2,312.3"/>
    <polyline points="590.4,316.4 591.0,316.2 592.1,315.8 593.0,315.5 593.7,315.3 594.5,315.0 595.7,314.7 596.5,314.6 597.3,314.4 598.4,314.2 599.2,314.0 600.2,313.9 600.9,313.8 602.3,313.6 603.4,313.5 604.4,313.4 607.2,313.0 611.2,312.5"/>
    <polyline points="544.1,331.2 545.8,330.8 547.8,330.4 549.1,330.1 552.3,329.6 553.8,329.3 556.3,328.9 558.1,328.7 560.5,328.4 564.7,327.8 565.8,327.7"/>
    <polyline points="488.8,230.8 488.9,230.4 489.0,230.1 489.1,229.9 489.2,229.6 489.4,229.3 489.5,229.0 489.6,228.8 489.8,228.5 489.9,228.3 490.1,228.0 490.3,227.8 490.4,227.6 490.6,227.3 490.8,227.2 490.9,227.0 491.1,226.8 491.2,226.7"/>
    <polyline points="643.9,314.2 643.2,313.9 642.3,313.6"/>
    <polyline points="641.0,313.4 642.0,313.7 642.7,313.8 643.9,314.2 645.1,314.6 646.0,314.8 646.9,315.0 648.1,315.3 649.3,315.4 650.4,315.5 650.9,315.6 652.1,315.6 653.6,315.6 654.8,315.5 655.8,315.4 656.4,315.3 657.4,315.1 658.6,314.9 659.5,314.7 660.6,314.3 661.4,314.0 662.3,313.7 662.9,313.4"/>
    <polyline points="662.9,313.4 663.6,313.1 663.8,313.0"/>
    <polyline points="666.0,312.0 664.6,312.6 663.8,313.0"/>
    <polyline points="492.2,335.4 491.1,334.7 490.1,334.2 489.7,334.0"/>
    <polyline points="404.8,323.1 407.8,323.1 408.5,323.1 409.0,323.1 409.6,323.1 410.2,323.1 425.8,323.5"/>
    <polyline points="524.6,335.9 525.5,335.7 526.3,335.4"/>
    <polyline points="492.1,335.5 492.6,335.8"/>
    <polyline points="489.6,334.1 490.0,334.3 491.0,334.8 492.1,335.5"/>
    <polyline points="521.6,336.5 518.8,337.3 517.3,337.6 516.8,337.8 516.2,337.9 515.7,338.0 515.3,338.1 515.0,338.1 514.6,338.2 514.2,338.3 513.7,338.4 513.3,338.4 512.8,338.5 512.5,338.5 512.0,338.6 511.5,338.6 511.0,338.7 510.7,338.7 510.3,338.7 510.0,338.8 509.6,338.8 508.3,338.8 507.4,338.9 506.2,338.9 505.4,338.9 504.7,339.0 503.6,339.0 503.1,339.0 502.7,339.1 502.4,339.1 502.0,339.1 501.7,339.1 501.3,339.1 500.9,339.0 500.7,339.0 500.3,339.0 500.0,338.9 499.8,338.9 499.5,338.8 499.3,338.8 499.1,338.7 498.8,338.7 498.5,338.6 498.4,338.6 498.1,338.5"/>
    <polyline points="567.7,327.4 569.0,327.1 570.2,326.8 571.5,326.5 572.4,326.2 574.1,325.6 575.0,325.2 576.1,324.6 577.6,323.8 579.5,322.7 581.5,321.5 583.5,320.2 585.5,319.0 586.1,318.7 586.8,318.2 587.6,317.8 588.6,317.3 589.4,316.9 590.4,316.4"/>
    <polyline points="580.3,322.1 579.6,322.5 578.8,323.0 577.9,323.5 576.9,324.1 576.1,324.5 575.2,325.0 575.0,325.1 573.9,325.5 572.9,325.9 571.9,326.3 570.9,326.6 569.7,326.9 568.5,327.1 567.3,327.3 566.6,327.4 565.7,327.6"/>
    <polyline points="611.8,312.4 613.3,312.3 614.6,312.1 616.8,311.8 620.0,311.4"/>
    <polyline points="640.0,312.9 636.8,312.0 635.3,311.5 633.8,311.2 633.1,311.1 632.1,310.9 631.2,310.8 630.0,310.7 628.9,310.6 628.1,310.6 627.3,310.6 625.9,310.6 624.4,310.7 622.9,310.8 620.6,311.1 619.9,311.2"/>
    <polyline points="276.3,326.9 276.8,326.9 278.7,326.9 279.5,326.9 279.9,327.0 280.4,327.0 281.3,327.2 282.7,327.4"/>
    <polyline points="273.8,327.0 274.0,327.0 275.1,326.9 276.3,326.9"/>
    <polyline points="271.5,327.1 269.0,327.2 266.1,327.3"/>
    <polyline points="380.2,323.3 380.6,323.2 381.1,323.2 381.6,323.2 382.4,323.2 383.2,323.1 384.6,323.1 385.5,323.1 386.7,323.1 387.5,323.1 404.8,323.1"/>
    <polyline points="377.1,323.5 378.5,323.4"/>
    <polyline points="378.5,323.4 379.3,323.3 380.2,323.3"/>
    <polyline points="492.5,335.6 492.2,335.4"/>
    <polyline points="524.6,335.9 525.5,335.7 526.4,335.5"/>
    <polyline points="498.1,338.6 498.4,338.6 498.6,338.7 498.7,338.7 498.9,338.8 499.1,338.8 499.3,338.9 499.6,338.9 499.7,339.0 500.0,339.0 500.2,339.0 500.5,339.1 500.7,339.1 501.0,339.1 501.3,339.1 501.5,339.1 501.7,339.1 502.0,339.1 502.2,339.1 502.5,339.1 502.8,339.1 503.1,339.1 503.5,339.1 504.5,339.1 506.1,339.0 506.8,339.0 507.4,338.9 508.1,338.9 508.6,338.9 509.7,338.9 510.0,338.8 510.4,338.8 510.9,338.8 511.2,338.8 511.6,338.7 511.9,338.7 512.5,338.6 512.8,338.6 513.1,338.6 513.5,338.5 514.1,338.4 514.6,338.3 515.3,338.2 516.4,337.9 517.4,337.7 518.8,337.4 521.7,336.7"/>
    <polyline points="393.2,317.5 393.4,317.7 393.5,317.9 393.6,318.2 393.8,318.5 394.0,318.7 394.1,318.9 394.2,319.1 394.4,319.4 394.6,319.6 394.8,319.7 395.0,320.0 395.3,320.3 395.4,320.5 395.7,320.7 396.0,320.9 396.4,321.2 396.8,321.5 397.0,321.6 397.3,321.8 397.5,321.9 397.8,322.0 398.2,322.2 398.5,322.3 398.7,322.4 399.0,322.5 399.3,322.6 399.5,322.6 399.9,322.7 400.1,322.8 400.3,322.8 400.5,322.8 400.7,322.9 401.0,322.9 401.2,322.9 401.5,322.9 401.8,323.0 402.0,323.0 402.3,323.0 402.7,323.0 402.9,323.0 403.2,323.0 403.5,323.1 403.6,323.1 404.8,323.1"/>
    <polyline points="378.8,291.4 378.9,291.9 379.0,292.3 379.1,292.8 379.3,293.4 379.5,293.9 379.7,294.4 379.9,295.0 380.2,295.5 380.5,296.0 380.8,296.5 381.2,297.0"/>
    <polyline points="383.2,299.1 383.7,299.5 384.4,300.1"/>
    <polyline points="381.2,297.0 381.9,297.8 382.5,298.5 383.2,299.1"/>
    <polyline points="701.3,51.1 702.2,50.7 703.0,50.4"/>
  </g>

  <!-- 지하철 역 -->
  <g>
    <circle cx="478.6" cy="328.5" r="3" fill="#dc2626" stroke="#fff" stroke-width="1"/>
    <circle cx="378.8" cy="290.0" r="3" fill="#dc2626" stroke="#fff" stroke-width="1"/>
    <circle cx="489.2" cy="319.6" r="3" fill="#dc2626" stroke="#fff" stroke-width="1"/>
    <circle cx="335.1" cy="329.7" r="3" fill="#dc2626" stroke="#fff" stroke-width="1"/>
    <circle cx="618.3" cy="106.1" r="3" fill="#dc2626" stroke="#fff" stroke-width="1"/>
    <circle cx="569.0" cy="136.6" r="3" fill="#dc2626" stroke="#fff" stroke-width="1"/>
    <circle cx="540.5" cy="129.6" r="3" fill="#dc2626" stroke="#fff" stroke-width="1"/>
    <circle cx="269.2" cy="327.2" r="3" fill="#dc2626" stroke="#fff" stroke-width="1"/>
    <circle cx="419.6" cy="365.8" r="3" fill="#dc2626" stroke="#fff" stroke-width="1"/>
    <circle cx="388.8" cy="406.1" r="3" fill="#dc2626" stroke="#fff" stroke-width="1"/>
    <circle cx="347.4" cy="489.3" r="3" fill="#dc2626" stroke="#fff" stroke-width="1"/>
    <circle cx="325.8" cy="542.3" r="3" fill="#dc2626" stroke="#fff" stroke-width="1"/>
    <circle cx="489.4" cy="302.1" r="3" fill="#dc2626" stroke="#fff" stroke-width="1"/>
    <circle cx="491.5" cy="291.4" r="3" fill="#dc2626" stroke="#fff" stroke-width="1"/>
    <circle cx="492.1" cy="271.6" r="3" fill="#dc2626" stroke="#fff" stroke-width="1"/>
    <circle cx="490.0" cy="254.8" r="3" fill="#dc2626" stroke="#fff" stroke-width="1"/>
    <circle cx="521.7" cy="336.6" r="3" fill="#dc2626" stroke="#fff" stroke-width="1"/>
    <circle cx="493.6" cy="336.3" r="3" fill="#dc2626" stroke="#fff" stroke-width="1"/>
    <circle cx="583.4" cy="320.2" r="3" fill="#dc2626" stroke="#fff" stroke-width="1"/>
    <circle cx="616.8" cy="311.7" r="3" fill="#dc2626" stroke="#fff" stroke-width="1"/>
    <circle cx="688.9" cy="304.8" r="3" fill="#dc2626" stroke="#fff" stroke-width="1"/>
    <circle cx="378.9" cy="440.9" r="3" fill="#dc2626" stroke="#fff" stroke-width="1"/>
    <circle cx="466.4" cy="340.5" r="3" fill="#dc2626" stroke="#fff" stroke-width="1"/>
    <circle cx="537.5" cy="184.4" r="3" fill="#dc2626" stroke="#fff" stroke-width="1"/>
    <circle cx="409.8" cy="323.1" r="3" fill="#dc2626" stroke="#fff" stroke-width="1"/>
    <circle cx="462.5" cy="323.7" r="3" fill="#dc2626" stroke="#fff" stroke-width="1"/>
    <circle cx="445.4" cy="322.9" r="3" fill="#dc2626" stroke="#fff" stroke-width="1"/>
    <circle cx="733.9" cy="285.1" r="3" fill="#dc2626" stroke="#fff" stroke-width="1"/>
  </g>
</svg>