<?xml version="1.0" encoding="UTF-8"?>
<svg width="800" height="600" xmlns="http://www.w3.org/2000/svg">
  <title>Baltimore Subway Map</title>
  <rect width="100%" height="100%" fill="#f8f9fa"/>

  <!-- 지하철 선로 -->
  <g stroke="#2563eb" stroke-width="2" fill="none" opacity="0.8">
    <polyline points="63.9,103.1 28.0,95.3 26.9,95.0 26.0,94.7 25.2,94.4 24.2,94.1 23.1,93.5 22.2,93.0 21.5,92.5 20.9,92.1 20.4,91.6 19.8,90.9 19.2,90.3 18.8,89.6 18.5,88.8 18.1,87.6 17.4,85.3 16.6,83.0 15.4,79.5 15.2,78.9 15.0,78.5 14.8,78.1 14.6,77.6 14.3,77.3 14.1,76.9 13.6,76.2 12.7,75.3 12.2,74.9 11.4,74.2 10.6,73.6 9.2,72.7 2.8,68.8 -4.0,64.5 -5.1,63.9 -6.0,63.4 -7.0,62.8 -8.1,62.3 -9.1,61.9"/>
    <polyline points="122.7,126.0 126.9,127.7 129.7,128.9 134.2,130.8 136.3,131.5 137.4,131.9 138.3,132.2 139.2,132.5 140.1,132.8 141.3,133.1 142.2,133.3 143.2,133.5 144.1,133.7 145.2,134.0 178.3,141.5 179.5,141.8 180.5,142.0 181.7,142.4 182.6,142.7 183.6,143.0 184.5,143.4 185.4,143.7 186.1,144.0 187.4,144.6 188.9,145.4 191.1,146.7 191.7,147.0 192.1,147.3 192.8,147.6 193.2,147.9 193.6,148.1 194.5,148.6 195.5,149.2 196.7,149.8 199.0,151.0 201.4,152.2 205.1,154.0 206.4,154.6 207.2,155.0 208.0,155.2 209.0,155.5 210.2,155.8 211.3,156.0 212.7,156.3 216.2,157.0 217.0,157.2 217.8,157.4 218.5,157.6 219.1,157.8 219.8,158.0 220.5,158.3 221.1,158.5 221.7,158.8 222.1,159.0 222.8,159.4 223.4,159.8 223.8,160.0 224.2,160.4 224.6,160.7 225.0,161.1 225.4,161.5 225.8,161.9 226.1,162.3 226.8,163.1 228.3,165.3 228.8,166.0 229.2,166.6 229.5,167.1 229.7,167.7 230.1,168.4 230.5,169.3 231.5,171.9"/>
    <polyline points="-9.2,62.0 -8.2,62.4 -7.1,62.9 -6.1,63.5 -5.2,64.0 -4.2,64.6 2.5,69.0 8.9,72.9 10.2,73.8 11.0,74.4 11.9,75.0 12.3,75.5 13.2,76.4 13.7,77.0 13.9,77.4 14.2,77.7 14.4,78.2 14.6,78.6 14.8,79.0 15.0,79.6 16.1,83.1 16.9,85.4 17.7,87.7 18.1,88.9 18.4,89.6 18.9,90.4 19.4,91.0 20.0,91.7 20.6,92.2 21.2,92.7 22.0,93.2 22.9,93.7 24.1,94.2 25.1,94.6 25.9,94.9 26.8,95.1 27.9,95.4 63.8,103.2"/>
    <polyline points="115.5,122.7 114.4,122.3 112.1,121.4 89.3,111.9"/>
    <polyline points="105.7,120.6 110.5,122.6 110.8,122.7 111.2,122.8 111.5,122.9 112.3,123.0 113.2,123.2 113.8,123.3"/>
    <polyline points="103.5,119.0 111.3,122.2 111.4,122.3"/>
    <polyline points="102.5,119.8 108.0,122.1"/>
    <polyline points="94.6,114.9 95.0,115.2 95.2,115.4 95.6,115.7"/>
    <polyline points="116.7,123.2 115.5,122.7"/>
    <polyline points="66.0,103.7 64.9,103.4 63.9,103.1"/>
    <polyline points="81.0,108.8 83.7,109.7"/>
    <polyline points="104.8,120.1 110.6,122.5 110.9,122.6 111.6,122.8 112.3,123.0"/>
    <polyline points="107.8,122.3 108.2,122.4 108.5,122.5 108.8,122.6 109.1,122.7 109.6,122.8 110.9,123.0 111.5,123.1"/>
    <polyline points="93.1,114.4 93.5,114.6 93.8,114.8 94.1,114.9 94.4,115.2 95.2,115.8"/>
    <polyline points="120.0,124.6 118.3,124.1 116.6,123.5"/>
    <polyline points="103.1,119.3 110.5,122.3 111.1,122.6"/>
    <polyline points="108.3,122.0 109.4,122.4 109.8,122.6 110.3,122.7 110.8,122.9 111.2,123.0"/>
    <polyline points="97.1,115.9 97.9,116.1 98.6,116.3"/>
    <polyline points="99.3,118.4 99.8,118.7 100.3,119.1 100.7,119.4 101.7,120.0 101.8,120.0"/>
    <polyline points="66.1,103.5 64.9,103.4 63.8,103.2"/>
    <polyline points="82.1,109.2 84.7,110.4 88.9,112.2"/>
    <polyline points="116.4,123.4 116.6,123.5"/>
    <polyline points="108.0,122.1 108.6,122.4 108.9,122.5 109.2,122.6 109.7,122.7 111.2,123.0 112.2,123.1 112.7,123.2"/>
    <polyline points="89.3,111.9 81.3,108.6 78.2,107.3 75.5,106.2 73.9,105.5 72.8,105.1 71.6,104.8 70.2,104.4 66.8,103.7"/>
    <polyline points="89.1,112.0 91.9,113.1 111.3,121.2 112.4,121.6"/>
    <polyline points="111.3,121.2 113.4,122.2"/>
    <polyline points="231.7,171.9 230.7,169.3 230.4,168.4 230.0,167.7 229.7,167.1 229.4,166.6 229.1,166.1 228.6,165.3 227.0,163.1 226.3,162.3 225.9,161.9 225.5,161.4 225.2,161.0 224.8,160.7 224.3,160.3 223.9,160.0 223.5,159.7 222.9,159.3 222.2,159.0 221.8,158.7 221.2,158.4 220.6,158.2 219.8,157.9 219.2,157.7 218.5,157.5 217.9,157.3 217.1,157.1 216.3,156.9 212.7,156.2 211.4,155.9 210.3,155.6 209.1,155.3 208.3,155.0 207.6,154.7 206.7,154.4 205.5,153.8 201.7,152.0 199.3,150.7 196.9,149.6 195.7,149.0 194.7,148.5 193.8,148.0 193.4,147.8 193.0,147.6 192.3,147.2 191.8,146.9 191.3,146.6 188.9,145.3 187.6,144.5 186.3,143.9 185.5,143.6 184.7,143.3 183.6,142.9 182.7,142.6 181.7,142.3 180.5,141.9 179.6,141.7 178.4,141.4 145.2,133.9 144.1,133.6 143.2,133.4 142.3,133.2 141.4,132.9 140.2,132.6 139.4,132.3 138.5,132.0 137.6,131.7 136.5,131.3 134.4,130.5 129.8,128.7 127.1,127.5 123.0,125.8"/>
    <polyline points="66.8,103.8 70.2,104.6 71.5,105.0 72.8,105.4 75.2,106.4 77.9,107.5 81.0,108.8 82.1,109.2 99.4,116.4"/>
    <polyline points="111.4,122.0 111.0,121.8 103.7,118.8"/>
    <polyline points="103.6,118.9 111.4,122.1"/>
    <polyline points="111.2,121.5 111.7,121.8 112.4,122.2 112.9,122.5 113.2,122.7"/>
    <polyline points="104.0,118.7 104.8,119.0 105.6,119.2"/>
    <polyline points="96.3,116.3 97.6,117.3"/>
    <polyline points="103.2,119.2 110.6,122.2 111.2,122.5 111.2,122.5"/>
    <polyline points="114.5,123.3 114.9,123.3 115.4,123.4 115.8,123.5"/>
    <polyline points="107.7,122.4 108.1,122.6 108.4,122.7 108.8,122.8 109.1,122.9 109.5,122.9 110.9,123.2 111.3,123.2 113.4,123.3"/>
    <polyline points="109.5,122.9 110.0,123.0 111.5,123.1 112.7,123.2 113.8,123.3 113.8,123.3"/>
    <polyline points="97.2,115.8 97.9,116.1 98.5,116.4"/>
    <polyline points="122.2,126.0 117.3,124.0 116.9,123.8 116.6,123.7 116.1,123.6"/>
    <polyline points="96.0,115.8 96.5,116.2 96.8,116.4 97.8,117.2 98.8,118.0 99.2,118.3"/>
    <polyline points="81.3,108.6 83.7,109.7"/>
    <polyline points="91.8,113.8 92.5,114.1 93.1,114.4 93.1,114.4"/>
    <polyline points="102.7,119.6 108.3,122.0"/>
    <polyline points="102.1,120.1 107.7,122.4"/>
    <polyline points="97.6,117.3 97.8,117.5 98.0,117.6 99.2,118.3 99.3,118.4 100.1,118.8 101.3,119.5 101.9,119.8 101.9,119.8"/>
    <polyline points="116.8,123.3 118.3,124.1 119.7,124.8"/>
    <polyline points="97.8,117.2 98.2,117.5 101.5,119.4 101.9,119.6"/>
    <polyline points="103.8,118.6 104.0,118.7 105.4,119.3 111.0,121.6 112.0,122.0 112.4,122.2"/>
    <polyline points="100.1,118.8 100.5,119.0 101.9,119.6 102.1,119.7"/>
    <polyline points="103.9,118.6 104.1,118.6 105.6,119.2 111.2,121.5 112.3,122.0 112.5,122.1"/>
    <polyline points="105.2,118.8 113.4,122.2 115.0,122.9 115.1,122.9"/>
    <polyline points="92.1,113.6 93.8,114.5"/>
    <polyline points="114.7,123.2 115.0,123.3 115.8,123.5 116.1,123.6"/>
    <polyline points="96.8,116.4 97.4,116.7 101.1,118.9 101.5,119.1 102.0,119.4 102.3,119.5"/>
    <polyline points="91.9,113.1 96.2,115.3"/>
    <polyline points="123.0,125.8 120.0,124.6"/>
    <polyline points="83.7,109.7 89.1,112.0"/>
    <polyline points="115.1,122.9 116.4,123.4"/>
    <polyline points="103.4,119.1 111.4,122.4"/>
    <polyline points="104.1,118.6 104.8,119.0 105.4,119.3"/>
    <polyline points="91.8,113.8 91.8,113.8 93.7,114.9 94.0,115.1 94.2,115.3 94.6,115.6"/>
    <polyline points="102.3,120.0 107.8,122.3"/>
    <polyline points="111.0,121.6 111.7,121.8 112.5,122.1 112.6,122.1"/>
    <polyline points="114.5,123.3 114.9,123.3"/>
    <polyline points="112.4,121.6 114.4,122.3"/>
    <polyline points="233.1,175.7 234.3,177.7"/>
    <polyline points="232.9,175.6 233.6,177.4 233.8,178.2 233.9,178.7 234.0,179.2 234.1,179.9 234.2,180.8 234.1,181.7"/>
    <polyline points="232.6,173.1 232.1,172.0 230.4,167.5"/>
    <polyline points="232.1,172.0 232.5,174.1"/>
    <polyline points="232.9,175.6 232.7,174.9 232.6,174.2"/>
    <polyline points="233.1,175.5 232.7,174.9 232.4,174.2"/>
    <polyline points="234.4,181.7 234.4,180.8 234.3,179.9 234.2,179.2 234.1,178.7 234.0,178.2 233.8,177.4 233.1,175.7 233.1,175.5"/>
    <polyline points="232.6,174.2 232.5,174.1 231.7,171.9"/>
    <polyline points="233.1,175.5 232.6,174.2"/>
    <polyline points="232.4,174.2 232.9,175.6"/>
    <polyline points="231.5,171.9 232.4,174.2"/>
    <polyline points="115.0,123.3 114.7,123.2"/>
    <polyline points="112.4,121.6 113.8,122.2"/>
    <polyline points="119.7,124.8 122.7,126.0"/>
    <polyline points="116.6,123.5 119.7,124.8"/>
    <polyline points="116.8,123.3 116.7,123.2"/>
    <polyline points="120.0,124.6 116.8,123.3"/>
    <polyline points="99.4,116.4 105.2,118.8"/>
    <polyline points="66.1,103.5 63.9,103.1"/>
    <polyline points="66.8,103.7 66.1,103.5"/>
    <polyline points="66.0,103.7 66.8,103.8"/>
    <polyline points="63.8,103.2 66.0,103.7"/>
    <polyline points="386.0,249.3 388.3,250.8 389.7,251.6"/>
    <polyline points="386.2,249.3 388.5,250.8 389.8,251.6"/>
    <polyline points="315.5,226.9 322.1,231.0"/>
    <polyline points="315.7,226.8 322.2,230.9"/>
    <polyline points="322.2,230.9 342.8,243.7"/>
    <polyline points="322.1,231.0 342.7,243.8"/>
    <polyline points="315.7,226.8 304.8,220.0 292.4,212.2 285.3,207.8"/>
    <polyline points="285.3,208.0 299.5,216.8 301.3,218.0 315.5,226.9"/>
    <polyline points="274.7,203.5 276.2,204.0 278.8,204.9 278.8,204.9 282.2,206.3 284.1,207.2 285.3,207.8"/>
    <polyline points="274.6,203.6 278.6,205.1 282.1,206.4 283.9,207.2 284.4,207.4 284.9,207.7 285.3,208.0"/>
    <polyline points="234.4,181.7 234.7,184.9 234.9,186.0 235.0,186.8 235.2,187.4 236.2,189.4 237.0,190.7 237.2,191.1 237.5,191.4 238.0,191.9 238.7,192.4 240.2,193.4 242.1,194.4 244.3,195.2 245.4,195.6 247.0,196.0 253.1,197.5 260.7,199.3 262.3,199.7 263.7,200.1 265.9,200.7 269.0,201.6 271.3,202.4 273.8,203.1 274.7,203.5"/>
    <polyline points="234.1,181.7 234.5,185.4 234.7,186.5 235.0,187.5 236.2,189.9 236.7,190.7 237.4,191.5 237.9,192.0 238.6,192.6 240.1,193.6 242.0,194.5 244.1,195.4 245.3,195.7 246.9,196.2 252.9,197.6 260.6,199.5 262.1,199.8 263.5,200.3 265.8,200.9 268.8,201.8 271.2,202.5 273.7,203.3 274.6,203.6"/>
    <polyline points="412.3,286.0 422.6,285.6 450.7,284.8 454.4,284.4 455.5,284.3 457.8,284.1 458.6,284.0 459.7,283.9 466.1,283.1 471.6,282.0 474.3,281.3 480.5,279.2 494.1,274.1 496.2,273.2 497.7,272.5 498.9,271.5 500.4,269.3 500.7,268.4 501.1,266.9 500.3,257.5"/>
  </g>

  <!-- 지하철 역 -->
  <g>
    <circle cx="78.1" cy="107.4" r="3" fill="#dc2626" stroke="#fff" stroke-width="1"/>
    <circle cx="127.0" cy="127.7" r="3" fill="#dc2626" stroke="#fff" stroke-width="1"/>
    <circle cx="201.5" cy="152.1" r="3" fill="#dc2626" stroke="#fff" stroke-width="1"/>
    <circle cx="397.2" cy="276.5" r="3" fill="#dc2626" stroke="#fff" stroke-width="1"/>
    <circle cx="277.5" cy="204.9" r="3" fill="#dc2626" stroke="#fff" stroke-width="1"/>
    <circle cx="425.1" cy="285.6" r="3" fill="#dc2626" stroke="#fff" stroke-width="1"/>
    <circle cx="500.5" cy="261.9" r="3" fill="#dc2626" stroke="#fff" stroke-width="1"/>
    <circle cx="391.1" cy="250.6" r="3" fill="#dc2626" stroke="#fff" stroke-width="1"/>
    <circle cx="341.7" cy="244.4" r="3" fill="#dc2626" stroke="#fff" stroke-width="1"/>
    <circle cx="316.0" cy="226.3" r="3" fill="#dc2626" stroke="#fff" stroke-width="1"/>
    <circle cx="455.4" cy="284.3" r="3" fill="#dc2626" stroke="#fff" stroke-width="1"/>
  </g>
</svg>