<?xml version="1.0" encoding="UTF-8"?>
<svg width="800" height="600" xmlns="http://www.w3.org/2000/svg">
  <title>Bangkok Subway Map</title>
  <rect width="100%" height="100%" fill="#f8f9fa"/>
  <g stroke="#2563eb" stroke-width="3" fill="none">
    <polyline points="242.1,254.0 240.6,255.9 240.4,256.9 240.3,257.4 240.3,257.6 240.3,258.0 240.4,258.5 240.7,258.9 241.0,259.4 242.0,260.2 243.7,260.8 244.8,260.9 245.4,260.9 245.9,260.8 246.3,260.8 246.6,260.7 247.0,260.5 247.3,260.3"/>
    <polyline points="222.1,210.7 221.9,210.9 221.8,211.1 221.8,211.3 221.8,211.4 221.8,211.4 221.8,211.7 221.9,212.0 222.0,212.3 222.1,212.8 222.1,213.1 222.0,213.3 221.9,214.1 221.8,214.5 221.6,215.4 221.5,215.6"/>
    <polyline points="252.5,258.4 252.7,258.3 252.9,258.3 253.1,258.3 253.2,258.3 253.4,258.3 253.5,258.3 253.7,258.3 253.8,258.3 254.1,258.3 254.4,258.3 254.5,258.3 254.7,258.3 254.7,258.3 254.8,258.3"/>
    <polyline points="242.0,260.2 240.8,259.9 240.4,259.8 239.6,259.8 239.2,259.8 238.6,259.9 237.9,260.1 237.7,260.2 237.4,260.3 236.9,260.5 236.6,260.7 235.8,261.3"/>
    <polyline points="247.3,260.3 248.5,259.7 248.7,259.5 249.0,259.5 249.3,259.4 251.2,258.9 251.4,258.8 251.7,258.7 251.8,258.7 252.2,258.5 252.4,258.4 252.5,258.4"/>
    <polyline points="252.5,258.4 254.6,257.8 256.0,257.5 256.2,257.5 256.3,257.4 256.7,257.2 256.8,257.2 256.9,257.1 257.0,257.1 257.1,257.1 257.4,257.0 257.7,256.9 258.6,256.7 258.8,256.7 259.7,256.4"/>
    <polyline points="257.4,257.0 257.5,257.0 257.6,257.0 258.3,256.9 258.4,256.9 258.5,256.8 258.7,256.8 258.8,256.8"/>
    <polyline points="257.1,257.1 257.2,257.1 257.4,257.0 257.5,257.0 257.6,257.0 257.8,257.0 257.9,257.0 258.1,257.0 258.3,257.0 258.5,256.9 258.7,256.9 258.8,256.8"/>
    <polyline points="257.6,257.0 258.0,257.0 258.1,257.0 258.2,257.0 258.4,257.0 258.7,256.9 258.8,256.9"/>
    <polyline points="254.6,257.8 254.8,257.8 255.0,257.8 255.2,257.8 256.1,257.8 256.5,257.8 256.8,257.8 257.8,257.8 258.0,257.8 258.1,257.8 258.3,257.7 258.5,257.7 258.7,257.7 259.0,257.6 262.6,256.7"/>
    <polyline points="262.7,256.1 258.9,257.1"/>
    <polyline points="262.7,256.2 258.9,257.2"/>
    <polyline points="251.8,258.7 251.9,258.6 252.0,258.5 252.6,258.2 252.7,258.1 252.9,258.0 253.2,257.8 253.4,257.6 253.5,257.6 253.6,257.5 253.8,257.4 253.9,257.4 254.0,257.4 256.8,256.6"/>
    <polyline points="263.6,255.0 263.4,255.1 263.3,255.1 263.1,255.1 263.0,255.1 262.9,255.1 262.8,255.1 262.6,255.1 262.5,255.0 262.4,255.0 262.2,255.0 261.9,255.1 261.7,255.1 261.6,255.1 261.5,255.2 260.4,255.4"/>
    <polyline points="262.2,255.4 256.9,256.8"/>
    <polyline points="262.3,255.5 258.8,256.4 256.9,256.9"/>
    <polyline points="262.8,256.4 259.0,257.4"/>
    <polyline points="262.8,256.3 259.0,257.2"/>
    <polyline points="262.2,255.3 256.8,256.7"/>
    <polyline points="263.6,255.0 263.5,255.1 263.4,255.2 263.3,255.2 263.2,255.3 262.9,255.5 262.8,255.5 262.7,255.6 262.6,255.6 262.5,255.7 262.2,255.8 262.1,255.8 262.0,255.9 261.2,256.0 260.9,256.1 260.5,256.2"/>
    <polyline points="262.5,255.7 262.2,255.9 262.0,255.9 261.8,256.0 261.7,256.0 260.9,256.2"/>
    <polyline points="262.2,255.9 262.0,256.0 261.8,256.0 261.6,256.1 261.5,256.1 261.0,256.3"/>
    <polyline points="262.0,256.0 261.6,256.1 261.5,256.2 261.4,256.2 261.0,256.3"/>
    <polyline points="256.0,258.0 254.8,258.2"/>
    <polyline points="257.7,256.9 258.0,256.9 258.1,256.8 258.4,256.6 258.6,256.5 258.7,256.5 258.8,256.4"/>
    <polyline points="262.1,255.2 256.8,256.6"/>
    <polyline points="82.2,298.9 82.3,299.1 82.5,299.2 82.6,299.4 82.7,299.6 82.8,299.7 82.8,299.9 82.9,300.0 82.9,300.1 83.1,300.9 83.4,302.4"/>
    <polyline points="204.5,297.2 205.5,297.5 207.7,298.2 208.8,298.6 210.9,299.2 211.6,299.5 212.4,299.7 215.5,300.6 219.9,301.9 223.4,303.1 224.8,303.6 225.6,303.5 226.5,303.3 226.8,303.1 227.0,302.8 227.5,301.4 228.0,300.5 228.1,300.1 228.2,299.6 228.2,299.2 228.2,298.3 228.1,297.8 227.9,296.1 227.6,294.8 227.4,293.6 227.3,292.5 227.3,291.4 227.3,290.5 227.5,290.1 227.6,289.8 227.8,289.6 227.9,289.3 228.1,289.1 228.9,288.2 229.1,287.8 229.3,287.2 229.5,286.7 229.7,286.0 229.8,285.3 230.0,284.5 230.1,284.3 230.1,284.1 230.3,283.1 230.4,282.8 230.4,282.6 230.5,282.2 230.5,281.6 230.6,281.0 230.6,280.4 230.7,280.0 230.7,279.5 230.8,278.9 231.0,278.2 231.2,277.6 231.4,276.7 231.5,276.2 231.8,275.2 231.9,275.0 232.1,274.2 232.5,272.6 234.0,267.3 235.2,263.2 235.8,261.3 236.8,259.4 238.4,257.7 238.4,257.6 242.1,254.0 244.8,251.3 245.6,250.4 246.2,249.2 246.2,248.9 246.9,240.6 247.6,228.9 248.3,218.5 248.3,216.7 248.5,214.1 248.5,212.7 248.5,212.5 248.5,212.2 248.4,212.0 248.2,211.8 248.1,211.5 247.9,211.4 247.6,211.2 247.1,210.9 245.9,210.4 245.9,210.3 243.9,209.5 242.5,208.9 240.2,207.9 237.9,206.9 236.3,206.2 234.4,205.4 231.2,204.0 229.9,203.5 229.1,203.1 227.6,202.5 227.2,202.4 226.2,202.5 225.7,202.7 225.4,203.0 225.0,203.4 224.7,204.1 224.0,206.3 222.8,208.4 218.5,214.2 216.1,217.2 215.3,218.2 215.2,218.3 214.4,219.1 212.6,219.6 210.7,219.7 209.5,219.7 209.2,219.7 208.8,219.6 208.5,219.5 208.2,219.4 207.9,219.2 206.2,216.8 206.0,216.7 205.8,216.5 205.5,216.4 205.2,216.3 202.3,215.2 201.7,215.0 201.1,214.8"/>
    <polyline points="192.8,276.6 193.0,276.6 193.3,276.7 193.7,276.8 194.0,276.9 194.9,277.0 197.1,277.3 197.7,277.3 198.0,277.4 198.5,277.4 199.1,277.4 199.5,277.5 199.8,277.5 199.9,277.6 200.4,277.7 200.7,277.7 201.3,277.8 202.2,277.9 203.1,278.1 203.9,278.2 204.9,278.3 209.5,278.9 211.4,279.2 212.3,279.3 213.2,279.4 214.3,279.6 214.8,279.7 215.0,279.7 215.3,279.7 215.8,279.8 216.2,279.9 216.5,279.9 216.6,280.0 217.1,280.1 217.3,280.1 217.7,280.3 217.9,280.3 218.1,280.4 218.2,280.4 218.4,280.5 218.7,280.6 218.9,280.7 219.1,280.8 219.4,281.0 220.6,281.7 221.3,282.0 222.1,282.5 225.4,284.3 225.7,284.4 227.5,285.4 228.3,285.8 229.1,286.3 229.7,286.6 230.2,286.9 230.5,287.0 231.3,287.5 231.3,287.5 232.4,288.1 234.1,289.0 234.7,289.3 235.9,290.0 236.9,290.5 238.2,291.2 239.8,292.1 240.8,292.6 241.5,293.0 242.3,293.5 243.7,294.2 244.8,294.8 249.3,297.3 250.9,298.1 252.0,298.7 253.1,299.3 253.9,299.8 254.7,300.2 255.7,300.7 259.3,302.7 260.8,303.5 262.4,304.4 263.2,304.9 264.0,305.3 266.3,306.5 269.1,308.1 271.2,309.2 271.9,309.6 272.7,310.0 274.5,311.0 276.8,312.3 279.4,313.8 280.7,314.5"/>
    <polyline points="165.6,306.1 166.8,306.4 167.0,306.4 167.1,306.4 167.3,306.4 167.4,306.4 167.6,306.4 167.7,306.4 167.9,306.3 168.2,306.3 168.7,306.2 168.9,306.1 169.6,306.0 171.7,305.5 172.6,305.3 173.4,305.1 174.3,304.9 175.1,304.7 175.1,304.7 176.6,304.4 178.5,304.0 179.8,303.7 180.8,303.4 181.8,303.2 182.8,303.0 183.0,302.9 183.2,302.9 183.3,302.9 183.5,302.9 183.6,302.9 183.8,302.8 184.1,302.8 184.4,302.8 184.5,302.8 184.7,302.7 184.8,302.7 184.9,302.6 185.1,302.5 185.2,302.5 185.3,302.4 185.3,302.3 185.4,302.2 185.5,302.1 185.5,301.9 185.5,301.8 185.5,301.7 185.5,301.6 185.4,301.5 185.0,300.9 184.5,300.2 184.1,299.7 184.0,299.4 183.8,299.2 183.6,299.0 183.5,299.0 183.1,298.7 183.0,298.5 183.0,298.5 182.9,298.3 182.9,298.2 182.9,298.1 182.8,298.0 182.9,297.9 182.9,297.8 182.9,297.8 182.9,297.7 183.0,297.6 183.0,297.5 183.1,297.5 183.2,297.4 183.3,297.3 183.4,297.3 183.5,297.2 183.6,297.2 183.7,297.1 183.9,297.1 184.2,297.0 184.5,297.0 184.7,296.9 185.1,296.8 190.5,295.3 191.6,295.0 192.4,294.8 192.9,294.7 193.9,294.4 194.0,294.3 194.1,294.3 194.2,294.2 194.3,294.1 194.6,293.8 195.0,293.4 195.3,293.0 195.4,292.8 195.5,292.6 196.1,291.4 196.8,290.0 197.5,288.7 197.7,288.3 197.8,287.9 197.9,287.8 197.9,287.7 198.1,286.5 198.4,285.3 198.6,284.0 198.8,283.2 198.9,282.5 199.1,281.6 199.2,281.2 199.2,281.0 199.3,280.4 199.4,280.0 199.5,279.7 199.6,279.3 199.9,278.6 199.9,278.4 199.9,278.2 199.9,278.1 199.7,277.8 199.5,277.7 199.4,277.6 199.1,277.5 198.8,277.5 198.5,277.4 197.7,277.4 197.1,277.3 195.9,277.2 194.0,276.9 193.5,276.8 193.0,276.8 192.7,276.8 191.4,276.6 190.1,276.4 189.2,276.2 188.9,276.2 187.5,276.0 187.0,275.9 185.9,275.8 185.6,275.7 184.2,275.6"/>
    <polyline points="186.7,274.1 187.2,271.6 187.2,271.5 187.3,271.2 187.4,271.0 187.5,270.8 187.5,270.6 187.6,270.4 187.7,269.7 187.8,269.0 187.9,268.6 187.9,268.4 188.0,268.3 188.1,268.2 188.1,268.0 188.2,267.9 188.4,267.7 190.4,264.8 190.9,264.2 191.3,263.6 191.7,263.0 193.9,260.1 195.0,258.5 195.5,257.9 196.1,257.0 196.2,256.9 196.3,256.8 196.3,256.8 196.5,256.7 196.6,256.6 196.8,256.6 196.9,256.5 197.1,256.5 197.5,256.4 197.6,256.4 197.8,256.3 198.0,256.2 198.1,256.1 198.2,256.0 198.3,255.9 198.3,255.8 198.4,255.7 198.4,255.5 198.4,255.4 198.4,255.3 198.3,255.2 198.3,255.0 198.2,254.8 198.1,254.6 198.1,254.5 198.1,254.4 198.1,254.3 198.2,254.1 198.4,253.9 198.8,253.3 201.2,250.0 201.4,249.6 201.8,248.7 202.3,247.8 202.6,247.2 202.9,246.5 203.9,244.2 204.5,242.9 204.9,242.2 204.9,242.1 205.1,241.7 205.4,241.1 205.8,240.1 206.1,239.5 206.4,238.8 209.3,232.7 211.0,229.1 213.0,224.8 213.3,224.1 214.5,221.7 215.1,220.4 215.4,219.7 215.6,219.3 215.7,219.1 216.0,218.6 216.4,218.1 218.6,215.2 219.1,214.6 220.2,213.1 220.3,212.9 220.4,212.9 220.7,212.4 221.3,211.7 221.4,211.6 221.8,211.0 221.8,210.9 222.1,210.7 222.2,210.5 222.4,210.2 222.6,209.9 222.7,209.8 222.9,209.6 223.5,208.7 223.8,208.4"/>
    <polyline points="184.2,275.5 185.6,275.7 185.9,275.7"/>
    <polyline points="199.3,281.2 199.2,281.3"/>
    <polyline points="222.0,212.8 222.0,213.0 221.9,213.1 221.9,213.1"/>
    <polyline points="221.9,212.1 221.9,212.3 222.0,212.6 222.0,212.8 221.9,213.0 221.9,213.1"/>
    <polyline points="221.8,212.3 221.9,212.6 221.9,212.8 221.9,213.0 221.8,213.1"/>
    <polyline points="221.8,212.4 221.8,212.8 221.8,212.9 221.7,213.0"/>
    <polyline points="221.8,214.5 221.7,214.7 221.6,214.8"/>
    <polyline points="221.9,210.8 221.8,210.9 221.8,211.1 221.7,211.3 221.7,211.4 221.8,211.7 221.8,211.7 221.9,212.1 221.8,212.3 221.8,212.4 221.8,212.6 221.7,212.8 221.6,213.0"/>
    <polyline points="221.9,214.1 221.8,214.3 221.4,214.7"/>
    <polyline points="185.9,275.7 186.8,275.9 187.0,275.9 187.5,276.0 187.8,276.0 188.9,276.2 189.2,276.2 190.1,276.4 191.4,276.6 192.7,276.7 193.0,276.8 193.5,276.8 194.0,276.9 197.1,277.3 197.7,277.4 198.5,277.4 198.8,277.4 199.2,277.5 199.4,277.6 199.6,277.7 199.7,277.8 199.9,278.0 199.9,278.1 199.9,278.2 199.9,278.4 199.9,278.6 199.7,279.2 199.5,279.8 199.3,281.2"/>
    <polyline points="201.1,214.8 200.3,214.6 199.5,214.3 196.8,213.3"/>
    <polyline points="196.8,213.3 196.3,213.1 195.7,212.9 194.5,212.4"/>
    <polyline points="104.4,290.6 103.0,288.5 102.8,288.2 102.6,287.8 102.5,287.4 102.4,287.1 102.3,286.8 102.3,286.2 101.9,283.3 101.9,282.5 101.8,282.4 101.7,281.0 100.7,272.2 100.0,266.4 99.9,265.4 99.8,264.4 99.7,264.2 99.7,263.7 99.7,263.5 99.7,263.4 99.7,263.2 99.8,263.0 99.8,262.8 99.9,262.6 100.0,262.4 100.2,262.1 100.5,261.8 100.7,261.6 103.3,259.2 103.8,258.8 105.5,257.3 105.6,257.2 108.1,254.9 111.6,251.8 112.4,251.0 112.9,250.6 113.1,250.4 113.8,249.8 115.4,248.5 115.7,248.3 115.9,248.1 116.5,247.7 116.7,247.6 116.9,247.4 117.5,246.9 118.1,246.3 118.7,245.7 119.2,245.2 119.7,244.7 120.2,244.1 120.7,243.6 121.1,243.2 121.5,242.8 121.7,242.6 122.4,242.0 122.5,241.9 123.1,241.4 123.8,240.6 125.2,239.4 125.5,239.1 125.9,238.8 126.2,238.6 126.5,238.4 130.0,236.7 131.4,236.1 132.9,235.4 133.6,235.0 133.7,234.9 134.8,234.4 135.9,233.9 140.0,231.9 140.6,231.6 141.8,231.1 142.8,230.6 142.9,230.5 144.0,230.0 145.2,229.4 145.8,229.2 146.6,228.8 147.2,228.4 147.5,228.2 147.8,227.9 148.3,227.5 148.8,227.0 150.0,225.7 150.1,225.7 151.7,223.9 156.4,219.2 157.0,218.5 158.0,217.4 158.6,216.8 158.8,216.6 159.1,216.1 159.3,215.7 159.5,215.1 159.8,214.0 160.0,213.7 160.1,213.5 160.3,213.3 160.5,213.1 160.7,213.0 160.9,212.9 161.1,212.8 161.2,212.7 161.6,212.5 162.0,212.4 162.3,212.2 162.7,212.1 163.1,212.0 166.0,211.5 167.0,211.3 168.2,211.0 170.2,210.6 170.4,210.6 170.6,210.5 170.8,210.5 171.0,210.5 171.1,210.5 171.3,210.5 171.4,210.4 171.7,210.4 172.8,210.5 173.9,210.4 180.9,210.5 182.0,210.5 183.5,210.5 183.9,210.5 184.3,210.5 184.6,210.5 184.9,210.5 185.4,210.6"/>
    <polyline points="98.6,297.3 101.0,296.3 101.3,296.2 101.7,296.1 102.1,296.0 102.7,295.7 102.9,295.6 103.6,295.2 104.2,294.9 104.5,294.7 104.8,294.6 105.4,294.4 105.5,294.4 105.7,294.3 105.9,294.3 106.1,294.3 106.3,294.4 106.4,294.5 106.6,294.5 106.8,294.6 107.1,295.1 107.3,295.3 107.5,295.6 107.8,296.0 107.8,296.0 109.5,298.7 109.6,298.8"/>
    <polyline points="15.4,314.3 17.8,314.1 18.7,314.1 24.1,313.7 24.3,313.7 24.4,313.7 29.9,313.4 32.6,313.2 33.5,313.1 33.5,313.1 40.4,312.7 42.7,312.5 49.5,312.1 50.5,312.1 51.5,312.0 54.8,311.8 55.3,311.8 55.7,311.8 56.1,311.7 56.5,311.6 56.9,311.5 57.2,311.4 58.1,311.2 59.2,311.0 60.2,310.7 60.3,310.7 61.1,310.5 61.2,310.5 66.1,309.2 66.2,309.2 69.5,308.4 70.2,308.2 70.9,308.0 71.4,307.9 72.9,307.5 73.6,307.3 74.3,307.2 74.4,307.1 75.1,307.0 75.9,306.8 76.4,306.6 76.7,306.5 77.1,306.3 78.2,305.8 79.5,305.3 81.1,304.6 82.5,304.1 83.4,303.7 84.7,303.1 93.9,299.3 93.9,299.3 96.7,298.2 97.0,298.1 98.0,297.6 99.1,297.2 100.7,296.5 101.7,296.1 101.8,296.1 102.1,295.9 102.3,295.9 102.8,295.7 102.9,295.6 103.0,295.5 103.1,295.5 103.2,295.4 103.5,295.3 103.8,295.1 104.0,294.9 104.3,294.8 104.5,294.7 104.7,294.6 105.6,294.2"/>
    <polyline points="113.1,289.9 115.8,286.7 116.1,286.2 116.5,285.8 116.9,285.5 117.3,285.2 117.7,285.0 118.0,284.9 118.4,284.8 118.9,284.7 119.3,284.6 119.9,284.5 122.3,284.4 123.0,284.4 124.1,284.4 129.4,284.3 130.2,284.2 130.9,284.0 131.7,283.7 132.3,283.5 132.9,283.2 133.6,282.8 134.1,282.4 134.5,282.1 134.8,281.7 135.0,281.4 135.3,281.0 135.4,280.7 135.6,280.4 135.8,279.9 135.8,279.5 135.8,279.3 135.8,279.1 135.8,278.5 135.7,277.9 135.6,277.7 135.6,277.5 135.4,276.7 135.4,276.5 135.4,276.3 135.4,276.1 135.4,275.9 135.4,275.7 135.5,275.5 135.5,275.3 135.7,275.1 135.9,275.0 136.1,274.9 136.4,274.8 136.6,274.7 136.8,274.7 137.1,274.7 137.3,274.7 138.1,274.7 141.5,274.8 143.2,274.9 144.4,274.9 145.9,275.0 146.4,275.0 147.1,275.0 147.5,275.0 147.7,275.1 149.0,275.3 149.2,275.4 149.8,275.7 150.7,276.3 155.2,279.0 157.1,280.2 163.3,283.9 163.8,284.2 164.2,284.4 164.4,284.5 164.7,284.6 165.0,284.7 165.7,284.9 166.0,285.0 166.4,285.1 167.2,285.4"/>
    <polyline points="186.3,211.8 186.5,210.7 186.6,209.8 186.7,209.4 186.8,209.1 186.9,208.3 188.6,197.8 188.7,196.5 188.9,195.5 189.0,194.6 189.3,192.9 189.3,192.6 189.3,192.2 189.3,191.9 189.2,191.6 189.1,191.3 189.0,190.9 188.8,190.7 188.6,190.4 188.4,190.1 188.2,190.0 187.9,189.7 187.5,189.5 183.4,186.8 182.5,186.3 181.3,185.5 180.5,185.0 179.6,184.4 178.8,183.9 178.6,183.8 177.8,183.2 175.8,182.0 175.5,181.7 174.4,181.0 173.6,180.5 166.4,175.8 165.7,175.4 165.2,175.1 164.2,174.5 163.2,173.8 162.8,173.5 161.9,172.9 161.1,172.3 160.8,172.1 160.5,171.8 160.3,171.5 160.1,171.1 160.0,170.6 160.0,170.1 160.0,169.8 160.2,169.3 160.4,168.9 160.7,168.6 161.3,167.8 161.5,167.6 161.7,167.4 161.9,166.9 162.3,166.4 163.1,165.4 163.9,164.6 164.6,163.8 165.2,163.1 168.6,159.4 169.0,158.9 169.1,158.7 169.3,158.5 169.4,158.2 169.4,158.0 169.5,157.8 169.5,157.4 169.5,157.2 169.4,156.8 169.3,156.5 169.1,156.2 168.9,155.8 167.6,153.8 167.3,153.5 167.1,153.3 166.8,153.1 166.4,152.8 166.0,152.7 165.5,152.5 165.0,152.4 164.5,152.3 162.9,152.2 161.6,152.1 160.3,151.9 159.2,151.8 158.7,151.7 157.7,151.6 155.1,151.3 154.0,151.1 152.7,151.0 152.1,150.9 151.0,150.7 149.7,150.4 148.4,150.2 147.4,149.9 146.8,149.8 145.2,149.3 144.2,149.1 142.0,148.4 140.2,147.8 138.8,147.3 137.8,146.9 136.9,146.6 135.9,146.2 134.7,145.8 133.6,145.3 125.7,142.1 125.3,141.9 124.8,141.8 124.3,141.6 123.8,141.5 123.4,141.3 122.9,141.2 122.4,141.1 121.9,141.0 121.4,141.0 121.0,140.9 120.6,140.9 120.1,140.8 119.3,140.8 118.8,140.8 118.4,140.8 117.5,140.9 116.4,141.0 115.1,141.1 113.8,141.1 113.3,141.2 112.8,141.2 112.0,141.2 104.1,141.7 103.2,141.7 102.2,141.7 101.7,141.7 100.8,141.6 99.8,141.5 98.8,141.3 97.4,141.1 96.1,140.8 94.8,140.6 93.4,140.3 93.0,140.2 92.6,140.0 91.7,139.8 90.0,139.2 83.5,137.0 82.8,136.7 82.2,136.6 81.0,136.1 79.7,135.7 78.4,135.3 77.6,135.0 76.8,134.7 75.8,134.5 75.0,134.3 74.1,134.1 73.2,134.0 72.5,133.9 71.7,133.9 70.9,133.9 70.1,133.9 68.3,134.0 67.2,134.1 66.8,134.1 65.4,134.2 64.1,134.3 63.6,134.3 62.3,134.3 52.8,134.9 51.6,135.0 49.7,135.1 47.7,135.2 46.6,135.2 32.2,136.1 31.1,136.2 30.7,136.2 29.4,136.3 27.9,136.4 26.3,136.4 24.2,136.5 23.5,136.6 23.1,136.6 22.5,136.5 22.1,136.5 21.4,136.4 20.7,136.3 20.0,136.1 19.4,135.9 18.5,135.6 17.9,135.4 17.3,135.0 17.0,134.7 16.7,134.5 16.4,134.2 16.1,133.9 15.9,133.6 15.7,133.2 15.6,132.9 15.4,132.5 15.4,132.2 15.3,131.8 15.0,129.3 14.9,128.3 14.8,127.1 13.9,119.1 13.7,118.0 13.5,116.9 13.4,115.9 13.4,115.5"/>
    <polyline points="194.5,212.4 193.7,212.0"/>
    <polyline points="193.7,212.0 193.3,211.9 192.9,211.8 192.6,211.7 192.3,211.6 191.6,211.4 191.4,211.3 190.9,211.2"/>
  </g>
  <g>
    <circle cx="173.4" cy="305.1" r="4" fill="#dc2626"/>
    <circle cx="184.5" cy="300.2" r="4" fill="#dc2626"/>
    <circle cx="198.8" cy="283.2" r="4" fill="#dc2626"/>
    <circle cx="163.2" cy="305.6" r="4" fill="#dc2626"/>
    <circle cx="167.3" cy="285.2" r="4" fill="#dc2626"/>
    <circle cx="235.2" cy="263.2" r="4" fill="#dc2626"/>
    <circle cx="227.7" cy="301.4" r="4" fill="#dc2626"/>
    <circle cx="207.7" cy="298.3" r="4" fill="#dc2626"/>
    <circle cx="246.9" cy="240.6" r="4" fill="#dc2626"/>
    <circle cx="247.6" cy="228.9" r="4" fill="#dc2626"/>
    <circle cx="248.3" cy="218.5" r="4" fill="#dc2626"/>
    <circle cx="242.1" cy="254.0" r="4" fill="#dc2626"/>
    <circle cx="245.9" cy="210.4" r="4" fill="#dc2626"/>
    <circle cx="229.9" cy="203.4" r="4" fill="#dc2626"/>
    <circle cx="218.5" cy="214.2" r="4" fill="#dc2626"/>
    <circle cx="210.7" cy="219.7" r="4" fill="#dc2626"/>
    <circle cx="219.9" cy="302.0" r="4" fill="#dc2626"/>
    <circle cx="123.3" cy="305.2" r="4" fill="#dc2626"/>
    <circle cx="110.2" cy="310.6" r="4" fill="#dc2626"/>
    <circle cx="136.3" cy="303.2" r="4" fill="#dc2626"/>
    <circle cx="147.0" cy="303.3" r="4" fill="#dc2626"/>
    <circle cx="191.6" cy="295.0" r="4" fill="#dc2626"/>
    <circle cx="99.3" cy="311.9" r="4" fill="#dc2626"/>
    <circle cx="213.3" cy="224.1" r="4" fill="#dc2626"/>
    <circle cx="191.4" cy="276.5" r="4" fill="#dc2626"/>
    <circle cx="106.5" cy="293.9" r="4" fill="#dc2626"/>
    <circle cx="105.5" cy="257.3" r="4" fill="#dc2626"/>
    <circle cx="101.8" cy="282.4" r="4" fill="#dc2626"/>
    <circle cx="150.0" cy="225.6" r="4" fill="#dc2626"/>
    <circle cx="122.3" cy="242.0" r="4" fill="#dc2626"/>
    <circle cx="157.0" cy="218.5" r="4" fill="#dc2626"/>
    <circle cx="172.8" cy="210.4" r="4" fill="#dc2626"/>
    <circle cx="93.9" cy="299.3" r="4" fill="#dc2626"/>
    <circle cx="50.5" cy="312.1" r="4" fill="#dc2626"/>
    <circle cx="66.2" cy="309.2" r="4" fill="#dc2626"/>
    <circle cx="279.7" cy="135.6" r="4" fill="#dc2626"/>
    <circle cx="164.3" cy="174.4" r="4" fill="#dc2626"/>
    <circle cx="180.5" cy="184.9" r="4" fill="#dc2626"/>
    <circle cx="189.0" cy="195.6" r="4" fill="#dc2626"/>
    <circle cx="65.4" cy="134.1" r="4" fill="#dc2626"/>
    <circle cx="81.0" cy="136.1" r="4" fill="#dc2626"/>
    <circle cx="96.1" cy="140.7" r="4" fill="#dc2626"/>
    <circle cx="115.1" cy="141.0" r="4" fill="#dc2626"/>
    <circle cx="134.8" cy="145.7" r="4" fill="#dc2626"/>
    <circle cx="149.7" cy="150.4" r="4" fill="#dc2626"/>
    <circle cx="161.6" cy="152.0" r="4" fill="#dc2626"/>
    <circle cx="163.9" cy="164.6" r="4" fill="#dc2626"/>
    <circle cx="219.1" cy="214.6" r="4" fill="#dc2626"/>
    <circle cx="206.1" cy="239.4" r="4" fill="#dc2626"/>
    <circle cx="190.9" cy="264.2" r="4" fill="#dc2626"/>
    <circle cx="187.7" cy="269.7" r="4" fill="#dc2626"/>
    <circle cx="202.5" cy="247.1" r="4" fill="#dc2626"/>
    <circle cx="286.8" cy="368.3" r="4" fill="#dc2626"/>
    <circle cx="290.9" cy="360.7" r="4" fill="#dc2626"/>
    <circle cx="271.9" cy="309.6" r="4" fill="#dc2626"/>
    <circle cx="195.4" cy="257.9" r="4" fill="#dc2626"/>
    <circle cx="297.6" cy="348.0" r="4" fill="#dc2626"/>
    <circle cx="297.0" cy="337.7" r="4" fill="#dc2626"/>
    <circle cx="291.8" cy="329.6" r="4" fill="#dc2626"/>
    <circle cx="285.7" cy="320.0" r="4" fill="#dc2626"/>
    <circle cx="228.3" cy="285.8" r="4" fill="#dc2626"/>
    <circle cx="253.9" cy="299.8" r="4" fill="#dc2626"/>
    <circle cx="241.5" cy="293.0" r="4" fill="#dc2626"/>
    <circle cx="221.4" cy="282.0" r="4" fill="#dc2626"/>
    <circle cx="212.3" cy="279.3" r="4" fill="#dc2626"/>
    <circle cx="203.9" cy="278.2" r="4" fill="#dc2626"/>
    <circle cx="278.3" cy="384.3" r="4" fill="#dc2626"/>
    <circle cx="229.7" cy="285.4" r="4" fill="#dc2626"/>
    <circle cx="263.3" cy="304.8" r="4" fill="#dc2626"/>
    <circle cx="273.0" cy="394.3" r="4" fill="#dc2626"/>
    <circle cx="270.4" cy="411.3" r="4" fill="#dc2626"/>
    <circle cx="277.1" cy="425.6" r="4" fill="#dc2626"/>
    <circle cx="280.2" cy="432.5" r="4" fill="#dc2626"/>
    <circle cx="297.0" cy="443.5" r="4" fill="#dc2626"/>
    <circle cx="295.4" cy="452.0" r="4" fill="#dc2626"/>
    <circle cx="292.0" cy="458.9" r="4" fill="#dc2626"/>
    <circle cx="295.1" cy="469.9" r="4" fill="#dc2626"/>
    <circle cx="133.7" cy="234.9" r="4" fill="#dc2626"/>
    <circle cx="320.7" cy="81.5" r="4" fill="#dc2626"/>
    <circle cx="314.9" cy="89.2" r="4" fill="#dc2626"/>
    <circle cx="308.8" cy="97.1" r="4" fill="#dc2626"/>
    <circle cx="297.1" cy="112.4" r="4" fill="#dc2626"/>
    <circle cx="290.3" cy="121.2" r="4" fill="#dc2626"/>
    <circle cx="285.3" cy="127.8" r="4" fill="#dc2626"/>
    <circle cx="272.9" cy="143.9" r="4" fill="#dc2626"/>
    <circle cx="263.4" cy="156.5" r="4" fill="#dc2626"/>
    <circle cx="258.6" cy="162.7" r="4" fill="#dc2626"/>
    <circle cx="252.0" cy="171.4" r="4" fill="#dc2626"/>
    <circle cx="247.1" cy="177.8" r="4" fill="#dc2626"/>
    <circle cx="241.5" cy="185.1" r="4" fill="#dc2626"/>
    <circle cx="236.9" cy="191.2" r="4" fill="#dc2626"/>
    <circle cx="230.7" cy="199.3" r="4" fill="#dc2626"/>
    <circle cx="99.8" cy="265.4" r="4" fill="#dc2626"/>
    <circle cx="83.6" cy="303.5" r="4" fill="#dc2626"/>
    <circle cx="82.5" cy="304.1" r="4" fill="#dc2626"/>
    <circle cx="186.6" cy="210.7" r="4" fill="#dc2626"/>
    <circle cx="180.8" cy="303.5" r="4" fill="#dc2626"/>
    <circle cx="349.9" cy="73.5" r="4" fill="#dc2626"/>
    <circle cx="184.2" cy="275.5" r="4" fill="#dc2626"/>
    <circle cx="195.5" cy="294.3" r="4" fill="#dc2626"/>
  </g>
</svg>