<?xml version="1.0" encoding="UTF-8"?>
<svg width="800" height="600" xmlns="http://www.w3.org/2000/svg">
  <title>Bangalore Subway Map</title>
  <rect width="100%" height="100%" fill="#f8f9fa"/>

  <!-- 지하철 선로 -->
  <g stroke="#2563eb" stroke-width="2" fill="none" opacity="0.8">
    <polyline points="382.0,315.2 379.9,314.6 379.0,314.4 378.2,314.3 377.6,314.1 377.1,314.1 376.9,314.1 376.3,314.0 375.5,314.0 375.1,314.1 374.8,314.2 373.7,314.6 372.9,315.0 371.6,315.7 368.6,318.4 366.5,320.0"/>
    <polyline points="276.7,255.9 276.6,255.6 276.5,255.3 276.3,254.6 275.5,252.8 275.1,251.5 274.9,251.1 274.7,250.8 273.9,249.7 272.8,248.3 272.2,247.5 271.6,246.9 271.4,246.6 271.1,246.4 270.8,246.2 270.4,245.9 270.1,245.8 269.7,245.6 266.6,244.4"/>
    <polyline points="299.4,289.1 300.8,289.3 301.5,289.4 301.8,289.4 302.1,289.5 302.4,289.5 302.7,289.5 302.8,289.5 303.0,289.5 303.1,289.5 303.2,289.5 304.6,289.3 304.9,289.3 305.2,289.3 305.5,289.3 305.8,289.2 306.1,289.3 306.6,289.3 307.1,289.5 307.5,289.6 308.0,290.1 310.1,292.1 312.0,293.9 313.3,295.3 314.6,296.6 317.4,299.2"/>
    <polyline points="514.4,298.9 511.5,299.4"/>
    <polyline points="322.3,323.9 318.6,323.7 316.2,323.5 313.4,323.4 308.1,323.4 307.6,323.4 305.7,323.5 304.4,323.6"/>
    <polyline points="496.3,306.8 492.7,307.8 490.9,308.3 487.6,309.2 487.0,309.4 486.7,309.7 486.3,309.9 486.1,310.3 486.0,310.5 485.9,310.8 486.0,311.8 486.4,317.5 486.4,317.8 486.3,318.2 486.0,318.6 485.7,318.9 485.4,319.1 484.9,319.3 484.4,319.4 483.7,319.5 481.2,319.5"/>
    <polyline points="266.6,244.4 262.6,242.8 260.8,242.1 258.8,241.3 252.4,238.8 252.0,238.6 251.7,238.5 251.3,238.3 250.9,238.1 249.1,237.4 247.1,236.7 246.0,236.3"/>
    <polyline points="208.2,222.8 206.9,222.3 204.8,221.5 204.4,221.3"/>
    <polyline points="511.7,299.5 510.9,299.6 510.6,299.6 510.1,299.7"/>
    <polyline points="518.4,298.1 518.8,298.1 519.0,298.1 519.4,298.0 519.6,297.9 519.9,297.8 520.1,297.8 520.2,297.7 520.4,297.6 520.5,297.6"/>
    <polyline points="511.5,299.4 510.1,299.7 509.6,299.8 508.6,300.0 508.0,300.1 507.6,300.2 507.4,300.2 507.1,300.3 506.9,300.4 506.6,300.5 506.5,300.6 506.3,300.7 506.1,300.8 506.0,300.9 505.8,301.1 505.7,301.2 505.6,301.3 505.5,301.5 505.4,301.6 505.3,301.7 505.3,301.8 504.7,303.2 504.6,303.4 504.5,303.6 504.4,303.7 504.3,303.8 504.2,304.0 504.1,304.1 504.0,304.2 503.9,304.3 503.4,304.7 502.8,305.0 502.2,305.2 499.6,305.9 497.8,306.4"/>
    <polyline points="514.4,298.9 516.0,298.6 516.2,298.5 517.4,298.3 517.8,298.2 518.6,298.1 519.0,298.0 519.4,297.9 519.7,297.8 519.9,297.7 520.2,297.6 520.4,297.5 521.0,297.1 521.6,296.7 522.0,296.4 522.5,296.2 522.8,296.0 523.1,295.8 523.4,295.7 524.0,295.4"/>
    <polyline points="511.7,299.5 512.2,299.5 512.4,299.5 512.8,299.4 515.7,298.8 516.4,298.7 516.6,298.7 516.8,298.6 517.4,298.6 517.6,298.6 517.9,298.5 519.2,298.3 519.4,298.2 519.6,298.2 520.2,298.0 520.4,297.9 520.6,297.8 520.8,297.8 520.9,297.7 522.0,297.2 522.7,296.9"/>
    <polyline points="320.2,302.8 320.3,304.1 320.4,304.9"/>
    <polyline points="573.4,283.6 574.7,283.6 575.8,283.5 576.8,283.5 579.0,283.5 580.8,283.4 581.8,283.3 582.6,283.2 583.1,283.1 583.9,283.0 584.4,282.9 584.9,282.8 585.3,282.7 585.6,282.7 585.8,282.7 586.9,282.7 587.3,282.7 588.2,282.7 590.3,282.7 592.0,282.8 594.3,282.9 596.0,283.0 596.4,283.0 596.9,283.1 597.3,283.2 597.5,283.3 597.9,283.5 598.5,283.7 599.5,284.3 600.1,284.6 600.7,285.1 601.9,285.9 602.4,286.3 603.9,286.8 606.1,287.6 607.0,287.9 608.8,288.4 610.4,288.8 614.1,289.7 616.1,290.3 616.5,290.4 617.8,290.8 618.6,291.0 619.4,291.1 622.0,291.3 624.3,291.5 624.7,291.6 625.0,291.7 626.5,292.1 627.3,292.3 629.3,292.7 630.9,293.0 632.6,293.2 633.2,293.4"/>
    <polyline points="176.9,211.2 174.0,210.5 173.0,210.2 167.9,208.4 166.4,207.9 159.0,206.4 150.8,204.4 149.6,204.0 146.9,203.4"/>
    <polyline points="519.2,298.3 519.8,298.2 520.4,298.1 522.8,297.6 523.0,297.5 523.4,297.5 523.6,297.4 524.0,297.2 524.2,297.2 524.4,297.1 528.0,295.5"/>
    <polyline points="522.0,297.2 522.3,297.1 522.4,297.1 522.6,297.0 523.0,296.9 523.3,296.8 523.6,296.7 523.8,296.7 524.1,296.7 524.3,296.6 524.6,296.6 524.8,296.6 525.0,296.5 525.2,296.5 525.3,296.4 525.4,296.4"/>
    <polyline points="509.8,300.8 510.2,300.7 510.4,300.7 510.5,300.6 510.7,300.5 510.9,300.5 511.2,300.3 511.5,300.1 511.7,300.0 511.8,300.0 511.9,299.9 512.2,299.8 512.4,299.7 512.7,299.6 513.0,299.5 513.2,299.4 513.4,299.4 513.6,299.3 514.2,299.2 514.5,299.2 516.6,298.8 516.9,298.7 517.1,298.7 517.5,298.7 517.7,298.6 517.9,298.6 521.0,298.0"/>
    <polyline points="517.8,298.2 518.1,298.2 518.4,298.1 519.0,298.1 519.3,298.1 519.5,298.0 519.9,297.9 520.5,297.7 520.9,297.6 521.0,297.5 521.2,297.5 521.9,297.2 522.0,297.1 522.2,297.0 522.3,297.0 522.5,296.9 522.8,296.7 523.4,296.3 523.6,296.2 523.7,296.1 524.0,295.9 524.1,295.8 524.2,295.7 524.3,295.6 524.5,295.6 524.5,295.6"/>
    <polyline points="256.7,326.2 258.2,326.2 259.1,326.2 260.1,326.2 260.5,326.2 260.8,326.1 261.3,326.0 261.8,326.0 262.1,325.9 262.7,325.8 263.1,325.7 263.4,325.8 263.8,325.8 264.2,325.9 264.6,326.0 264.9,326.1 265.5,326.3 266.2,326.6 266.7,326.8 267.0,326.9 267.4,327.0 267.8,327.1 268.2,327.1 268.6,327.0 269.0,327.0 269.5,326.8 270.7,326.2 272.6,325.1 273.1,324.9 273.5,324.7 273.9,324.5 274.4,324.3 274.9,324.2 275.4,324.2 275.8,324.1 276.5,324.1 277.5,324.1 278.5,324.0 279.2,324.0 280.2,324.0"/>
    <polyline points="227.6,346.9 227.1,348.0 226.7,348.7 226.5,349.0 226.4,349.4 226.4,349.7 226.5,350.1 226.8,350.6 227.2,351.3 228.1,352.8 228.4,353.2 228.9,354.0 229.5,355.0 229.6,355.5 229.9,356.3 230.2,357.1 230.4,357.7 230.7,358.0 231.0,358.3 234.4,360.8 234.9,361.1 235.0,361.2 235.1,361.4 236.0,363.3"/>
    <polyline points="323.1,437.5 323.3,438.9 323.5,439.6 323.5,440.1 323.6,440.4 323.6,440.8 323.7,441.2 323.6,441.8 323.4,442.8 323.4,443.2 323.3,443.6 323.3,444.0 323.4,444.2 323.8,446.0 323.9,446.6 323.9,446.8 323.9,447.0 323.8,447.5 323.6,448.0 323.0,449.5 322.8,450.0 322.6,450.5 322.4,450.7 322.2,451.1 321.7,451.7 319.5,453.7 318.5,454.6 317.5,455.3 315.9,456.6"/>
    <polyline points="208.4,210.2 209.8,209.7 210.3,209.5 211.2,209.2 211.5,209.1 211.7,209.0 211.9,209.0 212.1,209.0 212.4,208.9 212.6,208.9 212.9,208.9 213.1,209.0 213.3,209.0 216.3,209.6"/>
    <polyline points="211.7,208.4 215.0,208.8 220.5,209.5 221.2,209.6 221.9,209.6 222.5,209.7 223.2,209.9 223.9,210.0 229.7,211.1 236.8,212.4"/>
    <polyline points="229.7,211.1 229.4,211.0 229.2,211.0 228.4,210.9 228.2,210.9 228.0,210.9 227.8,210.9 227.5,211.0 227.4,211.0 227.2,211.0 226.6,211.1 226.4,211.1 226.2,211.1 226.0,211.0 223.0,210.8 222.7,210.7 222.3,210.7"/>
    <polyline points="208.4,210.2 208.1,210.3 207.9,210.4 207.7,210.4 207.6,210.5 207.5,210.6 207.3,210.7 207.2,210.8 207.1,211.0 206.8,211.3 206.5,211.6 202.8,216.7 202.0,217.9 201.7,218.3 201.6,218.4 201.4,218.5 201.2,218.6 201.0,218.8 200.8,218.9 200.6,219.0 200.3,219.0 200.1,219.1 199.8,219.1 199.5,219.1 199.2,219.1 198.9,219.1 198.6,219.1 198.4,219.0 198.1,218.9 197.8,218.8 196.9,218.5"/>
    <polyline points="204.4,221.3 203.6,221.0 202.7,220.7 202.4,220.5 202.2,220.4 202.0,220.2 201.9,220.1 201.8,219.9 201.7,219.8 201.6,219.6 201.5,219.4 201.5,219.2 201.5,219.1 201.5,218.9 201.6,218.7 201.6,218.6 201.7,218.5 201.8,218.2 201.9,218.1 202.5,217.4 206.6,211.7 206.9,211.4 207.1,211.1 207.2,210.9 207.4,210.8 207.5,210.7 207.6,210.6 207.8,210.5 207.9,210.4 208.2,210.3 208.4,210.2"/>
    <polyline points="513.0,299.5 512.8,299.6 512.7,299.6 512.2,299.8 512.1,299.9 511.9,300.0 511.8,300.1 511.6,300.2 511.5,300.3 511.3,300.4 511.1,300.5 510.9,300.6 510.7,300.7 510.6,300.8 510.4,300.9 510.3,300.9 510.1,301.0 510.0,301.0"/>
    <polyline points="649.2,309.8 649.2,310.6 649.3,311.6 649.3,311.8 649.3,312.0 649.4,312.3"/>
    <polyline points="216.0,373.4 215.0,373.9 213.6,374.7 213.0,375.0 212.5,375.4 211.7,376.0 211.0,376.6 210.2,377.6"/>
    <polyline points="221.9,212.4 221.6,212.4 221.3,212.3 221.1,212.2 220.9,212.2 220.8,212.1 220.7,212.0 220.5,211.9 218.1,210.5 217.6,210.3 217.3,210.1 217.2,210.1 217.1,210.0 217.0,210.0 216.8,209.9 216.7,209.9 216.5,209.9 216.2,209.8 216.0,209.8 215.7,209.8 212.3,209.5"/>
    <polyline points="216.3,209.6 217.1,209.7 220.8,210.5 224.0,211.1 224.5,211.2 225.1,211.3 225.7,211.4 226.4,211.5 226.6,211.6 226.9,211.7 227.2,211.8 227.4,211.8 227.7,211.9 228.0,212.0 228.5,212.2 228.6,212.3 228.8,212.3 228.9,212.4 229.2,212.4"/>
    <polyline points="512.4,300.4 514.8,299.9 515.9,299.7 517.5,299.4 518.7,299.1 519.3,299.0 521.1,298.4 521.9,298.1 522.3,298.0 522.6,297.9 524.4,297.1"/>
    <polyline points="325.5,323.9 324.9,323.6 324.5,323.3 324.2,323.1 324.0,323.0 323.8,322.8 323.7,322.6 323.5,322.5 323.4,322.3 323.2,322.1 323.1,321.9 323.0,321.7 322.9,321.5 322.6,320.9"/>
    <polyline points="232.5,212.9 229.3,212.3"/>
    <polyline points="224.5,211.2 224.8,211.3 225.0,211.3 225.4,211.4 225.7,211.5 225.9,211.6 226.2,211.7 226.5,211.8 226.6,211.9 226.8,212.0 227.0,212.2 227.1,212.3 227.2,212.4 227.3,212.5 227.4,212.6 227.5,212.7 227.7,212.8 227.8,212.9 227.9,213.0 228.1,213.1 228.2,213.1 228.4,213.2 228.6,213.2 230.0,213.5"/>
    <polyline points="216.3,209.6 216.1,209.6 215.9,209.5 215.6,209.5 215.5,209.5 215.2,209.5 215.0,209.4 214.4,209.3 213.3,209.1 213.1,209.1 212.9,209.0 212.6,209.0 212.4,209.1 212.2,209.1 212.0,209.1 211.8,209.2 211.6,209.2 210.3,209.7"/>
    <polyline points="229.0,213.0 228.8,213.0 228.6,212.9 228.5,212.9 228.3,212.8 228.1,212.7 228.0,212.7 227.9,212.6 227.7,212.5 227.3,212.2 227.1,212.0 226.8,211.9 226.7,211.8 226.5,211.7 226.3,211.6 226.2,211.6 225.7,211.4"/>
    <polyline points="222.0,211.3 221.0,211.1 220.8,211.1 220.6,211.0 219.7,210.7 219.0,210.5 217.1,209.9 216.9,209.9 216.4,209.7 216.1,209.6 215.8,209.6 215.2,209.5"/>
    <polyline points="232.3,213.3 229.1,212.7"/>
    <polyline points="229.1,212.8 228.9,212.8 228.7,212.8 228.5,212.7 228.4,212.6 228.2,212.6 228.1,212.5 227.9,212.3 227.7,212.2 227.5,212.1 227.4,212.0 227.2,211.9 227.1,211.9 226.9,211.8 226.7,211.7 226.4,211.6 226.1,211.5 225.7,211.4"/>
    <polyline points="232.6,212.7 229.4,212.0"/>
    <polyline points="213.9,209.3 214.1,209.3 214.3,209.3 214.6,209.4 214.8,209.4 215.0,209.4"/>
    <polyline points="232.7,212.4 229.5,211.8"/>
    <polyline points="221.9,211.7 221.0,211.5 220.8,211.5 220.6,211.4 220.4,211.3 220.3,211.3 217.7,210.2 217.4,210.0 217.2,210.0 217.1,209.9"/>
    <polyline points="224.6,211.1 224.9,211.2 225.1,211.2 225.4,211.2 225.5,211.2 225.7,211.3 225.9,211.3 226.5,211.4 227.1,211.5 227.8,211.6 229.4,212.0"/>
    <polyline points="210.3,209.5 211.2,209.1 211.6,209.0 211.9,208.9 212.1,208.9 212.3,208.9 212.6,208.9 212.8,208.9 213.1,208.9 213.3,208.9 213.6,209.0 214.0,209.0 219.3,210.1 219.5,210.1 219.8,210.2 220.0,210.2 220.3,210.3 221.9,210.6 222.3,210.7 223.0,210.8 223.2,210.9 223.4,210.9 223.6,211.0 223.8,211.0 224.0,211.1"/>
    <polyline points="225.3,212.0 222.0,211.4"/>
    <polyline points="216.5,209.9 214.9,209.6 214.7,209.5 214.5,209.5 212.3,209.3"/>
    <polyline points="232.9,212.0 229.7,211.4"/>
    <polyline points="229.3,212.2 228.8,212.1 228.7,212.0 228.5,212.0 227.6,211.7 227.4,211.7 227.1,211.6 226.5,211.5 224.6,211.1 224.0,211.0 223.0,210.8"/>
    <polyline points="232.2,213.5 229.0,212.9"/>
    <polyline points="232.3,213.2 229.2,212.6"/>
    <polyline points="232.3,213.4 229.1,212.8"/>
    <polyline points="232.5,213.0 229.3,212.3"/>
    <polyline points="216.9,209.9 216.5,209.8 216.3,209.7 213.9,209.3 213.4,209.2 213.2,209.1 212.9,209.1 212.7,209.1 212.5,209.1 212.3,209.1 212.1,209.2 211.9,209.2 211.7,209.3 211.5,209.3 210.3,209.8"/>
    <polyline points="215.7,209.8 215.5,209.7 215.3,209.7 214.9,209.6 214.7,209.6 214.5,209.6 212.3,209.4"/>
    <polyline points="221.9,211.5 220.8,211.3 220.5,211.3 220.3,211.2 220.2,211.1 220.0,211.1 218.8,210.6 218.6,210.5 218.5,210.4 218.3,210.4 218.1,210.3 217.9,210.3 217.7,210.2"/>
    <polyline points="232.7,212.5 229.5,211.9"/>
    <polyline points="232.7,212.4 229.5,211.7"/>
    <polyline points="232.8,212.1 229.6,211.5"/>
    <polyline points="224.0,211.0 224.2,211.0 224.4,211.1 225.4,211.1 225.6,211.2 225.7,211.2 225.9,211.2 226.1,211.2 226.2,211.3 226.4,211.3 227.1,211.3 227.3,211.4 227.5,211.4 227.9,211.4 228.7,211.4 228.9,211.4 229.1,211.4 229.3,211.4 229.4,211.4 229.7,211.5"/>
    <polyline points="232.8,212.3 229.6,211.7"/>
    <polyline points="229.0,213.1 228.8,213.0 228.6,213.0 228.4,212.9 228.2,212.9 228.0,212.8 227.8,212.7 227.7,212.6 227.0,212.1 226.9,212.0 226.8,211.9 226.6,211.8 226.4,211.7 226.1,211.6 225.7,211.4 225.4,211.4 225.3,211.3 225.1,211.3"/>
    <polyline points="225.9,211.2 226.3,211.3 226.4,211.3 226.6,211.4 226.8,211.4 227.2,211.4 227.7,211.5 227.9,211.5 228.1,211.5 228.2,211.5 228.7,211.5 228.9,211.5 229.1,211.5 229.2,211.5 229.4,211.6 229.6,211.6"/>
    <polyline points="203.6,221.0 204.4,221.3 204.7,221.4 204.9,221.4 205.2,221.5 205.9,221.7 206.2,221.8 206.5,221.9 206.8,221.9 207.1,222.0 209.6,222.9"/>
    <polyline points="324.4,363.2 324.5,363.6 324.6,363.9 324.7,364.2 324.9,364.4 325.0,364.6 325.1,364.8 325.2,365.1 325.2,367.5"/>
    <polyline points="177.5,390.8 176.5,391.0 174.4,391.5 173.2,391.8 172.5,392.2 172.0,392.6 167.7,395.3 167.3,395.6 167.0,395.8 163.1,397.6 162.4,397.9 162.1,398.2 161.5,399.0 161.0,399.5 160.5,400.0 159.9,400.5 159.3,400.7 158.8,400.9 156.9,401.3 156.3,401.5 156.0,401.6 154.8,402.3 153.8,403.0 152.7,403.8 148.8,405.8 147.2,406.6 144.6,408.2"/>
    <polyline points="264.8,267.9 265.0,267.0 265.1,266.8 265.2,266.6 265.4,266.4 265.5,266.3 265.6,266.1 265.8,266.0 266.0,265.9 268.2,264.5"/>
    <polyline points="135.5,200.4 133.2,199.8 132.4,199.6 130.3,199.1 128.2,198.7 126.1,198.2 121.9,197.2 120.5,196.8 119.4,196.5 117.4,196.0 116.0,195.7 110.2,194.2 107.3,193.5 103.5,192.5 101.4,192.0 96.6,190.7 92.1,189.4 87.3,188.6 83.7,188.1 80.9,187.6 79.4,187.4 75.9,186.8 73.1,186.2"/>
    <polyline points="231.1,504.9 229.2,506.6 226.2,509.2 225.9,509.5 225.0,510.1 224.0,510.6 222.4,511.4 220.9,512.0 220.2,512.4 219.7,513.0 218.9,513.9 218.5,514.3 217.7,515.2 217.3,515.7 217.1,516.0 216.8,516.2 214.1,519.3 213.4,520.0"/>
    <polyline points="524.0,295.4 524.6,295.2 525.3,294.9 525.9,294.6 528.0,293.8 530.5,292.8 532.2,292.2 533.6,291.7 535.0,291.2 535.5,291.1 536.0,291.0 536.2,290.9"/>
    <polyline points="144.6,408.2 142.6,409.6 141.9,410.1 140.7,410.9 140.0,411.2 138.9,411.6 137.1,412.1 133.1,413.5 131.9,414.1 131.3,414.4 130.9,414.8 130.6,415.1 129.3,416.3 128.6,416.7 127.4,417.4 126.1,418.3 125.4,419.0 124.1,421.0 123.5,421.8 122.7,422.4 121.7,423.0 120.7,423.6 120.2,423.9 119.6,424.3 118.4,425.0 117.3,425.6 115.9,426.3 113.5,427.5 112.6,427.9 111.7,428.5 111.3,428.7 110.9,429.0 110.5,429.6 110.2,430.4 109.8,431.3 109.8,431.4 109.7,431.6 109.6,431.7 109.4,431.9 109.3,432.0 109.1,432.2 108.9,432.3 108.7,432.4 108.5,432.5 108.3,432.6 108.1,432.7 107.8,432.7 107.6,432.8 107.3,432.8 107.1,432.8 106.8,432.8 106.6,432.8 106.3,432.8"/>
    <polyline points="528.6,412.3 522.3,410.9 512.2,409.5 511.0,409.3 510.3,409.2 507.9,409.3 505.5,409.4 503.8,409.5 502.8,409.8 501.2,410.3 498.8,411.7 494.6,414.5 487.1,420.8 484.6,422.4 483.6,422.7 481.4,423.3 480.5,423.4 480.0,423.5 479.6,423.5 474.2,423.0 456.8,421.9 454.9,421.5 450.8,420.7 450.0,420.6 448.7,420.5 447.6,420.6"/>
    <polyline points="658.4,319.9 659.1,320.0 661.1,320.2 664.3,320.5 665.3,320.6 665.7,320.6 667.5,320.8 668.8,320.9 669.5,321.0 671.6,321.1 674.2,321.2 677.2,321.4 681.6,321.8 684.0,321.9 684.4,322.0 684.7,322.0 685.0,322.0 685.2,322.1 685.5,322.1 686.3,322.2 688.1,322.3 691.1,322.5"/>
    <polyline points="633.2,293.4 634.4,293.6 635.7,293.9 636.5,294.0 637.3,294.1 638.1,294.3 638.3,294.3 639.5,294.6 640.1,294.7 640.9,294.8 641.9,295.0 642.8,295.0 643.9,295.0 645.9,295.1 647.5,295.2 650.0,295.2 652.0,295.3 653.5,295.3 654.3,295.3 654.8,295.3 655.4,295.4 656.4,295.5 657.3,295.7 658.5,295.9 660.2,296.3 661.5,296.7 662.0,296.9 662.3,297.1 662.7,297.5 662.8,297.7 662.9,298.1 662.9,298.3 662.9,298.6 662.9,298.8 662.8,299.0 662.7,299.2 662.4,299.5 662.0,299.7 661.4,300.0 660.2,300.5 658.9,301.0 657.9,301.4 656.6,302.0"/>
    <polyline points="649.4,312.3 649.6,313.2 650.1,314.4"/>
    <polyline points="695.3,319.9 695.4,319.4 695.4,319.0 695.4,318.7 695.3,317.8 695.3,317.4 695.3,317.2 695.3,316.7 695.4,316.4 695.5,316.1 695.7,315.4 695.8,315.0 696.1,314.1 696.4,313.3 696.5,313.0 696.6,312.6 697.1,311.8 697.6,311.2 698.1,310.7 698.6,310.2 699.4,309.5 700.6,308.6 701.1,308.2 701.7,307.7 702.3,307.4 702.8,307.1 703.2,306.9 705.3,306.1 705.9,305.9 706.2,305.7 706.4,305.5 706.8,305.3 707.0,305.1 707.8,304.3 708.3,304.0 708.5,303.9 708.7,303.8 708.9,303.7 709.3,303.6 709.7,303.5 710.0,303.5 710.4,303.5 711.3,303.6 713.7,303.9 714.5,303.9"/>
    <polyline points="725.8,304.0 726.0,304.0 726.2,304.1 726.6,304.1 735.3,305.7 738.6,306.2 739.2,306.3 739.9,306.5 741.7,307.0 742.8,307.3"/>
    <polyline points="691.1,322.5 692.3,322.6 692.7,322.6 693.0,322.5 693.2,322.5 693.5,322.5 693.8,322.4 694.0,322.3 694.1,322.2 694.3,322.2 694.4,322.1 694.7,321.9 694.8,321.8 694.9,321.6 695.1,321.4 695.2,321.3 695.3,321.1 695.3,320.9 695.3,319.9"/>
    <polyline points="516.6,298.8 517.9,298.5"/>
    <polyline points="506.6,301.0 509.8,300.0"/>
    <polyline points="520.7,298.2 520.1,298.3 517.3,298.9 517.1,298.9 517.0,298.9 516.7,299.0 516.1,299.0 515.1,299.1 514.9,299.1 514.7,299.2 514.5,299.2"/>
    <polyline points="514.2,299.2 514.0,299.3 513.8,299.3 513.6,299.4 513.4,299.5 513.0,299.7 512.6,299.8 512.5,299.9 512.3,300.0 512.1,300.1 512.0,300.2 511.8,300.3 511.7,300.4 511.5,300.7 511.3,300.9 511.2,301.0 511.0,301.1 510.9,301.2 510.7,301.3 510.6,301.4 510.4,301.4 510.3,301.5 510.1,301.6 509.9,301.6 509.9,301.7"/>
    <polyline points="506.8,301.2 509.9,300.2"/>
    <polyline points="516.1,299.0 516.4,299.0 516.6,298.9 518.3,298.6 519.0,298.5 520.7,298.2"/>
    <polyline points="391.7,321.3 391.3,320.7 390.2,318.6"/>
    <polyline points="440.1,421.8 440.3,421.7 440.6,421.7 440.8,421.7 441.1,421.7 441.3,421.7 441.6,421.7 441.8,421.7 442.1,421.8 442.3,421.8 442.5,421.9 442.7,422.0 443.0,422.0 443.2,422.1 443.3,422.3 443.5,422.4 443.7,422.5 443.8,422.6 446.2,425.6 447.1,426.8 448.2,428.0 449.1,429.0 450.1,430.1 451.9,432.3 452.4,432.8 452.9,433.4 458.0,439.1 460.8,442.3 462.0,443.6 465.8,447.8 467.3,449.4 470.5,453.1 473.7,456.7 476.3,459.5 479.0,462.6 481.7,465.8 483.2,467.4 484.9,469.3 491.6,476.7 496.1,481.8 496.8,482.6 497.9,483.9 500.0,486.2 501.3,487.7 501.9,488.4 502.5,488.9 507.5,492.8 510.1,494.8 512.8,497.3 513.5,497.8 514.7,498.8 515.2,499.3 515.8,499.9 516.4,500.4 526.3,509.0 527.7,510.1 528.4,510.7 529.7,511.9 532.1,513.9 534.2,515.8 536.6,518.0 538.6,520.1 539.7,521.1 541.5,522.7 541.8,522.9 542.8,523.6 543.8,524.3 544.6,525.0 548.7,528.5 550.8,530.6 553.1,532.6 556.6,535.7 557.4,536.6 558.1,537.4 559.0,538.4 560.4,539.9 561.0,540.5 561.4,540.8 561.9,541.1 562.0,541.2 563.1,541.7 563.8,542.1 564.4,542.5 566.5,544.1 567.3,544.7 568.1,545.4 569.7,546.8 572.7,549.6 575.6,552.1 575.9,552.4 576.8,553.3 577.1,553.7 578.2,555.5 579.0,557.0 579.9,558.5 581.3,561.2 581.8,562.6 582.4,564.1 582.8,565.0 584.1,567.5 584.8,569.0 585.2,570.0 585.7,570.7 586.1,571.4 587.5,573.3 588.7,574.8 589.7,575.7 595.4,579.9 597.6,581.5 599.8,583.2 601.2,584.3 601.9,584.9"/>
    <polyline points="553.2,289.2 553.6,289.0 554.0,288.9 554.3,288.8 554.7,288.7 555.3,288.6 555.7,288.5 556.0,288.5 556.3,288.5 556.6,288.5 556.8,288.5 557.1,288.5 557.3,288.5 557.5,288.4 557.9,288.4 559.0,288.0 560.1,287.6 561.3,287.2 561.9,287.0 562.3,286.9 563.1,286.6 563.5,286.5 564.7,286.1 565.6,285.8 566.4,285.5 567.3,285.2 567.9,285.0 568.9,284.7 569.6,284.5 570.1,284.3 571.4,283.9 571.9,283.7 572.3,283.7 572.6,283.6 572.9,283.6 573.4,283.6"/>
    <polyline points="742.8,307.3 745.5,308.0 747.5,308.5 749.7,309.0 752.2,309.6"/>
    <polyline points="650.1,314.4 650.6,315.6 650.8,316.2 651.0,316.6 651.6,318.0 651.9,318.5 652.1,318.8 652.2,318.9 652.5,319.1 652.9,319.3 653.2,319.4 653.5,319.5 653.9,319.6 654.1,319.6 654.5,319.7 655.2,319.7 656.3,319.8 658.4,319.9"/>
    <polyline points="656.6,302.0 654.5,302.8 653.2,303.3 652.7,303.5 652.2,303.7 651.7,304.1 651.3,304.4 651.0,304.8 650.2,305.8 649.9,306.4 649.6,307.0 649.4,307.4 649.3,307.9 649.3,308.4 649.2,308.9 649.1,309.5 649.2,309.8"/>
    <polyline points="544.5,291.2 544.9,291.2 545.3,291.1 545.7,291.1 546.0,291.0 547.0,290.8 547.8,290.7 548.8,290.4 550.7,290.0 551.9,289.6 552.5,289.4 553.2,289.2"/>
    <polyline points="481.2,319.5 479.1,319.5 467.4,319.8 466.7,319.8 459.0,319.3 458.3,319.2 457.9,319.3 457.5,319.4 457.0,319.6 456.4,319.8 455.7,320.1 454.9,320.4 454.3,320.8 453.7,321.1 452.4,322.5"/>
    <polyline points="452.4,322.5 451.7,323.2 451.2,323.6 450.8,324.0 450.4,324.3 449.0,325.0 448.2,325.4 442.3,327.8 441.2,328.2 440.3,328.4 439.4,328.6 438.3,328.8 437.6,328.9 436.8,328.9 436.2,328.9 435.2,329.0 434.1,329.0 433.4,329.0 432.8,328.9 432.4,328.9 429.0,328.3"/>
    <polyline points="429.0,328.3 418.7,326.7 417.8,326.5 416.7,326.3 415.9,326.2 415.2,326.1 410.3,325.3 409.3,325.1 408.4,324.9 407.8,324.8 407.2,324.6 403.1,324.0"/>
    <polyline points="403.1,324.0 401.6,323.7 400.1,323.4 394.2,322.5 393.6,322.4 393.1,322.2 392.5,322.0 392.1,321.8 391.7,321.3"/>
    <polyline points="390.2,318.6 389.9,318.2 389.6,317.9 389.3,317.6 389.0,317.3 388.7,317.1 388.5,316.9 388.1,316.7 387.7,316.6 387.3,316.4 384.6,315.7 384.1,315.6 382.0,315.2"/>
    <polyline points="366.5,320.0 365.8,320.4 365.3,320.6 364.5,320.9 358.7,323.0 357.1,323.5 355.5,323.9 355.3,324.0 352.2,324.9 351.7,325.1 349.9,325.8"/>
  </g>

  <!-- 지하철 역 -->
  <g>
    <circle cx="80.9" cy="187.6" r="3" fill="#dc2626" stroke="#fff" stroke-width="1"/>
    <circle cx="117.4" cy="196.1" r="3" fill="#dc2626" stroke="#fff" stroke-width="1"/>
    <circle cx="133.1" cy="199.9" r="3" fill="#dc2626" stroke="#fff" stroke-width="1"/>
    <circle cx="387.8" cy="422.1" r="3" fill="#dc2626" stroke="#fff" stroke-width="1"/>
    <circle cx="720.5" cy="303.9" r="3" fill="#dc2626" stroke="#fff" stroke-width="1"/>
    <circle cx="695.8" cy="314.7" r="3" fill="#dc2626" stroke="#fff" stroke-width="1"/>
    <circle cx="689.4" cy="322.3" r="3" fill="#dc2626" stroke="#fff" stroke-width="1"/>
    <circle cx="666.9" cy="320.7" r="3" fill="#dc2626" stroke="#fff" stroke-width="1"/>
    <circle cx="650.5" cy="315.2" r="3" fill="#dc2626" stroke="#fff" stroke-width="1"/>
    <circle cx="656.6" cy="302.0" r="3" fill="#dc2626" stroke="#fff" stroke-width="1"/>
    <circle cx="638.2" cy="294.2" r="3" fill="#dc2626" stroke="#fff" stroke-width="1"/>
    <circle cx="611.7" cy="289.1" r="3" fill="#dc2626" stroke="#fff" stroke-width="1"/>
    <circle cx="575.4" cy="283.5" r="3" fill="#dc2626" stroke="#fff" stroke-width="1"/>
    <circle cx="553.2" cy="289.1" r="3" fill="#dc2626" stroke="#fff" stroke-width="1"/>
    <circle cx="559.7" cy="539.3" r="3" fill="#dc2626" stroke="#fff" stroke-width="1"/>
    <circle cx="541.3" cy="522.5" r="3" fill="#dc2626" stroke="#fff" stroke-width="1"/>
    <circle cx="527.6" cy="510.2" r="3" fill="#dc2626" stroke="#fff" stroke-width="1"/>
    <circle cx="514.5" cy="498.8" r="3" fill="#dc2626" stroke="#fff" stroke-width="1"/>
    <circle cx="496.2" cy="482.0" r="3" fill="#dc2626" stroke="#fff" stroke-width="1"/>
    <circle cx="482.6" cy="466.8" r="3" fill="#dc2626" stroke="#fff" stroke-width="1"/>
    <circle cx="465.1" cy="447.2" r="3" fill="#dc2626" stroke="#fff" stroke-width="1"/>
    <circle cx="451.8" cy="432.3" r="3" fill="#dc2626" stroke="#fff" stroke-width="1"/>
    <circle cx="437.6" cy="422.4" r="3" fill="#dc2626" stroke="#fff" stroke-width="1"/>
    <circle cx="407.5" cy="422.4" r="3" fill="#dc2626" stroke="#fff" stroke-width="1"/>
    <circle cx="359.7" cy="421.5" r="3" fill="#dc2626" stroke="#fff" stroke-width="1"/>
    <circle cx="176.9" cy="211.2" r="3" fill="#dc2626" stroke="#fff" stroke-width="1"/>
    <circle cx="194.2" cy="217.6" r="3" fill="#dc2626" stroke="#fff" stroke-width="1"/>
    <circle cx="299.1" cy="289.1" r="3" fill="#dc2626" stroke="#fff" stroke-width="1"/>
    <circle cx="514.3" cy="298.7" r="3" fill="#dc2626" stroke="#fff" stroke-width="1"/>
    <circle cx="496.3" cy="306.8" r="3" fill="#dc2626" stroke="#fff" stroke-width="1"/>
    <circle cx="481.3" cy="319.4" r="3" fill="#dc2626" stroke="#fff" stroke-width="1"/>
    <circle cx="452.3" cy="322.5" r="3" fill="#dc2626" stroke="#fff" stroke-width="1"/>
    <circle cx="429.0" cy="328.3" r="3" fill="#dc2626" stroke="#fff" stroke-width="1"/>
    <circle cx="404.3" cy="324.1" r="3" fill="#dc2626" stroke="#fff" stroke-width="1"/>
    <circle cx="382.1" cy="315.1" r="3" fill="#dc2626" stroke="#fff" stroke-width="1"/>
    <circle cx="367.7" cy="318.8" r="3" fill="#dc2626" stroke="#fff" stroke-width="1"/>
    <circle cx="349.8" cy="325.8" r="3" fill="#dc2626" stroke="#fff" stroke-width="1"/>
    <circle cx="322.5" cy="323.8" r="3" fill="#dc2626" stroke="#fff" stroke-width="1"/>
    <circle cx="304.4" cy="323.5" r="3" fill="#dc2626" stroke="#fff" stroke-width="1"/>
    <circle cx="280.2" cy="323.9" r="3" fill="#dc2626" stroke="#fff" stroke-width="1"/>
    <circle cx="256.7" cy="326.2" r="3" fill="#dc2626" stroke="#fff" stroke-width="1"/>
    <circle cx="236.8" cy="331.7" r="3" fill="#dc2626" stroke="#fff" stroke-width="1"/>
    <circle cx="227.6" cy="346.8" r="3" fill="#dc2626" stroke="#fff" stroke-width="1"/>
    <circle cx="235.9" cy="363.2" r="3" fill="#dc2626" stroke="#fff" stroke-width="1"/>
    <circle cx="219.3" cy="372.1" r="3" fill="#dc2626" stroke="#fff" stroke-width="1"/>
    <circle cx="317.3" cy="299.2" r="3" fill="#dc2626" stroke="#fff" stroke-width="1"/>
    <circle cx="283.9" cy="285.8" r="3" fill="#dc2626" stroke="#fff" stroke-width="1"/>
    <circle cx="266.4" cy="282.5" r="3" fill="#dc2626" stroke="#fff" stroke-width="1"/>
    <circle cx="264.4" cy="269.9" r="3" fill="#dc2626" stroke="#fff" stroke-width="1"/>
    <circle cx="276.9" cy="258.9" r="3" fill="#dc2626" stroke="#fff" stroke-width="1"/>
    <circle cx="226.7" cy="228.3" r="3" fill="#dc2626" stroke="#fff" stroke-width="1"/>
    <circle cx="208.1" cy="222.8" r="3" fill="#dc2626" stroke="#fff" stroke-width="1"/>
    <circle cx="315.8" cy="456.6" r="3" fill="#dc2626" stroke="#fff" stroke-width="1"/>
    <circle cx="323.1" cy="437.5" r="3" fill="#dc2626" stroke="#fff" stroke-width="1"/>
    <circle cx="324.2" cy="424.6" r="3" fill="#dc2626" stroke="#fff" stroke-width="1"/>
    <circle cx="340.1" cy="414.0" r="3" fill="#dc2626" stroke="#fff" stroke-width="1"/>
    <circle cx="340.0" cy="400.8" r="3" fill="#dc2626" stroke="#fff" stroke-width="1"/>
    <circle cx="339.8" cy="386.2" r="3" fill="#dc2626" stroke="#fff" stroke-width="1"/>
    <circle cx="339.7" cy="372.5" r="3" fill="#dc2626" stroke="#fff" stroke-width="1"/>
    <circle cx="324.4" cy="365.8" r="3" fill="#dc2626" stroke="#fff" stroke-width="1"/>
    <circle cx="326.8" cy="348.5" r="3" fill="#dc2626" stroke="#fff" stroke-width="1"/>
    <circle cx="326.5" cy="338.5" r="3" fill="#dc2626" stroke="#fff" stroke-width="1"/>
    <circle cx="176.5" cy="390.9" r="3" fill="#dc2626" stroke="#fff" stroke-width="1"/>
    <circle cx="207.2" cy="380.5" r="3" fill="#dc2626" stroke="#fff" stroke-width="1"/>
    <circle cx="117.2" cy="425.5" r="3" fill="#dc2626" stroke="#fff" stroke-width="1"/>
    <circle cx="90.0" cy="436.8" r="3" fill="#dc2626" stroke="#fff" stroke-width="1"/>
    <circle cx="194.1" cy="389.0" r="3" fill="#dc2626" stroke="#fff" stroke-width="1"/>
    <circle cx="142.6" cy="409.6" r="3" fill="#dc2626" stroke="#fff" stroke-width="1"/>
    <circle cx="53.1" cy="454.4" r="3" fill="#dc2626" stroke="#fff" stroke-width="1"/>
    <circle cx="218.9" cy="513.8" r="3" fill="#dc2626" stroke="#fff" stroke-width="1"/>
    <circle cx="239.2" cy="497.7" r="3" fill="#dc2626" stroke="#fff" stroke-width="1"/>
    <circle cx="254.5" cy="487.6" r="3" fill="#dc2626" stroke="#fff" stroke-width="1"/>
    <circle cx="273.9" cy="475.6" r="3" fill="#dc2626" stroke="#fff" stroke-width="1"/>
    <circle cx="297.8" cy="468.4" r="3" fill="#dc2626" stroke="#fff" stroke-width="1"/>
    <circle cx="146.9" cy="203.4" r="3" fill="#dc2626" stroke="#fff" stroke-width="1"/>
    <circle cx="266.9" cy="244.6" r="3" fill="#dc2626" stroke="#fff" stroke-width="1"/>
    <circle cx="742.8" cy="307.2" r="3" fill="#dc2626" stroke="#fff" stroke-width="1"/>
  </g>
</svg>