<?xml version="1.0" encoding="UTF-8"?>
<svg width="800" height="600" viewBox="0 0 800 600" 
     xmlns="http://www.w3.org/2000/svg">
  <title>Bangalore Subway Map</title>
  <rect width="100%" height="100%" fill="#f8f9fa"/>

  <!-- 지하철 선로 -->
  <g id="subway-lines" stroke="#2563eb" stroke-width="3" fill="none">
    <polyline points="382.0,315.2 379.9,314.6 379.0,314.4 378.2,314.3 377.6,314.1 377.1,314.1 376.9,314.1 376.3,314.0 375.5,314.0 375.1,314.1 374.8,314.2 373.7,314.6 372.9,315.0 371.6,315.7 368.6,318.4 366.5,320.0" opacity="0.8"/>
    <polyline points="276.7,255.9 276.6,255.6 276.5,255.3 276.3,254.6 275.5,252.8 275.1,251.5 274.9,251.1 274.7,250.8 273.9,249.7 272.8,248.3 272.2,247.5 271.6,246.9 271.4,246.6 271.1,246.4 270.8,246.2 270.4,245.9 270.1,245.8 269.7,245.6 266.6,244.4" opacity="0.8"/>
    <polyline points="299.4,289.1 300.8,289.3 301.5,289.4 301.8,289.4 302.1,289.5 302.4,289.5 302.7,289.5 302.8,289.5 303.0,289.5 303.1,289.5 303.2,289.5 304.6,289.3 304.9,289.3 305.2,289.3 305.5,289.3 305.8,289.2 306.1,289.3 306.6,289.3 307.1,289.5 307.5,289.6 308.0,290.1 310.1,292.1 312.0,293.9 313.3,295.3 314.6,296.6 317.4,299.2" opacity="0.8"/>
    <polyline points="514.4,298.9 511.5,299.4" opacity="0.8"/>
    <polyline points="322.3,323.9 318.6,323.7 316.2,323.5 313.4,323.4 308.1,323.4 307.6,323.4 305.7,323.5 304.4,323.6" opacity="0.8"/>
    <polyline points="496.3,306.8 492.7,307.8 490.9,308.3 487.6,309.2 487.0,309.4 486.7,309.7 486.3,309.9 486.1,310.3 486.0,310.5 485.9,310.8 486.0,311.8 486.4,317.5 486.4,317.8 486.3,318.2 486.0,318.6 485.7,318.9 485.4,319.1 484.9,319.3 484.4,319.4 483.7,319.5 481.2,319.5" opacity="0.8"/>
    <polyline points="266.6,244.4 262.6,242.8 260.8,242.1 258.8,241.3 252.4,238.8 252.0,238.6 251.7,238.5 251.3,238.3 250.9,238.1 249.1,237.4 247.1,236.7 246.0,236.3" opacity="0.8"/>
    <polyline points="208.2,222.8 206.9,222.3 204.8,221.5 204.4,221.3" opacity="0.8"/>
    <polyline points="511.7,299.5 510.9,299.6 510.6,299.6 510.1,299.7" opacity="0.8"/>
    <polyline points="518.4,298.1 518.8,298.1 519.0,298.1 519.4,298.0 519.6,297.9 519.9,297.8 520.1,297.8 520.2,297.7 520.4,297.6 520.5,297.6" opacity="0.8"/>
    <polyline points="511.5,299.4 510.1,299.7 509.6,299.8 508.6,300.0 508.0,300.1 507.6,300.2 507.4,300.2 507.1,300.3 506.9,300.4 506.6,300.5 506.5,300.6 506.3,300.7 506.1,300.8 506.0,300.9 505.8,301.1 505.7,301.2 505.6,301.3 505.5,301.5 505.4,301.6 505.3,301.7 505.3,301.8 504.7,303.2 504.6,303.4 504.5,303.6 504.4,303.7 504.3,303.8 504.2,304.0 504.1,304.1 504.0,304.2 503.9,304.3 503.4,304.7 502.8,305.0 502.2,305.2 499.6,305.9 497.8,306.4" opacity="0.8"/>
    <polyline points="514.4,298.9 516.0,298.6 516.2,298.5 517.4,298.3 517.8,298.2 518.6,298.1 519.0,298.0 519.4,297.9 519.7,297.8 519.9,297.7 520.2,297.6 520.4,297.5 521.0,297.1 521.6,296.7 522.0,296.4 522.5,296.2 522.8,296.0 523.1,295.8 523.4,295.7 524.0,295.4" opacity="0.8"/>
    <polyline points="511.7,299.5 512.2,299.5 512.4,299.5 512.8,299.4 515.7,298.8 516.4,298.7 516.6,298.7 516.8,298.6 517.4,298.6 517.6,298.6 517.9,298.5 519.2,298.3 519.4,298.2 519.6,298.2 520.2,298.0 520.4,297.9 520.6,297.8 520.8,297.8 520.9,297.7 522.0,297.2 522.7,296.9" opacity="0.8"/>
    <polyline points="320.2,302.8 320.3,304.1 320.4,304.9" opacity="0.8"/>
    <polyline points="573.4,283.6 574.7,283.6 575.8,283.5 576.8,283.5 579.0,283.5 580.8,283.4 581.8,283.3 582.6,283.2 583.1,283.1 583.9,283.0 584.4,282.9 584.9,282.8 585.3,282.7 585.6,282.7 585.8,282.7 586.9,282.7 587.3,282.7 588.2,282.7 590.3,282.7 592.0,282.8 594.3,282.9 596.0,283.0 596.4,283.0 596.9,283.1 597.3,283.2 597.5,283.3 597.9,283.5 598.5,283.7 599.5,284.3 600.1,284.6 600.7,285.1 601.9,285.9 602.4,286.3 603.9,286.8 606.1,287.6 607.0,287.9 608.8,288.4 610.4,288.8 614.1,289.7 616.1,290.3 616.5,290.4 617.8,290.8 618.6,291.0 619.4,291.1 622.0,291.3 624.3,291.5 624.7,291.6 625.0,291.7 626.5,292.1 627.3,292.3 629.3,292.7 630.9,293.0 632.6,293.2 633.2,293.4" opacity="0.8"/>
    <polyline points="176.9,211.2 174.0,210.5 173.0,210.2 167.9,208.4 166.4,207.9 159.0,206.4 150.8,204.4 149.6,204.0 146.9,203.4" opacity="0.8"/>
    <polyline points="519.2,298.3 519.8,298.2 520.4,298.1 522.8,297.6 523.0,297.5 523.4,297.5 523.6,297.4 524.0,297.2 524.2,297.2 524.4,297.1 528.0,295.5" opacity="0.8"/>
    <polyline points="522.0,297.2 522.3,297.1 522.4,297.1 522.6,297.0 523.0,296.9 523.3,296.8 523.6,296.7 523.8,296.7 524.1,296.7 524.3,296.6 524.6,296.6 524.8,296.6 525.0,296.5 525.2,296.5 525.3,296.4 525.4,296.4" opacity="0.8"/>
    <polyline points="509.8,300.8 510.2,300.7 510.4,300.7 510.5,300.6 510.7,300.5 510.9,300.5 511.2,300.3 511.5,300.1 511.7,300.0 511.8,300.0 511.9,299.9 512.2,299.8 512.4,299.7 512.7,299.6 513.0,299.5 513.2,299.4 513.4,299.4 513.6,299.3 514.2,299.2 514.5,299.2 516.6,298.8 516.9,298.7 517.1,298.7 517.5,298.7 517.7,298.6 517.9,298.6 521.0,298.0" opacity="0.8"/>
    <polyline points="517.8,298.2 518.1,298.2 518.4,298.1 519.0,298.1 519.3,298.1 519.5,298.0 519.9,297.9 520.5,297.7 520.9,297.6 521.0,297.5 521.2,297.5 521.9,297.2 522.0,297.1 522.2,297.0 522.3,297.0 522.5,296.9 522.8,296.7 523.4,296.3 523.6,296.2 523.7,296.1 524.0,295.9 524.1,295.8 524.2,295.7 524.3,295.6 524.5,295.6 524.5,295.6" opacity="0.8"/>
    <polyline points="256.7,326.2 258.2,326.2 259.1,326.2 260.1,326.2 260.5,326.2 260.8,326.1 261.3,326.0 261.8,326.0 262.1,325.9 262.7,325.8 263.1,325.7 263.4,325.8 263.8,325.8 264.2,325.9 264.6,326.0 264.9,326.1 265.5,326.3 266.2,326.6 266.7,326.8 267.0,326.9 267.4,327.0 267.8,327.1 268.2,327.1 268.6,327.0 269.0,327.0 269.5,326.8 270.7,326.2 272.6,325.1 273.1,324.9 273.5,324.7 273.9,324.5 274.4,324.3 274.9,324.2 275.4,324.2 275.8,324.1 276.5,324.1 277.5,324.1 278.5,324.0 279.2,324.0 280.2,324.0" opacity="0.8"/>
    <polyline points="227.6,346.9 227.1,348.0 226.7,348.7 226.5,349.0 226.4,349.4 226.4,349.7 226.5,350.1 226.8,350.6 227.2,351.3 228.1,352.8 228.4,353.2 228.9,354.0 229.5,355.0 229.6,355.5 229.9,356.3 230.2,357.1 230.4,357.7 230.7,358.0 231.0,358.3 234.4,360.8 234.9,361.1 235.0,361.2 235.1,361.4 236.0,363.3" opacity="0.8"/>
    <polyline points="323.1,437.5 323.3,438.9 323.5,439.6 323.5,440.1 323.6,440.4 323.6,440.8 323.7,441.2 323.6,441.8 323.4,442.8 323.4,443.2 323.3,443.6 323.3,444.0 323.4,444.2 323.8,446.0 323.9,446.6 323.9,446.8 323.9,447.0 323.8,447.5 323.6,448.0 323.0,449.5 322.8,450.0 322.6,450.5 322.4,450.7 322.2,451.1 321.7,451.7 319.5,453.7 318.5,454.6 317.5,455.3 315.9,456.6" opacity="0.8"/>
    <polyline points="208.4,210.2 209.8,209.7 210.3,209.5 211.2,209.2 211.5,209.1 211.7,209.0 211.9,209.0 212.1,209.0 212.4,208.9 212.6,208.9 212.9,208.9 213.1,209.0 213.3,209.0 216.3,209.6" opacity="0.8"/>
    <polyline points="211.7,208.4 215.0,208.8 220.5,209.5 221.2,209.6 221.9,209.6 222.5,209.7 223.2,209.9 223.9,210.0 229.7,211.1 236.8,212.4" opacity="0.8"/>
    <polyline points="229.7,211.1 229.4,211.0 229.2,211.0 228.4,210.9 228.2,210.9 228.0,210.9 227.8,210.9 227.5,211.0 227.4,211.0 227.2,211.0 226.6,211.1 226.4,211.1 226.2,211.1 226.0,211.0 223.0,210.8 222.7,210.7 222.3,210.7" opacity="0.8"/>
    <polyline points="208.4,210.2 208.1,210.3 207.9,210.4 207.7,210.4 207.6,210.5 207.5,210.6 207.3,210.7 207.2,210.8 207.1,211.0 206.8,211.3 206.5,211.6 202.8,216.7 202.0,217.9 201.7,218.3 201.6,218.4 201.4,218.5 201.2,218.6 201.0,218.8 200.8,218.9 200.6,219.0 200.3,219.0 200.1,219.1 199.8,219.1 199.5,219.1 199.2,219.1 198.9,219.1 198.6,219.1 198.4,219.0 198.1,218.9 197.8,218.8 196.9,218.5" opacity="0.8"/>
    <polyline points="204.4,221.3 203.6,221.0 202.7,220.7 202.4,220.5 202.2,220.4 202.0,220.2 201.9,220.1 201.8,219.9 201.7,219.8 201.6,219.6 201.5,219.4 201.5,219.2 201.5,219.1 201.5,218.9 201.6,218.7 201.6,218.6 201.7,218.5 201.8,218.2 201.9,218.1 202.5,217.4 206.6,211.7 206.9,211.4 207.1,211.1 207.2,210.9 207.4,210.8 207.5,210.7 207.6,210.6 207.8,210.5 207.9,210.4 208.2,210.3 208.4,210.2" opacity="0.8"/>
    <polyline points="513.0,299.5 512.8,299.6 512.7,299.6 512.2,299.8 512.1,299.9 511.9,300.0 511.8,300.1 511.6,300.2 511.5,300.3 511.3,300.4 511.1,300.5 510.9,300.6 510.7,300.7 510.6,300.8 510.4,300.9 510.3,300.9 510.1,301.0 510.0,301.0" opacity="0.8"/>
    <polyline points="649.2,309.8 649.2,310.6 649.3,311.6 649.3,311.8 649.3,312.0 649.4,312.3" opacity="0.8"/>
    <polyline points="216.0,373.4 215.0,373.9 213.6,374.7 213.0,375.0 212.5,375.4 211.7,376.0 211.0,376.6 210.2,377.6" opacity="0.8"/>
    <polyline points="221.9,212.4 221.6,212.4 221.3,212.3 221.1,212.2 220.9,212.2 220.8,212.1 220.7,212.0 220.5,211.9 218.1,210.5 217.6,210.3 217.3,210.1 217.2,210.1 217.1,210.0 217.0,210.0 216.8,209.9 216.7,209.9 216.5,209.9 216.2,209.8 216.0,209.8 215.7,209.8 212.3,209.5" opacity="0.8"/>
    <polyline points="216.3,209.6 217.1,209.7 220.8,210.5 224.0,211.1 224.5,211.2 225.1,211.3 225.7,211.4 226.4,211.5 226.6,211.6 226.9,211.7 227.2,211.8 227.4,211.8 227.7,211.9 228.0,212.0 228.5,212.2 228.6,212.3 228.8,212.3 228.9,212.4 229.2,212.4" opacity="0.8"/>
    <polyline points="512.4,300.4 514.8,299.9 515.9,299.7 517.5,299.4 518.7,299.1 519.3,299.0 521.1,298.4 521.9,298.1 522.3,298.0 522.6,297.9 524.4,297.1" opacity="0.8"/>
    <polyline points="325.5,323.9 324.9,323.6 324.5,323.3 324.2,323.1 324.0,323.0 323.8,322.8 323.7,322.6 323.5,322.5 323.4,322.3 323.2,322.1 323.1,321.9 323.0,321.7 322.9,321.5 322.6,320.9" opacity="0.8"/>
    <polyline points="232.5,212.9 229.3,212.3" opacity="0.8"/>
    <polyline points="224.5,211.2 224.8,211.3 225.0,211.3 225.4,211.4 225.7,211.5 225.9,211.6 226.2,211.7 226.5,211.8 226.6,211.9 226.8,212.0 227.0,212.2 227.1,212.3 227.2,212.4 227.3,212.5 227.4,212.6 227.5,212.7 227.7,212.8 227.8,212.9 227.9,213.0 228.1,213.1 228.2,213.1 228.4,213.2 228.6,213.2 230.0,213.5" opacity="0.8"/>
    <polyline points="216.3,209.6 216.1,209.6 215.9,209.5 215.6,209.5 215.5,209.5 215.2,209.5 215.0,209.4 214.4,209.3 213.3,209.1 213.1,209.1 212.9,209.0 212.6,209.0 212.4,209.1 212.2,209.1 212.0,209.1 211.8,209.2 211.6,209.2 210.3,209.7" opacity="0.8"/>
    <polyline points="229.0,213.0 228.8,213.0 228.6,212.9 228.5,212.9 228.3,212.8 228.1,212.7 228.0,212.7 227.9,212.6 227.7,212.5 227.3,212.2 227.1,212.0 226.8,211.9 226.7,211.8 226.5,211.7 226.3,211.6 226.2,211.6 225.7,211.4" opacity="0.8"/>
    <polyline points="222.0,211.3 221.0,211.1 220.8,211.1 220.6,211.0 219.7,210.7 219.0,210.5 217.1,209.9 216.9,209.9 216.4,209.7 216.1,209.6 215.8,209.6 215.2,209.5" opacity="0.8"/>
    <polyline points="232.3,213.3 229.1,212.7" opacity="0.8"/>
    <polyline points="229.1,212.8 228.9,212.8 228.7,212.8 228.5,212.7 228.4,212.6 228.2,212.6 228.1,212.5 227.9,212.3 227.7,212.2 227.5,212.1 227.4,212.0 227.2,211.9 227.1,211.9 226.9,211.8 226.7,211.7 226.4,211.6 226.1,211.5 225.7,211.4" opacity="0.8"/>
    <polyline points="232.6,212.7 229.4,212.0" opacity="0.8"/>
    <polyline points="213.9,209.3 214.1,209.3 214.3,209.3 214.6,209.4 214.8,209.4 215.0,209.4" opacity="0.8"/>
    <polyline points="232.7,212.4 229.5,211.8" opacity="0.8"/>
    <polyline points="221.9,211.7 221.0,211.5 220.8,211.5 220.6,211.4 220.4,211.3 220.3,211.3 217.7,210.2 217.4,210.0 217.2,210.0 217.1,209.9" opacity="0.8"/>
    <polyline points="224.6,211.1 224.9,211.2 225.1,211.2 225.4,211.2 225.5,211.2 225.7,211.3 225.9,211.3 226.5,211.4 227.1,211.5 227.8,211.6 229.4,212.0" opacity="0.8"/>
    <polyline points="210.3,209.5 211.2,209.1 211.6,209.0 211.9,208.9 212.1,208.9 212.3,208.9 212.6,208.9 212.8,208.9 213.1,208.9 213.3,208.9 213.6,209.0 214.0,209.0 219.3,210.1 219.5,210.1 219.8,210.2 220.0,210.2 220.3,210.3 221.9,210.6 222.3,210.7 223.0,210.8 223.2,210.9 223.4,210.9 223.6,211.0 223.8,211.0 224.0,211.1" opacity="0.8"/>
    <polyline points="225.3,212.0 222.0,211.4" opacity="0.8"/>
    <polyline points="216.5,209.9 214.9,209.6 214.7,209.5 214.5,209.5 212.3,209.3" opacity="0.8"/>
  </g>

  <!-- 지하철 역 -->
  <g id="subway-stations">
    <circle cx="80.9" cy="187.6" r="4" fill="#dc2626" stroke="#fff" stroke-width="2"/>
    <text x="80.9" y="179.6" text-anchor="middle" font-size="10" fill="#374151">Madavara</text>
    <circle cx="117.4" cy="196.1" r="4" fill="#dc2626" stroke="#fff" stroke-width="2"/>
    <text x="117.4" y="188.1" text-anchor="middle" font-size="10" fill="#374151">Chikkabidarakallu</text>
    <circle cx="133.1" cy="199.9" r="4" fill="#dc2626" stroke="#fff" stroke-width="2"/>
    <text x="133.1" y="191.9" text-anchor="middle" font-size="10" fill="#374151">Manjunathanagara</text>
    <circle cx="387.8" cy="422.1" r="4" fill="#dc2626" stroke="#fff" stroke-width="2"/>
    <text x="387.8" y="414.1" text-anchor="middle" font-size="10" fill="#374151">Jayadeva Hospital</text>
    <circle cx="720.5" cy="303.9" r="4" fill="#dc2626" stroke="#fff" stroke-width="2"/>
    <text x="720.5" y="295.9" text-anchor="middle" font-size="10" fill="#374151">Pattandur Agrahara</text>
    <circle cx="695.8" cy="314.7" r="4" fill="#dc2626" stroke="#fff" stroke-width="2"/>
    <circle cx="689.4" cy="322.3" r="4" fill="#dc2626" stroke="#fff" stroke-width="2"/>
    <text x="689.4" y="314.3" text-anchor="middle" font-size="10" fill="#374151">Nallurahalli</text>
    <circle cx="666.9" cy="320.7" r="4" fill="#dc2626" stroke="#fff" stroke-width="2"/>
    <text x="666.9" y="312.7" text-anchor="middle" font-size="10" fill="#374151">Kundalahalli</text>
    <circle cx="650.5" cy="315.2" r="4" fill="#dc2626" stroke="#fff" stroke-width="2"/>
    <text x="650.5" y="307.2" text-anchor="middle" font-size="10" fill="#374151">Seetharampalya</text>
    <circle cx="656.6" cy="302.0" r="4" fill="#dc2626" stroke="#fff" stroke-width="2"/>
    <text x="656.6" y="294.0" text-anchor="middle" font-size="10" fill="#374151">Hoodi</text>
    <circle cx="638.2" cy="294.2" r="4" fill="#dc2626" stroke="#fff" stroke-width="2"/>
    <text x="638.2" y="286.2" text-anchor="middle" font-size="10" fill="#374151">Garudacharpalya</text>
    <circle cx="611.7" cy="289.1" r="4" fill="#dc2626" stroke="#fff" stroke-width="2"/>
    <text x="611.7" y="281.1" text-anchor="middle" font-size="10" fill="#374151">Singayyanapalya</text>
    <circle cx="575.4" cy="283.5" r="4" fill="#dc2626" stroke="#fff" stroke-width="2"/>
    <text x="575.4" y="275.5" text-anchor="middle" font-size="10" fill="#374151">Krishnarajapura</text>
    <circle cx="553.2" cy="289.1" r="4" fill="#dc2626" stroke="#fff" stroke-width="2"/>
    <text x="553.2" y="281.1" text-anchor="middle" font-size="10" fill="#374151">Benniganahalli</text>
    <circle cx="559.7" cy="539.3" r="4" fill="#dc2626" stroke="#fff" stroke-width="2"/>
    <circle cx="541.3" cy="522.5" r="4" fill="#dc2626" stroke="#fff" stroke-width="2"/>
    <text x="541.3" y="514.5" text-anchor="middle" font-size="10" fill="#374151">Electronic City</text>
    <circle cx="527.6" cy="510.2" r="4" fill="#dc2626" stroke="#fff" stroke-width="2"/>
    <text x="527.6" y="502.2" text-anchor="middle" font-size="10" fill="#374151">Beratena Agrahara</text>
    <circle cx="514.5" cy="498.8" r="4" fill="#dc2626" stroke="#fff" stroke-width="2"/>
    <text x="514.5" y="490.8" text-anchor="middle" font-size="10" fill="#374151">Hosa Road</text>
    <circle cx="496.2" cy="482.0" r="4" fill="#dc2626" stroke="#fff" stroke-width="2"/>
    <text x="496.2" y="474.0" text-anchor="middle" font-size="10" fill="#374151">Singasandra</text>
    <circle cx="482.6" cy="466.8" r="4" fill="#dc2626" stroke="#fff" stroke-width="2"/>
    <text x="482.6" y="458.8" text-anchor="middle" font-size="10" fill="#374151">Kudlu Gate</text>
    <circle cx="465.1" cy="447.2" r="4" fill="#dc2626" stroke="#fff" stroke-width="2"/>
    <text x="465.1" y="439.2" text-anchor="middle" font-size="10" fill="#374151">Hongasandra</text>
    <circle cx="451.8" cy="432.3" r="4" fill="#dc2626" stroke="#fff" stroke-width="2"/>
    <text x="451.8" y="424.3" text-anchor="middle" font-size="10" fill="#374151">Bommanahalli</text>
    <circle cx="437.6" cy="422.4" r="4" fill="#dc2626" stroke="#fff" stroke-width="2"/>
    <text x="437.6" y="414.4" text-anchor="middle" font-size="10" fill="#374151">Central Silk Board</text>
    <circle cx="407.5" cy="422.4" r="4" fill="#dc2626" stroke="#fff" stroke-width="2"/>
    <text x="407.5" y="414.4" text-anchor="middle" font-size="10" fill="#374151">BTM Layout</text>
    <circle cx="359.7" cy="421.5" r="4" fill="#dc2626" stroke="#fff" stroke-width="2"/>
    <text x="359.7" y="413.5" text-anchor="middle" font-size="10" fill="#374151">Ragigudda</text>
    <circle cx="176.9" cy="211.2" r="4" fill="#dc2626" stroke="#fff" stroke-width="2"/>
    <text x="176.9" y="203.2" text-anchor="middle" font-size="10" fill="#374151">Dasarahalli</text>
    <circle cx="194.2" cy="217.6" r="4" fill="#dc2626" stroke="#fff" stroke-width="2"/>
    <text x="194.2" y="209.6" text-anchor="middle" font-size="10" fill="#374151">Jalahalli</text>
    <circle cx="299.1" cy="289.1" r="4" fill="#dc2626" stroke="#fff" stroke-width="2"/>
    <text x="299.1" y="281.1" text-anchor="middle" font-size="10" fill="#374151">Srirampura</text>
    <circle cx="514.3" cy="298.7" r="4" fill="#dc2626" stroke="#fff" stroke-width="2"/>
    <text x="514.3" y="290.7" text-anchor="middle" font-size="10" fill="#374151">Baiyappanahalli</text>
    <circle cx="496.3" cy="306.8" r="4" fill="#dc2626" stroke="#fff" stroke-width="2"/>
    <circle cx="481.3" cy="319.4" r="4" fill="#dc2626" stroke="#fff" stroke-width="2"/>
    <text x="481.3" y="311.4" text-anchor="middle" font-size="10" fill="#374151">Indiranagar</text>
    <circle cx="452.3" cy="322.5" r="4" fill="#dc2626" stroke="#fff" stroke-width="2"/>
    <text x="452.3" y="314.5" text-anchor="middle" font-size="10" fill="#374151">Halasuru</text>
    <circle cx="429.0" cy="328.3" r="4" fill="#dc2626" stroke="#fff" stroke-width="2"/>
    <text x="429.0" y="320.3" text-anchor="middle" font-size="10" fill="#374151">Trinity</text>
    <circle cx="404.3" cy="324.1" r="4" fill="#dc2626" stroke="#fff" stroke-width="2"/>
    <text x="404.3" y="316.1" text-anchor="middle" font-size="10" fill="#374151">Mahatma Gandhi Road</text>
    <circle cx="382.1" cy="315.1" r="4" fill="#dc2626" stroke="#fff" stroke-width="2"/>
    <text x="382.1" y="307.1" text-anchor="middle" font-size="10" fill="#374151">Cubbon Park</text>
    <circle cx="367.7" cy="318.8" r="4" fill="#dc2626" stroke="#fff" stroke-width="2"/>
    <circle cx="349.8" cy="325.8" r="4" fill="#dc2626" stroke="#fff" stroke-width="2"/>
    <circle cx="322.5" cy="323.8" r="4" fill="#dc2626" stroke="#fff" stroke-width="2"/>
    <circle cx="304.4" cy="323.5" r="4" fill="#dc2626" stroke="#fff" stroke-width="2"/>
    <circle cx="280.2" cy="323.9" r="4" fill="#dc2626" stroke="#fff" stroke-width="2"/>
    <text x="280.2" y="315.9" text-anchor="middle" font-size="10" fill="#374151">Magadi Road</text>
    <circle cx="256.7" cy="326.2" r="4" fill="#dc2626" stroke="#fff" stroke-width="2"/>
    <circle cx="236.8" cy="331.7" r="4" fill="#dc2626" stroke="#fff" stroke-width="2"/>
    <text x="236.8" y="323.7" text-anchor="middle" font-size="10" fill="#374151">Vijayanagar</text>
    <circle cx="227.6" cy="346.8" r="4" fill="#dc2626" stroke="#fff" stroke-width="2"/>
    <text x="227.6" y="338.8" text-anchor="middle" font-size="10" fill="#374151">Attiguppe</text>
    <circle cx="235.9" cy="363.2" r="4" fill="#dc2626" stroke="#fff" stroke-width="2"/>
    <text x="235.9" y="355.2" text-anchor="middle" font-size="10" fill="#374151">Deepanjali Nagar</text>
    <circle cx="219.3" cy="372.1" r="4" fill="#dc2626" stroke="#fff" stroke-width="2"/>
    <text x="219.3" y="364.1" text-anchor="middle" font-size="10" fill="#374151">Mysore Road</text>
    <circle cx="317.3" cy="299.2" r="4" fill="#dc2626" stroke="#fff" stroke-width="2"/>
    <circle cx="283.9" cy="285.8" r="4" fill="#dc2626" stroke="#fff" stroke-width="2"/>
    <circle cx="266.4" cy="282.5" r="4" fill="#dc2626" stroke="#fff" stroke-width="2"/>
    <text x="266.4" y="274.5" text-anchor="middle" font-size="10" fill="#374151">Rajajinagar</text>
    <circle cx="264.4" cy="269.9" r="4" fill="#dc2626" stroke="#fff" stroke-width="2"/>
    <text x="264.4" y="261.9" text-anchor="middle" font-size="10" fill="#374151">Mahalakshmi</text>
    <circle cx="276.9" cy="258.9" r="4" fill="#dc2626" stroke="#fff" stroke-width="2"/>
    <text x="276.9" y="250.9" text-anchor="middle" font-size="10" fill="#374151">Sandal Soap Factory</text>
    <circle cx="226.7" cy="228.3" r="4" fill="#dc2626" stroke="#fff" stroke-width="2"/>
    <text x="226.7" y="220.3" text-anchor="middle" font-size="10" fill="#374151">Peenya</text>
    <circle cx="208.1" cy="222.8" r="4" fill="#dc2626" stroke="#fff" stroke-width="2"/>
    <text x="208.1" y="214.8" text-anchor="middle" font-size="10" fill="#374151">Peenya Industry</text>
    <circle cx="315.8" cy="456.6" r="4" fill="#dc2626" stroke="#fff" stroke-width="2"/>
    <text x="315.8" y="448.6" text-anchor="middle" font-size="10" fill="#374151">Yelachenahalli</text>
    <circle cx="323.1" cy="437.5" r="4" fill="#dc2626" stroke="#fff" stroke-width="2"/>
    <text x="323.1" y="429.5" text-anchor="middle" font-size="10" fill="#374151">Jaya Prakash Nagar</text>
    <circle cx="324.2" cy="424.6" r="4" fill="#dc2626" stroke="#fff" stroke-width="2"/>
    <text x="324.2" y="416.6" text-anchor="middle" font-size="10" fill="#374151">Banashankari</text>
    <circle cx="340.1" cy="414.0" r="4" fill="#dc2626" stroke="#fff" stroke-width="2"/>
    <circle cx="340.0" cy="400.8" r="4" fill="#dc2626" stroke="#fff" stroke-width="2"/>
    <text x="340.0" y="392.8" text-anchor="middle" font-size="10" fill="#374151">Jayanagar</text>
    <circle cx="339.8" cy="386.2" r="4" fill="#dc2626" stroke="#fff" stroke-width="2"/>
    <text x="339.8" y="378.2" text-anchor="middle" font-size="10" fill="#374151">South End Circle</text>
    <circle cx="339.7" cy="372.5" r="4" fill="#dc2626" stroke="#fff" stroke-width="2"/>
    <text x="339.7" y="364.5" text-anchor="middle" font-size="10" fill="#374151">Lalbagh</text>
    <circle cx="324.4" cy="365.8" r="4" fill="#dc2626" stroke="#fff" stroke-width="2"/>
    <text x="324.4" y="357.8" text-anchor="middle" font-size="10" fill="#374151">National College</text>
    <circle cx="326.8" cy="348.5" r="4" fill="#dc2626" stroke="#fff" stroke-width="2"/>
    <circle cx="326.5" cy="338.5" r="4" fill="#dc2626" stroke="#fff" stroke-width="2"/>
    <text x="326.5" y="330.5" text-anchor="middle" font-size="10" fill="#374151">Chickpete</text>
    <circle cx="176.5" cy="390.9" r="4" fill="#dc2626" stroke="#fff" stroke-width="2"/>
    <text x="176.5" y="382.9" text-anchor="middle" font-size="10" fill="#374151">Jnanabharathi</text>
    <circle cx="207.2" cy="380.5" r="4" fill="#dc2626" stroke="#fff" stroke-width="2"/>
    <circle cx="117.2" cy="425.5" r="4" fill="#dc2626" stroke="#fff" stroke-width="2"/>
    <circle cx="90.0" cy="436.8" r="4" fill="#dc2626" stroke="#fff" stroke-width="2"/>
    <text x="90.0" y="428.8" text-anchor="middle" font-size="10" fill="#374151">Kengeri</text>
    <circle cx="194.1" cy="389.0" r="4" fill="#dc2626" stroke="#fff" stroke-width="2"/>
    <circle cx="142.6" cy="409.6" r="4" fill="#dc2626" stroke="#fff" stroke-width="2"/>
    <text x="142.6" y="401.6" text-anchor="middle" font-size="10" fill="#374151">Pattanagere</text>
    <circle cx="53.1" cy="454.4" r="4" fill="#dc2626" stroke="#fff" stroke-width="2"/>
    <text x="53.1" y="446.4" text-anchor="middle" font-size="10" fill="#374151">Challaghatta</text>
    <circle cx="218.9" cy="513.8" r="4" fill="#dc2626" stroke="#fff" stroke-width="2"/>
    <text x="218.9" y="505.8" text-anchor="middle" font-size="10" fill="#374151">Silk Institute</text>
    <circle cx="239.2" cy="497.7" r="4" fill="#dc2626" stroke="#fff" stroke-width="2"/>
    <text x="239.2" y="489.7" text-anchor="middle" font-size="10" fill="#374151">Thalaghattapura</text>
    <circle cx="254.5" cy="487.6" r="4" fill="#dc2626" stroke="#fff" stroke-width="2"/>
    <text x="254.5" y="479.6" text-anchor="middle" font-size="10" fill="#374151">Vajarahalli</text>
    <circle cx="273.9" cy="475.6" r="4" fill="#dc2626" stroke="#fff" stroke-width="2"/>
    <text x="273.9" y="467.6" text-anchor="middle" font-size="10" fill="#374151">Doddakallasandra</text>
    <circle cx="297.8" cy="468.4" r="4" fill="#dc2626" stroke="#fff" stroke-width="2"/>
    <text x="297.8" y="460.4" text-anchor="middle" font-size="10" fill="#374151">Konanakunte Cross</text>
    <circle cx="146.9" cy="203.4" r="4" fill="#dc2626" stroke="#fff" stroke-width="2"/>
    <text x="146.9" y="195.4" text-anchor="middle" font-size="10" fill="#374151">Nagasandra</text>
    <circle cx="266.9" cy="244.6" r="4" fill="#dc2626" stroke="#fff" stroke-width="2"/>
    <text x="266.9" y="236.6" text-anchor="middle" font-size="10" fill="#374151">Yeshwantpur</text>
    <circle cx="742.8" cy="307.2" r="4" fill="#dc2626" stroke="#fff" stroke-width="2"/>
    <text x="742.8" y="299.2" text-anchor="middle" font-size="10" fill="#374151">Kadugodi Tree Park</text>
  </g>
</svg>