<?xml version="1.0" encoding="UTF-8"?>
<svg width="800" height="600" xmlns="http://www.w3.org/2000/svg">
  <title>Beijing Subway Map</title>
  <rect width="100%" height="100%" fill="#f8f9fa"/>
  <g stroke="#2563eb" stroke-width="3" fill="none">
    <polyline points="522.2,196.1 522.2,196.8 522.3,197.8 522.5,198.9 523.0,200.5 523.4,201.8 523.8,202.6 524.3,203.7 524.6,204.7 524.8,205.7 524.8,206.6 524.5,207.5 524.2,208.1 523.8,209.2 523.6,211.0 523.7,219.8 523.8,220.2 523.9,220.6 524.1,220.9 524.8,222.0"/>
    <polyline points="312.4,226.6 311.8,225.2"/>
    <polyline points="532.8,465.7 533.3,466.5 533.7,467.0 534.0,467.3 534.5,467.8 534.7,468.3 534.9,469.1"/>
    <polyline points="418.3,138.6 418.4,140.7 418.5,141.7 418.7,144.3 419.5,160.9 420.1,173.6 420.1,188.6 420.0,191.1 419.6,193.8 419.1,199.1 418.2,204.7 417.7,209.8 417.8,213.4 419.2,222.6 419.7,224.4 421.2,227.0 422.6,228.9 423.5,230.0 423.9,231.5 424.1,234.3 424.1,235.6 424.2,236.8 424.3,237.2 424.9,239.7 425.3,240.4 425.6,240.8 426.2,241.5 428.2,242.4 431.1,243.2 435.2,244.0 438.4,244.5 444.1,244.5 447.0,244.5 449.0,244.5 452.3,244.7 454.9,245.1 455.9,245.5 456.6,246.0 456.8,246.7 456.9,247.9 457.0,249.9 457.1,250.5 457.3,251.3 458.0,252.5 458.6,253.7 459.1,254.8 459.8,256.1 460.7,258.0 461.3,259.1 461.6,259.9 461.8,260.6 461.9,266.3"/>
    <polyline points="148.2,146.5 149.7,146.4 152.7,146.3 153.0,146.3 153.6,146.2"/>
    <polyline points="478.4,99.6 478.4,97.2 478.4,94.7 478.5,93.9 478.9,90.7 479.3,88.4 479.4,87.6 479.6,86.1 479.9,84.5 480.1,82.6 480.1,80.9 479.9,79.6 479.5,78.4 479.3,77.3 479.1,75.9 478.8,74.5 478.5,73.0 478.4,72.6 477.8,68.6 476.8,62.4 476.7,61.6 476.5,60.1 476.5,58.8 476.5,57.8 476.5,56.5 476.7,54.4 476.9,53.4 477.1,52.6 477.7,49.9 478.2,47.9 478.9,44.9 479.7,41.5 479.7,39.3 479.8,38.7 479.8,37.9 479.9,36.8 479.8,34.2 479.9,28.9 480.2,26.1 480.2,25.4 480.3,24.7 480.3,24.2 480.4,23.8 480.5,23.3 480.9,21.6 481.1,20.5 481.1,20.2 481.2,17.8 481.2,15.6 481.3,14.0 481.4,12.4 481.4,11.0 481.4,10.2 481.3,9.4 481.2,8.6 481.1,7.9 480.9,7.0 480.2,4.2 479.4,1.4 479.3,1.0 479.1,0.5 478.8,-0.1 478.4,-0.6 478.0,-1.1 477.6,-1.7 476.3,-3.2 476.0,-3.8 475.7,-4.4 475.4,-4.9 475.3,-5.4 475.1,-5.9 475.0,-6.4 474.8,-7.5 474.3,-9.5 474.0,-10.8 473.8,-11.3 473.6,-11.9 473.3,-12.7 473.0,-13.4 472.7,-13.8 471.9,-15.1 471.1,-16.5 468.4,-20.8 467.9,-21.6 467.3,-22.3 464.5,-25.1 464.0,-25.8 463.7,-26.4 463.4,-26.9 463.2,-27.6 463.1,-28.0 463.0,-28.5 463.0,-28.9 463.0,-29.3 462.8,-32.6"/>
    <polyline points="366.0,316.1 366.4,325.7 366.4,327.6 366.6,334.4 366.8,348.8 366.8,350.9 366.8,353.5 366.7,364.7 366.8,376.0 366.8,378.1 366.8,386.0 367.3,388.1 368.0,389.2 369.0,390.1 371.3,391.2 373.1,392.0 374.3,393.4 374.7,394.8 375.4,401.1 375.9,402.6 377.5,405.2 378.0,406.3 378.4,407.8 378.7,409.4 379.0,411.1 379.0,413.4 378.5,414.7 377.6,416.0 376.3,417.2 362.3,427.0 360.3,428.4 359.7,429.2 359.2,430.4 358.9,437.9 358.3,455.2 358.3,457.7 357.9,474.0 357.8,474.7 357.8,474.8"/>
    <polyline points="95.6,63.4 95.2,62.0 95.0,60.1 94.9,58.0 94.9,57.3 94.8,55.6"/>
    <polyline points="517.0,159.2 517.1,161.2 517.2,162.7 517.3,164.0 517.4,165.4 517.3,166.5 517.3,167.6 517.6,174.6 517.7,176.1 517.8,177.0 517.9,177.8 518.2,178.9 518.4,180.0 518.8,181.8"/>
    <polyline points="517.0,157.7 517.0,159.2"/>
    <polyline points="530.2,457.9 530.6,458.5 530.9,459.1 531.1,459.5 531.2,460.1 531.2,460.9 531.2,461.6 531.2,462.0 531.1,462.5 530.9,462.9 530.3,463.9 529.8,464.7 529.5,465.2 529.0,466.0 528.6,466.5 528.0,467.5 527.7,468.0 527.4,468.4 527.1,468.9 527.0,469.3 526.9,469.8 526.9,470.2 526.9,473.2"/>
    <polyline points="-113.6,307.2 -91.1,307.2 -75.3,307.2 -62.0,307.1 -60.9,307.1 -60.6,307.1 -55.6,307.2 1.6,307.1 2.7,307.1 5.0,307.1 7.0,307.1 8.1,307.1 46.6,307.0 46.7,307.1 47.6,307.1 50.0,307.1 52.1,307.1 52.9,307.1 102.2,307.0 103.1,307.1 105.3,307.1 107.4,307.1 108.3,307.0 156.2,307.0 157.3,307.1 159.5,307.0 161.6,307.0 162.7,307.0 189.8,307.0 191.1,307.1 196.8,307.1 199.6,307.1 201.9,307.1 203.0,307.1 231.9,307.1 233.3,307.2 235.4,307.3 237.5,307.3 238.8,307.2 254.0,307.3 267.8,307.2 268.9,307.3 271.1,307.3 273.3,307.3 274.4,307.3 289.4,307.6 307.5,307.8 308.5,307.9 310.5,307.9 312.6,307.9 313.6,307.9 314.7,307.9 315.3,307.9 315.9,307.9 320.3,308.0 322.9,308.0 325.5,308.0 326.5,308.0 332.5,308.0 333.3,307.9 364.4,308.1 368.2,308.1 371.6,308.2 374.4,308.2 375.0,308.1 389.1,308.1 407.3,307.7 408.7,307.7 411.4,307.6 414.4,307.5 414.8,307.5 432.9,306.9 433.6,306.9 436.9,306.8 439.7,306.8 440.5,306.6 460.4,306.0 461.2,306.1 463.7,306.0 466.7,305.9 474.8,305.7 476.8,305.6 477.2,305.6 481.7,305.5 484.1,305.5 486.7,305.4 489.4,305.4 490.7,305.3 510.0,305.1 525.2,304.8 527.8,304.8 528.1,304.7 536.4,304.8 538.3,304.8 562.3,304.9 562.7,304.9 565.6,305.0 568.2,305.0 568.6,304.9 583.4,305.0 584.2,305.1 586.8,305.1 589.5,305.1 592.1,305.1 593.5,305.1 627.1,305.2 629.2,305.3 631.8,305.3 634.8,305.3 636.7,305.2 645.9,305.3 647.0,305.3 648.1,305.2 661.4,303.8 663.8,303.6 666.4,303.3 668.5,303.2 673.5,303.2"/>
    <polyline points="270.4,72.5 270.1,68.8 269.9,67.8 269.6,66.7 269.2,65.6 268.8,64.6 268.3,63.8 267.5,62.7 266.7,61.8 266.1,61.0 265.3,60.3 261.9,57.6 254.3,51.3 249.2,47.3 245.9,44.6 245.4,44.2 245.3,44.1"/>
    <polyline points="583.5,35.8 580.8,43.0 577.7,51.6 574.3,60.9 572.9,65.4"/>
    <polyline points="572.7,66.0 572.2,67.5 569.9,73.8 567.8,79.5"/>
    <polyline points="572.9,65.4 572.7,66.0"/>
    <polyline points="567.8,79.5 567.3,81.0"/>
    <polyline points="567.3,81.0 566.3,83.8 565.3,85.7 564.4,87.7 563.2,89.7 561.1,92.6 558.6,95.9 557.6,97.3 556.6,98.8 556.4,99.0 556.1,99.4 552.4,104.7 547.7,111.1 547.3,111.7"/>
    <polyline points="94.8,55.6 94.7,54.0 94.7,52.9 94.5,49.9 94.5,49.3 94.6,48.8 94.7,48.5"/>
    <polyline points="139.9,550.3 141.8,549.6 146.0,548.0 146.7,547.8 150.9,546.3 153.5,545.4 154.1,545.1 155.0,544.9 155.9,544.7 156.8,544.5 157.8,544.3 172.5,542.5 174.3,542.2 175.5,541.9 176.4,541.5 177.4,541.1 178.1,540.4 178.4,539.8 178.7,539.1 179.0,537.9 179.0,536.4"/>
    <polyline points="562.3,95.4 564.9,94.8"/>
    <polyline points="178.0,535.9 178.0,536.6 177.9,537.5 177.6,538.9 177.2,539.8 176.8,540.4 176.3,540.9 175.4,541.3 174.6,541.6 173.6,541.8 157.7,544.2 156.7,544.3 155.9,544.5 155.0,544.7 154.1,545.1 153.4,545.3 150.8,546.2 147.3,547.5 145.9,548.0 141.8,549.5 139.8,550.2"/>
    <polyline points="146.7,547.8 147.3,547.5"/>
    <polyline points="528.2,226.6 526.2,223.8 526.0,223.6 525.8,223.3 524.9,222.0"/>
    <polyline points="309.7,220.1 309.7,220.3 309.8,220.6"/>
    <polyline points="309.6,220.1 309.7,220.3 309.9,220.5"/>
    <polyline points="312.0,224.9 310.4,221.0 310.0,220.3 309.7,219.8 309.2,219.0"/>
    <polyline points="545.5,114.4 547.1,112.2"/>
    <polyline points="519.0,182.9 519.4,184.2 519.7,185.6 520.0,187.1 520.3,188.7 520.4,189.5 520.7,190.5 521.2,191.6 521.4,192.2 521.7,192.7 521.9,193.2 522.0,193.7 522.2,194.8 522.2,196.1"/>
    <polyline points="518.9,181.8 518.6,180.0 518.3,178.8 518.1,177.8 517.9,177.0 517.8,176.1 517.7,174.6 517.4,167.6 517.4,166.5 517.5,165.4 517.4,163.3 517.3,162.7 517.3,161.2 517.2,159.2"/>
    <polyline points="525.9,141.7 526.8,140.4"/>
    <polyline points="542.9,117.9 542.4,118.6"/>
    <polyline points="547.4,111.7 547.8,111.1 552.5,104.7 556.3,99.4 556.6,99.1 556.7,98.8 557.8,97.4 558.8,96.0 561.3,92.7 563.3,89.8 564.5,87.8 565.5,85.7 566.4,83.8 567.4,81.0"/>
    <polyline points="521.2,148.1 521.8,147.2"/>
    <polyline points="521.7,147.2 521.1,148.1"/>
    <polyline points="522.3,196.1 522.3,194.8 522.2,193.7 522.0,193.2 521.8,192.6 521.5,192.1 521.3,191.6 520.8,190.5 520.5,189.5 520.4,188.7 520.1,187.1 519.8,185.6 519.5,184.2 519.1,182.9"/>
    <polyline points="521.1,148.1 518.5,152.1 518.2,152.7 517.9,153.3 517.6,153.9 517.4,154.4 517.3,154.9 517.2,155.3 517.0,156.5 517.0,157.7"/>
    <polyline points="542.5,118.6 543.0,117.9"/>
    <polyline points="567.4,81.0 568.0,79.4"/>
    <polyline points="544.7,115.4 543.5,117.2 542.9,117.9"/>
    <polyline points="526.7,140.4 525.8,141.7"/>
    <polyline points="521.8,147.2 523.3,145.2 525.9,141.7"/>
    <polyline points="544.8,115.4 545.5,114.4"/>
    <polyline points="573.1,65.4 574.5,60.9 577.9,51.6 580.9,43.0 583.0,37.3 583.6,35.8"/>
    <polyline points="518.8,181.8 519.0,182.9"/>
    <polyline points="525.8,141.7 523.2,145.2 521.7,147.2"/>
    <polyline points="308.6,217.9 308.9,218.3"/>
    <polyline points="545.4,114.4 544.7,115.4"/>
    <polyline points="517.2,159.2 517.1,157.7"/>
    <polyline points="547.1,112.2 547.4,111.7"/>
  </g>
  <g>
    <circle cx="630.6" cy="218.9" r="4" fill="#dc2626"/>
    <circle cx="639.7" cy="244.4" r="4" fill="#dc2626"/>
    <circle cx="107.4" cy="408.2" r="4" fill="#dc2626"/>
    <circle cx="53.9" cy="408.1" r="4" fill="#dc2626"/>
    <circle cx="157.9" cy="405.3" r="4" fill="#dc2626"/>
    <circle cx="183.1" cy="405.3" r="4" fill="#dc2626"/>
    <circle cx="226.5" cy="403.2" r="4" fill="#dc2626"/>
    <circle cx="253.9" cy="402.8" r="4" fill="#dc2626"/>
    <circle cx="345.9" cy="414.4" r="4" fill="#dc2626"/>
    <circle cx="284.7" cy="402.8" r="4" fill="#dc2626"/>
    <circle cx="463.1" cy="409.1" r="4" fill="#dc2626"/>
    <circle cx="490.6" cy="407.4" r="4" fill="#dc2626"/>
    <circle cx="402.3" cy="399.6" r="4" fill="#dc2626"/>
    <circle cx="587.5" cy="406.5" r="4" fill="#dc2626"/>
    <circle cx="538.9" cy="406.7" r="4" fill="#dc2626"/>
    <circle cx="656.6" cy="182.0" r="4" fill="#dc2626"/>
    <circle cx="637.5" cy="340.8" r="4" fill="#dc2626"/>
    <circle cx="636.3" cy="305.2" r="4" fill="#dc2626"/>
    <circle cx="636.6" cy="360.6" r="4" fill="#dc2626"/>
    <circle cx="636.7" cy="385.1" r="4" fill="#dc2626"/>
    <circle cx="610.0" cy="60.1" r="4" fill="#dc2626"/>
    <circle cx="669.8" cy="155.2" r="4" fill="#dc2626"/>
    <circle cx="613.3" cy="90.3" r="4" fill="#dc2626"/>
    <circle cx="620.2" cy="104.4" r="4" fill="#dc2626"/>
    <circle cx="705.0" cy="360.2" r="4" fill="#dc2626"/>
    <circle cx="699.5" cy="385.7" r="4" fill="#dc2626"/>
    <circle cx="594.5" cy="340.8" r="4" fill="#dc2626"/>
    <circle cx="726.5" cy="418.8" r="4" fill="#dc2626"/>
    <circle cx="662.8" cy="340.6" r="4" fill="#dc2626"/>
    <circle cx="324.0" cy="349.3" r="4" fill="#dc2626"/>
    <circle cx="562.7" cy="340.3" r="4" fill="#dc2626"/>
    <circle cx="456.1" cy="342.8" r="4" fill="#dc2626"/>
    <circle cx="522.6" cy="340.4" r="4" fill="#dc2626"/>
    <circle cx="693.5" cy="404.2" r="4" fill="#dc2626"/>
    <circle cx="686.0" cy="342.6" r="4" fill="#dc2626"/>
    <circle cx="483.2" cy="341.8" r="4" fill="#dc2626"/>
    <circle cx="367.1" cy="350.7" r="4" fill="#dc2626"/>
    <circle cx="391.3" cy="349.7" r="4" fill="#dc2626"/>
    <circle cx="265.6" cy="348.5" r="4" fill="#dc2626"/>
    <circle cx="515.7" cy="82.6" r="4" fill="#dc2626"/>
    <circle cx="351.0" cy="81.7" r="4" fill="#dc2626"/>
    <circle cx="415.6" cy="81.1" r="4" fill="#dc2626"/>
    <circle cx="454.4" cy="79.2" r="4" fill="#dc2626"/>
    <circle cx="276.7" cy="83.7" r="4" fill="#dc2626"/>
    <circle cx="65.9" cy="471.6" r="4" fill="#dc2626"/>
    <circle cx="139.4" cy="477.9" r="4" fill="#dc2626"/>
    <circle cx="269.3" cy="378.8" r="4" fill="#dc2626"/>
    <circle cx="261.4" cy="303.4" r="4" fill="#dc2626"/>
    <circle cx="264.3" cy="288.4" r="4" fill="#dc2626"/>
    <circle cx="263.3" cy="268.1" r="4" fill="#dc2626"/>
    <circle cx="197.4" cy="208.8" r="4" fill="#dc2626"/>
    <circle cx="192.8" cy="175.0" r="4" fill="#dc2626"/>
    <circle cx="173.8" cy="120.6" r="4" fill="#dc2626"/>
    <circle cx="504.9" cy="313.2" r="4" fill="#dc2626"/>
    <circle cx="379.0" cy="409.3" r="4" fill="#dc2626"/>
    <circle cx="478.7" cy="115.2" r="4" fill="#dc2626"/>
    <circle cx="479.9" cy="139.7" r="4" fill="#dc2626"/>
    <circle cx="481.0" cy="160.6" r="4" fill="#dc2626"/>
    <circle cx="476.7" cy="209.2" r="4" fill="#dc2626"/>
    <circle cx="480.3" cy="206.9" r="4" fill="#dc2626"/>
    <circle cx="481.1" cy="284.9" r="4" fill="#dc2626"/>
    <circle cx="477.0" cy="266.8" r="4" fill="#dc2626"/>
    <circle cx="424.2" cy="235.6" r="4" fill="#dc2626"/>
    <circle cx="418.6" cy="207.8" r="4" fill="#dc2626"/>
    <circle cx="417.9" cy="209.8" r="4" fill="#dc2626"/>
    <circle cx="419.9" cy="160.9" r="4" fill="#dc2626"/>
    <circle cx="418.6" cy="138.6" r="4" fill="#dc2626"/>
    <circle cx="414.6" cy="60.0" r="4" fill="#dc2626"/>
    <circle cx="701.2" cy="270.0" r="4" fill="#dc2626"/>
    <circle cx="593.8" cy="382.2" r="4" fill="#dc2626"/>
    <circle cx="574.6" cy="440.3" r="4" fill="#dc2626"/>
    <circle cx="482.0" cy="78.3" r="4" fill="#dc2626"/>
    <circle cx="411.8" cy="79.9" r="4" fill="#dc2626"/>
    <circle cx="559.2" cy="96.0" r="4" fill="#dc2626"/>
    <circle cx="392.1" cy="325.0" r="4" fill="#dc2626"/>
    <circle cx="274.4" cy="233.3" r="4" fill="#dc2626"/>
    <circle cx="478.6" cy="227.4" r="4" fill="#dc2626"/>
    <circle cx="237.8" cy="223.0" r="4" fill="#dc2626"/>
    <circle cx="594.2" cy="362.5" r="4" fill="#dc2626"/>
    <circle cx="394.8" cy="456.6" r="4" fill="#dc2626"/>
    <circle cx="527.9" cy="139.7" r="4" fill="#dc2626"/>
    <circle cx="320.8" cy="307.6" r="4" fill="#dc2626"/>
    <circle cx="278.7" cy="141.8" r="4" fill="#dc2626"/>
    <circle cx="235.4" cy="307.2" r="4" fill="#dc2626"/>
    <circle cx="366.6" cy="325.7" r="4" fill="#dc2626"/>
    <circle cx="481.4" cy="322.5" r="4" fill="#dc2626"/>
    <circle cx="199.6" cy="307.1" r="4" fill="#dc2626"/>
    <circle cx="483.2" cy="305.4" r="4" fill="#dc2626"/>
    <circle cx="523.6" cy="226.2" r="4" fill="#dc2626"/>
    <circle cx="595.2" cy="268.9" r="4" fill="#dc2626"/>
    <circle cx="357.8" cy="477.2" r="4" fill="#dc2626"/>
    <circle cx="156.0" cy="146.1" r="4" fill="#dc2626"/>
    <circle cx="178.4" cy="529.6" r="4" fill="#dc2626"/>
    <circle cx="180.7" cy="373.0" r="4" fill="#dc2626"/>
    <circle cx="317.5" cy="227.8" r="4" fill="#dc2626"/>
    <circle cx="736.3" cy="304.4" r="4" fill="#dc2626"/>
    <circle cx="683.8" cy="303.7" r="4" fill="#dc2626"/>
    <circle cx="526.6" cy="304.7" r="4" fill="#dc2626"/>
    <circle cx="362.6" cy="244.4" r="4" fill="#dc2626"/>
    <circle cx="317.8" cy="247.2" r="4" fill="#dc2626"/>
  </g>
</svg>