<?xml version="1.0" encoding="UTF-8"?>
<svg width="800" height="600" xmlns="http://www.w3.org/2000/svg">
  <title>Belo Horizonte Subway Map</title>
  <rect width="100%" height="100%" fill="#f8f9fa"/>

  <!-- 지하철 선로 -->
  <g stroke="#2563eb" stroke-width="2" fill="none" opacity="0.8">
    <polyline points="707.9,231.6 709.6,232.1 711.2,232.8 713.2,233.9 714.8,234.9 715.9,235.7 716.6,236.4 717.0,236.9 717.4,237.5 717.6,237.8 717.7,238.1 717.8,238.5 717.9,239.1 717.9,239.3 717.8,239.8 717.7,240.2 717.4,240.9 716.5,242.0 714.9,244.0 713.5,245.6 713.0,246.2 712.8,246.8 712.6,247.4 712.6,248.0 712.9,248.8 713.6,249.7 714.9,250.9"/>
    <polyline points="688.1,229.8 690.9,230.1 693.7,230.3 697.0,230.4"/>
    <polyline points="688.6,210.5 687.6,211.8 686.9,212.6 685.7,213.7 682.9,216.0 680.2,218.2 679.2,219.2 678.7,219.9"/>
    <polyline points="680.5,198.3 682.1,199.1 683.7,200.0 685.7,201.4 687.4,203.0 688.6,204.6 689.1,205.5 689.2,206.1 689.4,206.8 689.4,207.7"/>
    <polyline points="645.3,335.9 643.4,336.4 639.8,337.2 637.4,338.0 636.2,338.5 628.5,342.4 626.5,343.2 625.0,343.7 622.6,344.1 620.1,344.4 619.1,344.5 617.9,344.5 615.1,344.4 606.7,343.8 598.7,343.2 597.0,343.1 595.3,343.1 592.8,343.2 591.0,343.4 589.0,343.7 584.7,344.5 582.9,344.8"/>
    <polyline points="562.1,346.8 560.5,346.8 559.5,346.8 558.1,346.8 556.2,346.6 552.2,346.0 550.8,345.9 548.4,345.7 547.3,345.6 545.3,345.7 543.0,346.0 540.9,346.4 539.5,346.8 537.7,347.5 534.7,348.9 531.4,350.3 527.9,352.0 524.4,353.2 521.6,354.3"/>
    <polyline points="458.9,361.1 453.7,362.2 451.7,362.5 450.1,362.9 449.0,363.2 447.8,363.5"/>
    <polyline points="372.7,388.2 371.2,389.2 370.1,389.6 364.4,391.4 358.5,393.2 357.1,393.5 355.4,393.9 351.3,394.3 345.5,394.7 343.7,394.9 341.9,395.1 340.1,395.5 338.6,395.9 337.0,396.4 335.2,397.2 331.8,398.5 330.6,398.8 329.3,399.1 328.0,399.3 326.5,399.5 325.0,399.6 323.4,399.6 315.7,399.4"/>
    <polyline points="697.0,230.4 701.2,230.6 705.1,231.0 706.5,231.2 707.9,231.6"/>
    <polyline points="714.9,244.0 716.0,242.9 717.6,241.9 718.1,241.6 718.5,241.3 719.3,240.2 720.0,239.6 724.0,236.5 725.7,235.2 727.3,234.3 729.3,233.4 731.5,232.3 732.4,231.8 733.4,231.3 734.1,230.8 734.6,230.4 735.0,229.8 737.2,227.4 738.9,225.5 739.5,224.8 739.8,224.5 740.0,224.2 741.1,222.9 743.2,218.9 743.2,218.8 744.3,217.0"/>
    <polyline points="460.5,360.7 463.4,360.1 465.2,359.8 469.3,359.0 472.6,358.4 474.0,358.2 475.4,358.1 477.4,358.0 479.5,358.0 481.5,358.2 483.5,358.6 490.2,359.8 496.4,360.6 497.8,360.7 499.0,360.7 500.4,360.7 501.7,360.7 503.0,360.5 504.1,360.4 505.4,360.1 506.6,359.8 508.4,359.2"/>
    <polyline points="508.4,359.2 510.0,358.6"/>
    <polyline points="460.6,360.8 458.9,361.1"/>
    <polyline points="566.9,346.6 562.1,346.8"/>
    <polyline points="382.1,383.2 381.2,383.4"/>
    <polyline points="242.8,382.0 239.7,381.4 237.4,380.9 234.8,379.9 232.9,379.1 231.0,378.1 228.1,376.4 225.9,375.4 224.1,374.8 223.4,374.6 222.0,374.4 219.2,374.0 215.6,373.3 212.9,372.8 210.6,372.3 209.9,372.2 209.0,371.9 205.7,371.0 205.1,370.8 201.6,370.2 196.0,369.2 193.5,368.5"/>
    <polyline points="447.8,363.5 446.6,363.8"/>
    <polyline points="441.1,365.2 437.9,366.1 432.1,367.5 430.1,368.2 428.5,369.0 417.9,375.0 416.4,375.9 415.5,376.8 414.4,378.1 413.1,379.8 412.4,380.5 411.7,381.1 411.0,381.6 410.1,382.0 408.9,382.5 407.6,382.9 406.1,383.2 404.6,383.4 402.7,383.6 400.8,383.7 399.0,383.6 397.1,383.4 395.2,383.2 390.7,382.7 388.2,382.6 386.7,382.7 385.4,382.7 383.5,382.9 382.1,383.2"/>
    <polyline points="689.4,207.7 689.3,208.6 689.2,209.1"/>
    <polyline points="687.8,342.8 690.0,339.3 690.0,338.6 689.8,338.1 689.2,337.5 688.5,337.1 687.5,336.7 686.4,336.4 684.9,336.1 683.8,336.0 682.8,336.0 673.9,335.9 672.5,335.9 671.2,335.8 669.9,335.7 668.8,335.5 667.3,335.2 664.3,334.6 662.6,334.2 661.1,334.0 659.3,333.9 657.6,333.8 655.3,333.8 653.6,334.0 652.0,334.3 645.3,335.9"/>
    <polyline points="604.8,154.5 608.9,155.2 610.4,155.5 611.6,155.8 615.1,156.7 616.1,157.0 617.3,157.3 619.7,157.6 620.6,157.7"/>
    <polyline points="615.9,157.1 617.3,157.3 619.7,157.6"/>
    <polyline points="626.0,158.7 623.2,158.3"/>
    <polyline points="620.6,157.7 623.4,158.1"/>
    <polyline points="626.2,158.5 627.6,158.7 629.2,159.1 630.4,159.4 632.0,159.9 633.3,160.5 634.0,160.9 634.6,161.3 635.3,161.9 636.1,162.7 640.6,166.7 642.6,168.5 644.9,170.5 649.1,174.3 650.4,175.5 652.1,177.0 652.8,177.8 653.3,178.4 653.9,179.3 654.2,180.2 655.0,182.8"/>
    <polyline points="620.4,157.9 618.5,157.7 617.3,157.5 616.6,157.3 615.9,157.1 615.5,157.0 612.8,156.2 611.1,155.8 610.0,155.5 607.6,155.0 604.7,154.6"/>
    <polyline points="682.0,228.0 683.9,228.7"/>
    <polyline points="685.4,229.2 686.2,229.4 686.9,229.5 687.5,229.7 688.1,229.8"/>
    <polyline points="381.1,383.3 382.0,383.1"/>
    <polyline points="257.8,386.2 253.7,384.8 249.9,383.5 247.2,382.7 245.2,382.3 242.8,382.0"/>
    <polyline points="242.8,382.0 246.4,382.4 248.9,382.9 250.5,383.4 253.6,384.4 258.1,386.0"/>
    <polyline points="446.4,363.6 447.6,363.3"/>
    <polyline points="382.0,383.1 383.5,382.9 385.3,382.6 386.7,382.6 388.2,382.6 390.8,382.7 395.3,383.1 397.2,383.4 399.1,383.5 400.8,383.6 402.6,383.5 404.5,383.4 406.0,383.1 407.5,382.8 408.8,382.4 409.9,381.9 410.8,381.5 411.5,381.0 412.2,380.4 412.9,379.8 414.2,378.1 415.3,376.7 416.2,375.9 417.7,374.9 428.3,368.9 429.9,368.2 432.0,367.4 437.6,365.9 440.8,365.1"/>
    <polyline points="315.7,399.2 319.5,399.3 323.4,399.5 325.0,399.5 326.4,399.4 328.0,399.2 329.2,399.0 330.5,398.7 331.6,398.4 335.0,397.1 336.9,396.3 338.5,395.8 340.0,395.4 341.8,395.0 343.6,394.8 345.4,394.6 351.2,394.2 355.3,393.8 357.0,393.5 358.3,393.1 364.3,391.3 369.9,389.6 371.0,389.1 371.9,388.7 372.6,388.2 374.1,387.0 375.5,385.9"/>
    <polyline points="508.6,359.3 506.7,359.9 505.5,360.2 504.2,360.4 503.0,360.6 501.7,360.7 500.4,360.8 499.0,360.8 497.8,360.8 496.4,360.7 480.6,359.6 478.4,359.4 475.7,359.2 474.0,359.1 472.5,359.1"/>
    <polyline points="472.5,359.1 470.1,359.2"/>
    <polyline points="458.8,361.0 460.5,360.7"/>
    <polyline points="510.1,358.7 508.6,359.3"/>
    <polyline points="521.2,354.1 524.0,353.0 527.1,351.9 529.3,351.1 531.3,350.3 534.5,348.8 537.6,347.4 539.4,346.7 540.8,346.3 542.9,345.9 545.2,345.6 547.3,345.6 548.5,345.6 550.9,345.8 552.2,346.0 556.3,346.5 558.1,346.7 559.5,346.7 560.5,346.8 562.0,346.7"/>
    <polyline points="447.6,363.3 448.9,363.0 450.0,362.8 451.6,362.5 453.6,362.1 458.8,361.0"/>
    <polyline points="470.1,359.2 469.6,359.2 468.6,359.3 467.3,359.5 466.1,359.7 463.6,360.2 461.7,360.6 460.6,360.8"/>
    <polyline points="562.0,346.7 566.9,346.5"/>
    <polyline points="582.6,344.6 585.1,344.2 588.5,343.6 590.9,343.2 592.8,343.1 595.3,343.0 597.0,343.0 598.7,343.1 606.7,343.7 615.1,344.3 617.9,344.4 620.1,344.3 622.5,344.1 624.9,343.6 626.3,343.2 628.3,342.4 636.1,338.5 637.0,338.0 638.2,337.5 639.5,337.1 643.0,336.2 645.0,335.7"/>
    <polyline points="645.0,335.7 651.7,334.1 653.5,333.9 655.2,333.8 657.6,333.7 659.4,333.8 661.1,333.9 662.6,334.1 664.4,334.5 667.3,335.2 668.9,335.5 670.0,335.6 671.2,335.7 672.6,335.8 673.9,335.8 682.8,335.9 683.8,335.9 684.9,336.0 686.5,336.3 687.7,336.5 688.9,337.0 689.8,337.5 690.3,338.0 690.6,338.6 690.7,339.4 689.7,341.1 688.8,342.7"/>
    <polyline points="715.9,251.8 717.9,253.5 719.1,254.3 720.9,255.4 722.0,256.0 723.2,256.6 724.8,257.3 726.5,258.0 728.0,258.6 729.7,259.2 733.1,260.2 736.5,261.3"/>
    <polyline points="722.7,256.7 724.6,257.6 726.0,258.1 727.7,258.8 729.7,259.3 736.5,261.3 740.8,262.7 744.4,263.9 750.3,266.1 755.1,268.0 758.9,269.5 762.8,271.0 769.5,273.0"/>
    <polyline points="769.4,273.1 762.7,271.0 758.7,269.6 754.9,268.1 750.2,266.2 744.2,264.0 740.7,262.8 736.4,261.4 729.4,259.4 727.6,258.8 725.9,258.2 724.5,257.6 722.6,256.7"/>
    <polyline points="714.9,250.9 715.4,251.3"/>
    <polyline points="715.2,251.4 714.7,250.9"/>
    <polyline points="716.5,242.0 718.1,240.7 718.3,240.6 719.4,239.7 722.4,237.4 723.6,236.5 725.1,235.4 725.6,235.0 726.8,234.4 727.0,234.3 728.1,233.8 731.1,232.4 732.4,231.8"/>
    <polyline points="723.2,236.6 724.9,235.4 725.8,234.7 727.1,234.1 727.6,233.8 728.0,233.7 728.8,233.3 729.5,233.0 729.9,232.8 730.6,232.4 731.6,231.9 733.4,230.9 734.0,230.5 735.2,229.3 736.3,228.1 737.2,227.2 737.6,226.8 737.7,226.7 738.0,226.4 738.4,225.8 738.8,225.3 739.2,224.8 739.5,224.3 739.8,223.9 740.0,223.5 740.4,222.9 740.9,221.9 741.4,221.1 741.8,220.2 742.2,219.6 742.8,218.5"/>
    <polyline points="730.0,232.3 730.8,231.7 731.4,231.0"/>
    <polyline points="728.8,233.3 729.6,232.8 730.0,232.3 730.5,231.7 731.1,231.0"/>
    <polyline points="729.9,232.8 733.0,231.3 733.9,230.8 734.4,230.4 735.0,229.8"/>
    <polyline points="714.7,250.9 713.4,249.8 712.7,248.8 712.4,248.0 712.4,247.3 712.6,246.8 712.8,246.2 713.3,245.5 714.7,243.9 716.3,242.0 717.2,240.9 717.5,240.2 717.6,239.8 717.7,239.3 717.7,239.2 717.7,238.5 717.6,238.1 717.3,237.5 716.8,236.9 716.4,236.4 715.7,235.7 714.6,234.9 713.0,234.0 711.0,232.9 709.5,232.2 707.8,231.6"/>
    <polyline points="685.3,229.3 683.7,228.8"/>
    <polyline points="681.9,228.0 680.9,227.5 679.9,226.9 679.1,226.2 678.5,225.6"/>
    <polyline points="697.0,230.5 693.6,230.4 690.9,230.2 688.1,229.8"/>
    <polyline points="678.7,225.6 679.3,226.2 680.1,226.9 680.9,227.4 682.0,228.0"/>
    <polyline points="688.1,229.8 687.4,229.7 686.8,229.6 686.1,229.5 685.3,229.3"/>
    <polyline points="707.8,231.6 706.4,231.3 705.1,231.1 701.2,230.7 697.0,230.5"/>
    <polyline points="678.7,219.9 678.0,221.1 677.8,221.9 677.7,222.4 677.7,223.0 677.8,223.9 678.1,224.7 678.7,225.6"/>
    <polyline points="678.5,225.6 677.9,224.7 677.6,223.9 677.5,223.0 677.5,222.4 677.7,221.8 677.8,221.1 678.2,220.4 678.6,219.8"/>
    <polyline points="688.3,210.5 688.8,209.6 688.9,209.1"/>
    <polyline points="678.6,219.8 679.0,219.1 679.9,218.1 685.5,213.7 686.7,212.6 687.5,211.8 688.3,210.5"/>
    <polyline points="689.1,207.7 689.0,206.9 688.9,206.2 688.7,205.5 688.2,204.6 687.1,203.0 685.4,201.5 683.5,200.1 681.9,199.2 680.3,198.4"/>
    <polyline points="654.5,182.3 654.0,180.3 653.7,179.3 653.1,178.4 652.6,177.8 651.8,177.0 650.2,175.6 648.9,174.4 645.3,171.0 642.8,169.0 640.7,167.0 637.1,163.7 635.0,161.9 634.4,161.4 633.8,160.9 633.2,160.6 631.8,160.0 630.2,159.5 629.0,159.2 627.6,158.9 626.0,158.7"/>
    <polyline points="258.1,386.0 264.0,388.0 265.5,388.6 266.7,389.2 269.6,391.1 272.4,392.8 273.9,393.4 275.8,393.9 278.5,394.4 281.1,394.8 284.9,395.3 292.1,396.5 298.6,397.6 304.0,398.6 305.4,398.8 308.0,399.0 315.7,399.2"/>
    <polyline points="315.7,399.4 308.0,399.1 305.4,398.9 303.9,398.7 298.5,397.7 292.0,396.6 284.8,395.4 281.0,394.9 278.4,394.5 275.7,394.0 273.8,393.5 272.2,392.9 269.4,391.2 266.5,389.3 265.2,388.7 257.8,386.2"/>
    <polyline points="375.5,385.9 376.1,385.4 377.4,384.6 378.4,384.2 379.7,383.7 381.1,383.3"/>
    <polyline points="381.2,383.4 379.9,383.8 378.6,384.2 377.6,384.7 376.4,385.4 375.7,385.9 374.3,387.0 372.7,388.2"/>
    <polyline points="722.6,256.7 721.8,256.3 719.9,255.3 718.5,254.4 717.4,253.6 715.7,251.8 715.2,251.4"/>
    <polyline points="715.4,251.3 715.9,251.8 717.5,253.5 718.7,254.4 720.1,255.3 721.7,256.2 722.7,256.7"/>
    <polyline points="683.9,228.7 685.4,229.2"/>
    <polyline points="683.7,228.8 681.9,228.0"/>
    <polyline points="689.2,209.1 689.0,209.6 688.6,210.5"/>
    <polyline points="688.9,209.1 689.0,208.7 689.1,207.7"/>
    <polyline points="680.3,198.4 678.7,197.6 677.4,196.9 676.2,196.1 674.0,194.6 672.5,193.6 671.4,192.9 669.9,192.1 668.2,191.4 659.4,188.6 657.7,187.8 656.8,187.2 656.6,187.1 655.8,186.3 655.4,185.4 654.5,182.3"/>
    <polyline points="655.0,182.8 655.6,185.3 656.1,186.2 656.9,187.0 657.9,187.7 659.5,188.5 662.4,189.4 668.3,191.3 670.1,192.1 671.6,192.9 672.8,193.5 674.2,194.5 676.5,196.1 677.6,196.8 678.9,197.5 680.5,198.3"/>
    <polyline points="623.2,158.3 620.4,157.9"/>
    <polyline points="623.4,158.1 626.2,158.5"/>
    <polyline points="733.2,349.0 735.8,348.6 739.0,348.2 739.3,348.2 739.9,348.2 742.0,348.0 744.8,347.8 747.9,347.7 751.4,347.6 755.3,347.6 758.8,347.8 764.4,348.1 766.3,348.2 767.9,348.1 768.9,347.9 770.1,347.7 772.7,347.0 774.8,346.4 778.2,345.4"/>
    <polyline points="778.3,345.7 770.3,347.8 769.1,348.0 767.9,348.2 766.3,348.3 764.3,348.3 758.7,347.9 755.3,347.7 751.4,347.7 747.9,347.8 744.8,348.0 742.1,348.2 739.9,348.3 735.9,348.8 733.2,349.2"/>
    <polyline points="688.0,343.9 685.7,347.4 685.1,348.6 685.1,349.1 685.5,349.6 686.3,350.4 687.8,351.2 688.8,351.5 689.7,351.7 690.5,351.8 691.7,351.9 693.1,351.9 694.2,351.8 698.4,351.1 701.2,350.8 704.5,350.6 717.7,349.8 720.1,349.7 722.6,349.6 725.1,349.8 727.0,349.8 728.5,349.7 730.0,349.5 733.2,349.0"/>
    <polyline points="733.2,349.2 732.3,349.4 730.2,349.7 728.5,349.9 727.0,350.0 725.1,349.9 722.6,349.8 720.1,349.8 717.7,349.9 704.6,350.7 701.2,350.9 698.5,351.2 694.3,351.9 693.1,352.0 691.6,352.1 690.4,352.0 689.6,351.8 688.6,351.6 687.6,351.3 686.0,350.4 685.1,349.8 684.5,349.2 684.4,348.6 684.5,348.0 685.7,345.9 687.1,343.8"/>
    <polyline points="688.8,342.7 688.0,343.9"/>
    <polyline points="687.1,343.8 687.8,342.8"/>
    <polyline points="521.6,354.3 519.2,355.2 517.5,355.8 510.1,358.7"/>
    <polyline points="510.0,358.6 513.6,357.2 516.5,355.9 521.2,354.1"/>
    <polyline points="566.9,346.5 571.1,346.2 573.1,346.1 575.2,345.9 576.9,345.7 578.8,345.3 582.6,344.6"/>
    <polyline points="582.9,344.8 579.7,345.4 579.0,345.5 577.0,345.8 575.2,346.1 571.1,346.3 566.9,346.6"/>
    <polyline points="440.8,365.1 444.3,364.2 446.4,363.6"/>
    <polyline points="446.6,363.8 444.6,364.3 441.1,365.2"/>
    <polyline points="202.5,370.1 195.9,369.1 194.8,368.8 193.7,368.5"/>
    <polyline points="209.9,371.7 208.6,371.4 206.3,370.7 203.7,369.9 202.7,369.7 196.5,368.6 195.8,368.6 194.6,368.5 193.8,368.4"/>
    <polyline points="233.2,378.9 232.2,378.3 230.9,377.4 229.5,376.4 228.6,375.9 227.6,375.5 226.6,375.1 224.8,374.6 222.1,373.9 217.1,373.0 216.1,372.8 215.9,372.8 212.9,372.2 210.3,371.8 209.9,371.7 207.9,371.4 205.7,371.0 203.7,370.5 202.3,370.2 196.0,369.2"/>
    <polyline points="231.0,378.1 230.2,377.5 229.6,376.9 229.3,376.7 228.9,376.3 228.3,375.9 227.6,375.5"/>
    <polyline points="229.3,376.7 228.0,376.0 227.2,375.6 225.8,375.1 224.7,374.7 223.2,374.4 220.8,373.9 213.0,372.4 211.7,372.2 209.8,372.0 209.0,371.9 207.8,371.7 207.4,371.6"/>
    <polyline points="215.9,372.8 213.3,372.4 211.7,372.2"/>
    <polyline points="223.4,374.6 222.1,374.4 219.6,373.9 212.7,372.6 211.7,372.5 210.6,372.3"/>
  </g>

  <!-- 지하철 역 -->
  <g>
    <circle cx="327.3" cy="424.9" r="3" fill="#dc2626" stroke="#fff" stroke-width="1"/>
    <circle cx="374.3" cy="386.8" r="3" fill="#dc2626" stroke="#fff" stroke-width="1"/>
    <circle cx="444.6" cy="389.6" r="3" fill="#dc2626" stroke="#fff" stroke-width="1"/>
    <circle cx="257.7" cy="386.0" r="3" fill="#dc2626" stroke="#fff" stroke-width="1"/>
    <circle cx="315.5" cy="399.3" r="3" fill="#dc2626" stroke="#fff" stroke-width="1"/>
    <circle cx="622.7" cy="158.1" r="3" fill="#dc2626" stroke="#fff" stroke-width="1"/>
    <circle cx="654.8" cy="182.7" r="3" fill="#dc2626" stroke="#fff" stroke-width="1"/>
    <circle cx="689.2" cy="209.0" r="3" fill="#dc2626" stroke="#fff" stroke-width="1"/>
    <circle cx="683.4" cy="228.8" r="3" fill="#dc2626" stroke="#fff" stroke-width="1"/>
    <circle cx="722.2" cy="256.7" r="3" fill="#dc2626" stroke="#fff" stroke-width="1"/>
    <circle cx="645.0" cy="335.9" r="3" fill="#dc2626" stroke="#fff" stroke-width="1"/>
    <circle cx="733.9" cy="349.0" r="3" fill="#dc2626" stroke="#fff" stroke-width="1"/>
    <circle cx="583.1" cy="344.7" r="3" fill="#dc2626" stroke="#fff" stroke-width="1"/>
    <circle cx="521.2" cy="354.2" r="3" fill="#dc2626" stroke="#fff" stroke-width="1"/>
    <circle cx="717.8" cy="239.2" r="3" fill="#dc2626" stroke="#fff" stroke-width="1"/>
    <circle cx="687.5" cy="343.9" r="3" fill="#dc2626" stroke="#fff" stroke-width="1"/>
    <circle cx="420.5" cy="360.6" r="3" fill="#dc2626" stroke="#fff" stroke-width="1"/>
    <circle cx="389.4" cy="421.9" r="3" fill="#dc2626" stroke="#fff" stroke-width="1"/>
    <circle cx="298.9" cy="452.7" r="3" fill="#dc2626" stroke="#fff" stroke-width="1"/>
    <circle cx="480.6" cy="359.6" r="3" fill="#dc2626" stroke="#fff" stroke-width="1"/>
    <circle cx="458.9" cy="372.1" r="3" fill="#dc2626" stroke="#fff" stroke-width="1"/>
    <circle cx="447.7" cy="414.5" r="3" fill="#dc2626" stroke="#fff" stroke-width="1"/>
    <circle cx="203.3" cy="370.4" r="3" fill="#dc2626" stroke="#fff" stroke-width="1"/>
  </g>
</svg>