<?xml version="1.0" encoding="UTF-8"?>
<svg width="800" height="600" xmlns="http://www.w3.org/2000/svg">
  <title>Bilbao Subway Map</title>
  <rect width="100%" height="100%" fill="#f8f9fa"/>

  <!-- 지하철 선로 -->
  <g stroke="#2563eb" stroke-width="2" fill="none" opacity="0.8">
    <polyline points="851.3,489.9 845.1,486.2 838.1,481.6 835.7,479.8 832.2,477.1 827.2,473.3 821.4,468.7 814.1,462.3 809.9,458.5 806.0,454.9 804.6,453.4 789.8,439.0 779.9,429.3 776.3,426.0 771.4,421.8 761.3,413.2 759.0,411.1 756.6,408.7 754.7,406.5 753.6,405.2 752.6,403.8 751.1,401.3 750.2,399.7 748.8,397.2 744.1,388.3 733.2,367.7 731.5,364.6 730.0,362.2 727.5,358.6 725.2,355.4 722.0,351.7 719.1,348.6 715.6,345.1 711.7,341.7 707.6,338.4 702.9,335.0 696.9,331.1 688.6,326.5 681.3,323.1 677.5,321.4 673.8,320.0"/>
    <polyline points="553.5,298.0 550.0,296.6 539.3,292.1 524.0,285.6 520.6,284.4 517.1,283.2 513.1,282.2 510.0,281.4 507.2,280.9 496.3,278.8 468.9,273.4 461.8,272.1 399.1,259.8 386.1,257.3 384.1,256.9 382.3,256.7 378.8,256.2 376.5,256.0 376.4,256.0 373.5,255.9 370.2,255.9 367.0,256.0 362.5,256.5 359.6,257.0 355.5,258.0 352.7,258.8 348.8,260.2 341.5,263.1 301.3,279.8 298.4,280.9 296.8,281.5 295.2,282.0 292.2,282.9 289.6,283.4 287.6,283.9 285.5,284.2 282.0,284.6 278.8,284.8 277.4,284.8 275.9,284.8 273.9,284.8 271.9,284.7 270.2,284.5 268.3,284.4 266.6,284.1 264.6,283.8 262.5,283.4 260.3,283.0 254.5,281.9 249.6,280.9 227.3,276.6 220.3,275.2 147.9,261.0 133.1,258.1 129.0,257.2 126.3,256.6 124.0,255.9 121.9,255.2 120.0,254.6 118.3,253.9 116.5,253.0 115.0,252.3 113.1,251.3 111.4,250.4 109.1,248.9 107.7,247.9 106.5,247.0 104.2,245.1 102.4,243.3 101.2,241.8 100.0,240.4 98.4,238.1 97.3,236.0 96.4,234.0 96.0,232.9 95.5,230.9 95.2,229.3 95.0,227.7 94.9,226.7 94.9,225.0 95.0,223.4 95.3,221.6 95.8,219.6 96.3,218.0 97.0,216.3 97.7,214.8 98.3,213.6 112.4,187.8 113.6,185.3 114.4,183.8 115.0,182.1 115.5,180.7 115.9,179.1 116.2,177.8 116.4,176.3 116.5,174.3 116.4,172.6 116.3,171.0 116.1,169.2 115.8,166.3 113.4,149.5 112.6,143.5 111.8,138.1 110.6,129.3 110.2,127.0 109.8,123.6 108.3,113.1 108.1,111.8 107.6,108.5 107.0,106.1 106.0,103.4 105.0,101.1 103.6,98.8 102.0,96.6 100.8,95.1 99.8,94.0 98.1,92.3 96.9,91.2 95.2,89.8 93.4,88.5 90.9,86.9 88.9,85.7 86.6,84.5 84.2,83.4 81.8,82.4 81.3,82.2 79.3,81.5 76.1,80.4 72.9,79.6 69.9,79.0 67.1,78.5 64.7,78.1 61.8,77.8 59.1,77.6 55.4,77.5 52.2,77.5 49.9,77.6 47.6,77.7 43.9,78.1 40.5,78.6 37.9,79.1 35.1,79.7 25.4,82.1 19.8,83.4 16.3,84.1 13.3,84.7 9.8,85.1 5.8,85.5 1.1,85.7 -3.0,85.6 -5.8,85.4 -10.0,85.0 -13.5,84.5 -17.4,83.7 -20.5,82.9 -24.0,81.8 -26.6,80.9 -28.8,80.0 -32.0,78.5 -33.3,77.9 -34.7,77.1 -37.1,75.7 -39.6,74.0 -48.3,67.8 -53.0,64.4 -60.3,59.2 -63.3,56.8 -64.9,55.3 -66.7,53.3 -68.2,51.4 -70.4,48.1 -71.4,46.6 -74.4,41.8 -76.1,39.0 -80.4,32.1 -88.9,18.7 -89.9,17.0 -91.2,15.0 -94.9,9.1 -97.4,5.0 -98.1,4.0 -99.7,1.4 -106.5,-7.8 -107.9,-9.8 -109.4,-12.2 -117.1,-24.4 -124.0,-35.5"/>
    <polyline points="599.2,302.9 597.8,302.7 596.3,302.5 594.0,302.3 590.9,302.0 587.4,301.9 575.3,301.6 572.1,301.5 569.9,301.4 567.7,301.2 565.4,300.9 561.7,300.3 558.5,299.5 555.9,298.8 553.5,298.0"/>
    <polyline points="636.7,309.9 632.8,309.2 626.0,307.9 614.1,305.7 602.4,303.5 599.2,302.9"/>
    <polyline points="220.4,274.7 223.9,275.7 227.3,276.6"/>
    <polyline points="220.3,275.2 223.9,275.7 227.4,276.1"/>
    <polyline points="462.2,271.7 465.4,272.5 468.9,273.4"/>
    <polyline points="461.8,272.1 465.4,272.5 468.8,272.9"/>
    <polyline points="553.9,297.6 551.7,296.7 549.4,295.8 546.7,294.7 535.6,289.9 526.2,285.9 524.3,285.2 522.3,284.4 518.8,283.2 516.4,282.5 514.4,282.0 510.2,281.0 507.3,280.4 496.6,278.4 468.8,272.9 462.2,271.7 399.6,259.4 392.9,258.2 385.8,256.8 383.0,256.3 380.6,255.9 379.1,255.7 377.5,255.6 375.5,255.4 373.9,255.4 372.4,255.3 371.0,255.4 369.7,255.4 367.8,255.5 366.3,255.6 365.1,255.7 363.7,255.9 362.4,256.0 360.9,256.3 359.3,256.6 357.7,256.9 356.0,257.3 354.7,257.7 353.1,258.1 351.5,258.6 350.2,259.1 349.0,259.6 347.0,260.3 346.0,260.8 344.3,261.5 303.2,278.4 298.9,280.2 297.4,280.7 295.6,281.3 293.6,281.9 291.7,282.4 289.5,282.9 287.5,283.3 285.2,283.7 282.3,284.0 280.2,284.2 278.4,284.3 276.1,284.3 274.2,284.3 272.3,284.2 270.7,284.1 269.0,283.9 266.9,283.7 265.3,283.4 263.8,283.2 260.6,282.6 249.9,280.5 248.8,280.3 227.4,276.1 220.4,274.7 148.0,260.6 134.9,258.0 132.9,257.6 130.5,257.1 128.5,256.6 126.9,256.2 125.2,255.7 123.4,255.2 121.4,254.5 119.6,253.8 117.7,253.0 115.6,252.0 113.7,251.1 111.8,249.9 110.2,248.9 108.7,247.9 107.6,247.1 105.9,245.7 104.8,244.7 103.7,243.6 102.5,242.4 101.6,241.3 100.6,240.2 99.9,239.0 99.1,237.9 98.5,236.8 97.6,235.0 96.8,232.8 96.3,230.8 96.0,229.3 95.8,227.7 95.7,226.7 95.7,225.0 95.8,223.4 96.1,221.8 96.6,219.6 97.2,218.0 97.8,216.5 98.5,215.0 99.2,213.8 113.2,187.9 114.3,185.8 115.2,184.0 115.8,182.3 116.3,180.8 116.7,179.6 117.0,177.9 117.2,176.4 117.2,175.6 117.3,174.2 117.2,172.8 117.1,171.9 117.1,170.9 116.7,168.2 115.7,161.3 113.2,143.0 110.2,122.2 108.6,110.8 108.3,108.7 107.9,106.8 107.4,105.0 106.6,102.8 106.0,101.5 104.7,99.2 103.6,97.5 102.2,95.7 101.0,94.2 99.3,92.5 97.4,90.8 95.3,89.1 93.4,87.8 91.3,86.4 89.5,85.4 87.9,84.5 86.6,83.9 84.9,83.1 83.1,82.3 80.7,81.4 78.4,80.6 76.8,80.1 75.1,79.6 73.4,79.2 71.7,78.8 70.2,78.5 68.3,78.1 66.2,77.8 63.9,77.5 61.8,77.3 59.9,77.1 58.3,77.0 55.2,77.0 53.2,77.0 51.9,77.0 49.8,77.1 47.5,77.2 43.5,77.7 40.1,78.2 37.4,78.7 34.3,79.4 25.3,81.6 19.8,82.9 16.0,83.7 12.5,84.3 9.2,84.7 6.6,84.9 3.7,85.1 1.2,85.1 -1.8,85.1 -4.7,85.0 -7.9,84.7 -11.3,84.3 -13.8,83.8 -17.3,83.1 -20.0,82.5 -22.7,81.7 -25.5,80.7 -28.9,79.3 -31.5,78.2 -33.9,76.9 -35.5,76.0 -37.0,75.0 -38.7,74.0 -40.4,72.8 -47.7,67.6 -57.4,60.6 -60.4,58.4 -62.1,57.0 -63.6,55.6 -65.3,53.9 -67.0,51.9 -68.8,49.6 -70.4,47.0 -74.7,40.1 -89.2,16.9 -91.7,12.9 -92.4,11.8 -93.9,9.5 -94.2,8.9 -96.8,4.8 -99.0,1.3"/>
    <polyline points="626.5,307.5 629.5,308.3 632.8,309.2"/>
    <polyline points="626.0,307.9 629.5,308.3 632.8,308.7"/>
    <polyline points="673.8,320.0 668.4,317.9 661.7,315.8 655.9,314.1 649.5,312.5 643.2,311.1 636.7,309.9"/>
    <polyline points="675.0,319.8 678.1,321.1 681.7,322.6 686.0,324.6 689.6,326.4 692.7,328.1 696.3,330.1 699.3,331.9 704.2,335.2 706.9,337.2 709.8,339.3 712.1,341.2 715.2,343.9 718.0,346.5 720.3,348.8 724.2,353.2 725.9,355.2 728.2,358.3 730.0,360.9 730.8,362.1 732.3,364.6 733.9,367.5 744.8,388.1 749.5,397.0 750.8,399.5 751.7,401.0 752.9,402.9 754.1,404.6 755.7,406.6 757.3,408.5 758.7,409.9 759.6,410.8 761.7,412.5 769.6,419.4 776.5,425.3 780.0,428.5 790.5,438.7 795.8,443.9 798.8,446.9 807.4,455.3 811.3,458.9 815.4,462.6 820.8,467.3 824.4,470.2 828.7,473.7 833.3,477.2 838.8,481.1 843.4,484.3 845.6,485.8 848.9,487.8 852.2,489.8"/>
    <polyline points="553.9,297.6 556.1,298.3 558.4,299.0 560.8,299.5 562.7,299.9 564.9,300.3 567.0,300.6 569.4,300.8 571.8,301.0 575.0,301.2 580.6,301.3 586.5,301.4 587.5,301.4 591.1,301.6 593.5,301.7 595.3,301.9 597.0,302.1 599.2,302.4"/>
    <polyline points="639.5,309.9 642.5,310.5 645.1,311.0 647.7,311.6 650.7,312.3 653.1,312.9 656.2,313.7 659.9,314.7 662.8,315.6 666.0,316.6 668.3,317.4 671.7,318.5 675.0,319.8"/>
    <polyline points="599.2,302.4 601.8,302.9 614.4,305.2 626.5,307.5 632.8,308.7 639.5,309.9"/>
  </g>

  <!-- 지하철 역 -->
  <g>
    <circle cx="532.0" cy="158.9" r="3" fill="#dc2626" stroke="#fff" stroke-width="1"/>
    <circle cx="399.4" cy="259.7" r="3" fill="#dc2626" stroke="#fff" stroke-width="1"/>
    <circle cx="595.6" cy="297.3" r="3" fill="#dc2626" stroke="#fff" stroke-width="1"/>
    <circle cx="497.4" cy="278.7" r="3" fill="#dc2626" stroke="#fff" stroke-width="1"/>
    <circle cx="615.1" cy="305.6" r="3" fill="#dc2626" stroke="#fff" stroke-width="1"/>
    <circle cx="745.0" cy="389.1" r="3" fill="#dc2626" stroke="#fff" stroke-width="1"/>
    <circle cx="244.9" cy="279.8" r="3" fill="#dc2626" stroke="#fff" stroke-width="1"/>
    <circle cx="144.6" cy="260.1" r="3" fill="#dc2626" stroke="#fff" stroke-width="1"/>
    <circle cx="109.5" cy="119.6" r="3" fill="#dc2626" stroke="#fff" stroke-width="1"/>
    <circle cx="737.3" cy="241.8" r="3" fill="#dc2626" stroke="#fff" stroke-width="1"/>
    <circle cx="628.4" cy="193.1" r="3" fill="#dc2626" stroke="#fff" stroke-width="1"/>
  </g>
</svg>