<?xml version="1.0" encoding="UTF-8"?>
<svg width="800" height="600" viewBox="0 0 800 600" 
     xmlns="http://www.w3.org/2000/svg">
  <title>Boston Subway Map</title>
  <rect width="100%" height="100%" fill="#f8f9fa"/>

  <!-- 지하철 선로 -->
  <g id="subway-lines" stroke="#2563eb" stroke-width="3" fill="none">
    <polyline points="264.2,320.9 264.4,319.3 264.5,318.3 264.6,317.7 264.8,316.6 264.9,315.3 265.2,313.5 265.3,312.4 265.5,311.2 265.7,309.5 266.0,307.3 266.1,306.6 266.2,306.0 266.5,305.2 266.7,304.5 266.9,303.6 267.1,302.7 267.5,301.0 267.9,299.2 268.2,298.0 268.5,296.8 268.7,295.7 268.9,295.0 269.0,294.3 269.1,293.5 269.3,292.4 269.4,291.5 269.4,290.5 269.5,289.5 269.5,289.0 269.5,288.6 269.4,287.1 269.4,285.8 269.4,284.2 269.3,282.5 269.3,281.0 269.3,278.7 269.2,276.3 269.1,274.8 269.0,273.9 269.0,273.5 268.9,272.7 268.9,272.5 268.8,270.8 268.8,270.4 268.6,268.9 268.5,268.4 268.4,267.7 268.2,266.9 268.1,266.5" opacity="0.8"/>
    <polyline points="187.2,282.6 187.3,282.3 187.4,281.9 187.5,281.5 187.6,281.1 187.7,280.8 187.8,280.4 187.9,280.2 188.0,279.9 188.3,279.2 188.4,278.9 188.5,278.5 188.6,278.3 188.7,278.0 188.8,277.8 188.9,277.5 189.0,277.3 189.1,277.1" opacity="0.8"/>
    <polyline points="358.1,62.0 359.4,58.2 359.9,56.8 360.3,55.7 361.5,52.3 362.2,50.1 362.7,48.8 363.0,47.8" opacity="0.8"/>
    <polyline points="262.4,256.9 262.8,257.4 263.0,257.7 263.1,257.9 263.3,258.2 263.6,258.5 264.1,259.2" opacity="0.8"/>
    <polyline points="236.7,193.1 239.8,193.1 241.0,193.0 241.7,193.0 242.2,193.1 242.5,193.1 242.8,193.1" opacity="0.8"/>
    <polyline points="204.6,234.9 208.6,228.5 208.8,228.1 209.0,227.8" opacity="0.8"/>
    <polyline points="268.1,266.5 267.9,265.8 267.7,265.4 267.6,265.0 267.4,264.6 267.3,264.2 267.1,263.8 267.0,263.5 266.8,263.1 266.7,262.8 266.5,262.5 266.4,262.3 266.2,262.0 266.0,261.7 265.8,261.4 264.6,259.7 264.4,259.5 264.1,259.2" opacity="0.8"/>
    <polyline points="186.2,286.5 186.8,284.1 186.9,283.8 187.1,283.1 187.2,282.6" opacity="0.8"/>
    <polyline points="181.5,304.2 181.8,303.4 182.3,302.1" opacity="0.8"/>
    <polyline points="178.9,311.4 179.3,310.2 179.6,309.6 179.8,308.9 180.3,307.6 180.5,307.2 180.7,306.6 181.5,304.2" opacity="0.8"/>
    <polyline points="310.1,104.3 311.2,102.7 311.6,102.0 312.0,101.4" opacity="0.8"/>
    <polyline points="209.0,227.8 209.2,227.5 209.3,227.2 210.0,226.1" opacity="0.8"/>
    <polyline points="312.0,101.4 312.3,100.9 312.7,100.6 313.1,100.2 313.5,99.9 313.9,99.5 314.6,99.1 315.7,98.4 316.4,97.8 317.0,97.4 317.4,97.2 317.9,97.0 318.3,96.8 318.7,96.7 319.1,96.6 319.6,96.6 322.2,96.7 322.6,96.7 323.2,96.6 323.7,96.5 324.2,96.4 324.6,96.2 325.1,95.9 325.6,95.5 326.1,95.0 326.5,94.5 327.0,94.0" opacity="0.8"/>
    <polyline points="340.6,79.3 341.3,78.9 343.1,77.7 344.9,76.7 345.2,76.4 345.7,76.2 346.2,75.9" opacity="0.8"/>
    <polyline points="300.2,119.7 300.5,119.5 300.8,119.2 301.1,118.8 301.4,118.4 301.7,118.0 302.8,116.1 303.3,115.3" opacity="0.8"/>
    <polyline points="193.4,267.5 193.5,267.2 193.6,266.9 193.7,266.5 193.8,266.2 194.0,265.7 194.1,265.2 194.2,264.9 194.3,264.6 194.7,263.3 194.8,262.7 194.9,262.3 195.0,262.1 195.3,261.0 195.4,260.6 195.4,260.4 195.5,260.3 195.5,260.1 195.6,259.8" opacity="0.8"/>
    <polyline points="222.3,150.6 226.6,151.2" opacity="0.8"/>
    <polyline points="177.3,316.2 178.9,311.4" opacity="0.8"/>
    <polyline points="185.3,290.5 185.8,288.2 185.9,287.6 186.0,287.4 186.0,287.2 186.1,286.9 186.1,286.7 186.2,286.5" opacity="0.8"/>
    <polyline points="262.4,256.9 261.2,255.1 261.1,255.0 261.0,254.9 261.0,254.8 260.9,254.6 260.8,254.4 260.7,254.3 260.6,254.1 260.5,253.9 260.5,253.7 260.4,253.5 260.4,253.3 260.3,253.0 260.3,252.8 260.3,252.5 260.3,252.3 260.3,252.0 260.3,251.8 260.3,251.5 260.3,251.3 260.3,251.0 260.4,250.8 260.4,250.6 260.5,250.3 260.6,250.1 261.0,248.9 261.1,248.6 261.1,248.2 261.2,247.8 261.3,247.5 261.3,247.3 261.5,245.2 261.7,243.6 261.7,243.2 261.7,242.9 261.8,242.4 261.8,241.9 261.6,218.3 261.6,215.7 261.5,214.2 261.5,212.4 261.6,210.8 261.6,209.0 261.5,207.2 261.5,206.7 261.6,206.0 261.6,205.3 261.7,204.7 261.9,204.2 262.0,203.8 268.3,186.3 268.4,185.9 268.6,185.3 268.6,184.7 268.6,184.2 268.6,183.7 268.6,183.2 268.4,182.7 268.2,182.1 268.1,181.8 267.8,181.3 267.6,181.0 267.3,180.7 267.0,180.4 264.3,178.0 263.7,177.5 263.2,177.2 261.7,176.4 261.0,175.9 260.9,175.8 260.7,175.7 260.3,175.3 259.7,174.6 259.0,173.7" opacity="0.8"/>
    <polyline points="184.7,293.3 185.1,291.4 185.2,291.1 185.3,290.8 185.3,290.5" opacity="0.8"/>
    <polyline points="182.3,302.1 182.4,301.6 182.6,301.0 182.8,300.4 183.0,299.7 183.2,299.0 183.5,298.3 183.7,297.6 183.8,297.0 184.0,296.4 184.1,295.8 184.3,295.2 184.7,293.3" opacity="0.8"/>
    <polyline points="264.4,321.6 264.5,321.1" opacity="0.8"/>
    <polyline points="264.5,321.1 265.9,310.7 266.3,308.7 266.6,306.6 266.9,305.3 267.1,304.0 267.7,301.6 268.2,299.0 268.7,296.9 269.2,294.8 269.5,293.4 269.6,292.6 269.7,291.8 269.8,290.9" opacity="0.8"/>
    <polyline points="264.1,321.4 264.2,320.9" opacity="0.8"/>
    <polyline points="263.7,326.8 263.6,326.0 263.7,325.1 263.7,324.4 263.8,323.6 263.9,322.6 264.1,321.4" opacity="0.8"/>
    <polyline points="247.3,341.7 247.4,341.5 247.4,341.3 247.5,341.1 247.6,340.8 247.7,340.6 247.7,340.4 247.8,340.2 247.9,340.0 248.0,339.8 248.1,339.6 248.2,339.3 248.3,339.1 248.4,338.9 248.5,338.7 248.7,338.5 248.8,338.3 248.9,338.1 249.0,337.9 249.1,337.8 249.2,337.6 249.3,337.4 249.5,337.3 249.6,337.1 249.8,336.9 249.9,336.8 250.1,336.6" opacity="0.8"/>
    <polyline points="269.8,290.9 269.8,290.4 269.8,290.0 269.8,289.7 269.8,288.8 269.8,288.0 269.7,286.1 269.7,285.2 269.6,284.3 269.6,283.2" opacity="0.8"/>
    <polyline points="288.8,372.8 288.3,372.0 287.8,371.2 286.8,369.5 284.8,366.1 284.2,365.2 283.8,364.4 283.3,363.7 282.4,362.1 278.8,356.1" opacity="0.8"/>
    <polyline points="351.1,585.3 351.6,578.8 351.6,578.5 351.6,578.1 351.6,577.8 351.6,577.5 351.7,577.1 351.7,576.8 351.7,576.5 351.6,576.1 351.6,575.8 351.6,575.4 351.6,575.1 351.6,574.8 351.5,574.4 351.5,574.1 351.4,573.2 351.3,572.9 351.0,571.0 351.0,570.7 350.9,570.3 350.8,570.0 350.8,569.7 350.7,569.4 350.6,569.1 350.5,568.8 350.4,568.5 350.4,568.3 350.3,568.0 350.2,567.7 350.1,567.5 350.0,567.2 349.9,566.9 348.6,563.8 348.4,563.4 348.3,563.0 348.2,562.6 348.0,562.3 347.0,559.2 346.8,558.6 346.6,558.1 342.9,547.6" opacity="0.8"/>
    <polyline points="278.6,355.8 276.9,353.1" opacity="0.8"/>
    <polyline points="278.8,356.1 278.6,355.8" opacity="0.8"/>
    <polyline points="253.9,153.0 254.3,153.2 255.0,153.6 255.8,154.1 256.0,154.2 256.1,154.3 256.2,154.4 256.3,154.6 256.3,154.7 256.4,154.9 256.8,156.3 257.0,156.8 257.1,157.2 257.4,158.1 257.6,158.4 257.7,158.6 258.0,158.9 258.2,159.0 258.4,159.1 259.3,159.6 260.7,160.2" opacity="0.8"/>
    <polyline points="242.3,154.5 242.4,154.6 242.4,154.7 242.5,154.8" opacity="0.8"/>
    <polyline points="229.6,52.4 229.6,44.3" opacity="0.8"/>
    <polyline points="230.9,100.1 230.8,99.7 230.7,99.3 230.6,98.9 230.5,98.5 230.4,98.1 230.3,97.4 230.3,96.9 230.2,96.4 230.2,96.0 230.2,95.7 230.1,95.3 230.1,94.8 230.1,94.0 230.1,93.0 230.1,91.8 230.1,89.7" opacity="0.8"/>
    <polyline points="230.1,89.7 230.1,86.3 230.1,84.6 230.1,79.8 230.1,78.8 230.1,77.7 230.1,76.6 230.1,75.6 230.1,74.7 230.1,73.9 230.1,73.0 230.1,72.2 230.0,71.1 230.0,70.2 230.0,68.9 230.0,67.7 230.0,67.0 229.9,66.0 229.9,65.3 229.9,64.6 229.8,63.9 229.8,62.6 229.7,62.2 229.7,60.8 229.6,59.2 229.5,58.0 229.5,57.2 229.5,56.9 229.5,56.5 229.5,56.0 229.6,54.4 229.6,53.9 229.6,53.5 229.6,53.0 229.6,52.4" opacity="0.8"/>
    <polyline points="258.9,206.5 259.1,205.8 259.9,203.6 260.0,203.4 260.1,203.2 260.2,203.0 260.4,202.7 260.6,202.5 260.7,202.4 260.7,202.2 260.8,202.0 260.8,201.8 260.8,201.6 260.8,201.4 260.7,201.2 260.6,201.0 260.5,200.9 260.3,200.8 260.2,200.7 260.1,200.7 259.9,200.7 259.8,200.8 259.6,200.9 259.5,201.1 259.4,201.2 259.3,201.4 259.3,201.7 259.2,201.9 258.8,203.0 258.3,204.4 258.0,205.4 257.7,206.2 257.5,206.8 257.4,207.3 257.3,208.1 257.2,208.5 257.2,209.8 257.2,210.5 257.2,211.2 257.2,213.9 257.2,214.3 257.3,218.4 257.3,218.9 257.4,219.5" opacity="0.8"/>
    <polyline points="257.2,213.9 257.3,213.5 257.3,212.9 257.3,212.5" opacity="0.8"/>
    <polyline points="257.4,210.2 257.5,209.8 257.6,209.2" opacity="0.8"/>
    <polyline points="257.5,225.1 257.5,225.9" opacity="0.8"/>
    <polyline points="257.5,210.3 257.5,209.8 257.5,209.2" opacity="0.8"/>
    <polyline points="257.7,225.5 257.7,224.7" opacity="0.8"/>
    <polyline points="257.7,227.9 257.7,227.5 257.7,227.2 257.7,225.5" opacity="0.8"/>
    <polyline points="257.5,209.0 257.6,208.7 257.6,208.4 257.8,207.8 257.8,207.7 257.9,207.5 260.2,200.9" opacity="0.8"/>
    <polyline points="257.6,223.4 257.4,222.4" opacity="0.8"/>
    <polyline points="258.2,214.6 258.2,212.7 258.1,212.4" opacity="0.8"/>
    <polyline points="258.1,219.8 257.9,219.4 257.8,219.3 257.8,219.1 257.8,218.9 257.8,218.5" opacity="0.8"/>
    <polyline points="257.6,224.9 257.6,225.7" opacity="0.8"/>
    <polyline points="258.3,220.4 258.3,220.2 258.2,219.8 258.1,219.3 258.0,219.1 258.0,218.5" opacity="0.8"/>
  </g>

  <!-- 지하철 역 -->
  <g id="subway-stations">
    <circle cx="163.9" cy="117.0" r="4" fill="#dc2626" stroke="#fff" stroke-width="2"/>
    <text x="163.9" y="109.0" text-anchor="middle" font-size="10" fill="#374151">Harvard</text>
    <circle cx="261.5" cy="245.2" r="4" fill="#dc2626" stroke="#fff" stroke-width="2"/>
    <text x="261.5" y="237.2" text-anchor="middle" font-size="10" fill="#374151">Andrew</text>
    <circle cx="171.5" cy="331.9" r="4" fill="#dc2626" stroke="#fff" stroke-width="2"/>
    <text x="171.5" y="323.9" text-anchor="middle" font-size="10" fill="#374151">Forest Hills</text>
    <circle cx="340.9" cy="531.4" r="4" fill="#dc2626" stroke="#fff" stroke-width="2"/>
    <text x="340.9" y="523.4" text-anchor="middle" font-size="10" fill="#374151">Quincy Adams</text>
    <circle cx="240.1" cy="115.0" r="4" fill="#dc2626" stroke="#fff" stroke-width="2"/>
    <text x="240.1" y="107.0" text-anchor="middle" font-size="10" fill="#374151">Community College</text>
    <circle cx="261.5" cy="208.2" r="4" fill="#dc2626" stroke="#fff" stroke-width="2"/>
    <text x="261.5" y="200.2" text-anchor="middle" font-size="10" fill="#374151">Broadway</text>
    <circle cx="304.0" cy="114.1" r="4" fill="#dc2626" stroke="#fff" stroke-width="2"/>
    <text x="304.0" y="106.1" text-anchor="middle" font-size="10" fill="#374151">Airport</text>
    <circle cx="344.3" cy="77.0" r="4" fill="#dc2626" stroke="#fff" stroke-width="2"/>
    <text x="344.3" y="69.0" text-anchor="middle" font-size="10" fill="#374151">Orient Heights</text>
    <circle cx="315.8" cy="98.2" r="4" fill="#dc2626" stroke="#fff" stroke-width="2"/>
    <text x="315.8" y="90.2" text-anchor="middle" font-size="10" fill="#374151">Wood Island</text>
    <circle cx="200.8" cy="241.6" r="4" fill="#dc2626" stroke="#fff" stroke-width="2"/>
    <text x="200.8" y="233.6" text-anchor="middle" font-size="10" fill="#374151">Roxbury Crossing</text>
    <circle cx="356.3" cy="66.2" r="4" fill="#dc2626" stroke="#fff" stroke-width="2"/>
    <text x="356.3" y="58.2" text-anchor="middle" font-size="10" fill="#374151">Suffolk Downs</text>
    <circle cx="260.5" cy="160.0" r="4" fill="#dc2626" stroke="#fff" stroke-width="2"/>
    <text x="260.5" y="152.0" text-anchor="middle" font-size="10" fill="#374151">State</text>
    <circle cx="304.0" cy="405.4" r="4" fill="#dc2626" stroke="#fff" stroke-width="2"/>
    <text x="304.0" y="397.4" text-anchor="middle" font-size="10" fill="#374151">North Quincy</text>
    <circle cx="319.4" cy="432.4" r="4" fill="#dc2626" stroke="#fff" stroke-width="2"/>
    <text x="319.4" y="424.4" text-anchor="middle" font-size="10" fill="#374151">Wollaston</text>
    <circle cx="250.9" cy="187.1" r="4" fill="#dc2626" stroke="#fff" stroke-width="2"/>
    <circle cx="343.1" cy="476.1" r="4" fill="#dc2626" stroke="#fff" stroke-width="2"/>
    <text x="343.1" y="468.1" text-anchor="middle" font-size="10" fill="#374151">Quincy Center</text>
    <circle cx="267.2" cy="302.0" r="4" fill="#dc2626" stroke="#fff" stroke-width="2"/>
    <text x="267.2" y="294.0" text-anchor="middle" font-size="10" fill="#374151">Savin Hill</text>
    <circle cx="252.9" cy="179.5" r="4" fill="#dc2626" stroke="#fff" stroke-width="2"/>
    <text x="252.9" y="171.5" text-anchor="middle" font-size="10" fill="#374151">Chinatown</text>
    <circle cx="269.7" cy="157.8" r="4" fill="#dc2626" stroke="#fff" stroke-width="2"/>
    <text x="269.7" y="149.8" text-anchor="middle" font-size="10" fill="#374151">Aquarium</text>
    <circle cx="289.3" cy="129.6" r="4" fill="#dc2626" stroke="#fff" stroke-width="2"/>
    <text x="289.3" y="121.6" text-anchor="middle" font-size="10" fill="#374151">Maverick</text>
    <circle cx="216.4" cy="149.4" r="4" fill="#dc2626" stroke="#fff" stroke-width="2"/>
    <text x="216.4" y="141.4" text-anchor="middle" font-size="10" fill="#374151">Kendall/MIT</text>
    <circle cx="238.9" cy="152.9" r="4" fill="#dc2626" stroke="#fff" stroke-width="2"/>
    <text x="238.9" y="144.9" text-anchor="middle" font-size="10" fill="#374151">Charles/MGH</text>
    <circle cx="265.0" cy="178.7" r="4" fill="#dc2626" stroke="#fff" stroke-width="2"/>
    <text x="265.0" y="170.7" text-anchor="middle" font-size="10" fill="#374151">South Station</text>
    <circle cx="256.2" cy="170.0" r="4" fill="#dc2626" stroke="#fff" stroke-width="2"/>
    <text x="256.2" y="162.0" text-anchor="middle" font-size="10" fill="#374151">Downtown Crossing</text>
    <circle cx="253.1" cy="167.2" r="4" fill="#dc2626" stroke="#fff" stroke-width="2"/>
    <text x="253.1" y="159.2" text-anchor="middle" font-size="10" fill="#374151">Park Street</text>
    <circle cx="163.7" cy="72.5" r="4" fill="#dc2626" stroke="#fff" stroke-width="2"/>
    <text x="163.7" y="64.5" text-anchor="middle" font-size="10" fill="#374151">Porter</text>
    <circle cx="269.0" cy="273.2" r="4" fill="#dc2626" stroke="#fff" stroke-width="2"/>
    <text x="269.0" y="265.2" text-anchor="middle" font-size="10" fill="#374151">JFK/UMass</text>
    <circle cx="253.6" cy="152.4" r="4" fill="#dc2626" stroke="#fff" stroke-width="2"/>
    <text x="253.6" y="144.4" text-anchor="middle" font-size="10" fill="#374151">Bowdoin</text>
    <circle cx="254.1" cy="334.0" r="4" fill="#dc2626" stroke="#fff" stroke-width="2"/>
    <text x="254.1" y="326.0" text-anchor="middle" font-size="10" fill="#374151">Fields Corner</text>
    <circle cx="247.8" cy="354.4" r="4" fill="#dc2626" stroke="#fff" stroke-width="2"/>
    <text x="247.8" y="346.4" text-anchor="middle" font-size="10" fill="#374151">Shawmut</text>
    <circle cx="251.1" cy="380.1" r="4" fill="#dc2626" stroke="#fff" stroke-width="2"/>
    <circle cx="260.4" cy="150.2" r="4" fill="#dc2626" stroke="#fff" stroke-width="2"/>
    <text x="260.4" y="142.2" text-anchor="middle" font-size="10" fill="#374151">Haymarket</text>
    <circle cx="256.8" cy="140.9" r="4" fill="#dc2626" stroke="#fff" stroke-width="2"/>
    <text x="256.8" y="132.9" text-anchor="middle" font-size="10" fill="#374151">North Station</text>
    <circle cx="229.7" cy="59.9" r="4" fill="#dc2626" stroke="#fff" stroke-width="2"/>
    <text x="229.7" y="51.9" text-anchor="middle" font-size="10" fill="#374151">Assembly</text>
    <circle cx="193.4" cy="267.2" r="4" fill="#dc2626" stroke="#fff" stroke-width="2"/>
    <text x="193.4" y="259.2" text-anchor="middle" font-size="10" fill="#374151">Jackson Square</text>
    <circle cx="257.8" cy="157.6" r="4" fill="#dc2626" stroke="#fff" stroke-width="2"/>
    <text x="257.8" y="149.6" text-anchor="middle" font-size="10" fill="#374151">Government Center</text>
    <circle cx="233.3" cy="193.4" r="4" fill="#dc2626" stroke="#fff" stroke-width="2"/>
    <text x="233.3" y="185.4" text-anchor="middle" font-size="10" fill="#374151">Back Bay</text>
    <circle cx="210.6" cy="225.4" r="4" fill="#dc2626" stroke="#fff" stroke-width="2"/>
    <text x="210.6" y="217.4" text-anchor="middle" font-size="10" fill="#374151">Ruggles</text>
    <circle cx="219.1" cy="212.6" r="4" fill="#dc2626" stroke="#fff" stroke-width="2"/>
    <circle cx="188.1" cy="140.7" r="4" fill="#dc2626" stroke="#fff" stroke-width="2"/>
    <text x="188.1" y="132.7" text-anchor="middle" font-size="10" fill="#374151">Central Square</text>
    <circle cx="181.7" cy="303.3" r="4" fill="#dc2626" stroke="#fff" stroke-width="2"/>
    <text x="181.7" y="295.3" text-anchor="middle" font-size="10" fill="#374151">Green Street</text>
    <circle cx="187.0" cy="283.1" r="4" fill="#dc2626" stroke="#fff" stroke-width="2"/>
    <text x="187.0" y="275.1" text-anchor="middle" font-size="10" fill="#374151">Stony Brook</text>
    <circle cx="230.2" cy="84.6" r="4" fill="#dc2626" stroke="#fff" stroke-width="2"/>
    <text x="230.2" y="76.6" text-anchor="middle" font-size="10" fill="#374151">Sullivan Square</text>
  </g>
</svg>