<?xml version="1.0" encoding="UTF-8"?>
<svg width="800" height="600" xmlns="http://www.w3.org/2000/svg">
  <title>Brasilia Subway Map</title>
  <rect width="100%" height="100%" fill="#f8f9fa"/>

  <!-- 지하철 선로 -->
  <g stroke="#2563eb" stroke-width="2" fill="none" opacity="0.8">
    <polyline points="114.2,436.7 118.9,437.2"/>
    <polyline points="118.9,437.2 119.0,437.2 120.4,437.4 121.9,437.6 124.8,438.0"/>
    <polyline points="188.1,447.8 197.7,444.4 200.2,443.3 201.7,442.5 203.1,441.6 204.2,440.9 213.1,434.5 216.7,432.0 233.7,420.3 243.1,413.9 246.0,411.9 250.6,408.7 255.9,405.1 267.5,397.1 279.9,388.4 280.1,388.3 281.0,387.6 284.4,385.2 287.2,382.9 290.1,380.7 292.5,378.6 295.9,375.5 297.9,373.7 299.8,371.9 301.1,370.5 304.9,366.8 306.9,364.7 308.7,362.8 310.4,360.9 313.4,357.5 315.5,355.3 317.7,352.7 319.5,350.5 319.9,350.0 321.9,346.5 322.8,344.8 323.5,343.2 324.8,339.8 325.5,337.8 326.4,335.8 326.8,334.7 327.3,333.7 327.8,332.6 328.3,331.5 328.9,330.0 329.5,328.6 330.1,326.9 330.3,326.4 331.2,323.7 332.0,321.4 332.1,321.0 332.9,318.9 333.1,318.4"/>
    <polyline points="61.4,407.4 62.5,408.0 63.3,408.4 64.0,408.9 64.6,409.3 66.8,410.9 70.1,413.5 71.6,414.7 76.4,418.4 79.2,420.6 81.1,422.0 82.8,423.4 84.6,424.7 85.6,425.5"/>
    <polyline points="86.6,426.3 90.0,428.9 93.9,431.9 95.2,432.8 95.9,433.3 96.6,433.7 97.7,434.2 98.6,434.5 99.1,434.7 100.3,435.0 101.4,435.2 103.5,435.4 114.2,436.7"/>
    <polyline points="126.0,438.0 126.1,438.0 128.2,438.3 130.3,438.5 133.2,438.9 134.2,439.0 134.9,439.1 136.3,439.3 138.8,439.6 139.4,439.6 140.3,439.8 141.7,439.9"/>
    <polyline points="126.1,437.9 128.3,438.2 131.2,438.5 132.6,438.7 133.7,438.8 135.6,439.0 137.3,439.2 140.0,439.6 140.5,439.7 141.7,439.9 141.8,439.9 142.3,440.1 143.0,440.3 143.7,440.5 144.8,440.9 146.2,441.6 147.1,442.1 147.5,442.4 148.0,442.8 148.5,443.2 149.4,444.0 150.5,445.0 151.0,445.6 151.4,446.0 152.2,446.9"/>
    <polyline points="124.8,438.0 125.3,438.0"/>
    <polyline points="47.9,408.0 49.0,407.5 50.1,407.1 50.8,406.9 51.5,406.7 52.2,406.6 53.0,406.4 53.8,406.3 54.5,406.3 55.4,406.2 55.7,406.2"/>
    <polyline points="55.7,406.2 56.1,406.3 56.6,406.3 57.2,406.3 58.3,406.5 59.0,406.7 60.1,407.0 60.9,407.3 61.4,407.5"/>
    <polyline points="47.8,407.7 49.8,407.0 50.5,406.8 51.6,406.6 52.9,406.3 53.5,406.2 54.2,406.2 55.2,406.1 55.7,406.1"/>
    <polyline points="55.7,406.1 56.3,406.1 56.9,406.2 57.9,406.3 58.8,406.5 59.9,406.8 60.9,407.1 61.4,407.4"/>
    <polyline points="61.4,407.5 61.8,407.7 62.5,408.1 63.3,408.5 63.9,408.9 67.6,411.7 70.2,413.8 72.3,415.3 73.8,416.5 75.9,418.1 78.6,420.2 80.5,421.8 83.0,423.6 85.6,425.6"/>
    <polyline points="86.6,426.4 88.1,427.6 89.7,428.8 93.6,431.8 94.2,432.2 94.7,432.6 95.4,433.1 96.0,433.4 96.5,433.7 97.5,434.2 98.3,434.5 99.2,434.8 100.0,435.0 101.5,435.3 103.0,435.4 108.3,436.1 112.2,436.6 114.2,436.8"/>
    <polyline points="85.6,425.5 86.6,426.3"/>
    <polyline points="85.6,425.6 86.6,426.4"/>
    <polyline points="188.1,448.0 197.8,444.5 200.2,443.4 201.8,442.6 203.2,441.7 205.2,440.4 206.4,439.7 213.3,434.7 216.8,432.2 218.8,430.8 227.6,424.8 233.8,420.5 243.8,413.7 250.3,409.2 250.8,408.9 254.2,406.6 261.8,401.4 267.7,397.3 268.7,396.7 278.9,389.4 284.5,385.4 284.9,385.1 286.8,383.6 291.0,380.0 298.6,373.3 299.9,372.0 305.0,367.0 313.6,357.7 315.5,355.5 318.2,352.4 318.7,351.7 319.2,351.1 319.6,350.6 320.0,350.1 322.1,346.7 323.1,344.6 323.7,343.2 324.9,340.2 325.7,337.8 325.8,337.4 326.0,337.1 326.3,336.5 326.6,335.7 327.0,334.7 327.5,333.5 328.4,331.4 329.0,330.0 329.4,329.2 329.6,328.7 329.7,328.3 329.9,327.7 330.5,326.1 330.8,325.1 331.2,323.8 331.7,322.5 332.1,321.4 332.2,321.0 333.2,318.4"/>
    <polyline points="114.2,436.8 118.8,437.4"/>
    <polyline points="118.8,437.4 118.9,437.4 120.4,437.6 121.8,437.7 123.1,437.9 124.7,438.1"/>
    <polyline points="127.7,438.4 130.8,438.7"/>
    <polyline points="131.4,438.8 133.2,438.9"/>
    <polyline points="134.9,439.1 136.4,439.4"/>
    <polyline points="126.4,437.4 128.1,437.6 134.9,438.4 135.3,438.5 136.5,438.8 137.8,439.1 139.1,439.4"/>
    <polyline points="126.4,437.5 135.7,438.7 136.5,438.8"/>
    <polyline points="126.4,437.7 134.9,438.7 137.8,439.1"/>
    <polyline points="126.4,437.8 134.8,438.8 139.1,439.4"/>
    <polyline points="132.6,438.7 134.2,439.0"/>
    <polyline points="139.1,439.4 140.5,439.7"/>
    <polyline points="125.3,438.0 129.1,438.5 130.8,438.7 131.4,438.8 136.4,439.4 140.5,439.9 140.9,439.9 141.3,440.0 142.0,440.1 142.4,440.3 143.0,440.4 143.8,440.7 144.7,441.0 145.2,441.2 145.8,441.5 146.3,441.7 146.9,442.1 147.3,442.4 147.9,442.8 148.9,443.6 152.2,446.9 152.3,447.0 152.8,447.5 154.1,448.8 155.1,449.8 155.6,450.3 156.4,450.9 157.3,451.6 158.1,452.1 158.6,452.4 159.2,452.7 160.1,453.1 160.9,453.4 161.8,453.7 162.6,453.9 163.6,454.1 164.8,454.3 165.8,454.3 166.6,454.3 167.6,454.2 168.1,454.2 168.9,454.1 169.7,453.9 171.0,453.5 173.3,452.7 175.8,451.9"/>
    <polyline points="184.3,449.1 188.1,447.8"/>
    <polyline points="178.6,450.9 180.0,450.4 181.8,449.9 184.3,449.1"/>
    <polyline points="125.3,438.1 127.7,438.4 129.7,438.7 131.7,438.9 134.7,439.3 137.7,439.7 140.8,440.1 141.5,440.2 142.0,440.3 142.9,440.5 143.6,440.8 144.3,441.0 145.0,441.3 145.8,441.7 146.5,442.1 147.1,442.5 147.7,442.8 148.3,443.4 149.3,444.2 150.5,445.4 151.9,446.8 154.1,449.0 154.8,449.7 155.5,450.3 156.3,451.0 157.2,451.8 158.3,452.4 159.0,452.8 159.9,453.2 160.7,453.5 161.3,453.7 162.3,454.0 163.1,454.2 164.2,454.3 165.4,454.4 166.5,454.5 167.9,454.3 168.9,454.2 170.1,453.9 171.3,453.6 174.3,452.5 175.8,452.0"/>
    <polyline points="124.7,438.1 125.3,438.1"/>
    <polyline points="178.6,451.0 179.9,450.6 181.6,450.1 185.3,448.9 188.1,448.0"/>
    <polyline points="175.8,451.9 177.3,451.4"/>
    <polyline points="175.8,452.0 177.4,451.5"/>
    <polyline points="177.4,451.5 178.6,451.0"/>
    <polyline points="177.3,451.4 178.6,450.9"/>
  </g>

  <!-- 지하철 역 -->
  <g>
    <circle cx="120.4" cy="437.5" r="3" fill="#dc2626" stroke="#fff" stroke-width="1"/>
    <circle cx="177.6" cy="451.4" r="3" fill="#dc2626" stroke="#fff" stroke-width="1"/>
    <circle cx="332.2" cy="321.0" r="3" fill="#dc2626" stroke="#fff" stroke-width="1"/>
    <circle cx="324.9" cy="337.2" r="3" fill="#dc2626" stroke="#fff" stroke-width="1"/>
    <circle cx="313.5" cy="357.6" r="3" fill="#dc2626" stroke="#fff" stroke-width="1"/>
    <circle cx="284.4" cy="385.3" r="3" fill="#dc2626" stroke="#fff" stroke-width="1"/>
    <circle cx="267.7" cy="397.2" r="3" fill="#dc2626" stroke="#fff" stroke-width="1"/>
    <circle cx="250.7" cy="408.8" r="3" fill="#dc2626" stroke="#fff" stroke-width="1"/>
    <circle cx="233.8" cy="420.5" r="3" fill="#dc2626" stroke="#fff" stroke-width="1"/>
    <circle cx="216.7" cy="432.1" r="3" fill="#dc2626" stroke="#fff" stroke-width="1"/>
  </g>
</svg>