<?xml version="1.0" encoding="UTF-8"?>
<svg width="800" height="600" viewBox="0 0 800 600" 
     xmlns="http://www.w3.org/2000/svg">
  <title>Brussels Subway Map</title>
  <rect width="100%" height="100%" fill="#f8f9fa"/>

  <!-- 지하철 선로 -->
  <g id="subway-lines" stroke="#2563eb" stroke-width="3" fill="none">
    <polyline points="600.2,385.8 596.4,386.2 595.8,386.3 595.2,386.4 594.8,386.4 594.3,386.4 593.8,386.4 593.2,386.4 592.0,386.2 590.8,386.1 589.5,385.9 588.4,385.7 587.6,385.6 586.9,385.4 586.3,385.3 585.8,385.1 584.8,384.8 583.9,384.5 582.7,384.1" opacity="0.8"/>
    <polyline points="521.0,312.8 520.9,312.2 519.0,306.2 517.6,302.0 517.1,300.6 516.7,299.1 516.4,298.4 516.2,297.8 516.0,297.4 515.6,297.1" opacity="0.8"/>
    <polyline points="292.2,266.9 292.3,267.6 292.5,268.0 292.9,268.6 293.3,269.1 293.6,269.3 294.4,270.1 296.9,272.1" opacity="0.8"/>
    <polyline points="582.7,384.1 581.9,383.8 581.2,383.6 580.5,383.4 579.9,383.1 579.5,383.0 578.8,382.7 577.9,382.3 574.5,380.9 573.5,380.5 572.8,380.2 571.9,379.8 571.4,379.5 570.1,378.9 569.6,378.7 569.2,378.5 568.9,378.4 568.5,378.3 568.2,378.2" opacity="0.8"/>
    <polyline points="321.4,213.8 323.7,211.5 325.8,209.6 328.1,207.3 330.5,205.0 331.2,204.3 332.0,203.5 333.0,202.6" opacity="0.8"/>
    <polyline points="316.8,218.2 317.8,217.2" opacity="0.8"/>
    <polyline points="305.6,233.2 305.8,232.8 306.1,232.2 306.5,231.5 306.7,231.1 307.1,230.3 307.5,229.3 307.8,228.8 308.2,228.1 308.6,227.6 309.3,226.6 310.0,225.5" opacity="0.8"/>
    <polyline points="293.4,259.0 294.2,256.8 294.4,255.9 295.0,254.4 296.9,249.9 298.2,247.2" opacity="0.8"/>
    <polyline points="292.1,262.3 292.6,261.0 293.0,260.0 293.3,259.0" opacity="0.8"/>
    <polyline points="305.0,278.5 306.7,279.6 308.8,280.9" opacity="0.8"/>
    <polyline points="303.2,277.2 304.5,278.2" opacity="0.8"/>
    <polyline points="344.5,110.3 344.5,109.9 344.3,109.6 344.2,109.3 344.0,108.9 343.9,108.7 343.7,108.4 343.4,108.1 343.2,107.8 342.9,107.6 342.7,107.3 342.4,107.1 342.0,106.9 341.5,106.5 341.0,106.2" opacity="0.8"/>
    <polyline points="329.6,101.5 328.4,101.3 327.2,101.3 326.2,101.4 325.1,101.6 321.8,102.5 318.7,103.4 317.0,103.9 316.6,104.0" opacity="0.8"/>
    <polyline points="343.2,224.4 338.6,222.9 336.5,222.2 334.1,221.4 329.2,219.8 328.4,219.6 325.8,218.7 324.7,218.3 323.8,217.9 322.0,217.2 318.7,215.7" opacity="0.8"/>
    <polyline points="296.9,272.1 298.5,273.4 299.9,274.6 302.5,276.7 303.2,277.2" opacity="0.8"/>
    <polyline points="297.6,247.1 298.5,245.4 299.2,244.0 299.8,243.1" opacity="0.8"/>
    <polyline points="537.4,375.8 534.9,375.7 533.4,375.6 532.6,375.5 532.1,375.5 531.6,375.4 531.1,375.3 530.6,375.2 530.0,374.9 529.5,374.7 528.8,374.4 528.3,374.0 527.9,373.8 527.5,373.4 527.2,373.1 526.9,372.6 526.6,372.2 526.4,371.7 526.3,371.3" opacity="0.8"/>
    <polyline points="317.8,217.2 320.2,215.0 321.2,214.0" opacity="0.8"/>
    <polyline points="333.4,202.2 335.8,199.8 338.2,197.5 338.4,197.4" opacity="0.8"/>
    <polyline points="522.5,317.7 521.9,315.6 521.0,312.8" opacity="0.8"/>
    <polyline points="527.1,332.0 527.0,331.7 526.9,331.3 526.8,331.0 526.7,330.5 526.5,330.0 526.3,329.3 526.2,328.9 525.9,328.0 525.5,326.7 525.2,325.8" opacity="0.8"/>
    <polyline points="525.2,325.8 524.8,324.4 524.3,323.0 523.9,321.7 523.6,320.8 523.4,320.1 523.1,319.3 522.9,318.6 522.7,318.1 522.5,317.7" opacity="0.8"/>
    <polyline points="529.0,338.2 528.5,336.5 528.2,335.6 527.3,332.9 527.1,332.0" opacity="0.8"/>
    <polyline points="337.0,104.3 336.3,104.0 332.9,102.7 331.6,102.1 330.7,101.8 329.6,101.5" opacity="0.8"/>
    <polyline points="341.0,106.2 339.9,105.7 338.9,105.1 337.7,104.6 337.0,104.3" opacity="0.8"/>
    <polyline points="314.7,220.3 314.3,220.8 313.8,221.3 313.4,221.7 312.4,222.7" opacity="0.8"/>
    <polyline points="303.0,239.2 302.9,239.4 302.8,239.6 302.8,239.8 302.6,240.3" opacity="0.8"/>
    <polyline points="310.1,225.4 310.4,224.9" opacity="0.8"/>
    <polyline points="310.4,224.9 310.9,224.2 311.3,223.7 311.6,223.2 312.0,222.8" opacity="0.8"/>
    <polyline points="309.3,226.7 309.5,226.4 309.6,226.3 309.6,226.2 309.8,225.9 309.9,225.7 310.0,225.5" opacity="0.8"/>
    <polyline points="310.0,225.5 310.1,225.4" opacity="0.8"/>
    <polyline points="308.3,228.2 308.0,228.8 307.6,229.4 307.2,230.3 306.8,231.1 306.5,231.7 306.1,232.6 305.7,233.5 305.3,234.3 304.7,235.5" opacity="0.8"/>
    <polyline points="310.6,224.9 310.2,225.4" opacity="0.8"/>
    <polyline points="310.2,225.4 310.0,225.7 309.3,226.7" opacity="0.8"/>
    <polyline points="312.9,221.8 313.2,221.5 313.3,221.4 313.7,221.1 313.9,220.9 314.1,220.7" opacity="0.8"/>
    <polyline points="312.4,222.7 312.6,222.5 312.8,222.2 313.0,221.9 313.2,221.7 313.4,221.5 313.6,221.3 314.1,220.7" opacity="0.8"/>
    <polyline points="312.2,222.9 311.7,223.4 311.3,223.9 311.0,224.3 310.6,224.9" opacity="0.8"/>
    <polyline points="314.1,220.7 314.6,220.2" opacity="0.8"/>
    <polyline points="351.2,184.5 350.8,185.0 350.2,185.6 349.5,186.3 349.0,186.8 347.4,188.4 345.2,190.5 344.0,191.7" opacity="0.8"/>
    <polyline points="338.4,197.4 341.9,194.0 343.6,192.3 344.5,191.4 345.3,190.6 346.8,189.2 347.5,188.5 349.2,186.8 351.5,184.6" opacity="0.8"/>
    <polyline points="351.5,184.6 353.3,182.8 355.7,180.5 355.8,180.3" opacity="0.8"/>
    <polyline points="344.0,191.7 343.8,191.9 343.5,192.1 343.2,192.4 342.8,192.7 342.2,193.2 341.7,193.7 340.9,194.4 340.1,195.1 339.1,196.0 338.6,196.4" opacity="0.8"/>
    <polyline points="338.1,197.1 338.8,196.5 339.3,196.0 340.0,195.4 340.7,194.8 341.1,194.4 341.9,193.7 342.4,193.3 342.9,192.8 344.0,191.7" opacity="0.8"/>
    <polyline points="355.8,180.3 356.9,179.3 357.9,178.3 358.5,177.8 359.1,177.1 359.6,176.6 360.0,176.1 360.5,175.6 361.1,174.9" opacity="0.8"/>
    <polyline points="355.5,180.1 356.4,179.4 357.2,178.7 357.9,178.1 358.4,177.5 359.0,177.0 359.3,176.7 359.8,176.2 360.3,175.6 361.0,174.9" opacity="0.8"/>
    <polyline points="351.2,184.5 353.0,182.6 355.4,180.3 355.5,180.1" opacity="0.8"/>
    <polyline points="302.9,277.4 303.6,277.9 304.3,278.4" opacity="0.8"/>
    <polyline points="289.7,267.4 289.8,267.1 290.2,266.3" opacity="0.8"/>
    <polyline points="292.2,262.3 292.7,261.2 293.0,260.3 293.3,259.5 293.4,259.0" opacity="0.8"/>
    <polyline points="308.7,281.0 306.7,279.8 304.8,278.7" opacity="0.8"/>
  </g>

  <!-- 지하철 역 -->
  <g id="subway-stations">
    <circle cx="521.4" cy="314.2" r="4" fill="#dc2626" stroke="#fff" stroke-width="2"/>
    <text x="521.4" y="306.2" text-anchor="middle" font-size="10" fill="#374151">Thieffry</text>
    <circle cx="528.6" cy="364.9" r="4" fill="#dc2626" stroke="#fff" stroke-width="2"/>
    <text x="528.6" y="356.9" text-anchor="middle" font-size="10" fill="#374151">Delta</text>
    <circle cx="532.1" cy="355.7" r="4" fill="#dc2626" stroke="#fff" stroke-width="2"/>
    <text x="532.1" y="347.7" text-anchor="middle" font-size="10" fill="#374151">Hankar</text>
    <circle cx="527.7" cy="334.3" r="4" fill="#dc2626" stroke="#fff" stroke-width="2"/>
    <text x="527.7" y="326.3" text-anchor="middle" font-size="10" fill="#374151">Pétillon</text>
    <circle cx="510.8" cy="295.1" r="4" fill="#dc2626" stroke="#fff" stroke-width="2"/>
    <text x="510.8" y="287.1" text-anchor="middle" font-size="10" fill="#374151">Merode</text>
    <circle cx="465.0" cy="284.0" r="4" fill="#dc2626" stroke="#fff" stroke-width="2"/>
    <text x="465.0" y="276.0" text-anchor="middle" font-size="10" fill="#374151">Schuman</text>
    <circle cx="427.8" cy="274.8" r="4" fill="#dc2626" stroke="#fff" stroke-width="2"/>
    <circle cx="399.0" cy="271.5" r="4" fill="#dc2626" stroke="#fff" stroke-width="2"/>
    <circle cx="381.2" cy="260.3" r="4" fill="#dc2626" stroke="#fff" stroke-width="2"/>
    <text x="381.2" y="252.3" text-anchor="middle" font-size="10" fill="#374151">De Brouckère</text>
    <circle cx="368.3" cy="252.9" r="4" fill="#dc2626" stroke="#fff" stroke-width="2"/>
    <circle cx="370.9" cy="315.5" r="4" fill="#dc2626" stroke="#fff" stroke-width="2"/>
    <circle cx="387.2" cy="309.1" r="4" fill="#dc2626" stroke="#fff" stroke-width="2"/>
    <text x="387.2" y="301.1" text-anchor="middle" font-size="10" fill="#374151">Louise - Louiza</text>
    <circle cx="407.7" cy="299.1" r="4" fill="#dc2626" stroke="#fff" stroke-width="2"/>
    <circle cx="419.1" cy="246.8" r="4" fill="#dc2626" stroke="#fff" stroke-width="2"/>
    <circle cx="428.8" cy="260.1" r="4" fill="#dc2626" stroke="#fff" stroke-width="2"/>
    <text x="428.8" y="252.1" text-anchor="middle" font-size="10" fill="#374151">Madou</text>
    <circle cx="421.4" cy="289.2" r="4" fill="#dc2626" stroke="#fff" stroke-width="2"/>
    <text x="421.4" y="281.2" text-anchor="middle" font-size="10" fill="#374151">Trône - Troon</text>
    <circle cx="544.1" cy="376.3" r="4" fill="#dc2626" stroke="#fff" stroke-width="2"/>
    <text x="544.1" y="368.3" text-anchor="middle" font-size="10" fill="#374151">Beaulieu</text>
    <circle cx="576.2" cy="381.6" r="4" fill="#dc2626" stroke="#fff" stroke-width="2"/>
    <text x="576.2" y="373.6" text-anchor="middle" font-size="10" fill="#374151">Demey</text>
    <circle cx="378.1" cy="235.7" r="4" fill="#dc2626" stroke="#fff" stroke-width="2"/>
    <text x="378.1" y="227.7" text-anchor="middle" font-size="10" fill="#374151">Yser - IJzer</text>
    <circle cx="303.8" cy="237.0" r="4" fill="#dc2626" stroke="#fff" stroke-width="2"/>
    <text x="303.8" y="229.0" text-anchor="middle" font-size="10" fill="#374151">Osseghem - Ossegem</text>
    <circle cx="297.5" cy="248.5" r="4" fill="#dc2626" stroke="#fff" stroke-width="2"/>
    <text x="297.5" y="240.5" text-anchor="middle" font-size="10" fill="#374151">Beekkant</text>
    <circle cx="290.9" cy="265.0" r="4" fill="#dc2626" stroke="#fff" stroke-width="2"/>
    <circle cx="319.8" cy="289.4" r="4" fill="#dc2626" stroke="#fff" stroke-width="2"/>
    <text x="319.8" y="281.4" text-anchor="middle" font-size="10" fill="#374151">Clemenceau</text>
    <circle cx="301.1" cy="275.7" r="4" fill="#dc2626" stroke="#fff" stroke-width="2"/>
    <text x="301.1" y="267.7" text-anchor="middle" font-size="10" fill="#374151">Delacroix</text>
    <circle cx="345.0" cy="225.1" r="4" fill="#dc2626" stroke="#fff" stroke-width="2"/>
    <text x="345.0" y="217.1" text-anchor="middle" font-size="10" fill="#374151">Ribaucourt</text>
    <circle cx="346.7" cy="243.8" r="4" fill="#dc2626" stroke="#fff" stroke-width="2"/>
    <circle cx="323.7" cy="236.4" r="4" fill="#dc2626" stroke="#fff" stroke-width="2"/>
    <circle cx="283.5" cy="280.8" r="4" fill="#dc2626" stroke="#fff" stroke-width="2"/>
    <text x="283.5" y="272.8" text-anchor="middle" font-size="10" fill="#374151">Jacques Brel</text>
    <circle cx="267.7" cy="294.4" r="4" fill="#dc2626" stroke="#fff" stroke-width="2"/>
    <text x="267.7" y="286.4" text-anchor="middle" font-size="10" fill="#374151">Aumale</text>
    <circle cx="247.3" cy="310.0" r="4" fill="#dc2626" stroke="#fff" stroke-width="2"/>
    <circle cx="234.0" cy="328.4" r="4" fill="#dc2626" stroke="#fff" stroke-width="2"/>
    <text x="234.0" y="320.4" text-anchor="middle" font-size="10" fill="#374151">Veeweyde - Veeweide</text>
    <circle cx="223.7" cy="343.6" r="4" fill="#dc2626" stroke="#fff" stroke-width="2"/>
    <text x="223.7" y="335.6" text-anchor="middle" font-size="10" fill="#374151">Bizet</text>
    <circle cx="214.8" cy="356.3" r="4" fill="#dc2626" stroke="#fff" stroke-width="2"/>
    <text x="214.8" y="348.3" text-anchor="middle" font-size="10" fill="#374151">La Roue - Het Rad</text>
    <circle cx="202.6" cy="372.3" r="4" fill="#dc2626" stroke="#fff" stroke-width="2"/>
    <text x="202.6" y="364.3" text-anchor="middle" font-size="10" fill="#374151">CERIA - COOVI</text>
    <circle cx="177.3" cy="371.0" r="4" fill="#dc2626" stroke="#fff" stroke-width="2"/>
    <text x="177.3" y="363.0" text-anchor="middle" font-size="10" fill="#374151">Eddy Merckx</text>
    <circle cx="138.4" cy="375.9" r="4" fill="#dc2626" stroke="#fff" stroke-width="2"/>
    <text x="138.4" y="367.9" text-anchor="middle" font-size="10" fill="#374151">Erasme - Erasmus</text>
    <circle cx="336.9" cy="198.6" r="4" fill="#dc2626" stroke="#fff" stroke-width="2"/>
    <text x="336.9" y="190.6" text-anchor="middle" font-size="10" fill="#374151">Belgica</text>
    <circle cx="351.5" cy="139.7" r="4" fill="#dc2626" stroke="#fff" stroke-width="2"/>
    <text x="351.5" y="131.7" text-anchor="middle" font-size="10" fill="#374151">Stuyvenbergh</text>
    <circle cx="339.6" cy="128.4" r="4" fill="#dc2626" stroke="#fff" stroke-width="2"/>
    <text x="339.6" y="120.4" text-anchor="middle" font-size="10" fill="#374151">Houba-Brugmann</text>
    <circle cx="334.5" cy="103.8" r="4" fill="#dc2626" stroke="#fff" stroke-width="2"/>
    <text x="334.5" y="95.8" text-anchor="middle" font-size="10" fill="#374151">Heysel - Heizel</text>
    <circle cx="311.2" cy="105.5" r="4" fill="#dc2626" stroke="#fff" stroke-width="2"/>
    <circle cx="403.1" cy="225.4" r="4" fill="#dc2626" stroke="#fff" stroke-width="2"/>
    <circle cx="451.1" cy="280.6" r="4" fill="#dc2626" stroke="#fff" stroke-width="2"/>
    <text x="451.1" y="272.6" text-anchor="middle" font-size="10" fill="#374151">Maelbeek - Maalbeek</text>
    <circle cx="598.3" cy="385.9" r="4" fill="#dc2626" stroke="#fff" stroke-width="2"/>
    <text x="598.3" y="377.9" text-anchor="middle" font-size="10" fill="#374151">Herrmann-Debroux</text>
    <circle cx="555.6" cy="292.4" r="4" fill="#dc2626" stroke="#fff" stroke-width="2"/>
    <text x="555.6" y="284.4" text-anchor="middle" font-size="10" fill="#374151">Joséphine-Charlotte</text>
    <circle cx="569.2" cy="285.0" r="4" fill="#dc2626" stroke="#fff" stroke-width="2"/>
    <text x="569.2" y="277.0" text-anchor="middle" font-size="10" fill="#374151">Gribaumont</text>
    <circle cx="590.0" cy="279.2" r="4" fill="#dc2626" stroke="#fff" stroke-width="2"/>
    <text x="590.0" y="271.2" text-anchor="middle" font-size="10" fill="#374151">Tomberg</text>
    <circle cx="618.3" cy="268.4" r="4" fill="#dc2626" stroke="#fff" stroke-width="2"/>
    <text x="618.3" y="260.4" text-anchor="middle" font-size="10" fill="#374151">Roodebeek</text>
    <circle cx="650.7" cy="268.6" r="4" fill="#dc2626" stroke="#fff" stroke-width="2"/>
    <text x="650.7" y="260.6" text-anchor="middle" font-size="10" fill="#374151">Vandervelde</text>
    <circle cx="683.3" cy="263.6" r="4" fill="#dc2626" stroke="#fff" stroke-width="2"/>
    <text x="683.3" y="255.6" text-anchor="middle" font-size="10" fill="#374151">Crainhem - Kraainem</text>
    <circle cx="699.1" cy="286.4" r="4" fill="#dc2626" stroke="#fff" stroke-width="2"/>
    <text x="699.1" y="278.4" text-anchor="middle" font-size="10" fill="#374151">Stockel - Stokkel</text>
    <circle cx="368.6" cy="163.8" r="4" fill="#dc2626" stroke="#fff" stroke-width="2"/>
    <text x="368.6" y="155.8" text-anchor="middle" font-size="10" fill="#374151">Bockstael</text>
    <circle cx="320.2" cy="216.5" r="4" fill="#dc2626" stroke="#fff" stroke-width="2"/>
    <text x="320.2" y="208.5" text-anchor="middle" font-size="10" fill="#374151">Elisabeth</text>
    <circle cx="318.9" cy="216.0" r="4" fill="#dc2626" stroke="#fff" stroke-width="2"/>
    <text x="318.9" y="208.0" text-anchor="middle" font-size="10" fill="#374151">Simonis</text>
    <circle cx="667.1" cy="261.0" r="4" fill="#dc2626" stroke="#fff" stroke-width="2"/>
    <text x="667.1" y="253.0" text-anchor="middle" font-size="10" fill="#374151">Alma</text>
    <circle cx="409.3" cy="274.6" r="4" fill="#dc2626" stroke="#fff" stroke-width="2"/>
    <text x="409.3" y="266.6" text-anchor="middle" font-size="10" fill="#374151">Parc - Park</text>
    <circle cx="538.2" cy="300.5" r="4" fill="#dc2626" stroke="#fff" stroke-width="2"/>
    <text x="538.2" y="292.5" text-anchor="middle" font-size="10" fill="#374151">Montgomery</text>
    <circle cx="397.4" cy="241.4" r="4" fill="#dc2626" stroke="#fff" stroke-width="2"/>
    <text x="397.4" y="233.4" text-anchor="middle" font-size="10" fill="#374151">Rogier</text>
    <circle cx="340.0" cy="304.9" r="4" fill="#dc2626" stroke="#fff" stroke-width="2"/>
    <circle cx="354.1" cy="313.4" r="4" fill="#dc2626" stroke="#fff" stroke-width="2"/>
    <circle cx="354.4" cy="181.5" r="4" fill="#dc2626" stroke="#fff" stroke-width="2"/>
    <text x="354.4" y="173.5" text-anchor="middle" font-size="10" fill="#374151">Pannenhuis</text>
    <circle cx="348.7" cy="292.4" r="4" fill="#dc2626" stroke="#fff" stroke-width="2"/>
    <text x="348.7" y="284.4" text-anchor="middle" font-size="10" fill="#374151">Lemonnier</text>
    <circle cx="361.5" cy="279.0" r="4" fill="#dc2626" stroke="#fff" stroke-width="2"/>
    <text x="361.5" y="271.0" text-anchor="middle" font-size="10" fill="#374151">Anneessens</text>
    <circle cx="383.1" cy="255.0" r="4" fill="#dc2626" stroke="#fff" stroke-width="2"/>
    <text x="383.1" y="247.0" text-anchor="middle" font-size="10" fill="#374151">De Brouckère</text>
    <circle cx="523.3" cy="262.8" r="4" fill="#dc2626" stroke="#fff" stroke-width="2"/>
    <text x="523.3" y="254.8" text-anchor="middle" font-size="10" fill="#374151">Diamant</text>
    <circle cx="371.9" cy="267.2" r="4" fill="#dc2626" stroke="#fff" stroke-width="2"/>
    <text x="371.9" y="259.2" text-anchor="middle" font-size="10" fill="#374151">Bourse - Beurs</text>
    <circle cx="353.2" cy="354.9" r="4" fill="#dc2626" stroke="#fff" stroke-width="2"/>
    <text x="353.2" y="346.9" text-anchor="middle" font-size="10" fill="#374151">Albert</text>
    <circle cx="354.1" cy="317.3" r="4" fill="#dc2626" stroke="#fff" stroke-width="2"/>
    <circle cx="363.4" cy="327.2" r="4" fill="#dc2626" stroke="#fff" stroke-width="2"/>
    <circle cx="362.3" cy="340.2" r="4" fill="#dc2626" stroke="#fff" stroke-width="2"/>
    <text x="362.3" y="332.2" text-anchor="middle" font-size="10" fill="#374151">Horta</text>
    <circle cx="531.8" cy="315.9" r="4" fill="#dc2626" stroke="#fff" stroke-width="2"/>
    <text x="531.8" y="307.9" text-anchor="middle" font-size="10" fill="#374151">Boileau</text>
    <circle cx="532.1" cy="280.8" r="4" fill="#dc2626" stroke="#fff" stroke-width="2"/>
    <text x="532.1" y="272.8" text-anchor="middle" font-size="10" fill="#374151">Georges Henri</text>
  </g>
</svg>