<?xml version="1.0" encoding="UTF-8"?>
<svg width="800" height="600" xmlns="http://www.w3.org/2000/svg">
  <title>Brussels Subway Map</title>
  <rect width="100%" height="100%" fill="#f8f9fa"/>

  <!-- 지하철 선로 -->
  <g stroke="#2563eb" stroke-width="2" fill="none" opacity="0.8">
    <polyline points="600.2,385.8 596.4,386.2 595.8,386.3 595.2,386.4 594.8,386.4 594.3,386.4 593.8,386.4 593.2,386.4 592.0,386.2 590.8,386.1 589.5,385.9 588.4,385.7 587.6,385.6 586.9,385.4 586.3,385.3 585.8,385.1 584.8,384.8 583.9,384.5 582.7,384.1"/>
    <polyline points="521.0,312.8 520.9,312.2 519.0,306.2 517.6,302.0 517.1,300.6 516.7,299.1 516.4,298.4 516.2,297.8 516.0,297.4 515.6,297.1"/>
    <polyline points="292.2,266.9 292.3,267.6 292.5,268.0 292.9,268.6 293.3,269.1 293.6,269.3 294.4,270.1 296.9,272.1"/>
    <polyline points="582.7,384.1 581.9,383.8 581.2,383.6 580.5,383.4 579.9,383.1 579.5,383.0 578.8,382.7 577.9,382.3 574.5,380.9 573.5,380.5 572.8,380.2 571.9,379.8 571.4,379.5 570.1,378.9 569.6,378.7 569.2,378.5 568.9,378.4 568.5,378.3 568.2,378.2"/>
    <polyline points="321.4,213.8 323.7,211.5 325.8,209.6 328.1,207.3 330.5,205.0 331.2,204.3 332.0,203.5 333.0,202.6"/>
    <polyline points="316.8,218.2 317.8,217.2"/>
    <polyline points="305.6,233.2 305.8,232.8 306.1,232.2 306.5,231.5 306.7,231.1 307.1,230.3 307.5,229.3 307.8,228.8 308.2,228.1 308.6,227.6 309.3,226.6 310.0,225.5"/>
    <polyline points="293.4,259.0 294.2,256.8 294.4,255.9 295.0,254.4 296.9,249.9 298.2,247.2"/>
    <polyline points="292.1,262.3 292.6,261.0 293.0,260.0 293.3,259.0"/>
    <polyline points="305.0,278.5 306.7,279.6 308.8,280.9"/>
    <polyline points="303.2,277.2 304.5,278.2"/>
    <polyline points="344.5,110.3 344.5,109.9 344.3,109.6 344.2,109.3 344.0,108.9 343.9,108.7 343.7,108.4 343.4,108.1 343.2,107.8 342.9,107.6 342.7,107.3 342.4,107.1 342.0,106.9 341.5,106.5 341.0,106.2"/>
    <polyline points="329.6,101.5 328.4,101.3 327.2,101.3 326.2,101.4 325.1,101.6 321.8,102.5 318.7,103.4 317.0,103.9 316.6,104.0"/>
    <polyline points="343.2,224.4 338.6,222.9 336.5,222.2 334.1,221.4 329.2,219.8 328.4,219.6 325.8,218.7 324.7,218.3 323.8,217.9 322.0,217.2 318.7,215.7"/>
    <polyline points="296.9,272.1 298.5,273.4 299.9,274.6 302.5,276.7 303.2,277.2"/>
    <polyline points="297.6,247.1 298.5,245.4 299.2,244.0 299.8,243.1"/>
    <polyline points="537.4,375.8 534.9,375.7 533.4,375.6 532.6,375.5 532.1,375.5 531.6,375.4 531.1,375.3 530.6,375.2 530.0,374.9 529.5,374.7 528.8,374.4 528.3,374.0 527.9,373.8 527.5,373.4 527.2,373.1 526.9,372.6 526.6,372.2 526.4,371.7 526.3,371.3"/>
    <polyline points="317.8,217.2 320.2,215.0 321.2,214.0"/>
    <polyline points="333.4,202.2 335.8,199.8 338.2,197.5 338.4,197.4"/>
    <polyline points="522.5,317.7 521.9,315.6 521.0,312.8"/>
    <polyline points="527.1,332.0 527.0,331.7 526.9,331.3 526.8,331.0 526.7,330.5 526.5,330.0 526.3,329.3 526.2,328.9 525.9,328.0 525.5,326.7 525.2,325.8"/>
    <polyline points="525.2,325.8 524.8,324.4 524.3,323.0 523.9,321.7 523.6,320.8 523.4,320.1 523.1,319.3 522.9,318.6 522.7,318.1 522.5,317.7"/>
    <polyline points="529.0,338.2 528.5,336.5 528.2,335.6 527.3,332.9 527.1,332.0"/>
    <polyline points="337.0,104.3 336.3,104.0 332.9,102.7 331.6,102.1 330.7,101.8 329.6,101.5"/>
    <polyline points="341.0,106.2 339.9,105.7 338.9,105.1 337.7,104.6 337.0,104.3"/>
    <polyline points="314.7,220.3 314.3,220.8 313.8,221.3 313.4,221.7 312.4,222.7"/>
    <polyline points="303.0,239.2 302.9,239.4 302.8,239.6 302.8,239.8 302.6,240.3"/>
    <polyline points="310.1,225.4 310.4,224.9"/>
    <polyline points="310.4,224.9 310.9,224.2 311.3,223.7 311.6,223.2 312.0,222.8"/>
    <polyline points="309.3,226.7 309.5,226.4 309.6,226.3 309.6,226.2 309.8,225.9 309.9,225.7 310.0,225.5"/>
    <polyline points="310.0,225.5 310.1,225.4"/>
    <polyline points="308.3,228.2 308.0,228.8 307.6,229.4 307.2,230.3 306.8,231.1 306.5,231.7 306.1,232.6 305.7,233.5 305.3,234.3 304.7,235.5"/>
    <polyline points="310.6,224.9 310.2,225.4"/>
    <polyline points="310.2,225.4 310.0,225.7 309.3,226.7"/>
    <polyline points="312.9,221.8 313.2,221.5 313.3,221.4 313.7,221.1 313.9,220.9 314.1,220.7"/>
    <polyline points="312.4,222.7 312.6,222.5 312.8,222.2 313.0,221.9 313.2,221.7 313.4,221.5 313.6,221.3 314.1,220.7"/>
    <polyline points="312.2,222.9 311.7,223.4 311.3,223.9 311.0,224.3 310.6,224.9"/>
    <polyline points="314.1,220.7 314.6,220.2"/>
    <polyline points="351.2,184.5 350.8,185.0 350.2,185.6 349.5,186.3 349.0,186.8 347.4,188.4 345.2,190.5 344.0,191.7"/>
    <polyline points="338.4,197.4 341.9,194.0 343.6,192.3 344.5,191.4 345.3,190.6 346.8,189.2 347.5,188.5 349.2,186.8 351.5,184.6"/>
    <polyline points="351.5,184.6 353.3,182.8 355.7,180.5 355.8,180.3"/>
    <polyline points="344.0,191.7 343.8,191.9 343.5,192.1 343.2,192.4 342.8,192.7 342.2,193.2 341.7,193.7 340.9,194.4 340.1,195.1 339.1,196.0 338.6,196.4"/>
    <polyline points="338.1,197.1 338.8,196.5 339.3,196.0 340.0,195.4 340.7,194.8 341.1,194.4 341.9,193.7 342.4,193.3 342.9,192.8 344.0,191.7"/>
    <polyline points="355.8,180.3 356.9,179.3 357.9,178.3 358.5,177.8 359.1,177.1 359.6,176.6 360.0,176.1 360.5,175.6 361.1,174.9"/>
    <polyline points="355.5,180.1 356.4,179.4 357.2,178.7 357.9,178.1 358.4,177.5 359.0,177.0 359.3,176.7 359.8,176.2 360.3,175.6 361.0,174.9"/>
    <polyline points="351.2,184.5 353.0,182.6 355.4,180.3 355.5,180.1"/>
    <polyline points="302.9,277.4 303.6,277.9 304.3,278.4"/>
    <polyline points="289.7,267.4 289.8,267.1 290.2,266.3"/>
    <polyline points="292.2,262.3 292.7,261.2 293.0,260.3 293.3,259.5 293.4,259.0"/>
    <polyline points="308.7,281.0 306.7,279.8 304.8,278.7"/>
    <polyline points="292.2,262.3 291.6,263.6"/>
    <polyline points="287.0,273.9 287.4,273.1 288.6,270.4 288.8,269.9"/>
    <polyline points="285.5,276.2 286.2,275.1 286.7,274.2 287.3,273.1 288.5,270.4 288.8,269.7 289.1,268.7"/>
    <polyline points="293.3,273.7 293.3,274.2 293.2,275.0"/>
    <polyline points="292.9,275.8 293.3,275.3"/>
    <polyline points="293.5,273.7 293.5,274.5"/>
    <polyline points="286.2,275.3 286.9,274.3 287.6,273.1 289.1,269.8 290.8,266.5"/>
    <polyline points="293.7,273.7 293.7,274.1"/>
    <polyline points="288.9,272.1 288.9,272.2 288.8,272.4 288.7,272.6 288.6,273.1 288.5,273.5 288.4,273.7 288.3,274.0"/>
    <polyline points="287.9,274.3 288.0,274.1 288.1,273.9 288.6,273.1 288.9,272.7 289.0,272.4"/>
    <polyline points="293.0,273.8 293.1,274.0 293.1,274.3 293.1,274.7"/>
    <polyline points="289.2,272.1 289.0,272.4 288.3,274.0 288.1,274.4"/>
    <polyline points="287.9,274.3 287.9,274.3 288.9,272.1 288.9,272.0"/>
    <polyline points="292.9,274.1 293.0,274.4 293.1,274.7 293.0,275.4"/>
    <polyline points="289.6,270.6 289.9,270.2 290.2,269.9 290.9,269.1 291.4,268.4 291.7,267.9 291.9,267.5 292.1,266.8"/>
    <polyline points="294.5,272.7 293.3,275.3 293.1,275.8 292.8,276.2 292.5,276.4 292.1,276.6"/>
    <polyline points="292.1,276.6 291.7,276.7 291.4,276.7 290.9,276.7 290.6,276.7 290.1,276.6 289.5,276.4 289.0,276.3 288.6,276.1 288.2,275.8 287.9,275.5 287.8,275.1 287.7,274.8 287.8,274.5 287.9,274.3"/>
    <polyline points="288.1,274.4 288.0,274.7 288.0,275.1 288.2,275.5 288.6,275.8 288.8,276.0 289.2,276.2 289.9,276.4 290.7,276.5 291.0,276.6 291.4,276.6 291.7,276.5 291.9,276.5 292.2,276.4"/>
    <polyline points="292.2,276.4 292.7,276.1 292.9,275.8 293.0,275.4 293.2,275.0 293.5,274.5 293.7,274.1 293.9,273.6"/>
    <polyline points="146.7,375.0 144.9,375.4"/>
    <polyline points="564.3,141.9 565.3,140.6 565.7,140.1 566.1,139.6 566.5,139.1 567.3,138.1 567.8,137.4 568.3,136.8 568.5,136.6 568.7,136.2 569.0,135.9"/>
    <polyline points="567.8,137.4 567.9,137.3 567.9,137.2 568.0,137.1 568.1,137.0 568.4,136.4 568.5,136.2 568.6,136.1 568.7,136.0 568.7,135.9 568.8,135.8"/>
    <polyline points="292.9,273.8 293.1,274.0"/>
    <polyline points="293.1,273.7 293.3,274.2"/>
    <polyline points="325.6,236.3 321.8,236.5 320.0,236.7 318.9,236.8 316.8,237.1 316.0,237.3 315.4,237.3 314.8,237.4 314.1,237.4 311.1,237.4 309.2,237.4 308.7,237.4 308.2,237.5 307.1,237.6 306.4,237.7 305.8,237.8 305.5,237.9 305.1,238.1 304.4,238.5 303.8,238.8 303.2,239.3 302.8,239.6 302.4,240.0 300.0,243.9 299.6,244.5"/>
    <polyline points="501.0,292.8 499.5,292.5 487.7,289.6"/>
    <polyline points="512.9,295.6 512.6,295.5 509.0,294.6"/>
    <polyline points="299.6,244.5 298.9,245.8 298.2,247.2"/>
    <polyline points="350.3,245.6 349.7,245.4 348.2,244.7 345.2,242.9"/>
    <polyline points="367.5,251.6 366.9,250.4 366.3,249.5 366.0,249.1 365.5,248.5 365.1,248.2 364.7,247.9 364.3,247.7 363.6,247.5 363.1,247.4 361.4,247.2"/>
    <polyline points="420.3,291.7 420.2,291.8 420.0,292.0 419.8,292.2 419.6,292.3 419.3,292.6 418.2,293.2 415.4,294.9 413.5,296.0 411.4,297.2 409.3,298.4 406.1,300.0 405.7,300.1 403.7,301.2 401.3,302.3 399.1,303.4 397.1,304.4 394.8,305.6 393.8,306.1 392.8,306.6 391.7,307.1 390.6,307.6"/>
    <polyline points="157.6,373.9 160.1,373.4 162.2,373.0 164.2,372.4 166.2,371.8 169.3,370.9 170.6,370.5 171.3,370.4 172.1,370.3 172.7,370.2 173.6,370.2 174.7,370.3 175.5,370.5 179.2,371.3 180.3,371.5 181.8,371.8 183.6,372.1 185.8,372.4 189.1,372.9 190.3,373.0 190.8,373.1 191.7,373.3 192.6,373.6 194.4,374.0 195.3,374.1"/>
    <polyline points="315.7,218.9 317.6,217.1"/>
    <polyline points="333.0,202.6 333.4,202.2"/>
    <polyline points="333.0,202.6 332.6,202.9 332.2,203.2"/>
    <polyline points="332.2,203.2 330.4,204.9 328.2,207.0"/>
    <polyline points="319.9,214.8 321.1,213.7 323.4,211.4 324.5,210.4"/>
    <polyline points="330.8,204.3 331.3,203.8 333.1,202.1"/>
    <polyline points="316.6,218.2 317.6,217.2 317.9,217.0 318.0,216.8 318.0,216.6 318.0,216.3 317.9,216.1 317.8,215.8 317.6,215.6 317.3,215.3 317.0,215.0"/>
    <polyline points="426.1,274.4 422.3,273.5 421.4,273.3 420.8,273.1 420.3,273.1 419.7,273.0 419.3,273.0 419.0,273.0 418.7,273.0 418.2,273.0 417.4,273.1 416.5,273.2"/>
    <polyline points="525.2,371.4 525.6,370.8 525.7,370.5 525.8,370.2 525.9,370.0 526.0,369.6 526.2,369.2 526.3,368.9 526.3,368.6 526.4,368.5 526.5,368.2"/>
    <polyline points="530.3,361.8 530.7,360.8 530.9,360.5 531.0,360.2 531.1,359.8 531.3,359.5 531.4,359.1"/>
    <polyline points="530.2,361.9 530.2,362.0 530.1,362.2 530.0,362.4 530.0,362.6 529.9,362.8 529.9,363.1 529.8,363.3 529.8,363.5 529.8,363.6 529.7,363.8 529.7,364.0"/>
    <polyline points="526.7,370.1 526.5,370.2 526.4,370.3 526.2,370.4 525.9,370.6 525.6,370.8 525.4,370.9 525.2,371.0 525.1,371.1 525.0,371.2 524.9,371.4"/>
    <polyline points="526.4,370.1 526.4,369.9 526.4,369.7 526.5,369.5 526.5,369.2 526.6,369.0 526.7,368.7 526.8,368.4 526.9,368.2 527.0,368.0 527.4,367.2 527.6,367.0 527.9,366.4"/>
    <polyline points="522.4,317.7 522.8,318.6 523.0,319.3 523.3,320.1 523.5,320.8 523.8,321.7 524.0,322.3 524.2,323.1 524.6,324.4 525.1,325.8 525.3,326.5 525.6,327.5 525.8,328.0 525.8,328.1 525.9,328.4 526.1,329.1 526.2,329.5 526.5,330.3 526.6,330.8 526.8,331.7 527.0,332.1"/>
    <polyline points="526.4,370.4 526.7,370.1"/>
    <polyline points="525.7,369.5 524.6,371.5"/>
    <polyline points="525.1,370.9 524.9,371.4"/>
    <polyline points="524.9,371.4 524.8,371.6"/>
  </g>

  <!-- 지하철 역 -->
  <g>
    <circle cx="521.4" cy="314.2" r="3" fill="#dc2626" stroke="#fff" stroke-width="1"/>
    <circle cx="528.6" cy="364.9" r="3" fill="#dc2626" stroke="#fff" stroke-width="1"/>
    <circle cx="532.1" cy="355.7" r="3" fill="#dc2626" stroke="#fff" stroke-width="1"/>
    <circle cx="527.7" cy="334.3" r="3" fill="#dc2626" stroke="#fff" stroke-width="1"/>
    <circle cx="510.8" cy="295.1" r="3" fill="#dc2626" stroke="#fff" stroke-width="1"/>
    <circle cx="465.0" cy="284.0" r="3" fill="#dc2626" stroke="#fff" stroke-width="1"/>
    <circle cx="427.8" cy="274.8" r="3" fill="#dc2626" stroke="#fff" stroke-width="1"/>
    <circle cx="399.0" cy="271.5" r="3" fill="#dc2626" stroke="#fff" stroke-width="1"/>
    <circle cx="381.2" cy="260.3" r="3" fill="#dc2626" stroke="#fff" stroke-width="1"/>
    <circle cx="368.3" cy="252.9" r="3" fill="#dc2626" stroke="#fff" stroke-width="1"/>
    <circle cx="370.9" cy="315.5" r="3" fill="#dc2626" stroke="#fff" stroke-width="1"/>
    <circle cx="387.2" cy="309.1" r="3" fill="#dc2626" stroke="#fff" stroke-width="1"/>
    <circle cx="407.7" cy="299.1" r="3" fill="#dc2626" stroke="#fff" stroke-width="1"/>
    <circle cx="419.1" cy="246.8" r="3" fill="#dc2626" stroke="#fff" stroke-width="1"/>
    <circle cx="428.8" cy="260.1" r="3" fill="#dc2626" stroke="#fff" stroke-width="1"/>
    <circle cx="421.4" cy="289.2" r="3" fill="#dc2626" stroke="#fff" stroke-width="1"/>
    <circle cx="544.1" cy="376.3" r="3" fill="#dc2626" stroke="#fff" stroke-width="1"/>
    <circle cx="576.2" cy="381.6" r="3" fill="#dc2626" stroke="#fff" stroke-width="1"/>
    <circle cx="378.1" cy="235.7" r="3" fill="#dc2626" stroke="#fff" stroke-width="1"/>
    <circle cx="303.8" cy="237.0" r="3" fill="#dc2626" stroke="#fff" stroke-width="1"/>
    <circle cx="297.5" cy="248.5" r="3" fill="#dc2626" stroke="#fff" stroke-width="1"/>
    <circle cx="290.9" cy="265.0" r="3" fill="#dc2626" stroke="#fff" stroke-width="1"/>
    <circle cx="319.8" cy="289.4" r="3" fill="#dc2626" stroke="#fff" stroke-width="1"/>
    <circle cx="301.1" cy="275.7" r="3" fill="#dc2626" stroke="#fff" stroke-width="1"/>
    <circle cx="345.0" cy="225.1" r="3" fill="#dc2626" stroke="#fff" stroke-width="1"/>
    <circle cx="346.7" cy="243.8" r="3" fill="#dc2626" stroke="#fff" stroke-width="1"/>
    <circle cx="323.7" cy="236.4" r="3" fill="#dc2626" stroke="#fff" stroke-width="1"/>
    <circle cx="283.5" cy="280.8" r="3" fill="#dc2626" stroke="#fff" stroke-width="1"/>
    <circle cx="267.7" cy="294.4" r="3" fill="#dc2626" stroke="#fff" stroke-width="1"/>
    <circle cx="247.3" cy="310.0" r="3" fill="#dc2626" stroke="#fff" stroke-width="1"/>
    <circle cx="234.0" cy="328.4" r="3" fill="#dc2626" stroke="#fff" stroke-width="1"/>
    <circle cx="223.7" cy="343.6" r="3" fill="#dc2626" stroke="#fff" stroke-width="1"/>
    <circle cx="214.8" cy="356.3" r="3" fill="#dc2626" stroke="#fff" stroke-width="1"/>
    <circle cx="202.6" cy="372.3" r="3" fill="#dc2626" stroke="#fff" stroke-width="1"/>
    <circle cx="177.3" cy="371.0" r="3" fill="#dc2626" stroke="#fff" stroke-width="1"/>
    <circle cx="138.4" cy="375.9" r="3" fill="#dc2626" stroke="#fff" stroke-width="1"/>
    <circle cx="336.9" cy="198.6" r="3" fill="#dc2626" stroke="#fff" stroke-width="1"/>
    <circle cx="351.5" cy="139.7" r="3" fill="#dc2626" stroke="#fff" stroke-width="1"/>
    <circle cx="339.6" cy="128.4" r="3" fill="#dc2626" stroke="#fff" stroke-width="1"/>
    <circle cx="334.5" cy="103.8" r="3" fill="#dc2626" stroke="#fff" stroke-width="1"/>
    <circle cx="311.2" cy="105.5" r="3" fill="#dc2626" stroke="#fff" stroke-width="1"/>
    <circle cx="403.1" cy="225.4" r="3" fill="#dc2626" stroke="#fff" stroke-width="1"/>
    <circle cx="451.1" cy="280.6" r="3" fill="#dc2626" stroke="#fff" stroke-width="1"/>
    <circle cx="598.3" cy="385.9" r="3" fill="#dc2626" stroke="#fff" stroke-width="1"/>
    <circle cx="555.6" cy="292.4" r="3" fill="#dc2626" stroke="#fff" stroke-width="1"/>
    <circle cx="569.2" cy="285.0" r="3" fill="#dc2626" stroke="#fff" stroke-width="1"/>
    <circle cx="590.0" cy="279.2" r="3" fill="#dc2626" stroke="#fff" stroke-width="1"/>
    <circle cx="618.3" cy="268.4" r="3" fill="#dc2626" stroke="#fff" stroke-width="1"/>
    <circle cx="650.7" cy="268.6" r="3" fill="#dc2626" stroke="#fff" stroke-width="1"/>
    <circle cx="683.3" cy="263.6" r="3" fill="#dc2626" stroke="#fff" stroke-width="1"/>
    <circle cx="699.1" cy="286.4" r="3" fill="#dc2626" stroke="#fff" stroke-width="1"/>
    <circle cx="368.6" cy="163.8" r="3" fill="#dc2626" stroke="#fff" stroke-width="1"/>
    <circle cx="320.2" cy="216.5" r="3" fill="#dc2626" stroke="#fff" stroke-width="1"/>
    <circle cx="318.9" cy="216.0" r="3" fill="#dc2626" stroke="#fff" stroke-width="1"/>
    <circle cx="667.1" cy="261.0" r="3" fill="#dc2626" stroke="#fff" stroke-width="1"/>
    <circle cx="409.3" cy="274.6" r="3" fill="#dc2626" stroke="#fff" stroke-width="1"/>
    <circle cx="538.2" cy="300.5" r="3" fill="#dc2626" stroke="#fff" stroke-width="1"/>
    <circle cx="397.4" cy="241.4" r="3" fill="#dc2626" stroke="#fff" stroke-width="1"/>
    <circle cx="340.0" cy="304.9" r="3" fill="#dc2626" stroke="#fff" stroke-width="1"/>
    <circle cx="354.1" cy="313.4" r="3" fill="#dc2626" stroke="#fff" stroke-width="1"/>
    <circle cx="354.4" cy="181.5" r="3" fill="#dc2626" stroke="#fff" stroke-width="1"/>
    <circle cx="348.7" cy="292.4" r="3" fill="#dc2626" stroke="#fff" stroke-width="1"/>
    <circle cx="361.5" cy="279.0" r="3" fill="#dc2626" stroke="#fff" stroke-width="1"/>
    <circle cx="383.1" cy="255.0" r="3" fill="#dc2626" stroke="#fff" stroke-width="1"/>
    <circle cx="523.3" cy="262.8" r="3" fill="#dc2626" stroke="#fff" stroke-width="1"/>
    <circle cx="371.9" cy="267.2" r="3" fill="#dc2626" stroke="#fff" stroke-width="1"/>
    <circle cx="353.2" cy="354.9" r="3" fill="#dc2626" stroke="#fff" stroke-width="1"/>
    <circle cx="354.1" cy="317.3" r="3" fill="#dc2626" stroke="#fff" stroke-width="1"/>
    <circle cx="363.4" cy="327.2" r="3" fill="#dc2626" stroke="#fff" stroke-width="1"/>
    <circle cx="362.3" cy="340.2" r="3" fill="#dc2626" stroke="#fff" stroke-width="1"/>
    <circle cx="531.8" cy="315.9" r="3" fill="#dc2626" stroke="#fff" stroke-width="1"/>
    <circle cx="532.1" cy="280.8" r="3" fill="#dc2626" stroke="#fff" stroke-width="1"/>
  </g>
</svg>