<?xml version="1.0" encoding="UTF-8"?>
<svg width="800" height="600" xmlns="http://www.w3.org/2000/svg">
  <title>Budapest Subway Map</title>
  <rect width="100%" height="100%" fill="#f8f9fa"/>

  <!-- 지하철 선로 -->
  <g stroke="#2563eb" stroke-width="2" fill="none" opacity="0.8">
    <polyline points="769.8,388.7 768.8,388.5 767.4,388.2 764.4,387.3 762.0,386.7 760.5,386.3 758.3,385.9 756.4,385.5 754.4,385.2 751.8,384.6 748.2,383.7 743.9,382.6 728.8,377.1 727.7,376.7 721.6,374.6"/>
    <polyline points="579.1,79.3 575.6,76.9"/>
    <polyline points="569.3,75.3 570.0,75.5 570.1,75.5 570.3,75.6 570.5,75.6 570.6,75.7 570.8,75.7 571.1,75.8 571.3,75.9 571.5,76.0 571.6,76.1 571.6,76.1 571.8,76.2 574.1,77.9"/>
    <polyline points="566.5,75.4 567.0,75.7 567.2,75.8 567.3,75.9 567.5,76.0 567.6,76.0 568.1,76.2 569.8,76.9 570.0,77.0 570.2,77.1 570.4,77.2 570.9,77.5 571.0,77.6"/>
    <polyline points="573.9,75.1 575.1,75.8 576.1,76.4 576.1,76.4 576.3,76.5"/>
    <polyline points="574.7,75.3 575.2,75.6 575.4,75.6 575.5,75.7 575.6,75.8 575.8,75.9 576.4,76.3 576.5,76.4"/>
    <polyline points="575.4,77.1 575.3,77.0 572.2,74.8 571.7,74.5 571.0,74.0 569.7,73.1 569.6,73.0 567.9,71.8 567.6,71.6 567.3,71.5 567.1,71.4 566.8,71.3 566.5,71.3 566.3,71.3 566.1,71.2 565.8,71.2 565.5,71.3 565.2,71.3 564.9,71.4 564.6,71.5 564.4,71.7 564.2,71.8 564.0,72.0 563.9,72.1 563.8,72.3 563.7,72.5 563.7,72.7 563.7,72.9 563.7,73.1 563.8,73.3 563.9,73.4 564.0,73.6 564.2,73.8 564.5,74.0 565.5,74.7 566.5,75.4 570.1,77.9 570.3,78.0"/>
    <polyline points="568.1,76.2 568.7,76.5 568.8,76.6 568.9,76.6 569.1,76.7 569.2,76.8 570.5,77.7 570.6,77.8"/>
    <polyline points="565.5,74.7 566.0,75.1 566.1,75.1 566.2,75.2 566.3,75.3 566.3,75.4 566.5,75.6 566.7,75.9 566.8,76.0 566.9,76.1 567.0,76.2 567.1,76.2 567.5,76.6"/>
    <polyline points="563.6,74.1 565.5,75.5 565.6,75.5 565.8,75.6 565.9,75.7 566.0,75.8 566.5,76.2"/>
    <polyline points="579.3,79.2 575.8,76.8"/>
    <polyline points="571.5,72.8 572.0,73.1 572.1,73.2 572.3,73.3 572.4,73.3 572.6,73.4 572.8,73.5 573.0,73.6 573.2,73.7 573.3,73.8 575.1,75.0 575.2,75.1 575.3,75.1 575.4,75.2 575.6,75.3 576.2,75.5"/>
    <polyline points="562.8,71.1 563.4,73.3 563.4,73.5 563.5,73.6 563.6,73.7 563.7,73.9 563.9,74.0 564.0,74.1 564.7,74.6 567.5,76.6 569.1,77.7 569.8,78.2 569.9,78.2"/>
    <polyline points="569.5,71.4 569.9,71.7 570.0,71.8 570.1,71.9 570.2,72.0 570.3,72.1 570.4,72.3 570.5,72.4 570.6,72.5 570.6,72.8 570.7,72.9 570.8,73.1 570.9,73.4 571.1,73.5 571.3,73.8 571.6,74.0 571.7,74.0 571.9,74.1 572.0,74.2 572.1,74.2 572.7,74.5"/>
    <polyline points="568.7,70.9 568.1,70.7 567.9,70.6 567.8,70.6 567.7,70.5 567.5,70.5 566.4,70.3"/>
    <polyline points="572.8,74.6 573.3,74.8 573.4,74.8 573.5,74.9 573.6,75.0 573.7,75.0 573.9,75.1 575.9,76.6 576.1,76.7"/>
    <polyline points="567.1,76.8 566.5,76.2 565.7,75.4 565.5,75.3 565.4,75.2 565.3,75.1 565.2,75.0 564.7,74.6"/>
    <polyline points="567.2,70.3 568.7,70.9 568.9,71.0 569.2,71.2 569.5,71.4 571.4,72.7 571.5,72.8 574.0,74.5 574.1,74.6 574.3,74.7 574.4,74.8 574.6,74.9 574.8,75.0 575.0,75.0 576.2,75.5 576.3,75.6 576.5,75.7 576.7,75.8 576.8,75.9 576.9,75.9 577.1,76.0"/>
    <polyline points="571.7,75.8 572.3,76.1 572.4,76.1 572.5,76.2 572.7,76.3 572.8,76.4 574.4,77.5 574.5,77.6"/>
    <polyline points="566.4,70.6 564.7,70.3 564.4,70.3 564.1,70.3 563.8,70.2 563.5,70.2 562.9,70.2"/>
    <polyline points="569.7,73.1 570.2,73.4 570.4,73.5 570.5,73.6 570.6,73.6 570.8,73.7 572.1,74.2 572.7,74.5 572.8,74.6 574.0,75.0 574.2,75.1 574.4,75.2 574.7,75.3 575.9,75.8 576.1,75.9 576.3,76.0 576.5,76.1 576.6,76.2 576.7,76.2"/>
    <polyline points="572.2,74.8 572.6,75.2 572.8,75.3 572.9,75.4 573.0,75.5 573.1,75.6 573.2,75.7 573.3,75.8 573.4,75.9 573.5,76.0 573.6,76.1 574.1,76.5"/>
    <polyline points="564.5,74.0 565.0,74.3 565.1,74.4 565.3,74.4 565.4,74.5 565.6,74.6 565.7,74.7 565.9,74.7 566.1,74.8 566.3,74.8 566.5,74.9 566.7,74.9 568.5,75.2 569.3,75.3 571.1,75.6 571.3,75.7 571.5,75.8 571.7,75.8 573.1,76.4 573.2,76.4 573.4,76.5 573.5,76.6 573.7,76.7 574.2,77.0"/>
    <polyline points="739.7,180.1 741.1,179.9 741.8,179.8 742.4,179.7 743.1,179.6 743.7,179.5 744.5,179.3 745.1,179.3 745.8,179.2 752.8,178.4"/>
    <polyline points="155.8,193.6 154.6,190.6 153.6,186.6 153.2,184.9 153.0,184.1"/>
    <polyline points="711.8,184.3 714.6,184.0 718.9,183.2 724.7,182.0"/>
    <polyline points="742.2,179.2 743.4,179.1 744.1,179.0 744.7,179.0 745.2,179.0 745.7,179.0 746.4,178.9 747.5,178.8"/>
    <polyline points="752.8,178.4 751.2,178.5 750.5,178.5 749.9,178.6 748.7,178.7"/>
    <polyline points="471.6,102.6 454.1,114.0 445.5,119.5 430.9,129.0 425.9,132.2 424.0,133.4 413.3,140.4 407.6,144.2 407.1,144.5 392.2,154.1 388.4,156.6 386.3,157.9 384.4,159.3 361.9,173.7 360.7,174.5 348.2,182.5 341.8,186.7"/>
    <polyline points="566.3,69.7 561.2,70.0 559.2,70.1 559.1,70.1"/>
    <polyline points="559.1,70.3 559.2,70.3 561.2,70.2 561.3,70.2 566.3,69.9"/>
    <polyline points="559.2,70.1 559.6,70.1 559.8,70.1 559.9,70.1 560.1,70.2 560.2,70.2 560.4,70.2 560.5,70.2 560.6,70.2 560.8,70.2 561.2,70.2"/>
    <polyline points="308.2,207.2 307.7,207.6 307.1,207.9"/>
    <polyline points="565.5,70.5 566.4,70.6"/>
    <polyline points="306.9,207.7 307.7,207.6 308.4,207.4"/>
    <polyline points="561.2,70.0 560.8,70.1 560.6,70.1 560.5,70.1 560.3,70.1 560.2,70.2 560.1,70.2 560.0,70.2 559.8,70.3 559.6,70.3 559.2,70.3"/>
    <polyline points="566.4,70.3 565.8,70.3 565.3,70.2 564.6,70.2 562.9,70.2 562.2,70.2 561.9,70.2 561.3,70.2"/>
    <polyline points="152.5,420.3 152.6,420.2 157.0,413.5 157.2,413.1 157.5,412.6 157.6,412.4 157.7,412.3 157.8,412.1 157.8,411.8 157.9,411.6 158.0,411.3 158.1,410.9 158.1,410.7 158.1,410.4 158.2,410.1 158.2,409.8"/>
    <polyline points="159.9,405.9 159.1,409.1 159.0,409.4 158.9,409.8 158.8,410.1 158.6,410.7 158.1,412.2 157.8,413.1 157.6,413.5 157.4,413.9 157.2,414.5 156.9,415.0 156.7,415.4 156.5,415.9 156.3,416.4 156.0,416.9 155.4,417.9 154.5,419.4 149.9,426.4 144.4,434.7 144.0,435.3"/>
    <polyline points="511.8,178.9 507.6,180.9 505.5,182.0 502.8,183.6"/>
    <polyline points="140.6,429.7 140.5,429.9 139.9,431.6 139.8,431.7 139.7,431.9 139.6,432.1 139.3,432.7"/>
    <polyline points="155.0,193.7 154.8,192.2 154.6,190.6"/>
    <polyline points="155.8,193.6 154.8,192.2 153.8,190.8"/>
    <polyline points="663.2,184.8 664.8,185.0 666.5,185.3"/>
    <polyline points="663.1,185.0 664.8,185.0 666.6,185.0"/>
    <polyline points="656.4,185.0 657.5,184.9 658.8,184.9 659.9,184.9 661.1,184.9 663.1,185.0 666.5,185.3 667.6,185.3 669.7,185.4 671.4,185.4 674.1,185.2 677.9,184.9"/>
    <polyline points="677.8,184.7 674.1,185.0 671.4,185.2 669.7,185.2 667.6,185.1 666.6,185.0 663.2,184.8 661.1,184.7 659.9,184.7 658.8,184.7 657.5,184.7 656.4,184.8"/>
    <polyline points="149.3,411.0 145.0,417.4 144.7,418.1 144.5,418.7 144.4,419.2 144.3,419.6 144.1,421.5 144.0,422.9 143.9,424.4 143.9,424.7 143.8,424.9 143.8,425.1 143.7,425.3 143.6,425.8"/>
    <polyline points="149.8,411.2 145.7,417.5 145.2,418.3 145.0,418.8 144.6,419.7 144.3,420.6 144.2,420.9 144.1,421.5"/>
    <polyline points="149.5,412.4 146.1,417.6 145.6,418.4 145.1,419.3 144.8,420.3 144.4,421.5 144.2,421.9 144.1,422.3 144.0,422.9"/>
    <polyline points="152.9,408.6 152.8,408.7 150.1,412.8 147.9,416.2 147.4,416.9 146.1,419.0 145.6,419.7 145.3,420.4 144.9,421.1 144.7,421.6 144.5,422.2 144.2,423.2 144.0,423.6 143.9,424.4"/>
    <polyline points="147.6,417.9 145.3,421.4 145.0,422.1 144.8,422.4 144.1,424.5"/>
    <polyline points="148.1,418.2 145.8,421.6"/>
    <polyline points="156.6,410.8 152.8,416.5"/>
    <polyline points="150.1,420.0 150.1,420.1 148.3,421.5"/>
    <polyline points="141.2,432.2 146.2,424.6"/>
    <polyline points="141.6,432.3 146.6,424.8"/>
    <polyline points="142.3,432.5 147.3,425.0"/>
    <polyline points="143.0,432.7 148.0,425.2"/>
    <polyline points="157.7,410.4 157.7,410.7 157.6,411.0 157.6,411.3 157.5,411.5 157.4,411.8 157.3,412.1 157.2,412.3 157.1,412.6 157.0,412.8 156.8,413.1 156.6,413.4 155.0,415.9 154.8,416.2 154.7,416.3 153.9,417.6 152.8,419.3"/>
    <polyline points="157.2,413.1 158.1,411.7 158.3,411.5 158.3,411.4 158.4,411.2 158.6,410.7"/>
    <polyline points="152.6,420.2 152.9,419.6 153.0,419.4 153.1,419.2 153.2,419.1 153.3,418.7 153.4,418.5 153.5,418.3 153.6,418.1 153.9,417.6"/>
    <polyline points="149.9,426.4 150.2,425.8 150.3,425.6 150.4,425.5 150.5,425.3 151.2,423.3 151.7,421.9 151.8,421.7 151.8,421.5 151.9,421.3 152.0,421.2 152.3,420.6"/>
    <polyline points="157.0,413.5 156.6,414.0 156.5,414.2 156.4,414.3 156.2,414.5 155.8,414.9 155.7,415.0 155.5,415.2 155.4,415.4 155.0,415.9"/>
    <polyline points="146.1,419.0 146.7,418.2 147.1,417.8 147.3,417.5 147.7,417.2 148.0,416.8 148.3,416.3 152.2,410.4 153.2,408.8 153.3,408.7"/>
    <polyline points="143.8,425.9 144.3,425.2 144.5,424.9 144.8,424.7 144.9,424.5 145.1,424.3 146.3,423.3 146.5,423.2"/>
    <polyline points="144.5,433.1 149.5,425.6"/>
    <polyline points="150.1,420.0 151.5,418.8 152.0,418.3 152.4,417.9 152.7,417.5 153.3,416.7"/>
    <polyline points="144.8,433.2 149.8,425.7"/>
    <polyline points="143.4,432.8 148.4,425.3"/>
    <polyline points="153.7,417.5 153.2,418.0 153.0,418.1 152.9,418.3 152.6,418.5 151.5,419.2 149.5,420.6 148.3,421.5 148.2,421.7 147.2,422.6 146.8,423.0 146.5,423.4 146.1,423.9 145.7,424.5"/>
    <polyline points="155.9,405.6 156.6,406.4 156.9,407.1 157.3,407.7 157.4,408.2"/>
    <polyline points="152.8,419.3 151.9,420.6 150.8,422.3 149.9,423.7 148.8,425.4"/>
    <polyline points="144.1,433.0 149.1,425.5"/>
    <polyline points="152.8,419.3 152.4,419.8 152.3,420.0 152.1,420.1 152.0,420.3 151.6,420.6 150.2,422.1 148.9,423.4 148.4,424.0 147.7,425.1"/>
    <polyline points="146.2,422.1 145.8,422.7 145.6,423.1 144.9,424.1 143.8,425.9 142.9,427.2 139.3,432.7 138.8,433.6"/>
    <polyline points="154.7,416.3 154.3,416.8 154.2,417.0 154.1,417.1 153.9,417.3 153.7,417.5 152.5,418.7 151.2,420.0 149.3,421.9 149.1,422.2 148.9,422.4 148.7,422.6 148.5,422.8 148.3,423.0 148.1,423.3 147.9,423.5 147.8,423.7 147.6,424.0 147.0,424.9"/>
    <polyline points="143.6,400.4 145.6,400.6 146.3,400.8 147.0,400.9 147.9,401.2 149.3,401.7 150.8,402.3 152.2,403.0 153.4,403.7 155.0,404.7 155.9,405.6"/>
    <polyline points="156.2,405.5 155.3,404.6 153.7,403.6 152.5,402.8 151.0,402.1 149.4,401.4 148.1,401.0 147.3,400.7 146.3,400.5 145.2,400.3 143.6,400.2"/>
    <polyline points="109.4,398.6 115.8,399.0 116.9,399.1 117.9,399.2 118.3,399.2"/>
    <polyline points="145.7,424.5 140.8,432.1"/>
    <polyline points="146.2,424.6 146.6,424.0 146.8,423.7 147.0,423.4 147.2,423.2 147.4,423.0 147.6,422.7 147.8,422.5 148.0,422.3 148.3,422.0 148.6,421.8 148.8,421.5 149.1,421.3 149.3,421.2 149.5,421.0 149.8,420.8 150.1,420.6 151.4,419.6 151.6,419.5 151.8,419.3 152.0,419.2 152.5,418.7"/>
    <polyline points="146.6,424.8 147.5,423.5 147.7,423.2 147.9,423.0 148.1,422.7 148.3,422.5 148.5,422.2 148.8,422.0 149.0,421.8 149.2,421.6 149.5,421.4 149.8,421.2 150.1,420.9 150.3,420.8 150.5,420.6 150.7,420.5 151.2,420.0"/>
    <polyline points="147.0,424.9 141.9,432.4"/>
    <polyline points="147.3,425.0 148.0,424.0 148.1,423.8 148.3,423.5 148.5,423.3 148.7,423.1 148.9,422.9 149.1,422.7 149.4,422.4 149.6,422.2 149.9,422.0 150.2,421.8 150.6,421.5 150.8,421.4 151.0,421.2 151.1,421.1 151.6,420.6"/>
    <polyline points="147.7,425.1 142.6,432.6"/>
    <polyline points="148.0,425.2 148.7,424.0 149.2,423.5 150.9,421.8"/>
    <polyline points="148.4,425.3 149.6,423.5 150.2,422.5 150.9,421.8 151.1,421.6 151.3,421.4 151.4,421.3 151.5,421.1 151.9,420.6"/>
    <polyline points="149.1,425.5 150.2,423.8 151.5,421.9 152.3,420.6 152.5,420.3"/>
    <polyline points="149.5,425.6 150.4,424.1 150.5,423.9 150.6,423.7 150.7,423.5 150.8,423.3 150.9,423.0 151.0,422.8 151.1,422.6 151.2,422.4 151.5,421.9"/>
    <polyline points="148.8,425.4 143.8,432.9"/>
    <polyline points="332.0,291.1 331.6,291.3 331.2,291.4 330.5,291.6 330.0,291.7 329.5,291.9 329.1,292.0"/>
    <polyline points="375.1,74.1 374.2,73.2"/>
    <polyline points="374.5,72.4 376.1,72.1"/>
    <polyline points="335.6,170.4 335.8,169.2 336.1,168.1 336.5,165.9 336.5,164.2 336.3,162.7 335.9,160.9 334.8,158.5 333.8,156.7 333.1,155.8 332.3,155.2 331.6,154.6 330.7,154.0 329.4,153.4 328.8,153.1 328.0,152.8 326.6,152.4 325.0,152.1 323.9,152.0 323.0,151.9 321.9,151.9 320.6,152.0 319.3,152.1 318.1,152.3 317.0,152.6 316.2,152.8 315.6,153.0 314.9,153.2 314.1,153.6 313.1,154.1 312.4,154.5 311.6,155.1 311.0,155.5 310.5,155.9 310.1,156.3 310.0,156.7 309.8,157.2 309.8,157.6 309.7,158.0 309.7,158.3 309.7,158.5 309.7,158.7 309.8,158.9 309.8,159.0 309.8,159.2 309.8,159.3 309.9,159.5 309.9,159.6 310.0,159.8 310.0,160.0 310.1,160.2 310.2,160.4 310.2,160.5 310.3,160.7 310.4,160.9 310.5,161.1 310.6,161.3 310.7,161.5 310.8,161.8 311.0,162.0 311.2,162.4 311.4,162.7 311.6,163.0 311.7,163.3 312.8,165.1 315.5,169.6 318.2,174.1 322.8,182.2"/>
    <polyline points="329.3,193.2 329.0,192.8 328.8,192.6 328.6,192.3 328.4,192.1 328.2,191.9 327.9,191.6 327.7,191.4 327.5,191.0 327.3,190.8 327.1,190.5 326.8,190.1"/>
    <polyline points="326.8,190.1 327.0,190.6 327.1,190.8 327.2,191.1 327.2,191.4 327.3,191.7 327.3,191.9 327.3,192.1 327.3,192.3 327.3,192.5 327.3,192.8 327.4,193.1 327.4,193.3 327.5,193.6"/>
    <polyline points="335.0,188.5 334.7,189.0 334.5,189.6 334.3,190.3 334.1,190.9 333.9,191.4 333.6,191.9 333.4,192.7"/>
    <polyline points="152.0,184.2 152.7,187.1 153.8,190.8 155.0,193.7"/>
    <polyline points="153.0,184.1 152.0,179.7 149.2,170.6 145.6,162.5 145.2,157.1 146.5,151.7 148.9,148.6 152.4,146.3 155.5,144.8 166.3,139.3 168.8,138.2 171.0,137.3 173.9,136.5 175.8,136.0 178.2,135.4 181.1,135.0 184.5,134.6 188.5,134.7 192.4,135.0 196.1,135.3 199.4,135.8 202.4,136.2 206.4,137.2 210.8,138.5 214.7,139.8 220.5,141.8 228.5,144.7 235.8,147.4 236.7,147.7 236.9,147.8 239.3,148.3 244.8,149.4 250.8,150.2 271.1,152.5 272.8,152.7 281.6,153.7 286.6,154.3 292.4,155.3 297.4,156.5 301.4,157.7 304.3,158.9 304.8,159.2 305.5,159.7 306.2,160.2 306.9,160.7 307.6,161.3 308.2,161.8 308.7,162.2 309.1,162.7 309.7,163.3 310.3,163.9 310.7,164.4 311.0,164.8 311.3,165.2 311.6,165.6 311.9,166.1 312.6,167.1 313.2,168.1 313.6,168.8 322.7,184.1 323.5,185.4 324.1,186.6 325.1,188.5 325.8,189.9 326.3,191.0 327.5,193.6 327.7,194.1 330.3,199.7 331.7,202.7 332.3,204.3 333.1,205.9 333.6,206.9"/>
  </g>

  <!-- 지하철 역 -->
  <g>
    <circle cx="558.6" cy="70.3" r="3" fill="#dc2626" stroke="#fff" stroke-width="1"/>
    <circle cx="499.9" cy="82.9" r="3" fill="#dc2626" stroke="#fff" stroke-width="1"/>
    <circle cx="472.3" cy="102.3" r="3" fill="#dc2626" stroke="#fff" stroke-width="1"/>
    <circle cx="446.3" cy="119.1" r="3" fill="#dc2626" stroke="#fff" stroke-width="1"/>
    <circle cx="426.7" cy="131.8" r="3" fill="#dc2626" stroke="#fff" stroke-width="1"/>
    <circle cx="408.2" cy="143.8" r="3" fill="#dc2626" stroke="#fff" stroke-width="1"/>
    <circle cx="387.3" cy="157.4" r="3" fill="#dc2626" stroke="#fff" stroke-width="1"/>
    <circle cx="725.6" cy="376.2" r="3" fill="#dc2626" stroke="#fff" stroke-width="1"/>
    <circle cx="681.0" cy="360.4" r="3" fill="#dc2626" stroke="#fff" stroke-width="1"/>
    <circle cx="614.6" cy="334.0" r="3" fill="#dc2626" stroke="#fff" stroke-width="1"/>
    <circle cx="556.0" cy="313.9" r="3" fill="#dc2626" stroke="#fff" stroke-width="1"/>
    <circle cx="479.3" cy="286.6" r="3" fill="#dc2626" stroke="#fff" stroke-width="1"/>
    <circle cx="441.4" cy="274.5" r="3" fill="#dc2626" stroke="#fff" stroke-width="1"/>
    <circle cx="346.5" cy="231.8" r="3" fill="#dc2626" stroke="#fff" stroke-width="1"/>
    <circle cx="309.9" cy="206.7" r="3" fill="#dc2626" stroke="#fff" stroke-width="1"/>
    <circle cx="340.9" cy="187.4" r="3" fill="#dc2626" stroke="#fff" stroke-width="1"/>
    <circle cx="362.8" cy="173.3" r="3" fill="#dc2626" stroke="#fff" stroke-width="1"/>
    <circle cx="336.3" cy="162.6" r="3" fill="#dc2626" stroke="#fff" stroke-width="1"/>
    <circle cx="347.7" cy="120.0" r="3" fill="#dc2626" stroke="#fff" stroke-width="1"/>
    <circle cx="372.7" cy="78.3" r="3" fill="#dc2626" stroke="#fff" stroke-width="1"/>
    <circle cx="124.5" cy="399.2" r="3" fill="#dc2626" stroke="#fff" stroke-width="1"/>
    <circle cx="203.0" cy="395.0" r="3" fill="#dc2626" stroke="#fff" stroke-width="1"/>
    <circle cx="284.5" cy="346.3" r="3" fill="#dc2626" stroke="#fff" stroke-width="1"/>
    <circle cx="292.0" cy="324.2" r="3" fill="#dc2626" stroke="#fff" stroke-width="1"/>
    <circle cx="335.6" cy="288.7" r="3" fill="#dc2626" stroke="#fff" stroke-width="1"/>
    <circle cx="377.5" cy="247.2" r="3" fill="#dc2626" stroke="#fff" stroke-width="1"/>
    <circle cx="442.7" cy="230.2" r="3" fill="#dc2626" stroke="#fff" stroke-width="1"/>
    <circle cx="477.0" cy="211.7" r="3" fill="#dc2626" stroke="#fff" stroke-width="1"/>
    <circle cx="737.0" cy="179.9" r="3" fill="#dc2626" stroke="#fff" stroke-width="1"/>
    <circle cx="651.7" cy="185.3" r="3" fill="#dc2626" stroke="#fff" stroke-width="1"/>
    <circle cx="506.0" cy="189.3" r="3" fill="#dc2626" stroke="#fff" stroke-width="1"/>
    <circle cx="379.5" cy="218.0" r="3" fill="#dc2626" stroke="#fff" stroke-width="1"/>
    <circle cx="329.9" cy="196.7" r="3" fill="#dc2626" stroke="#fff" stroke-width="1"/>
    <circle cx="277.1" cy="152.9" r="3" fill="#dc2626" stroke="#fff" stroke-width="1"/>
    <circle cx="232.9" cy="146.0" r="3" fill="#dc2626" stroke="#fff" stroke-width="1"/>
    <circle cx="162.4" cy="140.9" r="3" fill="#dc2626" stroke="#fff" stroke-width="1"/>
    <circle cx="151.9" cy="181.6" r="3" fill="#dc2626" stroke="#fff" stroke-width="1"/>
    <circle cx="355.1" cy="269.1" r="3" fill="#dc2626" stroke="#fff" stroke-width="1"/>
    <circle cx="429.2" cy="205.8" r="3" fill="#dc2626" stroke="#fff" stroke-width="1"/>
    <circle cx="378.1" cy="251.9" r="3" fill="#dc2626" stroke="#fff" stroke-width="1"/>
    <circle cx="500.2" cy="185.6" r="3" fill="#dc2626" stroke="#fff" stroke-width="1"/>
    <circle cx="334.6" cy="198.3" r="3" fill="#dc2626" stroke="#fff" stroke-width="1"/>
    <circle cx="331.0" cy="200.5" r="3" fill="#dc2626" stroke="#fff" stroke-width="1"/>
  </g>
</svg>