<?xml version="1.0" encoding="UTF-8"?>
<svg width="800" height="600" xmlns="http://www.w3.org/2000/svg">
  <title>Buenos Aires Subway Map</title>
  <rect width="100%" height="100%" fill="#f8f9fa"/>

  <!-- 지하철 선로 -->
  <g stroke="#2563eb" stroke-width="2" fill="none" opacity="0.8">
    <polyline points="310.8,367.9 301.7,373.2 300.6,373.9 299.6,374.7 298.9,375.4 297.8,376.5"/>
    <polyline points="622.5,265.3 621.2,265.4 611.7,266.0 610.7,266.1 608.7,266.2 606.8,266.2 604.9,266.3 588.5,266.9 587.2,267.0 584.8,267.2"/>
    <polyline points="498.9,268.2 498.5,269.5 498.2,270.5 497.8,271.6 497.6,272.3 496.7,275.0 496.2,276.8 496.1,277.6 496.1,278.4 496.5,282.3"/>
    <polyline points="252.1,204.3 250.6,202.9 250.1,202.4 249.1,201.5 248.5,201.0 247.9,200.8 247.2,200.6 242.2,199.7 237.9,198.9 235.8,198.4 235.0,198.1 229.5,195.2 217.2,188.8 210.3,185.7 209.5,185.2 207.7,184.0"/>
    <polyline points="317.5,330.6 304.2,334.8 299.4,336.1 294.5,337.2 291.2,338.0 283.9,339.6 279.1,340.5 269.5,342.5 268.4,342.8 265.1,343.5"/>
    <polyline points="619.4,279.0 617.7,279.4 616.8,279.7 615.9,280.0 615.2,280.4 613.3,281.8"/>
    <polyline points="366.7,315.3 364.5,316.0"/>
    <polyline points="360.4,317.4 360.6,317.3 361.8,316.9 362.6,316.7 363.1,316.5 363.7,316.3 364.3,316.1 364.5,316.0"/>
    <polyline points="294.8,132.4 295.8,133.2"/>
    <polyline points="613.3,281.8 611.7,283.0 610.4,283.9 608.9,285.0 608.2,285.4 603.1,289.0 598.0,292.7 597.5,293.2 584.1,306.3 584.1,306.4 584.1,307.3"/>
    <polyline points="495.3,364.3 492.8,364.7 492.2,364.7 490.4,365.0 489.9,365.0 488.7,364.9 486.4,364.6 484.9,364.3 483.6,364.1 482.4,364.0 480.9,364.1 479.7,364.4 479.1,364.7 478.7,364.9 478.2,365.2 477.5,365.6 476.7,366.2 475.9,367.2 473.6,371.6 472.7,373.2"/>
    <polyline points="585.0,334.4 584.8,331.5 584.7,330.8 584.6,329.1 584.2,327.7 583.5,325.8 582.3,323.7 581.0,322.1 579.2,320.7 577.8,319.9 575.6,319.4 573.8,319.2 572.6,319.1 570.7,319.2 566.7,319.3"/>
    <polyline points="584.1,307.3 584.2,315.6 584.1,315.9 583.9,316.3 583.3,316.7 582.6,317.0 582.0,317.2 580.4,317.7 575.8,318.6 573.5,319.1"/>
    <polyline points="566.8,319.3 568.1,319.1 570.7,318.9 572.5,318.8"/>
    <polyline points="573.5,319.1 572.4,319.3 570.7,319.3 568.1,319.4 566.7,319.3"/>
    <polyline points="497.7,368.8 490.8,368.7 490.2,368.7 485.8,368.7 484.1,368.4 482.8,368.0"/>
    <polyline points="475.9,367.2 476.7,366.8 477.5,366.5 478.0,366.4 479.0,366.6 480.8,367.3 482.8,368.0 483.9,368.1 484.6,368.2 485.3,368.2 495.9,368.4 496.4,368.4 497.0,368.3 497.6,368.1 498.0,367.7 498.2,367.3 498.2,367.0 497.9,364.9 497.9,364.6 498.1,364.3 498.4,364.1 498.9,363.9"/>
    <polyline points="320.9,220.9 306.7,217.3 305.3,216.9 304.2,216.7 303.1,216.6 300.4,216.9 297.6,216.8 296.2,216.4 284.4,213.2 283.5,213.1 280.7,212.3 279.0,211.9 278.3,211.6 276.6,211.2 269.7,209.4 264.5,208.2 260.5,207.2 255.3,205.9 254.5,205.7 253.6,205.4 253.1,205.1 252.1,204.3"/>
    <polyline points="543.8,269.2 541.7,269.2 531.6,269.4 519.9,269.7 505.1,270.0 499.6,269.6 498.4,269.5 494.0,269.1 486.4,268.4 483.7,268.2 480.5,268.0 477.4,268.1 475.6,268.2 470.9,268.4 466.2,268.1 462.1,267.4 458.1,266.9 450.9,266.2 443.6,265.7 437.0,265.2 428.9,264.5 421.0,263.9 410.3,263.1 405.7,262.7 404.0,262.6 402.3,262.3 398.3,261.3 393.5,260.1 389.0,258.9 380.7,256.7 379.6,256.4 379.1,256.1 378.3,255.6 376.5,254.3 376.1,254.0 372.7,251.6 357.2,240.3 353.8,237.9 348.2,233.7 342.2,229.3 339.5,227.2 336.9,225.5 335.1,224.9 329.5,223.4 320.9,220.9"/>
    <polyline points="584.8,267.2 582.7,267.3 581.5,267.2 571.1,267.7 564.0,268.1 561.1,268.2 552.0,268.8 547.3,269.1 545.7,269.1 543.8,269.2"/>
    <polyline points="412.6,299.3 408.4,300.8 404.2,302.3 389.5,307.3 387.8,307.9 383.1,309.7 379.0,311.1 373.1,313.2 370.9,314.0 370.5,314.2 370.3,314.2 370.1,314.3"/>
    <polyline points="492.9,283.8 492.1,283.6 491.2,283.4 490.4,283.4 489.9,283.5 489.3,283.6 488.8,283.8 488.5,284.0 486.9,285.2 486.2,285.5 485.8,285.7 485.3,285.8 484.6,285.9 481.8,286.0 480.2,286.0 479.6,286.0 476.5,286.2 471.2,286.5 462.3,287.0 452.2,287.6 447.4,288.0 443.1,288.8 441.0,289.4 424.6,295.2 416.3,298.0 412.6,299.3"/>
    <polyline points="370.1,314.3 369.5,314.5 369.0,314.6 366.6,315.4 364.9,315.9 359.6,317.8 356.8,318.7 352.6,320.0 349.5,320.9 346.1,322.0 344.2,322.5 336.2,325.0 332.1,326.2 325.1,328.3 317.5,330.6"/>
    <polyline points="426.4,196.5 428.2,197.3 428.8,197.7 431.5,199.1 433.9,200.3 440.1,203.6 440.8,203.9 442.6,204.8"/>
    <polyline points="396.9,335.0 387.3,336.1 378.3,337.2 377.6,337.3 377.3,337.5 371.7,340.9 368.3,342.9"/>
    <polyline points="368.3,342.9 367.4,343.4 367.1,343.7 366.9,344.0 366.6,344.6 365.6,347.3 365.1,348.4 365.0,348.8 364.7,349.3 364.2,349.6 358.0,353.3 351.9,356.4 349.3,357.3 346.5,357.9 344.2,358.3 340.9,358.2 338.6,358.1 336.8,358.1 334.6,358.1 333.1,358.1 331.7,358.2 330.4,358.4 329.4,358.5 328.6,358.7 327.5,359.0 326.6,359.3 325.7,359.7 324.1,360.3 321.9,361.4 319.2,362.8 316.8,364.1 310.8,367.9"/>
    <polyline points="496.5,282.3 497.0,288.2 498.0,291.5 501.0,299.2 501.7,300.9 503.2,304.4 505.5,309.4 507.9,315.8 509.6,321.1 511.5,327.2 512.3,330.4 513.2,333.4 514.0,336.8 514.4,338.6 514.9,341.0 515.5,343.4 515.9,344.8 516.1,345.1 517.6,347.9 519.2,351.0 520.5,353.9 521.4,355.7"/>
    <polyline points="521.4,355.7 522.0,357.0 522.3,357.6 522.3,358.2 522.3,358.3 522.2,358.8 521.9,359.4 521.7,359.6 521.4,359.9 521.0,360.2 520.2,360.5 519.2,360.7 498.9,363.9 495.3,364.3"/>
    <polyline points="423.6,332.2 421.6,332.4 419.5,332.5 417.6,332.7 407.3,333.8 396.9,335.0"/>
    <polyline points="460.4,328.0 458.4,328.2 456.0,328.3 441.2,330.0 427.3,331.6 425.4,332.0 423.6,332.2"/>
    <polyline points="566.7,319.3 563.9,319.5 548.4,320.3 534.5,320.9 530.7,321.2 526.5,321.6 516.8,322.5 508.0,323.4 503.2,323.8 497.0,324.4 483.0,325.7 473.2,326.6 469.5,326.9 465.6,327.4 462.3,327.8 460.4,328.0"/>
    <polyline points="393.9,187.4 395.0,187.8 405.0,191.2 410.4,192.5 423.8,195.6 424.7,195.9 426.4,196.5"/>
    <polyline points="507.9,243.9 508.2,244.3 508.4,244.7 508.6,245.1 508.7,245.4 508.8,245.9 508.8,246.2 508.8,246.8 508.8,247.3 508.6,248.5 508.6,249.0 508.6,249.4 508.6,249.9 508.8,250.8 509.1,251.6 509.6,252.5 510.4,253.4 512.0,254.4 513.6,255.0 515.5,255.4 518.1,255.6 520.4,255.8 520.9,255.8 522.4,255.9 523.9,256.0 525.9,256.0 542.4,255.7 544.0,255.6 545.9,255.6 555.6,255.1 557.7,255.2 561.3,255.9 569.5,259.1 570.6,259.6 572.0,260.7"/>
    <polyline points="316.6,151.8 323.9,158.4 324.5,158.9 325.0,159.2 327.9,160.7 330.0,161.6 332.1,162.5"/>
    <polyline points="572.0,260.7 573.8,262.0 575.2,263.1 575.5,263.4 576.0,263.7 583.1,267.0 584.6,267.5 586.2,268.2 588.3,269.0 592.2,270.6 610.7,278.2"/>
    <polyline points="392.8,187.0 376.7,180.5 370.3,177.9 359.5,173.6 343.1,167.1 334.1,163.3 332.1,162.5"/>
    <polyline points="525.9,222.7 522.3,224.5 518.5,226.6 518.1,227.1 516.6,229.5 514.1,233.3 511.5,237.6 509.2,242.0 507.6,245.2 503.9,254.5 500.9,261.9 499.6,265.9 498.9,268.1 498.9,268.2"/>
    <polyline points="601.9,234.2 605.9,236.2 610.6,238.5 611.7,239.1 611.7,239.2 612.2,239.6 612.8,240.0 613.5,240.8 616.7,245.3 617.7,246.9 618.9,248.8 620.2,250.7 620.6,251.3 621.2,252.0 621.4,252.3 621.5,252.5 622.3,255.2 623.3,258.4 623.3,258.5 623.4,258.8 624.3,265.4 624.5,267.0 625.2,273.3 625.3,274.3 625.2,275.0 625.0,275.7 624.8,276.3 624.5,276.7 624.0,277.1 623.4,277.5 622.3,278.2 621.7,278.4 621.2,278.6 619.4,279.0"/>
    <polyline points="585.3,334.1 585.2,332.1 585.2,331.7"/>
    <polyline points="585.4,331.7 585.3,332.1 585.4,334.1"/>
    <polyline points="207.9,183.9 209.7,185.1 210.5,185.5 217.2,188.7 229.6,195.1 235.0,198.0 235.9,198.4 237.9,198.8 242.3,199.6 247.2,200.5 248.0,200.7 248.6,200.9 249.2,201.4 250.2,202.3 250.9,202.8 252.3,204.1"/>
    <polyline points="252.3,204.1 253.4,205.0 253.8,205.3 254.5,205.6 255.3,205.8 260.5,207.1 264.6,208.1 269.7,209.3 276.7,211.1 278.4,211.6 279.2,211.7 280.9,212.1 283.6,212.9 284.4,213.2 296.2,216.3 297.7,216.6 300.4,216.8 303.1,216.6 304.2,216.6 305.4,216.8 306.8,217.2 318.0,220.1 318.9,220.3 320.9,220.9"/>
    <polyline points="584.7,266.9 587.2,266.8 588.5,266.8 604.9,266.2 606.7,266.1 608.7,266.0 610.6,265.9 611.7,265.9 621.2,265.3 622.5,265.3"/>
    <polyline points="320.9,220.9 329.6,223.3 335.1,224.9 337.0,225.4 339.5,227.1 342.3,229.2 348.3,233.7 353.9,237.9 357.3,240.3 372.8,251.5 374.2,252.6 376.2,254.0 378.4,255.6 379.1,256.1 379.3,256.2 379.7,256.3 380.0,256.4 380.9,256.6 393.6,260.0 398.3,261.2 402.4,262.3 404.0,262.5 405.8,262.7 410.3,263.0 421.0,263.9 428.9,264.4 437.0,265.1 443.6,265.6 450.9,266.2 458.1,266.8 462.2,267.4 466.2,268.0 470.9,268.3 475.6,268.1 477.4,268.1 480.5,268.0 483.8,268.1 486.4,268.2 494.0,269.0 498.4,269.4 500.2,269.5 501.3,269.6 505.1,269.9 519.9,269.7 531.6,269.3 538.8,269.2 541.7,269.1 543.8,269.1"/>
    <polyline points="543.8,269.1 545.7,269.0 547.3,269.0 552.0,268.7 561.1,268.1 564.0,268.0 571.1,267.6 581.8,267.1 582.7,267.0 584.7,266.9"/>
    <polyline points="207.7,184.0 206.5,183.3 205.9,182.8"/>
    <polyline points="206.0,182.8 206.7,183.2 207.9,183.9"/>
    <polyline points="264.9,343.2 268.2,342.5 269.5,342.4 283.9,339.5 291.1,337.9 294.4,337.1 299.4,336.0 304.1,334.7 317.4,330.6"/>
    <polyline points="412.5,299.2 420.8,296.4 424.5,295.1 441.0,289.4 443.0,288.7 447.4,287.9 452.1,287.5 462.3,286.9 471.1,286.4 476.5,286.1 484.5,285.7 485.1,285.6 485.5,285.5 486.4,285.1 486.8,284.9 487.3,284.4 487.9,283.8 488.5,283.2 489.1,282.9 489.8,282.6 490.3,282.5 490.8,282.5 491.4,282.5 491.9,282.6 492.8,282.8"/>
    <polyline points="317.4,330.6 325.0,328.2 332.1,326.2 336.2,325.0 344.1,322.5 346.0,321.9 349.5,320.8 352.6,319.9 356.7,318.6 359.4,317.6 364.7,315.8 366.5,315.3 368.2,314.7 368.8,314.5 369.4,314.3 369.9,314.1"/>
    <polyline points="497.4,284.2 498.5,284.6 498.9,284.7 499.6,284.8 500.4,284.8 509.3,284.5 514.8,284.1 521.0,283.8 523.1,283.7 529.8,283.2 541.6,282.6 544.4,282.4 546.5,282.3 551.7,282.2 559.4,282.2 559.8,282.2 560.1,282.3 561.2,282.9 561.7,283.0 562.3,283.1 563.4,283.0 565.2,282.9 577.2,282.3 579.6,282.2 582.1,282.0 589.0,281.7 594.6,281.4 608.9,280.6"/>
    <polyline points="369.9,314.1 370.2,314.0 370.5,313.9 370.8,313.9 371.2,313.8 372.4,313.3 378.9,311.1 383.0,309.6 387.7,307.8 389.4,307.2 404.1,302.2 407.8,300.9 408.3,300.7 412.5,299.2"/>
    <polyline points="617.8,280.4 617.2,280.4 616.6,280.3 615.9,280.2 615.2,280.0 614.7,279.8 612.7,279.0 611.8,278.7"/>
    <polyline points="265.1,343.5 262.9,344.0"/>
    <polyline points="264.9,343.2 262.8,343.6"/>
    <polyline points="571.8,260.9 570.4,259.8 569.9,259.4 569.5,259.1 561.2,256.0 557.7,255.3 555.6,255.2 545.9,255.7 544.0,255.7 542.4,255.8 525.9,256.0 525.7,256.0 523.9,256.1 522.4,256.0 518.0,255.7 515.4,255.5 513.5,255.1 512.0,254.5 510.3,253.5 509.5,252.6 509.0,251.7 508.6,250.8 508.4,249.9 508.4,249.4 508.4,248.9 508.5,248.5 508.7,247.2 508.6,246.7 508.6,246.2 508.5,245.9 508.4,245.5 508.3,245.1 508.1,244.8 507.9,244.4 507.6,244.1 506.4,242.6 505.4,241.3 505.0,240.9 504.4,240.3 503.6,239.8 499.7,238.3 494.0,234.6 492.6,233.6 483.3,226.9 481.7,226.0 477.5,223.8 475.4,222.8 461.0,215.3 453.9,211.5 445.0,206.4 444.3,206.0 442.4,205.0"/>
    <polyline points="442.4,205.0 440.6,204.0 440.0,203.6 433.8,200.3 431.5,199.1 428.8,197.8 428.0,197.5 426.2,196.7"/>
    <polyline points="426.2,196.7 424.5,195.9 423.7,195.7 410.3,192.6 404.9,191.3 394.9,187.8 393.9,187.4"/>
    <polyline points="332.0,162.6 329.9,161.7 327.8,160.8 324.8,159.3 324.4,159.0 323.8,158.5 316.4,151.8"/>
    <polyline points="316.4,151.8 304.1,140.3 303.6,139.9 298.1,135.3 297.0,134.5 295.5,133.3"/>
    <polyline points="610.6,278.3 592.1,270.7 588.2,269.1 586.1,268.3 584.2,267.5 576.0,263.8 575.4,263.4 574.6,262.9 573.6,262.1 572.4,261.3 571.8,260.9"/>
    <polyline points="332.0,162.6 334.0,163.4 343.0,167.2 359.4,173.7 370.2,178.0 376.6,180.6 392.8,187.0"/>
    <polyline points="295.5,133.3 294.5,132.5 294.1,132.2"/>
    <polyline points="295.8,133.2 297.3,134.5 298.1,135.2 303.7,139.8 304.2,140.3 316.6,151.8"/>
    <polyline points="280.8,120.6 287.5,127.1 294.1,132.2"/>
    <polyline points="281.0,120.6 287.3,126.8 290.9,129.5 294.8,132.4"/>
    <polyline points="585.2,331.7 585.4,330.4 585.4,330.4 585.6,329.5 586.3,327.4 588.9,323.8 589.6,322.8 590.1,321.9 590.1,321.7 590.0,321.3 589.8,320.8 589.7,320.4 589.6,320.1 589.6,319.8 589.5,319.6 589.5,319.2 589.5,318.9 589.4,318.4 589.5,317.7 589.4,317.0 588.7,307.2 587.4,293.4 587.3,291.5 587.1,284.3 587.0,283.3 586.9,282.0 586.8,280.5 586.8,279.8 586.6,276.1 586.5,273.1 586.4,272.2 586.5,271.9 586.5,271.6 586.7,271.4 587.0,271.0 587.4,270.7 587.8,270.5 588.2,270.3 588.5,270.3 588.9,270.2 589.3,270.1 591.8,270.0"/>
    <polyline points="591.8,270.1 589.3,270.2 589.0,270.2 588.5,270.3 588.2,270.4 587.8,270.5 587.5,270.8 587.1,271.0 586.8,271.4 586.6,271.7 586.6,271.9 586.5,272.2 586.7,276.1 587.1,282.0 587.2,284.3 587.4,289.8 587.5,291.5 587.6,293.1 587.6,293.4 588.9,307.2 589.0,308.5 589.6,317.0 589.6,317.7 589.6,318.4 589.6,318.9 589.6,319.2 589.7,319.6 589.7,319.8 589.7,320.0 589.8,320.4 589.9,320.7 590.1,321.3 590.2,321.7 590.2,322.1 589.8,322.8 589.1,323.8 586.4,327.5 585.8,329.6 585.7,330.0 585.4,331.7"/>
    <polyline points="591.8,270.0 593.8,269.9 594.0,269.9 594.2,269.9 594.4,269.8 594.9,269.7 595.4,269.5 595.8,269.2 596.1,268.9 596.2,268.5 596.2,267.7 596.0,265.0 596.1,264.3 596.0,261.6 595.9,260.0 595.3,250.5 595.0,247.5 594.8,246.8 594.8,245.7 594.8,245.2 595.0,244.8 595.4,244.0 596.8,242.8 598.8,240.9 602.8,237.8 609.8,232.5"/>
    <polyline points="609.9,232.6 602.9,237.8 599.0,240.9 596.9,242.8 595.6,244.1 595.2,244.9 594.9,245.3 594.9,245.7 594.9,246.8 595.1,247.5 595.5,250.5 596.0,260.0 596.1,261.6 596.2,264.3 596.2,265.0 596.3,267.7 596.3,268.5 596.2,268.9 595.9,269.3 595.5,269.5 595.0,269.7 594.4,269.9 594.3,269.9 594.1,269.9 593.8,270.0 591.8,270.1"/>
    <polyline points="460.3,327.7 462.3,327.5 465.6,327.2 469.5,326.9 473.2,326.5 483.0,325.6 497.0,324.3 503.1,323.8 508.0,323.3 516.8,322.5 526.5,321.5 530.7,321.1 534.5,320.9 548.4,320.2 563.9,319.4 566.8,319.3"/>
    <polyline points="423.4,331.9 425.4,331.7 427.3,331.5 441.2,329.9 456.0,328.2 458.3,327.9 460.3,327.7"/>
    <polyline points="396.8,334.9 407.3,333.8 417.5,332.6 419.4,332.4 421.6,332.1 423.4,331.9"/>
    <polyline points="368.2,342.8 371.6,340.8 377.2,337.5 377.6,337.3 378.3,337.2 387.3,336.1 396.8,334.9"/>
    <polyline points="310.6,367.9 316.8,364.0 319.1,362.7 321.8,361.3 324.0,360.3 325.6,359.6 326.6,359.2 327.4,359.0 328.6,358.7 329.3,358.5 330.4,358.3 331.7,358.1 333.1,358.1 334.6,358.0 336.8,358.0 338.6,358.1 340.9,358.1 344.2,358.2 346.5,357.9 349.3,357.2 351.8,356.3 357.9,353.2 364.1,349.6 364.6,349.2 364.8,348.8 364.9,348.7 365.1,348.3 366.5,344.6 366.7,344.0 366.9,343.7 367.0,343.6 367.3,343.4 368.2,342.8"/>
    <polyline points="297.6,376.5 298.8,375.3 299.5,374.6 300.5,373.8 301.6,373.1 310.6,367.9"/>
    <polyline points="572.5,318.8 574.1,318.7 575.8,318.5 580.3,317.6 581.9,317.1 582.6,316.9 583.2,316.7 583.8,316.3 584.0,315.9 584.1,315.6 584.0,307.3"/>
    <polyline points="619.4,278.9 621.1,278.4 622.1,278.0 623.1,277.4 623.7,277.0 624.2,276.6 624.5,276.2 624.7,275.7 624.9,275.0 624.9,274.3 624.9,273.3 624.0,267.1 623.8,265.5 623.1,258.8 623.0,258.4 621.0,252.5 620.8,252.1 620.2,251.4 619.8,250.8 617.3,247.0 616.2,245.4 613.1,241.0 612.5,240.3 612.0,239.8 611.4,239.4 610.3,238.8 601.6,234.4"/>
    <polyline points="472.4,373.2 473.4,371.4 474.0,370.2 475.6,367.1 476.5,366.0 477.3,365.4 477.9,365.1 478.4,364.8 478.9,364.5 479.8,364.2 480.8,363.9 482.4,363.8 483.7,363.9 484.9,364.1 486.5,364.4 488.8,364.7 490.5,364.7 492.1,364.6 494.5,364.3 495.3,364.1"/>
    <polyline points="495.3,364.1 499.3,363.6 519.0,360.5 520.0,360.3 520.7,360.1 521.1,359.8 521.4,359.5 521.6,359.2 521.9,358.7 522.0,358.2 521.9,357.6 521.7,357.1 521.1,355.7"/>
    <polyline points="521.1,355.7 520.3,353.9 519.1,351.0 517.4,347.9 516.0,345.2 515.8,344.8 515.4,343.4 514.8,341.0 514.2,338.6 513.8,336.8 513.1,333.4 512.2,330.4 511.4,327.2 509.4,321.2 507.8,315.8 505.3,309.4 503.1,304.4 501.5,301.0 500.8,299.2 497.9,291.5 496.9,288.2 496.2,282.3"/>
    <polyline points="496.2,282.3 496.0,279.1 495.9,278.4 495.9,277.6 496.0,276.8 496.6,275.0 497.5,272.3 497.7,271.6 498.4,269.5 498.7,268.2"/>
    <polyline points="498.7,268.2 500.7,261.9 503.7,254.4 507.4,245.2 509.0,242.0 511.3,237.6 513.9,233.2 516.5,229.5 517.9,227.1 518.5,226.5 522.2,224.5 525.4,222.9"/>
    <polyline points="549.8,209.4 548.3,211.1 545.5,214.2 542.5,216.0 534.2,219.2 530.4,220.7"/>
    <polyline points="622.3,281.6 621.8,281.5"/>
    <polyline points="621.8,281.3 622.4,281.3"/>
    <polyline points="628.0,265.0 627.2,265.0"/>
    <polyline points="627.2,264.8 628.0,264.8"/>
    <polyline points="585.4,334.1 585.4,334.4"/>
    <polyline points="585.3,334.4 585.3,334.1"/>
    <polyline points="619.6,281.0 619.3,280.9 618.9,280.8 618.6,280.8 618.3,280.7 618.0,280.7 616.9,280.5 616.5,280.5 615.8,280.3 615.1,280.1 614.5,279.9 612.6,279.1 611.8,278.8"/>
    <polyline points="296.9,377.4 297.6,376.5"/>
    <polyline points="297.8,376.5 297.0,377.4 296.7,377.8 296.1,378.9 295.8,379.6 294.4,383.0 294.0,383.8 292.5,386.3 289.5,390.6 286.6,394.0 286.4,394.5 286.3,395.0 286.4,395.4 286.6,396.2 287.0,397.2 288.0,398.9 288.4,399.3 289.1,399.8 290.3,400.5 290.9,401.0 291.4,401.6 291.5,402.0 291.6,402.3"/>
    <polyline points="528.0,221.9 525.9,222.7"/>
    <polyline points="530.4,220.7 528.0,221.9"/>
    <polyline points="525.4,222.9 525.9,222.6 527.9,221.9"/>
    <polyline points="525.4,222.9 525.9,222.7"/>
    <polyline points="527.9,221.9 530.4,220.7"/>
    <polyline points="496.4,362.2 495.8,361.9 495.2,361.7 494.3,361.8 493.5,361.9 487.9,362.6 487.6,362.7 478.5,363.8 477.5,364.2 476.7,364.7"/>
    <polyline points="475.6,367.1 476.7,364.7 477.4,364.1 478.4,363.5 494.1,361.5 495.0,361.5 495.6,361.6 496.0,361.8 496.4,362.2 497.1,362.9 497.7,363.3 498.5,363.5 499.3,363.6"/>
  </g>

  <!-- 지하철 역 -->
  <g>
    <circle cx="423.6" cy="332.0" r="3" fill="#dc2626" stroke="#fff" stroke-width="1"/>
    <circle cx="460.3" cy="327.9" r="3" fill="#dc2626" stroke="#fff" stroke-width="1"/>
    <circle cx="585.3" cy="333.2" r="3" fill="#dc2626" stroke="#fff" stroke-width="1"/>
    <circle cx="589.5" cy="318.8" r="3" fill="#dc2626" stroke="#fff" stroke-width="1"/>
    <circle cx="584.1" cy="307.3" r="3" fill="#dc2626" stroke="#fff" stroke-width="1"/>
    <circle cx="588.8" cy="307.2" r="3" fill="#dc2626" stroke="#fff" stroke-width="1"/>
    <circle cx="591.0" cy="270.0" r="3" fill="#dc2626" stroke="#fff" stroke-width="1"/>
    <circle cx="596.0" cy="261.6" r="3" fill="#dc2626" stroke="#fff" stroke-width="1"/>
    <circle cx="587.0" cy="281.8" r="3" fill="#dc2626" stroke="#fff" stroke-width="1"/>
    <circle cx="617.5" cy="247.0" r="3" fill="#dc2626" stroke="#fff" stroke-width="1"/>
    <circle cx="603.0" cy="234.9" r="3" fill="#dc2626" stroke="#fff" stroke-width="1"/>
    <circle cx="596.8" cy="242.8" r="3" fill="#dc2626" stroke="#fff" stroke-width="1"/>
    <circle cx="389.4" cy="307.3" r="3" fill="#dc2626" stroke="#fff" stroke-width="1"/>
    <circle cx="317.5" cy="330.6" r="3" fill="#dc2626" stroke="#fff" stroke-width="1"/>
    <circle cx="441.0" cy="289.4" r="3" fill="#dc2626" stroke="#fff" stroke-width="1"/>
    <circle cx="462.3" cy="286.9" r="3" fill="#dc2626" stroke="#fff" stroke-width="1"/>
    <circle cx="495.2" cy="283.9" r="3" fill="#dc2626" stroke="#fff" stroke-width="1"/>
    <circle cx="370.0" cy="314.2" r="3" fill="#dc2626" stroke="#fff" stroke-width="1"/>
    <circle cx="344.1" cy="322.5" r="3" fill="#dc2626" stroke="#fff" stroke-width="1"/>
    <circle cx="412.5" cy="299.3" r="3" fill="#dc2626" stroke="#fff" stroke-width="1"/>
    <circle cx="291.2" cy="337.9" r="3" fill="#dc2626" stroke="#fff" stroke-width="1"/>
    <circle cx="266.1" cy="343.1" r="3" fill="#dc2626" stroke="#fff" stroke-width="1"/>
    <circle cx="544.4" cy="282.5" r="3" fill="#dc2626" stroke="#fff" stroke-width="1"/>
    <circle cx="579.8" cy="282.2" r="3" fill="#dc2626" stroke="#fff" stroke-width="1"/>
    <circle cx="608.9" cy="280.7" r="3" fill="#dc2626" stroke="#fff" stroke-width="1"/>
    <circle cx="594.4" cy="281.4" r="3" fill="#dc2626" stroke="#fff" stroke-width="1"/>
    <circle cx="620.9" cy="281.3" r="3" fill="#dc2626" stroke="#fff" stroke-width="1"/>
    <circle cx="565.2" cy="283.0" r="3" fill="#dc2626" stroke="#fff" stroke-width="1"/>
    <circle cx="523.2" cy="283.6" r="3" fill="#dc2626" stroke="#fff" stroke-width="1"/>
    <circle cx="514.8" cy="284.3" r="3" fill="#dc2626" stroke="#fff" stroke-width="1"/>
    <circle cx="477.8" cy="223.9" r="3" fill="#dc2626" stroke="#fff" stroke-width="1"/>
    <circle cx="544.0" cy="255.7" r="3" fill="#dc2626" stroke="#fff" stroke-width="1"/>
    <circle cx="609.7" cy="277.8" r="3" fill="#dc2626" stroke="#fff" stroke-width="1"/>
    <circle cx="525.9" cy="256.0" r="3" fill="#dc2626" stroke="#fff" stroke-width="1"/>
    <circle cx="394.0" cy="187.4" r="3" fill="#dc2626" stroke="#fff" stroke-width="1"/>
    <circle cx="426.4" cy="196.6" r="3" fill="#dc2626" stroke="#fff" stroke-width="1"/>
    <circle cx="442.5" cy="204.9" r="3" fill="#dc2626" stroke="#fff" stroke-width="1"/>
    <circle cx="461.1" cy="215.3" r="3" fill="#dc2626" stroke="#fff" stroke-width="1"/>
    <circle cx="571.9" cy="260.7" r="3" fill="#dc2626" stroke="#fff" stroke-width="1"/>
    <circle cx="588.3" cy="269.1" r="3" fill="#dc2626" stroke="#fff" stroke-width="1"/>
    <circle cx="295.6" cy="133.2" r="3" fill="#dc2626" stroke="#fff" stroke-width="1"/>
    <circle cx="331.9" cy="162.4" r="3" fill="#dc2626" stroke="#fff" stroke-width="1"/>
    <circle cx="498.8" cy="268.2" r="3" fill="#dc2626" stroke="#fff" stroke-width="1"/>
    <circle cx="503.8" cy="254.5" r="3" fill="#dc2626" stroke="#fff" stroke-width="1"/>
    <circle cx="496.4" cy="282.3" r="3" fill="#dc2626" stroke="#fff" stroke-width="1"/>
    <circle cx="521.3" cy="355.7" r="3" fill="#dc2626" stroke="#fff" stroke-width="1"/>
    <circle cx="472.6" cy="373.2" r="3" fill="#dc2626" stroke="#fff" stroke-width="1"/>
    <circle cx="509.5" cy="321.1" r="3" fill="#dc2626" stroke="#fff" stroke-width="1"/>
    <circle cx="514.3" cy="338.6" r="3" fill="#dc2626" stroke="#fff" stroke-width="1"/>
    <circle cx="495.3" cy="364.2" r="3" fill="#dc2626" stroke="#fff" stroke-width="1"/>
    <circle cx="500.9" cy="299.2" r="3" fill="#dc2626" stroke="#fff" stroke-width="1"/>
    <circle cx="509.2" cy="241.9" r="3" fill="#dc2626" stroke="#fff" stroke-width="1"/>
    <circle cx="608.7" cy="266.1" r="3" fill="#dc2626" stroke="#fff" stroke-width="1"/>
    <circle cx="527.8" cy="221.9" r="3" fill="#dc2626" stroke="#fff" stroke-width="1"/>
    <circle cx="570.7" cy="319.1" r="3" fill="#dc2626" stroke="#fff" stroke-width="1"/>
    <circle cx="548.4" cy="320.2" r="3" fill="#dc2626" stroke="#fff" stroke-width="1"/>
    <circle cx="348.2" cy="233.7" r="3" fill="#dc2626" stroke="#fff" stroke-width="1"/>
    <circle cx="320.9" cy="220.9" r="3" fill="#dc2626" stroke="#fff" stroke-width="1"/>
    <circle cx="280.8" cy="212.2" r="3" fill="#dc2626" stroke="#fff" stroke-width="1"/>
    <circle cx="543.7" cy="269.1" r="3" fill="#dc2626" stroke="#fff" stroke-width="1"/>
    <circle cx="252.3" cy="204.2" r="3" fill="#dc2626" stroke="#fff" stroke-width="1"/>
    <circle cx="564.0" cy="268.0" r="3" fill="#dc2626" stroke="#fff" stroke-width="1"/>
    <circle cx="376.1" cy="254.0" r="3" fill="#dc2626" stroke="#fff" stroke-width="1"/>
    <circle cx="229.5" cy="195.2" r="3" fill="#dc2626" stroke="#fff" stroke-width="1"/>
    <circle cx="610.3" cy="283.9" r="3" fill="#dc2626" stroke="#fff" stroke-width="1"/>
    <circle cx="597.7" cy="292.9" r="3" fill="#dc2626" stroke="#fff" stroke-width="1"/>
    <circle cx="584.7" cy="267.0" r="3" fill="#dc2626" stroke="#fff" stroke-width="1"/>
    <circle cx="626.0" cy="265.0" r="3" fill="#dc2626" stroke="#fff" stroke-width="1"/>
    <circle cx="207.8" cy="184.0" r="3" fill="#dc2626" stroke="#fff" stroke-width="1"/>
    <circle cx="405.8" cy="262.7" r="3" fill="#dc2626" stroke="#fff" stroke-width="1"/>
    <circle cx="443.5" cy="265.6" r="3" fill="#dc2626" stroke="#fff" stroke-width="1"/>
    <circle cx="477.3" cy="268.1" r="3" fill="#dc2626" stroke="#fff" stroke-width="1"/>
    <circle cx="498.6" cy="269.5" r="3" fill="#dc2626" stroke="#fff" stroke-width="1"/>
    <circle cx="519.9" cy="269.7" r="3" fill="#dc2626" stroke="#fff" stroke-width="1"/>
    <circle cx="610.1" cy="232.4" r="3" fill="#dc2626" stroke="#fff" stroke-width="1"/>
    <circle cx="492.6" cy="233.5" r="3" fill="#dc2626" stroke="#fff" stroke-width="1"/>
    <circle cx="316.5" cy="151.8" r="3" fill="#dc2626" stroke="#fff" stroke-width="1"/>
    <circle cx="359.4" cy="173.6" r="3" fill="#dc2626" stroke="#fff" stroke-width="1"/>
    <circle cx="508.0" cy="323.3" r="3" fill="#dc2626" stroke="#fff" stroke-width="1"/>
    <circle cx="526.5" cy="321.5" r="3" fill="#dc2626" stroke="#fff" stroke-width="1"/>
    <circle cx="483.0" cy="325.7" r="3" fill="#dc2626" stroke="#fff" stroke-width="1"/>
    <circle cx="297.6" cy="376.6" r="3" fill="#dc2626" stroke="#fff" stroke-width="1"/>
    <circle cx="310.7" cy="367.9" r="3" fill="#dc2626" stroke="#fff" stroke-width="1"/>
    <circle cx="338.6" cy="358.1" r="3" fill="#dc2626" stroke="#fff" stroke-width="1"/>
    <circle cx="366.6" cy="344.6" r="3" fill="#dc2626" stroke="#fff" stroke-width="1"/>
    <circle cx="396.8" cy="335.0" r="3" fill="#dc2626" stroke="#fff" stroke-width="1"/>
    <circle cx="549.8" cy="209.4" r="3" fill="#dc2626" stroke="#fff" stroke-width="1"/>
    <circle cx="624.2" cy="267.0" r="3" fill="#dc2626" stroke="#fff" stroke-width="1"/>
    <circle cx="506.6" cy="242.5" r="3" fill="#dc2626" stroke="#fff" stroke-width="1"/>
  </g>
</svg>