<?xml version="1.0" encoding="UTF-8"?>
<svg width="800" height="600" viewBox="0 0 800 600" 
     xmlns="http://www.w3.org/2000/svg">
  <title>Busan Subway Map</title>
  <rect width="100%" height="100%" fill="#f8f9fa"/>

  <!-- 지하철 선로 -->
  <g id="subway-lines" stroke="#2563eb" stroke-width="3" fill="none">
    <polyline points="23.8,-256.5 21.4,-248.5 21.2,-247.7 16.9,-233.8 16.7,-233.0 14.4,-225.7 14.1,-224.9 13.5,-223.0 12.8,-219.7 12.3,-216.8 11.4,-214.3 10.8,-211.8 10.2,-209.4 10.0,-207.8 9.9,-206.9 9.9,-206.6 9.8,-205.7 9.8,-205.1 10.0,-202.8 10.1,-202.5 10.6,-200.4 11.4,-198.4 12.9,-195.1 13.2,-194.3 13.8,-193.0 14.6,-191.4 16.2,-187.7 16.9,-185.7 17.1,-184.7 17.3,-183.4 17.4,-181.1 17.3,-179.1 17.2,-177.8 17.2,-177.3 17.1,-173.9 17.1,-172.6 17.0,-169.9 17.0,-166.6 17.0,-165.0 17.4,-162.5 18.2,-158.0 19.8,-148.9 20.3,-146.2 20.5,-144.7 20.6,-144.5 20.7,-143.3 20.7,-141.9 20.8,-141.1 20.7,-138.5 20.4,-132.3 20.2,-124.6 19.5,-114.5 18.4,-103.8 18.4,-103.4 17.5,-97.1 17.5,-96.9 15.7,-87.7 15.3,-85.3 15.0,-84.7 12.7,-79.9 12.2,-78.8 11.7,-77.7 11.3,-76.9 11.0,-76.4 10.3,-74.8 9.0,-71.9 8.7,-71.4 7.6,-66.9 7.0,-64.5 5.7,-59.2 3.2,-49.5 2.7,-48.3 2.4,-47.8 -1.1,-42.0 -1.4,-41.5 -4.8,-36.6 -5.2,-35.3 -5.7,-34.0 -6.0,-31.9 -6.1,-31.7 -7.8,-20.6 -8.0,-18.7 -8.6,-15.1 -8.8,-13.8 -8.8,-12.8 -6.9,-3.4 -6.2,-1.3 -5.3,3.1 -5.1,4.4 -5.1,5.3 -5.3,6.6 -6.9,16.2 -7.6,20.4 -7.7,20.8 -7.9,22.1 -8.3,23.8 -8.6,24.5 -9.2,25.3 -10.0,26.0 -11.0,26.5 -13.7,27.7 -13.8,27.7 -14.8,28.0 -17.3,28.8 -17.5,28.9 -17.6,28.9 -18.3,29.2 -18.8,29.7 -19.6,31.2 -21.1,33.9 -22.0,35.7 -22.3,36.3 -27.1,45.6 -29.5,51.0 -31.3,54.7 -33.8,59.7 -36.0,64.5 -37.0,67.0 -37.2,67.5 -39.8,74.8 -42.1,81.9 -42.8,83.4 -43.5,84.5 -44.9,85.7 -51.0,89.2 -51.4,89.6 -51.8,90.1 -52.2,90.7 -52.5,91.6 -53.2,93.6 -54.7,98.3 -57.1,106.4 -57.7,108.3 -58.5,110.8 -59.5,114.2 -59.7,115.4 -60.1,117.7 -61.1,124.3 -61.8,129.1 -62.4,132.9 -63.2,138.0 -63.3,139.4 -64.3,145.8 -65.2,152.0 -65.8,155.9 -66.6,160.9 -71.8,187.5 -72.4,190.3 -73.0,193.7 -73.8,197.9 -74.1,199.6 -74.2,200.8 -74.2,201.8 -74.3,203.1 -74.3,204.4 -74.1,206.0 -73.7,207.8 -70.0,219.4 -67.1,228.5 -66.7,229.9 -66.3,230.8 -65.9,231.7 -61.0,239.8 -59.1,242.9 -57.9,244.9 -53.5,252.2 -53.0,253.1 -49.6,258.9 -48.2,260.9 -46.9,262.4 -46.1,263.4 -42.2,267.7 -38.1,272.5 -36.9,273.7 -33.1,278.0 -32.8,278.3 -32.4,278.7 -31.6,279.5 -27.8,282.3 -26.0,283.5 -24.2,284.9 -22.5,285.8 -21.3,286.2 -19.7,286.4 -18.3,286.4 -17.0,286.4 -14.5,286.1 -11.8,285.7 -9.6,285.4 -8.4,285.2 -5.5,284.8 -3.7,284.5 2.2,283.7 7.3,283.0 10.7,282.6 15.7,282.0 16.8,281.8 21.1,281.2 23.1,281.0 24.8,280.7 26.3,280.2 27.9,279.5 29.2,278.6 30.5,277.5 31.6,276.6 32.7,275.6 33.6,274.8 34.3,274.4 35.1,273.9 36.4,273.4 37.5,273.0 38.5,272.7 39.5,272.5 47.2,272.6 51.0,272.8 54.5,272.9 56.9,272.9 60.0,272.7 62.3,272.3 66.4,271.3 68.8,270.6 71.5,269.9 74.1,269.1 78.1,268.0 83.8,266.3 88.0,265.2 90.4,264.6 92.2,264.2 93.7,263.8 96.0,263.2 98.5,262.5 101.7,261.5 105.4,260.3 113.2,258.1 115.0,257.6 117.0,256.9 121.0,255.6 124.6,254.2 127.5,253.1 128.6,252.7 129.9,252.2 130.4,252.1 131.2,252.0 134.2,251.9 136.4,251.9 138.0,251.9 141.3,251.9 144.8,251.8 151.6,251.4 154.1,251.4 154.3,251.4 156.4,251.3 163.8,251.2 168.2,251.2" opacity="0.8"/>
    <polyline points="500.6,195.5 499.2,196.7 496.0,200.5 493.0,204.0 491.4,205.7 490.6,206.5 489.6,207.1 488.9,207.5 487.9,207.8 485.3,208.1 479.3,208.6 476.6,208.8 466.3,210.1 464.0,210.6 462.3,211.7 453.4,219.7 449.9,222.9 442.1,229.9 437.9,233.6 435.8,235.4 429.2,239.2 427.6,239.8 425.6,239.7 424.6,239.2 422.8,237.7 420.6,236.2 418.1,234.4 416.5,233.0 411.4,228.7 404.3,222.7 389.5,198.4 385.1,191.1 382.8,189.3 381.5,189.1 380.2,189.2 377.3,191.1 375.1,193.0" opacity="0.8"/>
    <polyline points="215.2,62.4 215.0,61.3 213.9,53.8 213.6,51.7 213.0,48.0 212.4,44.0 212.1,42.3 211.8,39.9 211.8,39.0 211.7,37.9 211.6,36.5 211.7,30.8 211.7,27.5 211.6,22.6 211.6,19.1 211.6,18.8 211.6,13.7 211.5,5.9 211.5,4.7 211.6,3.3 211.7,1.9 211.9,0.1 212.2,-1.3 212.5,-2.5 212.9,-4.1 213.3,-5.5 213.8,-6.5 215.7,-11.2 216.8,-13.5 216.8,-13.6 217.9,-16.5 218.6,-18.1 218.9,-18.7 219.3,-19.6 219.6,-20.0 220.0,-20.7 220.4,-21.4 221.1,-22.3 221.4,-22.7 222.3,-23.6 223.0,-24.4 223.8,-25.2 224.6,-25.9 225.3,-26.8 225.8,-27.4 226.2,-28.0 227.1,-29.4 227.8,-30.8 228.1,-31.4 229.7,-34.5 231.4,-37.9 233.1,-41.4 233.5,-42.3 233.7,-42.8 233.8,-43.0 235.5,-47.8 236.3,-50.2 236.4,-50.4 237.8,-54.3 238.7,-57.3 239.8,-60.4 240.6,-62.8 240.9,-63.7 241.4,-65.3 241.6,-66.4 242.1,-68.2 242.3,-69.3 242.4,-69.9 242.7,-71.7 242.9,-74.2 243.0,-75.2 243.1,-76.0 243.4,-80.2 243.8,-84.8 243.9,-85.9 244.0,-86.7 244.0,-87.5 244.0,-89.3 244.0,-90.3 243.9,-92.6 243.5,-95.6" opacity="0.8"/>
    <polyline points="243.8,-86.8 243.8,-85.7 243.3,-81.0 243.1,-78.4 242.9,-75.4 242.7,-73.8 242.7,-73.0 242.6,-72.1 242.5,-71.4 242.2,-69.8 241.9,-68.4 241.7,-67.3 241.4,-66.3 239.9,-61.4 237.9,-55.4 236.3,-50.5 236.2,-50.3 234.5,-45.4 233.6,-43.1 233.3,-42.2 232.7,-40.9 231.3,-37.9 230.4,-36.2 229.1,-33.8 227.7,-31.0 227.2,-30.0 226.7,-29.0 226.2,-28.2 225.6,-27.4 225.3,-27.0 224.8,-26.4 223.2,-24.9 222.9,-24.5 221.9,-23.5 221.2,-22.7 220.7,-22.1 220.3,-21.5 219.9,-20.8 219.3,-19.8 218.9,-19.2 218.4,-18.1 216.6,-13.7 216.6,-13.6 214.7,-9.2 213.7,-6.6 213.6,-6.4 213.0,-4.9 212.8,-4.0 212.4,-2.9 212.2,-2.0 212.1,-1.4 212.0,-0.7 211.8,0.5 211.6,1.4 211.5,2.3 211.4,4.5 211.4,6.0 211.5,13.3 211.5,18.8 211.5,19.1 211.5,24.7 211.5,27.5 211.6,30.8 211.5,36.9 211.5,37.8 211.6,38.9 211.7,39.9 211.8,40.6 212.0,41.8 213.0,48.6 215.1,62.4" opacity="0.8"/>
    <polyline points="375.1,193.0 372.1,195.8 368.0,199.4 362.1,204.5 358.1,207.8 356.6,209.2 356.5,209.2 355.0,210.5 351.7,212.6 351.0,213.0 348.9,213.4 346.6,212.4 344.3,210.6 340.9,207.1 340.7,206.8 339.7,205.8 336.5,201.2 332.9,200.4 330.5,200.0 326.2,202.3 322.0,204.3 321.2,204.9 320.5,205.8 320.0,207.2 319.8,208.6 318.9,214.7 318.7,216.5 318.5,217.9 317.6,225.0 316.7,231.9 315.3,242.7 314.5,250.4 314.2,251.5 308.0,289.3 303.4,314.1 302.8,317.9 302.1,320.1 301.3,321.4 298.7,325.6 293.9,332.9 291.8,335.5 284.8,340.9 284.5,341.2 284.2,341.4 277.0,347.3 274.9,348.8 273.4,349.7 270.0,351.9 265.2,355.4 258.9,357.7 253.0,358.7 252.2,358.8 247.8,359.0 247.4,359.0 239.2,359.7 233.2,360.1 230.3,360.7 224.0,361.2 222.1,361.5 219.2,362.0 215.8,364.0 213.6,365.4 212.3,365.6 210.9,365.2 209.5,364.5 204.0,360.1 199.0,356.3 196.7,354.5 195.1,353.1 193.8,352.2 192.2,351.5 190.2,350.8 189.0,350.6 187.5,350.4 185.5,350.2 184.2,350.1 183.5,349.8 182.8,349.4 181.7,348.4 180.9,347.4 180.2,345.9 179.6,343.6 179.0,341.4 178.5,339.8 177.9,337.4 177.7,336.2 177.4,334.4 177.2,332.9 177.1,331.5 177.0,329.5 176.9,327.9 176.8,319.6 176.8,313.9 176.8,311.5 176.7,308.4 176.6,302.9 176.6,301.7 176.5,300.2 176.3,299.1 176.1,298.2 175.9,297.3 174.7,294.0 173.9,291.8 173.2,288.9 173.0,287.4 172.9,285.5 172.8,283.5 172.7,274.7 172.7,266.9 172.7,264.4 172.8,262.5 172.9,259.9 173.0,258.0 173.1,256.5 173.0,255.4 172.9,254.4 172.6,253.4 172.4,252.8 172.1,252.1 171.7,251.7 171.3,251.4 170.8,251.2 169.8,251.1 168.2,251.2" opacity="0.8"/>
    <polyline points="3.1,-1.7 16.6,-7.0 28.7,-11.8 30.2,-12.2 31.9,-12.6 33.7,-12.6 39.0,-12.9 48.5,-13.5 49.8,-13.5 51.0,-13.4 52.7,-13.2 55.3,-13.1 58.3,-12.5 60.0,-12.0 61.8,-11.2 62.2,-11.0 63.8,-10.7 66.1,-10.8 69.0,-11.3 71.7,-12.0 75.4,-12.9 76.9,-13.1 78.2,-13.0 82.4,-12.7 85.4,-12.1 87.0,-11.8 89.3,-11.4 92.1,-11.1 93.6,-10.8 98.3,-11.9 104.7,-12.9 108.4,-12.5 110.6,-11.9 116.6,-10.2 161.8,1.7 167.7,4.1 174.3,7.0 176.6,8.0 179.3,9.3 180.1,9.6 181.4,10.3 181.9,10.6 182.7,11.2 183.1,11.7 183.4,12.2 183.8,13.1 184.0,13.5 184.1,13.8 184.1,14.0 184.1,14.4 184.1,14.9 184.0,15.3 183.9,15.8 183.3,17.2 182.6,18.8 181.5,21.8 178.0,29.9 176.9,32.5 175.0,37.0 173.0,41.7 171.8,44.9 171.3,46.4 171.1,47.4 171.0,48.4 171.0,49.7 171.3,51.8 171.8,54.3 172.4,57.2 174.6,67.9 175.3,71.1 178.7,88.7 179.0,90.6" opacity="0.8"/>
    <polyline points="179.0,90.6 179.1,91.5 179.4,92.2 179.8,92.7 180.8,92.9 182.0,92.9 182.5,93.0" opacity="0.8"/>
    <polyline points="182.5,93.0 182.9,93.1 183.7,93.5 184.5,94.1 188.1,96.8" opacity="0.8"/>
    <polyline points="188.1,96.8 190.2,98.4 194.3,101.6 195.5,102.7 196.1,103.1 196.7,103.5 198.3,104.6 199.0,105.0 200.2,105.8 201.7,106.4 204.5,107.4 204.7,107.5 206.6,108.2 208.1,108.9 210.3,110.2 215.0,113.0 217.2,114.4 217.3,114.4 218.3,115.0 219.1,115.5 220.0,116.2 220.6,116.7 221.2,117.4 221.6,117.9 221.9,118.5 222.5,119.5 223.5,123.1 223.7,124.0 225.2,130.2 225.6,131.9 225.8,132.9 225.9,133.2 227.3,138.0 227.9,140.6 229.3,145.8 229.4,146.1 229.4,146.4 230.5,150.6 230.9,151.8 231.6,154.6 231.9,155.5 232.3,157.3 232.4,157.4 233.4,161.2 233.6,162.1 233.7,162.3 233.8,162.6 234.4,165.4 235.0,167.2 235.7,169.1 236.2,169.9 236.7,170.5 237.2,170.8 237.5,171.0 238.5,171.4 247.6,173.3 252.6,174.3 255.5,174.8 257.8,175.3 262.1,176.2 262.8,176.4 265.3,176.9 269.8,177.7 276.3,177.9 278.1,177.9 278.8,178.0 279.2,177.9 281.1,178.0 283.5,178.9 288.5,180.9 297.7,184.6 298.7,185.0 300.5,185.7 302.1,186.4 303.4,187.0 304.3,187.7 309.3,193.3 316.9,201.7 317.0,201.8 317.5,202.3 317.8,202.6 317.9,202.7 318.9,203.9 319.5,204.7 319.7,205.2 319.9,205.7 320.1,207.2 320.0,208.1 318.9,214.7" opacity="0.8"/>
    <polyline points="154.3,262.7 154.3,261.7 154.3,259.5 154.2,255.6 154.3,254.5 154.4,253.2 154.6,251.8 154.7,251.4 154.8,250.7 155.2,249.8 155.4,249.2 155.6,248.6 155.9,248.1 156.4,246.9 163.7,232.6 164.7,230.3 165.7,228.2 169.2,221.0 174.7,209.8 179.0,201.0 181.3,196.1 183.1,192.6 184.1,190.7 185.5,187.9 186.4,186.2 188.1,182.7 190.4,178.0 194.0,171.0 195.9,167.2 197.0,164.6 199.1,160.6 200.8,157.0 202.0,154.5 203.7,151.0 205.5,147.2 205.9,146.5 207.2,144.2 209.5,139.8 210.5,137.3 210.9,136.4 212.2,134.0 212.6,133.0 214.2,129.9 216.2,126.0 217.2,123.9 218.8,120.8 219.3,119.7 219.9,118.4 220.1,117.8 220.3,117.1 220.4,116.6 220.5,116.3 220.5,115.5 220.5,114.8 220.3,113.2 220.2,112.1 218.1,98.7 216.3,87.4" opacity="0.8"/>
    <polyline points="514.3,185.6 505.7,191.8 501.4,194.8 500.6,195.5" opacity="0.8"/>
    <polyline points="-41.4,525.7 -38.3,524.6 -36.6,523.6 -33.8,521.6 -26.7,516.0 -22.5,512.2 -21.2,511.2 -21.0,510.9 -19.0,509.1 -15.3,505.8 -15.1,505.6 4.9,486.6 6.6,484.1 7.5,482.6 8.9,480.3 10.4,478.2 10.6,478.0 11.8,476.6 13.0,475.6 14.5,474.5 15.4,473.9 16.4,473.3 22.0,470.1 24.2,469.8 25.5,469.9 26.7,470.2 28.0,471.0 29.1,472.1 30.2,473.7 31.5,477.0 31.9,478.2 32.0,478.6 32.2,479.3 32.9,481.3 33.3,482.2 35.0,484.6 36.9,487.0 38.1,488.7 38.5,489.3 38.7,490.4 38.7,491.2 38.8,491.6 38.7,493.2 38.5,498.4 38.1,509.1 37.9,514.8 37.5,522.6 37.4,524.3 37.3,528.6 37.4,530.0 37.9,531.5 38.2,532.2 38.6,533.3 39.4,534.9 43.6,541.1 44.4,542.0 45.1,542.4 47.5,542.7 50.2,543.0 51.9,542.4 54.4,540.6 58.0,539.1 68.3,534.9 69.3,534.5 69.8,534.5 70.3,534.5 74.8,536.5 77.3,537.4 77.7,537.5 78.9,537.6 79.9,537.3 82.3,536.3 83.5,535.8 84.3,535.3 85.2,533.8 87.3,530.1 87.4,529.2 87.5,528.6 87.2,520.3 87.1,518.2 86.8,511.4 86.7,507.9 86.6,503.7 86.5,502.4 86.3,494.9 86.3,493.6 86.4,492.3 86.8,490.5 87.9,486.3 89.3,481.7 90.7,475.9 91.7,471.3 92.1,470.0 92.5,468.1 93.6,464.3 95.6,457.2 96.4,454.3 97.3,451.9 99.3,446.5 101.8,439.3 104.5,431.2 106.4,425.3 108.3,419.8 110.4,413.6 112.3,408.2 112.6,407.3 113.1,406.4 114.7,403.8 119.7,395.8 124.5,388.3 125.2,387.2 126.0,385.9 132.3,375.7 137.3,367.3 140.2,362.8 140.4,362.4 141.9,360.1 143.1,358.2 145.1,355.1 146.1,353.4 147.5,351.3 148.2,350.5 149.5,349.3 150.5,348.3 152.0,346.6 153.0,345.4 153.7,344.4 154.3,343.2 154.8,341.7 154.9,340.2 155.0,338.8 155.0,336.0 154.9,332.5 154.9,331.1 154.9,325.4 154.8,319.8 154.7,312.4 154.5,301.2 154.6,297.9 154.6,294.4 154.4,277.7 154.3,266.9 154.3,262.7" opacity="0.8"/>
    <polyline points="215.1,62.4 215.6,65.4 215.8,68.5 215.9,70.4 215.9,73.7 215.7,76.0 215.6,77.5 215.5,82.3 216.1,87.3 218.0,99.2 219.6,109.8 220.3,114.9 220.1,117.2 219.5,118.7 208.5,140.7 205.6,146.3 203.6,150.4 200.7,156.3 192.2,173.6 190.2,177.7 185.4,187.3 181.6,194.9 179.2,199.7 175.8,207.2 172.4,213.6 169.5,219.1 165.4,227.9 163.1,232.7 155.2,249.1 154.8,249.7 153.9,254.0 154.0,265.4 154.1,284.5 154.2,297.9 154.3,301.2 154.3,314.6 155.0,338.8 154.5,341.2 153.9,343.3 151.8,346.5 147.4,350.7 141.9,359.2 139.9,362.5 133.9,372.1 127.4,382.8 112.0,407.0 110.4,412.0 106.1,425.1 98.7,447.2 97.1,451.8 95.6,455.8 93.6,463.1 88.9,481.8 86.5,489.8 86.0,493.8 86.2,501.5 86.4,507.9 86.8,518.9 87.2,528.7 86.3,530.9 84.0,535.1 81.2,536.2 79.0,537.0 76.3,536.4 69.9,533.9 68.4,534.3 57.9,538.6 56.4,539.3 49.7,542.4 46.5,542.2 44.6,540.9 39.9,534.8 38.1,530.8 37.5,528.0 37.8,522.6 38.1,516.3 38.8,501.3 39.2,490.3 38.8,488.8 33.8,482.2 33.1,481.1 31.7,476.9 30.7,473.9 28.7,471.1 27.0,469.6 23.9,469.0 19.3,471.0 12.1,475.4 9.0,479.5 4.4,486.4 -8.9,498.5 -18.6,508.3 -21.3,510.8 -23.4,512.5 -30.8,518.7 -35.9,522.7 -38.3,524.2 -40.6,525.0 -46.3,527.6 -51.0,529.4 -60.0,530.3 -70.8,526.8 -75.4,525.3 -78.8,524.1 -80.5,523.2 -83.2,520.4 -87.8,515.8 -90.4,513.4 -95.2,510.7 -98.7,508.9 -101.9,507.2 -109.3,503.2 -111.8,501.4 -114.0,497.8 -114.6,496.7 -115.6,496.1 -118.7,496.0 -123.9,496.3 -129.4,496.2 -130.8,496.4 -132.2,496.9 -133.4,498.1 -134.8,500.3 -135.9,503.1 -136.6,505.2 -136.6,505.6 -137.2,510.5 -137.6,514.6 -137.7,517.4 -137.8,524.8 -137.8,530.9 -137.9,534.2" opacity="0.8"/>
    <polyline points="216.3,87.4 215.8,82.5 215.7,80.5 215.7,77.2 216.1,73.7 216.1,72.0 216.2,71.2 216.0,68.3 215.8,66.1 215.2,62.4" opacity="0.8"/>
  </g>

  <!-- 지하철 역 -->
  <g id="subway-stations">
    <circle cx="205.8" cy="146.4" r="4" fill="#dc2626" stroke="#fff" stroke-width="2"/>
    <text x="205.8" y="138.4" text-anchor="middle" font-size="10" fill="#374151">시청</text>
    <circle cx="190.3" cy="177.8" r="4" fill="#dc2626" stroke="#fff" stroke-width="2"/>
    <text x="190.3" y="169.8" text-anchor="middle" font-size="10" fill="#374151">양정</text>
    <circle cx="165.5" cy="228.1" r="4" fill="#dc2626" stroke="#fff" stroke-width="2"/>
    <text x="165.5" y="220.1" text-anchor="middle" font-size="10" fill="#374151">부전</text>
    <circle cx="154.4" cy="300.5" r="4" fill="#dc2626" stroke="#fff" stroke-width="2"/>
    <text x="154.4" y="292.5" text-anchor="middle" font-size="10" fill="#374151">범내골</text>
    <circle cx="154.9" cy="331.2" r="4" fill="#dc2626" stroke="#fff" stroke-width="2"/>
    <text x="154.9" y="323.2" text-anchor="middle" font-size="10" fill="#374151">범일</text>
    <circle cx="140.0" cy="362.7" r="4" fill="#dc2626" stroke="#fff" stroke-width="2"/>
    <text x="140.0" y="354.7" text-anchor="middle" font-size="10" fill="#374151">좌천</text>
    <circle cx="58.2" cy="538.8" r="4" fill="#dc2626" stroke="#fff" stroke-width="2"/>
    <text x="58.2" y="530.8" text-anchor="middle" font-size="10" fill="#374151">자갈치</text>
    <circle cx="82.5" cy="536.1" r="4" fill="#dc2626" stroke="#fff" stroke-width="2"/>
    <text x="82.5" y="528.1" text-anchor="middle" font-size="10" fill="#374151">남포</text>
    <circle cx="86.6" cy="507.9" r="4" fill="#dc2626" stroke="#fff" stroke-width="2"/>
    <text x="86.6" y="499.9" text-anchor="middle" font-size="10" fill="#374151">중앙</text>
    <circle cx="106.3" cy="425.2" r="4" fill="#dc2626" stroke="#fff" stroke-width="2"/>
    <text x="106.3" y="417.2" text-anchor="middle" font-size="10" fill="#374151">초량</text>
    <circle cx="124.8" cy="388.0" r="4" fill="#dc2626" stroke="#fff" stroke-width="2"/>
    <text x="124.8" y="380.0" text-anchor="middle" font-size="10" fill="#374151">부산진</text>
    <circle cx="390.4" cy="198.1" r="4" fill="#dc2626" stroke="#fff" stroke-width="2"/>
    <text x="390.4" y="190.1" text-anchor="middle" font-size="10" fill="#374151">벡스코</text>
    <circle cx="418.1" cy="234.4" r="4" fill="#dc2626" stroke="#fff" stroke-width="2"/>
    <text x="418.1" y="226.4" text-anchor="middle" font-size="10" fill="#374151">동백</text>
    <circle cx="314.5" cy="250.4" r="4" fill="#dc2626" stroke="#fff" stroke-width="2"/>
    <text x="314.5" y="242.4" text-anchor="middle" font-size="10" fill="#374151">광안</text>
    <circle cx="339.8" cy="205.3" r="4" fill="#dc2626" stroke="#fff" stroke-width="2"/>
    <text x="339.8" y="197.3" text-anchor="middle" font-size="10" fill="#374151">민락</text>
    <circle cx="277.0" cy="347.3" r="4" fill="#dc2626" stroke="#fff" stroke-width="2"/>
    <text x="277.0" y="339.3" text-anchor="middle" font-size="10" fill="#374151">경성대·부경대</text>
    <circle cx="252.2" cy="358.8" r="4" fill="#dc2626" stroke="#fff" stroke-width="2"/>
    <text x="252.2" y="350.8" text-anchor="middle" font-size="10" fill="#374151">대연</text>
    <circle cx="308.0" cy="289.3" r="4" fill="#dc2626" stroke="#fff" stroke-width="2"/>
    <text x="308.0" y="281.3" text-anchor="middle" font-size="10" fill="#374151">금련산</text>
    <circle cx="178.5" cy="339.8" r="4" fill="#dc2626" stroke="#fff" stroke-width="2"/>
    <text x="178.5" y="331.8" text-anchor="middle" font-size="10" fill="#374151">문현</text>
    <circle cx="176.7" cy="308.4" r="4" fill="#dc2626" stroke="#fff" stroke-width="2"/>
    <text x="176.7" y="300.4" text-anchor="middle" font-size="10" fill="#374151">국제금융센터·부산은행</text>
    <circle cx="230.3" cy="360.7" r="4" fill="#dc2626" stroke="#fff" stroke-width="2"/>
    <text x="230.3" y="352.7" text-anchor="middle" font-size="10" fill="#374151">못골</text>
    <circle cx="199.0" cy="356.3" r="4" fill="#dc2626" stroke="#fff" stroke-width="2"/>
    <text x="199.0" y="348.3" text-anchor="middle" font-size="10" fill="#374151">지게골</text>
    <circle cx="105.4" cy="260.3" r="4" fill="#dc2626" stroke="#fff" stroke-width="2"/>
    <text x="105.4" y="252.3" text-anchor="middle" font-size="10" fill="#374151">가야</text>
    <circle cx="74.1" cy="269.1" r="4" fill="#dc2626" stroke="#fff" stroke-width="2"/>
    <text x="74.1" y="261.1" text-anchor="middle" font-size="10" fill="#374151">동의대</text>
    <circle cx="172.7" cy="274.7" r="4" fill="#dc2626" stroke="#fff" stroke-width="2"/>
    <text x="172.7" y="266.7" text-anchor="middle" font-size="10" fill="#374151">전포</text>
    <circle cx="128.6" cy="252.7" r="4" fill="#dc2626" stroke="#fff" stroke-width="2"/>
    <text x="128.6" y="244.7" text-anchor="middle" font-size="10" fill="#374151">부암</text>
    <circle cx="233.4" cy="161.2" r="4" fill="#dc2626" stroke="#fff" stroke-width="2"/>
    <text x="233.4" y="153.2" text-anchor="middle" font-size="10" fill="#374151">물만골</text>
    <circle cx="262.8" cy="176.3" r="4" fill="#dc2626" stroke="#fff" stroke-width="2"/>
    <text x="262.8" y="168.3" text-anchor="middle" font-size="10" fill="#374151">배산</text>
    <circle cx="297.7" cy="184.5" r="4" fill="#dc2626" stroke="#fff" stroke-width="2"/>
    <text x="297.7" y="176.5" text-anchor="middle" font-size="10" fill="#374151">망미</text>
    <circle cx="171.8" cy="54.3" r="4" fill="#dc2626" stroke="#fff" stroke-width="2"/>
    <text x="171.8" y="46.3" text-anchor="middle" font-size="10" fill="#374151">사직</text>
    <circle cx="183.7" cy="138.5" r="4" fill="#dc2626" stroke="#fff" stroke-width="2"/>
    <text x="183.7" y="130.5" text-anchor="middle" font-size="10" fill="#374151">거제해맞이</text>
    <circle cx="298.7" cy="325.6" r="4" fill="#dc2626" stroke="#fff" stroke-width="2"/>
    <text x="298.7" y="317.6" text-anchor="middle" font-size="10" fill="#374151">남천</text>
    <circle cx="97.2" cy="451.3" r="4" fill="#dc2626" stroke="#fff" stroke-width="2"/>
    <text x="97.2" y="443.3" text-anchor="middle" font-size="10" fill="#374151">부산역</text>
    <circle cx="335.0" cy="106.9" r="4" fill="#dc2626" stroke="#fff" stroke-width="2"/>
    <text x="335.0" y="98.9" text-anchor="middle" font-size="10" fill="#374151">재송</text>
    <circle cx="449.7" cy="222.6" r="4" fill="#dc2626" stroke="#fff" stroke-width="2"/>
    <text x="449.7" y="214.6" text-anchor="middle" font-size="10" fill="#374151">해운대</text>
    <circle cx="476.5" cy="208.7" r="4" fill="#dc2626" stroke="#fff" stroke-width="2"/>
    <text x="476.5" y="200.7" text-anchor="middle" font-size="10" fill="#374151">중동</text>
    <circle cx="500.4" cy="195.4" r="4" fill="#dc2626" stroke="#fff" stroke-width="2"/>
    <text x="500.4" y="187.4" text-anchor="middle" font-size="10" fill="#374151">장산</text>
    <circle cx="319.0" cy="214.7" r="4" fill="#dc2626" stroke="#fff" stroke-width="2"/>
    <text x="319.0" y="206.7" text-anchor="middle" font-size="10" fill="#374151">수영</text>
    <circle cx="220.6" cy="115.9" r="4" fill="#dc2626" stroke="#fff" stroke-width="2"/>
    <text x="220.6" y="107.9" text-anchor="middle" font-size="10" fill="#374151">연산</text>
    <circle cx="221.4" cy="117.4" r="4" fill="#dc2626" stroke="#fff" stroke-width="2"/>
    <text x="221.4" y="109.4" text-anchor="middle" font-size="10" fill="#374151">연산</text>
    <circle cx="368.0" cy="199.6" r="4" fill="#dc2626" stroke="#fff" stroke-width="2"/>
    <text x="368.0" y="191.6" text-anchor="middle" font-size="10" fill="#374151">센텀시티</text>
    <circle cx="215.3" cy="79.3" r="4" fill="#dc2626" stroke="#fff" stroke-width="2"/>
    <text x="215.3" y="71.3" text-anchor="middle" font-size="10" fill="#374151">교대</text>
    <circle cx="382.5" cy="185.4" r="4" fill="#dc2626" stroke="#fff" stroke-width="2"/>
    <text x="382.5" y="177.4" text-anchor="middle" font-size="10" fill="#374151">벡스코</text>
    <circle cx="277.2" cy="68.9" r="4" fill="#dc2626" stroke="#fff" stroke-width="2"/>
    <text x="277.2" y="60.9" text-anchor="middle" font-size="10" fill="#374151">안락</text>
    <circle cx="249.2" cy="63.1" r="4" fill="#dc2626" stroke="#fff" stroke-width="2"/>
    <text x="249.2" y="55.1" text-anchor="middle" font-size="10" fill="#374151">동래</text>
    <circle cx="198.3" cy="103.0" r="4" fill="#dc2626" stroke="#fff" stroke-width="2"/>
    <text x="198.3" y="95.0" text-anchor="middle" font-size="10" fill="#374151">거제</text>
    <circle cx="154.6" cy="251.1" r="4" fill="#dc2626" stroke="#fff" stroke-width="2"/>
    <text x="154.6" y="243.1" text-anchor="middle" font-size="10" fill="#374151">서면</text>
    <circle cx="596.7" cy="67.7" r="4" fill="#dc2626" stroke="#fff" stroke-width="2"/>
    <text x="596.7" y="59.7" text-anchor="middle" font-size="10" fill="#374151">오시리아</text>
    <circle cx="317.4" cy="80.4" r="4" fill="#dc2626" stroke="#fff" stroke-width="2"/>
    <text x="317.4" y="72.4" text-anchor="middle" font-size="10" fill="#374151">부산원동</text>
    <circle cx="216.2" cy="72.8" r="4" fill="#dc2626" stroke="#fff" stroke-width="2"/>
    <text x="216.2" y="64.8" text-anchor="middle" font-size="10" fill="#374151">교대</text>
    <circle cx="179.2" cy="93.4" r="4" fill="#dc2626" stroke="#fff" stroke-width="2"/>
    <text x="179.2" y="85.4" text-anchor="middle" font-size="10" fill="#374151">종합운동장</text>
  </g>
</svg>