<?xml version="1.0" encoding="UTF-8"?>
<svg width="800" height="600" xmlns="http://www.w3.org/2000/svg">
  <title>Cairo Subway Map</title>
  <rect width="100%" height="100%" fill="#f8f9fa"/>

  <!-- 지하철 선로 -->
  <g stroke="#2563eb" stroke-width="2" fill="none" opacity="0.8">
    <polyline points="312.8,387.7 312.0,390.3 311.5,392.0 310.8,393.2 310.2,394.1 308.9,395.7 308.2,396.4 307.8,396.8 304.7,400.0 304.1,400.8 303.6,401.5 302.9,403.2 302.5,404.6 301.4,411.2 300.6,413.7 298.6,419.6 297.5,422.9 295.8,428.1 294.8,430.6 294.3,432.9 294.2,434.4 294.2,436.0 294.4,439.0 294.6,441.6 294.7,442.8 294.5,444.4 294.2,445.5 293.9,446.6 293.5,448.5 293.2,449.6 293.2,449.9 292.7,452.4 291.9,457.6 291.4,460.1 291.3,461.6 291.3,462.7 291.4,463.7 291.8,465.2 293.2,468.5 294.4,470.1 296.1,471.9 297.9,473.7 301.2,476.8 303.6,479.0 308.8,484.0 321.1,499.1 322.5,500.7 323.3,501.7 324.7,503.0 325.8,504.4 328.3,507.5 329.6,509.3 330.1,510.0 332.3,512.6 335.3,516.4 337.4,518.9 341.5,524.1 342.5,525.3 344.3,527.5 346.0,529.6 347.6,531.5 348.3,532.4 353.9,539.3 359.1,545.5 361.2,548.1 365.1,553.0 365.7,553.8 366.7,554.9 367.2,555.6 370.3,559.2 375.5,565.7 377.1,567.7 377.5,568.1 378.5,569.1 379.3,569.8 379.7,570.2 380.6,570.9 381.3,571.5 381.5,571.7 383.4,573.2 384.4,573.8 385.1,574.2 386.3,575.0 389.0,576.4 397.0,580.7 406.6,585.9 408.9,587.2 411.6,588.9 411.8,589.0 412.8,589.7 413.7,590.4 415.9,592.4 416.7,593.3 417.9,594.7 420.6,598.5 422.3,601.0 425.8,606.4"/>
    <polyline points="229.2,427.5 229.6,428.6 229.8,429.2 230.2,430.4 230.5,431.1 230.8,432.0 231.1,432.7 231.6,433.4 232.4,434.6 233.9,436.5 234.7,437.6 235.1,438.3 235.6,439.1 235.8,439.6 236.1,440.2 236.3,440.8 236.8,442.3 237.5,444.5 237.5,444.8"/>
    <polyline points="337.4,215.8 336.7,217.3 336.0,218.8 335.9,219.4 336.0,220.1 336.6,221.3 337.4,222.9 337.5,223.7 337.3,224.2 337.0,224.9 336.1,225.6 335.3,226.2 334.8,226.8 334.4,227.5 334.3,228.9 334.2,229.6 334.1,230.4 334.3,235.9 334.3,240.0 334.1,241.7 334.0,247.3 333.6,254.5 333.7,255.1 334.0,258.2 334.2,261.5 334.3,263.3 334.3,264.8 334.3,265.9 334.2,267.9 334.1,274.1 334.1,279.3 334.1,280.2 334.0,280.9 333.9,281.5 333.8,282.7 333.8,284.1 333.9,286.4 333.8,287.2 333.7,289.2 333.5,290.9 333.3,296.8"/>
    <polyline points="337.4,215.8 339.7,211.6 340.1,210.9"/>
    <polyline points="309.1,363.0 309.0,362.9 308.8,362.0 308.0,358.4 306.9,355.7 306.7,352.3 306.8,349.5 317.1,340.9 327.2,332.2 332.7,327.5 336.4,322.5"/>
    <polyline points="347.6,318.8 355.4,315.9 357.0,315.3 363.8,313.0 373.4,309.6 383.7,305.8 386.5,304.8 389.6,303.2 390.7,302.6 392.4,301.6 394.3,300.3 400.0,295.6 401.1,294.8 403.1,293.5 406.9,291.2 407.4,291.0 409.9,289.9 413.4,288.4 417.6,286.9 424.9,284.1 428.4,282.7 430.0,282.1 431.9,281.4 433.2,280.9 434.9,280.2 435.8,279.9 436.9,279.5"/>
    <polyline points="333.3,296.8 333.2,301.0 333.4,311.8 333.4,313.9 333.1,316.5 332.7,318.3 332.7,318.6 332.7,319.0 333.2,320.1 333.8,320.7 334.6,321.3 334.9,321.5 335.8,322.0 336.0,322.2 336.2,322.4"/>
    <polyline points="436.9,279.5 438.0,279.0 438.8,278.6 439.4,278.3 440.2,277.8 441.0,277.3 443.4,275.6 445.8,274.0 448.1,272.3 451.1,270.2 456.1,266.6 458.8,264.7 460.7,263.4 463.4,261.5 466.4,259.5 469.2,257.5 469.8,257.0 472.7,254.8 474.9,252.8 476.1,251.7 478.1,249.8 480.9,246.7 482.4,245.0 484.3,242.7 485.8,240.8 486.9,239.4 487.8,238.2 489.7,234.9 490.4,233.8 492.7,230.8 494.1,229.4 495.6,227.8 497.7,225.7 500.2,223.1 502.9,219.8 506.9,214.8 508.2,213.0 509.0,211.6 509.6,210.1 510.1,208.5 510.4,207.3 510.5,206.0 510.6,205.1 510.6,204.0 510.5,203.1 510.4,202.2 510.0,198.9 509.6,196.7 509.4,195.8 509.3,194.5 509.2,193.3 509.2,191.5 509.2,190.5 509.3,189.7 509.4,189.1 509.5,188.7 509.8,187.8 510.2,186.9 510.6,186.1 511.4,184.5 512.4,182.8 514.7,179.2 516.5,176.3 518.0,173.9 521.0,168.8 523.8,164.1 526.2,160.0 529.4,154.8 530.2,153.4 530.9,152.2 532.5,150.2 533.6,149.1 535.0,147.7 535.9,146.8 537.8,145.3 542.8,141.5 545.3,139.7 548.3,137.5 552.4,134.4 555.8,131.9 557.9,130.4 560.4,128.5 561.6,127.4 562.5,126.3 563.3,125.2 563.9,124.3 564.2,123.6 564.6,122.4 565.1,121.1 566.7,116.0 567.7,112.4 568.0,111.5 568.4,110.2 568.9,108.5"/>
    <polyline points="568.9,108.5 569.1,107.9 570.2,104.3 570.6,103.4 570.9,102.8 571.3,101.4 571.5,99.9 571.5,97.9 571.5,94.5 571.6,93.0 571.9,92.1 572.4,91.2 573.4,89.9"/>
    <polyline points="309.1,363.0 309.0,363.0 306.4,363.1 300.3,363.4 288.7,364.5 287.7,364.8 286.6,365.1 285.2,365.7 282.1,367.2 274.6,371.0 268.3,372.2 266.5,372.6 248.2,375.9 230.8,379.2 218.1,381.5 216.2,382.1 214.6,383.2 213.2,384.7 212.4,386.5 212.0,387.8 212.3,389.0 214.2,392.2 215.5,394.2"/>
    <polyline points="542.0,253.6 542.9,254.7 543.3,255.1 547.0,259.4 549.2,264.0 549.8,268.2 550.0,270.5 549.7,270.9 548.8,272.2 547.2,274.7 544.5,278.2 543.6,280.0 542.9,282.1 542.7,285.4 541.9,285.9 531.6,290.5 524.3,294.4 519.4,296.7 518.8,297.1"/>
    <polyline points="340.1,210.9 340.7,209.7 341.0,209.0 341.2,208.1 341.5,206.9 341.8,205.7 342.1,205.0 342.7,203.5 343.2,202.2 343.7,200.9 343.9,200.1 344.0,199.4 343.9,198.7 343.8,198.2 343.6,197.5 343.2,196.9 342.7,196.3 342.4,195.9 338.3,191.9 337.6,190.9 337.0,189.8 336.4,188.2 336.1,187.6 335.8,187.1 335.5,186.6 334.4,185.5 332.7,183.5"/>
    <polyline points="237.6,448.3 237.6,448.8 237.6,450.1 237.6,450.9 237.7,451.2 237.7,451.5 237.7,452.1 237.8,453.9 238.1,458.8 238.6,461.3 238.8,462.1 239.0,463.6 239.0,465.1 239.1,467.3 239.2,469.6 239.2,470.9 239.4,473.6 239.5,475.4 239.7,479.0 239.8,479.9 240.0,483.8 240.0,485.8 240.1,487.6 240.2,490.5 240.3,491.5 240.5,492.3 240.6,492.9 240.9,493.8 241.7,496.2 242.5,498.1 243.2,499.5 244.0,500.8 244.8,502.1 246.6,504.6 247.3,505.6 247.9,506.4 249.6,508.1"/>
    <polyline points="323.3,501.7 324.3,502.9 327.0,506.3 328.6,508.3 329.6,509.3"/>
    <polyline points="433.7,297.1 431.9,298.7 429.2,301.2 414.2,314.0 413.0,314.4 406.2,316.5 392.2,321.1 391.6,321.4 385.0,324.2 382.2,325.4 380.4,326.5 378.5,327.8 365.6,337.4 355.7,344.5 353.4,345.4 350.5,345.0 346.6,343.7 344.1,342.8"/>
    <polyline points="332.6,183.6 334.0,185.1 334.4,185.5 335.4,186.6 335.8,187.1 336.2,187.8 336.4,188.2 336.7,189.0 336.8,189.5 337.0,189.8 337.5,191.0 338.3,191.9 340.3,194.0 341.8,195.5 342.3,196.0 343.1,197.0 343.5,197.5 343.8,198.2 343.9,198.7 343.9,199.4 343.8,200.1 343.5,200.8 343.0,202.1 342.5,203.5 342.0,205.0 341.7,205.7 341.4,206.9 341.1,208.0 340.9,209.0 340.6,209.7 340.1,210.9"/>
    <polyline points="337.3,215.8 336.9,216.6 336.6,217.2 335.8,219.0 335.8,219.4 335.9,220.2 336.6,221.4 337.3,222.9 337.4,223.7 337.2,224.2 336.9,224.8 336.0,225.5 335.2,226.2 334.7,226.8 334.3,227.5 334.2,228.9 334.0,230.4 334.1,235.8 334.1,240.0 334.0,241.7 333.8,247.3 333.3,254.5 333.8,258.1 334.0,261.5 334.1,264.8 334.1,266.0 334.0,267.9 333.9,274.2 333.9,276.9 333.9,279.3 333.7,282.7 333.6,284.1 333.5,287.2 333.5,288.6 333.5,289.2 333.2,290.9 333.2,293.1 333.1,295.2 333.1,296.8 333.1,298.8 333.0,301.1 333.1,304.5 333.1,307.3 333.2,311.8 333.3,313.9 332.9,316.5 332.6,318.2 332.6,318.6 332.6,319.0 333.1,320.2 333.7,320.8 335.7,322.1 336.0,322.3 336.1,322.5 336.3,322.8 336.4,323.1 336.4,323.3 336.5,334.7 336.5,334.9 336.5,335.1 336.6,335.3 337.3,337.9 337.3,338.3 337.7,341.1 337.9,343.6 337.8,345.3"/>
    <polyline points="340.1,210.9 339.6,211.6 338.6,213.5 337.3,215.8"/>
    <polyline points="312.9,387.7 311.9,392.0 311.2,393.3 310.5,394.3 309.3,395.8 308.5,396.6 308.2,396.9 304.8,400.0 304.2,400.8 303.7,401.5 303.0,403.2 302.6,404.6 301.5,411.3 300.7,413.7 299.5,417.5 297.6,422.9 295.9,428.1 295.0,430.7 294.4,432.9 294.3,434.5 294.3,436.0 294.5,439.3 294.8,442.8 294.6,444.5 294.4,445.5 294.0,446.6 293.6,448.6 293.3,449.9 292.8,452.4 292.0,457.4 291.6,460.1 291.4,461.6 291.4,462.6 291.5,463.7 291.9,465.2 293.3,468.4 294.5,470.0 296.1,471.8 298.0,473.6 301.2,476.7 303.7,478.9 309.0,484.0 315.8,492.4 321.3,499.2 322.6,500.6 323.8,501.8 324.6,502.6 325.5,503.7 326.1,504.3 327.4,505.9 329.1,508.1 330.3,509.9 330.7,510.6 335.4,516.4 337.5,518.8 341.6,524.1 342.6,525.3 346.1,529.5 347.7,531.5 354.1,539.2 361.3,548.0 365.9,553.8 366.8,554.9 368.9,557.4 370.1,558.8 372.6,562.1 374.3,564.0 376.8,567.2 377.6,568.1 378.6,569.1 379.7,570.2 380.6,570.9 381.1,571.3 382.4,572.3 383.5,573.1 384.6,573.8 385.8,574.5 389.0,576.3 391.9,577.9 395.0,579.5 401.2,582.6 403.0,583.7 406.7,585.7 407.8,586.3 409.0,587.0 410.8,588.1 411.2,588.4 411.8,588.9 412.5,589.3 413.3,590.0 413.9,590.5 415.8,592.2 416.5,593.0 418.0,594.8 420.8,598.5 424.9,604.8 425.9,606.4"/>
    <polyline points="330.3,360.5 329.9,360.6 329.5,360.8 328.7,360.9 322.9,361.5 315.4,362.3 314.4,362.4 309.1,363.0"/>
    <polyline points="312.8,387.7 315.2,379.7 315.6,378.5 316.0,376.4 316.1,374.4 314.7,369.7 312.8,367.5 309.1,363.0"/>
    <polyline points="336.2,322.4 336.4,322.8 336.5,323.0 336.5,323.3 336.6,334.7 336.6,334.8 336.6,335.0 336.7,335.1 336.7,335.2 336.8,335.3 337.5,337.9 337.5,338.2 337.8,341.1 338.1,343.6 337.9,345.3"/>
    <polyline points="336.4,322.4 336.4,322.5 336.4,322.5 336.4,322.5 336.1,322.9 332.8,327.5 327.2,332.3 317.2,341.0 306.9,349.5 306.9,352.3 307.0,355.6 308.1,358.3 308.4,359.6 309.0,361.9 309.2,362.9 312.9,367.5 313.6,368.3 314.8,369.7 316.2,374.4 316.2,376.4 315.7,378.6 315.4,379.8 312.9,387.7"/>
    <polyline points="573.0,89.8 572.5,90.3 571.7,91.8 571.3,92.9 571.2,93.8 571.2,99.9 570.9,101.4 570.6,102.7 570.1,103.9 568.2,110.4 566.6,116.0 565.1,120.7 564.8,121.6 564.2,123.4 563.8,124.3 563.3,125.1 562.4,126.3 561.5,127.3 560.5,128.3 554.9,132.4 548.2,137.4 545.9,139.1 544.2,140.4 542.1,141.8 537.6,145.2 535.7,146.8 534.4,148.0 532.4,150.2 530.4,152.8 523.6,164.0 522.4,166.1 518.1,173.5 511.4,184.1 510.5,186.1 509.7,187.7 509.3,189.0 509.0,191.8 509.2,195.6 509.5,196.8 510.0,200.0 510.4,202.2 510.5,202.9 510.5,204.7 510.5,205.4 510.1,208.0 509.7,209.4 509.3,210.4 508.7,211.7 508.1,212.9 506.8,214.9 506.3,215.4 503.2,219.3 500.2,223.0 496.2,227.1 493.5,229.9 492.5,230.9 490.8,232.9 489.9,234.3 487.7,238.2 486.8,239.3 486.0,240.3 485.5,240.9 485.0,241.6 484.5,242.2 480.6,246.8 477.6,250.1 474.5,253.0 472.7,254.6 469.7,257.0 468.3,258.1 458.7,264.6 451.2,270.0 448.2,272.1 445.6,273.9 443.3,275.5 440.6,277.5 439.2,278.3 437.7,279.0 435.8,279.8 434.9,280.2 433.2,280.8 430.0,282.0 428.4,282.7 424.9,284.0 417.5,286.8 413.4,288.4 409.8,289.8 407.4,290.9 406.9,291.1 403.0,293.4 401.1,294.7 399.9,295.5 394.2,300.3 392.4,301.5 390.6,302.6 389.5,303.2 386.5,304.7 383.7,305.8 377.2,308.2 371.3,310.3 356.9,315.2 347.5,318.7"/>
    <polyline points="347.5,318.7 337.1,322.2 336.4,322.4 336.4,322.4 336.4,322.4 336.4,322.5 336.4,322.5"/>
    <polyline points="229.3,427.5 229.7,428.6 229.9,429.2 230.3,430.3 230.6,431.2 230.9,432.0 231.2,432.6 231.7,433.4 232.5,434.5 234.0,436.5 234.8,437.6 235.7,439.1 236.2,440.2 236.4,440.8 237.0,442.3 237.6,444.4 237.8,445.7 237.9,446.8 237.8,448.0 237.8,448.4"/>
    <polyline points="344.1,342.8 346.7,343.6 350.6,344.9 353.4,345.3 355.6,344.4 365.5,337.3 378.4,327.8 382.2,325.4 385.0,324.2 391.6,321.4 392.2,321.0 409.3,315.4 413.0,314.3 414.0,314.0 414.2,314.0 429.1,301.1 431.9,298.7 433.7,297.0"/>
    <polyline points="518.7,297.0 519.4,296.7 524.2,294.3 531.6,290.5 541.9,285.8 542.6,285.4 542.8,282.2 543.5,280.0 544.5,278.2 547.2,274.7 548.8,272.2 549.6,270.9 550.0,270.5 549.7,268.2 549.1,264.0 546.9,259.4 543.3,255.2 542.8,254.8 541.9,253.7"/>
    <polyline points="336.4,322.4 337.1,322.2 347.6,318.8"/>
    <polyline points="541.9,253.7 541.8,253.6 540.4,250.6 541.0,248.4 547.9,242.0 557.9,233.2 558.8,232.3 559.5,231.8 565.3,227.3 569.4,224.3 571.4,222.6 571.6,222.1 572.7,216.8 574.3,208.7 574.3,208.7 575.5,201.7 576.7,195.0 576.9,194.0 576.9,193.9 577.0,193.7 577.5,192.2 585.6,185.2 587.7,183.9 589.1,183.1 593.2,181.0"/>
    <polyline points="542.0,253.6 540.5,250.6 541.2,248.3 547.6,242.6 558.1,233.3 559.1,232.5 559.7,232.0 565.4,227.5 569.6,224.4 571.7,222.8 572.0,222.3 573.0,216.8 574.5,208.7 575.8,201.6 577.0,195.0 577.2,194.0 577.2,193.9 577.3,193.7 577.3,193.5 577.5,192.9 577.7,192.3 585.8,185.3 587.9,184.1 589.2,183.3 593.3,181.0"/>
    <polyline points="593.2,181.0 594.5,180.3 605.6,175.2 608.5,174.4 611.4,173.8"/>
    <polyline points="780.6,128.0 779.0,128.1 777.6,128.2 776.2,128.4 770.9,129.7 770.0,129.9 768.9,130.0 767.2,130.1 763.6,130.2 762.2,130.4 760.8,130.5 759.7,130.7 758.0,131.1 755.1,131.9 750.2,133.2 744.4,134.7 736.5,136.8 735.4,137.1 734.5,137.5 733.3,138.1 732.1,138.8 730.9,139.3 729.8,139.7 723.1,141.3 717.8,142.6 713.2,143.7 710.9,144.3 709.4,144.9 708.0,145.5 706.8,146.2 705.9,146.7 701.4,150.0 698.7,152.0 697.3,153.0 696.3,153.6 695.2,154.2 694.0,154.6 690.9,155.5 680.6,158.8 670.7,161.8 662.7,164.2 654.2,166.8 649.5,168.2 648.3,168.5 647.5,168.7 646.7,168.9 645.6,169.0 644.4,169.2 643.3,169.3 639.3,169.5 638.2,169.5 635.9,169.8 635.0,170.0 631.9,170.4 630.4,170.7 623.9,171.8 611.4,173.8"/>
    <polyline points="611.4,173.9 608.5,174.5 605.6,175.3 594.6,180.4 593.3,181.0"/>
    <polyline points="611.4,173.9 616.4,173.1 623.9,171.9 630.4,170.8 635.0,170.1 635.9,169.9 638.2,169.6 639.3,169.5 643.3,169.4 644.4,169.3 645.6,169.1 646.7,169.0 647.6,168.8 648.4,168.6 649.6,168.3 662.8,164.3 670.7,161.8 680.6,158.9 691.0,155.6 693.6,154.8 694.0,154.7 695.2,154.2 696.4,153.6 697.3,153.1 698.3,152.5 698.8,152.1 701.5,150.1 702.9,149.1 706.0,146.8 706.9,146.3 708.1,145.6 709.5,145.0 710.9,144.5 713.2,143.8 717.8,142.7 723.2,141.4 729.8,139.8 731.1,139.4 732.2,138.8 733.4,138.2 734.5,137.6 735.2,137.3 736.5,136.9 744.5,134.8 750.2,133.3 755.1,132.0 758.1,131.2 759.8,130.8 760.9,130.6 762.2,130.5 763.6,130.3 767.1,130.2 768.9,130.1 770.1,129.9 771.0,129.8 776.3,128.5 777.6,128.3 779.1,128.1 780.6,128.1 782.0,128.0 783.5,128.0"/>
    <polyline points="215.6,394.2 218.0,398.1 218.3,398.8 218.9,399.9 220.1,403.1 220.4,403.9 223.4,412.3 224.3,414.5 224.9,416.3 225.5,418.0 225.9,419.1 226.7,421.1 227.7,423.7 228.2,425.0 229.3,427.5"/>
    <polyline points="215.5,394.2 217.9,398.2 218.2,398.8 218.8,400.0 220.1,403.3 220.3,403.9 223.3,412.4 224.2,414.6 224.8,416.4 225.4,418.0 225.8,419.1 225.9,419.6 226.6,421.2 226.8,421.6 227.6,423.8 228.1,425.1 229.2,427.5"/>
    <polyline points="237.5,444.8 237.7,445.8 237.7,446.8 237.6,448.3"/>
    <polyline points="237.8,448.4 237.8,450.3 237.8,451.5 237.9,453.9 238.2,458.7 238.9,462.1 239.1,463.7 239.1,465.8 239.3,469.6 239.4,471.2 239.5,473.5 239.7,475.8 239.9,479.0 240.2,485.8 240.2,487.5 240.4,490.5 240.5,491.6 240.7,492.7 241.1,494.1 241.4,494.7 241.8,496.1 242.6,498.1 243.3,499.4 243.6,500.0 244.5,501.5 245.2,502.5 246.7,504.5 247.6,505.5 248.2,506.2 248.2,506.3 249.8,507.9"/>
    <polyline points="337.8,345.3 337.8,347.1 337.7,347.2 337.7,347.3 337.7,347.5 337.6,347.6 337.1,348.6 331.2,359.5 330.9,360.0 330.7,360.3 330.5,360.4 330.3,360.5"/>
    <polyline points="337.9,345.3 337.8,347.1 337.8,347.2 337.8,347.3 337.8,347.4 337.7,347.5 337.7,347.6 331.3,359.5 331.0,360.1 330.9,360.3 330.7,360.5 330.5,360.6 330.2,360.7 329.9,360.8 329.4,360.9 328.8,360.9 323.6,361.5 312.0,362.7 309.1,363.0 306.4,363.2 299.2,363.7 288.6,364.8 287.7,365.0 286.7,365.3 285.3,365.8 282.1,367.4 274.7,371.1 266.6,372.7 260.7,373.8 257.0,374.4 256.3,374.6 248.2,376.1 218.1,381.6 216.3,382.3 214.7,383.3 213.3,384.8 212.6,386.6 212.2,387.7 212.5,388.9 215.6,394.2"/>
    <polyline points="329.1,180.0 329.7,180.5 331.9,182.8 332.6,183.6"/>
    <polyline points="332.7,183.5 331.9,182.7 331.0,181.7 329.3,179.9"/>
    <polyline points="329.1,180.0 329.0,179.8 327.8,178.5 325.6,176.3 323.4,174.0 319.2,169.4"/>
    <polyline points="319.2,169.4 323.5,173.9 325.7,176.2 327.9,178.5 329.3,179.9"/>
    <polyline points="250.7,310.7 251.9,311.1 255.2,312.3 257.8,313.4 261.7,315.0 263.7,315.9 273.6,320.0 275.3,320.7 276.9,321.4 278.2,321.9 278.7,322.1 279.3,322.4 279.9,322.7 280.1,322.8 281.9,323.8 283.8,325.4 285.7,327.8 287.4,329.9 289.1,331.5 291.9,333.5 293.6,334.2 298.6,336.0 300.2,336.4 302.3,337.0 311.3,339.5 317.1,341.2 318.9,341.7 321.1,342.2 323.1,342.8 324.4,343.0 326.5,343.1 328.4,343.1 330.2,342.9 331.9,342.6 333.3,342.3 334.3,342.0 335.5,341.7 336.5,341.3 337.3,341.2 338.2,341.2 339.2,341.2 340.0,341.4 340.7,341.6 341.3,341.7 344.1,342.8"/>
    <polyline points="224.8,295.8 225.5,295.3 226.1,294.9 226.9,294.6 228.1,294.0 231.1,292.6"/>
    <polyline points="231.1,292.6 233.4,291.4 234.9,290.7 236.8,289.9 238.0,289.3 238.7,289.0 239.2,288.6 240.0,287.9 240.5,287.1 240.7,286.4 240.9,285.8 241.4,284.6 243.0,279.6 244.3,275.8 246.6,269.1 248.6,263.5 249.8,260.2 250.5,258.5 250.7,257.8 250.9,257.1 251.0,256.4 251.0,255.8 250.8,255.2 250.6,254.7 250.2,254.2 249.7,253.6 248.9,253.1 248.5,252.9 248.1,252.7 247.3,252.5 243.5,251.4 240.2,250.4 236.5,249.3 230.4,247.5 224.3,245.6 218.0,243.6 216.2,243.1 214.3,242.5 207.4,240.5 205.3,239.9"/>
    <polyline points="180.1,239.4 180.3,239.5 181.9,239.5 183.3,239.6 187.5,239.6 193.0,239.4 195.1,239.3 197.5,239.6 200.1,240.2 206.8,242.2"/>
    <polyline points="202.9,239.4 203.8,239.6 205.3,240.0"/>
    <polyline points="176.5,230.6 176.2,233.5 176.0,235.0 176.0,235.6 176.1,236.2 176.3,236.7 176.6,237.2 177.1,238.0 177.6,238.4 178.2,238.8 178.6,239.0 179.3,239.2 180.1,239.4 180.9,239.5 182.3,239.5 184.3,239.4 188.2,239.3 189.7,239.3 192.8,239.2 200.2,239.0 201.3,239.1 201.9,239.2 202.9,239.4"/>
    <polyline points="433.7,297.0 436.3,294.9 437.9,293.6 438.7,293.0 444.8,287.5 446.4,286.2 447.3,285.6 448.0,285.4 448.7,285.4 449.4,285.4 450.4,285.5 451.2,285.8 455.2,288.5 465.1,295.2 466.2,296.0 466.7,296.5 467.3,296.8 468.4,297.3 469.5,297.5 470.9,297.5 472.7,297.2 475.0,296.6 477.6,295.8 481.4,294.7 485.6,293.8 499.2,289.7 500.7,289.8 502.6,290.5 516.6,297.2 518.7,297.0 518.7,297.0"/>
    <polyline points="518.8,297.1 516.6,297.3 502.5,290.5 500.7,289.9 499.2,289.7 485.6,293.9 481.5,294.7 477.6,295.9 475.0,296.6 472.7,297.3 470.9,297.6 469.5,297.6 468.3,297.5 467.3,297.0 466.6,296.6 466.0,296.1 465.0,295.2 455.1,288.5 451.1,285.9 450.3,285.6 449.4,285.5 448.7,285.5 448.0,285.6 447.4,285.7 446.5,286.2 445.0,287.6 438.8,293.1 436.3,295.0 433.7,297.1"/>
    <polyline points="452.4,317.5 452.6,316.7"/>
    <polyline points="451.7,320.3 452.4,317.5"/>
    <polyline points="453.0,316.7 452.8,317.5"/>
    <polyline points="452.9,316.6 453.6,313.9 453.6,313.5 453.6,313.3 453.5,312.7"/>
    <polyline points="453.6,313.3 453.7,313.5 453.7,313.9 453.0,316.7"/>
    <polyline points="454.2,312.5 454.0,313.1 454.0,313.5 453.9,314.1 453.8,314.5 453.9,314.9 454.0,316.0 454.1,316.4 454.2,317.3 454.2,317.6 454.1,318.1 453.9,318.6 453.6,319.0 452.8,319.6 452.3,320.0"/>
    <polyline points="453.2,312.1 453.3,312.7 453.3,312.9 453.1,313.6 453.0,314.2 452.8,314.5 452.6,315.0"/>
    <polyline points="452.6,316.7 452.7,316.5 453.3,313.8 453.4,313.5 453.4,313.2 453.4,312.6"/>
    <polyline points="453.4,312.6 453.5,313.3 453.5,313.5 453.5,313.9 452.8,316.6"/>
    <polyline points="451.8,320.4 452.2,319.4 452.4,318.9 452.8,317.5"/>
    <polyline points="453.6,314.8 453.7,315.0 453.7,315.4 453.7,315.7"/>
    <polyline points="452.0,317.1 452.1,317.0 452.3,316.7 452.4,316.5 452.6,316.0 452.9,314.9 453.3,313.4 453.4,312.6 453.4,312.3"/>
    <polyline points="453.8,308.0 453.7,307.3 453.4,306.6 452.9,306.1 452.2,305.5 450.9,304.7 447.7,303.0 444.6,301.3 438.2,297.4 437.0,296.8 436.1,296.5 435.4,296.5 434.8,296.6 434.3,296.8 433.7,297.1"/>
    <polyline points="452.2,317.1 452.2,316.9 452.4,316.5"/>
    <polyline points="453.4,315.6 453.6,314.8 453.7,314.4 453.8,313.9 453.8,313.5 453.6,312.9 453.5,312.7 453.4,312.3 453.3,311.9 453.2,311.6 453.2,311.2 453.3,310.4 453.4,309.9 453.6,309.5 453.7,309.2 453.8,309.0 453.9,308.4 453.8,308.0"/>
    <polyline points="450.4,318.2 451.7,317.1 452.1,316.7 452.2,316.6 452.2,316.4 452.6,315.0 453.0,313.4 453.2,312.5 453.2,312.1 453.1,311.7"/>
    <polyline points="224.8,295.8 224.6,296.1 224.3,296.4 224.0,296.8 223.8,297.2 223.6,297.7 223.2,298.2 223.2,298.7 223.3,299.0 223.5,299.5 223.9,300.1 224.2,300.6 224.3,300.7 224.6,301.0 225.8,301.9 226.8,302.4 227.7,302.8 231.0,303.9 236.1,305.6"/>
    <polyline points="344.1,342.8 342.8,342.3 341.2,341.8 340.1,341.5 339.6,341.4 338.9,341.3 338.3,341.2 338.0,341.2 337.3,341.3 336.4,341.5 334.5,342.1 333.2,342.5 331.5,342.8 329.6,343.1 328.1,343.3 326.3,343.2 325.2,343.1 323.9,343.0 322.9,342.8 322.1,342.6 317.1,341.2 311.2,339.7 305.0,337.9 300.3,336.6 300.2,336.6 298.4,336.1 296.7,335.5 293.8,334.4 291.8,333.5 289.0,331.6 286.9,329.6 283.7,325.5 281.8,323.8 281.1,323.5 279.2,322.4 275.2,320.8 266.9,317.3 261.6,315.2 261.3,315.1 260.6,314.8 256.2,313.0 255.3,312.7 250.7,310.8"/>
    <polyline points="177.3,223.2 177.1,224.7 176.7,228.7 176.5,230.6"/>
    <polyline points="202.9,239.3 201.9,239.1 201.3,239.0 200.2,238.9 199.1,238.9 192.8,239.1 189.7,239.2 188.2,239.2 184.3,239.3 182.3,239.4 180.9,239.4 180.1,239.3 179.3,239.1 178.7,238.9 178.2,238.7 177.7,238.3 177.3,237.9 176.7,237.2 176.4,236.7 176.2,236.2 176.1,235.6 176.1,235.0 176.6,230.6"/>
    <polyline points="205.3,239.9 203.8,239.5 202.9,239.3"/>
    <polyline points="205.3,240.0 214.2,242.6 216.2,243.2 218.0,243.7 224.3,245.7 230.3,247.6 236.4,249.4 240.1,250.5 243.5,251.5 247.3,252.5 248.1,252.8 248.5,252.9 248.9,253.1 249.6,253.7 250.1,254.2 250.4,254.7 250.7,255.2 250.9,255.8 250.9,256.4 250.8,257.1 250.6,257.8 250.4,258.4 244.2,275.8 242.9,279.6 241.2,284.5 240.8,285.7 240.6,286.4 240.4,287.1 239.9,287.9 239.1,288.6 238.6,288.9 238.0,289.3 236.7,289.8 234.9,290.7 233.4,291.4 231.1,292.5"/>
    <polyline points="231.1,292.5 228.1,293.9 226.8,294.5 226.1,294.9 225.5,295.3 224.8,295.7"/>
    <polyline points="224.8,295.7 224.5,296.0 224.2,296.4 223.9,296.7 223.7,297.2 223.5,297.6 223.0,298.2 223.1,298.7 223.2,299.0 223.4,299.5 223.8,300.2 224.1,300.7 224.5,301.1 225.7,301.9 226.7,302.5 227.7,302.8 231.0,304.0 236.0,305.7"/>
    <polyline points="199.8,367.4 199.6,366.6 199.4,365.3 199.6,364.1 200.7,362.6 203.0,360.4 216.5,346.9 220.9,342.4 221.4,341.5 221.5,340.2 221.5,339.6 220.6,334.2 220.0,329.8 218.5,320.2 218.7,319.1 219.3,318.0 221.3,316.2 222.9,314.7 223.9,313.8 231.8,306.0 232.8,305.6 234.0,305.4 236.0,305.7"/>
    <polyline points="199.7,367.5 199.8,367.7"/>
    <polyline points="204.0,374.5 202.2,371.6"/>
    <polyline points="202.1,371.6 203.9,374.5"/>
    <polyline points="199.9,367.7 199.8,367.4"/>
    <polyline points="236.1,305.6 234.1,305.2 232.8,305.4 231.7,306.0 223.7,313.7 222.7,314.6 221.2,316.1 219.2,317.9 218.5,319.1 218.4,320.2 219.8,329.8 220.5,334.3 221.4,339.6 221.4,340.2 221.2,341.5 220.8,342.3 216.4,346.9 202.9,360.4 200.6,362.5 199.5,364.1 199.3,365.3 199.5,366.6 199.7,367.5"/>
    <polyline points="202.2,371.6 201.1,369.9 200.6,369.1 200.2,368.5 199.9,367.7"/>
    <polyline points="199.8,367.7 200.1,368.5 200.5,369.2 201.0,370.0 202.1,371.6"/>
    <polyline points="209.7,385.7 208.4,383.2 208.2,382.8 207.7,381.6 207.2,380.3 206.9,379.7 206.5,378.9 205.8,377.5 204.0,374.5"/>
    <polyline points="203.9,374.5 205.7,377.5 206.4,378.9 206.8,379.7 207.1,380.4 207.6,381.6 208.1,382.8 208.3,383.2 209.6,385.7"/>
    <polyline points="209.6,385.7 210.2,387.0 210.9,388.2 211.3,388.9 211.9,389.8 213.6,392.2 215.3,394.7 216.8,397.3 217.5,398.4 218.0,399.2 218.5,400.2 219.1,402.0 219.6,403.3 220.7,406.4"/>
    <polyline points="220.8,406.4 219.7,403.2 219.3,402.0 218.6,400.2 218.2,399.2 217.7,398.3 217.0,397.2 215.4,394.7 213.7,392.1 212.0,389.7 211.4,388.9 210.9,388.2 210.3,387.0 209.7,385.7"/>
    <polyline points="222.8,411.8 220.8,406.4"/>
    <polyline points="220.7,406.4 222.7,411.8"/>
    <polyline points="236.0,305.7 250.7,310.8"/>
    <polyline points="236.1,305.6 246.2,309.1 250.7,310.7"/>
  </g>

  <!-- 지하철 역 -->
  <g>
    <circle cx="237.8" cy="451.4" r="3" fill="#dc2626" stroke="#fff" stroke-width="1"/>
    <circle cx="218.2" cy="381.6" r="3" fill="#dc2626" stroke="#fff" stroke-width="1"/>
    <circle cx="248.3" cy="376.0" r="3" fill="#dc2626" stroke="#fff" stroke-width="1"/>
    <circle cx="281.8" cy="367.4" r="3" fill="#dc2626" stroke="#fff" stroke-width="1"/>
    <circle cx="308.3" cy="362.9" r="3" fill="#dc2626" stroke="#fff" stroke-width="1"/>
    <circle cx="333.1" cy="300.9" r="3" fill="#dc2626" stroke="#fff" stroke-width="1"/>
    <circle cx="334.0" cy="279.3" r="3" fill="#dc2626" stroke="#fff" stroke-width="1"/>
    <circle cx="334.1" cy="261.6" r="3" fill="#dc2626" stroke="#fff" stroke-width="1"/>
    <circle cx="336.0" cy="225.6" r="3" fill="#dc2626" stroke="#fff" stroke-width="1"/>
    <circle cx="510.4" cy="202.2" r="3" fill="#dc2626" stroke="#fff" stroke-width="1"/>
    <circle cx="331.2" cy="359.6" r="3" fill="#dc2626" stroke="#fff" stroke-width="1"/>
    <circle cx="347.7" cy="531.5" r="3" fill="#dc2626" stroke="#fff" stroke-width="1"/>
    <circle cx="334.2" cy="240.0" r="3" fill="#dc2626" stroke="#fff" stroke-width="1"/>
    <circle cx="549.9" cy="270.6" r="3" fill="#dc2626" stroke="#fff" stroke-width="1"/>
    <circle cx="325.9" cy="504.3" r="3" fill="#dc2626" stroke="#fff" stroke-width="1"/>
    <circle cx="298.4" cy="474.1" r="3" fill="#dc2626" stroke="#fff" stroke-width="1"/>
    <circle cx="335.7" cy="322.0" r="3" fill="#dc2626" stroke="#fff" stroke-width="1"/>
    <circle cx="477.6" cy="295.8" r="3" fill="#dc2626" stroke="#fff" stroke-width="1"/>
    <circle cx="433.7" cy="297.1" r="3" fill="#dc2626" stroke="#fff" stroke-width="1"/>
    <circle cx="414.0" cy="314.0" r="3" fill="#dc2626" stroke="#fff" stroke-width="1"/>
    <circle cx="365.5" cy="337.4" r="3" fill="#dc2626" stroke="#fff" stroke-width="1"/>
    <circle cx="542.8" cy="254.8" r="3" fill="#dc2626" stroke="#fff" stroke-width="1"/>
    <circle cx="338.0" cy="343.5" r="3" fill="#dc2626" stroke="#fff" stroke-width="1"/>
    <circle cx="519.4" cy="296.7" r="3" fill="#dc2626" stroke="#fff" stroke-width="1"/>
    <circle cx="293.3" cy="449.9" r="3" fill="#dc2626" stroke="#fff" stroke-width="1"/>
    <circle cx="566.7" cy="116.0" r="3" fill="#dc2626" stroke="#fff" stroke-width="1"/>
    <circle cx="537.7" cy="145.2" r="3" fill="#dc2626" stroke="#fff" stroke-width="1"/>
    <circle cx="523.7" cy="164.1" r="3" fill="#dc2626" stroke="#fff" stroke-width="1"/>
    <circle cx="510.6" cy="186.1" r="3" fill="#dc2626" stroke="#fff" stroke-width="1"/>
    <circle cx="500.2" cy="223.1" r="3" fill="#dc2626" stroke="#fff" stroke-width="1"/>
    <circle cx="486.9" cy="239.3" r="3" fill="#dc2626" stroke="#fff" stroke-width="1"/>
    <circle cx="469.8" cy="257.0" r="3" fill="#dc2626" stroke="#fff" stroke-width="1"/>
    <circle cx="458.7" cy="264.7" r="3" fill="#dc2626" stroke="#fff" stroke-width="1"/>
    <circle cx="443.3" cy="275.6" r="3" fill="#dc2626" stroke="#fff" stroke-width="1"/>
    <circle cx="417.5" cy="286.9" r="3" fill="#dc2626" stroke="#fff" stroke-width="1"/>
    <circle cx="383.7" cy="305.8" r="3" fill="#dc2626" stroke="#fff" stroke-width="1"/>
    <circle cx="317.1" cy="341.0" r="3" fill="#dc2626" stroke="#fff" stroke-width="1"/>
    <circle cx="315.3" cy="379.8" r="3" fill="#dc2626" stroke="#fff" stroke-width="1"/>
    <circle cx="308.3" cy="396.5" r="3" fill="#dc2626" stroke="#fff" stroke-width="1"/>
    <circle cx="297.6" cy="422.9" r="3" fill="#dc2626" stroke="#fff" stroke-width="1"/>
    <circle cx="573.1" cy="89.9" r="3" fill="#dc2626" stroke="#fff" stroke-width="1"/>
    <circle cx="326.8" cy="332.3" r="3" fill="#dc2626" stroke="#fff" stroke-width="1"/>
    <circle cx="577.1" cy="193.7" r="3" fill="#dc2626" stroke="#fff" stroke-width="1"/>
    <circle cx="587.8" cy="184.0" r="3" fill="#dc2626" stroke="#fff" stroke-width="1"/>
    <circle cx="558.9" cy="232.4" r="3" fill="#dc2626" stroke="#fff" stroke-width="1"/>
    <circle cx="572.9" cy="216.8" r="3" fill="#dc2626" stroke="#fff" stroke-width="1"/>
    <circle cx="744.5" cy="134.7" r="3" fill="#dc2626" stroke="#fff" stroke-width="1"/>
    <circle cx="717.8" cy="142.7" r="3" fill="#dc2626" stroke="#fff" stroke-width="1"/>
    <circle cx="691.0" cy="155.6" r="3" fill="#dc2626" stroke="#fff" stroke-width="1"/>
    <circle cx="662.7" cy="164.2" r="3" fill="#dc2626" stroke="#fff" stroke-width="1"/>
    <circle cx="630.4" cy="170.7" r="3" fill="#dc2626" stroke="#fff" stroke-width="1"/>
    <circle cx="248.1" cy="506.3" r="3" fill="#dc2626" stroke="#fff" stroke-width="1"/>
    <circle cx="239.4" cy="473.5" r="3" fill="#dc2626" stroke="#fff" stroke-width="1"/>
    <circle cx="220.4" cy="403.9" r="3" fill="#dc2626" stroke="#fff" stroke-width="1"/>
    <circle cx="227.7" cy="423.8" r="3" fill="#dc2626" stroke="#fff" stroke-width="1"/>
    <circle cx="235.6" cy="439.1" r="3" fill="#dc2626" stroke="#fff" stroke-width="1"/>
    <circle cx="329.2" cy="179.9" r="3" fill="#dc2626" stroke="#fff" stroke-width="1"/>
    <circle cx="342.7" cy="203.5" r="3" fill="#dc2626" stroke="#fff" stroke-width="1"/>
    <circle cx="392.2" cy="321.1" r="3" fill="#dc2626" stroke="#fff" stroke-width="1"/>
    <circle cx="300.2" cy="336.6" r="3" fill="#dc2626" stroke="#fff" stroke-width="1"/>
    <circle cx="275.2" cy="320.8" r="3" fill="#dc2626" stroke="#fff" stroke-width="1"/>
    <circle cx="250.7" cy="310.7" r="3" fill="#dc2626" stroke="#fff" stroke-width="1"/>
    <circle cx="176.5" cy="230.6" r="3" fill="#dc2626" stroke="#fff" stroke-width="1"/>
    <circle cx="216.2" cy="243.1" r="3" fill="#dc2626" stroke="#fff" stroke-width="1"/>
    <circle cx="240.1" cy="250.4" r="3" fill="#dc2626" stroke="#fff" stroke-width="1"/>
    <circle cx="244.3" cy="275.8" r="3" fill="#dc2626" stroke="#fff" stroke-width="1"/>
    <circle cx="236.7" cy="289.8" r="3" fill="#dc2626" stroke="#fff" stroke-width="1"/>
    <circle cx="231.0" cy="303.9" r="3" fill="#dc2626" stroke="#fff" stroke-width="1"/>
    <circle cx="219.9" cy="329.8" r="3" fill="#dc2626" stroke="#fff" stroke-width="1"/>
    <circle cx="216.5" cy="346.9" r="3" fill="#dc2626" stroke="#fff" stroke-width="1"/>
    <circle cx="205.7" cy="377.5" r="3" fill="#dc2626" stroke="#fff" stroke-width="1"/>
    <circle cx="220.8" cy="406.4" r="3" fill="#dc2626" stroke="#fff" stroke-width="1"/>
    <circle cx="222.8" cy="314.7" r="3" fill="#dc2626" stroke="#fff" stroke-width="1"/>
  </g>
</svg>