<?xml version="1.0" encoding="UTF-8"?>
<svg width="800" height="600" xmlns="http://www.w3.org/2000/svg">
  <title>Caracas Subway Map</title>
  <rect width="100%" height="100%" fill="#f8f9fa"/>

  <!-- 지하철 선로 -->
  <g stroke="#2563eb" stroke-width="2" fill="none" opacity="0.8">
    <polyline points="392.8,199.4 394.8,199.7 396.3,200.0 397.4,200.2 398.3,200.5 399.0,201.0 399.7,201.6 400.7,202.4 401.1,202.7 402.5,203.8 403.9,205.0 406.1,206.2 411.2,207.4"/>
    <polyline points="406.1,206.2 404.3,206.3 403.6,206.3 397.4,205.4"/>
    <polyline points="414.9,199.6 414.6,200.3 414.2,201.0 413.6,201.5 413.0,201.9 412.9,201.9 412.5,202.1 411.9,202.2 411.0,202.2 410.4,202.1 409.4,201.6 408.7,201.2 408.2,200.7 407.9,200.3 406.8,198.6 405.9,196.8 404.8,195.8"/>
    <polyline points="475.6,171.5 470.7,170.5 469.4,170.1 468.5,169.9 467.4,169.5 466.8,169.3 466.1,169.0 464.1,168.1 463.1,167.6 462.2,167.1 459.8,165.8 453.9,162.3 451.3,160.8 449.7,159.9 447.9,158.7 445.7,157.1 443.8,155.7 442.7,155.0 441.7,154.4 440.8,154.0 439.4,153.7 437.9,153.5 436.4,153.8 435.2,154.2 434.5,154.8 433.7,155.5 433.1,156.5 432.5,157.9 432.2,159.1 431.8,161.1 431.5,162.8 430.8,167.3 426.6,193.4 425.3,201.3 425.1,202.2 424.9,202.9 424.8,203.5 424.5,204.1 424.2,204.8 423.9,205.4 423.6,206.0 423.2,206.5 422.7,207.2 422.0,207.9 420.8,208.8 419.5,209.5 418.2,209.9 416.8,210.3 415.6,210.4 414.5,210.5 413.5,210.5 412.6,210.5 402.5,209.3 400.2,209.0 397.9,208.7"/>
    <polyline points="211.3,550.0 214.0,545.1 214.6,544.0 215.3,543.0 215.9,542.0"/>
    <polyline points="210.7,549.8 211.3,548.7 211.7,548.1 212.3,547.1 213.2,545.4 213.5,544.9 214.0,544.2 214.4,543.7 214.8,543.2 214.9,543.0 215.1,542.8 215.2,542.8 215.6,542.3 215.9,542.0 216.3,541.5 216.8,541.0 216.9,540.9 217.1,540.7 217.5,540.3 218.2,539.0 218.9,537.9 219.4,536.8 219.9,535.8 220.3,534.9 220.6,533.8 220.8,532.9 221.2,531.3 221.6,529.6 222.0,527.8 222.3,526.8 222.5,525.8 222.7,524.9 222.9,524.4 223.1,524.0 223.4,523.3 223.8,522.6 224.2,522.1 224.6,521.7 225.0,521.2 225.6,520.6 226.2,520.0 226.6,519.6 227.2,519.1 227.7,518.7 229.3,517.7 230.3,517.4 231.2,517.2 232.2,517.0 233.7,516.7 236.5,516.1 238.6,515.4 239.9,514.9 240.7,514.4 244.4,511.6 245.3,510.8 246.3,509.7 247.2,508.9 248.9,507.3 250.0,506.4 251.1,505.6 252.5,504.8 254.3,503.8 256.0,502.9"/>
    <polyline points="211.8,550.2 214.2,546.1 214.9,544.7 215.6,543.6 216.1,542.5 217.5,540.3"/>
    <polyline points="211.6,550.1 212.7,548.1 214.5,544.8 215.1,543.7 215.7,542.8 216.4,541.7 216.9,540.9"/>
    <polyline points="210.9,549.8 212.5,547.2 213.3,545.6 214.1,544.3 214.8,543.2"/>
    <polyline points="212.2,550.3 214.5,546.3 215.4,544.7 215.9,543.6 216.4,542.6 217.5,540.3"/>
    <polyline points="212.5,550.3 213.2,549.1 214.6,546.5 215.3,545.2 216.1,543.5 216.7,542.4 217.3,541.2 217.4,540.9 218.2,539.0"/>
    <polyline points="212.7,550.3 214.6,547.0 215.7,544.9 216.2,543.9 217.3,541.2"/>
    <polyline points="212.8,550.4 215.0,546.5 215.9,544.8 216.4,543.6 217.3,541.2"/>
    <polyline points="397.3,205.9 402.5,206.6 403.1,206.6 403.7,206.4 404.3,206.3"/>
    <polyline points="392.9,199.2 394.8,199.4 396.2,199.7 397.5,200.0 398.5,200.4 399.9,201.3 401.0,202.0 402.4,202.9 406.9,204.7 407.3,204.9 407.9,205.1 411.7,205.9"/>
    <polyline points="400.1,200.8 401.1,201.2 402.7,201.8 403.0,201.9 407.2,203.7 407.5,203.9 408.1,204.1 412.0,205.0"/>
    <polyline points="401.1,201.2 401.6,201.3 402.5,201.5 403.7,201.8 407.7,202.9 408.3,203.1 412.3,204.0"/>
    <polyline points="401.6,201.3 408.3,202.6 412.4,203.5"/>
    <polyline points="394.8,199.4 396.6,199.6 397.5,199.7 398.7,200.0 399.5,200.5 400.1,200.7 400.1,200.8 401.2,201.5 402.7,202.2 407.1,204.1 407.4,204.3 408.0,204.5 411.9,205.4"/>
    <polyline points="402.7,201.8 407.3,203.3 408.3,203.7 412.1,204.5"/>
    <polyline points="411.5,206.5 406.9,205.2 402.0,203.2 401.1,202.7"/>
    <polyline points="412.6,203.2 407.5,202.0 404.3,201.5 399.5,200.5"/>
    <polyline points="411.4,207.0 406.5,205.8 404.0,204.7 402.5,203.8"/>
    <polyline points="212.0,550.2 214.3,546.2 215.1,544.7 216.0,543.1 217.5,540.3"/>
    <polyline points="215.3,549.7 215.2,550.0 215.1,550.3 215.1,550.8 215.3,551.8 215.3,551.9 215.3,552.1 219.7,560.8 222.9,568.5 224.1,572.7 225.5,580.8 226.2,587.5 226.8,595.6 226.3,603.4 224.7,611.3 216.0,623.7 213.1,631.5 207.0,649.0 203.4,653.3 198.9,664.3 196.2,670.6 191.0,685.3 182.6,700.8 176.5,714.2 169.6,729.8 168.8,739.4 170.3,752.8 171.6,759.6 171.4,770.0 168.5,791.6 168.9,796.1 170.5,803.7 170.6,805.8 170.4,807.8 168.6,811.8 160.5,823.3 159.2,825.2 154.1,832.3 152.8,834.3 151.2,836.9 150.2,838.7 149.5,840.2 144.2,851.4 142.0,853.7 138.8,855.8"/>
    <polyline points="215.5,549.8 215.4,550.5 215.4,550.9 215.4,551.3 215.6,552.0 215.6,552.1 215.6,552.2 220.0,561.0 223.1,568.6 224.4,572.8 225.8,580.9 226.5,587.7 227.1,595.8 226.6,603.6 225.0,611.4 216.2,623.9 213.4,631.7 207.3,649.2 203.7,653.4 199.2,664.4 196.5,670.7 191.3,685.5 182.9,701.0 176.8,714.4 169.9,729.9 169.1,739.6 170.6,752.9 171.8,759.7 171.7,770.2 168.8,791.7 169.2,796.3 170.6,803.7 170.7,805.9 170.4,807.9 168.7,811.9 163.3,819.6 154.2,832.4 152.9,834.3 151.3,837.0 150.3,838.8 149.6,840.2 144.4,851.3 142.1,853.9 138.9,856.1"/>
    <polyline points="521.5,223.9 527.3,225.5 543.4,230.0 553.2,232.7 574.7,238.7 578.9,239.9 580.7,240.3 581.9,240.5 583.1,240.6 584.2,240.7 585.2,240.7 593.2,240.1 618.1,238.2 618.6,238.2 619.1,238.2 619.5,238.4 619.9,238.6 620.3,238.9 627.3,244.5 627.7,244.8 628.2,245.1 628.7,245.5 631.7,247.3 633.0,248.1 634.6,249.1"/>
    <polyline points="634.6,249.0 633.0,248.0 631.2,246.9 630.6,246.5 630.0,246.1 629.5,245.7 628.7,245.1 620.5,238.5 620.0,238.2 619.6,238.0 619.1,237.8 618.6,237.8 618.0,237.8 593.2,239.6 585.2,240.2 584.2,240.3 583.1,240.2 581.9,240.1 580.8,239.9 579.0,239.5 574.8,238.3 553.2,232.3 527.4,225.1 521.6,223.4"/>
    <polyline points="397.8,209.2 400.1,209.4 402.5,209.7 412.6,210.9 413.5,210.9 414.5,210.9 415.7,210.8 416.8,210.7 418.3,210.4 419.6,209.9 421.0,209.2 422.1,208.3 422.9,207.5 423.4,206.9 423.9,206.3 424.2,205.6 424.5,205.0 424.8,204.3 425.1,203.7 425.3,203.1 425.5,202.4 425.7,201.4 426.9,193.5 431.1,167.4 431.9,162.9 432.1,161.2 432.5,159.2 432.8,158.1 433.4,156.7 433.9,155.8 434.7,155.1 435.3,154.6 436.5,154.2 437.9,154.0 439.3,154.1 440.7,154.4 441.6,154.8 442.6,155.4 443.6,156.1 445.5,157.5 447.8,159.1 449.6,160.3 451.2,161.2 453.8,162.7 459.7,166.2 462.0,167.6 463.0,168.1 464.0,168.5 466.0,169.3 467.1,169.7 468.2,170.0 469.7,170.4 475.5,171.6"/>
    <polyline points="509.5,201.1 509.7,201.4 510.2,201.8 510.7,202.3 511.2,202.7 511.7,203.0"/>
    <polyline points="511.7,202.9 511.2,202.6 510.8,202.2 510.3,201.7 509.8,201.3 509.6,201.0"/>
    <polyline points="506.9,194.9 507.4,196.6 507.7,197.6 508.0,198.2 508.3,198.9 508.6,199.6 509.0,200.3 509.3,200.8 509.5,201.1"/>
    <polyline points="509.6,201.0 509.4,200.7 509.1,200.2 508.7,199.5 508.3,198.8 508.0,198.2 507.8,197.6 507.5,196.5 506.9,194.9"/>
    <polyline points="475.5,171.6 476.1,171.7 476.6,171.8 477.4,171.9 478.3,172.1 481.8,172.6 490.2,173.8 490.9,173.9 491.1,173.9 491.3,174.0 491.6,174.1 491.8,174.2 492.1,174.4 492.3,174.6 500.3,180.9 501.4,181.8 501.9,182.3 502.3,182.8 502.6,183.3 503.0,183.7 503.4,184.3 503.7,185.1 504.1,186.0 504.5,187.2"/>
    <polyline points="924.5,332.0 910.6,319.8 904.0,314.2 903.4,313.7 902.8,313.5 902.0,313.3 901.3,313.3 900.6,313.5 900.0,313.7 888.0,319.9 887.1,320.2 886.3,320.4 884.3,320.3 882.1,320.2 876.4,320.0 875.3,320.1 872.7,320.6 871.5,320.6 859.2,320.0 857.4,319.7 856.8,319.6 855.9,319.3 854.8,318.9 854.2,318.6 853.9,318.5 853.1,318.0 852.6,317.6 852.1,317.3 851.5,316.7 850.8,315.8 850.1,314.8 848.1,310.1 847.0,308.0 846.1,306.3 845.2,304.5 841.2,297.8 840.4,296.5 839.9,295.9 839.4,295.3 838.7,294.6 835.9,291.9 830.0,286.3 828.5,285.0 826.8,283.3 821.4,276.8 819.1,273.9 808.7,261.3 804.9,256.9 804.3,256.3 803.6,255.9 800.8,254.1 780.6,241.6 779.6,241.2 778.7,240.8 777.4,240.5 776.3,240.3 775.4,240.3 774.5,240.3 773.8,240.3 771.3,240.7 768.7,241.1 768.3,241.1 767.7,241.3 767.0,241.6 747.2,248.7 743.3,250.2 742.0,250.6 741.4,250.9 740.9,251.2 740.1,251.6 739.6,251.9 733.4,256.3 732.3,257.1 731.7,257.5 731.1,257.8 728.7,259.1 726.6,260.2 725.9,260.6 725.2,260.8 724.4,261.1 717.5,263.2 716.3,263.6 715.7,263.7 714.8,263.7 709.7,263.2 708.4,263.2 707.5,263.3 706.4,263.7 693.7,268.2 691.9,268.9 691.6,269.0 691.2,269.0 690.9,269.1 690.6,269.1 690.2,269.1 689.8,269.1 689.3,269.0 688.8,268.9 683.9,267.9 679.2,267.0 676.6,266.5 675.2,266.1 674.2,265.7 673.3,265.3 672.3,264.7 667.4,261.7 664.5,260.1 663.3,259.3 662.4,258.7 661.1,257.7 658.7,255.9 656.4,254.1 654.7,252.6 653.3,251.6 652.2,250.9 651.2,250.3 650.3,249.9 649.2,249.5 646.2,248.6 641.6,247.3 636.8,246.0 635.8,245.7 634.8,245.3 633.9,244.9 633.1,244.5 631.6,243.6 627.2,241.1 617.9,235.7 617.0,235.2 616.2,234.6 615.5,233.9 615.1,233.4 614.7,232.6 612.8,228.7 612.4,227.8 612.0,227.1 611.4,226.4 610.9,226.0 610.2,225.7 608.7,225.1 605.8,224.2 603.4,223.5 597.6,221.7 596.6,221.4 596.0,221.4 595.5,221.4 595.0,221.5 594.4,221.7 593.9,221.9 593.3,222.2 592.6,222.8 591.1,224.2 589.5,225.4 589.1,225.7 588.7,225.9 588.2,226.1 587.9,226.2 587.6,226.2 587.3,226.3 587.0,226.3 586.7,226.3 586.4,226.2 586.1,226.2 585.8,226.1 585.0,225.9 577.9,224.0 571.9,222.3 571.4,222.2 571.1,222.0 570.8,221.8 570.4,221.5 570.0,221.1 569.8,221.0 569.5,220.8 569.2,220.7 568.7,220.6 563.9,219.3 558.7,217.9 558.3,217.8 557.7,217.7 557.1,217.6 556.5,217.5 556.0,217.4 555.3,217.3 554.7,217.1 547.4,215.0 524.4,208.5 520.8,207.5 519.9,207.1 519.1,206.8 518.2,206.4 512.6,203.4 511.7,202.9"/>
    <polyline points="642.0,250.0 642.5,247.4 642.9,244.9"/>
    <polyline points="504.6,187.2 504.2,186.0 503.8,185.0 503.4,184.3 503.1,183.7 502.7,183.2 502.3,182.7 501.9,182.2 501.4,181.7 500.4,180.8 492.3,174.5 492.1,174.3 491.8,174.1 491.6,174.0 491.5,174.0"/>
    <polyline points="511.7,203.0 512.6,203.5 518.1,206.5 519.1,207.0 519.8,207.3 520.8,207.6 523.7,208.4 523.8,208.5 524.0,208.5 524.4,208.6 547.4,215.1 554.7,217.2 563.8,219.7 567.8,220.8 568.7,221.0 569.0,221.1 569.3,221.2 569.6,221.4 569.9,221.6 570.2,221.9 570.7,222.2 571.0,222.4 571.3,222.6 571.8,222.8 577.8,224.4 584.9,226.3 585.4,226.5 586.1,226.6 586.4,226.6 586.7,226.6 587.0,226.6 587.3,226.6 587.6,226.5 587.9,226.4 588.2,226.3 588.5,226.2 588.7,226.0 589.2,225.8 589.6,225.5 591.2,224.3 592.7,222.9 593.4,222.4 593.9,222.0 594.5,221.8 595.0,221.6 595.5,221.6 596.0,221.5 596.5,221.6 597.6,221.8 603.4,223.6 605.8,224.3 608.6,225.2 610.1,225.8 610.8,226.2 611.3,226.5 611.9,227.2 612.4,227.8 612.8,228.7 614.6,232.7 615.0,233.4 615.4,234.0 616.2,234.7 616.9,235.3 617.9,235.8 627.1,241.2 631.5,243.7 633.1,244.6 633.9,245.0 634.7,245.4 635.8,245.8 636.8,246.1 641.6,247.4 646.1,248.7 649.2,249.6 650.3,250.0 651.2,250.5 652.1,251.0 653.2,251.7 654.6,252.8 656.4,254.2 658.7,256.0 661.0,257.8 662.4,258.8 663.2,259.4 664.4,260.2 667.3,261.8 672.2,264.8 673.3,265.4 674.2,265.9 675.2,266.2 676.6,266.6 679.2,267.1 683.9,268.0 688.8,269.0 689.6,269.2 690.3,269.3 691.0,269.3 691.5,269.3 692.1,269.2 692.6,269.1 693.8,268.6 706.5,264.1 707.6,263.8 708.4,263.6 709.7,263.6 714.8,264.1 715.7,264.1 716.4,264.0 717.6,263.7 724.5,261.5 725.3,261.3 726.0,261.0 726.7,260.6 728.9,259.5 731.3,258.2 731.8,257.9 732.4,257.5 733.5,256.7 739.8,252.3 740.3,252.0 741.0,251.6 741.5,251.3 742.1,251.1 743.4,250.6 747.3,249.2 748.5,248.9 767.1,242.0 767.7,241.8 768.3,241.6 768.7,241.5 771.4,241.1 773.8,240.7 774.6,240.7 775.4,240.7 776.3,240.8 777.4,240.9 778.6,241.3 779.5,241.6 780.4,242.0 800.7,254.5 803.5,256.3 804.1,256.7 804.7,257.3 808.4,261.7 815.3,269.9 818.8,274.2 821.2,277.1 823.7,280.1 826.6,283.6 828.3,285.3 829.8,286.7 835.7,292.2 838.5,295.0 839.2,295.7 839.7,296.2 840.1,296.8 841.0,298.1 844.9,304.7 845.8,306.5 846.7,308.3 847.8,310.3 849.8,315.1 850.3,316.0 851.3,317.1 851.8,317.7 852.4,318.1 853.0,318.5 853.7,318.9 854.7,319.3 855.6,319.7 857.3,320.3 859.0,320.5 871.5,321.1 872.8,321.0 875.3,320.6 876.4,320.5 882.1,320.7 884.3,320.7 886.3,320.8 887.2,320.6 888.1,320.4 900.0,314.2 900.7,313.9 901.3,313.8 902.1,313.8 902.7,313.9 903.3,314.1 903.9,314.5 910.4,320.1 924.3,332.3"/>
    <polyline points="642.8,244.8 642.4,247.4 641.9,250.0"/>
    <polyline points="461.0,506.2 463.5,508.8 466.1,511.5 466.3,511.7 466.8,512.5 467.1,512.8"/>
    <polyline points="467.1,512.8 467.7,513.3 468.0,513.7 468.4,513.9 469.0,514.2 469.8,514.4 470.8,514.7 472.1,514.9 478.6,515.6 479.6,515.6 480.5,515.5 481.6,515.2 482.7,514.7 483.7,514.2 484.7,513.5 485.5,512.9 486.2,512.2 486.9,511.4 487.8,510.2 488.5,508.9 489.1,507.5 491.1,501.8 497.2,484.1 498.9,479.0 499.2,477.9 499.6,476.7 499.7,476.3 499.8,475.8 499.8,475.4 499.9,474.3 500.1,468.7 500.2,466.9 500.6,464.8 500.9,463.6 501.4,461.9 502.7,458.8 505.5,452.6 518.5,424.1 518.7,423.6 518.9,423.1 519.2,422.3 520.2,418.0 520.9,415.6 521.5,414.2 522.2,412.9 528.0,405.0 531.0,401.0 532.9,398.7 534.2,397.3 535.2,396.4 536.1,395.7 537.3,395.0 545.0,390.5 547.4,388.9 549.0,387.5 550.3,386.3 552.6,383.9 553.2,383.3 554.1,382.4 557.2,379.6"/>
    <polyline points="557.2,379.6 557.8,378.9 558.4,378.2 559.0,377.4 559.8,376.4 560.4,375.5 561.0,374.5 561.8,372.9 562.5,371.4 565.4,364.3 567.7,358.9 568.2,357.6 568.4,356.9 568.6,356.3 568.8,355.6 569.2,354.0"/>
    <polyline points="569.2,354.0 578.8,317.5 580.6,310.4 580.8,309.7 581.0,309.1 581.2,308.7 581.4,308.3 581.6,308.0 581.9,307.8 582.3,307.5 582.8,307.3 583.6,306.9 584.5,306.6 590.6,304.4 591.5,304.0 591.9,303.8 592.3,303.6 592.8,303.3 593.3,302.8 597.2,299.0 601.6,294.8 605.8,290.4 606.5,289.7 607.2,289.0 608.3,288.0 609.7,286.7 611.2,285.3 616.7,280.6 635.0,265.1"/>
    <polyline points="634.8,264.7 616.6,280.3 611.1,285.0 609.5,286.4 608.1,287.6 607.0,288.6 606.2,289.4 605.6,290.0 601.4,294.4 597.0,298.6 593.1,302.4 592.6,302.9 592.1,303.2 591.8,303.4 591.4,303.6 590.5,304.0 584.4,306.2 583.5,306.5 582.6,306.9 582.1,307.1 581.7,307.4 581.4,307.7 581.2,308.0 580.9,308.4 580.5,309.5 580.3,310.3 578.4,317.4 568.9,353.9"/>
    <polyline points="568.9,353.9 568.1,356.8 567.7,358.2 567.7,358.5 567.6,358.7 567.5,359.1 567.3,359.5 565.4,364.2 562.4,371.4 561.7,372.9 560.9,374.5 560.7,374.9 560.3,375.4 559.9,375.9 559.5,376.5 558.9,377.1 558.0,378.1 557.0,379.2"/>
    <polyline points="557.0,379.2 553.9,382.1 553.0,383.0 552.4,383.5 550.1,386.0 548.8,387.2 547.2,388.5 544.8,390.1 537.1,394.6 536.0,395.3 535.0,396.0 534.0,397.0 532.7,398.4 530.8,400.7 527.8,404.7 522.0,412.6 521.2,414.0 520.6,415.5 519.9,417.8 518.9,422.1 518.6,422.9 518.4,423.4 518.2,423.9 505.2,452.4 502.4,458.6 501.1,461.8 500.6,463.4 500.3,464.7 499.9,466.8 499.8,468.6 499.5,474.3 499.5,475.3 499.4,475.7 499.4,476.2 499.2,476.6 498.9,477.7 498.6,478.8 496.8,483.9 490.8,501.6 488.8,507.4 488.2,508.6 487.5,509.9 486.7,511.1 486.0,511.8 485.3,512.6 484.6,513.1 483.6,513.8 482.6,514.3 481.5,514.7 480.5,515.0 479.6,515.2 478.6,515.1 472.1,514.5 470.9,514.2 469.9,514.0 469.1,513.7 468.6,513.5 468.2,513.3 467.8,513.0 467.3,512.4"/>
    <polyline points="467.3,512.4 467.0,512.2 466.4,511.6 466.2,511.4 463.5,508.7 461.0,506.1"/>
    <polyline points="635.0,265.1 636.5,263.8 637.8,262.6 638.4,261.9 639.1,261.0 639.6,260.1 639.9,259.5 640.3,258.4 640.6,257.4 640.9,256.3 641.2,255.0 642.0,250.0"/>
    <polyline points="641.9,250.0 641.6,252.1 641.0,254.9 640.7,256.3 640.2,257.7 639.9,258.8 639.3,259.9 638.8,260.7 638.2,261.6 637.6,262.3 636.3,263.5 634.8,264.7"/>
    <polyline points="521.6,223.4 521.0,223.3 520.4,223.3 519.8,223.3 510.6,224.4"/>
    <polyline points="507.1,225.7 503.3,229.4 503.0,229.6 502.8,229.9 502.6,230.1 502.3,230.6 501.9,231.1 501.5,231.7"/>
    <polyline points="436.5,286.9 436.7,286.6 437.0,286.3 437.3,285.7 437.6,285.2 437.8,284.8 437.9,284.2 438.9,279.6 439.0,279.0 439.2,278.3 439.5,277.8 439.9,277.2 440.4,276.5 447.8,268.3 447.8,268.2 449.8,266.6 452.6,264.9 454.2,264.1 455.4,263.5 455.9,263.2 456.6,262.9 457.7,262.4 459.4,261.6 462.2,259.8 469.1,252.7 475.7,249.3 492.0,240.9 492.5,240.6 492.8,240.4 493.3,240.0 495.9,237.5"/>
    <polyline points="501.5,231.7 499.1,233.9 493.1,239.6 492.7,240.0 492.3,240.2 491.9,240.5 475.5,248.8 468.7,252.5 461.6,259.8 458.8,261.3 458.1,261.6 457.9,261.7"/>
    <polyline points="495.9,237.5 496.3,237.3 496.5,237.1 496.7,237.0 497.1,236.8 497.3,236.7 497.5,236.5 498.1,236.0 499.5,234.6 501.1,233.1 508.7,225.8 509.1,225.4 509.5,225.2 510.0,225.0 510.6,224.9 519.8,223.8 520.4,223.8 521.0,223.8 521.5,223.9"/>
    <polyline points="510.6,224.4 510.0,224.5 509.4,224.6 508.8,224.7 508.4,224.9 508.0,225.1 507.5,225.4 507.1,225.7"/>
    <polyline points="495.9,237.5 497.8,235.7 499.3,234.2 517.0,217.5 517.6,216.8 518.0,216.4 518.3,216.0 518.5,215.6 518.7,215.2 518.9,214.6 519.1,214.0 519.2,213.5 519.3,212.9 520.2,206.3 520.6,203.7 521.3,198.6"/>
    <polyline points="521.2,198.5 520.5,203.7 520.1,206.3 519.2,212.9 519.1,213.5 519.0,214.0 518.8,214.4 518.7,214.8 518.4,215.2 518.0,215.8 517.5,216.3 516.8,217.1 501.5,231.7"/>
    <polyline points="319.4,388.2 326.9,377.1 331.5,370.2 332.2,369.3 332.7,368.8 333.3,368.3 334.1,367.7 346.7,359.3 347.3,359.0 347.8,358.6 348.3,358.1 351.6,354.3 355.5,349.7 356.0,349.1 356.6,348.5 357.0,348.1 357.5,347.8 374.8,336.4 375.2,336.1 388.7,328.4 409.5,316.6 410.1,316.2 410.7,315.8 411.2,315.3 411.8,314.7 412.4,314.1 425.6,299.2 436.5,286.9"/>
    <polyline points="436.5,286.8 425.6,299.1 412.4,314.0 411.8,314.6 411.2,315.2 410.6,315.7 410.1,316.1 409.5,316.5 388.7,328.3 375.2,336.0 374.8,336.3 372.8,337.6 357.5,347.7 357.0,348.0 356.6,348.4 356.0,349.1 355.5,349.6 351.5,354.2 348.5,357.7 348.2,358.0 347.7,358.5 347.2,358.9 346.7,359.2 334.1,367.6 333.3,368.2 332.6,368.7 332.1,369.2 331.5,370.1 326.8,377.0 319.4,388.2"/>
    <polyline points="348.1,517.0 345.9,516.2 343.7,515.5"/>
    <polyline points="343.6,515.6 345.8,516.4 348.0,517.1"/>
    <polyline points="348.0,517.1 348.5,517.3 349.8,517.5 350.6,517.6 351.5,517.5 352.4,517.4 354.4,517.0 355.4,516.8 356.2,516.5 356.8,516.2 358.4,515.3 359.3,514.8 359.9,514.5 360.4,514.3"/>
    <polyline points="360.4,514.2 359.9,514.4 359.2,514.7 358.4,515.2 356.8,516.1 356.1,516.4 355.4,516.7 354.4,516.9 352.4,517.3 351.5,517.4 350.6,517.5 349.8,517.4 348.6,517.1 348.1,517.0"/>
    <polyline points="320.5,508.3 318.2,508.3 315.9,508.2"/>
    <polyline points="315.9,508.4 318.2,508.4 320.5,508.4"/>
    <polyline points="320.5,508.4 324.6,508.5 325.0,508.5 325.5,508.4 326.0,508.3 328.0,507.7 328.8,507.5 329.4,507.4 330.0,507.4 330.6,507.4 331.2,507.5 331.9,507.7 332.5,507.9 333.0,508.2 333.5,508.5 334.0,508.8 334.4,509.1 335.0,509.7 335.4,510.2 336.1,511.0 337.4,512.5 337.8,512.9 338.2,513.2 338.8,513.7 339.4,514.1 340.0,514.4 341.6,514.9 343.6,515.6"/>
    <polyline points="343.7,515.5 341.6,514.8 340.1,514.3 339.4,514.0 338.8,513.6 338.2,513.1 337.8,512.8 337.5,512.5 336.2,510.9 335.5,510.1 335.0,509.6 334.5,509.0 334.1,508.7 333.6,508.4 333.0,508.0 332.5,507.8 331.9,507.6 331.2,507.4 330.6,507.3 330.0,507.3 329.4,507.3 328.8,507.4 328.0,507.6 325.9,508.2 325.5,508.3 325.0,508.4 324.6,508.4 320.5,508.3"/>
    <polyline points="360.4,514.3 360.9,514.3 362.6,514.1"/>
    <polyline points="362.6,514.0 360.9,514.1 360.4,514.2"/>
    <polyline points="292.1,465.2 292.4,464.0 292.7,462.9 292.8,462.0 293.0,461.1 293.1,459.6 293.2,457.0 293.2,455.8 293.3,455.3 293.5,454.5"/>
    <polyline points="293.3,453.7 293.2,454.8 293.1,456.4 293.1,457.0 293.0,459.6 292.9,461.1 292.8,462.0 292.6,462.9 292.3,464.0 292.0,465.2"/>
    <polyline points="319.4,388.2 317.7,390.6 317.0,391.5 316.0,392.8 314.8,394.3 314.3,394.8 313.5,395.6 311.6,397.3 309.6,399.0 308.9,399.6 308.1,400.2 307.6,400.5 307.1,400.8 306.5,401.2 305.9,401.5 305.0,402.0 304.5,402.2 304.1,402.4 303.6,402.8 302.9,403.2 300.4,404.8 298.0,406.4 294.7,408.5 293.5,409.3 293.0,409.6 292.5,410.0 292.1,410.4 291.6,410.8 291.2,411.2 290.7,411.7 290.3,412.2 289.9,412.7 289.6,413.2 289.3,413.7 289.0,414.2 288.6,414.8 288.4,415.2 288.2,415.8 288.0,416.3 287.7,416.9 287.5,417.5 287.4,418.0 287.2,418.5 287.1,419.2 286.9,419.7 286.8,420.3 286.7,420.9 286.6,421.5 286.6,422.1 286.6,422.7 286.5,423.4 286.5,424.1 286.5,424.7 286.6,425.3 286.6,425.9 286.7,426.5 286.7,427.0 286.8,427.5 287.0,428.7 287.5,431.3 287.9,433.0 288.5,435.8 288.6,436.4 288.7,437.0 288.9,437.6 289.1,438.1 289.2,438.6 289.4,439.1 289.6,439.5 289.8,439.8 290.2,440.7 291.0,442.4 291.6,443.4 291.8,443.9 292.1,444.4 292.3,444.9 292.4,445.3 292.5,445.6 292.7,446.1 292.9,446.8 293.0,447.2 293.1,447.8 293.2,448.3 293.2,448.8 293.3,449.4 293.4,450.0 293.4,450.5 293.4,451.0 293.4,451.8 293.3,453.7"/>
    <polyline points="293.5,454.5 293.5,453.8 293.5,451.8 293.5,450.7 293.5,450.0 293.4,449.2 293.3,448.7 293.3,448.1 293.2,447.5 293.1,447.1 292.9,446.5 292.8,446.1 292.6,445.5 292.4,444.9 292.2,444.4 291.9,443.9 291.5,443.0 290.2,440.3 289.5,438.9 289.4,438.5 289.2,438.1 289.1,437.7 288.9,437.3 288.8,436.7 288.6,436.0 288.4,435.0 287.3,429.3 287.1,428.0 287.0,427.3 286.9,426.6 286.8,425.9 286.8,425.2 286.8,424.6 286.8,423.8 286.8,423.1 286.8,422.4 286.9,421.7 287.0,421.1 287.1,420.3 287.3,419.5 287.4,418.8 287.6,418.2 287.8,417.5 288.1,416.8 288.3,416.3 288.5,415.8 288.8,415.2 289.0,414.8 289.3,414.4 289.6,413.8 289.9,413.3 290.2,412.9 290.6,412.4 291.0,411.9 291.4,411.5 291.9,411.0 292.3,410.6 292.8,410.3 293.5,409.8 294.4,409.1 298.2,406.8 300.5,405.3 303.0,403.6 306.1,401.6 307.3,400.8 308.1,400.3 308.9,399.7 309.7,399.1 311.7,397.3 313.5,395.7 314.3,394.9 314.9,394.3 316.1,392.8 317.1,391.6 317.7,390.7 319.4,388.2"/>
    <polyline points="292.0,465.2 291.3,467.3 290.8,468.8 290.7,469.4 290.4,470.2 290.1,471.6 289.9,472.8 289.8,473.7 289.8,474.7 289.8,475.4 290.3,484.2 290.3,485.3 290.5,486.2 290.6,487.0 290.8,487.8 291.0,488.5 291.4,489.6 291.7,490.3 292.1,491.0 292.4,491.5 292.9,492.3 293.4,492.8 294.4,493.8 295.1,494.5 295.7,495.0 296.5,495.7 300.3,498.7 304.7,502.1 305.2,502.5 305.6,502.9 306.3,503.7 306.8,504.3 307.8,505.6 308.4,506.1 308.9,506.6 309.4,507.0 309.9,507.3 310.4,507.6 311.0,507.9 311.7,508.1 312.5,508.2 313.4,508.3 315.9,508.4"/>
    <polyline points="315.9,508.2 313.4,508.2 312.5,508.1 311.7,508.0 311.0,507.8 310.4,507.5 309.9,507.2 309.5,506.9 309.0,506.5 308.4,506.1 307.9,505.5 306.9,504.2 306.3,503.6 305.7,502.9 305.3,502.4 304.7,502.0 300.4,498.6 296.5,495.6 295.8,494.9 295.1,494.4 294.4,493.7 293.5,492.7 293.0,492.2 292.4,491.4 292.1,490.9 291.8,490.3 291.5,489.5 291.1,488.4 290.9,487.7 290.7,487.0 290.5,486.1 290.4,485.3 290.3,484.2 289.9,475.4 289.9,474.7 289.9,473.7 290.0,472.8 290.2,471.7 290.5,470.2 290.8,469.4 290.9,468.9 291.4,467.3 292.1,465.2"/>
    <polyline points="275.9,493.9 276.1,493.8 276.3,493.5 276.5,493.2 276.8,492.8 277.5,491.4 278.8,488.9 279.3,487.9 279.8,487.0 280.4,486.2 281.0,485.4 281.6,484.6 282.5,483.8 283.8,482.7 284.7,481.8 285.3,481.1 285.8,480.4 286.3,479.5 286.8,478.5 287.4,477.3 288.1,475.6 289.3,473.2 291.3,468.4 291.9,466.8 292.3,465.7 292.5,464.9 292.7,464.1 292.9,463.0 293.1,462.2 293.2,461.3 293.2,460.7 293.3,459.2 293.4,458.2 293.4,457.2 293.5,455.9 293.5,455.0 293.5,454.5"/>
    <polyline points="293.3,453.7 293.3,455.3 293.3,456.1 293.3,457.8 293.2,459.2 293.1,460.7 293.1,461.3 293.0,462.2 292.8,463.0 292.6,464.0 292.4,464.9 292.2,465.7 291.8,466.7 291.2,468.3 289.2,473.1 288.1,475.5 287.3,477.2 286.7,478.4 286.2,479.4 285.7,480.3 285.2,481.0 284.7,481.7 283.8,482.6 282.5,483.7 281.6,484.6 280.9,485.3 280.3,486.1 279.8,486.9 279.2,487.9 278.7,488.9 277.4,491.3 276.7,492.7 276.4,493.1 276.2,493.4 276.0,493.7 275.9,493.9"/>
    <polyline points="216.7,543.2 214.4,549.0"/>
    <polyline points="214.6,549.2 217.0,543.3"/>
    <polyline points="215.0,549.5 215.4,548.6 217.4,543.7 217.7,543.0 217.9,542.4 218.3,541.4 219.6,538.0 220.4,536.2 221.2,534.4 221.4,533.8 221.7,533.2 221.9,532.7 222.1,532.1 222.3,531.5 222.5,530.7 222.8,529.8 223.0,528.8 223.4,526.9 223.5,526.4 223.8,525.5 223.9,524.9 224.1,524.4 224.4,523.7 224.7,523.0 225.2,522.3 225.7,521.5 226.1,521.0 226.4,520.6 226.8,520.2 227.5,519.5 228.0,519.1 228.5,518.8 229.1,518.4 229.5,518.3 230.0,518.0 230.8,517.8 231.6,517.6 235.8,516.7 237.1,516.5 238.1,516.2 238.6,516.0 239.0,515.8 239.5,515.6 240.1,515.3 240.5,515.1 241.8,514.2 243.9,512.6 245.1,511.7 246.6,510.6 247.7,509.7 248.1,509.2 248.9,508.5 249.9,507.5 250.4,507.0 250.8,506.7 251.3,506.3 251.9,505.8 253.3,504.9 260.3,500.2 261.0,499.8 261.4,499.6 261.9,499.4 262.4,499.2 263.0,499.0 263.6,498.9 264.4,498.7"/>
    <polyline points="264.4,498.6 263.6,498.7 263.0,498.9 262.4,499.1 261.8,499.3 261.3,499.5 260.9,499.7 260.3,500.1 256.0,502.9 253.2,504.8 251.9,505.7 251.2,506.2 250.7,506.6 250.4,506.9 249.8,507.4 248.8,508.4 248.1,509.1 247.6,509.6 246.5,510.5 245.0,511.6 243.8,512.5 241.7,514.1 240.5,515.0 240.0,515.2 239.5,515.5 239.0,515.7 238.5,515.9 238.0,516.1 237.1,516.4 235.8,516.6 231.6,517.5 230.8,517.7 230.0,517.9 229.4,518.1 229.0,518.3 228.5,518.7 228.0,519.0 227.5,519.4 226.8,520.1 226.3,520.5 226.0,520.9 225.6,521.5 225.1,522.2 224.7,522.9 224.3,523.6 224.1,524.3 223.9,524.9 223.7,525.4 223.4,526.3 223.3,526.9 222.9,528.7 222.7,529.7 222.4,530.7 222.2,531.5 222.0,532.0 221.8,532.6 221.6,533.1 221.3,533.8 221.1,534.4 220.3,536.2 219.6,538.0 218.0,541.4 217.6,542.4 217.2,543.5 215.2,548.5 214.8,549.3"/>
    <polyline points="216.1,547.8 215.7,548.7 215.3,549.7"/>
    <polyline points="215.5,549.8 215.9,548.9 216.3,547.9"/>
    <polyline points="264.4,498.7 266.5,498.4 269.2,498.0 271.0,497.7 271.6,497.6 272.0,497.4 272.5,497.2 272.9,497.0 273.3,496.6 273.9,496.2 274.5,495.6 275.9,493.9"/>
    <polyline points="275.9,493.9 274.4,495.5 273.8,496.1 273.3,496.5 272.8,496.9 272.4,497.1 272.0,497.3 271.5,497.5 270.9,497.6 269.2,497.9 266.4,498.3 264.4,498.6"/>
    <polyline points="665.8,285.2 663.0,283.5 660.2,281.7 659.9,281.5 659.7,281.3 650.7,273.7 650.1,273.1 649.6,272.6 649.1,271.9 648.7,271.0 642.7,255.1 642.5,254.6 642.2,254.2 642.0,253.9 641.7,253.5 641.4,253.3 640.8,252.9 638.9,251.7"/>
    <polyline points="638.8,251.8 640.7,253.0 641.2,253.3 641.4,253.5 641.7,253.8 641.9,254.1 642.1,254.6 642.4,255.3 648.4,271.2 648.9,272.1 649.4,272.9 649.9,273.5 650.6,274.1 659.5,281.7 659.7,281.9 660.1,282.1 662.9,283.9 665.7,285.6"/>
    <polyline points="638.9,251.7 636.8,250.3 634.6,249.0"/>
    <polyline points="634.6,249.1 636.7,250.5 638.8,251.8"/>
    <polyline points="392.9,199.2 391.4,199.0 391.0,199.0 390.5,198.9 390.2,199.0 389.9,199.1 389.6,199.4 389.4,199.6 389.2,200.0 389.0,200.4 388.8,200.9 388.8,201.4 388.5,205.3 388.5,206.0 388.7,206.4 388.8,206.9 389.1,207.3 389.3,207.6 389.7,207.9 390.0,208.1 390.4,208.2 397.8,209.2"/>
    <polyline points="397.9,208.7 390.5,207.8 390.1,207.7 389.8,207.5 389.6,207.3 389.3,207.0 389.1,206.6 389.0,206.3 388.9,205.9 388.8,205.3 389.1,201.4 389.2,201.0 389.3,200.6 389.4,200.2 389.6,199.9 389.9,199.6 390.0,199.5 390.3,199.3 390.7,199.2 391.1,199.2 391.5,199.3 392.8,199.4"/>
    <polyline points="505.1,189.2 506.0,192.1 506.8,194.6"/>
    <polyline points="504.5,187.2 505.1,189.2"/>
    <polyline points="506.8,194.4 506.1,192.0 505.5,190.4"/>
    <polyline points="505.2,189.2 504.6,187.2"/>
    <polyline points="457.9,261.7 455.5,263.0 452.8,264.1 447.6,267.9 443.2,272.8 440.2,276.2 439.6,276.9 439.2,277.5 438.9,278.1 438.7,278.8 438.6,279.5 437.6,284.1 437.4,284.7 437.3,285.2 437.1,285.6 437.0,286.0 436.7,286.4 436.5,286.8"/>
    <polyline points="491.4,173.9 491.1,173.8 490.9,173.8 490.2,173.7 481.8,172.5 478.3,172.0 477.4,171.8 476.7,171.7 476.1,171.6 475.6,171.5"/>
    <polyline points="491.5,174.0 491.4,173.9"/>
    <polyline points="506.8,194.6 506.9,194.9"/>
    <polyline points="506.9,194.9 506.8,194.4"/>
  </g>

  <!-- 지하철 역 -->
  <g>
    <circle cx="547.4" cy="215.1" r="3" fill="#dc2626" stroke="#fff" stroke-width="1"/>
    <circle cx="616.6" cy="280.5" r="3" fill="#dc2626" stroke="#fff" stroke-width="1"/>
    <circle cx="597.1" cy="298.8" r="3" fill="#dc2626" stroke="#fff" stroke-width="1"/>
    <circle cx="527.9" cy="404.9" r="3" fill="#dc2626" stroke="#fff" stroke-width="1"/>
    <circle cx="578.6" cy="317.4" r="3" fill="#dc2626" stroke="#fff" stroke-width="1"/>
    <circle cx="505.4" cy="452.5" r="3" fill="#dc2626" stroke="#fff" stroke-width="1"/>
    <circle cx="497.0" cy="484.0" r="3" fill="#dc2626" stroke="#fff" stroke-width="1"/>
    <circle cx="463.5" cy="508.7" r="3" fill="#dc2626" stroke="#fff" stroke-width="1"/>
    <circle cx="563.8" cy="219.5" r="3" fill="#dc2626" stroke="#fff" stroke-width="1"/>
    <circle cx="447.7" cy="268.1" r="3" fill="#dc2626" stroke="#fff" stroke-width="1"/>
    <circle cx="475.6" cy="249.0" r="3" fill="#dc2626" stroke="#fff" stroke-width="1"/>
    <circle cx="499.3" cy="234.2" r="3" fill="#dc2626" stroke="#fff" stroke-width="1"/>
    <circle cx="520.5" cy="203.7" r="3" fill="#dc2626" stroke="#fff" stroke-width="1"/>
    <circle cx="527.3" cy="225.3" r="3" fill="#dc2626" stroke="#fff" stroke-width="1"/>
    <circle cx="553.2" cy="232.5" r="3" fill="#dc2626" stroke="#fff" stroke-width="1"/>
    <circle cx="636.8" cy="250.4" r="3" fill="#dc2626" stroke="#fff" stroke-width="1"/>
    <circle cx="574.7" cy="238.5" r="3" fill="#dc2626" stroke="#fff" stroke-width="1"/>
    <circle cx="524.4" cy="208.6" r="3" fill="#dc2626" stroke="#fff" stroke-width="1"/>
    <circle cx="577.9" cy="224.2" r="3" fill="#dc2626" stroke="#fff" stroke-width="1"/>
    <circle cx="605.8" cy="224.3" r="3" fill="#dc2626" stroke="#fff" stroke-width="1"/>
    <circle cx="658.6" cy="255.8" r="3" fill="#dc2626" stroke="#fff" stroke-width="1"/>
    <circle cx="684.0" cy="268.0" r="3" fill="#dc2626" stroke="#fff" stroke-width="1"/>
    <circle cx="728.8" cy="259.3" r="3" fill="#dc2626" stroke="#fff" stroke-width="1"/>
    <circle cx="747.2" cy="248.3" r="3" fill="#dc2626" stroke="#fff" stroke-width="1"/>
    <circle cx="565.4" cy="364.2" r="3" fill="#dc2626" stroke="#fff" stroke-width="1"/>
    <circle cx="662.9" cy="283.6" r="3" fill="#dc2626" stroke="#fff" stroke-width="1"/>
    <circle cx="506.0" cy="192.1" r="3" fill="#dc2626" stroke="#fff" stroke-width="1"/>
    <circle cx="481.8" cy="172.5" r="3" fill="#dc2626" stroke="#fff" stroke-width="1"/>
    <circle cx="453.9" cy="162.5" r="3" fill="#dc2626" stroke="#fff" stroke-width="1"/>
    <circle cx="431.0" cy="167.4" r="3" fill="#dc2626" stroke="#fff" stroke-width="1"/>
    <circle cx="400.1" cy="209.2" r="3" fill="#dc2626" stroke="#fff" stroke-width="1"/>
    <circle cx="426.8" cy="193.5" r="3" fill="#dc2626" stroke="#fff" stroke-width="1"/>
    <circle cx="326.7" cy="376.9" r="3" fill="#dc2626" stroke="#fff" stroke-width="1"/>
    <circle cx="351.5" cy="354.3" r="3" fill="#dc2626" stroke="#fff" stroke-width="1"/>
    <circle cx="388.7" cy="328.4" r="3" fill="#dc2626" stroke="#fff" stroke-width="1"/>
    <circle cx="425.6" cy="299.1" r="3" fill="#dc2626" stroke="#fff" stroke-width="1"/>
    <circle cx="215.5" cy="547.6" r="3" fill="#dc2626" stroke="#fff" stroke-width="1"/>
    <circle cx="266.8" cy="498.3" r="3" fill="#dc2626" stroke="#fff" stroke-width="1"/>
    <circle cx="345.9" cy="516.1" r="3" fill="#dc2626" stroke="#fff" stroke-width="1"/>
    <circle cx="318.2" cy="508.1" r="3" fill="#dc2626" stroke="#fff" stroke-width="1"/>
    <circle cx="300.9" cy="404.6" r="3" fill="#dc2626" stroke="#fff" stroke-width="1"/>
  </g>
</svg>