<?xml version="1.0" encoding="UTF-8"?>
<svg width="800" height="600" xmlns="http://www.w3.org/2000/svg">
  <title>Changsha Subway Map</title>
  <rect width="100%" height="100%" fill="#f8f9fa"/>

  <!-- 지하철 선로 -->
  <g stroke="#2563eb" stroke-width="2" fill="none" opacity="0.8">
    <polyline points="1334.0,532.1 1290.9,533.3 1234.3,535.2 1227.6,535.4 1169.1,537.2 1154.1,537.8 1143.4,538.2 1139.5,538.1 1136.0,537.9 1130.5,537.4 1112.0,534.9 1096.7,532.4 1087.0,530.4 1076.6,527.9 1054.8,520.0 1047.6,514.0 1044.7,510.6 1043.0,507.5 1041.6,503.9 1040.5,498.3 1040.3,494.9 1040.2,490.5 1040.3,482.4 1040.2,479.5 1039.6,440.2 1039.3,433.6 1039.2,430.6 1038.9,426.7 1037.7,419.0 1036.8,415.5 1035.0,413.2 1030.4,409.3 1026.6,406.7 1024.1,405.6 1020.9,404.3 1016.9,402.9 1013.3,402.2 1006.0,401.5 998.1,400.6 994.2,399.8 988.7,398.2 985.9,396.9 983.8,395.6 982.5,394.4 981.8,393.3 981.5,392.5 981.3,391.0 981.2,387.6 982.9,357.9 983.7,352.4 983.7,348.6 983.8,332.9 984.3,324.3 984.0,322.1 982.8,320.4 980.6,319.0 977.6,317.9 973.7,316.7 970.3,316.3 960.1,316.1 945.6,315.6 943.4,315.6 939.9,315.5 918.3,315.4 904.2,315.4 893.8,315.3 886.5,315.3 880.3,315.3 857.8,315.0 856.6,315.0 822.3,314.5 813.8,314.3 793.1,313.9 777.6,313.7 770.8,313.5 762.0,312.8 753.8,311.8 743.3,309.6 737.7,308.3 728.9,306.3 721.0,305.0 713.5,304.2 708.7,303.8 677.3,302.8 643.6,301.1 619.3,300.6 594.0,300.0 585.9,299.8 578.9,299.7 572.3,299.6 569.2,299.5 565.7,299.5 562.1,299.6 534.9,299.0 526.1,298.8 508.6,298.6 490.9,298.3"/>
    <polyline points="371.1,372.2 370.4,373.9 370.3,376.2 370.6,377.3 371.1,378.1 373.7,380.1 380.2,382.7 384.0,384.3 395.8,389.1 399.5,390.8 409.3,394.8 419.4,397.7 435.0,401.6 442.5,403.3 446.3,404.7 449.9,407.5 453.9,411.6 456.0,414.4 458.6,419.3 460.3,424.2 461.6,428.2 462.3,430.6 462.8,434.2 463.8,436.4 465.0,437.8 466.3,439.1 468.3,441.3 470.4,443.7 471.7,445.1 472.7,446.8 474.4,450.9 474.5,453.3 473.8,456.5 473.1,459.5 471.7,462.5 469.3,466.4 467.8,468.6 465.7,471.3 454.0,482.4 452.7,483.7 451.8,487.1 451.8,489.8 455.5,495.4 458.4,500.5 459.3,501.9 461.0,504.9 462.7,508.1 464.5,511.3 464.9,514.0 464.8,516.3 464.0,524.5 465.9,529.9 470.1,539.1 471.8,542.2 473.4,545.5 475.4,550.8 482.8,576.3 484.8,586.3 484.9,587.2 484.5,590.1 484.4,593.3 483.9,604.7 482.6,616.1 480.0,641.5 479.5,645.7 483.0,686.4 486.8,707.3 486.9,709.3 494.2,768.3 498.0,808.3 499.5,823.9 500.8,836.9 502.0,850.1 506.5,891.4 506.6,893.0 507.2,898.9"/>
    <polyline points="-1003.4,404.0 -986.9,407.3 -971.9,410.3 -950.1,413.0 -920.8,416.1 -895.1,416.2 -880.5,415.1 -867.7,413.2 -826.5,407.9 -817.1,406.8 -807.0,405.7 -764.2,400.7 -745.0,396.4 -729.8,391.0 -721.6,386.4 -718.7,378.7 -718.7,366.7 -718.8,362.2 -719.3,348.5 -717.4,342.0 -713.5,337.4 -709.4,335.1 -703.1,332.6 -686.2,327.4 -684.6,325.8 -684.5,324.3 -686.4,321.9 -695.0,316.9 -700.7,312.2 -704.3,307.9 -708.9,302.3 -713.8,293.4 -722.2,272.3 -724.1,267.1 -735.6,234.7 -737.1,201.6 -737.9,182.4 -737.2,179.9 -736.0,178.0 -733.4,174.6 -731.0,173.0 -727.9,171.9 -722.7,171.0 -640.9,170.6 -636.9,170.6 -604.4,170.8 -562.6,172.9 -533.8,175.4 -475.1,180.3 -447.9,182.4 -425.3,183.2 -403.3,184.0 -381.4,184.7 -350.5,184.9 -338.4,184.6 -317.8,183.7 -275.7,183.1 -268.1,182.9 -257.6,182.0 -246.9,181.1 -225.3,180.2 -211.8,179.7 -167.1,179.2 -145.6,178.5 -136.7,178.1 -130.0,178.1 -119.3,178.8 -90.5,182.4 -63.9,185.3 -59.9,185.6 -57.8,185.7 -55.4,185.8 -51.3,185.8 -32.2,185.6 38.1,185.0 56.3,184.3 78.7,183.3 101.7,181.6 119.1,180.4 134.8,179.4 146.8,178.5 163.3,177.3 169.5,176.8 179.5,176.2 186.6,175.7 208.9,174.4 211.0,174.4 218.9,174.2 234.6,174.4 240.8,175.0 246.2,176.0 300.7,197.8 304.6,199.1 310.1,200.2 316.1,201.0 322.8,201.5 339.2,202.2 359.7,203.1 379.9,203.8 399.4,204.6 436.6,206.3 462.1,207.2 474.4,207.3 482.1,207.4 490.9,207.4 499.2,207.4 506.2,207.4 510.5,207.5 516.2,207.7 520.9,208.3 525.1,209.7 527.3,211.7 528.6,214.2 529.1,216.8 529.7,220.6 529.2,222.1 525.3,237.1 523.2,243.3 522.8,245.4 522.9,247.4 523.0,249.9 523.1,252.4 523.1,262.9 524.4,268.7 524.6,272.8 524.8,284.7 526.3,290.9 529.9,299.2 530.6,300.7 544.4,331.6 545.5,334.3 546.0,336.1 547.5,338.6 549.0,339.9 551.1,341.2 553.2,342.1 556.6,342.8 561.9,343.3 572.1,343.7 584.2,344.1 599.3,344.5 625.5,345.6 671.7,347.3 677.2,347.6 682.8,347.8 701.2,348.3 709.7,348.5 779.3,349.7 813.5,350.3 864.2,351.3 884.0,351.4 892.1,351.5 905.5,351.7 956.5,352.1 963.7,352.1 976.0,352.2 989.4,352.2 1021.5,352.7 1037.6,353.1 1047.0,353.2 1054.4,353.1 1061.9,352.7 1069.2,351.7 1078.7,349.8 1090.2,347.5 1096.0,346.4 1101.7,345.0 1105.5,343.7 1108.4,342.3 1115.0,338.8 1136.0,328.2 1138.7,327.1 1143.9,325.5 1147.9,324.2 1151.0,323.5 1157.4,322.2 1160.8,321.8 1165.1,321.4 1169.2,321.3 1182.7,321.1 1196.2,320.8 1200.5,320.7 1242.4,319.6 1293.1,318.2 1316.8,317.9 1360.4,317.6 1360.7,317.6 1374.9,317.4 1388.1,317.3 1418.9,317.3 1435.4,317.2 1441.1,317.3 1448.9,316.9 1454.0,316.5 1469.8,314.6 1519.9,308.6 1531.8,307.1 1551.6,304.6 1591.0,299.9 1611.9,297.4 1619.7,296.6 1626.5,296.1 1636.1,295.4 1665.0,293.5 1670.7,293.3 1676.0,293.4 1685.7,293.5 1699.2,293.4 1700.5,293.4 1711.5,292.9 1730.7,290.5 1761.6,285.1 1768.0,284.0 1805.3,277.5 1823.7,275.0 1830.2,274.3 1855.9,272.1 1868.7,271.0 1895.2,269.9 2008.3,268.5 2065.2,267.2 2074.8,267.1 2098.8,266.9 2123.9,266.7 2134.8,266.3 2145.5,265.4 2156.3,264.8 2167.2,264.4 2197.4,264.4 2219.8,264.4 2227.7,264.0 2234.6,263.4 2241.7,262.1 2252.9,259.4 2265.3,256.3 2274.9,253.9 2278.8,253.1 2282.9,252.5 2287.4,252.2 2295.3,252.2 2299.8,252.4 2303.8,252.9 2315.9,254.4 2326.8,255.6 2355.1,258.5 2383.0,260.3 2394.4,260.9 2420.9,261.7 2447.4,262.5 2469.5,262.8 2486.3,262.9 2565.1,261.4 2583.4,261.2 2597.1,261.3 2611.2,261.4 2625.3,261.5 2634.6,261.6 2642.3,262.1 2649.9,262.9 2656.2,263.7 2661.8,265.6 2663.4,266.5 2664.8,267.6 2666.1,269.6 2666.3,270.2 2666.3,286.9 2666.1,288.8 2666.0,290.5 2664.6,305.0 2664.7,306.7 2666.3,309.8 2669.4,312.2 2675.1,315.7 2677.3,316.9 2683.0,318.5 2690.6,318.9 2699.1,319.1 2726.6,319.1 2735.5,318.9"/>
    <polyline points="-135.7,-190.8 -132.8,-187.8 -128.5,-183.6 -127.6,-182.8 -126.0,-181.3 -122.4,-178.7 -120.1,-177.1 -116.6,-175.0 -112.4,-172.9 -94.2,-163.6 -91.9,-162.5 -74.7,-154.3 -64.3,-149.5 -51.4,-142.1 -44.0,-136.6 -35.1,-127.6 -25.4,-118.0 -24.0,-116.8 -15.8,-111.2 -12.6,-109.2 3.0,-100.6 21.8,-93.0 42.9,-84.3 83.8,-67.5 94.5,-61.6 102.1,-57.4 105.4,-55.6 127.3,-43.2 131.2,-41.4 134.0,-40.1 136.7,-39.0 141.0,-37.4 145.2,-36.1 181.8,-26.0 184.5,-25.3 187.5,-24.3 189.4,-23.5 190.9,-22.8 192.5,-21.5 198.9,-15.9 199.9,-14.8 201.3,-13.3 202.1,-12.1 202.9,-10.7 208.5,11.8 212.0,30.5 215.1,44.0 215.8,47.7 215.5,66.3 215.5,76.4 215.1,78.1 213.9,79.9 212.6,80.8 208.8,82.8 204.6,83.7 191.9,85.4 178.4,87.1 172.2,88.2 165.2,89.8 155.8,92.4 148.4,95.1 145.8,96.3 144.6,97.5 144.2,98.6 143.7,100.8 148.7,123.2 148.9,124.2 149.8,135.6 152.7,143.0 162.0,161.9 164.5,167.6 165.6,169.4 166.8,172.2 180.1,191.3 183.1,196.1 186.0,206.4 186.0,212.1 185.4,218.7 184.1,222.2 182.4,225.7 179.7,230.2 179.1,232.9 179.0,235.9 178.8,240.7 179.1,249.9 178.9,252.9 178.5,254.1 177.0,255.7 175.0,257.0 165.6,263.3"/>
    <polyline points="-111.2,769.7 -106.3,765.8 -103.5,763.6 -93.9,755.3 -90.7,752.0 -86.1,746.7 -85.2,745.4 -77.7,736.5 -72.5,730.7 -70.3,728.8 -68.5,727.9 -65.1,726.6 -61.9,725.8 -58.3,725.0 -39.8,721.3 -33.1,719.9 -26.9,717.8 -20.6,715.2 -9.4,708.5 -7.1,707.0 -3.7,704.4 -0.2,702.0 2.8,699.9 15.5,690.9 18.9,688.4 23.1,685.1 36.6,673.0 43.6,666.0 49.7,659.5 63.9,643.5 66.0,641.0 67.4,639.4 69.9,636.4 73.9,632.0 74.8,631.0 75.4,630.3 75.8,629.7 76.2,628.7 76.3,628.1 75.9,623.8 76.0,618.2 75.6,615.4 74.8,614.0 73.1,611.7 72.1,610.8 70.1,609.4 68.0,607.8 65.0,606.0 61.4,604.2 57.2,602.6 52.0,601.3 44.9,599.6 42.0,599.1 40.0,599.0 36.6,598.8 33.1,598.7 29.5,598.4 27.5,598.3 25.4,597.8 22.1,596.8 14.7,593.5 8.2,590.0 3.0,586.3 0.6,584.4 -1.5,582.0 -3.2,578.8 -3.7,576.4 -3.7,574.6 -3.7,573.2 -3.3,568.7 -2.2,557.5 -0.8,539.9 -0.4,532.8 0.2,523.0 0.3,519.2 0.8,516.1 0.9,515.7 1.1,511.7 1.6,506.3 3.0,500.8 4.9,496.9 5.6,495.3 6.8,493.8 7.5,492.9 12.1,488.2 13.9,485.3 15.0,484.0 16.5,482.6 18.5,481.2 21.3,480.0 30.2,477.3 44.0,473.4 60.2,467.9 76.0,462.0 81.7,459.5 86.8,456.3 96.3,446.5 102.7,440.9 116.6,427.4 120.6,424.5 131.9,418.5 136.0,417.1 144.7,414.4 147.6,413.5 218.4,394.3 274.3,377.1 280.6,375.5 286.1,374.5 292.7,373.9 309.5,374.7 322.7,375.5 364.1,377.4 368.5,378.2 371.6,379.0 376.0,380.8 396.7,388.7 413.4,395.5 419.3,397.7 435.0,401.5 459.2,407.4 500.5,417.6 509.5,419.0 527.0,420.9 546.2,423.2 553.6,423.9 558.9,424.3 568.4,423.9 579.0,422.7 596.1,419.4 602.5,418.6 607.2,418.2 622.1,418.2 633.8,418.3 639.0,418.0 643.3,417.5 648.4,416.8 652.3,415.6 680.3,401.3 686.8,398.1 704.2,389.8 705.3,389.0 706.0,388.0 711.0,368.6 711.4,357.7 712.9,341.0 712.8,338.7 712.5,331.4 712.8,321.0 714.4,312.7"/>
    <polyline points="706.2,260.5 707.9,276.8 708.3,278.5 709.8,281.2 715.3,286.9 715.8,288.3 716.0,289.4 716.0,294.7 715.0,302.1 713.8,309.0 712.2,317.8 711.6,321.0 711.4,331.5 711.4,339.5 711.4,340.9 710.2,357.7 709.7,368.6 704.7,387.9 704.2,388.7 703.2,389.5 685.9,397.8 679.4,400.9 651.5,415.2 647.8,416.3 643.0,417.0 638.8,417.5 633.7,417.7 622.1,417.7 607.1,417.7 602.2,418.1 595.6,418.9 578.6,422.2 568.2,423.4 559.0,423.7 553.8,423.4 546.6,422.6 527.3,420.4 509.9,418.5 501.0,417.1 459.8,406.9 435.6,401.1 420.0,397.3 414.2,395.1 397.5,388.3 376.8,380.4 372.3,378.6 369.1,377.7 364.5,376.9 322.9,374.7 309.6,374.1 292.7,373.4 285.7,374.0 280.0,375.0 273.7,376.6 217.7,393.8 146.9,413.0 144.0,413.9 135.3,416.6 131.0,418.1 119.6,424.2 115.5,427.1 101.8,440.6 95.2,446.3 85.8,456.0 80.7,459.1 75.1,461.6 59.4,467.5 43.3,472.9 29.5,476.9 20.6,479.6 17.5,480.8 15.4,482.3 13.8,483.8 12.7,485.1 10.9,488.0 8.1,490.6 4.4,494.6 3.4,496.6 3.2,497.2 2.0,500.6 1.3,503.2 0.1,508.0 -0.3,514.9 -0.5,519.1 -0.9,523.6 -1.6,532.8 -2.0,540.0 -3.1,557.5 -4.6,568.7 -4.9,573.2 -4.9,574.6 -5.0,576.5 -4.4,578.9 -2.7,582.2 -0.6,584.7 2.0,586.6 7.2,590.3 13.8,593.9 21.3,597.2 24.9,598.3 27.5,598.8 29.2,599.0 33.1,599.2 36.4,599.4 39.6,599.5 40.9,599.6 43.4,599.8 46.0,600.3 51.5,601.8 56.5,603.0 60.5,604.6 64.0,606.3 67.0,608.1 69.0,609.6 71.0,611.0 72.2,612.2 73.1,613.2 74.2,614.6 74.5,615.5 74.9,618.4 75.0,623.9 75.0,627.9 75.0,628.1 74.9,628.6 74.6,629.6 74.2,630.2 73.7,630.8 72.8,631.7 68.7,636.2 66.2,639.2 64.9,640.8 62.7,643.3 48.6,659.4 42.7,666.0 35.6,672.8 22.5,685.0 18.3,688.2 14.7,690.7 2.2,699.7 -1.5,702.1 -4.6,704.2 -8.2,706.6 -10.5,708.2 -21.5,714.9 -27.7,717.4 -33.7,719.4 -40.4,720.8 -58.8,724.5 -62.4,725.3 -65.9,726.2 -69.3,727.5 -71.3,728.4 -73.6,730.5 -78.8,736.3 -85.6,744.4 -86.4,745.4 -87.3,746.5 -92.2,752.6 -95.0,755.1 -104.6,763.4 -107.4,765.5 -112.4,769.4"/>
    <polyline points="507.6,898.9 507.2,892.8 507.1,890.5 506.5,883.8 503.6,850.1 495.6,768.3 487.6,709.4 484.2,679.8 481.4,645.7 484.0,609.5 485.6,593.9 485.7,590.5 486.2,587.4 486.2,586.3 484.7,578.8 481.5,568.5 478.9,557.2 477.6,552.0 476.8,549.4 475.9,547.0 473.5,542.6 471.3,538.8 465.0,524.6 465.4,520.1 465.9,516.3 465.7,511.3 462.4,504.7 455.7,492.8 453.1,489.4 454.0,486.2 454.4,483.7 460.8,477.0 465.8,471.3 468.0,468.6 469.5,466.4 472.2,462.4 473.8,459.5 474.6,456.6 475.3,453.2 475.1,450.7 473.4,446.7 472.8,444.9 471.7,443.4 469.5,441.1 467.5,438.8 464.8,435.9 463.7,433.7 463.6,432.6 462.4,428.1 461.2,424.0 459.5,419.3 457.2,414.2 455.3,411.4 451.1,407.3 447.0,404.4 443.0,402.8 435.6,401.1 420.1,397.3 400.3,390.5 396.3,388.7 386.7,384.0 380.7,381.7 375.1,379.5 372.3,378.0 371.7,377.1 371.5,376.2 371.4,373.9 372.0,372.3"/>
    <polyline points="707.4,260.4 697.8,245.6 697.4,244.7 693.5,234.4 685.1,212.5 680.6,191.1 679.4,184.7 675.6,157.8 673.4,150.4 673.6,138.0 674.1,128.2 675.2,123.3 678.3,110.2 678.8,97.8 680.0,95.3 681.6,93.5 682.9,92.7 685.2,91.9 687.2,91.6 690.7,91.2 741.8,91.0 781.9,90.7 790.9,90.7 794.0,90.5 795.9,90.1 797.5,89.3 799.5,88.4 801.1,86.6 802.1,84.9 805.5,75.8 806.3,74.6 808.4,73.3 810.6,72.4 813.8,71.8 820.7,71.5 849.9,73.6 873.7,75.9 878.8,76.2 883.5,76.1 889.4,75.8 894.2,75.3 901.9,74.4 917.5,72.8 934.6,71.0 961.0,68.5 964.0,68.2 967.1,68.0 969.7,67.9 976.0,67.8 1009.2,67.9 1011.8,67.9 1049.4,67.9 1052.9,67.8 1055.9,67.6 1057.3,67.4 1062.3,65.0 1062.8,64.8 1076.3,58.4 1083.6,55.0 1086.4,53.7 1106.3,44.9 1109.6,44.3 1113.2,44.1 1116.7,44.2 1121.0,44.7 1124.6,45.5 1127.7,46.4 1136.1,48.6 1146.2,49.9 1152.5,50.6 1157.4,50.8 1164.5,50.7 1199.3,50.9 1229.2,50.8 1230.1,50.8 1277.9,50.6 1326.6,50.5 1436.9,51.3 1441.4,51.4 1578.0,52.1 1614.4,52.2 1689.2,52.4 1802.9,52.4 1815.0,52.3 1821.8,52.5 1868.4,53.6"/>
    <polyline points="714.4,312.7 715.1,308.8 716.3,302.2 717.2,294.8 717.3,289.5"/>
    <polyline points="391.4,225.4 394.4,218.5 395.5,213.3 397.5,209.8 398.8,207.3 401.4,205.2 402.8,201.4 403.4,198.8 403.7,194.3 404.1,192.0 409.7,184.7 414.9,179.2 415.6,176.1 414.5,171.9 412.1,168.9 409.6,165.2 409.3,162.3 408.8,160.1 409.0,158.8 409.2,158.0 410.0,156.6 411.0,155.1 412.6,153.5 413.7,152.3 414.7,151.0 415.7,148.9 415.9,146.9 415.6,145.2 415.2,142.8 416.3,140.3 419.5,136.7 420.7,135.0 421.3,132.7 421.4,130.1 421.3,128.1 421.5,127.1 422.0,125.8 424.2,123.0 429.8,115.0 430.9,113.9 437.6,108.1 443.6,103.3 446.5,101.0 453.2,96.2 454.8,95.0 460.4,90.5 471.1,82.1 477.2,78.4 482.0,76.9 492.7,75.0 500.5,73.2 504.8,71.6 508.4,69.4 511.4,67.1 514.9,62.3 517.3,57.1 517.0,50.7 516.3,49.7 512.2,45.0 504.6,32.7 499.6,24.1 498.8,22.7 495.7,18.1 489.3,8.6 482.4,-3.0 476.5,-12.4 470.4,-22.6 466.4,-30.0 465.8,-31.0"/>
    <polyline points="372.0,372.3 375.0,367.5 376.9,363.8 377.7,358.3 378.0,356.2 378.6,343.8 379.4,327.3 379.7,318.2 379.8,316.1 379.8,313.9 379.4,306.3 379.1,299.5 379.1,296.4 379.1,294.5 379.4,290.1 378.7,285.1 378.2,278.4 378.2,275.2 376.2,270.0 375.0,267.0"/>
    <polyline points="465.0,-30.9 465.6,-29.9 482.7,-1.3 498.7,24.2 508.8,42.6 512.5,49.8 513.9,54.0 514.7,59.3 512.8,63.3 509.9,66.8 507.0,68.8 503.1,70.9 498.5,72.3 492.1,73.7 480.8,75.7 476.0,77.5 469.9,81.8 457.8,91.5 454.7,93.8 451.8,95.8 446.3,99.8 442.4,102.6 429.8,113.7 428.6,114.8 420.9,125.6 420.2,126.8 419.9,128.1 420.0,130.4 419.8,132.8 419.1,134.9 418.3,136.3 415.0,140.1 413.9,142.8 414.4,148.7 413.5,150.7 412.6,152.0 411.4,153.2 409.6,155.0 408.6,156.5 407.9,157.9 407.6,158.8 407.4,160.2 407.5,162.3 407.9,165.2 411.9,171.2 412.6,175.6 412.2,178.7 409.5,183.5 405.8,189.0 403.9,191.8 402.6,199.9 396.9,208.1 396.1,209.6 394.0,213.2 393.6,217.9 388.9,225.2"/>
    <polyline points="372.3,264.5 374.1,270.9 377.0,275.1 378.8,294.5 378.8,296.3 378.8,299.5 379.0,306.3 378.8,313.9 378.8,318.1 378.4,323.4 378.2,327.2 376.6,356.4 376.4,358.2 375.3,363.8 374.0,367.5 371.1,372.2"/>
    <polyline points="335.7,295.7 329.1,295.6 324.5,295.5 320.0,295.7 311.5,296.6 302.0,297.6 299.1,297.9 297.3,298.0 295.7,298.1 293.4,298.1 290.0,298.0 242.7,296.6 214.1,295.8 199.8,295.3 184.1,294.6 170.6,293.9 164.6,293.6 161.7,293.3 157.4,292.7 154.4,292.0 151.5,291.1 147.9,289.8 142.6,287.5 135.3,284.4 130.5,282.2 127.3,280.8 124.4,279.5 122.0,278.5 119.1,277.6 115.1,276.7 98.6,273.4 87.4,271.1 53.0,263.8 44.3,262.3 41.3,261.7 34.0,260.9 30.5,260.7 24.8,260.4 -26.0,259.4 -32.8,259.0 -36.4,258.5 -38.2,258.1 -41.9,257.3 -55.4,253.5 -60.0,251.8 -79.5,244.5 -83.6,243.2 -89.7,241.2 -96.4,239.2 -103.8,237.2 -111.7,235.8 -120.3,235.0 -131.9,234.7 -143.9,234.7 -183.8,235.1 -216.8,235.7 -224.6,236.1 -236.4,236.7 -237.6,236.8 -263.5,238.5 -272.2,239.4 -279.4,240.4 -283.2,241.1 -286.3,242.1 -287.9,243.0 -289.1,244.0 -289.3,245.0 -289.2,246.5 -288.1,248.8 -284.4,261.5 -283.0,265.9 -277.8,277.5 -277.5,279.0 -278.1,280.6 -279.1,282.1 -281.3,283.2 -283.0,283.7 -286.7,284.4 -292.5,284.7 -298.3,285.0 -304.8,285.0 -313.2,284.8 -318.5,284.7 -323.1,284.9 -328.2,285.2 -334.3,285.7 -338.4,286.1 -342.8,286.7 -350.3,287.8 -357.5,289.0 -362.1,289.8 -365.2,290.4 -369.1,291.4 -373.2,292.6 -380.3,294.8 -385.3,296.6 -390.1,298.6 -397.0,301.9 -405.7,306.1 -409.8,307.9 -413.8,309.7 -419.6,311.9 -425.4,314.0 -429.3,315.4 -431.6,316.2 -434.3,316.9 -438.1,317.9 -442.5,318.9 -447.5,320.0 -456.2,321.7 -463.5,322.9 -467.8,323.5 -472.2,323.9 -477.9,324.4 -481.5,324.8 -486.1,325.2 -493.5,326.0 -500.0,326.8 -504.0,327.4 -507.5,328.0 -511.4,328.9 -513.0,329.4 -517.2,330.7 -522.4,332.5 -525.7,333.9 -528.3,335.0 -530.4,336.1 -532.4,337.3 -535.8,339.7 -537.9,341.2 -539.6,342.6 -541.1,343.9 -542.2,345.0"/>
    <polyline points="416.4,297.0 388.8,296.6 377.5,296.4 370.6,296.3 362.7,296.3 352.0,296.1 335.7,295.7"/>
    <polyline points="375.0,267.0 373.9,264.1 373.3,261.0 373.2,259.0 373.3,256.9 373.4,255.9 375.2,252.8 377.4,249.6 380.7,244.7 383.8,239.7 386.7,236.3 387.9,232.2 391.4,225.4"/>
    <polyline points="388.9,225.2 382.3,239.4 378.7,244.4 376.0,247.7 374.3,250.2 372.6,253.1 371.2,256.1 371.0,260.3 372.3,264.5"/>
    <polyline points="983.2,482.5 907.1,482.7 896.1,482.7 882.0,482.9 872.3,483.1 858.2,483.6 850.6,484.1 838.1,485.2 825.8,486.9 815.5,488.4 809.0,489.3 800.0,490.6 795.5,491.1 792.1,491.3 784.2,491.6 778.8,491.6 771.0,491.3 744.9,489.0 718.5,486.8 704.3,486.0 700.7,485.8 696.8,485.5 691.3,484.6 686.7,483.7 682.5,482.2 677.2,480.1 659.0,470.0 657.4,469.5 648.1,464.3 638.0,458.6 635.5,458.0 627.7,455.8 624.2,455.4 621.1,455.3 582.2,455.2 565.8,455.1 561.4,455.2 556.5,455.4 549.8,456.1 542.6,457.4 536.1,458.3 532.1,459.2 508.0,466.9 502.8,468.2"/>
    <polyline points="502.8,468.2 499.7,468.6 485.3,469.5 482.0,469.5 469.3,469.8 460.0,469.9 454.1,469.8 448.9,469.7 442.1,469.3 436.7,468.5 423.5,465.8 419.4,464.1 412.1,459.5 404.1,449.9 400.4,447.3"/>
    <polyline points="502.1,467.5 507.6,466.2 531.5,458.6 535.3,457.8 542.0,456.7 549.4,455.5 556.4,454.8 561.2,454.6 565.6,454.5 581.9,454.5 598.8,454.5 616.7,454.6 621.6,454.5 624.5,454.5 628.1,455.0 636.1,457.4 638.5,458.3 649.7,464.1 658.2,469.0 662.6,471.4 678.1,479.7 683.4,481.9 687.3,483.2 692.2,484.2 697.1,485.0 700.8,485.4 718.7,486.2 761.0,489.5 771.4,490.4 778.9,490.9 784.2,490.9 791.9,490.7 795.3,490.5 799.6,490.1 808.8,488.8 814.7,487.9 825.3,486.4 837.7,484.7 850.5,483.5 858.0,483.0 861.4,482.9 872.7,482.5 882.5,482.3 897.1,482.1 907.5,482.1 983.2,482.0"/>
    <polyline points="164.8,263.1 176.0,255.7 177.9,253.9 178.3,252.5 177.9,240.7 178.2,232.9 179.0,229.8 183.9,221.0 184.7,217.5 185.2,211.6 184.9,205.8 181.8,195.2 165.7,172.3 163.5,167.6 152.1,143.8 148.7,135.6 147.3,123.3 146.4,119.0 142.4,100.6 143.1,97.3 145.8,95.0 155.7,91.7 173.5,87.4 181.1,86.2 203.5,83.3 208.6,82.2 211.9,80.3 213.4,79.0 214.5,76.4 214.5,66.3 214.8,47.5 211.4,32.2 207.1,11.9 201.9,-10.7 201.1,-12.0 200.4,-13.1 198.9,-14.7 197.8,-15.8 191.6,-21.2 190.1,-22.3 188.6,-23.2 186.7,-23.9 183.6,-24.9 173.0,-27.9 144.4,-35.6 140.0,-36.9 136.1,-38.3 133.2,-39.6 130.0,-41.1 126.6,-42.8 101.2,-57.1 96.9,-59.5 83.4,-67.0 37.1,-86.2 1.8,-100.7 -13.5,-109.0 -24.5,-116.4 -35.8,-127.4 -44.9,-136.5 -52.5,-142.1 -64.9,-149.4 -75.4,-154.1 -95.6,-163.5 -117.9,-175.0 -123.3,-178.3 -127.9,-182.0 -129.5,-183.4 -135.5,-189.2 -136.7,-190.5"/>
    <polyline points="401.8,446.7 406.0,449.5 409.8,454.1 413.6,459.4 420.5,463.6 423.9,465.2 437.0,467.9 442.1,468.6 449.1,469.1 454.1,469.3 460.0,469.3 469.4,469.2 483.7,468.9 499.5,467.8 502.1,467.5"/>
    <polyline points="717.3,289.5 717.2,289.0 717.0,288.2 716.4,286.8 710.9,281.0 709.5,278.4 709.1,276.7 707.4,260.4"/>
    <polyline points="1868.5,52.8 1842.9,52.2 1815.0,51.6 1802.9,51.7 1689.2,51.6 1614.2,51.6 1598.9,51.6 1577.4,51.4 1441.5,50.8 1436.9,50.8 1326.4,49.8 1198.2,50.2 1189.4,50.3 1164.5,50.1 1157.4,50.2 1152.7,50.1 1146.6,49.4 1136.6,48.0 1128.3,45.9 1125.2,45.0 1121.5,44.1 1116.9,43.6 1113.1,43.6 1109.3,43.7 1105.6,44.5 1082.7,54.6 1075.4,58.1 1056.6,66.9 1055.6,67.1 1052.8,67.2 1034.4,67.3 1009.2,67.4 976.0,67.3 969.7,67.4 963.9,67.7 960.7,67.9 934.4,70.5 917.3,72.1 901.5,73.6 893.9,74.4 888.7,75.0 883.5,75.3 878.6,75.4 873.8,75.3 850.1,73.0 820.7,71.0 813.5,71.3 809.9,71.9 807.5,72.9 805.2,74.3 804.3,75.7 800.9,84.8 800.2,86.0 799.9,86.4 798.4,88.1 796.6,89.0 795.2,89.7 793.7,89.9 790.8,90.2 781.9,90.2 741.8,90.4 690.5,90.7 686.9,91.0 684.6,91.5 682.1,92.3 680.5,93.2 678.8,95.2 677.6,97.7 677.1,110.2 673.8,123.4 672.9,128.2 672.4,138.0 672.2,150.4 674.4,158.0 678.2,184.7 679.4,191.1 683.9,212.6 692.4,234.7 696.2,244.8 696.6,245.7 706.2,260.5"/>
    <polyline points="-541.4,345.2 -540.3,344.1 -538.8,342.8 -537.1,341.4 -535.0,339.9 -531.7,337.6 -529.7,336.4 -527.6,335.3 -525.1,334.2 -521.8,332.9 -516.7,331.0 -512.5,329.8 -510.9,329.3 -507.1,328.4 -503.7,327.8 -499.7,327.2 -493.3,326.4 -485.8,325.6 -481.2,325.2 -477.7,324.8 -472.0,324.3 -467.5,323.9 -463.2,323.3 -455.8,322.1 -447.1,320.4 -442.1,319.3 -437.6,318.2 -433.8,317.3 -431.1,316.5 -428.7,315.8 -424.8,314.3 -419.0,312.2 -413.2,310.0 -409.1,308.2 -405.0,306.3 -396.3,302.2 -389.4,298.9 -384.7,296.9 -379.7,295.1 -372.6,292.9 -368.6,291.8 -364.7,290.8 -361.7,290.1 -357.2,289.3 -350.0,288.2 -342.5,287.1 -338.1,286.5 -334.1,286.1 -328.1,285.6 -323.0,285.3 -318.4,285.1 -313.3,285.2 -304.8,285.4 -298.3,285.4 -292.4,285.2 -286.5,284.8 -282.5,284.0 -280.7,283.5 -278.3,282.3 -277.2,280.6 -276.6,279.0 -276.9,277.5 -282.0,265.8 -283.4,261.4 -287.2,248.7 -288.3,246.4 -288.3,245.0 -288.2,244.1 -287.1,243.2 -285.6,242.4 -282.7,241.4 -279.1,240.8 -271.9,239.8 -263.3,238.9 -237.5,237.3 -231.2,237.0 -224.5,236.6 -216.6,236.2 -183.8,235.7 -144.2,235.4 -131.9,235.3 -120.6,235.6 -112.3,236.3 -104.5,237.8 -91.1,241.4 -84.4,243.6 -80.5,244.9 -60.6,252.1 -56.0,253.8 -42.3,257.6 -38.7,258.5 -36.8,258.9 -33.0,259.4 -26.1,259.8 24.8,260.8 30.4,261.1 33.8,261.3 41.0,262.1 43.9,262.7 52.6,264.2 87.0,271.4 98.2,273.8 110.4,276.3 114.7,277.2 118.5,278.2 121.2,279.0 123.9,280.2 128.2,282.2 129.3,282.8 134.2,285.0 141.6,288.2 146.4,290.2 150.7,291.9 155.3,293.2 159.0,293.7 163.5,294.1 169.1,294.4 186.1,295.3 199.7,296.0 211.4,296.4 243.2,297.2 291.9,298.6 294.9,298.6 296.8,298.6 299.5,298.5 302.2,298.2 311.8,297.1 320.1,296.2 324.4,296.0 329.1,296.0 335.6,296.2"/>
    <polyline points="335.6,296.2 351.9,296.5 362.6,296.7 370.5,296.9 377.2,297.0 388.7,297.2 416.2,297.6"/>
    <polyline points="490.8,299.0 508.7,299.1 526.1,299.4 539.8,299.7 562.0,300.1 565.5,300.3 568.8,300.3 572.1,300.5 578.8,300.6 586.0,300.7 594.8,300.8 601.8,300.9 619.2,301.2 643.7,301.6 677.2,303.2 708.5,304.3 713.2,304.8 720.7,305.5 728.5,306.8 737.2,308.8 742.8,310.2 753.5,312.3 761.8,313.4 770.7,314.1 777.5,314.2 793.0,314.4 813.7,314.8 822.2,315.0 856.5,315.5 857.8,315.6 880.0,315.8 886.5,315.8 893.8,315.9 904.2,315.9 923.4,316.1 939.8,316.0 943.4,316.1 945.6,316.1 960.1,316.5 970.1,316.8 973.2,317.1 977.0,318.2 979.9,319.3 981.9,320.6 983.0,322.2 983.3,324.3 982.8,332.9 982.2,349.1 982.0,357.9 980.2,387.6 980.3,391.1 980.5,392.6 980.8,393.4 981.6,394.5 983.0,395.8 985.2,397.2 988.1,398.5 993.7,400.2 997.8,401.0 1005.8,402.0 1013.0,402.6 1016.4,403.3 1020.2,404.6 1023.4,405.9 1025.9,407.0 1029.6,409.5 1034.0,413.4 1035.6,415.6 1036.5,419.1 1037.6,426.7 1037.7,430.6 1037.9,436.4 1038.0,440.1 1038.9,479.4 1039.0,482.4 1039.0,490.5 1039.0,494.9 1039.3,498.3 1040.3,503.9 1041.7,507.6 1043.4,510.7 1046.3,514.1 1053.7,520.4 1076.1,528.3 1086.5,530.7 1096.4,532.7 1111.6,535.4 1130.2,537.8 1135.6,538.5 1140.2,538.7 1143.4,538.8 1154.1,538.4 1227.7,536.0 1234.1,535.7 1240.9,535.5 1290.9,533.8 1334.6,532.8"/>
    <polyline points="2735.3,318.4 2726.6,318.5 2699.1,318.5 2690.7,318.4 2683.4,318.0 2678.1,316.5 2676.0,315.4 2670.4,311.9 2667.4,309.6 2665.9,306.6 2665.8,305.0 2667.1,290.6 2667.3,288.8 2667.5,286.9 2667.5,270.2 2667.3,269.5 2665.9,267.4 2664.4,266.2 2662.7,265.3 2656.7,263.2 2650.2,262.4 2642.5,261.5 2634.7,261.1 2625.3,260.9 2611.2,260.8 2597.1,260.7 2583.4,260.6 2565.1,260.9 2486.2,262.3 2469.5,262.3 2447.4,262.0 2420.9,261.2 2394.5,260.4 2383.1,259.8 2355.3,258.0 2327.1,255.1 2316.2,253.9 2304.2,252.3 2300.1,251.9 2295.3,251.7 2287.3,251.7 2282.6,252.0 2278.4,252.6 2274.4,253.4 2264.7,255.8 2252.3,258.9 2241.2,261.6 2234.3,262.9 2227.5,263.5 2219.8,263.9 2197.4,263.9 2167.2,263.9 2156.2,264.1 2145.3,264.8 2134.6,265.7 2123.8,266.1 2098.8,266.4 2074.8,266.6 2065.2,266.7 2008.2,268.0 1895.1,269.3 1868.6,270.5 1855.7,271.6 1830.0,273.7 1823.4,274.5 1804.9,277.0 1767.6,283.5 1761.1,284.6 1730.3,290.0 1711.2,292.4 1700.4,292.9 1699.1,292.9 1697.0,292.9 1685.7,293.0 1676.0,292.8 1670.7,292.8 1664.9,293.0 1635.9,294.9 1626.3,295.5 1619.5,296.1 1611.6,296.9 1590.7,299.4 1551.3,304.0 1531.4,306.6 1519.6,308.1 1469.4,314.0 1453.7,315.9 1448.7,316.4 1441.0,316.7 1435.4,316.7 1418.9,316.7 1388.1,316.7 1374.9,316.9 1360.7,317.0 1360.4,317.0 1316.7,317.3 1293.1,317.7 1242.3,319.0 1200.5,320.2 1193.6,320.3 1182.6,320.5 1169.1,320.8 1165.0,320.9 1160.5,321.2 1156.9,321.7 1150.5,323.0 1147.3,323.8 1143.2,325.1 1138.0,326.7 1135.1,327.8 1114.1,338.4 1107.5,342.0 1104.7,343.3 1101.0,344.5 1095.5,345.9 1089.7,347.0 1078.2,349.3 1068.8,351.2 1061.6,352.2 1054.3,352.6 1047.0,352.7 1037.6,352.6 1021.6,352.2 989.6,351.6 976.0,351.6 963.7,351.5 956.5,351.5 905.5,351.1 892.1,351.0 884.1,350.9 864.3,350.7 813.5,349.7 779.3,349.1 713.9,348.0 709.7,347.9 701.3,347.7 682.8,347.3 677.3,347.1 671.8,346.8 653.1,346.1 625.6,345.1 599.4,344.0 584.3,343.6 572.2,343.1 562.1,342.8 557.0,342.3 553.9,341.7 552.0,340.9 550.0,339.6 548.6,338.4 547.2,336.0 546.6,334.2 545.6,331.5 531.7,300.6 531.1,299.1 527.4,290.9 526.0,284.7 525.7,272.8 525.6,268.7 524.3,262.8 524.5,252.4 524.3,249.9 524.2,247.5 524.0,245.4 524.4,243.4 526.4,237.1 530.3,222.2 530.9,220.6 530.3,216.7 529.7,214.1 528.4,211.5 526.1,209.3 521.5,207.8 516.5,207.2 510.5,207.0 506.3,206.9 499.2,206.9 490.9,206.9 482.1,206.9 474.4,206.8 462.1,206.7 436.7,205.7 399.5,204.1 391.1,203.8 339.3,201.6 323.0,201.0 316.3,200.4 310.5,199.7 305.2,198.6 301.4,197.4 246.9,175.6 241.1,174.5 237.0,174.1 228.7,173.5 219.0,173.1 210.7,173.2 205.8,173.5 188.4,174.9 178.8,175.6 169.1,176.2 157.9,177.0 150.9,177.5 132.7,179.0 115.6,180.2 75.8,182.8 56.1,183.7 38.0,184.5 -32.3,185.1 -51.3,185.3 -55.4,185.2 -57.7,185.2 -59.7,185.1 -63.6,184.8 -90.2,181.8 -119.1,178.3 -129.9,177.6 -136.8,177.6 -145.7,178.0 -167.1,178.7 -211.8,179.2 -225.4,179.6 -247.1,180.6 -257.8,181.5 -268.3,182.3 -275.8,182.6 -317.9,183.2 -338.5,184.1 -350.5,184.4 -381.3,184.2 -403.2,183.4 -425.2,182.7 -447.8,181.9 -474.9,179.8 -533.6,174.9 -562.4,172.4 -604.3,170.3 -636.9,170.0 -640.9,170.0 -722.9,170.4 -728.5,171.5 -731.9,172.6 -734.5,174.3 -737.1,177.8 -738.4,179.8 -739.1,182.4 -738.3,201.6 -736.8,234.7 -725.2,267.2 -723.4,272.4 -714.9,293.6 -710.0,302.4 -705.4,308.1 -701.8,312.4 -696.0,317.2 -687.4,322.2 -685.7,324.4 -685.8,325.7 -687.2,327.1 -703.8,332.2 -710.3,334.8 -714.5,337.2 -718.6,341.9 -720.5,348.4 -720.0,362.2 -719.9,366.7 -719.9,378.7 -722.7,386.2 -730.6,390.6 -745.6,396.0 -764.6,400.2 -807.3,405.2 -817.4,406.3 -826.8,407.4 -868.0,412.7 -880.7,414.6 -895.2,415.6 -920.6,415.6 -949.8,412.4 -971.5,409.8 -986.4,406.8 -1002.9,403.5"/>
    <polyline points="122.9,279.3 125.6,280.5 128.0,281.6 128.5,282.0 129.3,282.8"/>
    <polyline points="128.0,281.6 128.8,281.8 130.5,282.2"/>
    <polyline points="125.6,280.5 123.9,280.2"/>
    <polyline points="126.5,310.3 118.9,320.1 107.1,331.3 105.6,333.2 105.3,334.8 105.4,336.3 105.7,338.6 106.1,342.2 106.6,348.8 106.6,349.6 106.3,350.4 106.1,350.9 105.2,351.8 103.4,353.6 102.6,354.7 99.4,357.4 95.3,360.2 93.9,361.3 93.6,361.6 93.2,362.1 92.9,362.9 92.8,363.2 92.7,363.7 92.6,366.2 92.7,370.9 91.6,386.5 89.6,397.4 88.6,404.8 88.1,406.2 87.0,407.4 84.4,409.4 75.6,415.3 73.8,416.4 72.4,417.7 71.9,419.1 72.3,421.3 72.9,422.6 74.9,425.2 76.4,427.6 78.3,428.9 79.4,429.6 80.3,430.1 83.1,431.3 89.6,433.7 93.6,435.5 94.1,435.7 94.7,436.0 96.4,436.7 100.4,438.6 107.3,441.7 108.0,442.0 109.6,442.8 120.3,447.9 124.1,449.0 131.3,451.1 136.5,452.5 144.4,454.0 153.3,455.2 158.2,455.6 165.4,456.0 177.5,456.4 185.6,456.4 193.7,456.0 259.8,450.2 272.3,449.2 282.1,448.7 295.7,447.9 302.6,447.5 307.8,447.2 313.3,446.9 319.1,446.7 332.2,445.2 350.5,443.8 354.6,443.5 364.2,443.7 369.9,443.8 382.3,444.1 391.4,445.0 398.0,445.7 401.8,446.7"/>
    <polyline points="400.4,447.3 397.5,446.4 391.2,445.6 382.5,444.8 370.6,444.4 364.2,444.3 355.0,444.3 329.4,446.3 310.8,447.6 295.9,448.4 282.2,449.3 278.7,449.5 271.4,450.0 259.5,451.1 193.6,456.7 186.0,457.0 177.2,457.0 166.0,457.0 158.2,456.8 153.9,456.2 143.8,454.8 135.9,453.2 130.3,451.7 122.9,449.5 119.5,448.4 108.4,443.3 99.3,439.1 94.0,436.7 92.2,435.8 78.8,429.7 75.6,427.6 71.6,422.4 70.9,419.2 71.6,417.5 73.6,415.6 86.2,407.4 87.7,405.5 88.2,403.4 90.7,388.2 91.2,374.1 91.4,370.8 91.5,366.3 91.6,364.6 91.8,363.4 91.9,362.8 92.1,362.1 92.5,361.6 93.1,361.2 98.4,357.1 101.5,354.5 104.2,351.6 104.9,350.5 105.3,349.6 105.3,348.8 104.7,342.2 104.5,339.6 104.1,334.8 104.5,333.7 104.8,332.6 106.2,331.0 117.8,319.9 125.6,309.8"/>
    <polyline points="125.6,309.8 138.0,296.8 142.8,291.4 147.7,283.6 150.9,278.1 152.4,275.7 156.0,269.6 158.0,267.6 164.8,263.1"/>
    <polyline points="165.6,263.3 160.6,266.6 158.9,268.0 157.1,269.8 155.4,272.7 154.4,274.5 149.0,283.8 146.9,287.1 145.5,289.4 144.1,291.6 138.7,297.4 126.5,310.3"/>
    <polyline points="490.9,298.3 472.1,298.0 453.1,297.7 416.4,297.0"/>
    <polyline points="416.2,297.6 453.1,298.2 472.1,298.6 488.8,298.9 490.8,299.0"/>
    <polyline points="93.1,435.5 94.9,436.3 96.0,436.8 103.1,440.1 104.3,440.6 105.5,441.2 107.4,442.1"/>
    <polyline points="104.3,440.6 106.0,441.7 107.3,442.5 108.4,443.3"/>
    <polyline points="105.5,441.2 106.7,441.6 108.0,442.0"/>
    <polyline points="107.3,441.7 105.9,441.0 104.8,440.3 104.4,440.1 103.5,439.6 97.3,436.8 96.6,436.5 94.5,435.8 93.6,435.5"/>
    <polyline points="92.2,435.8 93.2,436.2 93.8,436.3 94.5,436.4 95.2,436.6 96.0,436.8"/>
    <polyline points="94.1,435.7 94.4,436.0 94.6,436.1 94.9,436.3"/>
    <polyline points="534.9,299.0 536.6,299.2 538.0,299.4 539.8,299.7"/>
    <polyline points="711.4,339.5 711.8,339.3 712.2,339.1 712.6,338.9 712.8,338.7"/>
  </g>

  <!-- 지하철 역 -->
  <g>
    <circle cx="143.7" cy="289.0" r="3" fill="#dc2626" stroke="#fff" stroke-width="1"/>
    <circle cx="467.8" cy="468.5" r="3" fill="#dc2626" stroke="#fff" stroke-width="1"/>
    <circle cx="379.8" cy="297.1" r="3" fill="#dc2626" stroke="#fff" stroke-width="1"/>
    <circle cx="692.9" cy="234.7" r="3" fill="#dc2626" stroke="#fff" stroke-width="1"/>
    <circle cx="741.8" cy="90.8" r="3" fill="#dc2626" stroke="#fff" stroke-width="1"/>
    <circle cx="715.2" cy="302.7" r="3" fill="#dc2626" stroke="#fff" stroke-width="1"/>
    <circle cx="674.5" cy="123.4" r="3" fill="#dc2626" stroke="#fff" stroke-width="1"/>
    <circle cx="674.8" cy="157.9" r="3" fill="#dc2626" stroke="#fff" stroke-width="1"/>
    <circle cx="433.0" cy="402.0" r="3" fill="#dc2626" stroke="#fff" stroke-width="1"/>
    <circle cx="686.4" cy="398.0" r="3" fill="#dc2626" stroke="#fff" stroke-width="1"/>
    <circle cx="622.1" cy="418.0" r="3" fill="#dc2626" stroke="#fff" stroke-width="1"/>
    <circle cx="546.6" cy="422.8" r="3" fill="#dc2626" stroke="#fff" stroke-width="1"/>
    <circle cx="711.5" cy="348.4" r="3" fill="#dc2626" stroke="#fff" stroke-width="1"/>
    <circle cx="322.8" cy="375.1" r="3" fill="#dc2626" stroke="#fff" stroke-width="1"/>
    <circle cx="103.7" cy="440.5" r="3" fill="#dc2626" stroke="#fff" stroke-width="1"/>
    <circle cx="170.0" cy="176.4" r="3" fill="#dc2626" stroke="#fff" stroke-width="1"/>
    <circle cx="572.1" cy="343.5" r="3" fill="#dc2626" stroke="#fff" stroke-width="1"/>
    <circle cx="399.4" cy="204.5" r="3" fill="#dc2626" stroke="#fff" stroke-width="1"/>
    <circle cx="523.4" cy="250.0" r="3" fill="#dc2626" stroke="#fff" stroke-width="1"/>
    <circle cx="491.0" cy="207.2" r="3" fill="#dc2626" stroke="#fff" stroke-width="1"/>
    <circle cx="530.2" cy="299.1" r="3" fill="#dc2626" stroke="#fff" stroke-width="1"/>
    <circle cx="56.2" cy="184.1" r="3" fill="#dc2626" stroke="#fff" stroke-width="1"/>
    <circle cx="452.4" cy="96.0" r="3" fill="#dc2626" stroke="#fff" stroke-width="1"/>
    <circle cx="408.5" cy="162.4" r="3" fill="#dc2626" stroke="#fff" stroke-width="1"/>
    <circle cx="379.7" cy="244.5" r="3" fill="#dc2626" stroke="#fff" stroke-width="1"/>
    <circle cx="378.8" cy="327.3" r="3" fill="#dc2626" stroke="#fff" stroke-width="1"/>
    <circle cx="377.5" cy="357.3" r="3" fill="#dc2626" stroke="#fff" stroke-width="1"/>
    <circle cx="468.8" cy="441.2" r="3" fill="#dc2626" stroke="#fff" stroke-width="1"/>
    <circle cx="461.4" cy="504.8" r="3" fill="#dc2626" stroke="#fff" stroke-width="1"/>
    <circle cx="295.8" cy="448.2" r="3" fill="#dc2626" stroke="#fff" stroke-width="1"/>
    <circle cx="661.8" cy="471.8" r="3" fill="#dc2626" stroke="#fff" stroke-width="1"/>
    <circle cx="542.8" cy="457.2" r="3" fill="#dc2626" stroke="#fff" stroke-width="1"/>
    <circle cx="215.0" cy="66.4" r="3" fill="#dc2626" stroke="#fff" stroke-width="1"/>
    <circle cx="178.4" cy="240.7" r="3" fill="#dc2626" stroke="#fff" stroke-width="1"/>
    <circle cx="148.0" cy="123.3" r="3" fill="#dc2626" stroke="#fff" stroke-width="1"/>
    <circle cx="105.3" cy="341.8" r="3" fill="#dc2626" stroke="#fff" stroke-width="1"/>
    <circle cx="92.3" cy="370.8" r="3" fill="#dc2626" stroke="#fff" stroke-width="1"/>
    <circle cx="243.4" cy="297.1" r="3" fill="#dc2626" stroke="#fff" stroke-width="1"/>
    <circle cx="311.5" cy="296.7" r="3" fill="#dc2626" stroke="#fff" stroke-width="1"/>
    <circle cx="453.0" cy="298.1" r="3" fill="#dc2626" stroke="#fff" stroke-width="1"/>
    <circle cx="619.6" cy="300.9" r="3" fill="#dc2626" stroke="#fff" stroke-width="1"/>
  </g>
</svg>