<?xml version="1.0" encoding="UTF-8"?>
<svg width="800" height="600" xmlns="http://www.w3.org/2000/svg">
  <title>Chengdu Subway Map</title>
  <rect width="100%" height="100%" fill="#f8f9fa"/>

  <!-- 지하철 선로 -->
  <g stroke="#2563eb" stroke-width="2" fill="none" opacity="0.8">
    <polyline points="382.9,125.7 382.4,126.6"/>
    <polyline points="388.0,118.0 388.8,118.9 389.1,119.4 389.1,120.0 389.0,120.6 388.3,121.3 386.0,123.3 385.9,123.4 383.2,125.8 382.4,126.6 381.8,127.6"/>
    <polyline points="383.2,116.2 384.2,116.6 385.6,117.4 386.5,117.9 387.2,118.6 387.6,119.4 387.6,120.3 387.3,121.1 386.7,121.9 385.6,122.8"/>
    <polyline points="383.9,117.0 385.0,117.5 385.8,118.1 386.6,118.9 386.9,119.4 386.9,120.2 386.6,121.2 386.1,121.7 385.8,122.1 384.5,123.2 384.0,123.6 382.1,125.4 381.1,126.2 380.1,126.9"/>
    <polyline points="383.4,116.1 383.5,116.1 384.5,116.5 386.0,117.3 386.8,117.9 387.5,118.6 388.1,119.4 388.2,120.3 387.8,121.1 387.1,121.9 385.7,123.3 385.5,123.4 385.0,123.8 383.9,124.8 383.3,125.4 382.9,125.7 381.0,127.5"/>
    <polyline points="382.0,126.2 380.0,127.4"/>
    <polyline points="386.6,121.2 386.2,122.0 385.6,122.8"/>
    <polyline points="389.9,120.3 387.6,122.3 386.0,123.3"/>
    <polyline points="384.6,123.8 384.3,124.3 383.9,124.8"/>
    <polyline points="383.6,124.7 384.3,124.3 385.0,123.8"/>
    <polyline points="382.9,125.3 381.3,126.3 380.1,126.9 379.1,127.4"/>
    <polyline points="385.6,122.8 385.1,123.3 384.6,123.8 383.6,124.7 382.9,125.3 382.0,126.2 380.6,127.4"/>
    <polyline points="372.7,141.3 373.4,141.0 375.5,140.1 377.8,138.8 381.2,136.2 382.4,135.2 385.4,132.5 387.0,130.4 387.7,129.4 389.3,127.3 390.2,126.0 390.9,125.2 394.3,120.7"/>
    <polyline points="382.4,135.2 382.9,134.5 383.2,134.1 383.5,133.5"/>
    <polyline points="375.5,-81.9 371.1,-81.4 366.5,-81.1 352.6,-81.1 289.0,-81.2 214.6,-81.3 206.1,-81.3 195.3,-81.1 188.1,-80.6 183.7,-79.9 179.9,-79.1 177.0,-78.2 174.3,-77.2 171.9,-76.1 170.0,-74.8 168.4,-73.5 167.5,-71.8 166.8,-69.3 166.6,-59.7 166.2,-48.5 166.1,-44.5 166.1,-42.4 166.3,-28.0 166.3,-25.0 165.7,-21.3 165.1,-16.3 160.6,9.6 158.9,19.5 155.5,39.5 154.7,48.3 154.2,60.8 153.7,71.8 154.0,72.6 155.3,75.4 161.7,87.5 166.2,97.2 167.6,99.7 168.8,101.4 171.7,103.4 175.6,105.4 182.0,108.3 194.4,113.7 209.2,121.1 214.3,123.9 215.6,124.8 216.6,125.8 217.2,127.3 220.0,135.3 220.5,137.0 221.2,139.6 221.9,151.1 221.6,153.4 219.7,157.7 219.5,158.4 219.3,162.0 219.3,163.7 219.1,168.7 218.7,177.4 218.2,178.7 217.3,179.7 215.3,181.2 212.6,182.6 209.1,183.9 205.5,184.8 200.5,185.7 195.8,186.3 191.3,186.4 186.3,186.5 168.4,186.4 164.7,186.5 161.2,186.5 158.9,186.7 152.8,187.1 146.5,187.7 131.8,188.9 128.3,189.2 116.3,190.1 110.6,190.6 101.2,191.6 100.3,191.7 76.6,193.7 66.8,194.4 62.8,194.8 59.3,195.2 56.7,195.6 54.2,196.1 52.0,196.6 50.2,197.2 48.9,197.6 47.9,198.0 46.8,198.6 45.6,199.2 44.5,199.9 42.7,201.2 39.6,203.3 34.4,206.6 33.7,207.0 29.9,208.8 29.0,209.2 26.1,210.9 19.1,215.4 15.0,217.9 14.1,218.6 13.2,219.2 12.3,220.1 11.5,220.9 10.7,221.7 9.9,222.8 9.6,223.3 9.4,224.0 9.2,225.2 9.2,226.7 9.3,230.0 9.6,235.3 9.4,238.6 9.3,241.2 9.5,244.8"/>
    <polyline points="630.5,42.5 627.3,42.5 623.6,42.5 618.7,42.5 612.2,42.8 604.3,43.4 596.3,44.2 588.7,45.3 582.6,46.5 578.2,47.7 574.8,49.1 571.0,51.0"/>
    <polyline points="235.3,531.2 231.0,531.2 218.7,531.4 90.3,532.0 75.5,532.0 60.4,532.2 51.1,532.2 44.8,532.1 38.6,531.7 32.7,531.1 27.0,530.5 17.7,529.4 -47.2,522.2 -55.7,521.3 -81.3,518.5 -87.3,517.7 -90.5,517.1 -95.9,515.6 -100.7,514.3 -103.6,513.5 -107.0,512.6 -110.9,511.7 -119.9,509.4 -121.7,509.1 -141.0,505.3 -150.5,503.7 -160.8,502.2 -170.1,501.0 -178.4,500.1 -188.6,499.0 -195.0,498.0 -200.4,496.1 -205.3,493.8 -216.9,484.5 -219.1,482.1 -222.3,478.7 -235.6,466.6 -238.4,464.8 -242.7,463.0 -247.8,461.4 -253.2,460.4 -261.4,459.8 -274.7,459.6 -301.5,459.3 -315.6,459.2 -325.2,458.8 -334.1,457.7 -341.5,456.2 -346.0,455.0 -350.5,452.9 -355.4,450.9 -366.1,447.1 -396.0,432.2 -399.5,430.4 -405.4,427.1 -416.0,419.3 -430.3,408.5 -435.8,404.4 -437.4,403.3 -438.5,402.2 -439.1,401.3 -439.5,400.2 -439.5,398.9 -438.4,387.1 -438.4,386.5 -438.1,383.8 -438.2,382.3 -438.8,381.3 -440.7,379.3 -444.2,375.2 -455.4,363.5 -461.9,355.7 -467.4,349.0 -479.1,334.9 -490.4,321.3 -493.7,316.5 -494.6,314.5 -495.2,312.5 -495.6,310.3 -495.8,309.5 -496.7,303.7 -497.7,297.4 -497.9,296.3 -499.1,289.2 -499.5,287.0 -500.8,280.6 -502.7,268.3 -503.4,265.0 -504.8,258.8 -507.7,251.2 -511.8,239.8 -515.1,230.6 -515.9,227.8 -516.7,224.8 -517.3,222.5 -517.5,219.3 -517.6,211.1 -516.8,191.8 -516.8,189.4 -516.6,186.4 -515.7,184.8 -514.2,183.2 -509.7,179.7 -502.3,174.5 -497.7,171.3 -496.4,169.8 -495.9,168.5 -496.0,167.3 -497.1,165.8 -499.2,163.4 -502.5,161.0 -506.1,158.8 -510.5,156.6 -514.5,155.4 -518.6,154.1 -528.3,152.0 -551.7,147.7"/>
    <polyline points="-487.0,623.1 -483.5,620.2 -480.7,617.9 -478.0,615.9 -476.3,614.7 -473.9,613.5 -471.2,612.3 -468.2,611.4 -464.5,610.6 -460.6,610.0 -456.6,609.7 -452.3,609.4 -406.2,608.6 -394.9,608.4 -384.0,607.9 -381.3,607.8 -378.7,607.6 -335.1,603.9 -300.5,601.0 -293.2,600.4 -286.8,599.7 -279.6,598.6 -274.6,597.5 -262.0,594.2 -226.0,584.9 -223.2,583.8 -220.5,582.2 -219.2,580.2 -219.0,578.3 -219.6,576.7 -220.7,575.4 -223.9,573.7 -235.4,569.3 -244.4,565.5 -249.1,563.2 -254.9,559.2 -256.1,558.5 -258.9,555.9 -260.9,553.8 -271.2,538.4 -271.7,537.2 -271.8,535.9 -271.4,534.7 -270.4,533.5 -268.8,532.4 -266.6,531.4 -263.5,530.4 -260.3,529.5 -257.3,528.9 -252.6,528.2 -248.7,527.8 -244.6,527.6 -228.4,526.5 -218.6,525.9 -203.9,525.0 -192.9,524.5 -172.9,523.5 -155.4,522.4 -145.8,521.6 -139.6,521.0 -133.4,520.4 -128.1,519.6 -123.2,518.7 -119.1,517.9 -114.8,516.7 -107.5,514.3 -97.7,511.1 -79.5,505.2 -71.3,502.4 -66.7,500.7 -59.0,497.8 -54.9,496.0 -51.9,494.5 -49.2,492.8 -47.3,491.3 -44.7,489.0 -43.1,486.6 -42.4,484.6 -42.5,482.1 -43.4,462.6 -43.4,459.8 -43.4,457.0 -44.7,444.8 -44.8,442.4 -44.5,440.5 -43.6,438.4 -43.0,437.3 -42.2,436.2 -41.4,435.1 -40.4,433.8 -39.2,432.0 -38.6,430.8 -38.4,429.6 -38.8,427.8 -41.1,425.7 -42.4,424.8 -43.8,423.9 -45.1,422.9 -46.2,421.8 -48.8,418.5 -49.6,416.9 -50.0,415.4 -50.0,414.1 -49.6,412.8 -48.7,410.8 -47.4,409.1 -46.3,407.9 -45.2,406.9 -42.9,405.3 -37.3,402.0 -5.2,383.0 15.9,370.1 20.3,368.2 25.5,367.1 31.6,366.4 37.1,366.0 43.3,365.8 49.9,365.9 60.7,366.5 63.7,366.6 69.1,366.9 73.8,367.1 77.6,367.5 81.4,368.1 85.4,368.9 88.4,369.6 92.3,370.7 94.4,371.4 97.5,372.2 100.5,372.9 107.5,373.9 116.0,375.3 121.6,376.0 127.8,376.7 131.5,377.0 135.7,377.3 141.1,377.3 142.5,377.3 149.2,377.3 208.5,376.9 264.3,376.5 294.6,376.1 302.3,376.1 307.5,376.1 312.1,376.4 316.4,376.8 320.2,377.3 324.1,378.2 327.9,379.3 330.4,380.3 337.9,384.0 338.9,384.5 351.7,389.8 352.2,390.0 354.7,390.8 357.3,391.3 360.4,391.8 364.3,392.3 369.7,392.8 394.6,393.6 405.4,393.9 413.7,394.1 421.2,394.3 442.5,394.3 475.8,393.6 478.9,393.5 485.8,393.3 490.7,393.1 495.9,392.8 501.2,392.5 506.4,392.0 508.1,391.8 509.5,391.6 510.9,391.3 512.3,391.0 516.5,389.5 524.4,386.4 528.6,384.7 536.1,381.7 539.6,379.9 539.7,379.8 541.9,378.1 546.9,372.2 548.9,370.0 551.5,367.6 559.6,362.7 562.8,361.2 566.3,359.8 569.4,358.6 590.8,350.3 601.4,345.9 605.6,344.2 613.4,341.1 619.4,338.6 621.8,337.3 623.0,336.2 624.1,334.8 624.6,333.2 624.4,332.1 623.1,330.4 620.7,329.2 605.8,323.2 602.8,321.6 601.0,320.5 599.3,319.2 598.8,317.8 599.0,316.5 599.9,315.3 600.8,314.2 601.9,313.4 605.0,311.4 609.8,308.4 612.1,306.9 613.7,305.6 615.0,303.7 615.7,302.0 616.1,300.1 614.8,288.9 614.9,283.3 614.9,278.7 615.2,273.8 615.2,271.7 615.0,270.4 614.5,268.8 613.8,266.2 613.5,264.9 613.4,263.3 614.1,261.6 615.4,260.3 617.0,259.3 619.1,258.4 621.6,257.7 624.5,257.1 627.2,256.7 630.6,256.3 651.2,254.0 656.8,253.4 661.5,252.9 666.7,252.2 671.6,251.6 676.1,250.8 728.1,241.0 736.4,239.4 739.2,238.8 741.8,238.2 746.8,237.1 751.3,236.1 758.5,234.7 769.4,232.6 789.1,229.3 795.1,228.0 797.7,227.2 799.5,226.7 804.2,225.0 818.7,219.3 823.3,217.5 839.0,211.6 844.3,209.7 850.8,207.3"/>
    <polyline points="232.3,445.3 231.8,438.5"/>
    <polyline points="-48.1,540.8 -44.3,540.8 -40.0,541.0 -34.7,541.5 -21.7,543.0 13.6,547.0 36.6,550.2 40.1,550.7 43.5,551.0 47.1,551.2 52.4,551.5 56.6,551.5 61.2,551.4 65.6,551.0 74.0,549.6"/>
    <polyline points="-69.6,539.4 -65.0,536.0 -60.0,532.5 -55.5,530.2 -52.7,529.0 -49.5,528.0 -45.3,526.9 -40.5,526.2 -35.5,525.7 -30.1,525.4 -23.9,525.4 -17.6,525.8 -12.7,526.3 -4.3,527.2 17.4,529.7 26.7,530.8 32.4,531.4 38.4,532.0 44.5,532.4 51.0,532.6 60.4,532.4 66.4,532.4"/>
    <polyline points="320.9,286.3 327.3,287.5 338.8,289.6 342.4,290.3 345.6,291.3 347.8,292.3 349.4,293.5 350.7,294.9 352.3,296.3 354.6,297.5 358.2,298.6 362.8,299.6 369.5,300.8 391.5,304.4 435.9,311.8 447.2,314.1 453.6,315.5 460.4,317.0 467.3,318.4 474.9,319.8 484.2,321.1 504.2,324.3 523.6,327.5 528.2,328.4 533.7,329.6 538.7,330.9 556.6,337.1 596.4,350.9 610.3,355.8 614.4,357.0 619.1,357.9 625.1,358.5 632.4,359.1 640.8,359.6 648.0,359.9 655.3,360.5 663.3,361.2 678.8,362.8 690.2,363.8 695.7,364.3 700.9,364.4 707.5,364.4 714.1,364.0 721.2,363.4 726.3,363.1 741.3,362.5 759.1,362.0 777.1,361.4 782.8,361.3 787.9,361.3 793.1,361.4 798.2,361.6 802.7,361.8 807.1,362.1 810.9,362.5 814.0,362.8 819.8,363.5 837.7,365.9 846.2,367.4 853.6,369.0 861.2,371.2 868.7,373.8 877.7,376.9 887.1,380.1 894.6,383.5 900.4,386.8 904.5,390.5 908.5,395.8 911.8,402.0 918.6,417.4 921.2,423.2 923.0,425.7 926.1,428.1 931.1,430.5 937.4,432.6 962.1,439.3 979.8,444.4 992.2,448.0 1005.9,451.3 1015.4,453.1 1026.3,454.9 1036.9,456.6 1046.7,458.3 1055.0,460.0 1063.0,461.8 1069.8,463.4 1073.9,464.4 1077.4,465.3 1081.2,466.4"/>
    <polyline points="320.5,286.6 327.0,287.7 338.4,289.8 341.9,290.6 344.9,291.5 347.0,292.5 348.6,293.6 349.8,295.0 351.5,296.4 353.9,297.7 357.8,298.9 362.4,299.9 369.2,301.1 391.2,304.7 435.5,312.0 446.8,314.3 453.2,315.7 460.0,317.3 466.9,318.7 474.6,320.0 483.9,321.3 503.9,324.5 523.3,327.8 527.9,328.7 533.3,329.8 538.1,331.1 556.0,337.3 595.9,351.1 609.9,356.0 614.0,357.2 618.9,358.1 624.9,358.8 632.2,359.3 640.7,359.8 647.9,360.2 655.2,360.7 663.2,361.4 678.6,363.0 690.0,364.1 695.6,364.5 700.8,364.7 707.6,364.6 714.3,364.3 721.5,363.7 726.4,363.3 741.4,362.7 759.2,362.2 777.3,361.7 782.8,361.6 787.9,361.6 793.1,361.7 798.1,361.9 802.6,362.1 806.9,362.4 810.6,362.7 813.7,363.0 819.6,363.7 837.4,366.1 845.8,367.6 853.1,369.2 860.7,371.4 868.0,374.0 877.1,377.1 886.5,380.3 893.7,383.6 899.5,387.0 903.4,390.5 907.5,395.9 910.6,402.1 917.6,417.4 920.2,423.2 922.0,425.8 925.2,428.2 930.2,430.8 936.6,432.9 961.3,439.6 979.1,444.7 991.5,448.3 1001.4,450.7 1005.2,451.6 1014.8,453.5 1025.8,455.3 1036.3,457.0 1045.9,458.7 1054.3,460.4 1062.1,462.2 1069.0,463.8 1075.2,465.3 1080.5,466.6"/>
    <polyline points="-1312.4,-194.8 -1305.2,-191.6 -1296.5,-187.6 -1294.1,-186.6 -1293.0,-186.2 -1291.7,-185.7 -1289.5,-185.1 -1286.2,-184.3 -1274.3,-181.4 -1235.3,-172.4 -1209.4,-166.5 -1182.3,-160.1 -1175.5,-158.6 -1133.3,-149.3 -1107.2,-143.8 -1102.9,-142.9 -1094.5,-141.2 -1065.6,-135.3 -1052.2,-132.6 -1042.6,-130.6 -1034.9,-129.0 -1031.1,-128.1 -1027.3,-127.1 -1023.6,-126.1 -1015.4,-123.5 -1014.4,-123.1 -1004.8,-120.1 -993.1,-116.3 -983.4,-112.9 -973.9,-109.9 -968.7,-108.0 -960.3,-105.5 -954.0,-103.5 -944.2,-101.1 -936.8,-99.2 -935.7,-99.0 -924.0,-96.0 -913.3,-93.3 -905.1,-91.2 -895.4,-89.2 -881.0,-86.6 -871.0,-84.7 -861.2,-82.8 -851.3,-80.6 -831.9,-76.3 -806.3,-69.9 -789.8,-65.0 -781.0,-61.8 -774.9,-59.4 -769.7,-57.0 -766.1,-54.8 -761.4,-51.5 -754.6,-46.4 -749.1,-42.2 -742.1,-38.9 -734.1,-36.3 -727.3,-34.8 -702.8,-30.2 -696.9,-29.3 -673.8,-25.4 -654.4,-22.0 -638.1,-19.3 -632.1,-18.4 -625.2,-18.0 -617.4,-18.3 -611.8,-19.0 -606.8,-20.1 -603.8,-21.1 -601.2,-22.2 -597.0,-24.1 -585.2,-29.5 -573.9,-34.9 -566.3,-37.6 -564.9,-38.2 -557.2,-40.7 -539.6,-45.6 -530.2,-47.9 -524.0,-49.3 -517.8,-50.2 -511.4,-51.0 -502.7,-51.6 -495.4,-51.7 -488.3,-51.3 -480.6,-50.5 -474.7,-49.5 -471.4,-48.7 -468.9,-47.9 -466.1,-47.1 -461.0,-44.5 -453.9,-41.2 -453.2,-40.9 -442.9,-36.0 -436.5,-33.4 -434.3,-32.3 -433.5,-31.8 -433.0,-31.7 -432.4,-31.4 -430.3,-30.6 -427.9,-30.0 -423.9,-29.1 -419.1,-28.0 -416.0,-27.3 -413.3,-26.5 -410.5,-25.6 -405.4,-23.1 -397.2,-18.4 -391.4,-15.7 -373.0,-7.7 -367.1,-5.1 -348.2,1.6 -306.0,16.2 -302.8,17.5 -300.2,18.7 -298.0,20.0 -295.8,21.3 -293.4,22.7 -291.1,23.8 -288.1,24.9 -280.1,27.4 -261.2,33.1 -256.2,34.5 -253.0,35.3 -249.3,36.0 -246.2,36.6 -242.6,37.1 -237.9,37.5 -234.1,37.6 -230.7,37.6 -228.1,37.6 -199.1,36.3 -190.5,36.0 -186.7,35.9 -183.1,35.9 -179.4,36.0 -176.1,36.2 -172.8,36.6 -170.3,37.0 -167.3,37.7 -163.9,38.7 -157.5,40.9 -148.7,44.0 -143.5,45.9 -137.8,48.1 -134.1,49.7 -125.7,53.9 -108.2,62.6 -102.5,65.3 -74.2,77.2 -68.0,80.0 -60.7,83.8 -53.2,87.7 -21.8,104.3 -16.9,106.6 -6.5,111.8 20.6,126.1 30.6,131.1 39.2,135.3 42.5,137.0 51.8,141.5 58.2,144.7 61.9,146.8 68.7,150.5 72.7,152.8 77.4,155.4 79.2,156.4 84.6,159.3 86.8,160.6 90.1,163.5 92.3,165.5 93.2,166.7 93.5,168.1 95.0,172.7 95.8,175.0 97.8,179.8 99.1,181.7 100.0,182.8 100.9,184.1 102.7,185.7 104.0,186.5 106.2,187.2 108.4,187.7 111.9,188.3 115.3,188.8 119.3,189.1 123.6,189.1 127.3,189.0 130.4,188.8 137.3,188.3 144.1,187.7 150.4,187.2 152.7,187.0 157.0,186.7 160.8,186.4 165.6,186.3 168.8,186.3 168.9,186.3 213.3,186.8 235.4,186.8 250.2,186.8 262.3,186.8 270.9,186.8 276.4,187.0 280.3,187.3 285.6,187.7 294.2,188.8 305.5,190.4 329.4,193.7 355.0,197.4 361.5,198.4 367.4,199.2 377.5,200.9 392.2,203.8 406.3,206.5 418.9,208.9 430.3,211.1 436.0,212.2 441.9,213.3 448.3,214.4 452.0,215.3 455.4,216.2 457.8,217.0 464.1,219.3 467.4,220.4 469.9,221.4 472.0,222.4 473.3,223.2 474.8,224.5 475.9,225.6 480.4,229.6 483.4,232.7 484.1,233.4 495.2,243.9 499.9,248.3 509.9,258.1 511.4,259.7 512.1,260.5 512.5,261.1 512.7,261.6 512.7,262.7 513.0,264.1 512.8,266.3 512.4,267.4 511.2,268.5 508.7,270.0 490.5,281.8 483.7,286.1 478.6,289.1 440.6,311.8 434.0,315.9 424.8,321.2 416.6,326.3 415.7,327.0 415.2,327.8 414.9,328.5 414.8,329.2 415.0,330.0 415.6,330.7 416.5,331.4 417.9,332.3 419.5,333.2 422.8,334.8 425.8,336.4 428.2,337.7 430.6,339.1 432.1,340.5 433.7,342.1 436.8,345.4 437.6,346.5 439.0,347.9 443.0,352.9 444.6,354.1 447.8,356.5 449.7,357.9 450.8,358.9 451.3,360.0 451.4,361.2 451.3,361.9 451.0,362.6 450.6,363.3 448.9,366.2 446.9,369.0 446.5,370.5 446.8,371.8 447.6,373.1 449.0,374.3 450.8,375.4 454.1,376.7 458.6,377.8 463.2,378.9 466.1,379.8 469.0,380.9 473.4,382.5 475.9,383.5 477.5,384.5 478.6,386.0 479.3,387.9 480.8,393.6 482.1,399.5 482.6,401.6 484.1,407.3 484.9,411.6 486.0,415.8 488.0,424.0 488.1,425.4 487.9,426.4 487.5,427.3 486.8,428.3 483.7,431.8 482.6,433.0 481.5,434.4 480.6,436.1 479.7,438.1 477.7,443.1 477.2,445.5 477.3,447.8 477.5,451.0 477.6,453.1 477.9,456.4 478.1,460.5 476.3,463.2 472.8,465.2 466.9,467.1 461.9,468.2 457.4,469.0 450.3,470.0 437.4,471.5 428.3,472.9 422.9,474.2 417.6,476.0 412.9,478.0 407.9,481.4 404.2,485.6 398.1,492.8 393.6,496.2 387.4,499.1 380.2,501.8 372.1,504.9 367.0,507.5 364.0,509.8 362.8,511.6 362.3,513.3 362.8,515.2 364.4,518.4 366.3,522.0 366.8,523.1 367.3,524.9 366.9,526.4 366.0,527.9 364.6,529.3 362.2,530.9 359.3,532.6 357.2,534.2 355.5,536.5 355.0,538.9 355.4,541.4 357.2,544.3 360.4,547.1 363.9,549.5 367.8,551.7 370.6,553.0 373.8,554.1 378.2,555.1 384.3,556.1 418.2,560.4 422.7,561.0 426.5,562.1 429.8,563.7 432.5,565.3 434.2,567.0 438.6,571.8 442.9,574.9 449.5,578.6 464.7,586.1 470.5,588.9 477.6,592.2 480.2,593.7 482.1,595.4 483.3,596.7 483.8,598.4 483.2,600.5 480.5,605.9 479.7,608.9 479.8,612.4 479.7,615.1 479.3,633.1 479.4,642.0 479.4,645.1 479.4,648.7 480.1,670.7 480.5,700.0 480.5,704.7 480.7,707.6 480.9,708.7 481.5,709.7 482.4,710.8 484.0,712.2 485.9,713.4 487.7,714.4 490.6,715.7 494.4,717.3 498.8,719.1 499.0,719.1 501.7,720.3 504.0,721.2 506.3,722.5 508.9,724.1 510.3,725.4 511.2,726.5 511.9,727.4 512.4,728.1 512.6,728.9 512.6,730.0 512.3,731.1 511.6,732.6 510.6,733.7 508.2,735.8 506.7,737.1 503.3,739.2 500.8,740.9 490.0,748.3 485.5,751.1 484.1,752.2 482.8,753.5 481.7,755.1 481.3,756.1 480.9,757.2 480.8,759.0 480.7,761.8 480.9,766.7 481.1,768.5 481.5,769.7 482.3,771.2 483.5,773.7 485.1,777.0 486.8,780.3 488.2,782.8 492.4,789.9 497.0,796.4 520.0,820.3 523.1,823.4 524.4,825.0 524.8,826.5 524.5,828.0 523.8,829.2 522.7,830.5 521.7,831.4 512.2,837.9 504.5,843.2 501.3,845.4 498.9,847.6 497.8,849.0 497.0,850.3 496.6,851.9 496.8,853.7 497.3,855.3 499.3,859.2 505.3,868.7 510.8,873.5 512.2,875.4 513.5,880.2 512.7,889.1 512.3,895.1 512.0,898.4 511.4,901.5 508.9,907.0 507.8,909.2 507.1,910.2 506.3,911.0 502.6,913.3 495.5,916.3 480.3,920.8 475.9,921.9"/>
    <polyline points="387.4,87.0 389.4,84.0 390.5,82.6 394.1,77.4"/>
    <polyline points="393.5,77.4 390.0,82.6 388.9,84.0 386.9,86.9"/>
    <polyline points="534.6,433.6 540.6,433.2 546.0,432.7 563.3,430.7 569.2,429.9 576.2,428.8 578.7,428.5 594.5,425.7"/>
    <polyline points="247.3,706.7 245.7,686.6 242.7,651.2 240.2,621.2 238.6,595.8 238.5,594.0 236.7,585.7 235.1,576.0 234.8,573.7 233.3,568.9 231.9,566.6 230.1,564.4 216.5,551.8 210.1,545.7 206.1,541.5 204.1,538.5 203.1,535.0 202.9,532.4 200.9,509.7 198.8,473.0 198.2,463.9 198.5,462.1 199.6,460.4 201.8,459.1 204.7,458.2 209.5,456.9 213.7,455.6 218.0,454.3 220.8,452.7 222.4,450.6 222.9,448.6 222.8,438.6 222.7,436.2 223.4,431.4 223.4,425.6 223.5,418.4 223.7,417.2 224.3,416.1 224.9,415.1 225.3,414.0 225.8,412.4 226.2,410.4 226.9,407.0 225.8,392.0 224.0,377.4 222.5,353.5 222.4,351.4 219.9,325.6 219.5,320.9 217.7,300.1 216.2,283.5 216.4,280.7 216.6,280.0 216.8,279.5 217.7,278.0 219.3,275.5 221.0,273.4 222.4,271.9 222.7,270.9 223.0,269.9 223.4,267.9 223.1,266.6 222.7,265.3 222.5,264.9 222.2,264.6 221.2,263.8 219.2,262.1 217.4,260.6 216.1,259.3 215.2,257.9 214.8,256.4 214.5,254.9 213.8,248.0 213.5,243.1 213.5,241.2 213.9,239.8 214.3,238.9 215.0,238.2 216.6,237.3 230.5,229.7 260.2,214.3 261.8,213.4 262.4,213.0 262.9,212.6 263.4,212.0 263.6,211.4 267.2,203.6 273.2,192.9 274.9,189.3 275.8,187.5 276.4,186.3 276.7,185.0 277.1,161.9 277.3,161.1 277.7,160.4 278.4,159.5 279.4,158.5 281.9,156.2 284.5,153.9 288.7,150.3 289.5,149.7 290.3,149.1 291.3,148.5 292.3,148.0 293.8,147.2 296.1,146.4 299.3,145.6 303.6,144.9 308.5,144.4 313.2,144.2 318.4,144.1 330.1,144.1 333.1,144.0 336.1,143.8 339.1,143.5 342.8,142.9 346.5,142.2 349.9,141.4 353.0,140.4 355.7,139.3 357.7,138.2 359.2,137.1 360.3,136.0 361.2,134.9 361.8,133.9 362.1,133.2 362.2,132.4 362.0,131.7 361.6,131.0 360.7,129.9 359.4,128.1 358.0,126.2 357.5,125.7 354.7,121.5 354.3,120.4 354.5,119.2 355.1,117.9 356.0,116.5 358.2,114.5 360.6,112.9 363.9,111.3 367.7,109.9 371.2,108.5 373.3,107.2 374.9,105.8 376.4,104.1 377.7,102.5 378.9,100.8 379.9,99.1 381.6,96.3 383.3,93.1 384.1,91.9 384.8,90.7 387.4,87.0"/>
    <polyline points="563.3,430.7 567.0,429.9 569.5,429.0 574.2,427.2 576.6,426.5 577.6,426.3 591.0,424.0"/>
    <polyline points="576.2,428.8 578.6,428.1 581.0,427.4 593.4,425.1"/>
    <polyline points="591.8,424.5 581.0,426.4 577.6,427.1 574.2,428.2 572.2,428.9 570.6,429.5 569.2,429.9"/>
    <polyline points="262.2,782.1 257.7,728.5 254.5,685.9 253.1,673.8 251.3,664.3 247.8,643.8 244.8,610.1 243.7,595.9 243.2,588.5 242.9,575.8 243.5,568.9 244.1,563.7 244.3,558.7 243.8,552.4 243.1,544.9 242.6,542.6 241.6,540.8 240.1,538.9 238.3,536.8 236.3,534.5 235.1,532.5 234.7,530.6 234.4,528.0 233.6,515.8 233.7,484.7 233.9,480.3 233.6,475.3 232.9,454.0 232.3,445.3"/>
    <polyline points="388.9,84.0 389.7,83.3 390.5,82.6"/>
    <polyline points="390.0,82.6 389.7,83.3 389.4,84.0"/>
    <polyline points="384.9,89.8 384.8,90.7"/>
    <polyline points="-1025.1,634.6 -1029.3,634.6 -1034.1,634.4 -1039.0,634.1 -1041.7,633.9 -1044.3,633.5 -1047.0,633.0 -1049.2,632.5 -1051.8,631.5 -1053.7,630.4 -1054.8,629.4 -1055.6,628.3 -1055.9,627.3 -1056.0,626.3 -1055.7,625.3 -1055.4,624.4 -1055.0,623.7 -1054.5,622.9 -1053.9,622.2 -1053.0,621.4 -1051.8,620.6 -1050.4,619.8 -1048.0,618.6 -1045.1,617.4 -1038.5,615.2 -1032.8,613.1 -1028.9,611.2 -1011.3,598.3 -1000.4,589.6 -988.3,580.7 -976.9,572.7 -973.3,570.0 -963.1,563.4 -957.1,559.0 -953.9,557.3 -950.0,555.6 -945.9,554.3 -941.8,552.6 -938.8,550.8 -936.9,549.2 -934.9,547.7 -928.3,545.3 -924.3,543.6 -920.8,541.9 -919.2,541.1 -918.3,540.3 -917.8,540.0 -914.7,537.7 -911.8,536.4 -903.5,533.9 -892.7,530.4 -886.3,528.3 -884.6,527.5 -880.5,525.3 -879.5,524.8 -868.5,521.1 -854.9,517.4 -838.5,512.9 -837.1,512.4 -832.5,510.8 -829.6,509.4 -827.6,507.7 -825.5,505.8 -824.1,504.0 -822.5,500.2 -821.8,495.7 -822.4,491.8 -824.4,489.2 -828.0,486.5 -830.0,483.7 -830.6,481.7 -830.8,480.2 -831.0,473.2 -831.2,464.2 -830.8,458.3 -830.2,453.8 -829.2,451.0 -825.6,448.8 -821.5,447.5 -815.9,446.4 -809.9,445.7 -800.4,444.7 -791.6,443.8 -789.0,443.6 -774.8,441.5 -771.2,441.0 -751.9,437.5 -697.4,427.8 -669.6,422.7 -655.6,420.2 -625.6,414.9 -564.0,404.1 -510.2,394.5 -488.0,390.7 -443.6,383.1 -412.4,377.7 -370.7,370.4 -352.0,367.4 -346.9,366.7 -343.3,366.3 -339.8,366.1 -333.0,366.1 -325.3,366.6 -317.7,367.5 -312.3,368.9 -308.8,370.3 -304.7,371.7 -295.4,374.1 -281.9,377.5 -265.4,381.7 -239.4,389.0 -229.2,391.2 -215.1,392.2 -209.1,392.4 -203.9,392.4 -198.2,392.1 -193.0,391.6 -183.6,389.8 -174.8,386.8 -164.3,382.2 -156.5,378.6 -154.5,377.7 -152.7,377.1 -144.0,374.3 -135.4,371.5 -131.7,370.3 -115.6,364.7 -112.8,363.5 -110.0,362.1 -108.8,361.2 -102.5,354.4 -100.9,353.0 -98.9,351.5 -96.2,350.3 -93.9,349.5 -88.7,348.2 -84.5,347.2 -78.2,345.9 -74.2,345.0 -63.8,342.8 -57.2,341.1 -43.2,337.5 -34.0,334.8 -19.2,330.6 -10.5,328.4 -5.2,327.5 0.6,327.2 7.0,327.3 12.3,327.7 16.6,328.1 19.1,328.6 21.2,329.2 26.5,331.3 32.7,333.6 39.4,335.4 45.2,336.6 74.2,341.8 103.2,347.4 119.5,350.4 124.0,351.1 127.6,351.4 131.6,351.5 164.2,351.3 199.2,351.0"/>
    <polyline points="-1025.3,634.3 -1029.4,634.2 -1034.0,634.0 -1038.7,633.7 -1041.3,633.5 -1043.8,633.1 -1046.1,632.7 -1048.3,632.2 -1050.6,631.2 -1052.4,630.2 -1053.4,629.3 -1054.2,628.3 -1054.5,627.3 -1054.6,626.3 -1054.4,625.4 -1054.2,624.5 -1053.7,623.8 -1053.2,623.1 -1052.6,622.3 -1051.9,621.6 -1050.7,620.8 -1049.4,620.0 -1047.0,618.9 -1044.3,617.7 -1037.7,615.5 -1032.0,613.4 -1028.0,611.4 -1010.6,598.4 -1008.9,597.0 -997.5,588.2 -991.5,583.9 -985.2,579.4 -972.3,570.2 -962.1,563.5 -956.3,559.2 -953.1,557.6 -949.6,556.0 -945.2,554.6 -940.9,552.7 -938.0,551.1 -934.1,547.9 -923.6,543.8 -920.0,542.0 -917.6,540.5 -914.1,537.9 -911.2,536.6 -902.5,534.0 -889.8,529.8 -885.5,528.4 -883.4,527.5 -878.8,524.9 -874.5,523.5 -853.9,517.8 -833.6,512.1 -828.2,509.6 -824.7,506.7 -822.3,503.8 -820.7,500.1 -820.1,495.9 -820.6,491.7 -823.0,488.8 -826.6,486.2 -828.6,483.6 -829.1,481.7 -829.4,479.9 -830.0,464.2 -829.0,453.8 -828.2,451.2 -824.7,449.0 -820.7,447.8 -815.5,446.8 -809.5,445.9 -795.8,444.6 -786.1,443.6 -774.4,441.9 -747.6,437.0 -685.6,426.1 -646.1,419.0 -563.6,404.5 -527.8,397.8 -520.6,396.4 -511.8,394.9 -498.3,392.6 -488.3,390.9 -443.2,383.4 -401.1,376.1 -370.3,370.7 -351.4,367.7 -346.4,367.0 -342.7,366.7 -339.6,366.4 -333.3,366.5 -325.2,367.0 -318.1,367.9 -312.6,369.1 -309.4,370.4 -305.3,371.9 -294.2,374.8 -281.5,377.9 -266.1,382.0 -256.5,384.5 -239.8,389.2 -229.7,391.3 -215.5,392.4 -209.2,392.6 -203.6,392.7 -198.0,392.3 -192.8,391.9 -183.1,390.0 -174.2,387.1 -157.7,379.7 -156.3,379.0 -154.9,378.4 -153.6,377.9 -152.4,377.5 -143.5,374.4 -135.0,371.7 -129.1,369.7 -114.9,364.8 -112.3,363.7 -109.5,362.3 -108.3,361.4 -101.9,354.5 -100.3,353.0 -98.3,351.6 -95.6,350.4 -93.2,349.6 -89.5,348.6 -83.5,347.3 -73.8,345.2 -63.2,343.0 -57.0,341.4 -41.4,337.2 -23.7,332.1 -19.1,330.7 -13.8,329.5 -10.2,328.6 -5.1,327.7 0.5,327.4 6.9,327.5 16.2,328.3 20.6,329.4 25.8,331.5 32.1,333.9 38.3,335.5 44.9,336.9 66.2,340.8 102.8,347.7 116.4,350.2 123.4,351.3 127.6,351.6 132.5,351.7 156.3,351.6 176.0,351.4 199.2,351.2"/>
    <polyline points="199.2,351.0 201.0,350.9 212.9,350.8 227.5,350.7 242.8,350.6"/>
    <polyline points="24.8,335.4 26.0,336.9 26.6,338.5 26.6,340.1 26.2,341.5 25.5,343.0 24.4,344.4 5.0,356.4 -12.6,368.2 -23.5,375.1 -25.2,376.9 -25.9,378.8 -25.8,380.5 -24.4,382.4 -21.8,383.8 -14.5,385.9 7.0,390.3 40.3,397.0 46.7,398.2 52.9,399.4 57.5,400.6 62.1,402.0 65.0,403.7 66.6,405.6 67.3,407.7 70.8,421.7 71.6,426.8 71.5,427.7 71.0,428.5 69.0,430.1 67.3,431.5 64.8,432.9 62.4,434.2 60.1,435.5 58.4,437.2 57.6,439.1 57.3,441.6 57.3,443.1 57.7,444.4 58.6,445.7 59.8,446.8 61.1,447.8 64.1,449.5 67.2,451.1 70.8,452.5 73.8,453.7 77.7,455.1 81.4,456.1 83.6,456.7 85.7,457.3 87.7,457.9 90.0,458.6 92.5,459.4 93.7,460.0 94.4,460.4 94.8,460.9 94.9,461.4 94.8,462.8 93.9,468.8 93.4,472.8 93.5,482.7 93.0,486.8 92.5,491.1 92.1,493.6 91.6,496.0 90.8,498.8 89.2,508.1 89.1,509.8 89.2,511.7 89.7,518.8 90.4,528.5 90.9,535.4 91.1,539.0 90.8,542.5 90.2,543.6 89.3,544.7 87.7,545.8 85.1,547.0 77.3,548.9 74.0,549.6 69.7,550.5 64.9,551.8 62.0,553.1 59.9,554.4 59.5,554.9 58.7,555.7 57.8,557.3 57.5,558.8 57.5,560.0 58.4,565.9 59.2,572.0 59.5,583.1 59.7,592.6 60.0,612.9 60.8,640.9 60.7,661.9 60.8,664.3 60.9,666.1 60.6,667.5 60.2,668.7 59.4,669.9 52.6,677.3 40.7,690.9 24.6,708.3 8.8,725.5 2.0,733.4 -4.9,740.6 -14.9,749.9 -21.0,755.9 -22.6,757.5 -23.8,758.8 -25.1,760.5 -26.8,763.4 -29.4,767.9 -35.8,782.3 -37.1,784.8 -38.9,787.5 -41.4,790.7 -44.2,794.4 -46.3,797.5 -49.1,802.6 -52.1,807.9 -57.3,815.1 -64.2,822.8 -75.9,836.1 -89.9,849.1 -97.2,854.9 -101.6,858.6 -106.0,862.1 -113.0,867.5 -160.2,899.5 -221.3,939.3"/>
    <polyline points="199.2,351.2 212.9,351.1 227.5,350.9 242.8,350.8"/>
    <polyline points="242.8,350.6 259.2,350.4 272.4,349.9 278.4,349.6 283.1,349.0 286.5,348.3 289.4,347.3 291.4,346.5 293.3,345.7 294.8,344.8 296.2,343.7 297.0,342.0 297.2,339.9 296.9,337.6 296.1,331.5 290.2,316.8 288.8,313.5 288.6,312.9 288.6,312.4 288.7,309.6 288.9,307.6 289.3,306.6 289.8,305.7 290.7,304.8 292.0,304.0 293.6,303.0 303.1,297.8 314.9,292.0 320.8,289.0 324.6,287.0 328.7,284.7 342.9,276.7 354.1,269.9 357.8,267.6"/>
    <polyline points="242.8,350.8 259.0,350.5 272.9,350.1 279.1,349.7 283.5,349.2 286.8,348.5 290.0,347.5 293.9,345.8 295.4,344.9 296.6,344.0 297.7,342.0 297.8,339.9 297.5,337.6 297.0,334.1 296.8,331.5 294.3,325.4 293.0,322.7 292.0,319.6 290.8,316.8 289.4,313.7 289.2,312.9 289.2,312.0 289.3,309.0 289.5,307.7 289.9,306.7 290.5,305.7 291.3,304.9 292.5,304.1 303.7,297.9 315.4,292.1 321.4,289.1 325.3,287.1 329.3,284.9 343.5,276.8 354.9,270.1 358.6,267.8"/>
    <polyline points="357.8,267.6 362.2,264.9 366.1,262.4"/>
    <polyline points="367.0,262.6 372.5,259.1 408.4,236.9 412.8,234.5 416.5,232.5 418.8,231.4 420.5,230.5 424.3,228.3 426.3,226.6 427.2,224.8 427.3,222.5 426.0,220.1 424.2,218.0 422.9,216.4 422.8,214.8 423.7,213.3 425.4,211.7 427.6,210.3 430.8,208.4 440.0,202.9 449.8,197.1 455.9,193.6 459.3,191.3 460.6,190.1 462.0,188.3 462.5,186.7 462.3,185.3 461.8,183.5 461.0,182.1 459.6,180.9 458.2,180.0 451.5,175.6 445.6,172.0 442.2,170.0 440.6,168.7 439.5,167.5 438.8,166.2 438.8,164.8 439.1,163.3 439.6,162.1 439.9,160.9 440.0,158.6 440.0,156.2 440.1,150.4 440.3,149.9 440.7,149.4 441.4,148.9 460.0,138.6 469.7,132.9 504.5,112.0 516.1,103.9 520.7,100.1 560.1,62.4 571.9,51.1 596.3,23.5 601.2,17.5 606.5,10.2 607.5,8.5 609.3,3.1 612.8,-7.4 613.4,-8.6 614.5,-9.9 616.8,-12.4 618.8,-14.9"/>
    <polyline points="394.7,120.6 390.6,126.2 388.2,129.4 388.0,129.7 388.0,129.9"/>
    <polyline points="389.3,127.3 390.6,126.2"/>
    <polyline points="388.0,129.9 387.9,130.2 388.0,130.6 388.1,131.2 388.3,131.5 388.7,132.0 389.5,132.6 390.6,133.2 392.5,133.8 394.5,134.3 396.7,134.6 401.8,135.4 406.8,136.3 410.8,137.1 412.3,137.5 413.6,138.0 414.7,138.7 415.8,139.3 417.3,139.7 418.3,140.0 419.5,140.2 421.3,140.3 423.3,140.4 447.7,140.4 449.1,140.3 450.4,140.3 451.7,140.2 453.0,140.0 454.4,139.7 456.1,139.4 457.8,139.0 459.2,138.4"/>
    <polyline points="354.3,121.5 353.9,120.4 354.0,119.2 354.7,117.9 355.6,116.8 356.1,116.3 356.5,116.0 356.9,115.7 357.7,115.3 358.4,115.0 359.2,114.8 360.4,114.5 361.6,114.2 364.5,113.9 367.7,113.7 370.8,113.7 373.7,113.8 376.7,114.2 378.6,114.6 380.4,115.2 383.2,116.2"/>
    <polyline points="-238.9,226.5 -237.2,223.2 -236.4,222.2 -235.7,221.7 -234.2,220.9 -231.3,219.5 -227.5,217.9 -221.1,214.8 -216.8,212.4 -211.7,209.9 -208.0,208.1 -202.6,205.3 -197.3,202.6 -185.6,196.3 -176.5,191.3 -166.6,186.0 -163.0,183.4 -161.7,182.1 -158.4,180.2 -156.2,179.3 -154.8,178.7 -151.1,177.4 -147.5,176.3 -141.7,174.3 -133.2,171.5 -114.1,165.4 -105.0,162.8 -98.8,161.2 -92.5,159.6 -87.5,158.3 -79.2,156.4 -64.4,153.5 -44.3,148.8 -40.9,148.2 -37.4,147.7 -33.8,147.3 -28.9,147.0 -23.3,146.9 -18.5,147.0 -14.3,147.3 -11.2,147.7 -8.1,148.1 -4.5,148.8 -1.5,149.5 12.0,153.1 19.6,155.3 23.4,156.3 26.8,157.0 31.1,157.7 36.1,158.4 41.9,159.0 46.9,159.4 51.9,159.8 57.3,160.0 65.3,160.1 71.7,160.1 76.8,160.1 107.3,159.5 114.1,159.4 124.0,159.2 146.3,159.2 189.4,159.3 215.8,159.5 228.8,159.6 235.5,159.6 239.0,159.6 243.1,159.5 246.8,159.3 250.0,159.1 253.4,158.7 258.4,158.1 260.1,158.0 262.9,157.7 266.3,157.5 269.3,157.3 272.4,157.3 276.6,157.2 284.3,157.3 301.5,157.3 320.9,157.3 325.5,157.3 330.1,157.0 334.4,156.5 338.6,155.9 342.0,155.3 345.8,154.8 349.6,154.3 352.0,154.0 355.9,153.7 360.1,153.5 363.8,153.5 375.8,153.6 385.4,153.7 389.7,153.8 393.4,154.1 397.1,154.6 406.3,155.7 411.1,156.2 414.9,156.4 419.8,156.6 425.1,156.7 447.7,156.9 469.7,156.9 503.2,157.0 509.0,157.0 513.8,157.2 519.0,157.4 526.6,158.0 532.6,158.6 541.1,159.8 548.4,160.8 559.8,162.5 566.3,163.7 588.7,169.8 600.9,172.9 607.6,174.8 639.6,183.7 685.5,196.9 706.9,203.0 755.5,216.7 762.2,218.8 778.3,223.3 782.5,224.5 785.2,225.4 787.0,226.0 789.1,226.8 790.8,227.7 792.3,228.7 793.5,229.7 794.3,231.2 794.6,232.2 795.0,235.5 794.7,238.7 794.6,241.7 794.3,243.3 794.1,244.2 794.0,244.6 793.3,245.7 792.9,246.4 791.4,248.0 790.1,249.5 788.9,250.6 787.5,251.9 786.4,252.9 784.7,254.1 782.4,255.3 780.2,256.7 778.7,258.1 777.8,259.3 777.1,260.6 777.0,261.9 777.2,263.0 777.7,264.4 778.1,265.2 778.7,266.1 779.7,267.1 782.9,269.7 786.9,272.6 790.3,275.2 794.2,278.1 798.7,281.0 804.0,283.6 806.8,284.9 810.1,286.2 811.8,287.3 813.7,288.7 814.7,290.4 815.0,293.1 814.9,297.0 815.0,302.8 814.7,315.5 814.6,324.8 814.6,327.3 813.7,330.4 812.1,336.1 811.7,338.0 811.3,339.2 811.1,341.0 811.6,342.4 812.8,344.3 813.9,345.5 820.3,350.4 822.1,352.2 822.8,353.9 822.5,355.8 821.7,357.5 820.7,359.0 819.1,360.6 816.3,362.8 811.5,366.9 808.1,369.8 803.7,373.5 801.1,375.7 797.5,378.6 794.1,380.4 790.8,381.8 786.8,382.9 782.5,383.8 774.3,385.1 764.7,386.5 759.0,387.5 749.1,388.9 736.9,390.8 725.9,392.4 722.5,393.0 718.8,393.7 715.3,394.6 712.2,395.4 705.6,397.4 703.2,398.2 700.8,399.1 695.4,402.0 692.2,403.9 684.0,408.5 679.0,411.4 674.5,413.9 670.0,416.6 665.0,419.4 663.1,420.4 660.9,421.2 658.6,421.9 655.6,422.6 651.0,423.2 643.2,423.9 633.6,424.6 627.1,425.0 615.2,425.9 605.5,426.9 594.7,428.1 586.1,429.0 576.6,429.9 565.9,430.8 541.3,433.0 537.8,433.1 534.6,433.1 531.7,433.0 528.4,432.9 498.4,431.2 473.5,429.7 464.9,429.5 454.9,429.9 443.9,430.7 433.5,431.7 424.1,432.7 415.5,434.0 406.6,435.4 396.8,437.3 387.3,438.7 377.3,439.8 368.4,440.6 360.5,441.1 352.2,441.4 344.3,441.6 310.9,441.6 303.0,441.6 295.6,441.7 288.1,441.5 281.4,441.0 275.4,440.0 271.6,439.2 267.5,438.4 263.0,437.7 256.7,437.1 251.6,437.1 246.6,437.2 241.8,437.4 236.1,437.6 221.3,437.8 209.4,437.9 185.1,437.9 166.5,438.0 159.8,437.9 154.1,437.8 148.1,437.2 142.9,436.6 138.9,435.8 136.9,435.3 129.5,433.1 122.8,431.3 114.9,429.8 106.3,428.3 98.4,427.2 92.0,426.6 84.3,426.0 69.7,424.9 63.7,424.5 59.5,424.0 55.4,423.4 36.8,419.8 5.0,414.1 -20.7,409.0 -23.2,408.4 -38.8,404.0 -40.9,403.5 -48.7,401.9 -65.6,398.3 -70.6,397.4 -76.4,396.9 -82.4,396.4 -86.8,395.9 -93.1,395.0 -105.2,392.6 -109.1,391.6 -130.1,382.5 -133.3,381.1 -139.3,378.3 -145.9,375.4 -155.8,371.0 -172.8,363.7 -181.1,360.3 -189.2,356.7 -193.3,354.6 -196.6,352.6 -200.0,350.3 -202.7,348.1 -205.4,345.7 -212.1,340.0 -215.2,337.7 -219.0,335.0 -226.8,329.6 -232.9,325.4 -237.7,322.1 -239.9,320.6 -241.4,319.3 -242.7,317.7 -243.8,316.0 -244.6,314.0 -246.5,307.3 -247.6,303.2 -249.7,295.7 -251.0,290.8 -251.7,286.0 -251.3,282.8 -250.5,279.3 -250.2,275.3 -251.3,264.4 -251.9,257.2 -252.1,254.9 -251.9,252.9 -251.4,250.9 -250.8,249.2 -248.7,243.5 -246.8,238.8 -246.0,237.5 -244.9,235.9 -243.8,234.5 -242.9,233.3 -241.8,231.6 -238.9,226.5"/>
    <polyline points="-245.6,235.4 -247.3,237.8 -248.0,238.9 -248.5,240.3 -252.5,251.0 -253.0,252.8 -253.1,255.0 -253.0,257.2 -252.4,264.4 -251.3,275.3 -251.6,279.2 -252.4,282.7 -252.8,286.0 -252.1,290.8 -250.7,295.8 -250.1,298.2 -247.8,306.3 -245.7,314.1 -244.7,316.3 -243.8,317.8 -242.4,319.4 -241.0,320.7 -235.1,324.8 -226.7,330.5 -221.1,334.2 -216.2,337.9 -213.0,340.1 -206.3,345.8 -203.7,348.1 -201.1,350.4 -196.7,353.3 -193.8,355.0 -190.1,356.9 -182.2,360.3 -173.7,363.9 -164.9,367.6 -159.5,369.8 -156.6,371.2 -153.6,372.5 -146.8,375.7 -141.1,378.2 -134.6,381.4 -131.3,382.7 -110.1,391.9 -106.0,393.0 -93.8,395.4 -87.3,396.4 -82.8,396.9 -76.8,397.4 -71.1,397.9 -66.3,398.7 -49.5,402.3 -41.7,403.9 -39.7,404.4 -24.0,408.8 -21.5,409.4 4.3,414.5 36.1,420.2 54.7,423.8 59.0,424.4 63.3,424.9 69.4,425.4 84.0,426.4 91.6,427.0 97.9,427.7 105.7,428.8 114.2,430.2 122.0,431.7 128.5,433.5 136.0,435.7 138.1,436.2 142.4,437.0 147.7,437.7 153.8,438.2 159.8,438.4 166.5,438.4 185.1,438.4 209.4,438.4 221.3,438.2 236.2,438.1 241.9,437.9 246.7,437.7 251.7,437.5 256.5,437.6 262.5,438.2 266.9,438.8 270.9,439.6 274.7,440.4 280.9,441.4 287.9,441.9 295.6,442.1 303.0,442.1 310.9,442.1 344.4,442.1 352.3,441.9 360.7,441.5 368.7,441.0 377.7,440.3 387.9,439.1 397.5,437.7 407.2,435.8 416.1,434.4 424.6,433.2 433.9,432.1 444.2,431.1 455.2,430.4 464.9,430.0 473.3,430.2 498.2,431.7 528.2,433.3 531.6,433.5 534.6,433.6 537.9,433.6 541.5,433.4 566.3,431.3 577.0,430.3 586.5,429.4 595.1,428.5 605.9,427.3 615.6,426.3 627.4,425.5 633.9,425.0 643.5,424.4 651.4,423.7 656.2,423.0 659.5,422.3 661.9,421.5 664.2,420.6 666.2,419.7 671.2,416.8 675.7,414.2 680.2,411.6 685.2,408.7 693.4,404.1 696.6,402.2 702.0,399.4 704.2,398.5 706.6,397.7 713.1,395.7 716.1,394.9 719.6,394.1 723.1,393.4 726.6,392.8 737.5,391.2 749.7,389.3 759.6,387.9 765.3,386.9 774.9,385.5 783.1,384.2 787.6,383.3 791.8,382.2 795.3,380.7 798.7,378.8 802.4,375.9 805.0,373.7 809.4,370.0 812.8,367.1 817.6,363.0 820.4,360.7 822.0,359.2 823.1,357.6 823.9,355.8 824.2,353.9 823.5,352.1 821.7,350.2 815.2,345.3 814.1,344.2 813.0,342.3 812.5,341.0 812.7,339.3 813.1,338.1 813.5,336.1 815.1,330.4 816.0,327.3 816.0,324.8 816.1,315.5 816.4,302.8 816.3,297.0 816.4,293.1 816.1,290.4 815.1,288.5 813.0,287.1 811.2,286.0 807.9,284.6 805.2,283.3 800.0,280.8 795.5,277.9 791.6,275.0 788.1,272.4 784.2,269.5 781.0,266.9 780.1,265.9 779.4,265.1 779.1,264.3 778.6,263.0 778.4,261.9 778.5,260.6 779.1,259.4 780.0,258.2 781.5,256.9 783.7,255.5 785.9,254.3 787.7,253.1 788.9,252.0 790.2,250.8 791.4,249.6 792.8,248.2 794.2,246.5 794.7,245.7 795.4,244.6 795.7,243.3 796.0,241.7 796.1,238.7 796.4,235.4 796.0,232.1 795.7,231.1 794.9,229.6 793.6,228.5 792.0,227.4 790.3,226.6 788.1,225.7 786.2,225.0 783.5,224.2 779.2,223.0 763.2,218.3 756.4,216.4 707.8,202.6 640.5,183.4 601.8,172.6 589.6,169.4 567.1,163.3 560.4,162.1 548.9,160.4 541.6,159.4 533.1,158.2 527.0,157.5 519.3,157.0 514.0,156.7 509.1,156.6 503.2,156.5 469.7,156.4 447.7,156.4 425.1,156.2 419.9,156.1 415.1,155.9 411.4,155.7 406.7,155.3 397.6,154.2 393.8,153.7 389.9,153.4 385.6,153.2 375.8,153.1 363.7,153.0 359.9,153.1 355.7,153.3 351.6,153.6 349.1,153.9 345.3,154.4 341.5,154.9 338.0,155.5 333.9,156.1 329.7,156.5 325.3,156.8 320.9,156.9 301.5,156.8 284.3,156.8 276.6,156.8 272.4,156.8 269.2,156.9 266.0,157.0 262.6,157.2 259.7,157.5 257.9,157.7 253.0,158.3 249.6,158.6 246.5,158.8 243.0,159.0 238.9,159.1 235.5,159.2 228.9,159.1 215.9,159.0 189.4,158.8 146.3,158.8 124.0,158.8 114.1,158.9 107.2,159.1 76.8,159.6 71.7,159.7 65.3,159.6 57.4,159.5 52.1,159.3 47.3,159.0 42.3,158.6 36.6,158.0 31.7,157.3 27.5,156.6 24.2,155.9 20.5,154.9 12.9,152.8 -0.7,149.1 -3.8,148.4 -7.4,147.7 -10.7,147.2 -13.9,146.9 -18.2,146.6 -23.3,146.4 -29.1,146.5 -34.1,146.9 -37.9,147.3 -41.5,147.7 -45.0,148.4 -65.2,153.1 -79.9,156.0 -88.3,158.0 -93.3,159.2 -99.7,160.8 -105.9,162.5 -115.0,165.1 -133.6,171.3 -142.1,174.1 -148.1,176.1 -155.2,178.6 -156.7,179.2 -158.9,180.0 -162.4,182.0 -164.5,183.8 -167.4,185.9 -186.3,196.1 -200.1,203.5 -217.5,212.3 -223.1,215.0 -231.8,219.3 -235.0,220.7 -236.7,221.7 -237.7,222.5 -238.1,223.1 -239.1,224.7 -240.0,226.4 -242.9,231.5 -244.1,233.4 -245.6,235.4"/>
    <polyline points="225.8,245.3 258.4,245.3 263.5,245.5 267.4,245.9 274.4,247.3 281.3,248.5 302.4,252.2 308.6,253.2 315.8,254.5 320.4,255.4 324.4,256.4 326.7,257.0 328.0,257.4 329.0,257.8 329.9,258.2 330.9,258.5 332.1,258.9 333.7,259.3 335.0,259.7 336.7,260.1 339.6,260.7 347.7,262.3 361.6,264.8 368.4,266.1 428.5,277.1 482.4,286.8 488.0,287.8 498.9,289.6 524.7,294.4 536.5,296.5 571.3,302.8 603.4,308.5 623.1,312.0 648.8,316.6 665.5,319.6 686.0,323.3 690.8,323.8 695.5,323.9 699.7,323.5 704.1,322.7 709.8,320.9 711.7,319.8 716.6,316.2 720.4,313.9 724.1,312.1 728.7,310.5 734.0,309.4 739.9,308.6 746.5,308.0 765.1,306.6 786.7,305.0 795.1,304.3 804.2,303.2"/>
    <polyline points="225.8,245.5 258.8,245.6 263.1,245.8 267.1,246.3 270.3,246.9 301.8,252.5 315.1,254.8 320.3,255.9 323.0,256.5 325.0,257.0 326.8,257.6 328.4,258.2 329.7,258.7 331.8,259.3 333.5,259.7 335.4,260.2 338.9,260.9 361.2,265.0 368.0,266.3 428.0,277.3 487.5,288.0 521.9,294.2 602.9,308.8 648.3,316.9 685.5,323.6 690.7,324.1 695.5,324.2 700.0,323.9 704.5,323.1 708.1,322.2 711.1,321.1 713.1,320.0 718.0,316.4 721.6,314.2 725.3,312.3 729.3,310.9 734.5,309.8 740.2,309.0 746.8,308.4 765.3,306.9 786.8,305.3 795.5,304.6 804.5,303.5"/>
    <polyline points="15.4,248.8 18.2,249.3 20.8,249.8 26.2,250.8 33.5,251.9 38.7,252.2 43.6,252.4 47.4,252.3 51.2,252.2 55.5,252.0 64.3,251.5 73.9,251.2 89.9,250.5 103.4,250.0 109.0,249.7 116.4,249.3 128.3,248.2 131.9,247.8 134.7,247.5 137.6,247.2 140.9,247.0 170.3,245.9 202.8,245.5 208.0,245.4"/>
    <polyline points="208.0,245.4 218.6,245.3 225.8,245.3"/>
    <polyline points="208.0,245.7 218.5,245.5 225.8,245.5"/>
    <polyline points="12.0,244.5 11.7,241.8 11.4,240.2 10.6,237.4 10.4,236.4 10.2,235.2 10.0,231.0 9.9,225.8 9.9,225.1 10.1,224.2 10.4,223.1 11.1,222.2 12.3,220.9 14.0,219.3 19.8,215.5 26.8,211.0 35.3,206.6 46.2,199.3 49.7,197.6 54.0,196.4 58.0,195.6 63.1,195.0 76.8,193.9 101.6,191.9 116.4,190.4 152.9,187.3 159.2,186.8 161.3,186.7 164.9,186.6 168.7,186.5 186.3,186.6 191.7,186.5 196.0,186.4 200.9,185.8 205.8,184.9 209.5,183.9 213.0,182.7 215.6,181.3 217.8,179.7 218.7,178.7 219.2,177.4 219.8,168.6 219.9,166.1 220.0,162.0 220.1,158.4 222.1,153.5 222.3,151.1 221.5,139.6 220.9,137.0 217.7,127.3 217.0,125.8 215.9,124.7 214.5,123.8 209.5,121.1 194.9,113.6 189.1,110.8 182.4,108.2 172.2,103.3 169.3,101.3 168.0,99.7 166.7,97.1 156.1,75.4 154.9,72.9 154.4,71.8 154.8,60.8 155.5,48.3 156.2,39.6 159.7,19.3 161.4,9.6 166.5,-21.3 167.1,-25.1 166.8,-44.4 167.2,-59.8 167.6,-69.3 168.2,-71.7 169.2,-73.5 170.8,-74.8 172.6,-76.0 175.1,-77.1 177.8,-78.1 180.5,-78.9 184.0,-79.7 188.5,-80.3 195.9,-80.9 206.2,-81.0 214.6,-81.0 289.1,-80.9 319.6,-80.7"/>
    <polyline points="35.0,252.6 39.5,253.0 41.9,253.0 45.3,252.9 50.9,252.6 58.5,252.2 67.1,251.7 73.9,251.5 78.5,251.3 89.9,250.9 101.7,250.3 116.7,249.5 131.3,248.1 134.9,247.7 140.8,247.4 170.3,246.3 202.7,245.8 208.0,245.7"/>
    <polyline points="227.8,276.1 231.8,276.4 236.7,276.6 242.0,276.7 253.2,276.8 262.2,277.0 268.5,277.4 274.2,278.0 279.7,278.9 287.0,280.2 320.5,286.6"/>
    <polyline points="207.3,274.3 214.7,274.9 219.5,275.4 224.1,275.8 227.8,276.1"/>
    <polyline points="207.5,274.0 219.7,275.1 224.3,275.5 228.0,275.8"/>
    <polyline points="320.9,286.3 287.6,280.1 281.0,278.9 274.5,277.8 268.7,277.3 262.0,276.8 249.4,276.6 236.8,276.4 232.3,276.2 228.0,275.8"/>
    <polyline points="-346.3,944.4 -333.6,946.5 -324.2,947.7 -314.3,948.1 -306.4,947.9 -298.4,947.1 -292.6,946.4 -272.4,942.7 -263.0,941.0 -254.8,940.1 -243.2,939.6 -235.7,939.6 -228.5,940.1 -223.1,940.6 -212.2,942.4 -200.1,944.3 -181.1,946.7 -171.5,947.6 -161.9,948.2 -154.5,948.4 -140.4,948.8 -128.7,949.3 -122.7,949.5 -113.9,950.2 -105.5,951.1 -96.3,952.6 -85.6,954.6 -78.9,956.5 -70.8,959.1 -63.2,961.8 -55.4,965.8 -51.4,967.9 -44.4,971.7 -40.7,973.6 -36.5,975.0 -31.7,976.8 -26.6,978.1 -21.1,979.3 -13.0,981.1 -1.2,984.4 3.3,985.6 8.2,987.2 11.6,988.3 14.5,989.2 18.5,990.5 22.1,991.6 24.8,992.4 28.1,993.2 32.0,994.2 36.9,995.2 45.9,996.8 55.8,998.4 66.8,1000.1 76.9,1001.3 86.7,1002.2 99.6,1003.0 113.5,1003.3 134.1,1003.4 182.8,1003.5 194.3,1003.5 226.3,1003.3 257.1,1002.9 269.5,1002.7 281.3,1002.5 295.5,1002.5 303.3,1002.5 310.5,1002.4 318.3,1002.1 325.8,1001.5 334.8,1000.5 343.1,999.4 351.5,998.1 358.9,996.5 365.5,994.6 371.3,992.7 375.7,990.8 379.9,988.3 381.8,986.8 383.2,985.7 386.7,983.0 401.4,971.1 403.9,968.8 405.4,966.8 406.4,964.8 407.1,962.9 407.5,960.8 408.0,957.8 408.5,954.3 409.4,949.5 410.5,945.7 411.8,942.9 413.0,940.8 415.5,938.6 418.0,936.9 421.9,935.2 428.0,933.2 435.1,931.3 450.0,928.0 467.6,924.4 480.7,920.9 496.0,916.5 503.1,913.4 507.1,910.9 507.9,910.1 508.5,909.1 509.6,907.0 512.2,901.4 513.0,895.1 513.4,889.2 514.3,880.4 512.9,875.2 511.6,873.3 506.3,868.6 499.8,859.2 497.9,855.2 497.5,853.7 497.3,851.9 497.6,850.4 498.5,849.0 499.6,847.7 502.1,845.5 505.1,843.3 512.9,838.0 522.4,831.5 523.4,830.5 524.5,829.3 525.2,828.1 525.6,826.5 525.2,824.9 523.9,823.3 520.9,820.3 497.4,796.3 492.8,789.8 488.7,782.7 487.2,780.2 485.5,776.9 483.9,773.6 482.7,771.1 482.0,769.6 481.6,768.4 481.5,766.7 481.3,761.9 481.4,759.0 481.7,757.3 482.0,756.1 482.5,755.1 483.5,753.5 484.8,752.3 486.2,751.2 490.6,748.4 501.4,741.0 503.9,739.3 507.4,737.2 509.0,735.8 511.3,733.8 512.2,732.7 513.1,731.1 513.4,729.8 513.3,728.8 512.9,728.0 512.5,727.2 512.4,727.1 511.7,726.3 510.8,725.2 509.3,724.0 506.7,722.4 504.4,721.1 502.1,720.2 499.4,719.0 499.2,719.0 494.8,717.2 491.0,715.6 488.2,714.2 486.5,713.2 484.6,712.0 483.3,710.8 482.2,709.5 481.7,708.5 481.7,707.3 481.7,704.8 481.6,700.0 481.4,670.7 480.8,645.2 480.8,642.0 480.8,633.1 481.3,615.1 481.3,612.4 481.1,608.8 481.9,605.9 484.3,600.4 484.9,598.2 484.4,596.4 483.2,595.1 481.3,593.4 479.1,592.1 465.6,585.8 450.2,578.4 443.7,574.7 439.6,571.5 435.4,567.0 433.7,565.2 430.9,563.4 427.3,561.8 423.1,560.7 418.6,560.0 384.8,555.8 378.8,554.8 374.6,553.8 371.5,552.7 368.8,551.5 365.0,549.3 361.7,546.9 358.5,544.1 356.8,541.3 356.3,538.9 356.8,536.6 358.4,534.4 360.4,532.8 363.3,531.2 365.8,529.4 367.3,528.0 368.2,526.5 368.7,524.9 368.1,523.0 367.5,521.9 365.7,518.3 364.2,515.2 363.8,513.4 364.2,511.7 365.3,510.0 368.3,507.7 373.0,505.4 381.0,502.3 388.2,499.5 394.8,496.4 399.3,493.1 405.6,485.7 409.2,481.4 414.1,478.3 418.5,476.4 424.0,474.5 428.8,473.3 437.7,472.0 450.6,470.5 458.0,469.5 462.2,468.6 467.6,467.5 474.0,465.4 477.6,463.4 479.3,460.5 479.0,456.3 478.9,455.0 478.8,453.1 478.7,451.0 478.5,447.8 478.5,445.5 478.8,443.1 480.8,438.2 481.6,436.1 482.5,434.5 483.6,433.1 484.9,431.6 487.9,428.3 488.6,427.3 489.0,426.4 489.2,425.3 488.7,423.0 487.1,415.7 486.0,411.5 485.1,407.0 483.7,401.6 481.8,393.6 481.4,391.9 480.9,390.3 480.2,387.6 479.6,385.9 478.6,384.4 476.6,383.3 474.1,382.3 469.7,380.6 466.9,379.6 463.7,378.6 459.0,377.5 455.3,376.5 451.9,375.2 450.3,374.1 448.8,372.9 448.7,372.7 448.4,372.3 448.0,371.6 447.7,370.5 447.9,369.5 449.9,366.3 451.7,363.4 452.0,362.8 452.3,362.0 452.4,361.2 452.3,360.0 451.7,358.7 450.8,357.7 448.8,356.2 445.7,354.0 444.3,352.8 441.3,349.1 438.0,345.3 434.9,341.9 433.1,340.3 431.7,338.9 429.3,337.5 427.0,336.2 423.9,334.5 420.8,333.0 418.9,332.0 417.5,331.2 416.6,330.6 416.2,329.9 415.9,329.1 416.0,328.5 416.3,327.8 416.8,327.1 417.6,326.4 419.8,325.0 425.6,321.3 434.7,316.0 441.3,312.0 442.7,311.1 484.2,286.2 490.9,281.9 509.1,270.0 511.5,268.6 512.8,267.3 513.2,266.2 513.4,264.0 513.2,262.6 513.0,261.3 512.8,261.1 512.6,260.4 511.8,259.6 510.3,258.0 500.0,248.2 484.5,233.3 483.8,232.6 480.8,229.5 480.7,229.4 476.4,225.5 475.2,224.4 473.7,223.1 472.4,222.3 470.3,221.3 467.8,220.3 464.5,219.2 458.2,216.9 455.8,216.1 452.4,215.1 448.8,214.3 442.3,213.1 436.4,212.1 430.7,211.0 419.3,208.8 406.7,206.4 392.6,203.7 377.9,200.8 367.8,199.1 361.9,198.2 355.3,197.2 329.8,193.6 305.9,190.3 294.6,188.7 286.0,187.6 280.0,187.1 276.4,186.8 270.9,186.6 262.3,186.6 235.8,186.7 213.7,186.7 169.3,186.2 169.2,186.2 166.1,186.2 164.8,186.2 160.8,186.3 157.4,186.5 152.6,186.9 130.4,188.6 127.2,188.9 123.7,189.0 119.6,188.9 115.7,188.7 112.3,188.2 108.8,187.6 106.6,187.1 104.4,186.4 103.1,185.6 101.3,184.0 100.4,182.7 98.4,179.7 96.3,174.9 95.4,172.6 93.9,167.9 93.6,166.6 92.7,165.4 90.5,163.4 87.2,160.5 85.0,159.2 79.7,156.3 77.8,155.3 73.1,152.7 69.1,150.4 62.3,146.7 58.6,144.6 52.2,141.3 43.0,136.9 39.6,135.2 32.3,131.7 21.0,126.0 -5.9,111.6 -16.3,106.4 -21.1,104.1 -52.5,87.6 -60.1,83.6 -67.3,79.9 -73.5,77.0 -102.1,65.2 -107.8,62.5 -125.3,53.8 -133.6,49.6 -137.3,48.0 -143.1,45.8 -148.3,43.9 -157.1,40.8 -163.5,38.6 -166.9,37.6 -169.9,36.9 -172.4,36.5 -176.0,36.0 -179.2,35.8 -183.0,35.7 -186.8,35.7 -190.5,35.8 -199.2,36.2 -228.1,37.4 -230.6,37.5 -233.7,37.5 -237.5,37.3 -242.2,37.0 -245.8,36.5 -248.9,35.9 -252.6,35.2 -255.8,34.3 -260.8,33.0 -279.8,27.2 -287.7,24.8 -290.6,23.7 -292.9,22.6 -295.3,21.2 -297.4,19.9 -299.6,18.6 -302.2,17.3 -305.6,16.0 -347.8,1.4 -366.7,-5.2 -372.7,-7.8 -391.0,-15.8 -396.8,-18.6 -405.0,-23.2 -410.1,-25.7 -412.8,-26.6 -415.6,-27.4 -418.7,-28.1 -423.5,-29.2 -427.5,-30.1 -429.9,-30.7 -432.0,-31.5 -432.6,-31.8 -433.1,-31.9 -433.9,-32.4 -436.1,-33.5 -442.4,-36.1 -452.7,-41.0 -453.5,-41.4 -460.6,-44.6 -465.7,-47.2 -468.5,-48.0 -471.0,-48.8 -474.3,-49.6 -480.2,-50.6 -487.9,-51.4 -495.0,-51.8 -502.8,-51.7 -511.5,-51.2 -517.9,-50.3 -524.1,-49.4 -530.7,-48.0 -540.0,-45.7 -557.5,-40.7 -565.2,-38.2 -574.2,-34.9 -579.8,-32.2 -585.6,-29.5 -601.4,-22.3 -604.1,-21.1 -607.1,-20.2 -611.8,-19.2 -617.4,-18.4 -625.3,-18.2 -632.0,-18.5 -637.7,-19.4 -654.0,-22.1 -673.4,-25.5 -696.5,-29.4 -702.4,-30.3 -726.8,-34.9 -733.7,-36.4 -741.6,-39.0 -748.7,-42.3 -754.2,-46.5 -761.0,-51.6 -761.4,-51.9 -765.7,-54.9 -769.3,-57.1 -774.5,-59.5 -780.5,-61.9 -789.4,-65.1 -805.9,-70.0 -831.5,-76.4 -850.9,-80.7 -860.8,-82.9 -870.5,-84.8 -880.5,-86.7 -895.0,-89.4 -904.6,-91.3 -912.9,-93.4 -923.5,-96.1 -935.3,-99.1 -936.3,-99.3 -943.8,-101.2 -953.6,-103.6 -959.9,-105.6 -968.3,-108.1 -973.5,-110.0 -983.0,-113.0 -992.7,-116.4 -1004.4,-120.2 -1014.0,-123.2 -1015.0,-123.6 -1023.2,-126.2 -1026.9,-127.2 -1030.7,-128.2 -1034.5,-129.1 -1042.2,-130.7 -1051.8,-132.7 -1065.2,-135.4 -1094.1,-141.3 -1102.5,-143.1 -1106.8,-144.0 -1126.0,-148.0 -1127.6,-148.3 -1132.9,-149.4 -1157.8,-154.9 -1175.3,-158.8 -1181.9,-160.2 -1209.0,-166.6 -1235.0,-172.6 -1255.3,-177.2 -1273.9,-181.5 -1285.8,-184.4 -1289.0,-185.2 -1291.3,-185.8 -1292.6,-186.3 -1293.7,-186.7 -1296.1,-187.7 -1304.8,-191.7 -1311.9,-194.9"/>
    <polyline points="-485.6,623.3 -482.2,620.5 -479.3,618.1 -476.7,616.1 -474.8,614.9 -472.4,613.6 -469.9,612.6 -467.3,611.8 -463.9,611.0 -460.2,610.5 -456.3,610.1 -452.1,609.9 -406.1,609.0 -394.7,608.8 -383.9,608.3 -381.1,608.2 -378.5,608.0 -334.9,604.2 -300.2,601.4 -292.9,600.7 -286.4,600.0 -279.0,598.9 -273.9,597.8 -261.2,594.6 -225.1,585.2 -222.2,584.1 -219.1,582.4 -217.7,580.2 -217.6,578.3 -218.3,576.7 -219.3,575.3 -222.3,573.6 -234.5,569.1 -242.8,565.3 -247.6,563.0 -253.4,559.1 -254.8,558.3 -257.6,555.7 -259.6,553.7 -269.7,538.3 -270.4,537.1 -270.6,535.9 -270.3,534.6 -269.5,533.7 -268.0,532.5 -265.8,531.4 -262.9,530.6 -259.8,529.8 -256.8,529.1 -252.1,528.6 -248.7,528.2 -244.3,527.9 -228.2,526.8 -218.4,526.2 -203.8,525.4 -192.8,524.9 -172.9,523.9 -155.0,522.8 -144.7,522.1 -138.3,521.5 -132.0,520.7 -125.3,519.7 -120.8,518.9 -116.9,518.1 -113.4,517.2 -106.2,514.8 -85.7,508.2 -78.1,505.7 -69.9,502.8 -64.9,500.8 -56.8,497.6 -52.5,495.8 -49.4,494.1 -46.8,492.4 -45.9,491.4 -43.7,489.2 -41.9,486.6 -41.2,484.7 -41.3,482.1 -42.2,462.6 -42.2,459.8 -42.1,457.1 -43.4,444.8 -43.7,442.5 -43.2,440.6 -42.3,438.4 -41.7,437.4 -41.1,436.3 -40.4,435.2 -39.4,434.1 -37.9,432.2 -37.3,431.0 -37.0,430.2 -36.9,429.4 -37.5,427.6 -38.9,426.2 -40.8,424.7 -42.8,423.4 -44.8,421.6 -46.5,419.4 -47.8,417.5 -48.6,415.4 -48.5,413.6 -47.6,411.7 -46.7,410.2 -46.0,409.2 -45.3,408.4 -44.2,407.2 -43.1,406.3 -41.8,405.4 -36.4,402.1 -4.1,383.1 16.9,370.3 20.9,368.6 25.8,367.3 31.7,366.6 37.3,366.2 43.4,366.0 49.8,366.1 60.6,366.7 68.8,367.2 73.6,367.4 77.2,367.8 80.9,368.4 85.1,369.2 87.7,369.8 91.6,370.9 93.8,371.6 97.0,372.5 100.2,373.1 107.0,374.1 115.6,375.5 121.2,376.3 127.5,377.0 131.3,377.4 135.6,377.7 141.0,377.7 142.6,377.7 149.1,377.7 208.4,377.3 264.3,376.9 294.6,376.5 302.0,376.4 307.4,376.5 312.1,376.7 315.8,377.0 319.5,377.6 321.3,378.0 323.1,378.4 324.8,378.9 327.0,379.5 329.7,380.5 338.4,384.9 351.3,390.2 353.8,391.0 356.7,391.6 360.0,392.1 363.6,392.6 369.7,393.1 394.6,393.9 411.8,394.4 421.5,394.6 442.8,394.6 457.0,394.3 475.9,393.9 479.0,393.8 486.0,393.6 490.8,393.4 496.1,393.1 501.5,392.8 507.0,392.3 508.4,392.1 509.9,391.9 511.4,391.6 512.8,391.2 516.9,389.7 529.3,384.8 536.9,381.8 540.3,380.0 542.7,378.2 547.8,372.3 549.7,370.0 552.5,367.7 560.5,362.8 563.6,361.4 567.1,360.1 571.9,358.2 591.6,350.6 603.9,345.5 606.4,344.4 614.2,341.4 621.5,338.4 623.1,337.5 624.4,336.4 625.2,335.7 625.7,334.8 626.0,334.1 626.1,333.3 625.9,332.0 625.4,331.2 624.5,330.4 623.5,329.6 622.2,329.0 606.4,322.7 604.5,321.5 602.5,320.3 600.8,319.1 600.2,317.8 600.4,316.5 601.4,315.2 602.2,314.4 603.3,313.6 606.3,311.6 611.2,308.6 613.3,307.2 614.9,305.7 616.2,303.8 616.9,302.1 617.2,300.0 615.9,288.8 616.1,283.3 616.2,278.7 616.5,273.9 616.5,271.7 616.3,270.7 616.1,269.7 615.7,268.4 615.5,267.5 615.1,266.6 614.9,265.6 614.8,264.8 614.8,263.8 615.0,262.9 615.3,262.0 616.1,260.9 617.3,260.0 619.6,258.8 622.1,258.1 625.1,257.4 627.6,257.1 630.9,256.6 651.5,254.3 657.1,253.7 662.2,253.2 667.1,252.6 672.1,251.9 676.6,251.1 728.6,241.3 737.1,239.7 744.9,238.0 751.6,236.6 769.1,233.1 781.1,230.9 789.5,229.6 793.3,228.9 796.8,228.0 799.5,227.1 804.8,225.3 817.0,220.4 821.5,218.7 839.6,212.0 845.3,210.0 851.8,207.6"/>
    <polyline points="246.2,706.7 244.5,686.6 242.7,663.2 241.7,651.2 239.0,621.2 237.5,595.9 237.3,594.0 235.5,585.5 234.0,575.7 233.7,573.4 232.2,568.6 230.8,566.3 229.0,564.0 215.7,551.9 209.2,545.8 205.2,541.6 203.1,538.5 202.1,535.1 201.8,532.4 199.9,509.7 197.8,473.0 197.1,463.6 197.4,461.8 198.6,460.1 200.7,458.8 203.7,457.9 208.4,456.6 212.6,455.3 216.9,454.0 219.7,452.4 221.3,450.3 221.8,448.3 221.7,438.6 221.6,436.3 222.1,431.4 222.0,425.5 222.2,418.4 222.5,417.2 223.1,416.0 223.7,415.1 224.4,414.0 224.9,412.4 225.2,410.4 225.8,407.1 225.6,404.2 223.1,377.5 222.2,356.9 221.8,351.4 221.6,348.9 221.4,345.8 220.7,341.5 220.2,336.8 219.4,329.7 218.9,325.6 218.6,320.9 217.7,311.1 217.0,301.5 217.0,300.1 216.6,296.2 216.1,289.2 215.6,283.6 215.6,281.5 215.7,280.6 216.2,279.6 216.4,279.0 217.0,278.0 218.6,275.4 219.6,274.3 220.5,273.2 221.6,272.1 221.8,271.7 222.1,271.0 222.5,269.9 222.7,268.7 222.8,267.9 222.7,267.2 222.4,266.1 221.9,265.1 221.3,264.6 220.1,263.5 218.6,262.2 218.5,262.2 216.9,260.7 215.6,259.5 214.6,258.1 214.2,257.1 213.5,253.5 213.2,250.7 212.9,248.0 212.5,242.8 212.5,241.2 213.0,239.5 213.7,238.6 214.4,237.9 214.4,237.8 221.1,234.3 230.0,229.6 232.0,228.6 246.9,220.7 255.1,216.4 260.2,213.6 261.1,213.1 261.7,212.5 262.1,211.9 262.4,211.4 264.9,205.7 267.1,201.2 271.8,192.8 273.6,189.2 274.5,187.4 275.0,186.3 275.3,185.1 275.9,161.8 276.0,161.0 276.4,160.3 277.1,159.4 278.0,158.4 280.5,156.0 283.1,153.7 287.0,150.3 287.8,149.6 288.6,149.1 289.5,148.5 290.6,147.9 292.6,146.9 295.2,146.0 298.7,145.1 303.1,144.4 308.3,144.0 313.0,143.8 318.5,143.7 330.1,143.7 333.0,143.6 335.9,143.4 338.9,143.1 342.4,142.6 345.9,141.9 349.2,141.1 352.2,140.1 354.7,139.0 356.7,137.9 358.1,137.0 359.2,135.9 360.1,134.8 360.7,133.9 360.9,133.2 361.0,132.4 360.8,131.8 360.4,131.1 359.6,129.9 358.2,128.2 356.8,126.4 355.8,124.9 353.4,121.5 353.0,120.4 353.2,119.2 353.9,117.8 355.0,116.5 357.2,114.4 359.8,112.7 363.2,111.1 367.1,109.7 370.5,108.4 372.7,107.1 374.3,105.7 375.8,104.1 377.1,102.4 378.3,100.7 379.4,99.1 381.0,96.2 382.8,93.1 383.5,91.9 384.9,89.8 386.9,86.9"/>
    <polyline points="-552.2,148.0 -529.4,152.2 -524.1,153.3 -519.6,154.3 -515.5,155.5 -511.6,156.8 -507.2,158.9 -503.6,161.1 -500.3,163.6 -498.1,165.9 -497.1,167.5 -497.0,168.6 -497.4,169.9 -498.8,171.4 -503.4,174.6 -510.8,179.8 -515.3,183.3 -516.8,184.9 -517.7,186.6 -517.8,189.5 -517.8,192.0 -518.4,205.3 -518.7,211.3 -518.5,219.5 -518.4,222.7 -518.0,224.3 -517.8,224.9 -517.0,227.9 -516.2,230.7 -512.9,240.0 -508.8,251.3 -506.2,259.0 -505.1,265.0 -504.5,268.3 -503.9,272.7 -503.1,278.9 -502.8,280.9 -501.7,286.8 -501.1,290.0 -500.0,296.3 -499.8,297.7 -498.8,303.7 -497.6,309.5 -497.3,311.4 -496.8,313.5 -496.4,314.6 -495.3,316.8 -491.5,321.4 -480.2,335.0 -468.5,349.2 -463.0,355.8 -456.5,363.6 -452.7,367.4 -445.3,375.3 -441.8,379.4 -439.8,381.5 -440.0,381.6 -439.2,382.4 -439.2,383.9 -439.4,386.5 -439.5,387.2 -440.6,399.0 -440.6,400.3 -440.2,401.4 -439.6,402.4 -438.5,403.4 -436.9,404.5 -431.4,408.7 -417.1,419.4 -406.5,427.3 -400.6,430.6 -397.1,432.3 -367.2,447.3 -356.5,451.1 -351.6,453.0 -347.1,455.1 -342.5,456.3 -335.2,457.9 -326.3,458.9 -316.7,459.4 -301.5,459.6 -275.8,459.7 -262.4,459.9 -258.3,460.2 -253.3,460.6 -248.2,461.5 -243.2,463.1 -239.0,465.0 -236.1,466.8 -223.4,478.9 -220.2,482.2 -218.0,484.6 -206.4,493.9 -201.5,496.3 -196.1,498.1 -189.6,499.2 -179.5,500.3 -171.2,501.2 -161.9,502.3 -151.6,503.8 -142.1,505.4 -122.8,509.2 -121.0,509.5 -111.5,512.0 -108.0,512.9 -105.8,513.5 -101.8,514.5 -97.0,515.8 -91.6,517.3 -88.6,517.9 -82.5,518.8 -56.8,521.5 -48.4,522.4 9.1,529.1 17.2,530.0 32.2,531.7 38.2,532.4 44.4,532.7 51.0,532.8 60.5,532.7 75.5,532.4 90.3,532.4 218.8,531.7 252.3,531.5 258.1,531.4 263.1,531.1 272.5,530.7 283.9,530.2 292.2,529.7 295.6,529.4 299.0,528.8 305.4,527.5 324.2,523.1 331.9,521.8 340.2,520.8 347.8,520.3 354.9,520.2 373.4,520.2"/>
    <polyline points="406.3,520.3 373.4,520.2"/>
    <polyline points="406.3,519.8 373.4,519.7"/>
    <polyline points="514.9,-54.6 513.9,-50.6 512.6,-47.3 512.1,-46.0 511.8,-45.3 511.3,-43.9 510.7,-42.4 509.7,-41.1 508.3,-39.7 506.4,-38.4 503.8,-37.0 500.3,-35.5 496.6,-33.8 493.0,-31.7 490.6,-29.4 489.0,-27.0 487.7,-24.3 486.5,-21.7 485.1,-18.6 481.9,-12.6 478.0,-7.2 468.4,4.4 466.5,6.1 463.7,7.9 459.8,9.6 455.0,10.9 448.3,12.3 435.2,14.7 421.7,17.3 415.4,18.9 410.1,20.9 406.5,23.8 405.3,26.6 405.6,29.2 406.1,32.5 405.9,34.9 405.2,37.5 404.1,40.1 402.3,44.3 399.6,51.9 397.6,58.2 396.1,64.6 394.3,69.8 391.7,75.1 389.1,79.2 387.4,81.4 385.6,83.4 382.1,86.8 376.5,92.3 372.1,96.5 367.6,100.2 360.5,103.3 352.0,105.3 343.0,106.4 333.6,106.7 324.8,106.3 316.3,105.3 308.2,103.9 300.1,101.8 293.5,100.0 283.2,97.7 272.7,95.5 263.7,93.8 240.2,88.9 234.6,87.8 212.0,83.2 182.5,77.2 169.9,74.7 162.3,73.5 156.7,72.6 148.5,71.7 139.3,71.0 130.5,70.3 122.2,69.9 115.8,69.7 109.7,69.7 103.9,69.9 98.7,70.4 92.1,71.2 86.3,71.9 81.9,72.7 77.9,73.6 71.0,75.8 63.6,78.4 48.2,85.4 37.5,89.8 27.7,93.9 22.0,95.8 15.4,97.6 -2.1,101.7 -15.1,104.5 -36.6,109.1 -74.6,116.5 -90.4,119.6 -132.8,128.3 -137.7,129.3 -148.5,131.5 -157.9,133.6 -163.4,135.3 -166.3,137.4 -167.9,139.4 -168.8,141.8 -169.6,144.1 -170.5,145.3 -171.9,146.5 -174.1,147.4 -176.4,148.1 -179.4,148.7 -188.4,150.1 -195.5,151.4 -202.4,153.2 -208.6,155.1 -214.4,157.6 -221.2,161.5 -222.8,162.6 -231.6,168.5 -238.4,172.0 -243.1,174.5 -246.6,176.1 -251.8,178.9 -256.3,181.3 -257.9,182.1 -260.8,183.4 -263.5,184.6 -267.3,185.7 -271.1,186.6 -275.6,187.3 -279.6,187.6 -284.7,187.6 -290.2,187.1 -295.6,186.5 -306.8,184.8 -322.2,182.6 -354.8,177.6 -370.0,174.9"/>
    <polyline points="383.4,116.1 381.9,115.5 380.7,115.1 378.8,114.5 377.0,114.0 373.8,113.6 370.8,113.5 368.0,113.5 364.5,113.7 361.5,114.1 360.2,114.3 359.0,114.6 358.1,114.9 357.3,115.2 356.5,115.6 356.1,115.9 355.7,116.2 355.2,116.7 354.3,117.9 353.6,119.2 353.5,120.4 353.9,121.5"/>
    <polyline points="260.2,782.0 255.7,728.5 252.8,686.0 252.2,678.9 251.5,673.8 249.9,664.4 246.3,643.8 243.6,610.1 242.5,595.9 241.9,588.5 241.7,575.8 242.2,568.9 242.7,563.7 243.0,558.8 242.4,552.4 241.8,545.0 241.3,542.8 240.3,541.0 238.8,539.0 237.0,537.0 234.8,534.6 233.6,532.5 233.2,530.5 232.9,528.0 232.0,515.9 232.8,484.7 232.8,480.3 232.6,475.3 231.8,454.0 231.2,445.4"/>
    <polyline points="66.4,532.4 75.5,532.0"/>
    <polyline points="66.4,532.4 75.5,532.4"/>
    <polyline points="457.0,394.3 460.1,394.3 463.9,394.5 467.6,394.7 470.4,395.0 472.4,395.3 474.3,395.7 476.3,396.2"/>
    <polyline points="476.3,396.2 478.2,397.0 479.8,398.0 480.9,399.0 481.8,400.1 482.6,401.6"/>
    <polyline points="231.2,445.4 230.6,438.5"/>
    <polyline points="358.6,267.8 363.1,265.1 367.0,262.6"/>
    <polyline points="366.1,262.4 371.5,258.9 407.5,236.8 412.0,234.2 415.7,232.3 419.6,230.4 423.4,228.2 425.4,226.6 426.3,224.8 426.3,222.5 425.1,220.2 423.3,218.1 422.0,216.4 421.8,214.8 422.7,213.2 424.5,211.6 426.7,210.1 430.0,208.2 439.2,202.7 449.0,196.9 455.1,193.4 458.4,191.2 459.7,190.0 461.1,188.3 461.6,186.7 461.4,185.3 460.9,183.5 460.1,182.2 458.7,181.1 457.3,180.2 450.6,175.8 444.8,172.2 441.4,170.1 439.7,168.8 438.6,167.6 437.9,166.3 437.8,164.8 438.2,163.2 438.7,162.1 439.0,160.9 439.0,158.6 439.1,156.2 439.2,150.4 439.4,149.8 439.8,149.3 440.6,148.7 459.2,138.4 468.9,132.7 503.7,111.8 515.2,103.8 519.8,99.9 559.3,62.3 571.0,51.0 595.4,23.4 600.3,17.4 605.6,10.1 606.6,8.5 608.4,3.1 611.8,-7.4 612.5,-8.7 613.6,-10.0 615.9,-12.5 617.9,-15.0"/>
    <polyline points="353.9,121.5 355.3,123.6 355.8,124.9"/>
    <polyline points="356.8,126.4 356.3,124.4 354.3,121.5"/>
    <polyline points="356.3,124.4 357.5,125.7"/>
    <polyline points="207.5,274.0 201.9,273.5 197.3,273.2 192.1,273.0 186.4,272.9 166.3,273.0 163.0,273.0 160.2,272.9 157.6,272.8 154.6,272.5 151.2,272.0 148.0,271.3 145.9,270.6 141.1,268.9 138.2,267.8 135.0,266.7 132.7,266.2 129.9,265.8 126.6,265.4 123.1,265.2 118.9,265.1 109.6,264.9 105.6,264.7 100.8,264.3 93.5,263.4 87.3,262.4 73.5,260.0 65.9,258.6 53.0,256.2 45.9,254.9 37.5,253.2 21.5,250.1 20.0,249.9 18.5,249.6 17.9,249.5 15.4,249.0"/>
    <polyline points="15.3,249.0 15.4,249.1 17.8,249.5 18.3,249.6 19.9,250.0 37.0,253.3 61.6,258.1 73.2,260.2 78.7,261.2 86.6,262.6 93.4,263.6 96.5,264.1 100.6,264.6 102.8,264.8 105.4,265.0 108.2,265.1 111.2,265.2 116.8,265.3 123.3,265.5 126.5,265.8 129.6,266.1 131.9,266.5 134.0,266.9 137.6,268.1 140.4,269.1 145.5,271.0 147.9,271.7 151.0,272.3 154.4,272.8 157.5,273.1 160.2,273.2 163.0,273.3 166.0,273.2 185.7,273.2 192.1,273.2 197.0,273.4 201.6,273.8 207.3,274.3"/>
    <polyline points="25.5,335.3 26.8,337.0 27.4,338.6 27.3,340.1 26.9,341.7 26.2,343.2 25.3,344.6 5.8,356.5 -12.1,368.3 -22.8,375.2 -24.5,376.9 -25.2,378.8 -24.9,380.4 -23.5,382.4 -21.1,383.6 -13.9,385.7 7.6,390.1 41.1,396.9 47.4,398.0 53.4,399.2 57.9,400.4 63.0,402.0 65.9,403.7 67.4,405.6 68.1,407.7 71.5,421.8 72.4,425.6 72.6,426.8 72.5,427.7 71.9,428.6 69.8,430.4 68.2,431.6 63.4,434.4 61.0,435.6 59.4,437.3 58.5,439.2 58.3,443.0 58.8,444.6 59.8,445.8 61.9,447.6 67.8,450.8 78.1,454.8 90.4,458.3 93.4,459.4 95.2,460.3 95.7,461.2 95.6,462.7 94.8,468.9 94.3,472.9 94.1,486.8 93.0,493.7 92.4,495.9 91.7,498.7 90.3,508.1 90.0,511.7 91.6,532.2 91.9,535.5 92.0,539.2 91.8,542.6 91.2,543.7 90.3,544.8 88.4,546.0 86.1,547.1 77.7,549.2 70.3,550.7 66.0,551.9 62.7,553.3 60.6,554.7 59.6,555.8 58.7,557.5 58.2,560.0 59.2,565.9 60.7,592.6 61.0,612.9 61.6,641.0 61.7,666.2 61.0,668.8 53.6,677.4 41.7,691.0 25.4,708.7 9.7,725.6 2.7,733.8 -10.0,746.5 -21.3,757.3 -22.7,758.9 -24.0,760.6 -28.5,768.0 -36.1,784.9 -43.0,794.5 -47.9,802.6 -51.8,808.9 -56.8,815.5 -64.1,824.0 -76.9,838.2 -88.6,849.4 -95.8,855.1 -100.7,858.7 -113.3,868.5 -135.1,883.3 -159.2,899.7 -220.2,939.6"/>
    <polyline points="373.4,519.7 354.9,519.7 347.7,519.9 340.0,520.3 331.5,521.3 323.4,522.6 304.6,527.1 298.4,528.5 291.8,529.3 283.8,529.8 272.3,530.3 262.9,530.7 257.9,531.0 252.3,531.1 239.5,531.2 235.3,531.2"/>
    <polyline points="515.3,-54.6 515.0,-52.5 514.7,-50.3 514.3,-48.5 513.9,-47.4 513.4,-46.0 512.5,-43.6 512.1,-42.7 511.2,-41.5 510.1,-40.2 508.7,-39.1 506.0,-37.5 500.6,-34.9 497.0,-33.3 493.9,-31.4 491.5,-29.2 489.5,-26.2 487.5,-21.6 486.2,-18.5 482.5,-11.7 476.1,-3.3 469.5,4.7 466.1,7.5 462.3,9.4 458.7,10.6 446.7,13.0 435.9,15.1 426.1,17.0 419.3,18.5 415.7,19.4 411.9,21.0 408.1,23.7 406.7,26.3 407.3,32.6 406.1,37.9 405.1,40.1 403.0,44.5 399.4,54.9 397.2,64.6 394.8,71.1 391.6,77.1 388.2,81.8 385.2,85.1 383.4,86.9 378.8,91.4 372.9,96.9 368.6,100.4 361.5,103.5 352.8,105.7 343.4,106.8 333.7,107.0 324.7,106.8 315.8,105.6 306.9,104.1 299.2,102.1 292.3,100.3 282.3,97.9 262.5,94.0 239.6,89.2 237.8,88.9 227.2,86.7 181.9,77.4 168.6,74.9 161.7,73.9 156.6,73.1 148.4,72.1 130.3,70.6 121.6,70.2 110.0,70.1 98.7,70.8 92.4,71.6 87.7,72.1 80.3,73.5 71.9,76.0 64.3,78.7 47.7,86.1 38.5,90.0 29.6,93.7 22.4,96.2 14.8,98.1 -4.4,102.5 -14.6,104.7 -42.6,110.7 -74.1,116.9 -79.3,117.9 -103.2,122.6 -132.0,128.6 -142.4,130.8 -157.1,133.9 -162.2,135.6 -165.2,137.5 -166.7,139.5 -168.6,144.2 -170.5,146.2 -172.1,147.3 -176.1,148.4 -188.8,150.5 -195.8,151.9 -201.9,153.5 -207.9,155.2 -214.4,158.1 -220.3,161.8 -221.7,162.6 -227.8,166.6 -232.6,169.6 -247.9,177.4 -255.7,181.4 -261.4,184.1 -265.2,185.5 -271.0,186.9 -275.9,187.7 -281.0,188.0 -286.2,187.9 -292.0,187.2 -300.4,186.2 -307.5,185.2 -314.6,184.2 -356.4,177.9 -370.7,175.3"/>
  </g>

  <!-- 지하철 역 -->
  <g>
    <circle cx="310.9" cy="441.9" r="3" fill="#dc2626" stroke="#fff" stroke-width="1"/>
    <circle cx="102.9" cy="347.6" r="3" fill="#dc2626" stroke="#fff" stroke-width="1"/>
    <circle cx="297.2" cy="337.6" r="3" fill="#dc2626" stroke="#fff" stroke-width="1"/>
    <circle cx="290.5" cy="316.9" r="3" fill="#dc2626" stroke="#fff" stroke-width="1"/>
    <circle cx="90.0" cy="250.7" r="3" fill="#dc2626" stroke="#fff" stroke-width="1"/>
    <circle cx="439.5" cy="156.5" r="3" fill="#dc2626" stroke="#fff" stroke-width="1"/>
    <circle cx="324.6" cy="287.1" r="3" fill="#dc2626" stroke="#fff" stroke-width="1"/>
    <circle cx="226.4" cy="407.0" r="3" fill="#dc2626" stroke="#fff" stroke-width="1"/>
    <circle cx="362.4" cy="265.1" r="3" fill="#dc2626" stroke="#fff" stroke-width="1"/>
    <circle cx="152.7" cy="187.1" r="3" fill="#dc2626" stroke="#fff" stroke-width="1"/>
    <circle cx="426.8" cy="210.4" r="3" fill="#dc2626" stroke="#fff" stroke-width="1"/>
    <circle cx="416.1" cy="232.4" r="3" fill="#dc2626" stroke="#fff" stroke-width="1"/>
    <circle cx="592.4" cy="349.9" r="3" fill="#dc2626" stroke="#fff" stroke-width="1"/>
    <circle cx="155.6" cy="75.4" r="3" fill="#dc2626" stroke="#fff" stroke-width="1"/>
    <circle cx="166.5" cy="97.2" r="3" fill="#dc2626" stroke="#fff" stroke-width="1"/>
    <circle cx="208.9" cy="121.2" r="3" fill="#dc2626" stroke="#fff" stroke-width="1"/>
    <circle cx="221.3" cy="139.6" r="3" fill="#dc2626" stroke="#fff" stroke-width="1"/>
    <circle cx="219.8" cy="159.2" r="3" fill="#dc2626" stroke="#fff" stroke-width="1"/>
    <circle cx="76.5" cy="193.6" r="3" fill="#dc2626" stroke="#fff" stroke-width="1"/>
    <circle cx="71.8" cy="425.3" r="3" fill="#dc2626" stroke="#fff" stroke-width="1"/>
    <circle cx="94.1" cy="468.8" r="3" fill="#dc2626" stroke="#fff" stroke-width="1"/>
    <circle cx="92.1" cy="486.8" r="3" fill="#dc2626" stroke="#fff" stroke-width="1"/>
    <circle cx="90.1" cy="511.6" r="3" fill="#dc2626" stroke="#fff" stroke-width="1"/>
    <circle cx="281.2" cy="156.1" r="3" fill="#dc2626" stroke="#fff" stroke-width="1"/>
    <circle cx="275.6" cy="186.7" r="3" fill="#dc2626" stroke="#fff" stroke-width="1"/>
    <circle cx="213.2" cy="245.5" r="3" fill="#dc2626" stroke="#fff" stroke-width="1"/>
    <circle cx="220.9" cy="351.2" r="3" fill="#dc2626" stroke="#fff" stroke-width="1"/>
    <circle cx="222.3" cy="438.0" r="3" fill="#dc2626" stroke="#fff" stroke-width="1"/>
    <circle cx="223.6" cy="377.1" r="3" fill="#dc2626" stroke="#fff" stroke-width="1"/>
    <circle cx="219.7" cy="275.3" r="3" fill="#dc2626" stroke="#fff" stroke-width="1"/>
    <circle cx="230.2" cy="229.7" r="3" fill="#dc2626" stroke="#fff" stroke-width="1"/>
    <circle cx="217.3" cy="300.2" r="3" fill="#dc2626" stroke="#fff" stroke-width="1"/>
    <circle cx="219.0" cy="320.8" r="3" fill="#dc2626" stroke="#fff" stroke-width="1"/>
    <circle cx="387.1" cy="86.9" r="3" fill="#dc2626" stroke="#fff" stroke-width="1"/>
    <circle cx="218.7" cy="531.6" r="3" fill="#dc2626" stroke="#fff" stroke-width="1"/>
    <circle cx="648.6" cy="316.8" r="3" fill="#dc2626" stroke="#fff" stroke-width="1"/>
    <circle cx="608.6" cy="309.6" r="3" fill="#dc2626" stroke="#fff" stroke-width="1"/>
    <circle cx="481.6" cy="286.8" r="3" fill="#dc2626" stroke="#fff" stroke-width="1"/>
    <circle cx="302.0" cy="252.4" r="3" fill="#dc2626" stroke="#fff" stroke-width="1"/>
    <circle cx="73.3" cy="260.1" r="3" fill="#dc2626" stroke="#fff" stroke-width="1"/>
    <circle cx="140.8" cy="269.0" r="3" fill="#dc2626" stroke="#fff" stroke-width="1"/>
    <circle cx="85.3" cy="159.8" r="3" fill="#dc2626" stroke="#fff" stroke-width="1"/>
    <circle cx="96.0" cy="175.0" r="3" fill="#dc2626" stroke="#fff" stroke-width="1"/>
    <circle cx="355.1" cy="197.3" r="3" fill="#dc2626" stroke="#fff" stroke-width="1"/>
    <circle cx="480.0" cy="229.1" r="3" fill="#dc2626" stroke="#fff" stroke-width="1"/>
    <circle cx="510.1" cy="258.0" r="3" fill="#dc2626" stroke="#fff" stroke-width="1"/>
    <circle cx="440.1" cy="312.4" r="3" fill="#dc2626" stroke="#fff" stroke-width="1"/>
    <circle cx="437.4" cy="345.4" r="3" fill="#dc2626" stroke="#fff" stroke-width="1"/>
    <circle cx="449.4" cy="366.2" r="3" fill="#dc2626" stroke="#fff" stroke-width="1"/>
    <circle cx="480.5" cy="393.6" r="3" fill="#dc2626" stroke="#fff" stroke-width="1"/>
    <circle cx="485.1" cy="430.7" r="3" fill="#dc2626" stroke="#fff" stroke-width="1"/>
    <circle cx="478.2" cy="453.1" r="3" fill="#dc2626" stroke="#fff" stroke-width="1"/>
    <circle cx="405.3" cy="485.7" r="3" fill="#dc2626" stroke="#fff" stroke-width="1"/>
    <circle cx="366.4" cy="520.0" r="3" fill="#dc2626" stroke="#fff" stroke-width="1"/>
    <circle cx="200.5" cy="509.6" r="3" fill="#dc2626" stroke="#fff" stroke-width="1"/>
    <circle cx="198.4" cy="472.9" r="3" fill="#dc2626" stroke="#fff" stroke-width="1"/>
    <circle cx="728.4" cy="241.2" r="3" fill="#dc2626" stroke="#fff" stroke-width="1"/>
    <circle cx="651.3" cy="254.2" r="3" fill="#dc2626" stroke="#fff" stroke-width="1"/>
    <circle cx="615.6" cy="283.3" r="3" fill="#dc2626" stroke="#fff" stroke-width="1"/>
    <circle cx="528.9" cy="384.8" r="3" fill="#dc2626" stroke="#fff" stroke-width="1"/>
    <circle cx="394.6" cy="393.8" r="3" fill="#dc2626" stroke="#fff" stroke-width="1"/>
    <circle cx="294.6" cy="376.4" r="3" fill="#dc2626" stroke="#fff" stroke-width="1"/>
    <circle cx="107.2" cy="374.0" r="3" fill="#dc2626" stroke="#fff" stroke-width="1"/>
    <circle cx="60.7" cy="366.6" r="3" fill="#dc2626" stroke="#fff" stroke-width="1"/>
    <circle cx="90.1" cy="532.2" r="3" fill="#dc2626" stroke="#fff" stroke-width="1"/>
    <circle cx="272.4" cy="530.5" r="3" fill="#dc2626" stroke="#fff" stroke-width="1"/>
    <circle cx="391.3" cy="304.5" r="3" fill="#dc2626" stroke="#fff" stroke-width="1"/>
    <circle cx="556.3" cy="337.2" r="3" fill="#dc2626" stroke="#fff" stroke-width="1"/>
    <circle cx="678.8" cy="362.9" r="3" fill="#dc2626" stroke="#fff" stroke-width="1"/>
    <circle cx="704.4" cy="202.0" r="3" fill="#dc2626" stroke="#fff" stroke-width="1"/>
    <circle cx="548.7" cy="160.6" r="3" fill="#dc2626" stroke="#fff" stroke-width="1"/>
    <circle cx="231.7" cy="445.3" r="3" fill="#dc2626" stroke="#fff" stroke-width="1"/>
    <circle cx="627.3" cy="425.3" r="3" fill="#dc2626" stroke="#fff" stroke-width="1"/>
    <circle cx="692.7" cy="404.0" r="3" fill="#dc2626" stroke="#fff" stroke-width="1"/>
    <circle cx="640.1" cy="183.6" r="3" fill="#dc2626" stroke="#fff" stroke-width="1"/>
    <circle cx="146.3" cy="159.0" r="3" fill="#dc2626" stroke="#fff" stroke-width="1"/>
    <circle cx="451.0" cy="175.7" r="3" fill="#dc2626" stroke="#fff" stroke-width="1"/>
    <circle cx="469.3" cy="132.8" r="3" fill="#dc2626" stroke="#fff" stroke-width="1"/>
    <circle cx="520.3" cy="99.9" r="3" fill="#dc2626" stroke="#fff" stroke-width="1"/>
    <circle cx="559.7" cy="62.4" r="3" fill="#dc2626" stroke="#fff" stroke-width="1"/>
    <circle cx="92.2" cy="71.4" r="3" fill="#dc2626" stroke="#fff" stroke-width="1"/>
    <circle cx="240.0" cy="89.1" r="3" fill="#dc2626" stroke="#fff" stroke-width="1"/>
    <circle cx="299.5" cy="102.0" r="3" fill="#dc2626" stroke="#fff" stroke-width="1"/>
    <circle cx="382.7" cy="86.8" r="3" fill="#dc2626" stroke="#fff" stroke-width="1"/>
    <circle cx="162.2" cy="73.7" r="3" fill="#dc2626" stroke="#fff" stroke-width="1"/>
    <circle cx="560.5" cy="220.1" r="3" fill="#dc2626" stroke="#fff" stroke-width="1"/>
    <circle cx="417.8" cy="224.1" r="3" fill="#dc2626" stroke="#fff" stroke-width="1"/>
    <circle cx="329.8" cy="207.3" r="3" fill="#dc2626" stroke="#fff" stroke-width="1"/>
    <circle cx="159.0" cy="223.0" r="3" fill="#dc2626" stroke="#fff" stroke-width="1"/>
    <circle cx="132.4" cy="271.7" r="3" fill="#dc2626" stroke="#fff" stroke-width="1"/>
    <circle cx="104.9" cy="289.7" r="3" fill="#dc2626" stroke="#fff" stroke-width="1"/>
  </g>
</svg>