<?xml version="1.0" encoding="UTF-8"?>
<svg width="800" height="600" viewBox="0 0 800 600" 
     xmlns="http://www.w3.org/2000/svg">
  <title>Chennai Subway Map</title>
  <rect width="100%" height="100%" fill="#f8f9fa"/>

  <!-- 지하철 선로 -->
  <g id="subway-lines" stroke="#2563eb" stroke-width="3" fill="none">
    <polyline points="344.3,328.3 345.0,327.6 346.1,326.6 347.0,325.8 347.4,325.4 347.7,325.1 347.9,324.9 348.4,324.5 348.3,324.4 349.0,323.7 349.6,323.2 350.0,322.8 350.1,322.6 350.3,322.5 350.4,322.3 350.5,322.2 350.6,322.1 350.7,321.9 350.8,321.7 350.9,321.5 350.9,321.3 351.0,321.1 350.9,320.7 350.8,320.2 350.8,319.7 350.8,319.4 350.8,318.9 350.9,318.7 350.9,318.4 351.0,318.0 351.2,317.7 351.6,317.2 352.0,316.8 352.2,316.5 352.5,316.1 352.9,315.6 353.1,315.4 353.4,314.9 353.8,314.5 354.2,314.0 354.7,313.5 355.4,312.7 356.0,312.2 356.4,311.7 357.5,310.3 357.7,310.0 358.4,309.2 358.7,308.9 358.9,308.6 359.3,308.1 359.6,307.7 359.7,307.5 359.8,307.3 359.9,307.1 360.0,307.0 360.0,306.8 360.1,306.6 360.1,305.7 360.1,305.1 360.2,304.6 360.2,304.1 360.2,303.8 360.3,303.6 360.3,303.3 360.4,303.1 360.5,302.8 360.7,302.4 360.8,302.1 360.9,301.8 361.4,300.8 361.6,300.2 361.7,299.9 361.8,299.4 361.9,299.2 361.9,299.0 362.1,298.7 362.3,298.4 362.5,298.1 362.7,297.9 363.0,297.6 363.3,297.3 363.7,297.1 364.0,296.9 364.3,296.7 364.8,296.4 365.9,295.8 366.2,295.6 366.3,295.5 366.6,295.3 366.8,295.1 367.4,294.1 367.9,293.4 369.1,291.7 369.5,291.0 369.7,290.8 369.7,290.6 369.8,290.4 369.8,290.2 369.9,290.0 369.8,289.7 369.8,289.2 369.7,288.7 369.7,288.5 369.8,288.4 369.8,288.3 369.9,288.2 370.0,288.1 370.1,287.9 370.3,287.8 370.4,287.7 370.6,287.5 370.9,287.4 371.1,287.3 371.5,287.2 372.8,286.9 374.3,286.5" opacity="0.8"/>
    <polyline points="525.6,229.1 530.6,228.7 532.1,228.6 537.8,228.6 541.8,228.5 547.6,228.5 548.2,228.4 549.7,228.1 551.4,227.9 553.9,227.5 557.2,227.2 559.7,227.0" opacity="0.8"/>
    <polyline points="326.7,235.4 326.2,237.1 326.0,237.5 325.9,237.9 325.9,238.0 325.7,238.5 325.5,238.7 325.3,238.9 324.9,239.1 324.4,239.3 324.0,239.4 323.7,239.5 323.4,239.5" opacity="0.8"/>
    <polyline points="347.8,325.2 348.2,325.0 348.5,324.8 348.7,324.7 348.9,324.6 349.2,324.5 349.5,324.5 349.8,324.3 350.3,324.2 350.8,324.0 351.2,323.9 351.6,323.8 352.1,323.6 352.4,323.5 352.8,323.4 353.5,323.2 353.9,323.1 354.5,323.0 355.1,322.8 355.7,322.7 356.3,322.6 356.6,322.6 356.9,322.5 357.3,322.4 357.7,322.4 358.2,322.3 358.8,322.3 359.2,322.2 359.8,322.2 360.2,322.1 360.9,322.1 362.2,322.0 363.4,321.9 364.0,321.9" opacity="0.8"/>
    <polyline points="483.1,271.8 483.7,271.3 486.1,270.1 486.4,269.8 486.6,269.5 486.8,268.7 487.5,267.3 487.8,266.6 488.6,265.8 491.5,264.6 499.8,261.9 505.3,260.1 506.3,259.7 510.1,258.0 513.0,256.9 514.0,256.5 521.5,253.9 528.5,251.3 533.7,249.5 539.0,247.6 541.1,247.0 543.9,246.8 545.0,246.6 546.5,246.1 548.6,245.0 551.6,244.2 554.6,242.7 557.6,241.2 558.0,240.6 558.1,240.0 557.1,238.8 556.1,237.9 548.9,233.3 547.7,232.1 547.5,231.2 548.0,230.1 548.8,229.1 550.0,228.4 553.9,227.5 557.3,227.3 559.8,227.1" opacity="0.8"/>
    <polyline points="562.5,226.9 563.5,226.9 567.2,226.9 568.4,226.9 577.4,226.6 578.8,226.5 581.9,226.2 583.3,225.7 584.7,225.1 586.4,224.0 588.6,221.9 589.3,220.5 589.4,220.2 589.8,219.3 590.4,218.4 590.5,218.3 590.5,218.2 591.3,216.2 591.8,214.8 592.3,211.4 592.4,210.7 592.7,209.8 593.6,207.2 594.4,203.9 594.4,203.8 594.0,203.2 592.1,202.5 582.6,201.3 579.4,200.7 577.4,200.1 576.1,199.2 575.8,198.6 575.6,198.2 575.6,197.3 576.1,196.2 576.2,195.9 576.7,195.2 577.0,194.6 577.2,194.4 577.8,193.6 578.4,192.7 578.5,192.6 578.6,192.4 578.7,192.3 579.0,192.1 579.3,191.8 579.5,191.6 579.7,191.4 580.0,191.2 583.3,188.3 588.7,183.6 589.4,183.1 595.2,177.6 600.8,172.4 604.4,169.0 606.0,167.6 607.0,166.5" opacity="0.8"/>
    <polyline points="237.1,356.6 237.3,356.6 239.1,356.3 239.7,356.2 240.3,356.1 240.8,356.0 241.5,355.9 242.6,355.7 243.5,355.6 244.1,355.5 245.2,355.3 246.2,355.1 246.8,355.0 250.1,354.1 251.2,353.8 252.1,353.5 253.8,353.1 256.2,352.4 257.0,352.2 257.4,352.1 257.9,352.0 258.6,351.8 259.9,351.6 261.8,351.2 262.0,351.1 262.1,351.1 262.4,351.0 262.9,350.9 266.0,350.0 266.3,349.9 266.9,349.7 267.9,349.4 269.3,349.0 270.5,348.6 270.9,348.5 271.5,348.3 272.2,348.1 272.9,347.9 273.1,347.8 274.5,347.4 275.5,347.1 276.5,346.7 276.8,346.7 277.0,346.5 277.4,346.4 278.5,345.9 278.8,345.8 279.0,345.7 279.3,345.5 279.7,345.4 280.0,345.3 280.8,345.0 282.0,344.5 283.1,344.2" opacity="0.8"/>
    <polyline points="326.9,234.3 326.9,233.8 326.9,233.6 327.0,233.3 327.1,233.1 327.2,233.0 327.4,232.9 327.5,232.8 327.7,232.7 327.9,232.6 328.2,232.5 328.4,232.4 328.6,232.3 328.9,232.2 329.2,232.2 329.4,232.1 329.7,232.1 330.0,232.1 330.3,232.0 330.8,232.0 331.6,232.0 332.6,232.0 333.4,232.0 334.2,232.0 334.5,231.9 334.8,231.9 335.1,231.8 335.3,231.8 335.6,231.7 335.9,231.6 336.2,231.5 336.3,231.4 336.5,231.3 336.7,231.2 336.9,231.0 337.1,230.8 337.3,230.5 337.3,230.4 337.3,230.2 337.2,229.9 337.2,229.7" opacity="0.8"/>
    <polyline points="380.9,320.0 382.6,319.9 383.3,319.8 384.3,319.7 385.5,319.6 385.9,319.5 386.3,319.5 386.8,319.4 387.3,319.3 388.2,319.2 388.9,319.0 389.6,318.8 390.9,318.4 391.5,318.2 392.0,318.1 392.7,317.9 393.2,317.8 394.0,317.7 396.2,317.3 396.9,317.2 397.8,317.1 399.7,316.8 400.8,316.7 402.1,316.5 402.8,316.4 403.2,316.3 403.7,316.2 404.0,316.1 404.3,316.0 405.4,315.6 406.8,315.1 407.6,314.8 408.5,314.5 409.3,314.2 412.0,313.2 412.7,313.0 414.1,312.5" opacity="0.8"/>
    <polyline points="326.7,237.9 326.7,236.6 326.8,236.0 326.8,235.7 326.8,235.5 326.8,235.3 326.8,234.9 326.9,234.5 326.9,234.3" opacity="0.8"/>
    <polyline points="308.8,337.3 309.4,337.1 309.8,337.0 310.4,336.8 310.9,336.6 311.3,336.4 312.4,336.0 313.7,335.5 314.0,335.4 314.4,335.3 314.9,335.1 315.7,334.9 316.5,334.8 316.6,334.7 317.1,334.6 317.4,334.5 317.8,334.4 318.9,334.0 320.1,333.6 322.9,332.6 324.1,332.2 325.8,331.6 327.3,331.1 329.2,330.4 330.6,329.9 331.1,329.8 331.5,329.7 332.0,329.6 332.4,329.5 332.9,329.4 333.6,329.4 334.1,329.4 335.3,329.5 336.8,329.5" opacity="0.8"/>
    <polyline points="364.0,321.9 365.0,321.9 367.1,321.7 367.7,321.7 368.4,321.6 369.1,321.6 369.8,321.5 371.2,321.3 372.2,321.1 373.6,320.9 374.6,320.7 375.5,320.6 376.1,320.5 376.7,320.5 377.1,320.4 377.9,320.3 379.8,320.1 380.9,320.0" opacity="0.8"/>
    <polyline points="374.3,286.5 375.5,286.2 376.2,286.0 376.5,285.9 376.7,285.8 377.0,285.6 377.3,285.5 377.5,285.3 377.8,285.1 377.9,284.9 377.9,284.7 377.9,284.5 377.9,283.9 377.9,283.7 377.8,283.4 377.8,283.1 377.7,282.2 377.6,281.6 377.6,281.0 377.6,280.6 377.5,279.1 377.5,278.1 377.5,276.8 377.5,275.3 377.5,274.8 377.4,273.8 377.3,272.8 377.3,271.9 376.8,269.4 376.6,268.6 376.6,268.2 376.7,267.5 376.8,266.8 376.9,266.3 376.9,266.0 376.9,265.7 376.8,265.5 376.7,265.2 376.6,264.9 376.4,264.6 376.1,264.1 375.8,263.7 375.4,262.9 375.2,262.5 375.1,262.3 375.0,262.1 375.0,261.9 375.0,261.5 375.2,257.8 375.2,256.8 375.2,256.5 375.4,255.3 375.5,253.7 375.5,253.3 375.6,253.0 375.7,252.4 375.7,252.1" opacity="0.8"/>
    <polyline points="375.7,252.1 375.7,251.7 375.5,250.5 375.5,250.3 375.4,250.1 375.3,249.8 375.2,249.5 374.8,249.2 374.4,248.8 374.0,248.6 373.5,248.3 372.0,247.5 370.4,246.6 369.7,246.3 369.3,246.2 365.8,245.2 364.3,244.8 363.7,244.7 363.1,244.6 362.6,244.5 362.2,244.5 361.5,244.5 359.8,244.5 358.5,244.5 357.7,244.4 356.4,244.4 355.3,244.3 353.1,244.2" opacity="0.8"/>
    <polyline points="353.1,244.2 351.3,244.1 348.4,243.9 347.6,243.8 347.2,243.8 346.8,243.7 345.9,243.6 344.7,243.4 344.2,243.3 343.6,243.2 342.9,243.1 342.2,243.1 341.8,243.1 341.2,243.1 336.1,243.1 331.1,243.2 330.5,243.2 330.0,243.1 329.4,243.1 328.9,243.0 328.3,242.8 327.9,242.7 327.5,242.5 327.3,242.4 327.1,242.2 326.9,242.1 326.8,241.9 326.7,241.7 326.5,241.5 326.5,241.4 326.5,241.2 326.5,240.1 326.5,239.8 326.6,239.7 326.6,238.8 326.7,237.9" opacity="0.8"/>
    <polyline points="488.9,231.0 492.2,231.0" opacity="0.8"/>
    <polyline points="466.0,232.5 467.7,232.4 471.2,232.2 476.5,232.1 487.2,231.1 488.0,231.1 488.9,231.0" opacity="0.8"/>
    <polyline points="437.5,235.2 440.2,234.9 445.1,234.4 448.9,234.1 459.8,233.0 463.7,232.7 466.0,232.5" opacity="0.8"/>
    <polyline points="415.0,232.5 414.9,232.9 414.8,233.7 414.9,234.1 415.3,234.4 416.2,234.8 417.7,235.1 431.7,235.7 433.8,235.7 435.6,235.4 437.5,235.2" opacity="0.8"/>
    <polyline points="401.1,223.5 402.1,223.6 403.9,223.7 406.2,224.1 409.6,224.7 413.4,226.2 415.1,227.7 415.5,228.2 415.6,228.7 415.0,232.5" opacity="0.8"/>
    <polyline points="380.2,223.3 394.8,223.5 401.1,223.5" opacity="0.8"/>
    <polyline points="345.2,222.7 346.3,222.8 367.6,223.1 380.2,223.3" opacity="0.8"/>
    <polyline points="337.2,229.7 336.8,228.9 336.6,227.9 336.7,226.8 336.7,224.0 336.9,223.6 337.5,223.3 338.0,223.0 338.5,222.9 339.2,222.8 340.4,222.6 343.6,222.7 345.2,222.7" opacity="0.8"/>
    <polyline points="283.1,344.2 284.7,343.6 286.2,343.1 287.6,342.6 288.2,342.4 289.2,342.1 289.8,341.9 290.7,341.6 291.5,341.4 292.5,341.1 293.5,340.9 295.2,340.5 297.9,339.8 299.1,339.5 302.5,338.7 303.2,338.5 304.3,338.3 305.0,338.1 306.1,337.9 307.9,337.5 308.8,337.3" opacity="0.8"/>
    <polyline points="326.4,239.8 326.5,239.2 326.4,239.0 326.4,238.9 326.4,238.7 326.4,238.3 326.5,237.0 326.5,236.6 326.5,236.3 326.6,236.1 326.7,235.8 326.7,235.6 326.7,235.4 326.7,235.3 326.7,235.1 326.7,234.9 326.7,234.6 326.8,233.8 326.8,233.3 326.8,232.1" opacity="0.8"/>
    <polyline points="305.6,242.3 310.4,241.4 316.4,240.2 318.7,239.8 320.1,239.5 322.2,239.2 325.3,238.6" opacity="0.8"/>
    <polyline points="315.4,241.1 315.9,240.9 316.4,240.8 316.9,240.6 317.4,240.5 318.2,240.2 318.5,240.0 319.1,239.8 319.6,239.7 320.1,239.5" opacity="0.8"/>
    <polyline points="319.9,240.3 319.4,240.4 319.1,240.5 318.6,240.7 318.3,240.8 317.8,241.0 317.4,241.2 316.8,241.6 316.6,241.8 316.4,241.9 316.3,242.0 316.1,242.2 316.0,242.4 315.9,242.6 315.9,242.7 315.8,242.8 315.8,243.0 315.8,243.2 315.8,243.3 315.9,246.8" opacity="0.8"/>
    <polyline points="317.1,240.8 316.5,240.9 315.6,241.1 314.7,241.2 313.9,241.4 313.5,241.5 313.1,241.7 312.7,241.9 312.2,242.2 312.1,242.4 312.0,242.8 312.0,243.4 312.0,243.4 312.1,246.6" opacity="0.8"/>
    <polyline points="326.6,239.7 326.5,239.2" opacity="0.8"/>
    <polyline points="283.1,344.2 282.5,344.4 281.1,344.9 280.5,345.1 280.1,345.3 279.5,345.5 279.2,345.7 279.0,345.7 278.3,346.1 277.8,346.3 277.5,346.4 277.1,346.6 276.6,346.8 275.9,347.0 275.0,347.3 273.4,347.8 273.0,347.9 272.5,348.1 271.6,348.3 270.9,348.5 270.1,348.8 268.9,349.2 268.1,349.4 266.9,349.8 266.2,350.0 265.9,350.0 265.4,350.2 265.3,350.2 264.4,350.5 263.1,350.9 262.8,351.0 262.4,351.1 262.2,351.1 261.7,351.2 260.8,351.4 260.2,351.6 259.1,351.8 257.4,352.1 257.2,352.2 256.5,352.4 255.2,352.7 254.2,353.0 253.8,353.1 253.4,353.2 252.0,353.6 251.3,353.8 250.0,354.2 248.7,354.5 247.2,354.9 247.0,355.0 246.6,355.1 246.1,355.2 245.9,355.2 245.1,355.4 245.0,355.4 244.4,355.5 244.1,355.6 243.0,355.8 241.9,355.9 241.3,356.0 241.1,356.1 240.5,356.2 239.7,356.3 239.2,356.4 238.9,356.4 238.2,356.5 237.2,356.7" opacity="0.8"/>
    <polyline points="239.7,356.3 240.3,356.2 240.4,356.1 240.8,356.0" opacity="0.8"/>
    <polyline points="239.7,356.2 240.4,356.1 241.1,356.1" opacity="0.8"/>
    <polyline points="263.3,351.0 263.7,350.8 264.6,350.5 265.0,350.3 265.3,350.2" opacity="0.8"/>
    <polyline points="263.3,350.9 264.0,350.7 264.4,350.5" opacity="0.8"/>
    <polyline points="265.9,350.0 266.4,349.9 266.9,349.7" opacity="0.8"/>
    <polyline points="308.8,337.3 307.9,337.5 306.5,337.9 305.4,338.1 304.1,338.4 303.2,338.6 302.1,338.8 300.8,339.2 299.6,339.5 298.4,339.7 296.4,340.2 293.6,340.9 292.6,341.2 291.7,341.4 291.2,341.6 289.9,341.9 289.6,342.0 288.6,342.4 287.5,342.7 286.8,343.0 286.1,343.2 285.2,343.5 284.3,343.8 283.1,344.2" opacity="0.8"/>
    <polyline points="414.3,312.6 413.9,312.7 412.8,313.1 412.2,313.3 409.8,314.1 408.8,314.5 408.5,314.6 407.2,315.1 405.7,315.6 404.7,316.0 403.9,316.2 403.6,316.3 403.1,316.4 402.3,316.5 401.3,316.7 400.8,316.8 399.9,316.9 398.6,317.1 397.2,317.2 395.9,317.4 394.4,317.7 393.6,317.8 393.1,317.9 392.7,318.0 392.3,318.1 392.0,318.2 391.6,318.3 391.1,318.4 390.2,318.7 389.1,319.1 388.5,319.2 387.9,319.3 387.5,319.4 387.2,319.4 386.8,319.5 386.4,319.6 385.9,319.6 384.2,319.8 382.3,320.0 379.9,320.2 378.3,320.4 377.5,320.4 377.0,320.5 376.3,320.6 375.4,320.7 374.5,320.8 372.9,321.1 372.2,321.2 370.8,321.4 370.2,321.5 369.3,321.6 368.4,321.7 367.8,321.8 367.0,321.8 365.3,321.9 364.1,321.9 362.1,322.0 360.9,322.1 360.3,322.2 359.8,322.2 359.2,322.3 358.8,322.3 358.2,322.4 357.8,322.4 357.3,322.5 356.9,322.6 356.6,322.6 356.3,322.7 355.8,322.7 355.1,322.9 354.6,323.0 354.0,323.1 353.6,323.2 352.9,323.4 352.5,323.5 352.1,323.6 351.7,323.8 351.3,323.9 350.9,324.1 350.4,324.2 349.9,324.4 349.6,324.5 349.3,324.6 349.0,324.7 348.8,324.8 348.5,324.9 348.1,325.1 347.8,325.3 347.5,325.5 347.1,325.8 346.2,326.7 345.9,326.9 345.0,327.7 344.3,328.5 343.7,329.0 343.4,329.2 342.8,329.5 342.3,329.6 341.8,329.7 341.4,329.8 341.0,329.8 340.5,329.9 340.2,329.9 340.0,329.9 339.6,329.9 337.3,329.7 336.1,329.6" opacity="0.8"/>
    <polyline points="383.3,319.8 383.8,319.8 384.2,319.8" opacity="0.8"/>
    <polyline points="407.2,315.1 407.8,314.8 408.2,314.6 408.5,314.5" opacity="0.8"/>
    <polyline points="408.3,314.6 408.9,314.4 409.5,314.2 409.9,314.1 412.7,313.0 413.5,312.8 413.9,312.6" opacity="0.8"/>
    <polyline points="412.7,313.0 413.1,312.9 413.4,312.8 413.9,312.7" opacity="0.8"/>
    <polyline points="408.5,314.6 408.9,314.4 409.2,314.3 409.5,314.2" opacity="0.8"/>
    <polyline points="414.6,307.7 414.6,307.8 414.7,308.3 414.8,308.4 414.8,308.6 414.9,308.9 415.0,309.0 415.9,310.1 416.1,310.2 416.2,310.4 416.3,310.7 416.4,310.8 416.3,311.0 416.3,311.3 416.2,311.5 416.0,311.7 415.8,311.9 415.5,312.0 415.3,312.2 414.8,312.4 414.3,312.6" opacity="0.8"/>
    <polyline points="344.4,328.3 345.1,327.7 346.2,326.6 347.1,325.8 347.4,325.5 347.7,325.2 347.9,325.0 348.2,324.8 348.5,324.5 348.4,324.4 349.1,323.7 349.6,323.2 350.1,322.8 350.3,322.6 350.6,322.3 350.7,322.2 350.8,322.0 350.9,321.7 351.0,321.5 351.1,321.3 351.1,321.1 351.0,320.7 351.0,320.2 350.9,319.7 350.9,319.3 350.9,319.0 351.0,318.7 351.0,318.4 351.1,318.1 351.3,317.7 351.7,317.2 352.1,316.8 352.3,316.5 352.6,316.1 353.0,315.6 353.2,315.4 353.6,314.9 353.9,314.5 354.3,314.1 354.8,313.6 355.5,312.7 355.8,312.4 356.2,312.0 356.5,311.6 357.6,310.3 357.8,310.1 358.1,309.7 358.6,309.2 358.8,308.8 359.0,308.6 359.3,308.2 359.6,307.9 359.8,307.6 359.9,307.4 360.0,307.2 360.1,307.1 360.1,306.9 360.2,306.6 360.2,306.4 360.2,306.0 360.3,305.3 360.3,304.7 360.3,304.0 360.3,303.9 360.3,303.7 360.4,303.5 360.4,303.3 360.5,303.1 360.6,302.8 360.9,302.2 361.0,301.9 361.2,301.5 361.3,301.3 361.4,301.1 361.6,300.8 361.6,300.7 361.7,300.5 361.7,300.3 361.8,300.1 361.9,299.7 361.9,299.5 362.0,299.3 362.0,299.1 362.1,299.0 362.2,298.7 362.5,298.3 362.6,298.1 362.8,297.9 363.1,297.7 363.7,297.2 364.1,296.9 364.6,296.6 365.5,296.1 366.0,295.8 366.2,295.7 366.4,295.5 366.6,295.4 366.8,295.1 367.0,295.0 367.3,294.5 367.6,294.0 368.0,293.5 368.3,293.1 368.6,292.5 368.9,292.1 369.1,291.9 369.3,291.5 369.7,291.0 369.8,290.8 369.8,290.7 369.9,290.5 369.9,290.4 370.0,290.2 370.0,290.0 370.0,289.8 369.9,289.6 369.9,289.3 369.9,289.0 369.8,288.7 369.8,288.5 369.9,288.4 370.0,288.3 370.0,288.1 370.2,287.9 370.4,287.8 370.7,287.6 371.0,287.5 371.2,287.4 371.5,287.3 371.9,287.1 372.3,287.1 374.3,286.5 375.6,286.2 376.1,286.1 376.3,286.0 376.6,285.9 376.8,285.8 377.1,285.7 377.3,285.6 377.5,285.4 377.6,285.3 377.8,285.2 377.9,285.0 378.0,284.9 378.0,284.8 378.1,284.5 378.1,284.3 378.0,284.0 377.9,283.6 377.9,283.3 377.9,283.2 377.9,282.8 377.8,282.5 377.8,282.3 377.8,281.9 377.7,281.6 377.7,281.3 377.7,280.9 377.7,280.7 377.6,280.0 377.6,279.4 377.6,278.7 377.6,278.0 377.6,277.4 377.7,276.8 377.7,276.0 377.6,275.5 377.6,274.9 377.5,273.2 377.5,272.5 377.4,271.9 377.4,271.6 377.1,270.5 377.0,269.9 376.9,269.3 376.8,268.7 376.8,268.2 376.8,267.8 376.9,266.8 377.0,266.3 377.0,266.0 377.0,265.8 377.0,265.6 377.0,265.5 376.9,265.2 376.6,264.8 376.0,263.8 375.9,263.6 375.4,262.7 375.3,262.5 375.2,262.3 375.1,262.2 375.1,262.1 375.1,261.8 375.1,261.1 375.2,260.1 375.2,259.1 375.3,258.5 375.3,257.8 375.3,256.8 375.3,256.6 375.4,256.3 375.4,255.9 375.5,255.4 375.5,254.7 375.6,253.7 375.7,253.3 375.7,253.0 375.8,252.7 375.8,252.1 375.8,251.7 375.6,250.5 375.6,250.2 375.3,249.5 374.5,248.8 374.1,248.5 372.9,247.8 372.3,247.5 371.4,247.1 370.5,246.6 370.1,246.4 369.8,246.3 369.3,246.2 368.6,245.9 367.8,245.7 365.7,245.1 364.6,244.8 364.0,244.6 363.4,244.6 363.0,244.5 362.7,244.5 362.4,244.4 361.9,244.4 361.5,244.4 360.9,244.4 359.6,244.4 358.4,244.4 357.5,244.4 356.4,244.3 355.2,244.3 353.2,244.2 351.2,244.0 348.3,243.9 347.4,243.8 346.3,243.6 345.4,243.4 344.5,243.3 343.5,243.2 342.9,243.1 342.3,243.1 341.5,243.1 340.4,243.1 337.2,243.1 334.7,243.1 334.3,243.1 332.1,243.1 331.1,243.1 330.4,243.1 330.1,243.1 329.7,243.1 329.3,243.0 329.0,242.9 328.6,242.8 328.3,242.7 327.9,242.6 327.6,242.5 327.4,242.3 327.2,242.2 327.0,242.1 326.9,241.9 326.8,241.8 326.7,241.6 326.7,241.4 326.7,241.0 326.7,240.5 326.7,239.8 326.7,239.1 326.7,238.7 326.7,237.9 326.8,237.1 326.9,236.5 326.9,235.9 326.9,235.5 327.0,234.5 327.0,234.3 327.0,233.9 327.0,233.7 327.1,233.4 327.2,233.3 327.3,233.1 327.4,233.0 327.6,232.9 327.8,232.7 328.1,232.6 328.4,232.5 328.7,232.4 329.0,232.3 329.3,232.2 329.6,232.2 330.0,232.1 330.4,232.1 330.8,232.1 331.4,232.1 332.5,232.1 333.2,232.1 333.6,232.1 333.9,232.1 334.1,232.0 334.5,232.0 334.8,231.9 335.1,231.9 335.4,231.8 335.6,231.7 335.9,231.7 336.1,231.6 336.4,231.5 336.5,231.4 336.8,231.2 337.0,231.1 337.2,230.9 337.3,230.8 337.4,230.6 337.4,230.5 337.4,230.2 337.4,230.0 337.3,229.7" opacity="0.8"/>
    <polyline points="336.4,338.5 338.0,338.3" opacity="0.8"/>
    <polyline points="336.3,338.5 337.1,338.4 337.4,338.3 337.9,338.2" opacity="0.8"/>
    <polyline points="336.1,329.6 337.1,329.8 338.7,330.0 339.8,330.1 340.2,330.1 340.7,330.2 341.1,330.2 341.5,330.1 342.0,330.0 342.2,330.0 342.5,329.9 342.9,329.9 343.3,329.7 343.5,329.6 343.8,329.4 344.2,328.7 344.4,328.3" opacity="0.8"/>
    <polyline points="336.8,329.5 337.3,329.6 339.5,329.6 340.1,329.6 340.5,329.6 340.9,329.6 341.4,329.6 341.8,329.5 342.3,329.4 342.8,329.2 343.1,329.0 343.5,328.8 343.8,328.6 344.3,328.3" opacity="0.8"/>
    <polyline points="368.9,292.1 369.0,291.9 369.1,291.7" opacity="0.8"/>
  </g>

  <!-- 지하철 역 -->
  <g id="subway-stations">
    <circle cx="345.9" cy="326.6" r="4" fill="#dc2626" stroke="#fff" stroke-width="2"/>
    <text x="345.9" y="318.6" text-anchor="middle" font-size="10" fill="#374151">ஆலந்தூர்</text>
    <circle cx="337.5" cy="338.5" r="4" fill="#dc2626" stroke="#fff" stroke-width="2"/>
    <text x="337.5" y="330.5" text-anchor="middle" font-size="10" fill="#374151">பரங்கிமலை</text>
    <circle cx="357.5" cy="310.4" r="4" fill="#dc2626" stroke="#fff" stroke-width="2"/>
    <text x="357.5" y="302.4" text-anchor="middle" font-size="10" fill="#374151">ஈக்காட்டுத்தாங்கல்</text>
    <circle cx="374.1" cy="286.6" r="4" fill="#dc2626" stroke="#fff" stroke-width="2"/>
    <text x="374.1" y="278.6" text-anchor="middle" font-size="10" fill="#374151">அசோக் நகர்</text>
    <circle cx="376.9" cy="266.8" r="4" fill="#dc2626" stroke="#fff" stroke-width="2"/>
    <text x="376.9" y="258.8" text-anchor="middle" font-size="10" fill="#374151">வடபழநி</text>
    <circle cx="375.7" cy="253.0" r="4" fill="#dc2626" stroke="#fff" stroke-width="2"/>
    <text x="375.7" y="245.0" text-anchor="middle" font-size="10" fill="#374151">அரும்பாக்கம்</text>
    <circle cx="353.2" cy="244.2" r="4" fill="#dc2626" stroke="#fff" stroke-width="2"/>
    <circle cx="326.6" cy="237.9" r="4" fill="#dc2626" stroke="#fff" stroke-width="2"/>
    <text x="326.6" y="229.9" text-anchor="middle" font-size="10" fill="#374151">கோயம்பேடு</text>
    <circle cx="437.5" cy="235.2" r="4" fill="#dc2626" stroke="#fff" stroke-width="2"/>
    <circle cx="466.0" cy="232.5" r="4" fill="#dc2626" stroke="#fff" stroke-width="2"/>
    <text x="466.0" y="224.5" text-anchor="middle" font-size="10" fill="#374151">Kilpauk</text>
    <circle cx="488.9" cy="231.0" r="4" fill="#dc2626" stroke="#fff" stroke-width="2"/>
    <text x="488.9" y="223.0" text-anchor="middle" font-size="10" fill="#374151">Nehru Park</text>
    <circle cx="525.6" cy="229.1" r="4" fill="#dc2626" stroke="#fff" stroke-width="2"/>
    <text x="525.6" y="221.1" text-anchor="middle" font-size="10" fill="#374151">Egmore Metro</text>
    <circle cx="513.1" cy="257.0" r="4" fill="#dc2626" stroke="#fff" stroke-width="2"/>
    <text x="513.1" y="249.0" text-anchor="middle" font-size="10" fill="#374151">ஆயிரம் விளக்கு</text>
    <circle cx="533.7" cy="249.5" r="4" fill="#dc2626" stroke="#fff" stroke-width="2"/>
    <text x="533.7" y="241.5" text-anchor="middle" font-size="10" fill="#374151">எல் ஐ சி</text>
    <circle cx="554.7" cy="242.8" r="4" fill="#dc2626" stroke="#fff" stroke-width="2"/>
    <text x="554.7" y="234.8" text-anchor="middle" font-size="10" fill="#374151">அரசினர் தோட்டம்</text>
    <circle cx="589.5" cy="220.2" r="4" fill="#dc2626" stroke="#fff" stroke-width="2"/>
    <text x="589.5" y="212.2" text-anchor="middle" font-size="10" fill="#374151">High Court</text>
    <circle cx="592.9" cy="209.7" r="4" fill="#dc2626" stroke="#fff" stroke-width="2"/>
    <text x="592.9" y="201.7" text-anchor="middle" font-size="10" fill="#374151">Mannadi</text>
    <circle cx="577.8" cy="193.8" r="4" fill="#dc2626" stroke="#fff" stroke-width="2"/>
    <text x="577.8" y="185.8" text-anchor="middle" font-size="10" fill="#374151">வண்ணாரப்பேட்டை</text>
    <circle cx="324.2" cy="332.2" r="4" fill="#dc2626" stroke="#fff" stroke-width="2"/>
    <text x="324.2" y="324.2" text-anchor="middle" font-size="10" fill="#374151">நங்கநல்லூர் சாலை</text>
    <circle cx="273.1" cy="347.9" r="4" fill="#dc2626" stroke="#fff" stroke-width="2"/>
    <text x="273.1" y="339.9" text-anchor="middle" font-size="10" fill="#374151">மீனம்பாக்கம்</text>
    <circle cx="237.3" cy="356.7" r="4" fill="#dc2626" stroke="#fff" stroke-width="2"/>
    <circle cx="477.1" cy="284.9" r="4" fill="#dc2626" stroke="#fff" stroke-width="2"/>
    <text x="477.1" y="276.9" text-anchor="middle" font-size="10" fill="#374151">தேனாம்பேட்டை</text>
    <circle cx="461.8" cy="291.4" r="4" fill="#dc2626" stroke="#fff" stroke-width="2"/>
    <text x="461.8" y="283.4" text-anchor="middle" font-size="10" fill="#374151">நந்தனம்</text>
    <circle cx="423.6" cy="301.3" r="4" fill="#dc2626" stroke="#fff" stroke-width="2"/>
    <text x="423.6" y="293.3" text-anchor="middle" font-size="10" fill="#374151">சைதாப்பேட்டை</text>
    <circle cx="412.2" cy="313.3" r="4" fill="#dc2626" stroke="#fff" stroke-width="2"/>
    <text x="412.2" y="305.3" text-anchor="middle" font-size="10" fill="#374151">சின்னமலை</text>
    <circle cx="379.8" cy="320.2" r="4" fill="#dc2626" stroke="#fff" stroke-width="2"/>
    <text x="379.8" y="312.2" text-anchor="middle" font-size="10" fill="#374151">கிண்டி</text>
    <circle cx="482.5" cy="273.2" r="4" fill="#dc2626" stroke="#fff" stroke-width="2"/>
    <text x="482.5" y="265.2" text-anchor="middle" font-size="10" fill="#374151">ஏ ஜி டி.எம்.எஸ்</text>
    <circle cx="557.3" cy="227.3" r="4" fill="#dc2626" stroke="#fff" stroke-width="2"/>
    <text x="557.3" y="219.3" text-anchor="middle" font-size="10" fill="#374151">Chennai Central</text>
    <circle cx="588.8" cy="183.6" r="4" fill="#dc2626" stroke="#fff" stroke-width="2"/>
    <text x="588.8" y="175.6" text-anchor="middle" font-size="10" fill="#374151">தியாகராயா கல்லூரி</text>
    <circle cx="600.8" cy="172.4" r="4" fill="#dc2626" stroke="#fff" stroke-width="2"/>
    <text x="600.8" y="164.4" text-anchor="middle" font-size="10" fill="#374151">தொண்டையார்பேட்டை</text>
    <circle cx="654.8" cy="102.2" r="4" fill="#dc2626" stroke="#fff" stroke-width="2"/>
    <text x="654.8" y="94.2" text-anchor="middle" font-size="10" fill="#374151">விம்கோ நகர்</text>
    <circle cx="648.7" cy="111.8" r="4" fill="#dc2626" stroke="#fff" stroke-width="2"/>
    <text x="648.7" y="103.8" text-anchor="middle" font-size="10" fill="#374151">திருவொற்றியூர்</text>
    <circle cx="631.6" cy="138.9" r="4" fill="#dc2626" stroke="#fff" stroke-width="2"/>
    <text x="631.6" y="130.9" text-anchor="middle" font-size="10" fill="#374151">காலடிபேட்டை</text>
    <circle cx="622.6" cy="148.5" r="4" fill="#dc2626" stroke="#fff" stroke-width="2"/>
    <text x="622.6" y="140.5" text-anchor="middle" font-size="10" fill="#374151">சுங்கச்சாவடி</text>
    <circle cx="612.9" cy="159.6" r="4" fill="#dc2626" stroke="#fff" stroke-width="2"/>
    <text x="612.9" y="151.6" text-anchor="middle" font-size="10" fill="#374151">புது வண்ணாரப்பேட்டை</text>
    <circle cx="640.5" cy="126.6" r="4" fill="#dc2626" stroke="#fff" stroke-width="2"/>
    <circle cx="659.6" cy="96.2" r="4" fill="#dc2626" stroke="#fff" stroke-width="2"/>
    <text x="659.6" y="88.2" text-anchor="middle" font-size="10" fill="#374151">விம்கோ நகர் டிப்போ</text>
    <circle cx="511.4" cy="257.8" r="4" fill="#dc2626" stroke="#fff" stroke-width="2"/>
  </g>
</svg>