<?xml version="1.0" encoding="UTF-8"?>
<svg width="800" height="600" xmlns="http://www.w3.org/2000/svg">
  <title>Chicago Subway Map</title>
  <rect width="100%" height="100%" fill="#f8f9fa"/>

  <!-- 지하철 선로 -->
  <g stroke="#2563eb" stroke-width="2" fill="none" opacity="0.8">
    <polyline points="390.1,362.4 390.0,361.7"/>
    <polyline points="578.2,244.9 578.0,245.1 577.9,245.3 577.8,245.4 577.5,245.7 577.3,245.9 577.2,246.0 577.1,246.2 577.0,246.3 576.9,246.5 576.9,246.7"/>
    <polyline points="124.7,105.2 125.2,105.5 126.1,106.1 126.5,106.4 127.6,107.2 129.7,108.7 130.9,109.5 131.3,109.7 131.9,110.0 132.4,110.2 133.0,110.4 133.6,110.5 134.1,110.6 134.6,110.6 135.2,110.6 135.8,110.6 136.3,110.6 136.7,110.5 137.3,110.4 137.7,110.3 138.2,110.2 139.3,109.8"/>
    <polyline points="124.7,105.2 123.8,104.6 123.5,104.4 123.1,104.3 122.5,104.2 122.1,104.2 121.6,104.2 121.2,104.2 120.8,104.3 120.3,104.4 119.8,104.5 119.5,104.6 118.7,105.0 117.8,105.5"/>
    <polyline points="112.1,109.4 112.3,109.3 114.7,107.7"/>
    <polyline points="167.2,102.4 168.7,102.4"/>
    <polyline points="168.8,101.9 167.3,102.0"/>
    <polyline points="181.9,101.8 177.2,101.5 176.8,101.5 175.7,101.4 174.8,101.4 174.4,101.4 174.1,101.4 173.6,101.4 172.9,101.4 171.9,101.5 170.5,101.7 168.8,101.9"/>
    <polyline points="197.5,101.7 202.8,101.7"/>
    <polyline points="586.1,457.6 585.9,457.5 585.8,457.4 585.4,457.3 584.8,457.1 584.0,456.7 582.9,456.0 582.5,455.6"/>
    <polyline points="543.6,244.6 548.0,244.6 551.1,244.5"/>
    <polyline points="352.1,250.5 351.3,250.8 350.7,251.0 350.1,251.2 349.6,251.4 349.1,251.5 348.6,251.6 348.1,251.7 347.7,251.8 347.2,251.8 346.8,251.8 346.4,251.8 346.1,251.8 345.8,251.8"/>
    <polyline points="432.9,163.1 432.9,164.5 433.1,169.4 433.2,169.8 433.5,170.1 433.9,170.4 437.7,172.2"/>
    <polyline points="444.3,175.7 444.8,176.1 445.4,176.5 445.9,176.9 446.3,177.1 446.7,177.3"/>
    <polyline points="431.7,124.8 431.8,124.8 431.8,124.9 431.9,125.0 431.9,125.0 432.0,125.0 432.2,125.1 432.3,125.1 432.4,125.1 432.5,125.1 432.7,125.1 434.5,125.1"/>
    <polyline points="577.6,242.7 577.8,242.7 577.9,242.7 578.0,242.8 578.1,242.8 578.2,242.8 578.2,242.9 578.2,243.0"/>
    <polyline points="356.4,228.7 356.2,228.7 355.6,228.7 355.0,228.8 354.2,228.8 353.5,228.8 352.5,228.8"/>
    <polyline points="414.5,231.6 411.4,231.5 410.9,231.5 410.7,231.5 410.3,231.5 410.0,231.5 409.7,231.5 409.3,231.4 385.8,230.4 378.9,230.1 377.7,230.0 377.5,230.0 377.1,229.9 376.8,229.9 376.6,229.9 368.4,229.5 363.5,229.3 361.5,229.2 360.8,229.2 360.6,229.2"/>
    <polyline points="191.6,101.9 191.9,101.9"/>
    <polyline points="190.0,102.0 191.6,101.9"/>
    <polyline points="577.4,261.6 577.4,261.8 577.4,262.1 577.4,262.6 577.4,263.4 577.4,264.1 577.4,264.6"/>
    <polyline points="455.7,125.0 457.0,125.0"/>
    <polyline points="457.0,125.0 459.1,125.0 460.8,125.0 463.3,125.0 464.2,124.9 464.4,124.9 464.6,124.9"/>
    <polyline points="395.3,138.2 397.1,139.0 398.6,139.7"/>
    <polyline points="393.3,137.5 395.3,138.2"/>
    <polyline points="227.2,100.9 229.2,100.8 232.1,100.7 232.9,100.7 234.5,100.7 235.1,100.7 237.4,100.8 238.4,100.8 239.7,100.8 242.7,101.0 245.0,101.2 246.0,101.3 246.4,101.4 248.5,101.6 250.1,101.7 250.9,101.8 251.6,101.9 252.5,102.0 253.6,102.1 254.0,102.2 254.6,102.2 255.1,102.3 255.6,102.4 256.5,102.6 257.4,102.8 259.7,103.2 260.4,103.3 260.8,103.4 261.3,103.4 261.9,103.5 262.4,103.6 263.0,103.6 263.5,103.7 264.2,103.7 265.0,103.7 265.6,103.7 267.1,103.7 268.1,103.7 269.1,103.7 273.2,103.7 274.2,103.7 275.2,103.7 275.9,103.6"/>
    <polyline points="419.1,50.5 418.7,50.5 417.8,50.5 417.5,50.5"/>
    <polyline points="496.6,53.5 495.9,53.0"/>
    <polyline points="494.4,52.1 494.2,52.0 493.2,51.5 492.9,51.4 492.6,51.2 492.4,51.0 492.2,50.9 492.1,50.6"/>
    <polyline points="491.9,50.7 492.1,50.9 492.3,51.1 492.5,51.2 492.8,51.5 493.0,51.6 493.1,51.7 493.3,51.9 493.3,52.1 493.4,52.2 493.5,52.5 493.6,52.7 493.7,52.8"/>
    <polyline points="493.8,52.6 493.8,52.6 493.8,52.7 493.8,52.7 493.8,52.8 493.9,52.8 493.9,52.9 494.0,53.0 494.2,53.0 494.3,53.0 495.0,53.1 495.3,53.2 495.4,53.2 495.6,53.3 495.8,53.3 496.3,53.5 496.4,53.5 496.6,53.6"/>
    <polyline points="569.2,268.1 569.2,268.3 569.2,268.8 569.2,269.2 569.1,269.4 569.1,269.7 569.1,269.8 569.1,270.0 569.1,270.5"/>
    <polyline points="572.2,268.1 572.0,268.1 571.9,268.1 571.7,268.1 571.6,268.1 571.5,268.1 571.3,268.2 571.2,268.2 571.0,268.2 570.9,268.2 570.9,268.2 570.8,268.3 570.7,268.3 570.6,268.3 570.5,268.3 570.5,268.4 570.4,268.4 570.3,268.4 570.2,268.4 570.2,268.5 570.1,268.5 570.0,268.6 570.0,268.6 569.9,268.7 569.8,268.7 569.8,268.7 569.7,268.8 569.7,268.8 569.6,268.9 569.6,268.9 569.5,269.0 569.5,269.0 569.5,269.0 569.4,269.1 569.4,269.1 569.4,269.2 569.4,269.3 569.3,269.3 569.3,269.4 569.3,269.5 569.3,269.5 569.3,269.6 569.3,269.7 569.2,269.8 569.2,269.9 569.3,270.3 569.3,271.0 569.3,271.3 569.3,271.7 569.3,272.0 569.3,272.2"/>
    <polyline points="570.4,276.5 570.4,276.0 570.4,275.6 570.3,275.2 570.2,274.9 570.2,274.7 570.2,274.5 570.1,274.2 570.0,273.8 569.9,273.5 569.8,273.3 569.8,273.2 569.8,273.1 569.7,273.0 569.7,272.9 569.6,272.7 569.6,272.4 569.5,272.3 569.5,272.1"/>
    <polyline points="574.7,268.1 575.2,268.1 575.5,268.1 575.7,268.1 575.8,268.1 576.0,268.1 576.1,268.0 576.1,268.0 576.3,268.0 576.4,268.0 576.5,268.0 576.6,267.9 576.7,267.9 576.8,267.9 576.9,267.8 577.0,267.8 577.1,267.7 577.2,267.7 577.2,267.7 577.2,267.6 577.3,267.6 577.4,267.6 577.4,267.5 577.5,267.4 577.5,267.4 577.6,267.3 577.6,267.2 577.6,267.1 577.7,267.1 577.7,267.0 577.7,266.9 577.7,266.8 577.7,266.7 577.7,266.6 577.7,266.4"/>
    <polyline points="589.9,316.1 589.9,316.0 589.8,315.9 589.7,315.7 589.7,315.7 589.6,315.6 589.5,315.5 589.4,315.5 589.2,315.4 589.0,315.4 588.8,315.4 588.5,315.4 586.5,315.4 584.0,315.4 580.8,315.4 580.5,315.4 580.2,315.4 579.9,315.4 579.6,315.4 579.4,315.3 579.3,315.2 579.2,315.1 579.1,315.0 579.0,314.8 579.0,314.7"/>
    <polyline points="576.7,257.6 576.4,257.3 576.3,257.1 576.2,256.8 576.0,255.9"/>
    <polyline points="577.1,231.1 577.3,231.1 577.4,231.1 577.5,231.1 577.6,231.1 577.7,231.2 577.8,231.2 577.8,231.3 577.9,231.4 577.9,231.5 577.9,231.6 577.9,231.7 577.9,231.7"/>
    <polyline points="406.0,143.0 406.4,143.2 407.0,143.5"/>
    <polyline points="401.8,141.2 403.4,141.9"/>
    <polyline points="491.5,124.7 491.6,124.7 491.8,124.7 491.9,124.7 492.2,124.7 492.5,124.7 492.7,124.7 492.9,124.8 493.0,124.8 493.2,124.8 493.4,124.9 493.5,124.9 493.7,125.0 493.8,125.0 493.8,125.0 494.0,125.1 494.1,125.1 494.3,125.2 494.4,125.3 494.5,125.4 494.7,125.5 494.8,125.6 494.8,125.6 494.9,125.6 494.9,125.7 495.0,125.8 495.1,125.9 495.2,126.0 495.2,126.1 495.3,126.2 495.3,126.3 495.4,126.3 495.4,126.4 495.4,126.5 495.4,126.6 495.4,126.7 495.5,126.8 495.5,126.9 495.5,127.0"/>
    <polyline points="422.7,150.8 423.1,151.2 424.0,152.5 424.5,153.1 425.3,154.2 425.6,154.7 426.0,155.1 426.5,155.5 426.9,155.8 427.3,156.0 427.8,156.3 428.3,156.6 428.7,156.8"/>
    <polyline points="407.0,143.5 407.9,143.9"/>
    <polyline points="398.6,139.7 399.6,140.2"/>
    <polyline points="399.6,140.2 401.8,141.2"/>
    <polyline points="388.9,135.5 389.9,136.0"/>
    <polyline points="389.9,136.0 393.3,137.5"/>
    <polyline points="181.9,101.8 182.8,101.8"/>
    <polyline points="181.9,102.2 182.7,102.2"/>
    <polyline points="182.7,102.2 183.6,102.1 186.8,102.1 187.5,102.0 188.0,102.0 189.0,102.0 190.0,102.0"/>
    <polyline points="167.3,102.0 163.8,102.4 163.6,102.5 162.5,102.6 161.9,102.7 161.4,102.8 160.9,102.9 160.3,103.0 159.3,103.3 158.0,103.8 156.5,104.3"/>
    <polyline points="140.9,109.3 142.0,108.9"/>
    <polyline points="276.4,229.6 276.1,229.6 275.8,229.7 274.6,229.9 274.4,229.9 273.7,229.9 273.0,230.0 272.6,230.0 271.2,230.0"/>
    <polyline points="256.0,246.1 255.7,246.0 255.6,246.0 255.5,246.0 255.2,245.9 254.7,245.8 254.6,245.8 254.5,245.8 254.3,245.8 254.2,245.8 254.0,245.9 253.9,246.0 253.8,246.1 253.8,246.2 253.9,246.3 254.0,246.3 254.1,246.4 254.2,246.5 254.4,246.5 254.5,246.5 254.7,246.5 254.9,246.4 255.0,246.3 255.2,246.3 255.3,246.2 255.5,246.2 256.0,246.2"/>
    <polyline points="354.9,250.0 354.3,250.1 353.7,250.1 353.0,250.3 352.6,250.4 352.1,250.5"/>
    <polyline points="345.8,251.8 345.3,251.8"/>
    <polyline points="260.4,246.5 260.6,246.6 260.8,246.6"/>
    <polyline points="253.7,246.6 253.7,246.4 253.8,246.0 253.8,245.9 253.9,245.8 254.1,245.7 254.2,245.7 254.4,245.7 254.8,245.7 254.9,245.8 255.1,245.8 255.2,245.9 255.4,246.1 255.5,246.1 255.7,246.1 256.0,246.2"/>
    <polyline points="258.5,246.9 257.0,247.3 256.4,247.4 256.1,247.5 255.9,247.5 255.5,247.6 255.3,247.6 255.0,247.6 254.7,247.6 254.4,247.5 254.2,247.4 254.1,247.3 254.0,247.1 253.9,246.9 253.8,246.7 253.7,246.6"/>
    <polyline points="570.2,280.4 570.3,280.1 570.3,279.8 570.4,279.6 570.4,279.3 570.5,278.9 570.5,278.5 570.5,278.1 570.5,277.9"/>
    <polyline points="569.8,282.1 569.9,281.5 570.1,281.0"/>
    <polyline points="569.9,289.0 569.8,288.0 569.6,286.8 569.6,285.9 569.5,285.2 569.5,284.8 569.5,284.3 569.5,283.9 569.5,283.6 569.6,283.2 569.6,283.0 569.6,282.7 569.8,282.1"/>
    <polyline points="570.1,291.0 569.9,289.0"/>
    <polyline points="560.5,215.5 560.5,215.7 560.6,215.8 560.6,215.8 560.6,215.9 560.7,215.9 560.7,216.0 560.9,216.1 561.0,216.2 561.6,216.6 561.7,216.6 561.8,216.7 561.9,216.8 561.9,216.8 562.0,216.9 562.0,217.0 562.0,217.1"/>
    <polyline points="256.0,246.2 258.6,246.4"/>
    <polyline points="494.0,52.4 493.9,52.4 493.9,52.5 493.8,52.5 493.8,52.6"/>
    <polyline points="497.1,54.0 494.3,53.4 493.9,53.2 493.7,53.1 493.6,53.1 493.5,52.9 493.4,52.8"/>
    <polyline points="493.5,53.1 493.3,52.8 493.2,52.4 493.1,52.1 493.1,51.9 492.9,51.5 492.8,51.2 492.8,51.2 492.9,51.0 492.9,50.9 493.1,50.8 493.2,50.8 493.4,50.7 493.6,50.7 493.7,50.7"/>
    <polyline points="495.6,54.1 494.5,53.8 494.1,53.7 493.8,53.6 493.7,53.5 493.6,53.4 493.6,53.3 493.5,53.3"/>
    <polyline points="496.8,53.4 497.0,53.5 497.1,53.6 497.3,53.6 497.5,53.6 497.7,53.6 497.8,53.6 497.9,53.5 498.0,53.5 498.0,53.4 498.1,53.3 498.0,53.1 498.0,53.1 497.9,53.0 497.8,52.9"/>
    <polyline points="493.5,51.0 495.7,52.5 495.9,52.6 496.0,52.7"/>
    <polyline points="495.0,51.6 494.9,51.4 494.7,51.3 494.5,51.2 494.2,51.0 494.1,50.9 493.9,50.9 493.8,50.9 493.6,50.9 493.5,50.9 493.4,50.9 493.3,51.0 493.2,51.0 493.1,51.1 493.1,51.1 493.1,51.2 493.1,51.3 493.1,51.4 493.2,51.5 493.4,51.5 494.2,51.9 494.6,52.1 494.7,52.1 494.9,52.2"/>
    <polyline points="493.8,50.8 494.1,50.8 494.3,50.9 494.5,50.9 494.7,51.1"/>
    <polyline points="493.7,50.7 494.1,50.8 494.3,50.8 494.5,50.8 494.6,50.9 494.8,51.0 494.9,51.0"/>
    <polyline points="498.0,53.0 498.0,52.9 497.9,52.9 497.1,52.3"/>
    <polyline points="580.6,452.8 580.6,452.3 580.6,452.0"/>
    <polyline points="580.7,451.6 580.7,451.3 580.9,450.6 581.0,450.1 581.1,449.8 581.1,449.5 581.1,449.3"/>
    <polyline points="587.6,458.0 587.2,457.9 586.3,457.6 584.0,456.3 583.7,456.2"/>
    <polyline points="587.5,457.9 587.3,457.8 586.6,457.6 586.3,457.5 584.3,456.4 584.1,456.3"/>
    <polyline points="586.6,457.8 586.2,457.6 584.3,456.5 583.4,456.1"/>
    <polyline points="582.7,455.3 582.2,454.7 582.0,454.3 581.8,454.0 581.7,453.9 581.4,453.7"/>
    <polyline points="581.7,453.9 581.4,453.7 581.2,453.6 581.1,453.5 580.9,453.4"/>
    <polyline points="582.5,455.4 582.1,455.0 581.7,454.5 581.4,454.1 581.2,453.8 581.0,453.5 580.7,453.2"/>
    <polyline points="582.9,455.7 582.5,455.4"/>
    <polyline points="582.1,455.3 581.8,455.0 581.2,454.2 580.9,453.6 580.8,453.5"/>
    <polyline points="582.5,455.6 582.1,455.3"/>
    <polyline points="533.8,193.7 533.8,192.5 533.7,191.9 533.6,189.6"/>
    <polyline points="498.7,54.9 500.1,55.8"/>
    <polyline points="498.3,54.6 498.5,54.8 498.7,54.9"/>
    <polyline points="495.3,53.3 495.7,53.4 496.2,53.5 496.5,53.7 496.7,53.7 497.0,53.8"/>
    <polyline points="498.5,54.6 498.1,54.3"/>
    <polyline points="420.3,46.0 420.2,48.6 420.1,49.5 420.1,49.7 420.1,49.9 420.1,50.0 420.0,50.1 419.7,50.2 419.5,50.2 419.3,50.3"/>
    <polyline points="419.7,47.9 419.7,49.2 419.7,49.5 419.7,49.7 419.7,49.8 419.7,49.9 419.7,50.0 419.6,50.1 419.5,50.2 419.3,50.2 419.1,50.3 418.9,50.3 418.7,50.3"/>
    <polyline points="417.2,50.4 417.4,50.4 417.7,50.3 417.9,50.3 418.1,50.1 418.3,50.0 418.3,49.8 418.4,49.7 418.4,49.6 418.3,49.4 418.3,49.0 418.3,48.7 418.3,47.8"/>
    <polyline points="403.7,273.2 401.6,273.2 399.9,273.2 399.8,273.2 399.6,273.2 398.0,273.2 395.8,273.3 395.6,273.3 395.5,273.3 395.4,273.3 395.1,273.3 394.8,273.3 394.4,273.4 394.2,273.5 393.8,273.6 393.6,273.7 393.3,273.9 393.0,274.1 392.9,274.2"/>
    <polyline points="387.0,275.5 383.6,275.6 383.4,275.6 383.2,275.6 381.5,275.6 381.4,275.6 381.2,275.6 379.5,275.6 379.3,275.6 379.1,275.6 377.1,275.7 375.4,275.7 375.2,275.7 375.0,275.7 374.2,275.7 373.0,275.7 371.2,275.7 371.1,275.7 370.9,275.7 370.3,275.7"/>
    <polyline points="387.9,275.5 387.0,275.5"/>
    <polyline points="568.2,369.7 568.2,369.9 568.1,370.0 568.0,370.2 567.8,370.4 567.1,370.8 566.4,371.2 566.2,371.3 565.9,371.4 565.7,371.4 565.4,371.5"/>
    <polyline points="417.9,342.6 419.5,342.0 420.4,341.7 421.5,341.4 422.5,341.0 423.7,340.7 425.2,340.2 426.5,339.8"/>
    <polyline points="391.6,351.5 392.0,351.2 392.6,350.9 393.0,350.7 394.2,350.2 394.7,350.0 395.2,349.8 396.1,349.5 403.3,347.3 406.3,346.4 408.8,345.6 410.6,345.0 412.7,344.4 415.9,343.3"/>
  </g>

  <!-- 지하철 역 -->
  <g>
    <circle cx="511.1" cy="69.7" r="3" fill="#dc2626" stroke="#fff" stroke-width="1"/>
    <circle cx="529.1" cy="141.2" r="3" fill="#dc2626" stroke="#fff" stroke-width="1"/>
    <circle cx="531.9" cy="149.6" r="3" fill="#dc2626" stroke="#fff" stroke-width="1"/>
    <circle cx="532.4" cy="159.8" r="3" fill="#dc2626" stroke="#fff" stroke-width="1"/>
    <circle cx="533.6" cy="188.2" r="3" fill="#dc2626" stroke="#fff" stroke-width="1"/>
    <circle cx="538.5" cy="244.6" r="3" fill="#dc2626" stroke="#fff" stroke-width="1"/>
    <circle cx="522.3" cy="244.1" r="3" fill="#dc2626" stroke="#fff" stroke-width="1"/>
    <circle cx="498.8" cy="244.4" r="3" fill="#dc2626" stroke="#fff" stroke-width="1"/>
    <circle cx="553.1" cy="244.5" r="3" fill="#dc2626" stroke="#fff" stroke-width="1"/>
    <circle cx="541.6" cy="223.6" r="3" fill="#dc2626" stroke="#fff" stroke-width="1"/>
    <circle cx="432.9" cy="160.6" r="3" fill="#dc2626" stroke="#fff" stroke-width="1"/>
    <circle cx="438.4" cy="172.4" r="3" fill="#dc2626" stroke="#fff" stroke-width="1"/>
    <circle cx="575.7" cy="247.7" r="3" fill="#dc2626" stroke="#fff" stroke-width="1"/>
    <circle cx="575.1" cy="231.1" r="3" fill="#dc2626" stroke="#fff" stroke-width="1"/>
    <circle cx="575.5" cy="241.0" r="3" fill="#dc2626" stroke="#fff" stroke-width="1"/>
    <circle cx="575.4" cy="237.6" r="3" fill="#dc2626" stroke="#fff" stroke-width="1"/>
    <circle cx="565.2" cy="235.5" r="3" fill="#dc2626" stroke="#fff" stroke-width="1"/>
    <circle cx="565.3" cy="240.3" r="3" fill="#dc2626" stroke="#fff" stroke-width="1"/>
    <circle cx="569.3" cy="242.8" r="3" fill="#dc2626" stroke="#fff" stroke-width="1"/>
    <circle cx="573.4" cy="242.7" r="3" fill="#dc2626" stroke="#fff" stroke-width="1"/>
    <circle cx="578.2" cy="239.1" r="3" fill="#dc2626" stroke="#fff" stroke-width="1"/>
    <circle cx="569.3" cy="231.1" r="3" fill="#dc2626" stroke="#fff" stroke-width="1"/>
    <circle cx="552.6" cy="231.1" r="3" fill="#dc2626" stroke="#fff" stroke-width="1"/>
    <circle cx="510.6" cy="231.6" r="3" fill="#dc2626" stroke="#fff" stroke-width="1"/>
    <circle cx="578.6" cy="301.9" r="3" fill="#dc2626" stroke="#fff" stroke-width="1"/>
    <circle cx="572.5" cy="234.4" r="3" fill="#dc2626" stroke="#fff" stroke-width="1"/>
    <circle cx="572.7" cy="237.7" r="3" fill="#dc2626" stroke="#fff" stroke-width="1"/>
    <circle cx="572.8" cy="241.0" r="3" fill="#dc2626" stroke="#fff" stroke-width="1"/>
    <circle cx="533.3" cy="179.0" r="3" fill="#dc2626" stroke="#fff" stroke-width="1"/>
    <circle cx="547.2" cy="371.9" r="3" fill="#dc2626" stroke="#fff" stroke-width="1"/>
    <circle cx="590.9" cy="341.7" r="3" fill="#dc2626" stroke="#fff" stroke-width="1"/>
    <circle cx="590.4" cy="331.8" r="3" fill="#dc2626" stroke="#fff" stroke-width="1"/>
    <circle cx="586.3" cy="315.4" r="3" fill="#dc2626" stroke="#fff" stroke-width="1"/>
    <circle cx="524.7" cy="126.8" r="3" fill="#dc2626" stroke="#fff" stroke-width="1"/>
    <circle cx="523.7" cy="120.8" r="3" fill="#dc2626" stroke="#fff" stroke-width="1"/>
    <circle cx="529.0" cy="217.3" r="3" fill="#dc2626" stroke="#fff" stroke-width="1"/>
    <circle cx="374.9" cy="249.7" r="3" fill="#dc2626" stroke="#fff" stroke-width="1"/>
    <circle cx="299.8" cy="249.1" r="3" fill="#dc2626" stroke="#fff" stroke-width="1"/>
    <circle cx="274.0" cy="247.2" r="3" fill="#dc2626" stroke="#fff" stroke-width="1"/>
    <circle cx="257.4" cy="246.2" r="3" fill="#dc2626" stroke="#fff" stroke-width="1"/>
    <circle cx="324.6" cy="250.7" r="3" fill="#dc2626" stroke="#fff" stroke-width="1"/>
    <circle cx="569.5" cy="244.4" r="3" fill="#dc2626" stroke="#fff" stroke-width="1"/>
    <circle cx="459.0" cy="183.2" r="3" fill="#dc2626" stroke="#fff" stroke-width="1"/>
    <circle cx="535.5" cy="231.3" r="3" fill="#dc2626" stroke="#fff" stroke-width="1"/>
    <circle cx="575.2" cy="232.7" r="3" fill="#dc2626" stroke="#fff" stroke-width="1"/>
    <circle cx="574.7" cy="216.7" r="3" fill="#dc2626" stroke="#fff" stroke-width="1"/>
    <circle cx="568.0" cy="207.1" r="3" fill="#dc2626" stroke="#fff" stroke-width="1"/>
    <circle cx="522.6" cy="88.7" r="3" fill="#dc2626" stroke="#fff" stroke-width="1"/>
    <circle cx="522.7" cy="93.2" r="3" fill="#dc2626" stroke="#fff" stroke-width="1"/>
    <circle cx="523.1" cy="101.0" r="3" fill="#dc2626" stroke="#fff" stroke-width="1"/>
    <circle cx="523.4" cy="109.1" r="3" fill="#dc2626" stroke="#fff" stroke-width="1"/>
    <circle cx="523.6" cy="115.5" r="3" fill="#dc2626" stroke="#fff" stroke-width="1"/>
    <circle cx="579.7" cy="409.3" r="3" fill="#dc2626" stroke="#fff" stroke-width="1"/>
    <circle cx="580.4" cy="428.5" r="3" fill="#dc2626" stroke="#fff" stroke-width="1"/>
    <circle cx="569.9" cy="369.4" r="3" fill="#dc2626" stroke="#fff" stroke-width="1"/>
    <circle cx="578.7" cy="385.2" r="3" fill="#dc2626" stroke="#fff" stroke-width="1"/>
    <circle cx="569.7" cy="273.2" r="3" fill="#dc2626" stroke="#fff" stroke-width="1"/>
    <circle cx="443.4" cy="233.0" r="3" fill="#dc2626" stroke="#fff" stroke-width="1"/>
    <circle cx="425.4" cy="232.1" r="3" fill="#dc2626" stroke="#fff" stroke-width="1"/>
    <circle cx="409.9" cy="231.4" r="3" fill="#dc2626" stroke="#fff" stroke-width="1"/>
    <circle cx="377.9" cy="230.0" r="3" fill="#dc2626" stroke="#fff" stroke-width="1"/>
    <circle cx="360.7" cy="229.2" r="3" fill="#dc2626" stroke="#fff" stroke-width="1"/>
    <circle cx="377.3" cy="275.7" r="3" fill="#dc2626" stroke="#fff" stroke-width="1"/>
    <circle cx="358.6" cy="275.9" r="3" fill="#dc2626" stroke="#fff" stroke-width="1"/>
    <circle cx="505.7" cy="267.8" r="3" fill="#dc2626" stroke="#fff" stroke-width="1"/>
    <circle cx="185.4" cy="102.0" r="3" fill="#dc2626" stroke="#fff" stroke-width="1"/>
    <circle cx="221.9" cy="101.0" r="3" fill="#dc2626" stroke="#fff" stroke-width="1"/>
    <circle cx="270.7" cy="103.7" r="3" fill="#dc2626" stroke="#fff" stroke-width="1"/>
    <circle cx="351.5" cy="119.1" r="3" fill="#dc2626" stroke="#fff" stroke-width="1"/>
    <circle cx="380.6" cy="131.2" r="3" fill="#dc2626" stroke="#fff" stroke-width="1"/>
    <circle cx="491.5" cy="199.3" r="3" fill="#dc2626" stroke="#fff" stroke-width="1"/>
    <circle cx="475.9" cy="191.3" r="3" fill="#dc2626" stroke="#fff" stroke-width="1"/>
    <circle cx="439.7" cy="246.4" r="3" fill="#dc2626" stroke="#fff" stroke-width="1"/>
    <circle cx="406.9" cy="246.7" r="3" fill="#dc2626" stroke="#fff" stroke-width="1"/>
    <circle cx="505.6" cy="59.2" r="3" fill="#dc2626" stroke="#fff" stroke-width="1"/>
    <circle cx="508.2" cy="207.2" r="3" fill="#dc2626" stroke="#fff" stroke-width="1"/>
    <circle cx="459.9" cy="233.0" r="3" fill="#dc2626" stroke="#fff" stroke-width="1"/>
    <circle cx="575.9" cy="254.9" r="3" fill="#dc2626" stroke="#fff" stroke-width="1"/>
    <circle cx="577.7" cy="275.7" r="3" fill="#dc2626" stroke="#fff" stroke-width="1"/>
    <circle cx="499.4" cy="55.2" r="3" fill="#dc2626" stroke="#fff" stroke-width="1"/>
    <circle cx="449.7" cy="125.0" r="3" fill="#dc2626" stroke="#fff" stroke-width="1"/>
    <circle cx="437.5" cy="125.1" r="3" fill="#dc2626" stroke="#fff" stroke-width="1"/>
    <circle cx="431.8" cy="122.6" r="3" fill="#dc2626" stroke="#fff" stroke-width="1"/>
    <circle cx="463.1" cy="124.9" r="3" fill="#dc2626" stroke="#fff" stroke-width="1"/>
    <circle cx="473.4" cy="124.8" r="3" fill="#dc2626" stroke="#fff" stroke-width="1"/>
    <circle cx="569.9" cy="330.5" r="3" fill="#dc2626" stroke="#fff" stroke-width="1"/>
    <circle cx="502.9" cy="154.6" r="3" fill="#dc2626" stroke="#fff" stroke-width="1"/>
    <circle cx="578.0" cy="235.3" r="3" fill="#dc2626" stroke="#fff" stroke-width="1"/>
    <circle cx="569.6" cy="351.2" r="3" fill="#dc2626" stroke="#fff" stroke-width="1"/>
    <circle cx="562.1" cy="217.8" r="3" fill="#dc2626" stroke="#fff" stroke-width="1"/>
    <circle cx="564.9" cy="227.0" r="3" fill="#dc2626" stroke="#fff" stroke-width="1"/>
    <circle cx="541.2" cy="282.4" r="3" fill="#dc2626" stroke="#fff" stroke-width="1"/>
    <circle cx="512.3" cy="292.2" r="3" fill="#dc2626" stroke="#fff" stroke-width="1"/>
    <circle cx="444.4" cy="272.8" r="3" fill="#dc2626" stroke="#fff" stroke-width="1"/>
    <circle cx="421.9" cy="149.9" r="3" fill="#dc2626" stroke="#fff" stroke-width="1"/>
    <circle cx="405.0" cy="142.6" r="3" fill="#dc2626" stroke="#fff" stroke-width="1"/>
    <circle cx="577.3" cy="255.2" r="3" fill="#dc2626" stroke="#fff" stroke-width="1"/>
    <circle cx="574.8" cy="222.8" r="3" fill="#dc2626" stroke="#fff" stroke-width="1"/>
    <circle cx="278.8" cy="229.6" r="3" fill="#dc2626" stroke="#fff" stroke-width="1"/>
    <circle cx="446.6" cy="338.4" r="3" fill="#dc2626" stroke="#fff" stroke-width="1"/>
    <circle cx="595.8" cy="370.3" r="3" fill="#dc2626" stroke="#fff" stroke-width="1"/>
    <circle cx="612.0" cy="370.0" r="3" fill="#dc2626" stroke="#fff" stroke-width="1"/>
    <circle cx="514.7" cy="372.0" r="3" fill="#dc2626" stroke="#fff" stroke-width="1"/>
    <circle cx="591.3" cy="350.9" r="3" fill="#dc2626" stroke="#fff" stroke-width="1"/>
    <circle cx="590.1" cy="322.1" r="3" fill="#dc2626" stroke="#fff" stroke-width="1"/>
    <circle cx="570.5" cy="301.0" r="3" fill="#dc2626" stroke="#fff" stroke-width="1"/>
    <circle cx="486.2" cy="305.4" r="3" fill="#dc2626" stroke="#fff" stroke-width="1"/>
    <circle cx="480.2" cy="338.0" r="3" fill="#dc2626" stroke="#fff" stroke-width="1"/>
    <circle cx="412.6" cy="344.4" r="3" fill="#dc2626" stroke="#fff" stroke-width="1"/>
    <circle cx="389.8" cy="361.7" r="3" fill="#dc2626" stroke="#fff" stroke-width="1"/>
    <circle cx="505.0" cy="250.0" r="3" fill="#dc2626" stroke="#fff" stroke-width="1"/>
    <circle cx="473.0" cy="244.6" r="3" fill="#dc2626" stroke="#fff" stroke-width="1"/>
    <circle cx="492.9" cy="272.3" r="3" fill="#dc2626" stroke="#fff" stroke-width="1"/>
    <circle cx="479.3" cy="272.5" r="3" fill="#dc2626" stroke="#fff" stroke-width="1"/>
    <circle cx="462.7" cy="272.6" r="3" fill="#dc2626" stroke="#fff" stroke-width="1"/>
    <circle cx="428.7" cy="272.9" r="3" fill="#dc2626" stroke="#fff" stroke-width="1"/>
    <circle cx="412.8" cy="273.2" r="3" fill="#dc2626" stroke="#fff" stroke-width="1"/>
    <circle cx="398.0" cy="273.3" r="3" fill="#dc2626" stroke="#fff" stroke-width="1"/>
    <circle cx="519.4" cy="78.8" r="3" fill="#dc2626" stroke="#fff" stroke-width="1"/>
    <circle cx="313.0" cy="229.2" r="3" fill="#dc2626" stroke="#fff" stroke-width="1"/>
    <circle cx="295.9" cy="229.4" r="3" fill="#dc2626" stroke="#fff" stroke-width="1"/>
    <circle cx="328.7" cy="229.0" r="3" fill="#dc2626" stroke="#fff" stroke-width="1"/>
    <circle cx="343.6" cy="228.9" r="3" fill="#dc2626" stroke="#fff" stroke-width="1"/>
    <circle cx="515.0" cy="154.4" r="3" fill="#dc2626" stroke="#fff" stroke-width="1"/>
    <circle cx="532.5" cy="164.2" r="3" fill="#dc2626" stroke="#fff" stroke-width="1"/>
    <circle cx="532.7" cy="169.3" r="3" fill="#dc2626" stroke="#fff" stroke-width="1"/>
    <circle cx="496.4" cy="149.9" r="3" fill="#dc2626" stroke="#fff" stroke-width="1"/>
    <circle cx="496.0" cy="140.8" r="3" fill="#dc2626" stroke="#fff" stroke-width="1"/>
    <circle cx="495.7" cy="131.1" r="3" fill="#dc2626" stroke="#fff" stroke-width="1"/>
    <circle cx="488.9" cy="124.7" r="3" fill="#dc2626" stroke="#fff" stroke-width="1"/>
    <circle cx="539.6" cy="198.3" r="3" fill="#dc2626" stroke="#fff" stroke-width="1"/>
    <circle cx="556.9" cy="198.5" r="3" fill="#dc2626" stroke="#fff" stroke-width="1"/>
    <circle cx="581.1" cy="447.5" r="3" fill="#dc2626" stroke="#fff" stroke-width="1"/>
    <circle cx="492.4" cy="232.1" r="3" fill="#dc2626" stroke="#fff" stroke-width="1"/>
  </g>
</svg>