<?xml version="1.0" encoding="UTF-8"?>
<svg width="800" height="600" viewBox="0 0 800 600" 
     xmlns="http://www.w3.org/2000/svg">
  <title>Chicago Subway Map</title>
  <rect width="100%" height="100%" fill="#f8f9fa"/>

  <!-- 지하철 선로 -->
  <g id="subway-lines" stroke="#2563eb" stroke-width="3" fill="none">
    <polyline points="390.1,362.4 390.0,361.7" opacity="0.8"/>
    <polyline points="578.2,244.9 578.0,245.1 577.9,245.3 577.8,245.4 577.5,245.7 577.3,245.9 577.2,246.0 577.1,246.2 577.0,246.3 576.9,246.5 576.9,246.7" opacity="0.8"/>
    <polyline points="124.7,105.2 125.2,105.5 126.1,106.1 126.5,106.4 127.6,107.2 129.7,108.7 130.9,109.5 131.3,109.7 131.9,110.0 132.4,110.2 133.0,110.4 133.6,110.5 134.1,110.6 134.6,110.6 135.2,110.6 135.8,110.6 136.3,110.6 136.7,110.5 137.3,110.4 137.7,110.3 138.2,110.2 139.3,109.8" opacity="0.8"/>
    <polyline points="124.7,105.2 123.8,104.6 123.5,104.4 123.1,104.3 122.5,104.2 122.1,104.2 121.6,104.2 121.2,104.2 120.8,104.3 120.3,104.4 119.8,104.5 119.5,104.6 118.7,105.0 117.8,105.5" opacity="0.8"/>
    <polyline points="112.1,109.4 112.3,109.3 114.7,107.7" opacity="0.8"/>
    <polyline points="167.2,102.4 168.7,102.4" opacity="0.8"/>
    <polyline points="168.8,101.9 167.3,102.0" opacity="0.8"/>
    <polyline points="181.9,101.8 177.2,101.5 176.8,101.5 175.7,101.4 174.8,101.4 174.4,101.4 174.1,101.4 173.6,101.4 172.9,101.4 171.9,101.5 170.5,101.7 168.8,101.9" opacity="0.8"/>
    <polyline points="197.5,101.7 202.8,101.7" opacity="0.8"/>
    <polyline points="586.1,457.6 585.9,457.5 585.8,457.4 585.4,457.3 584.8,457.1 584.0,456.7 582.9,456.0 582.5,455.6" opacity="0.8"/>
    <polyline points="543.6,244.6 548.0,244.6 551.1,244.5" opacity="0.8"/>
    <polyline points="352.1,250.5 351.3,250.8 350.7,251.0 350.1,251.2 349.6,251.4 349.1,251.5 348.6,251.6 348.1,251.7 347.7,251.8 347.2,251.8 346.8,251.8 346.4,251.8 346.1,251.8 345.8,251.8" opacity="0.8"/>
    <polyline points="432.9,163.1 432.9,164.5 433.1,169.4 433.2,169.8 433.5,170.1 433.9,170.4 437.7,172.2" opacity="0.8"/>
    <polyline points="444.3,175.7 444.8,176.1 445.4,176.5 445.9,176.9 446.3,177.1 446.7,177.3" opacity="0.8"/>
    <polyline points="431.7,124.8 431.8,124.8 431.8,124.9 431.9,125.0 431.9,125.0 432.0,125.0 432.2,125.1 432.3,125.1 432.4,125.1 432.5,125.1 432.7,125.1 434.5,125.1" opacity="0.8"/>
    <polyline points="577.6,242.7 577.8,242.7 577.9,242.7 578.0,242.8 578.1,242.8 578.2,242.8 578.2,242.9 578.2,243.0" opacity="0.8"/>
    <polyline points="356.4,228.7 356.2,228.7 355.6,228.7 355.0,228.8 354.2,228.8 353.5,228.8 352.5,228.8" opacity="0.8"/>
    <polyline points="414.5,231.6 411.4,231.5 410.9,231.5 410.7,231.5 410.3,231.5 410.0,231.5 409.7,231.5 409.3,231.4 385.8,230.4 378.9,230.1 377.7,230.0 377.5,230.0 377.1,229.9 376.8,229.9 376.6,229.9 368.4,229.5 363.5,229.3 361.5,229.2 360.8,229.2 360.6,229.2" opacity="0.8"/>
    <polyline points="191.6,101.9 191.9,101.9" opacity="0.8"/>
    <polyline points="190.0,102.0 191.6,101.9" opacity="0.8"/>
    <polyline points="577.4,261.6 577.4,261.8 577.4,262.1 577.4,262.6 577.4,263.4 577.4,264.1 577.4,264.6" opacity="0.8"/>
    <polyline points="455.7,125.0 457.0,125.0" opacity="0.8"/>
    <polyline points="457.0,125.0 459.1,125.0 460.8,125.0 463.3,125.0 464.2,124.9 464.4,124.9 464.6,124.9" opacity="0.8"/>
    <polyline points="395.3,138.2 397.1,139.0 398.6,139.7" opacity="0.8"/>
    <polyline points="393.3,137.5 395.3,138.2" opacity="0.8"/>
    <polyline points="227.2,100.9 229.2,100.8 232.1,100.7 232.9,100.7 234.5,100.7 235.1,100.7 237.4,100.8 238.4,100.8 239.7,100.8 242.7,101.0 245.0,101.2 246.0,101.3 246.4,101.4 248.5,101.6 250.1,101.7 250.9,101.8 251.6,101.9 252.5,102.0 253.6,102.1 254.0,102.2 254.6,102.2 255.1,102.3 255.6,102.4 256.5,102.6 257.4,102.8 259.7,103.2 260.4,103.3 260.8,103.4 261.3,103.4 261.9,103.5 262.4,103.6 263.0,103.6 263.5,103.7 264.2,103.7 265.0,103.7 265.6,103.7 267.1,103.7 268.1,103.7 269.1,103.7 273.2,103.7 274.2,103.7 275.2,103.7 275.9,103.6" opacity="0.8"/>
    <polyline points="419.1,50.5 418.7,50.5 417.8,50.5 417.5,50.5" opacity="0.8"/>
    <polyline points="496.6,53.5 495.9,53.0" opacity="0.8"/>
    <polyline points="494.4,52.1 494.2,52.0 493.2,51.5 492.9,51.4 492.6,51.2 492.4,51.0 492.2,50.9 492.1,50.6" opacity="0.8"/>
    <polyline points="491.9,50.7 492.1,50.9 492.3,51.1 492.5,51.2 492.8,51.5 493.0,51.6 493.1,51.7 493.3,51.9 493.3,52.1 493.4,52.2 493.5,52.5 493.6,52.7 493.7,52.8" opacity="0.8"/>
    <polyline points="493.8,52.6 493.8,52.6 493.8,52.7 493.8,52.7 493.8,52.8 493.9,52.8 493.9,52.9 494.0,53.0 494.2,53.0 494.3,53.0 495.0,53.1 495.3,53.2 495.4,53.2 495.6,53.3 495.8,53.3 496.3,53.5 496.4,53.5 496.6,53.6" opacity="0.8"/>
    <polyline points="569.2,268.1 569.2,268.3 569.2,268.8 569.2,269.2 569.1,269.4 569.1,269.7 569.1,269.8 569.1,270.0 569.1,270.5" opacity="0.8"/>
    <polyline points="572.2,268.1 572.0,268.1 571.9,268.1 571.7,268.1 571.6,268.1 571.5,268.1 571.3,268.2 571.2,268.2 571.0,268.2 570.9,268.2 570.9,268.2 570.8,268.3 570.7,268.3 570.6,268.3 570.5,268.3 570.5,268.4 570.4,268.4 570.3,268.4 570.2,268.4 570.2,268.5 570.1,268.5 570.0,268.6 570.0,268.6 569.9,268.7 569.8,268.7 569.8,268.7 569.7,268.8 569.7,268.8 569.6,268.9 569.6,268.9 569.5,269.0 569.5,269.0 569.5,269.0 569.4,269.1 569.4,269.1 569.4,269.2 569.4,269.3 569.3,269.3 569.3,269.4 569.3,269.5 569.3,269.5 569.3,269.6 569.3,269.7 569.2,269.8 569.2,269.9 569.3,270.3 569.3,271.0 569.3,271.3 569.3,271.7 569.3,272.0 569.3,272.2" opacity="0.8"/>
    <polyline points="570.4,276.5 570.4,276.0 570.4,275.6 570.3,275.2 570.2,274.9 570.2,274.7 570.2,274.5 570.1,274.2 570.0,273.8 569.9,273.5 569.8,273.3 569.8,273.2 569.8,273.1 569.7,273.0 569.7,272.9 569.6,272.7 569.6,272.4 569.5,272.3 569.5,272.1" opacity="0.8"/>
    <polyline points="574.7,268.1 575.2,268.1 575.5,268.1 575.7,268.1 575.8,268.1 576.0,268.1 576.1,268.0 576.1,268.0 576.3,268.0 576.4,268.0 576.5,268.0 576.6,267.9 576.7,267.9 576.8,267.9 576.9,267.8 577.0,267.8 577.1,267.7 577.2,267.7 577.2,267.7 577.2,267.6 577.3,267.6 577.4,267.6 577.4,267.5 577.5,267.4 577.5,267.4 577.6,267.3 577.6,267.2 577.6,267.1 577.7,267.1 577.7,267.0 577.7,266.9 577.7,266.8 577.7,266.7 577.7,266.6 577.7,266.4" opacity="0.8"/>
    <polyline points="589.9,316.1 589.9,316.0 589.8,315.9 589.7,315.7 589.7,315.7 589.6,315.6 589.5,315.5 589.4,315.5 589.2,315.4 589.0,315.4 588.8,315.4 588.5,315.4 586.5,315.4 584.0,315.4 580.8,315.4 580.5,315.4 580.2,315.4 579.9,315.4 579.6,315.4 579.4,315.3 579.3,315.2 579.2,315.1 579.1,315.0 579.0,314.8 579.0,314.7" opacity="0.8"/>
    <polyline points="576.7,257.6 576.4,257.3 576.3,257.1 576.2,256.8 576.0,255.9" opacity="0.8"/>
    <polyline points="577.1,231.1 577.3,231.1 577.4,231.1 577.5,231.1 577.6,231.1 577.7,231.2 577.8,231.2 577.8,231.3 577.9,231.4 577.9,231.5 577.9,231.6 577.9,231.7 577.9,231.7" opacity="0.8"/>
    <polyline points="406.0,143.0 406.4,143.2 407.0,143.5" opacity="0.8"/>
    <polyline points="401.8,141.2 403.4,141.9" opacity="0.8"/>
    <polyline points="491.5,124.7 491.6,124.7 491.8,124.7 491.9,124.7 492.2,124.7 492.5,124.7 492.7,124.7 492.9,124.8 493.0,124.8 493.2,124.8 493.4,124.9 493.5,124.9 493.7,125.0 493.8,125.0 493.8,125.0 494.0,125.1 494.1,125.1 494.3,125.2 494.4,125.3 494.5,125.4 494.7,125.5 494.8,125.6 494.8,125.6 494.9,125.6 494.9,125.7 495.0,125.8 495.1,125.9 495.2,126.0 495.2,126.1 495.3,126.2 495.3,126.3 495.4,126.3 495.4,126.4 495.4,126.5 495.4,126.6 495.4,126.7 495.5,126.8 495.5,126.9 495.5,127.0" opacity="0.8"/>
    <polyline points="422.7,150.8 423.1,151.2 424.0,152.5 424.5,153.1 425.3,154.2 425.6,154.7 426.0,155.1 426.5,155.5 426.9,155.8 427.3,156.0 427.8,156.3 428.3,156.6 428.7,156.8" opacity="0.8"/>
    <polyline points="407.0,143.5 407.9,143.9" opacity="0.8"/>
    <polyline points="398.6,139.7 399.6,140.2" opacity="0.8"/>
    <polyline points="399.6,140.2 401.8,141.2" opacity="0.8"/>
    <polyline points="388.9,135.5 389.9,136.0" opacity="0.8"/>
    <polyline points="389.9,136.0 393.3,137.5" opacity="0.8"/>
    <polyline points="181.9,101.8 182.8,101.8" opacity="0.8"/>
    <polyline points="181.9,102.2 182.7,102.2" opacity="0.8"/>
    <polyline points="182.7,102.2 183.6,102.1 186.8,102.1 187.5,102.0 188.0,102.0 189.0,102.0 190.0,102.0" opacity="0.8"/>
  </g>

  <!-- 지하철 역 -->
  <g id="subway-stations">
    <circle cx="511.1" cy="69.7" r="4" fill="#dc2626" stroke="#fff" stroke-width="2"/>
    <text x="511.1" y="61.7" text-anchor="middle" font-size="10" fill="#374151">Morse</text>
    <circle cx="529.1" cy="141.2" r="4" fill="#dc2626" stroke="#fff" stroke-width="2"/>
    <text x="529.1" y="133.2" text-anchor="middle" font-size="10" fill="#374151">Sheridan</text>
    <circle cx="531.9" cy="149.6" r="4" fill="#dc2626" stroke="#fff" stroke-width="2"/>
    <text x="531.9" y="141.6" text-anchor="middle" font-size="10" fill="#374151">Addison</text>
    <circle cx="532.4" cy="159.8" r="4" fill="#dc2626" stroke="#fff" stroke-width="2"/>
    <text x="532.4" y="151.8" text-anchor="middle" font-size="10" fill="#374151">Belmont</text>
    <circle cx="533.6" cy="188.2" r="4" fill="#dc2626" stroke="#fff" stroke-width="2"/>
    <text x="533.6" y="180.2" text-anchor="middle" font-size="10" fill="#374151">Armitage</text>
    <circle cx="538.5" cy="244.6" r="4" fill="#dc2626" stroke="#fff" stroke-width="2"/>
    <text x="538.5" y="236.6" text-anchor="middle" font-size="10" fill="#374151">UIC-Halsted</text>
    <circle cx="522.3" cy="244.1" r="4" fill="#dc2626" stroke="#fff" stroke-width="2"/>
    <text x="522.3" y="236.1" text-anchor="middle" font-size="10" fill="#374151">Racine</text>
    <circle cx="498.8" cy="244.4" r="4" fill="#dc2626" stroke="#fff" stroke-width="2"/>
    <circle cx="553.1" cy="244.5" r="4" fill="#dc2626" stroke="#fff" stroke-width="2"/>
    <text x="553.1" y="236.5" text-anchor="middle" font-size="10" fill="#374151">Clinton</text>
    <circle cx="541.6" cy="223.6" r="4" fill="#dc2626" stroke="#fff" stroke-width="2"/>
    <text x="541.6" y="215.6" text-anchor="middle" font-size="10" fill="#374151">Grand</text>
    <circle cx="432.9" cy="160.6" r="4" fill="#dc2626" stroke="#fff" stroke-width="2"/>
    <text x="432.9" y="152.6" text-anchor="middle" font-size="10" fill="#374151">Belmont</text>
    <circle cx="438.4" cy="172.4" r="4" fill="#dc2626" stroke="#fff" stroke-width="2"/>
    <text x="438.4" y="164.4" text-anchor="middle" font-size="10" fill="#374151">Logan Square</text>
    <circle cx="575.7" cy="247.7" r="4" fill="#dc2626" stroke="#fff" stroke-width="2"/>
    <text x="575.7" y="239.7" text-anchor="middle" font-size="10" fill="#374151">Harrison</text>
    <circle cx="575.1" cy="231.1" r="4" fill="#dc2626" stroke="#fff" stroke-width="2"/>
    <text x="575.1" y="223.1" text-anchor="middle" font-size="10" fill="#374151">State/Lake</text>
    <circle cx="575.5" cy="241.0" r="4" fill="#dc2626" stroke="#fff" stroke-width="2"/>
    <text x="575.5" y="233.0" text-anchor="middle" font-size="10" fill="#374151">Jackson</text>
    <circle cx="575.4" cy="237.6" r="4" fill="#dc2626" stroke="#fff" stroke-width="2"/>
    <text x="575.4" y="229.6" text-anchor="middle" font-size="10" fill="#374151">Monroe</text>
    <circle cx="565.2" cy="235.5" r="4" fill="#dc2626" stroke="#fff" stroke-width="2"/>
    <text x="565.2" y="227.5" text-anchor="middle" font-size="10" fill="#374151">Washington/Wells</text>
    <circle cx="565.3" cy="240.3" r="4" fill="#dc2626" stroke="#fff" stroke-width="2"/>
    <text x="565.3" y="232.3" text-anchor="middle" font-size="10" fill="#374151">Quincy</text>
    <circle cx="569.3" cy="242.8" r="4" fill="#dc2626" stroke="#fff" stroke-width="2"/>
    <text x="569.3" y="234.8" text-anchor="middle" font-size="10" fill="#374151">LaSalle/Van Buren</text>
    <circle cx="573.4" cy="242.7" r="4" fill="#dc2626" stroke="#fff" stroke-width="2"/>
    <circle cx="578.2" cy="239.1" r="4" fill="#dc2626" stroke="#fff" stroke-width="2"/>
    <text x="578.2" y="231.1" text-anchor="middle" font-size="10" fill="#374151">Adams/Wabash</text>
    <circle cx="569.3" cy="231.1" r="4" fill="#dc2626" stroke="#fff" stroke-width="2"/>
    <text x="569.3" y="223.1" text-anchor="middle" font-size="10" fill="#374151">Clark/Lake</text>
    <circle cx="552.6" cy="231.1" r="4" fill="#dc2626" stroke="#fff" stroke-width="2"/>
    <text x="552.6" y="223.1" text-anchor="middle" font-size="10" fill="#374151">Clinton</text>
    <circle cx="510.6" cy="231.6" r="4" fill="#dc2626" stroke="#fff" stroke-width="2"/>
    <text x="510.6" y="223.6" text-anchor="middle" font-size="10" fill="#374151">Ashland</text>
    <circle cx="578.6" cy="301.9" r="4" fill="#dc2626" stroke="#fff" stroke-width="2"/>
    <circle cx="572.5" cy="234.4" r="4" fill="#dc2626" stroke="#fff" stroke-width="2"/>
    <text x="572.5" y="226.4" text-anchor="middle" font-size="10" fill="#374151">Washington</text>
    <circle cx="572.7" cy="237.7" r="4" fill="#dc2626" stroke="#fff" stroke-width="2"/>
    <text x="572.7" y="229.7" text-anchor="middle" font-size="10" fill="#374151">Monroe</text>
    <circle cx="572.8" cy="241.0" r="4" fill="#dc2626" stroke="#fff" stroke-width="2"/>
    <text x="572.8" y="233.0" text-anchor="middle" font-size="10" fill="#374151">Jackson</text>
    <circle cx="533.3" cy="179.0" r="4" fill="#dc2626" stroke="#fff" stroke-width="2"/>
    <text x="533.3" y="171.0" text-anchor="middle" font-size="10" fill="#374151">Fullerton</text>
    <circle cx="547.2" cy="371.9" r="4" fill="#dc2626" stroke="#fff" stroke-width="2"/>
    <text x="547.2" y="363.9" text-anchor="middle" font-size="10" fill="#374151">Halsted</text>
    <circle cx="590.9" cy="341.7" r="4" fill="#dc2626" stroke="#fff" stroke-width="2"/>
    <text x="590.9" y="333.7" text-anchor="middle" font-size="10" fill="#374151">51st</text>
    <circle cx="590.4" cy="331.8" r="4" fill="#dc2626" stroke="#fff" stroke-width="2"/>
    <text x="590.4" y="323.8" text-anchor="middle" font-size="10" fill="#374151">47th</text>
    <circle cx="586.3" cy="315.4" r="4" fill="#dc2626" stroke="#fff" stroke-width="2"/>
    <text x="586.3" y="307.4" text-anchor="middle" font-size="10" fill="#374151">Indiana</text>
    <circle cx="524.7" cy="126.8" r="4" fill="#dc2626" stroke="#fff" stroke-width="2"/>
    <text x="524.7" y="118.8" text-anchor="middle" font-size="10" fill="#374151">Wilson</text>
    <circle cx="523.7" cy="120.8" r="4" fill="#dc2626" stroke="#fff" stroke-width="2"/>
    <text x="523.7" y="112.8" text-anchor="middle" font-size="10" fill="#374151">Lawrence</text>
    <circle cx="529.0" cy="217.3" r="4" fill="#dc2626" stroke="#fff" stroke-width="2"/>
    <text x="529.0" y="209.3" text-anchor="middle" font-size="10" fill="#374151">Chicago</text>
    <circle cx="374.9" cy="249.7" r="4" fill="#dc2626" stroke="#fff" stroke-width="2"/>
    <text x="374.9" y="241.7" text-anchor="middle" font-size="10" fill="#374151">Cicero</text>
    <circle cx="299.8" cy="249.1" r="4" fill="#dc2626" stroke="#fff" stroke-width="2"/>
    <text x="299.8" y="241.1" text-anchor="middle" font-size="10" fill="#374151">Oak Park</text>
    <circle cx="274.0" cy="247.2" r="4" fill="#dc2626" stroke="#fff" stroke-width="2"/>
    <text x="274.0" y="239.2" text-anchor="middle" font-size="10" fill="#374151">Harlem</text>
    <circle cx="257.4" cy="246.2" r="4" fill="#dc2626" stroke="#fff" stroke-width="2"/>
    <text x="257.4" y="238.2" text-anchor="middle" font-size="10" fill="#374151">Forest Park</text>
    <circle cx="324.6" cy="250.7" r="4" fill="#dc2626" stroke="#fff" stroke-width="2"/>
    <text x="324.6" y="242.7" text-anchor="middle" font-size="10" fill="#374151">Austin</text>
    <circle cx="569.5" cy="244.4" r="4" fill="#dc2626" stroke="#fff" stroke-width="2"/>
    <text x="569.5" y="236.4" text-anchor="middle" font-size="10" fill="#374151">LaSalle</text>
    <circle cx="459.0" cy="183.2" r="4" fill="#dc2626" stroke="#fff" stroke-width="2"/>
    <text x="459.0" y="175.2" text-anchor="middle" font-size="10" fill="#374151">California</text>
    <circle cx="535.5" cy="231.3" r="4" fill="#dc2626" stroke="#fff" stroke-width="2"/>
    <text x="535.5" y="223.3" text-anchor="middle" font-size="10" fill="#374151">Morgan</text>
    <circle cx="575.2" cy="232.7" r="4" fill="#dc2626" stroke="#fff" stroke-width="2"/>
    <text x="575.2" y="224.7" text-anchor="middle" font-size="10" fill="#374151">Lake</text>
    <circle cx="574.7" cy="216.7" r="4" fill="#dc2626" stroke="#fff" stroke-width="2"/>
    <text x="574.7" y="208.7" text-anchor="middle" font-size="10" fill="#374151">Chicago</text>
    <circle cx="568.0" cy="207.1" r="4" fill="#dc2626" stroke="#fff" stroke-width="2"/>
    <text x="568.0" y="199.1" text-anchor="middle" font-size="10" fill="#374151">Clark/Division</text>
    <circle cx="522.6" cy="88.7" r="4" fill="#dc2626" stroke="#fff" stroke-width="2"/>
    <text x="522.6" y="80.7" text-anchor="middle" font-size="10" fill="#374151">Granville</text>
    <circle cx="522.7" cy="93.2" r="4" fill="#dc2626" stroke="#fff" stroke-width="2"/>
    <text x="522.7" y="85.2" text-anchor="middle" font-size="10" fill="#374151">Thorndale</text>
    <circle cx="523.1" cy="101.0" r="4" fill="#dc2626" stroke="#fff" stroke-width="2"/>
    <text x="523.1" y="93.0" text-anchor="middle" font-size="10" fill="#374151">Bryn Mawr</text>
    <circle cx="523.4" cy="109.1" r="4" fill="#dc2626" stroke="#fff" stroke-width="2"/>
    <text x="523.4" y="101.1" text-anchor="middle" font-size="10" fill="#374151">Berwyn</text>
    <circle cx="523.6" cy="115.5" r="4" fill="#dc2626" stroke="#fff" stroke-width="2"/>
    <text x="523.6" y="107.5" text-anchor="middle" font-size="10" fill="#374151">Argyle</text>
    <circle cx="579.7" cy="409.3" r="4" fill="#dc2626" stroke="#fff" stroke-width="2"/>
    <text x="579.7" y="401.3" text-anchor="middle" font-size="10" fill="#374151">79th</text>
    <circle cx="580.4" cy="428.5" r="4" fill="#dc2626" stroke="#fff" stroke-width="2"/>
    <text x="580.4" y="420.5" text-anchor="middle" font-size="10" fill="#374151">87th</text>
    <circle cx="569.9" cy="369.4" r="4" fill="#dc2626" stroke="#fff" stroke-width="2"/>
    <text x="569.9" y="361.4" text-anchor="middle" font-size="10" fill="#374151">63rd</text>
    <circle cx="578.7" cy="385.2" r="4" fill="#dc2626" stroke="#fff" stroke-width="2"/>
    <text x="578.7" y="377.2" text-anchor="middle" font-size="10" fill="#374151">69th</text>
    <circle cx="569.7" cy="273.2" r="4" fill="#dc2626" stroke="#fff" stroke-width="2"/>
    <text x="569.7" y="265.2" text-anchor="middle" font-size="10" fill="#374151">Cermak-Chinatown</text>
    <circle cx="443.4" cy="233.0" r="4" fill="#dc2626" stroke="#fff" stroke-width="2"/>
    <text x="443.4" y="225.0" text-anchor="middle" font-size="10" fill="#374151">Kedzie</text>
    <circle cx="425.4" cy="232.1" r="4" fill="#dc2626" stroke="#fff" stroke-width="2"/>
    <circle cx="409.9" cy="231.4" r="4" fill="#dc2626" stroke="#fff" stroke-width="2"/>
    <text x="409.9" y="223.4" text-anchor="middle" font-size="10" fill="#374151">Pulaski</text>
    <circle cx="377.9" cy="230.0" r="4" fill="#dc2626" stroke="#fff" stroke-width="2"/>
    <text x="377.9" y="222.0" text-anchor="middle" font-size="10" fill="#374151">Cicero</text>
    <circle cx="360.7" cy="229.2" r="4" fill="#dc2626" stroke="#fff" stroke-width="2"/>
    <text x="360.7" y="221.2" text-anchor="middle" font-size="10" fill="#374151">Laramie</text>
    <circle cx="377.3" cy="275.7" r="4" fill="#dc2626" stroke="#fff" stroke-width="2"/>
    <text x="377.3" y="267.7" text-anchor="middle" font-size="10" fill="#374151">Cicero</text>
    <circle cx="358.6" cy="275.9" r="4" fill="#dc2626" stroke="#fff" stroke-width="2"/>
    <text x="358.6" y="267.9" text-anchor="middle" font-size="10" fill="#374151">54th/Cermak</text>
    <circle cx="505.7" cy="267.8" r="4" fill="#dc2626" stroke="#fff" stroke-width="2"/>
    <text x="505.7" y="259.8" text-anchor="middle" font-size="10" fill="#374151">18th</text>
    <circle cx="185.4" cy="102.0" r="4" fill="#dc2626" stroke="#fff" stroke-width="2"/>
    <text x="185.4" y="94.0" text-anchor="middle" font-size="10" fill="#374151">Rosemont</text>
    <circle cx="221.9" cy="101.0" r="4" fill="#dc2626" stroke="#fff" stroke-width="2"/>
    <text x="221.9" y="93.0" text-anchor="middle" font-size="10" fill="#374151">Cumberland</text>
    <circle cx="270.7" cy="103.7" r="4" fill="#dc2626" stroke="#fff" stroke-width="2"/>
    <text x="270.7" y="95.7" text-anchor="middle" font-size="10" fill="#374151">Harlem</text>
    <circle cx="351.5" cy="119.1" r="4" fill="#dc2626" stroke="#fff" stroke-width="2"/>
    <text x="351.5" y="111.1" text-anchor="middle" font-size="10" fill="#374151">Jefferson Park</text>
    <circle cx="380.6" cy="131.2" r="4" fill="#dc2626" stroke="#fff" stroke-width="2"/>
    <text x="380.6" y="123.2" text-anchor="middle" font-size="10" fill="#374151">Montrose</text>
    <circle cx="491.5" cy="199.3" r="4" fill="#dc2626" stroke="#fff" stroke-width="2"/>
    <text x="491.5" y="191.3" text-anchor="middle" font-size="10" fill="#374151">Damen</text>
    <circle cx="475.9" cy="191.3" r="4" fill="#dc2626" stroke="#fff" stroke-width="2"/>
    <text x="475.9" y="183.3" text-anchor="middle" font-size="10" fill="#374151">Western</text>
    <circle cx="439.7" cy="246.4" r="4" fill="#dc2626" stroke="#fff" stroke-width="2"/>
    <text x="439.7" y="238.4" text-anchor="middle" font-size="10" fill="#374151">Kedzie-Homan</text>
    <circle cx="406.9" cy="246.7" r="4" fill="#dc2626" stroke="#fff" stroke-width="2"/>
    <text x="406.9" y="238.7" text-anchor="middle" font-size="10" fill="#374151">Pulaski</text>
    <circle cx="505.6" cy="59.2" r="4" fill="#dc2626" stroke="#fff" stroke-width="2"/>
    <text x="505.6" y="51.2" text-anchor="middle" font-size="10" fill="#374151">Jarvis</text>
    <circle cx="508.2" cy="207.2" r="4" fill="#dc2626" stroke="#fff" stroke-width="2"/>
    <text x="508.2" y="199.2" text-anchor="middle" font-size="10" fill="#374151">Division</text>
    <circle cx="459.9" cy="233.0" r="4" fill="#dc2626" stroke="#fff" stroke-width="2"/>
    <text x="459.9" y="225.0" text-anchor="middle" font-size="10" fill="#374151">California</text>
    <circle cx="575.9" cy="254.9" r="4" fill="#dc2626" stroke="#fff" stroke-width="2"/>
    <text x="575.9" y="246.9" text-anchor="middle" font-size="10" fill="#374151">Roosevelt</text>
    <circle cx="577.7" cy="275.7" r="4" fill="#dc2626" stroke="#fff" stroke-width="2"/>
    <circle cx="499.4" cy="55.2" r="4" fill="#dc2626" stroke="#fff" stroke-width="2"/>
    <text x="499.4" y="47.2" text-anchor="middle" font-size="10" fill="#374151">Howard</text>
    <circle cx="449.7" cy="125.0" r="4" fill="#dc2626" stroke="#fff" stroke-width="2"/>
    <text x="449.7" y="117.0" text-anchor="middle" font-size="10" fill="#374151">Francisco</text>
    <circle cx="437.5" cy="125.1" r="4" fill="#dc2626" stroke="#fff" stroke-width="2"/>
    <text x="437.5" y="117.1" text-anchor="middle" font-size="10" fill="#374151">Kedzie</text>
    <circle cx="431.8" cy="122.6" r="4" fill="#dc2626" stroke="#fff" stroke-width="2"/>
    <text x="431.8" y="114.6" text-anchor="middle" font-size="10" fill="#374151">Kimball</text>
    <circle cx="463.1" cy="124.9" r="4" fill="#dc2626" stroke="#fff" stroke-width="2"/>
    <text x="463.1" y="116.9" text-anchor="middle" font-size="10" fill="#374151">Rockwell</text>
    <circle cx="473.4" cy="124.8" r="4" fill="#dc2626" stroke="#fff" stroke-width="2"/>
    <text x="473.4" y="116.8" text-anchor="middle" font-size="10" fill="#374151">Western</text>
    <circle cx="569.9" cy="330.5" r="4" fill="#dc2626" stroke="#fff" stroke-width="2"/>
    <text x="569.9" y="322.5" text-anchor="middle" font-size="10" fill="#374151">47th</text>
    <circle cx="502.9" cy="154.6" r="4" fill="#dc2626" stroke="#fff" stroke-width="2"/>
    <text x="502.9" y="146.6" text-anchor="middle" font-size="10" fill="#374151">Paulina</text>
    <circle cx="578.0" cy="235.3" r="4" fill="#dc2626" stroke="#fff" stroke-width="2"/>
    <text x="578.0" y="227.3" text-anchor="middle" font-size="10" fill="#374151">Washington/Wabash</text>
    <circle cx="569.6" cy="351.2" r="4" fill="#dc2626" stroke="#fff" stroke-width="2"/>
    <text x="569.6" y="343.2" text-anchor="middle" font-size="10" fill="#374151">Garfield</text>
    <circle cx="562.1" cy="217.8" r="4" fill="#dc2626" stroke="#fff" stroke-width="2"/>
    <text x="562.1" y="209.8" text-anchor="middle" font-size="10" fill="#374151">Chicago</text>
    <circle cx="564.9" cy="227.0" r="4" fill="#dc2626" stroke="#fff" stroke-width="2"/>
    <text x="564.9" y="219.0" text-anchor="middle" font-size="10" fill="#374151">Merchandise Mart</text>
    <circle cx="541.2" cy="282.4" r="4" fill="#dc2626" stroke="#fff" stroke-width="2"/>
    <text x="541.2" y="274.4" text-anchor="middle" font-size="10" fill="#374151">Halsted</text>
    <circle cx="512.3" cy="292.2" r="4" fill="#dc2626" stroke="#fff" stroke-width="2"/>
    <text x="512.3" y="284.2" text-anchor="middle" font-size="10" fill="#374151">Ashland</text>
    <circle cx="444.4" cy="272.8" r="4" fill="#dc2626" stroke="#fff" stroke-width="2"/>
    <text x="444.4" y="264.8" text-anchor="middle" font-size="10" fill="#374151">Kedzie</text>
    <circle cx="421.9" cy="149.9" r="4" fill="#dc2626" stroke="#fff" stroke-width="2"/>
    <text x="421.9" y="141.9" text-anchor="middle" font-size="10" fill="#374151">Addison</text>
    <circle cx="405.0" cy="142.6" r="4" fill="#dc2626" stroke="#fff" stroke-width="2"/>
    <text x="405.0" y="134.6" text-anchor="middle" font-size="10" fill="#374151">Irving Park</text>
    <circle cx="577.3" cy="255.2" r="4" fill="#dc2626" stroke="#fff" stroke-width="2"/>
    <text x="577.3" y="247.2" text-anchor="middle" font-size="10" fill="#374151">Roosevelt</text>
    <circle cx="574.8" cy="222.8" r="4" fill="#dc2626" stroke="#fff" stroke-width="2"/>
    <text x="574.8" y="214.8" text-anchor="middle" font-size="10" fill="#374151">Grand</text>
    <circle cx="278.8" cy="229.6" r="4" fill="#dc2626" stroke="#fff" stroke-width="2"/>
    <text x="278.8" y="221.6" text-anchor="middle" font-size="10" fill="#374151">Harlem/Lake</text>
    <circle cx="446.6" cy="338.4" r="4" fill="#dc2626" stroke="#fff" stroke-width="2"/>
    <text x="446.6" y="330.4" text-anchor="middle" font-size="10" fill="#374151">Kedzie</text>
  </g>
</svg>