<?xml version="1.0" encoding="UTF-8"?>
<svg width="800" height="600" xmlns="http://www.w3.org/2000/svg">
  <title>Chongqing Subway Map</title>
  <rect width="100%" height="100%" fill="#f8f9fa"/>

  <!-- 지하철 선로 -->
  <g stroke="#2563eb" stroke-width="2" fill="none" opacity="0.8">
    <polyline points="734.6,325.1 740.9,326.3 744.5,326.9 749.1,327.7 752.0,328.3 755.8,329.0 758.6,329.5 761.4,330.0 763.6,330.5 766.2,331.0 769.6,332.0 771.6,332.7 774.0,333.8 775.1,334.5 776.0,335.0 778.0,336.5 779.5,338.1 780.3,339.1 780.8,339.9 781.1,340.9 781.3,341.8 781.3,342.9 781.1,344.4 780.7,345.8 780.2,346.7 779.3,347.9 778.5,348.9 777.2,350.2 773.0,354.9"/>
    <polyline points="773.0,354.9 771.5,356.4 767.9,360.1 767.2,361.0 766.3,362.2 764.3,365.6 762.8,368.0 762.2,368.9 761.6,369.6 760.5,370.7 759.1,371.7 755.9,374.1 753.0,376.1 742.7,383.5 737.3,387.4 733.9,389.8 732.0,391.1 730.1,392.4 725.3,396.0 721.6,398.8 717.3,402.4 710.2,408.4 704.6,413.1 703.2,414.3"/>
    <polyline points="471.0,251.9 502.5,256.4"/>
    <polyline points="426.0,226.7 427.6,228.3 428.5,229.2 431.3,232.6 440.4,243.6"/>
    <polyline points="440.4,243.6 441.2,244.6 442.1,245.3 443.2,246.0 445.9,246.8 452.1,248.2 454.3,248.7 457.0,249.3 462.1,250.5 466.5,251.3 471.0,251.9"/>
    <polyline points="88.5,90.1 90.7,89.9 92.0,89.8"/>
    <polyline points="89.2,89.8 90.6,89.8 92.0,89.8 92.9,89.8 93.7,89.9 94.3,90.0 94.9,90.1 95.8,90.3 97.0,90.7"/>
    <polyline points="82.7,89.6 82.8,89.6 83.5,89.8 84.7,90.0 85.3,90.1 86.0,90.1 86.6,90.2 87.2,90.1 88.5,90.1"/>
    <polyline points="83.0,89.4 83.1,89.5 83.5,89.6 84.1,89.8 84.8,89.9 85.5,90.0 86.1,90.1 87.1,90.1 88.5,90.1"/>
    <polyline points="84.2,88.8 84.3,88.9 84.9,89.1 85.5,89.3 86.2,89.5 87.0,89.7 87.7,89.7 88.3,89.8 89.2,89.8"/>
    <polyline points="84.0,88.9 84.1,89.0 84.7,89.2 85.3,89.4 86.1,89.6 86.8,89.7 87.4,89.8 88.1,89.8 88.6,89.8 89.2,89.8"/>
    <polyline points="83.8,89.0 83.9,89.1 84.5,89.3 85.2,89.5 86.0,89.7 86.6,89.8 87.3,89.9 88.3,89.9 88.8,89.9 89.4,89.9 90.6,89.8"/>
    <polyline points="554.9,44.7 551.2,45.1 549.8,45.3 547.9,45.6 546.4,45.9 545.1,46.2 543.4,46.7 541.9,47.1 540.6,47.6 539.2,48.1 538.0,48.6 536.8,49.3 535.6,50.0 532.2,52.1 531.0,52.8 526.6,55.6 526.0,56.0 525.1,56.5 524.2,56.9 522.8,57.4 521.3,57.9 519.9,58.3 518.0,58.7 516.3,58.9 514.2,59.2 511.8,59.3 508.8,59.5 504.1,59.9 501.5,60.1 498.8,60.3 496.0,60.7 493.5,61.0 491.2,61.5 467.7,67.7 457.6,70.5 452.2,72.1 447.1,74.0 442.7,76.1 434.1,82.4 429.4,85.6 426.5,87.0 421.9,88.4 391.1,95.7 388.9,96.2 387.7,96.5 386.3,96.9 384.9,97.3 372.3,100.7 355.0,105.3 340.6,108.7 327.6,112.5 320.6,116.9 318.5,120.3 317.9,123.3 317.6,127.5"/>
    <polyline points="391.3,192.6 390.3,192.3 389.0,191.9 387.9,191.8 386.5,191.6 385.1,191.5 383.8,191.4 379.6,191.4 373.0,191.3 369.8,191.3 367.6,191.3 365.9,191.4 363.7,191.5 356.3,191.9 336.1,193.0 332.0,193.2 329.6,193.3 321.1,193.8 317.4,193.9 313.9,194.0 310.0,193.8 307.0,193.4 304.1,192.9 294.4,191.2 288.1,190.0 282.8,188.8 278.1,187.1 274.0,185.6 270.7,184.6 267.1,184.2 262.7,184.0 258.2,183.8 253.9,183.8 249.3,183.9 246.6,184.3 243.1,184.8 240.0,185.5 237.2,186.2 234.6,187.0 231.2,187.8 229.3,188.3 227.1,188.7 224.6,189.2 222.1,189.6 218.0,190.3 214.6,190.9 212.1,191.2 209.4,191.6 200.8,192.8 192.5,193.9 184.5,195.0 182.3,195.3 180.2,195.5 178.4,195.6 176.8,195.7 173.3,195.8 169.6,195.9 165.8,196.1 158.3,196.1 155.3,196.1 152.4,196.2 143.4,196.2 122.1,196.5 118.4,196.4 115.1,196.2 113.0,196.1 111.1,195.9 109.1,195.7 107.2,195.4 105.2,194.9 103.6,194.4 102.7,194.1 101.7,193.6 100.8,193.2 99.9,192.7 98.4,191.5 97.9,190.8 97.4,190.2 97.1,189.4 96.9,188.9 96.5,186.2 96.4,183.5"/>
    <polyline points="211.6,341.2 213.8,341.2 260.4,341.0"/>
    <polyline points="426.9,345.4 424.8,345.8 422.2,346.2 418.0,346.4 413.6,346.2 408.3,345.7 403.3,345.3 397.9,345.2 391.8,345.4 351.5,347.1 343.1,347.4 339.0,347.5 334.8,347.5 330.2,347.3 322.6,346.7 306.5,344.9"/>
    <polyline points="392.6,296.4 393.8,298.8 400.7,311.2 401.7,312.8 402.1,314.3 401.9,316.4 401.0,318.1 396.5,322.9 389.1,329.2 387.4,330.3 385.4,331.1 382.6,331.9 379.9,332.2 377.2,332.6 374.0,332.7 367.1,332.8 357.1,332.9 354.1,333.1 348.4,333.9 343.8,335.2 340.8,336.8 339.3,338.6 338.7,341.1 339.2,348.7 340.5,356.0 343.0,366.3 343.6,367.9 344.7,371.1 344.9,375.5"/>
    <polyline points="77.5,266.4 77.7,268.7 77.9,270.2 79.6,272.7 81.7,274.7 85.2,276.5 94.9,279.4 98.2,281.2 100.5,283.1 101.2,283.9 101.8,285.0 101.9,288.9 101.8,291.8 101.3,292.9 99.3,295.7 97.1,298.1 92.6,301.2 88.7,303.5 83.9,305.9 79.0,307.2 73.0,308.0 63.0,309.3 38.0,311.7 35.5,312.0 33.8,312.2 32.2,312.6 30.9,313.0 29.6,313.6 28.0,314.7 19.5,321.0 17.2,322.3 11.8,324.8 7.8,326.3 5.1,327.6 2.2,329.0 -0.8,331.2 -4.3,333.8 -7.3,335.7 -9.4,336.5 -11.8,337.2 -15.1,337.7 -20.0,338.2 -27.3,339.1 -39.8,340.7 -43.9,341.7 -48.4,343.8 -52.1,345.7 -57.7,350.0 -62.2,352.1 -67.2,353.2 -73.7,353.9 -80.0,354.5 -87.3,354.9 -90.0,355.0 -92.7,355.2 -95.4,355.3 -98.1,355.6 -107.4,356.1 -109.1,356.2 -112.7,356.4 -127.5,356.4 -131.8,356.6 -133.9,356.7 -139.4,357.2 -143.3,358.0 -145.4,358.5 -147.1,359.3 -148.5,360.3 -149.2,361.4 -150.2,362.9 -152.7,368.5 -153.5,373.8 -155.1,384.3"/>
    <polyline points="95.8,169.2 96.2,161.1 96.6,148.7 96.7,140.4 97.2,139.0 98.2,137.6 100.0,136.2 102.3,135.1 105.2,134.0 112.2,132.3 115.2,131.8 119.7,131.1 124.0,130.7 130.1,130.4 131.2,130.4 132.2,130.2 133.2,130.0 134.1,129.7 135.0,129.3 135.7,128.9 136.4,127.8 136.7,126.3 136.9,123.2 137.2,120.3 137.3,119.0 137.3,117.6 137.4,115.3 137.6,108.5 137.7,107.9 138.1,107.4 138.6,106.9 139.3,106.5 140.2,106.2 141.3,105.9 143.9,105.5 149.4,105.0 152.5,104.8 192.8,104.8 197.1,104.7 219.4,103.3 221.2,103.1 224.4,102.3 226.5,101.6 228.6,100.6 230.5,99.5 243.1,89.7 254.9,80.4 256.7,78.4 257.3,77.1 257.6,75.1 257.4,73.3 256.1,71.3 253.7,69.4 250.5,68.0 240.9,65.4 237.8,64.1 235.7,62.4 234.4,60.6 230.0,51.7 229.5,47.2 231.9,37.9 232.7,36.8 234.0,35.9 243.0,31.2 246.7,29.6 255.9,25.5 263.8,21.3 267.1,19.0 270.5,17.1 275.0,15.3 279.5,13.7 285.0,12.3 299.6,8.8 306.0,6.8 315.4,3.8 325.0,-0.7 328.6,-2.7 332.5,-4.3 338.5,-6.3 345.4,-8.9 349.3,-10.4 354.9,-13.4 357.6,-15.3"/>
    <polyline points="109.9,93.5 110.9,94.0 113.1,95.1 131.7,103.2 133.1,103.8 134.3,104.3 134.8,104.5 135.3,104.8 135.9,105.2 136.4,105.7 137.2,106.6 137.6,107.5 137.7,108.5 137.8,109.3 137.6,110.5 137.5,111.4 137.3,112.3 136.9,114.2 136.9,115.2 136.9,115.4 136.8,115.8 136.8,116.2 136.8,116.3 136.8,116.3 136.8,117.4"/>
    <polyline points="94.0,88.1 93.5,86.0 93.0,85.2 92.3,84.6 91.7,84.1"/>
    <polyline points="90.6,84.3 90.8,84.3 91.4,84.6 92.1,85.0 92.6,85.4 92.9,85.6 93.1,85.9 93.3,86.3 93.5,86.9 93.7,87.6 94.0,88.1"/>
    <polyline points="91.7,86.9 91.9,87.1 93.1,88.0 94.0,88.5"/>
    <polyline points="88.3,85.5 88.3,85.5 89.7,86.1 90.5,86.5 91.3,86.9 91.6,87.1 93.1,88.0"/>
    <polyline points="85.5,88.2 85.6,88.2 86.4,88.5 87.2,88.8 88.1,88.9 88.6,89.0 89.2,89.1 90.3,89.1 91.2,89.1 92.3,89.2 93.0,89.3 93.7,89.4 94.7,89.7"/>
    <polyline points="85.9,88.0 86.0,88.0 86.8,88.4 87.5,88.6 88.3,88.7 89.1,88.9 90.6,89.0 91.5,89.1 92.3,89.2"/>
    <polyline points="86.2,87.8 86.3,87.8 87.0,88.1 87.8,88.4 88.7,88.5 89.6,88.7 90.5,88.7 90.5,88.7 92.3,89.0"/>
    <polyline points="86.7,87.5 86.9,87.6 87.6,87.9 88.6,88.2 89.9,88.5 90.3,88.6 91.0,88.7 92.3,89.0"/>
    <polyline points="87.0,87.4 87.1,87.5 87.6,87.7 88.5,88.0 89.5,88.2 90.7,88.4 91.5,88.5 92.7,88.8 93.8,89.2 95.5,89.9"/>
    <polyline points="93.8,89.2 92.1,88.5"/>
    <polyline points="92.1,88.5 91.4,88.1"/>
    <polyline points="91.4,88.1 90.2,87.6 88.4,86.8 88.2,86.8"/>
    <polyline points="315.8,149.1 315.3,160.8 315.0,182.5 315.6,186.3 317.0,191.0 317.6,194.1 317.7,200.5 317.3,202.1 316.6,203.7 314.2,206.4 313.4,208.0 313.1,209.7 312.8,216.9 312.6,223.9"/>
    <polyline points="713.8,316.2 714.9,316.4 715.5,316.7 716.1,317.1 716.6,317.4 717.2,317.8 718.1,318.2 718.8,318.5 719.8,318.7 721.4,319.2 721.8,319.4"/>
    <polyline points="732.7,322.9 731.1,322.4 728.1,321.6 725.3,320.8 724.1,320.4 723.9,320.3 721.8,319.6 721.2,319.4 720.9,319.3 716.1,317.9 714.5,317.4 712.8,317.1"/>
    <polyline points="712.7,317.1 715.4,317.8 716.5,318.1 717.7,318.5 719.1,318.9 720.7,319.4 721.0,319.5 721.7,319.7 723.8,320.4 725.2,320.9 728.0,321.7 729.5,322.1 730.7,322.4 731.6,322.9 732.3,323.4"/>
    <polyline points="732.3,323.4 733.4,324.1 734.0,324.5 734.6,324.9 735.4,325.2 736.7,325.5 738.6,326.0 741.1,326.4 744.1,327.0 746.0,327.4 749.1,327.9"/>
    <polyline points="720.7,319.4 719.4,319.1 718.4,318.9 716.9,318.8 716.1,318.8 714.6,318.8 713.1,318.7 712.9,318.7 712.2,318.6 710.9,318.5"/>
    <polyline points="711.4,318.1 712.5,318.2 713.2,318.3 714.2,318.4 716.1,318.5 717.4,318.6 718.1,318.7 719.1,318.9"/>
    <polyline points="717.7,318.5 716.3,318.2 714.8,318.0 713.5,317.9 711.9,317.7"/>
    <polyline points="749.3,327.5 746.4,327.0 743.7,326.5 740.9,326.0 739.2,325.5 737.2,324.8 735.1,324.0 733.6,323.3 732.7,322.9"/>
    <polyline points="101.6,92.5 103.0,93.2 103.7,93.7"/>
    <polyline points="103.7,93.7 104.2,94.2 104.8,95.4 104.6,97.4 103.9,99.5 103.0,101.1 101.2,103.5 100.2,105.0 99.5,107.4 99.3,109.8 99.4,110.6 98.9,112.6"/>
    <polyline points="-58.2,376.4 -57.8,372.4 -57.7,371.1 -57.4,366.4 -56.9,363.9 -56.5,362.7 -55.4,361.4 -54.0,360.2 -51.9,359.1 -49.5,358.3 -45.9,357.4 -35.6,355.6 -30.7,354.4 -19.1,350.5 -14.6,349.0 -11.7,348.2 -9.1,347.7 -4.6,347.3 5.0,346.6 11.4,346.0 16.4,345.2 20.2,344.3 24.1,342.9 32.3,339.5 40.0,336.6 47.8,334.1 51.6,333.2 55.3,332.6 58.9,331.9 60.9,331.6 63.2,331.5 68.3,331.6 96.1,332.2 110.5,333.2 121.2,334.3 124.5,334.7 127.5,335.1 130.9,335.7 137.6,337.8 139.2,338.2 141.1,338.6 143.4,338.8 145.7,338.8 165.5,338.8 171.7,339.2 177.2,339.8 181.3,340.2 184.6,340.3 188.1,340.4"/>
    <polyline points="410.4,191.9 464.3,189.9"/>
    <polyline points="489.5,104.6 492.7,104.6 495.6,104.6 497.1,104.6 498.3,104.7"/>
    <polyline points="562.8,106.2 566.6,104.9 569.8,103.9 571.8,103.4 573.7,103.1 575.4,102.9 577.6,102.8 579.8,102.7 580.4,102.7"/>
    <polyline points="580.4,102.7 589.5,103.3 592.4,103.3 595.5,103.0 598.6,102.4 601.5,101.7 606.7,101.3 610.8,101.2 616.8,101.0 620.1,101.1 630.1,101.8 635.7,102.3 638.5,102.8 640.4,103.4 642.7,104.8 645.7,108.1 649.7,110.2 650.8,110.8 654.5,111.8 658.0,112.4 663.5,113.2 666.9,113.9 668.4,114.3 670.4,115.1 672.0,116.3 672.5,117.6 672.9,120.1 672.8,124.3"/>
    <polyline points="672.8,124.3 673.5,131.2 673.8,136.1 674.0,136.9 674.3,137.8 674.8,138.6 675.3,139.2 675.9,139.8 676.5,140.3 677.8,141.2 678.9,141.8 679.6,142.1 680.7,142.5 682.4,143.1 684.9,143.7 687.8,144.1 690.4,144.2 692.6,144.2 698.7,144.2 699.9,144.2 702.5,144.2 707.0,144.1 711.3,144.1 716.3,144.0 722.2,143.9 725.7,143.9 728.6,144.2 732.4,144.6 733.9,144.8"/>
    <polyline points="702.5,144.2 707.7,144.3"/>
    <polyline points="439.2,345.9 438.0,345.7 436.9,345.4 436.1,345.1 435.5,344.8 434.8,344.4 434.3,343.8 434.0,343.3 433.8,342.8 433.9,342.3 434.2,341.8 434.6,341.4 435.1,340.9 436.2,340.4 439.2,338.9 440.4,338.1 441.3,337.2"/>
    <polyline points="447.8,344.2 447.4,344.4 446.0,345.0 445.8,345.0 445.6,345.1 444.8,345.4 443.9,345.7 442.9,345.9 441.6,346.0 440.4,346.0 439.2,345.9"/>
    <polyline points="287.2,342.8 293.3,343.6"/>
    <polyline points="274.0,341.2 287.2,342.8"/>
    <polyline points="260.4,341.0 265.0,341.0 267.9,341.1 270.9,341.1 274.0,341.2"/>
    <polyline points="188.1,340.4 191.4,340.5"/>
    <polyline points="498.3,104.7 500.7,104.8 503.1,105.0 511.3,105.8 524.2,106.9 528.5,107.3 534.3,108.1 536.4,108.3 538.4,108.4 540.5,108.4 550.0,107.7 555.5,107.4 557.8,107.2 559.2,107.0 561.0,106.7 562.8,106.2"/>
    <polyline points="554.6,44.2 552.5,44.5 549.9,44.8 547.7,45.1 545.8,45.5 544.3,45.8 543.0,46.2 541.3,46.8 540.5,47.0 539.7,47.4 538.8,47.7 538.1,48.1 537.3,48.4 536.6,48.8 533.7,50.6 527.0,55.0 518.5,62.0 513.1,68.4 505.5,74.4 504.3,75.5 503.6,76.4 503.1,77.2 502.6,78.3 502.3,79.2 502.2,80.1 502.2,81.2 502.2,81.7 502.3,82.3 502.6,83.2 503.2,84.4 503.9,85.5 505.5,87.7 507.4,90.5 507.7,91.6 507.9,92.3 508.1,93.1 508.2,93.6 508.2,94.1 508.2,94.6 508.1,95.0 508.0,95.8 507.9,96.4 507.7,97.1 507.6,97.8 507.6,97.8 507.3,99.1 506.5,102.4 505.7,104.9 503.3,107.3 501.4,108.2 499.5,108.9 497.7,109.5 494.9,110.4 490.2,111.7 486.2,112.9 483.9,113.4 481.6,114.0 478.8,114.5 474.7,115.0 471.2,115.4 469.0,115.7 467.8,115.8 466.6,116.0 465.2,116.3 463.3,116.7 462.0,117.0 460.4,117.4 458.8,117.8 457.5,118.2 455.9,118.8 453.1,119.7 450.3,120.7"/>
    <polyline points="182.2,293.5 186.3,293.8 188.1,293.9 194.2,293.8 196.4,293.7 198.8,293.3 200.5,292.9 205.6,291.5 211.8,288.7 216.2,286.1 221.2,283.2 225.6,279.9 229.5,278.0 233.5,276.7 240.0,276.1 255.3,275.3 258.7,274.9 260.5,274.5 262.5,273.9 264.3,273.2 274.6,269.0 276.7,268.2 279.0,267.6 281.3,267.1 284.0,266.8 289.9,266.3 295.7,265.9 300.7,265.8 306.6,265.6 314.3,265.4 322.6,264.9 368.0,262.3 372.0,262.0 373.8,261.9 375.0,261.9 376.5,261.8 378.5,261.7 380.3,261.7 382.5,261.6 385.2,261.4 386.9,261.3 388.0,261.3 389.4,261.4 391.0,261.5 392.4,261.7 393.3,261.9 395.7,262.3 397.4,262.5 398.9,262.7 399.9,262.9 401.2,263.1 403.6,263.5 406.8,264.0 407.7,264.2 408.6,264.3 409.5,264.3 410.4,264.4 411.3,264.4 412.1,264.4 412.7,264.3 413.6,264.2 414.2,264.2 415.2,264.0 416.2,263.8 417.3,263.6 420.7,263.0 425.2,262.2 431.9,261.0 435.3,260.4 436.4,260.2 437.3,260.0 438.2,259.8 438.9,259.7 439.6,259.5 440.5,259.2 441.4,258.9 442.1,258.6 443.1,258.1 443.7,257.7 444.6,257.0 446.5,255.5 447.8,254.3 448.4,253.8 449.6,252.7"/>
    <polyline points="99.4,270.1 96.6,270.9 94.0,271.8 92.1,272.9 88.6,275.9 86.8,279.1 88.3,288.0 90.2,292.4 94.8,299.4 96.3,301.8 97.9,304.2 101.3,309.0 103.8,313.6 105.4,318.3 106.1,322.7 106.2,329.3 106.6,341.3 108.4,344.1 111.6,346.7 116.8,348.6 124.3,350.1 130.0,350.6 132.9,350.8 134.8,351.0 137.9,351.4 140.7,352.0 142.9,352.7 145.1,353.6 148.5,355.6 156.6,360.5 167.8,367.5 189.7,383.4 191.3,384.6 193.0,385.6 195.0,386.4 197.3,387.0 200.4,387.5 203.1,387.8 206.4,387.9 219.5,387.6 223.9,387.6 227.2,387.6 229.6,387.7 231.5,387.9 233.7,388.3 236.1,388.8 238.5,389.5 259.7,395.6 270.7,399.0 273.6,400.2 277.6,402.6 281.0,405.9 283.4,409.1 283.8,411.7 283.6,413.3 283.2,415.3 281.7,417.6 280.5,419.1 278.5,421.0 276.2,422.7 272.9,423.9 270.3,424.4 263.3,425.2 255.5,425.9 252.2,426.2 249.6,426.7 246.6,427.8 245.3,428.4 243.8,429.5"/>
    <polyline points="441.3,337.2 448.3,329.6 448.9,328.9"/>
    <polyline points="733.9,144.8 737.2,145.4 740.4,145.9 745.7,146.8 755.4,148.6 756.7,148.8"/>
    <polyline points="727.3,144.3 728.3,144.4 729.0,144.4 729.5,144.5 730.4,144.6 731.1,144.7 732.5,144.9 733.6,145.1 734.7,145.3"/>
    <polyline points="734.7,145.3 738.7,146.0 747.4,147.5 756.2,149.1"/>
    <polyline points="705.5,144.3 707.7,144.3 713.4,144.2 719.8,144.1 721.5,144.1 722.9,144.1 724.4,144.2 725.9,144.2 727.3,144.3"/>
    <polyline points="482.2,296.5 478.5,297.9 476.1,298.7 474.6,299.4 473.2,300.1 472.3,300.7 471.4,301.4 470.7,302.1 470.0,302.9 469.5,303.7 469.2,305.1 468.9,306.9 468.6,308.7 468.3,309.9 467.6,310.9 466.9,311.8 466.0,312.7 463.9,314.3 460.0,317.1 458.1,318.8 457.5,319.4 455.0,322.0 453.0,324.1 451.4,325.9 449.6,327.9 448.3,329.3 438.0,340.5 437.2,341.2 436.2,342.0 435.0,342.7 433.5,343.3 431.7,343.9"/>
    <polyline points="432.2,344.2 434.1,343.6 435.9,342.8 437.0,342.2 438.0,341.5 439.0,340.7 440.2,339.4 448.7,329.8 450.3,328.0 452.1,326.0 453.6,324.3 457.7,319.5 458.4,318.8 460.2,317.1 466.2,312.7 467.4,311.8 468.2,310.7 468.9,309.9 469.2,308.8 469.5,306.9 469.8,305.1 470.0,304.0 470.6,302.8 471.7,301.5 472.9,300.6 474.9,299.4 476.3,298.8 481.0,297.1 482.4,296.6"/>
    <polyline points="306.4,345.1 314.4,346.0 322.5,346.8 330.2,347.5 334.7,347.7 339.1,347.9 343.2,347.8 347.5,347.6 351.5,347.4 391.9,345.6 397.9,345.4 403.2,345.5 408.2,345.9 413.5,346.4 417.9,346.6 422.2,346.4 424.8,346.1 426.7,345.9"/>
    <polyline points="734.6,325.1 716.1,321.0 701.2,316.6 669.0,303.9 659.4,300.6 533.4,261.5 523.7,259.5 518.9,258.9 512.9,258.1 510.7,257.8 508.6,257.4 505.6,256.9 502.5,256.4"/>
    <polyline points="450.3,328.0 449.1,329.0 448.7,329.3 448.3,329.6"/>
    <polyline points="441.5,337.3 440.6,338.1 439.3,339.0 436.3,340.5 435.3,341.0 434.7,341.5 434.4,341.9 434.1,342.3 434.0,342.8 434.2,343.3 434.6,343.8 435.1,344.4 435.7,344.8 436.3,345.1 437.1,345.4 438.0,345.6 439.3,345.8"/>
    <polyline points="439.3,345.8 440.3,345.9 441.5,345.9 442.7,345.8 443.8,345.6 444.7,345.4 445.5,345.0 445.8,344.9 447.2,344.3 447.7,344.1 448.3,343.8 448.9,343.4 449.4,343.0 449.8,342.4 449.9,342.0 450.2,341.3 450.5,340.2 450.8,339.7 451.3,339.0 451.8,338.5 453.0,337.3 454.6,336.2 456.4,334.9"/>
    <polyline points="449.1,329.0 448.5,329.7 441.5,337.3"/>
    <polyline points="448.5,329.7 448.7,329.3 448.9,328.9 449.6,327.9"/>
    <polyline points="672.6,124.3 673.6,136.1 673.8,136.8 674.0,137.5 674.2,138.0 674.7,138.8 675.3,139.5 676.2,140.4 677.8,141.5 678.7,141.9 680.5,142.7 682.4,143.4 684.4,143.9 687.0,144.4 689.2,144.6 691.3,144.6 695.8,144.6 698.7,144.5 702.6,144.5 708.8,144.4 715.9,144.4 727.0,144.6 728.3,144.6 729.6,144.6 730.6,144.7 731.6,144.8 732.3,144.8 733.5,144.9 735.5,145.2 737.2,145.4 740.3,145.9 745.7,146.9 755.3,148.7 756.6,148.9"/>
    <polyline points="214.7,138.7 210.6,139.4 203.9,140.1 195.2,140.3 168.9,140.3 161.7,140.2 154.5,140.2 148.6,140.1 144.2,140.2 140.8,140.3 137.8,140.5 135.2,140.8 132.8,141.5 130.8,142.3 129.4,143.0 128.2,143.7 127.3,144.5 126.4,145.2 125.7,146.1 124.6,147.7 123.6,149.6 122.6,151.6 121.4,154.0 120.2,156.0 119.1,156.9 118.1,157.7 116.8,158.4 115.1,159.1 113.3,159.7 111.4,160.3 109.3,160.7 106.5,160.9 103.7,161.0 100.3,161.0 96.6,161.0 92.7,161.0 86.0,161.1 81.4,161.1 74.9,161.1 64.1,161.0 54.7,161.0 49.0,161.0 42.8,161.0 40.1,161.1 37.5,161.4 35.2,161.7 33.3,162.2 31.5,162.9 30.0,163.7 29.1,164.4 28.4,165.3 28.0,166.3 27.8,166.9 27.7,167.7 27.5,170.1 27.1,175.8 27.0,177.1"/>
    <polyline points="385.2,140.2 382.5,139.9 350.8,132.6 347.5,131.8 342.1,130.6 339.1,130.2 336.1,129.9 332.6,129.8 322.5,129.6 314.2,129.5 304.0,129.3 299.1,129.4 293.6,129.7 288.2,130.5 280.0,131.6 255.9,134.9 248.0,135.8 237.9,136.4"/>
    <polyline points="312.8,235.9 312.9,236.6 313.3,237.3 314.3,238.3 316.2,239.6 318.7,240.7 322.6,241.4 329.8,242.1 333.9,242.9 336.2,243.5 338.4,244.3 342.6,246.4 345.1,248.3 347.7,252.3 350.2,255.3 354.1,257.7 359.8,260.0 367.6,262.6 376.0,265.3 378.9,266.6 381.1,268.0 382.5,269.3 383.6,271.6"/>
    <polyline points="383.6,271.6 392.6,296.4"/>
    <polyline points="312.6,223.9 312.7,233.3 312.8,235.9"/>
    <polyline points="703.2,414.3 701.6,415.9"/>
    <polyline points="56.2,269.7 57.1,269.7 59.0,269.7 60.1,269.7 62.1,269.7 63.3,269.7 64.5,269.8 65.8,269.8 66.7,269.9 67.2,269.9 67.8,270.0"/>
    <polyline points="67.8,270.0 70.0,270.2 70.2,270.3"/>
    <polyline points="66.7,269.9 70.2,269.9 70.4,269.9"/>
    <polyline points="56.2,269.8 56.5,269.8 59.0,269.7"/>
    <polyline points="179.2,273.6 179.1,273.7 179.0,273.9 178.8,274.5 178.7,274.7 178.6,274.8"/>
    <polyline points="191.7,242.1 191.7,242.2 191.8,242.7 192.0,243.1 192.8,244.9 192.9,245.3 192.9,245.4"/>
    <polyline points="318.0,128.2 318.2,123.3 318.9,120.4 320.9,117.0 327.8,112.6 341.3,108.8 356.0,105.4 372.4,100.8 385.0,97.4 386.4,97.0 387.9,96.7 389.0,96.4 391.2,95.8 422.0,88.5 426.6,87.1 429.5,85.7 434.2,82.4 443.2,76.3 447.4,74.2 452.7,72.3 457.8,70.8 467.9,68.0 491.2,61.7 493.6,61.3 498.3,60.8 508.8,59.9"/>
    <polyline points="349.2,220.7 350.2,220.6 352.0,220.3 353.5,220.1 354.7,220.0 356.0,219.9 357.1,219.8 358.3,219.8 360.0,219.8 362.6,219.7 364.2,219.7"/>
    <polyline points="364.2,219.7 366.9,219.9 367.4,219.9"/>
    <polyline points="362.6,219.7 367.4,219.4 367.6,219.4"/>
    <polyline points="352.0,220.3 349.6,220.8"/>
    <polyline points="391.1,192.7 393.5,193.5 394.3,193.8 394.7,194.0 395.4,194.4 395.9,194.8 396.5,195.4 397.2,196.0 403.7,202.0 404.9,203.1 405.3,203.5 405.6,203.9 405.9,204.3 406.1,204.7 406.3,205.2 406.4,205.5 406.5,206.0 406.5,206.5 406.5,207.2 406.4,209.0 406.4,209.3 406.3,209.8 406.3,210.2 406.2,210.6 406.2,210.9 406.2,211.3 406.2,212.7 406.2,214.1 406.2,215.0 406.2,215.5 406.2,216.0 406.3,216.7 406.6,217.2 407.0,217.8 407.6,218.6 408.3,219.0 410.9,220.5"/>
    <polyline points="406.0,211.3 406.0,211.2 406.0,210.9 406.0,210.9"/>
    <polyline points="426.2,226.7 424.1,224.9 422.5,224.2 420.0,223.5 414.2,221.7 411.2,220.3 408.3,218.7 407.7,218.3 407.2,217.9 406.9,217.6 406.6,217.2 406.4,216.8 406.2,216.4 406.1,216.0 406.1,215.4 406.1,215.0 406.1,214.0 406.0,212.7 406.0,211.3 406.0,211.2 406.0,211.1 406.1,210.7 406.1,210.4 406.2,210.0 406.3,209.6 406.9,207.3 407.0,206.7 407.0,206.3 406.9,205.8 406.5,204.8 406.2,204.2 405.9,203.9 405.1,203.1 403.9,201.9 397.3,195.9 396.7,195.3 396.1,194.8 395.5,194.4 394.8,194.0 394.3,193.8 393.6,193.5 391.3,192.6"/>
    <polyline points="96.3,183.6 96.3,186.2 96.7,188.9 96.9,189.4 97.2,190.2 97.7,190.9 98.2,191.5 99.6,192.7 100.7,193.3 102.6,194.2 103.5,194.5 105.1,195.0 109.0,195.8 111.0,196.0 115.1,196.3 118.3,196.5 122.1,196.6 143.4,196.4 152.4,196.5 155.3,196.4 158.3,196.4 165.8,196.2 173.3,195.9 176.7,195.8 180.2,195.6 184.5,195.2 192.5,194.0 200.8,193.0 212.2,191.3 218.0,190.4 222.2,189.7 224.6,189.3 227.2,188.8 229.3,188.4 231.4,187.9 234.7,187.1 237.2,186.3 240.0,185.6 243.2,184.9 246.7,184.3 249.3,184.0 254.0,183.8 258.2,184.1 262.6,184.4 267.1,184.6 270.6,184.9 273.8,185.7 282.7,188.9 288.0,190.2 294.2,191.4 306.7,193.6 309.8,194.1 313.9,194.3 317.4,194.3 321.2,194.2 329.7,193.5 332.1,193.3 336.1,193.1 356.4,192.1 360.0,191.9"/>
    <polyline points="471.1,189.6 464.3,189.8"/>
    <polyline points="464.3,189.9 471.1,189.7"/>
    <polyline points="410.4,191.8 405.9,192.0 403.4,192.0 402.6,192.0 402.0,192.1 400.8,192.1 397.5,192.1 395.7,192.0"/>
    <polyline points="395.7,192.1 400.8,192.1 402.0,192.1 402.6,192.1 403.4,192.1 405.9,192.0 410.4,191.9"/>
  </g>

  <!-- 지하철 역 -->
  <g>
    <circle cx="155.3" cy="196.3" r="3" fill="#dc2626" stroke="#fff" stroke-width="1"/>
    <circle cx="98.7" cy="121.3" r="3" fill="#dc2626" stroke="#fff" stroke-width="1"/>
    <circle cx="427.7" cy="228.3" r="3" fill="#dc2626" stroke="#fff" stroke-width="1"/>
    <circle cx="732.1" cy="391.1" r="3" fill="#dc2626" stroke="#fff" stroke-width="1"/>
    <circle cx="512.1" cy="257.8" r="3" fill="#dc2626" stroke="#fff" stroke-width="1"/>
    <circle cx="343.1" cy="347.6" r="3" fill="#dc2626" stroke="#fff" stroke-width="1"/>
    <circle cx="110.4" cy="333.2" r="3" fill="#dc2626" stroke="#fff" stroke-width="1"/>
    <circle cx="55.1" cy="332.4" r="3" fill="#dc2626" stroke="#fff" stroke-width="1"/>
    <circle cx="306.6" cy="265.8" r="3" fill="#dc2626" stroke="#fff" stroke-width="1"/>
    <circle cx="96.0" cy="181.2" r="3" fill="#dc2626" stroke="#fff" stroke-width="1"/>
    <circle cx="96.6" cy="161.4" r="3" fill="#dc2626" stroke="#fff" stroke-width="1"/>
    <circle cx="666.8" cy="113.9" r="3" fill="#dc2626" stroke="#fff" stroke-width="1"/>
    <circle cx="184.5" cy="340.2" r="3" fill="#dc2626" stroke="#fff" stroke-width="1"/>
    <circle cx="221.3" cy="137.8" r="3" fill="#dc2626" stroke="#fff" stroke-width="1"/>
    <circle cx="317.4" cy="194.1" r="3" fill="#dc2626" stroke="#fff" stroke-width="1"/>
    <circle cx="454.4" cy="248.7" r="3" fill="#dc2626" stroke="#fff" stroke-width="1"/>
    <circle cx="262.6" cy="184.2" r="3" fill="#dc2626" stroke="#fff" stroke-width="1"/>
    <circle cx="316.9" cy="129.8" r="3" fill="#dc2626" stroke="#fff" stroke-width="1"/>
    <circle cx="367.2" cy="262.3" r="3" fill="#dc2626" stroke="#fff" stroke-width="1"/>
    <circle cx="404.5" cy="264.1" r="3" fill="#dc2626" stroke="#fff" stroke-width="1"/>
    <circle cx="452.9" cy="250.3" r="3" fill="#dc2626" stroke="#fff" stroke-width="1"/>
    <circle cx="465.6" cy="237.8" r="3" fill="#dc2626" stroke="#fff" stroke-width="1"/>
    <circle cx="73.4" cy="270.3" r="3" fill="#dc2626" stroke="#fff" stroke-width="1"/>
    <circle cx="117.5" cy="270.0" r="3" fill="#dc2626" stroke="#fff" stroke-width="1"/>
    <circle cx="180.3" cy="272.1" r="3" fill="#dc2626" stroke="#fff" stroke-width="1"/>
    <circle cx="192.0" cy="240.4" r="3" fill="#dc2626" stroke="#fff" stroke-width="1"/>
    <circle cx="207.6" cy="226.8" r="3" fill="#dc2626" stroke="#fff" stroke-width="1"/>
    <circle cx="513.6" cy="68.6" r="3" fill="#dc2626" stroke="#fff" stroke-width="1"/>
    <circle cx="507.7" cy="99.1" r="3" fill="#dc2626" stroke="#fff" stroke-width="1"/>
    <circle cx="403.3" cy="170.7" r="3" fill="#dc2626" stroke="#fff" stroke-width="1"/>
    <circle cx="371.7" cy="219.7" r="3" fill="#dc2626" stroke="#fff" stroke-width="1"/>
    <circle cx="453.2" cy="119.8" r="3" fill="#dc2626" stroke="#fff" stroke-width="1"/>
    <circle cx="414.5" cy="138.6" r="3" fill="#dc2626" stroke="#fff" stroke-width="1"/>
    <circle cx="391.0" cy="188.6" r="3" fill="#dc2626" stroke="#fff" stroke-width="1"/>
    <circle cx="405.7" cy="212.8" r="3" fill="#dc2626" stroke="#fff" stroke-width="1"/>
    <circle cx="323.5" cy="220.1" r="3" fill="#dc2626" stroke="#fff" stroke-width="1"/>
    <circle cx="249.0" cy="219.2" r="3" fill="#dc2626" stroke="#fff" stroke-width="1"/>
    <circle cx="313.3" cy="216.8" r="3" fill="#dc2626" stroke="#fff" stroke-width="1"/>
    <circle cx="379.8" cy="191.6" r="3" fill="#dc2626" stroke="#fff" stroke-width="1"/>
    <circle cx="457.6" cy="70.7" r="3" fill="#dc2626" stroke="#fff" stroke-width="1"/>
    <circle cx="387.5" cy="96.7" r="3" fill="#dc2626" stroke="#fff" stroke-width="1"/>
    <circle cx="315.5" cy="160.9" r="3" fill="#dc2626" stroke="#fff" stroke-width="1"/>
    <circle cx="698.7" cy="144.4" r="3" fill="#dc2626" stroke="#fff" stroke-width="1"/>
    <circle cx="610.8" cy="101.3" r="3" fill="#dc2626" stroke="#fff" stroke-width="1"/>
    <circle cx="550.0" cy="107.8" r="3" fill="#dc2626" stroke="#fff" stroke-width="1"/>
    <circle cx="240.0" cy="276.1" r="3" fill="#dc2626" stroke="#fff" stroke-width="1"/>
    <circle cx="182.2" cy="293.5" r="3" fill="#dc2626" stroke="#fff" stroke-width="1"/>
    <circle cx="138.1" cy="298.7" r="3" fill="#dc2626" stroke="#fff" stroke-width="1"/>
    <circle cx="94.2" cy="305.1" r="3" fill="#dc2626" stroke="#fff" stroke-width="1"/>
    <circle cx="524.0" cy="237.6" r="3" fill="#dc2626" stroke="#fff" stroke-width="1"/>
    <circle cx="354.0" cy="167.9" r="3" fill="#dc2626" stroke="#fff" stroke-width="1"/>
    <circle cx="525.7" cy="213.9" r="3" fill="#dc2626" stroke="#fff" stroke-width="1"/>
    <circle cx="124.1" cy="149.7" r="3" fill="#dc2626" stroke="#fff" stroke-width="1"/>
    <circle cx="154.5" cy="140.4" r="3" fill="#dc2626" stroke="#fff" stroke-width="1"/>
    <circle cx="79.9" cy="225.1" r="3" fill="#dc2626" stroke="#fff" stroke-width="1"/>
    <circle cx="394.1" cy="298.8" r="3" fill="#dc2626" stroke="#fff" stroke-width="1"/>
    <circle cx="243.0" cy="89.7" r="3" fill="#dc2626" stroke="#fff" stroke-width="1"/>
    <circle cx="197.1" cy="104.7" r="3" fill="#dc2626" stroke="#fff" stroke-width="1"/>
    <circle cx="136.9" cy="119.0" r="3" fill="#dc2626" stroke="#fff" stroke-width="1"/>
    <circle cx="338.6" cy="244.3" r="3" fill="#dc2626" stroke="#fff" stroke-width="1"/>
    <circle cx="145.8" cy="305.9" r="3" fill="#dc2626" stroke="#fff" stroke-width="1"/>
    <circle cx="304.0" cy="271.6" r="3" fill="#dc2626" stroke="#fff" stroke-width="1"/>
    <circle cx="408.9" cy="293.3" r="3" fill="#dc2626" stroke="#fff" stroke-width="1"/>
    <circle cx="407.1" cy="329.6" r="3" fill="#dc2626" stroke="#fff" stroke-width="1"/>
    <circle cx="396.7" cy="322.9" r="3" fill="#dc2626" stroke="#fff" stroke-width="1"/>
    <circle cx="701.2" cy="397.7" r="3" fill="#dc2626" stroke="#fff" stroke-width="1"/>
    <circle cx="703.6" cy="414.4" r="3" fill="#dc2626" stroke="#fff" stroke-width="1"/>
    <circle cx="178.3" cy="538.6" r="3" fill="#dc2626" stroke="#fff" stroke-width="1"/>
    <circle cx="171.6" cy="503.1" r="3" fill="#dc2626" stroke="#fff" stroke-width="1"/>
    <circle cx="189.7" cy="475.8" r="3" fill="#dc2626" stroke="#fff" stroke-width="1"/>
    <circle cx="263.3" cy="425.3" r="3" fill="#dc2626" stroke="#fff" stroke-width="1"/>
    <circle cx="283.6" cy="413.3" r="3" fill="#dc2626" stroke="#fff" stroke-width="1"/>
    <circle cx="259.7" cy="395.5" r="3" fill="#dc2626" stroke="#fff" stroke-width="1"/>
    <circle cx="219.5" cy="387.6" r="3" fill="#dc2626" stroke="#fff" stroke-width="1"/>
    <circle cx="167.8" cy="367.5" r="3" fill="#dc2626" stroke="#fff" stroke-width="1"/>
    <circle cx="130.0" cy="350.5" r="3" fill="#dc2626" stroke="#fff" stroke-width="1"/>
    <circle cx="106.3" cy="329.3" r="3" fill="#dc2626" stroke="#fff" stroke-width="1"/>
    <circle cx="96.4" cy="301.8" r="3" fill="#dc2626" stroke="#fff" stroke-width="1"/>
    <circle cx="97.2" cy="298.1" r="3" fill="#dc2626" stroke="#fff" stroke-width="1"/>
    <circle cx="367.1" cy="332.9" r="3" fill="#dc2626" stroke="#fff" stroke-width="1"/>
    <circle cx="339.4" cy="348.7" r="3" fill="#dc2626" stroke="#fff" stroke-width="1"/>
    <circle cx="345.0" cy="375.5" r="3" fill="#dc2626" stroke="#fff" stroke-width="1"/>
    <circle cx="75.9" cy="242.4" r="3" fill="#dc2626" stroke="#fff" stroke-width="1"/>
    <circle cx="77.8" cy="268.7" r="3" fill="#dc2626" stroke="#fff" stroke-width="1"/>
    <circle cx="498.2" cy="279.3" r="3" fill="#dc2626" stroke="#fff" stroke-width="1"/>
    <circle cx="614.8" cy="469.2" r="3" fill="#dc2626" stroke="#fff" stroke-width="1"/>
    <circle cx="666.0" cy="471.5" r="3" fill="#dc2626" stroke="#fff" stroke-width="1"/>
    <circle cx="729.3" cy="441.5" r="3" fill="#dc2626" stroke="#fff" stroke-width="1"/>
    <circle cx="171.0" cy="182.3" r="3" fill="#dc2626" stroke="#fff" stroke-width="1"/>
    <circle cx="116.4" cy="212.4" r="3" fill="#dc2626" stroke="#fff" stroke-width="1"/>
    <circle cx="304.6" cy="65.1" r="3" fill="#dc2626" stroke="#fff" stroke-width="1"/>
    <circle cx="383.0" cy="62.3" r="3" fill="#dc2626" stroke="#fff" stroke-width="1"/>
  </g>
</svg>