<?xml version="1.0" encoding="UTF-8"?>
<svg width="800" height="600" xmlns="http://www.w3.org/2000/svg">
  <title>Cleveland Subway Map</title>
  <rect width="100%" height="100%" fill="#f8f9fa"/>

  <!-- 지하철 선로 -->
  <g stroke="#2563eb" stroke-width="2" fill="none" opacity="0.8">
    <polyline points="419.6,310.1 418.2,311.7 417.9,312.0 417.3,312.6 416.6,313.2 416.1,313.6 415.5,313.9 415.1,314.2 414.6,314.4 414.0,314.7 413.3,314.9 412.7,315.1 412.2,315.2 410.8,315.4 408.6,315.8 408.2,315.9 407.8,315.9 407.3,316.0 406.9,316.0 406.2,316.0 404.9,315.9 402.7,315.9 399.4,315.8 398.1,315.7 392.9,315.6 392.3,315.6 390.4,315.6 379.2,315.6 374.8,315.7 374.1,315.7 373.6,315.6 372.8,315.5 372.1,315.4 371.8,315.4 371.4,315.3 370.8,315.1 370.2,314.9 369.3,314.6 368.7,314.3 368.1,313.9 368.1,313.9 368.0,313.9"/>
    <polyline points="676.9,161.0 676.7,160.8 676.5,160.7 676.3,160.7 676.1,160.7 675.9,160.8 675.8,160.8 675.6,160.9 675.5,161.1 675.3,161.3 675.1,161.5"/>
    <polyline points="521.5,303.1 521.0,303.1 520.7,303.0 520.5,303.0 519.8,302.9 519.2,302.8 518.8,302.7 518.3,302.5 517.8,302.2 517.4,301.9 516.8,301.4 514.3,299.2 513.3,298.2 512.3,297.3 512.2,297.2"/>
    <polyline points="425.0,284.8 424.9,283.8 424.9,282.1 424.8,280.0 424.8,279.2 424.8,278.5 424.9,277.1 424.9,276.6 424.9,276.3 424.8,272.8 424.8,272.0 424.8,271.0 424.8,270.6 424.8,270.1 424.9,269.4 424.9,268.6 425.1,267.8 425.3,267.0 425.5,266.2 425.7,265.5 426.0,264.8 426.3,264.3 426.7,263.7 427.4,262.8 428.1,262.0 429.9,260.1"/>
    <polyline points="429.9,260.1 430.6,259.5"/>
    <polyline points="425.0,284.8 425.0,285.6 425.1,287.9 425.2,289.4 425.2,290.7"/>
    <polyline points="449.9,259.7 450.3,260.0 450.5,260.3 451.4,261.1"/>
    <polyline points="449.9,259.7 447.8,258.0 446.6,257.1 445.1,256.0 444.3,255.5 443.4,255.0 442.4,254.7 442.0,254.6 440.8,254.5"/>
    <polyline points="448.5,258.9 447.1,257.8 445.8,256.8 445.0,256.2 444.1,255.7 443.7,255.5 443.6,255.5 443.3,255.3 442.9,255.2 442.6,255.1 442.2,255.1 441.6,255.0 440.9,255.0 440.6,254.9 439.1,254.8 437.6,254.7 436.8,254.6 436.6,254.7 435.7,255.0 435.0,255.3 434.5,255.6 434.1,256.0 433.3,256.6"/>
    <polyline points="465.6,271.4 462.5,269.6 461.7,269.1 461.0,268.6 460.4,268.2 460.0,267.9 459.0,267.3 457.6,266.4"/>
    <polyline points="488.8,281.3 489.1,281.3 491.1,281.5 491.7,281.6 492.4,281.7 493.1,281.9 493.5,282.0 493.9,282.2 494.5,282.4 494.9,282.6 495.5,282.9 496.0,283.2 496.6,283.6 499.1,285.2 500.5,286.0 500.9,286.3 501.6,286.8 503.8,288.2"/>
    <polyline points="452.3,261.9 453.1,262.9"/>
    <polyline points="453.1,262.9 451.5,261.4 451.2,261.0 450.9,260.8"/>
    <polyline points="451.4,261.1 450.7,260.5 450.0,260.0 449.1,259.3"/>
    <polyline points="448.4,258.8 448.3,258.7 447.3,258.2"/>
    <polyline points="451.4,261.1 452.3,261.9"/>
    <polyline points="457.6,266.4 456.2,265.5"/>
    <polyline points="455.6,265.0 454.9,264.5 453.7,263.4"/>
    <polyline points="453.7,263.4 455.4,265.0"/>
    <polyline points="453.4,263.4 454.1,263.9 454.4,264.2 455.4,265.0"/>
    <polyline points="455.6,265.0 454.8,264.3 454.1,263.6 453.7,263.3 453.6,263.2 452.9,262.5 452.3,261.9"/>
    <polyline points="453.4,263.4 452.5,262.6 451.7,261.9 450.8,261.0 450.1,260.4 449.5,259.9 448.8,259.4 448.2,258.9"/>
    <polyline points="444.7,256.6 445.1,256.8 445.5,257.0 445.9,257.3"/>
    <polyline points="511.3,296.5 511.9,297.1 512.4,297.6 513.1,298.2 514.3,299.3 515.6,300.5 516.6,301.4 517.0,301.8 517.4,302.1 517.8,302.3 518.1,302.5 518.6,302.7 519.1,302.9 519.5,303.0 520.0,303.1 520.5,303.1 522.7,303.3"/>
    <polyline points="429.8,260.1 430.5,259.4 432.2,257.7"/>
    <polyline points="430.6,259.5 431.4,258.7 431.8,258.4 432.1,258.2"/>
    <polyline points="550.2,294.0 549.0,294.7"/>
    <polyline points="508.1,292.2 507.9,291.9 507.7,291.7 507.6,291.5 507.4,291.3 507.3,291.1 507.2,291.0 507.1,290.8 506.9,290.7 506.8,290.5 506.7,290.4 506.5,290.2 506.4,290.1 506.2,289.9 506.1,289.8 505.9,289.7 505.7,289.5 505.5,289.3 505.3,289.2 505.1,289.1 504.8,288.9 504.4,288.6"/>
    <polyline points="509.2,293.9 508.1,292.2"/>
    <polyline points="503.8,288.2 504.4,288.6"/>
    <polyline points="158.3,479.4 152.8,488.0 150.3,491.5 148.2,494.6 147.1,496.2 146.7,496.8 146.2,497.3"/>
    <polyline points="290.0,311.8 289.1,312.3"/>
    <polyline points="189.2,431.2 188.8,432.0"/>
    <polyline points="280.6,316.4 276.8,318.3 275.0,319.1 267.1,323.0 266.1,323.4 265.2,323.9 264.1,324.5 263.1,325.1 262.4,325.5 261.5,326.1 260.9,326.5 260.0,327.2 259.1,327.8 258.0,328.7 257.0,329.5 256.0,330.5 255.1,331.3 254.3,332.2 253.6,332.8 252.9,333.6 252.2,334.4 251.6,335.1 251.0,335.8 250.4,336.7 250.0,337.2 249.6,337.9 248.9,338.8 247.0,341.7 245.9,343.5 244.4,345.9 242.0,349.5 233.9,362.1 232.9,363.6 232.4,364.4"/>
    <polyline points="162.4,473.0 161.9,473.8"/>
    <polyline points="281.2,316.1 281.1,316.2 280.6,316.4"/>
    <polyline points="225.0,375.9 217.1,388.2 211.0,397.6 209.0,400.7 202.4,410.9 201.6,412.2"/>
    <polyline points="285.3,314.1 283.7,314.9"/>
    <polyline points="188.8,432.0 188.1,433.0 186.9,434.9 185.7,436.8 183.2,440.7 181.6,443.2 180.3,445.2 179.8,446.1 179.1,447.0 178.3,448.3 177.4,449.7 177.0,450.4 176.1,451.7 174.2,454.7 173.5,455.7 171.5,458.8 171.0,459.5"/>
    <polyline points="225.6,375.0 225.0,375.9"/>
    <polyline points="570.6,301.9 570.0,302.1 569.5,302.2 568.8,302.3 568.1,302.3 567.4,302.3 566.8,302.3 566.3,302.2 565.8,302.1 565.4,301.9 564.9,301.8 564.3,301.5 563.8,301.2"/>
    <polyline points="547.4,295.7 548.2,295.2 549.0,294.7"/>
    <polyline points="529.9,303.0 530.4,302.9 531.0,302.7 531.7,302.6 532.4,302.5 533.0,302.4 533.3,302.4 533.6,302.3"/>
    <polyline points="540.2,299.6 540.8,299.2 541.2,299.1 542.1,298.7 542.7,298.5"/>
    <polyline points="571.1,301.8 570.6,301.9"/>
    <polyline points="513.5,298.2 513.7,298.4 514.4,299.0 516.6,301.1 517.2,301.6 517.5,301.8 517.8,302.0 518.3,302.3 518.7,302.4 519.1,302.6 519.2,302.6 519.5,302.7 520.0,302.8 520.4,302.9 521.4,303.0 525.6,303.3 525.9,303.3 526.3,303.4 526.6,303.3 526.9,303.3 527.4,303.2 527.8,303.2 530.4,302.6 532.5,302.1 533.3,301.9 535.4,301.4 535.8,301.3 536.2,301.2 536.7,301.1 537.0,300.9 538.2,300.5 539.7,299.9 539.9,299.7 540.2,299.6 540.7,299.3 541.0,299.1 541.3,298.8 541.7,298.5 542.3,297.9 542.8,297.5 543.7,296.7 544.1,296.3 544.4,296.1 544.9,295.9 545.9,295.5 546.5,295.2 547.3,294.9 547.9,294.7 548.4,294.6 548.9,294.5 549.7,294.3 550.1,294.3 550.7,294.3 551.3,294.3 551.8,294.4"/>
    <polyline points="563.2,300.9 560.5,299.0 559.3,298.3 557.9,297.3 556.9,296.6 555.9,295.9 555.4,295.6 555.1,295.5 554.7,295.2 554.3,295.1 553.8,294.9 553.2,294.7 552.9,294.6 552.5,294.5 552.2,294.4 551.8,294.4"/>
    <polyline points="513.5,298.2 511.2,296.1"/>
    <polyline points="571.7,301.7 571.1,301.8"/>
    <polyline points="542.1,299.0 543.4,298.3 544.0,297.9 544.5,297.6 545.7,296.8 546.9,296.1"/>
    <polyline points="640.0,225.3 640.0,226.7 640.0,227.7 639.9,228.5 639.8,229.3"/>
    <polyline points="531.2,302.5 530.6,302.6 529.9,302.8"/>
    <polyline points="563.8,301.2 563.2,300.9"/>
    <polyline points="512.3,297.3 513.5,298.2"/>
    <polyline points="670.0,168.5 670.4,168.0 670.6,167.7 670.9,167.4 671.2,167.2 671.6,166.8 671.8,166.5 672.8,165.3"/>
    <polyline points="440.2,255.2 439.1,255.0 437.4,254.9 436.8,254.9 436.2,255.0 435.8,255.1 434.9,255.6 434.0,256.3 432.2,257.9"/>
    <polyline points="629.3,250.0 628.6,251.2 628.4,251.5 628.0,252.1"/>
    <polyline points="629.9,249.0 629.3,250.0"/>
    <polyline points="638.6,233.3 638.9,232.5 639.3,231.6 639.5,231.0 639.6,230.6"/>
    <polyline points="640.3,225.3 640.2,224.8"/>
    <polyline points="647.9,198.3 647.3,199.1 647.0,199.6 646.1,200.7"/>
    <polyline points="649.5,196.3 648.8,197.1 648.2,197.9"/>
    <polyline points="648.2,197.9 647.9,198.3"/>
    <polyline points="649.8,195.9 649.5,196.3"/>
    <polyline points="132.9,494.5 133.3,494.7 139.4,497.9 140.2,498.2 140.8,498.4 141.6,498.6 142.4,498.6 143.4,498.6 144.1,498.4 145.3,498.0 146.0,497.6 146.2,497.3"/>
    <polyline points="301.9,305.4 301.5,305.8 301.1,306.2"/>
    <polyline points="301.1,306.2 300.5,306.6 299.7,307.1 297.4,308.2 291.0,311.3 290.0,311.8"/>
    <polyline points="640.3,213.0 640.1,214.2"/>
    <polyline points="640.2,224.8 640.2,224.1 640.2,223.5 640.2,222.0 640.1,219.7 640.1,219.3 640.1,218.6 640.1,217.1 640.1,215.8 640.1,214.5 640.1,214.2"/>
    <polyline points="447.9,258.8 449.0,259.7 449.7,260.3 450.5,260.9 451.0,261.4 451.9,262.2 452.5,262.7 453.4,263.4"/>
    <polyline points="668.5,170.4 668.3,170.7"/>
    <polyline points="667.2,172.1 666.9,172.5"/>
    <polyline points="668.3,170.7 667.2,172.1"/>
    <polyline points="666.9,172.5 666.5,173.1 664.9,175.1"/>
    <polyline points="670.0,168.5 669.8,168.7"/>
    <polyline points="657.8,185.4 656.7,186.8 656.3,187.4 654.9,189.2"/>
    <polyline points="654.9,189.2 654.8,189.4 654.6,189.6"/>
    <polyline points="664.9,175.1 664.6,175.6"/>
    <polyline points="658.3,184.8 657.8,185.4"/>
    <polyline points="669.8,168.7 668.9,169.9"/>
    <polyline points="654.6,189.6 653.7,190.9"/>
    <polyline points="664.6,175.6 663.4,177.1 662.9,177.9 662.4,178.6 662.1,179.1 661.5,180.0 660.8,181.1 660.1,182.2 659.4,183.3 658.3,184.8"/>
    <polyline points="504.4,288.8 504.9,289.1 505.1,289.3 505.4,289.5 505.6,289.6 505.8,289.8 506.0,289.9 506.1,290.0 506.3,290.2 506.4,290.3 506.6,290.5 506.7,290.6 506.9,290.8 507.0,291.0 507.2,291.1 507.3,291.3 507.4,291.5 507.6,291.6 507.8,292.0"/>
    <polyline points="507.8,292.0 509.0,293.7"/>
    <polyline points="550.0,294.0 548.7,294.8"/>
    <polyline points="504.4,288.8 503.8,288.5"/>
    <polyline points="546.0,296.5 545.4,296.9 544.6,297.4 544.2,297.6 543.8,297.9 543.2,298.2"/>
    <polyline points="457.5,266.5 460.4,268.3 461.2,268.8 461.5,269.0 462.1,269.5 463.3,270.2 466.0,271.8 467.0,272.4 468.9,273.5 469.9,274.1 470.3,274.3 472.4,275.5 473.9,276.5 476.5,278.0 478.0,278.9 478.6,279.2 479.3,279.6 479.9,279.8 480.6,280.1 481.3,280.3 481.8,280.5 482.8,280.7 483.7,280.9 484.8,281.0 487.2,281.2"/>
    <polyline points="674.8,162.0 674.6,162.4"/>
    <polyline points="652.2,192.9 651.3,194.0"/>
    <polyline points="651.3,194.0 651.0,194.4"/>
    <polyline points="653.7,190.9 653.4,191.2"/>
    <polyline points="646.1,200.7 645.9,201.1"/>
    <polyline points="651.0,194.4 650.5,195.1 649.8,195.9"/>
    <polyline points="653.4,191.2 652.5,192.5"/>
    <polyline points="652.5,192.5 652.2,192.9"/>
    <polyline points="674.6,162.4 674.5,162.6 673.7,163.6"/>
    <polyline points="645.9,201.1 645.5,201.7 645.0,202.6 644.4,203.8 643.5,205.5 643.0,206.5 642.0,208.5 641.6,209.3 641.1,210.4 640.8,211.0 640.7,211.4 640.6,211.7 640.5,212.2 640.3,213.0"/>
    <polyline points="430.6,259.5 431.9,258.2 432.2,257.9"/>
    <polyline points="543.2,298.2 542.7,298.5 539.5,300.2 539.1,300.4 538.9,300.5 538.6,300.6 538.3,300.7 537.9,300.9 537.6,301.0 537.3,301.0 536.9,301.2 535.9,301.4 535.5,301.5 535.2,301.6 534.5,301.8 533.5,302.0 532.9,302.1 532.0,302.3 531.4,302.4 531.2,302.5"/>
  </g>

  <!-- 지하철 역 -->
  <g>
    <circle cx="439.3" cy="255.0" r="3" fill="#dc2626" stroke="#fff" stroke-width="1"/>
    <circle cx="280.9" cy="316.2" r="3" fill="#dc2626" stroke="#fff" stroke-width="1"/>
    <circle cx="132.9" cy="494.4" r="3" fill="#dc2626" stroke="#fff" stroke-width="1"/>
    <circle cx="163.5" cy="470.5" r="3" fill="#dc2626" stroke="#fff" stroke-width="1"/>
    <circle cx="201.7" cy="411.9" r="3" fill="#dc2626" stroke="#fff" stroke-width="1"/>
    <circle cx="229.9" cy="368.0" r="3" fill="#dc2626" stroke="#fff" stroke-width="1"/>
    <circle cx="246.6" cy="342.2" r="3" fill="#dc2626" stroke="#fff" stroke-width="1"/>
    <circle cx="569.0" cy="287.9" r="3" fill="#dc2626" stroke="#fff" stroke-width="1"/>
    <circle cx="640.1" cy="223.7" r="3" fill="#dc2626" stroke="#fff" stroke-width="1"/>
    <circle cx="673.1" cy="164.6" r="3" fill="#dc2626" stroke="#fff" stroke-width="1"/>
    <circle cx="629.8" cy="248.9" r="3" fill="#dc2626" stroke="#fff" stroke-width="1"/>
    <circle cx="607.4" cy="266.4" r="3" fill="#dc2626" stroke="#fff" stroke-width="1"/>
    <circle cx="529.9" cy="302.9" r="3" fill="#dc2626" stroke="#fff" stroke-width="1"/>
    <circle cx="315.2" cy="303.6" r="3" fill="#dc2626" stroke="#fff" stroke-width="1"/>
    <circle cx="425.1" cy="291.1" r="3" fill="#dc2626" stroke="#fff" stroke-width="1"/>
    <circle cx="367.3" cy="313.4" r="3" fill="#dc2626" stroke="#fff" stroke-width="1"/>
    <circle cx="500.4" cy="286.1" r="3" fill="#dc2626" stroke="#fff" stroke-width="1"/>
    <circle cx="658.2" cy="184.7" r="3" fill="#dc2626" stroke="#fff" stroke-width="1"/>
  </g>
</svg>