<?xml version="1.0" encoding="UTF-8"?>
<svg width="800" height="600" xmlns="http://www.w3.org/2000/svg">
  <title>Copenhagen Subway Map</title>
  <rect width="100%" height="100%" fill="#f8f9fa"/>

  <!-- 지하철 선로 -->
  <g stroke="#2563eb" stroke-width="2" fill="none" opacity="0.8">
    <polyline points="486.3,529.5 488.9,521.4 489.5,519.2 492.2,510.7"/>
    <polyline points="305.0,253.8 307.4,254.3 308.9,254.4 310.5,254.4 313.3,254.3 314.8,254.3 318.5,254.3 320.1,254.3 323.7,254.5 325.6,254.7 327.4,254.7 328.7,254.7"/>
    <polyline points="519.1,337.1 520.0,333.9 520.7,331.7 521.7,328.2"/>
    <polyline points="331.0,254.7 331.3,254.6 332.9,254.6 333.8,254.6 335.5,254.6 341.7,254.4 342.8,254.4 346.7,254.1 350.9,253.5 353.3,253.1 355.3,252.7 360.0,251.6 366.1,249.0 370.7,247.4 373.2,246.9 375.8,246.5 379.8,246.4 382.6,246.7 387.2,247.5 392.2,248.7 397.2,250.1 402.4,251.6"/>
    <polyline points="404.7,252.2 406.2,252.6 407.8,252.9 410.7,253.5 414.1,253.8 417.7,253.5 422.6,252.1 426.5,249.9 429.1,247.9 433.4,243.2 439.0,237.2 440.1,236.3 442.8,235.2 445.3,234.6 447.5,234.7 449.7,234.8 453.9,235.7 467.4,241.7 468.2,242.1"/>
    <polyline points="519.5,263.3 520.8,267.4 522.6,271.6 524.0,274.2 528.6,282.0 532.8,287.3 536.6,290.7 538.6,292.6 539.7,293.6 540.5,294.3"/>
    <polyline points="542.6,296.3 544.7,298.3 545.9,299.8 546.7,302.1 547.4,304.5 547.8,308.0 547.7,309.9"/>
    <polyline points="744.0,466.7 744.4,467.7 744.9,468.7 745.2,469.8 745.5,471.3 746.4,475.7 746.4,476.1"/>
    <polyline points="293.4,250.9 274.2,246.6 265.5,244.6 263.9,244.3 262.4,243.9 262.1,243.9"/>
    <polyline points="261.5,243.7 259.9,243.3"/>
    <polyline points="259.9,243.3 253.3,242.0 248.8,240.9 246.6,240.4 244.2,239.8 239.5,238.5 234.7,237.2 232.6,236.7 230.8,236.3 229.2,236.0 221.0,234.5 220.1,234.4 219.2,234.2 218.0,233.9 216.6,233.6"/>
    <polyline points="209.4,232.0 208.2,231.8 207.0,231.5 206.1,231.2 204.6,230.9 203.5,230.6 201.1,230.0 196.5,229.0 194.2,228.5 193.4,228.4 192.3,228.1 190.5,227.7 189.7,227.6 185.2,226.4 184.6,226.3"/>
    <polyline points="216.6,233.6 215.5,233.4 214.1,233.1"/>
    <polyline points="732.2,442.4 732.5,443.1"/>
    <polyline points="707.5,413.4 708.2,415.3 709.0,416.8 709.9,418.7 711.6,421.5 713.0,424.1 714.6,426.4 717.1,429.1 723.2,433.8 726.1,435.9 727.5,436.9 729.0,438.1 730.3,439.5 731.0,440.3 731.5,441.1 731.9,441.8 732.2,442.4"/>
    <polyline points="732.5,443.1 733.6,445.7 734.6,448.3 735.6,450.7 736.4,452.6 737.3,454.5 738.1,456.0 738.9,457.5 740.3,460.2 741.8,463.1 743.6,466.2"/>
    <polyline points="684.3,364.2 684.8,365.2 685.3,366.4 687.5,370.8 688.9,374.0 693.0,382.3 696.2,389.2 700.5,397.9 702.8,402.9 703.8,405.0 704.9,407.4 707.2,412.6"/>
    <polyline points="707.2,412.6 707.5,413.4"/>
    <polyline points="673.8,341.6 673.2,340.7 672.7,340.2 672.2,339.8 671.8,339.5 671.3,339.3 670.5,338.9 669.6,338.7 668.6,338.4 667.4,338.2 665.8,337.9 659.1,336.8"/>
    <polyline points="493.7,533.1 493.5,534.0 493.3,534.4 492.9,534.7 492.7,534.9 492.1,535.2 491.0,535.5"/>
    <polyline points="495.3,534.6 495.8,532.9"/>
    <polyline points="497.6,518.6 497.6,518.8 497.7,519.3 497.7,519.6 497.5,520.1 495.6,528.1 495.4,528.5 495.2,528.9"/>
    <polyline points="497.0,517.1 497.1,517.4 497.1,517.8 496.9,518.5 494.5,528.5 494.5,528.7 494.4,529.3"/>
    <polyline points="495.7,519.5 494.5,524.1 494.1,525.8 494.2,527.3"/>
    <polyline points="495.4,519.4 494.5,523.1 494.5,524.1"/>
    <polyline points="497.5,517.0 497.6,518.6 495.2,528.9 494.9,529.6 494.4,530.5"/>
    <polyline points="499.9,511.6 499.8,512.2 499.7,513.5 499.6,516.7"/>
    <polyline points="496.5,515.4 497.3,511.5 497.4,511.3 497.4,511.2 497.4,511.0 497.3,510.6 496.9,509.8 496.7,509.3 496.4,508.6 496.0,507.8 495.8,507.3 495.6,507.0 495.5,506.7 495.5,506.5 495.5,506.3 495.6,506.1 495.6,505.9 495.7,505.5 496.0,504.7"/>
    <polyline points="498.0,519.5 497.5,517.0 497.6,516.6 498.3,513.6 498.8,511.6 499.1,510.9 500.7,507.9"/>
    <polyline points="485.6,531.5 485.3,532.6 485.2,533.3 485.3,533.9 485.5,534.4 485.8,534.8 486.4,535.1 487.1,535.4 487.9,535.5 488.7,535.5 490.0,535.3 491.4,535.2 492.2,534.9 493.0,534.5 493.3,534.0 493.7,533.1 494.4,530.5 494.4,529.3 494.4,528.5 494.2,527.3 498.0,511.9 497.8,511.1"/>
    <polyline points="496.0,515.4 496.9,511.6 497.0,510.9 497.0,510.7 497.0,510.6 497.0,510.4 496.9,509.8"/>
    <polyline points="495.4,515.3 496.6,510.5 496.7,510.2 496.7,509.9 496.7,509.7 496.7,509.6 496.7,509.3"/>
    <polyline points="495.2,515.3 496.4,509.9 496.5,509.6 496.5,509.5 496.5,509.3 496.4,508.6"/>
    <polyline points="547.7,309.9 550.0,314.5 552.8,317.4 558.5,320.6 567.4,324.3 573.4,327.1 575.8,328.4 577.6,329.5 579.3,330.9 580.2,331.6 581.1,332.6"/>
    <polyline points="707.7,412.5 706.4,409.7 705.2,407.2 704.1,404.8 703.1,402.8 700.7,397.9 696.5,389.1 693.2,382.3 689.2,373.9 687.9,370.7 685.8,366.3 685.3,365.1 684.8,364.1"/>
    <polyline points="673.4,341.7 674.1,342.8 675.5,344.7 676.2,345.8 677.0,347.7 680.5,356.0 680.9,356.9 683.5,362.7 684.3,364.2"/>
    <polyline points="274.3,246.8 272.4,246.6 271.3,246.4 267.5,245.6"/>
    <polyline points="186.6,227.3 187.1,227.4 189.6,228.0 190.3,228.1 192.1,228.5 193.2,228.8 194.3,229.0 195.0,229.1 200.9,230.3 203.5,230.9 204.4,231.1 205.9,231.5 208.9,232.4"/>
    <polyline points="194.2,228.5 195.3,228.6 195.8,228.7 196.4,228.8 204.5,230.6 209.2,231.6 209.5,231.7"/>
    <polyline points="216.4,234.1 217.8,234.4 219.0,234.7 219.9,234.9 220.8,235.0 228.6,236.2 231.6,236.7 234.4,237.4 237.1,238.1 240.0,238.9 246.5,240.6 248.7,241.1 253.3,242.2 259.7,243.7"/>
    <polyline points="208.9,232.4 210.5,232.8 213.5,233.5"/>
    <polyline points="195.0,229.1 198.8,229.7 201.1,230.0"/>
    <polyline points="293.3,251.1 298.6,252.3"/>
    <polyline points="196.5,229.0 198.8,229.7 200.9,230.3"/>
    <polyline points="261.4,244.1 262.2,244.2 263.8,244.6 265.4,244.9 274.3,246.8 280.3,248.1 293.3,251.1"/>
    <polyline points="259.7,243.7 261.4,244.1"/>
    <polyline points="496.0,509.2 495.4,510.3 494.3,515.2"/>
    <polyline points="496.0,507.8 496.1,508.5 496.1,508.7 496.1,508.8 496.0,509.2 494.7,515.3"/>
    <polyline points="732.5,442.4 732.1,441.7 731.8,441.1 731.3,440.2 730.6,439.4 729.2,438.0 727.8,436.8 726.4,435.7 723.5,433.6 717.4,429.0 714.9,426.3 713.3,424.0 711.8,421.4 710.3,418.6 709.5,416.7 708.8,415.2 708.1,413.4"/>
    <polyline points="744.5,466.6 744.2,466.1"/>
    <polyline points="663.6,337.8 665.8,337.9"/>
    <polyline points="708.1,413.4 707.7,412.5"/>
    <polyline points="661.3,337.4 659.1,336.8"/>
    <polyline points="732.7,443.1 732.5,442.4"/>
    <polyline points="743.6,466.2 744.0,466.7"/>
    <polyline points="747.0,479.8 747.3,481.9"/>
    <polyline points="659.1,336.8 652.7,336.5 645.9,336.8 639.3,337.7 634.1,338.6"/>
    <polyline points="746.4,476.1 746.7,478.1 746.9,479.0 747.0,479.8"/>
    <polyline points="747.7,479.7 747.6,478.9 747.4,478.1 747.1,476.0"/>
    <polyline points="748.0,481.8 747.7,479.7"/>
    <polyline points="634.3,339.0 633.0,339.3 631.8,339.6"/>
    <polyline points="747.1,476.0 747.0,475.6 746.6,473.1 746.2,471.6 745.8,470.1 745.3,468.6 745.0,467.7 744.5,466.6"/>
    <polyline points="744.2,466.1 742.5,463.2 740.8,460.0 739.4,457.4 738.6,455.9 737.8,454.4 736.8,452.5 735.9,450.6 734.9,448.2 733.8,445.6 732.7,443.1"/>
    <polyline points="659.0,337.0 661.3,337.4 663.6,337.8 667.0,338.4 668.2,338.6 669.2,338.9 670.1,339.2 670.8,339.5 671.5,339.8 672.1,340.3 672.7,340.8 673.4,341.7"/>
    <polyline points="684.8,364.1 684.0,362.5 681.1,356.0 677.5,347.6 676.6,345.5 675.9,344.5 674.6,342.6 673.8,341.6"/>
    <polyline points="704.9,407.4 706.4,409.7"/>
    <polyline points="703.8,405.0 703.1,402.8"/>
    <polyline points="742.5,463.2 742.3,462.6 742.0,462.0 741.8,461.3 739.3,456.7"/>
    <polyline points="747.0,475.6 746.8,475.0 746.2,473.2 745.9,472.3 745.5,471.3"/>
    <polyline points="745.8,470.1 746.0,471.1 746.1,471.9 746.2,473.2 746.3,474.7 746.4,475.7"/>
    <polyline points="681.1,356.0 681.4,357.2 681.9,358.4 683.8,362.6"/>
    <polyline points="698.4,391.7 698.5,391.9 700.0,395.0 700.2,395.5 700.2,396.1 700.3,396.7 700.7,397.9"/>
    <polyline points="533.8,374.2 533.5,375.5 532.4,379.4 530.5,385.4 528.7,391.3 524.2,405.5 521.5,414.1"/>
    <polyline points="516.9,431.7 519.8,422.0 520.2,420.9 521.6,416.1"/>
    <polyline points="534.3,374.2 534.4,372.8 534.1,370.9 533.6,368.0 532.7,363.7 532.3,362.8 532.0,362.3 531.7,361.8 531.1,361.0 530.5,360.3 529.8,359.6 529.1,359.1 526.8,357.6 522.3,355.0 519.6,352.6 518.4,350.9 517.6,349.2 517.2,347.6"/>
    <polyline points="516.7,347.6 517.0,349.4 517.7,351.0 519.1,352.8 521.8,355.2 526.4,358.0 528.7,359.4 529.4,360.0 530.0,360.6 530.6,361.2 531.1,362.0 531.4,362.5 531.7,362.9 532.1,363.8 532.3,364.4 533.0,368.0 533.6,371.0 533.8,372.7 533.8,374.2"/>
    <polyline points="492.2,510.7 492.8,508.9"/>
    <polyline points="494.3,501.4 492.1,508.8"/>
    <polyline points="492.1,508.8 491.6,510.5"/>
    <polyline points="492.8,508.9 495.0,501.5"/>
    <polyline points="517.2,347.6 517.0,345.8 517.2,343.9 518.1,340.8 519.1,337.1"/>
    <polyline points="518.7,337.0 517.6,340.8 516.7,343.9 516.6,345.7 516.7,347.6"/>
    <polyline points="491.6,510.5 490.7,513.3 488.8,519.2 486.4,527.0 485.6,529.4"/>
    <polyline points="516.2,431.7 511.4,447.0 504.3,469.5 498.6,487.5 496.6,493.7 495.8,496.4 495.0,499.0 494.3,501.4"/>
    <polyline points="495.0,501.5 496.2,497.5 496.6,496.5 497.0,495.1 497.4,493.8 498.1,491.4 498.9,489.0 499.3,487.5 505.0,469.5 511.9,447.0 516.9,431.7"/>
    <polyline points="547.7,309.9 545.9,313.7 545.1,314.8 543.8,315.9 542.1,316.9 540.6,317.7 532.6,319.8 529.0,320.7 528.0,321.2 526.6,321.9 525.1,322.8 523.7,324.0 523.5,324.1 522.4,325.5 521.7,326.7 521.2,328.4"/>
    <polyline points="485.0,531.4 484.7,532.2 484.5,532.9 484.4,533.5 484.4,533.9 484.5,534.3 484.7,534.7 485.0,535.0 485.3,535.3 485.8,535.6 486.4,535.7 487.0,535.8 487.6,535.9 488.2,535.8 491.0,535.5 492.5,535.3 493.2,535.2 493.9,535.0 494.4,534.7 494.9,534.2 495.4,533.6 495.8,532.9 499.6,516.7 502.8,503.0 502.9,502.8"/>
    <polyline points="488.9,521.4 486.4,527.0"/>
    <polyline points="532.4,379.4 532.2,381.0"/>
    <polyline points="518.2,425.2 519.8,422.0"/>
    <polyline points="520.2,420.9 520.3,420.1 520.7,417.3 520.8,416.6"/>
    <polyline points="489.5,519.2 490.7,513.3"/>
    <polyline points="517.6,340.8 518.2,339.3 519.1,337.1"/>
    <polyline points="518.1,340.8 518.2,339.3 518.7,337.0"/>
    <polyline points="533.2,378.5 532.7,379.5 532.2,381.0 530.8,385.5"/>
    <polyline points="521.5,414.1 521.3,414.9 521.0,416.0"/>
    <polyline points="521.6,416.1 522.0,415.0 522.1,414.2"/>
    <polyline points="521.0,416.0 520.8,416.6 518.2,425.2 516.2,431.7"/>
    <polyline points="522.1,414.2 523.4,409.9 524.6,405.5 528.9,391.4 531.0,385.5 533.2,378.5 534.0,375.6 534.3,374.2"/>
    <polyline points="495.2,188.5 493.7,187.5 492.1,186.4 490.7,185.3 489.4,184.3 488.3,183.1 487.4,181.9 486.7,180.7 486.2,179.4 485.9,178.1 485.8,176.8 485.8,173.9 485.7,171.0 485.7,169.8 485.8,168.7 486.0,167.5 486.3,166.5 486.8,165.4 487.3,164.4 488.0,163.5 488.6,162.6 491.2,159.1 499.0,148.6 499.8,147.3 500.5,146.0 501.1,144.7 501.4,143.3 501.6,142.0 501.5,140.6 501.3,139.2 500.9,137.8 500.2,136.5 499.4,135.2 498.3,134.0 497.2,132.9 495.8,131.8 494.2,130.8 492.5,130.0 490.7,129.2 487.7,128.0 483.9,126.6 482.5,126.1 481.0,125.7 479.5,125.4 477.9,125.2 476.3,125.2 474.7,125.2 473.1,125.4 471.5,125.7 469.9,126.1 468.4,126.7 466.9,127.3 465.6,128.1 464.4,129.0 463.4,129.9 462.5,130.9 461.7,131.9 459.5,134.9 458.7,135.9 457.9,136.8 456.9,137.6 455.9,138.4 454.7,139.2 453.4,139.8 451.9,140.4 450.5,140.9 447.1,141.8 438.0,144.2 436.5,144.6 434.9,145.0 433.2,145.3 431.6,145.5 430.0,145.6 428.3,145.7 426.8,145.7 425.3,145.7 418.5,145.6 415.0,145.6 411.6,145.9 408.3,146.4 405.0,147.1 401.9,148.1 398.9,149.3 396.1,150.7 393.5,152.4 390.1,154.8 386.9,157.0 385.3,158.0 383.6,158.8 381.7,159.4 379.8,159.9 377.9,160.2 376.0,160.3 374.1,160.3 372.2,160.1 366.6,159.6 365.5,159.6 364.5,159.5 363.2,159.6 362.0,159.7 360.7,159.9 359.5,160.2 358.3,160.6 357.2,161.1 356.2,161.7 355.3,162.4 354.4,163.1 353.7,163.9 353.1,164.8 352.6,165.7 352.3,166.6 352.1,167.6 351.6,170.3 351.2,172.6 351.1,173.3 351.1,174.1 351.2,174.9 351.3,175.7 351.6,176.5 352.0,177.2 352.5,177.9 353.0,178.6 353.7,179.3 354.5,179.9 355.3,180.5 356.2,180.9 357.8,181.6 359.4,182.2 381.9,189.2 383.5,189.8 385.0,190.5 386.4,191.4 387.7,192.3 388.7,193.4 389.5,194.6 390.1,195.9 390.4,197.2 390.6,199.4 390.8,201.9 390.8,203.1 390.5,204.3 390.0,205.4 389.3,206.5 388.3,207.5 387.2,208.4 385.9,209.2 384.5,209.9 380.6,211.8 379.1,212.6 377.6,213.5 376.2,214.4 374.8,215.3 373.5,216.3 372.2,217.4 371.0,218.4 369.9,219.6 367.9,221.9 366.0,223.9 365.4,224.4 364.6,225.1 363.9,225.5 363.2,225.9 362.5,226.3 361.7,226.6 360.8,226.8 360.0,227.0 359.1,227.2 358.2,227.3 357.4,227.3 356.5,227.3 355.6,227.3 354.7,227.2 353.9,227.1 353.1,226.9 349.6,226.0 348.5,225.8 347.4,225.6 346.4,225.6 345.3,225.5 344.3,225.6 343.2,225.7 342.2,225.9 341.3,226.2 340.3,226.5 339.4,226.9 338.6,227.3 337.8,227.8 337.1,228.4 336.4,229.0 335.8,229.7 335.3,230.4 333.8,232.7"/>
  </g>

  <!-- 지하철 역 -->
  <g>
    <circle cx="263.9" cy="244.4" r="3" fill="#dc2626" stroke="#fff" stroke-width="1"/>
    <circle cx="747.2" cy="479.0" r="3" fill="#dc2626" stroke="#fff" stroke-width="1"/>
    <circle cx="485.6" cy="530.5" r="3" fill="#dc2626" stroke="#fff" stroke-width="1"/>
    <circle cx="499.0" cy="487.4" r="3" fill="#dc2626" stroke="#fff" stroke-width="1"/>
    <circle cx="708.6" cy="415.2" r="3" fill="#dc2626" stroke="#fff" stroke-width="1"/>
    <circle cx="685.5" cy="366.4" r="3" fill="#dc2626" stroke="#fff" stroke-width="1"/>
    <circle cx="739.2" cy="457.5" r="3" fill="#dc2626" stroke="#fff" stroke-width="1"/>
    <circle cx="511.7" cy="447.0" r="3" fill="#dc2626" stroke="#fff" stroke-width="1"/>
    <circle cx="674.4" cy="342.7" r="3" fill="#dc2626" stroke="#fff" stroke-width="1"/>
    <circle cx="533.3" cy="368.0" r="3" fill="#dc2626" stroke="#fff" stroke-width="1"/>
    <circle cx="521.6" cy="414.9" r="3" fill="#dc2626" stroke="#fff" stroke-width="1"/>
    <circle cx="519.8" cy="333.9" r="3" fill="#dc2626" stroke="#fff" stroke-width="1"/>
    <circle cx="190.4" cy="227.9" r="3" fill="#dc2626" stroke="#fff" stroke-width="1"/>
    <circle cx="215.2" cy="233.6" r="3" fill="#dc2626" stroke="#fff" stroke-width="1"/>
    <circle cx="632.9" cy="339.1" r="3" fill="#dc2626" stroke="#fff" stroke-width="1"/>
    <circle cx="582.6" cy="333.9" r="3" fill="#dc2626" stroke="#fff" stroke-width="1"/>
    <circle cx="541.7" cy="295.1" r="3" fill="#dc2626" stroke="#fff" stroke-width="1"/>
    <circle cx="519.3" cy="261.5" r="3" fill="#dc2626" stroke="#fff" stroke-width="1"/>
    <circle cx="403.7" cy="251.8" r="3" fill="#dc2626" stroke="#fff" stroke-width="1"/>
    <circle cx="331.5" cy="254.6" r="3" fill="#dc2626" stroke="#fff" stroke-width="1"/>
    <circle cx="300.8" cy="252.7" r="3" fill="#dc2626" stroke="#fff" stroke-width="1"/>
    <circle cx="339.0" cy="398.3" r="3" fill="#dc2626" stroke="#fff" stroke-width="1"/>
    <circle cx="374.9" cy="412.3" r="3" fill="#dc2626" stroke="#fff" stroke-width="1"/>
    <circle cx="417.8" cy="375.6" r="3" fill="#dc2626" stroke="#fff" stroke-width="1"/>
    <circle cx="427.8" cy="344.7" r="3" fill="#dc2626" stroke="#fff" stroke-width="1"/>
    <circle cx="273.7" cy="380.4" r="3" fill="#dc2626" stroke="#fff" stroke-width="1"/>
    <circle cx="555.2" cy="117.7" r="3" fill="#dc2626" stroke="#fff" stroke-width="1"/>
    <circle cx="444.0" cy="298.2" r="3" fill="#dc2626" stroke="#fff" stroke-width="1"/>
    <circle cx="459.3" cy="275.7" r="3" fill="#dc2626" stroke="#fff" stroke-width="1"/>
    <circle cx="497.5" cy="270.6" r="3" fill="#dc2626" stroke="#fff" stroke-width="1"/>
    <circle cx="383.3" cy="316.8" r="3" fill="#dc2626" stroke="#fff" stroke-width="1"/>
    <circle cx="361.3" cy="288.8" r="3" fill="#dc2626" stroke="#fff" stroke-width="1"/>
    <circle cx="390.9" cy="199.4" r="3" fill="#dc2626" stroke="#fff" stroke-width="1"/>
    <circle cx="351.9" cy="170.3" r="3" fill="#dc2626" stroke="#fff" stroke-width="1"/>
    <circle cx="334.1" cy="232.8" r="3" fill="#dc2626" stroke="#fff" stroke-width="1"/>
    <circle cx="368.1" cy="222.0" r="3" fill="#dc2626" stroke="#fff" stroke-width="1"/>
    <circle cx="390.3" cy="154.9" r="3" fill="#dc2626" stroke="#fff" stroke-width="1"/>
    <circle cx="447.2" cy="142.0" r="3" fill="#dc2626" stroke="#fff" stroke-width="1"/>
    <circle cx="522.3" cy="202.3" r="3" fill="#dc2626" stroke="#fff" stroke-width="1"/>
    <circle cx="533.4" cy="236.9" r="3" fill="#dc2626" stroke="#fff" stroke-width="1"/>
    <circle cx="485.5" cy="173.9" r="3" fill="#dc2626" stroke="#fff" stroke-width="1"/>
    <circle cx="487.5" cy="128.2" r="3" fill="#dc2626" stroke="#fff" stroke-width="1"/>
    <circle cx="542.4" cy="137.4" r="3" fill="#dc2626" stroke="#fff" stroke-width="1"/>
    <circle cx="632.9" cy="339.1" r="3" fill="#dc2626" stroke="#fff" stroke-width="1"/>
  </g>
</svg>