<?xml version="1.0" encoding="UTF-8"?>
<svg width="800" height="600" viewBox="0 0 800 600" 
     xmlns="http://www.w3.org/2000/svg">
  <title>Copenhagen Subway Map</title>
  <rect width="100%" height="100%" fill="#f8f9fa"/>

  <!-- 지하철 선로 -->
  <g id="subway-lines" stroke="#2563eb" stroke-width="3" fill="none">
    <polyline points="486.3,529.5 488.9,521.4 489.5,519.2 492.2,510.7" opacity="0.8"/>
    <polyline points="305.0,253.8 307.4,254.3 308.9,254.4 310.5,254.4 313.3,254.3 314.8,254.3 318.5,254.3 320.1,254.3 323.7,254.5 325.6,254.7 327.4,254.7 328.7,254.7" opacity="0.8"/>
    <polyline points="519.1,337.1 520.0,333.9 520.7,331.7 521.7,328.2" opacity="0.8"/>
    <polyline points="331.0,254.7 331.3,254.6 332.9,254.6 333.8,254.6 335.5,254.6 341.7,254.4 342.8,254.4 346.7,254.1 350.9,253.5 353.3,253.1 355.3,252.7 360.0,251.6 366.1,249.0 370.7,247.4 373.2,246.9 375.8,246.5 379.8,246.4 382.6,246.7 387.2,247.5 392.2,248.7 397.2,250.1 402.4,251.6" opacity="0.8"/>
    <polyline points="404.7,252.2 406.2,252.6 407.8,252.9 410.7,253.5 414.1,253.8 417.7,253.5 422.6,252.1 426.5,249.9 429.1,247.9 433.4,243.2 439.0,237.2 440.1,236.3 442.8,235.2 445.3,234.6 447.5,234.7 449.7,234.8 453.9,235.7 467.4,241.7 468.2,242.1" opacity="0.8"/>
    <polyline points="519.5,263.3 520.8,267.4 522.6,271.6 524.0,274.2 528.6,282.0 532.8,287.3 536.6,290.7 538.6,292.6 539.7,293.6 540.5,294.3" opacity="0.8"/>
    <polyline points="542.6,296.3 544.7,298.3 545.9,299.8 546.7,302.1 547.4,304.5 547.8,308.0 547.7,309.9" opacity="0.8"/>
    <polyline points="744.0,466.7 744.4,467.7 744.9,468.7 745.2,469.8 745.5,471.3 746.4,475.7 746.4,476.1" opacity="0.8"/>
    <polyline points="293.4,250.9 274.2,246.6 265.5,244.6 263.9,244.3 262.4,243.9 262.1,243.9" opacity="0.8"/>
    <polyline points="261.5,243.7 259.9,243.3" opacity="0.8"/>
    <polyline points="259.9,243.3 253.3,242.0 248.8,240.9 246.6,240.4 244.2,239.8 239.5,238.5 234.7,237.2 232.6,236.7 230.8,236.3 229.2,236.0 221.0,234.5 220.1,234.4 219.2,234.2 218.0,233.9 216.6,233.6" opacity="0.8"/>
    <polyline points="209.4,232.0 208.2,231.8 207.0,231.5 206.1,231.2 204.6,230.9 203.5,230.6 201.1,230.0 196.5,229.0 194.2,228.5 193.4,228.4 192.3,228.1 190.5,227.7 189.7,227.6 185.2,226.4 184.6,226.3" opacity="0.8"/>
    <polyline points="216.6,233.6 215.5,233.4 214.1,233.1" opacity="0.8"/>
    <polyline points="732.2,442.4 732.5,443.1" opacity="0.8"/>
    <polyline points="707.5,413.4 708.2,415.3 709.0,416.8 709.9,418.7 711.6,421.5 713.0,424.1 714.6,426.4 717.1,429.1 723.2,433.8 726.1,435.9 727.5,436.9 729.0,438.1 730.3,439.5 731.0,440.3 731.5,441.1 731.9,441.8 732.2,442.4" opacity="0.8"/>
    <polyline points="732.5,443.1 733.6,445.7 734.6,448.3 735.6,450.7 736.4,452.6 737.3,454.5 738.1,456.0 738.9,457.5 740.3,460.2 741.8,463.1 743.6,466.2" opacity="0.8"/>
    <polyline points="684.3,364.2 684.8,365.2 685.3,366.4 687.5,370.8 688.9,374.0 693.0,382.3 696.2,389.2 700.5,397.9 702.8,402.9 703.8,405.0 704.9,407.4 707.2,412.6" opacity="0.8"/>
    <polyline points="707.2,412.6 707.5,413.4" opacity="0.8"/>
    <polyline points="673.8,341.6 673.2,340.7 672.7,340.2 672.2,339.8 671.8,339.5 671.3,339.3 670.5,338.9 669.6,338.7 668.6,338.4 667.4,338.2 665.8,337.9 659.1,336.8" opacity="0.8"/>
    <polyline points="493.7,533.1 493.5,534.0 493.3,534.4 492.9,534.7 492.7,534.9 492.1,535.2 491.0,535.5" opacity="0.8"/>
    <polyline points="495.3,534.6 495.8,532.9" opacity="0.8"/>
    <polyline points="497.6,518.6 497.6,518.8 497.7,519.3 497.7,519.6 497.5,520.1 495.6,528.1 495.4,528.5 495.2,528.9" opacity="0.8"/>
    <polyline points="497.0,517.1 497.1,517.4 497.1,517.8 496.9,518.5 494.5,528.5 494.5,528.7 494.4,529.3" opacity="0.8"/>
    <polyline points="495.7,519.5 494.5,524.1 494.1,525.8 494.2,527.3" opacity="0.8"/>
    <polyline points="495.4,519.4 494.5,523.1 494.5,524.1" opacity="0.8"/>
    <polyline points="497.5,517.0 497.6,518.6 495.2,528.9 494.9,529.6 494.4,530.5" opacity="0.8"/>
    <polyline points="499.9,511.6 499.8,512.2 499.7,513.5 499.6,516.7" opacity="0.8"/>
    <polyline points="496.5,515.4 497.3,511.5 497.4,511.3 497.4,511.2 497.4,511.0 497.3,510.6 496.9,509.8 496.7,509.3 496.4,508.6 496.0,507.8 495.8,507.3 495.6,507.0 495.5,506.7 495.5,506.5 495.5,506.3 495.6,506.1 495.6,505.9 495.7,505.5 496.0,504.7" opacity="0.8"/>
    <polyline points="498.0,519.5 497.5,517.0 497.6,516.6 498.3,513.6 498.8,511.6 499.1,510.9 500.7,507.9" opacity="0.8"/>
    <polyline points="485.6,531.5 485.3,532.6 485.2,533.3 485.3,533.9 485.5,534.4 485.8,534.8 486.4,535.1 487.1,535.4 487.9,535.5 488.7,535.5 490.0,535.3 491.4,535.2 492.2,534.9 493.0,534.5 493.3,534.0 493.7,533.1 494.4,530.5 494.4,529.3 494.4,528.5 494.2,527.3 498.0,511.9 497.8,511.1" opacity="0.8"/>
    <polyline points="496.0,515.4 496.9,511.6 497.0,510.9 497.0,510.7 497.0,510.6 497.0,510.4 496.9,509.8" opacity="0.8"/>
    <polyline points="495.4,515.3 496.6,510.5 496.7,510.2 496.7,509.9 496.7,509.7 496.7,509.6 496.7,509.3" opacity="0.8"/>
    <polyline points="495.2,515.3 496.4,509.9 496.5,509.6 496.5,509.5 496.5,509.3 496.4,508.6" opacity="0.8"/>
    <polyline points="547.7,309.9 550.0,314.5 552.8,317.4 558.5,320.6 567.4,324.3 573.4,327.1 575.8,328.4 577.6,329.5 579.3,330.9 580.2,331.6 581.1,332.6" opacity="0.8"/>
    <polyline points="707.7,412.5 706.4,409.7 705.2,407.2 704.1,404.8 703.1,402.8 700.7,397.9 696.5,389.1 693.2,382.3 689.2,373.9 687.9,370.7 685.8,366.3 685.3,365.1 684.8,364.1" opacity="0.8"/>
    <polyline points="673.4,341.7 674.1,342.8 675.5,344.7 676.2,345.8 677.0,347.7 680.5,356.0 680.9,356.9 683.5,362.7 684.3,364.2" opacity="0.8"/>
    <polyline points="274.3,246.8 272.4,246.6 271.3,246.4 267.5,245.6" opacity="0.8"/>
    <polyline points="186.6,227.3 187.1,227.4 189.6,228.0 190.3,228.1 192.1,228.5 193.2,228.8 194.3,229.0 195.0,229.1 200.9,230.3 203.5,230.9 204.4,231.1 205.9,231.5 208.9,232.4" opacity="0.8"/>
    <polyline points="194.2,228.5 195.3,228.6 195.8,228.7 196.4,228.8 204.5,230.6 209.2,231.6 209.5,231.7" opacity="0.8"/>
    <polyline points="216.4,234.1 217.8,234.4 219.0,234.7 219.9,234.9 220.8,235.0 228.6,236.2 231.6,236.7 234.4,237.4 237.1,238.1 240.0,238.9 246.5,240.6 248.7,241.1 253.3,242.2 259.7,243.7" opacity="0.8"/>
    <polyline points="208.9,232.4 210.5,232.8 213.5,233.5" opacity="0.8"/>
    <polyline points="195.0,229.1 198.8,229.7 201.1,230.0" opacity="0.8"/>
    <polyline points="293.3,251.1 298.6,252.3" opacity="0.8"/>
    <polyline points="196.5,229.0 198.8,229.7 200.9,230.3" opacity="0.8"/>
    <polyline points="261.4,244.1 262.2,244.2 263.8,244.6 265.4,244.9 274.3,246.8 280.3,248.1 293.3,251.1" opacity="0.8"/>
    <polyline points="259.7,243.7 261.4,244.1" opacity="0.8"/>
    <polyline points="496.0,509.2 495.4,510.3 494.3,515.2" opacity="0.8"/>
    <polyline points="496.0,507.8 496.1,508.5 496.1,508.7 496.1,508.8 496.0,509.2 494.7,515.3" opacity="0.8"/>
    <polyline points="732.5,442.4 732.1,441.7 731.8,441.1 731.3,440.2 730.6,439.4 729.2,438.0 727.8,436.8 726.4,435.7 723.5,433.6 717.4,429.0 714.9,426.3 713.3,424.0 711.8,421.4 710.3,418.6 709.5,416.7 708.8,415.2 708.1,413.4" opacity="0.8"/>
    <polyline points="744.5,466.6 744.2,466.1" opacity="0.8"/>
  </g>

  <!-- 지하철 역 -->
  <g id="subway-stations">
    <circle cx="263.9" cy="244.4" r="4" fill="#dc2626" stroke="#fff" stroke-width="2"/>
    <text x="263.9" y="236.4" text-anchor="middle" font-size="10" fill="#374151">Lindevang</text>
    <circle cx="747.2" cy="479.0" r="4" fill="#dc2626" stroke="#fff" stroke-width="2"/>
    <text x="747.2" y="471.0" text-anchor="middle" font-size="10" fill="#374151">Lufthavnen (Metro)</text>
    <circle cx="485.6" cy="530.5" r="4" fill="#dc2626" stroke="#fff" stroke-width="2"/>
    <text x="485.6" y="522.5" text-anchor="middle" font-size="10" fill="#374151">Vestamager</text>
    <circle cx="499.0" cy="487.4" r="4" fill="#dc2626" stroke="#fff" stroke-width="2"/>
    <text x="499.0" y="479.4" text-anchor="middle" font-size="10" fill="#374151">Ørestad</text>
    <circle cx="708.6" cy="415.2" r="4" fill="#dc2626" stroke="#fff" stroke-width="2"/>
    <text x="708.6" y="407.2" text-anchor="middle" font-size="10" fill="#374151">Femøren</text>
    <circle cx="685.5" cy="366.4" r="4" fill="#dc2626" stroke="#fff" stroke-width="2"/>
    <text x="685.5" y="358.4" text-anchor="middle" font-size="10" fill="#374151">Amager Strand</text>
    <circle cx="739.2" cy="457.5" r="4" fill="#dc2626" stroke="#fff" stroke-width="2"/>
    <text x="739.2" y="449.5" text-anchor="middle" font-size="10" fill="#374151">Kastrup</text>
    <circle cx="511.7" cy="447.0" r="4" fill="#dc2626" stroke="#fff" stroke-width="2"/>
    <text x="511.7" y="439.0" text-anchor="middle" font-size="10" fill="#374151">Bella Center</text>
    <circle cx="674.4" cy="342.7" r="4" fill="#dc2626" stroke="#fff" stroke-width="2"/>
    <text x="674.4" y="334.7" text-anchor="middle" font-size="10" fill="#374151">Øresund</text>
    <circle cx="533.3" cy="368.0" r="4" fill="#dc2626" stroke="#fff" stroke-width="2"/>
    <text x="533.3" y="360.0" text-anchor="middle" font-size="10" fill="#374151">DR Byen</text>
    <circle cx="521.6" cy="414.9" r="4" fill="#dc2626" stroke="#fff" stroke-width="2"/>
    <text x="521.6" y="406.9" text-anchor="middle" font-size="10" fill="#374151">Sundby</text>
    <circle cx="519.8" cy="333.9" r="4" fill="#dc2626" stroke="#fff" stroke-width="2"/>
    <text x="519.8" y="325.9" text-anchor="middle" font-size="10" fill="#374151">Islands Brygge</text>
    <circle cx="190.4" cy="227.9" r="4" fill="#dc2626" stroke="#fff" stroke-width="2"/>
    <text x="190.4" y="219.9" text-anchor="middle" font-size="10" fill="#374151">Vanløse</text>
    <circle cx="215.2" cy="233.6" r="4" fill="#dc2626" stroke="#fff" stroke-width="2"/>
    <text x="215.2" y="225.6" text-anchor="middle" font-size="10" fill="#374151">Flintholm</text>
    <circle cx="632.9" cy="339.1" r="4" fill="#dc2626" stroke="#fff" stroke-width="2"/>
    <text x="632.9" y="331.1" text-anchor="middle" font-size="10" fill="#374151">Lergravsparken</text>
    <circle cx="582.6" cy="333.9" r="4" fill="#dc2626" stroke="#fff" stroke-width="2"/>
    <text x="582.6" y="325.9" text-anchor="middle" font-size="10" fill="#374151">Amagerbro</text>
    <circle cx="541.7" cy="295.1" r="4" fill="#dc2626" stroke="#fff" stroke-width="2"/>
    <text x="541.7" y="287.1" text-anchor="middle" font-size="10" fill="#374151">Christianshavn</text>
    <circle cx="519.3" cy="261.5" r="4" fill="#dc2626" stroke="#fff" stroke-width="2"/>
    <text x="519.3" y="253.5" text-anchor="middle" font-size="10" fill="#374151">Kongens Nytorv</text>
    <circle cx="403.7" cy="251.8" r="4" fill="#dc2626" stroke="#fff" stroke-width="2"/>
    <text x="403.7" y="243.8" text-anchor="middle" font-size="10" fill="#374151">Forum</text>
    <circle cx="331.5" cy="254.6" r="4" fill="#dc2626" stroke="#fff" stroke-width="2"/>
    <text x="331.5" y="246.6" text-anchor="middle" font-size="10" fill="#374151">Frederiksberg</text>
    <circle cx="300.8" cy="252.7" r="4" fill="#dc2626" stroke="#fff" stroke-width="2"/>
    <text x="300.8" y="244.7" text-anchor="middle" font-size="10" fill="#374151">Fasanvej</text>
    <circle cx="339.0" cy="398.3" r="4" fill="#dc2626" stroke="#fff" stroke-width="2"/>
    <text x="339.0" y="390.3" text-anchor="middle" font-size="10" fill="#374151">Mozarts Plads</text>
    <circle cx="374.9" cy="412.3" r="4" fill="#dc2626" stroke="#fff" stroke-width="2"/>
    <text x="374.9" y="404.3" text-anchor="middle" font-size="10" fill="#374151">Sluseholmen</text>
    <circle cx="417.8" cy="375.6" r="4" fill="#dc2626" stroke="#fff" stroke-width="2"/>
    <text x="417.8" y="367.6" text-anchor="middle" font-size="10" fill="#374151">Enghave Brygge</text>
    <circle cx="427.8" cy="344.7" r="4" fill="#dc2626" stroke="#fff" stroke-width="2"/>
    <text x="427.8" y="336.7" text-anchor="middle" font-size="10" fill="#374151">Havneholmen</text>
    <circle cx="273.7" cy="380.4" r="4" fill="#dc2626" stroke="#fff" stroke-width="2"/>
    <text x="273.7" y="372.4" text-anchor="middle" font-size="10" fill="#374151">København Syd</text>
    <circle cx="555.2" cy="117.7" r="4" fill="#dc2626" stroke="#fff" stroke-width="2"/>
    <text x="555.2" y="109.7" text-anchor="middle" font-size="10" fill="#374151">Orientkaj</text>
    <circle cx="444.0" cy="298.2" r="4" fill="#dc2626" stroke="#fff" stroke-width="2"/>
    <circle cx="459.3" cy="275.7" r="4" fill="#dc2626" stroke="#fff" stroke-width="2"/>
    <text x="459.3" y="267.7" text-anchor="middle" font-size="10" fill="#374151">Rådhuspladsen</text>
    <circle cx="497.5" cy="270.6" r="4" fill="#dc2626" stroke="#fff" stroke-width="2"/>
    <text x="497.5" y="262.6" text-anchor="middle" font-size="10" fill="#374151">Gammel Strand</text>
    <circle cx="383.3" cy="316.8" r="4" fill="#dc2626" stroke="#fff" stroke-width="2"/>
    <text x="383.3" y="308.8" text-anchor="middle" font-size="10" fill="#374151">Enghave Plads</text>
    <circle cx="361.3" cy="288.8" r="4" fill="#dc2626" stroke="#fff" stroke-width="2"/>
    <text x="361.3" y="280.8" text-anchor="middle" font-size="10" fill="#374151">Frederiksberg Allé</text>
    <circle cx="390.9" cy="199.4" r="4" fill="#dc2626" stroke="#fff" stroke-width="2"/>
    <text x="390.9" y="191.4" text-anchor="middle" font-size="10" fill="#374151">Nørrebros Runddel</text>
    <circle cx="351.9" cy="170.3" r="4" fill="#dc2626" stroke="#fff" stroke-width="2"/>
    <text x="351.9" y="162.3" text-anchor="middle" font-size="10" fill="#374151">Nørrebro</text>
    <circle cx="334.1" cy="232.8" r="4" fill="#dc2626" stroke="#fff" stroke-width="2"/>
    <text x="334.1" y="224.8" text-anchor="middle" font-size="10" fill="#374151">Aksel Møllers Have</text>
    <circle cx="368.1" cy="222.0" r="4" fill="#dc2626" stroke="#fff" stroke-width="2"/>
    <text x="368.1" y="214.0" text-anchor="middle" font-size="10" fill="#374151">Nuuks Plads</text>
    <circle cx="390.3" cy="154.9" r="4" fill="#dc2626" stroke="#fff" stroke-width="2"/>
    <text x="390.3" y="146.9" text-anchor="middle" font-size="10" fill="#374151">Skjolds Plads</text>
    <circle cx="447.2" cy="142.0" r="4" fill="#dc2626" stroke="#fff" stroke-width="2"/>
    <text x="447.2" y="134.0" text-anchor="middle" font-size="10" fill="#374151">Vibenhus Runddel</text>
    <circle cx="522.3" cy="202.3" r="4" fill="#dc2626" stroke="#fff" stroke-width="2"/>
    <text x="522.3" y="194.3" text-anchor="middle" font-size="10" fill="#374151">Østerport</text>
    <circle cx="533.4" cy="236.9" r="4" fill="#dc2626" stroke="#fff" stroke-width="2"/>
    <text x="533.4" y="228.9" text-anchor="middle" font-size="10" fill="#374151">Marmorkirken</text>
    <circle cx="485.5" cy="173.9" r="4" fill="#dc2626" stroke="#fff" stroke-width="2"/>
    <text x="485.5" y="165.9" text-anchor="middle" font-size="10" fill="#374151">Trianglen</text>
    <circle cx="487.5" cy="128.2" r="4" fill="#dc2626" stroke="#fff" stroke-width="2"/>
    <circle cx="542.4" cy="137.4" r="4" fill="#dc2626" stroke="#fff" stroke-width="2"/>
    <text x="542.4" y="129.4" text-anchor="middle" font-size="10" fill="#374151">Nordhavn</text>
    <circle cx="632.9" cy="339.1" r="4" fill="#dc2626" stroke="#fff" stroke-width="2"/>
    <text x="632.9" y="331.1" text-anchor="middle" font-size="10" fill="#374151">Metro</text>
  </g>
</svg>