<?xml version="1.0" encoding="UTF-8"?>
<svg width="800" height="600" xmlns="http://www.w3.org/2000/svg">
  <title>Dalian Subway Map</title>
  <rect width="100%" height="100%" fill="#f8f9fa"/>

  <!-- 지하철 선로 -->
  <g stroke="#2563eb" stroke-width="2" fill="none" opacity="0.8">
    <polyline points="367.1,508.4 365.9,506.9 364.5,505.3 362.8,503.2 362.3,502.6 361.7,502.0 360.7,500.8 359.5,499.4 358.1,498.0 356.6,496.9 355.1,496.0 353.5,495.4 352.1,495.0 350.3,494.9 348.6,495.0 343.4,495.3 341.6,495.2 339.5,494.8 337.7,494.2"/>
    <polyline points="260.8,265.5 261.8,253.6 263.5,227.2 264.2,212.6"/>
    <polyline points="264.2,212.6 264.0,205.8 263.7,199.1 263.7,195.8 263.7,193.4"/>
    <polyline points="260.0,419.4 259.6,380.8 259.6,379.9 259.7,378.4"/>
    <polyline points="263.7,193.4 263.8,190.7 264.7,175.7 264.9,173.4 265.5,170.9 266.2,168.7"/>
    <polyline points="283.8,152.4 289.4,149.4 296.9,145.2 299.3,143.5 301.2,141.9 302.7,140.1 304.1,138.3 305.3,136.7"/>
    <polyline points="283.1,152.8 283.8,152.4"/>
    <polyline points="319.8,74.0 320.2,72.4"/>
    <polyline points="311.2,116.1 314.8,98.6 315.6,94.6 316.3,91.3 317.5,85.7 319.8,74.0"/>
    <polyline points="305.3,136.7 306.0,135.4 306.2,135.1 307.2,133.0 307.8,131.5 308.6,129.1 309.1,126.8 310.5,120.1 311.2,116.1"/>
    <polyline points="320.2,72.4 321.4,66.5 322.7,60.4 323.3,57.2"/>
    <polyline points="323.8,54.5 327.2,38.4 328.4,32.3 330.5,21.7 331.4,17.2 332.4,12.5 333.2,10.3 334.2,7.8 335.1,6.4"/>
    <polyline points="323.3,57.2 323.8,54.5"/>
    <polyline points="266.2,168.7 267.2,166.2 268.4,164.2 270.3,161.6 271.9,159.8 273.6,158.3 275.6,156.9 283.1,152.8"/>
    <polyline points="260.1,373.4 260.2,371.0 260.3,366.7 260.3,359.2 260.4,355.1 260.4,352.9 260.2,351.0 259.9,347.6 259.4,345.3"/>
    <polyline points="259.7,378.4 260.1,373.4"/>
    <polyline points="259.4,345.3 259.1,341.3"/>
    <polyline points="259.1,341.3 258.9,329.8"/>
    <polyline points="258.9,329.8 258.3,308.1 258.1,301.6 258.1,294.9 258.3,288.9 258.4,282.7 258.7,279.7 259.3,276.5 259.7,273.1"/>
    <polyline points="310.9,486.5 280.7,486.2 279.6,486.1 278.5,485.8 276.5,485.1 275.4,484.6 274.2,483.8 272.5,482.2 270.8,480.4 269.1,478.6 267.6,477.0 265.8,475.2 264.3,473.6 263.0,471.8 262.0,469.9 261.3,467.9 260.9,466.1 260.8,464.6 260.6,455.1 260.3,438.4"/>
    <polyline points="259.7,273.1 260.0,271.0 260.4,268.1 260.8,265.5"/>
    <polyline points="337.7,494.2 335.6,493.1 332.2,490.9 329.3,489.0 327.2,488.0 326.0,487.5 324.5,487.1 322.9,486.8 321.3,486.6 318.9,486.5 310.9,486.5"/>
    <polyline points="337.5,494.2 339.6,495.0 341.6,495.4 344.0,495.5 348.6,495.1 350.2,495.1 352.1,495.2 353.4,495.6 355.0,496.2 356.5,497.1 357.9,498.1 359.3,499.5 360.5,500.9 361.6,502.2 362.6,503.6 364.2,505.5 366.9,508.7"/>
    <polyline points="258.9,341.3 259.0,342.9 259.1,343.8 259.3,345.3"/>
    <polyline points="259.9,419.3 260.0,433.0"/>
    <polyline points="260.3,433.0 260.0,419.4"/>
    <polyline points="258.7,329.8 258.8,331.4 258.9,341.3"/>
    <polyline points="259.9,373.4 259.5,378.4"/>
    <polyline points="260.0,433.0 260.1,438.4"/>
    <polyline points="260.3,438.4 260.3,433.0"/>
    <polyline points="260.1,438.4 260.4,455.2 260.6,464.6 260.8,466.1 261.2,467.9 261.9,470.0 262.9,471.9 264.2,473.7 265.7,475.4 267.5,477.2 268.9,478.8 270.7,480.6 272.3,482.4 274.1,483.9 275.2,484.7 276.4,485.3 278.5,486.0 279.6,486.3 280.6,486.4 310.9,486.6"/>
    <polyline points="360.5,500.9 361.1,501.5 361.7,502.0"/>
    <polyline points="360.7,500.8 361.1,501.5 361.6,502.2"/>
    <polyline points="259.5,378.4 259.4,379.8 259.4,380.8 259.9,419.3"/>
    <polyline points="310.9,486.6 319.1,486.7 321.2,486.7 322.4,486.9 324.0,487.1 325.9,487.6 327.2,488.1 329.2,489.2 332.3,491.2 335.4,493.2 337.5,494.2"/>
    <polyline points="259.3,345.3 259.7,347.6 260.1,351.0 260.3,352.9 260.3,355.1 260.2,359.2 260.2,366.7 260.1,368.6 260.1,371.0 259.9,373.4"/>
    <polyline points="266.0,168.6 265.3,170.9 264.8,173.4 264.5,175.7 263.7,190.7 263.5,193.2"/>
    <polyline points="283.8,152.3 283.1,152.6"/>
    <polyline points="260.6,265.5 260.2,268.2 259.9,271.0 259.5,273.1"/>
    <polyline points="264.0,212.6 263.4,227.2 261.7,253.5 260.6,265.5"/>
    <polyline points="283.1,152.6 275.5,156.8 273.5,158.2 271.8,159.6 270.1,161.5 268.3,164.1 267.1,166.2 266.0,168.6"/>
    <polyline points="259.5,273.1 259.1,276.5 258.6,279.7 258.3,282.7 258.2,288.9 258.0,294.9 258.0,301.6 258.2,308.2 258.7,329.8"/>
    <polyline points="319.6,74.0 318.2,80.8 317.4,84.9 316.7,88.5 316.1,91.6 315.4,94.6 314.8,97.5 312.4,109.3 311.1,116.0"/>
    <polyline points="323.7,54.4 323.1,57.2"/>
    <polyline points="320.0,72.4 319.6,74.0"/>
    <polyline points="323.1,57.2 322.5,60.3 321.2,66.4 320.0,72.4"/>
    <polyline points="311.1,116.0 310.3,120.0 309.0,126.8 308.4,129.0 307.6,131.4 307.1,133.0 306.0,135.0 305.2,136.5"/>
    <polyline points="305.2,136.5 304.0,138.2 302.6,140.0 301.1,141.8 299.2,143.4 296.9,145.1 289.4,149.3 283.8,152.3"/>
    <polyline points="334.9,6.3 334.1,7.8 333.0,10.2 332.3,12.4 331.2,17.2 330.3,21.7 328.2,32.3 326.9,38.3 323.7,54.4"/>
    <polyline points="263.5,193.2 263.5,195.9 263.6,199.2 263.9,205.9 264.0,212.6"/>
    <polyline points="324.3,-25.8 324.2,-20.4 324.2,-15.2 324.1,-4.8 324.0,-3.5 323.7,-2.2 323.5,-0.9 323.2,0.5 322.7,1.8 322.3,2.8 321.7,3.9 321.0,4.9 320.3,5.8 319.6,6.5 318.7,7.2 317.7,7.9 316.7,8.4 305.1,14.4 304.1,14.8 303.0,15.2 301.9,15.5 300.5,15.8 299.0,16.2 298.1,16.5 297.1,16.8 295.9,17.2 295.2,17.5 294.4,17.8 292.9,18.4 287.6,21.3 282.8,23.8 278.4,26.2 276.7,27.1 275.9,27.6 275.5,27.9 275.1,28.2 274.8,28.5 274.5,28.8 273.9,29.5 273.4,30.2 273.0,30.9 272.5,31.8 272.2,32.4 271.8,33.1 271.3,33.8 271.0,34.2 270.7,34.6 270.4,35.0 270.1,35.3 269.7,35.6 269.4,35.9 269.1,36.1 268.7,36.3 268.3,36.6 267.5,37.0 237.7,54.0 233.3,56.5 229.0,58.9 228.0,59.5 227.4,59.9 226.9,60.2 226.4,60.6 225.9,61.0 207.2,75.4 205.8,76.4 205.3,76.9 204.8,77.5 204.3,78.3 203.9,79.0 203.5,79.9 203.2,80.7 202.9,81.6 202.6,82.5 202.4,83.3 202.1,84.3 201.9,85.1 201.7,86.0 201.5,86.9 201.4,87.7 201.3,88.5 201.2,89.3 201.2,90.2 201.2,91.2 201.2,92.0 201.3,92.8 201.5,93.8 202.8,99.2 204.3,105.2 204.5,106.2 204.7,107.2 204.8,108.4 204.9,109.6 205.0,110.6 205.0,111.6 205.1,113.1 205.0,114.1 205.0,114.9 205.0,116.2 204.9,146.9 204.9,148.0 204.8,149.3 204.8,149.9 204.0,155.7 203.3,161.1 203.1,161.8 202.9,162.5 202.6,163.2 202.3,163.9 202.1,164.4 201.8,165.2 197.1,180.0 196.6,181.4 196.0,183.1 194.9,187.1 193.8,191.1 192.5,195.2 188.9,206.0 187.1,211.4 185.3,216.4 182.7,224.0 182.4,225.0 182.1,226.1 181.8,227.2 181.5,228.3 181.2,229.5 175.1,257.8 174.0,263.0 172.7,268.9 171.3,275.5 171.1,276.2 171.0,276.7 170.8,277.7 170.7,278.7 170.6,279.4 170.6,280.4 170.6,281.3 170.7,282.2 170.8,283.1 173.7,295.5 173.9,296.2 174.0,296.9 174.1,297.6 174.1,298.4 174.2,299.1 174.2,299.8 174.2,300.4 174.5,313.2 174.5,314.2 174.6,315.0 174.8,315.8 174.9,316.4 175.1,317.1 175.4,317.8 175.7,318.6 175.9,319.2 176.2,319.8 176.7,320.8 176.9,321.2 177.2,321.7 177.5,322.2 177.8,322.6 178.2,323.2 178.6,323.7 179.0,324.2 179.2,324.6 179.5,325.2 179.7,325.7 179.9,326.1 180.0,326.5 180.2,327.0 180.3,327.4 181.9,332.8 183.3,337.8 184.5,342.0 184.6,342.6 184.7,343.1 184.7,343.7 184.6,344.2 184.4,344.8 184.2,345.3 183.9,345.8 183.6,346.3 176.6,357.5 176.3,358.0 176.1,358.6 175.9,359.2 175.7,359.8 175.7,360.5 175.7,361.1 175.9,364.7 175.9,365.8 175.9,366.6 175.7,367.6 175.3,368.7 174.8,369.9 173.3,373.2 172.7,374.7 172.1,376.1 171.7,377.0 171.4,378.0 168.3,386.7 165.8,393.9 164.7,396.6 164.4,397.5 164.1,398.4 163.8,399.4 163.6,400.4 163.4,401.4 163.2,402.7 163.0,403.8 162.9,405.1 162.9,405.8 162.9,406.6 162.9,407.6 163.1,408.5 163.3,409.2 163.6,409.8 164.2,410.6 186.2,434.5 189.9,438.5 193.2,442.2 208.6,458.9 212.6,463.3 224.3,476.2 224.8,476.9 225.2,477.6 225.4,478.0 225.5,478.3 227.2,483.4 227.4,483.9 227.5,484.4 227.6,485.1 227.7,486.0 227.8,486.5 227.8,486.9 227.8,491.5 227.8,492.1 227.7,492.8 227.6,493.5 227.4,494.2 226.7,496.5 225.0,501.5 223.3,506.5 222.6,508.7 221.3,512.3 213.8,534.5 212.2,539.3 210.6,544.1 208.3,550.8 208.2,551.1 208.1,551.4 208.0,551.8 207.9,552.1 207.9,552.5 207.9,552.7 207.8,553.2 207.6,571.8 207.6,576.6 207.6,582.1 207.5,597.1 207.5,598.1 207.5,599.1 207.4,599.7 207.3,600.3 207.2,600.7 207.0,601.1 206.7,601.7 206.3,602.4 200.7,610.0 200.5,610.4 200.2,610.9 199.8,611.5 199.5,612.3 199.1,613.3 198.8,614.1 198.7,614.9 198.5,615.7 198.4,616.4 198.3,617.3 198.2,618.0 198.2,618.7 198.2,620.1 198.4,629.4 198.5,634.3 198.6,639.3 198.6,640.8 198.7,641.7 198.7,642.5 198.9,643.4 199.0,644.1 199.2,645.2 199.4,646.5 199.7,647.9 201.6,659.5 201.7,660.6 201.8,662.0 201.8,663.5 201.8,665.2 201.8,667.3 201.8,672.4 201.8,677.6 201.7,680.1 201.7,680.8 201.6,681.5 201.5,682.6 201.3,683.5 201.2,684.3 201.1,685.4 199.9,700.4 199.8,701.0 199.6,701.7 199.3,702.3 198.9,702.9 198.5,703.3 198.0,703.8 197.3,704.2 194.0,706.0 189.8,708.2 185.7,710.5 170.7,718.7 169.9,719.0 169.4,719.2 168.7,719.4 168.3,719.6 167.8,719.6 166.9,719.7 163.0,719.8 162.6,719.8 162.1,719.9 161.6,719.9 161.1,720.1 160.5,720.3 152.3,723.1 148.0,724.5 143.3,726.1 139.6,727.5 139.1,727.7 138.7,727.9 138.1,728.3 137.7,728.6 137.3,729.0 132.1,738.0 131.7,738.6 131.5,738.9 131.2,739.2 130.9,739.5 130.5,739.8 120.7,746.5 120.0,747.0 118.9,747.6 118.1,748.1 117.2,748.5 110.4,751.6 109.3,752.2 108.4,752.8 107.5,753.3 106.7,753.9 106.1,754.4 105.6,754.8 105.1,755.2 104.8,755.6 102.2,758.4 98.9,761.7 95.5,765.2 93.5,767.3 93.0,767.7 92.4,768.2 91.8,768.5 91.1,768.8 90.5,768.9 90.1,769.0 89.6,769.0 89.1,768.9 88.6,768.8 80.8,766.4 80.2,766.2 79.6,766.0 69.2,759.9 68.6,759.6 67.9,759.3 67.0,759.1 66.2,758.9 65.3,758.8 64.3,758.7 63.3,758.7 62.6,758.7 61.9,758.8 61.0,758.9 60.0,759.1 59.1,759.4 54.5,761.0 50.0,762.4 49.2,762.7 48.4,763.0 42.0,764.7 41.6,764.8 41.0,765.0 40.4,765.3 39.9,765.7 39.5,766.0 39.2,766.3 38.8,766.8 38.3,767.4 27.3,784.7 26.4,786.1 25.3,787.9 24.3,789.7 18.5,800.5 18.2,801.0 17.9,801.7 17.5,802.4 15.0,806.7 12.6,810.8 -6.7,846.2 -8.5,849.5 -11.0,854.1 -13.4,858.6 -16.7,864.8 -17.2,865.6 -17.5,866.1 -17.7,866.6 -18.1,867.1 -18.5,867.6 -19.0,868.2 -19.5,868.7 -19.8,869.0 -20.2,869.3 -20.5,869.6 -21.0,870.0 -21.5,870.4 -21.9,870.7 -22.4,870.9 -22.8,871.2 -23.5,871.5 -24.4,871.9 -28.8,873.9 -29.6,874.3 -30.4,874.8 -31.2,875.5 -31.9,876.2 -32.6,877.1 -33.1,877.9 -33.6,878.8 -41.4,894.3 -41.7,895.1 -42.1,896.0 -42.4,896.7 -42.7,897.6 -48.3,912.3 -48.8,913.3 -49.3,914.1 -49.9,914.9 -50.4,915.7 -51.1,916.4 -51.8,917.3 -52.4,917.9 -53.2,918.6 -54.0,919.3 -54.7,919.9 -56.7,921.4 -60.2,924.2 -64.1,927.3"/>
    <polyline points="48.2,331.1 47.0,335.9 45.6,341.1 45.2,342.2 44.8,343.1 44.2,344.4 41.4,349.9 41.1,350.7 40.7,351.7 40.1,353.6 39.5,355.9 38.1,362.4 37.8,363.6 37.6,364.7 37.0,367.9 36.4,370.8 36.1,373.0 35.4,378.0 34.6,383.1 32.8,395.3 32.5,396.9 32.2,398.5 31.9,399.5 31.6,400.4 31.3,401.4 21.5,431.6 9.2,468.1 8.8,469.7 8.3,471.3 8.0,473.0 8.0,474.2 8.1,475.4 8.3,476.6 8.8,477.9 11.0,482.4 13.1,487.0 14.2,489.3 14.6,489.9 15.2,490.5 16.0,491.1 18.1,491.9 19.3,492.2 20.4,492.4 27.1,493.5 28.3,493.8 29.6,494.2 30.8,494.6 32.0,495.1 37.8,497.3 42.0,498.9 46.6,500.6 47.0,500.8 47.4,500.8 48.0,500.9 55.2,501.9 56.0,502.1 56.8,502.2 57.4,502.4 57.9,502.6 58.4,502.8 58.9,503.2 69.7,511.3 70.2,511.7 70.8,512.0 72.9,513.3 74.1,514.0 75.3,514.6 79.4,516.6 80.0,516.8 80.5,517.0 80.8,517.1 81.7,517.4 82.5,517.7 83.4,518.1 84.1,518.5 84.9,519.1 88.4,522.4 92.0,525.9 93.0,526.6 93.9,527.2 94.8,527.6 95.8,527.9 96.7,528.3 97.6,528.7 119.0,541.4 123.4,544.0 127.1,546.2 147.2,557.9 151.2,560.2 155.1,562.5 167.6,569.8 168.8,570.6 169.5,571.1 170.4,571.8 171.8,573.0 173.0,574.0 174.2,575.3 178.4,579.9 182.6,584.5 189.1,591.0 192.1,593.7 194.3,595.8 195.1,596.3 195.8,596.8 196.5,597.2 197.0,597.4 197.7,597.7 198.5,597.8 199.3,597.8 200.1,597.8 200.8,597.7 201.6,597.5 202.3,597.2 202.9,597.0 203.4,596.6 204.0,596.0 204.6,595.3 205.7,593.5 206.3,592.6 206.8,591.5 207.2,590.7 207.5,589.5 207.6,588.6 207.7,587.7 208.5,582.0 208.5,576.5 208.5,571.4 208.5,567.3 208.6,566.3 208.6,565.4 208.7,564.8 208.8,564.1 209.0,563.4 209.1,563.0 209.2,562.4 209.4,561.8 209.5,561.4 209.6,561.3 209.7,561.0 209.8,560.8 209.9,560.6 210.1,560.4 210.3,560.1 210.6,559.8 210.8,559.6 211.2,559.3 211.6,559.1 212.0,558.9 212.5,558.7 212.9,558.6 213.4,558.4 214.1,558.2 214.8,558.0 217.6,557.5 220.5,557.0 233.9,555.1 240.4,554.3 244.9,553.8 245.6,553.8 246.5,553.9 247.6,554.1 248.6,554.4 249.6,554.8 250.5,555.3 251.4,555.8 279.8,573.0 280.6,573.4 281.3,573.7 281.9,573.9 282.7,574.1 283.3,574.1 283.9,574.1 284.5,574.0 285.1,573.8 287.9,572.8 292.2,571.4 296.3,570.0 304.0,567.5 316.5,563.4 324.0,561.0 328.5,559.5 329.1,559.3 329.6,559.3 330.0,559.3 332.8,559.3 337.3,559.3 341.5,559.2 356.5,558.9 356.9,558.8 357.3,558.7 357.9,558.6 358.5,558.4 359.0,558.2 359.5,557.9 360.0,557.6 360.5,557.2 360.9,556.7 361.4,556.1 361.8,555.5 362.5,554.1 363.7,551.7 365.3,548.0 366.5,544.9 367.9,540.7"/>
    <polyline points="569.8,745.0 567.5,744.7 565.2,744.5 564.1,744.4 563.2,744.4 561.8,744.5 559.1,745.2 557.6,745.8 554.2,747.3 553.3,747.7 548.5,747.4 539.2,746.3 527.9,745.1 522.1,744.0 520.5,743.7 518.9,743.3 518.1,743.1 514.5,742.2 508.6,740.0 504.1,737.3 501.0,735.1 497.7,731.9 495.7,730.4 492.6,727.8 490.2,725.7 486.7,723.6 479.6,719.8 474.1,716.8 473.3,716.3 472.0,715.5 468.5,713.5 466.9,712.9 464.5,712.0 457.7,710.1 449.2,708.1 447.7,707.2 446.9,706.3 445.8,704.8 444.9,702.8 444.2,701.3 443.1,698.1 441.9,695.0 440.3,690.1 438.7,686.2 436.5,680.8 435.9,678.4 435.1,672.7 434.7,668.9 434.5,666.9 434.1,664.6 433.0,659.9 432.1,655.8 431.8,654.7 431.5,654.0 430.9,652.9 430.0,651.1 427.8,645.9 424.4,639.4 420.8,631.4 417.7,624.5 414.9,617.6 410.9,605.8 409.0,599.5 408.0,596.7 406.7,593.0 403.8,585.4 402.8,582.8 401.4,578.9 399.5,573.3 396.4,563.3 395.7,562.1 395.1,561.3 394.3,560.8 393.5,560.3 392.5,560.2 391.6,560.1 386.8,560.5 385.8,560.7 384.5,560.7 383.8,560.6 383.1,560.5 382.3,560.3 381.5,559.7 380.4,558.7 378.3,555.2 376.9,551.9 375.2,547.0 373.4,542.1 373.0,540.9 372.5,539.6 371.9,538.3 371.5,537.4 371.1,536.6 370.6,535.7 370.0,534.8 369.1,533.5 368.6,532.9 364.7,528.2 364.5,527.9 364.3,527.5 364.2,527.2 364.0,526.7 363.9,526.2 363.8,525.7 363.7,525.0 363.7,524.4 363.7,523.8 363.7,523.1 363.8,522.4 364.3,515.9 364.3,515.4 364.3,514.9 364.3,514.4 364.3,513.8 364.2,513.2 364.1,512.5 363.8,511.8 363.6,511.2 363.1,510.0 361.1,505.2 359.0,500.3 358.5,499.1 357.9,498.0 357.2,496.8 356.5,495.8 353.5,491.4 352.6,490.0 352.2,489.3 351.8,488.5 351.2,487.3 350.8,486.5 350.6,485.8 343.1,461.7 342.4,459.0 341.9,456.3 341.6,454.2 341.3,451.6 341.2,449.1 341.1,447.0 340.9,444.6 340.9,438.5 341.0,431.1 341.5,423.9 341.7,416.3 341.7,411.9 341.5,408.5 341.1,404.6 340.3,399.8 338.7,390.4 336.8,381.8 335.5,376.8 334.0,371.3 331.4,361.2 330.9,359.3 330.4,357.6 329.8,355.7 327.4,350.0 325.4,345.4 322.9,339.8 322.7,338.9 322.5,338.1 322.4,337.2 322.4,336.3 322.5,335.4 322.6,334.4 322.8,333.5 323.0,332.5 323.3,331.7 323.6,330.7 323.9,329.8 324.2,329.0 324.6,328.2 325.1,327.3 325.7,326.3 326.3,325.5 327.1,324.4 327.9,323.5 328.4,322.9 329.0,322.3 329.8,321.7 331.2,320.5 332.8,319.2 334.3,317.8 334.6,317.5 334.9,317.2 335.4,316.6"/>
    <polyline points="417.9,512.4 463.6,492.1 472.8,488.0 475.6,486.7 480.5,484.5 482.1,483.9 483.6,483.4 485.3,483.1 486.7,482.9 488.2,482.7 489.6,482.6 491.0,482.6 492.4,482.8 493.8,483.0 495.0,483.3 496.1,483.6 497.0,484.0 497.9,484.5 498.6,484.9 499.5,485.5 500.1,486.0 500.8,486.6 501.5,487.3 504.3,490.0 505.8,491.4 507.6,492.9 509.7,494.3 512.3,495.7 514.2,496.6 516.6,497.5 518.7,498.1 520.8,498.5 522.8,498.8 524.6,498.9 529.1,498.9"/>
    <polyline points="335.4,316.6 335.8,316.1 336.1,315.7 344.9,303.3 348.1,298.9 351.3,294.5 353.9,290.9 354.4,290.0 354.9,289.0 355.3,288.0 355.7,287.0 356.1,285.5 356.5,283.9 356.9,282.3 357.3,280.4 357.6,278.5 357.8,277.3 357.9,276.2 358.0,275.2 358.0,273.9 358.0,272.2 358.0,271.1 357.9,269.8 357.8,268.2 357.5,266.5 357.2,264.9 356.8,263.6 356.1,262.0 355.1,260.3 354.1,258.7 353.1,257.0 352.3,255.4 351.5,253.6 351.2,252.4 350.8,250.5 350.5,248.5 350.5,247.1 350.5,246.0 350.6,244.9 350.7,244.1 352.1,239.1 353.6,233.8 354.2,231.3 357.1,219.7 357.3,219.1 357.5,218.6 357.8,218.1 358.1,217.6 358.6,216.9 361.4,213.0 362.3,211.9 362.8,211.4 363.3,210.9 363.8,210.4 364.2,210.0 364.8,209.5 365.4,209.0 369.8,205.4 374.0,201.9 380.6,196.4 382.1,195.0 383.4,193.7 384.1,192.8 384.9,191.6 385.7,190.6 386.4,189.5 386.9,188.4 387.4,187.3 387.8,186.2 388.5,184.0 389.0,182.8 389.4,181.8 389.8,180.9 390.2,180.0 390.6,179.0 396.3,168.3 397.3,165.9 398.2,163.4 398.9,160.9 399.5,158.0 400.4,152.8 401.0,148.3 401.3,143.2 401.1,136.6 400.7,131.6 400.0,126.7 398.8,120.2 397.0,111.9 396.7,110.8 396.1,109.7 395.1,108.4 394.0,107.5 391.1,105.8 389.6,104.9 388.3,103.6 386.8,101.0 386.1,99.3 385.4,96.1 385.1,93.8 385.1,92.1 384.9,83.3 384.9,79.8 384.9,76.7 384.7,72.9 384.9,68.6 385.1,66.2 386.0,60.4 386.1,60.0 386.4,56.2 386.6,54.3 387.2,51.8 388.2,46.6 390.3,40.8 390.7,39.8 392.3,36.6 393.6,34.3 397.6,29.0 400.1,25.4 401.5,23.6 404.5,19.0 405.0,17.9 405.1,17.1 405.1,16.3 405.1,14.7 405.0,14.0 404.8,13.4 401.4,4.4 400.2,1.0 399.3,-2.0 398.5,-4.3 397.7,-6.8 395.4,-12.8 393.5,-18.2 392.4,-22.4 391.4,-27.9 391.1,-32.9 391.6,-37.2 392.4,-40.5 392.7,-42.3 392.9,-44.4 388.4,-172.8 388.5,-178.2"/>
    <polyline points="628.6,548.3 665.3,568.6 666.1,569.0 666.8,569.3 668.2,569.9 669.1,570.1 670.1,570.3 674.5,570.5 679.1,570.7"/>
    <polyline points="628.5,548.6 664.3,568.5 665.2,569.0 666.0,569.5 667.1,570.1 668.0,570.5 669.0,570.9 670.1,571.1 674.5,571.3 679.1,571.5"/>
    <polyline points="580.4,522.3 626.2,547.4 628.5,548.6"/>
    <polyline points="529.1,499.2 533.6,499.1 534.7,499.2 535.7,499.3 536.7,499.4 538.5,499.9 540.1,500.4 541.7,501.1 543.1,501.7 576.4,520.1 580.4,522.3"/>
    <polyline points="580.5,521.9 583.2,523.4 590.2,527.2 601.6,533.5 612.1,539.2 622.5,544.9 628.6,548.3"/>
    <polyline points="529.1,498.9 533.6,498.8 534.7,498.8 535.8,498.9 536.8,499.0 538.1,499.2 539.3,499.6 540.8,500.2 542.3,500.8 543.4,501.4 576.6,519.7 580.5,521.9"/>
    <polyline points="367.9,540.7 369.4,535.9 369.7,535.5 369.9,535.1 370.4,534.6 370.9,534.2 371.6,533.8 374.0,532.6 376.3,531.4 388.4,526.3 393.1,524.3 396.8,522.6 409.6,516.6 414.0,514.8 418.3,513.0 468.6,490.6 473.0,488.7 476.7,487.1 480.5,485.4 481.1,485.2 482.2,484.8 483.1,484.5 484.1,484.2 485.3,483.9 486.8,483.7 488.3,483.5 490.0,483.4 491.5,483.5 493.1,483.6 494.7,483.9 496.1,484.3 497.2,484.8 498.2,485.3 499.1,486.0 499.8,486.5 500.5,487.1 501.2,487.7 501.7,488.2 504.1,490.5 505.5,491.7 507.0,492.9 508.4,494.0 510.0,495.0 511.7,496.0 513.6,496.9 514.9,497.4 516.7,498.0 518.6,498.6 520.8,499.0 522.8,499.2 524.6,499.3 529.1,499.2"/>
    <polyline points="367.2,540.4 368.8,535.7 369.0,535.1 369.3,534.7 369.8,534.2 370.5,533.7 374.2,531.5 375.3,530.9 376.2,530.6 388.2,525.7 392.8,523.6 396.4,522.0 400.2,520.2 409.5,515.9 413.8,514.1 417.9,512.4"/>
    <polyline points="296.8,15.7 289.9,19.4 287.1,20.8 282.5,23.3 278.4,25.5 271.2,29.3 270.5,29.6 269.8,29.8 269.1,30.0 268.3,30.0 267.4,29.9 266.3,29.8 265.2,29.5 264.3,29.1 263.4,28.7 262.6,28.3 261.8,27.7 260.8,27.0 259.9,26.3 259.1,25.6 257.8,24.3 256.5,23.1 250.1,16.3 249.6,15.9 249.1,15.5 248.5,14.9 247.9,14.5 247.1,13.9 246.4,13.4 245.6,12.9 244.8,12.5 244.0,12.2 243.1,11.9 242.4,11.7 241.7,11.5 240.3,11.2 239.0,10.9 235.4,10.3 234.2,10.1 233.2,9.8 231.9,9.4 230.1,8.9 228.8,8.5 227.8,8.3 227.0,8.2 224.0,7.6 222.9,7.5 221.8,7.4 220.9,7.3 220.0,7.3 218.3,7.3 213.5,7.2 208.4,7.2 206.5,7.1 205.8,7.1 205.0,7.1 204.4,6.9 203.7,6.7 202.8,6.3 202.0,5.9 194.7,1.3 194.0,0.9 193.1,0.6 192.3,0.4 191.5,0.4 190.6,0.4 189.8,0.6 188.8,0.8 187.4,1.4 185.9,2.1 156.2,15.8 151.3,18.1 146.0,20.4 144.7,21.0 143.3,21.6 142.5,21.8 141.6,22.1 140.4,22.5 139.0,22.7 137.6,22.9 136.2,23.0 133.2,23.0 117.8,23.0 115.6,23.1 112.9,23.1 110.7,23.2 108.5,23.3 105.8,23.3 99.3,23.3 95.8,23.3 66.9,23.3 62.5,23.4 58.6,23.5 54.7,23.6 50.5,23.7 45.3,23.8 40.3,23.9 38.5,24.1 37.2,24.2 35.9,24.4 34.6,24.7 33.4,25.0 27.5,26.5 25.2,27.1 23.1,27.7 21.3,28.3 20.0,28.7 18.7,29.4 17.3,30.1 16.1,30.9 15.0,31.9 14.0,33.0 12.9,34.2 12.2,35.2 11.5,36.2 10.8,37.2 10.1,38.4 9.3,39.6 4.3,48.2 3.4,49.7 2.9,50.7 2.4,51.7 1.8,53.0 1.3,54.0 -1.2,60.1 -3.1,64.8 -3.3,65.2 -3.5,65.6 -3.8,66.1 -4.2,66.6 -4.7,67.1 -5.3,67.7 -9.7,71.6 -10.7,72.5 -11.5,73.2 -12.4,73.8 -13.5,74.6 -19.4,78.5 -20.1,79.1 -20.8,79.6 -21.5,80.1 -22.2,80.8 -22.8,81.5 -23.4,82.1 -23.9,82.9 -24.4,83.7 -24.8,84.3 -25.1,84.9 -25.4,85.5 -25.6,86.2 -25.8,86.9 -26.0,87.7 -26.2,88.6 -26.3,89.4 -26.5,90.5 -27.8,100.4 -28.0,101.5 -28.1,102.4 -28.2,103.4 -28.4,104.2 -29.3,109.2 -30.2,114.6 -30.4,115.7 -30.7,116.9 -31.7,120.4 -33.2,125.7 -33.6,127.2 -34.0,128.8 -34.3,130.1 -34.6,131.2 -35.9,138.8 -36.1,139.7 -36.3,140.6 -36.5,141.4 -36.7,142.0 -36.9,142.6 -37.1,143.3 -37.4,144.0 -39.7,148.4 -40.1,149.1 -40.4,149.9 -40.6,150.8 -40.8,151.5 -40.9,152.3 -40.9,153.1 -41.0,154.2 -41.0,155.3 -41.1,171.8 -41.2,172.5 -41.2,173.1 -41.2,173.8 -41.2,174.6 -41.3,175.9 -41.3,177.4 -41.5,179.3 -42.4,185.7 -43.1,191.1 -43.9,196.7 -44.4,200.0 -44.7,201.3 -44.9,202.5 -45.2,203.7 -46.1,207.1 -46.6,208.7 -48.3,214.5 -48.8,216.1 -49.4,217.8 -49.9,219.4 -50.3,220.7 -50.9,222.5 -51.1,223.3 -51.4,224.2 -51.7,225.3 -51.9,226.4 -55.6,247.8 -56.5,253.2 -57.5,258.8 -58.9,266.2 -59.0,267.6 -59.0,268.9 -58.9,269.9 -58.8,271.0 -58.6,271.8 -58.3,272.5 -57.7,273.5 -57.1,274.3 -56.4,275.0 -55.6,275.7 -54.7,276.3 -53.7,277.0 -50.7,278.8 -48.1,280.2 -45.4,281.6 -44.0,282.2 -42.7,282.6 -39.9,283.6 -36.9,284.5 -25.2,287.5 -3.1,293.2 30.0,302.1 34.7,303.4 39.4,304.7 40.1,305.0 40.9,305.4 41.7,305.9 42.5,306.4 43.4,307.2 44.2,308.0 45.0,308.8 45.8,309.7 46.6,310.7 47.2,311.7 47.8,312.8 48.4,314.3 48.8,315.8 49.3,317.9 49.5,319.4 49.7,320.6 49.9,322.0 50.0,323.8 50.0,325.3 50.0,326.7 49.9,327.7 49.7,328.6 49.0,331.3 47.7,336.1 46.3,341.3 45.9,342.5 45.4,343.7 42.0,350.3 41.7,351.0 41.4,351.9 41.0,352.8 40.7,353.8 40.5,354.6 38.8,362.3 38.5,363.7 38.2,364.9 37.8,367.3 37.3,370.3 36.8,373.1 36.1,378.2 35.4,383.2 33.9,393.5 33.7,394.8 33.5,395.8 33.3,396.7 32.9,398.2 32.6,399.5 27.3,416.7 22.2,431.6 9.7,468.3 9.3,469.7 8.9,471.5 8.7,473.1 8.6,474.3 8.7,475.4 9.0,476.4 9.4,477.6 11.6,482.1 13.8,486.7 14.9,488.9 15.4,489.5 16.1,490.0 16.9,490.5 18.0,490.9 19.1,491.3 20.2,491.6 26.5,492.7 27.8,493.0 29.0,493.3 30.2,493.7 31.4,494.2 35.8,495.8 37.9,496.6 42.3,498.2 46.7,499.9 47.3,500.1 47.9,500.2 51.9,500.6 56.5,501.4 56.9,501.4 57.3,501.5 57.8,501.7 58.2,501.9 58.7,502.1 59.2,502.3 59.7,502.6 60.1,502.9 60.6,503.3 69.2,509.9 69.8,510.3 70.2,510.6 70.8,511.0 72.7,512.2 73.8,512.9 79.1,515.5 80.0,515.9 80.8,516.2 81.6,516.6 82.6,517.0 83.4,517.4 84.3,517.9 85.3,518.5 88.8,521.8 92.3,525.2 93.0,525.8 93.7,526.2 94.5,526.7 95.4,527.0 96.3,527.4 97.0,527.8 97.8,528.2 119.3,540.8 123.7,543.3 127.4,545.5 147.5,557.2 151.5,559.6 155.4,561.9 168.4,569.6 169.1,570.2 169.9,570.7 171.4,571.9 172.3,572.7 173.2,573.5 174.6,574.9 178.8,579.5 183.0,584.0 189.4,590.5 194.6,595.2 195.4,595.8 196.2,596.3 196.7,596.6 197.2,596.8 197.8,597.0 198.5,597.2 199.6,597.2 200.6,597.1 201.7,596.8 202.5,596.5 203.2,596.1 203.8,595.5 204.3,594.8 205.3,593.2 206.3,591.3 206.7,590.5 207.0,589.6 207.2,588.6 207.3,587.1 207.4,585.9 207.5,584.6 207.5,582.1 207.6,576.5 207.6,571.4 207.6,568.5 207.6,567.4 207.7,566.7 207.8,565.9 207.9,565.1 208.1,563.8 208.3,562.8 208.5,562.1 208.8,561.4 209.0,560.8 209.4,560.1 209.9,559.5 210.5,558.9 211.0,558.6 211.7,558.3 212.4,558.0 213.4,557.7 215.2,557.3 217.1,556.9 219.2,556.6 220.7,556.3 233.9,554.4 241.0,553.5 244.8,553.0 245.8,553.0 247.0,553.2 247.4,553.4 247.7,553.4 248.4,553.7 249.4,554.1 250.2,554.5 251.7,555.4 278.4,571.7 280.1,572.7 280.9,573.1 281.5,573.4 282.2,573.5 282.9,573.5 283.9,573.3 284.9,573.0 287.6,572.1 292.0,570.6 296.2,569.3 303.8,566.8 327.9,559.0 328.3,558.9 328.6,558.8 329.2,558.6 329.7,558.6 332.0,558.6 337.3,558.5 341.5,558.5 354.7,558.3 356.8,558.2 357.3,558.1 357.9,558.0 358.4,557.8 358.8,557.6 359.6,557.1 360.3,556.6 360.9,555.9 361.4,555.2 362.6,552.8 363.0,551.9 363.5,550.8 365.8,544.6 367.2,540.4"/>
    <polyline points="324.9,-25.8 324.8,-20.4 324.8,-15.0 324.7,-4.8 324.4,-2.0 324.2,-1.2 324.0,-0.3 323.7,0.8 323.3,1.9 322.9,2.9 322.4,3.8 321.8,4.8 321.0,5.9 320.3,6.6 319.4,7.4 318.1,8.3 307.1,14.1 305.9,14.7 304.7,15.3 303.5,15.7 302.2,16.1 301.1,16.4 299.8,16.7 298.4,17.1 296.9,17.6 295.7,18.0 294.4,18.5 293.1,19.2 287.4,22.2 283.1,24.6 278.7,27.0 277.4,27.6 276.8,28.0 276.2,28.3 275.7,28.7 275.3,29.0 274.8,29.4 274.5,29.8 274.2,30.2 273.8,30.7 273.6,31.2 273.1,32.1 272.8,32.6 272.5,33.1 272.3,33.6 272.0,34.0 271.7,34.4 271.4,34.9 270.9,35.4 270.5,35.9 269.9,36.4 269.3,36.9 268.6,37.4 267.9,37.9 237.8,54.7 233.6,57.1 229.3,59.5 228.8,59.9 228.2,60.3 227.7,60.7 227.3,61.0 207.9,75.9 207.2,76.5 206.5,77.1 205.7,77.9 205.0,78.8 204.6,79.6 204.2,80.4 203.8,81.2 203.5,82.2 203.2,83.3 202.9,84.5 202.6,85.7 202.4,86.6 202.3,87.4 202.2,88.4 202.1,89.2 202.0,90.2 201.9,91.2 202.0,92.0 202.1,92.9 202.3,93.6 203.5,99.0 204.8,104.2 205.0,104.9 205.1,105.6 205.3,106.2 205.4,106.9 205.5,107.6 205.6,108.3 205.6,109.0 205.7,109.9 205.7,110.7 205.8,111.6 205.8,112.7 205.8,114.1 205.7,115.4 205.7,116.6 205.6,146.7 205.6,147.9 205.6,148.9 205.4,149.9 204.7,155.7 204.0,161.2 203.8,162.0 203.6,162.8 203.4,163.5 203.0,164.3 202.7,165.1 202.5,165.6 202.2,166.2 200.4,171.8 196.0,186.0 194.4,191.2 193.3,195.1 192.2,198.4 191.5,200.6 189.6,206.3 187.8,211.7 186.0,216.9 183.6,223.9 183.3,225.1 183.0,226.1 182.7,227.1 182.5,227.9 182.3,228.7 182.1,229.7 175.8,258.0 174.6,263.3 173.4,269.1 171.8,276.5 171.6,277.3 171.5,278.1 171.4,278.8 171.3,279.4 171.3,280.1 171.3,280.7 171.3,281.3 171.4,281.8 171.5,282.6 171.6,283.5 171.7,284.2 173.6,292.0 174.5,296.1 174.6,296.8 174.7,297.3 174.7,297.9 174.8,298.5 175.2,313.3 175.3,314.0 175.3,314.6 175.4,315.1 175.5,315.5 175.6,315.9 175.7,316.3 175.8,316.7 175.9,317.2 177.4,320.4 177.8,321.2 178.1,321.8 178.6,322.5 179.1,323.1 179.5,323.7 179.8,324.1 180.1,324.7 180.3,325.3 180.5,325.8 180.7,326.2 180.9,326.7 181.0,327.3 182.5,332.6 183.9,337.5 185.1,341.6 185.2,342.3 185.3,343.0 185.4,343.7 185.3,344.4 185.1,345.1 184.8,345.7 184.6,346.3 184.2,346.9 177.7,357.4 177.5,357.9 177.2,358.5 177.0,359.1 176.8,359.7 176.7,360.4 176.6,361.1 176.7,361.8 176.9,364.8 176.9,365.6 176.8,366.3 176.7,367.0 176.5,367.7 176.3,368.4 176.0,369.1 175.8,369.6 175.5,370.3 174.3,372.9 173.8,374.1 173.2,375.4 172.7,376.7 172.3,377.9 166.6,394.3 165.4,397.9 165.1,398.6 164.9,399.3 164.6,400.4 164.5,401.3 164.3,402.3 164.2,403.3 164.1,404.4 164.0,405.2 164.0,405.9 164.1,406.5 164.1,407.1 164.2,407.7 164.3,408.3 164.4,408.9 164.6,409.4 164.9,409.9 165.2,410.5 165.6,411.0 166.0,411.5 177.2,423.7 186.5,433.8 190.3,438.0 193.5,441.5 209.7,459.1 213.1,462.8 216.5,466.6 223.9,474.5 224.3,475.1 224.8,475.7 225.2,476.3 225.5,476.8 225.8,477.3 226.0,477.7 226.2,478.1 228.2,483.8 228.2,484.1 228.3,484.3 228.3,484.5 228.4,484.8 228.4,485.2 228.5,485.6 228.5,486.0 228.5,487.3 228.4,492.3 228.4,492.7 228.4,493.1 228.3,493.5 228.2,493.9 227.3,496.8 225.7,501.8 224.0,506.8 221.5,513.9 221.1,515.2 220.7,516.4 214.4,534.7 212.8,539.5 211.1,544.4 209.1,550.3 208.9,550.7 208.9,551.0 208.8,551.2 208.8,551.4 208.7,551.8 208.7,552.1 208.6,552.5 208.6,552.8 208.6,553.1 208.5,571.8 208.4,574.7 208.4,576.6 208.4,582.0 208.4,585.0 208.2,597.6 208.2,598.6 208.2,599.4 208.1,600.2 207.9,600.8 207.6,601.6 207.3,602.3 207.0,602.9 202.5,609.3 201.3,611.0 200.7,611.9 200.3,612.5 200.0,613.1 199.9,613.4 199.8,613.7 199.6,614.2 199.4,614.7 199.3,614.9 199.2,615.2 199.1,615.8 199.0,616.3 198.9,616.7 198.9,617.2 198.8,617.8 198.8,618.2 198.8,618.8 198.8,619.3 199.1,629.3 199.2,634.3 199.2,639.3 199.3,641.0 199.3,641.7 199.4,642.3 199.4,643.1 199.5,643.8 199.6,644.6 199.8,645.4 199.9,646.1 200.0,646.8 200.2,648.1 202.1,659.3 202.2,660.1 202.2,660.7 202.3,662.2 202.4,663.8 202.4,665.3 202.5,666.4 202.5,667.5 202.5,672.4 202.4,677.8 202.4,680.2 202.3,680.8 202.3,681.5 202.1,682.7 201.9,684.0 201.8,685.0 201.7,686.2 200.6,700.6 200.5,701.0 200.4,701.3 200.3,701.8 200.1,702.1 200.0,702.5 199.8,702.9 199.5,703.3 199.2,703.6 198.9,704.0 198.6,704.2 198.1,704.6 197.7,704.9 194.3,706.7 190.1,708.9 186.0,711.1 171.3,719.2 170.7,719.6 169.9,719.9 169.1,720.2 168.3,720.4 167.5,720.5 166.6,720.6 163.5,720.6 163.0,720.6 162.5,720.7 161.9,720.7 161.4,720.8 160.9,720.9 160.5,721.0 152.5,723.7 148.2,725.2 143.5,726.8 139.3,728.4 138.9,728.6 138.6,728.8 138.3,729.0 138.0,729.3 137.8,729.6 137.6,729.9 132.8,738.2 132.3,738.9 132.0,739.3 131.6,739.8 131.1,740.2 130.4,740.8 118.8,748.4 117.8,748.9 113.6,750.8 109.3,753.0 108.8,753.3 108.3,753.6 107.7,754.0 107.3,754.3 106.8,754.7 106.6,754.9 106.2,755.3 105.8,755.6 102.7,758.9 99.3,762.3 95.9,765.7 93.4,768.2 92.9,768.7 92.3,769.1 91.6,769.4 91.0,769.6 90.5,769.7 89.8,769.8 89.0,769.7 88.3,769.5 81.0,767.4 80.4,767.2 79.7,767.0 79.1,766.7 68.7,760.6 68.2,760.3 67.8,760.1 67.2,759.9 66.7,759.7 66.4,759.6 65.8,759.6 65.1,759.5 64.3,759.5 62.3,759.5 61.6,759.5 60.8,759.6 60.2,759.7 59.6,759.9 58.7,760.2 54.6,761.6 50.3,763.1 48.5,763.6 43.8,764.9 43.0,765.2 42.2,765.5 41.4,766.0 40.9,766.2 40.4,766.5 39.9,767.0 39.5,767.5 39.0,768.1 38.5,768.7 27.9,785.3 27.4,786.1 26.8,787.1 26.2,788.2 18.0,802.7 15.5,807.1 13.1,811.4 1.9,831.7 -8.0,849.9 -10.5,854.5 -13.0,859.2 -16.7,866.1 -17.1,866.8 -17.4,867.2 -18.0,868.0 -18.4,868.6 -19.0,869.2 -19.5,869.8 -20.1,870.3 -20.6,870.7 -21.2,871.1 -21.8,871.5 -22.4,871.9 -22.9,872.1 -27.9,874.5 -28.5,874.8 -29.2,875.2 -29.7,875.5 -30.1,875.9 -30.6,876.4 -31.1,876.9 -31.6,877.5 -32.2,878.3 -32.7,879.3 -40.5,894.6 -40.9,895.4 -41.2,896.0 -47.1,911.5 -47.5,912.5 -48.0,913.4 -48.3,914.1 -48.8,914.9 -49.1,915.4 -49.7,916.0 -50.1,916.6 -50.6,917.2 -51.2,917.8 -51.7,918.4 -52.3,919.0 -52.7,919.3 -53.2,919.7 -53.6,920.1 -55.9,921.9 -59.7,925.0 -63.7,928.1"/>
    <polyline points="388.8,-178.2 388.7,-171.3 389.2,-161.9 389.8,-144.5 390.4,-127.4 391.1,-110.1 391.5,-96.9 392.2,-80.0 392.7,-60.9 393.3,-45.0 393.2,-42.0 392.3,-37.3 391.5,-33.0 391.8,-28.0 392.8,-22.6 395.9,-13.0 396.7,-10.6 400.6,1.0 404.4,11.3 405.2,13.7 405.4,15.4 405.4,17.2 404.9,19.4 400.7,25.9 398.1,29.4 394.2,34.6 392.7,36.7 391.1,40.0 388.6,46.7 387.1,54.0 386.3,60.3 385.8,66.3 385.6,68.7 385.4,72.7 385.3,76.6 385.4,93.6 385.7,96.1 386.4,99.1 387.1,100.9 388.6,103.4 389.9,104.6 394.0,106.9 395.1,107.8 396.5,109.2 397.2,110.6 399.2,120.1 400.3,125.4 401.1,131.6 401.8,142.3 401.5,148.2 400.9,152.9 400.0,157.8 399.3,160.8 398.5,163.6 397.7,165.9 396.7,168.3 395.1,171.4 390.9,179.3 390.6,180.1 390.1,181.1 389.7,181.9 389.4,182.9 389.0,184.1 388.2,186.3 387.9,187.3 387.4,188.3 387.0,189.3 386.5,190.1 385.9,191.0 385.0,192.3 384.5,193.1 383.8,194.0 383.1,194.9 382.2,195.9 381.2,196.8 374.5,202.4 370.2,206.0 366.6,208.9 366.3,209.2 366.0,209.5 364.9,210.6 362.2,213.7 358.6,218.6 358.3,219.2 358.1,219.7 357.8,220.6 354.2,234.1 352.8,239.3 351.3,244.5 351.2,245.3 351.1,246.5 351.2,247.8 351.3,249.2 351.6,250.7 351.9,251.9 352.2,253.1 352.3,253.4 352.8,254.4 353.5,255.8 354.3,257.3 355.1,258.7 356.2,260.3 357.0,262.0 357.4,263.0 357.8,264.1 358.2,265.4 358.3,266.6 358.5,268.3 358.6,270.0 358.7,271.3 358.7,272.7 358.7,274.1 358.7,275.4 358.6,277.0 358.4,278.4 358.2,279.7 358.0,281.0 357.7,282.3 357.5,283.5 357.2,284.6 356.9,285.5 356.6,286.4 356.3,287.3 356.0,288.2 355.7,289.0 355.3,289.9 355.0,290.4 354.7,290.9 354.3,291.5 353.9,292.1 351.5,295.4 348.6,299.4 345.6,303.6 335.8,317.3 335.5,317.5 335.3,317.8 335.1,318.0 334.8,318.3 333.9,319.1 332.6,320.3 330.7,321.9 329.4,323.0 328.6,323.6 328.1,324.1 327.4,324.8 326.6,325.8 325.8,327.0 325.1,328.0 324.5,329.1 323.9,330.7 323.6,331.7 323.3,333.0 323.0,334.3 322.8,335.6 322.8,337.0 322.9,338.1 323.0,338.8 323.2,339.5 325.7,345.1 327.8,349.9 330.2,355.5 330.8,357.3 331.4,359.2 332.0,361.3 332.4,362.9 333.1,365.4 333.8,368.5 334.9,372.6 336.0,376.7 336.9,380.2 338.0,384.1 339.3,389.9 340.7,398.2 341.5,403.2 341.9,405.8 342.2,408.4 342.4,411.9 342.4,415.2 342.3,418.5 342.2,421.9 341.9,426.4 341.7,428.6 341.7,430.5 341.5,444.0 341.6,446.3 341.8,449.1 341.9,451.6 342.2,454.2 342.5,456.2 343.0,458.9 343.6,461.6 350.7,484.7 350.9,485.4 351.1,486.0 351.5,486.8 352.1,487.9 352.5,488.6 352.9,489.3 353.3,490.0 354.3,491.5 357.3,495.8 358.0,496.9 358.6,498.0 358.8,498.3 359.1,498.8 359.4,499.5 359.8,500.3 361.7,504.9 363.7,509.6 364.3,511.0 364.6,511.7 364.8,512.7 365.0,513.5 365.0,514.7 365.0,515.6 364.4,522.3 364.4,523.0 364.3,523.7 364.4,524.4 364.4,525.1 364.5,525.5 364.5,525.9 364.7,526.4 364.8,526.9 365.0,527.3 365.3,527.7 369.4,532.8 369.9,533.5 370.4,534.1 370.6,534.6 371.2,535.6 371.9,536.8 372.5,538.1 373.1,539.5 374.0,541.9 375.8,546.7 377.5,551.5 378.7,554.9 380.8,558.5 382.0,559.7 383.1,560.1 384.5,560.3 391.9,559.7 393.6,560.0 395.1,560.9 396.0,562.0 396.7,563.4 399.8,573.2 400.9,576.6 404.4,586.2 407.7,595.0 409.7,600.6 413.9,613.4 415.2,617.4 418.1,624.3 420.4,629.8 425.0,640.1 428.2,646.3 432.0,654.4 432.8,657.7 433.3,659.9 434.5,665.5 435.6,674.0 436.2,678.3 436.8,680.8 440.6,690.0 442.2,694.9 444.4,701.1 445.3,703.2 446.0,704.6 447.0,706.1 447.9,707.0 449.4,707.8 457.9,709.9 467.1,712.6 468.7,713.2 472.1,715.1 476.0,717.5 481.9,720.7 487.5,723.6 490.6,725.6 497.9,731.7 501.2,734.9 504.3,737.2 508.7,739.8 514.5,742.1 518.8,743.2 522.1,743.7 528.0,744.8 539.2,746.0 548.2,747.0 553.2,747.4 558.1,745.3 561.8,744.2 564.6,743.8 569.9,744.3"/>
  </g>

  <!-- 지하철 역 -->
  <g>
    <circle cx="414.1" cy="514.4" r="3" fill="#dc2626" stroke="#fff" stroke-width="1"/>
    <circle cx="233.4" cy="56.8" r="3" fill="#dc2626" stroke="#fff" stroke-width="1"/>
    <circle cx="204.4" cy="155.7" r="3" fill="#dc2626" stroke="#fff" stroke-width="1"/>
    <circle cx="203.2" cy="99.1" r="3" fill="#dc2626" stroke="#fff" stroke-width="1"/>
    <circle cx="187.4" cy="211.4" r="3" fill="#dc2626" stroke="#fff" stroke-width="1"/>
    <circle cx="174.2" cy="263.2" r="3" fill="#dc2626" stroke="#fff" stroke-width="1"/>
    <circle cx="398.9" cy="120.1" r="3" fill="#dc2626" stroke="#fff" stroke-width="1"/>
    <circle cx="348.3" cy="299.1" r="3" fill="#dc2626" stroke="#fff" stroke-width="1"/>
    <circle cx="182.1" cy="332.7" r="3" fill="#dc2626" stroke="#fff" stroke-width="1"/>
    <circle cx="352.4" cy="239.3" r="3" fill="#dc2626" stroke="#fff" stroke-width="1"/>
    <circle cx="262.3" cy="274.7" r="3" fill="#dc2626" stroke="#fff" stroke-width="1"/>
    <circle cx="72.6" cy="264.9" r="3" fill="#dc2626" stroke="#fff" stroke-width="1"/>
    <circle cx="117.4" cy="255.6" r="3" fill="#dc2626" stroke="#fff" stroke-width="1"/>
    <circle cx="175.7" cy="263.4" r="3" fill="#dc2626" stroke="#fff" stroke-width="1"/>
    <circle cx="221.9" cy="278.1" r="3" fill="#dc2626" stroke="#fff" stroke-width="1"/>
    <circle cx="324.4" cy="268.1" r="3" fill="#dc2626" stroke="#fff" stroke-width="1"/>
    <circle cx="396.0" cy="282.7" r="3" fill="#dc2626" stroke="#fff" stroke-width="1"/>
    <circle cx="428.9" cy="222.5" r="3" fill="#dc2626" stroke="#fff" stroke-width="1"/>
    <circle cx="479.0" cy="178.9" r="3" fill="#dc2626" stroke="#fff" stroke-width="1"/>
    <circle cx="364.4" cy="505.4" r="3" fill="#dc2626" stroke="#fff" stroke-width="1"/>
    <circle cx="628.6" cy="548.5" r="3" fill="#dc2626" stroke="#fff" stroke-width="1"/>
    <circle cx="580.4" cy="522.1" r="3" fill="#dc2626" stroke="#fff" stroke-width="1"/>
    <circle cx="529.1" cy="499.1" r="3" fill="#dc2626" stroke="#fff" stroke-width="1"/>
    <circle cx="472.7" cy="488.4" r="3" fill="#dc2626" stroke="#fff" stroke-width="1"/>
    <circle cx="393.0" cy="523.9" r="3" fill="#dc2626" stroke="#fff" stroke-width="1"/>
    <circle cx="367.6" cy="540.3" r="3" fill="#dc2626" stroke="#fff" stroke-width="1"/>
    <circle cx="123.5" cy="543.7" r="3" fill="#dc2626" stroke="#fff" stroke-width="1"/>
    <circle cx="88.4" cy="522.0" r="3" fill="#dc2626" stroke="#fff" stroke-width="1"/>
    <circle cx="225.3" cy="501.6" r="3" fill="#dc2626" stroke="#fff" stroke-width="1"/>
    <circle cx="212.5" cy="539.4" r="3" fill="#dc2626" stroke="#fff" stroke-width="1"/>
    <circle cx="212.9" cy="463.1" r="3" fill="#dc2626" stroke="#fff" stroke-width="1"/>
    <circle cx="190.1" cy="438.3" r="3" fill="#dc2626" stroke="#fff" stroke-width="1"/>
    <circle cx="361.4" cy="505.1" r="3" fill="#dc2626" stroke="#fff" stroke-width="1"/>
    <circle cx="375.4" cy="546.9" r="3" fill="#dc2626" stroke="#fff" stroke-width="1"/>
    <circle cx="315.5" cy="94.6" r="3" fill="#dc2626" stroke="#fff" stroke-width="1"/>
    <circle cx="259.9" cy="271.0" r="3" fill="#dc2626" stroke="#fff" stroke-width="1"/>
    <circle cx="267.5" cy="477.1" r="3" fill="#dc2626" stroke="#fff" stroke-width="1"/>
    <circle cx="325.6" cy="345.4" r="3" fill="#dc2626" stroke="#fff" stroke-width="1"/>
    <circle cx="370.0" cy="205.8" r="3" fill="#dc2626" stroke="#fff" stroke-width="1"/>
    <circle cx="385.3" cy="68.6" r="3" fill="#dc2626" stroke="#fff" stroke-width="1"/>
  </g>
</svg>