<?xml version="1.0" encoding="UTF-8"?>
<svg width="800" height="600" viewBox="0 0 800 600" 
     xmlns="http://www.w3.org/2000/svg">
  <title>Delhi Subway Map</title>
  <rect width="100%" height="100%" fill="#f8f9fa"/>

  <!-- 지하철 선로 -->
  <g id="subway-lines" stroke="#2563eb" stroke-width="3" fill="none">
    <polyline points="145.9,506.0 147.2,505.3 149.0,504.3 153.0,502.1 155.5,500.7" opacity="0.8"/>
    <polyline points="548.4,279.5 547.1,279.3 545.2,279.0 542.9,278.6 540.9,278.3 532.7,276.9 530.7,276.6 528.1,275.9 525.0,275.1 524.5,275.0 524.0,274.9 523.5,274.8 522.9,274.8 522.3,274.7 521.7,274.7 521.1,274.7 520.5,274.7 520.0,274.8 519.5,274.8 518.8,274.9 518.3,275.0" opacity="0.8"/>
    <polyline points="86.3,359.3 96.6,362.7 105.2,365.5 122.6,371.2 131.0,373.9 132.4,374.4 134.1,375.1 135.2,375.6 136.3,376.2 137.2,376.7 138.2,377.4 139.6,378.4 140.7,379.5 141.6,380.5 142.3,381.2 142.8,381.8 143.2,382.5 143.5,383.1 143.7,383.7 143.7,384.4 143.7,384.9 143.5,386.8 143.3,387.7 143.0,388.5 142.8,389.1 142.5,389.7 142.0,390.4 141.5,391.1 140.8,391.7 140.2,392.3" opacity="0.8"/>
    <polyline points="563.2,328.7 559.4,328.9 551.8,329.3 547.5,329.6 545.6,329.7 544.5,329.7 542.6,329.5 538.8,329.2 537.0,329.0 535.1,328.8 533.9,328.6 533.7,328.6 531.5,328.5 530.5,328.5 529.7,328.4 528.7,328.2 527.4,327.9 525.9,327.2 523.6,326.1 520.8,324.9 519.4,324.4 519.4,324.4 518.3,324.2 517.6,324.1" opacity="0.8"/>
    <polyline points="516.7,369.1 516.2,371.1 515.7,371.8 515.5,372.6 515.4,375.7" opacity="0.8"/>
    <polyline points="280.7,271.3 274.7,271.0 268.3,270.6 256.6,269.8 241.3,268.8 221.4,267.6 221.1,267.6 219.5,267.5 217.6,267.4 207.3,266.7 201.7,266.4 198.8,266.3 197.3,266.2 191.7,265.9 173.2,264.9 158.4,264.0 156.8,263.9 155.4,263.8 152.7,263.6 151.6,263.5 140.4,263.5 138.3,263.5 126.1,263.5 125.2,263.5 124.1,263.6 123.0,263.6 121.5,263.7 119.9,263.7 115.1,263.7 110.7,263.7 93.2,263.6 70.9,263.5 69.1,263.5 65.7,263.5 64.2,263.5 63.1,263.4 62.2,263.4 60.7,263.4 54.9,263.2 52.5,263.1 49.9,263.0 35.1,262.4 17.8,261.6 9.8,261.3 3.1,261.0 -3.1,260.7 -10.4,260.4 -17.9,260.2 -24.7,259.9 -31.9,259.6 -35.5,259.4 -48.1,258.8 -49.4,258.8 -51.4,258.7 -55.0,258.5 -55.7,258.5 -60.9,258.3 -75.8,257.7 -79.0,257.6 -79.9,257.6 -81.1,257.5 -81.6,257.5 -81.8,257.5 -82.2,257.4 -89.7,257.0 -96.7,256.7 -103.7,256.4 -107.9,256.2 -109.3,256.1 -110.6,256.0 -110.8,256.0 -115.6,255.8 -130.0,255.1 -141.9,254.6 -143.1,254.6 -143.8,254.5 -146.8,254.4 -149.3,254.2 -151.3,253.9 -153.5,253.6 -154.9,253.4 -156.0,253.1 -158.2,252.6 -163.7,251.1 -170.5,249.3 -175.0,248.1 -177.2,247.5 -181.2,246.5 -187.1,245.0 -189.8,244.2" opacity="0.8"/>
    <polyline points="548.4,279.5 549.3,279.6 550.2,279.6 551.1,279.7" opacity="0.8"/>
    <polyline points="551.1,279.7 552.5,279.6 553.6,279.6 554.7,279.4 559.5,278.7 563.0,278.3 569.2,277.5 573.0,277.1 573.7,277.0" opacity="0.8"/>
    <polyline points="433.8,244.5 431.9,244.2" opacity="0.8"/>
    <polyline points="656.1,300.2 658.0,299.8 660.1,299.5 662.2,299.4 662.4,299.4 664.7,299.3 667.6,299.2 668.3,299.3 668.7,299.3 669.2,299.3 670.0,299.4 671.2,299.6 672.2,299.7 677.1,300.3 678.9,300.5 679.2,300.5 679.8,300.6 680.9,300.8 682.9,301.2 684.7,301.6 686.4,302.1 687.0,302.3 687.6,302.5 688.2,302.6 688.8,302.7 689.4,302.8 690.0,302.9 690.5,302.9 691.1,302.9 691.6,302.9 697.6,302.8 700.9,302.8 709.3,302.5 717.3,302.3 718.2,302.2 719.0,302.2 719.6,302.1 720.2,302.0 720.8,301.9 721.2,301.8 721.6,301.7 722.3,301.5 725.9,300.5 730.1,299.2 730.8,299.0 733.8,298.1 737.4,297.1 739.1,296.6" opacity="0.8"/>
    <polyline points="465.9,313.9 470.9,315.4 472.5,315.8 474.1,316.2 475.9,316.7 476.1,316.8 476.4,316.8 485.6,319.4 499.5,323.4 500.7,323.6 501.3,323.7 505.5,323.8 509.8,323.9" opacity="0.8"/>
    <polyline points="518.3,275.0 513.6,275.9 505.5,277.4 503.9,277.7 501.9,278.0 501.1,278.1 500.2,278.3 499.3,278.5 498.5,278.8 497.6,278.9 496.6,279.1 496.0,279.2 495.1,279.2 494.0,279.3 492.6,279.3 490.2,279.3 488.7,279.3 486.7,279.1 484.8,279.0 483.7,279.0 482.7,279.0 482.1,279.0 481.4,279.1 475.2,279.8 474.4,279.9 473.4,279.9 471.4,279.8 469.6,279.8" opacity="0.8"/>
    <polyline points="593.5,325.5 592.9,325.3 592.4,325.2 592.0,325.1 591.5,325.0 591.1,325.0 590.6,324.9 590.0,324.9 589.5,324.9 589.0,324.9 588.5,324.9 588.1,324.9 587.7,324.9 587.2,325.0 586.7,325.1 586.3,325.1 584.9,325.4" opacity="0.8"/>
    <polyline points="573.0,327.4 571.3,327.7 569.5,328.0 569.0,328.1 568.5,328.1 568.1,328.2 567.6,328.2 565.5,328.5 563.2,328.7" opacity="0.8"/>
    <polyline points="587.6,324.3 587.9,324.2 588.1,324.1 588.2,324.0 588.4,323.8 588.6,323.7 588.9,323.5 589.2,323.2 589.5,322.9 590.7,322.0 591.3,321.6 591.5,321.4 591.9,321.2 592.1,321.1 592.4,320.9 592.7,320.8 592.9,320.7 593.3,320.5 593.7,320.4 594.2,320.2 595.6,319.8 596.4,319.5 599.4,318.5 609.9,315.2 616.6,313.0 617.6,312.7" opacity="0.8"/>
    <polyline points="469.6,279.8 467.5,279.6 465.3,279.5" opacity="0.8"/>
    <polyline points="465.3,279.5 461.6,279.1 460.1,279.0 459.3,278.9 458.4,278.9 457.8,278.9 457.2,279.0 456.4,279.1 455.4,279.2 454.3,279.4 453.0,279.7 451.7,280.0 449.6,280.3 447.5,280.5 444.7,280.6 443.6,280.7 441.5,281.0 440.0,281.2 438.8,281.2 437.0,281.2 429.0,280.1 426.4,279.8 419.2,278.9 406.3,277.1 403.2,276.8 399.8,276.7 394.1,276.6 392.1,276.5 391.1,276.5 389.8,276.4 381.0,275.5 376.9,275.1 375.4,275.0 374.2,274.7 372.7,274.4 371.0,274.0 369.4,273.6 367.1,272.8 363.4,271.0 360.6,268.8 359.8,268.2 359.1,267.6 358.8,267.3 357.3,265.8 355.0,263.4 353.7,262.0 352.4,260.7 348.3,256.5 347.0,255.1 346.7,254.9 345.9,254.3 345.5,253.9 344.4,252.8 342.3,250.7 341.2,249.6 340.9,249.3 340.5,249.0 340.1,248.8 339.7,248.6 339.3,248.5 338.8,248.3 338.3,248.2 337.8,248.1 337.3,248.0 336.7,247.9 336.1,247.8 335.5,247.8 334.8,247.8 334.3,247.8 333.7,247.8 333.1,247.9 332.5,248.0 331.8,248.1 330.6,248.4 328.5,248.9 326.5,249.4 325.3,249.7 324.5,249.9 324.1,250.0 323.2,250.1 322.3,250.1 321.7,250.2 320.7,250.2 320.6,250.2 319.8,250.1 319.1,250.1 318.0,250.0 316.9,249.8 315.8,249.6 314.6,249.4 313.0,249.0 304.5,247.2 302.5,246.8 300.7,246.4 299.6,246.2 298.4,245.8 296.4,245.3 286.5,242.0" opacity="0.8"/>
    <polyline points="391.3,237.6 388.9,237.2 387.2,236.9" opacity="0.8"/>
    <polyline points="431.9,244.2 418.4,241.8 413.6,240.8 409.3,239.9 408.0,239.7 406.5,239.4 398.8,238.2 398.1,238.1 397.4,238.1 396.0,238.0 395.0,237.9 394.0,237.9 393.5,237.9 393.0,237.8 392.5,237.7 391.3,237.6" opacity="0.8"/>
    <polyline points="367.9,227.3 367.4,227.0 366.7,226.7" opacity="0.8"/>
    <polyline points="366.7,226.7 366.0,226.3 359.8,222.7 357.4,221.5 355.8,220.5 350.6,217.0" opacity="0.8"/>
    <polyline points="387.2,236.9 386.4,236.7 385.1,236.4 384.3,236.2 383.4,235.9 379.3,233.6 367.9,227.3" opacity="0.8"/>
    <polyline points="283.2,240.8 277.7,239.0 271.0,236.6 251.5,230.0 248.0,228.8 246.1,228.2 233.1,223.7 232.1,223.4 230.1,222.6 228.7,221.9 228.0,221.6 227.5,221.3 226.5,221.0 224.9,220.5 223.1,219.9 219.8,218.7" opacity="0.8"/>
    <polyline points="286.5,242.0 284.5,241.2 283.2,240.8" opacity="0.8"/>
    <polyline points="328.1,291.7 330.1,290.3 330.6,289.9 331.8,288.8 332.5,288.3 336.1,286.3 336.9,285.9 338.3,285.4 339.0,285.2 339.4,285.0 342.9,284.0 346.6,283.0 347.9,282.6 350.7,281.9 351.7,281.7 352.6,281.3 353.3,280.9 353.8,280.4 354.1,279.9 354.0,279.4 353.9,279.1 353.7,278.7 353.5,278.5 353.0,278.1 352.4,277.9 351.7,277.6 350.9,277.4 348.8,276.9 345.2,276.2 344.3,276.0 343.4,275.8 342.8,275.7 342.1,275.6 341.6,275.6 341.1,275.5 340.6,275.4 339.5,275.3 338.8,275.3 338.0,275.2" opacity="0.8"/>
    <polyline points="270.6,478.0 272.9,477.1 274.4,476.6 280.5,474.5 282.9,473.3 287.1,471.6 291.1,470.6 299.3,468.8 304.3,467.5 306.1,467.0 312.7,465.9 315.6,465.3 321.3,464.1 324.1,463.5 336.1,460.8 337.8,460.4 340.0,460.0 341.0,459.7 341.8,459.6 342.7,459.4 344.8,458.9 346.7,458.5 350.0,457.9 351.1,457.7 351.7,457.5 353.3,457.2 354.1,457.0 358.6,455.9 359.2,455.8 359.6,455.7 360.1,455.6 362.2,455.2 362.8,455.1 363.4,455.0 363.8,454.9 365.2,454.6 365.7,454.4 369.6,453.7 369.9,453.6 370.3,453.5 370.8,453.4 371.3,453.3 371.8,453.1 372.2,453.0 372.5,452.9 372.9,452.7 373.4,452.5 373.8,452.3 377.1,450.3 378.7,449.2 379.7,448.7 380.1,448.6 380.4,448.4 380.7,448.4 381.1,448.3 381.5,448.2 381.9,448.1 382.3,448.0 382.6,448.0 383.1,447.9 384.2,447.8 385.8,447.8 387.0,447.6 387.9,447.5 388.7,447.3 393.0,446.3 397.5,445.2 402.1,443.7 405.1,442.7 406.4,442.3 407.2,442.0 407.8,441.9 408.4,441.8 409.3,441.7 410.2,441.6 411.0,441.6 413.8,441.6" opacity="0.8"/>
    <polyline points="286.4,394.3 286.7,393.4 286.7,392.6 286.6,392.3 286.6,391.9 286.4,391.5 286.4,391.4 285.6,390.0 285.1,389.3 284.8,388.6 284.6,387.9 284.6,387.2 284.6,386.6 284.9,385.8 285.3,385.2 285.7,384.6 286.3,384.0 286.9,383.5 287.1,383.3 287.4,383.1 287.7,382.9 288.1,382.7 288.5,382.5 288.9,382.3 289.3,382.1 289.8,381.8 290.3,381.6 291.4,381.3 294.0,380.4 296.1,379.7 298.5,379.1 300.3,378.7 302.1,378.3 303.7,377.9 305.2,377.4 306.3,377.0 307.4,376.5 308.1,376.1 308.7,375.7 309.2,375.3 310.0,374.6 310.5,373.8 312.1,371.6 313.5,369.2 314.1,368.5 314.8,367.9 315.6,367.3 316.5,366.7 317.4,366.2 318.5,365.8 320.3,365.2 322.4,364.6 326.7,363.7 335.5,362.0 337.3,361.7 338.0,361.5 339.1,361.4 341.7,361.0 342.7,360.8 343.5,360.6 345.1,360.3 346.1,360.1 348.4,359.7" opacity="0.8"/>
    <polyline points="348.4,359.7 351.5,359.0 352.6,358.8 353.4,358.5 354.2,358.2 354.9,357.9 355.6,357.6 356.9,356.9 357.7,356.2 358.2,355.8 358.5,355.4 358.8,354.8 359.1,354.1 359.7,352.7 360.2,351.9 360.5,351.5 360.9,351.0 361.4,350.6 364.8,347.8 366.4,346.6 368.0,345.1 368.5,344.4 368.7,344.1 369.6,342.9 370.0,342.4 370.9,341.7 371.9,341.0 374.0,339.7 375.3,338.9" opacity="0.8"/>
    <polyline points="480.8,304.8 480.8,304.8 488.9,298.7 496.7,291.4 497.0,291.0 497.2,288.9 497.3,288.0 496.6,283.6 495.1,281.6 492.6,279.2 491.3,278.1 490.7,277.3 490.3,276.8 488.4,274.5 487.9,273.9 487.8,273.6 487.6,273.0 487.3,272.1 486.9,271.1 486.7,270.8 486.6,270.6 486.2,270.0 485.7,269.3 485.1,268.3 484.4,267.2 484.0,266.7 483.4,266.2 482.9,265.9 482.1,265.2 481.5,264.8 480.8,264.3 480.5,263.9 480.4,263.6 480.3,263.1 478.6,259.2 477.7,256.6 477.6,256.1 477.5,255.7 477.5,254.9 477.0,253.4 476.5,253.0 476.0,252.5 475.5,252.3 474.9,252.0 474.3,251.9 472.9,251.6 471.5,251.4 463.4,249.9 452.2,247.9 445.3,246.6 433.8,244.5" opacity="0.8"/>
    <polyline points="120.1,405.2 120.3,405.1 122.7,403.7 125.1,402.3 129.1,399.9 132.5,398.2 136.4,396.4 139.8,395.5 143.4,394.9 147.8,394.6 152.0,394.5 163.3,395.2 174.9,396.2 185.9,397.4 215.2,400.5 257.7,405.4 259.8,405.5" opacity="0.8"/>
    <polyline points="617.0,273.5 620.5,273.3 623.4,273.1 626.2,273.0 629.0,272.8 633.8,272.5 636.6,272.4 640.9,272.1 641.4,272.0 642.4,271.8 643.4,271.6 645.0,271.2 645.8,271.0 646.4,271.0 647.0,270.9 647.6,270.9 650.0,270.9 653.8,270.9 655.9,270.8 659.2,270.7 666.5,270.6 669.5,270.6 675.0,270.5 681.6,270.4 682.9,270.4 684.6,270.3 685.5,270.2 686.7,270.2 688.5,270.2 691.9,270.4 693.1,270.4 694.8,270.4 696.6,270.4 698.8,270.3" opacity="0.8"/>
    <polyline points="479.3,248.7 479.0,249.1 479.0,249.1 478.6,249.7 478.1,250.3 477.8,250.5 477.5,250.7 477.3,250.9 477.0,251.0 476.5,251.1 476.0,251.3 475.5,251.4 474.8,251.4 473.7,251.6 472.8,251.6 471.5,251.4" opacity="0.8"/>
    <polyline points="259.8,405.5 262.6,405.6 265.5,405.4 270.2,404.5 278.0,402.1 279.7,401.5 280.5,401.2 281.2,400.8 281.9,400.3 282.9,399.4 283.9,398.1 286.1,394.8 286.4,394.3" opacity="0.8"/>
    <polyline points="582.4,325.7 580.8,325.9" opacity="0.8"/>
    <polyline points="568.0,327.7 568.3,327.7 568.7,327.6 569.0,327.6 569.4,327.5 570.1,327.3 570.4,327.3 570.7,327.2 571.0,327.1 571.2,327.1 571.5,327.0 571.7,327.0 572.6,326.8" opacity="0.8"/>
    <polyline points="576.5,326.5 577.0,326.4 577.3,326.3 577.8,326.3 578.1,326.2 580.4,325.8 584.1,325.1 585.1,325.0" opacity="0.8"/>
    <polyline points="590.7,322.0 589.8,322.6 589.4,322.9 589.0,323.2 588.6,323.4 588.1,323.6 587.8,323.8 587.3,323.9 586.7,324.1 586.1,324.2 585.5,324.3" opacity="0.8"/>
    <polyline points="567.8,325.8 568.0,325.8 568.2,325.7 568.5,325.7 568.7,325.7 569.0,325.7 569.4,325.7 569.7,325.7 571.5,325.8 572.2,325.8 572.5,325.8 572.7,325.8 573.1,325.8 573.5,325.9 573.7,325.9 573.9,325.9 574.1,325.9 574.4,325.9 574.8,325.9 575.2,325.9 575.5,325.8 575.9,325.8 576.2,325.8 576.3,325.8 576.6,325.8 576.9,325.7 578.7,325.4 578.9,325.4 579.1,325.4 579.4,325.3" opacity="0.8"/>
    <polyline points="564.0,327.7 568.4,327.2 568.7,327.2 569.0,327.2 570.0,327.1 571.0,327.1 571.2,327.0 571.6,327.0 572.0,326.9 572.6,326.8 572.7,326.8 576.7,325.9 579.4,325.3 579.7,325.2 580.1,325.2 580.4,325.1 581.7,324.9 582.3,324.8 582.5,324.8 583.7,324.6 583.8,324.6 585.5,324.3" opacity="0.8"/>
    <polyline points="587.2,324.6 587.7,324.6 588.0,324.6 588.4,324.6 588.9,324.5 589.5,324.6 590.1,324.6 590.6,324.6 591.1,324.7 591.5,324.8 592.0,324.9 592.5,325.0 592.9,325.1 593.4,325.3 593.7,325.4" opacity="0.8"/>
    <polyline points="593.7,325.4 594.0,325.6 594.2,325.7 594.4,325.8 594.7,326.0 595.4,326.5 595.8,326.7 596.4,327.2 602.4,331.2 603.9,332.0" opacity="0.8"/>
    <polyline points="60.4,263.3 59.8,263.3 59.5,263.2 58.6,263.2 55.9,263.0 53.7,262.8 53.2,262.8 52.7,262.7 51.9,262.6" opacity="0.8"/>
    <polyline points="69.1,263.4 68.7,263.4 68.4,263.4 66.3,263.3 65.7,263.3 62.8,263.3 62.6,263.3 61.5,263.3 60.4,263.2 59.6,263.2 58.6,263.1 55.9,262.9 53.7,262.8 53.2,262.7 52.8,262.7 51.9,262.6" opacity="0.8"/>
    <polyline points="51.9,262.6 50.5,262.4 49.3,262.2 49.1,262.2 48.5,262.1 48.1,262.1 47.5,262.1 47.1,262.0 46.7,262.0 46.3,262.0 45.9,262.0 45.5,262.1 44.8,262.1 44.7,262.2 44.1,262.2 43.5,262.2 43.2,262.2 42.8,262.2 41.6,262.2 40.5,262.1 39.2,262.0 37.5,261.9" opacity="0.8"/>
    <polyline points="413.8,441.6 415.1,441.6 416.9,441.5 418.5,441.4 421.2,440.9 423.8,440.2 432.1,436.5 434.9,435.4 435.5,435.2 438.0,434.5 438.3,434.3 438.5,434.1 438.8,433.8 439.0,433.5 442.2,427.5 442.2,427.2 441.9,426.5 441.6,425.8 441.5,425.4 443.1,422.5 444.8,419.6 446.1,416.6 445.4,412.3 446.0,410.4 446.2,408.5 446.2,407.9 445.9,407.0 444.5,405.8 444.4,405.2 443.9,402.3 444.5,399.9 444.8,398.7 445.5,397.4 446.2,395.7 447.5,391.9 447.9,389.8 447.9,387.2 448.4,386.3" opacity="0.8"/>
    <polyline points="406.0,442.3 405.5,442.5" opacity="0.8"/>
    <polyline points="411.4,441.4 410.5,441.4 409.9,441.5 409.2,441.5 408.5,441.6 407.8,441.7 407.2,441.9 406.7,442.0 406.0,442.3 404.7,442.7" opacity="0.8"/>
    <polyline points="539.0,402.7 540.2,402.7" opacity="0.8"/>
    <polyline points="540.3,402.8 539.0,402.7 537.2,402.7" opacity="0.8"/>
    <polyline points="637.8,432.7 637.4,432.3 637.2,432.2 637.1,432.1 637.0,432.0 636.8,431.9 636.5,431.8 636.2,431.7 635.8,431.6 635.3,431.5 634.6,431.3 632.5,430.9 631.8,430.8 631.3,430.7 630.8,430.5 630.1,430.4 628.4,429.8 628.0,429.6" opacity="0.8"/>
  </g>

  <!-- 지하철 역 -->
  <g id="subway-stations">
    <circle cx="283.3" cy="295.0" r="4" fill="#dc2626" stroke="#fff" stroke-width="2"/>
    <text x="283.3" y="287.0" text-anchor="middle" font-size="10" fill="#374151">Ramesh Nagar</text>
    <circle cx="364.9" cy="303.2" r="4" fill="#dc2626" stroke="#fff" stroke-width="2"/>
    <text x="364.9" y="295.2" text-anchor="middle" font-size="10" fill="#374151">Patel Nagar</text>
    <circle cx="230.3" cy="222.5" r="4" fill="#dc2626" stroke="#fff" stroke-width="2"/>
    <text x="230.3" y="214.5" text-anchor="middle" font-size="10" fill="#374151">Rithala</text>
    <circle cx="429.0" cy="280.1" r="4" fill="#dc2626" stroke="#fff" stroke-width="2"/>
    <text x="429.0" y="272.1" text-anchor="middle" font-size="10" fill="#374151">Pratap Nagar</text>
    <circle cx="447.5" cy="280.4" r="4" fill="#dc2626" stroke="#fff" stroke-width="2"/>
    <text x="447.5" y="272.4" text-anchor="middle" font-size="10" fill="#374151">Pul Bangash</text>
    <circle cx="492.6" cy="279.3" r="4" fill="#dc2626" stroke="#fff" stroke-width="2"/>
    <text x="492.6" y="271.3" text-anchor="middle" font-size="10" fill="#374151">Kashmere Gate</text>
    <circle cx="302.6" cy="246.8" r="4" fill="#dc2626" stroke="#fff" stroke-width="2"/>
    <text x="302.6" y="238.8" text-anchor="middle" font-size="10" fill="#374151">Kohat Enclave</text>
    <circle cx="406.6" cy="304.2" r="4" fill="#dc2626" stroke="#fff" stroke-width="2"/>
    <text x="406.6" y="296.2" text-anchor="middle" font-size="10" fill="#374151">Karol Bagh</text>
    <circle cx="324.5" cy="291.8" r="4" fill="#dc2626" stroke="#fff" stroke-width="2"/>
    <circle cx="341.0" cy="296.2" r="4" fill="#dc2626" stroke="#fff" stroke-width="2"/>
    <text x="341.0" y="288.2" text-anchor="middle" font-size="10" fill="#374151">Shadipur</text>
    <circle cx="306.7" cy="289.5" r="4" fill="#dc2626" stroke="#fff" stroke-width="2"/>
    <text x="306.7" y="281.5" text-anchor="middle" font-size="10" fill="#374151">Moti Nagar</text>
    <circle cx="199.5" cy="477.4" r="4" fill="#dc2626" stroke="#fff" stroke-width="2"/>
    <text x="199.5" y="469.4" text-anchor="middle" font-size="10" fill="#374151">Sikanderpur</text>
    <circle cx="259.8" cy="405.6" r="4" fill="#dc2626" stroke="#fff" stroke-width="2"/>
    <text x="259.8" y="397.6" text-anchor="middle" font-size="10" fill="#374151">Delhi Aerocity</text>
    <circle cx="446.0" cy="410.4" r="4" fill="#dc2626" stroke="#fff" stroke-width="2"/>
    <circle cx="456.0" cy="320.3" r="4" fill="#dc2626" stroke="#fff" stroke-width="2"/>
    <text x="456.0" y="312.3" text-anchor="middle" font-size="10" fill="#374151">Shivaji Stadium</text>
    <circle cx="480.7" cy="304.8" r="4" fill="#dc2626" stroke="#fff" stroke-width="2"/>
    <text x="480.7" y="296.8" text-anchor="middle" font-size="10" fill="#374151">New Delhi</text>
    <circle cx="467.5" cy="279.6" r="4" fill="#dc2626" stroke="#fff" stroke-width="2"/>
    <text x="467.5" y="271.6" text-anchor="middle" font-size="10" fill="#374151">Tis Hazari</text>
    <circle cx="540.9" cy="278.3" r="4" fill="#dc2626" stroke="#fff" stroke-width="2"/>
    <text x="540.9" y="270.3" text-anchor="middle" font-size="10" fill="#374151">Shastri Park</text>
    <circle cx="576.2" cy="276.8" r="4" fill="#dc2626" stroke="#fff" stroke-width="2"/>
    <text x="576.2" y="268.8" text-anchor="middle" font-size="10" fill="#374151">Seelampur</text>
    <circle cx="600.1" cy="274.7" r="4" fill="#dc2626" stroke="#fff" stroke-width="2"/>
    <text x="600.1" y="266.7" text-anchor="middle" font-size="10" fill="#374151">Welcome (Red Line)</text>
    <circle cx="626.2" cy="272.9" r="4" fill="#dc2626" stroke="#fff" stroke-width="2"/>
    <text x="626.2" y="264.9" text-anchor="middle" font-size="10" fill="#374151">Shahdara</text>
    <circle cx="675.0" cy="270.5" r="4" fill="#dc2626" stroke="#fff" stroke-width="2"/>
    <text x="675.0" y="262.5" text-anchor="middle" font-size="10" fill="#374151">Jhilmil</text>
    <circle cx="392.1" cy="276.5" r="4" fill="#dc2626" stroke="#fff" stroke-width="2"/>
    <text x="392.1" y="268.5" text-anchor="middle" font-size="10" fill="#374151">Shastri Nagar</text>
    <circle cx="367.2" cy="272.8" r="4" fill="#dc2626" stroke="#fff" stroke-width="2"/>
    <text x="367.2" y="264.8" text-anchor="middle" font-size="10" fill="#374151">Inderlok (Red Line)</text>
    <circle cx="355.1" cy="263.4" r="4" fill="#dc2626" stroke="#fff" stroke-width="2"/>
    <text x="355.1" y="255.4" text-anchor="middle" font-size="10" fill="#374151">Kanhaiya Nagar</text>
    <circle cx="348.4" cy="256.5" r="4" fill="#dc2626" stroke="#fff" stroke-width="2"/>
    <text x="348.4" y="248.5" text-anchor="middle" font-size="10" fill="#374151">Keshav Puram</text>
    <circle cx="328.5" cy="248.9" r="4" fill="#dc2626" stroke="#fff" stroke-width="2"/>
    <circle cx="284.6" cy="241.2" r="4" fill="#dc2626" stroke="#fff" stroke-width="2"/>
    <text x="284.6" y="233.2" text-anchor="middle" font-size="10" fill="#374151">Pitam Pura</text>
    <circle cx="271.0" cy="236.6" r="4" fill="#dc2626" stroke="#fff" stroke-width="2"/>
    <text x="271.0" y="228.6" text-anchor="middle" font-size="10" fill="#374151">Rohini East</text>
    <circle cx="445.3" cy="246.7" r="4" fill="#dc2626" stroke="#fff" stroke-width="2"/>
    <text x="445.3" y="238.7" text-anchor="middle" font-size="10" fill="#374151">GTB Nagar</text>
    <circle cx="185.9" cy="397.4" r="4" fill="#dc2626" stroke="#fff" stroke-width="2"/>
    <text x="185.9" y="389.4" text-anchor="middle" font-size="10" fill="#374151">IGI Airport</text>
    <circle cx="559.5" cy="404.8" r="4" fill="#dc2626" stroke="#fff" stroke-width="2"/>
    <text x="559.5" y="396.8" text-anchor="middle" font-size="10" fill="#374151">Kalkaji Mandir</text>
    <circle cx="348.5" cy="359.7" r="4" fill="#dc2626" stroke="#fff" stroke-width="2"/>
    <text x="348.5" y="351.7" text-anchor="middle" font-size="10" fill="#374151">Dhaula Kuan</text>
    <circle cx="481.5" cy="305.9" r="4" fill="#dc2626" stroke="#fff" stroke-width="2"/>
    <circle cx="326.0" cy="293.0" r="4" fill="#dc2626" stroke="#fff" stroke-width="2"/>
    <circle cx="339.8" cy="285.0" r="4" fill="#dc2626" stroke="#fff" stroke-width="2"/>
    <circle cx="248.0" cy="228.8" r="4" fill="#dc2626" stroke="#fff" stroke-width="2"/>
    <text x="248.0" y="220.8" text-anchor="middle" font-size="10" fill="#374151">Rohini West</text>
    <circle cx="189.0" cy="466.3" r="4" fill="#dc2626" stroke="#fff" stroke-width="2"/>
    <text x="189.0" y="458.3" text-anchor="middle" font-size="10" fill="#374151">Belvedere Towers</text>
    <circle cx="199.5" cy="470.7" r="4" fill="#dc2626" stroke="#fff" stroke-width="2"/>
    <text x="199.5" y="462.7" text-anchor="middle" font-size="10" fill="#374151">DLF Phase 2</text>
    <circle cx="202.6" cy="477.7" r="4" fill="#dc2626" stroke="#fff" stroke-width="2"/>
    <circle cx="191.2" cy="459.5" r="4" fill="#dc2626" stroke="#fff" stroke-width="2"/>
    <text x="191.2" y="451.5" text-anchor="middle" font-size="10" fill="#374151">Cyber City</text>
    <circle cx="203.1" cy="456.6" r="4" fill="#dc2626" stroke="#fff" stroke-width="2"/>
    <circle cx="201.0" cy="464.3" r="4" fill="#dc2626" stroke="#fff" stroke-width="2"/>
    <text x="201.0" y="456.3" text-anchor="middle" font-size="10" fill="#374151">Phase 3 Station</text>
    <circle cx="442.4" cy="411.3" r="4" fill="#dc2626" stroke="#fff" stroke-width="2"/>
    <circle cx="377.4" cy="396.9" r="4" fill="#dc2626" stroke="#fff" stroke-width="2"/>
    <text x="377.4" y="388.9" text-anchor="middle" font-size="10" fill="#374151">Munirka</text>
    <circle cx="593.7" cy="393.9" r="4" fill="#dc2626" stroke="#fff" stroke-width="2"/>
    <text x="593.7" y="385.9" text-anchor="middle" font-size="10" fill="#374151">Sukhdev Vihar</text>
    <circle cx="347.2" cy="395.9" r="4" fill="#dc2626" stroke="#fff" stroke-width="2"/>
    <text x="347.2" y="387.9" text-anchor="middle" font-size="10" fill="#374151">Vasant Vihar</text>
    <circle cx="302.0" cy="392.7" r="4" fill="#dc2626" stroke="#fff" stroke-width="2"/>
    <text x="302.0" y="384.7" text-anchor="middle" font-size="10" fill="#374151">Shankar Vihar</text>
    <circle cx="238.8" cy="375.4" r="4" fill="#dc2626" stroke="#fff" stroke-width="2"/>
    <circle cx="178.0" cy="362.9" r="4" fill="#dc2626" stroke="#fff" stroke-width="2"/>
    <text x="178.0" y="354.9" text-anchor="middle" font-size="10" fill="#374151">Palam</text>
    <circle cx="176.5" cy="349.1" r="4" fill="#dc2626" stroke="#fff" stroke-width="2"/>
    <text x="176.5" y="341.1" text-anchor="middle" font-size="10" fill="#374151">Dashrath Puri</text>
    <circle cx="166.9" cy="320.3" r="4" fill="#dc2626" stroke="#fff" stroke-width="2"/>
    <text x="166.9" y="312.3" text-anchor="middle" font-size="10" fill="#374151">Janakpuri West</text>
    <circle cx="694.9" cy="401.1" r="4" fill="#dc2626" stroke="#fff" stroke-width="2"/>
    <circle cx="514.8" cy="412.9" r="4" fill="#dc2626" stroke="#fff" stroke-width="2"/>
    <text x="514.8" y="404.9" text-anchor="middle" font-size="10" fill="#374151">Greater Kailash</text>
    <circle cx="670.1" cy="411.8" r="4" fill="#dc2626" stroke="#fff" stroke-width="2"/>
    <text x="670.1" y="403.8" text-anchor="middle" font-size="10" fill="#374151">Kalindi Kunj</text>
    <circle cx="554.8" cy="403.9" r="4" fill="#dc2626" stroke="#fff" stroke-width="2"/>
    <text x="554.8" y="395.9" text-anchor="middle" font-size="10" fill="#374151">Kalkaji Mandir</text>
    <circle cx="630.7" cy="392.2" r="4" fill="#dc2626" stroke="#fff" stroke-width="2"/>
    <text x="630.7" y="384.2" text-anchor="middle" font-size="10" fill="#374151">Okhla Vihar</text>
    <circle cx="477.1" cy="412.4" r="4" fill="#dc2626" stroke="#fff" stroke-width="2"/>
    <text x="477.1" y="404.4" text-anchor="middle" font-size="10" fill="#374151">Panchsheel Park</text>
    <circle cx="400.1" cy="403.9" r="4" fill="#dc2626" stroke="#fff" stroke-width="2"/>
    <text x="400.1" y="395.9" text-anchor="middle" font-size="10" fill="#374151">R. K. Puram</text>
    <circle cx="640.9" cy="408.7" r="4" fill="#dc2626" stroke="#fff" stroke-width="2"/>
    <circle cx="721.5" cy="389.5" r="4" fill="#dc2626" stroke="#fff" stroke-width="2"/>
    <text x="721.5" y="381.5" text-anchor="middle" font-size="10" fill="#374151">Botanical Garden</text>
    <circle cx="263.8" cy="388.5" r="4" fill="#dc2626" stroke="#fff" stroke-width="2"/>
    <circle cx="667.3" cy="336.8" r="4" fill="#dc2626" stroke="#fff" stroke-width="2"/>
    <circle cx="682.5" cy="301.2" r="4" fill="#dc2626" stroke="#fff" stroke-width="2"/>
    <circle cx="661.3" cy="298.6" r="4" fill="#dc2626" stroke="#fff" stroke-width="2"/>
    <circle cx="297.6" cy="197.2" r="4" fill="#dc2626" stroke="#fff" stroke-width="2"/>
    <text x="297.6" y="189.2" text-anchor="middle" font-size="10" fill="#374151">Samaypur Badli</text>
    <circle cx="301.1" cy="203.9" r="4" fill="#dc2626" stroke="#fff" stroke-width="2"/>
    <circle cx="225.3" cy="528.7" r="4" fill="#dc2626" stroke="#fff" stroke-width="2"/>
    <text x="225.3" y="520.7" text-anchor="middle" font-size="10" fill="#374151">Sector 54 Chowk</text>
    <circle cx="215.7" cy="514.5" r="4" fill="#dc2626" stroke="#fff" stroke-width="2"/>
    <text x="215.7" y="506.5" text-anchor="middle" font-size="10" fill="#374151">Sector 53-54</text>
    <circle cx="208.1" cy="502.7" r="4" fill="#dc2626" stroke="#fff" stroke-width="2"/>
    <text x="208.1" y="494.7" text-anchor="middle" font-size="10" fill="#374151">Sector 42-43</text>
    <circle cx="618.5" cy="390.4" r="4" fill="#dc2626" stroke="#fff" stroke-width="2"/>
    <circle cx="497.1" cy="413.7" r="4" fill="#dc2626" stroke="#fff" stroke-width="2"/>
    <text x="497.1" y="405.7" text-anchor="middle" font-size="10" fill="#374151">Chirag Delhi</text>
    <circle cx="201.6" cy="487.8" r="4" fill="#dc2626" stroke="#fff" stroke-width="2"/>
    <text x="201.6" y="479.8" text-anchor="middle" font-size="10" fill="#374151">DLF Phase 1</text>
    <circle cx="225.8" cy="539.0" r="4" fill="#dc2626" stroke="#fff" stroke-width="2"/>
    <text x="225.8" y="531.0" text-anchor="middle" font-size="10" fill="#374151">Sector 55–56</text>
    <circle cx="671.4" cy="317.1" r="4" fill="#dc2626" stroke="#fff" stroke-width="2"/>
    <text x="671.4" y="309.1" text-anchor="middle" font-size="10" fill="#374151">IP Extension</text>
    <circle cx="639.0" cy="294.0" r="4" fill="#dc2626" stroke="#fff" stroke-width="2"/>
    <text x="639.0" y="286.0" text-anchor="middle" font-size="10" fill="#374151">Karkarduma Court</text>
    <circle cx="659.9" cy="329.7" r="4" fill="#dc2626" stroke="#fff" stroke-width="2"/>
    <circle cx="657.8" cy="324.5" r="4" fill="#dc2626" stroke="#fff" stroke-width="2"/>
    <circle cx="430.5" cy="212.9" r="4" fill="#dc2626" stroke="#fff" stroke-width="2"/>
    <text x="430.5" y="204.9" text-anchor="middle" font-size="10" fill="#374151">Burari X-ing</text>
    <circle cx="483.4" cy="222.2" r="4" fill="#dc2626" stroke="#fff" stroke-width="2"/>
    <text x="483.4" y="214.2" text-anchor="middle" font-size="10" fill="#374151">Jagatpur Village</text>
    <circle cx="545.0" cy="238.5" r="4" fill="#dc2626" stroke="#fff" stroke-width="2"/>
    <text x="545.0" y="230.5" text-anchor="middle" font-size="10" fill="#374151">Khajoorikhas</text>
    <circle cx="490.9" cy="233.8" r="4" fill="#dc2626" stroke="#fff" stroke-width="2"/>
    <text x="490.9" y="225.8" text-anchor="middle" font-size="10" fill="#374151">Surghat</text>
    <circle cx="321.1" cy="212.8" r="4" fill="#dc2626" stroke="#fff" stroke-width="2"/>
    <text x="321.1" y="204.8" text-anchor="middle" font-size="10" fill="#374151">Haiderpur Badli Mor</text>
    <circle cx="458.0" cy="334.2" r="4" fill="#dc2626" stroke="#fff" stroke-width="2"/>
    <text x="458.0" y="326.2" text-anchor="middle" font-size="10" fill="#374151">Central Secretariat</text>
    <circle cx="105.1" cy="365.5" r="4" fill="#dc2626" stroke="#fff" stroke-width="2"/>
    <text x="105.1" y="357.5" text-anchor="middle" font-size="10" fill="#374151">Dwarka Sector 11</text>
    <circle cx="384.3" cy="305.9" r="4" fill="#dc2626" stroke="#fff" stroke-width="2"/>
    <text x="384.3" y="297.9" text-anchor="middle" font-size="10" fill="#374151">Rajendra Place</text>
    <circle cx="543.0" cy="408.4" r="4" fill="#dc2626" stroke="#fff" stroke-width="2"/>
    <text x="543.0" y="400.4" text-anchor="middle" font-size="10" fill="#374151">Nehru Enclave</text>
    <circle cx="625.3" cy="221.9" r="4" fill="#dc2626" stroke="#fff" stroke-width="2"/>
    <text x="625.3" y="213.9" text-anchor="middle" font-size="10" fill="#374151">Shiv Vihar</text>
    <circle cx="626.8" cy="231.0" r="4" fill="#dc2626" stroke="#fff" stroke-width="2"/>
    <text x="626.8" y="223.0" text-anchor="middle" font-size="10" fill="#374151">Johri Enclave</text>
    <circle cx="618.1" cy="242.0" r="4" fill="#dc2626" stroke="#fff" stroke-width="2"/>
    <text x="618.1" y="234.0" text-anchor="middle" font-size="10" fill="#374151">Gokulpuri</text>
    <circle cx="604.1" cy="253.1" r="4" fill="#dc2626" stroke="#fff" stroke-width="2"/>
    <text x="604.1" y="245.1" text-anchor="middle" font-size="10" fill="#374151">Maujpur-Babarpur</text>
    <circle cx="593.5" cy="263.1" r="4" fill="#dc2626" stroke="#fff" stroke-width="2"/>
    <text x="593.5" y="255.1" text-anchor="middle" font-size="10" fill="#374151">Jaffrabad</text>
    <circle cx="598.3" cy="274.0" r="4" fill="#dc2626" stroke="#fff" stroke-width="2"/>
    <text x="598.3" y="266.0" text-anchor="middle" font-size="10" fill="#374151">Welcome (Pink Line)</text>
    <circle cx="615.3" cy="282.3" r="4" fill="#dc2626" stroke="#fff" stroke-width="2"/>
    <text x="615.3" y="274.3" text-anchor="middle" font-size="10" fill="#374151">East Azad Nagar</text>
    <circle cx="626.7" cy="289.6" r="4" fill="#dc2626" stroke="#fff" stroke-width="2"/>
    <text x="626.7" y="281.6" text-anchor="middle" font-size="10" fill="#374151">Krishna Nagar</text>
    <circle cx="436.2" cy="434.9" r="4" fill="#dc2626" stroke="#fff" stroke-width="2"/>
    <text x="436.2" y="426.9" text-anchor="middle" font-size="10" fill="#374151">Saket</text>
    <circle cx="392.3" cy="218.7" r="4" fill="#dc2626" stroke="#fff" stroke-width="2"/>
    <text x="392.3" y="210.7" text-anchor="middle" font-size="10" fill="#374151">Majlis Park</text>
    <circle cx="538.3" cy="387.4" r="4" fill="#dc2626" stroke="#fff" stroke-width="2"/>
    <text x="538.3" y="379.4" text-anchor="middle" font-size="10" fill="#374151">Vinobapuri</text>
    <circle cx="628.5" cy="347.2" r="4" fill="#dc2626" stroke="#fff" stroke-width="2"/>
    <circle cx="645.3" cy="344.8" r="4" fill="#dc2626" stroke="#fff" stroke-width="2"/>
  </g>
</svg>