<?xml version="1.0" encoding="UTF-8"?>
<svg width="800" height="600" xmlns="http://www.w3.org/2000/svg">
  <title>Dortmund Subway Map</title>
  <rect width="100%" height="100%" fill="#f8f9fa"/>

  <!-- 지하철 선로 -->
  <g stroke="#2563eb" stroke-width="2" fill="none" opacity="0.8">
    <polyline points="224.8,504.5 225.8,504.5 226.7,504.4 227.0,504.3 227.4,504.2 227.9,504.0 228.5,503.6 229.0,503.0 229.5,501.7"/>
    <polyline points="229.5,501.7 231.0,497.9 231.9,495.1"/>
    <polyline points="161.5,504.3 163.0,504.3 163.6,504.2 163.7,504.1"/>
    <polyline points="175.2,504.9 173.1,504.8 172.2,504.7"/>
    <polyline points="168.0,499.4 167.9,496.2"/>
    <polyline points="166.6,480.5 166.4,479.6 165.1,472.9"/>
    <polyline points="241.7,470.6 239.6,472.9 238.6,474.6 237.5,476.4 236.5,478.3 235.5,480.5 234.7,482.9 234.0,485.2 233.5,487.0 233.2,488.8 232.9,490.4 232.6,491.5"/>
    <polyline points="312.8,449.8 311.6,450.0 307.6,450.3 304.0,450.3 301.0,450.1 298.3,449.7 296.2,449.1 294.6,448.6 291.2,447.3 289.8,446.5 286.7,444.7 284.7,443.1 283.1,441.5 281.9,440.4 279.2,437.7 271.8,427.3"/>
    <polyline points="165.5,480.7 164.0,473.0"/>
    <polyline points="224.5,504.5 219.1,503.9 217.1,503.8 209.9,503.6 208.7,503.6 207.0,503.6 204.0,503.9 202.8,503.9 198.5,504.0 194.2,504.2"/>
    <polyline points="79.1,210.3 75.7,210.2 67.8,209.9 59.3,209.6 53.8,209.4 49.2,209.2 46.5,209.1"/>
    <polyline points="52.5,319.8 54.2,319.8 57.5,319.8 60.6,319.7 67.0,319.0 74.5,318.2 78.2,317.8 92.5,316.1"/>
    <polyline points="744.8,377.2 750.0,376.3"/>
    <polyline points="473.8,539.5 473.6,539.0 471.1,533.3 468.8,528.5 465.5,521.2 464.4,518.3 463.3,515.5"/>
    <polyline points="473.8,539.5 475.2,542.5 477.5,548.2 478.4,550.6 479.1,552.6 479.8,554.7 480.9,557.8"/>
    <polyline points="125.6,362.8 121.7,364.3 119.7,365.4 118.0,366.2 114.9,368.0 111.7,370.0 107.4,373.0 104.9,375.2"/>
    <polyline points="246.3,603.9 244.2,602.6 241.5,600.8 238.0,598.1 235.4,595.7 232.9,593.1 231.4,591.2 229.2,588.3 227.5,585.4 226.5,583.4 225.4,581.1 224.5,578.7 223.7,575.7 222.9,571.8 222.7,569.7 222.6,567.8 222.6,565.1 222.7,562.1 223.2,557.3 224.0,550.5 225.1,540.3 225.4,536.2 225.5,532.0"/>
    <polyline points="642.5,400.9 650.7,398.9"/>
    <polyline points="650.7,398.9 654.4,397.9 656.9,397.3 662.2,395.5 665.9,394.5 669.9,393.5 683.4,390.3 702.1,385.8 707.3,384.6 713.3,383.3 719.8,382.1 730.8,380.0 733.4,379.5 737.7,378.6 744.8,377.2"/>
    <polyline points="225.5,532.0 225.5,529.3"/>
    <polyline points="225.5,529.3 225.5,523.5 225.6,521.4 226.0,518.5 226.7,514.7 226.9,513.7 227.7,510.7 228.8,507.5 230.1,504.3 231.4,500.1 232.1,497.5 232.6,494.9 233.0,492.4"/>
    <polyline points="46.6,209.6 49.7,209.5 59.0,209.9 67.4,210.1 75.7,210.5 82.4,210.8 90.5,211.1"/>
    <polyline points="259.7,167.8 262.8,156.3 264.5,151.5 265.9,146.9 267.1,142.7 268.2,139.1 268.5,138.1 268.7,137.2 269.3,135.7 269.3,135.5 269.9,133.9 271.2,128.6 272.8,123.5 274.0,120.1 274.7,118.0 276.2,113.4 277.9,108.3 278.8,105.0 280.3,99.9 280.8,98.1 281.0,97.0 281.4,95.4 282.2,91.9 284.3,82.2 285.1,79.0 286.5,73.7 288.2,67.8 288.3,67.5 288.7,66.1 289.8,62.0 290.3,59.6 291.9,51.7 292.2,49.3 292.4,47.1 292.9,44.7 293.3,43.2 293.8,41.8 294.4,40.4 294.5,40.2 295.0,39.0 295.8,37.4 297.4,34.4 299.5,31.2 300.3,29.9 301.5,28.3 303.1,26.4 305.6,23.8 308.9,20.6 310.1,19.6 312.0,18.2 312.7,17.7 313.6,17.0 314.5,16.3 316.6,15.2 317.7,14.6 320.3,13.3 323.6,12.0 325.3,11.3 327.2,10.6 329.7,9.8 332.5,8.9 335.1,8.0 337.3,7.0 339.4,6.1 346.5,2.8 355.9,-1.6 358.4,-2.8 360.2,-3.6 361.9,-4.6 364.5,-6.0 366.4,-7.1 368.2,-8.2 371.6,-10.4 373.5,-11.7 375.4,-13.1 378.0,-15.1 380.6,-17.3 383.3,-19.6 385.9,-22.0 391.1,-27.0 394.6,-30.2 397.9,-33.2 403.5,-38.3 406.3,-40.9 407.9,-42.4 410.2,-44.4 412.4,-46.5 413.6,-47.5 414.5,-48.3 415.0,-48.7 415.8,-49.4 416.5,-50.0 420.6,-53.2 422.2,-54.4 429.1,-59.5 433.0,-62.2 437.1,-65.2 444.2,-70.6 447.6,-73.3 451.3,-76.5 453.9,-78.9 456.4,-80.9 458.3,-82.3 459.5,-83.0 461.0,-83.8 462.5,-84.6 464.2,-85.3 465.4,-85.7 466.7,-86.1 469.4,-87.0 471.6,-87.7 474.8,-88.7 476.9,-89.4 478.2,-89.7 482.0,-90.6 485.8,-91.5 495.2,-93.7 497.0,-94.1 498.3,-94.5 499.3,-94.8 500.3,-95.1 501.3,-95.5 503.8,-96.3 505.7,-97.0 507.0,-97.3 508.4,-97.6 510.1,-97.9 512.1,-98.1 513.9,-98.3 515.6,-98.4 518.0,-98.5 528.4,-98.5 538.7,-98.5"/>
    <polyline points="163.7,504.1 164.4,503.9 165.0,503.7 165.5,503.4 166.1,503.0 166.4,502.7 166.8,502.3 167.2,501.5 167.5,500.9 167.6,500.1 167.7,499.2 167.7,497.7 167.6,496.2"/>
    <polyline points="172.2,504.7 171.3,504.5 170.5,504.3 169.5,503.9 169.0,503.5 168.6,503.1 168.3,502.5 168.1,501.8 168.1,500.9 168.0,499.4"/>
    <polyline points="167.6,491.3 167.5,489.5 167.3,487.3 167.3,485.5"/>
    <polyline points="723.8,381.0 719.8,381.8 713.2,383.1 709.6,383.8 707.5,384.2 706.2,384.4 702.3,385.0 700.9,385.3 698.7,385.8 677.7,391.0 670.5,392.7 668.1,393.4 663.8,394.7 660.3,395.8 657.1,396.8 654.4,397.6 652.0,398.2 650.5,398.6"/>
    <polyline points="749.7,375.3 744.5,376.3"/>
    <polyline points="650.5,398.6 642.7,400.4"/>
    <polyline points="551.7,412.1 550.5,412.0 549.4,411.9 548.4,411.8"/>
    <polyline points="431.2,419.5 429.5,419.9 428.0,420.3 426.3,420.7"/>
    <polyline points="432.3,419.3 433.9,419.0 435.4,418.9 437.2,418.6"/>
    <polyline points="163.8,504.5 164.1,504.4 164.6,504.2 165.2,504.0 166.0,503.5 166.5,503.1 167.1,502.6 167.4,502.1 167.6,501.7 167.8,501.2 167.9,500.8 168.0,499.4"/>
    <polyline points="167.6,496.2 167.4,493.0 167.1,489.4 166.8,487.4"/>
    <polyline points="166.8,487.4 167.3,489.2 167.6,491.3"/>
    <polyline points="166.5,485.6 165.6,481.6 165.5,480.7"/>
    <polyline points="166.8,487.4 166.5,485.6"/>
    <polyline points="161.7,504.7 162.9,504.6 163.4,504.5 163.8,504.5"/>
    <polyline points="194.2,504.4 198.4,504.2 201.7,504.2 205.0,504.2 208.8,504.3 211.2,504.3 217.1,504.4 221.8,504.5 224.4,504.5"/>
    <polyline points="225.0,532.1 225.0,533.7 225.0,536.2 224.7,540.2 224.3,544.1 223.5,550.6 222.7,557.3 222.3,562.1 222.1,565.2 222.2,567.9 222.2,569.7 222.5,571.9 223.2,575.8 224.1,578.8 224.9,581.1 226.0,583.6 227.2,585.8 228.9,588.5 230.9,591.3 232.6,593.3 235.0,595.9 237.8,598.5 241.1,601.1 245.5,604.2"/>
    <polyline points="225.0,529.4 225.0,532.1"/>
    <polyline points="232.4,492.3 231.9,493.8 231.2,495.7 230.3,497.9 229.3,500.3 228.5,502.5 227.7,504.8 227.3,506.5 226.9,508.0 226.4,510.0 225.8,513.7 225.7,514.7 225.3,518.5 225.1,521.5 225.1,523.5 225.0,529.4"/>
    <polyline points="225.1,521.5 225.4,519.2 225.6,518.4 225.9,517.5 226.7,514.7"/>
    <polyline points="225.6,521.4 225.7,519.8 225.6,518.4 225.6,517.4 225.7,514.7"/>
    <polyline points="232.5,492.4 232.6,491.5"/>
    <polyline points="233.0,492.4 233.1,491.6"/>
    <polyline points="232.6,491.5 232.4,492.3"/>
    <polyline points="233.1,491.6 233.3,490.4 233.6,488.8 233.9,487.0 234.4,485.3 235.0,482.9 236.0,480.6 237.0,478.4 237.9,476.6 239.0,474.8 240.2,473.0 242.5,470.7"/>
    <polyline points="231.9,495.1 232.8,492.4"/>
    <polyline points="232.8,492.4 233.1,491.6"/>
    <polyline points="258.2,171.7 259.3,167.8"/>
    <polyline points="258.9,171.8 259.7,167.8"/>
    <polyline points="259.3,167.8 260.2,164.0 261.0,160.9 262.0,157.4 264.0,151.4 265.5,146.8 266.7,142.7 267.7,139.1 268.1,138.0 268.3,137.2 268.9,135.6 268.9,135.4 269.4,133.8 270.8,128.5 272.4,123.4 275.4,114.6 275.8,113.3 277.5,108.2 278.4,104.9 279.7,100.3 279.8,99.8 280.4,98.1 280.7,97.0 281.0,95.5 281.8,91.9 283.9,82.1 284.7,78.9 286.0,73.8 287.2,69.5 287.9,67.4 288.3,66.0 289.4,62.2 289.9,59.7 291.0,53.5 291.8,49.2 292.2,46.6 292.5,44.5 292.9,43.0 293.3,41.9 293.9,40.4 294.1,40.0 294.6,38.9 295.3,37.5 297.1,34.3 299.1,31.2 301.1,28.2 302.8,26.1 305.6,23.0 307.5,21.3 309.4,19.6 311.9,17.7 312.5,17.3 314.3,16.1 315.6,15.3 316.3,15.0 320.1,13.0 323.3,11.7 325.3,10.9 327.3,10.3 332.4,8.6 334.8,7.7 339.1,5.8 346.2,2.6 354.2,-1.1 358.2,-3.0 360.0,-4.0 361.8,-4.9 363.9,-6.1 366.1,-7.3 369.0,-9.1 371.8,-11.0 373.6,-12.2 375.4,-13.6 377.9,-15.5 380.3,-17.5 383.0,-19.8 386.2,-22.9 390.3,-26.8 392.7,-29.1 397.9,-33.8 399.2,-35.1 401.6,-37.5 404.0,-40.1 404.9,-41.2 406.7,-43.1 407.6,-44.2 408.6,-45.2 409.9,-46.5 411.3,-47.7 412.2,-48.5 413.1,-49.2 413.8,-49.7 414.9,-50.5 415.6,-50.9 421.3,-54.9 428.7,-59.9 432.1,-62.2 435.4,-64.6 442.6,-69.9 446.6,-73.0 449.1,-75.1 452.2,-77.8 454.8,-80.1 456.7,-81.6 458.6,-82.9 460.1,-83.8 461.9,-84.7 463.5,-85.4 465.2,-86.0 467.6,-86.8 471.5,-88.0 472.8,-88.5 474.7,-89.0 476.7,-89.7 478.2,-90.0 481.9,-90.9 485.7,-91.7 495.1,-93.9 496.9,-94.3 498.2,-94.7 499.2,-95.1 500.1,-95.4 501.1,-95.8 503.6,-96.6 505.6,-97.3 506.8,-97.6 508.3,-97.9 510.0,-98.2 512.0,-98.4 513.8,-98.6 515.5,-98.7 517.9,-98.8 522.5,-98.9 528.0,-98.8 538.5,-98.8"/>
    <polyline points="307.4,305.4 313.5,306.2"/>
    <polyline points="307.3,305.9 313.5,306.6"/>
    <polyline points="159.2,434.9 159.5,437.7 159.6,438.6 160.1,443.2 160.8,449.1 161.6,455.1 162.7,461.0 163.4,465.0 164.6,470.4 165.1,472.9"/>
    <polyline points="164.0,473.0 163.6,470.6 163.1,467.8 162.5,465.0 161.8,461.1 160.7,455.2 159.4,449.3 158.2,443.3 157.9,440.4 157.6,437.8 157.4,435.0"/>
    <polyline points="52.4,320.1 54.3,320.1 57.7,320.1 60.5,320.1 67.1,320.0 74.8,319.2 78.3,318.8 91.1,317.2 99.1,316.2"/>
    <polyline points="246.0,226.3 245.6,229.0 244.8,234.8 243.9,240.0 242.9,246.9 241.9,252.3 241.1,257.1 240.3,262.4 239.8,265.7 239.4,267.3 239.2,267.8"/>
    <polyline points="250.2,204.3 251.0,199.6 251.6,197.0 252.5,194.1 253.3,191.9 253.7,190.7 255.2,186.4 256.2,183.5 257.0,180.7 257.5,178.4 258.3,174.8 258.9,171.8"/>
    <polyline points="258.2,171.7 257.5,174.7 256.6,177.9 254.7,183.5 253.8,186.4 252.4,190.6 252.0,191.6 251.9,191.9 251.2,194.0 250.4,196.7 249.7,199.5 248.9,204.0"/>
    <polyline points="159.2,434.9 158.3,425.7 158.0,420.8 158.1,418.4 158.3,416.7 158.8,413.9 160.1,410.1 162.0,405.3 164.1,399.9 164.8,397.9 166.9,392.6 167.9,390.1 168.9,387.5 171.3,380.7 172.9,374.7 174.2,370.6 175.4,367.1 175.9,365.6"/>
    <polyline points="157.4,435.0 157.2,428.7 156.9,425.9 156.7,421.3 156.6,417.2 157.1,412.9 157.5,411.1 158.5,407.9 158.9,407.1 163.1,397.5 164.0,395.2 166.2,389.6 167.2,387.2 169.3,380.9 171.3,374.8 172.7,371.1 174.5,365.7 175.0,364.6"/>
    <polyline points="178.2,286.4 177.8,286.0 177.5,285.7 176.5,284.6 174.4,282.2 173.5,281.1 172.5,279.7 171.6,278.2 171.4,277.8 170.7,276.0 170.2,274.3 169.9,272.1 169.3,267.9 168.2,261.7"/>
    <polyline points="167.7,261.8 168.7,268.0 169.3,271.9 169.7,274.4 170.1,276.2 170.8,277.9 171.4,279.1 172.7,281.1 174.0,282.7 176.0,284.8 177.1,286.0 177.7,286.7"/>
    <polyline points="104.9,375.2 103.6,376.4 102.6,377.5 101.2,378.9 98.9,381.2 96.3,384.2 95.4,385.4 94.1,387.1 92.0,390.1 90.4,392.8"/>
    <polyline points="88.7,392.2 90.3,389.1 91.9,386.7 94.6,383.2 97.3,380.2 99.5,377.9 100.7,376.7 102.4,375.3 103.3,374.5"/>
    <polyline points="88.7,392.2 87.4,395.0 86.5,397.8 86.1,399.5 85.5,402.3 85.3,404.9 85.2,407.1 85.3,409.7 85.5,411.9 85.8,415.9 86.2,420.2 86.5,422.0"/>
    <polyline points="53.5,486.7 54.6,485.6 56.6,483.8 58.7,482.0 60.6,480.3 62.0,478.8 64.4,476.4 66.6,474.5 68.1,473.2 69.8,471.8 73.5,468.6 75.1,467.1 78.1,464.0 80.1,461.6 81.3,460.0 83.4,456.7 84.7,454.2 85.8,451.9 86.7,449.5 87.5,446.7 88.3,443.6 88.7,441.3 88.9,439.6 89.0,437.8 89.2,435.5 89.2,433.6"/>
    <polyline points="177.7,286.7 179.4,288.6 180.4,290.1 180.9,291.0 181.4,292.0 181.7,292.9 183.1,298.6 183.9,303.3 184.1,304.7 184.1,306.0 184.1,307.5 183.9,309.5"/>
    <polyline points="184.7,307.5 184.8,306.0 184.8,304.6 184.6,303.2 183.8,298.5 182.4,292.8 182.0,291.8 181.5,290.8 181.0,289.9 180.4,289.1 179.8,288.4 178.8,287.2 178.2,286.4"/>
    <polyline points="183.9,309.5 183.8,311.3 183.4,315.2 183.2,317.8 183.1,319.5 183.1,321.2 183.3,323.3 183.5,324.3 184.1,326.5 184.7,328.1 185.3,329.3 185.8,330.3 186.8,331.7 188.0,333.2 189.2,334.5 191.0,336.2 192.9,337.5 195.2,339.0 196.3,339.6 197.4,340.2"/>
    <polyline points="220.9,300.7 217.8,300.9 215.5,301.0 209.0,301.3 206.0,301.2 198.3,300.7 194.7,300.4 190.9,300.0 185.4,299.5 183.7,299.4 180.9,299.3 177.4,299.4 174.7,299.5 173.3,299.5 169.6,299.8 166.4,300.2 160.1,301.2 153.7,302.4 149.0,303.3 146.0,304.1 142.5,305.1 141.8,305.3"/>
    <polyline points="220.3,299.2 219.7,299.3 213.9,299.7 209.3,299.8 206.1,299.7 199.5,299.5 197.0,299.3 195.0,299.0 191.2,298.5 185.4,297.9 183.8,297.8 180.9,297.7 177.4,297.8 173.8,298.1 171.9,298.3 168.2,298.9 164.7,299.5 157.5,300.8 149.6,302.1 147.0,302.7 144.1,303.3"/>
    <polyline points="88.2,421.8 87.9,420.2 87.1,415.7 86.5,411.8 86.4,409.7 86.4,407.3 86.6,405.1 87.0,402.6 87.6,400.3 88.3,397.7 89.2,395.6 90.4,392.8"/>
    <polyline points="87.2,434.6 87.3,435.9 87.2,437.7 87.1,439.3 87.0,440.6 86.8,442.3 86.5,444.8 85.9,446.9 85.2,449.1 84.2,451.5 83.2,453.7 81.5,456.9 80.0,459.0 76.8,463.0 73.7,466.3 71.9,468.1 68.9,471.0 65.9,474.0 64.1,475.7 62.4,477.4 59.9,479.8 57.9,481.8 56.1,483.6 54.6,485.0 53.9,485.6 53.3,486.3"/>
    <polyline points="89.2,433.6 89.2,429.8 89.1,428.2 88.8,425.5 88.5,423.8 88.5,423.2 88.2,421.8"/>
    <polyline points="86.5,422.0 86.6,423.3 86.7,423.8 86.8,425.6 87.0,428.2 87.1,429.8 87.2,433.6 87.2,434.6"/>
    <polyline points="240.7,267.9 240.0,270.7 239.1,274.1 237.1,281.6 235.5,287.2 234.8,289.9 233.8,295.4 233.3,299.0 232.6,303.8 231.5,310.9"/>
    <polyline points="239.2,267.8 238.6,270.2 237.2,274.1 235.4,280.3 233.9,286.8 233.5,289.7 232.9,295.3 232.4,299.0 231.8,303.7 231.0,310.8"/>
    <polyline points="220.3,299.2 221.7,299.1 227.6,298.2 230.2,298.0 232.8,297.7 235.5,297.6 238.1,297.6 242.3,297.7"/>
    <polyline points="220.9,300.7 227.9,299.8 230.3,299.5 233.0,299.3 235.6,299.2 238.1,299.2 242.3,299.2"/>
    <polyline points="463.3,515.5 460.1,506.4 458.0,501.4 456.6,498.1 454.6,493.3"/>
    <polyline points="453.6,493.3 455.6,498.3 457.0,501.6 459.1,506.7 462.7,515.7"/>
    <polyline points="192.0,348.3 188.9,349.9"/>
    <polyline points="231.0,310.8 230.7,312.9 230.3,315.7 229.6,318.4 228.8,320.7 227.1,324.3 225.7,326.5 224.2,328.7 222.7,330.4 220.6,332.5"/>
    <polyline points="193.4,347.6 192.0,348.3"/>
    <polyline points="193.4,347.6 197.7,345.5"/>
    <polyline points="247.7,226.1 247.3,229.1 246.4,235.8 245.7,240.1 244.6,246.9 243.6,252.5 242.8,257.2 241.9,262.6 241.3,265.7 240.8,267.3 240.7,267.9"/>
    <polyline points="185.3,351.8 187.6,350.5 188.9,349.9"/>
    <polyline points="174.0,358.1 176.2,357.5 179.3,356.2 181.8,354.9 183.8,353.4 186.7,351.8 194.2,348.1 197.9,345.7"/>
    <polyline points="185.3,351.8 182.2,353.5 178.6,355.2 177.2,355.8 176.4,356.1 173.8,356.9 170.0,357.8"/>
    <polyline points="174.0,358.1 172.0,358.7 168.7,359.1 168.1,359.2 165.7,359.4 159.1,359.8 156.3,359.9 152.1,360.1 150.2,360.2 144.3,360.4 139.2,360.7 136.2,360.9 132.6,361.3 129.9,361.6"/>
    <polyline points="175.9,365.6 176.3,364.7 177.5,362.5 178.2,361.6 179.5,359.6 180.6,358.4 183.0,356.0 186.1,353.7 189.6,351.6 192.4,350.1 194.8,348.8"/>
    <polyline points="175.0,364.6 175.5,363.2 176.8,360.5 178.2,358.6 179.8,356.7 181.8,354.9 182.5,354.1 185.3,351.8"/>
    <polyline points="194.8,348.8 196.8,347.9 197.6,347.5"/>
    <polyline points="454.6,493.3 453.6,491.1 452.2,488.6 451.0,487.1 449.6,485.4 446.3,482.2 444.8,481.0 442.1,479.0 438.4,476.8 435.8,475.5 432.9,474.2 428.8,472.5 421.5,469.3"/>
    <polyline points="184.7,307.5 184.3,312.4 183.8,318.0 183.7,320.3 183.8,322.3 184.1,324.2 184.6,326.4 185.4,328.1 185.8,329.2 186.4,330.1 187.3,331.4 188.5,332.9 189.6,334.1 191.5,335.8 193.3,337.2 195.0,338.3 196.3,339.1 197.6,339.9"/>
    <polyline points="197.6,339.9 203.6,342.7 210.0,345.8"/>
    <polyline points="197.4,340.2 203.1,343.0 209.7,346.1"/>
  </g>

  <!-- 지하철 역 -->
  <g>
    <circle cx="241.9" cy="257.1" r="3" fill="#dc2626" stroke="#fff" stroke-width="1"/>
    <circle cx="158.7" cy="439.9" r="3" fill="#dc2626" stroke="#fff" stroke-width="1"/>
  </g>
</svg>