<?xml version="1.0" encoding="UTF-8"?>
<svg width="800" height="600" xmlns="http://www.w3.org/2000/svg">
  <title>Dusseldorf Subway Map</title>
  <rect width="100%" height="100%" fill="#f8f9fa"/>

  <!-- 지하철 선로 -->
  <g stroke="#2563eb" stroke-width="2" fill="none" opacity="0.8">
    <polyline points="319.6,322.2 319.6,321.6 319.6,321.0 319.4,320.0 319.2,318.9 319.2,318.4 319.2,317.9"/>
    <polyline points="319.7,317.9 319.7,318.4 319.6,319.0 319.4,320.0 319.1,321.1 319.1,321.7 319.0,322.1"/>
    <polyline points="319.5,343.5 318.9,338.8 318.8,338.1 318.8,337.3"/>
    <polyline points="326.2,253.6 325.6,252.9 325.0,252.1 324.3,250.9 323.9,250.4 323.6,249.9 323.1,249.3 322.6,248.7"/>
    <polyline points="321.6,248.3 322.6,249.3 323.1,249.8 324.2,250.8 324.3,250.9 325.7,252.1 326.0,252.3 326.5,252.8 326.9,253.1"/>
    <polyline points="704.5,399.2 705.4,399.5 706.3,399.8 707.8,400.2 709.6,400.8 710.2,401.0 711.2,401.3"/>
    <polyline points="704.8,398.9 705.4,399.2 706.3,399.5 707.8,400.2 709.1,400.8 710.0,401.2 710.8,401.5"/>
  </g>

  <!-- 지하철 역 -->
  <g>
    <circle cx="489.4" cy="385.8" r="3" fill="#dc2626" stroke="#fff" stroke-width="1"/>
    <circle cx="563.5" cy="295.5" r="3" fill="#dc2626" stroke="#fff" stroke-width="1"/>
  </g>
</svg>