<?xml version="1.0" encoding="UTF-8"?>
<svg width="800" height="600" xmlns="http://www.w3.org/2000/svg">
  <title>Essen Subway Map</title>
  <rect width="100%" height="100%" fill="#f8f9fa"/>

  <!-- 지하철 선로 -->
  <g stroke="#2563eb" stroke-width="2" fill="none" opacity="0.8">
    <polyline points="88.7,513.4 87.9,521.1"/>
    <polyline points="120.3,362.1 122.6,363.3 131.5,367.9 134.3,368.9 137.5,369.5 140.8,369.3 143.8,368.6 146.7,367.3 149.0,365.2 150.3,363.7"/>
    <polyline points="86.4,370.4 82.6,372.5 78.7,374.4 73.2,376.7 68.6,378.2 63.4,379.7 60.0,380.5 56.6,381.0"/>
    <polyline points="56.6,381.0 53.0,381.6 49.1,382.2 45.5,382.7 39.9,383.3 36.2,383.7 29.5,384.6 25.2,385.2 22.7,385.5 16.4,386.6 2.2,389.2 -7.2,390.9 -18.9,393.2 -24.6,394.2 -39.8,396.9 -53.8,399.0 -64.1,400.4 -68.4,400.9 -78.5,402.2 -99.4,405.4 -112.0,407.6 -124.7,409.8"/>
    <polyline points="38.4,418.1 41.9,414.8 43.2,413.5 45.0,411.8 46.9,409.9 47.7,409.1 48.7,408.0 49.5,407.1 50.3,406.0 50.7,405.1 51.0,404.4 51.3,403.6"/>
    <polyline points="155.5,353.6 154.1,355.8 152.1,358.1 147.6,363.4"/>
    <polyline points="70.9,62.8 70.4,63.1 66.6,65.3 62.5,68.1 58.8,71.6 55.9,75.1 53.4,79.4 51.8,83.4 50.9,87.2 50.5,91.4 50.8,95.4 52.2,102.0 53.9,108.7 55.1,113.5 55.5,115.2"/>
    <polyline points="71.9,63.8 67.6,66.2 63.8,69.1 60.3,72.4 57.5,75.6 54.9,79.8 53.3,83.8 52.4,87.4 52.1,91.2 52.4,95.0 53.4,99.9 54.8,105.5 55.4,108.4 57.0,114.9"/>
    <polyline points="55.5,115.2 61.8,140.2 65.6,153.1 67.1,158.2 67.9,163.1 68.0,169.2 67.5,174.3 66.6,180.0 66.0,186.0 65.7,189.7 65.6,191.5 65.6,193.3"/>
    <polyline points="71.9,63.8 78.0,61.0 87.2,57.1 92.1,55.1 96.1,53.3 102.1,50.8 106.7,48.4 110.5,46.1 114.4,43.1 116.9,40.7 119.4,38.1 121.9,34.7 123.9,31.1 125.0,28.5 125.9,26.1 127.4,21.7 128.3,18.1 129.3,14.0 130.2,9.1 131.0,4.7 131.3,3.2 132.7,-3.5 133.1,-7.0 133.4,-9.9 133.5,-14.3 133.2,-18.6 130.6,-35.6 130.3,-40.1 130.5,-44.0 131.5,-49.2 134.0,-60.2 135.1,-65.0 135.4,-66.2 135.4,-66.4 136.1,-69.5 136.5,-72.8 136.5,-76.4 136.0,-79.8 135.3,-82.3 134.3,-85.4 128.2,-98.8 126.3,-104.9 125.2,-109.3 123.9,-113.8 121.8,-122.2 121.3,-127.0 120.0,-152.2 119.7,-157.5"/>
    <polyline points="91.7,367.7 86.4,370.4"/>
    <polyline points="162.2,325.3 160.7,321.2 159.1,317.5 158.0,315.3 156.6,313.6 154.4,311.6 151.7,309.7 148.5,308.2 145.5,307.2 141.8,306.2 137.0,305.3 132.1,304.2"/>
    <polyline points="100.8,464.4 101.4,462.1 110.9,423.7 111.9,421.2 112.3,419.9 113.9,416.8 115.6,414.0 121.9,404.6 126.4,398.1 129.0,394.5 130.2,392.7"/>
    <polyline points="124.6,399.9 121.4,404.4 115.1,413.9 113.3,416.8 111.7,419.8 111.3,421.1 110.4,423.7 108.8,430.1 99.2,469.4 98.8,470.9 98.5,472.3"/>
    <polyline points="107.2,296.2 111.1,298.8 115.3,300.9 120.3,302.5 126.1,303.6 131.6,304.7 141.6,306.7 145.3,307.6"/>
    <polyline points="92.2,272.2 93.3,273.7 94.4,275.2"/>
    <polyline points="93.8,275.3 93.3,273.7 92.8,272.0"/>
    <polyline points="86.9,252.7 86.3,251.0 86.2,250.7"/>
    <polyline points="86.2,252.8 86.3,251.0 86.4,249.4"/>
    <polyline points="89.9,268.7 92.2,272.2 93.8,275.3 101.7,288.7"/>
    <polyline points="102.3,288.5 94.4,275.2 92.8,272.0 92.0,268.2"/>
    <polyline points="83.8,235.1 84.7,238.8 85.8,249.4"/>
    <polyline points="86.4,249.4 85.3,238.7 84.4,235.0"/>
    <polyline points="147.6,363.4 145.9,365.9 144.6,368.0"/>
    <polyline points="122.6,363.3 126.5,364.8"/>
    <polyline points="152.6,360.5 151.7,362.1 150.8,363.9"/>
    <polyline points="150.1,362.9 151.1,360.4 153.3,357.3"/>
    <polyline points="120.3,362.1 117.9,361.0 116.0,360.3 113.8,359.8 110.8,359.8 109.0,360.2 107.0,360.8 105.6,361.3 104.6,361.8 103.3,362.5"/>
    <polyline points="49.2,392.1 49.2,390.0 50.1,387.6 51.4,385.8 54.1,383.6 56.3,382.5 59.7,381.4 63.5,380.6 69.1,379.1 73.8,377.6 77.4,376.0 80.3,374.8 83.3,373.2 88.5,370.7 92.5,368.7"/>
    <polyline points="52.2,383.1 50.1,385.2 48.7,387.4"/>
    <polyline points="86.4,370.4 78.3,374.0"/>
    <polyline points="48.3,392.1 48.8,393.9 50.1,397.2 50.7,398.6 51.1,400.7"/>
    <polyline points="51.3,403.6 51.5,402.4 51.6,401.6 51.6,400.8 51.1,398.6 50.6,397.2 49.7,394.9 49.4,393.9 49.2,392.1"/>
    <polyline points="83.0,372.9 79.0,374.8 73.5,377.1 68.9,378.7 63.6,380.1 60.1,380.9 56.7,381.5"/>
    <polyline points="164.3,340.3 163.6,333.0 163.4,331.2"/>
    <polyline points="134.6,385.3 137.0,382.5"/>
    <polyline points="137.0,382.5 144.9,370.1"/>
    <polyline points="135.5,385.5 137.0,382.5"/>
    <polyline points="130.2,392.7 135.5,385.5 142.1,375.8 148.3,367.5 150.8,363.9"/>
    <polyline points="84.2,529.3 82.5,533.1 80.6,536.2 78.5,538.7 75.7,540.9 73.0,542.5 71.1,543.2 69.2,543.7 64.9,544.6 56.3,546.3 53.4,546.8 50.6,547.4 47.8,548.1 45.3,548.9"/>
    <polyline points="87.9,255.5 87.0,249.1 85.8,238.7 84.9,234.8 83.2,230.2 81.6,226.9 80.1,224.2 72.3,210.3 70.1,205.5 69.4,203.7 68.5,200.7 67.7,197.8 67.2,195.1 67.0,193.3 67.0,191.5 67.2,189.7 67.4,186.0 68.1,180.1 69.0,174.4 69.5,169.1 69.4,162.9 68.3,157.5 64.8,145.0 63.4,140.3 57.0,114.9"/>
    <polyline points="85.9,255.7 86.2,257.1 86.9,260.3 87.3,261.4"/>
    <polyline points="152.6,360.5 153.8,358.6 157.5,354.0 158.1,353.1"/>
    <polyline points="103.3,362.5 100.6,363.8 92.1,368.2 88.6,370.0 83.0,372.9"/>
    <polyline points="129.0,366.0 126.5,364.8 120.6,361.7 118.9,360.9 116.2,360.0 113.8,359.4 110.8,359.5 108.8,359.7 106.8,360.2 105.2,360.8 104.0,361.3 102.8,361.9 96.1,365.4 91.7,367.7"/>
    <polyline points="150.1,362.9 151.1,361.4 153.2,358.4 154.5,356.3 155.5,353.6"/>
    <polyline points="104.4,362.7 105.0,362.4 106.1,361.9 107.4,361.5 109.3,361.0 111.0,360.9 113.7,360.9 116.6,361.0 118.7,361.5 120.3,362.1"/>
    <polyline points="150.1,362.9 148.5,365.0 146.5,366.8 143.7,368.2 140.7,368.9 137.4,368.9 134.5,368.4 132.1,367.6 129.0,366.0"/>
    <polyline points="-124.5,410.4 -111.9,407.9 -99.4,405.7 -86.4,403.7 -81.5,403.1 -72.8,402.3 -57.6,400.3 -53.6,399.6 -47.2,398.6 -40.1,397.2 -24.5,394.5 -18.8,393.5 -6.9,391.5 4.5,389.4 10.5,388.3 22.8,385.9 25.3,385.5 29.5,384.9 40.0,383.6 45.5,383.0 49.1,382.5 56.7,381.5"/>
    <polyline points="145.3,307.6 148.2,308.7 151.3,310.2 153.9,312.0 156.0,314.0 157.2,315.6 158.4,317.6 160.0,321.5"/>
    <polyline points="89.9,268.7 91.9,273.2 93.8,276.6 101.0,288.6 102.3,290.8 103.9,292.8 105.5,294.6 107.2,296.2"/>
    <polyline points="163.7,343.2 164.0,341.7"/>
    <polyline points="163.4,331.2 163.0,328.4 162.2,325.3"/>
    <polyline points="132.1,304.2 126.3,303.1 120.6,301.9 115.4,300.2 111.3,298.1 109.7,296.9 108.1,295.6 105.5,292.5 95.3,275.4 94.2,273.3 92.4,269.6 92.0,268.2 91.1,266.2 90.4,264.1 89.8,262.4 89.1,260.0"/>
    <polyline points="65.6,193.3 65.7,195.3 66.2,198.1 67.1,200.9 68.1,204.0 69.5,207.6 73.3,215.3 76.0,221.7 81.6,235.2 82.7,237.9 84.0,241.7 84.8,245.3 85.3,250.1 85.5,252.0 85.9,255.7"/>
    <polyline points="160.0,321.5 160.7,323.5 161.2,326.5 161.7,333.1 162.1,337.1 162.2,339.4 162.1,340.9"/>
    <polyline points="88.7,510.5 84.2,529.3"/>
    <polyline points="88.7,513.4 89.4,510.5 90.3,506.6 91.3,502.5"/>
    <polyline points="51.1,400.7 51.1,401.5 51.1,402.3 50.9,403.6"/>
    <polyline points="98.5,472.3 95.3,484.5 90.7,502.5 89.7,506.5 88.7,510.5"/>
    <polyline points="91.3,502.5 95.8,484.6 98.9,472.3 99.5,469.4 100.8,464.4"/>
    <polyline points="78.3,374.0 73.3,376.1 68.4,377.8 63.1,379.3 59.9,379.9 57.3,380.5 55.0,381.5 52.2,383.1"/>
    <polyline points="144.6,368.0 142.8,371.8 141.3,374.3"/>
    <polyline points="87.9,521.1 87.4,525.7 87.0,528.3 86.2,531.6 84.9,534.5 83.2,537.2 80.9,539.7 77.8,542.0 74.4,543.7 72.5,544.4 70.3,545.0 65.8,545.9 56.7,547.5"/>
    <polyline points="18.6,565.9 23.6,561.8 28.6,558.1 32.4,555.7 35.5,554.0 39.1,552.3 40.9,551.5 42.9,550.9 45.9,550.0 48.5,549.3 51.1,548.6 53.9,548.0 56.7,547.5"/>
    <polyline points="161.5,347.7 162.3,346.3 162.7,345.4 163.5,343.7 163.7,343.2"/>
    <polyline points="141.3,374.3 134.6,385.3"/>
    <polyline points="134.6,385.3 132.8,388.3 129.8,392.6 128.8,394.1 126.2,397.8 124.6,399.9"/>
    <polyline points="117.3,-157.4 117.5,-152.1 117.6,-150.6 118.3,-142.7 120.5,-119.1 121.2,-113.4 122.1,-108.9 123.6,-104.5 124.9,-101.3 126.6,-98.3 129.5,-91.5 132.4,-85.3 133.4,-82.3 134.1,-79.7 134.6,-76.3 134.5,-73.6 134.0,-70.7 131.4,-60.4 130.9,-58.4 128.9,-49.5 128.6,-46.5 128.4,-43.4 128.6,-39.5 129.0,-35.6 131.6,-18.7 131.8,-14.3 131.8,-10.1 131.5,-7.0 130.9,-3.5 128.6,9.5 127.9,12.8 126.9,17.8 126.0,21.4 124.8,24.9 122.3,30.8 120.5,34.2 117.9,37.5 115.5,40.2 112.8,42.5 109.3,45.2 105.6,47.5 101.2,49.8 95.5,52.2 86.1,56.1 81.4,58.2 77.1,60.0 74.0,61.4 70.9,62.8"/>
    <polyline points="89.1,260.0 88.3,256.8 87.9,255.5"/>
    <polyline points="87.3,261.4 87.7,262.8 88.2,264.4 89.3,267.3 89.9,268.7"/>
    <polyline points="151.1,361.4 153.8,358.6"/>
    <polyline points="85.8,249.4 86.2,252.8 85.9,255.7"/>
    <polyline points="87.9,255.5 86.9,252.7 86.4,249.4"/>
    <polyline points="50.9,403.6 50.6,404.3 50.3,405.0 49.8,405.9 49.1,407.0 48.4,407.9 47.4,408.9 46.5,409.7 44.7,411.6 43.4,412.8 43.3,413.0 41.6,414.6"/>
    <polyline points="65.7,195.3 66.7,197.7 67.4,199.6 68.3,201.4 69.4,203.7"/>
    <polyline points="68.1,204.0 67.6,201.6 67.4,199.6 67.4,197.6 67.2,195.1"/>
    <polyline points="156.1,352.7 155.5,353.6"/>
    <polyline points="162.1,340.9 161.8,341.9 161.2,343.8 160.7,345.0 159.9,346.6 159.3,347.7 157.9,350.0 156.1,352.7"/>
    <polyline points="164.0,341.7 164.3,340.3"/>
    <polyline points="158.1,353.1 160.4,349.6 161.5,347.7"/>
    <polyline points="92.5,368.7 100.9,364.5 104.4,362.7"/>
    <polyline points="150.3,363.7 152.6,360.5"/>
    <polyline points="86.2,250.7 85.8,249.4"/>
  </g>

  <!-- 지하철 역 -->
  <g>
    <circle cx="50.3" cy="397.2" r="3" fill="#dc2626" stroke="#fff" stroke-width="1"/>
    <circle cx="66.4" cy="189.7" r="3" fill="#dc2626" stroke="#fff" stroke-width="1"/>
    <circle cx="139.1" cy="305.9" r="3" fill="#dc2626" stroke="#fff" stroke-width="1"/>
    <circle cx="87.1" cy="257.1" r="3" fill="#dc2626" stroke="#fff" stroke-width="1"/>
    <circle cx="127.5" cy="396.2" r="3" fill="#dc2626" stroke="#fff" stroke-width="1"/>
    <circle cx="98.7" cy="472.3" r="3" fill="#dc2626" stroke="#fff" stroke-width="1"/>
    <circle cx="90.0" cy="506.5" r="3" fill="#dc2626" stroke="#fff" stroke-width="1"/>
    <circle cx="50.9" cy="548.0" r="3" fill="#dc2626" stroke="#fff" stroke-width="1"/>
    <circle cx="98.2" cy="364.6" r="3" fill="#dc2626" stroke="#fff" stroke-width="1"/>
    <circle cx="160.8" cy="348.0" r="3" fill="#dc2626" stroke="#fff" stroke-width="1"/>
  </g>
</svg>