<?xml version="1.0" encoding="UTF-8"?>
<svg width="800" height="600" xmlns="http://www.w3.org/2000/svg">
  <title>Frankfurt Subway Map</title>
  <rect width="100%" height="100%" fill="#f8f9fa"/>

  <!-- 지하철 선로 -->
  <g stroke="#2563eb" stroke-width="2" fill="none" opacity="0.8">
    <polyline points="458.9,279.8 456.6,282.9 452.0,289.2 451.1,291.4 450.8,292.8 450.7,294.5 451.2,307.5 452.2,316.9"/>
    <polyline points="456.2,279.5 456.0,280.6 455.6,282.1 454.9,284.2 451.4,289.3 450.5,291.2 450.0,292.9 450.2,294.6"/>
    <polyline points="617.0,345.7 622.5,350.8 625.4,353.7 625.8,354.1 626.4,354.7 627.2,355.4 628.2,356.4 629.4,357.6 630.9,358.9 632.6,360.4 634.6,362.0 636.8,363.7 638.7,365.3"/>
    <polyline points="455.5,286.8 462.2,279.2 467.1,277.3 475.7,275.2 486.3,271.9 505.8,258.9 513.8,254.0 514.3,253.7 514.9,253.4 515.6,252.9 516.6,252.3 517.7,251.6 519.0,250.7 520.4,249.8 521.9,248.7 523.6,247.4 529.6,242.8 573.2,211.4 578.1,207.6 583.1,203.8 601.5,190.1 630.7,168.7 631.1,168.4 631.4,168.1 632.2,167.4 633.1,166.5 634.1,165.5 635.3,164.2 636.7,162.7 638.3,160.9 640.0,158.8 651.1,146.6 654.0,141.2 655.5,136.6 657.6,127.3 660.9,109.0 663.6,95.3 667.0,78.1 668.0,73.7 668.8,71.1 669.8,68.3"/>
    <polyline points="136.3,218.3 136.7,219.4 137.1,221.0 138.0,224.3 138.5,228.1 138.9,231.4 139.0,235.1 138.4,244.8 138.1,250.1"/>
    <polyline points="344.3,378.6 342.4,381.2 340.3,384.0 340.0,384.4 339.8,384.9 337.8,389.2 336.2,394.0 335.5,397.5 335.1,400.8 334.5,403.8 334.4,404.3 334.2,405.5 334.2,406.1 334.3,406.8 336.2,416.5 339.4,427.4 342.3,436.5 349.9,453.3 356.5,465.6 367.3,483.3"/>
    <polyline points="368.2,482.7 358.0,464.8 351.3,452.5 343.8,435.9 340.4,427.1 337.0,416.4 334.8,406.8 334.7,406.1 334.8,405.5 334.9,404.4 335.5,400.8 336.1,397.5 336.8,394.0 338.4,389.4 340.3,385.2 340.5,384.8 340.8,384.3 342.8,381.4 344.6,378.8"/>
    <polyline points="204.0,403.3 204.7,403.7 205.4,404.0 206.3,404.4 206.7,404.6 207.0,404.8 207.4,404.9 207.8,405.2 208.1,405.4 208.4,405.6 209.0,405.9 213.0,408.8"/>
    <polyline points="309.4,75.6 309.3,76.7 309.2,77.8"/>
    <polyline points="308.4,63.7 308.6,67.5 309.0,75.6 309.2,77.8 309.5,86.1 309.8,98.9 310.5,108.8 313.0,121.0 316.5,134.1 319.2,142.8 324.5,156.1 330.3,165.5 334.7,179.9 337.6,189.5 342.1,205.8 342.0,211.5 341.9,216.5 341.6,221.5 341.3,227.1 341.1,229.9 341.1,232.7 341.7,235.9 343.1,239.0 346.7,243.2 349.1,245.7 353.4,248.7 358.0,251.2 361.0,254.1 362.1,256.4 370.8,277.2 372.6,281.4 374.5,287.3 377.1,293.2 377.8,295.1 378.5,297.1 379.0,299.2 379.1,302.2"/>
    <polyline points="309.5,77.8 309.3,76.7 309.0,75.6"/>
    <polyline points="342.4,381.2 344.6,378.8"/>
    <polyline points="344.3,378.6 342.8,381.4"/>
    <polyline points="370.4,349.2 371.3,347.9 372.1,346.4 373.4,343.8 375.1,338.9 375.5,336.3 376.0,332.9 376.9,326.1"/>
    <polyline points="372.3,279.4 371.1,277.1 370.1,274.7 364.6,261.3"/>
    <polyline points="436.6,540.9 433.8,539.6 431.4,538.4"/>
    <polyline points="432.3,537.6 433.8,539.6 436.2,542.7"/>
    <polyline points="152.6,251.6 155.5,251.7 157.0,251.8 161.0,252.1 164.3,252.6 165.6,252.8 167.0,253.2 168.5,253.6 169.9,254.1 171.8,254.6 173.8,255.2 178.0,256.7 186.6,260.3 196.0,264.3 204.8,268.1 213.3,272.0 222.5,276.6 229.5,280.9 235.1,284.8 255.5,296.8 276.3,308.1 287.4,313.0 299.2,317.5 304.8,319.5 310.9,321.6 314.9,323.0 324.1,326.0 332.1,328.7 342.7,332.2"/>
    <polyline points="139.1,251.1 142.9,251.0 146.7,250.6 150.3,250.1 152.4,250.1"/>
    <polyline points="139.2,249.2 143.0,249.7 146.7,250.6 150.2,251.3 151.9,251.6"/>
    <polyline points="409.8,327.8 392.1,333.4"/>
    <polyline points="0.4,182.9 7.0,186.1 11.6,188.0 29.1,195.2 33.9,197.1 37.1,198.7 46.8,203.7 50.0,205.4 55.2,208.1 64.2,212.6 64.5,212.7 68.0,214.5 69.9,215.4 71.9,216.5 74.3,217.9 75.6,218.8 77.3,220.1 79.0,221.6 80.3,222.7 82.2,224.3 91.5,233.2 98.9,239.9 101.5,241.9 103.9,243.3 106.8,244.8 108.5,245.6 111.1,246.5"/>
    <polyline points="152.6,251.6 155.5,251.9 156.9,252.1 159.2,252.5 161.1,252.8"/>
    <polyline points="177.8,257.3 173.6,255.8 171.4,255.2 169.7,254.7 166.7,253.8 165.3,253.4 164.0,253.2 161.1,252.8 156.9,252.5 154.6,252.3 152.5,252.2 150.6,252.3 149.4,252.4 148.1,252.6 146.6,253.0 145.4,253.5 144.0,254.2 143.0,254.9 141.9,256.0 140.9,257.0 140.2,258.1 139.5,259.6 139.0,261.4 137.7,268.7 136.7,274.2 136.2,276.5"/>
    <polyline points="557.4,311.9 551.0,311.9 544.7,311.8 534.9,311.6 529.6,312.1 523.6,313.3"/>
    <polyline points="639.6,363.8 637.8,362.4 636.1,361.1 634.4,359.7 632.8,358.4 631.2,357.1 629.8,356.0 628.6,354.9 627.6,354.0 626.8,353.3 626.2,352.8 623.2,350.0 617.7,344.9"/>
    <polyline points="617.0,345.7 620.1,347.9 623.2,350.0"/>
    <polyline points="572.1,316.3 584.6,316.2 596.3,315.9 602.5,315.1 605.4,314.6 608.7,313.4 614.0,310.7 619.2,307.8 629.4,300.6 634.8,296.3 639.6,292.3 644.3,288.3 680.5,256.9 684.7,253.9 687.1,252.4 689.1,251.0 690.8,249.9 692.2,248.9 693.2,248.1 694.1,247.5 694.6,247.0 695.0,246.7 695.3,246.4 696.8,244.9 699.6,241.7 707.3,230.0 720.9,207.6 726.6,198.7 728.8,195.4 729.1,194.9 729.5,194.4 730.0,193.6 730.7,192.6 731.5,191.4 732.5,190.1 733.6,188.6 734.8,186.9 736.2,185.1 741.5,178.2 746.2,172.1 748.0,169.7 749.6,167.6 751.5,165.5 753.9,163.7 756.3,162.0 758.7,160.6"/>
    <polyline points="464.6,323.4 460.2,323.8 454.7,324.5 447.1,324.5 442.1,324.6 434.4,324.3 430.3,324.2 426.7,324.2 423.2,324.4 422.6,324.4 419.8,325.0 416.9,325.6 409.8,327.8"/>
    <polyline points="514.6,316.7 518.5,315.9 521.6,315.8"/>
    <polyline points="379.7,302.2 379.5,299.1 379.0,297.0 378.3,295.0 377.6,293.0 375.0,287.1 373.0,281.3 372.3,279.4 364.2,259.6 362.3,256.0 361.2,253.8 358.2,250.9 353.6,248.4 349.2,245.3 346.9,243.0 343.5,238.8 342.0,235.8 341.5,232.7 342.3,221.5 342.5,211.6 342.5,205.8 338.0,189.4 335.1,179.9 330.6,165.3 324.8,156.0 319.5,142.7 316.9,134.0 313.4,120.9 310.8,108.7 310.2,98.9 309.9,86.1 309.5,77.8 309.4,75.6 309.0,67.5 308.8,63.7"/>
    <polyline points="523.6,313.3 521.9,313.6 520.2,314.1 518.2,315.0 514.6,316.7 512.4,317.8 507.9,319.8 503.6,321.0 499.4,322.2 495.6,322.8 491.7,322.9 488.2,323.0"/>
    <polyline points="376.3,326.0 375.4,332.8 374.9,336.3 374.5,338.7 372.9,343.6 371.6,346.2 370.9,347.6 370.0,348.9"/>
    <polyline points="622.5,350.8 620.1,347.9 617.7,344.9"/>
    <polyline points="507.8,320.6 510.9,320.5"/>
    <polyline points="516.0,317.9 518.5,315.9 520.2,314.1"/>
    <polyline points="495.9,323.8 499.8,323.2 503.7,321.9 507.8,320.6 512.4,317.8"/>
    <polyline points="617.7,344.9 607.0,334.1 602.4,329.3 595.9,322.6 591.7,318.6 589.5,316.8 586.6,315.0 583.3,313.6 578.9,312.8 572.4,312.2"/>
    <polyline points="465.4,326.1 469.5,325.4 473.4,325.2 477.0,325.0 480.3,324.9 487.0,324.5 490.5,324.8 495.7,324.7 499.9,323.9 503.9,322.6 508.3,321.1 510.9,320.5 516.0,317.9 521.6,315.8 526.2,315.1 531.9,315.4 538.3,315.6 544.7,315.9 550.9,315.9 557.4,315.9 567.4,316.0 572.1,316.3"/>
    <polyline points="413.0,329.4 415.6,329.0 423.4,328.5 431.0,328.7 441.9,328.8 450.6,328.9 454.5,328.8 455.1,328.8 456.9,328.4 465.4,326.1"/>
    <polyline points="719.8,206.8 723.3,202.5 726.6,198.7"/>
    <polyline points="720.9,207.6 723.3,202.5 725.4,197.9"/>
    <polyline points="758.4,160.1 756.0,161.3 753.8,162.6 750.7,164.7 748.8,166.5 747.1,168.6 745.2,170.9 740.3,177.0 734.8,184.2 733.5,186.0 732.2,187.6 731.2,189.1 730.2,190.5 729.4,191.7 728.7,192.7 728.2,193.5 727.8,194.1 727.4,194.6 725.4,197.9 719.8,206.8 706.4,229.0 698.5,240.6 696.1,243.6 694.2,245.3 693.9,245.5 693.6,245.8 693.0,246.2 692.2,246.9 691.2,247.6 689.9,248.6 688.2,249.7 686.2,251.0 683.8,252.6 679.6,255.6 643.2,287.1 638.5,291.1 633.8,295.1 628.2,299.5 617.8,306.5 612.9,309.3 607.9,312.2 605.0,313.2 602.2,313.5 596.0,313.9 583.6,314.2 568.8,314.1 557.4,314.0 551.1,314.0 544.7,313.9 538.0,313.7 531.7,313.5 528.4,313.4 523.6,313.3"/>
    <polyline points="296.0,433.2 290.5,437.1 287.8,439.1 285.1,440.8 282.6,442.4 280.8,443.2 278.9,443.9 277.6,444.2 276.5,444.4 273.8,444.7 272.2,444.8 270.7,444.9 268.4,445.1 267.6,445.0 267.0,444.9 265.8,444.8 263.8,444.5 261.9,444.2 260.5,444.0 258.3,443.5 256.1,442.9 253.8,442.2 252.6,441.7 251.4,441.3 249.8,440.6 246.9,439.3 245.6,438.6 244.2,437.9 242.2,436.8 240.8,435.9 240.1,435.3 239.9,435.2 239.0,434.5 238.7,434.1 238.4,433.8 235.2,429.0 232.8,425.4 232.3,424.7 231.8,424.1 227.0,419.0 226.8,418.8"/>
    <polyline points="453.5,342.7 454.1,350.3 454.4,354.8 454.6,360.2"/>
    <polyline points="139.8,244.6 140.0,238.7"/>
    <polyline points="137.7,268.7 137.4,269.9 136.9,271.4 136.3,272.7 135.9,274.0"/>
    <polyline points="166.4,373.0 170.0,376.3 171.3,377.5 172.3,378.5 174.6,380.6"/>
    <polyline points="236.5,434.9 239.0,438.9 239.5,439.7 240.1,441.0 240.6,442.1"/>
    <polyline points="136.1,260.9 134.1,269.8 132.6,276.3 125.0,301.0 123.7,307.1 123.0,315.6 123.4,323.3 124.8,330.7 127.5,338.2 131.2,345.4 134.1,349.4 138.7,354.5"/>
    <polyline points="138.1,250.1 138.5,248.0 139.0,244.4 139.5,241.6 140.0,238.7 140.1,235.1 140.0,231.3 139.6,228.0 139.0,224.1 138.3,220.7 137.8,219.1 137.6,218.5"/>
    <polyline points="454.1,350.3 454.6,343.8"/>
    <polyline points="213.0,408.8 219.3,413.7 224.0,417.3"/>
    <polyline points="138.7,354.5 143.9,358.7 147.9,361.9 150.1,363.6 152.1,365.0 158.4,369.3 164.7,373.6 165.5,374.2 169.4,376.9 172.0,378.8 174.6,380.6 179.1,384.0 183.4,387.4 189.1,391.8 193.5,395.2 204.7,403.7 206.8,405.3 208.9,406.9 213.1,410.0 216.3,412.3 220.4,415.4 221.7,416.7 223.5,418.3 225.5,420.4 230.4,425.6 230.8,426.1 231.2,426.7 233.4,430.1 236.5,434.9"/>
    <polyline points="456.8,280.6 457.1,279.1 457.2,276.7 457.2,274.6 456.5,272.3 455.4,269.7"/>
    <polyline points="133.5,279.3 133.8,277.1 133.8,273.4 133.9,271.1 134.1,269.8"/>
    <polyline points="246.3,441.5 248.6,442.5 250.9,443.5 253.0,444.3 254.4,444.8 255.5,445.2 257.9,445.8 260.4,446.3 262.3,446.6 263.6,446.8 265.4,447.0 267.0,447.0 268.2,447.0 270.3,446.9 272.0,446.7 273.8,446.5 276.6,446.1 277.9,445.8 279.2,445.5 281.5,444.6 283.5,443.4 285.4,442.0 288.3,439.8 291.1,437.6 296.3,433.6"/>
    <polyline points="165.5,374.2 169.7,376.6 171.3,377.5 172.5,378.2 175.2,379.8"/>
    <polyline points="296.3,433.6 314.2,414.9 314.7,414.4 315.4,413.7 318.5,411.4 322.5,408.7 327.9,405.8 330.6,404.4 332.2,403.9 333.6,403.6 336.8,403.8 337.5,403.7 338.2,403.5 354.2,400.3 362.2,398.8 366.7,397.7 375.8,395.3 388.5,391.6"/>
    <polyline points="135.0,272.5 133.5,279.3 132.6,283.1 127.0,301.9"/>
    <polyline points="226.8,418.8 225.6,418.2 224.0,417.3"/>
    <polyline points="450.9,315.8 451.3,321.0 451.8,326.2 451.9,327.3 452.5,333.8 453.5,342.7"/>
    <polyline points="455.4,269.7 455.1,268.4 454.5,266.8 453.8,265.2 453.0,263.7 451.9,262.0 450.9,260.6 448.7,258.0"/>
    <polyline points="388.2,390.7 375.6,394.8 366.5,397.0 362.0,398.2 354.1,399.7 338.3,403.0 337.5,403.1 336.8,403.2 333.5,403.1 332.0,403.4 330.3,404.0 327.7,405.4 322.3,408.2 318.2,410.9 315.0,413.1 314.3,413.8 313.8,414.3 296.0,433.2"/>
    <polyline points="135.4,276.4 135.0,277.8 134.3,279.3 133.4,281.2 132.6,283.1"/>
    <polyline points="216.8,410.9 213.4,408.2 209.3,405.2 209.0,405.0 208.7,404.8 208.3,404.6 207.9,404.3 207.3,404.0 206.9,403.7 205.9,403.3 205.3,403.0 204.6,402.6 201.4,401.5"/>
    <polyline points="455.8,359.9 455.7,356.9 455.5,354.6 454.6,343.8"/>
    <polyline points="241.0,438.7 241.2,439.2 241.4,439.9 241.5,440.5 241.5,441.2 241.5,442.1"/>
    <polyline points="226.3,419.3 225.6,418.3 225.6,418.2 224.7,416.8"/>
    <polyline points="222.5,415.2 216.8,410.9"/>
    <polyline points="140.1,250.4 140.0,246.9 139.8,244.6 139.5,241.6 139.4,238.7 139.5,235.1 139.4,231.3 139.0,228.1 138.4,224.2 137.7,220.9 137.2,219.3 137.1,218.7"/>
    <polyline points="139.0,244.4 139.4,238.7"/>
    <polyline points="218.6,411.4 224.8,415.6 225.9,416.4 226.9,417.3 227.9,418.2 230.0,420.4 232.8,423.3 233.2,423.8 233.7,424.4 234.9,426.1 235.5,427.2 236.2,428.3 239.4,433.3"/>
    <polyline points="485.6,270.9 475.4,273.7 465.1,276.2 461.1,277.8 458.9,279.8"/>
    <polyline points="668.2,67.7 667.3,70.7 666.6,73.7 665.8,77.7 662.7,95.5 660.1,109.0 656.9,127.0 654.8,136.3 653.5,141.0 650.9,146.2 640.0,158.8 639.8,159.0 638.2,160.9 636.7,162.7 635.3,164.2 634.1,165.5 633.1,166.5 632.2,167.3 631.5,168.0 631.1,168.4 630.7,168.7 601.4,190.0 583.1,203.8 578.1,207.6 573.2,211.4 529.6,242.8 523.6,247.5 522.0,248.7 520.4,249.8 519.0,250.7 517.7,251.6 516.6,252.3 515.6,252.9 514.9,253.4 514.3,253.7 513.8,254.0 505.6,258.6 485.6,270.9"/>
    <polyline points="675.1,35.1 674.2,38.9 673.6,42.8 673.2,49.1 673.0,51.7 672.7,53.9 672.4,55.8 672.0,57.5 671.7,58.9 671.3,60.1 671.0,61.0 670.8,61.6 670.6,62.1 668.2,67.7"/>
    <polyline points="448.4,258.2 450.4,260.8 451.4,262.3 452.5,263.9 453.2,265.4 453.9,267.0 454.5,268.6 454.9,269.9"/>
    <polyline points="448.7,258.0 444.5,252.1"/>
    <polyline points="304.8,319.5 308.2,319.8 311.4,320.0"/>
    <polyline points="310.9,321.6 308.2,319.8 305.3,317.8"/>
    <polyline points="111.5,244.8 109.4,244.0 107.5,243.2 105.1,242.0 102.7,240.5 99.9,238.6 92.4,231.8 83.0,223.3 81.5,222.0 79.5,220.6 78.1,219.6 77.0,218.9 76.0,218.3 75.7,218.1 74.5,217.5 72.4,216.5 68.8,214.8 68.0,214.5 64.2,212.6 55.3,208.1 50.5,205.0 50.0,204.7 47.6,203.0 45.0,201.0 42.2,199.1 40.0,197.7 38.2,196.7 34.6,194.9 29.9,192.8 21.1,189.2 12.4,185.7 8.1,183.8 1.2,180.5"/>
    <polyline points="392.9,335.8 397.8,334.1 413.0,329.4"/>
    <polyline points="140.1,250.4 140.6,235.1 140.5,231.3 140.2,227.9 139.6,224.0 138.9,220.6 138.3,219.0 137.9,217.7"/>
    <polyline points="226.8,418.8 224.7,416.8"/>
    <polyline points="224.7,416.8 222.5,415.2"/>
    <polyline points="222.5,415.2 218.6,411.4"/>
    <polyline points="224.0,417.3 226.3,419.3"/>
    <polyline points="218.6,411.4 208.7,404.2 203.3,400.5 199.5,397.8 195.0,394.6 190.4,391.3 184.2,386.5 179.8,383.2 176.1,380.4 175.2,379.8 172.7,377.9 170.3,376.0 166.4,373.0 165.6,372.4 159.5,367.8 153.5,363.2 148.6,359.0 142.7,352.5 139.2,347.6 136.1,343.0 132.7,335.9 130.5,330.2 128.8,322.5 127.9,315.3 128.3,307.6 129.6,301.7 132.5,291.0 134.8,279.8"/>
    <polyline points="236.5,434.9 237.4,436.0 238.2,436.8 238.9,437.4 239.6,437.8 240.1,438.1 241.0,438.7 246.3,441.5"/>
    <polyline points="226.3,419.3 226.5,419.5 231.3,424.5 231.8,425.2 232.2,425.7 233.7,428.0 235.8,431.1 237.7,434.2 238.1,434.7 238.6,435.2 240.0,436.4 240.6,436.9 242.2,438.3 246.3,441.5"/>
    <polyline points="456.2,279.5 457.2,274.6"/>
    <polyline points="450.2,294.6 450.3,307.7 450.9,315.8"/>
    <polyline points="452.2,316.9 452.6,320.9 453.2,327.2 454.0,334.9 454.0,335.2 453.5,342.7"/>
    <polyline points="453.1,317.6 453.0,307.5 451.9,294.4 452.0,292.9 452.4,291.4 453.2,290.0 455.5,286.8"/>
    <polyline points="342.7,332.2 350.4,334.7 357.4,335.8 365.9,337.0 371.9,337.7 375.0,338.0 378.9,338.4 380.4,338.5 382.0,338.6 383.0,338.5 384.2,338.3 386.2,337.9 390.8,336.5 392.9,335.8"/>
    <polyline points="392.1,333.4 389.3,334.2 386.4,334.8 384.4,335.1 382.2,335.4 380.9,335.4 375.4,334.8 366.0,333.8 362.2,333.3 356.9,332.5 351.0,331.4 348.9,331.0 343.8,329.8"/>
    <polyline points="431.4,538.4 436.2,542.7 442.2,547.9 449.1,553.5"/>
    <polyline points="442.8,545.9 436.6,540.9 432.3,537.6"/>
    <polyline points="305.7,44.7 307.7,55.3 308.1,58.6 308.4,63.7"/>
    <polyline points="308.8,63.7 308.4,58.6 308.1,55.2 306.0,44.6"/>
  </g>

  <!-- 지하철 역 -->
  <g>
    <circle cx="418.6" cy="91.7" r="3" fill="#dc2626" stroke="#fff" stroke-width="1"/>
    <circle cx="335.0" cy="401.5" r="3" fill="#dc2626" stroke="#fff" stroke-width="1"/>
    <circle cx="158.8" cy="368.4" r="3" fill="#dc2626" stroke="#fff" stroke-width="1"/>
    <circle cx="130.7" cy="249.5" r="3" fill="#dc2626" stroke="#fff" stroke-width="1"/>
    <circle cx="374.8" cy="338.8" r="3" fill="#dc2626" stroke="#fff" stroke-width="1"/>
    <circle cx="374.8" cy="287.3" r="3" fill="#dc2626" stroke="#fff" stroke-width="1"/>
    <circle cx="300.9" cy="317.1" r="3" fill="#dc2626" stroke="#fff" stroke-width="1"/>
    <circle cx="64.2" cy="212.5" r="3" fill="#dc2626" stroke="#fff" stroke-width="1"/>
    <circle cx="690.7" cy="249.1" r="3" fill="#dc2626" stroke="#fff" stroke-width="1"/>
    <circle cx="732.3" cy="189.0" r="3" fill="#dc2626" stroke="#fff" stroke-width="1"/>
    <circle cx="631.0" cy="357.9" r="3" fill="#dc2626" stroke="#fff" stroke-width="1"/>
    <circle cx="382.1" cy="501.3" r="3" fill="#dc2626" stroke="#fff" stroke-width="1"/>
    <circle cx="137.2" cy="261.0" r="3" fill="#dc2626" stroke="#fff" stroke-width="1"/>
    <circle cx="232.3" cy="425.2" r="3" fill="#dc2626" stroke="#fff" stroke-width="1"/>
    <circle cx="429.6" cy="143.4" r="3" fill="#dc2626" stroke="#fff" stroke-width="1"/>
    <circle cx="443.3" cy="546.9" r="3" fill="#dc2626" stroke="#fff" stroke-width="1"/>
    <circle cx="342.0" cy="222.8" r="3" fill="#dc2626" stroke="#fff" stroke-width="1"/>
    <circle cx="324.5" cy="155.7" r="3" fill="#dc2626" stroke="#fff" stroke-width="1"/>
    <circle cx="309.7" cy="85.2" r="3" fill="#dc2626" stroke="#fff" stroke-width="1"/>
    <circle cx="638.6" cy="292.3" r="3" fill="#dc2626" stroke="#fff" stroke-width="1"/>
    <circle cx="553.1" cy="315.0" r="3" fill="#dc2626" stroke="#fff" stroke-width="1"/>
    <circle cx="449.2" cy="326.6" r="3" fill="#dc2626" stroke="#fff" stroke-width="1"/>
    <circle cx="520.5" cy="250.3" r="3" fill="#dc2626" stroke="#fff" stroke-width="1"/>
    <circle cx="577.4" cy="209.0" r="3" fill="#dc2626" stroke="#fff" stroke-width="1"/>
    <circle cx="637.2" cy="162.9" r="3" fill="#dc2626" stroke="#fff" stroke-width="1"/>
    <circle cx="438.9" cy="220.7" r="3" fill="#dc2626" stroke="#fff" stroke-width="1"/>
    <circle cx="415.4" cy="382.5" r="3" fill="#dc2626" stroke="#fff" stroke-width="1"/>
  </g>
</svg>