<?xml version="1.0" encoding="UTF-8"?>
<svg width="800" height="600" xmlns="http://www.w3.org/2000/svg">
  <title>Fuzhou Subway Map</title>
  <rect width="100%" height="100%" fill="#f8f9fa"/>

  <!-- 지하철 선로 -->
  <g stroke="#2563eb" stroke-width="2" fill="none" opacity="0.8">
    <polyline points="425.9,124.5 432.1,123.2 439.9,121.9 442.7,121.3 451.9,119.4 455.0,118.6 457.6,117.6 459.5,116.4 460.9,114.5 461.7,112.4 463.1,107.2 465.5,100.7 466.0,99.2 467.2,97.3 476.0,83.3 481.4,74.8 481.4,74.7 481.7,74.3 482.0,73.7 482.1,73.1 482.1,72.8 481.9,72.3 481.4,71.6 480.9,71.0 480.3,70.2 476.0,64.0 472.0,58.2 470.6,56.1 463.6,44.7 463.1,43.8 462.7,42.9 462.3,41.3 462.5,39.7 463.0,38.2 467.4,25.7 470.9,18.5 471.5,17.7 472.1,16.9 472.9,16.4 473.7,15.9 487.0,7.6 487.9,6.9 488.1,6.8 488.5,6.4 489.0,5.8 489.6,5.1 490.5,4.1 491.4,2.6 491.8,1.7 492.0,1.0 492.0,0.2 491.7,-0.9 489.4,-9.3 488.6,-11.0 487.6,-12.6 486.8,-13.5 476.6,-26.0 470.0,-33.8 467.4,-36.7 466.0,-40.6 465.8,-43.4 466.0,-46.2 466.6,-48.2 470.1,-51.9 477.9,-58.2 503.5,-78.3 551.5,-116.1 564.4,-126.6 567.4,-129.1 568.1,-129.8 569.9,-131.7"/>
    <polyline points="425.9,124.5 408.2,127.5 392.4,130.2 375.1,133.2 338.6,138.7 309.5,143.2 301.9,144.4 296.7,145.9 292.6,147.5 289.1,148.9 287.1,150.1 285.4,151.3 284.3,152.4 283.5,153.6 283.1,154.8 282.9,155.9 283.0,158.2 283.2,160.9 283.5,163.1 284.0,165.6 285.9,174.1 286.7,177.0 298.7,219.7 301.7,228.5 305.2,240.1 306.2,242.9 306.9,245.5 307.9,249.7 309.7,252.5 315.0,270.3 315.2,271.0 318.7,279.2"/>
    <polyline points="523.6,304.3 483.5,303.7 450.3,304.3 434.0,304.6 431.2,304.6 408.1,305.0 385.6,305.1 350.1,306.6 348.4,306.7 341.6,307.0 337.3,307.1 333.5,307.3 331.8,307.4 330.4,307.4 325.8,307.8 319.4,309.3 303.7,315.5 296.3,319.5 292.7,322.1 290.3,325.5 285.7,330.8 284.1,333.5 283.4,335.6 283.4,339.2 284.2,346.4 298.1,372.5 300.0,386.7 300.0,388.9 299.7,389.9 298.7,391.5 296.1,393.5 291.0,395.9 288.4,396.6 284.4,397.3 260.5,397.7 233.9,398.1 224.0,398.4 221.1,398.3 217.0,398.7 212.8,399.6 206.3,401.4 186.9,410.3 174.0,416.3 151.1,426.9 139.9,433.9 128.8,442.7 70.2,484.5 60.3,489.1 49.0,493.4 38.3,497.1 34.2,498.2 25.4,499.3 -26.2,499.8 -136.5,499.6 -154.1,500.5 -178.2,501.7 -188.3,502.2 -204.4,503.1 -209.6,503.3 -228.7,504.4 -231.0,504.6 -232.7,504.8 -234.8,505.1 -249.0,507.4 -254.0,508.5 -256.7,509.2 -258.4,509.8 -267.1,513.1 -269.5,513.7 -271.7,514.0 -292.7,515.9 -348.5,521.3 -350.0,521.4 -351.8,521.6 -355.7,522.1 -361.5,523.1 -367.1,524.3 -372.2,525.5 -406.0,532.7 -417.4,534.6 -479.6,544.9 -484.5,545.4 -489.1,545.5 -495.0,545.6 -500.8,545.3 -505.8,544.8 -511.2,543.9 -514.8,542.8 -519.0,540.9 -526.2,536.6 -533.5,530.7 -536.5,527.3 -539.1,523.0 -545.2,508.9 -546.4,504.9 -546.8,501.8 -545.8,454.3 -550.0,437.9 -556.8,422.0 -579.5,372.8 -586.7,366.8 -596.5,359.7 -710.1,307.2 -749.0,289.5 -754.6,286.5 -755.0,286.2 -760.0,281.9 -775.2,266.3 -775.4,266.0 -777.4,264.5 -779.6,262.9 -783.7,260.6 -824.6,241.9 -852.7,225.2 -854.5,224.2 -857.7,222.8 -860.5,221.7 -879.0,215.7 -879.7,215.5 -907.5,208.0 -911.7,205.9 -914.3,204.1 -916.4,201.8 -917.6,198.3 -918.1,194.0 -919.3,186.7 -920.5,180.8 -921.8,177.4 -923.3,175.1 -927.8,172.0 -933.0,168.8 -941.8,162.8 -948.8,158.2"/>
    <polyline points="569.2,-132.0 567.4,-130.1 566.8,-129.5 563.7,-126.9 550.9,-116.5 503.2,-78.6 488.1,-67.1 477.3,-58.6 469.5,-52.2 465.8,-48.4 465.2,-46.3 465.0,-43.4 465.1,-40.6 466.6,-36.5 468.4,-33.7 475.1,-25.6 485.4,-13.3 486.1,-12.3 487.3,-10.4 487.7,-9.2 490.0,-0.8 490.3,0.3 490.2,1.3 489.7,2.2 489.3,3.1 488.7,4.0 488.0,4.8 487.4,5.5 487.1,5.9 486.6,6.5 485.8,7.0 472.1,15.9 471.4,16.5 470.8,17.1 470.2,17.7 469.8,18.5 466.1,25.3 465.6,26.5 463.6,32.5 463.0,34.1 462.1,35.8 461.4,37.6 461.1,38.8 460.9,39.9 460.8,41.1 461.0,42.2 461.6,43.5 462.2,44.9 469.9,57.0 470.8,58.4 474.9,64.2 479.0,70.2 480.2,72.1 480.4,72.5 480.6,72.8 480.7,73.1 480.7,73.5 480.6,73.9 480.5,74.2 474.9,83.0 466.3,97.0 465.3,98.9 464.6,100.5 462.3,107.1 460.9,112.3 460.1,114.3 458.8,116.1 457.1,117.2 454.7,118.1 451.6,118.9 447.1,119.8 442.4,120.8 439.7,121.3 431.9,122.7 425.7,124.2"/>
    <polyline points="425.7,124.2 408.0,126.9 392.2,129.7 374.9,132.7 338.4,138.2 309.3,142.7 301.7,143.9 296.3,145.4 292.2,147.0 288.6,148.5 286.5,149.8 284.8,150.9 283.6,152.1 282.7,153.5 282.3,154.7 282.1,155.8 282.2,158.2 282.4,160.9 282.7,163.1 283.2,165.7 285.1,174.2 285.9,177.1 297.9,219.8 300.9,228.6 304.6,240.0 305.3,243.4 306.3,246.0 306.8,247.9 307.7,250.1 308.9,252.6"/>
    <polyline points="540.5,575.7 519.3,554.6 518.3,553.6 513.8,548.9 508.8,540.2 502.8,530.0 500.8,528.2 498.5,526.0 497.5,525.2 492.3,521.0 482.6,513.8 468.1,503.0 466.1,501.5 451.0,490.3 446.3,485.6 444.4,483.3 439.5,475.7 438.6,474.1 435.1,467.9 433.0,465.1 399.3,433.7 399.0,433.3 374.3,407.1 369.6,398.5 366.1,389.8 366.0,389.5 363.0,381.7 357.2,367.9 352.0,355.5 348.5,347.0 347.0,343.1 345.2,339.2 343.7,335.9 336.3,318.5 333.7,311.9 328.3,300.2 326.7,297.2 325.5,294.6 325.1,293.8 322.1,287.0 321.3,285.1 319.8,281.8 318.7,279.2"/>
    <polyline points="66.1,293.8 158.8,269.0 165.1,267.2 216.2,252.3 223.8,251.4 306.0,243.7 315.3,242.7 378.1,237.7 439.1,233.3 481.3,228.1 519.7,218.2 547.4,210.4 565.3,204.2 592.7,195.9 601.6,194.3 651.6,196.3 673.0,196.9 746.0,193.6 750.0,193.4 754.1,194.3 758.1,195.5 766.3,198.6 770.1,200.9 773.6,204.0 776.2,207.6 777.5,210.4 779.6,217.3 782.8,229.6 782.8,245.0 782.8,249.0 782.8,265.1 782.6,269.2 781.5,275.0 779.0,284.0 778.7,285.7 777.1,291.6 768.3,321.1 767.6,323.5 767.0,325.0 766.4,326.4 765.3,328.6 760.8,337.0 757.8,342.5 756.4,345.0 755.1,347.3 754.3,348.5 753.5,349.8 738.9,370.2 737.4,372.2 736.1,374.1 734.9,375.9 733.4,378.6 729.6,385.7 723.4,397.1 722.1,399.3 720.7,401.4 718.3,405.0 717.0,406.9 716.3,408.3 715.7,409.5 715.2,410.7 714.7,412.4 714.4,413.5 714.2,414.7 714.0,416.4 714.0,418.0 714.1,419.5 715.0,428.7 715.1,430.8 715.2,432.8 715.1,434.2 715.0,436.0 714.6,438.1 711.3,452.6 706.5,473.2 705.8,477.8 705.5,483.6 704.9,506.7 705.2,511.2 706.4,515.2 708.8,519.5 711.7,523.1 716.0,526.6 718.9,528.4 721.9,530.0 725.1,531.5 736.0,536.4 743.8,540.1 757.1,546.5 781.0,557.7 793.2,564.2 798.7,567.3 813.5,575.5 829.8,588.5 833.8,592.4 838.3,599.4 844.9,617.4 848.4,625.3 850.2,628.3 851.5,629.9 853.6,632.0 855.4,633.4 871.3,645.0 890.2,657.4 899.3,663.5 904.2,669.7 906.8,676.2 907.1,678.4 907.1,681.7 904.7,688.6 898.5,705.8 897.8,707.9 893.4,719.5 886.0,737.3 885.2,740.1 884.3,745.6 871.7,775.4 870.7,779.3 869.9,783.2 869.9,794.0 870.0,795.9 871.3,808.2 871.3,813.1 871.2,815.6 870.8,818.0 869.1,822.4 865.9,826.5 856.2,837.0 853.6,839.6 848.0,844.1 840.0,849.8 832.9,854.4 816.0,865.5 798.2,875.5 794.0,877.0 789.5,877.8 778.3,879.2 755.0,880.4 744.9,881.3 740.8,881.7 736.5,882.4 727.4,884.3 713.0,887.7 707.2,888.9 657.3,897.5 653.8,898.0 648.3,898.5 640.1,898.9 624.7,899.6 614.5,900.2"/>
    <polyline points="615.3,902.5 624.8,902.0 638.8,901.3 642.5,901.1 647.4,900.6 655.1,899.1 662.8,897.4 667.3,896.4 674.5,894.9 707.5,889.4 712.9,888.3 727.2,884.7 736.1,883.3 741.0,882.6 744.9,882.2 755.1,881.4 778.5,879.8 788.9,878.7 794.1,877.4 798.4,875.8 816.3,866.2 833.8,854.8 844.1,847.4 848.2,844.5 854.0,840.0 856.9,837.2 861.8,832.0 866.5,826.8 869.8,822.4 871.3,818.4 872.0,815.3 872.2,813.6 872.1,808.3 872.1,795.8 872.0,793.7 872.2,783.7 872.7,779.8 873.7,775.9 884.8,745.2 885.8,740.2 886.2,737.8 894.3,720.0 898.9,707.9 899.8,705.7 905.1,688.6 907.5,681.7 907.8,680.1 907.8,678.6 907.2,676.1 904.5,669.5 899.6,663.3 890.6,657.2 871.7,644.8 856.0,633.5 854.0,631.7 851.3,628.6 850.0,626.7 849.2,625.2 845.8,617.3 840.0,603.5 838.7,599.4 834.2,592.1 830.2,588.3 813.8,575.3 793.9,563.2 792.3,562.4 781.9,557.0 757.7,545.7 743.8,539.0 729.8,532.7 723.5,529.9 716.7,525.9 711.8,521.3 708.5,516.8 706.6,512.1 706.0,506.9 706.7,482.0 706.8,480.2 707.0,478.3 707.4,476.1 712.7,452.7 715.2,441.8 715.9,438.6 716.3,436.6 716.4,434.5 716.4,432.0 716.2,430.1 715.3,419.8 715.2,417.7 715.2,415.9 715.4,414.0 715.8,412.1 716.3,410.4 717.1,408.6 718.3,406.3 719.8,404.0 721.6,401.4 723.9,398.1 725.9,394.9 730.8,385.9 734.5,378.9 735.6,376.9 737.0,374.8 737.9,373.3 755.6,348.6 757.3,346.2 758.7,343.8 762.2,337.3 766.1,330.1 767.7,326.9 769.0,323.1 777.5,291.6 780.1,284.2 782.4,275.1 783.7,269.2 783.7,266.9 783.2,249.0 783.8,233.7 783.9,229.8 783.7,226.5 781.0,217.2 779.3,210.4 777.3,207.1 773.8,203.0 770.8,200.4 766.7,197.8 762.5,196.3 758.3,194.7 754.0,193.6 750.0,193.1 724.9,193.9 721.5,194.0 665.5,195.8 651.6,195.4 601.6,194.0 592.5,195.6 564.7,204.1 547.2,209.6 519.5,218.0 481.2,227.8 438.9,232.7 378.0,237.2 369.3,237.8 315.1,242.5 307.6,243.2 306.0,243.4 223.7,251.0 216.0,252.0 164.7,266.5 158.0,268.2 80.2,289.5 65.7,293.0"/>
    <polyline points="308.9,252.6 314.4,269.9 316.0,275.3 316.2,275.8 316.6,276.8 317.0,277.6 317.3,278.3 318.8,281.9 323.9,294.4 324.1,294.9 325.5,297.8 332.5,312.1 335.5,318.7 342.9,336.1 344.4,339.4 346.2,343.3 347.9,347.4 351.2,355.6 356.4,368.1 362.2,381.8 365.2,389.7 365.3,389.9 368.8,398.6 373.6,407.3 392.2,427.1 398.3,433.6 398.6,433.9 422.6,456.3 422.7,456.4 422.8,456.4 430.9,464.0 432.8,466.4 433.3,467.0 434.8,469.0 438.3,475.7 444.1,483.9 446.5,486.7 449.8,489.9 461.2,498.7 471.0,505.6 490.9,520.7 491.7,521.4 496.9,525.6 497.9,526.4 502.1,530.3 508.0,540.4 512.7,548.5 513.0,549.1 516.7,552.9 518.6,554.9 539.8,576.0"/>
    <polyline points="-949.4,158.8 -942.4,163.4 -928.1,172.6 -924.7,175.2 -922.8,178.1 -921.4,182.6 -919.1,191.4 -918.2,198.6 -917.0,202.2 -915.0,204.4 -911.7,206.6 -908.0,208.2 -880.0,215.9 -879.1,216.2 -860.9,222.1 -858.2,223.2 -855.4,224.5 -853.4,225.7 -825.1,242.2 -784.5,260.9 -780.0,263.3 -777.0,265.5 -776.0,266.5 -760.5,282.2 -755.5,286.4 -754.9,286.8 -749.5,289.8 -710.4,307.6 -596.8,360.1 -587.2,367.1 -580.2,372.9 -552.9,432.7 -550.7,438.0 -546.5,454.3 -547.5,501.7 -547.0,505.0 -546.1,508.4 -539.4,523.9 -537.2,527.3 -534.2,530.8 -526.7,537.0 -519.4,541.2 -515.6,543.1 -511.4,544.3 -506.6,545.3 -499.6,546.0 -494.8,546.2 -488.8,546.1 -484.5,546.0 -479.2,545.6 -432.2,537.7 -417.2,535.0 -407.2,533.6 -372.0,526.3 -366.6,525.2 -361.0,524.0 -355.7,523.0 -351.8,522.5 -349.9,522.3 -348.2,522.1 -293.6,516.8 -271.4,514.8 -269.1,514.5 -267.0,513.9 -256.3,509.9 -253.6,509.1 -251.9,508.7 -250.2,508.3 -234.6,505.8 -232.6,505.5 -231.0,505.3 -229.1,505.1 -209.6,504.0 -204.3,503.7 -199.5,503.5 -182.4,502.7 -178.2,502.5 -136.5,500.0 -26.2,500.3 25.3,499.8 33.5,498.8 38.7,497.8 49.4,493.9 59.1,490.4 70.6,484.9 131.7,443.2 143.6,434.1 152.8,428.5 175.2,417.4 187.8,411.2 207.7,401.8 212.1,400.3 215.6,399.5 219.3,398.9 234.0,398.5 260.6,398.1 284.5,397.8 287.8,397.4 291.2,396.4 296.5,393.9 299.3,391.8 300.1,390.5 300.5,389.1 300.5,386.9 298.8,372.6 285.3,346.6 284.0,339.4 284.1,335.8 284.8,333.7 286.4,331.1 290.9,325.7 293.3,322.3 296.7,319.8 304.1,315.9 319.7,309.9 325.7,308.5 330.7,308.1 337.3,307.8 341.7,307.7 346.6,307.6 356.9,307.3 375.1,306.0 385.5,305.7 407.9,305.7 434.2,305.5 483.5,304.2 499.1,304.6 540.4,304.9 546.8,305.7 554.7,307.3 571.8,310.9 575.3,311.7 596.3,316.1 606.5,318.3 614.9,319.2 664.2,321.4 664.6,321.4 682.0,322.0 694.3,322.6 695.8,322.7 707.5,324.2 728.1,326.9 743.7,329.0 757.1,331.4"/>
    <polyline points="908.6,389.7 905.0,387.7 894.3,381.9 888.5,378.5 880.7,374.1 871.4,369.0 870.3,368.4 855.6,360.8 843.2,354.3 837.4,351.5 831.2,348.9 817.1,344.8 796.6,339.4 780.4,335.5 772.1,333.7 759.7,331.0 757.4,330.6 751.7,329.4 742.1,327.7 735.1,326.7 717.6,324.4 706.2,322.9 698.1,322.0 686.5,321.3 682.0,321.2 664.3,320.6 614.5,318.8 607.2,317.9 596.6,315.4 589.8,313.6 572.3,309.7 555.4,306.0 546.7,304.3 540.5,303.8"/>
    <polyline points="540.5,303.8 523.6,304.3"/>
    <polyline points="574.6,310.7 578.0,311.4 593.3,314.8 596.6,315.4"/>
    <polyline points="574.4,311.0 577.9,311.8 593.1,315.1 596.3,316.1"/>
    <polyline points="572.3,309.7 574.6,310.7 576.2,311.2 577.9,311.8"/>
    <polyline points="578.0,311.4 576.2,311.2 574.4,311.0 571.8,310.9"/>
    <polyline points="346.6,307.6 350.1,306.6"/>
    <polyline points="318.8,281.9 319.9,283.7 323.4,292.2 324.0,293.7"/>
    <polyline points="324.5,293.5 323.9,292.2 320.2,283.6 319.8,281.8"/>
    <polyline points="323.4,292.2 324.0,292.9 324.5,293.5 325.5,294.6"/>
    <polyline points="323.9,292.2 324.0,292.9 324.0,293.7 324.1,294.9"/>
    <polyline points="325.1,293.8 327.4,296.5 332.6,301.2 337.0,303.7 344.0,306.0 348.4,306.7"/>
    <polyline points="151.1,426.9 155.8,425.5 168.9,419.2 172.0,417.7"/>
    <polyline points="172.5,418.2 169.4,419.7 156.4,425.9 152.8,428.5"/>
    <polyline points="169.4,419.7 170.8,418.7 172.0,417.7 174.0,416.3"/>
    <polyline points="168.9,419.2 170.8,418.7 172.5,418.2 175.2,417.4"/>
  </g>

  <!-- 지하철 역 -->
  <g>
    <circle cx="561.1" cy="307.9" r="3" fill="#dc2626" stroke="#fff" stroke-width="1"/>
    <circle cx="434.9" cy="305.3" r="3" fill="#dc2626" stroke="#fff" stroke-width="1"/>
    <circle cx="283.7" cy="339.3" r="3" fill="#dc2626" stroke="#fff" stroke-width="1"/>
    <circle cx="255.0" cy="396.3" r="3" fill="#dc2626" stroke="#fff" stroke-width="1"/>
    <circle cx="187.3" cy="410.8" r="3" fill="#dc2626" stroke="#fff" stroke-width="1"/>
    <circle cx="330.7" cy="307.5" r="3" fill="#dc2626" stroke="#fff" stroke-width="1"/>
    <circle cx="475.4" cy="64.2" r="3" fill="#dc2626" stroke="#fff" stroke-width="1"/>
    <circle cx="432.0" cy="123.0" r="3" fill="#dc2626" stroke="#fff" stroke-width="1"/>
    <circle cx="375.0" cy="133.0" r="3" fill="#dc2626" stroke="#fff" stroke-width="1"/>
    <circle cx="285.5" cy="174.2" r="3" fill="#dc2626" stroke="#fff" stroke-width="1"/>
    <circle cx="305.9" cy="242.9" r="3" fill="#dc2626" stroke="#fff" stroke-width="1"/>
    <circle cx="351.6" cy="355.6" r="3" fill="#dc2626" stroke="#fff" stroke-width="1"/>
    <circle cx="398.7" cy="433.4" r="3" fill="#dc2626" stroke="#fff" stroke-width="1"/>
    <circle cx="497.2" cy="525.4" r="3" fill="#dc2626" stroke="#fff" stroke-width="1"/>
    <circle cx="482.8" cy="71.0" r="3" fill="#dc2626" stroke="#fff" stroke-width="1"/>
    <circle cx="461.5" cy="237.2" r="3" fill="#dc2626" stroke="#fff" stroke-width="1"/>
    <circle cx="485.6" cy="314.3" r="3" fill="#dc2626" stroke="#fff" stroke-width="1"/>
    <circle cx="489.9" cy="389.9" r="3" fill="#dc2626" stroke="#fff" stroke-width="1"/>
    <circle cx="730.6" cy="385.9" r="3" fill="#dc2626" stroke="#fff" stroke-width="1"/>
    <circle cx="712.3" cy="452.8" r="3" fill="#dc2626" stroke="#fff" stroke-width="1"/>
    <circle cx="547.3" cy="210.2" r="3" fill="#dc2626" stroke="#fff" stroke-width="1"/>
    <circle cx="439.0" cy="233.0" r="3" fill="#dc2626" stroke="#fff" stroke-width="1"/>
    <circle cx="651.6" cy="195.9" r="3" fill="#dc2626" stroke="#fff" stroke-width="1"/>
    <circle cx="378.0" cy="237.5" r="3" fill="#dc2626" stroke="#fff" stroke-width="1"/>
    <circle cx="223.8" cy="251.2" r="3" fill="#dc2626" stroke="#fff" stroke-width="1"/>
    <circle cx="65.9" cy="293.4" r="3" fill="#dc2626" stroke="#fff" stroke-width="1"/>
    <circle cx="164.9" cy="266.9" r="3" fill="#dc2626" stroke="#fff" stroke-width="1"/>
  </g>
</svg>