<?xml version="1.0" encoding="UTF-8"?>
<svg width="800" height="600" xmlns="http://www.w3.org/2000/svg">
  <title>Genoa Subway Map</title>
  <rect width="100%" height="100%" fill="#f8f9fa"/>

  <!-- 지하철 선로 -->
  <g stroke="#2563eb" stroke-width="2" fill="none" opacity="0.8">
    <polyline points="103.1,132.1 104.0,133.0 105.1,134.0 106.3,135.2 109.2,138.1"/>
    <polyline points="244.4,313.6 237.4,318.3 230.8,322.8 229.5,323.6 227.9,324.2 226.5,324.3 225.0,324.2 223.5,323.8 222.2,323.1 220.9,322.1 219.6,320.8 218.4,319.2 217.5,317.6 216.4,315.6 215.3,313.4 210.1,302.2 208.8,299.3 207.6,296.8 206.5,294.6 204.6,291.2 121.2,152.3 120.1,150.5 118.9,148.6 117.4,146.5 115.7,144.5 113.6,142.3 111.3,139.8 109.4,137.9"/>
    <polyline points="396.1,440.6 398.3,442.0 400.8,443.0 403.0,443.5 405.5,443.7 408.0,443.6 410.4,443.2 412.8,442.6 415.4,441.3 416.4,440.6 418.2,438.9 419.6,437.2 421.0,435.1 442.1,403.3 443.2,401.7 445.4,398.1 447.6,393.4 449.5,388.3 451.2,383.0"/>
    <polyline points="387.1,381.7 386.8,384.0 386.3,386.4 380.7,405.8 380.2,408.0 379.8,410.0 379.7,412.1 379.6,414.0 379.8,416.0 380.1,417.8 380.6,419.9 381.3,422.0 382.2,423.9 391.7,436.6 393.8,438.8 396.1,440.6"/>
    <polyline points="244.4,313.6 250.9,309.5 252.9,308.3 266.4,300.1 268.2,299.0 269.1,298.3 269.9,297.7 270.7,297.0 271.3,296.3 273.9,293.2 274.6,292.4 275.4,291.5 276.2,290.8 280.4,287.5 281.7,286.5 282.8,285.6 284.3,284.5 286.2,283.3 290.2,280.8 291.7,279.8"/>
    <polyline points="291.7,279.8 292.7,279.1 293.4,278.7 294.0,278.4 294.7,278.3 295.5,278.3 296.2,278.5 297.0,278.7 297.8,279.1 298.7,279.6 304.0,282.5 309.4,285.5 317.8,290.3 318.7,290.7 319.5,291.0 320.6,291.3 330.9,293.8 332.4,294.2 333.9,294.7 335.5,295.3 337.3,296.1 339.0,296.9 340.9,297.9 342.8,299.2 344.5,300.4 346.7,302.1 370.9,325.2 372.9,327.1 374.1,328.5 375.0,329.9 375.8,331.2 376.8,333.1 377.8,335.0 378.9,337.1 380.1,339.2 382.0,343.0 383.6,346.3 384.8,348.7 386.4,352.5 387.2,355.1 387.9,358.0 388.4,361.1 388.9,364.7 389.2,368.6 389.3,371.9 389.2,374.8 388.9,377.9 388.4,381.9"/>
    <polyline points="578.2,415.0 576.7,414.2 575.0,412.9 573.4,411.8 572.0,410.6 570.8,409.6 570.3,409.1 569.2,408.1 567.3,406.4 565.1,404.4"/>
    <polyline points="556.6,396.2 557.1,397.1 557.6,397.8 558.2,398.4 558.8,399.2 559.4,399.7 561.8,401.9 564.8,404.6"/>
    <polyline points="572.0,410.6 571.4,409.9 570.9,409.2 570.6,408.6 570.4,408.2 570.1,407.6 569.9,407.3 569.7,407.0 569.4,406.6 566.6,404.1"/>
    <polyline points="566.3,404.4 569.1,407.0 569.5,407.5 569.9,407.9 570.9,409.2"/>
    <polyline points="567.3,406.4 568.2,407.4 569.0,408.4"/>
    <polyline points="569.2,408.1 568.2,407.4 567.1,406.7"/>
    <polyline points="565.1,404.4 562.0,401.6 558.6,398.5 557.8,397.5 557.2,396.7 556.8,396.1"/>
    <polyline points="564.8,404.6 567.1,406.7 569.0,408.4 570.6,409.9 571.3,410.5 572.6,411.6 573.8,412.5 575.1,413.5 576.3,414.4 578.0,415.4"/>
    <polyline points="556.8,396.1 555.6,394.2 554.7,392.3 551.6,385.7 550.9,384.4 549.8,382.9 548.7,381.8 547.5,380.9 545.8,380.0 544.1,379.3 542.4,379.0 541.3,378.9 539.5,378.8 537.7,379.0 535.9,379.3 533.1,380.0 531.6,380.2 530.5,380.3 529.3,380.4 527.7,380.4 526.4,380.2 525.0,380.1 524.4,380.0 523.4,379.7 522.1,379.3 484.6,365.5 482.3,364.9 479.9,364.6 477.5,364.6 475.1,364.8 472.8,365.4 470.8,366.0 468.7,366.9 466.3,368.2 457.3,373.9 455.9,374.8 454.5,376.0 453.1,377.4 452.0,378.9 451.1,380.6 450.4,382.6"/>
    <polyline points="451.2,383.0 452.0,380.9 452.9,378.8 453.9,377.3 455.2,375.9 456.9,374.6 466.6,368.4 468.7,367.2 470.9,366.3 472.9,365.6 475.1,365.1 477.5,364.8 479.8,364.9 482.3,365.2 484.6,365.8 523.3,380.0 525.1,380.4 527.3,380.6 529.3,380.7 531.4,380.5 533.3,380.2 537.0,379.4 539.4,379.1 542.2,379.3 544.0,379.6 545.7,380.2 548.0,381.6 549.9,383.6 551.1,385.4 554.2,392.1 555.2,394.0 556.6,396.2"/>
    <polyline points="109.4,137.9 108.7,137.2 105.4,133.7 104.4,132.7 103.4,131.8"/>
    <polyline points="103.4,131.8 99.9,128.9 95.8,125.5"/>
    <polyline points="95.6,125.9 99.6,129.2 103.1,132.1"/>
    <polyline points="450.4,382.6 448.6,387.9 446.4,393.4 444.2,397.8 441.8,401.6 441.2,402.6 420.1,434.2 418.6,436.3 416.8,438.5 414.8,440.1 412.7,441.2 410.2,442.0 407.7,442.4 404.8,442.5 402.6,442.2 400.0,441.4 397.6,440.3 394.8,438.0 392.4,435.6"/>
    <polyline points="392.4,435.6 383.2,423.2 382.3,421.3 381.6,419.2 381.2,417.1 381.0,415.0 380.9,412.7 381.0,410.2 381.5,407.7 382.4,404.3 387.5,386.7 388.0,384.4 388.4,381.9"/>
    <polyline points="109.2,138.1 111.1,140.1 113.4,142.5 115.5,144.8 117.2,146.7 118.6,148.9 119.8,150.7 120.9,152.5 204.3,291.4 206.2,294.8 207.4,297.0 208.5,299.5 209.8,302.3 215.0,313.6 216.1,315.8 217.3,317.9 218.2,319.4 219.5,321.1 220.7,322.4 222.1,323.4 223.4,324.1 225.0,324.6 226.5,324.7 228.0,324.5 229.6,323.9 231.0,323.2 232.2,322.4 237.6,318.6 244.6,313.9"/>
    <polyline points="244.6,313.9 251.1,309.8 251.5,309.6 266.5,300.4 268.4,299.3 269.3,298.6 270.1,298.0 270.9,297.3 271.6,296.5 274.2,293.4 274.8,292.6 275.6,291.8 276.4,291.0 280.6,287.7 281.9,286.8 283.0,285.9 284.4,284.8 286.4,283.6 290.3,281.1 291.8,280.1"/>
    <polyline points="291.8,280.1 292.8,279.5 293.6,279.3 294.5,279.2 295.4,279.3 295.9,279.5 296.5,279.8 298.1,280.7 303.4,283.7 308.7,286.8 317.3,291.5 318.2,292.0 319.3,292.4 320.2,292.7 330.6,295.2 332.0,295.6 333.5,296.1 335.0,296.6 336.8,297.4 338.5,298.2 340.3,299.2 342.1,300.4 343.8,301.5 345.9,303.2 359.7,316.5 370.1,326.3 371.9,328.1 373.1,329.4 373.9,330.7 374.7,331.9 375.6,333.8 376.6,335.7 377.7,337.8 378.9,339.9 380.8,343.7 382.4,346.9 383.6,349.3 385.2,353.0 385.9,355.5 386.6,358.3 387.1,361.3 387.6,364.9 387.9,368.7 388.0,371.9 387.9,374.7 387.6,377.7 387.1,381.7"/>
    <polyline points="290.2,280.8 288.3,282.2 286.4,283.6"/>
    <polyline points="290.3,281.1 288.3,282.2 286.2,283.3"/>
    <polyline points="388.4,361.1 388.3,363.9 388.2,364.9 387.9,368.7"/>
    <polyline points="387.1,361.3 388.2,364.9 389.2,368.6"/>
    <polyline points="108.7,137.2 106.3,135.2"/>
    <polyline points="274.2,298.2 276.8,299.4 277.5,299.7 278.2,300.1 278.7,300.5 279.3,301.1"/>
    <polyline points="276.8,299.4 275.9,299.1 275.2,299.0 274.7,298.9 273.7,298.9"/>
    <polyline points="297.8,297.6 290.9,300.0 290.3,300.3 290.1,300.3 289.5,300.7 288.8,301.2"/>
    <polyline points="297.7,297.2 290.7,299.6 289.8,299.9 289.1,300.2 289.0,300.2 288.6,300.5 288.1,300.9 287.7,301.3 287.3,301.7"/>
    <polyline points="281.3,303.6 281.8,303.8 282.2,303.8 282.8,303.7 285.6,302.9 286.9,302.5 287.5,302.2 288.1,301.8 288.8,301.2"/>
    <polyline points="287.3,301.7 286.9,302.1 286.5,302.4 285.6,302.9"/>
    <polyline points="279.3,301.1 280.3,302.8 280.5,303.1 280.9,303.4 281.3,303.6"/>
    <polyline points="251.0,311.0 251.9,310.0 252.5,309.5 269.5,299.2 270.6,298.5 271.2,298.2 271.7,298.0 272.2,297.8 272.7,297.7 273.3,297.8 273.8,298.0 274.2,298.2"/>
    <polyline points="273.7,298.9 273.1,298.8 272.5,298.9 271.9,298.9 271.4,299.0 270.8,299.1 270.2,299.3 269.7,299.6 252.7,309.9 251.6,310.6 251.0,311.0 248.6,312.5"/>
    <polyline points="248.6,312.5 245.1,314.6 238.2,319.4 235.5,321.2"/>
    <polyline points="232.2,322.4 235.5,321.2"/>
    <polyline points="248.6,312.5 251.1,309.8"/>
    <polyline points="251.5,309.6 252.9,308.3"/>
    <polyline points="235.5,321.2 233.9,322.4 225.8,328.2"/>
    <polyline points="233.9,322.4 232.8,322.8 231.8,323.3 225.6,327.8"/>
  </g>

  <!-- 지하철 역 -->
  <g>
    <circle cx="303.7" cy="283.1" r="3" fill="#dc2626" stroke="#fff" stroke-width="1"/>
    <circle cx="244.5" cy="313.7" r="3" fill="#dc2626" stroke="#fff" stroke-width="1"/>
    <circle cx="370.5" cy="325.8" r="3" fill="#dc2626" stroke="#fff" stroke-width="1"/>
    <circle cx="441.7" cy="402.5" r="3" fill="#dc2626" stroke="#fff" stroke-width="1"/>
    <circle cx="387.8" cy="381.8" r="3" fill="#dc2626" stroke="#fff" stroke-width="1"/>
    <circle cx="561.9" cy="401.7" r="3" fill="#dc2626" stroke="#fff" stroke-width="1"/>
    <circle cx="99.7" cy="129.1" r="3" fill="#dc2626" stroke="#fff" stroke-width="1"/>
    <circle cx="415.1" cy="440.7" r="3" fill="#dc2626" stroke="#fff" stroke-width="1"/>
  </g>
</svg>