<?xml version="1.0" encoding="UTF-8"?>
<svg width="800" height="600" xmlns="http://www.w3.org/2000/svg">
  <title>Guadalajara Subway Map</title>
  <rect width="100%" height="100%" fill="#f8f9fa"/>

  <!-- 지하철 선로 -->
  <g stroke="#2563eb" stroke-width="2" fill="none" opacity="0.8">
    <polyline points="325.1,318.8 325.6,318.8 329.6,318.7 366.7,317.7 387.0,317.2 402.6,316.9 403.9,317.0 406.1,317.3 408.7,317.8 410.6,318.2 413.2,318.7 419.4,319.9 428.9,322.0 455.9,328.2 457.6,328.6 459.1,328.9 484.7,334.9 499.0,338.0 504.6,339.3 506.5,339.7 508.4,340.2 554.0,351.7 556.5,352.3 558.7,352.9 579.2,358.1 596.4,362.4 606.4,365.0 608.0,365.3 626.3,366.7 634.0,367.6 644.5,368.8 691.3,374.5 692.9,374.6 700.2,374.5 702.0,374.5 703.2,374.7 706.9,375.1 708.6,375.3 721.3,376.9 733.0,378.3 736.9,378.9 738.0,379.1 739.0,379.5 745.7,383.5 748.5,385.2 749.4,385.6 750.7,386.1 751.7,386.4 752.8,386.5 757.4,387.0 757.9,387.1"/>
    <polyline points="756.5,386.8 752.8,386.4 751.8,386.2 750.8,385.9 749.5,385.4 748.7,385.1 740.7,380.2 739.7,379.5 739.2,379.2 738.6,379.0 737.7,378.7 737.0,378.6 728.3,377.4 708.6,375.1 706.9,374.9 703.3,374.4 702.2,374.3 700.9,374.2 699.5,374.2 695.1,374.3 693.4,374.3 692.2,374.2 690.8,374.1 684.1,373.3 680.6,372.9 661.9,370.6 644.5,368.6 636.7,367.6 626.7,366.4 616.7,365.6 608.2,364.9 606.8,364.7 596.5,362.2 569.4,355.2 558.8,352.7 556.6,352.1 554.1,351.5 508.4,340.0 506.6,339.5 504.7,339.1 497.1,337.2 481.2,333.6 475.9,332.4 465.5,330.0 459.2,328.7 457.7,328.4 455.9,328.0 428.9,321.8 419.5,319.7 410.7,318.1 408.7,317.7 406.1,317.2 404.0,316.9 402.6,316.8 400.4,316.8 397.8,316.8 386.9,316.9 366.6,317.4 348.5,318.1 325.6,318.6 325.1,318.6"/>
    <polyline points="324.0,318.7 325.1,318.8"/>
    <polyline points="324.0,318.7 321.4,318.7"/>
    <polyline points="481.8,379.3 486.4,381.6 493.5,385.3 495.7,386.4 497.9,387.6 500.9,389.3 506.5,392.2 513.3,395.8 571.0,425.9 573.1,427.0 575.8,428.4 593.8,437.8 594.8,438.5 595.4,439.0 595.9,439.5 596.7,440.3 597.5,441.2 598.4,442.6 602.6,448.9 605.4,453.0 607.0,455.5 608.7,457.9 610.5,460.6 611.1,461.5 616.6,469.6 620.1,474.7 624.4,481.0 626.2,483.6 628.0,486.0 629.4,487.7 631.0,489.5 632.3,491.2 638.4,498.5 645.4,507.0 650.4,512.9 653.6,516.8 657.6,521.4 663.0,527.8 667.4,533.3 672.2,539.0 674.1,541.0 675.7,542.4 676.6,543.1 677.9,543.9 679.4,544.7 681.6,545.7 684.0,546.5 685.9,547.1 691.9,548.7 704.9,552.1 710.2,553.5 714.1,554.6 715.0,554.8 716.1,555.1 720.0,556.2"/>
    <polyline points="479.5,377.8 474.0,374.9"/>
    <polyline points="449.5,362.6 451.5,363.6 460.1,368.1 465.0,370.7 473.9,375.1"/>
    <polyline points="474.0,374.9 465.2,370.6 460.2,367.9 453.8,364.6 451.6,363.4 449.6,362.4"/>
    <polyline points="473.9,375.1 479.3,378.0"/>
    <polyline points="376.4,333.0 374.8,332.1 373.7,331.0 372.7,329.6 372.3,328.9 372.0,328.0 371.6,326.5 371.5,324.5 371.2,320.9 370.9,316.9 370.8,315.5 370.7,314.1 370.2,307.8 368.9,286.7 368.5,282.7 368.3,278.9 368.2,277.4 367.4,264.6 366.9,258.7 366.8,256.7 366.7,254.7 365.9,244.1 365.5,238.1 365.3,236.5 365.3,236.2 365.0,229.0 364.6,228.3 364.0,227.1 362.7,225.5 361.9,224.8 361.3,224.4"/>
    <polyline points="376.3,333.3 379.2,334.4 383.1,335.8 385.2,336.6 386.5,337.1 389.7,339.0 397.9,341.9 401.1,343.0 405.8,344.6 413.9,347.0 421.0,349.1 428.1,351.2 433.4,352.8 435.2,353.3 436.1,353.6 437.6,354.7 442.5,358.1 446.6,361.0 447.7,361.6 449.5,362.6"/>
    <polyline points="449.6,362.4 448.5,361.8 446.9,360.8 441.9,357.3 437.2,354.0 436.3,353.5 435.5,353.1 434.6,352.8 429.3,351.3 422.6,349.3 414.2,346.8 405.9,344.4 401.2,342.8 398.7,341.9 396.3,341.1 394.6,340.4 389.8,338.8 386.6,336.9 385.3,336.4 383.1,335.6 376.4,333.0"/>
    <polyline points="720.1,556.0 716.2,554.9 714.2,554.4 710.3,553.3 707.6,552.6 692.0,548.5 686.4,546.9 683.9,546.2 681.7,545.5 680.3,544.9 679.2,544.3 677.8,543.5 676.4,542.6 675.6,541.9 674.5,541.0 672.9,539.3 667.7,533.1 665.3,530.3 661.5,525.7 657.9,521.4 653.8,516.7 650.6,512.8 650.5,512.6 645.7,506.9 638.6,498.3 632.6,491.1 631.1,489.4 629.6,487.6 628.2,486.0 626.4,483.6 625.4,482.1 620.3,474.6 615.7,467.8 610.7,460.5 608.9,457.8 607.2,455.4 604.7,451.6 604.0,450.6 598.6,442.5 597.8,441.2 596.9,440.2 596.3,439.5 595.6,438.8 595.0,438.4 593.9,437.6 575.8,428.3 573.2,426.9 571.1,425.8 506.7,392.0 501.1,389.1 498.0,387.5 495.7,386.3 492.2,384.4 486.5,381.4 482.0,379.1"/>
    <polyline points="351.2,219.0 343.3,214.8"/>
    <polyline points="351.0,219.2 359.3,223.5 361.2,224.5 361.8,224.9 362.4,225.6 363.7,227.2 364.3,228.2 364.7,229.0 364.9,236.3 365.0,236.5 365.1,237.9 365.6,244.1 366.3,254.6 366.7,259.3 367.1,264.8 367.3,267.9 367.7,275.4 367.8,276.5 367.8,277.4 367.9,278.8 368.5,286.7 369.9,307.8 370.5,314.1 370.5,315.5 370.6,316.9 370.9,320.9 371.3,326.5 371.6,328.1 372.3,329.8 373.4,331.2 374.5,332.3 376.3,333.3"/>
    <polyline points="279.0,180.4 276.2,178.9 268.8,174.9 258.5,169.5 251.1,165.7 241.6,160.6 219.2,148.6 214.0,145.9 208.0,142.7 202.3,139.7 200.7,138.8 195.4,136.0 188.8,132.5 180.5,128.1 175.7,125.5 165.8,120.3 158.8,116.5 158.5,116.3 157.9,115.9 157.2,115.3 156.3,114.4 155.9,113.8 155.2,112.5 154.2,110.9 153.2,109.3 152.7,108.2 152.3,107.5 151.9,106.8 151.5,105.6 150.8,103.7 150.6,102.7 150.6,101.7 150.7,101.0 151.9,96.9 153.3,92.6 157.4,80.4 157.7,79.6 157.8,79.0 157.8,78.5 157.8,77.9 157.7,77.4 157.4,76.8 156.9,76.1 156.3,75.5 155.3,74.9 154.3,74.5 153.4,74.2 152.4,74.1 147.2,73.8 142.0,73.5 141.9,73.5 137.1,73.2 135.8,73.0 134.5,72.7 133.4,72.1 132.3,71.5 128.6,69.3 124.9,67.0 116.7,62.0 111.0,58.5 99.0,51.3 90.0,45.8 81.1,40.5 76.0,37.3 74.8,36.6 68.5,32.6 66.5,31.4 64.2,30.0"/>
    <polyline points="343.1,214.9 351.0,219.2"/>
    <polyline points="64.1,30.1 66.4,31.5 68.4,32.7 74.6,36.7 79.9,40.0 89.2,45.6 99.2,51.7 111.5,59.1 125.1,67.3 129.9,70.2 132.6,71.9 133.5,72.4 134.5,72.8 135.8,73.2 137.1,73.3 141.9,73.7 146.2,73.9 152.4,74.3 153.4,74.4 154.3,74.7 155.2,75.1 155.9,75.5 156.3,75.9 156.7,76.4 157.2,77.0 157.5,77.7 157.6,78.2 157.6,78.8 157.5,79.4 157.2,80.3 155.4,85.8 153.1,92.5 151.7,96.8 150.8,99.5 150.4,101.0 150.3,101.8 150.3,102.8 150.5,103.8 151.7,106.9 152.0,107.6 153.0,109.3 154.0,110.9 155.0,112.5 155.8,113.9 156.1,114.5 157.0,115.4 157.7,116.0 158.7,116.7 162.9,119.0 175.1,125.5 182.8,129.6 191.0,133.9 199.9,138.6 200.6,139.0 208.0,143.0 212.8,145.5 215.8,147.1 219.1,148.8 233.9,156.7 242.9,161.5 258.4,169.7 264.0,172.6 268.6,175.0 278.8,180.5 278.8,180.5"/>
    <polyline points="280.2,181.0 279.0,180.4"/>
    <polyline points="278.8,180.5 279.5,180.8 280.1,181.2"/>
    <polyline points="337.6,211.7 331.7,208.6 330.3,207.8 326.4,205.7 325.3,205.1 292.6,187.7 284.0,183.1 280.2,181.0"/>
    <polyline points="280.1,181.2 284.0,183.2 291.3,187.2 301.4,192.6 315.8,200.3 326.3,205.9 326.8,206.2 330.1,207.9 331.6,208.7 337.4,211.9"/>
    <polyline points="361.3,224.4 359.3,223.4 351.2,219.0"/>
    <polyline points="214.0,145.9 215.8,147.1"/>
    <polyline points="326.8,206.2 325.3,205.1"/>
    <polyline points="492.2,384.4 493.5,385.3"/>
    <polyline points="604.7,451.6 605.4,453.0"/>
    <polyline points="325.1,318.6 324.0,318.7"/>
    <polyline points="325.1,318.8 323.1,318.9"/>
    <polyline points="324.0,318.7 323.1,318.9"/>
    <polyline points="323.1,318.9 321.4,318.9"/>
    <polyline points="337.4,211.9 343.1,214.9"/>
    <polyline points="343.3,214.8 337.6,211.7"/>
    <polyline points="479.3,378.0 481.8,379.3"/>
    <polyline points="482.0,379.1 479.5,377.8"/>
  </g>

  <!-- 지하철 역 -->
  <g>
    <circle cx="385.2" cy="336.5" r="3" fill="#dc2626" stroke="#fff" stroke-width="1"/>
  </g>
</svg>