<?xml version="1.0" encoding="UTF-8"?>
<svg width="800" height="600" xmlns="http://www.w3.org/2000/svg">
  <title>Guangzhou Subway Map</title>
  <rect width="100%" height="100%" fill="#f8f9fa"/>

  <!-- 지하철 선로 -->
  <g stroke="#2563eb" stroke-width="2" fill="none" opacity="0.8">
    <polyline points="204.4,268.6 204.2,268.7 204.0,268.8 203.8,268.8 203.6,269.0 203.5,269.1 203.3,269.2 203.2,269.3 203.0,269.5 202.8,269.8 202.2,270.5"/>
    <polyline points="240.0,297.5 240.1,295.6 240.2,295.4"/>
    <polyline points="202.2,270.5 202.1,270.6 201.9,270.8 201.7,271.0 201.2,271.4 201.0,271.7 200.8,271.8 200.7,271.9 200.5,272.2 200.2,272.4 200.0,272.6 199.8,272.8 199.7,272.8"/>
    <polyline points="261.8,376.7 261.7,377.3 261.3,378.7 261.2,379.2 260.9,380.3 260.7,381.0 260.4,382.3 260.1,383.3 259.8,384.4 259.6,385.4 259.3,386.4 259.2,386.8 259.1,387.2 259.0,387.6 258.9,387.9 258.9,388.1 258.8,388.4 258.8,388.4 258.7,388.7 258.7,388.9 258.7,389.1 258.7,389.2 258.7,389.4 258.8,389.5 258.8,389.7 258.9,389.9 259.0,390.1 259.1,390.2 259.2,390.4 259.4,390.5 259.5,390.7 259.6,390.8 259.8,391.0 259.9,391.1 260.1,391.2 260.2,391.3 260.5,391.5 260.7,391.6 260.9,391.7 261.2,391.8 261.4,391.9 261.5,391.9 261.8,392.0 262.1,392.1 262.2,392.2 262.4,392.2 262.5,392.2"/>
    <polyline points="365.5,176.8 365.6,177.0 365.6,177.1 365.6,177.2 365.7,177.3 365.7,177.5 365.7,177.6 365.7,177.8 365.8,177.9 365.8,178.2 365.8,178.5 365.8,178.7 365.8,179.0 365.8,179.1 365.8,179.3 365.8,179.5 365.8,180.0 365.8,180.9 365.8,181.4"/>
    <polyline points="369.3,172.7 368.8,172.7 368.5,172.8 368.1,172.8 367.7,172.9 367.4,172.9 367.2,173.0 366.9,173.1 366.7,173.2 366.5,173.3 366.2,173.4 366.1,173.5 365.8,173.7 365.6,173.9 365.5,174.0 365.4,174.1 365.3,174.3 365.3,174.4 365.2,174.5 365.2,174.7 365.1,174.9"/>
    <polyline points="574.3,306.8 574.4,307.2 574.5,307.7 574.6,308.5 574.8,309.2 574.9,309.7"/>
    <polyline points="601.6,449.5 601.9,450.2 602.0,450.4 602.1,450.7 602.2,451.0 602.3,451.3 602.5,451.8 602.9,452.6 603.5,454.0 604.0,455.1"/>
    <polyline points="605.3,458.0 605.8,459.0 605.9,459.3 606.0,459.4 606.4,460.2"/>
    <polyline points="601.6,450.9 601.5,451.0 601.5,451.1 601.3,451.2 601.2,451.3 600.9,451.5 599.5,452.6 598.8,453.2 598.3,453.5"/>
    <polyline points="598.7,453.5 598.1,454.0 597.6,454.4 597.0,454.9 596.0,455.7 595.7,456.0 595.4,456.2 595.1,456.4 594.7,456.7 594.3,456.9 593.5,457.5 591.8,458.6 591.1,459.1 588.9,460.5 587.9,461.1"/>
    <polyline points="588.9,460.0 589.5,459.5 589.9,459.2 590.7,458.7 594.0,456.5 594.0,456.5 595.0,455.8 595.6,455.4 595.7,455.4 597.2,454.4 597.5,454.2 598.0,453.9 598.4,453.6"/>
    <polyline points="606.4,460.2 606.5,460.4 606.6,460.6 606.8,461.0 607.3,462.1 607.6,462.8 608.0,463.7 608.6,465.1 609.1,466.1 609.8,467.8 610.1,468.6 610.2,468.8 610.3,469.1 610.5,469.4 610.8,470.1 611.0,470.6 611.2,471.1 611.4,471.6 611.7,472.1 612.3,473.5 612.4,473.6 612.5,473.8 612.6,473.9 612.7,474.1 612.8,474.3 612.9,474.4 613.1,474.6 613.2,474.8 613.4,475.0 613.6,475.2 613.9,475.5 614.1,475.7 614.3,475.9 614.5,476.0 614.7,476.2 614.8,476.3 615.0,476.4 615.1,476.6 615.3,476.8 615.8,477.1 616.2,477.3 616.6,477.6 616.9,477.8 617.2,478.0 617.5,478.1 617.9,478.3 618.4,478.6 618.8,478.8 619.2,478.9 619.7,479.2 620.3,479.4 621.4,479.9 623.3,480.6 623.8,480.9 624.6,481.2 625.4,481.6 625.9,481.8 626.2,481.9 626.6,482.1 627.1,482.4 627.6,482.6 628.0,482.9 628.2,483.0 628.3,483.1 628.5,483.2 628.7,483.3 629.3,483.8 629.6,483.9 629.7,484.1 630.0,484.3 630.9,485.0 631.1,485.2 631.5,485.5 633.3,486.9 633.9,487.5 637.5,490.4"/>
    <polyline points="653.5,504.3 654.0,505.0 654.4,505.5 654.6,505.7 654.8,506.0 655.0,506.3 655.3,506.6 655.5,506.8 655.6,507.0 655.7,507.1 656.0,507.4 656.3,507.9 656.5,508.1 656.9,508.6 657.1,508.8 657.3,509.1 657.5,509.3"/>
    <polyline points="222.5,332.3 223.6,331.3 223.7,331.2 224.2,330.6"/>
    <polyline points="196.8,274.2 198.3,272.8 199.7,271.5 201.2,270.1"/>
    <polyline points="201.2,270.1 204.4,266.8"/>
    <polyline points="200.0,272.0 199.8,272.1 199.6,272.2 199.3,272.2 199.2,272.3 199.0,272.3 199.0,272.4 198.8,272.4 198.8,272.5 198.6,272.6 198.3,272.8"/>
    <polyline points="601.9,346.5 601.6,346.6 601.3,346.6 601.1,346.6 601.0,346.6 600.8,346.6 600.5,346.6 600.3,346.6 600.0,346.5"/>
    <polyline points="613.6,341.3 612.4,341.6 611.6,341.8 611.2,341.9 610.5,342.1 609.5,342.4 609.0,342.5 608.4,342.7 606.9,343.1 605.4,343.5 604.7,343.7 604.3,343.8 603.9,343.9 603.6,344.0 603.3,344.1 602.9,344.2 602.6,344.3 602.3,344.5 602.1,344.6"/>
    <polyline points="606.9,343.1 606.7,343.1 606.5,343.2 606.4,343.3 606.3,343.3 606.3,343.4 606.2,343.4 606.2,343.4 606.2,343.5 606.1,343.5 606.1,343.6 606.1,343.7 606.0,343.9 606.0,344.0 605.9,344.2 605.9,344.3 605.9,344.4 605.9,344.4 605.8,344.5 605.8,344.5 605.8,344.6 605.7,344.7 605.6,344.7 605.6,344.8 605.5,344.9"/>
    <polyline points="611.3,342.8 607.0,343.9 606.8,344.0 606.8,344.0 606.7,344.0 606.5,344.1 606.4,344.2 606.3,344.3 606.2,344.4 606.1,344.5 606.1,344.6 606.0,344.6 605.9,344.7 605.8,344.8 605.7,344.9 605.6,344.9 605.5,345.0 605.4,345.0 605.3,345.1 605.2,345.1 605.1,345.2 604.9,345.3"/>
    <polyline points="601.9,346.5 602.2,346.4 602.5,346.2 602.9,346.0 603.2,345.8 603.4,345.7 603.7,345.6"/>
    <polyline points="618.4,342.9 614.5,343.9 614.4,343.9 614.4,343.9 614.2,344.0 614.1,344.0 614.0,344.0 613.8,344.0 613.7,343.9 613.5,343.9 613.3,343.9"/>
    <polyline points="606.5,345.0 606.7,345.0 607.2,344.9 607.5,344.9 608.4,344.7 608.9,344.6 608.9,344.6 610.1,344.3 611.5,343.9"/>
    <polyline points="603.1,346.9 603.2,347.1 603.4,347.3 603.5,347.3 603.6,347.4 603.7,347.4 603.8,347.5"/>
    <polyline points="260.2,385.0 260.3,385.2 260.3,385.4 260.3,385.6 260.4,385.7 260.4,385.9 260.5,386.0 260.6,386.1 260.7,386.3 260.8,386.5 261.0,386.7 261.2,387.1 262.7,390.2"/>
    <polyline points="262.2,379.1 262.0,379.2 261.8,379.4 261.7,379.5 261.5,379.7 261.4,379.8 261.2,380.0 261.1,380.2 261.1,380.3 261.0,380.4 261.0,380.6 260.9,380.7 260.8,381.1 260.7,381.6 260.5,382.3 260.4,382.8 260.3,383.0 260.3,383.2 260.3,383.3 260.3,383.5 260.3,383.7 260.2,384.1 260.2,384.4 260.2,384.7 260.2,385.0 260.2,385.1 260.2,385.1 260.2,385.2 260.3,385.7 260.3,385.8 260.3,386.0 260.4,386.2 260.5,386.5 260.8,387.0"/>
    <polyline points="263.4,389.3 263.3,389.1 263.2,388.8"/>
    <polyline points="259.8,385.4 260.0,384.8 260.0,384.5 260.2,384.1 260.3,383.7"/>
    <polyline points="260.4,383.9 260.4,384.0 260.2,384.7"/>
    <polyline points="260.1,384.5 260.2,384.4 260.4,384.0"/>
    <polyline points="261.7,379.5 261.6,379.6 261.5,379.8 261.5,379.8 261.3,380.0 261.3,380.1 261.2,380.3 261.1,380.5 261.0,380.7 261.0,380.8 260.8,381.7 260.6,382.4 260.5,382.9 260.5,383.1 260.4,383.3 260.4,383.7 260.4,383.9 260.4,384.2 260.4,384.4 260.4,384.6 260.5,384.7 260.6,384.9 260.9,385.3 261.0,385.4 261.1,385.6 261.3,385.8 261.3,385.8 261.4,385.9 261.6,386.2 261.6,386.3 261.7,386.4 261.9,386.7 262.1,387.0 262.3,387.2 262.4,387.4 262.5,387.5 262.6,387.7 262.7,388.0 263.0,388.5 263.1,388.8 263.2,388.8 263.3,389.1 263.3,389.2 263.4,389.3"/>
    <polyline points="263.2,388.8 263.3,389.1 263.5,389.3"/>
    <polyline points="262.7,387.7 262.6,387.5 262.5,387.3"/>
    <polyline points="264.7,376.2 264.6,376.5 264.6,376.6 264.5,376.7 264.4,376.8 264.3,377.0 264.2,377.2 264.1,377.3 264.0,377.4 263.9,377.6 263.8,377.7 263.8,377.8 263.8,377.8 263.7,377.9 263.7,378.1 263.6,378.2 263.6,378.3 263.6,378.4 263.5,378.5 263.5,378.6 263.5,378.9 263.5,379.0 263.4,379.1 263.4,379.2 263.3,379.6 262.0,384.6 261.9,384.8 261.9,384.9 261.8,385.0 261.8,385.1 261.7,385.2"/>
    <polyline points="263.0,388.0 263.2,388.6"/>
    <polyline points="262.4,387.3 262.6,387.5 262.8,387.7"/>
    <polyline points="264.7,376.0 264.6,376.3 264.5,376.4 264.5,376.6 264.3,377.0"/>
    <polyline points="260.3,385.2 260.4,385.5 260.4,385.6 260.5,385.7 260.6,385.8 260.7,386.0 260.9,386.1 261.1,386.3 261.2,386.4 261.3,386.6 261.4,386.7 261.5,386.9 261.6,387.1 263.1,390.1"/>
    <polyline points="259.2,389.7 259.6,390.4 259.7,390.6 259.8,390.8 259.9,390.9 260.1,391.1 260.2,391.2 260.4,391.3 260.5,391.4 260.7,391.5 260.9,391.6 261.2,391.8"/>
    <polyline points="199.2,272.2 200.5,271.7 200.7,271.6 200.8,271.6 201.0,271.5 201.1,271.4"/>
    <polyline points="200.7,271.9 200.4,272.3 200.3,272.5 200.2,272.7 200.1,272.8 200.1,272.9 200.0,272.9"/>
    <polyline points="200.2,272.2 199.9,272.3 199.7,272.4 199.6,272.4 199.5,272.6 199.4,272.6 199.4,272.7"/>
    <polyline points="200.7,272.3 200.6,272.6 200.5,272.7 200.4,272.8 200.3,272.9 200.3,273.0 200.2,273.0"/>
    <polyline points="200.1,272.1 199.9,272.2 199.8,272.2 199.6,272.3 199.5,272.3 199.5,272.4 199.4,272.5 199.3,272.6 199.3,272.6"/>
    <polyline points="201.4,270.9 202.1,270.3"/>
    <polyline points="200.3,272.5 200.2,272.5 200.1,272.6 200.0,272.7 200.0,272.7 199.9,272.8 199.8,272.8"/>
    <polyline points="201.4,271.2 201.2,271.4"/>
    <polyline points="200.4,272.3 200.3,272.5 200.0,272.8 199.9,272.8 199.9,272.9"/>
    <polyline points="201.0,271.7 200.9,271.8 200.8,272.0 200.7,272.3 200.6,272.6 200.6,272.7 200.6,272.8 200.5,272.9 200.4,273.0 200.4,273.0 200.3,273.1"/>
    <polyline points="200.8,272.5 200.8,272.6 200.7,272.7 200.7,272.8 200.5,273.0 200.5,273.0 200.4,273.1"/>
    <polyline points="202.1,270.3 201.8,270.8"/>
    <polyline points="200.3,272.5 200.1,272.8 200.0,272.8 199.9,272.9"/>
    <polyline points="200.1,272.4 199.8,272.7 199.7,272.7 199.7,272.8"/>
    <polyline points="201.9,270.8 201.7,271.2 201.7,271.3 201.7,271.4 201.6,272.0 201.6,272.2 201.6,272.3 201.5,272.5 201.5,272.6 201.4,272.7 201.3,272.9 201.2,273.0 200.9,273.2 200.9,273.3 200.9,273.3"/>
    <polyline points="199.8,274.2 200.8,273.3"/>
    <polyline points="200.5,272.0 200.1,272.1 199.8,272.3 199.7,272.3 199.5,272.4 199.4,272.5 199.4,272.6 199.3,272.6"/>
    <polyline points="197.5,274.1 199.1,272.6"/>
    <polyline points="200.8,272.0 200.8,272.1 200.8,272.2 200.8,272.2 200.8,272.5 200.8,272.6 200.8,272.7 200.8,272.8 200.8,272.9 200.7,273.0 200.6,273.1 200.6,273.1 200.5,273.1"/>
    <polyline points="200.5,272.2 200.1,272.4 199.9,272.5 199.8,272.6 199.7,272.7 199.7,272.7 199.6,272.8"/>
    <polyline points="200.6,272.6 200.4,272.7 200.2,272.9 200.2,273.0"/>
    <polyline points="202.2,270.5 201.8,270.8 201.6,271.0 201.4,271.2 201.1,271.4 201.0,271.5 200.9,271.6 200.7,271.8 200.5,272.0 200.2,272.2 200.0,272.3 199.9,272.4 199.7,272.5 199.6,272.5 199.5,272.6 199.4,272.7"/>
    <polyline points="202.1,270.6 201.9,270.8 201.7,271.2 201.6,271.3 201.6,271.3 201.6,271.4 201.5,271.5 201.3,272.5"/>
    <polyline points="199.9,272.4 199.6,272.6 199.6,272.7 199.5,272.7"/>
    <polyline points="200.8,272.2 200.9,272.4 200.9,272.5 200.9,272.6 200.9,272.8 200.9,272.9 200.9,273.0 200.7,273.1 200.7,273.1 200.7,273.2"/>
    <polyline points="201.6,271.0 201.9,270.8"/>
    <polyline points="202.2,270.5 202.7,270.0 202.9,269.8 203.1,269.5 203.3,269.4 203.4,269.2 203.6,269.1 203.7,269.0 203.8,268.9 204.0,268.8 204.2,268.7 204.5,268.6"/>
    <polyline points="204.5,268.6 204.6,268.6 204.7,268.6 204.9,268.5 205.1,268.5 205.2,268.4 205.4,268.4 205.6,268.4 205.8,268.4 205.9,268.4 206.1,268.4 206.3,268.4 206.5,268.5 206.6,268.5 206.8,268.5 207.0,268.6 207.1,268.6 207.3,268.7 207.4,268.7 207.5,268.8 207.7,268.9 207.8,269.0 207.9,269.1 208.1,269.2"/>
    <polyline points="366.1,178.2 366.2,179.6 366.2,179.7 366.2,179.9 366.2,180.0 366.2,180.7 366.2,181.4"/>
    <polyline points="371.8,172.5 373.0,172.3 373.3,172.3 373.6,172.2 373.8,172.2 374.0,172.1 374.1,172.1 374.3,172.0 374.5,171.9 374.7,171.8 375.2,171.4"/>
    <polyline points="366.6,172.8 366.9,172.7 367.1,172.7 367.3,172.6 367.6,172.6 367.8,172.5 368.1,172.5 368.4,172.5 369.0,172.5 370.3,172.4 372.3,172.4 373.0,172.3"/>
    <polyline points="369.6,172.6 370.0,172.6 370.3,172.6"/>
    <polyline points="368.5,172.8 369.7,172.7 370.3,172.7 370.5,172.7 370.6,172.7 371.5,172.6 371.8,172.6 372.8,172.6 373.4,172.6 373.9,172.6 374.1,172.5 374.3,172.6 374.5,172.6 374.9,172.6 375.3,172.7 375.4,172.7 376.0,172.8 376.2,172.8 376.4,172.8 376.6,172.9 376.8,172.9 377.0,172.9 377.2,172.9 377.3,172.8 377.4,172.8"/>
    <polyline points="369.0,172.5 369.5,172.5 370.0,172.5 370.3,172.5"/>
    <polyline points="365.2,174.9 365.3,174.6 365.3,174.5 365.4,174.4 365.4,174.3 365.5,174.2 365.6,174.1 365.7,174.0 366.0,173.7 366.2,173.5 366.4,173.4 366.6,173.3 366.7,173.3 366.9,173.2 367.2,173.1 367.4,173.0 367.6,173.0 367.9,172.9 368.3,172.9 369.7,172.7"/>
    <polyline points="373.5,172.4 372.6,172.4 371.8,172.5 371.4,172.5 370.5,172.5 370.3,172.5 369.7,172.6 368.4,172.6 368.1,172.6 367.9,172.6 367.6,172.7 367.3,172.7 367.1,172.8 366.8,172.8 366.6,172.9 366.3,173.0 365.8,173.2 365.6,173.3 365.5,173.4 365.3,173.5 365.2,173.6 365.1,173.7 365.0,173.8 365.0,173.9 364.9,174.0 364.8,174.1 364.8,174.1 364.8,174.3 364.7,174.4 364.7,174.6 364.7,174.7 364.7,174.9 364.7,175.1 364.8,175.8 364.8,176.7"/>
    <polyline points="373.8,172.4 374.2,172.3 374.5,172.2 374.7,172.2 374.9,172.1 375.4,171.9 375.6,171.8 375.9,171.6 376.1,171.6 376.3,171.5 376.4,171.4 376.6,171.4 376.9,171.4 377.1,171.3 377.3,171.3 377.7,171.3 377.8,171.3 377.9,171.3"/>
    <polyline points="369.1,172.9 373.0,172.7"/>
    <polyline points="372.9,172.5 373.5,172.4 373.8,172.4 374.4,172.3 374.6,172.3 374.9,172.2 375.1,172.2 375.3,172.1 375.5,172.0 375.8,171.9 376.1,171.7 376.3,171.6 376.4,171.6 376.6,171.5 376.8,171.5 377.0,171.5 377.2,171.5 377.4,171.4 377.7,171.4 377.8,171.4 378.0,171.4"/>
    <polyline points="370.3,172.6 370.0,172.6 369.7,172.6"/>
    <polyline points="366.2,173.6 366.4,173.5 366.6,173.4 366.8,173.3 367.0,173.2 367.2,173.2 367.5,173.1 367.7,173.0 368.0,173.0 368.4,172.9 369.1,172.9 370.3,172.7"/>
    <polyline points="371.8,172.6 373.0,172.7 373.3,172.7 373.6,172.7 373.8,172.8 374.0,172.8 374.2,172.9 375.6,173.4"/>
    <polyline points="372.0,170.5 378.7,170.3 384.1,170.1"/>
    <polyline points="376.5,170.5 375.4,171.4 375.1,171.7 375.0,171.8 374.9,171.8 374.9,171.9 374.8,171.9 374.7,172.0 374.6,172.0 374.5,172.1 374.4,172.1 374.3,172.1 374.2,172.2 373.7,172.2 373.3,172.3"/>
    <polyline points="373.7,172.2 374.1,172.1 374.3,172.1 374.4,172.0 374.6,172.0 374.7,171.9 374.8,171.8 374.9,171.8 375.0,171.7 375.2,171.5 375.3,171.4"/>
    <polyline points="375.6,171.8 376.6,171.5 376.7,171.5 376.9,171.4 377.0,171.4 377.2,171.4 377.4,171.4 377.8,171.4 377.9,171.4"/>
    <polyline points="372.6,172.4 373.3,172.3 373.6,172.3 373.8,172.3 374.0,172.2 374.2,172.2 374.4,172.2 374.5,172.1 374.7,172.1 374.8,172.0 374.9,172.0 375.0,171.9 375.2,171.8 375.3,171.7 375.6,171.6 375.8,171.5 376.2,171.2 376.5,171.0 376.6,171.0 376.7,170.9 376.9,170.8 377.0,170.8 377.2,170.7 377.3,170.7 377.5,170.6 377.7,170.6 377.7,170.6 377.8,170.6 378.0,170.6 378.1,170.6 378.3,170.6 379.2,170.5"/>
    <polyline points="378.7,170.3 378.1,170.3 377.9,170.4 377.7,170.4 377.6,170.4 377.5,170.4 377.4,170.5 377.2,170.5 377.1,170.6 376.9,170.6 376.8,170.7 376.7,170.7 376.6,170.8 376.5,170.9 376.4,171.0 375.8,171.5"/>
    <polyline points="379.6,170.7 380.2,170.8 380.3,170.8 380.5,170.8 380.7,170.8 380.8,170.8 380.9,170.8 381.0,170.8"/>
    <polyline points="379.6,170.6 380.2,170.5 380.4,170.4 380.6,170.4 380.8,170.4 380.8,170.4 381.0,170.4"/>
    <polyline points="379.6,170.6 380.3,170.7 380.5,170.7 380.6,170.7 380.8,170.7 380.9,170.7 381.0,170.7"/>
    <polyline points="378.7,170.7 379.6,170.7 380.1,170.7 380.3,170.8 380.5,170.8 380.8,170.7 380.9,170.7 381.0,170.7"/>
    <polyline points="379.1,170.7 379.6,170.6 380.0,170.5 380.2,170.5 380.4,170.5 380.5,170.5 380.7,170.5 380.9,170.5 381.0,170.5"/>
    <polyline points="375.2,172.3 376.1,172.3 377.9,172.2 378.0,172.2"/>
    <polyline points="605.5,457.9 605.7,458.4 605.9,458.8 606.1,459.4 606.2,459.6 606.5,460.2"/>
    <polyline points="598.4,453.4 597.9,453.7 597.6,453.9 596.8,454.5 596.0,455.0 595.7,455.2 595.5,455.4 595.3,455.5 595.1,455.5 595.0,455.6 594.8,455.6 594.6,455.7 594.4,455.7 594.1,455.7 593.9,455.8 593.4,455.8 593.2,455.9 593.0,455.9 592.9,456.0 592.7,456.1 592.5,456.2 589.7,458.1 589.6,458.1 589.5,458.2 589.4,458.3 589.4,458.4 589.3,458.5 589.3,458.6 589.3,458.7 589.3,458.9"/>
    <polyline points="602.5,452.2 602.6,452.2 602.7,452.3 602.8,452.4 602.9,452.4 603.0,452.5 603.0,452.6 603.1,452.7 603.1,452.8 603.2,452.9 604.1,455.1 604.6,456.1"/>
    <polyline points="604.0,455.1 604.5,456.2 605.1,457.6 605.3,458.0"/>
    <polyline points="604.2,455.1 603.6,453.7 603.1,452.5 602.5,451.2 602.3,450.7 602.2,450.4 602.1,450.1 602.0,449.9 601.9,449.7 601.8,449.5"/>
  </g>

  <!-- 지하철 역 -->
  <g>
    <circle cx="279.1" cy="337.7" r="3" fill="#dc2626" stroke="#fff" stroke-width="1"/>
    <circle cx="320.2" cy="309.6" r="3" fill="#dc2626" stroke="#fff" stroke-width="1"/>
    <circle cx="308.9" cy="277.7" r="3" fill="#dc2626" stroke="#fff" stroke-width="1"/>
    <circle cx="71.0" cy="436.9" r="3" fill="#dc2626" stroke="#fff" stroke-width="1"/>
    <circle cx="463.3" cy="263.1" r="3" fill="#dc2626" stroke="#fff" stroke-width="1"/>
    <circle cx="347.2" cy="477.1" r="3" fill="#dc2626" stroke="#fff" stroke-width="1"/>
    <circle cx="366.0" cy="330.9" r="3" fill="#dc2626" stroke="#fff" stroke-width="1"/>
    <circle cx="621.6" cy="241.8" r="3" fill="#dc2626" stroke="#fff" stroke-width="1"/>
    <circle cx="422.7" cy="325.5" r="3" fill="#dc2626" stroke="#fff" stroke-width="1"/>
    <circle cx="359.3" cy="316.6" r="3" fill="#dc2626" stroke="#fff" stroke-width="1"/>
    <circle cx="338.8" cy="352.2" r="3" fill="#dc2626" stroke="#fff" stroke-width="1"/>
    <circle cx="422.1" cy="276.7" r="3" fill="#dc2626" stroke="#fff" stroke-width="1"/>
    <circle cx="501.1" cy="240.3" r="3" fill="#dc2626" stroke="#fff" stroke-width="1"/>
    <circle cx="384.6" cy="299.2" r="3" fill="#dc2626" stroke="#fff" stroke-width="1"/>
    <circle cx="441.8" cy="308.9" r="3" fill="#dc2626" stroke="#fff" stroke-width="1"/>
    <circle cx="103.4" cy="432.1" r="3" fill="#dc2626" stroke="#fff" stroke-width="1"/>
    <circle cx="57.1" cy="512.5" r="3" fill="#dc2626" stroke="#fff" stroke-width="1"/>
    <circle cx="344.0" cy="360.5" r="3" fill="#dc2626" stroke="#fff" stroke-width="1"/>
    <circle cx="410.4" cy="324.9" r="3" fill="#dc2626" stroke="#fff" stroke-width="1"/>
    <circle cx="125.8" cy="428.9" r="3" fill="#dc2626" stroke="#fff" stroke-width="1"/>
    <circle cx="321.6" cy="318.1" r="3" fill="#dc2626" stroke="#fff" stroke-width="1"/>
    <circle cx="238.4" cy="305.7" r="3" fill="#dc2626" stroke="#fff" stroke-width="1"/>
    <circle cx="239.8" cy="318.4" r="3" fill="#dc2626" stroke="#fff" stroke-width="1"/>
    <circle cx="227.7" cy="285.5" r="3" fill="#dc2626" stroke="#fff" stroke-width="1"/>
    <circle cx="210.8" cy="271.3" r="3" fill="#dc2626" stroke="#fff" stroke-width="1"/>
    <circle cx="219.4" cy="278.4" r="3" fill="#dc2626" stroke="#fff" stroke-width="1"/>
    <circle cx="262.7" cy="330.6" r="3" fill="#dc2626" stroke="#fff" stroke-width="1"/>
    <circle cx="309.6" cy="333.4" r="3" fill="#dc2626" stroke="#fff" stroke-width="1"/>
    <circle cx="264.4" cy="390.3" r="3" fill="#dc2626" stroke="#fff" stroke-width="1"/>
    <circle cx="265.2" cy="374.4" r="3" fill="#dc2626" stroke="#fff" stroke-width="1"/>
    <circle cx="268.0" cy="364.6" r="3" fill="#dc2626" stroke="#fff" stroke-width="1"/>
    <circle cx="271.3" cy="350.6" r="3" fill="#dc2626" stroke="#fff" stroke-width="1"/>
    <circle cx="282.2" cy="326.6" r="3" fill="#dc2626" stroke="#fff" stroke-width="1"/>
    <circle cx="290.5" cy="317.3" r="3" fill="#dc2626" stroke="#fff" stroke-width="1"/>
    <circle cx="306.5" cy="318.3" r="3" fill="#dc2626" stroke="#fff" stroke-width="1"/>
    <circle cx="341.7" cy="316.8" r="3" fill="#dc2626" stroke="#fff" stroke-width="1"/>
    <circle cx="435.3" cy="306.8" r="3" fill="#dc2626" stroke="#fff" stroke-width="1"/>
    <circle cx="331.7" cy="483.6" r="3" fill="#dc2626" stroke="#fff" stroke-width="1"/>
    <circle cx="373.7" cy="429.7" r="3" fill="#dc2626" stroke="#fff" stroke-width="1"/>
    <circle cx="382.8" cy="418.0" r="3" fill="#dc2626" stroke="#fff" stroke-width="1"/>
    <circle cx="374.7" cy="383.8" r="3" fill="#dc2626" stroke="#fff" stroke-width="1"/>
    <circle cx="350.4" cy="370.7" r="3" fill="#dc2626" stroke="#fff" stroke-width="1"/>
    <circle cx="332.0" cy="341.5" r="3" fill="#dc2626" stroke="#fff" stroke-width="1"/>
    <circle cx="316.6" cy="300.7" r="3" fill="#dc2626" stroke="#fff" stroke-width="1"/>
    <circle cx="320.5" cy="265.6" r="3" fill="#dc2626" stroke="#fff" stroke-width="1"/>
    <circle cx="333.5" cy="249.9" r="3" fill="#dc2626" stroke="#fff" stroke-width="1"/>
    <circle cx="341.7" cy="240.0" r="3" fill="#dc2626" stroke="#fff" stroke-width="1"/>
    <circle cx="350.7" cy="229.1" r="3" fill="#dc2626" stroke="#fff" stroke-width="1"/>
    <circle cx="355.4" cy="213.9" r="3" fill="#dc2626" stroke="#fff" stroke-width="1"/>
    <circle cx="362.5" cy="201.3" r="3" fill="#dc2626" stroke="#fff" stroke-width="1"/>
    <circle cx="365.8" cy="182.4" r="3" fill="#dc2626" stroke="#fff" stroke-width="1"/>
    <circle cx="494.7" cy="531.8" r="3" fill="#dc2626" stroke="#fff" stroke-width="1"/>
    <circle cx="423.7" cy="448.7" r="3" fill="#dc2626" stroke="#fff" stroke-width="1"/>
    <circle cx="421.9" cy="424.2" r="3" fill="#dc2626" stroke="#fff" stroke-width="1"/>
    <circle cx="424.4" cy="375.8" r="3" fill="#dc2626" stroke="#fff" stroke-width="1"/>
    <circle cx="421.1" cy="353.4" r="3" fill="#dc2626" stroke="#fff" stroke-width="1"/>
    <circle cx="426.6" cy="341.2" r="3" fill="#dc2626" stroke="#fff" stroke-width="1"/>
    <circle cx="427.4" cy="298.9" r="3" fill="#dc2626" stroke="#fff" stroke-width="1"/>
    <circle cx="455.3" cy="306.7" r="3" fill="#dc2626" stroke="#fff" stroke-width="1"/>
    <circle cx="464.7" cy="300.5" r="3" fill="#dc2626" stroke="#fff" stroke-width="1"/>
    <circle cx="477.2" cy="284.8" r="3" fill="#dc2626" stroke="#fff" stroke-width="1"/>
    <circle cx="432.9" cy="276.0" r="3" fill="#dc2626" stroke="#fff" stroke-width="1"/>
    <circle cx="431.8" cy="231.3" r="3" fill="#dc2626" stroke="#fff" stroke-width="1"/>
    <circle cx="421.4" cy="257.8" r="3" fill="#dc2626" stroke="#fff" stroke-width="1"/>
    <circle cx="431.1" cy="245.7" r="3" fill="#dc2626" stroke="#fff" stroke-width="1"/>
    <circle cx="396.1" cy="203.5" r="3" fill="#dc2626" stroke="#fff" stroke-width="1"/>
    <circle cx="380.5" cy="200.8" r="3" fill="#dc2626" stroke="#fff" stroke-width="1"/>
    <circle cx="385.9" cy="119.5" r="3" fill="#dc2626" stroke="#fff" stroke-width="1"/>
    <circle cx="377.3" cy="63.1" r="3" fill="#dc2626" stroke="#fff" stroke-width="1"/>
    <circle cx="696.6" cy="543.6" r="3" fill="#dc2626" stroke="#fff" stroke-width="1"/>
    <circle cx="537.6" cy="400.4" r="3" fill="#dc2626" stroke="#fff" stroke-width="1"/>
    <circle cx="521.3" cy="389.1" r="3" fill="#dc2626" stroke="#fff" stroke-width="1"/>
    <circle cx="535.1" cy="351.9" r="3" fill="#dc2626" stroke="#fff" stroke-width="1"/>
    <circle cx="554.6" cy="319.7" r="3" fill="#dc2626" stroke="#fff" stroke-width="1"/>
    <circle cx="574.7" cy="309.5" r="3" fill="#dc2626" stroke="#fff" stroke-width="1"/>
    <circle cx="222.4" cy="332.3" r="3" fill="#dc2626" stroke="#fff" stroke-width="1"/>
    <circle cx="266.3" cy="317.1" r="3" fill="#dc2626" stroke="#fff" stroke-width="1"/>
    <circle cx="275.2" cy="303.7" r="3" fill="#dc2626" stroke="#fff" stroke-width="1"/>
    <circle cx="281.8" cy="298.3" r="3" fill="#dc2626" stroke="#fff" stroke-width="1"/>
    <circle cx="343.9" cy="301.0" r="3" fill="#dc2626" stroke="#fff" stroke-width="1"/>
    <circle cx="361.2" cy="304.7" r="3" fill="#dc2626" stroke="#fff" stroke-width="1"/>
    <circle cx="379.8" cy="307.2" r="3" fill="#dc2626" stroke="#fff" stroke-width="1"/>
    <circle cx="397.9" cy="306.8" r="3" fill="#dc2626" stroke="#fff" stroke-width="1"/>
    <circle cx="399.3" cy="315.7" r="3" fill="#dc2626" stroke="#fff" stroke-width="1"/>
    <circle cx="442.9" cy="326.9" r="3" fill="#dc2626" stroke="#fff" stroke-width="1"/>
    <circle cx="466.5" cy="327.8" r="3" fill="#dc2626" stroke="#fff" stroke-width="1"/>
    <circle cx="498.1" cy="330.7" r="3" fill="#dc2626" stroke="#fff" stroke-width="1"/>
    <circle cx="522.3" cy="326.0" r="3" fill="#dc2626" stroke="#fff" stroke-width="1"/>
    <circle cx="565.6" cy="338.0" r="3" fill="#dc2626" stroke="#fff" stroke-width="1"/>
    <circle cx="590.8" cy="344.1" r="3" fill="#dc2626" stroke="#fff" stroke-width="1"/>
    <circle cx="620.0" cy="348.8" r="3" fill="#dc2626" stroke="#fff" stroke-width="1"/>
    <circle cx="644.7" cy="345.0" r="3" fill="#dc2626" stroke="#fff" stroke-width="1"/>
    <circle cx="664.8" cy="341.5" r="3" fill="#dc2626" stroke="#fff" stroke-width="1"/>
    <circle cx="685.2" cy="344.6" r="3" fill="#dc2626" stroke="#fff" stroke-width="1"/>
    <circle cx="332.5" cy="325.9" r="3" fill="#dc2626" stroke="#fff" stroke-width="1"/>
    <circle cx="346.3" cy="326.7" r="3" fill="#dc2626" stroke="#fff" stroke-width="1"/>
    <circle cx="397.1" cy="291.7" r="3" fill="#dc2626" stroke="#fff" stroke-width="1"/>
    <circle cx="473.2" cy="253.9" r="3" fill="#dc2626" stroke="#fff" stroke-width="1"/>
    <circle cx="522.7" cy="238.8" r="3" fill="#dc2626" stroke="#fff" stroke-width="1"/>
    <circle cx="556.1" cy="235.8" r="3" fill="#dc2626" stroke="#fff" stroke-width="1"/>
    <circle cx="669.6" cy="261.3" r="3" fill="#dc2626" stroke="#fff" stroke-width="1"/>
    <circle cx="653.4" cy="250.5" r="3" fill="#dc2626" stroke="#fff" stroke-width="1"/>
    <circle cx="708.3" cy="256.9" r="3" fill="#dc2626" stroke="#fff" stroke-width="1"/>
    <circle cx="742.8" cy="261.1" r="3" fill="#dc2626" stroke="#fff" stroke-width="1"/>
    <circle cx="563.0" cy="417.6" r="3" fill="#dc2626" stroke="#fff" stroke-width="1"/>
    <circle cx="590.2" cy="436.0" r="3" fill="#dc2626" stroke="#fff" stroke-width="1"/>
    <circle cx="678.6" cy="522.3" r="3" fill="#dc2626" stroke="#fff" stroke-width="1"/>
    <circle cx="360.3" cy="387.9" r="3" fill="#dc2626" stroke="#fff" stroke-width="1"/>
    <circle cx="315.2" cy="362.9" r="3" fill="#dc2626" stroke="#fff" stroke-width="1"/>
    <circle cx="291.3" cy="369.2" r="3" fill="#dc2626" stroke="#fff" stroke-width="1"/>
    <circle cx="278.9" cy="382.1" r="3" fill="#dc2626" stroke="#fff" stroke-width="1"/>
    <circle cx="230.6" cy="390.4" r="3" fill="#dc2626" stroke="#fff" stroke-width="1"/>
    <circle cx="193.6" cy="390.7" r="3" fill="#dc2626" stroke="#fff" stroke-width="1"/>
    <circle cx="133.5" cy="390.2" r="3" fill="#dc2626" stroke="#fff" stroke-width="1"/>
    <circle cx="128.2" cy="403.8" r="3" fill="#dc2626" stroke="#fff" stroke-width="1"/>
    <circle cx="128.1" cy="418.7" r="3" fill="#dc2626" stroke="#fff" stroke-width="1"/>
    <circle cx="88.6" cy="436.9" r="3" fill="#dc2626" stroke="#fff" stroke-width="1"/>
    <circle cx="51.2" cy="437.6" r="3" fill="#dc2626" stroke="#fff" stroke-width="1"/>
    <circle cx="334.2" cy="378.1" r="3" fill="#dc2626" stroke="#fff" stroke-width="1"/>
    <circle cx="81.4" cy="512.7" r="3" fill="#dc2626" stroke="#fff" stroke-width="1"/>
    <circle cx="101.4" cy="520.3" r="3" fill="#dc2626" stroke="#fff" stroke-width="1"/>
    <circle cx="381.3" cy="391.9" r="3" fill="#dc2626" stroke="#fff" stroke-width="1"/>
    <circle cx="468.3" cy="107.7" r="3" fill="#dc2626" stroke="#fff" stroke-width="1"/>
    <circle cx="426.8" cy="133.6" r="3" fill="#dc2626" stroke="#fff" stroke-width="1"/>
    <circle cx="331.2" cy="365.8" r="3" fill="#dc2626" stroke="#fff" stroke-width="1"/>
    <circle cx="580.5" cy="238.8" r="3" fill="#dc2626" stroke="#fff" stroke-width="1"/>
    <circle cx="536.6" cy="548.5" r="3" fill="#dc2626" stroke="#fff" stroke-width="1"/>
    <circle cx="353.1" cy="357.3" r="3" fill="#dc2626" stroke="#fff" stroke-width="1"/>
    <circle cx="423.3" cy="311.1" r="3" fill="#dc2626" stroke="#fff" stroke-width="1"/>
    <circle cx="296.1" cy="338.0" r="3" fill="#dc2626" stroke="#fff" stroke-width="1"/>
    <circle cx="617.9" cy="270.0" r="3" fill="#dc2626" stroke="#fff" stroke-width="1"/>
    <circle cx="650.7" cy="269.2" r="3" fill="#dc2626" stroke="#fff" stroke-width="1"/>
    <circle cx="683.7" cy="263.2" r="3" fill="#dc2626" stroke="#fff" stroke-width="1"/>
    <circle cx="568.3" cy="272.7" r="3" fill="#dc2626" stroke="#fff" stroke-width="1"/>
    <circle cx="574.8" cy="295.1" r="3" fill="#dc2626" stroke="#fff" stroke-width="1"/>
    <circle cx="544.6" cy="311.7" r="3" fill="#dc2626" stroke="#fff" stroke-width="1"/>
    <circle cx="496.6" cy="318.5" r="3" fill="#dc2626" stroke="#fff" stroke-width="1"/>
    <circle cx="722.2" cy="215.6" r="3" fill="#dc2626" stroke="#fff" stroke-width="1"/>
    <circle cx="237.9" cy="183.2" r="3" fill="#dc2626" stroke="#fff" stroke-width="1"/>
    <circle cx="373.0" cy="358.7" r="3" fill="#dc2626" stroke="#fff" stroke-width="1"/>
    <circle cx="399.8" cy="354.7" r="3" fill="#dc2626" stroke="#fff" stroke-width="1"/>
    <circle cx="447.3" cy="352.5" r="3" fill="#dc2626" stroke="#fff" stroke-width="1"/>
    <circle cx="361.3" cy="454.3" r="3" fill="#dc2626" stroke="#fff" stroke-width="1"/>
    <circle cx="541.4" cy="450.1" r="3" fill="#dc2626" stroke="#fff" stroke-width="1"/>
    <circle cx="499.7" cy="451.2" r="3" fill="#dc2626" stroke="#fff" stroke-width="1"/>
    <circle cx="505.2" cy="350.6" r="3" fill="#dc2626" stroke="#fff" stroke-width="1"/>
    <circle cx="486.1" cy="350.7" r="3" fill="#dc2626" stroke="#fff" stroke-width="1"/>
    <circle cx="243.0" cy="200.3" r="3" fill="#dc2626" stroke="#fff" stroke-width="1"/>
    <circle cx="263.3" cy="214.0" r="3" fill="#dc2626" stroke="#fff" stroke-width="1"/>
    <circle cx="284.1" cy="227.5" r="3" fill="#dc2626" stroke="#fff" stroke-width="1"/>
    <circle cx="280.4" cy="242.3" r="3" fill="#dc2626" stroke="#fff" stroke-width="1"/>
    <circle cx="276.1" cy="250.4" r="3" fill="#dc2626" stroke="#fff" stroke-width="1"/>
    <circle cx="270.9" cy="262.8" r="3" fill="#dc2626" stroke="#fff" stroke-width="1"/>
    <circle cx="269.7" cy="271.8" r="3" fill="#dc2626" stroke="#fff" stroke-width="1"/>
    <circle cx="271.5" cy="280.8" r="3" fill="#dc2626" stroke="#fff" stroke-width="1"/>
    <circle cx="300.6" cy="346.9" r="3" fill="#dc2626" stroke="#fff" stroke-width="1"/>
    <circle cx="736.4" cy="369.5" r="3" fill="#dc2626" stroke="#fff" stroke-width="1"/>
    <circle cx="694.2" cy="355.8" r="3" fill="#dc2626" stroke="#fff" stroke-width="1"/>
    <circle cx="661.3" cy="355.3" r="3" fill="#dc2626" stroke="#fff" stroke-width="1"/>
    <circle cx="417.1" cy="165.6" r="3" fill="#dc2626" stroke="#fff" stroke-width="1"/>
    <circle cx="703.3" cy="243.4" r="3" fill="#dc2626" stroke="#fff" stroke-width="1"/>
    <circle cx="435.3" cy="317.7" r="3" fill="#dc2626" stroke="#fff" stroke-width="1"/>
    <circle cx="462.7" cy="347.8" r="3" fill="#dc2626" stroke="#fff" stroke-width="1"/>
    <circle cx="457.6" cy="374.2" r="3" fill="#dc2626" stroke="#fff" stroke-width="1"/>
    <circle cx="453.4" cy="425.9" r="3" fill="#dc2626" stroke="#fff" stroke-width="1"/>
    <circle cx="469.7" cy="464.7" r="3" fill="#dc2626" stroke="#fff" stroke-width="1"/>
    <circle cx="428.5" cy="287.0" r="3" fill="#dc2626" stroke="#fff" stroke-width="1"/>
    <circle cx="419.4" cy="404.2" r="3" fill="#dc2626" stroke="#fff" stroke-width="1"/>
    <circle cx="429.2" cy="288.4" r="3" fill="#dc2626" stroke="#fff" stroke-width="1"/>
    <circle cx="545.1" cy="329.9" r="3" fill="#dc2626" stroke="#fff" stroke-width="1"/>
    <circle cx="309.3" cy="290.8" r="3" fill="#dc2626" stroke="#fff" stroke-width="1"/>
    <circle cx="459.1" cy="350.7" r="3" fill="#dc2626" stroke="#fff" stroke-width="1"/>
    <circle cx="291.3" cy="327.0" r="3" fill="#dc2626" stroke="#fff" stroke-width="1"/>
    <circle cx="419.4" cy="403.8" r="3" fill="#dc2626" stroke="#fff" stroke-width="1"/>
    <circle cx="62.2" cy="479.2" r="3" fill="#dc2626" stroke="#fff" stroke-width="1"/>
    <circle cx="85.7" cy="480.0" r="3" fill="#dc2626" stroke="#fff" stroke-width="1"/>
    <circle cx="116.8" cy="495.9" r="3" fill="#dc2626" stroke="#fff" stroke-width="1"/>
    <circle cx="204.4" cy="490.9" r="3" fill="#dc2626" stroke="#fff" stroke-width="1"/>
    <circle cx="138.5" cy="502.5" r="3" fill="#dc2626" stroke="#fff" stroke-width="1"/>
    <circle cx="236.2" cy="481.6" r="3" fill="#dc2626" stroke="#fff" stroke-width="1"/>
    <circle cx="273.5" cy="477.8" r="3" fill="#dc2626" stroke="#fff" stroke-width="1"/>
    <circle cx="295.8" cy="477.6" r="3" fill="#dc2626" stroke="#fff" stroke-width="1"/>
    <circle cx="324.5" cy="484.4" r="3" fill="#dc2626" stroke="#fff" stroke-width="1"/>
    <circle cx="324.1" cy="330.9" r="3" fill="#dc2626" stroke="#fff" stroke-width="1"/>
    <circle cx="377.2" cy="320.0" r="3" fill="#dc2626" stroke="#fff" stroke-width="1"/>
    <circle cx="451.2" cy="505.1" r="3" fill="#dc2626" stroke="#fff" stroke-width="1"/>
    <circle cx="335.6" cy="483.7" r="3" fill="#dc2626" stroke="#fff" stroke-width="1"/>
    <circle cx="324.6" cy="453.9" r="3" fill="#dc2626" stroke="#fff" stroke-width="1"/>
    <circle cx="309.4" cy="489.8" r="3" fill="#dc2626" stroke="#fff" stroke-width="1"/>
    <circle cx="287.9" cy="499.2" r="3" fill="#dc2626" stroke="#fff" stroke-width="1"/>
    <circle cx="273.1" cy="509.0" r="3" fill="#dc2626" stroke="#fff" stroke-width="1"/>
    <circle cx="280.6" cy="526.0" r="3" fill="#dc2626" stroke="#fff" stroke-width="1"/>
    <circle cx="275.1" cy="544.0" r="3" fill="#dc2626" stroke="#fff" stroke-width="1"/>
    <circle cx="221.2" cy="537.1" r="3" fill="#dc2626" stroke="#fff" stroke-width="1"/>
    <circle cx="144.6" cy="532.5" r="3" fill="#dc2626" stroke="#fff" stroke-width="1"/>
    <circle cx="109.7" cy="539.5" r="3" fill="#dc2626" stroke="#fff" stroke-width="1"/>
    <circle cx="168.7" cy="528.5" r="3" fill="#dc2626" stroke="#fff" stroke-width="1"/>
    <circle cx="197.4" cy="537.3" r="3" fill="#dc2626" stroke="#fff" stroke-width="1"/>
    <circle cx="81.7" cy="526.4" r="3" fill="#dc2626" stroke="#fff" stroke-width="1"/>
    <circle cx="82.5" cy="468.0" r="3" fill="#dc2626" stroke="#fff" stroke-width="1"/>
  </g>
</svg>