<?xml version="1.0" encoding="UTF-8"?>
<svg width="800" height="600" xmlns="http://www.w3.org/2000/svg">
  <title>Hamburg Subway Map</title>
  <rect width="100%" height="100%" fill="#f8f9fa"/>

  <!-- 지하철 선로 -->
  <g stroke="#2563eb" stroke-width="2" fill="none" opacity="0.8">
    <polyline points="462.3,273.3 461.7,273.4 461.3,273.5 460.5,273.7 460.0,273.8 458.1,274.2"/>
    <polyline points="387.1,253.5 387.6,253.3 390.2,252.5 390.5,252.3 390.8,252.2 391.2,251.9 391.5,251.8 391.7,251.7 391.9,251.6 392.8,251.3 393.6,251.0 393.9,251.0 394.4,250.8 395.2,250.5"/>
    <polyline points="381.9,255.2 383.5,254.7"/>
    <polyline points="381.2,255.4 381.9,255.2"/>
    <polyline points="375.1,257.3 376.4,257.0 378.3,256.4"/>
    <polyline points="374.7,257.4 375.1,257.3"/>
    <polyline points="414.2,281.3 413.9,281.2 413.4,281.1 413.3,281.0 412.1,280.7 411.5,280.6 411.0,280.4 410.4,280.3 409.7,280.2 409.0,280.1 408.8,280.1 408.6,280.1 407.6,279.9"/>
    <polyline points="404.2,223.2 403.9,222.9"/>
    <polyline points="386.6,208.9 386.6,209.1 386.5,209.8 386.6,210.6 386.6,210.9 386.6,211.3 386.6,211.5 386.6,211.7 386.7,212.0"/>
    <polyline points="403.9,222.9 402.5,221.5"/>
    <polyline points="404.5,223.6 404.2,223.2"/>
    <polyline points="406.4,226.1 406.5,226.2 406.5,226.3 406.5,226.5"/>
    <polyline points="406.5,226.5 406.5,226.7 406.6,226.8 406.6,227.0 406.6,227.1 406.6,227.3 406.5,227.5 406.4,227.8 406.2,228.5 405.9,229.3 405.5,230.5 405.3,230.9"/>
    <polyline points="404.9,231.8 405.1,231.4 405.3,231.0"/>
    <polyline points="421.5,286.5 421.1,287.1 420.7,287.5"/>
    <polyline points="363.5,261.3 364.5,260.9"/>
    <polyline points="331.9,338.2 331.9,338.4"/>
    <polyline points="364.5,260.9 365.5,260.6 366.3,260.4 367.0,260.1 367.1,260.1 367.6,259.9 368.0,259.7 368.7,259.5 369.1,259.3 369.5,259.1 370.1,258.9 370.4,258.8 370.7,258.6 370.9,258.6 371.3,258.5 372.0,258.2 373.3,257.8 373.9,257.7 374.7,257.4"/>
    <polyline points="586.5,190.8 586.8,190.8"/>
    <polyline points="586.8,190.8 587.4,190.8 588.0,190.7 588.5,190.7"/>
    <polyline points="551.6,209.9 551.8,209.7"/>
    <polyline points="554.0,207.0 553.9,207.3"/>
    <polyline points="554.0,207.3 554.1,207.0"/>
    <polyline points="554.7,203.5 554.7,203.6"/>
    <polyline points="554.7,203.6 554.7,204.3 554.6,205.0 554.6,205.1 554.5,205.6 554.4,206.0 554.3,206.3 554.2,206.6 554.0,207.0"/>
    <polyline points="559.9,192.7 560.0,192.5"/>
    <polyline points="559.2,194.6 559.4,194.0 559.5,193.8 559.8,193.1 559.9,192.8 559.9,192.7"/>
    <polyline points="554.9,200.3 555.1,199.8"/>
    <polyline points="555.0,199.8 554.9,200.3"/>
    <polyline points="554.9,200.3 554.8,200.6 554.7,201.1 554.7,201.6 554.7,202.5 554.7,203.5"/>
    <polyline points="403.5,237.3 403.2,238.0"/>
    <polyline points="403.2,238.0 402.9,238.4 402.5,238.9 402.5,239.1 402.4,239.3 402.3,239.4 402.2,239.8 401.8,240.9 401.4,242.5 400.8,244.5 400.4,245.7 400.2,246.4 400.1,246.7 399.9,247.1 399.7,247.3 399.6,247.6 399.4,247.8"/>
    <polyline points="303.5,255.2 303.8,254.2 303.9,254.0 304.0,253.6 304.1,253.3 304.2,253.2 304.3,253.1 305.5,251.5 306.5,250.3 307.8,248.8 309.0,247.3 309.1,247.1 309.3,246.9 309.4,246.6 309.5,246.4 309.6,245.8 309.7,245.7 309.7,245.6 309.7,244.8 309.7,244.0 309.6,243.3 309.4,242.7 309.1,241.6 309.0,241.2 308.9,240.9 308.9,240.6 308.8,240.2 308.9,240.0 308.9,239.8 308.9,239.6 309.0,239.4 309.0,239.4 309.0,239.3 309.1,239.0 309.7,237.6 309.8,237.4 309.8,237.3"/>
    <polyline points="564.4,187.9 564.8,187.8"/>
    <polyline points="564.8,187.8 565.3,187.7 565.7,187.7 566.2,187.7 566.6,187.7 567.0,187.7 567.5,187.8 567.9,187.9 573.2,188.9"/>
    <polyline points="573.2,188.9 573.5,189.0"/>
    <polyline points="573.5,189.0 580.2,190.3 580.7,190.4 581.2,190.5 582.2,190.6"/>
    <polyline points="559.7,192.4 559.6,192.8"/>
    <polyline points="540.3,155.1 540.0,154.8 539.8,154.4"/>
    <polyline points="532.4,145.4 532.1,145.0"/>
    <polyline points="532.1,145.0 530.4,143.0 530.2,142.7"/>
    <polyline points="559.0,194.9 559.2,194.6"/>
    <polyline points="415.8,281.7 415.9,281.8"/>
    <polyline points="416.1,281.9 418.0,282.3"/>
    <polyline points="392.7,278.0 393.1,278.1"/>
    <polyline points="405.7,279.7 405.3,279.6 404.0,279.4 403.3,279.3 403.2,279.3 401.2,279.1 401.0,279.1"/>
    <polyline points="364.6,278.0 365.4,278.0"/>
    <polyline points="363.3,278.0 364.6,278.0"/>
    <polyline points="422.6,285.1 422.1,285.8"/>
    <polyline points="378.1,277.6 380.4,277.5"/>
    <polyline points="390.9,277.8 390.4,277.8"/>
    <polyline points="392.7,278.0 392.6,278.0 390.9,277.8"/>
    <polyline points="418.9,274.4 418.8,274.4 416.9,274.6 416.5,274.7 416.0,274.8 415.6,274.9 415.2,275.0 414.9,275.1 414.8,275.1 414.4,275.3 414.0,275.4 413.7,275.6 413.3,275.8 413.0,276.1 412.7,276.3"/>
    <polyline points="421.4,282.9 421.7,283.0 421.9,283.1 422.0,283.1"/>
    <polyline points="426.2,273.6 425.7,273.6"/>
    <polyline points="331.7,307.8 331.7,307.8 331.7,307.5 331.7,307.4 331.7,307.3 331.6,307.2 331.6,307.1 331.6,307.0 331.5,306.8 331.3,306.5"/>
    <polyline points="330.6,321.4 331.0,319.9 331.3,318.5 331.4,318.0 331.6,317.4 331.7,317.2 331.7,317.0 331.7,316.8 331.7,316.6 331.7,316.2"/>
    <polyline points="402.0,279.3 401.9,279.3 401.3,279.2 400.9,279.2 400.0,279.1 399.7,279.1"/>
    <polyline points="351.1,285.7 351.7,285.0"/>
    <polyline points="350.2,286.8 350.4,286.5"/>
    <polyline points="543.8,159.5 542.3,157.6"/>
    <polyline points="544.1,159.9 543.8,159.5"/>
    <polyline points="350.0,138.6 350.0,138.6 350.1,138.3 350.1,138.0 350.2,137.5 350.3,137.2 350.4,136.9 350.6,136.5 350.7,136.2 350.8,136.0 351.0,135.7 351.2,135.4 351.2,135.3 351.3,135.2 351.4,135.1 351.6,134.7 351.9,134.4 352.2,134.1"/>
    <polyline points="475.5,270.0 475.2,270.0"/>
    <polyline points="330.6,321.4 330.2,322.5 330.0,323.3 329.9,323.4 329.9,323.5 329.9,323.6 329.9,323.6"/>
    <polyline points="329.9,323.6 330.0,324.2 330.0,324.4 330.0,324.5 330.0,324.8 330.1,324.9 330.2,325.2 330.2,325.4 330.2,325.6 331.5,331.9 331.5,332.3 331.6,332.8 331.7,333.5 331.8,333.7 331.8,333.8 331.8,334.4 331.9,335.7 332.0,337.3 331.9,338.2"/>
    <polyline points="436.7,273.7 436.0,273.7"/>
    <polyline points="450.6,275.9 450.2,275.9 449.7,275.9 449.1,275.9 448.5,275.8 447.8,275.7 447.2,275.6 446.3,275.4"/>
    <polyline points="310.2,295.9 309.9,295.5 309.8,295.3 309.7,295.2 309.6,295.1 309.5,294.9 309.4,294.8 309.2,294.7 308.8,294.3 308.0,293.8 307.7,293.6 307.5,293.4 306.8,292.9 305.9,292.2 305.7,292.1 305.6,292.0 305.5,291.9 305.5,291.8 305.4,291.7 305.3,291.5 305.2,291.4 305.2,291.3 305.1,291.2 305.1,291.0 305.1,290.8 305.1,290.7 305.1,290.5 305.1,290.4"/>
    <polyline points="331.7,307.8 331.7,308.5"/>
    <polyline points="332.1,339.1 332.1,339.1 332.2,339.2 332.3,339.3 332.4,339.5 332.5,339.6 332.7,339.7 332.8,339.7 333.0,339.8 333.2,339.9 333.3,340.0 333.6,340.0 333.9,340.1"/>
    <polyline points="467.9,271.9 465.2,272.6"/>
    <polyline points="468.2,271.8 467.9,271.9"/>
    <polyline points="462.6,273.2 462.3,273.3"/>
    <polyline points="528.1,347.1 528.5,346.9 528.7,346.9 529.1,346.8 529.7,346.8 529.8,346.7 531.1,346.6 532.0,346.5 532.7,346.5 533.0,346.4 533.4,346.4 533.9,346.4 534.3,346.4 534.6,346.4 534.8,346.4 535.2,346.5 535.5,346.5 535.7,346.5 536.0,346.6 536.2,346.7 536.5,346.7 536.7,346.8 537.0,346.9 537.1,347.0 537.4,347.1 537.6,347.2 537.8,347.3 538.0,347.4 538.1,347.5 538.2,347.6 538.3,347.7 538.4,347.8 538.5,347.9 538.7,348.0 538.9,348.2 539.4,348.9 540.4,350.1 540.9,350.9 541.4,351.5 541.9,352.2 542.4,352.9 542.7,353.4 542.9,353.8 543.2,354.5 543.5,355.2 543.7,355.6 543.8,356.0 543.8,356.4 543.9,356.9 543.9,357.5 544.0,357.9 543.9,358.5 543.9,359.7 543.9,360.8 543.8,362.8"/>
    <polyline points="503.7,348.8 504.0,348.9"/>
    <polyline points="429.0,326.1 427.3,326.1 424.9,326.1 419.9,326.0"/>
    <polyline points="443.1,327.9 441.9,327.7 438.7,327.2 438.0,327.1 436.9,326.9 435.2,326.6 434.4,326.5"/>
    <polyline points="442.7,280.0 442.8,279.8 442.9,279.7 443.0,279.5 443.2,279.4 443.3,279.2 443.6,279.0 443.8,278.9 444.1,278.7 444.4,278.6 445.2,278.1 446.4,277.4 447.0,277.1"/>
    <polyline points="422.0,283.1 422.1,283.1 422.2,283.1 422.2,283.2 422.3,283.2 422.4,283.3 422.5,283.3 422.6,283.4 422.6,283.5 422.7,283.6 422.8,283.7 422.8,283.8 422.8,283.9"/>
    <polyline points="422.1,285.8 421.5,286.5"/>
    <polyline points="425.7,273.6 422.3,274.0"/>
    <polyline points="427.6,273.4 427.0,273.5"/>
    <polyline points="427.0,273.5 426.2,273.6"/>
    <polyline points="430.9,273.3 430.6,273.3"/>
    <polyline points="430.6,273.3 430.0,273.3 429.3,273.3 429.1,273.3 428.7,273.3 428.1,273.4 427.6,273.4"/>
    <polyline points="422.3,274.0 421.9,274.0"/>
    <polyline points="421.9,274.0 419.5,274.3"/>
    <polyline points="419.5,274.3 418.9,274.4"/>
    <polyline points="528.8,136.4 528.8,136.2 528.8,136.1"/>
    <polyline points="528.8,136.1 528.7,135.8 528.7,135.1"/>
    <polyline points="436.0,273.7 435.9,273.7 432.8,273.5"/>
    <polyline points="465.7,328.8 467.6,328.7 468.2,328.7 468.6,328.7 469.0,328.7 469.2,328.7 469.5,328.8 469.9,328.8 470.3,328.9 470.7,329.0 471.0,329.2 471.2,329.2 471.6,329.4 471.9,329.5 472.1,329.6 472.3,329.8 472.6,330.0 472.9,330.2 473.1,330.5 473.3,330.7"/>
    <polyline points="504.2,349.0 504.1,348.9"/>
    <polyline points="499.2,346.8 499.7,346.9 500.1,347.1 500.3,347.1 500.5,347.2 500.8,347.4 501.5,347.7 502.6,348.2 503.7,348.8"/>
    <polyline points="331.0,306.7 331.0,306.7 331.2,306.8 331.2,306.9 331.3,306.9 331.4,307.0 331.4,307.0 331.5,307.2 331.5,307.2 331.5,307.2 331.6,307.3 331.6,307.3 331.6,307.4 331.6,307.4 331.6,307.5 331.6,307.6 331.6,307.8 331.7,308.4"/>
    <polyline points="374.5,277.7 378.1,277.5"/>
    <polyline points="373.8,277.7 374.2,277.7 374.5,277.7"/>
    <polyline points="386.8,160.7 387.2,161.2 387.3,161.4 387.5,161.6 387.8,162.1 388.3,163.3 389.8,167.2 390.0,167.9"/>
    <polyline points="386.5,160.5 386.8,160.7"/>
  </g>

  <!-- 지하철 역 -->
  <g>
    <circle cx="541.3" cy="156.3" r="3" fill="#dc2626" stroke="#fff" stroke-width="1"/>
    <circle cx="338.8" cy="295.8" r="3" fill="#dc2626" stroke="#fff" stroke-width="1"/>
    <circle cx="378.0" cy="331.1" r="3" fill="#dc2626" stroke="#fff" stroke-width="1"/>
    <circle cx="443.5" cy="283.7" r="3" fill="#dc2626" stroke="#fff" stroke-width="1"/>
    <circle cx="369.2" cy="332.3" r="3" fill="#dc2626" stroke="#fff" stroke-width="1"/>
    <circle cx="368.1" cy="337.4" r="3" fill="#dc2626" stroke="#fff" stroke-width="1"/>
    <circle cx="365.2" cy="347.5" r="3" fill="#dc2626" stroke="#fff" stroke-width="1"/>
    <circle cx="360.0" cy="331.2" r="3" fill="#dc2626" stroke="#fff" stroke-width="1"/>
    <circle cx="673.6" cy="190.1" r="3" fill="#dc2626" stroke="#fff" stroke-width="1"/>
    <circle cx="697.3" cy="190.6" r="3" fill="#dc2626" stroke="#fff" stroke-width="1"/>
    <circle cx="705.0" cy="177.1" r="3" fill="#dc2626" stroke="#fff" stroke-width="1"/>
    <circle cx="585.1" cy="190.7" r="3" fill="#dc2626" stroke="#fff" stroke-width="1"/>
    <circle cx="445.7" cy="304.0" r="3" fill="#dc2626" stroke="#fff" stroke-width="1"/>
    <circle cx="454.6" cy="275.2" r="3" fill="#dc2626" stroke="#fff" stroke-width="1"/>
    <circle cx="408.7" cy="313.7" r="3" fill="#dc2626" stroke="#fff" stroke-width="1"/>
    <circle cx="339.6" cy="322.9" r="3" fill="#dc2626" stroke="#fff" stroke-width="1"/>
    <circle cx="488.2" cy="266.7" r="3" fill="#dc2626" stroke="#fff" stroke-width="1"/>
    <circle cx="309.9" cy="237.0" r="3" fill="#dc2626" stroke="#fff" stroke-width="1"/>
    <circle cx="311.0" cy="215.3" r="3" fill="#dc2626" stroke="#fff" stroke-width="1"/>
    <circle cx="403.9" cy="235.8" r="3" fill="#dc2626" stroke="#fff" stroke-width="1"/>
    <circle cx="331.7" cy="309.6" r="3" fill="#dc2626" stroke="#fff" stroke-width="1"/>
    <circle cx="493.0" cy="344.4" r="3" fill="#dc2626" stroke="#fff" stroke-width="1"/>
    <circle cx="416.5" cy="326.0" r="3" fill="#dc2626" stroke="#fff" stroke-width="1"/>
    <circle cx="432.4" cy="326.3" r="3" fill="#dc2626" stroke="#fff" stroke-width="1"/>
    <circle cx="465.9" cy="328.9" r="3" fill="#dc2626" stroke="#fff" stroke-width="1"/>
    <circle cx="479.5" cy="337.7" r="3" fill="#dc2626" stroke="#fff" stroke-width="1"/>
    <circle cx="514.0" cy="349.9" r="3" fill="#dc2626" stroke="#fff" stroke-width="1"/>
    <circle cx="543.8" cy="364.6" r="3" fill="#dc2626" stroke="#fff" stroke-width="1"/>
    <circle cx="531.1" cy="346.6" r="3" fill="#dc2626" stroke="#fff" stroke-width="1"/>
    <circle cx="531.9" cy="226.8" r="3" fill="#dc2626" stroke="#fff" stroke-width="1"/>
    <circle cx="398.6" cy="219.3" r="3" fill="#dc2626" stroke="#fff" stroke-width="1"/>
    <circle cx="354.1" cy="302.3" r="3" fill="#dc2626" stroke="#fff" stroke-width="1"/>
    <circle cx="406.2" cy="225.5" r="3" fill="#dc2626" stroke="#fff" stroke-width="1"/>
    <circle cx="369.1" cy="155.7" r="3" fill="#dc2626" stroke="#fff" stroke-width="1"/>
    <circle cx="362.4" cy="272.1" r="3" fill="#dc2626" stroke="#fff" stroke-width="1"/>
    <circle cx="368.3" cy="277.9" r="3" fill="#dc2626" stroke="#fff" stroke-width="1"/>
    <circle cx="444.9" cy="328.3" r="3" fill="#dc2626" stroke="#fff" stroke-width="1"/>
    <circle cx="419.5" cy="282.3" r="3" fill="#dc2626" stroke="#fff" stroke-width="1"/>
    <circle cx="400.8" cy="320.4" r="3" fill="#dc2626" stroke="#fff" stroke-width="1"/>
    <circle cx="394.4" cy="355.3" r="3" fill="#dc2626" stroke="#fff" stroke-width="1"/>
    <circle cx="559.3" cy="193.9" r="3" fill="#dc2626" stroke="#fff" stroke-width="1"/>
    <circle cx="387.7" cy="179.6" r="3" fill="#dc2626" stroke="#fff" stroke-width="1"/>
    <circle cx="376.4" cy="347.3" r="3" fill="#dc2626" stroke="#fff" stroke-width="1"/>
    <circle cx="374.2" cy="328.4" r="3" fill="#dc2626" stroke="#fff" stroke-width="1"/>
    <circle cx="380.8" cy="255.6" r="3" fill="#dc2626" stroke="#fff" stroke-width="1"/>
    <circle cx="360.7" cy="264.7" r="3" fill="#dc2626" stroke="#fff" stroke-width="1"/>
    <circle cx="384.4" cy="277.3" r="3" fill="#dc2626" stroke="#fff" stroke-width="1"/>
    <circle cx="310.0" cy="297.7" r="3" fill="#dc2626" stroke="#fff" stroke-width="1"/>
    <circle cx="386.7" cy="209.8" r="3" fill="#dc2626" stroke="#fff" stroke-width="1"/>
    <circle cx="387.3" cy="196.4" r="3" fill="#dc2626" stroke="#fff" stroke-width="1"/>
    <circle cx="386.1" cy="160.0" r="3" fill="#dc2626" stroke="#fff" stroke-width="1"/>
    <circle cx="394.2" cy="329.3" r="3" fill="#dc2626" stroke="#fff" stroke-width="1"/>
    <circle cx="350.6" cy="146.8" r="3" fill="#dc2626" stroke="#fff" stroke-width="1"/>
    <circle cx="353.1" cy="290.0" r="3" fill="#dc2626" stroke="#fff" stroke-width="1"/>
    <circle cx="550.5" cy="174.8" r="3" fill="#dc2626" stroke="#fff" stroke-width="1"/>
    <circle cx="398.6" cy="313.7" r="3" fill="#dc2626" stroke="#fff" stroke-width="1"/>
    <circle cx="528.6" cy="133.2" r="3" fill="#dc2626" stroke="#fff" stroke-width="1"/>
    <circle cx="652.5" cy="179.0" r="3" fill="#dc2626" stroke="#fff" stroke-width="1"/>
    <circle cx="354.4" cy="321.9" r="3" fill="#dc2626" stroke="#fff" stroke-width="1"/>
    <circle cx="330.1" cy="324.5" r="3" fill="#dc2626" stroke="#fff" stroke-width="1"/>
    <circle cx="374.4" cy="335.1" r="3" fill="#dc2626" stroke="#fff" stroke-width="1"/>
    <circle cx="389.3" cy="325.0" r="3" fill="#dc2626" stroke="#fff" stroke-width="1"/>
    <circle cx="350.6" cy="326.2" r="3" fill="#dc2626" stroke="#fff" stroke-width="1"/>
    <circle cx="345.4" cy="342.2" r="3" fill="#dc2626" stroke="#fff" stroke-width="1"/>
    <circle cx="322.7" cy="306.9" r="3" fill="#dc2626" stroke="#fff" stroke-width="1"/>
    <circle cx="392.8" cy="251.2" r="3" fill="#dc2626" stroke="#fff" stroke-width="1"/>
    <circle cx="434.9" cy="306.5" r="3" fill="#dc2626" stroke="#fff" stroke-width="1"/>
    <circle cx="505.8" cy="254.4" r="3" fill="#dc2626" stroke="#fff" stroke-width="1"/>
    <circle cx="447.0" cy="289.5" r="3" fill="#dc2626" stroke="#fff" stroke-width="1"/>
    <circle cx="301.1" cy="274.8" r="3" fill="#dc2626" stroke="#fff" stroke-width="1"/>
    <circle cx="550.7" cy="210.7" r="3" fill="#dc2626" stroke="#fff" stroke-width="1"/>
    <circle cx="308.2" cy="207.6" r="3" fill="#dc2626" stroke="#fff" stroke-width="1"/>
    <circle cx="625.6" cy="174.5" r="3" fill="#dc2626" stroke="#fff" stroke-width="1"/>
    <circle cx="360.0" cy="333.6" r="3" fill="#dc2626" stroke="#fff" stroke-width="1"/>
    <circle cx="330.7" cy="314.1" r="3" fill="#dc2626" stroke="#fff" stroke-width="1"/>
    <circle cx="331.7" cy="333.0" r="3" fill="#dc2626" stroke="#fff" stroke-width="1"/>
    <circle cx="411.0" cy="300.0" r="3" fill="#dc2626" stroke="#fff" stroke-width="1"/>
    <circle cx="422.0" cy="309.5" r="3" fill="#dc2626" stroke="#fff" stroke-width="1"/>
    <circle cx="349.7" cy="287.1" r="3" fill="#dc2626" stroke="#fff" stroke-width="1"/>
    <circle cx="519.0" cy="239.9" r="3" fill="#dc2626" stroke="#fff" stroke-width="1"/>
    <circle cx="428.6" cy="273.4" r="3" fill="#dc2626" stroke="#fff" stroke-width="1"/>
  </g>
</svg>