<?xml version="1.0" encoding="UTF-8"?>
<svg width="800" height="600" viewBox="0 0 800 600" 
     xmlns="http://www.w3.org/2000/svg">
  <title>Hamburg Subway Map</title>
  <rect width="100%" height="100%" fill="#f8f9fa"/>

  <!-- 지하철 선로 -->
  <g id="subway-lines" stroke="#2563eb" stroke-width="3" fill="none">
    <polyline points="462.3,273.3 461.7,273.4 461.3,273.5 460.5,273.7 460.0,273.8 458.1,274.2" opacity="0.8"/>
    <polyline points="387.1,253.5 387.6,253.3 390.2,252.5 390.5,252.3 390.8,252.2 391.2,251.9 391.5,251.8 391.7,251.7 391.9,251.6 392.8,251.3 393.6,251.0 393.9,251.0 394.4,250.8 395.2,250.5" opacity="0.8"/>
    <polyline points="381.9,255.2 383.5,254.7" opacity="0.8"/>
    <polyline points="381.2,255.4 381.9,255.2" opacity="0.8"/>
    <polyline points="375.1,257.3 376.4,257.0 378.3,256.4" opacity="0.8"/>
    <polyline points="374.7,257.4 375.1,257.3" opacity="0.8"/>
    <polyline points="414.2,281.3 413.9,281.2 413.4,281.1 413.3,281.0 412.1,280.7 411.5,280.6 411.0,280.4 410.4,280.3 409.7,280.2 409.0,280.1 408.8,280.1 408.6,280.1 407.6,279.9" opacity="0.8"/>
    <polyline points="404.2,223.2 403.9,222.9" opacity="0.8"/>
    <polyline points="386.6,208.9 386.6,209.1 386.5,209.8 386.6,210.6 386.6,210.9 386.6,211.3 386.6,211.5 386.6,211.7 386.7,212.0" opacity="0.8"/>
    <polyline points="403.9,222.9 402.5,221.5" opacity="0.8"/>
    <polyline points="404.5,223.6 404.2,223.2" opacity="0.8"/>
    <polyline points="406.4,226.1 406.5,226.2 406.5,226.3 406.5,226.5" opacity="0.8"/>
    <polyline points="406.5,226.5 406.5,226.7 406.6,226.8 406.6,227.0 406.6,227.1 406.6,227.3 406.5,227.5 406.4,227.8 406.2,228.5 405.9,229.3 405.5,230.5 405.3,230.9" opacity="0.8"/>
    <polyline points="404.9,231.8 405.1,231.4 405.3,231.0" opacity="0.8"/>
    <polyline points="421.5,286.5 421.1,287.1 420.7,287.5" opacity="0.8"/>
    <polyline points="363.5,261.3 364.5,260.9" opacity="0.8"/>
    <polyline points="331.9,338.2 331.9,338.4" opacity="0.8"/>
    <polyline points="364.5,260.9 365.5,260.6 366.3,260.4 367.0,260.1 367.1,260.1 367.6,259.9 368.0,259.7 368.7,259.5 369.1,259.3 369.5,259.1 370.1,258.9 370.4,258.8 370.7,258.6 370.9,258.6 371.3,258.5 372.0,258.2 373.3,257.8 373.9,257.7 374.7,257.4" opacity="0.8"/>
    <polyline points="586.5,190.8 586.8,190.8" opacity="0.8"/>
    <polyline points="586.8,190.8 587.4,190.8 588.0,190.7 588.5,190.7" opacity="0.8"/>
    <polyline points="551.6,209.9 551.8,209.7" opacity="0.8"/>
    <polyline points="554.0,207.0 553.9,207.3" opacity="0.8"/>
    <polyline points="554.0,207.3 554.1,207.0" opacity="0.8"/>
    <polyline points="554.7,203.5 554.7,203.6" opacity="0.8"/>
    <polyline points="554.7,203.6 554.7,204.3 554.6,205.0 554.6,205.1 554.5,205.6 554.4,206.0 554.3,206.3 554.2,206.6 554.0,207.0" opacity="0.8"/>
    <polyline points="559.9,192.7 560.0,192.5" opacity="0.8"/>
    <polyline points="559.2,194.6 559.4,194.0 559.5,193.8 559.8,193.1 559.9,192.8 559.9,192.7" opacity="0.8"/>
    <polyline points="554.9,200.3 555.1,199.8" opacity="0.8"/>
    <polyline points="555.0,199.8 554.9,200.3" opacity="0.8"/>
    <polyline points="554.9,200.3 554.8,200.6 554.7,201.1 554.7,201.6 554.7,202.5 554.7,203.5" opacity="0.8"/>
    <polyline points="403.5,237.3 403.2,238.0" opacity="0.8"/>
    <polyline points="403.2,238.0 402.9,238.4 402.5,238.9 402.5,239.1 402.4,239.3 402.3,239.4 402.2,239.8 401.8,240.9 401.4,242.5 400.8,244.5 400.4,245.7 400.2,246.4 400.1,246.7 399.9,247.1 399.7,247.3 399.6,247.6 399.4,247.8" opacity="0.8"/>
    <polyline points="303.5,255.2 303.8,254.2 303.9,254.0 304.0,253.6 304.1,253.3 304.2,253.2 304.3,253.1 305.5,251.5 306.5,250.3 307.8,248.8 309.0,247.3 309.1,247.1 309.3,246.9 309.4,246.6 309.5,246.4 309.6,245.8 309.7,245.7 309.7,245.6 309.7,244.8 309.7,244.0 309.6,243.3 309.4,242.7 309.1,241.6 309.0,241.2 308.9,240.9 308.9,240.6 308.8,240.2 308.9,240.0 308.9,239.8 308.9,239.6 309.0,239.4 309.0,239.4 309.0,239.3 309.1,239.0 309.7,237.6 309.8,237.4 309.8,237.3" opacity="0.8"/>
    <polyline points="564.4,187.9 564.8,187.8" opacity="0.8"/>
    <polyline points="564.8,187.8 565.3,187.7 565.7,187.7 566.2,187.7 566.6,187.7 567.0,187.7 567.5,187.8 567.9,187.9 573.2,188.9" opacity="0.8"/>
    <polyline points="573.2,188.9 573.5,189.0" opacity="0.8"/>
    <polyline points="573.5,189.0 580.2,190.3 580.7,190.4 581.2,190.5 582.2,190.6" opacity="0.8"/>
    <polyline points="559.7,192.4 559.6,192.8" opacity="0.8"/>
    <polyline points="540.3,155.1 540.0,154.8 539.8,154.4" opacity="0.8"/>
    <polyline points="532.4,145.4 532.1,145.0" opacity="0.8"/>
    <polyline points="532.1,145.0 530.4,143.0 530.2,142.7" opacity="0.8"/>
    <polyline points="559.0,194.9 559.2,194.6" opacity="0.8"/>
    <polyline points="415.8,281.7 415.9,281.8" opacity="0.8"/>
    <polyline points="416.1,281.9 418.0,282.3" opacity="0.8"/>
    <polyline points="392.7,278.0 393.1,278.1" opacity="0.8"/>
    <polyline points="405.7,279.7 405.3,279.6 404.0,279.4 403.3,279.3 403.2,279.3 401.2,279.1 401.0,279.1" opacity="0.8"/>
    <polyline points="364.6,278.0 365.4,278.0" opacity="0.8"/>
    <polyline points="363.3,278.0 364.6,278.0" opacity="0.8"/>
    <polyline points="422.6,285.1 422.1,285.8" opacity="0.8"/>
    <polyline points="378.1,277.6 380.4,277.5" opacity="0.8"/>
  </g>

  <!-- 지하철 역 -->
  <g id="subway-stations">
    <circle cx="541.3" cy="156.3" r="4" fill="#dc2626" stroke="#fff" stroke-width="2"/>
    <text x="541.3" y="148.3" text-anchor="middle" font-size="10" fill="#374151">Hoisbüttel</text>
    <circle cx="338.8" cy="295.8" r="4" fill="#dc2626" stroke="#fff" stroke-width="2"/>
    <text x="338.8" y="287.8" text-anchor="middle" font-size="10" fill="#374151">Hoheluftbrücke</text>
    <circle cx="378.0" cy="331.1" r="4" fill="#dc2626" stroke="#fff" stroke-width="2"/>
    <text x="378.0" y="323.1" text-anchor="middle" font-size="10" fill="#374151">Hauptbahnhof Süd</text>
    <circle cx="443.5" cy="283.7" r="4" fill="#dc2626" stroke="#fff" stroke-width="2"/>
    <text x="443.5" y="275.7" text-anchor="middle" font-size="10" fill="#374151">Alter Teichweg</text>
    <circle cx="369.2" cy="332.3" r="4" fill="#dc2626" stroke="#fff" stroke-width="2"/>
    <text x="369.2" y="324.3" text-anchor="middle" font-size="10" fill="#374151">Mönckebergstraße</text>
    <circle cx="368.1" cy="337.4" r="4" fill="#dc2626" stroke="#fff" stroke-width="2"/>
    <text x="368.1" y="329.4" text-anchor="middle" font-size="10" fill="#374151">Meßberg</text>
    <circle cx="365.2" cy="347.5" r="4" fill="#dc2626" stroke="#fff" stroke-width="2"/>
    <text x="365.2" y="339.5" text-anchor="middle" font-size="10" fill="#374151">Überseequartier</text>
    <circle cx="360.0" cy="331.2" r="4" fill="#dc2626" stroke="#fff" stroke-width="2"/>
    <text x="360.0" y="323.2" text-anchor="middle" font-size="10" fill="#374151">Jungfernstieg</text>
    <circle cx="673.6" cy="190.1" r="4" fill="#dc2626" stroke="#fff" stroke-width="2"/>
    <text x="673.6" y="182.1" text-anchor="middle" font-size="10" fill="#374151">Schmalenbeck</text>
    <circle cx="697.3" cy="190.6" r="4" fill="#dc2626" stroke="#fff" stroke-width="2"/>
    <text x="697.3" y="182.6" text-anchor="middle" font-size="10" fill="#374151">Kiekut</text>
    <circle cx="705.0" cy="177.1" r="4" fill="#dc2626" stroke="#fff" stroke-width="2"/>
    <text x="705.0" y="169.1" text-anchor="middle" font-size="10" fill="#374151">Großhansdorf</text>
    <circle cx="585.1" cy="190.7" r="4" fill="#dc2626" stroke="#fff" stroke-width="2"/>
    <text x="585.1" y="182.7" text-anchor="middle" font-size="10" fill="#374151">Buchenkamp</text>
    <circle cx="445.7" cy="304.0" r="4" fill="#dc2626" stroke="#fff" stroke-width="2"/>
    <text x="445.7" y="296.0" text-anchor="middle" font-size="10" fill="#374151">Wandsbek Markt</text>
    <circle cx="454.6" cy="275.2" r="4" fill="#dc2626" stroke="#fff" stroke-width="2"/>
    <circle cx="408.7" cy="313.7" r="4" fill="#dc2626" stroke="#fff" stroke-width="2"/>
    <text x="408.7" y="305.7" text-anchor="middle" font-size="10" fill="#374151">Wartenau</text>
    <circle cx="339.6" cy="322.9" r="4" fill="#dc2626" stroke="#fff" stroke-width="2"/>
    <text x="339.6" y="314.9" text-anchor="middle" font-size="10" fill="#374151">Messehallen</text>
    <circle cx="488.2" cy="266.7" r="4" fill="#dc2626" stroke="#fff" stroke-width="2"/>
    <text x="488.2" y="258.7" text-anchor="middle" font-size="10" fill="#374151">Trabrennbahn</text>
    <circle cx="309.9" cy="237.0" r="4" fill="#dc2626" stroke="#fff" stroke-width="2"/>
    <text x="309.9" y="229.0" text-anchor="middle" font-size="10" fill="#374151">Niendorf Markt</text>
    <circle cx="311.0" cy="215.3" r="4" fill="#dc2626" stroke="#fff" stroke-width="2"/>
    <text x="311.0" y="207.3" text-anchor="middle" font-size="10" fill="#374151">Schippelsweg</text>
    <circle cx="403.9" cy="235.8" r="4" fill="#dc2626" stroke="#fff" stroke-width="2"/>
    <text x="403.9" y="227.8" text-anchor="middle" font-size="10" fill="#374151">Ohlsdorf</text>
    <circle cx="331.7" cy="309.6" r="4" fill="#dc2626" stroke="#fff" stroke-width="2"/>
    <text x="331.7" y="301.6" text-anchor="middle" font-size="10" fill="#374151">Schlump</text>
    <circle cx="493.0" cy="344.4" r="4" fill="#dc2626" stroke="#fff" stroke-width="2"/>
    <text x="493.0" y="336.4" text-anchor="middle" font-size="10" fill="#374151">Billstedt</text>
    <circle cx="416.5" cy="326.0" r="4" fill="#dc2626" stroke="#fff" stroke-width="2"/>
    <text x="416.5" y="318.0" text-anchor="middle" font-size="10" fill="#374151">Burgstraße</text>
    <circle cx="432.4" cy="326.3" r="4" fill="#dc2626" stroke="#fff" stroke-width="2"/>
    <text x="432.4" y="318.3" text-anchor="middle" font-size="10" fill="#374151">Hammer Kirche</text>
    <circle cx="465.9" cy="328.9" r="4" fill="#dc2626" stroke="#fff" stroke-width="2"/>
    <text x="465.9" y="320.9" text-anchor="middle" font-size="10" fill="#374151">Horner Rennbahn</text>
    <circle cx="479.5" cy="337.7" r="4" fill="#dc2626" stroke="#fff" stroke-width="2"/>
    <text x="479.5" y="329.7" text-anchor="middle" font-size="10" fill="#374151">Legienstraße</text>
    <circle cx="514.0" cy="349.9" r="4" fill="#dc2626" stroke="#fff" stroke-width="2"/>
    <text x="514.0" y="341.9" text-anchor="middle" font-size="10" fill="#374151">Merkenstraße</text>
    <circle cx="543.8" cy="364.6" r="4" fill="#dc2626" stroke="#fff" stroke-width="2"/>
    <text x="543.8" y="356.6" text-anchor="middle" font-size="10" fill="#374151">Mümmelmannsberg</text>
    <circle cx="531.1" cy="346.6" r="4" fill="#dc2626" stroke="#fff" stroke-width="2"/>
    <text x="531.1" y="338.6" text-anchor="middle" font-size="10" fill="#374151">Steinfurther Allee</text>
    <circle cx="531.9" cy="226.8" r="4" fill="#dc2626" stroke="#fff" stroke-width="2"/>
    <text x="531.9" y="218.8" text-anchor="middle" font-size="10" fill="#374151">Berne</text>
    <circle cx="398.6" cy="219.3" r="4" fill="#dc2626" stroke="#fff" stroke-width="2"/>
    <text x="398.6" y="211.3" text-anchor="middle" font-size="10" fill="#374151">Fuhlsbüttel</text>
    <circle cx="354.1" cy="302.3" r="4" fill="#dc2626" stroke="#fff" stroke-width="2"/>
    <text x="354.1" y="294.3" text-anchor="middle" font-size="10" fill="#374151">Hallerstraße</text>
    <circle cx="406.2" cy="225.5" r="4" fill="#dc2626" stroke="#fff" stroke-width="2"/>
    <text x="406.2" y="217.5" text-anchor="middle" font-size="10" fill="#374151">Klein Borstel</text>
    <circle cx="369.1" cy="155.7" r="4" fill="#dc2626" stroke="#fff" stroke-width="2"/>
    <text x="369.1" y="147.7" text-anchor="middle" font-size="10" fill="#374151">Ochsenzoll</text>
    <circle cx="362.4" cy="272.1" r="4" fill="#dc2626" stroke="#fff" stroke-width="2"/>
    <text x="362.4" y="264.1" text-anchor="middle" font-size="10" fill="#374151">Hudtwalckerstraße</text>
    <circle cx="368.3" cy="277.9" r="4" fill="#dc2626" stroke="#fff" stroke-width="2"/>
    <text x="368.3" y="269.9" text-anchor="middle" font-size="10" fill="#374151">Sierichstraße</text>
    <circle cx="444.9" cy="328.3" r="4" fill="#dc2626" stroke="#fff" stroke-width="2"/>
    <text x="444.9" y="320.3" text-anchor="middle" font-size="10" fill="#374151">Rauhes Haus</text>
    <circle cx="419.5" cy="282.3" r="4" fill="#dc2626" stroke="#fff" stroke-width="2"/>
    <text x="419.5" y="274.3" text-anchor="middle" font-size="10" fill="#374151">Barmbek</text>
    <circle cx="400.8" cy="320.4" r="4" fill="#dc2626" stroke="#fff" stroke-width="2"/>
    <text x="400.8" y="312.4" text-anchor="middle" font-size="10" fill="#374151">Lübecker Straße</text>
    <circle cx="394.4" cy="355.3" r="4" fill="#dc2626" stroke="#fff" stroke-width="2"/>
    <text x="394.4" y="347.3" text-anchor="middle" font-size="10" fill="#374151">Elbbrücken</text>
    <circle cx="559.3" cy="193.9" r="4" fill="#dc2626" stroke="#fff" stroke-width="2"/>
    <text x="559.3" y="185.9" text-anchor="middle" font-size="10" fill="#374151">Volksdorf</text>
    <circle cx="387.7" cy="179.6" r="4" fill="#dc2626" stroke="#fff" stroke-width="2"/>
    <text x="387.7" y="171.6" text-anchor="middle" font-size="10" fill="#374151">Langenhorn Nord</text>
    <circle cx="376.4" cy="347.3" r="4" fill="#dc2626" stroke="#fff" stroke-width="2"/>
    <circle cx="374.2" cy="328.4" r="4" fill="#dc2626" stroke="#fff" stroke-width="2"/>
    <text x="374.2" y="320.4" text-anchor="middle" font-size="10" fill="#374151">Hauptbahnhof Nord</text>
    <circle cx="380.8" cy="255.6" r="4" fill="#dc2626" stroke="#fff" stroke-width="2"/>
    <text x="380.8" y="247.6" text-anchor="middle" font-size="10" fill="#374151">Alsterdorf</text>
    <circle cx="360.7" cy="264.7" r="4" fill="#dc2626" stroke="#fff" stroke-width="2"/>
    <circle cx="384.4" cy="277.3" r="4" fill="#dc2626" stroke="#fff" stroke-width="2"/>
    <text x="384.4" y="269.3" text-anchor="middle" font-size="10" fill="#374151">Borgweg (Stadtpark)</text>
    <circle cx="310.0" cy="297.7" r="4" fill="#dc2626" stroke="#fff" stroke-width="2"/>
    <text x="310.0" y="289.7" text-anchor="middle" font-size="10" fill="#374151">Osterstraße</text>
    <circle cx="386.7" cy="209.8" r="4" fill="#dc2626" stroke="#fff" stroke-width="2"/>
    <text x="386.7" y="201.8" text-anchor="middle" font-size="10" fill="#374151">Fuhlsbüttel Nord</text>
    <circle cx="387.3" cy="196.4" r="4" fill="#dc2626" stroke="#fff" stroke-width="2"/>
    <text x="387.3" y="188.4" text-anchor="middle" font-size="10" fill="#374151">Langenhorn Markt</text>
    <circle cx="386.1" cy="160.0" r="4" fill="#dc2626" stroke="#fff" stroke-width="2"/>
    <text x="386.1" y="152.0" text-anchor="middle" font-size="10" fill="#374151">Kiwittsmoor</text>
    <circle cx="394.2" cy="329.3" r="4" fill="#dc2626" stroke="#fff" stroke-width="2"/>
    <text x="394.2" y="321.3" text-anchor="middle" font-size="10" fill="#374151">Berliner Tor</text>
    <circle cx="350.6" cy="146.8" r="4" fill="#dc2626" stroke="#fff" stroke-width="2"/>
    <text x="350.6" y="138.8" text-anchor="middle" font-size="10" fill="#374151">Garstedt</text>
    <circle cx="353.1" cy="290.0" r="4" fill="#dc2626" stroke="#fff" stroke-width="2"/>
    <text x="353.1" y="282.0" text-anchor="middle" font-size="10" fill="#374151">Klosterstern</text>
    <circle cx="550.5" cy="174.8" r="4" fill="#dc2626" stroke="#fff" stroke-width="2"/>
    <text x="550.5" y="166.8" text-anchor="middle" font-size="10" fill="#374151">Buckhorn</text>
    <circle cx="398.6" cy="313.7" r="4" fill="#dc2626" stroke="#fff" stroke-width="2"/>
    <text x="398.6" y="305.7" text-anchor="middle" font-size="10" fill="#374151">Uhlandstraße</text>
    <circle cx="528.6" cy="133.2" r="4" fill="#dc2626" stroke="#fff" stroke-width="2"/>
    <text x="528.6" y="125.2" text-anchor="middle" font-size="10" fill="#374151">Ohlstedt</text>
    <circle cx="652.5" cy="179.0" r="4" fill="#dc2626" stroke="#fff" stroke-width="2"/>
    <text x="652.5" y="171.0" text-anchor="middle" font-size="10" fill="#374151">Ahrensburg Ost</text>
    <circle cx="354.4" cy="321.9" r="4" fill="#dc2626" stroke="#fff" stroke-width="2"/>
    <circle cx="330.1" cy="324.5" r="4" fill="#dc2626" stroke="#fff" stroke-width="2"/>
    <circle cx="374.4" cy="335.1" r="4" fill="#dc2626" stroke="#fff" stroke-width="2"/>
    <text x="374.4" y="327.1" text-anchor="middle" font-size="10" fill="#374151">Steinstraße</text>
    <circle cx="389.3" cy="325.0" r="4" fill="#dc2626" stroke="#fff" stroke-width="2"/>
    <text x="389.3" y="317.0" text-anchor="middle" font-size="10" fill="#374151">Lohmühlenstraße</text>
    <circle cx="350.6" cy="326.2" r="4" fill="#dc2626" stroke="#fff" stroke-width="2"/>
    <text x="350.6" y="318.2" text-anchor="middle" font-size="10" fill="#374151">Gänsemarkt (Oper)</text>
    <circle cx="345.4" cy="342.2" r="4" fill="#dc2626" stroke="#fff" stroke-width="2"/>
    <circle cx="322.7" cy="306.9" r="4" fill="#dc2626" stroke="#fff" stroke-width="2"/>
    <text x="322.7" y="298.9" text-anchor="middle" font-size="10" fill="#374151">Christuskirche</text>
    <circle cx="392.8" cy="251.2" r="4" fill="#dc2626" stroke="#fff" stroke-width="2"/>
    <circle cx="434.9" cy="306.5" r="4" fill="#dc2626" stroke="#fff" stroke-width="2"/>
    <text x="434.9" y="298.5" text-anchor="middle" font-size="10" fill="#374151">Wandsbeker Chaussee</text>
    <circle cx="505.8" cy="254.4" r="4" fill="#dc2626" stroke="#fff" stroke-width="2"/>
    <text x="505.8" y="246.4" text-anchor="middle" font-size="10" fill="#374151">Farmsen</text>
    <circle cx="447.0" cy="289.5" r="4" fill="#dc2626" stroke="#fff" stroke-width="2"/>
    <text x="447.0" y="281.5" text-anchor="middle" font-size="10" fill="#374151">Straßburger Straße</text>
    <circle cx="301.1" cy="274.8" r="4" fill="#dc2626" stroke="#fff" stroke-width="2"/>
    <text x="301.1" y="266.8" text-anchor="middle" font-size="10" fill="#374151">Hagenbecks Tierpark</text>
    <circle cx="550.7" cy="210.7" r="4" fill="#dc2626" stroke="#fff" stroke-width="2"/>
    <text x="550.7" y="202.7" text-anchor="middle" font-size="10" fill="#374151">Meiendorfer Weg</text>
    <circle cx="308.2" cy="207.6" r="4" fill="#dc2626" stroke="#fff" stroke-width="2"/>
    <text x="308.2" y="199.6" text-anchor="middle" font-size="10" fill="#374151">Niendorf Nord</text>
    <circle cx="625.6" cy="174.5" r="4" fill="#dc2626" stroke="#fff" stroke-width="2"/>
    <text x="625.6" y="166.5" text-anchor="middle" font-size="10" fill="#374151">Ahrensburg West</text>
    <circle cx="360.0" cy="333.6" r="4" fill="#dc2626" stroke="#fff" stroke-width="2"/>
    <text x="360.0" y="325.6" text-anchor="middle" font-size="10" fill="#374151">Rathaus</text>
    <circle cx="330.7" cy="314.1" r="4" fill="#dc2626" stroke="#fff" stroke-width="2"/>
    <circle cx="331.7" cy="333.0" r="4" fill="#dc2626" stroke="#fff" stroke-width="2"/>
    <text x="331.7" y="325.0" text-anchor="middle" font-size="10" fill="#374151">St. Pauli</text>
    <circle cx="411.0" cy="300.0" r="4" fill="#dc2626" stroke="#fff" stroke-width="2"/>
    <text x="411.0" y="292.0" text-anchor="middle" font-size="10" fill="#374151">Hamburger Straße</text>
    <circle cx="422.0" cy="309.5" r="4" fill="#dc2626" stroke="#fff" stroke-width="2"/>
    <text x="422.0" y="301.5" text-anchor="middle" font-size="10" fill="#374151">Ritterstraße</text>
    <circle cx="349.7" cy="287.1" r="4" fill="#dc2626" stroke="#fff" stroke-width="2"/>
    <text x="349.7" y="279.1" text-anchor="middle" font-size="10" fill="#374151">Eppendorfer Baum</text>
    <circle cx="519.0" cy="239.9" r="4" fill="#dc2626" stroke="#fff" stroke-width="2"/>
    <text x="519.0" y="231.9" text-anchor="middle" font-size="10" fill="#374151">Oldenfelde</text>
    <circle cx="428.6" cy="273.4" r="4" fill="#dc2626" stroke="#fff" stroke-width="2"/>
    <text x="428.6" y="265.4" text-anchor="middle" font-size="10" fill="#374151">Habichtstraße</text>
  </g>
</svg>