<?xml version="1.0" encoding="UTF-8"?>
<svg width="800" height="600" xmlns="http://www.w3.org/2000/svg">
  <title>Hanoi Subway Map</title>
  <rect width="100%" height="100%" fill="#f8f9fa"/>

  <!-- 지하철 선로 -->
  <g stroke="#2563eb" stroke-width="2" fill="none" opacity="0.8">
    <polyline points="165.1,385.2 165.4,386.5 165.6,387.9"/>
    <polyline points="165.4,385.2 165.4,386.5 165.4,388.0"/>
    <polyline points="107.6,495.3 107.0,494.2 106.8,493.7 106.6,493.3 106.1,491.6 106.0,491.0 105.8,490.5 105.7,489.9 105.6,489.0 105.5,488.3 105.5,487.0 105.5,486.3 105.6,485.5 105.8,484.3 105.9,483.8 106.1,482.9 106.3,482.3 106.4,481.9 106.6,481.4 107.2,480.0 107.6,479.3 108.0,478.6 108.8,477.4 109.1,476.9 111.8,473.1 114.6,469.3 116.1,467.3 117.5,465.4 121.5,460.6 122.8,458.8 126.2,454.8 129.9,450.4 131.8,448.3 133.2,446.6 133.8,446.2 134.3,445.8 135.2,445.1 135.7,444.7 136.9,444.1 137.6,443.7 139.6,442.8 141.7,441.8 142.9,441.2 144.4,440.5 145.4,439.8 146.7,438.8 147.3,438.2 148.0,437.5 148.8,436.6 149.8,435.4 150.6,434.1 152.7,429.7 153.3,428.5 154.4,426.1 155.3,424.3 156.6,421.3 158.3,417.8 159.2,415.8 159.8,414.3 160.4,413.1 160.9,412.0 161.3,410.8 161.6,409.8 161.9,408.7 163.4,402.8 164.2,399.3 165.0,396.3 165.3,395.2 165.5,394.3 165.6,393.9 165.7,393.2 165.8,392.2 165.8,391.9 165.8,391.6 165.7,389.8 165.6,387.9"/>
    <polyline points="165.1,385.2 165.4,388.0 165.6,390.8 165.6,391.5 165.6,391.9 165.6,392.2 165.5,393.1 165.4,393.8 165.3,394.4 165.1,395.1 164.9,396.0 164.8,396.3 164.1,399.3 163.2,402.7 161.7,408.7 161.4,409.7 161.1,410.8 160.7,412.0 160.2,413.0 159.7,414.3 159.0,415.7 158.1,417.7 156.4,421.3 155.1,424.2 154.4,425.8 153.2,428.4 152.6,429.5 150.3,434.1 149.6,435.2 149.1,435.9 148.1,437.2 147.0,438.3 145.3,439.7 142.8,441.0 141.4,441.7 139.3,442.6 137.4,443.5 136.7,443.9 135.4,444.7 134.4,445.5 133.7,446.0 133.1,446.5 131.6,448.1 129.8,450.2 126.1,454.7 122.6,458.8 119.5,462.6 117.3,465.3 115.0,468.3 111.7,473.0 110.1,475.3 109.0,476.7 108.6,477.3 107.8,478.5 107.4,479.1 106.8,480.4 106.4,481.3 106.1,482.1 105.9,482.8 105.7,483.7 105.5,484.7 105.4,485.4 105.4,486.3 105.3,487.0 105.3,487.6 105.4,488.3 105.5,489.3 105.5,490.0 105.6,490.6 105.8,491.4 106.0,492.1 106.2,492.7 106.5,493.4 106.5,493.5 106.7,494.0 107.4,495.4"/>
    <polyline points="46.8,375.0 49.7,376.5 50.6,376.9 51.4,377.3 52.1,377.5 52.9,377.6 53.7,377.8 54.6,377.9 55.5,377.8 56.7,377.6 57.5,377.4 58.2,377.0 61.5,375.6 62.6,375.1 63.8,374.7 64.5,374.5 65.7,374.1 66.6,373.9 69.8,373.5 74.2,372.9"/>
    <polyline points="74.2,372.6 70.6,373.1 66.7,373.7 65.6,374.0 64.8,374.2 63.9,374.4 63.2,374.7 61.1,375.6 58.5,376.8 57.6,377.1 57.0,377.3 56.6,377.4 55.7,377.6 55.2,377.7 54.6,377.7 53.8,377.7 52.7,377.5 51.8,377.2 51.4,377.1 50.7,376.8 46.9,374.8"/>
    <polyline points="107.4,495.4 109.3,498.6 110.8,501.3 112.3,503.9 112.7,504.7 113.4,506.0 113.7,507.1 114.5,509.2 116.4,515.0 116.6,515.5 116.7,516.0 116.8,516.5 116.9,516.9 116.9,517.6 117.0,518.2 117.0,519.0 117.0,519.6 116.9,520.5 116.9,521.1 116.6,522.4 116.5,523.1 116.3,523.9 116.0,524.8 115.6,525.7 115.2,526.4 114.8,527.0 113.9,528.3 113.5,528.8 113.1,529.2 111.9,530.4 110.8,531.3 106.5,534.5 105.4,535.4 102.1,537.8 98.3,540.5 90.6,546.2 88.7,547.5 85.7,549.7 84.2,550.8 83.4,551.4 81.0,553.1 80.8,553.3 79.2,554.5 77.7,555.6 73.9,558.3 72.6,559.3 70.1,561.2 66.6,564.0 52.0,575.5 48.3,578.4"/>
    <polyline points="48.4,578.5 52.1,575.6 66.8,564.1 70.2,561.4 74.0,558.5 77.9,555.7 82.7,552.2 85.8,550.0 88.8,547.7 90.7,546.4 102.3,537.8 105.5,535.5 108.9,533.0 110.9,531.6 112.2,530.5 113.3,529.4 113.7,528.9 114.1,528.3 115.0,527.2 115.3,526.5 115.8,525.8 116.1,524.9 116.4,523.9 116.6,523.2 116.8,522.5 117.1,521.2 117.1,520.6 117.2,519.4 117.2,519.1 117.1,518.0 117.1,517.5 117.0,516.9 117.0,516.5 116.9,516.0 116.7,515.4 116.6,515.0 115.2,510.6 114.7,509.1 113.9,507.0 113.5,505.8 112.9,504.7 111.5,502.1 109.4,498.5 107.6,495.3"/>
    <polyline points="165.4,385.0 165.3,382.5 165.2,380.6 164.8,375.6"/>
    <polyline points="164.1,375.6 164.5,380.7 164.6,382.6 165.0,385.0"/>
    <polyline points="165.6,387.9 165.4,385.2 165.4,385.0"/>
    <polyline points="165.0,385.0 165.1,385.2"/>
    <polyline points="111.7,304.8 106.5,323.7 102.2,339.5 95.9,363.1"/>
  </g>

  <!-- 지하철 역 -->
  <g>
    <circle cx="164.7" cy="379.5" r="3" fill="#dc2626" stroke="#fff" stroke-width="1"/>
    <circle cx="155.2" cy="424.2" r="3" fill="#dc2626" stroke="#fff" stroke-width="1"/>
    <circle cx="126.3" cy="454.6" r="3" fill="#dc2626" stroke="#fff" stroke-width="1"/>
    <circle cx="109.6" cy="498.9" r="3" fill="#dc2626" stroke="#fff" stroke-width="1"/>
    <circle cx="90.7" cy="546.3" r="3" fill="#dc2626" stroke="#fff" stroke-width="1"/>
  </g>
</svg>