<?xml version="1.0" encoding="UTF-8"?>
<svg width="800" height="600" xmlns="http://www.w3.org/2000/svg">
  <title>Hefei Subway Map</title>
  <rect width="100%" height="100%" fill="#f8f9fa"/>

  <!-- 지하철 선로 -->
  <g stroke="#2563eb" stroke-width="2" fill="none" opacity="0.8">
    <polyline points="374.6,-548.2 375.2,-546.4 380.6,-529.8 384.3,-523.4 399.8,-508.6 411.0,-499.0 466.3,-449.2 474.0,-442.3 493.2,-424.8 511.1,-405.6 517.1,-398.6 520.9,-393.3 523.2,-388.4 525.5,-381.7 525.7,-377.9 523.6,-374.1 519.7,-370.6 493.9,-355.6 489.8,-351.8 487.2,-347.6 486.4,-343.4 489.2,-333.7 494.5,-315.7 497.6,-307.0 500.5,-299.0 512.8,-271.5 513.4,-268.0 513.6,-262.3 511.5,-250.8 508.6,-239.9 508.1,-235.1 508.6,-229.9 509.8,-225.9 512.0,-221.6 519.6,-213.3 528.3,-202.2 535.3,-190.9 541.6,-173.1 546.4,-160.0 549.0,-153.1 583.4,-98.8 585.3,-93.4 586.1,-65.3 587.9,-7.2 588.3,0.6 591.1,68.9 590.9,73.1 590.1,76.2 585.1,94.3 579.9,108.7 577.5,113.2 552.4,151.5 549.9,157.5 547.3,163.5 546.2,166.5 545.9,169.4 546.2,172.3 554.8,206.3 554.0,214.3 552.1,220.6 546.0,233.3 525.6,265.0 522.3,269.8 520.5,272.6 515.7,281.5 509.7,295.0 507.0,306.0 506.7,315.7 509.3,334.7 509.5,337.2 510.2,346.6 511.9,367.9 514.3,417.4 513.7,420.3 511.9,423.4 509.6,425.8 481.9,448.2 477.8,451.8 474.8,455.6 472.4,460.2 453.6,531.0 450.9,539.0 449.2,545.7 447.9,550.7 447.6,553.0 447.5,555.3 448.4,558.0 449.7,560.7 452.0,563.7 454.9,566.3 458.6,568.9 463.5,571.5 469.8,573.9 478.6,576.7 491.5,579.8 504.5,582.0 517.5,583.4 529.1,584.1 543.5,584.3 558.3,584.6 561.4,584.6 589.9,585.1 640.3,586.2 647.9,587.0 656.5,588.2 664.4,590.2 673.6,593.1 685.2,597.5 694.8,602.4 703.5,608.0"/>
    <polyline points="704.3,607.7 695.4,602.0 685.8,597.1 674.1,592.7 664.8,589.8 656.8,587.8 648.1,586.5 640.4,585.7 590.0,584.6 561.5,583.7 557.9,583.6 543.6,583.2 529.1,583.0 517.5,582.6 504.8,581.6 491.9,579.3 479.1,576.2 470.4,573.5 464.2,571.2 459.3,568.6 455.7,566.0 452.9,563.5 450.6,560.5 449.9,557.9 449.6,555.3 449.7,553.0 450.1,550.7 451.2,545.8 452.8,539.1 454.5,531.1 467.2,483.3 467.3,482.7 473.3,460.3 475.6,455.7 478.7,452.0 482.7,448.4 510.4,426.0 512.8,423.6 514.6,420.4 515.3,417.4 512.8,367.8 510.4,337.2 510.2,334.7 507.7,315.7 508.0,306.0 510.6,295.1 516.6,281.6 521.4,272.8 523.2,270.0 526.5,265.2 546.9,233.5 553.0,220.7 554.9,214.4 555.7,206.3 547.1,172.3 546.9,169.4 547.1,166.5 548.2,163.6 550.8,157.6 553.3,151.6 578.4,113.4 580.8,108.9 586.0,94.4 591.0,76.3 591.8,73.2 592.1,68.9 589.2,0.5 588.9,-7.2 587.1,-65.3 586.2,-93.4 584.3,-98.9 549.9,-153.2 547.3,-160.1 546.8,-161.6 542.5,-173.2 536.2,-191.0 529.2,-202.3 520.5,-213.5 512.9,-221.8 510.7,-226.0 509.5,-229.9 509.1,-235.0 509.6,-239.8 512.5,-250.7 514.5,-262.3 514.4,-268.0 513.8,-271.5 501.4,-299.1 498.5,-307.1 495.5,-315.7 490.2,-333.8 487.3,-343.4 488.1,-347.5 490.7,-351.6 494.7,-355.3 520.5,-370.3 524.4,-373.9 526.7,-377.8 526.4,-381.7 524.2,-388.5 521.8,-393.5 518.0,-398.8 511.9,-405.8 494.0,-425.0 474.8,-442.5 467.1,-449.4 451.5,-463.5 411.8,-499.2 400.6,-508.8 385.2,-523.6 381.5,-529.9 376.1,-546.5 375.5,-548.3"/>
    <polyline points="-1784.9,259.8 -1753.6,259.4 -1635.9,258.7 -1621.3,258.5 -1606.7,258.4 -1506.2,256.3 -1484.9,256.1 -1463.5,255.9 -1271.4,255.0 -1260.3,254.8 -1076.0,252.7 -1015.9,252.2 -1002.1,252.1 -983.8,252.1 -868.6,252.5 -852.0,252.6 -807.0,252.3 -796.4,252.0 -785.5,251.3 -771.4,250.0 -759.8,248.8 -748.2,247.6 -591.0,230.3 -574.5,228.6 -558.1,226.9 -440.6,215.5 -419.9,213.3 -399.1,211.1 -376.5,208.4 -360.5,207.2 -351.2,206.7 -337.2,206.6 -327.1,206.8 -313.7,207.5 -299.0,208.7 -288.4,209.8 -276.0,211.6 -264.0,213.7 -247.2,217.1 -226.3,221.3 -215.6,223.2 -205.0,225.0 -120.2,241.1 -106.7,243.7 -93.3,246.3 -72.9,249.5 -62.5,251.0 -43.5,253.0 -24.4,254.7 -11.8,255.3 15.1,256.1 30.8,256.3 43.6,256.3 56.4,256.3 76.8,255.3 87.5,254.7 96.8,254.1 113.2,252.5 124.3,251.1 150.5,247.6 167.1,244.0 186.0,239.7 241.7,226.4 261.7,222.1 281.6,217.7 382.9,194.6 396.7,191.6 410.4,188.5 497.1,170.2 502.3,169.1 507.6,168.4 526.5,166.5 543.7,164.8 561.0,163.1 586.7,160.8 605.2,159.3 619.4,158.8 638.4,158.7 676.1,159.4 694.3,160.1 715.1,161.3 724.6,161.7 734.2,161.9 755.2,160.6 776.2,159.2 807.8,156.7 833.8,154.5 840.5,153.6 849.2,152.2 859.1,150.1 872.3,147.0 882.8,144.8 895.9,142.7 909.8,141.0 925.1,139.5 940.5,138.0 951.7,136.8 963.1,135.6 975.2,133.6 991.6,130.2 1003.1,127.7 1070.5,112.6 1083.6,110.0 1093.6,108.4 1104.6,107.2 1115.7,105.9 1123.9,105.4 1132.1,105.2 1173.1,105.5 1248.3,106.0 1262.9,106.2 1277.5,106.3 1315.9,106.6 1370.9,106.5 1399.7,106.2 1436.3,105.9 1472.9,105.6 1637.7,104.2 1653.2,104.1 1668.8,104.0 1868.8,102.0 1879.3,102.0 1890.7,101.9 1984.5,101.5 2005.5,101.3 2026.4,101.1 2206.1,98.2 2235.2,97.7 2249.9,97.4 2266.9,97.2 2288.0,96.9 2318.5,96.4 2348.9,95.9 2423.8,94.2"/>
    <polyline points="2423.8,93.9 2348.9,95.6 2318.4,96.1 2288.0,96.6 2266.9,96.9 2249.9,97.1 2235.2,97.4 2206.1,97.9 2026.4,100.8 2005.4,101.0 1984.5,101.1 1890.7,101.6 1879.3,101.7 1867.8,101.7 1668.8,103.6 1653.2,103.8 1637.7,103.9 1472.8,105.3 1436.3,105.6 1399.7,105.9 1370.9,106.1 1315.9,106.3 1277.5,106.0 1262.9,105.8 1248.3,105.7 1173.1,105.2 1132.1,104.9 1123.9,105.0 1115.5,105.6 1104.5,106.9 1093.5,108.1 1083.4,109.7 1070.3,112.3 1002.8,127.4 991.4,129.9 975.0,133.3 962.9,135.3 951.6,136.5 940.3,137.7 925.0,139.2 909.7,140.7 895.8,142.4 882.6,144.5 872.0,146.7 858.9,149.8 849.0,151.9 840.3,153.3 833.6,154.2 807.7,156.4 776.1,158.9 755.1,160.2 734.2,161.6 724.6,161.4 715.2,161.0 694.3,159.8 676.1,159.1 638.4,158.3 619.4,158.5 605.2,158.9 586.6,160.4 560.9,162.8 543.6,164.5 526.3,166.2 507.5,168.1 502.1,168.8 496.8,169.9 410.2,188.2 396.4,191.3 382.7,194.3 281.4,217.4 261.4,221.8 241.5,226.1 185.7,239.5 166.9,243.7 150.3,247.3 124.2,250.8 113.0,252.2 96.7,253.7 87.4,254.4 76.7,255.0 56.3,256.0 43.6,256.0 30.8,256.0 15.1,255.8 -11.7,255.0 -24.3,254.3 -43.4,252.7 -62.4,250.7 -72.7,249.2 -93.1,246.0 -106.5,243.4 -120.0,240.8 -204.8,224.7 -215.5,222.9 -226.1,221.0 -247.0,216.8 -263.8,213.4 -275.8,211.3 -288.2,209.5 -298.9,208.4 -313.6,207.1 -327.0,206.5 -337.2,206.3 -351.3,206.4 -360.5,206.9 -376.6,208.1 -399.3,210.8 -420.0,213.0 -440.7,215.2 -558.2,226.6 -574.7,228.3 -591.2,230.0 -748.3,247.3 -759.9,248.5 -771.5,249.7 -785.6,251.0 -796.5,251.7 -807.0,251.9 -852.0,252.2 -868.6,252.2 -983.8,251.8 -1002.1,251.7 -1015.9,251.9 -1076.0,252.4 -1260.3,254.5 -1271.4,254.7 -1463.5,255.6 -1484.9,255.8 -1506.3,255.9 -1606.8,258.1 -1621.4,258.2 -1635.9,258.4 -1753.6,259.1 -1785.0,259.4"/>
  </g>

  <!-- 지하철 역 -->
  <g>
    <circle cx="543.7" cy="164.7" r="3" fill="#dc2626" stroke="#fff" stroke-width="1"/>
    <circle cx="396.6" cy="191.4" r="3" fill="#dc2626" stroke="#fff" stroke-width="1"/>
    <circle cx="261.5" cy="221.9" r="3" fill="#dc2626" stroke="#fff" stroke-width="1"/>
    <circle cx="689.5" cy="438.5" r="3" fill="#dc2626" stroke="#fff" stroke-width="1"/>
    <circle cx="475.8" cy="454.9" r="3" fill="#dc2626" stroke="#fff" stroke-width="1"/>
    <circle cx="289.2" cy="443.0" r="3" fill="#dc2626" stroke="#fff" stroke-width="1"/>
    <circle cx="118.9" cy="436.9" r="3" fill="#dc2626" stroke="#fff" stroke-width="1"/>
    <circle cx="450.3" cy="545.8" r="3" fill="#dc2626" stroke="#fff" stroke-width="1"/>
    <circle cx="510.0" cy="337.2" r="3" fill="#dc2626" stroke="#fff" stroke-width="1"/>
    <circle cx="522.9" cy="269.8" r="3" fill="#dc2626" stroke="#fff" stroke-width="1"/>
    <circle cx="590.5" cy="76.3" r="3" fill="#dc2626" stroke="#fff" stroke-width="1"/>
  </g>
</svg>