<?xml version="1.0" encoding="UTF-8"?>
<svg width="800" height="600" viewBox="0 0 800 600" 
     xmlns="http://www.w3.org/2000/svg">
  <title>Helsinki Subway Map</title>
  <rect width="100%" height="100%" fill="#f8f9fa"/>

  <!-- 지하철 선로 -->
  <g id="subway-lines" stroke="#2563eb" stroke-width="3" fill="none">
    <polyline points="719.2,377.4 721.3,376.6 725.7,374.6 728.4,373.3 729.9,372.4 730.8,371.8" opacity="0.8"/>
    <polyline points="730.8,371.8 731.4,371.3 732.1,370.8 735.1,368.2 740.1,363.9 745.9,359.1 748.7,356.6 751.5,354.3 754.2,352.1 755.6,351.0 756.5,350.3 758.8,348.5 761.5,346.4 762.9,345.4" opacity="0.8"/>
    <polyline points="548.5,390.3 552.3,390.7 555.2,391.1 556.9,391.3 557.8,391.4" opacity="0.8"/>
    <polyline points="423.7,442.0 424.1,443.0 425.6,444.1 428.0,445.6 429.7,446.3 434.0,447.2 437.5,447.6 440.6,447.5 442.9,447.3 445.6,446.6 447.4,446.0" opacity="0.8"/>
    <polyline points="698.9,382.3 699.8,381.9 700.6,381.6 701.6,381.3" opacity="0.8"/>
    <polyline points="701.6,381.3 702.7,381.0 703.9,380.6 705.1,380.3 706.3,380.1 707.9,379.7 709.6,379.4 712.1,379.1 713.2,378.9 714.4,378.6 715.4,378.4 716.2,378.2 717.2,378.0 718.4,377.6 719.2,377.4" opacity="0.8"/>
    <polyline points="686.5,387.4 689.3,386.5" opacity="0.8"/>
    <polyline points="689.3,386.5 691.1,385.8 692.4,385.2 693.3,384.9 695.0,384.1 696.9,383.2 698.9,382.3" opacity="0.8"/>
    <polyline points="676.6,389.6 679.1,389.2 680.8,388.9 682.0,388.6 682.8,388.4 683.7,388.2 685.4,387.8 686.5,387.4" opacity="0.8"/>
    <polyline points="675.4,389.8 676.6,389.6" opacity="0.8"/>
    <polyline points="626.1,398.1 623.5,398.2" opacity="0.8"/>
    <polyline points="623.5,398.2 622.5,398.3 620.1,398.4 618.9,398.4 617.8,398.5 616.2,398.5 614.9,398.5 614.2,398.5 613.4,398.5 611.8,398.4 610.3,398.3 608.6,398.1 606.8,397.9" opacity="0.8"/>
    <polyline points="557.9,391.3 555.3,390.9 552.4,390.5 550.1,390.2 548.5,390.1" opacity="0.8"/>
    <polyline points="574.4,394.3 573.2,394.2 571.6,393.9 570.2,393.7 568.8,393.4 565.7,392.8 563.8,392.4 562.1,392.1 560.3,391.7 559.1,391.5 557.9,391.3" opacity="0.8"/>
    <polyline points="557.8,391.4 559.0,391.6 560.2,391.8 562.1,392.1 563.7,392.5 565.6,392.9 568.7,393.5 570.1,393.8 571.5,394.0 573.2,394.3 574.3,394.4" opacity="0.8"/>
    <polyline points="588.1,395.9 586.0,395.6 581.7,395.1 575.1,394.4 574.4,394.3" opacity="0.8"/>
    <polyline points="606.8,397.9 590.1,396.1 588.1,395.9" opacity="0.8"/>
    <polyline points="384.8,460.6 386.6,460.7 388.5,460.8 390.3,460.9 392.1,460.9 396.2,460.8 399.3,460.7 400.9,460.7 402.3,460.8 403.7,460.9" opacity="0.8"/>
    <polyline points="459.4,443.1 462.4,441.9 464.1,441.4 465.7,441.1 467.9,440.7" opacity="0.8"/>
    <polyline points="574.3,394.4 579.7,395.0 583.5,395.4 584.2,395.5 588.1,395.9" opacity="0.8"/>
    <polyline points="588.1,395.9 590.2,396.2 606.7,398.0" opacity="0.8"/>
    <polyline points="606.7,398.0 608.5,398.2 610.2,398.4 611.8,398.5 613.4,398.6 615.0,398.6 616.2,398.6 617.0,398.6 617.8,398.6 619.4,398.5 620.1,398.5 623.5,398.3" opacity="0.8"/>
    <polyline points="623.5,398.3 625.7,398.2" opacity="0.8"/>
    <polyline points="625.7,398.2 627.0,398.1 628.3,398.0 629.6,397.8 630.8,397.7 632.4,397.5 633.9,397.2 635.4,396.9 636.9,396.6 638.3,396.2 639.5,395.9 640.1,395.7 641.0,395.4 643.2,394.7 644.7,394.2 646.1,393.7 647.3,393.4 648.2,393.2 649.4,392.9 650.4,392.6 651.6,392.4 652.5,392.2 653.6,392.1 655.0,391.9 656.1,391.7 657.1,391.6 664.9,390.9 667.9,390.6 672.2,390.2 675.4,389.8" opacity="0.8"/>
    <polyline points="762.4,345.3 761.1,346.3 758.3,348.6 756.8,349.8 755.2,351.1 751.3,354.2 748.6,356.6 745.7,359.0 740.0,363.8 735.0,368.1 732.5,370.2 731.8,370.7 731.2,371.2 730.8,371.5 730.4,371.8" opacity="0.8"/>
    <polyline points="730.4,371.8 729.4,372.3 721.7,375.9 720.9,376.3 718.9,377.2" opacity="0.8"/>
    <polyline points="718.9,377.2 718.1,377.5 717.1,377.8 716.1,378.1 715.3,378.3 714.3,378.5 713.1,378.8 712.0,379.0 709.6,379.4 707.9,379.6 706.2,380.0 705.0,380.3 703.8,380.6 702.6,380.9 701.5,381.2" opacity="0.8"/>
    <polyline points="701.5,381.2 700.5,381.6 699.6,381.9 698.8,382.2" opacity="0.8"/>
    <polyline points="698.8,382.2 696.8,383.1 694.8,384.0 693.2,384.8 692.3,385.2 691.0,385.7 689.2,386.4" opacity="0.8"/>
    <polyline points="689.2,386.4 686.4,387.3" opacity="0.8"/>
    <polyline points="686.4,387.3 685.3,387.6 683.7,388.1 682.8,388.3 682.0,388.5 681.1,388.7 679.0,389.0 676.5,389.4" opacity="0.8"/>
    <polyline points="676.5,389.4 675.4,389.6" opacity="0.8"/>
    <polyline points="675.4,389.6 672.2,390.0 667.7,390.4 660.3,391.1 658.0,391.3 656.7,391.4 655.6,391.5 654.8,391.6 653.7,391.8 652.5,392.0 651.4,392.2 650.2,392.5 648.9,392.8 648.0,393.0 647.0,393.3 645.4,393.8 644.2,394.2 643.1,394.6 640.9,395.3 640.1,395.6 639.5,395.8 638.2,396.1 636.8,396.5 635.3,396.8 633.9,397.1 632.4,397.4 630.8,397.6 629.6,397.7 628.3,397.9 627.1,398.0 626.1,398.1" opacity="0.8"/>
    <polyline points="672.2,390.2 671.1,390.3 670.0,390.3 669.0,390.3 667.7,390.4" opacity="0.8"/>
    <polyline points="667.9,390.6 669.1,390.5 670.0,390.3 671.1,390.1 672.2,390.0" opacity="0.8"/>
    <polyline points="451.2,445.8 455.7,444.3 459.4,443.1 461.3,442.6 463.2,442.2 465.4,441.8 467.7,441.6 469.7,441.4 472.3,441.3 476.8,441.2 481.4,441.1 483.8,441.0 485.6,440.8 487.8,440.4 489.7,440.0 491.5,439.7 493.6,439.2 495.5,438.6 495.6,438.5 496.9,438.0 497.9,437.4 501.1,434.3 502.1,433.3 504.1,431.2 504.8,429.9 505.0,429.0 505.0,427.4 504.8,424.5 503.7,411.9 503.5,410.2 503.6,409.4 503.9,408.6 504.3,408.0 504.8,407.4 506.6,406.1 509.3,404.7 511.9,404.0 512.4,403.9 516.0,403.2 520.9,402.3 524.1,400.9 526.7,399.5 530.5,396.2 532.1,394.8 533.4,393.6 534.9,392.5 537.2,391.3 538.7,390.7 540.5,390.4 542.4,390.1 544.3,390.0 546.2,390.1 548.5,390.3" opacity="0.8"/>
    <polyline points="581.7,395.1 582.3,395.2 582.9,395.4 583.5,395.4" opacity="0.8"/>
    <polyline points="584.2,395.5 584.7,395.6 585.4,395.6 586.0,395.6" opacity="0.8"/>
    <polyline points="446.3,447.5 443.4,448.5 442.4,448.6" opacity="0.8"/>
    <polyline points="445.6,446.6 443.2,447.4 440.8,447.7 437.5,447.7 434.0,447.4 432.4,447.0 430.2,446.6" opacity="0.8"/>
    <polyline points="441.2,448.7 438.2,448.6 434.9,448.2 432.4,447.6 430.6,446.8 430.2,446.6 429.7,446.3" opacity="0.8"/>
    <polyline points="442.4,448.6 441.2,448.7" opacity="0.8"/>
    <polyline points="402.3,460.3 400.3,460.6 399.3,460.7" opacity="0.8"/>
    <polyline points="402.3,460.8 400.3,460.6 399.2,460.4" opacity="0.8"/>
    <polyline points="422.1,459.9 418.1,459.5" opacity="0.8"/>
    <polyline points="548.5,390.1 548.0,390.0 545.9,389.8 543.8,389.7 541.7,389.7 539.6,390.0 537.6,390.3 535.6,390.9 533.2,392.1 530.9,393.5 526.5,397.6 525.7,398.2 524.8,399.0 522.3,400.5 519.2,401.7 515.2,402.6 510.9,403.5 508.0,404.3 505.7,405.7 503.8,407.3 503.1,408.1 502.6,409.1 502.5,409.7 502.5,410.7 503.0,414.4 504.1,424.1 504.2,426.4 504.2,426.7 504.0,428.8 503.4,430.0 502.4,431.1 498.6,434.3 497.2,435.4 497.1,435.5 495.2,437.2 494.1,437.9 492.9,438.4 491.4,438.9 489.7,439.4 487.8,439.8 486.0,440.0 483.9,440.3 482.2,440.3 472.4,440.6 470.0,440.6 467.9,440.7 465.8,440.9 464.0,441.1 462.6,441.3 460.8,441.6 459.4,442.0 451.0,444.8 450.2,445.1" opacity="0.8"/>
    <polyline points="120.3,422.8 121.1,422.0 121.8,421.4 122.5,420.6 123.0,419.9 123.5,419.2 124.3,418.1 125.0,417.0 127.2,413.6 129.3,410.3 129.9,409.4 130.6,408.6 131.3,408.0" opacity="0.8"/>
    <polyline points="9.3,433.3 11.1,432.6 13.0,432.0 15.0,431.5 17.2,431.0 19.5,430.6 22.0,430.2 24.7,429.9 27.4,429.8 31.0,429.8 36.2,429.8 40.7,429.8 42.8,429.8 44.5,429.9 48.9,429.9 52.6,429.9 55.8,430.0 61.2,430.2 68.4,430.5" opacity="0.8"/>
    <polyline points="68.4,430.5 73.9,430.8 76.3,430.8 78.4,430.9 80.7,430.9 82.9,430.9 85.4,430.7 87.6,430.5 89.7,430.3 91.4,430.0 92.7,429.8 94.1,429.7 98.3,429.1 102.7,428.5 104.1,428.3" opacity="0.8"/>
    <polyline points="169.9,404.7 171.1,405.0 172.3,405.5 173.7,406.1 175.0,406.7 176.2,407.4 177.7,408.5 178.9,409.7 179.7,410.8 180.3,412.0 180.6,413.1 180.7,414.1 180.5,415.1 180.3,415.9 179.9,416.8 179.2,417.9 178.1,419.2 176.9,420.6 175.3,422.5 173.1,424.8 172.2,425.9 170.5,427.9 168.2,430.6" opacity="0.8"/>
  </g>

  <!-- 지하철 역 -->
  <g id="subway-stations">
    <circle cx="723.2" cy="375.5" r="4" fill="#dc2626" stroke="#fff" stroke-width="2"/>
    <text x="723.2" y="367.5" text-anchor="middle" font-size="10" fill="#374151">Herttoniemi</text>
    <circle cx="662.5" cy="391.0" r="4" fill="#dc2626" stroke="#fff" stroke-width="2"/>
    <text x="662.5" y="383.0" text-anchor="middle" font-size="10" fill="#374151">Kulosaari</text>
    <circle cx="408.4" cy="460.3" r="4" fill="#dc2626" stroke="#fff" stroke-width="2"/>
    <text x="408.4" y="452.3" text-anchor="middle" font-size="10" fill="#374151">Ruoholahti</text>
    <circle cx="527.9" cy="397.1" r="4" fill="#dc2626" stroke="#fff" stroke-width="2"/>
    <text x="527.9" y="389.1" text-anchor="middle" font-size="10" fill="#374151">Sörnäinen</text>
    <circle cx="503.4" cy="413.6" r="4" fill="#dc2626" stroke="#fff" stroke-width="2"/>
    <text x="503.4" y="405.6" text-anchor="middle" font-size="10" fill="#374151">Hakaniemi</text>
    <circle cx="499.1" cy="434.4" r="4" fill="#dc2626" stroke="#fff" stroke-width="2"/>
    <text x="499.1" y="426.4" text-anchor="middle" font-size="10" fill="#374151">Helsingin yliopisto</text>
    <circle cx="475.1" cy="440.9" r="4" fill="#dc2626" stroke="#fff" stroke-width="2"/>
    <text x="475.1" y="432.9" text-anchor="middle" font-size="10" fill="#374151">Rautatientori</text>
    <circle cx="452.6" cy="444.5" r="4" fill="#dc2626" stroke="#fff" stroke-width="2"/>
    <text x="452.6" y="436.5" text-anchor="middle" font-size="10" fill="#374151">Kamppi</text>
    <circle cx="155.9" cy="402.8" r="4" fill="#dc2626" stroke="#fff" stroke-width="2"/>
    <text x="155.9" y="394.8" text-anchor="middle" font-size="10" fill="#374151">Aalto-yliopisto</text>
    <circle cx="172.1" cy="426.6" r="4" fill="#dc2626" stroke="#fff" stroke-width="2"/>
    <text x="172.1" y="418.6" text-anchor="middle" font-size="10" fill="#374151">Keilaniemi</text>
    <circle cx="238.8" cy="459.3" r="4" fill="#dc2626" stroke="#fff" stroke-width="2"/>
    <text x="238.8" y="451.3" text-anchor="middle" font-size="10" fill="#374151">Koivusaari</text>
    <circle cx="307.2" cy="470.4" r="4" fill="#dc2626" stroke="#fff" stroke-width="2"/>
    <text x="307.2" y="462.4" text-anchor="middle" font-size="10" fill="#374151">Lauttasaari</text>
    <circle cx="101.7" cy="428.3" r="4" fill="#dc2626" stroke="#fff" stroke-width="2"/>
    <text x="101.7" y="420.3" text-anchor="middle" font-size="10" fill="#374151">Tapiola</text>
    <circle cx="576.7" cy="394.6" r="4" fill="#dc2626" stroke="#fff" stroke-width="2"/>
    <text x="576.7" y="386.6" text-anchor="middle" font-size="10" fill="#374151">Kalasatama</text>
  </g>
</svg>