<?xml version="1.0" encoding="UTF-8"?>
<svg width="800" height="600" xmlns="http://www.w3.org/2000/svg">
  <title>Helsinki Subway Map</title>
  <rect width="100%" height="100%" fill="#f8f9fa"/>

  <!-- 지하철 선로 -->
  <g stroke="#2563eb" stroke-width="2" fill="none" opacity="0.8">
    <polyline points="719.2,377.4 721.3,376.6 725.7,374.6 728.4,373.3 729.9,372.4 730.8,371.8"/>
    <polyline points="730.8,371.8 731.4,371.3 732.1,370.8 735.1,368.2 740.1,363.9 745.9,359.1 748.7,356.6 751.5,354.3 754.2,352.1 755.6,351.0 756.5,350.3 758.8,348.5 761.5,346.4 762.9,345.4"/>
    <polyline points="548.5,390.3 552.3,390.7 555.2,391.1 556.9,391.3 557.8,391.4"/>
    <polyline points="423.7,442.0 424.1,443.0 425.6,444.1 428.0,445.6 429.7,446.3 434.0,447.2 437.5,447.6 440.6,447.5 442.9,447.3 445.6,446.6 447.4,446.0"/>
    <polyline points="698.9,382.3 699.8,381.9 700.6,381.6 701.6,381.3"/>
    <polyline points="701.6,381.3 702.7,381.0 703.9,380.6 705.1,380.3 706.3,380.1 707.9,379.7 709.6,379.4 712.1,379.1 713.2,378.9 714.4,378.6 715.4,378.4 716.2,378.2 717.2,378.0 718.4,377.6 719.2,377.4"/>
    <polyline points="686.5,387.4 689.3,386.5"/>
    <polyline points="689.3,386.5 691.1,385.8 692.4,385.2 693.3,384.9 695.0,384.1 696.9,383.2 698.9,382.3"/>
    <polyline points="676.6,389.6 679.1,389.2 680.8,388.9 682.0,388.6 682.8,388.4 683.7,388.2 685.4,387.8 686.5,387.4"/>
    <polyline points="675.4,389.8 676.6,389.6"/>
    <polyline points="626.1,398.1 623.5,398.2"/>
    <polyline points="623.5,398.2 622.5,398.3 620.1,398.4 618.9,398.4 617.8,398.5 616.2,398.5 614.9,398.5 614.2,398.5 613.4,398.5 611.8,398.4 610.3,398.3 608.6,398.1 606.8,397.9"/>
    <polyline points="557.9,391.3 555.3,390.9 552.4,390.5 550.1,390.2 548.5,390.1"/>
    <polyline points="574.4,394.3 573.2,394.2 571.6,393.9 570.2,393.7 568.8,393.4 565.7,392.8 563.8,392.4 562.1,392.1 560.3,391.7 559.1,391.5 557.9,391.3"/>
    <polyline points="557.8,391.4 559.0,391.6 560.2,391.8 562.1,392.1 563.7,392.5 565.6,392.9 568.7,393.5 570.1,393.8 571.5,394.0 573.2,394.3 574.3,394.4"/>
    <polyline points="588.1,395.9 586.0,395.6 581.7,395.1 575.1,394.4 574.4,394.3"/>
    <polyline points="606.8,397.9 590.1,396.1 588.1,395.9"/>
    <polyline points="384.8,460.6 386.6,460.7 388.5,460.8 390.3,460.9 392.1,460.9 396.2,460.8 399.3,460.7 400.9,460.7 402.3,460.8 403.7,460.9"/>
    <polyline points="459.4,443.1 462.4,441.9 464.1,441.4 465.7,441.1 467.9,440.7"/>
    <polyline points="574.3,394.4 579.7,395.0 583.5,395.4 584.2,395.5 588.1,395.9"/>
    <polyline points="588.1,395.9 590.2,396.2 606.7,398.0"/>
    <polyline points="606.7,398.0 608.5,398.2 610.2,398.4 611.8,398.5 613.4,398.6 615.0,398.6 616.2,398.6 617.0,398.6 617.8,398.6 619.4,398.5 620.1,398.5 623.5,398.3"/>
    <polyline points="623.5,398.3 625.7,398.2"/>
    <polyline points="625.7,398.2 627.0,398.1 628.3,398.0 629.6,397.8 630.8,397.7 632.4,397.5 633.9,397.2 635.4,396.9 636.9,396.6 638.3,396.2 639.5,395.9 640.1,395.7 641.0,395.4 643.2,394.7 644.7,394.2 646.1,393.7 647.3,393.4 648.2,393.2 649.4,392.9 650.4,392.6 651.6,392.4 652.5,392.2 653.6,392.1 655.0,391.9 656.1,391.7 657.1,391.6 664.9,390.9 667.9,390.6 672.2,390.2 675.4,389.8"/>
    <polyline points="762.4,345.3 761.1,346.3 758.3,348.6 756.8,349.8 755.2,351.1 751.3,354.2 748.6,356.6 745.7,359.0 740.0,363.8 735.0,368.1 732.5,370.2 731.8,370.7 731.2,371.2 730.8,371.5 730.4,371.8"/>
    <polyline points="730.4,371.8 729.4,372.3 721.7,375.9 720.9,376.3 718.9,377.2"/>
    <polyline points="718.9,377.2 718.1,377.5 717.1,377.8 716.1,378.1 715.3,378.3 714.3,378.5 713.1,378.8 712.0,379.0 709.6,379.4 707.9,379.6 706.2,380.0 705.0,380.3 703.8,380.6 702.6,380.9 701.5,381.2"/>
    <polyline points="701.5,381.2 700.5,381.6 699.6,381.9 698.8,382.2"/>
    <polyline points="698.8,382.2 696.8,383.1 694.8,384.0 693.2,384.8 692.3,385.2 691.0,385.7 689.2,386.4"/>
    <polyline points="689.2,386.4 686.4,387.3"/>
    <polyline points="686.4,387.3 685.3,387.6 683.7,388.1 682.8,388.3 682.0,388.5 681.1,388.7 679.0,389.0 676.5,389.4"/>
    <polyline points="676.5,389.4 675.4,389.6"/>
    <polyline points="675.4,389.6 672.2,390.0 667.7,390.4 660.3,391.1 658.0,391.3 656.7,391.4 655.6,391.5 654.8,391.6 653.7,391.8 652.5,392.0 651.4,392.2 650.2,392.5 648.9,392.8 648.0,393.0 647.0,393.3 645.4,393.8 644.2,394.2 643.1,394.6 640.9,395.3 640.1,395.6 639.5,395.8 638.2,396.1 636.8,396.5 635.3,396.8 633.9,397.1 632.4,397.4 630.8,397.6 629.6,397.7 628.3,397.9 627.1,398.0 626.1,398.1"/>
    <polyline points="672.2,390.2 671.1,390.3 670.0,390.3 669.0,390.3 667.7,390.4"/>
    <polyline points="667.9,390.6 669.1,390.5 670.0,390.3 671.1,390.1 672.2,390.0"/>
    <polyline points="451.2,445.8 455.7,444.3 459.4,443.1 461.3,442.6 463.2,442.2 465.4,441.8 467.7,441.6 469.7,441.4 472.3,441.3 476.8,441.2 481.4,441.1 483.8,441.0 485.6,440.8 487.8,440.4 489.7,440.0 491.5,439.7 493.6,439.2 495.5,438.6 495.6,438.5 496.9,438.0 497.9,437.4 501.1,434.3 502.1,433.3 504.1,431.2 504.8,429.9 505.0,429.0 505.0,427.4 504.8,424.5 503.7,411.9 503.5,410.2 503.6,409.4 503.9,408.6 504.3,408.0 504.8,407.4 506.6,406.1 509.3,404.7 511.9,404.0 512.4,403.9 516.0,403.2 520.9,402.3 524.1,400.9 526.7,399.5 530.5,396.2 532.1,394.8 533.4,393.6 534.9,392.5 537.2,391.3 538.7,390.7 540.5,390.4 542.4,390.1 544.3,390.0 546.2,390.1 548.5,390.3"/>
    <polyline points="581.7,395.1 582.3,395.2 582.9,395.4 583.5,395.4"/>
    <polyline points="584.2,395.5 584.7,395.6 585.4,395.6 586.0,395.6"/>
    <polyline points="446.3,447.5 443.4,448.5 442.4,448.6"/>
    <polyline points="445.6,446.6 443.2,447.4 440.8,447.7 437.5,447.7 434.0,447.4 432.4,447.0 430.2,446.6"/>
    <polyline points="441.2,448.7 438.2,448.6 434.9,448.2 432.4,447.6 430.6,446.8 430.2,446.6 429.7,446.3"/>
    <polyline points="442.4,448.6 441.2,448.7"/>
    <polyline points="402.3,460.3 400.3,460.6 399.3,460.7"/>
    <polyline points="402.3,460.8 400.3,460.6 399.2,460.4"/>
    <polyline points="422.1,459.9 418.1,459.5"/>
    <polyline points="548.5,390.1 548.0,390.0 545.9,389.8 543.8,389.7 541.7,389.7 539.6,390.0 537.6,390.3 535.6,390.9 533.2,392.1 530.9,393.5 526.5,397.6 525.7,398.2 524.8,399.0 522.3,400.5 519.2,401.7 515.2,402.6 510.9,403.5 508.0,404.3 505.7,405.7 503.8,407.3 503.1,408.1 502.6,409.1 502.5,409.7 502.5,410.7 503.0,414.4 504.1,424.1 504.2,426.4 504.2,426.7 504.0,428.8 503.4,430.0 502.4,431.1 498.6,434.3 497.2,435.4 497.1,435.5 495.2,437.2 494.1,437.9 492.9,438.4 491.4,438.9 489.7,439.4 487.8,439.8 486.0,440.0 483.9,440.3 482.2,440.3 472.4,440.6 470.0,440.6 467.9,440.7 465.8,440.9 464.0,441.1 462.6,441.3 460.8,441.6 459.4,442.0 451.0,444.8 450.2,445.1"/>
    <polyline points="120.3,422.8 121.1,422.0 121.8,421.4 122.5,420.6 123.0,419.9 123.5,419.2 124.3,418.1 125.0,417.0 127.2,413.6 129.3,410.3 129.9,409.4 130.6,408.6 131.3,408.0"/>
    <polyline points="9.3,433.3 11.1,432.6 13.0,432.0 15.0,431.5 17.2,431.0 19.5,430.6 22.0,430.2 24.7,429.9 27.4,429.8 31.0,429.8 36.2,429.8 40.7,429.8 42.8,429.8 44.5,429.9 48.9,429.9 52.6,429.9 55.8,430.0 61.2,430.2 68.4,430.5"/>
    <polyline points="68.4,430.5 73.9,430.8 76.3,430.8 78.4,430.9 80.7,430.9 82.9,430.9 85.4,430.7 87.6,430.5 89.7,430.3 91.4,430.0 92.7,429.8 94.1,429.7 98.3,429.1 102.7,428.5 104.1,428.3"/>
    <polyline points="169.9,404.7 171.1,405.0 172.3,405.5 173.7,406.1 175.0,406.7 176.2,407.4 177.7,408.5 178.9,409.7 179.7,410.8 180.3,412.0 180.6,413.1 180.7,414.1 180.5,415.1 180.3,415.9 179.9,416.8 179.2,417.9 178.1,419.2 176.9,420.6 175.3,422.5 173.1,424.8 172.2,425.9 170.5,427.9 168.2,430.6"/>
    <polyline points="131.3,408.0 132.3,407.2 133.3,406.5 134.4,405.9 135.5,405.4 136.6,404.9 138.2,404.4 139.8,403.9 141.5,403.5 143.3,403.2 145.2,403.0 146.9,402.9 148.5,402.8 150.8,402.8 153.4,402.9 158.5,403.1 160.9,403.2 163.1,403.4 164.9,403.6 166.6,403.9 168.2,404.2 169.9,404.7"/>
    <polyline points="168.2,430.6 167.4,431.4 166.3,433.0 165.6,434.4 165.2,435.9 165.2,437.6 165.5,439.0 165.9,440.1 166.7,441.5 167.8,442.8 169.0,443.9 170.5,445.1 172.8,446.4 174.8,447.3 177.0,448.2 179.4,448.9 181.8,449.5 184.5,450.1 190.8,451.2 212.6,455.0"/>
    <polyline points="403.7,460.9 411.4,460.6 412.6,460.5"/>
    <polyline points="404.8,460.0 403.5,460.1 402.3,460.3 400.9,460.4 399.2,460.4 396.2,460.5 392.2,460.6 390.4,460.6 388.6,460.6 386.7,460.5 384.8,460.3"/>
    <polyline points="404.8,460.0 392.6,460.4 389.5,460.4 387.3,460.3 385.2,460.1 381.6,459.7 378.4,459.3 375.1,459.0 371.7,458.7 368.9,458.6 366.5,458.7 364.0,458.8 361.8,458.9 360.2,459.2 358.2,459.4 355.8,459.9 353.0,460.6 346.1,462.7 343.2,463.4 340.0,464.1 336.5,464.8 332.2,465.6 324.3,467.1 315.8,468.6 310.6,469.6 308.6,469.9 304.0,470.8 301.8,471.2 299.2,471.6 297.0,471.8 295.1,472.0 293.2,472.0 291.1,472.0 289.1,472.0 286.4,471.9 284.0,471.6 281.8,471.3 279.8,470.9 278.0,470.5 275.9,470.0 273.7,469.3 271.4,468.4 269.9,467.7 265.7,465.7 263.9,464.9 262.3,464.2 260.3,463.5 258.3,462.9 256.3,462.3 254.3,461.9 251.1,461.2 241.6,459.5 240.4,459.3 237.5,458.8 226.9,457.0 225.5,456.7 212.8,454.6"/>
    <polyline points="212.6,455.0 218.8,456.1 234.1,458.8 235.9,459.1 240.0,459.8 249.1,461.3 252.4,462.0 255.1,462.6 257.8,463.3 260.0,464.0 262.8,465.0 265.7,466.3 270.4,468.5 273.5,469.8 275.7,470.5 277.5,471.0 279.3,471.4 281.2,471.8 282.8,472.1 286.1,472.5 288.6,472.6 289.0,472.6 289.9,472.6 290.4,472.6 291.6,472.6 293.1,472.6 294.5,472.6 295.9,472.5 297.3,472.3 299.2,472.1 301.9,471.7 304.7,471.2 308.9,470.4 310.8,470.0 311.5,469.9 316.1,469.0 340.8,464.5 343.1,464.0 345.4,463.5 347.7,462.9 353.9,461.2 357.0,460.5 358.2,460.2 359.5,460.0 361.2,459.8 363.4,459.6 366.1,459.5 368.7,459.4 371.4,459.5 374.3,459.7 381.2,460.5 385.0,460.9 387.7,461.1 389.9,461.2 392.3,461.2 398.0,461.1 403.7,460.9"/>
    <polyline points="212.8,454.6 189.5,450.5 183.3,449.3 180.7,448.7 178.6,448.1 176.3,447.2 174.7,446.5 173.1,445.7 172.1,445.1 170.7,444.0 169.5,443.0 168.4,441.9 167.6,440.8 167.1,439.8 166.7,438.9 166.5,438.0 166.3,436.9 166.4,436.0 166.5,435.1 166.8,434.0 167.3,433.0 168.0,431.9 168.9,430.8"/>
    <polyline points="168.9,430.8 171.3,428.1 172.8,426.5 173.1,426.1 174.0,425.0 176.1,422.6 178.0,420.3 179.3,418.9 180.1,417.9 180.8,417.0 181.2,416.0 181.6,415.0 181.7,414.2 181.7,413.3 181.5,412.5 181.3,411.7 180.9,410.9 180.5,410.2 179.9,409.4 179.2,408.7 178.4,408.0 177.6,407.4 176.2,406.6 174.6,405.8 173.3,405.2 172.0,404.7 170.5,404.3"/>
    <polyline points="170.5,404.3 168.7,403.8 166.8,403.4 164.8,403.1 162.8,402.9 160.5,402.8 158.6,402.7 154.1,402.5 153.5,402.5 150.7,402.4 147.8,402.4 145.3,402.5 142.9,402.8 141.0,403.1 139.5,403.5 138.0,403.9 136.6,404.4 135.2,405.0 133.9,405.6 132.7,406.2 131.6,406.9 130.5,407.8"/>
    <polyline points="130.5,407.8 129.9,408.4 129.1,409.2 128.4,410.1 126.4,413.5 124.2,416.9 123.5,417.9 122.8,419.1 122.3,419.7 121.8,420.3 121.2,421.1 120.5,421.7 119.6,422.5"/>
    <polyline points="119.6,422.5 118.3,423.4 116.9,424.2 115.6,424.9 114.0,425.5 112.2,426.1 110.0,426.8 108.1,427.2 107.6,427.3 102.5,428.0 99.8,428.4"/>
    <polyline points="93.9,429.2 90.8,429.7 87.4,430.0 83.4,430.2"/>
    <polyline points="68.7,430.1 72.0,430.1 83.4,430.2 87.3,430.2 89.2,430.1 91.1,430.0 92.7,429.8"/>
    <polyline points="68.5,429.6 61.6,429.6 53.5,429.5 51.2,429.5 48.0,429.5 40.7,429.4 38.0,429.4 36.2,429.3 30.9,429.3 27.2,429.3 24.8,429.4 22.5,429.6 20.2,429.8 18.4,430.1 16.6,430.5 14.4,431.0 12.5,431.6 10.7,432.2 8.6,433.0"/>
    <polyline points="315.8,468.6 315.1,468.8 314.5,468.9 313.4,469.3 312.1,469.7 311.5,469.9 310.8,470.0"/>
    <polyline points="316.1,469.0 315.5,469.1 314.8,469.2 313.4,469.3 312.0,469.4 311.3,469.5 310.6,469.6"/>
    <polyline points="234.1,458.8 233.0,458.5 232.0,458.3 228.9,457.4 227.9,457.2 226.9,457.0"/>
    <polyline points="225.5,456.7 224.6,456.6 223.7,456.5 220.7,456.3 219.7,456.2 218.8,456.1"/>
    <polyline points="173.1,424.8 173.5,424.5 173.9,424.2 174.6,423.7 175.3,423.3 175.7,423.0 176.1,422.6"/>
    <polyline points="175.3,422.5 175.0,422.8 174.9,423.2 174.6,423.7 174.4,424.3 174.3,424.7 174.0,425.0"/>
    <polyline points="126.4,413.5 126.2,413.9 126.0,414.3 125.7,415.1 125.4,416.0 125.2,416.5 125.0,417.0"/>
    <polyline points="124.2,416.9 124.6,416.4 124.9,416.0 125.7,415.1 126.5,414.3 126.8,413.9 127.2,413.6"/>
    <polyline points="44.5,429.9 45.6,429.8 46.6,429.8 49.3,429.6 50.2,429.5 51.2,429.5"/>
    <polyline points="53.5,429.5 54.6,429.6 55.6,429.6 59.4,430.1 60.2,430.1 61.2,430.2"/>
    <polyline points="99.8,428.4 98.2,428.6 93.9,429.2 90.9,429.5 88.5,429.6 86.2,429.7 83.7,429.7 80.6,429.7 68.5,429.6"/>
    <polyline points="104.1,428.3 105.8,428.0 108.1,427.6 110.3,427.2 112.5,426.5 114.4,425.9 116.2,425.2 117.6,424.5 118.9,423.7 120.3,422.8"/>
    <polyline points="412.6,460.5 416.6,460.4 420.0,460.1 422.1,459.9 423.3,459.8 425.9,459.4 428.1,458.7 430.0,457.9 432.1,456.8 432.7,456.4 433.1,456.1 434.6,455.0 437.2,452.7 439.6,451.1 441.6,450.0 442.9,449.2 444.4,448.4 446.3,447.5 448.7,446.7 451.2,445.8"/>
    <polyline points="450.2,445.1 447.4,446.0 446.6,446.4 443.0,448.0 441.4,448.8 438.3,450.6 435.7,452.3 432.9,454.6 432.2,455.1 431.8,455.4 431.2,455.8 431.1,455.8 429.1,456.9 427.7,457.4 425.4,458.2 422.6,458.9 420.3,459.2 418.1,459.5 412.1,459.8 406.2,460.0 404.8,460.0"/>
  </g>

  <!-- 지하철 역 -->
  <g>
    <circle cx="723.2" cy="375.5" r="3" fill="#dc2626" stroke="#fff" stroke-width="1"/>
    <circle cx="662.5" cy="391.0" r="3" fill="#dc2626" stroke="#fff" stroke-width="1"/>
    <circle cx="408.4" cy="460.3" r="3" fill="#dc2626" stroke="#fff" stroke-width="1"/>
    <circle cx="527.9" cy="397.1" r="3" fill="#dc2626" stroke="#fff" stroke-width="1"/>
    <circle cx="503.4" cy="413.6" r="3" fill="#dc2626" stroke="#fff" stroke-width="1"/>
    <circle cx="499.1" cy="434.4" r="3" fill="#dc2626" stroke="#fff" stroke-width="1"/>
    <circle cx="475.1" cy="440.9" r="3" fill="#dc2626" stroke="#fff" stroke-width="1"/>
    <circle cx="452.6" cy="444.5" r="3" fill="#dc2626" stroke="#fff" stroke-width="1"/>
    <circle cx="155.9" cy="402.8" r="3" fill="#dc2626" stroke="#fff" stroke-width="1"/>
    <circle cx="172.1" cy="426.6" r="3" fill="#dc2626" stroke="#fff" stroke-width="1"/>
    <circle cx="238.8" cy="459.3" r="3" fill="#dc2626" stroke="#fff" stroke-width="1"/>
    <circle cx="307.2" cy="470.4" r="3" fill="#dc2626" stroke="#fff" stroke-width="1"/>
    <circle cx="101.7" cy="428.3" r="3" fill="#dc2626" stroke="#fff" stroke-width="1"/>
    <circle cx="576.7" cy="394.6" r="3" fill="#dc2626" stroke="#fff" stroke-width="1"/>
  </g>
</svg>