<?xml version="1.0" encoding="UTF-8"?>
<svg width="800" height="600" xmlns="http://www.w3.org/2000/svg">
  <title>Ho Chi Minh City Subway Map</title>
  <rect width="100%" height="100%" fill="#f8f9fa"/>

  <!-- 지하철 선로 -->
  <g stroke="#2563eb" stroke-width="2" fill="none" opacity="0.8">
    <polyline points="254.4,89.2 255.6,88.8 256.1,88.6 256.5,88.4 256.6,88.4 256.9,88.2 257.1,88.0 257.3,87.8 257.5,87.6 258.5,85.9 258.7,85.6 258.8,85.4 258.8,85.1 258.8,84.7 258.9,83.8 259.0,83.5 259.1,83.2 259.4,82.9 259.7,82.6 260.2,82.4 260.8,82.1 261.8,81.8 262.8,81.6 263.9,81.3 265.1,81.1 266.1,80.8 267.3,80.5 268.3,80.3 269.0,80.2 269.5,80.1 270.0,80.0 270.5,80.0 271.0,80.0 274.5,79.8 276.9,79.7 277.8,79.7 278.7,79.6 279.3,79.6 280.1,79.6 283.3,79.4 284.6,79.4 285.7,79.3 285.8,79.3 286.9,79.3 287.4,79.2 288.2,79.2 300.4,78.5 306.5,78.2 308.8,78.0 310.4,77.9 317.6,77.5 326.3,77.0 328.5,76.8 330.1,76.8 331.6,76.7 333.5,76.6 334.2,76.5 338.7,76.3 341.2,76.1 342.6,76.1 345.2,75.9 346.1,75.8 347.3,75.7 348.2,75.6 349.6,75.4 350.3,75.4 351.6,75.2 352.2,75.1 352.7,75.0 353.4,74.9 353.9,74.8 354.5,74.6 355.2,74.4 356.8,73.9 357.3,73.7 358.0,73.5 359.2,73.3 359.6,73.2 360.0,73.1 360.4,72.9 360.7,72.8 361.3,72.5 362.3,72.0 362.7,71.8 363.0,71.6 363.3,71.4 363.6,71.2 364.0,70.9 364.2,70.6 364.5,70.4 364.7,70.0 366.2,67.6 368.1,64.4 368.4,63.8 368.5,63.6 369.1,62.9 369.4,62.5 369.5,62.4 369.9,61.9 370.4,61.5 370.8,61.1 371.3,60.8 371.7,60.4 372.4,60.1 373.0,59.7 373.7,59.3 375.2,58.5 382.9,54.4 383.6,54.0 384.4,53.6 387.8,51.8 397.7,46.4 402.1,44.1 402.8,43.7 403.6,43.3 404.5,42.8 404.8,42.7 405.3,42.4 406.7,41.9 407.3,41.6 407.9,41.4 408.8,41.2 409.5,40.9 410.5,40.7 411.4,40.4 412.5,40.2 414.2,39.8 415.3,39.6 426.4,37.6 439.1,35.4 444.2,34.5 445.3,34.3 446.8,34.0 457.4,32.2 465.8,30.6 474.8,29.0 475.9,28.8 477.4,28.6 479.0,28.3 480.4,28.0 481.8,27.7 483.5,27.3 485.1,26.8 486.6,26.4 488.1,25.9 489.6,25.3 491.3,24.6 497.6,22.0 498.1,21.8 498.6,21.7 499.5,21.5 500.3,21.4 501.6,21.2 502.3,21.0 502.9,20.9 503.4,20.8 503.9,20.6 505.8,19.8 506.4,19.5 506.9,19.3 507.8,18.9"/>
    <polyline points="508.0,18.9 507.0,19.3 506.6,19.6 504.0,20.6 503.5,20.8 503.0,21.0 502.4,21.1 501.7,21.2 500.3,21.4 499.5,21.5 498.7,21.7 498.1,21.9 497.7,22.0 491.4,24.6 489.7,25.3 488.1,25.9 486.7,26.4 485.2,26.9 483.5,27.3 481.8,27.7 480.5,28.0 479.1,28.3 477.5,28.6 476.0,28.9 474.9,29.0 465.8,30.7 458.9,31.9 457.4,32.2 446.9,34.1 445.4,34.3 444.3,34.5 439.2,35.4 426.5,37.7 415.4,39.7 414.3,39.9 413.4,40.0 412.5,40.2 411.5,40.5 410.5,40.7 409.6,41.0 408.8,41.2 408.0,41.5 407.4,41.7 406.7,41.9 406.1,42.1 405.4,42.4 404.9,42.7 404.5,42.8 403.6,43.3 402.9,43.7 402.1,44.1 397.8,46.5 391.5,49.9 387.9,51.8 384.5,53.6 383.7,54.0 383.0,54.4 379.1,56.5 375.3,58.5 373.8,59.3 373.1,59.7 372.5,60.1 371.8,60.5 371.4,60.8 370.9,61.1 370.5,61.5 370.0,61.9 369.6,62.4 369.5,62.4 369.2,62.9 368.6,63.6 368.5,63.8 368.2,64.4 366.3,67.6 364.8,70.0 364.6,70.4 364.3,70.6 364.1,70.9 363.7,71.2 363.4,71.4 363.1,71.6 362.8,71.8 362.4,72.0 361.4,72.5 360.8,72.8 360.4,73.0 360.0,73.1 359.7,73.2 359.3,73.3 358.1,73.6 357.4,73.8 356.8,73.9 355.2,74.5 354.6,74.6 353.9,74.8 353.4,74.9 352.8,75.0 352.3,75.1 351.6,75.2 350.4,75.4 349.6,75.5 348.3,75.6 347.3,75.7 346.2,75.9 345.2,75.9 342.7,76.1 341.4,76.2 341.2,76.2 340.5,76.2 339.8,76.3 338.7,76.3 338.1,76.4 337.0,76.5 333.8,76.6 333.6,76.6 332.4,76.7 331.7,76.8 330.1,76.8 317.6,77.5 310.4,78.0 308.9,78.0 306.5,78.2 300.4,78.5 288.3,79.2 287.0,79.3 285.8,79.4 284.6,79.4 283.3,79.5 280.1,79.6 279.4,79.6 278.4,79.7 277.5,79.7 276.0,79.8 274.6,79.8 271.0,80.0 270.5,80.0 270.0,80.1 269.5,80.1 269.1,80.2 268.4,80.3 267.4,80.6 266.0,80.9 265.2,81.1 264.0,81.4 262.9,81.6 261.9,81.9 260.9,82.2 260.3,82.4 259.8,82.6 259.5,82.9 259.2,83.2 259.1,83.5 258.9,84.7 258.9,85.1 258.9,85.4 258.8,85.6 258.6,85.9 257.5,87.6 257.3,87.9 257.0,88.2 256.6,88.5 256.2,88.6 255.6,88.9 254.5,89.3"/>
    <polyline points="219.7,100.3 222.3,99.5 228.4,97.5 230.3,96.9 231.2,96.7 233.5,96.1 244.5,92.5 246.6,91.9 254.5,89.3"/>
    <polyline points="219.3,100.1 222.0,99.3 227.1,97.7 228.1,97.4 229.9,96.9 230.9,96.6 233.2,96.0 244.2,92.5 246.3,91.8 254.4,89.2"/>
    <polyline points="286.2,79.3 287.4,79.2"/>
    <polyline points="286.2,79.3 284.7,79.3 283.3,79.3 281.7,79.4 279.3,79.6"/>
    <polyline points="279.4,79.6 281.8,79.6 283.3,79.5 284.8,79.5 285.8,79.4 287.0,79.3"/>
    <polyline points="218.0,100.8 219.7,100.3"/>
    <polyline points="217.7,100.7 219.3,100.1"/>
    <polyline points="334.2,76.5 334.7,76.5"/>
    <polyline points="339.4,76.3 334.7,76.5 334.0,76.6 333.8,76.6 333.6,76.6 333.3,76.6 332.4,76.7"/>
  </g>

  <!-- 지하철 역 -->
  <g>
    <circle cx="264.0" cy="81.3" r="3" fill="#dc2626" stroke="#fff" stroke-width="1"/>
    <circle cx="283.1" cy="79.5" r="3" fill="#dc2626" stroke="#fff" stroke-width="1"/>
    <circle cx="308.9" cy="78.0" r="3" fill="#dc2626" stroke="#fff" stroke-width="1"/>
    <circle cx="330.1" cy="76.8" r="3" fill="#dc2626" stroke="#fff" stroke-width="1"/>
    <circle cx="362.3" cy="72.0" r="3" fill="#dc2626" stroke="#fff" stroke-width="1"/>
    <circle cx="369.5" cy="62.4" r="3" fill="#dc2626" stroke="#fff" stroke-width="1"/>
    <circle cx="383.7" cy="54.0" r="3" fill="#dc2626" stroke="#fff" stroke-width="1"/>
  </g>
</svg>