<?xml version="1.0" encoding="UTF-8"?>
<svg width="800" height="600" viewBox="0 0 800 600" 
     xmlns="http://www.w3.org/2000/svg">
  <title>Hong Kong Subway Map</title>
  <rect width="100%" height="100%" fill="#f8f9fa"/>

  <!-- 지하철 선로 -->
  <g id="subway-lines" stroke="#2563eb" stroke-width="3" fill="none">
    <polyline points="478.2,79.5 471.5,57.8 465.5,38.0 464.5,35.2 463.1,31.6 462.0,29.0 460.4,25.3 458.2,20.9 456.2,17.1 452.7,10.2" opacity="0.8"/>
    <polyline points="653.8,142.0 645.2,134.9" opacity="0.8"/>
    <polyline points="482.4,181.1 484.2,175.9 486.4,169.7 487.8,165.3 488.8,160.5 489.7,156.1 490.2,152.8 490.8,148.3 491.0,144.4 491.2,140.9 491.0,133.7 490.4,126.7 489.5,119.1 488.4,113.3 487.2,108.0 486.0,103.5 485.0,100.0 484.1,97.3 481.2,88.2 478.2,79.5" opacity="0.8"/>
    <polyline points="350.5,381.9 364.1,381.9 366.7,382.0 368.6,382.2 370.4,382.5 373.0,383.2 375.2,384.1 377.6,385.3 380.1,386.7 384.9,388.9 389.0,390.6" opacity="0.8"/>
    <polyline points="510.8,495.2 508.0,499.1 503.3,505.1 497.8,512.9 496.5,514.8 495.5,516.7 494.4,519.3 493.7,521.6 493.2,524.1 492.9,525.9 492.6,528.4 492.4,530.6 492.4,532.9 492.5,535.0 492.7,537.2 493.1,539.0 493.6,540.9 494.3,542.6 602.9,764.9 603.8,766.8 604.8,769.0 605.5,771.0 606.0,772.9" opacity="0.8"/>
    <polyline points="477.6,79.5 473.9,68.8 471.1,59.6 467.8,48.9 464.5,37.9 462.0,31.0 459.9,25.7 457.8,21.2 456.1,18.0 454.5,15.1" opacity="0.8"/>
    <polyline points="453.4,246.4 458.6,238.6 461.8,233.4" opacity="0.8"/>
    <polyline points="440.0,399.5 443.2,403.9 443.3,404.0 445.1,406.5 446.5,408.3" opacity="0.8"/>
    <polyline points="428.1,291.2 431.7,283.0 435.0,276.2 438.3,270.3 441.3,265.0 444.6,259.9 447.4,255.6" opacity="0.8"/>
    <polyline points="478.6,79.4 481.6,88.0 484.6,97.1 485.4,99.7 486.6,103.4 487.7,107.8 488.9,113.2 490.0,119.0 490.9,126.6 491.5,133.6 491.6,140.9 491.5,144.5 491.2,148.4 490.7,152.9 490.1,156.2 489.3,160.7 488.4,165.4 487.0,170.0 484.9,176.2 483.5,180.4 483.2,181.5" opacity="0.8"/>
    <polyline points="434.7,394.3 436.4,396.4 438.2,398.1 440.0,399.5" opacity="0.8"/>
    <polyline points="433.9,396.0 431.9,392.1" opacity="0.8"/>
    <polyline points="462.3,233.9 459.2,239.2 453.9,247.0" opacity="0.8"/>
    <polyline points="489.0,119.2 487.8,113.6 486.6,108.2 485.5,103.7 484.5,100.2 483.7,97.6 480.7,88.3 477.6,79.5" opacity="0.8"/>
    <polyline points="447.9,256.1 445.2,260.4 441.8,265.6 438.8,270.8 435.6,276.7 432.3,283.4 428.7,291.5" opacity="0.8"/>
    <polyline points="432.4,391.4 433.6,393.6 434.5,395.0 436.5,397.3 438.4,399.2 439.6,400.2 442.1,402.3" opacity="0.8"/>
    <polyline points="447.6,405.9 443.3,404.0 443.0,403.9 441.3,403.1 439.8,402.3 438.8,401.7" opacity="0.8"/>
    <polyline points="442.1,402.3 443.4,403.6 445.7,405.9 446.9,407.3" opacity="0.8"/>
    <polyline points="428.7,291.5 425.6,299.2 422.4,307.7 420.9,312.1 420.1,315.0 419.3,319.0 418.8,322.9 418.5,328.0 418.7,335.8 419.1,342.3 420.0,348.8 421.1,355.4 422.4,362.0 423.8,367.5 425.6,373.7 427.5,379.3" opacity="0.8"/>
    <polyline points="453.4,246.4 454.7,243.9 458.2,238.2 461.3,232.8 463.6,229.0 465.5,225.5 467.1,222.1 468.4,219.3 469.7,216.4 474.2,203.7 475.6,199.7" opacity="0.8"/>
    <polyline points="426.8,379.7 424.9,374.0 423.1,367.8 421.8,362.2 420.4,355.6 419.3,348.9 418.5,342.4 418.1,335.8 417.8,327.9 418.1,322.8 418.6,318.8 419.4,314.9 420.2,311.9 421.7,307.4 425.0,298.9 428.1,291.2" opacity="0.8"/>
    <polyline points="479.1,78.7 482.0,87.8 485.0,96.8 485.9,99.4 487.0,103.1 488.3,107.7 489.4,113.0 490.5,118.9" opacity="0.8"/>
    <polyline points="490.5,118.9 491.4,126.6 491.9,133.6 492.1,140.9 492.0,144.5 491.7,148.5 491.1,153.0 490.6,156.4 489.8,160.8 488.8,165.5 487.4,170.2 485.3,176.4 483.6,181.7" opacity="0.8"/>
    <polyline points="447.2,406.9 453.4,411.7 461.9,418.1" opacity="0.8"/>
    <polyline points="446.5,408.3 444.0,406.4 442.3,404.9 441.0,403.7 438.8,401.7" opacity="0.8"/>
    <polyline points="446.9,407.3 443.0,404.2 440.5,402.0 438.0,399.7 435.6,397.3 434.2,395.6 431.9,392.1" opacity="0.8"/>
    <polyline points="432.4,391.4 433.6,393.1 434.7,394.3" opacity="0.8"/>
    <polyline points="559.6,133.4 558.9,127.9 557.3,114.4 555.2,99.7" opacity="0.8"/>
    <polyline points="526.0,-55.0 527.5,-53.1 528.7,-51.4 529.4,-50.3 530.1,-48.9 530.7,-47.6 531.2,-46.3 531.5,-45.0 532.3,-40.9 534.4,-26.8 536.9,-10.5 543.3,31.1 544.7,39.8 545.4,43.6 545.9,46.3 546.3,49.1 547.2,55.0" opacity="0.8"/>
    <polyline points="484.4,459.9 485.8,461.3 487.3,463.1 489.2,465.3 491.1,467.2 493.5,469.0 495.0,470.0 495.9,470.4 496.3,470.6 499.5,472.0 503.5,473.6 506.0,474.4 507.9,475.0 509.2,475.3 510.5,475.5 513.1,475.7 517.5,476.0 519.6,475.9 524.5,475.5 527.4,475.2 529.3,474.7 531.6,474.0 533.6,473.1 534.6,472.6 535.3,472.2 537.0,471.0 538.7,469.7 540.3,468.3 542.0,466.6 543.4,465.0" opacity="0.8"/>
    <polyline points="451.8,446.8 453.8,447.5 461.2,450.1 468.9,452.9 470.7,453.5 472.6,454.2" opacity="0.8"/>
    <polyline points="442.1,402.3 447.2,406.9" opacity="0.8"/>
    <polyline points="461.6,418.7 453.0,412.0" opacity="0.8"/>
    <polyline points="477.7,457.3 476.7,456.8 475.3,455.8 473.8,454.8 472.6,454.2" opacity="0.8"/>
    <polyline points="569.2,298.7 569.7,309.9 569.8,314.7 569.9,317.5 570.3,347.1 569.9,357.5 569.2,366.2 568.1,376.4 566.5,388.2 564.4,401.2 561.4,416.9 558.5,429.2 554.1,443.4 551.1,452.5 550.2,454.8 549.3,457.1 548.1,459.4" opacity="0.8"/>
    <polyline points="472.4,455.3 473.6,455.6 475.3,455.8 476.9,455.9 478.0,456.2" opacity="0.8"/>
    <polyline points="472.4,455.3 470.5,454.6 468.7,454.0 461.0,451.2 453.5,448.5 451.6,447.8" opacity="0.8"/>
    <polyline points="437.5,428.4 431.0,417.6 429.2,414.6 428.6,413.8 428.1,413.1 427.4,412.5 426.4,411.5 423.3,408.8 413.6,400.9 412.5,400.0 411.6,399.4 410.7,398.9 409.6,398.3 408.4,397.8 407.5,397.4 406.4,397.0 401.8,395.5 389.8,391.6 385.5,390.2 384.9,389.9 381.2,388.4 374.9,385.4 373.0,384.5 371.1,383.9 369.5,383.4 367.5,383.1 364.3,382.8 351.8,382.5 350.3,382.7" opacity="0.8"/>
    <polyline points="748.4,370.4 747.4,372.2 745.6,376.4 744.6,378.6 743.9,380.6 743.3,382.4 742.6,384.3 742.0,386.2 741.6,389.0 741.3,391.2 741.0,393.7" opacity="0.8"/>
    <polyline points="741.0,393.7 740.7,397.0 740.2,401.8 739.0,411.7 738.5,414.3 736.1,429.8 735.6,431.5 735.1,433.2 732.2,440.5 731.8,441.4 731.4,442.3 731.1,442.9 730.7,443.4 730.2,444.0 729.7,444.5 721.3,451.9 719.3,453.6 717.6,454.7 715.6,455.8 713.2,456.7 710.8,457.2 708.7,457.4 697.3,456.3 695.3,456.4 693.8,456.5 693.6,456.6 692.4,456.8 691.2,457.2 689.9,457.6 676.0,463.6 670.7,465.8 670.0,466.1 669.3,466.3 668.5,466.4 664.6,466.7 658.9,466.9 658.4,466.9 657.9,467.0 657.4,467.1 656.9,467.4 653.5,469.0 639.2,476.6 628.6,482.1 611.7,489.0 610.5,489.4 609.4,489.6 607.0,489.9 605.8,490.0 585.5,493.1 573.4,495.1 567.4,496.0 566.1,496.0 564.9,496.0 534.0,492.2 531.8,491.8 530.2,491.4 528.9,490.9 527.9,490.4 526.7,489.9 525.7,489.2 523.5,487.6 520.0,484.5 516.8,482.0 514.0,480.1 512.0,478.9 510.3,478.0 508.9,477.4 507.6,476.8 505.6,476.2 503.3,475.6 500.9,475.1 499.9,474.8" opacity="0.8"/>
    <polyline points="841.1,344.5 837.5,342.9 834.6,341.8 831.4,340.7 829.3,339.7 826.0,338.8 824.2,338.5 822.0,338.3 820.7,338.4 819.5,338.4 817.8,338.7 810.2,340.6 806.8,341.6 799.7,343.9 786.2,348.3 761.8,354.9 759.5,355.9 757.0,357.6 754.7,360.2 753.0,362.8 750.2,367.7 748.4,370.4" opacity="0.8"/>
    <polyline points="739.7,399.6 739.9,397.1 740.2,393.7 740.4,391.3 740.6,389.0 741.0,386.2 741.7,384.0 742.5,381.5 743.4,378.9 745.2,374.4 746.8,371.3 747.7,369.8 748.8,368.0 750.1,366.5 752.9,362.9 754.8,360.1 757.0,357.7 759.6,355.9 762.1,354.8 786.2,348.3 799.7,344.1 806.9,341.9 810.2,340.8 814.2,339.9 817.8,339.0 819.6,338.7 820.8,338.6 822.0,338.6 824.1,338.7 826.1,339.1 827.8,339.5 829.8,340.0 832.0,340.6 834.9,341.4 838.0,342.3 841.6,343.6 844.3,344.8 846.8,346.0 849.2,347.2 851.9,349.0 854.9,351.3 857.2,353.3 858.9,355.1 860.3,356.9 861.4,358.5 862.8,360.8 863.4,362.0 870.9,376.2 875.0,383.8 885.9,403.8 887.9,406.7 889.7,409.0 891.4,410.6 893.2,412.1 895.1,413.2 896.8,414.1 898.5,414.8 899.9,415.3 901.4,415.6 904.4,416.1 907.1,416.4 910.2,416.4 931.2,416.6 944.1,416.7 947.7,416.7 950.9,417.2 954.4,418.2 957.3,419.3 959.6,420.6 962.5,422.5 964.7,424.3 966.7,427.0 975.3,441.4 980.2,449.8 981.9,452.1 983.9,454.2 985.6,455.8 987.6,457.3 995.4,462.4 997.3,463.2 999.6,463.7 1003.7,464.6 1006.6,465.2" opacity="0.8"/>
    <polyline points="381.2,388.4 389.0,390.6" opacity="0.8"/>
    <polyline points="499.9,474.8 503.3,475.6 505.7,476.2 507.6,476.8 508.9,477.4 510.3,478.0 512.0,478.9 514.0,480.1 516.8,482.0 520.0,484.5 523.5,487.6 525.7,489.2 526.7,489.9 527.9,490.4 528.9,490.9 530.2,491.4 531.8,491.8 534.0,492.3 564.9,496.0 566.1,496.0 567.4,496.0 573.4,495.1 585.5,493.1 605.9,490.0 606.9,489.8 608.1,489.5 609.3,489.1 627.0,481.7 628.5,481.1 636.2,477.9 637.7,477.3 639.2,476.6 653.5,469.0 655.4,468.1 656.9,467.4 657.4,467.1 657.9,467.0 658.4,466.9 658.9,466.9 664.6,466.8 668.5,466.4 669.3,466.3 670.0,466.1 670.7,465.8 676.0,463.6 689.9,457.6 690.7,457.3 691.2,457.2 692.4,456.8 693.6,456.6 693.8,456.5 695.3,456.4 697.3,456.3 708.7,457.4 710.8,457.2 713.2,456.7 715.6,455.8 717.6,454.7 719.4,453.6 721.3,452.0" opacity="0.8"/>
    <polyline points="499.9,474.8 492.5,473.1 489.8,472.4 487.4,471.5 470.9,464.4 469.8,463.9 468.8,463.5 468.0,463.2 459.4,460.4 458.4,460.1 457.4,459.6 456.5,459.0 455.7,458.2 455.1,457.6 454.6,456.9 454.2,456.4 453.9,455.8 448.9,447.6 442.9,437.7 437.5,428.4" opacity="0.8"/>
    <polyline points="147.8,462.6 168.5,465.4 171.1,465.6 173.0,465.7 174.7,465.6 176.5,465.3 178.2,465.0 179.7,464.6 181.1,464.1 182.8,463.5 189.0,460.5" opacity="0.8"/>
    <polyline points="350.3,382.7 348.4,383.1 347.0,383.5 345.5,384.1 344.2,384.7 343.0,385.4 341.9,386.1 340.5,387.2 338.9,388.7 337.1,390.6 335.3,392.9 333.9,394.8 331.9,397.3 324.5,407.5 315.2,419.7 313.8,421.2 312.5,422.4 311.1,423.5 309.9,424.3 308.4,425.1 307.1,425.7 305.6,426.3 304.2,426.8 302.9,427.1 301.3,427.3 300.0,427.4 298.6,427.4 297.1,427.4 295.7,427.2 294.5,427.0 293.3,426.6 291.9,426.1 284.3,423.1 282.4,422.7 280.9,422.4 279.4,422.3 277.9,422.3 276.4,422.3 274.4,422.5 264.1,423.8 253.9,425.0 252.2,425.2 250.7,425.6 249.3,425.9 247.9,426.5 246.4,427.1 245.0,427.8 243.0,429.2 241.8,430.2 240.7,431.3 239.5,432.5 238.1,434.1 233.6,440.4 232.2,442.2 231.2,443.2 229.8,444.6 228.3,445.8 226.5,447.0 224.9,447.9 223.0,448.7 221.5,449.3 219.2,450.1 215.5,451.3 206.4,454.3 197.7,457.2 193.7,458.5 191.6,459.3 189.0,460.5" opacity="0.8"/>
    <polyline points="189.0,460.5 191.3,459.2 193.3,458.3 195.1,457.6 197.7,456.6 206.2,453.8 215.5,450.7 217.1,450.2 219.2,449.5 220.7,448.9 222.5,448.0 223.8,447.2 224.9,446.6 226.3,445.5 227.6,444.3 229.2,442.6 236.7,433.1 238.9,430.6 240.9,428.8 242.4,427.5 243.8,426.6 245.0,425.9 246.2,425.4 247.8,424.7 249.1,424.3 250.4,423.9 251.7,423.7 253.5,423.4 277.5,420.7 277.9,420.7 279.7,420.7 281.4,420.9 283.0,421.2 285.1,421.8 293.1,425.0 294.5,425.3 296.0,425.5 297.6,425.7 299.1,425.7 300.7,425.6 302.3,425.4 303.6,425.1 305.0,424.7 306.3,424.2 307.6,423.6 309.0,422.8 310.9,421.5 312.4,420.3 313.5,419.4 314.5,418.3 315.9,416.7 317.4,414.7 317.9,414.1 323.7,406.2 326.6,402.2 329.7,398.1 331.9,395.1 333.4,393.0 335.2,390.7 336.6,389.2 338.5,387.3 339.7,386.3 341.1,385.2 342.5,384.3 344.0,383.5 345.6,382.9 345.8,382.9 347.2,382.4 348.7,382.1 350.5,381.9" opacity="0.8"/>
    <polyline points="438.8,401.7 435.2,397.9 433.9,396.0" opacity="0.8"/>
    <polyline points="440.0,399.5 441.6,400.9 445.2,403.7 447.6,405.9" opacity="0.8"/>
  </g>

  <!-- 지하철 역 -->
  <g id="subway-stations">
    <circle cx="741.3" cy="383.7" r="4" fill="#dc2626" stroke="#fff" stroke-width="2"/>
    <text x="741.3" y="375.7" text-anchor="middle" font-size="10" fill="#374151">炮台山 Fortress Hill</text>
    <circle cx="586.9" cy="297.6" r="4" fill="#dc2626" stroke="#fff" stroke-width="2"/>
    <circle cx="323.4" cy="407.4" r="4" fill="#dc2626" stroke="#fff" stroke-width="2"/>
    <text x="323.4" y="399.4" text-anchor="middle" font-size="10" fill="#374151">西營盤 Sai Ying Pun</text>
    <circle cx="572.6" cy="494.8" r="4" fill="#dc2626" stroke="#fff" stroke-width="2"/>
    <text x="572.6" y="486.8" text-anchor="middle" font-size="10" fill="#374151">灣仔 Wan Chai</text>
    <circle cx="729.7" cy="442.5" r="4" fill="#dc2626" stroke="#fff" stroke-width="2"/>
    <text x="729.7" y="434.5" text-anchor="middle" font-size="10" fill="#374151">天后 Tin Hau</text>
    <circle cx="264.5" cy="423.6" r="4" fill="#dc2626" stroke="#fff" stroke-width="2"/>
    <text x="264.5" y="415.6" text-anchor="middle" font-size="10" fill="#374151">香港大學 HKU</text>
    <circle cx="479.7" cy="190.4" r="4" fill="#dc2626" stroke="#fff" stroke-width="2"/>
    <text x="479.7" y="182.4" text-anchor="middle" font-size="10" fill="#374151">九龍 Kowloon</text>
    <circle cx="205.7" cy="454.2" r="4" fill="#dc2626" stroke="#fff" stroke-width="2"/>
    <text x="205.7" y="446.2" text-anchor="middle" font-size="10" fill="#374151">堅尼地城 Kennedy Town</text>
    <circle cx="595.9" cy="449.9" r="4" fill="#dc2626" stroke="#fff" stroke-width="2"/>
  </g>
</svg>