<?xml version="1.0" encoding="UTF-8"?>
<svg width="800" height="600" xmlns="http://www.w3.org/2000/svg">
  <title>Hyderabad Subway Map</title>
  <rect width="100%" height="100%" fill="#f8f9fa"/>

  <!-- 지하철 선로 -->
  <g stroke="#2563eb" stroke-width="2" fill="none" opacity="0.8">
    <polyline points="498.4,344.0 498.4,343.8 498.4,343.7 498.4,343.6 498.4,343.5 498.5,343.4 498.5,343.3 498.6,343.1 498.7,343.0 498.8,342.8 500.9,340.8 501.1,340.7 501.9,339.8 502.0,339.7 502.2,339.5 502.2,339.3 502.3,339.2 503.1,338.5 503.6,337.9 503.8,337.8 505.2,336.5 506.5,335.3 507.9,334.2 509.8,332.0 510.0,331.7 510.5,330.7 510.7,330.3 511.5,326.8 512.1,325.1 512.2,324.9 512.5,323.9 512.9,323.4 513.3,322.8 514.1,322.1 516.2,320.3 518.2,319.0 518.5,318.6 521.1,316.8 521.4,315.3 521.6,314.3 521.8,312.8 521.9,312.3 522.6,309.4 522.7,309.2 525.0,304.7 526.6,302.0 526.9,300.6 527.0,299.9 527.1,299.2 527.1,297.9 526.7,295.8 526.6,295.5 526.6,295.2 526.6,295.0 526.6,294.7 526.6,294.2 526.7,293.6 527.1,292.7 528.3,290.4 529.4,288.8 530.0,287.4 530.8,285.7 531.5,284.4 532.4,282.8 533.7,281.1 534.1,280.1 534.1,279.6 534.4,277.6 534.5,277.1 534.5,276.7 534.5,276.3 534.5,275.3 534.6,274.3 534.6,273.9 534.6,273.6 534.6,273.5 534.6,273.3 534.7,272.3 534.8,272.1 534.8,271.9 534.8,271.8 534.9,271.6 534.9,271.5 535.1,270.9 535.2,270.6 535.3,270.3 535.3,270.2 535.3,270.1 535.3,269.9 535.3,269.8 535.2,269.7 535.2,269.5 535.1,269.3 535.1,269.2 535.0,269.1 534.9,269.0 534.8,268.9 534.7,268.8 534.6,268.7 533.4,267.8 533.2,267.7 533.0,267.6 532.9,267.5 532.7,267.5 532.6,267.4 532.4,267.3 532.2,267.3 532.0,267.3 531.2,267.2 531.1,267.2 530.8,267.2 530.6,267.1 530.5,267.1 530.2,267.0 528.4,266.1 528.2,266.0"/>
    <polyline points="359.5,267.1 358.2,266.5 357.9,266.3 357.7,266.2 357.6,266.0 357.4,265.8 357.2,265.6 357.1,265.4 357.1,265.1 357.0,264.5 356.9,264.4 356.8,264.2 356.6,263.9 356.3,263.7 356.1,263.5 355.6,263.3 352.9,261.9 352.4,261.8 352.0,261.6 351.0,261.3 350.7,261.2 350.2,261.0 349.7,260.8 349.4,260.6 349.0,260.4 348.5,260.1 348.2,259.9 347.7,259.7 347.1,259.4 346.8,259.3 346.6,259.1 346.4,258.9 346.2,258.7 346.0,258.5 345.1,257.3 344.6,256.6"/>
    <polyline points="537.0,358.2 535.5,358.0 533.5,357.8 533.1,357.8 532.7,357.7 532.3,357.6 532.0,357.5 531.6,357.3 530.5,356.9 530.1,356.7 529.7,356.5 529.3,356.3 529.0,356.1 528.6,355.8 528.3,355.6 528.0,355.4 527.7,355.2 527.4,355.1 527.0,355.0 526.7,354.9 526.3,354.8 525.5,354.8 525.3,354.7 525.0,354.7 524.8,354.6 524.6,354.5 524.4,354.4 524.3,354.2 524.1,354.1 523.9,353.9 523.7,353.6 523.4,353.1 523.3,353.0 523.1,352.9 522.9,352.8 522.7,352.6 522.4,352.5 522.1,352.4 521.9,352.4 521.7,352.3 520.9,352.3"/>
    <polyline points="416.0,241.1 415.1,239.6 414.8,239.1 414.5,238.6 414.3,238.3 414.1,238.0 413.9,237.7 413.4,236.7 413.2,236.4 413.0,236.1 412.9,235.8 412.5,235.3 412.1,234.6 411.2,233.1 411.1,232.8 410.8,232.4 410.6,232.0 410.0,231.1 409.4,230.2 409.2,229.8 409.0,229.5 408.4,228.2 408.0,227.4 407.5,226.6 407.3,226.1 407.1,225.7 406.7,225.0"/>
    <polyline points="640.3,340.6 640.3,340.4 640.3,340.1 640.4,340.0 640.4,339.8 640.4,339.4 640.5,337.5 640.6,336.6 640.6,336.3 640.7,335.6 640.7,334.9 640.9,332.8 640.9,332.7 641.0,331.5"/>
    <polyline points="541.2,259.1 540.8,258.0 540.6,257.4 540.4,257.0 540.0,256.2 539.9,255.9 539.8,255.6 539.8,255.3 539.9,255.0 541.1,251.2 541.3,250.6 541.3,250.3 541.2,250.0 541.1,249.7 541.1,249.5 540.9,249.2 540.6,248.9 540.3,248.7 539.8,248.4 539.3,248.1 538.8,248.0 538.5,247.9 538.0,247.9 537.6,247.8 534.9,247.8 534.2,247.8 533.6,247.7 532.3,247.5 531.9,247.4 531.4,247.4 526.3,247.2"/>
    <polyline points="290.9,161.4 291.2,161.4 292.2,161.5 292.5,161.5 292.7,161.5 293.0,161.4 293.2,161.4 293.4,161.4 293.5,161.3 293.7,161.2 293.9,161.1 294.0,161.0 294.1,160.9 294.3,160.8 294.4,160.7 294.5,160.5 294.5,160.4 294.6,160.3 294.7,160.1 294.7,159.9 294.8,159.4"/>
    <polyline points="292.1,162.2 290.1,162.1 290.0,162.1 285.2,162.1 284.6,162.1 284.4,162.1 282.9,162.1 282.6,162.1 282.3,162.1 281.4,162.1 279.7,162.2"/>
    <polyline points="294.8,159.4 295.0,157.8 295.1,157.2 295.1,157.0 295.2,156.8 295.2,156.6 295.2,156.1 295.2,155.9 295.2,155.8 295.1,155.6 295.1,155.4 295.0,155.3 294.9,155.1 294.8,155.0 294.7,154.9 294.6,154.7 294.5,154.6 294.3,154.5 294.1,154.4 293.9,154.3 292.7,153.9 292.5,153.8 291.4,153.4 291.2,153.4 291.1,153.4 290.8,153.3"/>
    <polyline points="284.6,162.1 285.0,162.1 285.3,162.1 285.9,162.0 286.3,162.0 286.6,161.9 287.2,161.8 287.9,161.7 288.4,161.6 288.7,161.5 289.1,161.5 289.5,161.4 290.0,161.4 290.3,161.4 290.6,161.4 290.9,161.4"/>
    <polyline points="428.2,260.3 427.6,259.4 426.8,258.2 425.7,256.7 425.5,256.4 425.2,255.8 424.8,255.1 423.3,252.1 422.9,251.3 420.2,247.2"/>
    <polyline points="617.7,292.3 611.9,288.0 609.5,286.3 608.8,285.7 608.1,285.1 606.9,283.8"/>
    <polyline points="606.9,283.8 605.8,282.5 605.1,282.0 602.5,280.4 600.3,278.2 598.9,277.1 598.3,276.7 597.7,276.4 593.8,275.8 593.0,275.6 592.0,275.2 590.3,274.4 589.5,273.9 588.0,272.8 586.5,271.8 586.1,271.7 584.2,270.9"/>
    <polyline points="584.2,270.9 581.9,270.0 581.5,269.8 580.9,269.4 578.7,267.7 578.2,267.2 575.4,265.2 571.6,262.4 567.6,259.4"/>
    <polyline points="567.6,259.4 565.6,258.0 564.3,257.2 563.0,257.1 562.5,257.2 559.8,258.8 559.0,259.2 556.5,260.2 554.6,260.7 551.6,262.0 550.0,262.6 548.0,262.8 545.5,262.9 545.2,262.9 544.4,263.0 544.1,263.0 543.9,263.0 543.7,262.9 543.5,262.9 543.3,262.8 543.1,262.8 542.9,262.7 542.8,262.6 542.6,262.4 542.4,262.3 542.3,262.2 542.2,262.1 542.2,261.9 541.9,261.3 541.7,260.7 541.6,260.2 541.2,259.1"/>
    <polyline points="526.3,247.2 522.5,247.1 513.4,246.9 505.3,246.8"/>
    <polyline points="505.3,246.8 504.0,246.7 503.3,246.7 500.5,246.6 500.0,246.6 498.7,246.8 498.2,246.8 494.8,246.7 492.6,246.7 492.0,246.7 486.9,246.5"/>
    <polyline points="486.9,246.5 485.5,246.5 480.3,245.5 476.5,245.5 470.3,244.7 469.5,244.7 468.8,244.7 468.2,244.6 467.1,244.5"/>
    <polyline points="467.1,244.5 464.8,244.2 463.9,244.2 462.5,244.4 461.4,244.7 459.7,245.2 458.0,245.8 452.9,249.1 452.6,249.6 451.9,252.0 451.2,254.7"/>
    <polyline points="420.2,247.2 420.0,246.9 419.8,246.5 419.5,246.0 419.4,245.8 419.2,245.5 419.0,245.3 418.9,245.1 418.7,244.9 418.5,244.7 418.3,244.4 418.1,244.1 417.3,243.0 416.8,242.3 416.3,241.4 416.0,241.1"/>
    <polyline points="406.7,225.0 406.1,223.8 405.8,223.2 405.6,222.8 405.3,222.5 405.1,222.2 404.8,221.8 404.5,221.5 404.1,220.9 403.8,220.6 403.6,220.2 403.4,219.8 402.3,217.9 402.0,217.4 401.7,216.7 401.2,215.9 400.7,214.9 400.2,213.9"/>
    <polyline points="400.2,213.9 399.7,213.0 399.3,212.4 398.9,211.6 398.7,211.3 398.6,210.9 398.4,210.3 398.4,210.0 398.3,209.7 398.1,209.3 398.0,209.0 397.9,208.8 397.8,208.5 396.7,206.5 396.5,206.2 396.3,206.0 396.2,205.8 396.0,205.5 395.8,205.2 394.9,204.2 394.1,203.1 393.2,202.0 392.7,201.5"/>
    <polyline points="392.7,201.5 391.8,200.3 390.9,199.2 388.4,196.0 388.2,195.8 388.0,195.6 387.9,195.4 387.7,195.3 387.6,195.1 387.3,194.9 387.1,194.8 386.9,194.6 386.5,194.4 386.0,194.1 385.2,193.7"/>
    <polyline points="365.9,180.7 365.5,180.2 364.9,179.5 364.5,179.1 364.1,178.5 362.6,176.6 362.1,175.9 361.8,175.7 361.7,175.5 361.6,175.3 361.3,175.0 359.8,173.4 357.9,171.4 357.3,170.9 357.1,170.7 356.9,170.5 356.7,170.4"/>
    <polyline points="385.2,193.7 384.0,193.0 383.0,192.4 381.8,191.7 379.8,190.5 378.8,189.9 378.4,189.6 377.8,189.2 377.2,188.7 376.4,188.1 376.1,187.8 375.8,187.5 374.5,186.3 374.2,186.1 373.9,185.9 373.6,185.7 373.3,185.6 373.0,185.4 371.5,184.6 368.9,183.3 368.6,183.1 368.0,182.8 367.7,182.6 367.5,182.4 367.3,182.2 367.2,182.1 367.1,182.0 366.9,181.8 366.3,181.2 365.9,180.7"/>
    <polyline points="356.7,170.4 356.4,170.2 356.2,170.1 355.7,169.9 351.6,168.2 348.3,167.0 347.2,166.5 346.0,166.1 341.3,164.2 339.8,163.7 339.5,163.5 339.0,163.4 338.6,163.3 337.9,163.1 337.3,163.0 333.0,162.0 332.8,161.9 332.5,161.9 332.2,161.7 331.9,161.6 331.6,161.5 331.3,161.4 331.1,161.2 329.1,160.1 328.7,159.9 328.4,159.7 328.0,159.6 327.7,159.5 327.4,159.4 327.0,159.3 326.6,159.2 326.3,159.2 325.6,159.1 324.2,158.9 323.0,158.8"/>
    <polyline points="323.0,158.8 321.8,158.7 319.5,158.4 317.3,158.1 314.3,157.8 312.4,157.6 312.0,157.5 311.6,157.5 311.3,157.5 310.9,157.6 310.5,157.6 310.0,157.7 309.6,157.8 309.0,157.9 307.9,158.3 307.5,158.4 307.2,158.5 306.7,158.7 306.3,158.9 305.3,159.3 302.8,160.4 302.2,160.6 301.9,160.7 301.5,160.9 301.2,161.0 300.9,161.0 300.6,161.1 300.3,161.2"/>
    <polyline points="643.7,315.8 643.7,314.9 643.7,314.4 643.6,313.8 643.6,313.7 643.4,313.3 643.1,312.9 642.9,312.6 642.6,312.4 642.3,312.2 642.0,312.1 641.6,311.9 640.6,311.5 640.1,311.3 639.9,311.1 639.4,310.7 632.5,304.2"/>
    <polyline points="632.5,304.2 630.7,302.5 630.4,302.2 629.5,301.5 627.5,299.9 623.5,296.9 619.3,293.6 618.6,293.0 617.7,292.3"/>
    <polyline points="528.2,265.8 528.3,265.9 528.5,266.0 530.3,266.9 530.5,267.0 530.6,267.0 530.8,267.1 531.0,267.1 531.1,267.1 531.3,267.2 531.8,267.2 532.1,267.2 532.2,267.2 532.4,267.3 532.6,267.3 532.8,267.4 532.9,267.5 533.1,267.6 533.2,267.7 533.4,267.8 534.7,268.7 534.8,268.8 534.9,268.9 535.0,269.0 535.1,269.1 535.2,269.3 535.2,269.4 535.3,269.5 535.3,269.6 535.3,269.7 535.4,269.9 535.4,270.0 535.4,270.1 535.3,270.3 535.3,270.5 535.3,270.6 535.2,270.8 535.1,271.2 535.0,271.3 535.0,271.5 534.9,271.8 534.9,271.9 534.8,272.1 534.8,272.3 534.8,272.4 534.7,273.3 534.7,273.5 534.7,273.7 534.6,273.9 534.6,274.3 534.6,275.3 534.6,276.3 534.6,276.8 534.5,277.1 534.5,277.7 534.3,278.6 534.3,279.1 534.2,279.7 534.1,280.1 533.8,281.1 533.8,281.2 532.5,282.8 531.6,284.4 530.9,285.7 530.1,287.5 529.5,288.9 528.5,290.5 527.2,292.7 526.8,293.5 526.7,294.2 526.7,294.7 526.7,295.2 526.8,295.7 527.2,297.9 527.2,299.2 527.1,299.9 527.0,300.6 526.8,301.3 526.7,302.0 525.3,304.3 525.1,304.7 522.9,309.3 522.8,309.5 522.1,312.3 521.9,312.8 521.7,314.3 521.5,315.4 521.3,316.8 521.2,316.9 518.7,318.7 518.3,319.0 514.2,322.2 513.4,322.9 512.9,323.4 512.6,323.9 512.3,324.9 512.2,325.1 511.6,326.8 510.8,330.3 510.6,330.7 510.1,331.7 509.9,332.0 508.0,334.3 506.6,335.4 505.3,336.5 503.9,337.8 503.7,338.0 503.2,338.6 502.4,339.3 502.4,339.4 502.3,339.5 502.1,339.7 502.1,339.9 501.2,340.7 498.9,342.8 498.8,342.9 498.7,343.0 498.6,343.2 498.6,343.3 498.6,343.4 498.5,343.5 498.5,343.7 498.5,343.8 498.5,344.0"/>
    <polyline points="311.5,236.9 312.3,237.9 313.4,238.9 313.7,239.4 314.1,239.8 314.4,240.2 314.8,240.8 314.9,241.0 315.2,241.3 315.5,241.7 315.8,241.9 316.1,242.3 319.4,245.5 319.6,245.8 319.8,246.0 320.0,246.3 320.2,246.6 320.6,247.6 321.1,248.6 321.4,249.1 321.5,249.2 321.6,249.4 321.7,249.5 321.9,249.7 322.2,249.8 322.3,249.9 322.6,250.0 322.9,250.0 323.1,250.1 323.4,250.1 325.2,250.1 325.5,250.1 325.9,250.2 327.8,250.5 328.2,250.6 329.0,250.6 329.7,250.7 330.2,250.8 330.7,250.9 331.3,251.0 331.8,251.2 332.5,251.4 333.0,251.5 334.3,251.9 334.7,252.0 335.0,252.1 335.3,252.2 335.6,252.4 335.9,252.5 336.7,253.2 337.2,253.5 337.5,253.7 337.8,253.8 338.2,253.9 339.2,254.2 339.6,254.3 339.8,254.3 340.1,254.3 340.6,254.2 341.1,254.1 341.4,254.1 341.7,254.1 342.0,254.1 342.3,254.2 342.6,254.3 342.8,254.4 343.1,254.5 343.3,254.7 343.4,254.9 343.8,255.3 344.7,256.6 345.2,257.2 346.0,258.4 346.2,258.7 346.4,258.9 346.6,259.1 346.8,259.2 347.1,259.4 347.7,259.6 348.2,259.9 348.5,260.0 349.1,260.4 349.5,260.6 349.8,260.7 350.3,261.0 350.7,261.2 351.1,261.3 352.0,261.6 352.5,261.7 352.9,261.9 355.6,263.2 356.1,263.5 356.4,263.6 356.6,263.9 356.8,264.1 357.0,264.4 357.0,264.5 357.1,265.1 357.2,265.3 357.3,265.6 357.5,265.8 357.6,266.0 357.8,266.1 358.0,266.3 358.3,266.4 359.5,267.1 361.3,268.0 361.8,268.2 362.0,268.3 362.2,268.4 362.5,268.5 362.8,268.5 363.2,268.5 363.4,268.4 363.6,268.4 364.3,268.1 364.6,268.1 364.8,268.0 365.2,268.0 365.4,268.0 365.7,268.1 366.0,268.2 366.3,268.3 366.5,268.4 366.8,268.6 367.4,269.1 368.3,269.9 369.5,271.0 370.7,272.0 371.0,272.3 371.3,272.4 371.5,272.6 371.7,272.7 372.0,272.8 372.3,272.8 372.6,272.8 372.9,272.8 373.2,272.8 373.5,272.7 373.7,272.6 374.0,272.5 374.3,272.3 374.7,271.9 380.0,267.3 380.5,266.9 381.0,266.6 381.4,266.6 382.0,266.7 382.6,266.8 383.0,266.9 383.7,267.0 387.3,268.0 388.8,268.4 389.3,268.6 389.8,268.5 390.2,268.5 390.6,268.4 390.9,268.2 392.7,264.8 394.9,260.0 395.4,259.1 395.6,258.7 395.8,258.4 396.0,258.2 396.2,258.0 396.5,257.9 396.8,257.8 397.1,257.7 397.5,257.6 397.8,257.6 398.0,257.7 398.4,257.7 398.6,257.8 400.9,258.4 401.4,258.6 401.7,258.6 401.9,258.6 402.3,258.6 402.5,258.6 402.8,258.5 403.1,258.4 403.4,258.3 403.9,258.0 404.1,257.8 404.4,257.7 404.7,257.7 405.0,257.7 405.5,257.7 406.8,257.7 409.0,257.9 409.4,257.9 410.0,257.9 410.6,258.0 412.4,258.3 413.3,258.4 414.0,258.4 414.3,258.4 414.6,258.4 414.8,258.3 415.0,258.3 415.3,258.1 415.6,258.0 415.9,257.8 417.0,257.0 418.3,256.2 418.5,256.1 418.8,256.0 419.1,255.9 419.2,255.9 419.4,255.9 419.7,255.9 420.0,255.9 420.2,256.0 421.6,256.3 424.7,257.0 425.1,257.1 425.5,257.3 425.7,257.5 426.0,257.8 426.4,258.3 426.5,258.4 427.4,259.6 427.9,260.3 428.3,260.8 428.5,261.0 428.7,261.1 428.9,261.2 429.2,261.4 429.5,261.5 429.7,261.5"/>
    <polyline points="428.2,260.3 427.5,259.4 426.7,258.3 425.6,256.8 425.4,256.5 425.1,255.9 424.7,255.1 423.5,252.6 422.8,251.3 420.2,247.2"/>
    <polyline points="504.2,347.2 504.0,347.0 503.8,346.8 503.5,346.7 503.2,346.6 502.9,346.5 502.7,346.4 502.3,346.3 501.3,346.1 500.9,346.0 500.6,345.9 500.3,345.8 499.9,345.7 499.1,345.4 498.4,345.1 496.7,344.6 495.5,344.0 494.9,343.8 494.2,343.5 493.7,343.3 493.1,343.2 491.5,343.0 489.3,342.8 487.7,342.6 486.4,342.5 485.6,342.3 484.9,342.0 484.4,341.8 484.0,341.5 483.3,341.0 482.4,340.2 481.8,339.5 481.0,338.6 480.2,337.6 479.4,336.6 478.1,335.1 476.8,333.5 475.9,332.5 475.4,331.9 475.1,331.5 475.0,330.9 475.0,330.3 475.0,329.2 475.0,328.3 475.2,327.5 475.2,327.3 475.3,326.2 475.4,325.1 475.5,324.5 475.7,324.2 475.9,323.8 476.2,323.3 476.6,322.7 476.8,322.3 476.8,321.7 476.7,320.7 476.4,319.0 476.3,318.7 476.3,318.5 476.2,317.7 476.1,317.0 475.9,316.3 475.8,315.1 475.5,314.5 475.2,314.2 474.6,313.8 471.7,312.2 470.7,311.8 469.9,311.6 468.1,311.5 467.4,311.3 466.9,310.9 466.4,310.5 464.9,309.2 464.0,308.4 463.4,307.7 461.8,306.3 461.3,305.9 460.8,305.6 460.4,305.5 459.5,305.3 458.5,305.1 458.1,305.0 457.6,304.8 457.3,304.4 457.1,303.9 457.0,303.2 457.0,302.7 457.1,302.0 457.2,301.1 457.9,299.4 457.9,298.4 457.5,296.9 457.4,296.5 456.7,295.3 456.0,294.6 455.9,294.5 454.1,293.5 453.7,293.2 453.6,293.0 452.8,291.5 452.7,291.3 452.6,291.2 452.0,290.6 451.7,290.3 451.3,289.4 451.0,288.8 451.0,288.7 450.9,288.6 450.4,285.5 450.4,285.3 449.2,283.8 448.3,282.5 447.1,280.9 444.5,277.2 441.7,272.9 439.1,269.9 438.4,269.0 438.2,268.8 437.9,268.5 437.6,268.2 437.3,268.0 433.4,265.6 432.5,264.9 429.9,262.3 429.3,261.7 429.0,261.4 428.7,261.1 428.5,260.8 428.2,260.3"/>
    <polyline points="641.1,331.5 641.0,331.9 640.9,333.7 640.8,334.9 640.7,336.3 640.6,337.5 640.5,339.4 640.4,339.8 640.4,340.0 640.4,340.2 640.4,340.4 640.3,340.6"/>
    <polyline points="632.6,304.1 639.5,310.7 639.9,311.0 640.2,311.2 640.6,311.4 641.7,311.9 642.0,312.0 642.3,312.2 642.7,312.4 642.9,312.6 643.2,312.9 643.4,313.2 643.5,313.3 643.7,313.8 643.8,314.4 643.8,314.9 643.8,315.8"/>
    <polyline points="617.8,292.3 618.6,292.9 619.3,293.5 623.6,296.8 627.5,299.9 629.6,301.5 630.5,302.2 630.8,302.4 632.6,304.1"/>
    <polyline points="607.0,283.8 608.1,285.1 608.9,285.6 609.6,286.2 609.8,286.4 612.0,287.9 617.8,292.3"/>
    <polyline points="584.3,270.8 586.2,271.6 586.5,271.8 588.1,272.8 589.6,273.8 590.4,274.4 592.0,275.1 593.0,275.5 593.8,275.7 597.7,276.4 598.4,276.6 599.0,277.0 600.3,278.1 602.6,280.3 605.1,281.9 605.9,282.4 607.0,283.8"/>
    <polyline points="567.7,259.3 571.7,262.3 575.5,265.1 578.3,267.2 578.8,267.6 581.0,269.3 581.5,269.7 582.0,269.9 584.3,270.8"/>
    <polyline points="541.3,259.0 541.7,260.1 541.8,260.7 542.0,261.3 542.3,262.0 542.4,262.2 542.5,262.3 542.7,262.4 542.8,262.5 543.0,262.6 543.2,262.7 543.4,262.8 543.6,262.9 543.9,262.9 544.2,262.9 544.4,262.9 546.3,262.8 548.0,262.7 550.0,262.5 551.5,261.9 554.5,260.6 556.4,260.2 559.0,259.2 562.4,257.1 563.0,257.0 564.4,257.1 565.7,257.9 567.7,259.3"/>
    <polyline points="526.3,247.1 531.4,247.3 531.9,247.3 532.4,247.4 533.6,247.6 534.2,247.7 534.9,247.7 537.6,247.7 538.1,247.8 538.5,247.8 538.9,247.9 539.3,248.1 539.9,248.3 540.3,248.6 540.7,248.9 541.0,249.2 541.2,249.5 541.2,249.7 541.3,250.0 541.4,250.3 541.4,250.6 541.2,251.2 540.0,255.0 539.9,255.3 539.9,255.5 540.0,255.8 540.1,256.2 540.5,256.9 540.7,257.3 540.9,258.0 541.3,259.0"/>
    <polyline points="505.3,246.7 513.4,246.8 522.5,247.0 526.3,247.1"/>
    <polyline points="486.2,246.4 486.9,246.4 492.0,246.6 492.6,246.6 494.8,246.6 498.2,246.7 498.7,246.7 500.0,246.5 500.5,246.5 504.0,246.7 505.3,246.7"/>
    <polyline points="467.2,244.4 468.2,244.6 468.8,244.6 469.5,244.6 470.3,244.6 476.5,245.4 480.3,245.4 485.5,246.4 486.2,246.4"/>
    <polyline points="451.1,254.7 452.5,249.6 452.8,249.1 457.9,245.7 459.6,245.1 461.4,244.6 462.5,244.4 463.9,244.1 464.8,244.1 467.2,244.4"/>
    <polyline points="640.6,336.6 640.6,336.9 640.6,337.2 640.6,337.5"/>
    <polyline points="640.6,336.3 640.6,336.0 640.6,334.9 640.4,331.4 640.4,331.2 640.3,331.1 640.3,330.9 640.2,330.8 640.1,330.7 640.0,330.5 639.9,330.4 639.7,330.3 639.6,330.1 639.4,330.1 639.3,330.0 639.1,329.9 639.0,329.9 638.8,329.8 638.7,329.8 638.5,329.8 638.4,329.8"/>
    <polyline points="637.5,329.7 638.4,329.7"/>
    <polyline points="638.4,329.7 638.5,329.7 638.7,329.7 638.9,329.8 639.0,329.8 639.2,329.8 639.3,329.9 639.5,330.0 639.7,330.1 639.8,330.2 640.0,330.3 640.1,330.5 640.2,330.6 640.3,330.8 640.3,330.9 640.4,331.1 640.4,331.2 640.5,331.4"/>
    <polyline points="640.5,331.4 640.6,334.9 640.7,335.6 640.7,336.0 640.7,336.3"/>
    <polyline points="638.4,329.8 637.5,329.8"/>
    <polyline points="632.1,333.8 632.0,333.9 632.0,334.0 632.0,334.3 632.0,334.4 632.0,334.5 632.0,334.6 632.0,334.9 631.5,337.6"/>
    <polyline points="632.1,333.8 632.0,334.4 632.0,334.6 631.9,334.9 631.4,337.5"/>
    <polyline points="632.4,331.6 632.1,332.5"/>
    <polyline points="631.4,334.2 631.4,334.3 631.3,334.5 631.3,334.6 631.2,335.0 630.8,337.5"/>
    <polyline points="631.7,333.3 631.4,334.2 631.2,334.7 631.2,334.9 631.2,335.0 631.1,335.1 630.7,337.5"/>
    <polyline points="640.2,330.0 639.8,329.9 639.6,329.8 639.3,329.7 639.1,329.7 638.8,329.7 638.6,329.7 638.4,329.6 637.3,329.7"/>
    <polyline points="637.5,329.8 635.6,329.9 634.9,329.9 634.7,329.9 634.5,329.9 634.4,330.0 634.2,330.0 634.1,330.1 633.9,330.1 633.8,330.2 633.2,330.6 633.0,330.7 632.9,330.8 632.7,330.9 632.6,331.0 632.5,331.2 632.5,331.3 632.4,331.6 632.3,331.8 632.3,332.0 632.3,332.1"/>
    <polyline points="635.6,329.9 635.5,329.9 635.4,329.9 635.2,329.9 634.9,329.9 634.7,329.9"/>
    <polyline points="635.6,329.8 635.4,329.8 635.2,329.9 634.9,329.9 634.7,329.9"/>
    <polyline points="633.0,335.9 632.9,336.3 632.9,336.4 632.8,336.5 632.7,336.8 632.7,336.9 632.7,337.0"/>
    <polyline points="633.1,335.2 633.0,335.9"/>
    <polyline points="633.0,335.2 632.9,335.9"/>
    <polyline points="632.9,335.9 632.7,337.0 632.6,337.6"/>
    <polyline points="632.8,334.1 633.0,334.3 633.0,334.6 633.1,334.6 633.1,334.7 633.1,334.8 633.1,334.9 633.1,335.0 633.1,335.1 633.1,335.2"/>
    <polyline points="632.6,331.5 632.5,331.9 632.4,332.1 632.4,332.3 632.4,332.5 632.4,332.6 632.4,332.9 632.5,333.2"/>
    <polyline points="632.3,332.1 632.3,332.3 632.3,332.5 632.3,332.6 632.3,332.8 632.5,333.2 632.5,333.5 632.6,333.6 632.8,334.1 632.9,334.2 632.9,334.4 633.0,334.6 633.0,334.7 633.0,334.8 633.0,334.8 633.0,334.9 633.0,335.0 633.0,335.1 633.0,335.2"/>
    <polyline points="632.3,332.1 632.1,333.8"/>
    <polyline points="632.3,331.0 632.2,331.2 632.2,331.3 632.1,331.5 632.1,331.6 632.1,331.8"/>
    <polyline points="630.5,334.2 629.3,335.9"/>
    <polyline points="630.9,333.7 630.5,334.2"/>
    <polyline points="632.3,331.0 632.1,331.4 632.1,331.5 632.0,331.7 631.9,332.2 631.9,332.3 631.8,332.5 631.7,332.6 631.6,332.8 630.9,333.7"/>
    <polyline points="632.1,331.8 632.1,332.1 632.1,332.3 632.0,332.4 632.0,332.5 631.7,333.3"/>
    <polyline points="630.2,337.2 630.2,337.4"/>
    <polyline points="630.6,335.1 630.2,337.2"/>
    <polyline points="630.3,337.2 630.2,337.4"/>
    <polyline points="630.7,335.1 630.3,337.2"/>
    <polyline points="631.9,332.5 631.7,333.0 631.5,333.5 631.2,334.3"/>
    <polyline points="630.3,337.4 630.4,337.2"/>
    <polyline points="631.2,334.0 631.0,334.3 630.9,334.4 630.8,334.6 630.7,334.7 630.7,334.8 630.7,334.9 630.7,335.1"/>
    <polyline points="630.7,335.1 630.4,337.2"/>
    <polyline points="637.3,329.7 637.1,329.7 636.9,329.7 636.3,329.8 636.2,329.8 636.1,329.8"/>
    <polyline points="640.5,329.7 638.9,329.6 638.5,329.6 638.2,329.6 637.8,329.6 636.3,329.6 633.8,329.7 633.5,329.7 633.1,329.8 632.7,329.8 632.3,329.9 632.0,330.0 631.6,330.1 631.0,330.4 630.6,330.6 630.3,330.7 630.0,331.0 629.8,331.2 629.5,331.4 629.2,331.7 628.8,332.1 627.5,333.8"/>
    <polyline points="637.3,329.7 637.1,329.7 636.9,329.7 636.7,329.6 636.5,329.6 636.4,329.6 636.3,329.6"/>
    <polyline points="632.1,332.5 632.0,332.6 632.0,332.8 631.9,333.0 631.8,333.1 631.7,333.3"/>
    <polyline points="631.7,333.0 631.7,333.2 631.6,333.3 631.5,333.5 631.4,333.7 631.2,334.0 631.0,334.3 630.9,334.4 630.9,334.6 630.8,334.7 630.8,334.8 630.8,334.9 630.7,335.1"/>
    <polyline points="630.4,337.2 630.4,337.4"/>
    <polyline points="630.8,335.1 630.4,337.2"/>
    <polyline points="631.5,333.5 631.5,333.7 631.4,333.8 631.3,334.0 631.1,334.2 631.0,334.4 631.0,334.6 630.9,334.7 630.9,334.9 630.8,334.9 630.8,335.1"/>
    <polyline points="630.6,337.5 631.0,335.2 631.1,335.0 631.1,334.8 631.2,334.6 631.2,334.3"/>
    <polyline points="631.2,334.3 631.1,334.6 631.0,334.8 631.0,335.0 630.6,337.5"/>
    <polyline points="631.0,337.5 631.5,335.0 631.5,334.8 631.6,334.5 631.6,334.3 631.6,334.1 631.7,333.9"/>
    <polyline points="631.6,334.3 631.5,334.5 631.5,334.8 631.4,335.0 631.4,335.2 631.0,337.5"/>
    <polyline points="632.1,332.5 631.9,333.1 631.8,333.4 631.8,333.6 631.7,334.3 631.7,334.6 631.6,335.0 631.1,337.5"/>
    <polyline points="631.9,333.1 631.7,333.9 631.4,334.5 631.4,334.7 631.4,334.8 631.3,335.0 630.9,337.5"/>
    <polyline points="631.8,333.6 631.8,333.8 631.8,334.0 631.8,334.2 631.8,334.3 631.8,334.5 631.7,335.1 631.2,337.5"/>
    <polyline points="632.1,331.8 632.1,332.0 632.0,332.2 632.0,332.4 631.9,332.5 631.9,332.7 631.8,332.8 631.7,333.0 630.8,334.4 630.7,334.5 630.7,334.7 630.6,334.8 630.6,334.9 630.6,335.1"/>
    <polyline points="631.3,334.0 631.1,334.3 631.0,334.7 631.0,334.8 630.9,335.0 630.5,337.4"/>
    <polyline points="637.5,329.7 636.1,329.8 635.6,329.8 634.7,329.9 634.4,329.9 634.2,329.9 634.0,329.9 633.7,330.0 633.5,330.0 633.3,330.1 633.0,330.2 632.8,330.3 632.6,330.4 632.5,330.6 632.4,330.8 632.3,331.0"/>
    <polyline points="629.9,331.7 628.5,333.6"/>
  </g>

  <!-- 지하철 역 -->
  <g>
    <circle cx="471.9" cy="418.9" r="3" fill="#dc2626" stroke="#fff" stroke-width="1"/>
    <circle cx="493.6" cy="376.6" r="3" fill="#dc2626" stroke="#fff" stroke-width="1"/>
    <circle cx="471.8" cy="410.2" r="3" fill="#dc2626" stroke="#fff" stroke-width="1"/>
    <circle cx="479.3" cy="394.3" r="3" fill="#dc2626" stroke="#fff" stroke-width="1"/>
    <circle cx="474.9" cy="424.7" r="3" fill="#dc2626" stroke="#fff" stroke-width="1"/>
    <circle cx="497.8" cy="360.9" r="3" fill="#dc2626" stroke="#fff" stroke-width="1"/>
    <circle cx="450.4" cy="256.1" r="3" fill="#dc2626" stroke="#fff" stroke-width="1"/>
    <circle cx="420.2" cy="247.2" r="3" fill="#dc2626" stroke="#fff" stroke-width="1"/>
    <circle cx="312.3" cy="237.9" r="3" fill="#dc2626" stroke="#fff" stroke-width="1"/>
    <circle cx="641.1" cy="330.6" r="3" fill="#dc2626" stroke="#fff" stroke-width="1"/>
    <circle cx="427.7" cy="259.0" r="3" fill="#dc2626" stroke="#fff" stroke-width="1"/>
    <circle cx="395.0" cy="260.0" r="3" fill="#dc2626" stroke="#fff" stroke-width="1"/>
    <circle cx="427.7" cy="259.7" r="3" fill="#dc2626" stroke="#fff" stroke-width="1"/>
    <circle cx="369.5" cy="271.0" r="3" fill="#dc2626" stroke="#fff" stroke-width="1"/>
    <circle cx="365.6" cy="180.4" r="3" fill="#dc2626" stroke="#fff" stroke-width="1"/>
    <circle cx="643.5" cy="316.0" r="3" fill="#dc2626" stroke="#fff" stroke-width="1"/>
    <circle cx="632.6" cy="304.1" r="3" fill="#dc2626" stroke="#fff" stroke-width="1"/>
    <circle cx="617.7" cy="292.3" r="3" fill="#dc2626" stroke="#fff" stroke-width="1"/>
    <circle cx="606.9" cy="283.8" r="3" fill="#dc2626" stroke="#fff" stroke-width="1"/>
    <circle cx="584.2" cy="270.9" r="3" fill="#dc2626" stroke="#fff" stroke-width="1"/>
    <circle cx="567.7" cy="259.4" r="3" fill="#dc2626" stroke="#fff" stroke-width="1"/>
    <circle cx="541.2" cy="259.0" r="3" fill="#dc2626" stroke="#fff" stroke-width="1"/>
    <circle cx="526.3" cy="247.1" r="3" fill="#dc2626" stroke="#fff" stroke-width="1"/>
    <circle cx="505.3" cy="246.7" r="3" fill="#dc2626" stroke="#fff" stroke-width="1"/>
    <circle cx="486.9" cy="246.5" r="3" fill="#dc2626" stroke="#fff" stroke-width="1"/>
    <circle cx="467.1" cy="244.4" r="3" fill="#dc2626" stroke="#fff" stroke-width="1"/>
    <circle cx="417.0" cy="257.1" r="3" fill="#dc2626" stroke="#fff" stroke-width="1"/>
    <circle cx="387.3" cy="268.1" r="3" fill="#dc2626" stroke="#fff" stroke-width="1"/>
    <circle cx="359.5" cy="267.1" r="3" fill="#dc2626" stroke="#fff" stroke-width="1"/>
    <circle cx="301.1" cy="248.8" r="3" fill="#dc2626" stroke="#fff" stroke-width="1"/>
    <circle cx="526.5" cy="245.1" r="3" fill="#dc2626" stroke="#fff" stroke-width="1"/>
    <circle cx="524.4" cy="238.2" r="3" fill="#dc2626" stroke="#fff" stroke-width="1"/>
    <circle cx="525.0" cy="304.7" r="3" fill="#dc2626" stroke="#fff" stroke-width="1"/>
    <circle cx="505.2" cy="348.0" r="3" fill="#dc2626" stroke="#fff" stroke-width="1"/>
    <circle cx="504.6" cy="348.3" r="3" fill="#dc2626" stroke="#fff" stroke-width="1"/>
    <circle cx="519.7" cy="352.2" r="3" fill="#dc2626" stroke="#fff" stroke-width="1"/>
    <circle cx="553.4" cy="362.0" r="3" fill="#dc2626" stroke="#fff" stroke-width="1"/>
    <circle cx="501.1" cy="340.7" r="3" fill="#dc2626" stroke="#fff" stroke-width="1"/>
    <circle cx="512.2" cy="324.9" r="3" fill="#dc2626" stroke="#fff" stroke-width="1"/>
    <circle cx="521.5" cy="315.3" r="3" fill="#dc2626" stroke="#fff" stroke-width="1"/>
    <circle cx="530.1" cy="287.5" r="3" fill="#dc2626" stroke="#fff" stroke-width="1"/>
    <circle cx="534.7" cy="275.3" r="3" fill="#dc2626" stroke="#fff" stroke-width="1"/>
    <circle cx="530.1" cy="262.1" r="3" fill="#dc2626" stroke="#fff" stroke-width="1"/>
    <circle cx="344.6" cy="256.6" r="3" fill="#dc2626" stroke="#fff" stroke-width="1"/>
    <circle cx="537.0" cy="358.2" r="3" fill="#dc2626" stroke="#fff" stroke-width="1"/>
    <circle cx="323.0" cy="158.8" r="3" fill="#dc2626" stroke="#fff" stroke-width="1"/>
    <circle cx="347.2" cy="166.6" r="3" fill="#dc2626" stroke="#fff" stroke-width="1"/>
    <circle cx="293.4" cy="162.2" r="3" fill="#dc2626" stroke="#fff" stroke-width="1"/>
    <circle cx="613.2" cy="376.7" r="3" fill="#dc2626" stroke="#fff" stroke-width="1"/>
    <circle cx="579.1" cy="366.0" r="3" fill="#dc2626" stroke="#fff" stroke-width="1"/>
    <circle cx="620.7" cy="395.8" r="3" fill="#dc2626" stroke="#fff" stroke-width="1"/>
    <circle cx="495.7" cy="344.0" r="3" fill="#dc2626" stroke="#fff" stroke-width="1"/>
    <circle cx="475.1" cy="328.0" r="3" fill="#dc2626" stroke="#fff" stroke-width="1"/>
    <circle cx="392.6" cy="201.3" r="3" fill="#dc2626" stroke="#fff" stroke-width="1"/>
    <circle cx="465.6" cy="309.7" r="3" fill="#dc2626" stroke="#fff" stroke-width="1"/>
    <circle cx="457.7" cy="297.6" r="3" fill="#dc2626" stroke="#fff" stroke-width="1"/>
    <circle cx="448.9" cy="283.2" r="3" fill="#dc2626" stroke="#fff" stroke-width="1"/>
    <circle cx="480.7" cy="338.0" r="3" fill="#dc2626" stroke="#fff" stroke-width="1"/>
    <circle cx="415.6" cy="240.4" r="3" fill="#dc2626" stroke="#fff" stroke-width="1"/>
    <circle cx="406.5" cy="224.6" r="3" fill="#dc2626" stroke="#fff" stroke-width="1"/>
    <circle cx="598.3" cy="366.4" r="3" fill="#dc2626" stroke="#fff" stroke-width="1"/>
    <circle cx="400.0" cy="213.8" r="3" fill="#dc2626" stroke="#fff" stroke-width="1"/>
    <circle cx="385.0" cy="193.6" r="3" fill="#dc2626" stroke="#fff" stroke-width="1"/>
    <circle cx="476.4" cy="318.9" r="3" fill="#dc2626" stroke="#fff" stroke-width="1"/>
    <circle cx="439.6" cy="270.3" r="3" fill="#dc2626" stroke="#fff" stroke-width="1"/>
    <circle cx="292.8" cy="162.4" r="3" fill="#dc2626" stroke="#fff" stroke-width="1"/>
    <circle cx="365.5" cy="180.2" r="3" fill="#dc2626" stroke="#fff" stroke-width="1"/>
    <circle cx="384.9" cy="193.5" r="3" fill="#dc2626" stroke="#fff" stroke-width="1"/>
  </g>
</svg>