<?xml version="1.0" encoding="UTF-8"?>
<svg width="800" height="600" viewBox="0 0 800 600" 
     xmlns="http://www.w3.org/2000/svg">
  <title>Jakarta Subway Map</title>
  <rect width="100%" height="100%" fill="#f8f9fa"/>

  <!-- 지하철 선로 -->
  <g id="subway-lines" stroke="#2563eb" stroke-width="3" fill="none">
    <polyline points="261.9,496.7 261.1,498.5 260.6,499.6 260.3,500.4" opacity="0.8"/>
    <polyline points="355.6,290.5 355.6,292.5 355.7,296.1 355.7,298.0 355.9,301.0 355.9,301.4 355.9,302.4 356.1,305.3 356.2,308.3 356.0,309.3 355.6,311.1 355.3,312.3 354.9,313.8 354.6,314.6 353.9,316.9 353.6,318.9 353.3,320.5 353.2,323.0 353.0,324.3 352.8,325.8 352.4,327.6 352.2,329.2 352.0,330.2 351.5,331.8 351.1,332.8 350.8,333.4 350.0,334.6 348.9,336.2 346.3,339.5 344.3,341.8 342.9,343.3 341.2,344.8 340.2,345.6 338.9,346.5 337.0,347.6 333.0,349.6 329.8,351.3 326.9,352.8 324.5,354.0 320.6,356.0 313.9,359.5 309.3,361.7 306.5,363.2 302.7,365.1 296.1,367.8 293.1,369.1 287.8,371.6 281.9,374.6 280.1,375.4 275.5,377.8 273.5,378.8" opacity="0.8"/>
    <polyline points="273.5,378.8 270.8,380.3 270.0,380.8 269.3,381.2 268.7,381.8 267.9,382.7 267.3,383.4 266.7,384.3" opacity="0.8"/>
    <polyline points="260.4,500.5 260.8,499.6 261.3,498.5 262.0,496.7" opacity="0.8"/>
    <polyline points="264.0,420.8 264.1,420.1 264.1,417.7 264.1,416.3 264.1,415.7 264.2,415.4" opacity="0.8"/>
    <polyline points="264.2,415.4 264.4,414.4 264.8,413.5" opacity="0.8"/>
    <polyline points="264.0,420.8 263.4,422.5" opacity="0.8"/>
    <polyline points="273.6,378.9 280.4,375.7 282.1,374.7 288.2,371.9 293.4,369.3 303.0,365.3 306.9,363.4 309.6,362.0 314.4,359.6 320.9,356.2 324.7,354.3 327.4,353.0 330.2,351.5 333.8,349.7 337.3,347.8 339.2,346.7 340.5,345.8 341.8,344.8 343.4,343.4 344.8,342.0 346.8,339.6 349.3,336.3 350.5,334.7 351.2,333.6 351.5,333.0 352.0,331.9 352.4,330.3 352.7,329.2 353.2,325.8 353.5,323.0 353.6,320.5 353.9,318.9 354.3,316.9 355.2,313.8 355.6,312.4 356.3,309.4 356.5,308.2 356.5,307.2 356.4,305.3 356.4,302.4 356.3,301.5 356.3,301.0 356.2,297.8 356.2,296.1 356.1,293.8 356.0,292.5 355.9,290.5" opacity="0.8"/>
    <polyline points="157.9,524.8 159.4,524.7 168.3,524.9" opacity="0.8"/>
    <polyline points="170.3,524.9 172.0,524.9 172.2,524.9 173.3,524.9 186.7,525.2" opacity="0.8"/>
    <polyline points="172.2,524.9 173.1,525.0 174.1,525.2 175.1,525.4 175.7,525.5 176.5,525.6 180.2,525.7 187.3,525.8" opacity="0.8"/>
    <polyline points="170.3,524.9 171.3,525.0 172.0,525.0 172.5,525.1 173.1,525.2 173.9,525.4 175.6,525.8 176.5,526.1 177.3,526.3" opacity="0.8"/>
    <polyline points="173.1,525.2 174.1,525.4 176.8,525.8 177.3,525.9 178.0,525.9 180.8,526.0" opacity="0.8"/>
    <polyline points="181.1,526.9 180.5,526.8" opacity="0.8"/>
    <polyline points="186.1,526.8 181.4,526.7" opacity="0.8"/>
    <polyline points="181.4,526.6 179.7,526.5 178.8,526.5 178.0,526.4 176.5,526.1" opacity="0.8"/>
    <polyline points="175.6,525.8 176.5,526.0 177.6,526.2 178.7,526.4 179.5,526.4 181.4,526.4" opacity="0.8"/>
    <polyline points="183.7,526.3 180.8,526.3" opacity="0.8"/>
    <polyline points="177.7,526.5 175.4,525.9 173.6,525.4 172.9,525.3 172.2,525.2 170.9,525.2 169.8,525.1 164.5,525.1" opacity="0.8"/>
    <polyline points="175.4,525.9 173.9,525.4" opacity="0.8"/>
    <polyline points="174.1,525.4 175.0,525.6 176.0,525.8 176.8,525.9 177.7,526.0 178.7,526.1 180.8,526.2" opacity="0.8"/>
    <polyline points="164.5,524.9 170.3,525.0 172.0,525.0" opacity="0.8"/>
    <polyline points="170.3,525.0 171.3,525.0 172.0,524.9" opacity="0.8"/>
    <polyline points="174.4,525.0 186.8,525.2" opacity="0.8"/>
    <polyline points="174.4,525.0 175.7,525.2 176.3,525.2 186.9,525.3" opacity="0.8"/>
    <polyline points="174.1,525.2 175.3,525.4 176.0,525.5 176.9,525.5 187.0,525.6" opacity="0.8"/>
    <polyline points="187.0,525.5 176.2,525.4 175.4,525.3 174.1,525.1 173.1,525.0" opacity="0.8"/>
    <polyline points="174.1,525.1 175.5,525.2 176.3,525.3 187.0,525.4" opacity="0.8"/>
    <polyline points="263.6,422.8 264.0,420.8" opacity="0.8"/>
    <polyline points="264.2,415.4 264.2,414.8 264.2,414.4 264.5,413.5" opacity="0.8"/>
    <polyline points="157.9,524.8 157.3,524.9 156.5,525.1 155.3,525.4 151.5,526.6 149.6,527.6" opacity="0.8"/>
    <polyline points="266.8,384.4 267.4,383.4 268.0,382.7 268.9,381.9 269.5,381.3 270.1,380.8 270.9,380.4 273.6,378.9" opacity="0.8"/>
    <polyline points="165.5,524.5 162.6,524.6 160.1,524.6 158.8,524.7 157.9,524.8" opacity="0.8"/>
    <polyline points="266.7,384.3 266.1,385.4 265.7,386.4 265.4,387.5 265.3,388.6 265.3,390.5" opacity="0.8"/>
    <polyline points="265.5,390.5 265.5,388.6 265.6,387.5 265.9,386.4 266.3,385.4 266.8,384.4" opacity="0.8"/>
    <polyline points="187.3,525.9 182.0,525.8 181.6,525.8 180.7,525.7 180.2,525.7" opacity="0.8"/>
    <polyline points="181.3,527.4 186.7,527.5" opacity="0.8"/>
    <polyline points="181.3,527.2 186.7,527.3" opacity="0.8"/>
    <polyline points="181.3,527.0 186.8,527.1" opacity="0.8"/>
    <polyline points="165.9,525.4 167.2,525.4 167.8,525.4 169.2,525.2 170.0,525.2 170.9,525.2" opacity="0.8"/>
    <polyline points="164.7,525.2 167.4,525.2" opacity="0.8"/>
    <polyline points="260.3,500.4 260.0,501.0 259.7,501.4 258.5,503.2 258.3,503.5 257.9,504.2 257.6,504.9 256.8,506.7 256.6,507.4 256.5,508.0 256.1,512.2 255.9,513.7 255.6,515.4 255.3,516.7 255.0,518.1 254.3,520.0 254.2,520.4 254.1,520.8 254.0,521.1 254.0,521.5 253.8,522.2 253.9,523.5 253.9,524.6 253.8,525.6 253.3,528.2 253.2,528.8 253.0,529.2 252.7,529.7 252.4,530.2 251.9,530.6 251.3,531.0 250.7,531.3 250.1,531.6 249.3,531.8 248.5,531.9 247.6,532.0 243.3,532.0 236.2,532.0 224.7,531.9 221.4,531.9 219.8,531.7 217.9,531.5 215.5,531.0 212.4,530.3 209.3,529.8 206.4,529.2 203.6,528.7 201.5,528.2 199.8,527.8 197.7,527.1 195.9,526.4 193.2,525.3 192.2,524.8 191.0,524.5 189.8,524.3 189.0,524.2 188.0,524.1 187.1,524.1 186.1,524.2 183.8,524.4 182.9,524.5 182.0,524.5 178.7,524.4 172.6,524.3 169.0,524.3 167.9,524.3 165.5,524.5" opacity="0.8"/>
    <polyline points="265.3,392.1 265.3,395.9 265.3,399.1 265.3,402.2 265.2,404.2 265.2,406.9 265.3,411.2 265.1,412.0 264.9,412.5 264.5,413.5 264.2,414.1 264.0,414.6 263.8,415.0 263.8,415.6 263.8,416.2 263.7,417.7 263.7,420.0 263.6,420.8 263.4,422.5 263.3,423.1 262.8,425.6 262.2,428.8 262.0,429.8 261.9,430.4 261.7,433.6 261.2,439.1 260.9,441.6 260.4,444.7 260.1,447.1 259.8,448.5 259.7,449.5 258.9,455.2 258.5,457.7 258.5,458.4 258.5,458.9 258.6,459.6 258.9,460.3 259.8,462.4 260.7,464.2 261.1,465.0 261.2,465.5 261.3,466.0 261.3,467.1 261.3,467.8 261.3,468.7 261.1,470.7 261.0,472.4 261.0,473.0 261.1,474.4 261.5,477.8 261.6,478.6 261.6,479.0 262.1,482.9 262.3,485.4 262.3,486.2 262.4,488.1 262.5,490.2 262.6,493.7 262.6,494.2 262.6,494.6 262.4,495.2 262.3,495.8 261.9,496.7" opacity="0.8"/>
    <polyline points="165.5,524.5 166.5,524.5 167.9,524.4 169.0,524.4 172.6,524.4 178.7,524.5 182.0,524.6 182.9,524.6 183.8,524.5 186.1,524.2 187.2,524.2 188.0,524.2 189.0,524.3 189.8,524.4 190.9,524.6 192.1,524.9 193.1,525.4 194.6,526.0 195.9,526.5 197.7,527.2 199.7,527.9 201.4,528.3 203.5,528.7 206.3,529.3 209.3,529.9 212.3,530.4 215.5,531.1 217.9,531.6 219.8,531.8 221.4,531.9 224.7,532.0 236.2,532.1 243.3,532.1 247.6,532.1 248.6,532.0 249.4,531.9 250.2,531.7 250.8,531.4 251.5,531.1 252.0,530.7 252.5,530.3 252.9,529.8 253.2,529.3 253.4,528.8 253.5,528.3 254.0,525.6 254.1,524.6 254.1,523.5 254.0,522.3 254.1,521.5 254.2,521.1 254.2,520.8 254.3,520.4 254.5,520.0 255.1,518.1 255.5,516.7 255.8,515.4 256.1,513.7 256.2,512.2 256.6,508.0 256.7,507.4 256.9,506.7 257.7,504.9 258.0,504.2 258.4,503.6 258.6,503.2 259.9,501.5 260.1,501.0 260.4,500.5" opacity="0.8"/>
    <polyline points="262.0,496.7 262.4,495.9 262.6,495.3 262.7,494.6 262.8,494.2 262.8,493.7 262.7,490.2 262.6,488.1 262.5,486.2 262.4,485.3 262.2,482.9 261.8,479.0 261.7,478.6 261.6,477.8 261.2,474.4 261.1,473.0 261.1,472.4 261.3,470.7 261.4,468.7 261.5,467.9 261.5,467.1 261.4,466.0 261.4,465.5 261.2,465.0 260.9,464.1 260.0,462.3 259.0,460.3 258.8,459.6 258.7,458.9 258.6,458.4 258.7,457.7 259.1,455.2 259.8,449.6 260.0,448.5 260.2,447.1 260.6,444.7 261.1,441.6 261.4,439.1 261.8,433.6 262.0,430.4 262.1,429.8 262.3,428.8 263.0,425.7 263.4,423.5 263.6,422.8 264.2,420.8 264.4,420.1 264.6,418.9 264.6,417.7 264.6,416.2 264.6,415.5 264.6,414.8 264.6,414.4 264.8,413.5 265.0,413.1 265.3,412.0 265.4,411.2 265.4,406.9 265.4,404.2 265.4,402.2 265.4,399.1 265.5,395.9 265.5,392.1" opacity="0.8"/>
    <polyline points="356.4,302.4 356.1,301.9 355.9,301.4" opacity="0.8"/>
    <polyline points="355.9,302.4 356.1,301.9 356.3,301.5" opacity="0.8"/>
    <polyline points="265.5,392.1 265.5,390.5" opacity="0.8"/>
    <polyline points="265.3,390.5 265.3,392.1" opacity="0.8"/>
    <polyline points="181.4,526.4 186.1,526.5" opacity="0.8"/>
  </g>

  <!-- 지하철 역 -->
  <g id="subway-stations">
    <circle cx="265.3" cy="404.2" r="4" fill="#dc2626" stroke="#fff" stroke-width="2"/>
    <text x="265.3" y="396.2" text-anchor="middle" font-size="10" fill="#374151">ASEAN</text>
    <circle cx="355.8" cy="292.5" r="4" fill="#dc2626" stroke="#fff" stroke-width="2"/>
    <circle cx="355.0" cy="313.8" r="4" fill="#dc2626" stroke="#fff" stroke-width="2"/>
    <text x="355.0" y="305.8" text-anchor="middle" font-size="10" fill="#374151">Dukuh Atas BNI</text>
    <circle cx="351.0" cy="333.5" r="4" fill="#dc2626" stroke="#fff" stroke-width="2"/>
    <text x="351.0" y="325.5" text-anchor="middle" font-size="10" fill="#374151">Setiabudi ASTRA</text>
    <circle cx="337.2" cy="347.7" r="4" fill="#dc2626" stroke="#fff" stroke-width="2"/>
    <text x="337.2" y="339.7" text-anchor="middle" font-size="10" fill="#374151">Bendungan Hilir</text>
    <circle cx="302.8" cy="365.2" r="4" fill="#dc2626" stroke="#fff" stroke-width="2"/>
    <text x="302.8" y="357.2" text-anchor="middle" font-size="10" fill="#374151">Istora Mandiri</text>
    <circle cx="280.2" cy="375.6" r="4" fill="#dc2626" stroke="#fff" stroke-width="2"/>
    <text x="280.2" y="367.6" text-anchor="middle" font-size="10" fill="#374151">Senayan Mastercard</text>
    <circle cx="264.2" cy="417.8" r="4" fill="#dc2626" stroke="#fff" stroke-width="2"/>
    <text x="264.2" y="409.8" text-anchor="middle" font-size="10" fill="#374151">Blok M BCA</text>
    <circle cx="260.5" cy="444.7" r="4" fill="#dc2626" stroke="#fff" stroke-width="2"/>
    <text x="260.5" y="436.7" text-anchor="middle" font-size="10" fill="#374151">Blok A</text>
    <circle cx="261.2" cy="470.7" r="4" fill="#dc2626" stroke="#fff" stroke-width="2"/>
    <text x="261.2" y="462.7" text-anchor="middle" font-size="10" fill="#374151">Haji Nawi</text>
    <circle cx="261.2" cy="498.5" r="4" fill="#dc2626" stroke="#fff" stroke-width="2"/>
    <text x="261.2" y="490.5" text-anchor="middle" font-size="10" fill="#374151">Cipete Raya Tuku</text>
    <circle cx="243.3" cy="532.0" r="4" fill="#dc2626" stroke="#fff" stroke-width="2"/>
    <text x="243.3" y="524.0" text-anchor="middle" font-size="10" fill="#374151">Fatmawati Indomaret</text>
    <circle cx="178.7" cy="524.5" r="4" fill="#dc2626" stroke="#fff" stroke-width="2"/>
    <text x="178.7" y="516.5" text-anchor="middle" font-size="10" fill="#374151">Lebak Bulus</text>
    <circle cx="345.7" cy="230.3" r="4" fill="#dc2626" stroke="#fff" stroke-width="2"/>
    <text x="345.7" y="222.3" text-anchor="middle" font-size="10" fill="#374151">Harmoni</text>
    <circle cx="341.5" cy="218.0" r="4" fill="#dc2626" stroke="#fff" stroke-width="2"/>
    <text x="341.5" y="210.0" text-anchor="middle" font-size="10" fill="#374151">Sawah Besar</text>
    <circle cx="334.8" cy="195.7" r="4" fill="#dc2626" stroke="#fff" stroke-width="2"/>
    <text x="334.8" y="187.7" text-anchor="middle" font-size="10" fill="#374151">Mangga Besar</text>
    <circle cx="329.0" cy="182.2" r="4" fill="#dc2626" stroke="#fff" stroke-width="2"/>
    <text x="329.0" y="174.2" text-anchor="middle" font-size="10" fill="#374151">Glodok</text>
    <circle cx="356.0" cy="272.2" r="4" fill="#dc2626" stroke="#fff" stroke-width="2"/>
    <text x="356.0" y="264.2" text-anchor="middle" font-size="10" fill="#374151">Thamrin</text>
    <circle cx="357.3" cy="257.8" r="4" fill="#dc2626" stroke="#fff" stroke-width="2"/>
    <text x="357.3" y="249.8" text-anchor="middle" font-size="10" fill="#374151">Monas</text>
    <circle cx="322.7" cy="167.4" r="4" fill="#dc2626" stroke="#fff" stroke-width="2"/>
    <text x="322.7" y="159.4" text-anchor="middle" font-size="10" fill="#374151">Jakarta Kota</text>
  </g>
</svg>