<?xml version="1.0" encoding="UTF-8"?>
<svg width="800" height="600" viewBox="0 0 800 600" 
     xmlns="http://www.w3.org/2000/svg">
  <title>Kolkata Subway Map</title>
  <rect width="100%" height="100%" fill="#f8f9fa"/>

  <!-- 지하철 선로 -->
  <g id="subway-lines" stroke="#2563eb" stroke-width="3" fill="none">
    <polyline points="566.1,91.0 567.6,89.9 568.2,89.3 568.5,89.0 568.9,88.4 569.3,87.8 570.0,86.7 570.1,86.0 570.5,85.2 570.7,83.7 571.0,82.5 571.3,81.9 571.5,81.4 571.7,80.1 572.9,75.5 572.9,75.3" opacity="0.8"/>
    <polyline points="555.8,99.3 555.9,98.4 556.0,98.0 556.2,97.6 556.6,97.0 557.0,96.5 557.3,96.3 557.7,96.0 558.0,95.9 559.1,95.3 560.1,94.8 561.1,94.1 561.6,93.6 562.3,93.1 562.9,92.6 563.8,92.1" opacity="0.8"/>
    <polyline points="556.0,96.8 556.3,96.5 556.9,95.9 557.6,95.4 558.6,94.7 560.0,94.0 561.7,93.1 563.3,92.3 563.8,92.1 564.6,91.7 566.1,91.0 568.5,89.6 571.4,87.9 572.4,87.2 573.0,86.8 573.5,86.4 574.0,85.8 574.3,85.1 574.7,84.3 575.1,83.0 575.2,82.5 575.3,81.9 575.6,80.5 576.8,75.9 577.1,74.9 577.4,73.9 577.6,73.5 577.8,73.0" opacity="0.8"/>
    <polyline points="577.1,75.3 577.4,74.4 577.7,73.7 578.0,73.3 578.6,72.5 579.7,71.1 580.1,70.7 580.2,70.6 580.7,69.7 580.8,69.5 580.9,69.1 580.9,68.8 580.9,68.5 580.8,68.1 580.7,67.8 580.6,67.4 580.4,67.1 580.2,66.8 579.7,66.4 579.4,66.1 579.0,65.9 578.6,65.6 578.2,65.4 577.7,65.2 577.3,65.0 576.8,64.9 576.3,64.7 575.8,64.6 575.3,64.5 574.8,64.5 574.2,64.4 573.7,64.4 573.1,64.4 572.5,64.4 572.0,64.5 571.4,64.6 570.9,64.7 570.4,64.8 569.9,65.0 569.4,65.2 568.9,65.4 568.5,65.6 568.0,65.8 567.7,66.1 567.3,66.4 567.0,66.6 566.7,66.9 566.4,67.2 566.2,67.6 565.8,68.3 565.7,68.6 565.6,69.0 565.6,69.3 565.5,69.7 565.5,70.0 565.6,70.3 565.7,70.7 566.7,72.0 567.9,74.0 568.3,75.1 568.5,75.4 568.6,76.5 567.8,83.7" opacity="0.8"/>
    <polyline points="630.9,225.7 630.4,225.1 629.6,224.4 629.4,224.1 629.2,223.9 629.1,223.6 629.0,223.3 628.9,223.1 628.9,222.8 628.9,222.5 629.0,222.3 629.1,222.0 629.2,221.7 629.4,221.5 629.6,221.2 629.8,221.0 630.1,220.8 630.4,220.6 630.8,220.4 631.1,220.3 632.0,219.9 632.9,219.6" opacity="0.8"/>
    <polyline points="382.1,289.5 380.3,288.5 376.0,285.9 374.4,284.6 373.6,283.2 374.0,280.8 381.4,266.5 382.5,264.3 388.9,251.1 389.1,250.3 389.0,249.3 388.6,247.5 387.9,246.1 386.8,244.8 385.3,244.0 383.6,243.5 376.3,241.4 352.0,239.0 338.8,235.2 333.1,233.6 323.0,232.1 318.1,231.6 316.3,231.9 314.9,232.7 313.8,234.0 309.7,238.9" opacity="0.8"/>
    <polyline points="704.9,242.0 702.3,243.0 697.5,244.9 697.2,245.0 696.8,245.1 696.5,245.2 695.8,245.4 695.3,245.4 694.9,245.5 694.0,245.5 693.5,245.4 693.1,245.3 692.6,245.2 692.1,245.1 691.0,244.3 689.8,243.0 688.5,241.4 686.6,239.5 678.7,231.5 673.9,227.0 668.3,221.5 665.2,218.6 664.4,218.1 663.3,217.6 657.0,216.7 649.7,215.7 646.1,215.2 645.7,215.1 645.3,215.1 644.8,215.1 644.4,215.1 644.0,215.1 643.6,215.1 643.2,215.2 642.8,215.3 642.4,215.4 641.8,215.6 640.2,216.2 638.2,217.0 631.0,219.8 627.1,221.4 618.0,225.1 608.5,228.8 607.1,229.3 606.4,229.5 598.7,232.7 592.5,235.2 591.3,235.8 590.6,236.5 589.6,237.9 589.4,239.4 589.5,240.6 589.7,241.7 591.0,244.5 591.2,244.9 595.8,257.8 598.0,263.6 598.2,264.0 598.6,265.0 599.0,266.2 599.5,268.1 599.6,268.4 599.6,269.0 599.6,269.2 599.4,269.6 599.2,270.0 599.1,270.2 598.9,270.4 598.6,270.7 598.3,270.9 598.1,271.0 597.7,271.2 597.3,271.4 596.8,271.6 596.3,271.7 595.9,271.8 595.4,271.8 594.9,271.8 594.2,271.8 593.6,271.8 587.4,271.3 585.4,271.1 584.6,271.0 583.7,270.8 583.0,270.7 580.9,270.3" opacity="0.8"/>
    <polyline points="554.4,116.2 554.4,116.7 554.6,118.4 555.4,125.1 555.8,129.6 556.1,131.9 556.2,133.5 556.9,137.2 558.0,148.2 559.0,158.2 558.9,159.2 558.8,160.2" opacity="0.8"/>
    <polyline points="436.0,38.7 440.7,38.5 447.9,38.0 451.8,37.8 464.9,37.3 473.7,36.8 474.8,36.8 475.9,36.7 477.0,36.7 478.1,36.7 479.3,36.8 480.4,36.8 481.5,36.9 482.7,37.0 483.8,37.1 484.8,37.2 491.8,38.5 505.8,41.3 530.0,46.2 538.0,47.8 539.4,48.1 540.6,48.4 541.9,48.8 543.1,49.2 544.2,49.6 545.3,50.0 546.3,50.4 547.3,50.9 548.3,51.3 552.1,53.4 559.4,58.3 560.6,59.3 561.0,59.6 561.4,60.0 561.7,60.3 562.1,60.7 562.4,61.1 562.7,61.5 563.0,62.0 563.2,62.5 563.5,63.0 563.6,63.4 563.8,63.9 563.9,64.4 563.9,64.9 563.9,65.4 563.9,67.4 563.5,71.1 563.1,72.8 561.1,77.9" opacity="0.8"/>
    <polyline points="500.0,566.7 497.4,566.8 494.5,566.4 492.0,565.8 489.6,564.7 486.9,562.6 484.4,560.4 482.8,559.6 480.6,558.7 478.2,557.9 476.5,557.3 475.1,556.4 473.1,554.7 471.9,553.9 471.8,553.8 470.2,553.1 468.3,552.6 466.1,552.0 465.6,552.0 463.0,551.7 461.9,551.6 458.4,551.4 455.4,551.0 450.9,550.1 446.5,548.9 440.7,546.9 435.4,545.1 426.4,541.3 424.1,540.4 414.9,536.3 412.9,535.6 410.9,535.3 408.5,535.1 406.1,534.9 401.1,533.5 396.9,532.4 395.4,531.7 391.7,529.8 387.6,527.7 385.7,527.0 383.0,526.4 378.5,525.3 375.1,524.6 371.8,523.6 369.0,522.6 366.3,521.1 364.6,520.2 360.2,517.9 358.8,516.9 357.9,515.9 357.3,514.8 356.5,513.0 355.4,511.8 353.8,510.8 351.4,509.8 348.9,508.7 348.5,508.5 348.1,508.2 347.7,508.0 347.3,507.7 347.0,507.5 346.7,507.2 346.5,506.9 346.3,506.6 346.1,506.3 345.9,505.9 345.8,505.6 345.7,505.3 345.6,504.9 345.6,504.6 345.6,504.2 345.7,503.9 345.8,503.6 345.9,503.2 346.0,502.9 346.2,502.6 346.4,502.4 346.6,502.2 346.9,501.9 347.0,501.7 347.2,501.6 347.9,501.1 348.3,500.8 350.9,499.1 351.8,498.5 352.6,497.6 353.2,496.7 353.8,495.7 354.4,494.5 356.7,490.8 357.7,488.3 358.2,485.7 358.6,482.6 359.4,476.5" opacity="0.8"/>
    <polyline points="422.8,249.9 420.5,254.9 415.3,265.7 415.3,265.9 411.4,274.0 410.3,275.8 409.7,276.5 407.7,277.2 397.3,280.4 396.1,280.8 388.0,283.3 387.0,283.9 385.8,285.5 384.8,287.7 384.2,289.9 383.9,291.2 382.0,300.4 380.5,309.3 380.2,312.0 379.6,314.0 379.6,314.1 378.3,317.7 376.9,322.0 375.6,325.9 374.2,329.5 373.0,332.5 371.2,338.3 368.7,348.7 368.0,351.6 366.8,356.5 364.3,366.3 363.5,368.4 363.2,372.2 362.8,374.3 362.7,374.9 362.3,378.6 360.9,384.2 360.6,385.7 361.2,387.2 363.3,391.7 364.1,393.6 364.7,396.1 365.0,400.0 365.0,400.1 365.7,405.4 365.7,407.7 365.1,410.0 362.7,417.7 362.1,419.9 362.2,420.2 362.4,421.8 363.0,423.8 362.9,426.2 362.7,430.4 362.4,434.6 361.4,439.8 361.1,443.2 360.8,446.7 360.7,447.6 360.5,450.8 360.3,453.8 359.5,457.0 359.8,457.5 359.2,462.2 359.4,468.4 359.4,469.9 359.6,473.4 359.4,476.5" opacity="0.8"/>
    <polyline points="581.0,270.2 582.7,270.4 584.1,270.7 584.7,270.8 585.5,271.0 587.5,271.1 593.4,271.6 594.3,271.7 594.9,271.7 595.4,271.7 595.8,271.6 596.3,271.5 596.7,271.4 597.2,271.3 597.6,271.1 597.9,270.9 598.2,270.8 598.5,270.6 598.7,270.4 598.9,270.1 599.0,269.9 599.2,269.6 599.3,269.2 599.4,269.0 599.4,268.4 599.3,268.1 598.8,266.2 598.0,264.0 595.6,257.8 591.0,245.0 590.8,244.5 589.9,242.6 589.5,241.6 589.2,240.6 589.2,239.3 589.4,237.8 590.3,236.4 591.1,235.6 592.4,235.1 598.6,232.5 606.7,229.2 617.9,225.0 627.0,221.3 640.1,216.1 641.7,215.5 642.2,215.3 642.7,215.2 643.1,215.1 643.5,215.0 644.0,215.0 644.4,214.9 644.8,214.9 645.3,215.0 645.7,215.0 646.1,215.1 649.7,215.6 657.1,216.6 663.4,217.5 664.5,217.9 665.4,218.5 668.5,221.4 674.1,227.0 678.8,231.4 686.8,239.4 688.7,241.3 689.9,242.9 691.2,244.2 692.2,244.9 692.7,245.1 693.1,245.2 693.6,245.3 694.0,245.3 694.4,245.3 694.9,245.3 695.3,245.3 695.7,245.2 696.4,245.1 696.7,245.0 697.1,244.9 698.1,244.5 700.0,243.7 702.3,242.8 704.8,241.8 711.7,239.1" opacity="0.8"/>
    <polyline points="382.3,289.4 380.5,288.4 376.2,285.8 374.7,284.5 373.9,283.1 374.2,280.8 381.7,266.5 382.8,264.4 389.2,251.1 389.4,250.3 389.3,249.3 388.9,247.5 388.2,246.0 387.0,244.7 385.5,243.9 383.7,243.3 376.4,241.2 352.1,238.8 338.9,235.1 333.2,233.5 323.1,231.9 318.1,231.4 316.1,231.7 314.7,232.6 313.5,233.9 309.4,238.8" opacity="0.8"/>
    <polyline points="560.8,77.8 562.8,72.8 563.3,71.0 563.6,67.4 563.7,65.4 563.6,64.9 563.6,64.4 563.5,64.0 563.4,63.5 563.2,63.0 563.0,62.5 562.7,62.0 562.4,61.6 562.1,61.1 561.7,60.7 561.3,60.2 560.9,59.8 560.4,59.4 559.2,58.4 551.9,53.5 548.2,51.5 547.2,51.0 546.2,50.6 545.1,50.1 544.0,49.7 543.0,49.3 541.8,48.9 540.5,48.6 539.3,48.2 537.9,47.9 529.9,46.4 505.7,41.5 491.7,38.7 484.7,37.4 483.7,37.2 482.6,37.1 481.5,37.0 480.4,37.0 479.3,36.9 478.1,36.9 477.0,36.9 475.9,36.9 474.8,36.9 473.7,36.9 465.0,37.5 451.8,37.9 445.6,38.3 443.1,38.4 436.1,38.8" opacity="0.8"/>
    <polyline points="558.5,160.2 558.7,159.2 558.7,158.2 557.7,148.2 556.6,137.2 556.0,133.5 555.6,129.6 555.1,125.1 554.4,118.5 554.1,116.7 554.1,116.2" opacity="0.8"/>
    <polyline points="500.0,566.9 497.4,566.9 494.4,566.6 491.9,565.9 489.4,564.8 486.7,562.7 484.2,560.5 482.7,559.7 480.5,558.9 478.0,558.1 476.3,557.4 474.9,556.5 472.9,554.8 471.7,554.0 471.6,554.0 470.1,553.3 468.1,552.7 466.0,552.2 465.4,552.1 463.0,551.8 461.8,551.8 458.3,551.6 455.3,551.1 450.8,550.2 446.3,549.0 440.5,547.1 435.3,545.3 426.2,541.5 424.0,540.5 414.7,536.5 412.8,535.8 410.8,535.5 408.4,535.3 406.0,535.0 401.0,533.7 396.8,532.5 395.2,531.8 391.6,530.0 387.4,527.9 385.5,527.1 382.9,526.5 378.4,525.5 374.9,524.7 371.6,523.7 368.8,522.7 366.1,521.2 361.3,518.7 360.0,518.0 358.6,517.0 357.7,516.0 357.0,514.8 356.2,513.1 355.2,511.9 353.6,510.9 351.3,509.8 348.8,508.7 348.4,508.5 348.0,508.3 347.6,508.0 347.2,507.8 346.9,507.5 346.6,507.2 346.4,506.9 346.1,506.6 345.9,506.3 345.8,506.0 345.7,505.6 345.6,505.3 345.5,504.9 345.5,504.6 345.5,504.2 345.6,503.9 345.6,503.6 345.8,503.2 345.9,502.9 346.1,502.6 346.3,502.4 346.4,502.2 346.6,501.9 346.8,501.7 347.0,501.5 347.7,501.0 348.2,500.8 350.8,499.1 351.6,498.4 352.4,497.6 353.1,496.7 353.7,495.7 354.3,494.5 356.5,490.8 357.0,489.4 357.4,488.3 357.6,487.6 357.8,486.7 357.9,485.7 358.7,479.7 359.1,477.2 359.1,476.8 359.1,476.5" opacity="0.8"/>
    <polyline points="359.1,476.5 359.3,473.4 359.2,469.9 358.9,462.2 359.2,456.9 360.4,447.6 360.6,445.5 360.8,443.2 361.2,439.8 362.1,434.5 362.4,430.4 362.7,426.2 362.7,423.8 362.1,421.8 361.8,419.9 362.0,419.1 362.4,417.6 364.9,410.0 365.4,407.7 365.4,405.5 364.8,400.0 364.7,399.3 364.4,396.1 363.9,393.7 363.0,391.7 360.9,387.2 360.3,385.7 360.6,384.1 362.0,378.6 362.5,374.3 362.6,373.8 362.9,372.2 363.3,368.4 364.0,366.3 366.5,356.4 368.0,350.6 368.3,349.5 368.5,348.7 370.9,338.3 372.7,332.5 374.3,328.6 375.3,325.9 376.6,322.0 378.1,317.7 379.3,314.1 379.6,313.1 379.9,312.0 380.3,309.3 381.8,300.4 383.6,291.1 384.0,289.9 384.6,287.7 385.6,285.5 386.8,283.8 387.8,283.2 397.1,280.3 407.6,277.1 409.5,276.4 410.1,275.8 411.2,274.0 415.1,265.6 415.5,264.9 420.2,254.9 422.4,249.9 423.1,248.4 425.0,244.1 426.1,241.3 428.1,236.3 432.2,225.5 432.8,224.0 436.0,215.8 440.1,203.9 441.6,199.8 441.9,198.8 443.5,196.2 445.2,193.7 446.8,191.5 448.7,189.9 451.9,188.7 460.1,187.3 470.2,185.2 472.5,184.7 473.5,184.5 478.0,183.6 487.1,181.1 494.5,179.4 504.5,177.4 510.7,175.9 513.7,175.3 523.6,173.3 530.1,171.9 536.3,170.6 540.0,169.8 546.7,168.4 548.4,168.0 550.0,167.6 551.4,167.1 552.6,166.4 554.1,165.6 555.0,165.0 555.5,164.6 556.0,164.2 556.5,163.7 556.9,163.2 557.6,162.4 558.0,161.6 558.4,160.9 558.5,160.2" opacity="0.8"/>
    <polyline points="573.9,83.0 574.4,82.0 574.8,81.0 575.0,80.4 576.2,75.8 576.3,75.2 576.5,74.7 576.8,74.3 577.2,73.8" opacity="0.8"/>
    <polyline points="572.4,85.4 573.2,84.2 573.9,83.0 574.6,81.9 574.8,81.5 575.0,81.1 575.1,80.9 575.3,80.5 576.4,75.9 576.5,75.3 576.8,74.5 577.0,74.1 577.2,73.8 577.8,73.0 578.5,72.3 579.2,71.6 579.7,71.1" opacity="0.8"/>
    <polyline points="575.1,83.0 575.4,82.0 575.8,80.5 577.0,75.9 577.1,75.3" opacity="0.8"/>
    <polyline points="575.3,83.0 575.3,82.7 575.7,81.8 576.0,80.5 577.2,75.9 577.4,75.3 577.5,74.9 577.8,74.3 577.9,74.2" opacity="0.8"/>
    <polyline points="574.7,84.3 575.3,83.0 575.6,82.4 575.9,81.6 576.2,80.6 577.4,76.0 577.5,75.4 577.8,74.3" opacity="0.8"/>
    <polyline points="576.2,82.0 576.3,81.2 576.4,80.6 577.6,76.0 577.8,75.4 578.0,74.1 578.2,73.6 578.4,73.1 578.7,72.8 579.0,72.5 579.3,72.2 579.7,71.8" opacity="0.8"/>
    <polyline points="575.8,83.2 576.2,82.0 576.6,80.6 577.8,76.0 577.9,75.4" opacity="0.8"/>
    <polyline points="575.3,84.4 575.8,83.2 576.2,82.6 576.4,82.0 576.8,80.6 578.0,76.0 578.1,75.4 578.4,74.3" opacity="0.8"/>
    <polyline points="574.8,85.1 575.3,84.4 575.6,83.9 576.1,83.0 576.6,82.3 576.7,81.7 577.0,80.6 578.2,76.0 578.3,75.4 578.4,74.8 578.4,74.3 578.6,73.5 578.9,72.8 579.7,71.8 580.4,70.7 580.7,70.0 581.2,69.3 581.4,68.7" opacity="0.8"/>
    <polyline points="576.8,82.4 577.0,81.7 577.1,81.0 577.2,80.7 578.4,76.1 578.7,75.0 579.2,74.0 579.7,73.0 580.4,71.8" opacity="0.8"/>
    <polyline points="575.7,84.1 576.5,83.0 576.8,82.4 577.1,81.7 577.4,80.7 578.6,76.1 579.0,74.7 579.2,74.0" opacity="0.8"/>
    <polyline points="576.6,83.1 577.1,82.2 577.3,81.7 577.6,80.7 578.8,76.1 579.4,73.9 579.7,73.0" opacity="0.8"/>
    <polyline points="574.6,85.5 574.8,85.1 575.1,84.7 575.7,84.1 576.4,83.4 576.6,83.1 577.0,82.6 577.5,81.8 577.6,81.2 577.8,80.7 579.0,76.1 579.3,74.8 579.6,74.0 580.0,72.9" opacity="0.8"/>
    <polyline points="572.4,87.2 572.7,87.0 573.2,86.7 574.0,86.1 574.6,85.5 576.3,83.7 576.9,82.9 577.4,82.3 577.7,81.8 578.0,81.1 578.0,80.7 579.2,76.1 580.0,72.9 580.1,72.8 580.4,71.8 580.7,70.7 581.1,69.8 581.3,69.4 581.4,68.9 581.4,68.7 581.4,68.5 581.4,68.0 581.1,67.5 580.9,67.1 580.4,66.6 579.8,66.1 579.1,65.6 578.1,65.2 577.4,64.9 576.3,64.7" opacity="0.8"/>
    <polyline points="635.2,225.3 636.7,225.4 641.3,226.0" opacity="0.8"/>
    <polyline points="631.0,225.6 629.7,224.3 629.5,224.1 629.3,223.8 629.2,223.6 629.1,223.3 629.0,223.0 629.0,222.8 629.0,222.5 629.1,222.2 629.2,222.0 629.3,221.7 629.5,221.5 629.7,221.3 630.0,221.0 630.2,220.8 630.5,220.6 630.9,220.5 631.6,220.2 632.1,220.0 632.4,219.9 632.9,219.6 634.0,219.1 634.3,219.0 635.6,218.5 641.1,216.3 642.4,215.8 644.1,215.5 645.3,215.5 646.3,215.6 653.2,216.5 656.1,217.0" opacity="0.8"/>
    <polyline points="638.6,229.5 638.4,229.5 636.5,229.2 636.4,229.2 635.4,229.0 634.5,228.7 633.6,228.2 633.2,227.9 632.8,227.6 631.6,226.4 631.0,225.8 631.0,225.8 630.9,225.7" opacity="0.8"/>
    <polyline points="644.0,225.8 645.0,227.1" opacity="0.8"/>
    <polyline points="641.0,223.6 641.2,223.8 645.0,227.1 645.6,227.5 645.8,227.8" opacity="0.8"/>
    <polyline points="640.7,223.7 641.0,223.9 642.7,225.5 643.8,226.4" opacity="0.8"/>
    <polyline points="640.4,223.8 640.6,224.0 642.2,225.3 643.1,225.9 643.8,226.4 644.3,226.8 644.5,227.0" opacity="0.8"/>
    <polyline points="640.1,224.0 640.3,224.1 640.9,224.6 641.6,225.2 643.1,225.9" opacity="0.8"/>
    <polyline points="639.8,224.1 640.0,224.3 640.7,224.9 641.7,225.5 642.4,225.9 643.0,226.2" opacity="0.8"/>
    <polyline points="639.6,224.2 639.8,224.4 640.4,224.9 641.7,225.5" opacity="0.8"/>
    <polyline points="639.3,224.3 639.5,224.5 640.2,225.0 641.2,225.4 642.4,225.9" opacity="0.8"/>
    <polyline points="639.1,224.4 639.3,224.6 639.5,224.7 640.5,225.4 641.7,225.8 643.0,226.2 644.5,227.0" opacity="0.8"/>
    <polyline points="637.0,228.5 637.7,228.5 638.7,228.7 639.0,228.7" opacity="0.8"/>
    <polyline points="634.7,228.1 635.9,228.3 637.0,228.5 638.7,228.8 638.9,228.8" opacity="0.8"/>
    <polyline points="638.9,228.9 638.6,228.9 635.5,228.4 634.2,228.1 633.4,227.6 632.6,227.2" opacity="0.8"/>
    <polyline points="646.3,228.2 648.2,228.9" opacity="0.8"/>
    <polyline points="639.5,225.5 641.3,226.0 642.2,226.1 643.3,226.5 644.5,227.0 645.8,227.8 646.3,228.2 647.5,229.1" opacity="0.8"/>
    <polyline points="636.1,224.2 636.1,224.2 636.3,224.3 636.7,224.6 637.8,225.1 639.5,225.5" opacity="0.8"/>
    <polyline points="635.9,224.2 636.0,224.3 636.4,224.6 637.5,225.1 638.5,225.4 639.5,225.5" opacity="0.8"/>
  </g>

  <!-- 지하철 역 -->
  <g id="subway-stations">
    <circle cx="415.4" cy="265.3" r="4" fill="#dc2626" stroke="#fff" stroke-width="2"/>
    <text x="415.4" y="257.3" text-anchor="middle" font-size="10" fill="#374151">Central</text>
    <circle cx="379.9" cy="313.4" r="4" fill="#dc2626" stroke="#fff" stroke-width="2"/>
    <text x="379.9" y="305.4" text-anchor="middle" font-size="10" fill="#374151">Park Street</text>
    <circle cx="576.9" cy="544.0" r="4" fill="#dc2626" stroke="#fff" stroke-width="2"/>
    <circle cx="362.9" cy="519.5" r="4" fill="#dc2626" stroke="#fff" stroke-width="2"/>
    <text x="362.9" y="511.5" text-anchor="middle" font-size="10" fill="#374151">Netaji</text>
    <circle cx="359.2" cy="481.2" r="4" fill="#dc2626" stroke="#fff" stroke-width="2"/>
    <circle cx="556.0" cy="130.2" r="4" fill="#dc2626" stroke="#fff" stroke-width="2"/>
    <text x="556.0" y="122.2" text-anchor="middle" font-size="10" fill="#374151">Dum Dum</text>
    <circle cx="360.9" cy="446.6" r="4" fill="#dc2626" stroke="#fff" stroke-width="2"/>
    <text x="360.9" y="438.6" text-anchor="middle" font-size="10" fill="#374151">Rabindra Sarobar</text>
    <circle cx="362.3" cy="419.8" r="4" fill="#dc2626" stroke="#fff" stroke-width="2"/>
    <text x="362.3" y="411.8" text-anchor="middle" font-size="10" fill="#374151">Kalighat</text>
    <circle cx="364.9" cy="399.6" r="4" fill="#dc2626" stroke="#fff" stroke-width="2"/>
    <text x="364.9" y="391.6" text-anchor="middle" font-size="10" fill="#374151">Jatin Das Park</text>
    <circle cx="362.6" cy="374.5" r="4" fill="#dc2626" stroke="#fff" stroke-width="2"/>
    <text x="362.6" y="366.5" text-anchor="middle" font-size="10" fill="#374151">Netaji Bhavan</text>
    <circle cx="368.5" cy="351.4" r="4" fill="#dc2626" stroke="#fff" stroke-width="2"/>
    <text x="368.5" y="343.4" text-anchor="middle" font-size="10" fill="#374151">Rabindra Sadan</text>
    <circle cx="374.4" cy="329.3" r="4" fill="#dc2626" stroke="#fff" stroke-width="2"/>
    <text x="374.4" y="321.3" text-anchor="middle" font-size="10" fill="#374151">Maidan</text>
    <circle cx="396.5" cy="280.5" r="4" fill="#dc2626" stroke="#fff" stroke-width="2"/>
    <text x="396.5" y="272.5" text-anchor="middle" font-size="10" fill="#374151">Chandni Chowk</text>
    <circle cx="384.4" cy="290.0" r="4" fill="#dc2626" stroke="#fff" stroke-width="2"/>
    <text x="384.4" y="282.0" text-anchor="middle" font-size="10" fill="#374151">Esplanade (Line 1)</text>
    <circle cx="426.1" cy="241.9" r="4" fill="#dc2626" stroke="#fff" stroke-width="2"/>
    <text x="426.1" y="233.9" text-anchor="middle" font-size="10" fill="#374151">Mahatma Gandhi Road</text>
    <circle cx="432.7" cy="224.6" r="4" fill="#dc2626" stroke="#fff" stroke-width="2"/>
    <text x="432.7" y="216.6" text-anchor="middle" font-size="10" fill="#374151">Girish Park</text>
    <circle cx="442.0" cy="200.3" r="4" fill="#dc2626" stroke="#fff" stroke-width="2"/>
    <circle cx="472.0" cy="185.2" r="4" fill="#dc2626" stroke="#fff" stroke-width="2"/>
    <text x="472.0" y="177.2" text-anchor="middle" font-size="10" fill="#374151">Shyambazar</text>
    <circle cx="529.3" cy="172.4" r="4" fill="#dc2626" stroke="#fff" stroke-width="2"/>
    <text x="529.3" y="164.4" text-anchor="middle" font-size="10" fill="#374151">Belgachia</text>
    <circle cx="561.0" cy="78.3" r="4" fill="#dc2626" stroke="#fff" stroke-width="2"/>
    <text x="561.0" y="70.3" text-anchor="middle" font-size="10" fill="#374151">Noapara</text>
    <circle cx="674.0" cy="226.7" r="4" fill="#dc2626" stroke="#fff" stroke-width="2"/>
    <text x="674.0" y="218.7" text-anchor="middle" font-size="10" fill="#374151">Karunamoyee</text>
    <circle cx="649.6" cy="215.4" r="4" fill="#dc2626" stroke="#fff" stroke-width="2"/>
    <text x="649.6" y="207.4" text-anchor="middle" font-size="10" fill="#374151">Central Park</text>
    <circle cx="617.8" cy="224.7" r="4" fill="#dc2626" stroke="#fff" stroke-width="2"/>
    <text x="617.8" y="216.7" text-anchor="middle" font-size="10" fill="#374151">City Centre</text>
    <circle cx="590.6" cy="244.3" r="4" fill="#dc2626" stroke="#fff" stroke-width="2"/>
    <text x="590.6" y="236.3" text-anchor="middle" font-size="10" fill="#374151">Bengal Chemical</text>
    <circle cx="598.0" cy="263.6" r="4" fill="#dc2626" stroke="#fff" stroke-width="2"/>
    <text x="598.0" y="255.6" text-anchor="middle" font-size="10" fill="#374151">Salt Lake Stadium</text>
    <circle cx="545.1" cy="266.3" r="4" fill="#dc2626" stroke="#fff" stroke-width="2"/>
    <text x="545.1" y="258.3" text-anchor="middle" font-size="10" fill="#374151">Phoolbagan</text>
    <circle cx="705.1" cy="241.8" r="4" fill="#dc2626" stroke="#fff" stroke-width="2"/>
    <text x="705.1" y="233.8" text-anchor="middle" font-size="10" fill="#374151">Salt Lake Sector V</text>
    <circle cx="245.1" cy="470.1" r="4" fill="#dc2626" stroke="#fff" stroke-width="2"/>
    <text x="245.1" y="462.1" text-anchor="middle" font-size="10" fill="#374151">Behala Bazar</text>
    <circle cx="228.6" cy="501.8" r="4" fill="#dc2626" stroke="#fff" stroke-width="2"/>
    <text x="228.6" y="493.8" text-anchor="middle" font-size="10" fill="#374151">Behala Chowrasta</text>
    <circle cx="460.9" cy="281.7" r="4" fill="#dc2626" stroke="#fff" stroke-width="2"/>
    <text x="460.9" y="273.7" text-anchor="middle" font-size="10" fill="#374151">Sealdah</text>
    <circle cx="214.5" cy="536.5" r="4" fill="#dc2626" stroke="#fff" stroke-width="2"/>
    <text x="214.5" y="528.5" text-anchor="middle" font-size="10" fill="#374151">Sakher Bazar</text>
    <circle cx="257.5" cy="445.3" r="4" fill="#dc2626" stroke="#fff" stroke-width="2"/>
    <text x="257.5" y="437.3" text-anchor="middle" font-size="10" fill="#374151">Taratala</text>
    <circle cx="591.2" cy="425.4" r="4" fill="#dc2626" stroke="#fff" stroke-width="2"/>
    <circle cx="589.4" cy="451.9" r="4" fill="#dc2626" stroke="#fff" stroke-width="2"/>
    <text x="589.4" y="443.9" text-anchor="middle" font-size="10" fill="#374151">Kavi Sukanta</text>
    <circle cx="578.9" cy="478.8" r="4" fill="#dc2626" stroke="#fff" stroke-width="2"/>
    <text x="578.9" y="470.8" text-anchor="middle" font-size="10" fill="#374151">Jyotirindra Nandi</text>
    <circle cx="555.0" cy="509.2" r="4" fill="#dc2626" stroke="#fff" stroke-width="2"/>
    <text x="555.0" y="501.2" text-anchor="middle" font-size="10" fill="#374151">Satyajit Ray</text>
    <circle cx="381.6" cy="266.5" r="4" fill="#dc2626" stroke="#fff" stroke-width="2"/>
    <text x="381.6" y="258.5" text-anchor="middle" font-size="10" fill="#374151">Mahakaran</text>
    <circle cx="339.7" cy="235.1" r="4" fill="#dc2626" stroke="#fff" stroke-width="2"/>
    <text x="339.7" y="227.1" text-anchor="middle" font-size="10" fill="#374151">Howrah</text>
    <circle cx="313.5" cy="233.7" r="4" fill="#dc2626" stroke="#fff" stroke-width="2"/>
    <text x="313.5" y="225.7" text-anchor="middle" font-size="10" fill="#374151">Howrah Maidan</text>
    <circle cx="270.9" cy="413.5" r="4" fill="#dc2626" stroke="#fff" stroke-width="2"/>
    <text x="270.9" y="405.5" text-anchor="middle" font-size="10" fill="#374151">Majerhat</text>
    <circle cx="380.5" cy="288.5" r="4" fill="#dc2626" stroke="#fff" stroke-width="2"/>
    <text x="380.5" y="280.5" text-anchor="middle" font-size="10" fill="#374151">Esplanade (Line 2)</text>
    <circle cx="577.5" cy="546.9" r="4" fill="#dc2626" stroke="#fff" stroke-width="2"/>
    <text x="577.5" y="538.9" text-anchor="middle" font-size="10" fill="#374151">Kavi Subhash</text>
  </g>
</svg>