<?xml version="1.0" encoding="UTF-8"?>
<svg width="800" height="600" xmlns="http://www.w3.org/2000/svg">
  <title>Kuala Lumpur Subway Map</title>
  <rect width="100%" height="100%" fill="#f8f9fa"/>

  <!-- 지하철 선로 -->
  <g stroke="#2563eb" stroke-width="2" fill="none" opacity="0.8">
    <polyline points="597.5,325.7 596.6,326.4 595.6,327.2 594.7,327.6 593.7,328.1 592.1,328.4 590.6,328.6"/>
    <polyline points="355.1,260.4 356.2,262.8 357.3,264.4 358.6,266.9 361.7,270.4 364.8,272.5 369.7,275.4 373.9,277.5 377.8,278.7 383.5,280.1 394.0,283.8 397.0,283.8 401.7,283.4 406.2,282.9 413.3,282.2 421.9,281.1 423.5,280.8 424.7,280.4 425.6,280.1 426.4,279.6 427.5,278.4 428.2,277.4 430.2,273.6 431.1,272.6 434.2,270.9 437.5,270.0 439.0,269.7 442.2,269.3 444.9,269.1 447.8,269.0 450.9,268.9 457.1,268.5 463.7,268.4 470.8,269.2 473.2,270.0 477.3,271.3 483.3,272.9 485.7,272.8 488.0,271.7 491.6,267.6 496.7,265.0 501.2,264.1"/>
    <polyline points="584.8,330.6 584.1,331.1 581.8,333.2 581.3,333.7 580.9,334.3 580.6,334.9 580.6,335.3 580.5,335.7 580.6,336.2 580.7,336.6 580.9,337.1 581.2,337.6 581.5,338.0 582.1,338.6 582.5,339.0 583.2,339.3 583.7,339.6 584.6,339.9 589.8,341.6 591.7,342.1 597.3,343.9 598.2,344.3 599.0,344.7 600.0,345.2 600.7,345.8 601.3,346.3 601.7,346.9 603.0,349.3 604.0,351.1 610.7,363.3 611.4,364.8 612.4,366.7 612.8,367.3 613.1,367.8 613.5,368.4 614.0,369.0 614.5,369.5 617.2,371.6 619.3,373.3 620.3,374.1 621.4,374.9 630.8,380.5 632.0,381.2 637.6,384.8 640.0,386.3 641.7,387.4 643.4,388.5 644.4,389.3 645.2,390.0 645.6,390.5 646.4,391.6 648.1,394.5 648.8,395.8 649.7,397.1 650.4,398.1 651.1,399.0 651.8,399.9 653.5,402.6 655.8,406.5 656.9,408.5 658.5,411.2 659.3,412.7 660.2,414.3 660.9,415.8 661.6,417.4 662.3,419.2 662.8,420.2 663.3,421.1 663.6,421.9 663.9,422.6 664.1,423.3 664.3,423.8 664.5,427.6 664.6,430.7 664.7,431.6 664.7,432.1 665.0,432.8 665.3,433.3 665.7,434.0 666.3,434.6 666.9,435.2 669.8,437.2 670.4,437.6 671.2,438.0 672.0,438.3 672.8,438.5 673.7,438.7 674.5,438.8 675.3,438.9 678.8,439.2 683.6,439.6 685.1,439.7 688.5,439.8 690.3,439.8 692.4,440.0 699.5,440.7 701.4,440.9 703.1,441.2 706.5,441.9 713.5,443.3 726.7,445.9 731.0,446.7 733.0,447.1 734.9,447.4 736.8,447.6 738.9,447.9 747.9,448.7 749.6,448.9 751.0,449.1 752.4,449.4 753.5,449.8 754.5,450.3 755.2,450.7 756.1,451.3 756.8,452.0 759.4,454.8 760.9,456.1 761.7,456.8 762.5,457.2 763.1,457.6 764.2,458.0 767.0,459.5 770.0,460.9 777.3,464.3 779.1,465.2 780.1,465.7 782.6,467.0 786.9,469.0 789.7,470.3 793.4,471.9 794.8,472.6 795.7,473.3 797.3,474.6 803.2,478.8 810.2,483.5 812.3,485.0 814.4,486.6 815.4,487.3 816.1,488.0 816.7,488.8 817.1,489.4 817.6,490.2 818.0,491.0 818.6,493.4 818.8,494.5 818.9,495.2 818.7,496.0 818.5,496.6 817.5,498.7 817.3,499.3 817.1,499.9 816.9,500.6 816.8,509.0 816.8,509.7 816.9,510.3 817.2,511.0 817.5,511.7 817.9,512.4 818.5,513.1 820.5,515.3 821.0,515.9 821.5,516.5 821.9,517.3 822.2,518.1 822.3,518.7 822.3,519.2 822.1,522.1 822.0,524.5 822.3,528.8 822.1,529.7 821.8,530.7 821.4,531.5 821.0,532.3 820.0,533.4 816.6,536.9 816.1,537.6 815.6,538.5 814.2,541.1 813.1,543.0 812.3,544.5 811.6,545.5 810.9,546.4 810.4,546.9 807.6,549.2 806.8,549.9 806.3,550.5 805.5,551.4 804.6,552.7 802.4,556.2 801.8,557.1 801.1,557.8 799.1,559.6 796.0,562.2 795.5,562.6 795.2,563.1 794.8,563.6 794.5,564.1 794.3,564.6 794.1,565.3 794.0,565.9 794.0,566.5 794.1,567.0 794.2,567.5 794.4,568.0 794.6,568.6 794.9,569.2 795.5,569.8 797.6,571.7 798.3,572.4 798.8,573.0 799.2,573.7 800.0,575.7 800.8,577.2 802.0,579.1 803.4,581.0 804.7,582.9 805.9,584.5 806.9,585.7 807.4,586.4 808.5,588.3 809.7,590.4 811.3,592.7 813.0,595.3 813.6,596.4 814.1,597.5 814.4,598.3 815.1,602.2 815.6,604.8 816.2,607.5 816.4,608.4 816.7,609.2 817.0,609.9 817.5,610.8 818.3,612.0 819.9,613.9 823.2,618.0 824.7,619.9 825.8,621.3 826.9,622.8 827.9,623.9 829.6,625.7 831.2,627.4 832.7,629.0 834.0,630.4 835.0,631.8 835.7,632.8 837.4,635.8 838.2,636.8 839.0,637.6 839.9,638.5 840.8,639.0 841.9,639.5 843.2,640.0 844.7,640.5 846.5,640.9 848.4,641.1 850.6,641.4 852.4,641.6 853.8,642.0 855.0,642.5 856.2,643.0 857.2,643.7 858.4,644.6 858.7,644.9 860.6,646.5 861.9,647.4 865.7,649.9 867.9,651.4 872.1,654.3 875.9,656.6 876.6,657.1 877.2,657.7 877.6,658.2 878.1,658.8 878.3,659.4 878.5,660.1 878.7,660.6 878.7,661.3 878.7,662.0 878.5,662.6 878.0,663.9 876.7,666.2 875.9,668.0 875.0,670.0 874.8,670.9 874.7,671.5 874.5,672.1 874.5,672.7 874.5,673.1 874.5,673.4 874.6,673.8 874.9,674.5 875.3,675.1 875.8,675.7 876.3,676.2 876.9,676.6 877.8,677.1 878.7,677.5 879.5,677.8 880.6,678.2 881.7,678.5 884.9,679.2 886.2,679.4 887.5,679.9 888.9,680.4 889.9,680.9 890.9,681.5 891.8,682.1 892.7,682.7 893.4,683.4 894.1,684.2 894.6,684.9 895.0,685.4 895.2,686.0 895.4,686.6 895.7,687.4 895.9,688.3 896.0,689.1 896.0,690.2 896.0,691.0 896.0,691.5 895.9,692.7 895.8,695.2 895.7,697.5 895.7,699.3"/>
    <polyline points="186.0,304.2 184.5,303.7 183.3,303.3 182.6,303.0 182.0,302.9 180.8,302.6 180.0,302.4 179.2,302.2 175.5,301.6 175.2,301.5 173.8,301.1 170.3,300.2 168.4,299.6 167.3,299.3 165.2,298.6 163.7,298.1 161.6,297.4 160.3,296.9 159.0,296.5 157.9,296.2 156.9,296.0 155.6,295.7 148.3,294.4 147.1,294.1 145.9,293.8 144.7,293.4 143.5,292.9 142.4,292.4 135.6,289.1 130.4,286.4 123.9,283.2 122.8,282.7 121.7,282.2 120.0,281.6 119.0,281.2 118.1,280.7 117.3,280.2 116.8,279.8 109.3,273.4 108.5,272.9 107.7,272.5 107.0,272.2 106.1,271.9 105.3,271.7 104.4,271.5 103.4,271.3 102.4,271.2 100.8,271.1 99.6,271.0 98.5,270.9 97.4,270.7 96.5,270.5 95.6,270.3 94.7,270.0 94.0,269.8 93.3,269.5 92.6,269.1 85.8,265.7 85.2,265.4 84.4,265.2 82.6,264.8 80.9,264.4 80.0,264.1 79.3,263.7 78.6,263.4 78.1,263.0 77.6,262.6 75.2,260.2 72.7,257.8 70.8,255.9 68.6,253.9 67.9,253.2 62.7,248.3 57.1,243.0 52.5,238.5 51.8,237.9 51.0,237.3 50.1,236.8 49.2,236.4 48.2,236.0 47.2,235.6 46.3,235.4 45.4,235.2 44.3,235.0 43.0,234.9 41.7,234.9 24.8,235.0 10.4,235.0 8.9,235.1 7.6,235.2 6.4,235.3 5.1,235.5 3.9,235.8 2.7,236.2 1.6,236.6 0.5,237.1 -0.5,237.7 -1.4,238.3 -2.2,239.0 -2.8,239.7 -6.3,243.1 -7.2,244.0 -7.7,244.5 -8.3,244.9 -8.9,245.3 -9.6,245.7 -16.0,249.1 -16.8,249.5 -17.7,249.8 -18.7,250.1 -20.8,250.6 -21.8,250.7 -23.1,250.8 -24.5,250.8 -28.8,250.7 -30.1,250.7 -31.2,250.6 -32.4,250.5 -34.9,250.2 -36.2,250.2 -47.5,249.9 -98.9,248.8 -100.9,248.7 -119.3,248.4 -122.6,248.4 -124.2,248.3 -125.5,248.1 -126.9,247.8 -128.1,247.6 -129.3,247.2 -130.4,246.9 -131.4,246.4 -132.3,245.9 -133.2,245.3 -133.8,244.9 -145.4,235.0 -145.9,234.5 -146.6,233.7 -147.3,232.9 -147.8,232.0 -148.9,230.1 -149.3,229.5 -149.8,229.0 -150.3,228.5 -150.8,228.1 -151.6,227.6 -152.6,227.1 -153.6,226.7 -161.8,223.4 -162.8,222.9 -163.9,222.3 -177.5,213.9 -187.5,207.6 -188.3,207.0 -189.1,206.4 -189.6,205.8 -190.1,205.2 -190.5,204.6 -190.7,204.0 -190.9,203.5 -191.0,202.9 -191.0,202.4 -190.9,201.8 -190.8,201.3 -190.6,200.8 -190.4,200.3 -190.0,199.7 -189.7,199.3 -189.2,198.8 -185.8,195.5 -184.2,193.9 -181.3,191.2 -177.4,187.4 -175.3,185.4"/>
    <polyline points="437.6,380.5 438.6,378.2 439.3,376.7 440.3,374.9 446.9,364.2 449.3,361.3 453.9,357.8 456.2,355.9 460.1,352.8 460.3,352.6 481.4,336.3 487.7,332.9 497.5,328.5 499.8,327.5 514.0,324.9 520.8,322.8 523.2,321.6 530.0,316.1 533.5,313.6 535.3,312.4 538.8,309.3 541.4,307.1 544.2,304.6 545.2,303.5 548.6,297.9 550.2,295.1 554.2,288.7 561.9,283.4 562.6,281.9 563.2,280.2 563.2,279.3 562.2,276.3 560.8,273.6 560.1,272.3 559.6,270.3"/>
    <polyline points="168.4,299.3 169.8,299.8 172.5,300.6 174.0,301.0 175.2,301.3 175.5,301.4 176.5,301.6 179.2,302.0 180.6,302.3 182.2,302.7 182.9,302.9 183.4,303.0 183.5,303.0 184.3,303.1 184.6,303.2 185.3,303.3"/>
    <polyline points="169.8,299.8 168.4,299.6"/>
    <polyline points="184.5,303.7 184.1,303.4 183.9,303.4 183.4,303.1 183.3,303.0 182.9,302.9"/>
    <polyline points="-125.8,164.9 -123.7,162.0 -122.9,160.9 -121.5,158.9 -120.2,157.2 -118.4,154.7 -117.7,153.6 -117.0,152.6 -116.7,152.1 -116.6,151.6 -116.5,151.2 -116.8,150.4 -116.9,149.9 -117.2,149.2 -117.8,148.5 -119.8,146.8 -120.5,146.0 -120.9,145.4 -121.2,144.7 -121.3,144.0 -121.3,143.2 -121.0,142.6 -120.5,141.8 -119.0,139.3 -118.8,138.8 -118.7,138.2 -118.6,137.8 -118.6,137.3 -118.9,136.7 -121.3,131.8 -121.9,130.8 -122.1,130.0 -122.3,129.3 -122.4,128.7 -122.4,127.9 -122.3,127.3 -122.1,126.6 -121.7,125.4 -120.8,122.1 -119.6,119.0 -119.4,118.2 -119.3,117.6 -119.3,117.1 -120.2,112.1 -120.3,111.1 -120.3,110.2 -120.2,109.2 -119.9,108.3 -119.7,107.4 -119.4,106.5 -119.3,105.6 -119.3,104.7 -119.4,103.9 -119.8,102.1 -119.9,101.7 -119.9,101.0 -119.8,100.4 -119.5,99.8 -119.2,99.3 -118.6,98.6 -118.0,98.2 -117.2,97.7 -116.5,97.4 -115.5,97.0 -114.3,96.7 -112.9,96.5 -111.8,96.4 -110.9,96.4 -110.0,96.5 -109.0,96.6 -104.5,97.4 -103.8,97.5 -102.4,97.7 -101.0,98.0 -100.6,98.0 -98.9,98.3 -97.5,98.7 -95.4,99.4 -94.4,99.9 -88.2,102.3 -80.8,105.2 -78.9,106.0 -78.1,106.4 -77.9,106.5 -77.1,107.0 -76.0,107.9 -73.7,109.9 -72.6,110.6 -71.9,111.0 -70.9,111.5 -70.0,111.8 -68.7,112.2 -67.7,112.4 -62.4,113.2 -56.9,114.1 -56.4,114.2 -53.6,114.6 -51.1,115.0 -46.3,115.7 -42.9,116.2 -40.5,116.4 -39.7,116.5 -38.6,116.6 -37.2,116.6 -35.9,116.5 -34.3,116.5 -32.6,116.4 -30.7,116.2 -28.6,115.9 -25.7,115.4 -24.8,115.3 -23.6,115.1 -22.1,115.1 -20.9,115.1 -19.6,115.2 -18.1,115.4 -14.5,116.1 -11.7,116.6 -9.2,117.0 5.7,118.7 10.4,119.3 11.9,119.5 13.1,119.5 14.4,119.5 15.7,119.5 19.4,119.3 23.2,119.1 27.1,118.9 30.1,118.7 31.6,118.6 33.0,118.3 34.5,118.0 36.0,117.6 40.4,115.9 41.4,115.5 42.7,115.1 44.1,114.8 45.4,114.6 46.8,114.3 48.7,114.1 50.3,114.1 51.3,114.1 52.4,114.1 53.5,114.2 54.5,114.3 56.1,114.6 57.6,114.9 59.3,115.3 61.0,115.9 67.1,118.3 68.4,118.7 69.5,119.0 70.8,119.2 72.1,119.4 73.4,119.4 74.6,119.4 75.6,119.3 78.1,119.0 80.8,118.7 81.2,118.7 84.2,118.3 87.3,118.0 91.1,117.5 92.6,117.3 93.6,117.1 94.5,116.9 95.2,116.7 95.9,116.4 96.9,116.1 97.9,115.6 98.7,115.2 99.4,114.7 100.1,114.2 109.3,105.8 111.3,103.9 112.5,102.7 113.1,102.0 113.9,101.1 114.6,99.9 115.6,98.4 116.4,97.3 117.6,96.0 118.4,95.2 119.7,93.9 122.6,91.1 123.0,90.7 123.2,90.3 123.6,89.8 123.9,89.3 124.1,88.7 124.3,87.4 124.6,86.0 124.8,85.4 125.0,84.9 125.3,84.6 125.7,84.1 126.1,83.7 126.5,83.4 126.9,83.1 127.4,82.8 128.2,82.4 128.9,82.0 129.6,81.8 131.8,81.1 133.4,80.6 137.3,79.5 139.6,78.9 141.6,78.4 142.5,78.2 143.8,78.0 145.1,77.9 146.1,77.9 150.0,77.7 151.9,77.6 153.9,77.5 155.8,77.3 159.2,76.9 162.6,76.6 165.1,76.3 168.8,75.8 171.4,75.6 176.5,75.3 180.1,75.1 181.8,75.0 183.2,75.1 184.6,75.2 186.1,75.5 187.5,75.8 188.6,76.0 192.8,77.0 196.4,77.8 200.5,78.7 202.0,79.1 203.5,79.5 207.0,80.7 210.9,82.0 211.6,82.2 214.0,82.9 216.8,83.8 219.3,84.7 223.4,86.3 227.3,87.7 228.7,88.3 230.1,88.7 231.0,88.9 231.9,89.0 232.6,89.2 233.2,89.3 234.0,89.3 234.8,89.4 235.4,89.4 236.0,89.4 236.7,89.4 237.4,89.4 238.8,89.3 242.4,89.1 245.3,88.9 248.5,88.8 251.0,88.7 253.8,88.6 255.7,88.5 256.7,88.5 257.6,88.5 258.7,88.6 259.4,88.6 260.6,88.8 261.9,89.0 263.3,89.3 265.4,89.8 269.1,90.9 272.2,91.8 274.3,92.5 276.0,92.9 277.8,93.3 278.8,93.4 279.6,93.5 280.5,93.6 281.6,93.6 282.9,93.6 286.2,93.4 288.1,93.4 288.8,93.4 289.5,93.4 290.3,93.5 291.4,93.6 292.2,93.7 293.0,93.9 295.3,94.4 297.5,95.0 301.1,96.0 301.7,96.2 304.5,96.9 306.0,97.3 306.9,97.5 307.8,97.6 309.1,97.7 310.5,97.8 312.1,97.8 313.9,97.6 316.0,97.2 326.1,94.7 327.9,94.3 328.9,94.2 329.9,94.2 331.1,94.1 332.3,94.1 333.1,94.2 334.1,94.3 334.8,94.4 335.7,94.6 336.5,94.7 337.4,95.0 338.3,95.3 339.1,95.7 340.0,96.1 340.9,96.5 344.1,98.7 346.0,100.0 346.8,100.6 347.6,101.4 348.0,102.0 348.4,102.8 348.7,103.6 348.8,104.3 348.9,105.7 348.9,106.5 349.0,107.1 349.2,107.5 349.3,107.8 349.6,108.6 350.1,109.3 351.6,110.8 352.3,111.4 353.0,112.0 357.5,116.2 357.8,116.6 361.2,119.9"/>
    <polyline points="437.5,382.7 437.6,383.3 437.7,384.0 438.0,384.7 439.0,386.4 439.3,387.3 439.5,388.3 439.5,389.0 439.4,389.6 439.3,390.3 438.2,393.2 437.5,394.9 436.3,397.3 435.9,398.5 435.6,399.7 435.1,404.2 435.0,406.9 434.5,411.3 434.2,413.7 434.1,414.7 434.1,415.4 434.3,416.2"/>
    <polyline points="466.2,448.2 467.6,448.8 469.0,449.3 470.6,449.6 473.4,449.9"/>
    <polyline points="496.7,489.7 495.6,491.0 495.2,491.9 495.0,493.7 494.7,497.0 494.4,500.9 493.6,507.6 493.3,509.2 493.0,510.1 492.4,511.1 490.7,513.5 488.3,517.0 487.4,518.4 486.5,520.1 486.4,521.5 486.8,523.4 487.1,526.1 487.5,532.6 487.6,534.3 487.5,535.9 487.0,537.8 486.3,540.1 485.9,541.6 485.1,544.4 485.1,545.8 485.4,547.0 486.1,548.9 487.8,552.3 488.3,553.5 488.7,554.9 489.0,556.1 489.3,558.1 489.5,559.1 490.3,563.9 490.9,566.8 491.9,569.0 492.9,570.3 493.6,571.4 496.0,573.4 498.6,575.5 502.9,578.7 503.7,579.3 504.1,579.8 504.5,580.2 504.9,580.8 505.1,581.4 505.2,581.9 505.3,582.4 505.3,582.9 505.1,584.0 504.9,585.5 504.7,587.3 505.0,590.8 505.5,594.3 505.8,596.3 506.2,597.9 506.5,598.9 507.2,599.8 511.7,603.6"/>
    <polyline points="559.6,270.3 560.3,272.3 560.9,273.6 562.5,276.3 563.5,279.4 563.5,280.3 562.9,282.0 562.2,283.5 554.5,288.8 550.4,295.2 548.8,297.9 545.6,303.6 544.9,304.9 542.1,307.3 539.5,309.5 535.7,312.4 533.8,313.7 530.3,316.2 523.6,321.6 520.9,323.0 514.2,325.2 499.9,327.6 488.0,333.0 482.3,336.6 461.1,352.9 460.9,353.0 457.0,356.1 454.6,358.0 450.0,361.6 447.5,364.3 440.7,374.9 440.4,375.4 439.6,376.8 439.0,378.2 437.8,380.6"/>
    <polyline points="360.1,119.0 359.4,118.3 358.8,117.7 357.3,116.3 352.9,112.0 352.2,111.4 351.5,110.8 350.8,110.2 350.1,109.5 349.7,109.1 349.4,108.6 349.1,107.9 348.9,107.5 348.8,107.1 348.8,106.5 348.7,105.8 348.5,104.6 348.4,103.8 348.1,103.0 347.6,102.3 347.1,101.6 346.4,101.0 345.7,100.4 343.5,99.0 341.5,97.6 339.7,96.5 338.8,96.0 338.0,95.7 337.3,95.5 335.7,95.0 334.7,94.8 333.8,94.6 333.0,94.5 332.3,94.5 331.7,94.4 331.0,94.4 329.9,94.4 329.0,94.4 327.8,94.5 326.1,94.8 315.6,97.4 314.0,97.7 311.9,98.0 310.2,98.1 308.8,98.0 307.2,97.9 306.5,97.8 305.8,97.6 305.1,97.5 304.4,97.3 301.3,96.5 297.2,95.4 295.1,94.8 293.8,94.4 293.2,94.3 292.5,94.1 292.1,94.0 291.7,93.9 291.2,93.8 289.9,93.7 289.3,93.6 288.6,93.5 288.1,93.5 287.4,93.5 286.5,93.5 283.0,93.7 281.7,93.7 280.6,93.7 279.7,93.6 278.7,93.5 277.8,93.4 276.0,93.0 274.2,92.6 272.1,91.9 269.0,91.0 265.2,89.9 263.2,89.4 261.9,89.2 260.5,89.0 259.1,88.9 257.6,88.8 255.6,88.9 253.7,88.9 251.0,89.0 248.6,89.1 245.4,89.3 242.5,89.4 240.2,89.5 238.9,89.5 237.4,89.5 236.7,89.6 236.0,89.5 235.0,89.5 234.0,89.4 233.2,89.4 231.9,89.2 230.0,88.8 228.7,88.4 227.2,87.8 223.3,86.4 220.9,85.6 219.0,85.0 216.4,84.1 213.7,83.3 211.3,82.5 211.0,82.5 208.7,81.7 203.3,80.0 203.1,79.9 201.6,79.4 200.2,79.1 196.3,78.2 190.2,76.8 187.2,76.1 185.9,75.9 184.5,75.6 183.2,75.5 181.8,75.4 180.4,75.4 176.6,75.7 172.6,75.9 171.4,75.9 170.3,76.0 168.9,76.1 164.3,76.6 162.5,76.7 159.1,77.0 155.7,77.4 153.9,77.5 151.9,77.7 150.0,77.8 146.0,78.0 144.9,78.1 143.5,78.2 142.6,78.3 141.7,78.5 139.7,79.0 136.9,79.7 133.5,80.7 132.0,81.2 129.7,81.9 128.9,82.2 128.1,82.6 127.6,82.8 127.1,83.2 126.7,83.5 126.3,83.8 125.9,84.1 125.6,84.5 125.2,84.9 125.0,85.4 124.7,86.0 124.4,87.8 124.2,89.2 124.0,89.7 123.8,90.3 123.5,90.8 123.1,91.3 122.8,91.8 122.3,92.2 120.4,94.1 119.0,95.4 117.4,97.0 116.5,97.9 116.0,98.5 115.0,99.8 114.0,101.2 113.2,102.1 112.7,102.7 111.5,104.0 109.4,105.9 100.4,114.1 99.7,114.7 99.0,115.2 97.9,115.8 97.0,116.2 96.1,116.5 95.3,116.7 94.5,117.0 93.6,117.2 92.6,117.4 91.2,117.6 87.3,118.1 84.3,118.4 80.8,118.8 77.3,119.2 75.6,119.4 74.6,119.5 73.5,119.5 72.1,119.5 70.8,119.3 69.5,119.1 68.3,118.8 67.1,118.3 59.2,115.4 57.5,115.0 56.1,114.6 54.5,114.4 53.5,114.3 52.3,114.2 51.3,114.2 50.3,114.2 48.7,114.3 46.9,114.4 45.4,114.7 44.1,114.9 42.8,115.2 41.5,115.6 40.5,116.0 36.1,117.7 34.8,118.1 33.1,118.5 31.5,118.8 30.2,119.0 28.7,119.2 27.2,119.3 23.2,119.5 20.2,119.6 17.2,119.8 15.3,119.8 14.2,119.8 13.3,119.7 12.5,119.6 10.4,119.4 5.7,118.8 -3.1,117.8 -9.2,117.1 -11.3,116.7 -12.9,116.5 -15.9,115.9 -17.2,115.7 -18.7,115.4 -19.9,115.3 -20.9,115.2 -22.1,115.2 -23.4,115.2 -24.5,115.3 -25.8,115.5 -28.5,116.0 -30.0,116.2 -31.4,116.3 -33.1,116.5 -34.4,116.6 -35.9,116.7 -37.5,116.7 -38.7,116.7 -39.6,116.6 -40.6,116.6 -44.6,116.3 -48.7,115.7 -51.2,115.3 -53.8,115.0 -57.0,114.5 -62.6,113.5 -67.8,112.5 -68.7,112.3 -70.1,111.9 -71.0,111.6 -72.5,110.9 -73.2,110.5 -73.8,110.0 -74.9,109.1 -76.0,108.1 -76.2,107.9 -77.0,107.3 -77.6,106.9 -78.2,106.5 -79.4,105.9 -80.9,105.3 -90.7,101.4 -91.8,101.0 -94.5,99.9 -95.6,99.6 -96.7,99.2 -98.0,99.0 -100.8,98.5 -104.8,97.8 -107.0,97.4 -108.0,97.2 -109.2,97.0 -109.6,97.0 -110.4,97.0 -111.2,96.9 -112.2,97.0 -113.2,97.1 -114.1,97.3 -114.8,97.5 -115.6,97.7 -116.2,97.9 -116.9,98.2 -117.3,98.5 -117.9,98.9 -118.5,99.4 -118.9,99.9 -119.3,100.5 -119.5,101.0 -119.6,101.7 -119.6,102.1 -119.3,103.8 -119.1,104.7 -119.1,105.6 -119.2,106.5 -119.5,107.4 -119.7,108.3 -120.0,109.2 -120.1,110.2 -120.1,111.1 -120.0,112.0 -119.1,116.8 -119.1,117.5 -119.2,118.2 -119.3,119.0 -120.5,122.2 -121.5,125.4 -121.9,126.6 -122.1,127.4 -122.2,128.0 -122.2,128.7 -122.1,129.3 -121.9,130.0 -121.6,130.7 -121.1,131.8 -118.7,136.5 -118.5,137.0 -118.4,137.6 -118.4,138.2 -118.5,138.8 -118.8,139.4 -120.4,141.9 -120.8,142.6 -121.0,143.2 -121.1,144.0 -121.0,144.7 -120.7,145.3 -120.3,146.0 -119.6,146.7 -117.6,148.4 -117.1,149.2 -116.7,149.9 -116.6,150.4 -116.3,151.2 -116.4,151.6 -116.6,152.2 -116.9,152.9 -117.5,153.7 -118.2,154.7 -120.0,157.2 -121.3,159.0 -122.6,160.8 -123.5,162.0 -125.6,165.0"/>
    <polyline points="241.6,287.4 242.9,287.1 244.3,286.8 247.8,286.2 252.8,285.4 253.6,285.3 254.3,285.1 254.9,285.0 255.5,284.8 256.5,284.4 257.2,284.1 258.0,283.6 258.4,283.5 258.7,283.2 259.1,283.0 259.4,282.6 259.8,282.2 260.5,281.3 262.7,277.7 263.0,277.2 263.4,276.7 263.8,276.2 264.3,275.8 264.8,275.3 266.5,273.8 267.2,273.3 267.9,272.8 268.6,272.4 272.1,270.4 273.4,269.6 274.0,269.3 274.8,268.9 275.6,268.5 276.4,268.2 277.2,268.0 277.9,267.8 281.7,266.9 285.3,266.1 285.9,266.0 286.6,265.8 286.8,265.7 287.2,265.5 287.8,265.3 288.1,265.1 288.6,264.8 289.0,264.5 289.4,264.2 289.7,263.9 290.0,263.5 290.2,263.2 290.5,262.8 290.6,262.4 290.7,262.0 290.8,261.6 290.8,261.2 290.7,260.8 290.6,260.5 290.5,260.1 290.2,259.5 289.7,258.8 289.3,258.4 288.7,257.8 288.4,257.2 288.2,256.6 288.1,255.7 288.1,254.3 288.2,252.8 288.1,251.5 288.1,250.4 288.3,249.8 288.4,249.4 288.6,249.1 288.9,248.8 289.1,248.5 289.5,248.2 290.0,247.9 290.4,247.7 291.0,247.5 291.4,247.3 292.1,247.1 296.0,246.3 298.7,245.7 299.6,245.6 300.4,245.6 301.1,245.6 301.8,245.6 302.6,245.6 303.3,245.7 303.8,245.9 304.5,246.0 307.7,247.2 308.3,247.4 309.1,247.6 310.0,247.7 310.8,247.8 311.7,247.8 312.6,247.8 313.5,247.8 314.3,247.7 315.3,247.6 316.1,247.4 322.4,245.5 326.4,244.4 327.1,244.3 328.0,244.1 329.0,244.0 330.0,244.0 330.9,244.0 331.8,244.1 332.8,244.2 333.5,244.3 334.3,244.6 335.0,244.8 335.8,245.1 336.5,245.5 337.1,245.8 337.5,246.2 338.2,246.7 340.8,249.1 341.4,249.5 341.9,249.9 342.6,250.4 343.9,251.2 346.1,252.3 347.1,252.8 349.4,254.0 350.1,254.5 350.8,255.0 351.3,255.4 351.8,255.8 352.2,256.2 352.7,256.8 353.1,257.4 354.3,259.1 355.1,260.4"/>
    <polyline points="-175.1,185.5 -178.8,189.1 -179.4,189.7 -183.9,194.0 -185.6,195.5 -189.0,198.8 -189.5,199.3 -189.8,199.8 -190.2,200.3 -190.4,200.8 -190.6,201.3 -190.7,201.9 -190.8,202.4 -190.8,202.9 -190.7,203.4 -190.5,204.0 -190.3,204.6 -189.9,205.2 -189.5,205.7 -188.9,206.4 -188.1,207.0 -187.3,207.5 -177.3,213.8 -163.7,222.3 -162.6,222.8 -161.6,223.2 -153.4,226.6 -152.4,227.0 -151.5,227.5 -150.6,228.0 -150.1,228.5 -149.6,228.9 -149.1,229.5 -148.7,230.1 -148.4,230.7 -147.2,232.8 -146.5,233.7 -145.9,234.4 -145.3,235.0 -133.6,244.8 -133.0,245.3 -132.2,245.8 -131.2,246.3 -130.2,246.8 -129.2,247.1 -128.0,247.5 -126.8,247.7 -125.5,248.0 -124.2,248.1 -122.6,248.2 -119.3,248.3 -101.0,248.6 -98.9,248.7 -47.5,249.8 -36.2,250.1 -34.9,250.1 -33.5,250.2 -31.2,250.5 -30.1,250.6 -28.8,250.6 -24.5,250.7 -23.1,250.7 -21.9,250.6 -20.8,250.4 -19.8,250.2 -18.8,250.0 -17.9,249.7 -16.9,249.4 -16.2,249.0 -15.1,248.5 -9.7,245.6 -9.1,245.3 -8.5,244.9 -7.9,244.4 -7.4,244.0 -6.5,243.1 -3.0,239.6 -1.5,238.3 -0.7,237.7 0.3,237.1 1.5,236.5 2.6,236.1 3.8,235.8 5.0,235.4 6.3,235.2 7.5,235.0 8.9,235.0 10.5,234.9 24.8,234.9 40.4,234.8 41.8,234.8 43.0,234.8 44.3,234.9 45.5,235.1 46.4,235.3 47.3,235.5 48.3,235.9 49.3,236.3 50.3,236.8 51.2,237.3 52.0,237.9 52.7,238.5 57.2,243.0 66.6,251.8 70.3,255.3 70.8,255.8 71.0,256.0 72.9,257.8 75.3,260.2 77.8,262.6 78.2,263.0 78.8,263.3 79.4,263.7 80.1,264.0 81.0,264.3 82.7,264.7 84.5,265.1 85.2,265.3 85.9,265.6 92.7,269.1 93.4,269.4 94.1,269.7 94.8,270.0 95.6,270.2 96.5,270.4 97.5,270.6 98.5,270.8 99.7,270.9 100.9,271.0 102.5,271.1 103.5,271.2 104.5,271.4 105.5,271.6 106.3,271.8 107.1,272.1 107.9,272.4 108.6,272.8 109.5,273.4 116.9,279.8 117.5,280.2 118.2,280.6 119.2,281.1 120.2,281.5 121.8,282.2 122.9,282.6 124.0,283.1 130.5,286.3 142.5,292.3 143.7,292.8 144.8,293.3 146.0,293.7 147.3,294.0 148.4,294.3 155.7,295.6 157.0,295.9 158.0,296.1 159.1,296.4 160.4,296.8 163.7,297.9 168.4,299.3 174.0,300.9 175.3,301.2 175.6,301.2 176.7,301.4 178.8,301.7 180.3,302.0 181.6,302.3 182.7,302.6 183.9,302.9 185.3,303.3 186.5,303.7"/>
    <polyline points="436.5,419.3 437.5,419.9 438.4,420.5 439.6,421.1 441.7,422.2 444.3,423.6 446.1,424.6 448.3,425.9 449.5,426.7 450.3,427.3 451.2,428.7 451.9,430.9 452.1,432.2 452.5,433.5 453.9,435.5 455.2,437.2 456.0,438.3 457.1,439.8 458.3,441.3 459.8,443.3 461.6,445.5 462.5,446.4 463.4,447.2 464.6,448.0 465.7,448.5"/>
    <polyline points="465.7,448.5 467.4,449.2 468.8,449.6 470.3,449.9 473.2,450.3"/>
    <polyline points="496.5,489.6 495.4,490.9 495.0,491.9 494.7,494.7 494.5,497.0 494.1,500.8 493.3,507.6 493.1,509.2 492.8,510.1 492.2,511.0 490.5,513.4 487.0,518.4 486.2,520.0 486.0,521.5 486.4,523.5 486.8,526.1 487.3,532.6 487.3,533.6 487.3,534.3 486.8,535.9 486.3,537.5 485.6,540.0 485.3,541.4 484.5,544.5 484.6,546.1 485.0,547.0 485.7,548.9 487.5,552.3 488.1,553.6 488.5,554.9 488.9,556.1 489.1,558.1 489.3,559.2 490.1,564.0 490.6,566.9 491.2,568.6 493.0,571.2 495.3,573.5 498.0,575.7 502.1,578.7 502.6,579.1 503.3,579.7 503.7,580.1 504.3,580.9 504.5,581.4 504.7,581.9 504.8,582.4 504.8,582.9 504.7,583.9 504.5,585.4 504.2,587.1 504.2,588.2 504.1,588.7 504.4,590.9 504.9,594.3 505.3,596.5 505.8,598.1 506.2,599.0 507.0,599.8 511.5,603.6"/>
    <polyline points="501.3,264.2 496.9,265.3 491.8,267.7 488.0,271.9 485.7,273.0 483.3,273.2 477.1,271.5 472.9,270.3 470.6,269.6 465.0,268.9 463.7,268.7 457.3,268.8 451.0,269.4 447.9,269.5 444.9,269.6 442.3,269.7 439.0,270.1 437.5,270.3 434.3,271.0 431.4,272.7 430.3,273.9 429.3,275.9 428.6,277.5 427.7,279.2 427.4,279.5 426.9,280.0 425.9,280.3 424.9,280.7 423.7,281.0 422.0,281.4 413.5,282.5 406.3,283.3 401.8,283.7 397.0,284.2 393.9,283.9 383.4,280.2 377.7,278.8 373.8,277.6 369.4,275.6 364.6,272.5 361.6,270.4 358.4,266.9 357.0,264.5 355.9,262.9 354.4,260.5"/>
    <polyline points="597.2,325.6 596.3,326.4 595.3,327.1 594.3,327.6 593.5,327.9 592.0,328.2 590.4,328.5"/>
    <polyline points="657.6,410.2 657.0,409.6 656.2,408.9 655.6,408.5 655.2,408.0 653.2,404.5"/>
    <polyline points="895.0,699.3 895.0,697.5 895.1,695.5 895.2,694.8 895.3,694.1 895.4,693.2 895.6,692.2 895.7,691.5 895.8,691.0 895.8,690.2 895.7,689.1 895.6,688.3 895.4,687.4 895.2,686.6 895.0,686.1 894.7,685.5 894.4,684.9 893.9,684.2 893.2,683.4 892.5,682.8 891.7,682.2 890.7,681.6 889.8,681.0 888.7,680.5 887.4,680.0 886.1,679.6 884.9,679.3 882.9,678.8 880.6,678.3 879.4,677.9 878.5,677.6 877.5,677.1 876.8,676.7 876.2,676.3 875.6,675.7 875.1,675.1 874.7,674.5 874.5,674.0 874.4,673.4 874.3,673.1 874.3,672.7 874.4,672.1 874.5,671.5 874.6,670.8 874.8,670.0 875.7,668.0 876.5,666.2 877.8,663.8 878.3,662.6 878.5,662.0 878.5,661.3 878.4,660.7 878.3,660.1 878.0,659.5 877.8,658.8 877.4,658.2 877.0,657.7 876.4,657.2 875.8,656.7 872.0,654.4 867.7,651.5 865.4,650.0 861.7,647.5 860.3,646.5 858.2,644.7 857.0,643.7 855.9,643.1 854.7,642.5 853.6,642.1 852.3,641.8 850.6,641.5 848.3,641.2 846.4,641.0 844.6,640.6 843.1,640.1 841.8,639.6 841.8,639.6 840.6,639.1 839.7,638.5 838.8,637.7 838.0,636.9 837.2,635.8 835.5,632.8 834.9,631.9 833.8,630.4 832.5,629.0 831.0,627.4 830.7,627.1 827.7,623.9 826.7,622.8 825.5,621.4 824.4,620.0 821.5,616.3 819.6,614.0 818.1,612.1 817.1,610.8 816.7,610.0 816.3,609.2 816.0,608.4 815.8,607.5 815.3,604.8 814.8,602.3 814.2,598.3 813.9,597.5 813.4,596.4 812.7,595.3 811.0,592.7 809.5,590.4 808.3,588.4 807.2,586.5 806.6,585.7 805.7,584.5 804.5,583.0 803.1,581.1 801.8,579.1 801.3,578.4 800.5,577.3 799.8,575.7 799.0,573.8 798.6,573.1 798.1,572.4 797.4,571.8 795.4,569.8 794.8,569.2 794.4,568.6 794.2,568.1 794.0,567.5 793.9,567.0 793.8,566.5 793.7,565.9 793.8,565.2 794.0,564.6 794.2,564.1 794.5,563.6 794.9,563.1 795.3,562.6 795.8,562.1 798.8,559.5 800.9,557.8 801.5,557.1 802.2,556.2 804.4,552.7 805.3,551.4 806.0,550.5 806.7,549.8 807.4,549.2 810.1,546.9 810.7,546.3 811.4,545.4 812.0,544.5 812.8,542.9 813.9,541.0 815.3,538.4 815.9,537.6 816.4,536.8 819.9,533.2 820.6,532.3 821.2,531.5 821.5,530.8 821.9,529.8 822.1,528.8 821.8,524.5 821.9,522.1 822.1,519.2 822.1,518.7 822.0,518.1 821.7,517.3 821.3,516.5 820.8,515.9 820.3,515.4 818.3,513.2 817.7,512.4 817.3,511.8 816.9,511.1 816.7,510.3 816.6,509.7 816.6,509.0 816.7,500.6 816.8,499.9 817.1,499.2 817.4,498.6 818.2,496.7 818.5,496.0 818.6,495.2 818.6,494.5 818.4,493.4 817.8,491.0 817.4,490.2 817.0,489.5 816.5,488.8 815.9,488.1 815.2,487.4 814.2,486.6 812.1,485.1 810.0,483.6 803.1,478.8 797.1,474.6 795.6,473.4 794.6,472.7 793.3,472.0 789.5,470.4 786.7,469.1 782.5,467.1 779.9,465.9 778.7,465.4 777.0,464.6 769.5,461.2 766.5,459.8 763.7,458.4 762.7,457.9 762.0,457.4 761.3,456.8 760.6,456.1 759.2,454.9 756.6,452.0 755.9,451.4 755.1,450.8 754.3,450.3 753.4,449.9 752.3,449.5 751.0,449.2 749.6,449.0 747.9,448.8 738.9,448.0 736.8,447.8 734.8,447.5 732.9,447.2 730.9,446.8 726.6,446.0 713.4,443.4 706.4,442.0 703.1,441.3 701.3,441.1 699.5,440.8 693.7,440.2 692.4,440.1 690.3,439.9 688.4,439.9 685.2,439.8 683.6,439.7 678.7,439.3 675.3,439.1 674.5,438.9 673.7,438.8 672.8,438.6 672.0,438.4 671.1,438.1 670.3,437.7 669.6,437.3 666.7,435.2 666.1,434.7 665.6,434.0 665.1,433.4 664.8,432.8 664.5,432.1 664.5,431.6 664.4,430.7 664.3,429.3 664.1,423.9 664.0,423.4 663.8,422.6 663.4,421.9 663.1,421.2 662.6,420.2 662.1,419.3 661.5,417.4 660.7,415.8 660.0,414.4 658.2,411.2 657.6,410.2 656.7,408.6 655.5,406.5 653.3,402.6 651.6,399.9 650.9,399.0 650.2,398.1 649.4,397.1 648.6,395.8 647.9,394.6 646.2,391.6 645.4,390.6 645.0,390.1 644.2,389.3 643.2,388.6 641.5,387.5 639.8,386.4 637.5,384.9 631.8,381.3 630.6,380.6 621.2,375.0 620.1,374.2 619.1,373.4 616.9,371.7 614.3,369.5 613.8,369.0 613.3,368.4 612.9,367.9 612.5,367.3 612.2,366.7 611.2,364.8 610.5,363.4 603.8,351.2 602.8,349.4 601.5,347.0 601.1,346.4 600.6,345.9 599.8,345.3 598.9,344.8 598.1,344.4 597.1,344.0 591.7,342.2 589.7,341.6 584.4,340.0 583.6,339.7 583.0,339.4 582.4,339.0 581.9,338.6 581.3,338.1 581.0,337.6 580.7,337.1 580.5,336.7 580.4,336.2 580.3,335.7 580.4,335.3 580.5,334.9 580.7,334.3 581.1,333.7 581.6,333.1 583.9,331.0 584.5,330.5"/>
    <polyline points="437.2,382.7 437.3,383.2 437.3,383.3 437.5,384.1 437.8,384.7 438.7,386.4 439.0,387.3 439.3,388.4 439.3,389.0 439.2,389.6 439.1,390.2 438.0,393.2 437.4,394.9 436.0,397.3 435.6,398.4 435.4,399.7 434.7,404.1 434.4,405.6 434.0,407.9 433.6,411.3 433.3,413.6 433.3,414.2 433.4,414.9 433.5,415.6 433.7,416.1 434.0,416.7"/>
    <polyline points="434.0,416.7 434.3,417.3 434.8,417.9 435.6,418.8 436.5,419.3"/>
    <polyline points="436.7,419.2 438.5,420.3 441.9,422.0 446.6,424.7 448.7,425.8 449.7,426.6 450.5,427.3 451.5,428.7 452.2,430.9 452.4,432.2 452.8,433.5 454.1,435.4 455.5,437.1 456.3,438.2 457.6,439.7 458.8,441.1 460.4,443.2 462.3,445.3 463.1,446.2 464.1,447.0 465.1,447.7 466.2,448.2"/>
    <polyline points="434.3,416.2 435.1,417.6 436.0,418.7 436.7,419.2"/>
    <polyline points="473.4,449.9 475.9,450.2"/>
    <polyline points="473.2,450.3 475.7,450.6"/>
    <polyline points="366.1,135.5 366.3,136.1 367.0,137.1 367.4,137.5 368.8,138.8 369.9,140.2 370.9,141.4"/>
    <polyline points="370.3,141.5 369.2,140.2 368.2,139.0 367.1,137.6 366.8,137.1 366.1,136.1 365.9,135.5"/>
    <polyline points="365.7,134.7 365.5,134.1 365.3,132.9 365.0,130.7 364.9,129.6 364.8,129.0 364.8,128.5 364.6,127.1 364.4,125.4 364.2,124.4 364.1,123.7 363.8,123.1 363.4,122.5 362.9,121.8 361.6,120.5 360.1,119.0"/>
    <polyline points="361.2,119.9 361.7,120.4 363.1,121.8 363.4,122.1 363.6,122.4 363.8,122.7 364.0,123.0 364.2,123.6 364.4,124.3 364.6,125.4 364.8,127.1 365.0,128.5 365.0,129.0 365.1,129.6 365.2,130.7 365.5,132.9 365.6,134.1 365.8,134.7"/>
    <polyline points="361.2,119.9 360.1,119.0"/>
    <polyline points="357.8,116.6 358.8,117.7"/>
    <polyline points="589.5,314.6 590.3,315.0 591.1,315.5"/>
    <polyline points="589.8,314.5 590.3,315.0 590.7,315.6"/>
    <polyline points="188.6,76.0 192.1,77.1 192.9,77.3"/>
    <polyline points="190.2,76.8 192.9,77.3"/>
    <polyline points="192.9,77.3 194.4,77.6"/>
    <polyline points="194.4,77.6 194.8,77.7 196.4,78.0 200.9,79.0 202.0,79.2 203.2,79.7 204.6,80.2"/>
    <polyline points="194.4,77.6 200.7,79.1 201.8,79.4 204.6,80.2"/>
    <polyline points="204.6,80.2 206.4,80.8"/>
    <polyline points="206.4,80.8 208.7,81.7"/>
    <polyline points="206.4,80.8 210.9,82.0"/>
    <polyline points="487.4,457.3 487.5,457.6 487.7,458.2"/>
    <polyline points="490.9,462.9 491.4,464.1"/>
    <polyline points="487.0,456.2 487.4,457.3 490.9,462.9 491.9,464.1"/>
    <polyline points="486.7,457.0 487.7,458.2 491.4,464.1 491.9,465.3"/>
    <polyline points="437.2,382.7 437.2,381.9 437.3,381.5 437.3,381.2 437.6,380.5"/>
    <polyline points="437.8,380.6 437.6,381.3 437.5,381.9 437.5,382.7"/>
    <polyline points="365.9,135.5 365.7,134.7"/>
    <polyline points="365.8,134.7 366.1,135.5"/>
    <polyline points="373.9,146.0 372.6,144.5 371.4,143.0 370.3,141.5"/>
    <polyline points="375.0,147.3 373.9,146.0"/>
    <polyline points="370.9,141.4 372.1,142.9 373.1,144.3 374.5,145.9"/>
    <polyline points="374.5,145.9 375.4,147.2"/>
    <polyline points="590.4,328.5 589.9,328.6 588.9,328.8 587.5,329.1 586.3,329.5 585.3,330.0 584.5,330.5"/>
    <polyline points="590.6,328.6 588.9,328.9 587.6,329.3 586.4,329.6 585.5,330.1 585.5,330.1 584.8,330.6"/>
    <polyline points="375.4,147.2 375.8,148.3 376.1,149.2 376.1,150.4 375.7,152.3 375.2,153.4 374.0,155.9 373.9,156.8 374.1,157.8 374.6,159.5 375.2,161.2 375.9,162.5 376.6,163.4 377.8,165.4 379.5,166.5 381.0,167.4 388.0,170.1 391.5,171.5 394.9,172.8 397.6,173.9 404.7,177.4 412.8,181.5 414.5,182.0 423.2,183.2 429.6,184.1 431.9,184.4 434.1,184.4 440.0,183.5 445.0,182.6 448.3,181.9 451.3,181.6 453.2,181.6 454.9,181.7 460.5,182.3 464.2,182.7 467.8,183.3 470.8,184.0 473.7,184.6 481.0,186.0 482.9,186.4 484.6,186.9 486.0,187.4 486.5,187.7 488.4,188.7 491.7,191.1 492.6,192.2 493.0,192.6 495.8,195.8 498.2,198.0 500.0,199.1 502.8,200.2 504.1,200.4 506.0,200.6 511.6,200.7 514.7,200.7 518.8,200.7 523.8,200.8 527.8,201.0 530.0,201.4 535.4,202.8 539.0,204.2 544.7,210.2 547.3,214.3"/>
    <polyline points="547.1,214.4 544.3,210.2 538.8,204.3 535.3,203.0 529.9,201.5 527.8,201.1 523.8,201.1 518.8,201.1 514.7,201.1 511.7,201.1 506.0,201.0 504.0,200.8 502.6,200.4 500.9,199.7 499.8,199.1 497.8,198.1 495.7,196.3 495.4,196.0 492.5,192.8 491.1,191.2 489.1,189.6 485.8,187.5 485.4,187.3 484.5,187.0 482.8,186.6 480.7,186.3 473.5,185.2 470.5,184.7 467.3,184.1 460.7,182.8 455.0,182.0 453.3,181.9 451.6,181.9 448.5,182.3 445.2,182.9 440.1,183.9 434.5,184.8 431.9,184.7 429.6,184.3 423.3,183.3 421.1,183.1 414.5,182.2 412.5,181.7 404.5,177.6 398.3,174.6 398.1,174.5 397.2,174.1 394.8,173.1 391.2,171.7 387.7,170.3 380.9,167.4 379.2,166.5 377.5,165.4 376.4,163.5 375.7,162.6 374.9,161.2 374.3,159.5 373.8,157.8 373.6,156.8 373.6,155.9 374.9,153.3 375.4,152.2 375.8,150.4 375.8,149.2 375.5,148.3 375.0,147.3"/>
    <polyline points="549.6,233.7 549.7,230.6 550.1,221.9 549.3,219.0 548.7,217.4 547.9,215.5 547.1,214.4"/>
    <polyline points="547.3,214.3 547.9,215.5 548.7,217.4 549.3,219.0 550.2,221.9 549.7,230.6 549.7,233.8"/>
    <polyline points="554.8,260.0 554.4,256.4 554.1,253.5 553.4,251.2 551.5,248.9 550.4,247.3 549.0,245.5 548.7,244.1 549.1,241.2 549.2,239.4 549.3,237.2 549.6,233.7"/>
    <polyline points="549.7,233.8 549.7,237.2 549.7,239.4 549.7,241.2 549.3,244.1 549.7,245.3 550.9,247.2 552.2,248.8 553.9,251.2 554.5,253.4 554.6,256.4 555.0,260.0"/>
    <polyline points="597.2,325.6 598.0,324.2 597.8,323.1 595.1,319.5 592.5,317.2 591.0,315.9 590.7,315.6 589.5,314.6 585.4,311.3 584.2,310.3 581.7,308.1 575.7,302.8 574.9,301.2 573.9,298.7 572.7,296.4 571.5,294.2 558.9,270.4"/>
    <polyline points="559.0,270.4 572.2,294.0 573.3,296.3 573.8,297.2 574.6,298.6 575.2,301.2 576.0,302.7 585.7,311.3 589.8,314.5 591.1,315.5 591.4,315.8 592.9,317.0 595.5,319.3 598.4,323.0 598.4,324.3 597.5,325.7"/>
    <polyline points="555.0,260.0 556.7,264.4 557.4,266.1 558.4,268.0 559.6,270.3"/>
    <polyline points="559.6,270.3 558.3,268.0 557.3,266.1 554.8,260.0"/>
    <polyline points="558.9,270.4 557.6,268.1 556.6,266.2 554.0,262.1 552.7,259.8 551.6,258.1 551.0,257.2 550.1,256.6 549.6,256.1 546.9,255.1 541.9,254.3 540.1,254.0 539.1,253.9 538.2,253.8 535.4,253.8 526.1,254.1 525.5,254.2 524.5,254.2 524.2,254.3 521.0,255.7 518.7,256.7 515.0,258.3 511.1,260.0 501.3,264.2"/>
    <polyline points="501.2,264.1 511.0,260.0 515.0,258.3 518.6,256.7 524.2,254.2 524.3,254.2 524.5,254.2 535.3,253.7 538.2,253.8 539.1,253.8 540.1,253.9 541.9,254.2 547.0,255.0 549.6,256.1 551.1,257.2 551.7,258.1 554.1,262.1 556.7,266.2 557.6,268.1 558.2,269.0 559.0,270.4"/>
    <polyline points="493.0,192.6 494.2,194.3 495.4,196.0"/>
    <polyline points="492.5,192.8 494.2,194.3 495.8,195.8"/>
    <polyline points="495.6,196.5 495.1,196.0 492.0,192.5"/>
    <polyline points="492.9,192.1 493.2,192.6 496.4,196.1"/>
    <polyline points="460.1,352.8 458.6,354.5 457.0,356.1"/>
    <polyline points="456.2,355.9 458.6,354.5 460.9,353.0"/>
    <polyline points="492.6,192.2 493.2,192.6"/>
    <polyline points="495.7,196.3 495.1,196.0"/>
    <polyline points="658.2,411.2 659.3,412.7"/>
    <polyline points="344.9,251.7 347.1,252.8"/>
    <polyline points="338.2,246.7 339.9,248.5"/>
    <polyline points="191.7,305.4 193.1,306.0 194.7,306.5 196.1,306.8 197.7,307.1 198.4,307.1 199.2,307.1 200.0,307.1 200.8,307.0 201.5,307.0 202.3,306.8 203.0,306.7 203.8,306.5 205.1,306.1 206.3,305.6 207.5,304.9 208.2,304.5 211.0,301.8 211.9,301.0 213.0,300.3 214.1,299.5 215.4,298.8 216.6,298.2 217.9,297.5 219.3,296.9 224.9,294.1 231.8,290.6 232.9,290.1 234.1,289.7 235.1,289.3 236.8,288.8 241.6,287.4"/>
    <polyline points="186.5,303.7 188.8,304.5 191.7,305.4"/>
    <polyline points="354.4,260.5 353.7,259.3 352.1,256.8 351.8,256.4 351.3,255.8 350.8,255.4 350.3,255.0 349.8,254.5 349.2,254.1 348.5,253.7 346.0,252.3 344.9,251.7 343.2,250.8 342.5,250.4 341.8,250.0 341.2,249.6 340.7,249.1 339.9,248.5 337.0,246.0 336.6,245.7 336.3,245.5 335.6,245.2 334.9,244.9 333.5,244.5 332.7,244.3 331.8,244.2 330.9,244.1 330.0,244.1 329.0,244.2 328.1,244.2 327.3,244.4 326.5,244.6 322.6,245.7 317.3,247.2 316.1,247.5 315.3,247.7 314.4,247.8 313.5,247.9 312.5,247.9 311.8,248.0 310.8,247.9 309.9,247.8 309.1,247.7 308.2,247.5 307.6,247.3 305.5,246.5 304.4,246.2 303.8,246.0 303.2,245.8 302.6,245.7 301.9,245.7 301.1,245.7 300.4,245.7 299.7,245.7 298.8,245.9 296.2,246.4 292.3,247.2 291.7,247.4 290.5,247.8 290.1,248.0 289.6,248.2 289.3,248.6 289.1,248.8 288.8,249.2 288.6,249.5 288.5,249.7 288.3,250.5 288.3,252.8 288.2,254.3 288.4,255.7 288.6,257.2 288.7,257.5 288.9,257.8 289.4,258.3 290.3,259.5 290.6,260.1 290.8,260.5 290.9,260.8 290.9,261.2 290.9,261.6 290.9,262.0 290.8,262.5 290.6,262.8 290.4,263.2 290.2,263.5 289.8,263.9 289.5,264.2 289.1,264.5 288.2,265.2 287.9,265.3 287.3,265.6 286.7,265.8 286.0,266.1 285.3,266.2 281.8,267.0 278.0,267.9 276.5,268.3 275.8,268.6 275.0,269.0 274.2,269.3 272.2,270.4 270.5,271.5 268.8,272.5 268.1,272.9 266.7,273.9 265.7,274.6 265.0,275.3 264.0,276.3 263.6,276.8 263.2,277.2 262.9,277.7 260.7,281.3 260.3,281.8 260.0,282.2 259.6,282.7 259.3,283.0 258.9,283.3 258.6,283.5 258.2,283.7 257.4,284.2 256.6,284.5 255.6,284.9 255.0,285.0 254.4,285.2 253.7,285.4 252.8,285.5 247.9,286.3 244.4,286.9 243.0,287.2 241.7,287.5 236.9,288.9 235.2,289.4 234.2,289.7 233.0,290.2 232.0,290.7 229.1,292.2 219.4,297.0 218.1,297.6 216.8,298.2 215.5,298.9 214.3,299.6 213.2,300.3 212.1,301.1 211.2,301.9 208.4,304.5 207.7,305.0 207.1,305.4 206.6,305.8 205.4,306.3 204.0,306.8 203.3,307.0 202.5,307.2 201.6,307.4 200.0,307.5 199.2,307.6 198.3,307.5 197.5,307.5 196.6,307.4 195.8,307.2 195.0,307.1 193.1,306.5 192.0,306.2 191.2,305.9"/>
    <polyline points="191.2,305.9 188.5,305.0 186.0,304.2"/>
    <polyline points="475.9,450.2 478.0,450.5 480.2,451.0 482.1,451.6 483.7,452.6 484.4,453.0 486.3,455.0 487.0,456.2 488.2,458.3 490.2,461.3 491.9,464.1 492.6,465.2 493.2,466.1 493.7,466.8 494.0,467.1 494.4,467.6 495.3,468.3 496.3,469.0 497.3,469.5 500.2,471.0 500.8,471.3"/>
    <polyline points="475.7,450.6 477.8,451.0 479.7,451.5 481.2,452.0 483.7,453.4 485.5,455.2 486.7,457.0 487.6,458.4 489.6,461.6 491.9,465.3 492.6,466.3 493.3,467.0 493.9,467.7 495.0,468.5 496.0,469.1 497.0,469.6 500.7,471.5"/>
    <polyline points="500.7,471.5 501.2,471.8 501.7,472.2 502.4,473.0 502.8,473.6 503.0,474.1 503.2,474.7 503.4,475.5 503.4,475.9 503.4,476.3 503.0,478.3 502.5,480.5 502.2,482.0 501.9,483.4 501.5,484.5 501.4,484.8 501.1,485.3 499.9,486.6 498.5,487.7 496.5,489.6"/>
    <polyline points="500.8,471.3 501.3,471.7 501.8,472.2 502.6,473.0 503.0,473.6 503.2,474.1 503.5,474.7 503.6,475.5 503.6,475.9 503.6,476.3 502.7,480.5 502.4,482.0 502.1,483.4 501.7,484.5 501.6,484.9 501.4,485.3 500.2,486.6 498.9,487.9 496.7,489.7"/>
    <polyline points="66.6,251.8 67.9,253.2"/>
    <polyline points="68.6,253.9 70.3,255.3"/>
    <polyline points="664.5,427.6 664.3,429.3"/>
    <polyline points="70.8,255.8 70.8,255.9 71.0,256.0"/>
  </g>

  <!-- 지하철 역 -->
  <g>
  </g>
</svg>