<?xml version="1.0" encoding="UTF-8"?>
<svg width="800" height="600" xmlns="http://www.w3.org/2000/svg">
  <title>Lille Subway Map</title>
  <rect width="100%" height="100%" fill="#f8f9fa"/>

  <!-- 지하철 선로 -->
  <g stroke="#2563eb" stroke-width="2" fill="none" opacity="0.8">
    <polyline points="635.7,61.5 652.8,58.6 665.8,56.7 674.8,55.6 683.2,54.9 694.5,54.2 704.0,53.8 715.3,53.2 724.1,52.4 736.2,50.7 748.2,48.9 781.4,43.3 783.1,42.9 784.1,42.8 791.4,40.8 794.6,39.9 798.4,39.0 816.2,33.4 841.3,28.0 869.7,22.1 896.8,17.8 923.3,14.0 951.7,11.1 983.9,9.5 1014.8,8.9"/>
    <polyline points="23.6,444.6 112.8,447.4 118.6,447.6 123.5,447.8 128.1,448.0 133.1,448.2 139.2,448.6 147.5,449.0 152.3,449.3 156.2,449.5 159.6,449.7 163.2,449.8 166.8,450.0 170.9,450.1 175.0,450.2 178.6,450.2 182.9,450.3 187.0,450.3 191.2,450.3 211.2,450.2 223.2,450.0 328.7,449.2 335.8,449.1 348.0,449.0 358.7,448.8 406.1,447.9 412.9,447.8 420.3,447.6 426.4,447.4 432.1,447.2 438.1,446.9 443.3,446.6 451.2,446.2 459.5,445.6 465.4,445.2 499.7,442.9 511.0,442.1 522.7,441.3 535.1,440.4 537.6,440.2 540.2,440.1 544.0,439.7 549.1,439.3 552.4,439.0 555.2,438.8 558.8,438.4 563.4,437.9 567.4,437.4 570.1,437.1 573.2,436.7 577.4,436.2 581.3,435.7 584.9,435.2 589.3,434.5 593.5,433.9 628.1,429.0 630.7,428.7 633.3,428.3 636.0,427.9 639.7,427.3 642.0,426.9 644.4,426.5 646.8,426.0 648.8,425.6 650.6,425.3 652.5,424.9 654.8,424.4 656.5,423.9 658.3,423.5 660.2,423.0 663.1,422.3 665.1,421.7 666.8,421.2 668.6,420.6 670.9,419.9 672.8,419.2 675.1,418.4 676.9,417.7 678.5,417.0 680.4,416.2 681.9,415.6 683.5,414.8 685.3,413.9 687.3,412.9 689.2,411.8 691.4,410.6 693.7,409.2 696.8,407.3 700.5,405.0 702.5,403.7 703.8,402.8 704.7,402.1 705.6,401.4 706.5,400.7 707.9,399.5 708.7,398.7 709.6,397.7 710.4,396.7 711.2,395.6 713.6,392.3 716.6,388.2 719.8,383.6 721.9,380.5 722.7,379.2 723.4,377.9 724.0,376.8 724.4,375.7 724.7,374.5 724.8,373.1 724.9,371.4 724.8,370.2 724.6,369.2 724.4,368.1 724.0,367.0 723.3,365.3 722.5,363.6 721.3,361.6 720.2,359.9 718.9,358.1 717.9,356.9 716.7,355.4 712.1,349.9 701.5,337.7 700.4,336.4 699.5,335.3 698.6,334.3 697.8,333.2 697.2,332.3 695.7,330.2 678.0,305.0 676.1,302.2 674.4,299.9 672.5,297.5 672.1,296.8 671.4,296.1 670.3,294.8 669.2,293.7 667.5,292.1 666.1,290.8 662.0,287.3 649.3,277.4"/>
    <polyline points="595.5,234.8 591.1,230.7 586.6,226.7 582.1,223.1 577.9,220.3 573.5,218.1 568.8,216.2 564.6,214.7 559.7,213.2 555.5,212.1 550.9,211.1 544.1,209.9 538.8,209.1 530.6,208.0 521.8,206.8 514.1,205.2 509.8,204.5 508.1,203.9 501.4,201.8 495.6,200.1 490.8,198.4 486.5,196.3 483.0,194.6 479.5,192.0 476.5,189.5 473.3,186.7 470.3,183.7 465.7,178.4"/>
    <polyline points="478.5,97.0 489.3,94.3 501.8,91.2 560.6,75.9 574.9,72.9 591.4,69.8 600.6,68.2 635.7,61.5"/>
    <polyline points="465.7,178.4 461.8,174.5 457.7,169.8 455.0,167.3 452.2,165.0 448.7,163.0 444.4,160.6 439.5,158.7 434.7,156.5 429.5,154.5 423.6,152.4 417.7,150.6 411.9,148.8 406.4,147.0 400.5,144.2 395.3,141.2 392.1,138.9 390.2,136.9 388.1,134.2 387.5,131.4 387.6,128.9 388.6,125.7 390.9,123.0 393.7,120.6 396.6,118.2 401.5,115.7 406.5,113.4 413.1,111.1 419.5,109.5 425.1,108.3 431.8,107.2 439.7,105.7 447.2,104.3 457.2,102.2 467.2,99.7 478.5,97.0"/>
    <polyline points="379.1,108.1 374.6,107.6 367.0,106.7 359.6,105.9 353.6,105.2 347.5,104.6 336.2,103.6 328.6,103.0 327.1,102.9 317.3,102.2 308.5,102.1 300.6,102.4 292.4,103.1 282.9,104.1 273.8,105.7 263.1,108.4 258.2,110.0 254.3,111.7 247.7,114.9 241.9,118.3 237.0,122.4 232.5,127.3 227.8,132.5 204.9,154.0 196.5,162.4 189.8,170.3 184.1,178.5 179.3,185.4 174.5,192.2 171.6,195.4 167.7,199.4 167.1,200.0 161.0,206.4 159.1,208.0 157.5,209.5 155.5,210.7 152.3,212.5 143.3,216.8 134.7,220.9 126.8,224.7 121.1,227.1 115.4,229.3 110.3,230.9 104.0,232.7 97.6,234.2 90.7,235.7 80.1,237.8 69.4,239.7 60.2,241.5 52.5,243.4 43.5,245.6 31.8,249.1 22.6,251.8 15.3,254.1 5.5,257.1 -4.2,260.2 -13.7,263.1 -23.1,265.9 -30.7,268.1 -39.7,270.8 -49.3,273.7 -58.5,276.5 -66.1,278.8 -67.7,279.3 -80.2,283.3 -88.0,285.5 -98.0,288.4 -105.7,290.7 -111.4,292.8 -115.8,295.3 -119.9,298.1 -122.3,300.4 -124.2,302.4 -126.5,305.3 -127.5,307.5 -128.6,310.0 -129.8,312.8 -130.5,315.1 -131.0,318.3 -130.5,321.7 -129.6,324.8 -128.2,328.5 -126.2,332.1 -123.1,335.6 -118.5,341.0 -114.4,345.4 -110.8,349.4 -107.0,353.9 -103.2,358.6 -100.6,361.7 -98.0,365.1 -96.1,367.6 -93.9,370.6 -92.3,374.3 -91.8,378.2 -91.9,381.0 -92.8,383.7 -94.2,386.1 -96.5,389.1 -99.8,392.5 -104.3,396.6 -108.6,399.7 -113.4,403.3 -120.2,408.2 -127.0,412.9 -135.0,418.7 -139.9,422.4 -146.2,426.8 -148.7,428.8 -157.5,434.9 -159.9,436.5 -167.9,442.2 -173.6,445.8 -178.3,449.0 -182.6,451.5 -187.9,454.5 -193.8,457.2 -199.8,459.4 -206.3,461.5 -211.6,462.9 -216.4,464.0 -221.8,464.9 -228.0,465.8 -235.2,466.8 -243.6,467.4 -250.6,467.7 -260.1,468.0 -272.9,468.2"/>
    <polyline points="657.1,75.7 649.8,74.4 642.5,73.3 633.3,72.2 624.9,71.4 618.0,71.1 611.9,70.8 605.0,70.5 597.3,70.4 589.3,70.7 581.6,71.3 574.1,72.0 566.3,73.2 559.6,74.3 551.8,76.0 543.0,78.2 483.2,93.5 476.5,95.2 455.5,100.5 447.7,102.3 438.8,104.3 431.0,105.8 424.2,106.7 417.0,107.5 408.4,108.2 400.7,108.4 393.1,108.5 379.1,108.1"/>
    <polyline points="379.1,108.1 389.2,109.1 397.1,109.5 403.9,109.7 409.2,109.8 413.9,109.7 422.8,109.5 430.3,109.0 436.1,108.4 441.3,107.6 446.3,106.7 452.8,105.4 462.5,103.3 482.7,98.3 490.3,96.4 524.3,87.8 544.6,82.5 558.5,78.8 569.2,76.6 580.0,74.9 588.1,73.9 597.7,73.1 607.6,72.5 617.4,72.4 626.0,72.7 636.4,73.4 645.6,74.3 657.1,75.7"/>
    <polyline points="647.9,277.3 663.7,289.8 664.6,290.6 665.7,291.5 666.6,292.3 667.8,293.5 668.8,294.5 670.1,296.0 671.3,297.5 673.1,299.9 674.8,302.2 676.8,305.1 696.0,332.3 696.8,333.3 697.4,334.2 698.3,335.2 699.3,336.5 715.6,355.8 716.6,357.0 717.8,358.4 718.5,359.4 719.7,361.2 720.9,363.3 721.6,364.7 722.2,365.9 722.6,367.0 723.0,368.1 723.3,369.2 723.4,370.4 723.5,371.5 723.5,372.6 723.4,373.6 723.2,374.8 723.0,375.5 722.7,376.5 722.2,377.5 721.8,378.4 721.1,379.6 718.4,383.6 715.3,388.2 712.6,392.0 709.3,396.5 708.6,397.4 707.6,398.4 706.8,399.2 706.1,399.9 705.1,400.8 704.2,401.5 702.8,402.5 701.3,403.6 699.4,404.8 696.3,406.8 692.8,408.9 690.5,410.3 688.5,411.4 686.7,412.5 685.0,413.4 683.5,414.1 681.9,414.9 679.9,415.8 677.8,416.7 675.8,417.5 673.8,418.2 671.6,419.0 669.6,419.7 667.9,420.3 666.4,420.7 664.7,421.3 662.6,421.8 660.5,422.4 657.9,423.1 655.4,423.7 652.6,424.4 650.4,424.8 647.7,425.4 645.4,425.8 642.2,426.4 639.3,426.8 636.0,427.4 632.8,427.9 630.1,428.3 627.4,428.7 593.0,433.5 586.2,434.5 582.5,435.0 579.0,435.5 575.7,435.9 572.2,436.4 568.9,436.8 565.8,437.2 563.1,437.5 560.4,437.8 557.3,438.1 554.7,438.3 551.3,438.6 547.6,439.0 543.9,439.3 539.6,439.6 534.9,439.9 522.3,440.8 510.7,441.6 499.6,442.4 455.2,445.5 450.5,445.8 446.8,446.0 442.6,446.3 437.7,446.6 431.9,446.8 426.4,447.0 419.2,447.2 412.6,447.4 406.0,447.5 359.7,448.4 354.6,448.5 349.4,448.6 343.1,448.7 336.7,448.7 328.8,448.8 211.2,449.7 190.7,449.9 185.5,449.9 183.5,449.8 180.8,449.8 177.5,449.8 173.5,449.7 169.4,449.6 165.6,449.5 161.6,449.3 157.5,449.1 153.7,448.9 149.8,448.7 139.2,448.0 135.1,447.9 130.2,447.6 126.0,447.4 121.8,447.2 118.5,447.1 113.2,446.9 23.7,444.0"/>
    <polyline points="627.4,260.4 618.4,253.1"/>
    <polyline points="649.3,277.4 627.4,260.4"/>
    <polyline points="618.4,253.1 626.1,260.5"/>
    <polyline points="626.1,260.5 647.9,277.3"/>
    <polyline points="618.4,253.1 595.5,234.8"/>
    <polyline points="1590.2,270.4 1581.2,268.7 1553.5,263.6 1533.8,260.0 1520.9,257.6 1512.8,256.1 1492.6,252.7 1491.2,252.4 1473.7,249.4 1457.0,246.8 1437.1,244.0 1425.8,242.5 1414.7,240.8 1405.2,239.4 1397.7,238.6 1389.1,238.1 1381.3,237.7 1373.9,237.5 1369.1,237.2 1367.8,237.1 1361.6,237.0 1354.2,236.9 1348.5,236.7 1344.3,236.2 1335.1,234.8 1329.4,233.7 1326.3,233.1 1317.0,231.0 1294.4,225.9 1274.7,221.1 1251.1,215.1 1224.5,208.9 1202.4,203.8 1181.2,198.7 1166.5,195.2 1148.5,191.2 1123.6,185.6 1069.7,174.3 1061.4,173.1 1054.6,172.2 1045.3,170.6 1041.4,166.3 1038.8,164.0 1036.3,161.8 1032.1,158.7 1027.0,154.7 1022.8,151.0 1018.7,147.4 1017.7,146.2 1016.0,144.3 1013.2,141.3 1010.4,138.0 1007.8,134.8 1005.1,131.6 1002.2,128.6 999.3,125.7 995.3,123.0 991.3,120.7 983.6,117.4 957.6,108.7 939.3,102.5 932.8,101.0 924.8,99.8 917.2,98.7 909.7,98.1 899.9,97.7 888.7,97.4 874.0,97.2 860.7,96.8 846.1,96.1 834.7,95.5 823.0,94.6 809.9,93.3 795.6,91.6 782.6,90.0 770.4,88.4 753.4,86.5 735.4,84.6 721.6,83.0 714.4,82.1 701.3,80.7 686.5,79.2 673.7,77.7 657.1,75.7"/>
  </g>

  <!-- 지하철 역 -->
  <g>
    <circle cx="166.3" cy="199.2" r="3" fill="#dc2626" stroke="#fff" stroke-width="1"/>
    <circle cx="232.5" cy="127.3" r="3" fill="#dc2626" stroke="#fff" stroke-width="1"/>
    <circle cx="465.7" cy="178.4" r="3" fill="#dc2626" stroke="#fff" stroke-width="1"/>
    <circle cx="595.5" cy="234.8" r="3" fill="#dc2626" stroke="#fff" stroke-width="1"/>
    <circle cx="635.7" cy="61.5" r="3" fill="#dc2626" stroke="#fff" stroke-width="1"/>
    <circle cx="477.8" cy="96.1" r="3" fill="#dc2626" stroke="#fff" stroke-width="1"/>
    <circle cx="715.9" cy="388.2" r="3" fill="#dc2626" stroke="#fff" stroke-width="1"/>
  </g>
</svg>