<?xml version="1.0" encoding="UTF-8"?>
<svg width="800" height="600" xmlns="http://www.w3.org/2000/svg">
  <title>Lima Subway Map</title>
  <rect width="100%" height="100%" fill="#f8f9fa"/>

  <!-- 지하철 선로 -->
  <g stroke="#2563eb" stroke-width="2" fill="none" opacity="0.8">
    <polyline points="586.2,78.1 587.7,74.8 587.8,74.4 588.0,73.7 588.1,73.2 588.2,72.6 588.2,71.6 588.1,70.9 587.6,68.7 586.9,66.2 586.7,65.4 586.7,64.7 586.7,64.0 586.8,63.6 586.9,63.1 588.0,60.7 589.2,58.2"/>
    <polyline points="584.5,81.8 586.2,78.1"/>
    <polyline points="592.9,189.0 591.9,184.6 588.4,168.9"/>
    <polyline points="745.5,396.7 738.9,395.0 735.9,394.2"/>
    <polyline points="735.9,394.2 733.8,393.6 733.6,393.6 727.1,391.9 724.2,391.1 720.6,390.1 716.3,388.9 710.7,387.3 705.3,385.6 704.7,385.4"/>
    <polyline points="590.0,56.8 591.7,54.5 593.2,52.5"/>
    <polyline points="589.2,58.2 589.6,57.5 590.0,56.8"/>
    <polyline points="585.3,90.6 584.7,90.1 584.3,89.7 583.8,89.0 583.2,88.0 583.0,87.6 582.9,86.7 582.8,86.4 582.9,85.9 583.0,85.3 583.3,84.6 584.5,81.8"/>
    <polyline points="735.9,394.3 738.9,395.1 745.5,396.8"/>
    <polyline points="704.6,385.5 705.3,385.7 710.6,387.3 716.1,389.0 720.4,390.2 724.0,391.2 727.0,391.9 733.6,393.7 735.9,394.3"/>
    <polyline points="588.2,168.9 589.4,174.5 591.8,184.6 592.8,189.0"/>
    <polyline points="584.3,81.8 583.1,84.5 582.9,85.3 582.7,85.9 582.6,86.5 582.7,86.9 582.8,87.7 583.1,88.2 583.3,88.6 583.6,89.1 584.1,89.7 584.7,90.3 585.3,90.7"/>
    <polyline points="586.0,78.0 584.3,81.8"/>
    <polyline points="589.1,58.1 587.9,60.6 586.8,62.9 586.6,63.4 586.5,64.0 586.6,64.7 586.6,65.4 586.8,66.3 587.5,68.7 588.0,70.9 588.1,71.6 588.0,72.6 588.0,73.1 587.9,73.6 587.7,74.3 587.5,74.7 587.3,75.2 586.0,78.0"/>
    <polyline points="589.8,56.8 589.5,57.4 589.1,58.1"/>
    <polyline points="593.5,51.9 591.5,54.5 589.8,56.8"/>
    <polyline points="585.3,90.7 589.1,93.5 591.8,95.4"/>
    <polyline points="591.9,95.2 589.3,93.4 585.3,90.6"/>
    <polyline points="745.5,396.8 783.9,406.1"/>
    <polyline points="784.1,406.1 745.5,396.7"/>
    <polyline points="689.8,375.3 692.8,377.5 700.4,383.2 700.9,383.6 701.7,384.1 702.4,384.5 703.1,384.8 704.0,385.2 704.6,385.5"/>
    <polyline points="704.7,385.4 703.3,384.8 702.6,384.5 701.9,384.0 701.1,383.6 700.6,383.2 693.1,377.5 690.0,375.2"/>
    <polyline points="690.0,375.2 685.2,372.1 679.2,368.1"/>
    <polyline points="679.1,368.2 684.8,372.0 689.8,375.3"/>
    <polyline points="679.2,368.1 676.6,366.3 676.0,365.9 675.1,365.2 672.3,362.9 668.9,359.9 660.4,352.6"/>
    <polyline points="661.0,353.2 668.7,359.9 672.1,362.9 674.9,365.2 675.8,365.9 676.4,366.3 678.8,368.0 679.1,368.2"/>
    <polyline points="652.3,346.2 657.3,350.3 661.0,353.2"/>
    <polyline points="660.4,352.6 658.2,350.8 652.5,346.2"/>
    <polyline points="640.0,331.5 639.9,331.7 639.7,332.2 639.6,332.4 639.5,332.8 639.4,333.5 639.5,333.9 639.6,334.3 639.8,334.8 639.9,335.1 640.1,335.3 640.4,335.7 645.3,340.1 652.3,346.2"/>
    <polyline points="652.5,346.2 645.5,340.1 640.5,335.6 640.2,335.3 640.0,335.0 639.9,334.7 639.7,334.3 639.6,333.9 639.6,333.4 639.7,332.8 639.8,332.4 639.9,332.2 640.1,331.7 640.2,331.6"/>
    <polyline points="649.9,316.5 641.3,329.7 640.0,331.5"/>
    <polyline points="640.2,331.6 641.4,329.8 650.1,316.6"/>
    <polyline points="642.1,285.8 642.2,286.5 642.7,288.5 643.1,289.8 643.2,290.1 644.2,292.1 645.1,294.0 646.1,296.2 646.8,297.7 647.4,298.9 648.1,300.6 648.9,302.1 649.9,304.2 650.1,304.7 650.2,304.9 650.2,305.1 650.5,305.6 650.7,306.5 651.1,308.2 651.2,309.2 651.3,310.1 651.3,310.7 651.3,311.4 651.2,312.7 651.0,313.8 651.0,314.3 650.9,314.6 650.8,314.8 650.7,315.1 650.6,315.4 649.9,316.5"/>
    <polyline points="650.1,316.6 650.8,315.3 650.9,315.1 651.0,314.8 651.1,314.5 651.2,314.3 651.2,313.9 651.4,312.7 651.5,311.4 651.5,310.7 651.5,310.1 651.4,309.2 651.3,308.2 650.9,306.5 650.7,305.6 650.4,305.1 650.4,304.9 650.3,304.7 650.1,304.2 649.1,302.1 648.3,300.5 647.6,298.9 647.0,297.6 646.3,296.2 645.2,294.0 644.3,292.1 643.4,290.1 643.3,289.8 642.9,288.5 642.4,286.5 642.2,285.8"/>
    <polyline points="641.2,281.2 641.6,283.2 642.1,285.8"/>
    <polyline points="642.2,285.8 641.7,283.2 641.3,281.2"/>
    <polyline points="635.6,258.4 637.0,263.8 640.2,277.6 640.5,278.9 640.6,279.4 641.2,281.2"/>
    <polyline points="641.3,281.2 640.8,279.4 640.7,278.7 637.2,263.7 635.9,258.4"/>
    <polyline points="635.9,258.4 635.1,255.4 633.7,249.3"/>
    <polyline points="633.5,249.3 634.9,255.4 635.6,258.4"/>
    <polyline points="625.4,215.3 624.7,212.6"/>
    <polyline points="623.9,209.9 625.3,215.4"/>
    <polyline points="626.2,219.8 628.1,227.3 630.5,237.5 633.5,249.3"/>
    <polyline points="633.7,249.3 630.7,237.4 628.3,227.2 626.4,219.8"/>
    <polyline points="592.8,189.0 593.0,190.1 593.1,190.4 593.3,191.2 593.6,191.8 595.1,194.3 595.4,194.7 595.8,195.2 596.2,195.6 596.6,196.0 597.0,196.4 597.3,196.6 598.1,197.1 598.7,197.5 599.4,197.9 600.4,198.3 601.5,198.7 602.7,199.0 604.1,199.4 604.8,199.5 608.1,200.1 610.9,200.6 612.5,200.8 613.7,201.1 614.9,201.4 615.6,201.6 616.4,201.9 617.1,202.1 617.8,202.5 618.7,202.9 619.4,203.4 619.7,203.6 620.5,204.1 620.9,204.5 621.5,205.0 622.0,205.5 622.4,206.0 622.6,206.4 623.0,207.1 623.3,207.7 623.5,208.2 623.6,208.9 623.9,209.9"/>
    <polyline points="624.0,209.8 623.8,208.9 623.7,208.2 623.5,207.7 623.2,207.1 623.0,206.7 622.7,206.3 622.5,205.9 622.1,205.4 621.6,205.0 621.2,204.5 620.7,204.1 620.0,203.6 619.5,203.3 618.9,202.9 618.1,202.5 617.0,202.0 616.1,201.7 615.4,201.4 613.8,201.0 612.7,200.8 611.3,200.6 606.3,199.7 604.1,199.3 603.3,199.1 602.3,198.8 601.8,198.7 600.6,198.3 599.5,197.8 599.1,197.6 598.2,197.1 597.7,196.8 597.4,196.5 596.8,196.0 596.5,195.7 596.0,195.2 595.6,194.7 595.3,194.4 593.8,191.8 593.5,191.2 593.3,190.4 593.2,190.1 592.9,189.0"/>
    <polyline points="584.3,151.0 585.9,158.6 587.4,165.5 588.2,168.9"/>
    <polyline points="588.4,168.9 586.1,158.6 584.4,151.1"/>
    <polyline points="579.3,131.4 578.7,131.9 578.3,132.3 578.0,132.7 577.4,133.6 577.0,134.6 576.9,135.3 576.8,136.1 577.0,137.2 577.2,137.8 577.3,138.0 577.5,138.3 579.2,141.0 582.0,145.0 582.6,145.8 582.9,146.3 583.1,146.7 583.4,147.3 584.1,149.7 584.3,151.0"/>
    <polyline points="584.4,151.1 584.2,149.6 583.7,147.8 583.6,147.3 583.3,146.7 583.1,146.3 582.8,145.7 582.2,144.9 579.3,140.8 577.6,138.2 577.4,137.8 577.2,137.2 577.0,136.0 577.0,135.5 577.2,134.6 577.7,133.5 577.9,133.1 578.6,132.3 578.8,132.0 579.5,131.4"/>
    <polyline points="593.0,121.1 586.8,125.8"/>
    <polyline points="586.9,125.8 593.2,121.2"/>
    <polyline points="599.3,107.9 599.5,108.6 599.6,109.1 599.7,109.8 599.5,112.4 599.3,115.0 599.2,115.4 599.0,116.0 598.7,116.5 598.3,117.1 597.8,117.6 597.5,117.9 597.3,118.1 593.0,121.1"/>
    <polyline points="593.2,121.2 597.4,118.2 597.6,118.0 597.9,117.7 598.3,117.3 598.7,116.9 599.0,116.4 599.2,116.0 599.4,115.4 599.5,115.0 599.7,112.4 599.9,109.8 599.8,109.0 599.7,108.5 599.5,107.9"/>
    <polyline points="594.3,98.7 598.0,105.4 599.3,107.9"/>
    <polyline points="599.5,107.9 598.2,105.4 594.5,98.6"/>
    <polyline points="594.5,98.6 593.7,97.2 593.5,96.8 593.2,96.4 592.9,96.1 592.6,95.8 592.3,95.5 591.9,95.2"/>
    <polyline points="591.8,95.4 592.1,95.6 592.4,95.8 592.7,96.1 592.9,96.4 593.1,96.7 593.3,96.9 593.4,97.1 593.5,97.3 594.3,98.7"/>
    <polyline points="628.1,30.0 627.6,30.4 627.1,30.7 626.8,30.8 625.7,31.4 624.2,32.2 622.2,33.2 621.3,33.6 619.9,34.4 619.1,34.9 609.3,41.1 607.9,42.0 603.5,44.8 597.5,48.6 595.4,50.1 594.9,50.4 594.5,50.8 593.5,51.9"/>
    <polyline points="593.2,52.5 594.5,50.9 595.0,50.6 595.4,50.2 597.5,48.7 603.5,44.9 608.1,42.1 609.3,41.3 619.2,35.0 620.7,34.1 621.4,33.7 622.2,33.3 624.0,32.4 625.1,31.9 626.4,31.2 626.9,30.9 627.6,30.5"/>
    <polyline points="586.8,125.8 584.2,127.7 579.3,131.4"/>
    <polyline points="579.5,131.4 584.3,127.8 586.9,125.8"/>
    <polyline points="625.3,215.4 625.8,218.0 626.2,219.8"/>
    <polyline points="626.4,219.8 626.0,218.0 625.4,215.3"/>
    <polyline points="589.4,174.7 589.2,174.0"/>
    <polyline points="587.4,165.5 587.4,165.9"/>
    <polyline points="589.4,174.5 589.2,174.0"/>
    <polyline points="587.4,165.9 587.2,165.1"/>
    <polyline points="589.2,174.0 587.4,165.9"/>
    <polyline points="624.7,212.6 624.0,209.8"/>
  </g>

  <!-- 지하철 역 -->
  <g>
    <circle cx="586.0" cy="158.5" r="3" fill="#dc2626" stroke="#fff" stroke-width="1"/>
    <circle cx="588.2" cy="92.7" r="3" fill="#dc2626" stroke="#fff" stroke-width="1"/>
    <circle cx="591.4" cy="54.8" r="3" fill="#dc2626" stroke="#fff" stroke-width="1"/>
    <circle cx="598.1" cy="105.5" r="3" fill="#dc2626" stroke="#fff" stroke-width="1"/>
    <circle cx="582.8" cy="128.8" r="3" fill="#dc2626" stroke="#fff" stroke-width="1"/>
    <circle cx="591.9" cy="184.6" r="3" fill="#dc2626" stroke="#fff" stroke-width="1"/>
    <circle cx="625.8" cy="217.8" r="3" fill="#dc2626" stroke="#fff" stroke-width="1"/>
    <circle cx="635.2" cy="256.3" r="3" fill="#dc2626" stroke="#fff" stroke-width="1"/>
    <circle cx="641.6" cy="283.0" r="3" fill="#dc2626" stroke="#fff" stroke-width="1"/>
    <circle cx="642.1" cy="328.6" r="3" fill="#dc2626" stroke="#fff" stroke-width="1"/>
    <circle cx="657.9" cy="350.7" r="3" fill="#dc2626" stroke="#fff" stroke-width="1"/>
    <circle cx="685.1" cy="372.1" r="3" fill="#dc2626" stroke="#fff" stroke-width="1"/>
    <circle cx="738.4" cy="394.9" r="3" fill="#dc2626" stroke="#fff" stroke-width="1"/>
  </g>
</svg>