<?xml version="1.0" encoding="UTF-8"?>
<svg width="800" height="600" xmlns="http://www.w3.org/2000/svg">
  <title>Lisbon Subway Map</title>
  <rect width="100%" height="100%" fill="#f8f9fa"/>

  <!-- 지하철 선로 -->
  <g stroke="#2563eb" stroke-width="2" fill="none" opacity="0.8">
    <polyline points="445.5,157.2 445.3,158.5 445.2,158.9 445.0,159.7 444.8,160.3 444.6,160.8 444.3,161.5 444.1,162.0 443.8,162.4 443.5,162.9"/>
    <polyline points="447.4,164.2 443.9,165.9 438.9,168.2 438.0,168.6 437.2,168.9 436.3,169.2 435.1,169.7 432.7,170.5 429.8,171.6 426.9,172.7 426.7,172.7 425.4,173.2 418.2,175.8 416.7,176.3 415.3,176.7 414.2,177.0 413.2,177.1 412.2,177.2 411.1,177.3 410.0,177.3 408.9,177.2 407.9,177.2 407.2,177.1 406.5,177.0 404.8,176.6"/>
    <polyline points="398.0,175.0 392.7,173.8 390.6,173.4 387.8,172.8 384.6,172.4"/>
    <polyline points="414.4,174.2 413.2,174.5 412.3,174.8 411.5,175.1 410.8,175.4 410.0,175.8 409.5,176.1 409.1,176.4 408.6,176.8 408.0,177.2 407.5,177.7 407.0,178.2 406.6,178.6 406.1,179.2 405.6,179.8 405.1,180.6 404.7,181.3 404.3,182.1 404.0,182.9 403.8,183.5 403.6,184.4 403.6,185.0 403.5,185.8 403.5,186.7 403.6,187.5 403.7,188.4 403.9,189.3 404.3,190.3 404.6,191.0 405.0,191.7 405.6,192.7 406.3,193.9 406.8,194.5 407.3,195.2 407.8,195.8 411.9,200.7 413.4,202.3 414.5,203.6 415.2,204.5 415.9,205.5 416.6,206.5 417.4,207.7 418.2,208.9 418.8,210.0 419.1,210.7 420.0,212.3 421.0,214.7 423.1,219.5 423.8,221.2 425.4,224.7 425.8,225.6 426.3,226.3 426.8,227.0 427.3,227.6 427.8,228.2 428.2,228.6 428.6,229.0 429.5,229.7 430.4,230.3 431.1,230.7 432.0,231.2 432.8,231.6 433.6,231.8 434.7,232.2 435.8,232.5 436.5,232.6 437.3,232.7 438.2,232.8 439.0,232.9 440.4,232.8 441.4,232.8 442.5,232.6 443.5,232.5 444.6,232.2 445.2,232.0 445.8,231.8 446.4,231.5 450.6,229.8 451.5,229.4 452.3,229.1 453.0,228.9 453.9,228.6 454.8,228.4 455.7,228.2 456.5,228.1 457.3,228.0 458.0,227.9 458.8,227.8 459.6,227.8 460.9,227.8 462.0,227.8 463.0,227.9 464.2,228.0 465.2,228.2 466.1,228.4 467.1,228.6 468.2,228.9 469.1,229.3 470.2,229.7 471.1,230.1 471.8,230.5 472.4,230.8 473.2,231.3 474.0,231.8 474.5,232.2 475.3,232.8 475.7,233.2 476.3,233.7 476.6,234.1 476.9,234.5 477.2,235.0 477.5,235.3 477.9,236.1 478.3,236.7 478.5,237.2 478.8,237.7 479.0,238.3 479.1,238.8 479.3,239.3 479.4,239.7 480.5,244.3 487.9,277.1 490.5,288.7 495.1,308.7 495.9,312.0 496.4,314.3 496.5,314.7 496.5,315.1 496.6,315.4 496.6,315.6 496.7,315.9 496.7,316.3 496.7,316.6 496.7,317.0 496.7,317.5 496.6,318.0 496.5,318.4 496.4,319.0 496.3,319.6 496.2,320.0 496.0,320.7 495.6,321.8 495.3,322.4 495.1,323.0 494.8,323.6 494.4,324.3 493.9,325.1 487.1,336.9 485.3,339.9 470.8,365.9"/>
    <polyline points="422.4,296.2 415.2,294.8 404.3,292.6 398.9,291.2 390.7,289.6 385.7,288.0 383.1,286.4 376.9,278.2 371.5,271.7"/>
    <polyline points="627.3,269.0 639.8,244.1 641.2,241.4 656.7,211.0 661.1,201.0 662.6,196.9 665.0,191.9 665.5,190.6 665.8,189.7 665.9,189.0 666.0,188.2 666.2,187.0 666.2,184.6 666.0,180.2 666.1,179.3 666.3,178.2 666.5,177.2 666.8,176.2 667.1,175.5 667.5,174.7 667.8,174.0 668.2,173.5 671.0,168.9 673.8,164.3 674.7,162.7 675.5,161.6 676.2,160.8 677.0,159.9 677.9,159.2 678.6,158.7 679.3,158.3 680.1,157.8 681.0,157.3 682.3,156.8 683.4,156.5 684.4,156.2 685.5,156.0 686.7,155.8 688.0,155.8 690.7,155.7 712.9,155.7 718.4,155.7 721.6,155.6 722.8,155.5 724.0,155.3 725.1,155.1 726.2,154.7 727.3,154.3 728.1,153.8 729.1,153.1 729.9,152.5 730.8,151.6 731.2,151.0 731.5,150.5 731.9,149.8 732.3,149.0 732.6,148.4 733.0,147.3 733.2,146.3 733.4,144.9 733.6,143.4 734.2,136.1 734.6,132.1 734.9,128.8 735.4,123.3 737.5,100.4 737.6,99.1 737.6,98.5 737.5,97.7 737.3,96.9 737.1,96.3 736.8,95.6 736.4,94.7 735.7,93.8 735.4,93.3 734.8,92.7 734.0,92.0 733.2,91.4 732.2,90.8 731.3,90.3 730.1,89.9 729.1,89.6 728.1,89.4 727.0,89.3 725.9,89.2 724.9,89.2 724.1,89.2 721.8,89.3 718.4,89.5 713.6,89.7 712.0,89.8 709.8,89.9 706.6,90.1 704.5,90.1 702.6,90.2 701.3,90.1 699.7,89.9 698.2,89.5 696.2,89.0 693.9,88.1 690.9,87.0 688.4,86.0 685.5,84.9 683.2,84.0 679.5,82.6 677.0,81.6 676.1,81.3 675.1,81.0 674.0,80.8 673.0,80.7 671.7,80.5 670.6,80.5 669.7,80.5 669.3,80.5 668.1,80.7 666.6,80.9 665.7,81.2 664.9,81.4 663.8,81.8 662.4,82.5 662.2,82.6 661.7,82.9 661.1,83.2 659.0,84.5 656.9,85.8 655.2,86.9 652.6,88.5 648.9,90.7 647.1,91.9 644.9,93.2 642.9,94.5 641.0,95.9 631.8,102.4 627.6,105.3 626.0,106.5 624.6,107.5 623.5,108.4 622.3,109.3 621.1,110.4 620.2,111.2 619.1,112.3 617.9,113.6 615.8,115.7 614.5,117.1 613.4,118.1 612.7,118.7 611.9,119.2 611.0,119.8 609.9,120.5 608.7,121.1 607.3,121.7 606.5,122.0 605.5,122.3 604.3,122.6 602.7,123.0 601.5,123.2 599.0,123.6 593.9,124.3 588.8,125.0 585.4,125.5"/>
    <polyline points="472.1,146.2 472.2,147.6 472.2,148.1 472.2,148.4 472.1,148.9 472.0,149.9 472.0,150.2 472.0,150.6 472.3,154.8 472.3,155.3 472.2,155.6 472.1,156.4 472.0,156.7 471.9,157.1 471.7,157.4 471.5,157.7 471.3,158.0 471.1,158.3 470.7,158.6 470.4,158.8 470.0,159.0 469.6,159.3 464.2,162.1"/>
    <polyline points="464.4,148.0 464.5,148.5 464.5,148.9 464.5,149.7 464.5,150.0 464.6,150.6"/>
    <polyline points="465.9,147.0 464.4,140.4"/>
    <polyline points="466.4,158.7 465.5,154.7"/>
    <polyline points="438.7,167.9 437.6,168.4 436.6,168.9 435.1,169.7 434.3,170.1 433.9,170.2 433.3,170.5"/>
    <polyline points="470.9,148.7 470.7,148.1 470.6,147.7 470.4,147.1 470.3,146.5 470.2,146.0 470.1,145.5 470.1,145.0 469.5,135.7"/>
    <polyline points="471.8,148.5 471.8,147.9 471.8,147.6 471.1,135.5"/>
    <polyline points="469.6,146.0 469.5,145.5 469.5,145.2 468.9,135.9"/>
    <polyline points="468.4,143.6 468.3,143.1 468.3,142.7 467.9,136.6"/>
    <polyline points="471.6,154.8 471.5,154.2 471.4,153.8 471.1,152.9 471.0,152.6 470.9,152.3 470.7,151.9 470.0,151.0 469.8,150.5 469.6,150.2 468.8,148.4 468.7,148.0 468.5,147.7 468.5,147.3 468.3,146.6"/>
    <polyline points="464.2,147.0 464.4,148.0 464.6,149.0 465.6,153.3"/>
    <polyline points="469.8,135.6 470.4,145.2 470.4,145.9 470.5,146.4 470.6,147.0 470.8,147.6 471.1,148.8 471.4,149.7"/>
    <polyline points="467.9,146.7 466.4,140.1"/>
    <polyline points="470.1,157.7 469.1,158.4 468.9,158.6 468.3,158.9"/>
    <polyline points="471.7,155.9 471.8,155.5 471.8,155.1 471.8,154.7 471.7,152.8 471.6,151.8 471.6,151.6 471.5,150.7 471.5,149.6 471.4,148.7 471.4,148.2 471.4,147.8 471.3,147.3 471.2,146.9 471.2,146.5 470.5,135.5"/>
    <polyline points="471.4,153.8 471.2,153.3 471.0,153.0 470.9,152.7 470.8,152.5 470.6,152.3 470.4,152.0 470.1,151.8 469.9,151.6 469.6,151.5 469.3,151.3 468.4,150.8 466.5,149.9 466.2,149.7 465.8,149.5 465.5,149.2 465.2,148.9 464.9,148.6 464.7,148.3 464.6,148.1 464.4,147.8 464.3,147.6 464.2,147.0 462.7,140.6"/>
    <polyline points="443.5,162.9 443.3,163.2 442.9,163.7 442.6,164.2 442.2,164.5 441.8,164.9 441.3,165.4 441.1,165.6 440.6,166.0 440.1,166.4 439.6,166.7 439.1,166.9 438.7,167.2 438.3,167.4 437.8,167.6 437.2,167.9 436.7,168.1 436.0,168.4 432.7,169.5 432.3,169.7 429.3,170.7 426.4,171.8 425.5,172.0 425.2,172.1 424.2,172.4 423.0,172.7 422.9,172.7 421.9,172.9 421.5,173.0"/>
    <polyline points="472.3,154.8 472.3,155.8 472.4,156.8 472.4,157.6 472.5,157.9 472.5,158.2 472.4,158.5 472.4,158.8 472.3,159.0 472.2,159.3 472.0,159.5 471.8,159.8 471.6,160.1 471.3,160.4 471.1,160.6 470.8,160.8 470.4,161.0 467.4,162.6"/>
    <polyline points="470.1,135.6 470.7,145.7 470.8,146.2 470.9,146.8 471.0,147.2 471.1,147.7 471.3,148.7 471.4,149.0 471.5,149.6"/>
    <polyline points="467.1,146.8 465.6,140.2"/>
    <polyline points="466.3,146.9 464.8,140.3"/>
    <polyline points="467.5,146.8 466.0,140.2"/>
    <polyline points="471.5,150.7 471.5,150.2 471.4,149.9 471.4,149.7 471.2,149.2 471.1,148.9 470.9,148.7 470.5,147.8 470.0,147.0 469.9,146.7 469.7,146.4 469.6,146.0 469.1,144.1 469.0,143.6 468.9,143.1 468.9,142.6 468.8,141.7 468.5,136.2"/>
    <polyline points="468.2,136.4 468.7,144.0 468.7,144.2 468.7,144.5 468.8,145.0 469.2,146.4 469.8,148.6 470.0,149.0 470.1,149.5 470.3,149.9 470.4,150.3 470.7,150.7 471.1,151.7 471.3,151.9 471.4,152.3 471.4,152.5 471.4,152.9 471.5,153.8 471.6,154.8 471.6,155.1 471.5,155.5 471.4,155.9 471.3,156.3 471.1,156.6 470.9,156.9 470.7,157.1 470.4,157.4 470.1,157.7 469.6,158.0 469.3,158.2 468.1,158.8 467.2,159.2"/>
    <polyline points="468.8,145.0 468.4,143.6 468.0,142.2 467.9,141.8 467.9,141.6 467.9,141.2 467.6,136.8"/>
    <polyline points="471.7,149.6 471.7,149.0 471.8,148.7 471.8,148.5 472.0,147.1 472.1,146.7 472.1,146.2 471.8,142.5 471.4,135.4"/>
    <polyline points="468.7,144.0 468.7,143.4 468.7,143.1 468.8,142.6 468.8,142.3 468.8,141.7"/>
    <polyline points="467.4,161.8 465.0,163.0"/>
    <polyline points="462.1,161.4 463.0,161.3 463.3,161.2 463.7,161.1 464.1,161.0 464.4,160.9 464.8,160.7 465.1,160.6 468.2,159.0 468.3,158.9 469.7,158.2 470.1,158.0 470.4,157.7 470.8,157.4 471.1,157.1 471.3,156.7 471.5,156.3 471.7,155.9"/>
    <polyline points="466.7,146.9 465.2,140.3"/>
    <polyline points="465.5,147.0 464.0,140.5"/>
    <polyline points="464.6,149.0 464.9,149.8 465.1,150.2 465.2,150.5 465.5,150.8 466.2,151.8 467.5,153.4 467.7,153.7"/>
    <polyline points="471.8,142.5 471.9,141.9 471.9,141.6 472.0,141.0 472.0,140.7 472.0,140.5 472.0,140.1 471.7,135.4"/>
    <polyline points="472.3,155.8 472.3,156.3 472.3,156.6 472.2,157.0 472.2,157.3 472.1,157.7 472.0,158.0 471.8,158.3 471.6,158.5 471.4,158.8 471.2,159.0 471.0,159.3 470.7,159.5 470.4,159.7 470.1,159.9 469.8,160.1 464.6,162.7"/>
    <polyline points="465.5,150.8 465.8,151.4 465.9,151.6 466.2,152.2 466.3,152.5 466.5,152.8 466.7,153.1 466.9,153.4 467.2,153.7 467.5,153.9"/>
    <polyline points="472.4,156.8 472.4,157.3 472.4,157.6 472.3,158.1 472.2,158.5 472.0,158.8 471.9,159.1 471.7,159.3 471.5,159.6 471.3,159.8 471.1,160.0 470.9,160.2 470.6,160.4 470.3,160.6 470.0,160.8 469.7,160.9 467.6,162.0"/>
    <polyline points="470.5,147.8 470.2,147.3 470.1,147.0 470.0,146.6 469.9,146.2 469.8,145.7 469.8,145.3 469.7,144.8 469.2,135.8"/>
    <polyline points="432.7,169.5 433.4,169.3 433.8,169.2 434.7,169.0 435.4,168.8 436.2,168.6 436.7,168.5 437.2,168.4 437.6,168.2 438.0,168.1 438.4,167.9 438.8,167.7 441.1,166.5 443.5,165.4 445.9,164.3 446.6,163.9 447.3,163.7 448.0,163.5"/>
    <polyline points="246.1,150.5 246.6,150.1 247.0,149.9 247.3,149.8 247.7,149.6 248.0,149.4 248.1,149.3 248.4,149.2 248.7,149.0 253.3,145.6"/>
    <polyline points="258.1,148.5 258.6,146.7 258.8,146.3 259.0,145.7 259.2,144.9 259.2,144.7 259.5,143.8 259.6,143.6 259.7,143.3 259.8,143.1 260.0,142.8 261.0,141.2 261.4,140.6 261.8,140.1 263.0,138.9 265.3,136.4 265.6,136.2 266.0,135.8"/>
    <polyline points="261.9,139.7 260.8,140.8 259.4,142.3 259.3,142.3 259.0,142.7 258.6,142.9 257.0,144.1 254.3,146.2 253.9,146.5 253.6,146.6 253.2,146.8 252.6,147.1 252.4,147.3 252.0,147.5 251.9,147.6 251.7,147.7 251.2,148.1 250.0,148.9"/>
    <polyline points="238.1,156.4 246.1,150.5 253.0,145.4 258.7,141.2 261.4,139.2 264.7,136.8"/>
    <polyline points="261.4,139.2 261.0,139.5 260.7,139.8 260.1,140.5 259.2,141.3 256.1,143.5"/>
    <polyline points="278.7,126.1 274.9,129.0 273.3,130.1 265.8,135.6 261.2,139.0 252.8,145.2 246.0,150.2 237.9,156.2"/>
    <polyline points="246.5,151.9 246.8,151.7 251.9,147.9 252.0,147.9 252.1,147.8 252.2,147.7 252.4,147.6 252.7,147.4 253.9,146.8 254.2,146.6 254.7,146.3 257.3,144.4 257.6,144.1 258.0,143.7 258.3,143.4 259.3,142.3"/>
    <polyline points="258.0,148.2 258.6,146.3 259.0,144.9 259.2,144.0 259.4,143.7 259.5,143.4 259.6,143.1 259.9,142.5 260.3,142.0 261.2,140.6 261.4,140.3 261.6,140.0 261.9,139.7 262.4,139.1 264.0,137.4 264.3,137.1 264.7,136.8 266.0,135.8 271.5,131.8 275.1,129.2 279.0,126.3"/>
    <polyline points="258.0,148.2 258.6,146.7 259.0,145.9 259.1,145.7 259.3,145.4 259.4,145.2 259.6,145.0 259.9,144.7 260.2,144.4 260.5,144.1 260.9,143.8 261.3,143.5 261.7,143.3 262.3,143.0 263.8,142.3 265.6,141.3 267.1,140.6 268.5,139.9 270.0,139.1 271.7,138.2 273.2,137.5 274.7,136.7 276.2,136.0 277.0,135.5"/>
    <polyline points="270.0,139.1 270.4,138.9 270.8,138.6 281.5,130.7"/>
    <polyline points="261.5,141.7 261.9,141.4 262.2,141.1 263.1,140.4 278.8,128.9"/>
    <polyline points="257.6,149.6 258.1,148.5"/>
    <polyline points="271.7,138.2 272.2,137.9 272.6,137.7 281.0,131.5"/>
    <polyline points="274.2,137.4 274.7,137.1 275.1,136.9 277.0,135.5"/>
    <polyline points="263.0,141.1 263.3,140.9 263.5,140.8 263.8,140.6 265.4,139.4 279.2,129.2"/>
    <polyline points="267.1,140.6 267.5,140.3 267.9,140.1 281.1,130.4"/>
    <polyline points="276.0,136.5 276.5,136.2 276.9,136.0 278.0,135.1 281.4,132.6"/>
    <polyline points="263.8,142.3 264.2,142.0 264.6,141.7 265.6,141.0 280.7,129.9"/>
    <polyline points="268.5,139.9 269.0,139.6 269.4,139.3 281.3,130.5"/>
    <polyline points="273.2,137.5 273.7,137.2 274.1,137.0 281.2,131.7"/>
    <polyline points="264.9,138.1 265.3,137.7 265.6,137.5 267.2,136.3 276.7,129.3"/>
    <polyline points="265.6,141.3 266.1,141.1 266.4,140.8 280.9,130.2"/>
    <polyline points="274.7,136.7 275.2,136.5 275.5,136.2 281.4,131.9"/>
    <polyline points="272.6,138.2 273.2,138.0 273.6,137.8 275.0,137.4 275.4,137.2 275.9,137.0"/>
    <polyline points="271.5,131.8 271.9,131.4 272.2,131.2 272.6,130.7 272.9,130.4 273.3,130.1"/>
    <polyline points="262.8,140.4 263.2,140.0 263.5,139.7 265.5,138.3 278.2,128.9"/>
    <polyline points="262.3,143.0 263.1,142.5 265.4,140.8 280.5,129.8"/>
    <polyline points="263.9,139.2 264.6,138.6 265.3,138.1 278.0,128.7"/>
    <polyline points="256.0,151.8 255.8,152.3 255.6,152.6 255.4,153.0"/>
    <polyline points="275.1,129.2 275.9,128.6 276.1,128.5 276.4,128.4 276.6,128.3 276.8,128.3 277.1,128.2 277.4,128.1 277.8,128.1 278.1,128.1 278.5,128.1 278.8,128.1 279.2,128.1 279.5,128.2 279.9,128.3 280.2,128.4 280.5,128.5 280.8,128.6 281.1,128.8 281.3,129.0 281.5,129.1 281.8,129.3 282.0,129.5 282.2,129.7 282.3,130.0 282.5,130.3 282.6,130.5 282.7,130.8 282.8,131.1 282.9,131.4 282.9,131.7 282.9,131.9 282.9,132.2 282.8,132.5 282.8,132.7 282.7,133.0 282.6,133.2 282.4,133.5 282.2,133.8 282.0,134.0 281.8,134.3 281.5,134.5 281.2,134.7 280.9,134.9 280.6,135.1 280.1,135.3 278.8,135.7 278.1,135.9 277.6,136.2 277.1,136.4 276.0,137.0 275.9,137.0 272.7,138.6 266.2,141.9 265.0,142.5 262.0,144.0 261.8,144.2 261.4,144.4 261.1,144.6 260.8,144.8 260.5,145.1 260.2,145.3 260.0,145.5 259.9,145.6 259.6,145.9 259.4,146.2 259.1,146.5 258.9,146.8 258.7,147.3 258.4,147.8 258.1,148.5"/>
    <polyline points="262.6,142.5 263.0,142.2 263.4,141.9 264.1,141.1 264.4,140.9 264.6,140.8 265.0,140.5 280.1,129.4"/>
    <polyline points="256.3,150.4 256.2,150.9 256.1,151.2 256.1,151.4 256.0,151.7 256.0,151.8 255.5,153.2"/>
    <polyline points="260.9,143.8 262.6,142.5"/>
    <polyline points="257.0,144.8 256.4,145.5 256.1,145.8 255.8,146.0 255.5,146.3 255.2,146.6 254.9,146.8 252.4,148.7 252.2,148.8 252.1,148.9"/>
    <polyline points="256.7,146.3 256.0,146.9 252.9,149.2 252.7,149.3 252.6,149.4"/>
    <polyline points="260.4,142.8 261.1,142.2 261.6,141.9"/>
    <polyline points="261.6,141.9 262.0,141.6 262.4,141.4 263.0,141.1 264.2,140.5 264.5,140.3 264.9,140.1 265.2,139.9 265.6,139.6 279.4,129.4"/>
    <polyline points="256.2,148.4 255.9,148.8 255.7,149.1 255.4,149.4 255.1,149.7 254.7,150.0 254.2,150.4 254.1,150.5 253.9,150.6"/>
    <polyline points="257.1,147.0 256.5,147.8 255.6,148.7 255.2,149.1 254.9,149.4 254.5,149.7 254.0,150.2 253.8,150.3 253.7,150.4"/>
    <polyline points="258.0,146.0 257.8,146.4 257.7,146.7 255.6,149.9 255.2,150.4 254.7,150.9 254.6,151.0 254.4,151.1"/>
    <polyline points="257.5,147.4 257.3,147.9 257.1,148.2 256.8,148.6 256.4,149.2 255.9,150.1 255.7,150.4 255.5,150.7 255.2,150.9 255.0,151.1 254.8,151.2 254.7,151.4"/>
    <polyline points="256.9,148.9 256.7,149.4 256.5,149.7 256.2,150.1 255.9,150.6 255.7,151.0 255.4,151.3 255.3,151.4 255.1,151.5 255.0,151.6"/>
    <polyline points="258.4,144.3 258.1,144.7 257.9,145.0 256.7,146.3 255.8,147.2 255.5,147.5 255.2,147.8 254.9,148.1 254.4,148.5 253.2,149.4 253.0,149.5 252.8,149.6"/>
    <polyline points="257.6,145.7 257.3,146.1 257.0,146.4 255.5,148.0 255.1,148.3 254.7,148.7 254.4,149.0 253.4,149.7 253.2,149.8 253.1,149.9"/>
    <polyline points="258.0,143.7 257.4,144.4 257.0,144.8 256.7,145.2 256.5,145.5 256.3,145.8 256.1,146.1 255.8,146.4 255.6,146.6 255.4,146.9 255.1,147.1 252.6,148.9 252.5,149.1 252.3,149.2"/>
    <polyline points="258.6,144.5 258.4,144.9 258.2,145.3 257.1,147.0 256.2,148.4 255.5,149.5 255.3,149.8 255.0,150.1 254.8,150.4 254.5,150.6 254.3,150.8 254.2,150.9"/>
    <polyline points="260.8,140.8 260.5,141.2 260.2,141.5 259.4,142.9 259.3,142.9 259.1,143.4 258.9,143.7 258.7,144.4 258.6,144.5 258.0,146.0 257.5,147.4 256.9,148.9"/>
    <polyline points="259.3,142.9 258.4,144.3 257.6,145.7 256.9,146.7 256.7,147.1 256.4,147.4 256.1,147.8 255.8,148.1 255.4,148.5 255.1,148.8 254.7,149.2 253.7,149.9 253.5,150.0 253.4,150.1"/>
    <polyline points="259.2,144.7 259.4,144.3 259.6,144.0 259.7,143.8 259.8,143.6 259.9,143.5 260.0,143.3 260.2,143.1 260.3,142.9 260.4,142.8 261.5,141.7 262.8,140.4 263.9,139.2 264.9,138.1"/>
    <polyline points="258.7,147.3 259.1,146.4 259.3,146.1 259.4,145.8 259.5,145.6 259.6,145.5 259.7,145.3 260.0,145.1 260.3,144.7 260.5,144.5 260.8,144.3 261.2,144.0 261.5,143.9 261.8,143.7 264.8,142.2 266.0,141.6 272.6,138.3 272.6,138.2 274.2,137.4 276.0,136.5"/>
    <polyline points="241.0,157.9 252.6,149.4"/>
    <polyline points="241.5,158.4 253.1,149.9"/>
    <polyline points="241.3,158.1 252.8,149.6"/>
    <polyline points="240.8,157.6 252.3,149.2"/>
    <polyline points="240.5,157.4 252.1,148.9"/>
    <polyline points="242.6,159.3 254.2,150.9"/>
  </g>

  <!-- 지하철 역 -->
  <g>
    <circle cx="422.4" cy="296.2" r="3" fill="#dc2626" stroke="#fff" stroke-width="1"/>
    <circle cx="371.5" cy="271.7" r="3" fill="#dc2626" stroke="#fff" stroke-width="1"/>
    <circle cx="349.8" cy="237.5" r="3" fill="#dc2626" stroke="#fff" stroke-width="1"/>
    <circle cx="314.2" cy="228.4" r="3" fill="#dc2626" stroke="#fff" stroke-width="1"/>
    <circle cx="246.2" cy="176.5" r="3" fill="#dc2626" stroke="#fff" stroke-width="1"/>
    <circle cx="111.4" cy="181.0" r="3" fill="#dc2626" stroke="#fff" stroke-width="1"/>
    <circle cx="81.0" cy="215.6" r="3" fill="#dc2626" stroke="#fff" stroke-width="1"/>
    <circle cx="712.9" cy="155.8" r="3" fill="#dc2626" stroke="#fff" stroke-width="1"/>
    <circle cx="661.2" cy="201.0" r="3" fill="#dc2626" stroke="#fff" stroke-width="1"/>
    <circle cx="641.3" cy="241.5" r="3" fill="#dc2626" stroke="#fff" stroke-width="1"/>
    <circle cx="608.2" cy="286.3" r="3" fill="#dc2626" stroke="#fff" stroke-width="1"/>
    <circle cx="264.4" cy="208.9" r="3" fill="#dc2626" stroke="#fff" stroke-width="1"/>
    <circle cx="498.3" cy="399.9" r="3" fill="#dc2626" stroke="#fff" stroke-width="1"/>
    <circle cx="445.6" cy="393.9" r="3" fill="#dc2626" stroke="#fff" stroke-width="1"/>
    <circle cx="488.0" cy="277.1" r="3" fill="#dc2626" stroke="#fff" stroke-width="1"/>
    <circle cx="423.5" cy="219.3" r="3" fill="#dc2626" stroke="#fff" stroke-width="1"/>
    <circle cx="422.3" cy="100.4" r="3" fill="#dc2626" stroke="#fff" stroke-width="1"/>
    <circle cx="421.3" cy="63.3" r="3" fill="#dc2626" stroke="#fff" stroke-width="1"/>
    <circle cx="480.5" cy="244.2" r="3" fill="#dc2626" stroke="#fff" stroke-width="1"/>
    <circle cx="616.0" cy="429.5" r="3" fill="#dc2626" stroke="#fff" stroke-width="1"/>
  </g>
</svg>