<?xml version="1.0" encoding="UTF-8"?>
<svg width="800" height="600" xmlns="http://www.w3.org/2000/svg">
  <title>Los Angeles Subway Map</title>
  <rect width="100%" height="100%" fill="#f8f9fa"/>

  <!-- 지하철 선로 -->
  <g stroke="#2563eb" stroke-width="2" fill="none" opacity="0.8">
    <polyline points="251.7,275.3 251.7,275.3 251.7,275.4 251.7,275.5 251.7,275.5 251.7,275.6 251.7,275.6 251.7,275.7 251.7,275.8 251.7,275.8 251.7,275.9 251.7,276.1"/>
    <polyline points="251.1,282.5 251.2,282.8 251.2,282.8 251.2,282.9 251.2,283.0 251.2,283.0 251.3,283.1 251.3,283.2 251.3,283.2 251.4,283.3 251.5,283.5 251.6,283.6 251.7,283.7 251.7,283.7 251.8,283.8 251.9,283.9 251.9,284.0 252.0,284.0 252.0,284.2 252.0,284.2 252.1,284.3 252.2,284.7 252.2,284.8 252.2,284.9 252.2,284.9 252.3,285.4 252.3,285.6 252.3,285.7"/>
    <polyline points="223.7,266.3 223.6,266.1 223.4,266.0 223.3,266.0 223.1,265.9 222.9,265.9 222.8,265.9 222.6,266.0 222.5,266.0"/>
    <polyline points="251.3,281.4 251.3,281.4 251.2,281.1 251.2,280.9 251.2,280.8 251.2,280.7 251.2,280.7 251.2,280.6 251.2,280.4 251.2,280.1 251.2,280.0 251.2,279.9 251.2,279.9 251.2,279.8 251.2,279.7"/>
    <polyline points="251.8,283.8 251.7,283.7 251.6,283.5 251.5,283.4 251.4,283.3 251.4,283.2 251.4,283.2 251.3,283.1 251.3,283.1 251.3,283.0 251.3,283.0 251.3,282.9 251.2,282.8 251.2,282.7 251.2,282.5"/>
    <polyline points="251.5,283.4 251.4,283.3 251.4,283.2 251.4,283.1 251.3,283.0 251.3,283.0 251.3,282.8 251.3,282.7 251.2,282.5"/>
    <polyline points="223.3,265.5 223.2,265.2 223.1,265.0 223.1,264.7 223.1,264.5 223.1,264.2 223.1,264.0 223.2,263.7 223.2,263.6 223.4,262.9 223.5,262.8 223.5,262.6 223.6,262.3 223.6,262.1 223.5,254.7 223.5,245.7 223.5,244.6 223.5,238.8 223.5,238.6 223.5,237.4 223.5,236.7 223.5,236.5 223.5,236.4 223.5,236.3 223.4,236.2 223.4,236.1 223.3,236.0 223.3,235.9 223.2,235.9 223.1,235.8 223.1,235.8 222.9,235.8 222.8,235.8 216.3,235.8 215.5,235.8 207.9,235.9 203.0,235.9 201.0,236.0 199.4,236.0 199.0,235.9 198.7,235.9 198.5,235.8 198.2,235.6 198.0,235.4 197.8,235.2 197.6,234.9 197.4,234.6 197.3,234.2 190.1,211.3 190.0,210.9 190.0,210.4 190.0,209.9 190.2,209.4 191.2,206.2 191.5,205.2 191.6,205.0 191.6,204.9 191.7,204.7 191.7,204.6 191.7,204.4 191.7,204.2 191.7,204.0 191.6,203.7 191.3,202.6 191.1,202.1 190.5,200.4 189.9,198.7 189.0,196.0 185.2,185.3 184.5,183.4 184.2,182.3 183.8,181.3"/>
    <polyline points="251.3,280.8 251.2,280.6 251.2,280.5 251.2,280.4 251.3,280.1 251.3,279.9 251.3,279.7 251.3,279.7 251.3,279.4 251.3,279.3 251.3,279.2 251.3,279.0 251.3,278.6 251.3,278.6 251.3,278.5 251.3,278.2 251.3,278.1 251.3,278.0 251.4,277.5"/>
    <polyline points="251.3,279.7 251.3,279.5 251.3,279.4 251.3,279.3"/>
    <polyline points="252.0,284.0 251.9,283.9 251.9,283.8 251.8,283.6 251.8,283.6 251.7,283.5 251.6,283.4 251.6,283.3 251.5,283.2 251.5,283.1 251.5,283.0 251.4,282.9 251.4,282.8 251.4,282.7 251.4,282.7 251.4,282.6"/>
    <polyline points="252.3,285.4 252.3,285.3 252.3,285.2 252.3,285.0"/>
    <polyline points="250.9,279.4 250.9,278.5"/>
    <polyline points="251.9,283.5 251.9,283.4 251.8,283.3 251.8,283.2 251.8,283.2 251.8,283.1 251.7,282.0 251.5,281.0 251.4,280.0 251.4,279.9 251.4,279.8 251.4,279.8 251.4,279.5 251.4,279.2 251.3,279.0 251.3,278.9 251.3,278.5"/>
    <polyline points="251.3,278.9 251.3,278.7 251.3,278.5 251.3,278.3 251.4,278.1 251.4,278.0 251.4,277.9 251.4,277.9 251.5,277.4 251.5,277.2 251.6,276.9 251.6,276.7 251.6,276.6 251.6,276.5 251.6,276.4 251.7,276.1"/>
    <polyline points="251.2,278.0 251.2,278.1 251.2,278.2 251.2,278.3 251.2,278.4 251.2,278.5"/>
    <polyline points="251.7,276.1 251.7,276.2 251.6,276.4"/>
    <polyline points="251.6,276.9 251.5,277.1 251.5,277.2"/>
    <polyline points="252.0,283.5 252.0,283.3 251.9,283.2 251.9,283.1 251.9,283.0 251.8,282.0"/>
    <polyline points="251.7,276.1 251.7,276.2 251.6,276.4"/>
    <polyline points="250.9,279.9 250.9,279.4 250.9,279.3 251.0,279.2 251.0,278.8 251.0,278.7 251.0,278.6 251.0,278.6 251.0,278.5 251.1,278.4 251.1,278.3 251.2,278.1"/>
    <polyline points="251.3,279.0 251.3,279.3 251.4,279.7 251.4,279.8 251.4,279.8 251.4,279.9 251.4,279.9 251.5,281.0 251.7,282.0 251.8,283.1 251.8,283.2 251.8,283.3 251.9,283.4 251.9,283.5"/>
    <polyline points="251.4,279.5 251.4,279.6 251.4,279.9 251.6,281.0 251.7,282.0 251.9,283.2 251.9,283.2 251.9,283.3 251.9,283.5 252.0,283.7 252.0,284.0 252.0,284.0 252.1,284.1 252.1,284.2 252.1,284.2 252.1,284.4"/>
    <polyline points="251.5,277.2 251.5,277.3 251.4,277.3 251.4,277.4 251.4,277.5 251.4,277.6 251.3,277.7 251.2,278.1 251.1,278.3 251.0,278.4 251.0,278.5 251.0,278.6 251.0,278.7 251.0,278.7 251.0,278.8 251.0,279.1 251.0,279.2"/>
    <polyline points="251.4,279.2 251.4,279.4 251.4,279.6 251.4,279.9 251.6,281.0 251.7,282.0 251.9,283.0 251.9,283.1 251.9,283.2 251.9,283.3 251.9,283.4 252.0,283.5 252.0,283.7 252.0,283.8"/>
    <polyline points="251.6,276.9 251.5,277.1 251.5,277.2"/>
    <polyline points="252.0,283.7 251.9,283.6 251.9,283.5 251.8,283.4 251.8,283.3 251.8,283.2 251.8,283.1 251.7,282.9 251.6,282.1 251.5,281.0 251.3,279.9 251.3,279.8 251.3,279.8 251.3,279.7 251.3,279.6 251.3,279.5 251.3,279.3"/>
    <polyline points="251.3,277.7 251.2,278.0 251.2,278.2 251.1,278.3 251.1,278.4 251.1,278.4 251.1,278.5"/>
    <polyline points="252.5,286.8 252.4,286.1 252.4,285.9 252.4,285.7 252.3,285.6 252.3,285.4 252.3,285.0 252.2,284.9 252.2,284.9 252.2,284.8 252.2,284.7 252.1,284.3 252.1,284.2 252.0,284.2 252.0,284.1 252.0,284.0 251.9,283.7 251.8,283.5 251.7,283.3 251.7,283.3 251.7,283.2 251.7,283.1 251.6,282.9 251.5,282.7 251.5,282.6 251.5,282.5 251.5,282.3 251.4,281.3 251.3,280.7 251.3,280.6 251.3,280.5 251.3,280.4 251.3,280.1"/>
    <polyline points="252.2,284.7 252.1,284.5 252.1,284.4 252.1,284.2 252.0,283.8 252.0,283.5 251.9,283.3 251.9,283.2 251.8,282.0 251.6,281.0 251.5,279.9 251.4,279.6 251.4,279.4 251.4,279.4 251.4,279.3 251.4,279.2 251.3,279.0"/>
    <polyline points="251.1,280.5 251.1,280.6 251.1,280.7 251.1,280.7 251.1,280.8 251.1,280.9 251.1,281.0 251.2,281.3"/>
    <polyline points="252.1,284.1 252.0,284.0 252.0,283.9 251.8,283.6 251.8,283.4 251.8,283.3 251.7,283.3 251.7,283.1 251.7,283.0 251.6,282.1 251.4,281.0 251.3,280.2 251.3,280.0 251.3,279.9 251.3,279.9 251.3,279.8 251.3,279.7 251.3,279.6 251.3,279.5 251.3,279.3 251.3,279.0 251.3,278.9 251.3,278.5 251.3,278.4 251.3,278.2"/>
    <polyline points="251.3,278.3 251.4,278.2 251.4,277.9 251.4,277.8 251.5,277.4 251.5,277.2 251.6,276.9 251.6,276.8 251.6,276.7 251.7,276.5 251.7,276.2 251.7,276.1 251.7,276.1 251.8,276.0 251.8,276.0 251.8,275.8 251.9,275.7"/>
    <polyline points="251.3,279.7 251.3,279.9 251.3,280.0 251.3,280.1 251.3,280.2 251.3,280.3 251.3,280.6 251.4,281.0 251.5,282.1 251.6,282.5 251.6,282.6 251.6,282.6 251.6,282.7 251.6,282.8 251.6,282.9 251.6,282.9 251.6,283.0 251.7,283.1"/>
    <polyline points="251.4,282.6 251.4,282.7 251.4,282.8 251.4,282.9 251.4,282.9 251.4,283.0 251.4,283.1 251.5,283.1 251.5,283.2 251.5,283.3 251.6,283.3 251.6,283.4 251.8,283.6 251.8,283.7 251.9,283.8"/>
    <polyline points="251.8,283.6 251.8,283.4 251.8,283.4 251.8,283.3 251.8,283.3 251.7,283.1 251.7,282.9 251.6,282.1 251.5,281.0 251.3,279.9 251.3,279.8 251.3,279.8 251.3,279.7 251.3,279.6"/>
    <polyline points="251.3,278.5 251.3,278.7 251.3,278.9"/>
    <polyline points="241.2,278.8 241.2,278.8 241.3,278.6 241.5,278.5 241.6,278.3 242.5,276.6 244.7,272.5 245.0,272.0"/>
    <polyline points="238.3,277.2 238.1,277.1 238.0,277.0 237.3,276.6 236.8,276.4 236.3,276.1 235.8,275.8 235.4,275.4 232.7,273.3 232.7,273.3 232.6,273.3 232.4,273.1 232.2,272.9 230.8,271.0 230.1,270.1 229.1,269.1 228.9,268.9 228.7,268.7 227.2,267.5 227.0,267.4 227.0,267.4 226.8,267.4 226.7,267.3 225.3,267.3"/>
    <polyline points="245.0,271.9 244.3,273.2 242.0,277.3 241.6,278.1 241.5,278.3 241.3,278.5 241.2,278.7 241.0,278.8 240.9,278.9 240.7,278.9 240.6,279.0 240.5,279.0 240.3,279.0 240.2,279.0 240.0,278.9 239.8,278.8 239.6,278.7 239.5,278.6 239.4,278.5"/>
    <polyline points="245.0,272.0 245.1,271.7 245.3,271.5 245.5,271.3 245.7,271.0 246.0,270.9 246.2,270.7 246.4,270.6 246.7,270.5 246.9,270.4 247.7,270.2 247.9,270.2 248.1,270.2 248.3,270.2 248.5,270.3 248.6,270.3 248.7,270.4 248.8,270.5 248.9,270.7 249.0,270.8 249.2,271.1 249.3,271.3 250.0,272.5 250.3,273.0 250.4,273.1 250.7,273.8 250.9,274.1 251.5,274.9 251.6,275.0 251.6,275.2 251.7,275.3"/>
    <polyline points="251.7,275.3 251.7,275.2 251.6,275.0 251.5,274.9 250.9,274.0 250.8,273.8 250.4,273.0 250.4,272.9 249.6,271.7 249.4,271.3 249.2,271.1 249.1,270.7 248.9,270.6 248.7,270.4 248.7,270.3 248.6,270.3 248.5,270.2 248.3,270.1 248.1,270.1 247.9,270.1 247.7,270.2 246.9,270.3 246.6,270.4 246.4,270.5 246.2,270.6 246.0,270.7 245.7,271.0 245.6,271.1 245.3,271.4 245.2,271.5 245.1,271.6 245.0,271.9"/>
    <polyline points="252.2,284.7 252.1,284.3"/>
    <polyline points="225.3,267.3 225.1,267.3 224.9,267.3 224.7,267.2 224.5,267.0 223.8,266.3 223.7,266.3"/>
    <polyline points="222.5,266.0 222.4,266.1 221.1,267.1 220.9,267.2 220.7,267.3 220.6,267.3 220.4,267.4 218.9,267.4 215.6,267.4 214.6,267.4"/>
    <polyline points="223.7,266.3 223.6,266.1 223.4,265.9 223.3,265.7 223.3,265.5"/>
    <polyline points="183.8,181.3 184.5,183.3 185.2,185.3 188.9,196.0 189.9,198.7 190.5,200.4 191.1,202.1 191.1,202.3 191.2,202.4 191.2,202.6 191.3,202.8 191.6,203.8 191.6,204.0 191.6,204.1 191.6,204.5 191.6,204.7 191.6,204.8 191.2,206.2 191.1,206.5 190.6,207.8 190.1,209.4 190.0,209.9 190.0,210.4 190.0,210.9 190.1,211.3 197.3,234.2 197.4,234.6 197.5,234.9 197.7,235.2 198.0,235.5 198.2,235.7 198.4,235.8 198.7,235.9 199.0,236.0 199.4,236.0 201.0,236.0 201.8,236.0 203.0,236.0 208.7,235.9 215.5,235.9 216.3,235.8 222.8,235.8 222.9,235.8 223.1,235.9 223.2,235.9 223.2,236.0 223.3,236.1 223.4,236.2 223.4,236.3 223.4,236.4 223.5,236.5 223.5,236.7 223.5,237.4 223.5,238.6 223.5,238.9 223.5,244.6 223.5,245.7 223.5,250.0 223.5,252.0 223.5,254.7 223.5,255.8 223.5,262.0 223.5,262.3 223.5,262.6 223.4,262.8 223.4,262.9 223.2,263.7 223.1,263.8 223.1,264.0 223.1,264.3 223.0,264.5 223.1,264.8 223.1,265.0 223.2,265.3 223.2,265.5"/>
    <polyline points="225.3,267.4 226.5,267.4 226.7,267.4 226.9,267.4 227.0,267.5 227.0,267.5 227.2,267.6 228.7,268.7 228.9,268.9 229.1,269.2 230.0,270.2 231.2,271.7 232.2,273.0 232.4,273.2 232.6,273.4 232.7,273.4 235.4,275.5 235.8,275.8 236.3,276.2 236.8,276.5 237.3,276.7 238.0,277.1 238.1,277.2 238.2,277.3"/>
    <polyline points="214.6,267.5 216.4,267.5 218.8,267.4 219.7,267.4 220.4,267.4 220.6,267.4 220.8,267.4 220.9,267.3 221.1,267.2 222.5,266.1"/>
    <polyline points="251.7,276.1 251.7,276.0 251.7,275.9 251.7,275.8 251.7,275.6 251.7,275.5 251.7,275.4 251.7,275.3 251.7,275.3"/>
    <polyline points="251.7,276.1 251.6,276.4 251.6,276.8 251.5,277.2 251.4,277.4 251.4,277.5"/>
    <polyline points="251.0,281.7 251.1,282.5"/>
    <polyline points="251.2,282.5 251.1,281.7"/>
    <polyline points="251.2,282.5 251.1,281.7"/>
    <polyline points="251.2,281.4 251.4,282.6"/>
    <polyline points="251.4,282.6 251.2,281.4"/>
    <polyline points="251.4,282.6 251.3,281.4"/>
    <polyline points="251.3,281.4 251.4,281.9"/>
    <polyline points="251.2,280.1 251.2,280.4 251.2,280.5 251.2,280.6 251.3,280.8 251.3,281.4 251.3,281.4"/>
    <polyline points="251.9,283.7 251.8,283.6 251.8,283.5 251.6,283.3 251.6,283.3 251.6,283.2 251.5,283.1 251.5,283.1 251.5,283.0 251.5,282.9 251.5,282.8 251.4,282.7 251.4,282.6"/>
    <polyline points="251.2,281.4 251.2,281.4 251.2,281.0 251.2,280.9 251.2,280.8 251.2,280.7 251.2,280.6"/>
    <polyline points="251.2,280.1 251.2,280.2 251.2,280.3 251.2,280.6 251.1,280.7 251.1,280.8 251.1,280.9 251.1,281.0 251.2,281.1 251.2,281.4 251.2,281.4"/>
    <polyline points="251.1,281.7 251.1,281.5 251.1,281.4 251.1,281.3 251.1,281.2 251.1,281.1 251.1,280.9 251.1,280.7"/>
    <polyline points="251.1,281.7 251.1,281.4 251.1,281.4 251.0,281.3 251.0,281.3 251.0,281.2 251.1,281.0"/>
    <polyline points="251.3,279.0 251.3,279.4 251.3,279.5 251.2,279.7 251.2,279.9 251.2,280.1 251.2,280.2 251.1,280.3 251.1,280.5 251.1,280.7 251.1,281.0 251.0,281.2 251.0,281.3 251.0,281.4 251.0,281.4 251.0,281.5 251.0,281.5 251.0,281.6 251.0,281.7"/>
    <polyline points="251.1,278.5 251.1,279.1"/>
    <polyline points="251.2,278.5 251.2,279.0"/>
    <polyline points="251.4,279.4 251.4,279.3 251.4,279.1 251.4,278.7 251.4,278.6 251.4,278.5 251.4,278.1 251.4,277.9"/>
    <polyline points="251.4,281.9 251.4,282.3 251.5,282.4 251.5,282.5 251.5,282.6 251.5,282.7 251.6,282.8 251.6,282.9"/>
    <polyline points="252.0,283.5 251.9,283.3 251.9,283.2 251.8,282.0 251.6,281.0 251.5,279.9 251.5,279.9 251.5,279.8 251.5,279.8 251.5,279.7 251.4,279.6"/>
    <polyline points="251.4,279.4 251.4,279.6 251.5,279.6 251.5,279.7 251.5,279.7 251.5,279.8 251.5,279.8 251.5,279.9 251.5,280.0 251.7,280.9 251.8,282.0"/>
    <polyline points="252.3,285.7 252.4,285.9"/>
    <polyline points="252.4,285.9 252.4,286.2 252.5,286.8"/>
    <polyline points="223.2,265.5 223.3,265.6 223.3,265.7 223.4,265.9 223.6,266.1 223.7,266.3"/>
    <polyline points="222.5,266.1 222.6,266.0 222.8,266.0 222.9,266.0 223.1,266.0 223.3,266.0 223.4,266.1 223.6,266.1 223.7,266.3"/>
    <polyline points="223.7,266.3 224.3,266.9 224.5,267.1 224.6,267.2 224.8,267.3 225.0,267.3 225.1,267.4 225.3,267.4"/>
    <polyline points="239.4,278.5 238.4,277.4 238.3,277.2"/>
    <polyline points="238.2,277.3 238.9,278.1 239.4,278.6"/>
    <polyline points="249.2,271.1 249.3,271.2 249.3,271.3"/>
    <polyline points="249.2,271.1 249.3,271.2 249.4,271.3"/>
    <polyline points="239.4,278.6 239.5,278.7 239.7,278.9 239.8,279.0 240.0,279.0 240.2,279.1 240.3,279.1 240.5,279.1 240.7,279.1 240.7,279.1 240.9,279.0 241.0,278.9 241.2,278.8"/>
  </g>

  <!-- 지하철 역 -->
  <g>
    <circle cx="242.2" cy="277.0" r="3" fill="#dc2626" stroke="#fff" stroke-width="1"/>
    <circle cx="249.7" cy="271.9" r="3" fill="#dc2626" stroke="#fff" stroke-width="1"/>
    <circle cx="244.5" cy="272.8" r="3" fill="#dc2626" stroke="#fff" stroke-width="1"/>
    <circle cx="224.0" cy="266.7" r="3" fill="#dc2626" stroke="#fff" stroke-width="1"/>
    <circle cx="219.3" cy="267.7" r="3" fill="#dc2626" stroke="#fff" stroke-width="1"/>
    <circle cx="223.6" cy="238.5" r="3" fill="#dc2626" stroke="#fff" stroke-width="1"/>
    <circle cx="215.5" cy="236.0" r="3" fill="#dc2626" stroke="#fff" stroke-width="1"/>
    <circle cx="223.4" cy="255.7" r="3" fill="#dc2626" stroke="#fff" stroke-width="1"/>
    <circle cx="215.6" cy="267.1" r="3" fill="#dc2626" stroke="#fff" stroke-width="1"/>
    <circle cx="231.0" cy="271.4" r="3" fill="#dc2626" stroke="#fff" stroke-width="1"/>
    <circle cx="207.9" cy="236.1" r="3" fill="#dc2626" stroke="#fff" stroke-width="1"/>
    <circle cx="191.0" cy="206.1" r="3" fill="#dc2626" stroke="#fff" stroke-width="1"/>
    <circle cx="201.7" cy="235.9" r="3" fill="#dc2626" stroke="#fff" stroke-width="1"/>
    <circle cx="223.4" cy="244.6" r="3" fill="#dc2626" stroke="#fff" stroke-width="1"/>
    <circle cx="184.5" cy="182.8" r="3" fill="#dc2626" stroke="#fff" stroke-width="1"/>
  </g>
</svg>