<?xml version="1.0" encoding="UTF-8"?>
<svg width="800" height="600" xmlns="http://www.w3.org/2000/svg">
  <title>Lyon Subway Map</title>
  <rect width="100%" height="100%" fill="#f8f9fa"/>

  <!-- 지하철 선로 -->
  <g stroke="#2563eb" stroke-width="2" fill="none" opacity="0.8">
    <polyline points="305.7,76.8 306.4,76.0 307.0,75.3 307.8,74.6 308.8,73.8 310.4,72.6 313.4,70.3"/>
    <polyline points="331.5,56.0 334.8,53.2 335.3,52.8 335.8,52.4 336.4,51.6 336.7,51.3 337.2,50.8 337.9,50.2 341.4,47.3"/>
    <polyline points="313.4,70.3 316.1,68.2"/>
    <polyline points="305.4,76.0 304.1,77.0 303.0,77.9 302.0,78.9"/>
    <polyline points="303.4,78.6 303.8,77.9 304.3,77.2 304.8,76.6 305.4,76.0 307.8,73.9 310.0,72.2 311.8,70.8 311.8,70.8 313.3,69.7"/>
    <polyline points="313.4,69.6 315.3,68.6 316.0,68.1"/>
    <polyline points="304.6,74.6 304.0,75.0 303.6,75.3 303.4,75.5 303.0,75.7 302.5,76.1 301.9,76.6 300.2,78.0"/>
    <polyline points="313.3,69.7 311.7,70.6 311.6,70.6 304.9,74.4"/>
    <polyline points="304.9,74.4 304.3,74.7 303.8,74.9 303.4,75.1 302.7,75.4"/>
    <polyline points="302.7,75.4 301.9,75.9 301.5,76.2 301.0,76.6 299.7,77.6"/>
    <polyline points="319.3,65.8 322.1,63.7 324.6,61.7 330.0,57.3"/>
    <polyline points="304.6,74.6 304.1,75.1 303.8,75.4 303.5,75.6 303.2,75.9 302.9,76.3 302.3,76.9 301.9,77.3 301.2,77.9 300.7,78.3"/>
    <polyline points="313.3,69.7 313.4,69.6"/>
    <polyline points="304.9,74.4 304.6,74.6"/>
    <polyline points="302.7,75.4 301.8,75.8 301.2,76.0 300.6,76.3 299.7,76.8 299.1,77.2"/>
    <polyline points="282.4,364.4 286.5,359.2 290.9,354.1 292.2,352.7"/>
    <polyline points="368.4,192.8 367.5,188.6 367.3,187.5"/>
    <polyline points="585.6,173.6 584.1,174.2 581.4,175.3 579.7,176.0 578.1,176.8 571.1,180.5 558.0,187.9"/>
    <polyline points="558.0,187.9 556.6,189.1 555.2,190.0 554.1,190.8 553.1,193.0 554.1,201.5 555.7,212.8 556.0,222.3 556.2,231.6 556.1,235.6 555.8,238.1 555.2,240.1 554.1,241.9 552.4,243.8 550.1,245.5 547.8,246.6 544.8,247.5 544.1,247.6 541.8,248.0 538.8,248.3 528.3,249.2 525.5,249.5 501.7,251.7 492.5,252.6 488.3,253.3 481.8,254.7 478.6,255.5 475.4,256.5 472.1,257.9 469.4,259.6 465.7,262.5 464.8,263.3"/>
    <polyline points="116.1,755.6 113.4,751.1 110.9,747.9 110.0,746.1 108.6,739.8 105.3,725.9 104.1,719.3 104.2,712.7 102.4,701.2 100.0,685.3 99.8,682.6 99.3,678.2 99.2,675.1 100.0,668.3 102.3,665.0 106.6,661.7 110.9,658.4 115.6,654.4 119.9,650.8 123.6,648.7 129.7,645.4 146.2,635.4 152.4,632.1 155.7,631.3 158.2,631.1 160.6,631.0 162.5,630.8 165.5,630.6 182.5,630.0 197.4,628.8 214.1,627.2 218.3,626.8 221.6,626.1 224.7,625.4 227.9,624.4 231.0,623.2 234.8,621.3 262.8,604.2 308.6,574.8 311.0,572.5 316.0,563.3 317.4,560.6 319.4,556.8 327.0,543.6 345.7,510.8"/>
    <polyline points="781.6,739.8 781.7,724.0 781.6,717.0 781.2,713.1 781.1,713.0 779.3,708.0 776.0,701.0 775.5,697.4 779.0,681.1 780.0,677.6 782.2,667.1 783.0,654.2 782.2,641.7 780.8,623.2 780.2,613.3 779.8,609.3 778.0,605.0 773.1,592.7 772.0,589.6 771.8,586.8 772.0,583.7 772.9,580.7 774.0,578.1 775.2,575.2 775.6,572.6 773.6,549.6 772.9,541.1 772.8,539.8 771.5,524.8 771.4,524.0 771.4,519.9 772.0,517.4 773.6,514.3 775.1,512.4 776.0,511.3 778.6,507.8 778.9,507.3 779.8,506.0 780.0,505.7 780.3,505.3 782.8,501.3 787.6,490.0 792.9,478.8 793.7,475.7 793.4,471.4 792.2,468.0 790.0,465.2 786.6,462.3 781.5,457.7 770.3,445.3 761.9,436.0 759.5,432.2 757.6,428.7 753.5,422.7 750.4,419.8 746.0,417.1 739.3,414.3 726.0,412.0 717.7,410.0 713.0,408.1 712.0,407.9 710.4,407.7 708.6,407.1 706.8,406.4 705.9,405.6 705.0,405.2 649.4,384.7 600.7,367.3 569.4,355.9 507.1,333.1 486.6,325.3 464.7,317.0"/>
    <polyline points="134.7,68.4 117.9,87.6 109.9,96.6 108.2,99.5 107.1,102.7 106.8,106.1 107.7,109.2 108.9,111.4 110.6,113.2 113.7,115.9 117.1,118.5 119.9,120.6 122.1,122.5 123.4,124.0 124.7,126.8 125.2,128.7 125.5,130.5 125.4,135.4 125.4,136.8 125.3,138.2 125.3,139.7 125.3,141.1 125.2,143.1 124.9,147.9 125.0,151.1 125.3,159.1 125.6,166.3 125.7,170.4 126.3,183.7 126.4,185.8 126.1,188.0 125.0,192.3 124.6,195.1 124.7,198.8 125.0,201.9 125.6,207.3 125.9,209.9 126.2,211.5 126.9,213.4 127.9,214.9 129.1,216.4 130.7,217.7 132.2,218.6 135.9,219.9 194.0,237.9 221.1,246.1 237.3,250.7 246.2,253.0 255.2,254.8 256.5,255.0 271.6,257.6 285.6,259.8 288.4,260.2 297.9,261.6 301.9,262.0 305.8,262.5 309.2,263.0 312.3,263.8 315.4,264.8 317.8,265.8 320.2,267.0 322.4,268.2 324.4,269.5 325.5,270.2 328.5,272.1 339.6,279.2 340.9,280.1 342.2,281.2 345.4,284.3"/>
    <polyline points="346.0,510.8 327.3,543.7 319.6,556.9 317.6,560.7 316.4,563.4 314.5,566.8 311.3,572.7 308.7,575.0 284.4,590.8 263.0,604.4 234.9,621.5 231.1,623.4 228.0,624.6 224.7,625.6 221.7,626.3 218.3,627.0 214.1,627.4 197.4,629.0 182.7,630.3 165.7,630.8 162.5,631.1 160.6,631.2 155.9,631.4 152.5,632.2 146.4,635.6 133.8,643.1 128.8,646.1 123.7,648.9 120.0,650.9 109.7,659.6 103.9,664.0 102.5,665.1 100.2,668.4 99.4,675.2 99.4,678.2 100.1,683.3 100.3,685.5 102.7,701.4 103.1,704.4 103.7,708.1 104.4,712.7 104.3,719.3 105.1,723.6 105.4,725.6 106.6,730.2 108.8,739.0 110.3,746.0 111.3,747.8 113.7,750.9 116.5,755.6"/>
    <polyline points="350.2,503.4 348.1,507.1 346.0,510.8"/>
    <polyline points="345.7,510.8 347.8,507.0 349.9,503.3"/>
    <polyline points="349.9,503.3 365.7,475.0 366.3,473.9 378.5,452.0 381.3,447.1 382.7,444.7 383.0,444.3 383.2,443.9 383.6,443.2 383.8,442.7 384.1,442.2 390.1,431.2 390.8,429.9 394.0,424.2 397.9,417.3 418.2,381.1 430.5,358.9 435.5,349.7 437.5,346.1 450.3,322.8"/>
    <polyline points="368.5,203.4 367.9,215.5 366.8,233.8 366.2,249.4 365.7,257.6 364.0,262.9 355.7,276.9 354.5,278.3 352.7,279.5 351.4,280.2"/>
    <polyline points="369.6,193.4 369.9,192.9 371.2,191.4 371.9,190.9 372.7,190.5 374.8,189.9 377.1,189.4 379.3,189.0 382.2,188.7 387.0,188.7"/>
    <polyline points="368.2,203.4 368.3,200.3 368.4,198.1 368.7,195.8 369.3,194.2 369.6,193.4"/>
    <polyline points="369.9,193.6 369.7,194.3 369.1,195.9 368.7,198.1 368.6,200.3 368.5,203.4"/>
    <polyline points="337.9,138.6 335.3,139.0 333.3,139.2"/>
    <polyline points="351.3,280.0 352.5,279.3 354.1,278.1 355.3,276.8 363.7,262.8 365.4,257.5 365.9,249.3 366.5,233.8 367.6,215.5 368.2,203.4"/>
    <polyline points="336.2,286.0 335.5,286.4 334.5,287.2 333.4,288.3 332.5,289.6 331.5,291.1 329.0,295.4 328.8,295.7 316.0,317.5"/>
    <polyline points="336.5,285.4 338.9,284.3 341.9,283.2 345.2,282.2 347.3,281.5 349.6,280.7 351.3,280.0"/>
    <polyline points="351.4,280.2 349.9,280.9 347.5,281.7 345.3,282.4 342.1,283.4 339.0,284.6 336.6,285.7 336.2,286.0"/>
    <polyline points="353.1,293.3 351.2,291.9 346.5,287.1 342.7,283.2"/>
    <polyline points="342.7,283.2 341.2,281.8 340.0,280.8 338.6,279.8 333.1,276.4 327.7,273.0 320.7,268.5 317.9,267.0 314.7,265.6 310.6,264.3 308.2,263.8 304.3,263.1 301.6,262.7 297.7,262.0 288.3,260.5 285.6,260.1 256.4,255.3 246.1,253.2 221.1,246.3 193.9,238.0 135.8,220.1 132.1,218.8 130.5,217.8 128.9,216.5 127.7,215.0 126.6,213.4 125.9,211.5 125.5,210.0 125.3,207.3 124.7,201.9 124.3,198.9 124.1,195.1 124.6,192.4 125.7,188.0 126.0,185.8 126.0,183.7 125.4,170.4 124.8,166.1 124.0,159.1 123.8,151.2 123.8,147.9 124.2,143.1 124.1,141.3 124.1,139.6 124.1,138.0 124.1,136.8 124.1,134.8 124.0,130.5 123.6,128.9 123.1,127.0 122.1,124.6 121.1,123.3 119.1,121.5 115.8,119.2 112.6,116.7 109.4,113.8 107.8,111.8 106.4,109.4 105.3,105.9 105.8,102.8 107.1,99.4 109.2,96.7 117.6,87.4 134.3,68.1"/>
    <polyline points="345.4,284.3 347.6,286.5 352.5,291.3 353.6,292.3 354.1,292.6"/>
    <polyline points="354.1,292.6 354.9,293.2 356.8,294.3 358.9,295.4 362.5,296.6 365.1,297.2 367.6,297.6 370.2,297.8 373.3,297.8 375.6,297.6 385.1,296.3 389.5,295.7 395.2,294.8 397.7,294.7 399.6,294.7 401.7,294.8 404.2,295.1 406.4,295.6 408.5,296.1 410.6,296.8 411.8,297.3 419.1,299.9"/>
    <polyline points="312.1,323.5 313.8,320.7 314.4,319.6 315.7,317.4"/>
    <polyline points="316.0,317.5 314.1,320.8 312.5,323.5"/>
    <polyline points="315.7,317.4 331.2,291.0 332.1,289.5 333.0,288.2 334.2,287.0 335.3,286.2 336.5,285.4"/>
    <polyline points="312.5,323.5 311.1,326.0 308.0,331.0 302.0,341.2 300.2,343.9 298.1,346.5 295.1,349.9 292.4,352.9"/>
    <polyline points="418.9,300.2 411.6,297.5 410.5,297.1 408.5,296.6 406.4,296.2 404.0,295.8 402.1,295.6 399.9,295.6 397.6,295.7 394.2,296.2 386.2,297.2 378.4,298.3 375.4,298.6 372.7,298.9 370.6,298.9 368.0,298.8 365.8,298.5 363.5,298.0 361.3,297.4 358.9,296.5 356.9,295.6 354.7,294.4 353.1,293.3"/>
    <polyline points="426.5,303.0 422.4,301.5 418.9,300.2"/>
    <polyline points="419.1,299.9 422.6,301.2 423.3,301.5 426.6,302.7"/>
    <polyline points="426.6,302.7 453.6,312.6"/>
    <polyline points="450.9,323.0 446.5,330.9 438.2,345.5 437.8,346.2 437.4,346.6 435.7,349.9 435.0,351.2 430.7,359.0 429.9,360.1 419.0,380.2 418.7,380.5 398.1,417.4 391.0,430.1 390.3,431.3 381.5,447.3 378.8,452.0 366.6,474.1 366.0,475.1 350.2,503.4"/>
    <polyline points="455.0,311.9 454.9,311.6 454.4,308.3 451.6,294.0 450.7,290.5 449.6,286.8 448.8,283.4 448.7,281.7 449.0,279.6 449.6,277.7 450.8,275.6 452.4,273.8 454.3,272.1 456.1,270.5"/>
    <polyline points="455.6,312.0 455.7,312.6 455.5,314.2 455.0,315.5 453.2,318.8 450.9,323.0"/>
    <polyline points="450.3,322.8 452.6,318.6 454.4,315.3 454.7,314.7 454.9,314.1 455.0,313.2 455.0,311.9"/>
    <polyline points="453.6,312.6 455.9,313.4 465.0,316.8"/>
    <polyline points="453.5,312.9 426.5,303.0"/>
    <polyline points="464.7,317.0 455.7,313.7 453.5,312.9"/>
    <polyline points="465.0,316.8 507.3,332.9 600.8,367.1 638.2,380.5 649.6,384.6 705.1,405.0 706.2,405.3 707.5,405.3 709.3,406.0 711.1,406.6 712.2,407.4 713.1,408.0 717.8,409.8 726.1,411.8 739.4,414.1 746.2,416.9 750.7,419.7 753.8,422.5 757.9,428.7 759.8,432.1 762.2,435.9 770.5,445.2 781.8,457.5 786.9,462.1 790.3,465.1 792.5,468.0 793.7,471.3 793.9,473.8 794.0,475.8 793.2,478.9 787.9,490.1 783.1,501.3 780.6,505.4 780.1,506.2 779.2,507.5 778.9,507.9 778.0,509.0 777.9,509.2 776.3,511.4 775.4,512.5 773.9,514.4 772.3,517.5 771.7,519.9 771.7,524.0 775.9,572.6 775.5,575.3 774.2,578.2 773.2,580.8 772.3,583.7 772.1,586.8 772.3,589.5 773.4,592.7 778.3,604.9 780.1,609.2 780.5,613.2 781.1,623.2 782.5,641.7 783.3,654.2 782.5,667.1 780.3,677.6 775.8,697.4 776.3,701.0 779.6,707.9 781.5,712.9 781.9,717.0 782.0,724.0 781.9,739.8"/>
    <polyline points="456.4,270.7 454.7,272.3 452.9,274.0 451.2,275.7 450.0,277.9 449.4,279.7 449.2,281.7 449.3,283.4 450.0,286.7 451.1,290.4 452.0,294.1 454.9,308.3 455.4,311.0 455.6,312.0"/>
    <polyline points="464.8,263.3 458.8,268.8 456.4,270.7"/>
    <polyline points="456.1,270.5 458.5,268.5 464.4,263.1"/>
    <polyline points="464.4,263.1 465.3,262.3 469.0,259.3 471.7,257.7 474.0,256.7 475.2,256.2 478.4,255.3 481.7,254.4 488.1,253.0 492.5,252.3 501.6,251.4 528.3,248.9 538.7,247.9 541.7,247.7 544.1,247.3 544.7,247.2 547.7,246.3 550.0,245.2 552.1,243.6 553.8,241.8 554.9,240.0 555.1,239.3 555.4,238.1 555.8,235.6 555.9,231.6 555.7,222.2 555.4,212.8 553.8,201.6 552.8,192.9 553.9,190.7 555.0,189.8 556.5,188.9 558.0,187.9"/>
    <polyline points="330.0,57.3 331.5,56.0"/>
    <polyline points="316.1,68.2 317.8,67.0 319.3,65.8"/>
    <polyline points="316.0,68.1 317.8,67.0"/>
    <polyline points="366.9,185.3 366.5,181.7 367.0,179.3 370.5,173.7 371.0,172.5 370.8,170.5 370.2,169.5"/>
    <polyline points="446.5,330.9 447.6,329.7 448.6,329.0 450.0,328.5 451.9,328.3 453.5,328.2 454.7,328.2 481.5,324.9 483.2,324.8 484.8,324.9 486.6,325.3"/>
    <polyline points="368.1,166.7 347.1,143.1 346.5,142.4 346.0,141.6 345.2,140.8 344.0,139.9 343.3,139.6 342.5,139.2 341.4,138.9 340.2,138.7 339.1,138.6 337.9,138.6"/>
    <polyline points="370.2,169.5 369.6,168.6 368.1,166.7"/>
    <polyline points="306.0,76.9 306.4,76.4 307.1,75.7 307.8,75.0 308.6,74.4 310.4,73.0 313.6,70.5"/>
    <polyline points="313.6,70.5 316.2,68.6"/>
    <polyline points="316.2,68.6 316.9,68.0 317.3,67.6 319.3,65.8"/>
    <polyline points="938.6,225.3 883.9,214.3 835.6,204.8 813.9,200.6 792.0,196.2 764.2,190.8 736.5,185.4 725.6,183.2 670.3,172.4 661.2,170.6 653.7,169.4 645.5,168.5 638.2,168.3 629.0,168.4 624.7,168.7 604.2,171.0 599.6,171.6 592.4,172.3 589.9,172.5 568.4,174.5 562.1,174.8 547.5,176.3 506.8,180.7 472.5,184.1 450.7,186.2 444.4,186.8 435.0,187.8 432.0,188.1 423.3,188.6 406.3,188.9"/>
    <polyline points="406.3,188.5 423.2,188.4 432.0,187.9 434.9,187.6 444.3,186.6 506.7,180.5 535.5,177.4 547.4,176.1 562.1,174.5 568.3,174.3 592.3,172.1 599.4,171.4 604.1,170.8 615.1,169.5 624.7,168.4 629.0,168.2 638.2,168.0 645.5,168.3 653.7,169.1 661.3,170.4 670.4,172.1 725.7,183.0 736.6,185.1 764.2,190.6 779.6,193.6 792.1,196.0 814.0,200.4 835.8,204.6 860.0,209.4 884.0,214.0 884.9,214.2 885.2,214.3 938.3,224.9"/>
    <polyline points="406.3,188.9 386.9,189.1"/>
    <polyline points="387.0,188.7 398.8,188.5 406.3,188.5"/>
    <polyline points="386.9,189.1 381.6,189.1 379.2,189.3 377.1,189.7 375.0,190.1 373.5,190.6 372.6,190.9 371.7,191.4 371.1,192.0 370.4,192.7 369.9,193.6"/>
    <polyline points="292.2,352.7 294.8,349.8 297.8,346.4 299.9,343.8 301.7,341.1 307.8,330.9 310.8,325.9 312.1,323.5"/>
    <polyline points="292.4,352.9 291.2,354.2 286.8,359.4 282.7,364.5"/>
    <polyline points="299.9,91.3 300.6,92.6 300.6,93.9 300.9,96.8 301.1,99.1 301.2,100.3 301.7,102.3 302.7,104.2 304.1,106.2 307.4,110.7 309.7,114.0 314.2,120.4 316.0,122.9 318.7,127.0 320.1,129.1 320.7,130.2 321.1,131.3 321.5,132.2 321.9,133.3 322.2,134.3 322.3,134.6 322.9,135.7 323.4,136.4 324.2,137.1 325.2,137.8 326.3,138.3 327.4,138.7 328.6,138.9 330.0,139.1 331.3,139.0 332.5,138.9 333.4,138.7"/>
    <polyline points="370.6,169.4 370.8,169.9 371.1,170.5 371.2,171.5 371.3,172.5 371.1,173.3 370.9,173.8 369.1,176.4 367.9,178.4 367.5,179.3 367.2,180.1 366.8,181.3 366.9,182.3 367.1,183.9 367.3,185.3"/>
    <polyline points="368.4,166.5 369.3,167.6 369.8,168.3 369.9,168.5 370.2,169.0 370.6,169.4"/>
    <polyline points="300.6,92.6 300.2,88.8 300.3,86.9 300.9,85.0 301.5,83.7 302.4,82.3 303.2,81.0 303.8,80.1 305.0,78.2 306.0,76.9"/>
    <polyline points="299.9,91.3 299.7,88.8 299.8,86.8 300.5,84.9 301.1,83.5 302.0,82.1 303.4,80.0 304.7,78.1 305.7,76.8"/>
    <polyline points="331.3,139.0 329.4,139.5"/>
    <polyline points="367.3,185.3 367.4,186.1"/>
    <polyline points="368.1,189.5 367.5,188.6"/>
    <polyline points="367.4,186.1 367.3,187.5"/>
    <polyline points="367.3,187.5 366.9,185.3"/>
    <polyline points="367.4,186.1 368.1,189.5 368.3,190.8 368.7,192.8 369.0,194.6"/>
    <polyline points="333.3,139.2 331.7,139.4 330.6,139.5 329.4,139.5 328.2,139.4 327.0,139.1 325.9,138.7 324.7,138.2 323.7,137.5 322.9,136.7 322.2,135.8 321.8,134.9 321.3,133.5 320.9,132.3 320.6,131.3 320.2,130.4 319.6,129.2 318.2,127.1 316.3,124.3 315.5,123.1 307.0,110.8 304.5,107.6 303.9,106.7 302.2,104.4 301.2,102.4 300.6,100.3 300.3,96.8 300.0,93.9 299.9,91.3"/>
    <polyline points="333.4,138.7 335.2,138.5 337.8,138.2 339.1,138.1 340.3,138.2 341.6,138.5 342.8,138.8 343.7,139.2 344.6,139.7 345.4,140.3 345.9,140.8 346.5,141.3 347.0,142.2 347.5,142.9 351.8,147.6 354.5,150.8 360.0,157.0 366.1,163.9 367.4,165.6 368.0,166.1 368.4,166.5"/>
    <polyline points="368.7,194.7 368.4,192.8"/>
    <polyline points="589.9,172.5 588.8,172.7 587.6,173.0 586.7,173.2 585.6,173.6"/>
  </g>

  <!-- 지하철 역 -->
  <g>
    <circle cx="344.4" cy="284.2" r="3" fill="#dc2626" stroke="#fff" stroke-width="1"/>
    <circle cx="288.4" cy="260.4" r="3" fill="#dc2626" stroke="#fff" stroke-width="1"/>
    <circle cx="368.4" cy="195.3" r="3" fill="#dc2626" stroke="#fff" stroke-width="1"/>
    <circle cx="584.1" cy="174.4" r="3" fill="#dc2626" stroke="#fff" stroke-width="1"/>
    <circle cx="328.1" cy="543.9" r="3" fill="#dc2626" stroke="#fff" stroke-width="1"/>
    <circle cx="124.8" cy="207.8" r="3" fill="#dc2626" stroke="#fff" stroke-width="1"/>
    <circle cx="650.1" cy="384.4" r="3" fill="#dc2626" stroke="#fff" stroke-width="1"/>
    <circle cx="505.8" cy="180.3" r="3" fill="#dc2626" stroke="#fff" stroke-width="1"/>
    <circle cx="125.0" cy="137.6" r="3" fill="#dc2626" stroke="#fff" stroke-width="1"/>
    <circle cx="422.3" cy="301.3" r="3" fill="#dc2626" stroke="#fff" stroke-width="1"/>
    <circle cx="455.9" cy="313.2" r="3" fill="#dc2626" stroke="#fff" stroke-width="1"/>
    <circle cx="294.9" cy="349.3" r="3" fill="#dc2626" stroke="#fff" stroke-width="1"/>
    <circle cx="118.0" cy="87.3" r="3" fill="#dc2626" stroke="#fff" stroke-width="1"/>
    <circle cx="507.0" cy="332.0" r="3" fill="#dc2626" stroke="#fff" stroke-width="1"/>
    <circle cx="708.0" cy="406.2" r="3" fill="#dc2626" stroke="#fff" stroke-width="1"/>
    <circle cx="599.7" cy="367.3" r="3" fill="#dc2626" stroke="#fff" stroke-width="1"/>
    <circle cx="554.6" cy="201.1" r="3" fill="#dc2626" stroke="#fff" stroke-width="1"/>
    <circle cx="537.0" cy="248.8" r="3" fill="#dc2626" stroke="#fff" stroke-width="1"/>
    <circle cx="313.1" cy="321.2" r="3" fill="#dc2626" stroke="#fff" stroke-width="1"/>
    <circle cx="434.2" cy="187.4" r="3" fill="#dc2626" stroke="#fff" stroke-width="1"/>
    <circle cx="670.7" cy="172.6" r="3" fill="#dc2626" stroke="#fff" stroke-width="1"/>
    <circle cx="735.8" cy="184.6" r="3" fill="#dc2626" stroke="#fff" stroke-width="1"/>
    <circle cx="418.7" cy="381.1" r="3" fill="#dc2626" stroke="#fff" stroke-width="1"/>
    <circle cx="369.6" cy="168.4" r="3" fill="#dc2626" stroke="#fff" stroke-width="1"/>
    <circle cx="334.9" cy="139.1" r="3" fill="#dc2626" stroke="#fff" stroke-width="1"/>
    <circle cx="595.6" cy="171.9" r="3" fill="#dc2626" stroke="#fff" stroke-width="1"/>
    <circle cx="366.8" cy="233.1" r="3" fill="#dc2626" stroke="#fff" stroke-width="1"/>
    <circle cx="459.3" cy="268.0" r="3" fill="#dc2626" stroke="#fff" stroke-width="1"/>
    <circle cx="300.6" cy="97.0" r="3" fill="#dc2626" stroke="#fff" stroke-width="1"/>
    <circle cx="124.5" cy="209.6" r="3" fill="#dc2626" stroke="#fff" stroke-width="1"/>
    <circle cx="123.4" cy="211.1" r="3" fill="#dc2626" stroke="#fff" stroke-width="1"/>
    <circle cx="124.7" cy="210.9" r="3" fill="#dc2626" stroke="#fff" stroke-width="1"/>
  </g>
</svg>