<?xml version="1.0" encoding="UTF-8"?>
<svg width="800" height="600" viewBox="0 0 800 600" 
     xmlns="http://www.w3.org/2000/svg">
  <title>Madrid Subway Map</title>
  <rect width="100%" height="100%" fill="#f8f9fa"/>

  <!-- 지하철 선로 -->
  <g id="subway-lines" stroke="#2563eb" stroke-width="3" fill="none">
    <polyline points="209.4,401.5 209.4,401.4 209.0,401.1 208.9,400.9 208.8,400.7 208.6,400.5 208.6,400.3 208.5,400.2 208.4,400.1 207.8,399.6" opacity="0.8"/>
    <polyline points="209.8,401.3 210.9,402.3 212.1,403.4 212.2,403.6 212.4,403.8" opacity="0.8"/>
    <polyline points="208.4,400.0 202.1,394.1 200.4,392.4" opacity="0.8"/>
    <polyline points="200.4,392.4 197.6,389.8 196.9,389.1 195.4,386.6 195.3,386.5 194.3,384.6 193.7,383.2 193.6,382.1 193.9,380.9 194.3,379.7 196.1,377.6 196.6,376.5 197.0,376.1 197.8,375.5 203.4,371.7 209.5,367.7" opacity="0.8"/>
    <polyline points="208.4,400.0 208.6,400.3 208.9,400.5 209.4,400.9 209.6,401.1 209.8,401.3" opacity="0.8"/>
    <polyline points="401.9,297.0 405.7,296.1 412.6,294.6 413.7,294.4 414.9,294.2 415.6,294.2 416.3,294.3 417.0,294.4 418.1,294.6 419.3,295.0 424.9,297.0 427.4,297.9 428.3,298.2 429.2,298.4 430.4,298.7 431.5,298.8 432.9,299.0 434.4,299.1 435.6,299.1 436.7,299.1 437.8,298.9 439.2,298.7 442.4,298.2 443.0,298.0 443.7,297.8 444.3,297.6 447.6,296.1 450.4,295.0 451.2,294.7 452.0,294.5 452.9,294.5 454.0,294.4 454.7,294.5 455.2,294.6 455.8,294.7 456.7,295.0 457.4,295.4 458.4,295.9 459.2,296.6 463.8,301.8 464.4,302.3 465.6,303.6 466.5,304.6 466.9,305.3 471.9,310.9 474.8,314.2 477.9,317.7 478.2,318.0 478.6,318.2 479.5,318.5 479.8,318.6 479.8,318.7 479.9,318.7 480.3,318.8 480.6,318.9 481.4,319.1 483.3,319.4 484.7,319.4 485.2,319.4 485.6,319.4 486.2,319.2 487.3,318.9 491.4,317.5 493.5,316.7 494.6,316.3 495.2,316.1 495.8,316.0 496.7,316.1 513.0,319.6 528.5,319.7 535.2,319.2 538.1,318.7 541.7,317.3 542.2,317.0 543.3,316.4 544.7,313.7 546.2,309.7 547.1,306.1 547.6,305.3 548.0,304.8 548.2,304.6 549.3,304.0 550.2,303.6 550.6,303.5 551.7,303.0 552.7,303.1 554.3,303.4 555.6,304.0 561.4,307.3 568.2,311.9 575.7,317.0 597.3,322.3 617.0,326.1 631.2,329.5 637.4,329.4 641.5,328.6 642.9,327.7 646.9,326.8 652.3,325.3 659.9,323.3 671.8,323.7 674.3,324.0 677.8,324.4 683.6,324.1 691.1,325.2 692.6,325.3 697.2,325.7 701.1,325.6 704.0,325.6 705.2,325.6 707.0,325.5 708.1,325.4 709.6,325.1 711.1,324.5 712.1,324.0 713.3,322.9 714.8,322.0 715.9,321.6 717.2,321.4 718.5,321.3 719.9,321.4 720.8,321.5 722.7,322.0 723.3,322.3 723.9,322.6 724.4,322.9 724.8,323.2 725.7,324.2 726.4,325.2 727.3,327.9 727.9,329.2 729.3,332.5 729.8,334.0 729.5,335.3 728.9,336.3 728.5,336.9 728.0,337.5 726.8,338.4 725.2,339.0 723.7,339.4 716.7,340.9 716.0,341.0 713.6,341.1 711.6,340.9 709.9,340.5 707.1,339.4" opacity="0.8"/>
    <polyline points="397.9,288.8 398.5,288.3 399.7,287.6 414.6,278.8 417.5,277.2 421.2,274.5 422.4,274.1 423.6,273.7 424.0,273.4 424.2,272.9 424.0,271.9 423.9,270.8 424.0,270.5 424.2,270.3 424.5,270.1 424.9,270.0 425.6,269.7 425.9,269.7 426.5,269.5 426.7,269.5 426.9,269.4 427.2,269.3 428.5,268.7 440.3,263.6 444.2,261.8 447.2,260.7 451.3,258.8 457.0,258.2 463.5,257.1 466.6,257.7 469.0,257.3 470.6,256.1 473.0,254.0 478.5,251.0 480.2,250.5 481.1,250.4 481.9,250.3 484.5,250.3 485.3,249.9 485.5,249.9 485.8,249.5 485.9,249.0 485.8,248.1 484.9,245.3 483.2,242.4 482.2,240.9 481.0,239.1 478.7,235.9 478.1,235.1 476.2,231.6 476.3,230.0 476.6,226.7 476.5,226.0 475.9,225.2 474.9,224.1 473.9,223.7 463.2,221.6 463.1,221.6 449.0,226.3 439.0,227.7 434.7,226.4 432.6,225.8 432.2,225.7 431.8,225.5 431.5,225.3 431.2,225.1 430.8,224.9 428.9,224.0 428.6,223.8 428.4,223.7 428.3,223.7 428.2,223.6 428.0,223.5 428.0,223.5 427.9,223.5 427.7,223.4 427.7,223.3 426.7,222.8 426.4,222.7 426.0,222.5 425.7,222.3 422.5,220.1 421.2,219.3 418.1,217.2 416.3,216.0" opacity="0.8"/>
    <polyline points="230.9,405.4 230.2,405.7 229.8,405.9 229.4,406.0 229.1,406.2 228.7,406.3 228.3,406.4 227.9,406.4 227.5,406.5 227.2,406.5 226.9,406.6 226.5,406.6 226.1,406.6 225.7,406.6 225.2,406.6 224.7,406.5 216.6,405.8 216.1,405.7 215.6,405.6 215.2,405.5 214.8,405.4 214.5,405.3 214.2,405.2 213.8,405.1 213.5,404.9 213.2,404.7 212.9,404.5 212.8,404.4 212.6,404.2 212.5,404.1 212.4,403.9 212.4,403.8" opacity="0.8"/>
    <polyline points="162.9,442.7 162.7,442.8 162.3,443.1 162.1,443.3 161.9,443.6 161.7,444.0 161.6,444.4 161.3,447.5 161.1,450.0 162.5,451.8 164.6,453.0 170.3,455.4 173.6,456.8" opacity="0.8"/>
    <polyline points="763.9,535.4 762.0,533.5 760.3,531.9 759.5,531.3 758.5,530.7 757.1,530.0 755.6,529.5 752.2,528.4 751.3,528.1 750.2,527.5 749.2,527.0 747.9,526.1 745.4,524.2 743.2,522.4 742.3,521.5 741.5,520.8 740.5,519.7 739.3,518.2 738.8,517.3 738.6,517.1" opacity="0.8"/>
    <polyline points="670.3,432.5 665.5,428.6" opacity="0.8"/>
    <polyline points="686.7,457.8 686.2,456.3 685.9,454.7 685.8,454.0 685.9,453.4 686.1,451.7 686.5,449.5 686.6,448.0 686.4,446.4 685.6,445.0 683.7,443.3 678.4,439.0 675.6,436.8 670.9,433.0 670.3,432.5" opacity="0.8"/>
    <polyline points="665.5,428.6 664.0,427.4" opacity="0.8"/>
    <polyline points="132.7,440.8 132.8,442.2 133.7,443.4 135.6,444.2 141.0,444.5" opacity="0.8"/>
    <polyline points="162.9,442.7 163.0,442.6 163.1,442.6 163.3,442.5 163.4,442.5 163.6,442.4 163.8,442.4 164.0,442.3 164.3,442.3 164.6,442.3 166.6,442.5 166.9,442.5 167.1,442.5 167.4,442.6 167.6,442.7 168.7,443.3 168.9,443.4 169.1,443.6 169.2,443.7 169.3,443.9 169.3,444.1 169.4,444.3 169.4,444.4 169.3,444.6 169.2,444.8 169.0,445.0 168.8,445.1 168.7,445.2 168.4,445.3 168.2,445.4 168.0,445.5 167.7,445.5 167.4,445.5 167.0,445.5 166.3,445.5 165.2,445.5 164.9,445.5 164.0,445.5 163.6,445.5 163.3,445.6 163.0,445.6 162.5,445.6 162.3,445.6 162.0,445.6 161.2,445.7 155.3,445.7 154.3,445.7" opacity="0.8"/>
    <polyline points="144.7,444.6 145.1,444.6 145.3,444.6 145.6,444.6 145.8,444.6 146.0,444.7 146.2,444.7 146.5,444.7 146.8,444.8 147.1,444.9 147.2,444.9 147.4,444.9 147.6,445.0 147.8,445.1 147.9,445.1 148.0,445.2 148.4,445.4 148.7,445.5 149.3,445.9 149.4,446.0 149.5,446.0 149.7,446.1 149.8,446.1 149.9,446.1 150.0,446.2 150.2,446.2 150.3,446.2 150.5,446.2 151.0,446.2" opacity="0.8"/>
    <polyline points="145.9,444.5 146.3,444.5 146.5,444.4 147.0,444.4 147.2,444.3 147.5,444.2 147.8,444.2 148.3,444.0 148.9,443.8 149.2,443.6 149.5,443.6 149.7,443.5 149.9,443.4 150.2,443.4 150.5,443.4 150.9,443.4" opacity="0.8"/>
    <polyline points="154.3,446.0 155.3,446.0 161.2,445.9 161.7,445.9 161.9,445.9 162.0,445.9 162.2,445.9 162.3,445.9 163.0,445.7 163.6,445.6 163.7,445.6 163.9,445.6 164.2,445.5" opacity="0.8"/>
    <polyline points="142.1,444.6 142.3,444.6 143.1,444.6 144.7,444.6 145.4,444.6 146.2,444.6 146.7,444.6 147.1,444.6 147.5,444.6 151.0,444.6" opacity="0.8"/>
    <polyline points="607.1,390.3 607.5,390.7 608.6,391.7 608.7,391.8 608.8,392.0 609.0,392.2 609.2,392.7 609.5,393.1 609.7,393.4 609.9,393.6 610.1,393.8" opacity="0.8"/>
    <polyline points="98.3,482.3 108.6,473.5 111.3,471.1 114.9,467.9 117.0,466.1 117.3,465.8 117.7,465.5 117.8,465.4 122.1,461.6 132.7,440.8 140.2,419.6 141.0,419.1 159.8,406.4 179.7,380.6 179.8,380.5 179.9,380.4 180.0,380.4 193.9,374.5 204.6,370.2 207.1,369.3 207.7,369.0 208.3,368.7 210.5,367.3 212.1,366.2 212.1,366.2 212.7,365.7" opacity="0.8"/>
    <polyline points="229.6,357.7 230.0,357.5 231.9,356.6 232.9,356.2 233.8,355.7 234.8,355.3 235.7,354.8 236.6,354.4 237.6,354.0 238.4,353.6 239.1,353.3 239.7,353.0 240.4,352.7 240.7,352.5 241.0,352.3 241.5,351.9 242.1,351.5 242.3,351.3 242.5,351.0 242.7,350.8 242.9,350.5 243.1,350.3 243.3,350.0 243.6,349.5 245.1,346.9 245.6,346.1 245.8,345.8 245.9,345.6 246.2,345.4 246.4,345.1 246.6,344.9 246.7,344.8 247.0,344.5 247.6,344.1 248.1,343.8 248.6,343.4 249.3,343.1 249.6,343.0 250.3,342.7 251.0,342.5 251.9,342.3 252.7,342.1 253.3,342.0 254.1,342.0 254.6,341.9 259.5,342.0 260.5,342.1 261.4,342.1 262.3,342.1 263.2,342.0 264.0,341.9 267.2,341.6" opacity="0.8"/>
    <polyline points="267.4,367.8 267.2,367.8 267.0,367.9 266.9,367.9 266.8,367.9 266.7,368.0 266.5,368.0 266.4,368.1 266.4,368.2 266.3,368.2 266.2,368.3 266.1,368.4 266.0,368.5 265.8,368.8 265.7,368.9 265.6,369.2 265.3,369.5 265.2,369.7 265.0,369.9 265.0,369.9" opacity="0.8"/>
    <polyline points="551.1,302.4 551.4,302.2 551.7,301.9 551.8,301.8" opacity="0.8"/>
    <polyline points="554.0,294.5 554.1,294.3 554.2,294.2 554.3,294.1 554.4,294.0 554.5,293.9 554.6,293.9 554.7,293.8 555.3,293.6 555.6,293.4 555.8,293.3 556.0,293.2 556.1,293.2 556.3,293.0 556.4,292.9 556.5,292.8 556.6,292.6 556.7,292.5 556.8,292.4 556.8,292.3 556.8,292.1 556.9,292.0 556.9,291.9 556.8,291.8 556.8,291.7 556.8,291.6 556.7,291.5 556.6,291.4 556.4,291.1 556.2,290.7 555.9,290.2 554.3,287.6 553.7,286.6 553.4,286.2 553.2,285.8 553.0,285.5 552.8,285.2" opacity="0.8"/>
    <polyline points="664.0,427.4 662.3,426.0 660.8,424.9 659.6,424.1 657.7,422.9 655.1,421.4 652.8,420.2 649.0,418.1 645.7,416.2 641.3,413.7 635.5,410.1 632.1,408.0 628.5,405.8 624.5,403.3 620.5,400.8 617.5,399.0 616.7,398.5 615.9,398.0 615.1,397.4 614.3,396.7 612.9,395.5 611.5,394.1 607.8,390.8 606.3,389.4 604.6,387.8 603.2,386.5" opacity="0.8"/>
    <polyline points="357.7,171.6 357.8,171.4 358.1,171.0 358.2,170.9 358.3,170.7 358.5,170.5" opacity="0.8"/>
    <polyline points="416.3,216.0 414.6,215.2 413.7,214.8 412.8,214.6 406.4,213.1 404.9,213.0 403.7,212.9 402.5,213.1 401.4,213.4 400.2,213.9 399.2,214.5 398.3,215.2 397.7,215.8 397.3,216.5 395.4,222.0 394.3,223.9 393.7,224.7 392.9,225.4 391.9,226.0 390.6,226.6 389.6,227.0 388.3,227.4 387.1,227.7 385.6,228.0 384.4,228.1 383.4,228.1 382.7,228.1 382.1,228.0 377.3,226.9 376.2,226.8 375.1,226.8 374.1,226.9 373.1,227.0 372.0,227.3 371.0,227.7 370.2,228.4 369.8,229.2 369.5,230.2 369.5,231.3 369.3,235.6 369.1,236.6 368.8,237.6 368.2,239.4 367.5,241.7 367.2,242.2 366.7,242.7 365.7,243.6 365.2,244.0 364.5,244.4 363.7,244.7 362.8,244.9 360.7,245.0 359.9,245.1 359.5,245.1 358.7,245.4 357.6,245.8" opacity="0.8"/>
    <polyline points="339.2,365.2 339.4,365.5 339.5,365.7 339.7,366.0 340.1,366.4 340.4,366.8 340.6,366.9 341.0,367.2 341.2,367.4 341.5,367.6 341.7,367.7 341.9,367.8 342.2,367.9 342.5,368.0 342.8,368.1 343.0,368.1 343.3,368.2 343.5,368.2 343.8,368.3 344.1,368.3 344.4,368.3 344.7,368.3 344.9,368.3 345.2,368.3 345.3,368.3 345.6,368.3 345.9,368.2 346.2,368.2 346.7,368.0 347.5,367.8 347.9,367.8 348.2,367.7 348.6,367.7 348.9,367.6 349.3,367.6 349.9,367.6 350.3,367.5 350.7,367.5 351.1,367.6 351.6,367.6 355.9,368.0 356.7,368.1 356.9,368.1 357.0,368.2 357.2,368.2 357.3,368.2 357.5,368.3 357.7,368.4 357.8,368.4 358.0,368.5 358.1,368.6 358.2,368.7 358.3,368.8 358.5,369.0 358.6,369.1 358.7,369.3 358.7,369.5 358.7,369.6 358.7,369.7 358.7,369.9 358.7,370.1 358.6,370.3 358.5,370.5 358.0,371.1 357.8,371.4 357.6,371.7 357.5,371.9 357.4,372.1 357.3,372.4 357.0,375.7 356.9,376.3 356.9,376.6 356.8,377.0 356.6,377.7 356.5,378.0 356.4,378.4 355.7,384.0 355.5,385.9 355.5,386.3 355.5,387.1 355.5,387.5 355.3,388.9 355.1,390.0 355.0,390.3 354.7,390.8 354.4,391.1 354.0,391.5 349.4,394.5 348.3,395.6 347.4,396.6 346.9,397.6 346.5,398.6 346.3,399.8 346.5,400.6 347.5,403.4 347.9,404.2 348.4,405.4 348.8,406.6 349.0,407.3 353.1,422.6 356.5,433.4 357.4,441.4 358.6,452.8 359.1,458.5 358.9,460.7 359.8,464.3 360.0,465.3 360.0,470.9 359.9,476.8 360.0,477.6 360.3,478.3 360.9,479.2 361.1,479.8 361.3,480.8 361.6,484.2 361.5,485.1 361.2,486.1 360.7,486.8 360.1,487.5 357.8,489.7 356.5,490.9 355.2,492.1 354.4,492.7 353.1,493.0 339.5,493.4 329.0,493.6 323.6,491.0 318.2,490.7" opacity="0.8"/>
    <polyline points="148.6,446.8 148.2,446.8 148.0,446.8 147.2,446.7 147.0,446.6 146.8,446.6 146.6,446.5 146.5,446.4 146.3,446.4 146.1,446.3 146.0,446.2 145.9,446.1 145.0,445.3 144.9,445.2 144.7,445.2 144.6,445.1 144.4,445.0 144.2,444.9 144.0,444.8 143.8,444.7 143.5,444.7 143.3,444.6 142.9,444.6 142.7,444.6 142.3,444.6" opacity="0.8"/>
    <polyline points="306.8,192.7 306.7,192.7 306.4,192.6 306.2,192.6 306.0,192.6 305.9,192.5 305.7,192.5 305.3,192.4 305.0,192.3 304.8,192.2 304.4,192.1 304.1,192.0 303.9,192.0 303.7,191.9 303.6,191.9 303.4,191.9 303.2,191.9 303.0,191.9 302.2,191.9" opacity="0.8"/>
    <polyline points="304.2,192.6 304.9,192.6 305.0,192.6 305.2,192.6 305.3,192.7 305.6,192.7 305.8,192.7 306.0,192.8" opacity="0.8"/>
    <polyline points="738.4,516.6 738.1,516.2 737.8,515.7 736.8,514.2 736.4,513.5 736.3,513.2 736.1,512.9 736.0,512.4 735.9,512.1 735.8,511.7 735.8,511.3 735.8,511.0 735.8,510.7 735.9,510.2 736.0,509.6 736.3,507.5 736.4,506.8 736.4,506.2 736.4,505.6 736.4,505.2 736.4,504.7 736.3,504.0 736.2,503.6 736.1,502.9 735.9,502.3 735.7,501.7 735.4,501.0 735.2,500.6 735.0,500.3 734.9,500.1 734.5,499.3 732.9,496.8 730.8,493.4 728.9,490.4" opacity="0.8"/>
    <polyline points="738.6,517.1 738.4,516.6" opacity="0.8"/>
    <polyline points="463.1,221.6 461.5,219.9 458.8,215.4 449.9,211.6 448.2,210.8 447.4,210.6 447.1,210.5 446.7,210.5" opacity="0.8"/>
    <polyline points="441.4,210.2 441.1,210.2 440.9,210.2 440.2,210.2 439.8,210.2 439.5,210.2 439.3,210.2 439.2,210.2 439.0,210.2 438.3,210.1" opacity="0.8"/>
    <polyline points="440.9,210.2 440.5,210.2 440.3,210.2 439.5,210.3 439.4,210.4 439.2,210.4 439.1,210.4 438.9,210.4 438.8,210.4 438.5,210.3 434.5,209.8 433.1,209.5 431.1,209.2 430.3,209.1 429.2,208.9" opacity="0.8"/>
    <polyline points="150.3,442.0 149.7,442.0 149.5,442.0 149.3,442.1 149.2,442.1 149.0,442.1 148.8,442.2 148.7,442.2 148.5,442.3 146.4,443.4 145.1,444.0 144.9,444.1 144.7,444.2 144.5,444.2 144.3,444.3 144.0,444.4 143.5,444.4 142.9,444.5 142.7,444.5 142.3,444.5 142.9,444.5 145.9,444.5" opacity="0.8"/>
    <polyline points="151.0,443.8 150.4,443.8 150.2,443.8 150.0,443.8 149.8,443.8 149.6,443.9 147.7,444.2 147.2,444.3" opacity="0.8"/>
    <polyline points="151.0,444.2 150.0,444.2 149.7,444.2 149.5,444.2 148.4,444.3 147.2,444.4 147.0,444.5 146.7,444.5" opacity="0.8"/>
    <polyline points="154.1,445.4 151.0,445.4" opacity="0.8"/>
    <polyline points="150.3,442.5 149.9,442.5 149.7,442.5 149.5,442.5 149.3,442.6 149.2,442.6 148.6,442.8 148.1,443.0 147.4,443.3 146.5,443.7" opacity="0.8"/>
    <polyline points="151.0,445.2 150.6,445.2 150.4,445.2 150.3,445.2 150.1,445.2 147.6,444.8 147.3,444.7 146.9,444.7 146.3,444.6" opacity="0.8"/>
    <polyline points="151.0,445.2 150.5,445.2 150.3,445.1 150.2,445.1 150.0,445.1 148.3,444.8 147.9,444.7 147.3,444.7" opacity="0.8"/>
    <polyline points="154.3,445.9 155.3,445.9 161.3,445.9 161.8,445.9 161.9,445.9 162.1,445.9 162.2,445.8 162.5,445.8 162.7,445.7 162.9,445.7 163.1,445.7 163.3,445.6 163.6,445.6 164.2,445.5 164.4,445.5 164.6,445.5 164.9,445.5" opacity="0.8"/>
    <polyline points="163.6,445.6 163.1,445.6 162.5,445.7 162.3,445.7 162.0,445.7 161.2,445.7 155.3,445.8 154.3,445.8" opacity="0.8"/>
    <polyline points="169.7,445.8 169.1,446.0 168.7,446.2 168.4,446.3 167.9,446.4 167.5,446.5 167.1,446.5 166.7,446.6 166.3,446.7 165.9,446.7 165.5,446.8 165.1,446.8 164.7,446.8 164.4,446.8 164.0,446.9 163.7,446.9 159.4,446.9 155.8,446.9 152.9,446.9 151.2,446.9 150.9,446.9 150.7,446.9 150.2,446.9 150.1,446.9 149.7,446.8" opacity="0.8"/>
    <polyline points="151.0,444.9 150.7,444.9 150.4,444.9 150.2,444.9 150.1,444.9 149.5,444.8 148.7,444.7 147.9,444.7 147.1,444.6" opacity="0.8"/>
    <polyline points="151.2,446.9 148.8,446.9 148.4,446.9 148.0,446.9 147.7,446.9 147.3,446.9 147.0,446.8 146.7,446.8 146.4,446.7 146.2,446.6 145.9,446.6 145.6,446.5 144.7,446.2" opacity="0.8"/>
    <polyline points="150.3,442.8 149.7,442.8 149.5,442.8 149.3,442.9 149.2,442.9 148.9,443.0 148.4,443.1 147.9,443.2 147.0,443.6 146.5,443.7 146.4,443.8 146.1,443.9 145.8,444.0 145.6,444.1 145.3,444.2 145.0,444.3 144.7,444.3 144.4,444.3 144.0,444.4 143.5,444.4" opacity="0.8"/>
  </g>

  <!-- 지하철 역 -->
  <g id="subway-stations">
    <circle cx="54.4" cy="473.0" r="4" fill="#dc2626" stroke="#fff" stroke-width="2"/>
    <text x="54.4" y="465.0" text-anchor="middle" font-size="10" fill="#374151">Alcorcón Central</text>
    <circle cx="362.3" cy="283.5" r="4" fill="#dc2626" stroke="#fff" stroke-width="2"/>
    <text x="362.3" y="275.5" text-anchor="middle" font-size="10" fill="#374151">Nuevos Ministerios</text>
    <circle cx="347.9" cy="253.8" r="4" fill="#dc2626" stroke="#fff" stroke-width="2"/>
    <text x="347.9" y="245.8" text-anchor="middle" font-size="10" fill="#374151">Tetuán</text>
    <circle cx="366.7" cy="243.1" r="4" fill="#dc2626" stroke="#fff" stroke-width="2"/>
    <text x="366.7" y="235.1" text-anchor="middle" font-size="10" fill="#374151">Plaza de Castilla</text>
    <circle cx="382.0" cy="228.0" r="4" fill="#dc2626" stroke="#fff" stroke-width="2"/>
    <text x="382.0" y="220.0" text-anchor="middle" font-size="10" fill="#374151">Chamartín</text>
    <circle cx="395.4" cy="222.0" r="4" fill="#dc2626" stroke="#fff" stroke-width="2"/>
    <text x="395.4" y="214.0" text-anchor="middle" font-size="10" fill="#374151">Bambú</text>
    <circle cx="416.3" cy="215.9" r="4" fill="#dc2626" stroke="#fff" stroke-width="2"/>
    <text x="416.3" y="207.9" text-anchor="middle" font-size="10" fill="#374151">Pinar de Chamartín</text>
    <circle cx="580.8" cy="453.2" r="4" fill="#dc2626" stroke="#fff" stroke-width="2"/>
    <text x="580.8" y="445.2" text-anchor="middle" font-size="10" fill="#374151">Valdecarros</text>
    <circle cx="565.3" cy="446.2" r="4" fill="#dc2626" stroke="#fff" stroke-width="2"/>
    <text x="565.3" y="438.2" text-anchor="middle" font-size="10" fill="#374151">Las Suertes</text>
    <circle cx="522.4" cy="429.1" r="4" fill="#dc2626" stroke="#fff" stroke-width="2"/>
    <text x="522.4" y="421.1" text-anchor="middle" font-size="10" fill="#374151">Congosto</text>
    <circle cx="516.7" cy="414.8" r="4" fill="#dc2626" stroke="#fff" stroke-width="2"/>
    <text x="516.7" y="406.8" text-anchor="middle" font-size="10" fill="#374151">Villa de Vallecas</text>
    <circle cx="508.8" cy="408.5" r="4" fill="#dc2626" stroke="#fff" stroke-width="2"/>
    <text x="508.8" y="400.5" text-anchor="middle" font-size="10" fill="#374151">Sierra de Guadalupe</text>
    <circle cx="475.7" cy="398.7" r="4" fill="#dc2626" stroke="#fff" stroke-width="2"/>
    <text x="475.7" y="390.7" text-anchor="middle" font-size="10" fill="#374151">Miguel Hernández</text>
    <circle cx="463.0" cy="393.8" r="4" fill="#dc2626" stroke="#fff" stroke-width="2"/>
    <text x="463.0" y="385.8" text-anchor="middle" font-size="10" fill="#374151">Alto del Arenal</text>
    <circle cx="445.3" cy="390.7" r="4" fill="#dc2626" stroke="#fff" stroke-width="2"/>
    <text x="445.3" y="382.7" text-anchor="middle" font-size="10" fill="#374151">Buenos Aires</text>
    <circle cx="433.6" cy="387.9" r="4" fill="#dc2626" stroke="#fff" stroke-width="2"/>
    <text x="433.6" y="379.9" text-anchor="middle" font-size="10" fill="#374151">Portazgo</text>
    <circle cx="421.4" cy="382.1" r="4" fill="#dc2626" stroke="#fff" stroke-width="2"/>
    <text x="421.4" y="374.1" text-anchor="middle" font-size="10" fill="#374151">Nueva Numancia</text>
    <circle cx="412.1" cy="377.9" r="4" fill="#dc2626" stroke="#fff" stroke-width="2"/>
    <text x="412.1" y="369.9" text-anchor="middle" font-size="10" fill="#374151">Puente de Vallecas</text>
    <circle cx="369.1" cy="360.3" r="4" fill="#dc2626" stroke="#fff" stroke-width="2"/>
    <text x="369.1" y="352.3" text-anchor="middle" font-size="10" fill="#374151">Atocha</text>
    <circle cx="362.8" cy="356.6" r="4" fill="#dc2626" stroke="#fff" stroke-width="2"/>
    <text x="362.8" y="348.6" text-anchor="middle" font-size="10" fill="#374151">Estación del Arte</text>
    <circle cx="346.0" cy="349.8" r="4" fill="#dc2626" stroke="#fff" stroke-width="2"/>
    <text x="346.0" y="341.8" text-anchor="middle" font-size="10" fill="#374151">Antón Martín</text>
    <circle cx="334.0" cy="349.7" r="4" fill="#dc2626" stroke="#fff" stroke-width="2"/>
    <text x="334.0" y="341.7" text-anchor="middle" font-size="10" fill="#374151">Tirso de Molina</text>
    <circle cx="340.5" cy="334.8" r="4" fill="#dc2626" stroke="#fff" stroke-width="2"/>
    <text x="340.5" y="326.8" text-anchor="middle" font-size="10" fill="#374151">Gran Vía</text>
    <circle cx="341.6" cy="322.2" r="4" fill="#dc2626" stroke="#fff" stroke-width="2"/>
    <text x="341.6" y="314.2" text-anchor="middle" font-size="10" fill="#374151">Tribunal</text>
    <circle cx="346.2" cy="304.4" r="4" fill="#dc2626" stroke="#fff" stroke-width="2"/>
    <text x="346.2" y="296.4" text-anchor="middle" font-size="10" fill="#374151">Iglesia</text>
    <circle cx="340.5" cy="291.9" r="4" fill="#dc2626" stroke="#fff" stroke-width="2"/>
    <text x="340.5" y="283.9" text-anchor="middle" font-size="10" fill="#374151">Ríos Rosas</text>
    <circle cx="336.3" cy="275.1" r="4" fill="#dc2626" stroke="#fff" stroke-width="2"/>
    <text x="336.3" y="267.1" text-anchor="middle" font-size="10" fill="#374151">Alvarado</text>
    <circle cx="336.6" cy="340.6" r="4" fill="#dc2626" stroke="#fff" stroke-width="2"/>
    <text x="336.6" y="332.6" text-anchor="middle" font-size="10" fill="#374151">Sol</text>
    <circle cx="355.0" cy="246.6" r="4" fill="#dc2626" stroke="#fff" stroke-width="2"/>
    <text x="355.0" y="238.6" text-anchor="middle" font-size="10" fill="#374151">Valdeacederas</text>
    <circle cx="338.0" cy="266.4" r="4" fill="#dc2626" stroke="#fff" stroke-width="2"/>
    <text x="338.0" y="258.4" text-anchor="middle" font-size="10" fill="#374151">Estrecho</text>
    <circle cx="394.6" cy="261.2" r="4" fill="#dc2626" stroke="#fff" stroke-width="2"/>
    <text x="394.6" y="253.2" text-anchor="middle" font-size="10" fill="#374151">Colombia</text>
    <circle cx="456.7" cy="240.1" r="4" fill="#dc2626" stroke="#fff" stroke-width="2"/>
    <text x="456.7" y="232.1" text-anchor="middle" font-size="10" fill="#374151">Pinar del Rey</text>
    <circle cx="478.8" cy="236.1" r="4" fill="#dc2626" stroke="#fff" stroke-width="2"/>
    <text x="478.8" y="228.1" text-anchor="middle" font-size="10" fill="#374151">Mar de Cristal</text>
    <circle cx="527.7" cy="247.6" r="4" fill="#dc2626" stroke="#fff" stroke-width="2"/>
    <text x="527.7" y="239.6" text-anchor="middle" font-size="10" fill="#374151">Feria de Madrid</text>
    <circle cx="625.4" cy="239.9" r="4" fill="#dc2626" stroke="#fff" stroke-width="2"/>
    <text x="625.4" y="231.9" text-anchor="middle" font-size="10" fill="#374151">Aeropuerto T1-T2-T3</text>
    <circle cx="601.6" cy="224.3" r="4" fill="#dc2626" stroke="#fff" stroke-width="2"/>
    <text x="601.6" y="216.3" text-anchor="middle" font-size="10" fill="#374151">Barajas</text>
    <circle cx="579.2" cy="191.4" r="4" fill="#dc2626" stroke="#fff" stroke-width="2"/>
    <text x="579.2" y="183.4" text-anchor="middle" font-size="10" fill="#374151">Aeropuerto T4</text>
    <circle cx="425.9" cy="222.5" r="4" fill="#dc2626" stroke="#fff" stroke-width="2"/>
    <text x="425.9" y="214.5" text-anchor="middle" font-size="10" fill="#374151">Manoteras</text>
    <circle cx="449.1" cy="226.4" r="4" fill="#dc2626" stroke="#fff" stroke-width="2"/>
    <text x="449.1" y="218.4" text-anchor="middle" font-size="10" fill="#374151">Hortaleza</text>
    <circle cx="463.2" cy="221.7" r="4" fill="#dc2626" stroke="#fff" stroke-width="2"/>
    <circle cx="476.6" cy="226.8" r="4" fill="#dc2626" stroke="#fff" stroke-width="2"/>
    <text x="476.6" y="218.8" text-anchor="middle" font-size="10" fill="#374151">San Lorenzo</text>
    <circle cx="485.7" cy="248.1" r="4" fill="#dc2626" stroke="#fff" stroke-width="2"/>
    <text x="485.7" y="240.1" text-anchor="middle" font-size="10" fill="#374151">Canillas</text>
    <circle cx="463.5" cy="257.0" r="4" fill="#dc2626" stroke="#fff" stroke-width="2"/>
    <text x="463.5" y="249.0" text-anchor="middle" font-size="10" fill="#374151">Esperanza</text>
    <circle cx="440.2" cy="263.6" r="4" fill="#dc2626" stroke="#fff" stroke-width="2"/>
    <text x="440.2" y="255.6" text-anchor="middle" font-size="10" fill="#374151">Arturo Soria</text>
    <circle cx="427.0" cy="268.9" r="4" fill="#dc2626" stroke="#fff" stroke-width="2"/>
    <text x="427.0" y="260.9" text-anchor="middle" font-size="10" fill="#374151">Avenida de la Paz</text>
    <circle cx="414.5" cy="278.8" r="4" fill="#dc2626" stroke="#fff" stroke-width="2"/>
    <text x="414.5" y="270.8" text-anchor="middle" font-size="10" fill="#374151">Alfonso XIII</text>
    <circle cx="399.2" cy="286.7" r="4" fill="#dc2626" stroke="#fff" stroke-width="2"/>
    <text x="399.2" y="278.7" text-anchor="middle" font-size="10" fill="#374151">Prosperidad</text>
    <circle cx="399.5" cy="306.0" r="4" fill="#dc2626" stroke="#fff" stroke-width="2"/>
    <text x="399.5" y="298.0" text-anchor="middle" font-size="10" fill="#374151">Diego de León</text>
    <circle cx="398.0" cy="316.0" r="4" fill="#dc2626" stroke="#fff" stroke-width="2"/>
    <text x="398.0" y="308.0" text-anchor="middle" font-size="10" fill="#374151">Lista</text>
    <circle cx="396.3" cy="325.3" r="4" fill="#dc2626" stroke="#fff" stroke-width="2"/>
    <text x="396.3" y="317.3" text-anchor="middle" font-size="10" fill="#374151">Goya</text>
    <circle cx="382.4" cy="324.4" r="4" fill="#dc2626" stroke="#fff" stroke-width="2"/>
    <text x="382.4" y="316.4" text-anchor="middle" font-size="10" fill="#374151">Velázquez</text>
    <circle cx="372.8" cy="323.9" r="4" fill="#dc2626" stroke="#fff" stroke-width="2"/>
    <text x="372.8" y="315.9" text-anchor="middle" font-size="10" fill="#374151">Serrano</text>
    <circle cx="361.5" cy="323.1" r="4" fill="#dc2626" stroke="#fff" stroke-width="2"/>
    <text x="361.5" y="315.1" text-anchor="middle" font-size="10" fill="#374151">Colón</text>
    <circle cx="352.9" cy="319.9" r="4" fill="#dc2626" stroke="#fff" stroke-width="2"/>
    <text x="352.9" y="311.9" text-anchor="middle" font-size="10" fill="#374151">Alonso Martínez</text>
    <circle cx="331.4" cy="315.3" r="4" fill="#dc2626" stroke="#fff" stroke-width="2"/>
    <text x="331.4" y="307.3" text-anchor="middle" font-size="10" fill="#374151">San Bernardo</text>
    <circle cx="308.6" cy="313.4" r="4" fill="#dc2626" stroke="#fff" stroke-width="2"/>
    <text x="308.6" y="305.4" text-anchor="middle" font-size="10" fill="#374151">Argüelles</text>
    <circle cx="393.9" cy="299.7" r="4" fill="#dc2626" stroke="#fff" stroke-width="2"/>
    <text x="393.9" y="291.7" text-anchor="middle" font-size="10" fill="#374151">Avenida de América</text>
    <circle cx="210.3" cy="367.2" r="4" fill="#dc2626" stroke="#fff" stroke-width="2"/>
    <text x="210.3" y="359.2" text-anchor="middle" font-size="10" fill="#374151">Casa de Campo</text>
    <circle cx="194.2" cy="384.6" r="4" fill="#dc2626" stroke="#fff" stroke-width="2"/>
    <text x="194.2" y="376.6" text-anchor="middle" font-size="10" fill="#374151">Campamento</text>
    <circle cx="200.3" cy="392.4" r="4" fill="#dc2626" stroke="#fff" stroke-width="2"/>
    <text x="200.3" y="384.4" text-anchor="middle" font-size="10" fill="#374151">Empalme</text>
    <circle cx="232.0" cy="404.9" r="4" fill="#dc2626" stroke="#fff" stroke-width="2"/>
    <text x="232.0" y="396.9" text-anchor="middle" font-size="10" fill="#374151">Eugenia de Montijo</text>
    <circle cx="245.3" cy="398.2" r="4" fill="#dc2626" stroke="#fff" stroke-width="2"/>
    <text x="245.3" y="390.2" text-anchor="middle" font-size="10" fill="#374151">Carabanchel</text>
    <circle cx="256.2" cy="396.3" r="4" fill="#dc2626" stroke="#fff" stroke-width="2"/>
    <text x="256.2" y="388.3" text-anchor="middle" font-size="10" fill="#374151">Vista Alegre</text>
    <circle cx="274.4" cy="396.6" r="4" fill="#dc2626" stroke="#fff" stroke-width="2"/>
    <text x="274.4" y="388.6" text-anchor="middle" font-size="10" fill="#374151">Oporto</text>
    <circle cx="288.4" cy="388.9" r="4" fill="#dc2626" stroke="#fff" stroke-width="2"/>
    <text x="288.4" y="380.9" text-anchor="middle" font-size="10" fill="#374151">Urgel</text>
    <circle cx="308.0" cy="379.2" r="4" fill="#dc2626" stroke="#fff" stroke-width="2"/>
    <text x="308.0" y="371.2" text-anchor="middle" font-size="10" fill="#374151">Marqués de Vadillo</text>
    <circle cx="317.8" cy="370.1" r="4" fill="#dc2626" stroke="#fff" stroke-width="2"/>
    <text x="317.8" y="362.1" text-anchor="middle" font-size="10" fill="#374151">Pirámides</text>
    <circle cx="331.0" cy="366.1" r="4" fill="#dc2626" stroke="#fff" stroke-width="2"/>
    <text x="331.0" y="358.1" text-anchor="middle" font-size="10" fill="#374151">Acacias</text>
    <circle cx="319.8" cy="360.2" r="4" fill="#dc2626" stroke="#fff" stroke-width="2"/>
    <text x="319.8" y="352.2" text-anchor="middle" font-size="10" fill="#374151">Puerta de Toledo</text>
    <circle cx="325.8" cy="351.8" r="4" fill="#dc2626" stroke="#fff" stroke-width="2"/>
    <text x="325.8" y="343.8" text-anchor="middle" font-size="10" fill="#374151">La Latina</text>
    <circle cx="323.4" cy="338.6" r="4" fill="#dc2626" stroke="#fff" stroke-width="2"/>
    <text x="323.4" y="330.6" text-anchor="middle" font-size="10" fill="#374151">Ópera</text>
    <circle cx="331.1" cy="334.0" r="4" fill="#dc2626" stroke="#fff" stroke-width="2"/>
    <text x="331.1" y="326.0" text-anchor="middle" font-size="10" fill="#374151">Callao</text>
    <circle cx="349.1" cy="329.3" r="4" fill="#dc2626" stroke="#fff" stroke-width="2"/>
    <text x="349.1" y="321.3" text-anchor="middle" font-size="10" fill="#374151">Chueca</text>
    <circle cx="366.7" cy="308.8" r="4" fill="#dc2626" stroke="#fff" stroke-width="2"/>
    <text x="366.7" y="300.8" text-anchor="middle" font-size="10" fill="#374151">Rubén Darío</text>
    <circle cx="388.9" cy="309.6" r="4" fill="#dc2626" stroke="#fff" stroke-width="2"/>
    <text x="388.9" y="301.6" text-anchor="middle" font-size="10" fill="#374151">Núñez de Balboa</text>
    <circle cx="424.0" cy="312.7" r="4" fill="#dc2626" stroke="#fff" stroke-width="2"/>
    <text x="424.0" y="304.7" text-anchor="middle" font-size="10" fill="#374151">Ventas</text>
    <circle cx="440.2" cy="310.9" r="4" fill="#dc2626" stroke="#fff" stroke-width="2"/>
    <text x="440.2" y="302.9" text-anchor="middle" font-size="10" fill="#374151">El Carmen</text>
    <circle cx="457.8" cy="308.7" r="4" fill="#dc2626" stroke="#fff" stroke-width="2"/>
    <text x="457.8" y="300.7" text-anchor="middle" font-size="10" fill="#374151">Quintana</text>
    <circle cx="466.6" cy="304.9" r="4" fill="#dc2626" stroke="#fff" stroke-width="2"/>
    <text x="466.6" y="296.9" text-anchor="middle" font-size="10" fill="#374151">Pueblo Nuevo</text>
    <circle cx="480.7" cy="299.1" r="4" fill="#dc2626" stroke="#fff" stroke-width="2"/>
    <text x="480.7" y="291.1" text-anchor="middle" font-size="10" fill="#374151">Ciudad Lineal</text>
    <circle cx="504.2" cy="293.3" r="4" fill="#dc2626" stroke="#fff" stroke-width="2"/>
    <text x="504.2" y="285.3" text-anchor="middle" font-size="10" fill="#374151">Suanzes</text>
    <circle cx="525.9" cy="287.9" r="4" fill="#dc2626" stroke="#fff" stroke-width="2"/>
    <text x="525.9" y="279.9" text-anchor="middle" font-size="10" fill="#374151">Torre Arias</text>
    <circle cx="544.6" cy="277.0" r="4" fill="#dc2626" stroke="#fff" stroke-width="2"/>
    <text x="544.6" y="269.0" text-anchor="middle" font-size="10" fill="#374151">Canillejas</text>
    <circle cx="576.2" cy="268.6" r="4" fill="#dc2626" stroke="#fff" stroke-width="2"/>
    <text x="576.2" y="260.6" text-anchor="middle" font-size="10" fill="#374151">El Capricho</text>
    <circle cx="589.9" cy="260.3" r="4" fill="#dc2626" stroke="#fff" stroke-width="2"/>
    <text x="589.9" y="252.3" text-anchor="middle" font-size="10" fill="#374151">Alameda de Osuna</text>
    <circle cx="301.8" cy="304.9" r="4" fill="#dc2626" stroke="#fff" stroke-width="2"/>
    <text x="301.8" y="296.9" text-anchor="middle" font-size="10" fill="#374151">Moncloa</text>
    <circle cx="314.9" cy="321.2" r="4" fill="#dc2626" stroke="#fff" stroke-width="2"/>
    <text x="314.9" y="313.2" text-anchor="middle" font-size="10" fill="#374151">Ventura Rodríguez</text>
    <circle cx="320.2" cy="327.8" r="4" fill="#dc2626" stroke="#fff" stroke-width="2"/>
    <text x="320.2" y="319.8" text-anchor="middle" font-size="10" fill="#374151">Plaza de España</text>
    <circle cx="342.6" cy="357.4" r="4" fill="#dc2626" stroke="#fff" stroke-width="2"/>
    <text x="342.6" y="349.4" text-anchor="middle" font-size="10" fill="#374151">Lavapiés</text>
    <circle cx="339.1" cy="364.6" r="4" fill="#dc2626" stroke="#fff" stroke-width="2"/>
    <text x="339.1" y="356.6" text-anchor="middle" font-size="10" fill="#374151">Embajadores</text>
    <circle cx="355.5" cy="368.0" r="4" fill="#dc2626" stroke="#fff" stroke-width="2"/>
    <circle cx="356.9" cy="375.4" r="4" fill="#dc2626" stroke="#fff" stroke-width="2"/>
    <text x="356.9" y="367.4" text-anchor="middle" font-size="10" fill="#374151">Delicias</text>
    <circle cx="355.1" cy="391.0" r="4" fill="#dc2626" stroke="#fff" stroke-width="2"/>
    <text x="355.1" y="383.0" text-anchor="middle" font-size="10" fill="#374151">Legazpi</text>
    <circle cx="348.4" cy="405.8" r="4" fill="#dc2626" stroke="#fff" stroke-width="2"/>
    <text x="348.4" y="397.8" text-anchor="middle" font-size="10" fill="#374151">Almendrales</text>
    <circle cx="353.0" cy="422.6" r="4" fill="#dc2626" stroke="#fff" stroke-width="2"/>
    <circle cx="356.4" cy="433.4" r="4" fill="#dc2626" stroke="#fff" stroke-width="2"/>
    <text x="356.4" y="425.4" text-anchor="middle" font-size="10" fill="#374151">San Fermín-Orcasur</text>
    <circle cx="358.5" cy="452.8" r="4" fill="#dc2626" stroke="#fff" stroke-width="2"/>
    <circle cx="360.2" cy="470.9" r="4" fill="#dc2626" stroke="#fff" stroke-width="2"/>
    <circle cx="358.5" cy="489.5" r="4" fill="#dc2626" stroke="#fff" stroke-width="2"/>
    <text x="358.5" y="481.5" text-anchor="middle" font-size="10" fill="#374151">San Cristóbal</text>
    <circle cx="335.3" cy="281.7" r="4" fill="#dc2626" stroke="#fff" stroke-width="2"/>
    <text x="335.3" y="273.7" text-anchor="middle" font-size="10" fill="#374151">Cuatro Caminos</text>
  </g>
</svg>