<?xml version="1.0" encoding="UTF-8"?>
<svg width="800" height="600" viewBox="0 0 800 600" 
     xmlns="http://www.w3.org/2000/svg">
  <title>Manila Subway Map</title>
  <rect width="100%" height="100%" fill="#f8f9fa"/>

  <!-- 지하철 선로 -->
  <g id="subway-lines" stroke="#2563eb" stroke-width="3" fill="none">
    <polyline points="674.0,51.5 680.8,45.1 681.9,44.0" opacity="0.8"/>
    <polyline points="165.9,297.9 164.4,298.1 163.0,298.3 161.7,298.5 160.4,298.9 159.5,299.1 158.5,299.3 157.3,299.4 156.3,299.5 154.6,299.5 153.3,299.4 151.9,299.2 150.4,299.0 149.0,298.8 147.7,298.7 146.6,298.8 144.8,298.9 140.9,299.5 139.6,299.7 138.0,299.7 136.6,299.6 135.1,299.5 133.7,299.2 128.2,298.0 126.7,297.8 125.3,297.6 123.7,297.6 122.2,297.7 120.8,297.9 118.9,298.2 115.5,298.8 110.2,299.7 108.8,299.9 107.4,299.9 105.9,299.9 104.7,299.8 103.4,299.6 102.0,299.3 99.4,298.7 88.1,295.9 68.3,290.9 66.8,290.6 65.4,290.4 64.0,290.2 62.8,290.1" opacity="0.8"/>
    <polyline points="658.8,203.8 666.2,209.3 669.2,211.7 672.4,213.9 680.4,218.9 686.2,222.0 688.2,223.0 690.2,224.0 696.3,226.9 696.8,227.2 702.0,229.8 702.2,230.0" opacity="0.8"/>
    <polyline points="696.3,226.9 694.6,226.3 693.2,226.0 691.8,226.0 690.4,226.0 689.2,226.2 688.2,226.6 687.3,227.0 686.6,227.5 686.1,228.0 685.8,228.5 685.7,229.1 685.8,229.7 686.2,230.3 686.9,231.0" opacity="0.8"/>
    <polyline points="704.4,242.7 694.0,235.0 692.8,234.2 692.0,233.8" opacity="0.8"/>
    <polyline points="705.0,242.6 695.2,235.2 693.9,234.4 692.5,233.9" opacity="0.8"/>
    <polyline points="691.3,233.4 692.5,233.9" opacity="0.8"/>
    <polyline points="706.5,242.4 701.1,238.1 698.4,236.3 696.1,235.1 695.1,234.5 694.2,234.2" opacity="0.8"/>
    <polyline points="692.7,233.4 693.7,233.7 695.0,234.0 698.1,234.3" opacity="0.8"/>
    <polyline points="708.2,235.9 697.9,234.9" opacity="0.8"/>
    <polyline points="707.8,237.4 702.7,236.8 700.5,236.5" opacity="0.8"/>
    <polyline points="701.0,237.2 700.2,236.6 699.2,236.1 697.0,235.3 696.1,235.1" opacity="0.8"/>
    <polyline points="708.4,234.9 698.3,234.0" opacity="0.8"/>
    <polyline points="691.4,233.8 703.8,242.7" opacity="0.8"/>
    <polyline points="687.5,227.4 686.7,228.1 686.4,228.6 686.2,229.1 686.3,229.6 686.8,230.2 687.5,230.9" opacity="0.8"/>
    <polyline points="592.4,89.1 598.4,86.9 600.9,86.2 603.7,85.2 606.0,84.3 626.3,77.2 632.4,74.9 636.8,73.1 642.1,70.7 644.8,69.5 647.5,68.2 652.4,65.7 658.2,62.5 661.6,60.3 672.5,52.6 674.0,51.5" opacity="0.8"/>
    <polyline points="739.9,239.7 751.0,238.5 766.2,236.8 788.2,234.3 791.4,234.0 808.0,232.1 814.6,231.4 833.4,229.4 848.6,227.7 885.5,223.6" opacity="0.8"/>
    <polyline points="600.4,203.3 607.2,201.6" opacity="0.8"/>
    <polyline points="607.2,201.6 620.6,198.1 625.8,196.8 631.0,195.4 635.9,194.4 637.4,194.3 638.9,194.2 640.3,194.2 641.6,194.3 644.1,194.7 646.7,195.7 649.2,196.8 651.5,198.2" opacity="0.8"/>
    <polyline points="568.3,97.2 550.4,103.6" opacity="0.8"/>
    <polyline points="389.7,121.9 383.3,121.2 379.1,120.7 371.8,119.8" opacity="0.8"/>
    <polyline points="431.3,126.9 445.9,128.6" opacity="0.8"/>
    <polyline points="446.0,128.4 431.4,126.7" opacity="0.8"/>
    <polyline points="530.2,110.8 508.8,118.3 488.0,125.5 485.1,126.5 483.8,126.7 481.6,127.1 457.6,128.8 455.7,128.9 453.6,129.0 451.5,129.0 449.9,128.9 448.4,128.7 446.0,128.4" opacity="0.8"/>
    <polyline points="445.9,128.6 448.3,128.9 449.9,129.0 451.5,129.1 453.6,129.2 455.7,129.1 457.6,129.0 481.6,127.3 482.9,127.1 484.1,126.9 485.0,126.7 488.1,125.6 508.9,118.4 530.4,110.9" opacity="0.8"/>
    <polyline points="702.9,229.7 697.5,227.0 697.4,226.9 693.4,225.0 690.7,223.9 688.4,222.9 686.4,221.9 680.6,218.8 672.6,213.8 669.4,211.6 666.4,209.3 659.1,203.7" opacity="0.8"/>
    <polyline points="708.5,234.7 698.4,233.7" opacity="0.8"/>
    <polyline points="695.8,234.6 694.5,234.2" opacity="0.8"/>
    <polyline points="708.1,236.1 697.9,235.0" opacity="0.8"/>
    <polyline points="694.5,234.2 693.2,233.8" opacity="0.8"/>
    <polyline points="705.6,242.5 695.9,235.2 694.9,234.6 694.2,234.2 693.2,233.8 692.5,233.6" opacity="0.8"/>
    <polyline points="692.5,233.6 692.1,233.5 691.8,233.4" opacity="0.8"/>
    <polyline points="691.8,233.4 691.1,233.0" opacity="0.8"/>
    <polyline points="692.7,233.4 694.9,233.8" opacity="0.8"/>
    <polyline points="694.5,234.2 695.8,234.4 698.1,234.5" opacity="0.8"/>
    <polyline points="700.5,236.5 699.2,236.1" opacity="0.8"/>
    <polyline points="707.7,237.6 702.6,237.1 700.5,236.5" opacity="0.8"/>
    <polyline points="689.7,232.4 691.1,233.0" opacity="0.8"/>
    <polyline points="698.1,234.3 708.3,235.4" opacity="0.8"/>
    <polyline points="698.3,234.0 694.9,233.8" opacity="0.8"/>
    <polyline points="698.4,233.7 694.9,233.8" opacity="0.8"/>
    <polyline points="698.1,234.5 708.2,235.6" opacity="0.8"/>
    <polyline points="697.9,234.9 695.8,234.6" opacity="0.8"/>
    <polyline points="697.9,235.0 695.8,234.6" opacity="0.8"/>
    <polyline points="692.5,233.9 694.8,235.2 704.7,242.6" opacity="0.8"/>
    <polyline points="688.2,231.7 686.9,231.0" opacity="0.8"/>
    <polyline points="692.0,233.8 691.3,233.4" opacity="0.8"/>
    <polyline points="704.1,242.7 693.7,235.1 692.5,234.3" opacity="0.8"/>
    <polyline points="688.4,231.7 687.2,231.0" opacity="0.8"/>
    <polyline points="686.9,231.0 687.9,231.8 688.8,232.4 691.4,233.8" opacity="0.8"/>
  </g>

  <!-- 지하철 역 -->
  <g id="subway-stations">
    <circle cx="617.3" cy="198.8" r="4" fill="#dc2626" stroke="#fff" stroke-width="2"/>
    <text x="617.3" y="190.8" text-anchor="middle" font-size="10" fill="#374151">Katipunan</text>
  </g>
</svg>