<?xml version="1.0" encoding="UTF-8"?>
<svg width="800" height="600" xmlns="http://www.w3.org/2000/svg">
  <title>Marseille Subway Map</title>
  <rect width="100%" height="100%" fill="#f8f9fa"/>

  <!-- 지하철 선로 -->
  <g stroke="#2563eb" stroke-width="2" fill="none" opacity="0.8">
    <polyline points="341.9,10.8 342.9,15.2 343.2,20.8 342.1,26.6 340.9,31.9 339.8,36.9 339.0,41.0 339.0,46.3 339.6,51.1 341.9,62.9 346.4,75.2 351.0,88.2 353.8,96.2 354.2,101.6 353.4,105.0 351.2,109.5 349.3,112.1 347.0,114.4 343.6,116.5 338.3,118.7 326.9,123.1 317.7,126.8 303.1,131.9"/>
    <polyline points="477.8,292.7 476.5,305.3 478.3,314.0 479.8,318.2 481.4,322.3 482.4,325.3 490.0,338.3 496.1,345.9 502.6,351.3 507.9,355.7 511.7,359.9 516.1,367.5 520.9,380.7 522.9,385.9 524.5,390.6 524.6,390.7 526.6,396.2 528.5,403.6 529.2,412.3"/>
    <polyline points="414.4,218.8 421.6,217.6 427.4,217.0 433.2,217.0 441.0,218.6 445.4,220.1 452.2,224.2 455.4,226.9 457.6,228.8 460.8,231.2 463.6,233.3 464.8,234.3 465.8,235.1"/>
    <polyline points="481.0,247.1 472.1,238.5 469.9,236.4 467.4,234.4"/>
    <polyline points="433.4,214.9 427.2,214.7 420.7,214.6 412.6,215.5 404.6,217.2 394.5,220.6 387.2,224.9 380.7,228.6 374.2,232.2 363.4,235.7 356.7,237.0 348.1,238.7 343.6,239.5 337.3,239.9 330.2,239.6 324.9,238.8 314.2,236.6 290.3,231.7 277.1,228.9 273.8,227.9 271.2,226.4 269.2,225.0 258.7,213.4 254.3,208.0 249.8,202.2 241.1,191.4"/>
    <polyline points="481.0,254.9 482.3,263.5 481.2,274.8 477.8,292.7"/>
    <polyline points="459.4,227.9 457.8,225.9"/>
    <polyline points="463.3,233.6 464.8,234.3"/>
    <polyline points="364.3,258.7 362.3,264.1 360.2,269.4 358.5,276.7 358.0,282.5 358.0,287.5 357.4,306.3 357.7,314.0 358.3,321.5 359.6,331.5 360.7,338.0 361.7,344.7 362.4,351.2 360.1,360.8 359.5,364.9 359.6,365.9 360.4,368.6 362.8,373.9 367.1,378.6 372.1,382.1 375.9,384.5 380.0,386.7 387.0,390.4 404.4,399.4 411.3,403.7 416.6,408.4 422.5,417.6 424.5,422.6 426.5,427.6 428.4,430.4 432.8,437.7 439.8,449.0 444.5,458.3 449.2,469.7 453.5,476.6 458.3,481.1 463.8,484.2 470.8,486.9 481.0,489.8 490.8,490.9 499.0,491.5 507.3,491.4 518.4,489.5 529.1,486.6 539.3,483.9 548.7,481.4"/>
    <polyline points="577.8,569.5 541.6,510.5 541.1,509.8 537.4,503.7 533.4,497.1 531.8,494.3 530.5,492.3 526.4,484.9 525.5,481.8 525.5,479.0 526.5,467.5"/>
    <polyline points="523.9,467.3 523.3,479.2 523.7,482.1 525.1,485.2 529.6,492.5 532.6,497.3 536.6,503.9 540.4,510.1 542.1,512.9 577.0,569.7"/>
    <polyline points="531.9,412.3 531.1,403.4 529.2,395.8 527.1,390.2 525.2,385.6 523.2,380.4 518.0,367.0 513.5,359.2 509.4,354.8 504.1,350.4 497.7,345.1 491.8,337.7 484.3,325.0 483.3,322.0 481.8,317.9 480.2,313.7 478.5,305.2 479.8,292.8"/>
    <polyline points="542.1,512.9 541.6,510.5"/>
    <polyline points="531.8,494.3 529.6,492.5"/>
    <polyline points="479.8,292.8 483.3,274.9 484.3,263.4 483.7,254.6"/>
    <polyline points="465.8,235.1 470.5,239.1 479.9,247.7"/>
    <polyline points="467.4,234.4 465.2,232.4 462.4,230.2 459.4,227.9 457.2,226.2 453.4,223.4 446.4,219.4 441.4,217.5 433.3,215.9 427.2,216.0 421.2,216.5 413.8,217.7"/>
    <polyline points="483.7,254.6 483.1,250.6 481.6,247.0 477.8,243.1 474.8,240.3 472.9,238.3 470.5,236.2 467.8,234.0 465.7,232.1 462.8,230.0 459.8,227.7 457.8,225.9"/>
    <polyline points="240.3,191.6 249.1,202.4 253.7,208.2 258.1,213.6 268.7,225.3 271.4,227.9 274.4,229.6 278.2,230.7 289.6,233.2 314.0,238.3 324.4,240.3 330.0,241.1 337.4,241.3 343.9,241.0 348.9,240.2 357.3,238.4 364.1,237.1 376.0,233.5 383.2,229.7 389.3,225.8 396.2,221.6 405.3,218.4 413.2,216.8 421.2,216.4 427.1,217.0 432.8,218.1"/>
    <polyline points="454.7,227.3 457.2,229.0 460.4,231.4 463.3,233.6 465.2,235.4 471.3,241.2 474.8,244.6 477.9,248.6 481.0,254.9"/>
    <polyline points="303.1,131.9 289.8,136.8 257.9,148.9 255.3,150.1 253.6,151.2 251.3,153.0 248.8,155.0 246.9,156.9 244.8,159.9 242.6,165.6 237.9,181.9 237.9,186.3 239.0,189.1 240.3,191.6"/>
    <polyline points="241.1,191.4 239.8,189.0 238.7,186.2 238.7,182.0 243.4,165.7 245.6,160.1 247.6,157.3 249.4,155.4 252.0,153.3 254.0,151.7 256.0,150.5 258.4,149.3 286.8,138.6 290.2,137.3 303.4,132.5"/>
    <polyline points="303.4,132.5 318.1,127.2 327.4,123.6 338.8,119.1 344.1,116.9 347.6,114.8 350.1,112.4 352.0,109.7 354.2,105.1 355.1,101.6 354.7,96.1 351.9,88.1 347.2,75.1 342.5,62.8 340.2,51.0 339.6,46.2 339.6,41.0 340.3,37.0 341.4,32.0 342.6,26.7 343.8,20.8 343.6,15.1 342.8,10.7"/>
    <polyline points="526.5,467.5 529.3,447.9 531.9,412.3"/>
    <polyline points="529.2,412.3 526.7,447.7 523.9,467.3"/>
    <polyline points="413.8,217.7 406.0,219.2 397.0,222.4 390.0,226.4 383.8,230.2 378.2,234.4 372.2,240.9 369.9,244.2 367.9,249.1 364.3,258.7"/>
    <polyline points="366.8,259.2 370.4,249.6 372.4,244.8 374.5,241.7 380.4,235.4 386.0,230.9 392.2,227.0 398.6,223.4 406.5,220.3 414.4,218.8"/>
    <polyline points="378.2,234.4 386.0,230.9"/>
    <polyline points="432.8,218.1 440.5,219.6 444.3,221.1 451.3,224.8 454.7,227.3"/>
    <polyline points="457.8,225.9 454.2,222.8 447.5,218.5 442.0,216.6 433.4,214.9"/>
    <polyline points="868.8,51.2 864.6,56.6 857.3,66.0 851.6,73.5 846.2,80.7 838.4,98.5 834.9,107.4 828.8,121.8 827.9,123.1 826.1,126.0 823.4,129.9 817.8,139.4 809.7,153.3 797.6,175.1 792.4,182.9 785.6,190.2 778.5,194.5 770.2,197.6 756.1,201.1 743.6,203.0 738.2,203.8 732.6,204.5 691.9,210.2 685.7,211.4 678.0,213.8 573.0,258.8 566.9,261.2 560.8,263.7 550.3,267.5 544.6,269.4 544.5,269.4 541.5,270.4 537.7,271.0 533.4,271.1 529.2,270.9 521.3,269.2 511.5,266.0 494.9,257.8 487.9,253.3 481.0,247.1"/>
    <polyline points="479.9,247.7 486.8,254.0 493.7,258.7 510.5,267.1 520.6,270.4 528.8,272.2 533.3,272.5 537.9,272.4 542.2,271.7 545.5,270.6 551.2,268.7 561.8,264.9 568.0,262.4 574.1,260.0 678.9,214.9 686.3,212.6 692.4,211.5 732.9,205.7 738.4,205.0 744.0,204.3 756.7,202.4 771.0,198.7 779.6,195.5 787.0,191.0 794.1,183.5 798.8,175.5 810.5,153.4 818.2,139.6 819.3,138.1 824.0,130.0 826.5,126.1 829.3,121.8 835.5,107.5 839.0,98.6 846.8,80.8 852.2,73.7 857.9,66.2 865.2,56.8 869.2,51.6 869.4,51.4"/>
    <polyline points="548.5,480.9 539.0,483.4 528.8,486.2 517.9,488.6 512.6,489.4 507.4,489.9 499.2,490.0 491.1,489.4 481.6,488.3 471.8,485.5 465.1,482.9 460.0,480.0 455.5,475.8 451.4,469.2 446.7,457.9 442.0,448.4 435.0,437.1 430.5,429.8 428.7,427.1 426.7,422.2 424.8,417.2 419.3,407.3 413.7,402.3 406.5,397.8 394.4,392.4 385.6,387.4 383.2,386.1 375.7,382.2 371.8,379.7 369.6,378.2 364.7,373.1 362.7,368.5 362.2,365.1 362.5,361.7 365.5,351.2 364.8,344.5 363.6,337.9 362.7,331.3 361.0,321.4 360.7,318.3 360.4,313.9 360.0,306.3 360.5,291.4 360.6,287.5 360.6,282.5 361.1,276.9 362.8,269.8 364.7,264.5 366.8,259.2"/>
    <polyline points="548.7,481.4 558.0,479.4 595.4,471.2 664.2,454.5 709.3,443.5 738.7,436.3 785.9,424.8 790.2,423.0 792.7,421.4 794.6,420.0 805.3,410.6 808.4,407.3 811.7,403.8"/>
    <polyline points="811.2,403.6 807.9,407.1 804.9,410.4 794.2,419.7 792.3,421.2 789.8,422.8 785.6,424.5 738.5,436.0 709.1,443.2 664.1,454.2 595.2,470.8 557.8,479.0 548.5,480.9"/>
  </g>

  <!-- 지하철 역 -->
  <g>
  </g>
</svg>