<?xml version="1.0" encoding="UTF-8"?>
<svg width="800" height="600" xmlns="http://www.w3.org/2000/svg">
  <title>Medellin Subway Map</title>
  <rect width="100%" height="100%" fill="#f8f9fa"/>

  <!-- 지하철 선로 -->
  <g stroke="#2563eb" stroke-width="2" fill="none" opacity="0.8">
    <polyline points="467.6,236.1 469.8,232.6 470.1,232.0 470.5,231.0 471.1,229.8 471.4,229.2 471.6,228.3 471.8,227.5 471.9,226.5 471.9,225.7 471.8,224.5 471.6,223.6 471.3,222.7 471.0,221.8 470.4,220.8 470.0,220.1 469.4,219.4 468.7,218.5 467.8,217.6 467.1,217.0 466.3,216.4 465.4,215.8 464.5,215.2 463.7,214.7 462.8,214.1 461.7,213.6 460.5,213.1 458.9,212.5 457.8,212.1 456.6,211.7 455.0,211.3 447.4,209.8 434.1,207.1 415.2,203.4 413.6,203.1 411.6,202.6 409.3,202.0 408.0,201.5 406.8,201.1 405.5,200.5 404.3,199.9 403.3,199.3 402.1,198.6 401.1,197.9 399.9,197.1 398.8,196.1 397.7,194.7 396.5,192.9 395.7,191.4 395.3,189.9 395.0,188.5 395.1,186.6 395.3,185.5 395.5,184.8"/>
    <polyline points="395.5,184.8 395.8,183.6 396.3,182.3 396.7,181.0 397.9,178.2 403.8,163.2 408.2,151.5 411.0,144.1 411.5,142.6 411.9,141.4 412.0,140.2 412.3,138.2 412.7,132.9 412.9,131.7 413.1,130.9 413.4,130.1 413.7,129.2 414.2,128.3 414.8,127.3 415.5,126.3 416.1,125.6 416.8,124.9 417.7,124.1 418.5,123.5 419.4,122.9 420.3,122.2 421.3,121.7 424.5,120.0 430.7,116.6 432.0,115.8 433.2,114.9 434.4,113.9 435.4,113.0 436.1,112.2 436.6,111.3 437.2,110.2 437.7,109.2 438.0,108.4 440.4,99.4 441.1,97.9 442.1,96.4 443.3,95.0 444.4,94.1 445.4,93.3 455.6,85.8 457.0,84.8 457.6,84.3 458.2,83.8 459.9,82.1 460.7,81.2 461.7,79.8 462.4,78.4 465.1,72.2 465.8,70.8 467.2,68.9 468.6,67.3 469.7,66.4 470.9,65.4 475.2,62.6 486.6,55.4 498.0,48.3 500.6,46.5 502.0,45.4 503.1,44.4 505.0,42.6 506.4,40.9 507.4,39.4 515.2,27.7 516.6,25.5 519.8,20.5 522.2,16.8 522.8,15.7 523.2,14.7 523.8,12.6 524.1,11.4 524.3,10.1 524.3,8.5 524.2,6.6 523.7,4.4 520.7,-9.1 519.4,-15.5 519.1,-17.2 519.2,-19.3 519.2,-19.7 519.3,-20.6 519.6,-21.4 520.0,-22.6 520.3,-23.4 520.9,-24.4 521.8,-25.5 522.6,-26.4 523.3,-27.1 525.9,-29.4 537.5,-38.7 539.2,-40.4 540.6,-42.1 541.8,-44.1 542.3,-45.2 542.7,-46.3 543.4,-48.5 543.7,-50.3 543.4,-53.6 543.2,-56.0 542.9,-58.9 542.5,-63.2 542.5,-65.0 542.3,-67.8 541.9,-69.9 541.3,-76.2 541.0,-79.0 540.0,-85.9 539.3,-92.5 539.2,-94.8 539.2,-95.9 539.3,-96.7 539.9,-100.0 541.3,-105.5 543.5,-112.9 544.8,-117.3 546.3,-122.8 547.4,-126.1 547.8,-127.2 549.5,-129.7 551.4,-131.9 554.8,-135.4 558.9,-139.8 563.3,-144.2 564.5,-145.4 565.7,-146.3 567.0,-147.3 568.0,-147.9 568.8,-148.4 570.7,-149.3 576.3,-152.3 582.2,-155.4"/>
    <polyline points="-31.2,278.9 -27.8,280.2 -18.9,283.7 -15.8,284.8 -14.0,285.2 -11.5,285.7 -9.1,285.8 -6.8,285.8 4.7,285.6 39.4,284.6 42.1,284.4 44.8,284.2 47.0,283.8 49.2,283.4 50.6,283.1 51.7,282.7 52.7,282.4 54.2,281.8 55.9,281.2 57.4,280.5 61.7,278.6"/>
    <polyline points="395.1,184.7 395.0,185.5 394.8,186.6 394.8,188.5 395.0,190.0 395.5,191.6 396.2,193.0 396.8,193.9 397.5,194.9 398.4,196.0 399.6,197.1 400.9,198.1 402.0,198.8 403.0,199.4 404.2,200.1 405.2,200.6 406.5,201.2 407.6,201.6 409.0,202.1 410.2,202.4 411.8,202.9 413.5,203.3 414.9,203.6 434.0,207.3 447.3,210.0 455.0,211.5 456.5,211.9 457.9,212.3 459.0,212.7 460.4,213.2 461.1,213.5 462.3,214.1 463.4,214.7 464.3,215.3 465.6,216.2 466.8,217.1 467.6,217.8 468.4,218.7 469.2,219.6 469.9,220.6 470.4,221.5 470.8,222.4 471.2,223.4 471.4,224.4 471.5,225.3 471.6,226.3 471.5,227.5 471.3,228.3 471.1,229.2 470.5,230.5 469.8,232.0 469.4,232.7 467.3,236.0"/>
    <polyline points="61.7,278.6 68.9,275.2 75.2,272.3 80.6,269.9 81.4,269.5 82.4,269.1 83.7,268.6 85.2,268.2 86.4,267.7 89.2,267.1 91.5,266.7 93.8,266.5 95.9,266.4 98.3,266.4 100.3,266.5 102.5,266.7 111.7,267.9 125.9,269.7 134.3,270.8 159.6,273.9 162.2,274.3 164.6,274.6 166.0,274.9 167.6,275.3 169.2,275.8 170.6,276.2 171.7,276.7 173.4,277.4 174.5,277.9 175.4,278.5 176.5,279.1 177.4,279.8 178.5,280.6 179.3,281.5 180.3,282.6 181.1,283.6 181.8,284.6 186.4,291.6 186.7,292.1 187.4,292.8 188.2,293.6 189.0,294.3 189.8,294.9 191.1,295.8 192.5,296.5 193.9,297.2 195.2,297.9 196.5,298.4 197.7,298.8 199.2,299.2 200.5,299.6 202.1,300.0 203.6,300.2 206.1,300.6 208.4,300.8 210.9,300.9 218.9,301.0 225.4,301.2 226.6,301.2 237.1,301.3 248.3,301.5 254.1,301.6 258.3,301.7 260.8,301.8 264.3,302.0 270.1,302.6 277.1,303.5 277.8,303.6 283.2,304.5 284.9,304.8 286.1,305.1 287.1,305.4 288.4,305.8 289.5,306.1 291.1,306.7 292.6,307.3 301.3,311.1 309.8,314.7 319.6,318.6 322.4,319.6 325.0,320.4 327.2,321.0 329.1,321.4 332.7,322.2 343.7,324.5 356.5,327.1 373.2,330.5 385.7,333.0 397.1,335.2 410.3,338.0"/>
    <polyline points="410.4,337.8 397.1,335.0 385.6,332.7 373.2,330.2 356.6,326.8 343.7,324.2 329.1,321.2 327.3,320.8 325.3,320.2 323.6,319.7 321.7,319.1 319.6,318.3 309.9,314.5 302.8,311.4 292.8,307.2 290.5,306.2 288.8,305.6 286.9,305.1 285.9,304.8 284.8,304.6 283.2,304.3 278.0,303.5 271.5,302.6 270.3,302.4 267.3,302.1 264.5,301.8 262.0,301.6 259.9,301.5 257.4,301.4 254.0,301.4 248.3,301.3 236.6,301.1 226.6,300.9 220.0,300.8 218.8,300.8 209.9,300.6 208.4,300.5 206.3,300.3 204.7,300.1 203.3,299.9 201.7,299.6 199.7,299.1 197.9,298.6 196.7,298.2 195.5,297.7 194.4,297.2 192.2,296.0 191.1,295.4 190.1,294.7 189.4,294.2 188.5,293.5 187.7,292.7 187.1,292.0 186.8,291.6 182.2,284.5 181.1,282.9 179.9,281.7 179.1,280.8 178.1,279.9 177.2,279.3 175.9,278.4 174.0,277.4 172.3,276.6 170.5,275.9 168.8,275.4 167.0,274.9 164.9,274.4 162.4,274.0 160.7,273.7 134.5,270.5 126.0,269.4 104.7,266.6 102.5,266.4 100.4,266.2 98.3,266.1 95.7,266.1 93.8,266.2 91.4,266.5 89.5,266.7 87.7,267.1 86.1,267.5 84.1,268.2 82.2,268.9 80.1,269.8 75.2,272.1 68.7,275.0 61.5,278.4"/>
    <polyline points="61.5,278.4 58.0,280.0 55.6,281.0 54.1,281.6 52.4,282.2 51.4,282.6 50.4,282.9 49.1,283.2 47.0,283.6 44.5,284.0 42.0,284.2 39.1,284.4 4.7,285.4 -2.5,285.5 -4.8,285.5 -6.8,285.5 -9.1,285.4 -11.0,285.1 -12.9,284.8 -14.7,284.3 -16.6,283.8 -18.2,283.2 -22.0,281.7 -27.4,279.7 -30.6,278.4"/>
    <polyline points="397.9,178.2 396.1,181.2 394.0,186.7 393.0,189.2 387.9,202.8 384.9,210.8 383.0,215.6 374.6,236.1 372.6,240.3 367.9,249.1 356.8,262.9"/>
    <polyline points="319.2,303.6 313.5,309.6 313.0,310.1 312.4,310.6 311.7,311.0 310.3,311.5 308.8,311.9 307.4,312.0 305.8,311.9 304.4,311.8 302.8,311.4"/>
    <polyline points="582.0,-155.5 570.5,-149.5 568.2,-148.4 566.7,-147.5 565.4,-146.7 564.0,-145.6 562.7,-144.4 558.4,-139.9 554.4,-135.8 550.8,-132.1 548.7,-129.5 547.7,-128.1 547.2,-127.3 546.8,-126.5 545.7,-122.8 544.3,-117.8 543.0,-112.9 540.9,-105.4 539.6,-100.0 539.0,-96.7 538.9,-95.9 538.9,-94.8 539.0,-92.5 539.7,-85.9 540.6,-78.9 540.8,-75.5 541.2,-72.9 541.6,-69.5 541.6,-69.2 541.7,-67.5 541.7,-63.2 542.2,-58.9 542.5,-55.9 542.8,-53.5 543.0,-50.3 542.9,-48.6 542.4,-46.4 542.0,-45.3 541.4,-44.2 540.3,-42.2 538.8,-40.5 537.2,-38.8 525.7,-29.5 523.1,-27.3 522.2,-26.4 521.2,-25.3 520.5,-24.3 519.8,-23.2 519.4,-22.2 519.1,-21.1 518.8,-19.8 518.8,-19.3 518.7,-17.3 519.1,-15.2 520.4,-9.0 523.3,4.6 523.6,6.8 523.5,8.8 523.4,10.5 522.7,14.2 522.1,15.7 521.5,16.9 519.5,20.3 516.0,25.4 514.5,27.7 506.3,39.5 505.4,40.7 504.0,42.4 502.5,44.1 499.9,46.2 497.5,48.1 486.4,55.2 474.3,62.9 470.6,65.2 469.4,66.2 468.3,67.2 466.9,68.8 465.4,70.8 464.6,72.3 462.0,78.3 461.1,79.6 460.4,80.7 459.5,81.6 458.6,82.6 457.6,83.5 455.1,85.5 444.7,92.9 443.7,93.7 442.5,94.8 441.4,96.2 440.5,97.8 440.0,99.3 437.7,107.7 437.3,109.0 436.8,110.1 436.2,111.2 435.8,112.0 435.1,112.8 434.2,113.7 432.9,114.7 431.7,115.6 430.3,116.4 423.9,120.0 420.1,122.1 419.0,122.7 418.0,123.4 417.2,124.0 416.5,124.6 415.7,125.4 415.1,126.3 414.4,127.2 413.7,128.2 413.2,129.1 412.8,130.3 412.7,130.8 412.6,131.3 412.3,132.3 412.1,133.4 411.8,138.3 411.6,140.2 411.5,141.3 411.2,142.3 411.0,143.2 410.7,144.0 410.2,145.2 407.8,151.4 403.3,163.0 396.1,181.2 395.3,183.6 395.1,184.7"/>
    <polyline points="231.4,692.5 237.1,690.1 251.7,683.9 259.1,680.7 261.3,679.6 263.4,678.5 265.4,677.3 266.6,676.6 267.8,675.7 269.0,674.7 269.8,673.9 270.7,673.1 271.5,672.2 272.2,671.2 272.8,670.4 273.4,669.4 274.2,667.7 274.9,666.2 276.9,660.8 280.5,651.3 280.8,650.4 281.5,648.9 282.0,648.0 282.5,647.1 289.2,636.1 294.1,628.0 297.8,622.0 299.9,618.3 301.5,615.0 302.8,612.1 303.6,610.2 304.1,608.8 304.5,607.6 304.8,606.2 306.2,600.6 307.5,595.1 309.0,589.5 317.1,556.0 319.8,544.4 321.2,538.7 323.2,530.2 325.5,521.0 329.5,504.2 332.5,491.6 337.5,469.8 344.3,439.4 346.7,429.7 347.4,426.7"/>
    <polyline points="356.8,262.9 354.8,265.2"/>
    <polyline points="354.8,265.2 351.8,268.8 341.9,280.0 330.3,292.5 319.2,303.6"/>
    <polyline points="347.1,426.6 346.3,429.7 344.0,439.4 337.0,469.8 331.9,491.6 329.0,504.2 324.9,521.0 322.7,530.2 320.8,538.6 319.4,544.4 316.5,556.0 308.5,589.5 307.0,595.3 304.3,606.2 304.0,607.5 303.5,609.0 303.0,610.4 302.3,612.2 301.1,614.9 299.3,618.3 297.2,622.1 293.7,627.8 288.8,636.1 282.2,647.1 281.7,647.8 281.3,648.6 280.8,649.6 280.5,650.4 280.2,651.1 276.5,660.9 274.5,666.1 274.0,667.2 273.1,668.9 272.7,669.7 272.3,670.4 271.9,670.9 271.2,671.8 270.7,672.4 270.1,673.1 268.6,674.5 267.8,675.2 266.8,675.9 265.1,677.1 263.5,678.0 261.1,679.3 258.6,680.5 251.4,683.6 237.0,689.9 231.2,692.3"/>
    <polyline points="440.2,130.8 442.4,129.2 443.1,129.6 440.9,131.1 440.2,130.8"/>
    <polyline points="599.5,85.1 599.5,85.7 600.9,85.6 601.0,85.1 599.5,85.1"/>
    <polyline points="467.3,236.0 462.1,244.6 455.5,255.0 451.5,261.1 447.3,266.7 442.7,272.8 439.6,277.2 434.8,284.3 427.7,294.9 423.9,300.4 423.1,301.8 422.9,302.3 422.7,302.8 422.7,303.1 422.6,303.6 422.1,307.4 421.9,308.7 421.5,309.8 421.2,310.8 420.8,311.5 419.9,313.0 414.2,321.3 412.4,323.8 412.2,324.1 412.0,324.3 411.1,325.4 407.1,329.7 406.7,330.2 405.0,332.8 400.4,339.7 397.0,344.5 393.6,349.4 388.9,356.6 383.4,364.9 377.0,374.4 371.4,383.0 366.8,390.2 353.1,411.1 351.8,413.3 350.6,415.4 349.8,417.0 349.0,419.2 348.1,422.2 347.1,426.6"/>
    <polyline points="347.4,426.7 348.5,422.2 349.2,419.5 349.8,417.6 351.2,414.9 352.1,413.4 353.5,411.1 367.1,390.3 371.8,383.1 377.4,374.5 383.8,364.9 389.1,356.7 394.0,349.4 397.4,344.5 400.7,339.8 405.3,332.9 407.1,330.3 407.5,329.8 411.5,325.4 412.4,324.4 412.6,324.2 412.8,323.9 414.6,321.3 420.3,313.2 421.1,311.8 421.6,310.9 421.8,310.4 422.0,309.9 422.2,308.8 422.5,307.4 422.9,303.7 423.0,303.0 423.2,302.5 423.4,302.0 423.8,301.1 424.2,300.5 428.0,294.9 435.1,284.4 440.0,277.2 443.0,272.9 447.8,266.8 451.8,261.1 455.9,255.1 462.4,244.6 467.6,236.1"/>
  </g>

  <!-- 지하철 역 -->
  <g>
    <circle cx="222.9" cy="301.0" r="3" fill="#dc2626" stroke="#fff" stroke-width="1"/>
    <circle cx="274.3" cy="303.0" r="3" fill="#dc2626" stroke="#fff" stroke-width="1"/>
  </g>
</svg>