<?xml version="1.0" encoding="UTF-8"?>
<svg width="800" height="600" xmlns="http://www.w3.org/2000/svg">
  <title>Mexico City Subway Map</title>
  <rect width="100%" height="100%" fill="#f8f9fa"/>
  <g stroke="#2563eb" stroke-width="3" fill="none">
    <polyline points="558.8,334.9 551.9,334.9 551.6,334.9 546.4,334.6 546.2,334.6 546.0,334.6 545.8,334.6 545.6,334.6 545.4,334.6 545.2,334.7 545.0,334.8 544.8,334.8 544.4,335.0 543.8,335.4 543.7,335.5 543.5,335.6 543.4,335.8 543.2,335.9"/>
    <polyline points="477.4,354.5 475.6,354.6 475.3,354.6 474.9,354.7 474.4,354.7 473.1,354.7 472.4,354.7 471.8,354.7 471.0,354.6 470.0,354.6 467.0,354.2 460.0,353.4 459.4,353.4 457.8,353.3 457.4,353.3 455.3,353.5 448.7,353.8 446.0,353.8 435.9,354.5 434.7,354.6 434.2,354.6 433.9,354.7 433.7,354.8 432.9,355.2 432.5,355.4 432.2,355.6 431.8,355.7 429.8,355.9 426.7,356.1 418.5,356.7 403.2,357.6 400.8,357.7 400.6,357.7 392.4,358.1 391.8,358.0 390.5,358.1 389.6,358.2 383.9,358.6 378.9,358.7 378.2,358.7 377.5,358.8"/>
    <polyline points="523.1,335.3 522.2,339.9 522.1,340.1 522.1,340.3 522.2,340.7 522.3,341.0 522.4,341.3 522.4,341.6 522.4,341.9 522.4,342.4 522.5,343.3 522.5,343.5 522.5,343.7 522.6,343.9 522.8,344.0 523.5,344.7 524.3,345.5 524.6,345.7 524.8,345.9 525.0,346.1 525.0,346.2 525.1,346.4 525.1,346.5 525.1,346.7 525.1,346.8 524.9,347.2 524.6,348.1 524.3,348.9"/>
    <polyline points="547.7,345.9 538.6,344.9 538.5,344.8 537.3,344.5 535.8,343.7"/>
    <polyline points="526.9,342.2 526.8,342.5 526.5,343.3 526.3,343.9 526.3,344.0 526.2,344.7 526.0,345.1 525.6,346.1 525.5,346.3 525.4,346.6 525.3,346.9"/>
    <polyline points="491.1,221.0 487.0,226.3 485.6,228.2"/>
    <polyline points="529.2,339.9 527.7,338.8 526.3,337.9 525.6,337.3 525.4,337.0 525.0,336.4 524.7,335.9 524.3,335.4 523.8,334.9 523.1,334.4 521.3,333.4 519.8,332.5 512.8,328.5 512.5,328.3 506.9,325.1 506.6,324.6 506.2,324.2 506.1,323.8 506.0,323.4 506.1,323.0 511.4,313.5 511.5,313.4 512.3,312.4 514.3,310.2 514.6,309.7 514.9,309.3 515.2,308.5"/>
    <polyline points="461.1,271.7 456.1,270.1 455.5,269.9 452.8,269.0 451.3,268.6 449.9,268.0 447.0,267.1 446.8,267.0 446.1,266.7 443.8,265.4 441.9,264.2 441.9,264.2 438.2,262.0 437.4,261.2 436.6,260.1 436.2,259.5 435.8,259.0"/>
    <polyline points="458.6,205.2 458.8,204.9 459.7,203.0 459.9,202.5 460.0,202.4 460.1,202.3 460.2,202.2 460.3,202.1 460.5,202.1 460.7,202.0 460.8,202.0 460.9,202.1 461.0,202.1 461.2,202.1 461.3,202.2 461.4,202.2 461.5,202.3 461.6,202.4 461.7,202.5 461.7,202.5 461.9,203.0 461.9,203.5 461.7,204.2 460.8,208.4 460.7,209.0 460.6,209.5 460.6,209.9 460.3,211.2"/>
    <polyline points="488.4,235.0 482.9,232.6 481.0,231.9 478.7,231.4 478.1,231.3 477.9,231.2 477.4,231.1 477.2,231.1 476.9,231.2 476.7,231.3 476.1,231.7 475.5,232.3 474.6,233.4 474.2,233.7 474.1,233.9 474.0,234.0 473.5,234.3 473.2,234.6 473.1,234.6 472.8,234.7 472.6,234.7 472.3,234.8 471.9,234.9 471.6,234.9 471.3,234.9 470.9,234.8 469.3,234.5 468.2,234.3 467.0,234.1 465.1,233.9 461.9,233.8 461.2,233.8 460.7,233.8 458.7,233.1 455.6,232.1 454.3,231.7 453.7,231.4 453.0,231.3 451.9,231.0 451.0,230.9 450.3,230.7 449.9,230.6 449.3,230.5 448.9,230.3 447.9,229.6 441.9,225.2 441.7,225.1 441.4,225.0 439.9,224.7 436.2,223.9 435.7,223.8 435.3,223.6 434.1,223.2 432.2,222.2 431.8,222.1 431.5,222.0 427.7,221.6 418.4,219.6 415.7,219.0 412.3,218.3 408.1,217.4 406.5,217.2 405.2,217.0 404.8,217.0 404.2,217.0 404.0,217.1 403.8,217.2 403.2,217.6 401.8,218.5 399.0,220.3 397.3,221.5 394.1,223.5 393.6,223.7 392.9,223.9 392.4,224.0 392.1,224.0 391.6,224.0 391.0,223.9 390.6,223.7 390.1,223.6 387.5,222.2 386.6,221.7 385.6,221.3 384.7,220.9 381.6,219.9 381.2,219.8 380.7,219.7 378.6,219.5 377.4,219.3 376.1,219.1 374.1,218.8 373.2,218.6 372.6,218.4 372.1,218.4 371.0,218.5 369.2,218.8 368.8,218.9 368.0,219.0 363.6,219.9 357.8,220.8 357.5,220.8 357.2,220.8 356.8,220.8 356.6,220.7 348.6,218.5 344.1,217.2 343.8,217.1 343.5,217.0 343.3,216.8 342.0,215.5 341.8,215.4 341.6,215.2 341.2,215.1 339.0,214.4 336.7,213.4 335.7,213.0 334.0,212.4 332.3,211.8 328.4,210.6 328.0,210.4 327.7,210.2 327.5,210.0 327.0,209.4 325.8,208.0 324.2,206.6 323.8,206.2 323.6,205.8 323.4,205.3 323.3,204.9 323.3,204.5 323.4,204.1 323.6,203.4 324.2,201.3"/>
    <polyline points="390.3,289.7 393.8,290.4 396.4,290.7 400.9,291.5 404.7,292.2 415.5,293.9 417.4,294.3 427.2,295.8 427.9,295.9 440.5,297.1 441.3,297.1 442.0,297.2 443.2,297.2 452.5,297.8 453.4,297.9 454.0,298.1 454.5,298.3 454.9,298.5 455.6,299.0 459.9,303.6 460.8,304.7 461.2,305.1 461.5,305.2 461.9,305.4 462.3,305.5 466.2,305.7 466.8,305.9 467.2,306.1 467.4,306.3 467.6,306.4 467.7,306.6 467.8,306.7 467.9,306.9 468.0,307.0 468.0,307.1 468.1,307.3 468.1,307.5 468.1,307.7 468.1,308.0 468.1,308.1 468.1,308.4 468.1,308.4 468.0,308.7 467.9,309.1 467.6,310.3"/>
    <polyline points="299.0,270.2 299.0,269.3 299.0,269.1 299.0,269.0 299.0,268.8 299.0,268.6 299.1,268.4 299.1,268.2 299.2,268.1 299.3,267.9 299.3,267.7 299.4,267.6 300.1,265.5 300.2,265.3 300.3,265.1 300.5,264.8 300.7,264.6 301.0,264.5 301.1,264.4 301.3,264.3 301.6,264.2 301.8,264.2 302.0,264.2 302.3,264.3 302.6,264.4 303.9,265.0 304.1,265.0 304.2,265.1 304.4,265.1 304.5,265.2 304.7,265.2 304.8,265.3 304.9,265.4 305.1,265.6 305.2,265.8 306.2,266.6 306.4,266.8 306.7,267.1 306.9,267.3 307.1,267.5 307.4,267.6 307.7,267.8 307.8,267.9 308.0,268.0 308.3,268.1 308.6,268.3 308.9,268.4 309.3,268.5 312.4,269.4 319.1,271.2 319.8,271.4 320.6,271.6 322.5,272.3 323.2,272.4 323.5,272.5 324.0,272.5 324.4,272.5 327.5,271.9 329.4,271.5 330.5,271.3 333.0,270.8 334.1,270.5 335.6,270.1 336.7,270.0 337.3,270.0 338.8,270.0 339.7,269.9 340.6,269.7 341.3,269.6 341.8,269.7 342.3,269.8 343.9,270.1 345.3,270.4 353.9,272.5 354.4,272.6 354.9,272.8 355.1,272.9 356.6,274.0 358.4,275.5 360.6,276.6 363.2,278.9 366.6,281.2 366.6,281.3 370.3,283.7 372.8,287.2 376.9,293.1 380.2,295.0 384.1,297.3 388.2,298.2 389.0,298.4 389.8,298.7 391.3,299.3 402.7,304.0 403.2,304.2 403.8,304.5 403.9,304.5 411.4,306.1 414.0,306.6 418.5,307.6 421.0,308.1 424.0,308.8 426.0,309.1"/>
    <polyline points="549.4,455.8 550.5,456.4 551.6,457.0 553.3,457.7"/>
    <polyline points="498.7,353.4 498.2,353.4 497.6,353.3 496.9,353.4 496.4,353.4 495.2,353.5 494.5,353.6 493.8,353.7 491.8,354.1 491.3,354.2 490.8,354.3 490.2,354.3 489.3,354.4 487.5,354.4 485.7,354.4 484.8,354.4 483.5,354.4"/>
    <polyline points="468.4,277.2 468.5,276.7 468.5,276.5 468.4,276.3 468.3,276.1 468.1,275.9"/>
    <polyline points="467.2,312.3 467.0,313.5 467.0,313.8 467.0,314.2 467.1,314.6 467.2,314.8 467.3,315.0 467.5,315.2 467.7,315.4 468.0,315.6 468.2,315.7 468.6,315.8 468.9,315.8 469.2,315.8 469.7,315.7 470.3,315.5 470.8,315.3 472.9,314.3 474.3,313.6 475.7,312.8 476.4,312.4 478.7,311.5 482.9,309.8 484.4,309.1 486.6,308.2 488.5,307.3 497.9,303.1 500.5,302.0 502.4,301.2 503.6,300.5 506.3,298.7 507.2,298.0 514.1,293.1 515.4,292.2 516.5,291.4 518.1,290.2 519.6,289.2"/>
    <polyline points="325.3,198.2 325.9,196.3 326.6,194.2 326.7,193.9"/>
    <polyline points="327.1,196.7 327.2,196.4 327.3,196.2 327.3,196.0 327.3,195.9 327.2,195.2 327.2,194.9 327.2,194.6 327.1,194.3 327.1,194.0 327.1,193.8 327.2,193.6 327.5,192.7 328.1,190.7 328.2,190.5 328.2,190.3 328.6,188.2 328.6,188.1 328.7,187.9"/>
    <polyline points="326.7,201.8 327.7,199.0 328.1,197.1 328.2,196.7 328.1,196.2 327.6,194.5 327.4,193.8 327.4,193.3 327.4,193.0"/>
    <polyline points="327.7,202.2 328.6,199.5 328.6,198.7 328.5,197.9 328.3,196.9 328.1,196.2"/>
    <polyline points="435.9,336.6 435.6,338.6 435.5,339.1 435.4,339.7 435.4,340.2 435.0,342.0 434.8,343.4 434.7,344.4 434.5,345.6 434.3,347.1 434.1,348.2 433.9,349.2 433.7,350.8 433.6,351.7 433.3,353.3 433.1,354.6 432.9,355.7 432.4,358.8 432.2,360.4 431.8,362.7"/>
    <polyline points="545.5,454.1 544.7,453.7 543.1,453.1 536.5,450.2 534.8,449.3 532.8,448.4 527.9,446.2 527.3,445.9 524.5,444.7 521.8,443.5 518.8,442.2 517.4,441.5 516.6,441.1 513.4,438.9 512.3,438.1 511.4,437.5 510.8,437.1 510.1,436.9 509.4,436.9 508.8,437.0 505.6,437.7 503.5,438.2 495.9,440.4 493.4,440.7 490.5,441.2 489.0,441.4 487.9,441.4 485.4,441.2 476.9,440.4 476.0,440.3 475.4,440.0 474.9,439.4 474.5,438.4 474.3,437.8 476.8,426.4 478.4,420.5"/>
    <polyline points="475.5,399.8 475.5,399.8 475.1,398.8 474.6,397.1 473.8,393.7 472.6,388.1 472.0,385.6 471.8,384.9 471.5,384.3 470.0,381.4 469.8,380.8 469.7,380.4 469.7,379.9 469.8,379.4 470.2,377.4 470.3,376.9 470.4,376.1 470.5,375.5 470.4,374.0 470.3,372.9 470.2,369.6 470.0,367.8"/>
    <polyline points="470.0,367.8 470.0,367.1 469.9,366.8 469.8,366.5 469.6,366.2 469.5,366.0 469.3,365.8 469.0,365.7 468.7,365.5 468.4,365.4 468.1,365.3 466.1,365.3 464.1,365.3 463.8,365.3 463.4,365.2 463.0,364.9 462.6,364.6 461.9,363.8 460.7,362.5 460.4,362.3 460.1,362.2 458.2,361.6 457.5,361.4 456.4,361.0 455.7,360.8 455.3,360.7 454.8,360.8 451.9,361.2 451.2,361.2 450.7,361.1 450.2,361.0 449.8,360.7 449.5,360.3 449.3,359.7 449.2,359.0 448.8,357.5 448.6,356.3 448.5,356.0 448.4,355.7 448.3,355.4 448.2,355.2 448.0,354.9 447.7,354.7 447.5,354.5 446.1,353.7 445.4,353.3 443.4,352.1 443.1,352.0 442.9,351.9 442.6,351.9 441.1,352.0 440.3,351.9 439.2,351.9 438.7,351.8 438.0,351.7 437.3,351.7 436.3,351.6 435.5,351.6 434.8,351.5 433.5,351.5 429.8,351.3 427.3,351.1 422.2,350.8 420.9,350.7 420.4,350.6 419.9,350.3 419.6,350.0 419.4,349.7 419.2,349.4 419.1,349.1 419.0,348.8 419.0,348.5 419.0,348.2 419.1,346.7 419.4,344.2 420.5,333.1 420.8,330.9 421.1,329.6 422.5,324.3 422.6,323.6 423.7,316.9 423.7,316.7 423.7,316.5 424.3,313.1 425.2,307.6 426.0,302.5 426.4,300.8 426.9,297.9 427.0,297.7 427.1,297.4 428.0,296.0"/>
    <polyline points="519.6,289.2 521.5,287.9 522.8,287.0 523.9,286.2 524.9,285.7 527.6,284.2 528.6,283.7 529.3,283.2 533.8,280.0 537.7,277.2 543.0,273.5 544.1,272.6 549.1,269.1 549.7,268.9 550.2,268.7 550.9,268.5 557.3,266.7 559.3,266.2 559.7,266.0 560.1,265.8 560.8,265.3 561.1,264.8 561.5,264.1 561.9,263.3 562.5,261.8 562.7,261.2 563.7,259.2"/>
    <polyline points="435.8,259.0 431.7,253.5 431.0,252.5 430.2,251.3 429.8,250.4"/>
    <polyline points="426.1,241.3 424.9,238.3 424.8,238.1 419.6,225.2 418.3,221.6 417.8,220.6 415.9,215.6"/>
    <polyline points="426.5,242.3 426.1,241.3"/>
    <polyline points="409.4,199.8 408.9,198.8 407.8,196.2"/>
    <polyline points="409.4,199.8 409.3,199.1 408.1,196.1"/>
    <polyline points="424.4,458.5 424.5,458.5 424.9,458.6 425.2,458.7 425.4,458.8 425.5,459.0 425.6,459.3 425.7,459.5 425.8,459.7 425.9,459.9 426.1,460.2 426.2,460.3 426.3,460.4 426.6,460.6 426.9,460.7 427.4,460.8 427.7,460.9"/>
    <polyline points="420.7,460.9 424.3,461.0 424.5,461.0 424.7,461.0 424.9,461.0 425.0,461.0 425.1,461.0 425.3,461.0 425.5,461.0 425.7,460.9 425.8,460.9 426.0,460.9 426.3,460.9 426.6,460.9 427.3,461.0 427.9,461.0 428.1,461.0 428.4,461.2"/>
    <polyline points="419.9,460.7 424.7,460.9"/>
    <polyline points="429.9,463.4 429.9,463.3 429.9,463.1 429.9,463.0 429.9,462.9 429.9,462.7 429.9,462.5 429.9,462.4 429.8,462.2 429.8,462.1 429.7,461.9 429.6,461.8 429.5,461.7 429.3,461.6 429.1,461.5 428.3,461.0 428.0,460.9 427.8,460.9 427.7,460.9"/>
    <polyline points="654.1,429.7 652.4,428.4 652.2,428.2 651.9,427.9 651.3,427.4 650.4,426.7 649.5,426.0 649.4,425.9 647.3,424.3 646.1,423.3 645.4,422.8 644.8,422.3 642.8,420.8 641.9,420.2 640.6,419.2 638.5,417.6 637.6,417.0 636.9,416.5 636.2,416.0 634.7,414.9 634.1,414.5 633.7,414.2 633.4,414.0 632.9,413.6 632.3,413.2 630.4,411.8 630.3,411.8 629.7,411.3 628.1,410.3 627.4,409.8 626.1,408.8 625.2,408.2 624.7,407.8 622.9,406.5 621.1,405.1 620.4,404.6 619.9,404.2 619.6,404.0 619.2,403.8 617.8,403.0 615.9,401.8 615.2,401.4 614.2,400.8 613.9,400.6 613.2,400.2 612.5,399.8 611.5,399.2 610.3,398.6 607.7,397.2 606.4,396.4 605.6,396.0 603.9,395.0 602.9,394.4 601.6,393.7 601.3,393.5 599.3,392.4 589.5,386.8 587.4,385.6 581.5,382.3 579.6,381.3 576.9,379.8 572.7,377.5 568.7,375.2 567.3,374.4 565.9,373.6 563.2,372.0 561.7,371.2 559.6,369.9 557.4,368.7 552.1,365.8 549.7,364.4 547.5,363.2 546.1,362.3 545.2,361.8 544.0,361.0 543.8,360.9 542.7,360.3 539.5,358.5"/>
    <polyline points="721.7,443.7 721.4,443.5 721.1,443.2 720.7,442.9 720.2,442.4"/>
    <polyline points="662.5,433.5 662.4,433.5 660.2,433.1 658.0,432.2 655.2,430.6"/>
    <polyline points="729.7,460.8 728.6,458.4 728.3,457.8 728.2,457.5 728.0,456.5 728.0,456.4 727.9,456.3 727.7,455.8 727.6,455.7 727.5,455.4 727.4,455.3 727.4,455.1 727.2,454.6 726.9,454.0 726.4,453.0 726.2,452.5 726.1,452.3 726.0,452.0 725.7,451.6"/>
    <polyline points="716.6,439.8 716.1,439.4 715.5,439.1 714.8,438.7 714.1,438.3 713.4,438.0 712.8,437.6 712.1,437.3 711.9,437.2 711.2,436.9 710.6,436.7 709.6,436.4 708.7,436.1 708.0,436.0 707.6,435.9 706.9,435.7 706.3,435.6 705.4,435.5 705.1,435.4 704.7,435.4 704.4,435.4 704.1,435.3 703.6,435.3 703.0,435.4 702.8,435.4 702.4,435.4 701.8,435.5 701.0,435.7 700.3,435.7 699.6,435.8 698.4,436.0 697.2,436.2 696.9,436.3 696.3,436.4 695.7,436.4 695.5,436.5 695.2,436.5 695.0,436.5 694.6,436.5 694.0,436.5 693.7,436.4 693.0,436.4 691.6,436.3 690.1,436.1 688.7,436.0 686.7,435.8 684.2,435.6 683.3,435.5 682.5,435.4 681.9,435.4 681.5,435.3 680.7,435.3 679.9,435.2 678.4,435.0 675.7,434.8 674.4,434.6 673.5,434.4 673.1,434.4 672.5,434.4 671.7,434.3 670.4,434.2 669.2,434.1 667.8,433.9 666.7,433.8 666.2,433.8 664.8,433.7"/>
    <polyline points="725.6,451.4 725.7,451.6 726.0,452.1 726.1,452.3 726.4,453.1 726.9,454.1 727.0,454.3 727.1,454.5 727.2,454.8 727.3,455.1 727.4,455.2 727.5,455.4 727.5,455.6 727.5,455.7 727.5,455.9 727.5,456.0 727.5,456.2 727.5,456.3 727.5,456.4 727.4,456.6 727.2,457.0 726.8,457.9 726.6,458.4 726.4,458.9 726.3,459.1 726.3,459.2 726.3,459.3 726.3,459.5 726.3,459.6 726.3,459.8 726.4,460.1"/>
    <polyline points="540.3,342.2 540.5,341.8 540.9,341.0 541.7,339.7 542.1,339.0 542.7,337.6"/>
    <polyline points="537.5,357.4 536.4,356.7 536.2,356.6 536.0,356.5 535.9,356.3 535.7,356.1 535.5,356.0 535.4,355.8 535.2,355.6 535.0,355.3 534.9,354.8 534.8,354.5 534.8,354.2 534.8,353.6 534.7,352.7 534.7,352.2 534.6,351.3 534.6,351.1 534.6,350.9 534.6,350.7 534.6,350.5 534.7,350.3 534.7,350.2 534.9,349.7 537.3,346.1 538.2,345.1 538.5,344.8 538.7,344.6 538.8,344.5 538.9,344.4 539.0,344.2 540.2,342.4"/>
    <polyline points="542.7,337.6 543.5,336.2 543.6,336.0 543.7,335.9 543.8,335.7 543.9,335.6 544.0,335.5 544.1,335.4 544.2,335.4 544.3,335.3 544.5,335.2 544.7,335.1 545.1,335.0 545.3,334.9 545.5,334.9 545.6,334.9 545.8,334.9 545.9,334.9 546.0,334.9"/>
    <polyline points="524.4,349.1 524.4,350.0 524.6,350.5 524.8,350.7 525.1,350.9"/>
    <polyline points="535.0,341.4 535.1,340.7 535.3,338.4"/>
    <polyline points="319.4,373.6 321.9,372.4 323.6,371.7"/>
    <polyline points="535.3,338.4 535.6,335.6 535.8,334.9 535.8,334.8 536.2,332.1"/>
    <polyline points="323.6,371.7 323.7,371.7 323.8,371.6 324.9,371.4"/>
    <polyline points="323.0,371.9 322.8,371.9 321.7,372.1 319.2,373.3"/>
    <polyline points="326.7,371.0 327.1,370.9 330.1,370.2 330.8,370.0 334.2,368.5 335.5,367.8 336.6,367.2 337.4,366.9 337.8,366.7 338.6,366.3 338.8,366.2 339.0,366.1 339.2,366.1 339.4,366.1 339.6,366.0 340.6,365.9 341.9,365.9 342.8,365.9 343.3,365.8 343.6,365.8 343.9,365.7 344.2,365.5 344.5,365.4 344.8,365.3 345.2,365.0 345.7,364.6 346.1,364.3 346.8,363.7 347.5,363.2 347.9,362.9 349.4,360.2 351.4,356.5 352.8,354.2 354.0,351.8 355.0,348.9 355.8,347.1 356.4,345.6 356.9,344.2 357.5,342.7 358.0,341.5 359.1,339.1 360.3,336.2 360.8,335.6 361.2,335.2 361.7,334.9 362.2,334.7 364.4,334.3 368.3,333.6 374.5,332.3 381.9,330.6 387.5,329.3 401.5,326.2 403.6,325.7 407.5,324.7 411.0,323.7 411.3,323.6 411.8,323.5 412.3,323.5 413.2,323.5 415.6,323.7 418.0,323.8 420.2,324.1 421.3,324.2"/>
  </g>
  <g>
    <circle cx="417.6" cy="445.5" r="4" fill="#dc2626"/>
    <circle cx="423.2" cy="418.4" r="4" fill="#dc2626"/>
    <circle cx="425.6" cy="402.5" r="4" fill="#dc2626"/>
    <circle cx="427.6" cy="389.0" r="4" fill="#dc2626"/>
    <circle cx="429.5" cy="376.4" r="4" fill="#dc2626"/>
    <circle cx="431.1" cy="367.2" r="4" fill="#dc2626"/>
    <circle cx="522.0" cy="356.6" r="4" fill="#dc2626"/>
    <circle cx="507.1" cy="354.5" r="4" fill="#dc2626"/>
    <circle cx="487.5" cy="354.4" r="4" fill="#dc2626"/>
    <circle cx="418.5" cy="356.7" r="4" fill="#dc2626"/>
    <circle cx="509.0" cy="341.4" r="4" fill="#dc2626"/>
    <circle cx="422.5" cy="324.3" r="4" fill="#dc2626"/>
    <circle cx="483.8" cy="283.7" r="4" fill="#dc2626"/>
    <circle cx="499.0" cy="283.9" r="4" fill="#dc2626"/>
    <circle cx="613.9" cy="146.5" r="4" fill="#dc2626"/>
    <circle cx="609.4" cy="156.5" r="4" fill="#dc2626"/>
    <circle cx="604.1" cy="168.3" r="4" fill="#dc2626"/>
    <circle cx="599.6" cy="178.5" r="4" fill="#dc2626"/>
    <circle cx="589.6" cy="201.1" r="4" fill="#dc2626"/>
    <circle cx="581.5" cy="219.0" r="4" fill="#dc2626"/>
    <circle cx="578.0" cy="227.1" r="4" fill="#dc2626"/>
    <circle cx="568.6" cy="248.4" r="4" fill="#dc2626"/>
    <circle cx="544.1" cy="272.6" r="4" fill="#dc2626"/>
    <circle cx="527.6" cy="284.2" r="4" fill="#dc2626"/>
    <circle cx="502.4" cy="301.2" r="4" fill="#dc2626"/>
    <circle cx="486.6" cy="308.2" r="4" fill="#dc2626"/>
    <circle cx="343.6" cy="431.9" r="4" fill="#dc2626"/>
    <circle cx="348.0" cy="394.0" r="4" fill="#dc2626"/>
    <circle cx="340.0" cy="349.1" r="4" fill="#dc2626"/>
    <circle cx="338.6" cy="327.3" r="4" fill="#dc2626"/>
    <circle cx="340.8" cy="313.2" r="4" fill="#dc2626"/>
    <circle cx="341.6" cy="253.6" r="4" fill="#dc2626"/>
    <circle cx="342.3" cy="237.9" r="4" fill="#dc2626"/>
    <circle cx="333.6" cy="219.0" r="4" fill="#dc2626"/>
    <circle cx="512.3" cy="312.4" r="4" fill="#dc2626"/>
    <circle cx="512.8" cy="328.5" r="4" fill="#dc2626"/>
    <circle cx="424.9" cy="238.3" r="4" fill="#dc2626"/>
    <circle cx="434.1" cy="223.2" r="4" fill="#dc2626"/>
    <circle cx="332.3" cy="211.8" r="4" fill="#dc2626"/>
    <circle cx="348.6" cy="218.5" r="4" fill="#dc2626"/>
    <circle cx="369.2" cy="218.8" r="4" fill="#dc2626"/>
    <circle cx="387.5" cy="222.2" r="4" fill="#dc2626"/>
    <circle cx="399.0" cy="220.3" r="4" fill="#dc2626"/>
    <circle cx="461.9" cy="233.8" r="4" fill="#dc2626"/>
    <circle cx="553.3" cy="457.7" r="4" fill="#dc2626"/>
    <circle cx="516.6" cy="441.1" r="4" fill="#dc2626"/>
    <circle cx="534.8" cy="449.3" r="4" fill="#dc2626"/>
    <circle cx="476.8" cy="402.9" r="4" fill="#dc2626"/>
    <circle cx="472.6" cy="388.1" r="4" fill="#dc2626"/>
    <circle cx="476.8" cy="426.4" r="4" fill="#dc2626"/>
    <circle cx="479.9" cy="412.5" r="4" fill="#dc2626"/>
    <circle cx="471.8" cy="354.7" r="4" fill="#dc2626"/>
    <circle cx="448.8" cy="357.5" r="4" fill="#dc2626"/>
    <circle cx="419.1" cy="346.7" r="4" fill="#dc2626"/>
    <circle cx="420.5" cy="333.1" r="4" fill="#dc2626"/>
    <circle cx="423.7" cy="316.9" r="4" fill="#dc2626"/>
    <circle cx="339.4" cy="294.3" r="4" fill="#dc2626"/>
    <circle cx="349.2" cy="383.1" r="4" fill="#dc2626"/>
    <circle cx="440.5" cy="297.1" r="4" fill="#dc2626"/>
    <circle cx="452.5" cy="297.8" r="4" fill="#dc2626"/>
    <circle cx="378.2" cy="358.7" r="4" fill="#dc2626"/>
    <circle cx="667.8" cy="434.0" r="4" fill="#dc2626"/>
    <circle cx="698.4" cy="436.1" r="4" fill="#dc2626"/>
    <circle cx="725.1" cy="450.1" r="4" fill="#dc2626"/>
    <circle cx="631.3" cy="412.6" r="4" fill="#dc2626"/>
    <circle cx="600.3" cy="393.0" r="4" fill="#dc2626"/>
    <circle cx="560.5" cy="370.5" r="4" fill="#dc2626"/>
    <circle cx="543.7" cy="361.0" r="4" fill="#dc2626"/>
    <circle cx="521.6" cy="348.6" r="4" fill="#dc2626"/>
    <circle cx="450.1" cy="326.3" r="4" fill="#dc2626"/>
    <circle cx="429.5" cy="325.0" r="4" fill="#dc2626"/>
    <circle cx="401.5" cy="326.2" r="4" fill="#dc2626"/>
    <circle cx="619.6" cy="542.8" r="4" fill="#dc2626"/>
    <circle cx="406.7" cy="432.3" r="4" fill="#dc2626"/>
    <circle cx="374.5" cy="414.8" r="4" fill="#dc2626"/>
    <circle cx="499.9" cy="496.9" r="4" fill="#dc2626"/>
    <circle cx="516.3" cy="499.7" r="4" fill="#dc2626"/>
    <circle cx="454.8" cy="438.3" r="4" fill="#dc2626"/>
    <circle cx="477.8" cy="472.6" r="4" fill="#dc2626"/>
    <circle cx="372.6" cy="287.3" r="4" fill="#dc2626"/>
    <circle cx="465.8" cy="287.9" r="4" fill="#dc2626"/>
    <circle cx="469.5" cy="272.7" r="4" fill="#dc2626"/>
    <circle cx="472.7" cy="261.8" r="4" fill="#dc2626"/>
    <circle cx="460.3" cy="320.9" r="4" fill="#dc2626"/>
    <circle cx="458.5" cy="332.9" r="4" fill="#dc2626"/>
    <circle cx="456.4" cy="350.5" r="4" fill="#dc2626"/>
    <circle cx="361.2" cy="358.5" r="4" fill="#dc2626"/>
    <circle cx="441.9" cy="264.2" r="4" fill="#dc2626"/>
    <circle cx="459.5" cy="271.2" r="4" fill="#dc2626"/>
    <circle cx="485.3" cy="487.1" r="4" fill="#dc2626"/>
    <circle cx="426.5" cy="461.3" r="4" fill="#dc2626"/>
    <circle cx="470.2" cy="371.2" r="4" fill="#dc2626"/>
    <circle cx="650.4" cy="426.8" r="4" fill="#dc2626"/>
    <circle cx="503.5" cy="438.2" r="4" fill="#dc2626"/>
    <circle cx="374.4" cy="332.3" r="4" fill="#dc2626"/>
    <circle cx="404.7" cy="292.2" r="4" fill="#dc2626"/>
    <circle cx="417.3" cy="294.4" r="4" fill="#dc2626"/>
    <circle cx="367.2" cy="443.9" r="4" fill="#dc2626"/>
    <circle cx="364.0" cy="474.0" r="4" fill="#dc2626"/>
    <circle cx="369.3" cy="493.1" r="4" fill="#dc2626"/>
  </g>
</svg>