<?xml version="1.0" encoding="UTF-8"?>
<svg width="800" height="600" viewBox="0 0 800 600" 
     xmlns="http://www.w3.org/2000/svg">
  <title>Miami Subway Map</title>
  <rect width="100%" height="100%" fill="#f8f9fa"/>

  <!-- 지하철 선로 -->
  <g id="subway-lines" stroke="#2563eb" stroke-width="3" fill="none">
    <polyline points="347.3,110.6 347.4,109.4 347.5,108.9 347.8,108.0 347.9,107.6 348.0,107.1" opacity="0.8"/>
    <polyline points="344.2,99.5 343.4,99.5 343.2,99.5 342.9,99.6 342.7,99.7 342.4,99.8 342.2,100.0 342.0,100.2 341.8,100.5 341.7,100.8 341.5,101.1 341.4,101.4 341.4,101.9 341.4,102.1 341.4,102.3 341.5,109.8 341.5,110.3" opacity="0.8"/>
    <polyline points="347.9,108.0 347.8,108.5 347.8,110.6" opacity="0.8"/>
    <polyline points="347.2,117.6 346.9,116.6 346.7,115.9 346.6,115.3 346.6,115.0 346.6,114.3 346.6,113.7" opacity="0.8"/>
    <polyline points="346.4,113.7 346.4,114.7 346.4,115.1 346.5,115.5 346.6,115.9 346.9,116.6" opacity="0.8"/>
    <polyline points="505.7,126.6 505.7,124.9 505.6,121.7 505.6,120.9 505.5,118.9 505.4,116.9 505.4,114.9 505.3,112.9 505.2,111.0 505.2,109.0 505.1,107.0 505.0,105.0" opacity="0.8"/>
    <polyline points="341.7,104.9 341.7,105.2 341.9,112.4 341.9,112.9" opacity="0.8"/>
    <polyline points="341.9,102.4 342.0,102.7 342.1,103.4 342.2,104.1 342.3,105.2" opacity="0.8"/>
    <polyline points="342.1,113.9 342.2,114.4 342.3,114.8 342.4,115.0 342.4,115.0 342.5,115.3 342.6,115.4 342.9,115.7 343.1,116.0 343.3,116.1 344.3,116.5" opacity="0.8"/>
    <polyline points="342.7,114.0 342.8,114.6 342.8,114.8 342.9,114.9 342.9,115.0 343.1,115.4 343.2,115.6 343.2,115.6 343.4,115.9 343.6,116.1 343.9,116.3 344.3,116.5 344.4,116.6 344.6,116.7 344.9,116.9 345.1,117.2 345.3,117.5 345.4,117.7 345.5,118.1 345.6,118.4 345.7,118.6 345.7,119.0 345.7,119.4 345.6,119.8 345.5,120.0 345.4,120.3 345.2,120.7 345.1,120.8 344.9,121.1 344.8,121.2 344.6,121.4 344.3,121.5 344.1,121.6 343.8,121.7 343.4,121.7" opacity="0.8"/>
    <polyline points="346.1,99.7 345.3,99.6 344.5,99.6 344.3,99.7 344.1,99.7 343.7,99.9 343.4,100.2 343.3,100.3 343.0,100.6 342.9,100.9 342.8,101.2 342.7,101.5 342.6,101.8 342.6,101.9 342.6,102.0 342.5,102.3 342.5,102.5" opacity="0.8"/>
    <polyline points="342.5,102.5 342.6,103.9 342.7,110.3 342.8,110.9 342.8,111.3" opacity="0.8"/>
    <polyline points="518.8,187.3 516.6,187.3 515.1,187.2 514.4,187.2 513.7,187.1 513.1,186.9 512.5,186.7 512.0,186.5 511.5,186.2 511.1,185.9 510.6,185.5 510.1,185.1 509.8,184.7 509.4,184.3 509.1,183.9 508.7,183.3 508.4,182.7 508.2,182.1 507.9,181.5 507.7,180.9 507.5,180.2 507.4,179.5 507.3,178.9 507.3,178.4 507.3,177.8 507.2,175.4 507.1,173.0 507.1,170.5 507.0,168.1 507.0,165.7 506.9,163.2 506.8,160.8 506.8,158.4 506.7,155.1 506.7,154.3 506.6,152.1 506.5,149.9 506.4,147.6 506.4,145.4 506.3,143.1 506.2,140.9 506.2,138.7 506.1,136.4 506.0,134.2 505.9,132.0" opacity="0.8"/>
    <polyline points="434.6,92.3 434.1,92.6 433.8,92.9 433.5,93.1 433.0,93.3 432.5,93.6 432.0,93.7 431.5,93.8 431.0,93.9 430.4,94.0 427.2,94.1 424.0,94.3 420.8,94.4 418.3,94.5 417.7,94.5 415.4,94.6 414.4,94.7 413.5,94.9 412.7,95.0 410.6,95.5 409.6,95.7 408.9,95.7 408.2,95.8 403.5,96.0 398.8,96.2 398.2,96.2 397.5,96.3" opacity="0.8"/>
    <polyline points="347.5,118.3 347.5,117.6 347.5,116.5 347.6,116.0 347.8,114.7 347.9,114.2 347.9,112.4" opacity="0.8"/>
    <polyline points="347.6,113.8 347.5,116.5" opacity="0.8"/>
    <polyline points="347.5,113.8 347.5,114.6 347.3,116.4 347.3,117.5 347.3,117.6 347.3,117.9 347.4,118.3 347.4,118.7 347.4,119.1" opacity="0.8"/>
    <polyline points="347.3,117.5 347.2,116.8 347.2,116.3 347.4,113.8" opacity="0.8"/>
    <polyline points="347.8,108.0 347.6,108.6 347.6,109.1 347.5,109.4 347.5,110.6" opacity="0.8"/>
    <polyline points="460.1,460.7 458.7,462.4 455.4,466.2" opacity="0.8"/>
    <polyline points="348.0,107.1 348.0,107.6 347.9,107.9 347.9,108.0 347.7,109.1 347.7,109.4 347.6,110.6" opacity="0.8"/>
    <polyline points="345.5,110.5 345.6,109.7 345.6,109.5 345.6,109.5 345.6,109.2 345.7,108.9 345.8,108.5 346.0,108.1 346.1,107.9 346.4,107.4 347.7,105.3 347.7,105.2 348.1,104.5 348.2,104.3 348.4,104.0 348.5,103.6 348.6,103.3 348.6,102.9 348.6,102.6 348.5,101.6" opacity="0.8"/>
    <polyline points="348.8,105.0 348.6,106.0 348.6,106.4 348.6,107.5 348.4,112.6 348.3,113.5 348.2,114.1" opacity="0.8"/>
    <polyline points="347.2,116.8 347.2,115.7 347.2,115.3 347.2,113.8" opacity="0.8"/>
    <polyline points="347.4,118.3 347.2,117.6 346.8,115.5 346.7,115.1 346.7,114.7 346.7,113.7" opacity="0.8"/>
    <polyline points="341.6,111.1 341.6,110.6 341.5,103.8 341.5,103.1" opacity="0.8"/>
    <polyline points="342.5,113.2 342.4,112.2 342.3,111.4 342.1,110.6 342.1,110.2 342.1,109.5 342.0,103.7 341.9,102.4 341.9,102.0 342.0,101.9 342.0,101.6 342.1,101.3 342.2,101.0 342.3,100.7 342.5,100.4 342.7,100.2 342.9,100.0 343.1,99.8 343.4,99.7 343.7,99.6 344.2,99.5 344.8,99.5" opacity="0.8"/>
    <polyline points="601.1,364.6 602.4,363.4 603.4,362.4 604.7,361.2 605.4,360.5 606.1,359.8" opacity="0.8"/>
    <polyline points="342.3,111.4 342.2,110.9 342.1,103.8 342.1,103.4" opacity="0.8"/>
    <polyline points="608.3,295.9 608.2,292.7 608.2,291.0 608.1,287.5 608.1,287.0 608.0,286.1 608.0,285.2 608.0,284.5 607.9,283.7 607.8,283.0 607.6,282.3 607.4,281.7 607.1,280.9 606.8,280.3 606.5,279.8 606.1,279.2 605.7,278.8 605.3,278.3 605.0,278.0 604.5,277.6 604.1,277.4 603.7,277.1 603.3,276.9 602.9,276.8 602.5,276.7 602.1,276.6 601.6,276.5 601.2,276.5" opacity="0.8"/>
    <polyline points="341.0,101.1 341.0,101.3 340.9,101.7 340.9,101.9 340.9,102.1 340.9,103.1 341.1,117.0 341.2,117.5 341.2,119.5 341.2,119.9 341.3,120.2 341.4,120.6 341.5,120.8 341.7,121.1 341.9,121.3 342.2,121.6 342.4,121.7 342.6,121.8 342.8,121.9 343.0,122.0 343.7,122.0" opacity="0.8"/>
    <polyline points="505.0,105.0 505.0,103.0 504.9,101.0 504.9,99.0 504.8,97.0 504.8,95.0 504.7,93.0 504.7,91.5 504.6,90.7" opacity="0.8"/>
    <polyline points="348.8,111.3 348.8,112.0 348.7,112.2 348.7,112.8 348.2,114.9 347.7,116.8 347.5,118.3 347.4,119.1 347.4,119.5 347.4,119.6 347.3,120.0 347.3,120.1 347.2,120.4 347.1,120.5 347.1,120.6 346.9,120.9 346.7,121.1 346.4,121.4 346.1,121.5 345.8,121.6 345.5,121.7 344.0,121.7 343.4,121.7 343.3,121.7 343.1,121.7 342.9,121.6 342.7,121.6 342.5,121.5 342.3,121.3 342.1,121.1 341.9,120.9 341.7,120.7 341.6,120.4 341.5,120.1 341.4,119.8 341.3,119.5 341.3,119.0 341.2,115.5 341.1,106.6 341.0,104.6" opacity="0.8"/>
    <polyline points="342.2,104.1 342.2,104.5 342.4,111.4 342.4,112.2" opacity="0.8"/>
    <polyline points="341.6,104.1 341.6,104.4 341.8,112.1" opacity="0.8"/>
    <polyline points="360.4,99.5 359.7,99.5 359.0,99.6" opacity="0.8"/>
    <polyline points="468.8,450.7 469.9,449.2" opacity="0.8"/>
    <polyline points="601.0,364.3 599.8,365.7 598.9,366.6 597.1,368.3 596.1,369.3 594.9,370.6" opacity="0.8"/>
    <polyline points="346.6,110.5 346.6,109.5 346.6,109.2 346.7,108.9 346.8,108.6 346.9,108.2 347.4,107.4 347.5,107.2 347.8,106.7 348.1,106.2 348.2,106.0 348.3,105.9 348.4,105.6 348.5,105.2 348.7,104.6" opacity="0.8"/>
    <polyline points="601.1,364.6 599.8,365.7" opacity="0.8"/>
    <polyline points="341.5,110.3 341.4,109.1 341.3,108.9 341.2,108.3 341.1,106.6" opacity="0.8"/>
    <polyline points="347.5,117.6 347.5,117.2 347.6,116.7 348.1,114.7 348.2,114.1 348.4,113.0 348.7,107.5 348.7,106.5 348.8,105.0" opacity="0.8"/>
    <polyline points="346.1,107.9 346.3,107.4 346.5,107.1 347.4,105.5 347.6,105.3 347.7,105.1 348.1,104.5" opacity="0.8"/>
    <polyline points="348.9,109.3 348.9,107.5 349.0,106.8 349.0,105.9 349.0,105.4 348.9,103.8 348.8,103.2" opacity="0.8"/>
    <polyline points="346.7,110.5 346.8,109.3 346.8,109.0 346.9,108.7 346.9,108.5 347.2,107.8 347.4,107.4" opacity="0.8"/>
    <polyline points="347.8,106.7 347.6,107.2 347.1,108.5 347.0,108.9 346.9,109.1 346.9,109.5 346.8,110.5" opacity="0.8"/>
    <polyline points="348.0,110.8 348.1,108.7 348.1,108.3 348.2,107.8 348.2,107.5 348.4,106.5 348.4,106.2 348.6,105.3" opacity="0.8"/>
    <polyline points="341.2,115.5 341.1,117.0" opacity="0.8"/>
    <polyline points="341.3,119.0 341.2,117.5" opacity="0.8"/>
    <polyline points="348.7,102.4 349.0,103.5 349.0,104.0 349.1,104.5 349.2,105.6 349.2,106.3 349.2,107.1 349.2,107.1 349.1,107.5 349.0,111.9 348.9,112.2 348.2,115.3 347.8,117.3 347.7,117.8 347.6,118.4 347.6,119.4 347.5,119.8 347.4,120.2 347.3,120.5 347.3,120.7 347.2,120.7 347.2,120.8 347.1,121.1 346.9,121.3 346.7,121.5 346.5,121.7 346.2,121.8 346.0,121.9 345.7,122.0 345.5,122.0 343.7,122.0" opacity="0.8"/>
  </g>

  <!-- 지하철 역 -->
  <g id="subway-stations">
    <circle cx="396.4" cy="533.7" r="4" fill="#dc2626" stroke="#fff" stroke-width="2"/>
    <text x="396.4" y="525.7" text-anchor="middle" font-size="10" fill="#374151">South Miami</text>
    <circle cx="424.0" cy="502.2" r="4" fill="#dc2626" stroke="#fff" stroke-width="2"/>
    <text x="424.0" y="494.2" text-anchor="middle" font-size="10" fill="#374151">University</text>
    <circle cx="474.4" cy="444.3" r="4" fill="#dc2626" stroke="#fff" stroke-width="2"/>
    <text x="474.4" y="436.3" text-anchor="middle" font-size="10" fill="#374151">Douglas Road</text>
    <circle cx="510.9" cy="421.6" r="4" fill="#dc2626" stroke="#fff" stroke-width="2"/>
    <text x="510.9" y="413.6" text-anchor="middle" font-size="10" fill="#374151">Coconut Grove</text>
    <circle cx="572.7" cy="389.6" r="4" fill="#dc2626" stroke="#fff" stroke-width="2"/>
    <text x="572.7" y="381.6" text-anchor="middle" font-size="10" fill="#374151">Vizcaya</text>
    <circle cx="609.9" cy="344.2" r="4" fill="#dc2626" stroke="#fff" stroke-width="2"/>
    <text x="609.9" y="336.2" text-anchor="middle" font-size="10" fill="#374151">Brickell</text>
    <circle cx="608.0" cy="289.0" r="4" fill="#dc2626" stroke="#fff" stroke-width="2"/>
    <circle cx="582.3" cy="277.2" r="4" fill="#dc2626" stroke="#fff" stroke-width="2"/>
    <text x="582.3" y="269.2" text-anchor="middle" font-size="10" fill="#374151">Culmer</text>
    <circle cx="565.2" cy="260.7" r="4" fill="#dc2626" stroke="#fff" stroke-width="2"/>
    <text x="565.2" y="252.7" text-anchor="middle" font-size="10" fill="#374151">UHealth | Jackson</text>
    <circle cx="564.9" cy="241.0" r="4" fill="#dc2626" stroke="#fff" stroke-width="2"/>
    <text x="564.9" y="233.0" text-anchor="middle" font-size="10" fill="#374151">Santa Clara</text>
    <circle cx="564.2" cy="199.3" r="4" fill="#dc2626" stroke="#fff" stroke-width="2"/>
    <text x="564.2" y="191.3" text-anchor="middle" font-size="10" fill="#374151">Allapattah</text>
    <circle cx="531.2" cy="187.2" r="4" fill="#dc2626" stroke="#fff" stroke-width="2"/>
    <text x="531.2" y="179.2" text-anchor="middle" font-size="10" fill="#374151">Earlington Heights</text>
    <circle cx="506.7" cy="156.4" r="4" fill="#dc2626" stroke="#fff" stroke-width="2"/>
    <text x="506.7" y="148.4" text-anchor="middle" font-size="10" fill="#374151">Brownsville</text>
    <circle cx="505.6" cy="122.9" r="4" fill="#dc2626" stroke="#fff" stroke-width="2"/>
    <circle cx="488.2" cy="79.6" r="4" fill="#dc2626" stroke="#fff" stroke-width="2"/>
    <text x="488.2" y="71.6" text-anchor="middle" font-size="10" fill="#374151">Northside</text>
    <circle cx="463.5" cy="80.8" r="4" fill="#dc2626" stroke="#fff" stroke-width="2"/>
    <text x="463.5" y="72.8" text-anchor="middle" font-size="10" fill="#374151">Tri-Rail</text>
    <circle cx="419.3" cy="94.6" r="4" fill="#dc2626" stroke="#fff" stroke-width="2"/>
    <text x="419.3" y="86.6" text-anchor="middle" font-size="10" fill="#374151">Hialeah</text>
    <circle cx="368.0" cy="98.9" r="4" fill="#dc2626" stroke="#fff" stroke-width="2"/>
    <text x="368.0" y="90.9" text-anchor="middle" font-size="10" fill="#374151">Okeechobee</text>
    <circle cx="317.5" cy="87.5" r="4" fill="#dc2626" stroke="#fff" stroke-width="2"/>
    <text x="317.5" y="79.5" text-anchor="middle" font-size="10" fill="#374151">Palmetto</text>
    <circle cx="465.7" cy="234.1" r="4" fill="#dc2626" stroke="#fff" stroke-width="2"/>
    <circle cx="608.4" cy="304.6" r="4" fill="#dc2626" stroke="#fff" stroke-width="2"/>
    <text x="608.4" y="296.6" text-anchor="middle" font-size="10" fill="#374151">Government Center</text>
  </g>
</svg>