<?xml version="1.0" encoding="UTF-8"?>
<svg width="800" height="600" viewBox="0 0 800 600" 
     xmlns="http://www.w3.org/2000/svg">
  <title>Milan Subway Map</title>
  <rect width="100%" height="100%" fill="#f8f9fa"/>

  <!-- 지하철 선로 -->
  <g id="subway-lines" stroke="#2563eb" stroke-width="3" fill="none">
    <polyline points="438.3,191.9 437.7,191.6 437.4,191.5 437.1,191.4 436.8,191.3 436.5,191.2 436.2,191.0 435.9,190.9 435.2,190.4 434.0,189.6 430.9,187.4 430.5,187.2 430.2,187.0 429.9,186.9 429.6,186.7 429.3,186.6 429.1,186.5 428.8,186.5 428.5,186.4 428.1,186.4 427.8,186.3 427.4,186.3 427.0,186.3 426.7,186.3 426.3,186.4 425.9,186.5 425.5,186.6 425.1,186.8 424.8,186.9 424.3,187.1 423.0,187.7 421.0,188.5 420.5,188.7 419.9,188.8 419.4,188.9 418.9,189.0 418.3,189.0 417.8,189.0 417.3,189.0 416.7,188.9 416.1,188.8 415.5,188.7 415.0,188.5 414.5,188.3 414.1,188.0 413.8,187.8 413.4,187.5 413.0,187.2 412.7,186.9 412.5,186.5 410.8,184.0 410.5,183.7 410.3,183.5 410.1,183.2 409.8,183.0 409.5,182.7 409.2,182.5 408.9,182.3 408.6,182.2 408.5,182.1 408.3,182.0 408.0,181.8 407.7,181.7 407.3,181.6 407.0,181.5 406.6,181.4 406.1,181.3 405.7,181.2 405.3,181.2 404.9,181.1 404.5,181.1 404.4,181.1 404.2,181.1 403.1,181.0 399.5,180.9 399.0,180.9 398.6,180.9 398.1,180.9 397.6,181.0 397.2,181.1 396.7,181.2 396.3,181.3 395.9,181.5 395.5,181.7 395.1,181.9 394.8,182.1 394.5,182.3 394.2,182.5 393.9,182.8 393.6,183.0 393.4,183.3 393.2,183.5 393.1,183.8 392.9,184.1 392.7,184.4 392.6,184.7 391.8,186.6 391.7,186.8 391.6,187.1 391.5,187.4 391.3,187.7 391.1,187.9 390.9,188.1 390.7,188.3 390.5,188.5 390.2,188.7 389.2,189.4 377.7,197.8 370.4,203.3 368.0,205.1 365.2,207.2 363.7,208.3 363.1,208.6 362.6,208.9 362.2,209.0 361.8,209.2 361.4,209.3 361.0,209.3 360.5,209.4 360.0,209.4 359.6,209.4 359.1,209.4 358.6,209.4 358.1,209.3 357.7,209.2 357.3,209.1 356.9,209.0 356.5,208.8 356.1,208.6 355.8,208.4 355.5,208.1 355.2,207.8 354.9,207.5 354.7,207.3 354.5,207.0 354.4,206.6 354.3,206.2 354.2,205.8 354.2,205.4 354.2,205.0 354.2,204.3 354.2,203.5 354.2,203.1 354.1,202.7 354.1,202.4 354.0,202.0 353.9,201.6 353.8,201.3 353.6,201.0 353.4,200.7 353.2,200.4 353.0,200.2 352.8,199.9 352.6,199.7 352.4,199.5 351.5,198.8 350.7,198.1 349.4,197.0 349.0,196.7 348.5,196.4 348.1,196.2 347.6,196.1 347.2,195.9 346.7,195.8 346.3,195.8 345.8,195.7 345.3,195.7 344.9,195.7 344.4,195.8 344.0,195.9 343.5,196.0 342.9,196.1 342.5,196.3 342.0,196.5 341.6,196.7 341.2,197.0 340.7,197.3 333.6,202.6 322.6,210.8 322.2,211.1 321.8,211.3 321.4,211.5 321.0,211.6 319.5,212.1" opacity="0.8"/>
    <polyline points="662.3,249.4 667.3,249.5" opacity="0.8"/>
    <polyline points="449.1,189.7 449.2,190.5 449.2,190.7 449.2,191.1 449.1,191.4 449.0,191.8 448.9,192.1 448.7,192.4 448.5,192.6 448.3,192.9 448.0,193.1 447.7,193.4 447.3,193.6 446.9,193.8 446.5,193.9 446.1,194.0 445.6,194.0 445.2,194.1 444.8,194.1 444.6,194.1 444.2,194.0 443.6,193.9 442.7,193.7 442.2,193.5 441.6,193.3 439.8,192.5 438.3,191.9" opacity="0.8"/>
    <polyline points="441.0,190.7 441.0,191.0 440.8,191.5 440.6,192.4 440.1,194.1 439.9,195.2 439.0,198.6 438.7,199.5 438.4,200.5 438.0,201.2 437.6,201.8 437.0,202.7 434.3,206.5 434.0,206.9 433.7,207.4 433.5,207.7 433.3,208.0 433.2,208.2 433.1,208.5 432.8,209.1 432.5,210.0 430.6,214.9 430.5,215.3 430.4,215.7 430.3,216.2 430.3,216.6 430.2,217.1 430.3,217.6 430.3,218.1 430.5,219.0 430.5,219.4 430.5,219.9 430.5,220.3 430.4,220.6 430.4,220.8 430.3,221.2 430.1,221.6 429.9,222.0 429.6,222.4 429.2,222.8 428.9,223.1 427.4,224.5" opacity="0.8"/>
    <polyline points="440.3,194.2 440.1,194.7 439.9,195.2" opacity="0.8"/>
    <polyline points="551.5,103.9 551.8,103.8 552.2,103.6 552.5,103.4 552.8,103.2 553.1,102.8 553.4,102.4 553.6,102.1 553.6,102.0 553.9,101.3 553.9,100.8 553.9,100.3 553.9,100.2 553.9,100.1 553.9,100.0 553.8,99.9 553.8,99.7" opacity="0.8"/>
    <polyline points="545.4,91.8 545.3,92.0 545.1,92.2 545.0,92.3 544.8,92.5 544.7,92.6 544.5,92.7 544.3,92.8 544.1,92.8 543.9,92.9 543.7,93.0 543.5,93.0 543.3,93.0 543.1,93.1 542.8,93.1 542.6,93.1 542.3,93.1 542.1,93.0 541.8,93.0" opacity="0.8"/>
    <polyline points="553.4,102.4 553.7,102.1 553.9,101.7 554.1,101.3 554.2,100.8 554.2,100.3 554.1,100.0 554.1,99.6" opacity="0.8"/>
    <polyline points="546.8,89.8 546.7,89.8 546.6,89.9 546.5,90.0 546.4,90.1 546.3,90.2 546.2,90.3 546.2,90.3 546.1,90.4 546.1,90.5 546.0,90.6 546.0,90.7 545.9,90.8 545.8,91.0 545.7,91.4 545.4,91.8" opacity="0.8"/>
    <polyline points="545.5,95.8 545.4,95.2 545.3,94.9 545.2,94.7 545.1,94.5 545.0,94.2 544.7,94.0 544.5,93.8 544.4,93.8 544.1,93.6 543.8,93.4 543.5,93.3 543.1,93.2 542.9,93.2 541.8,93.0 541.5,92.9 540.9,92.8 540.8,92.8 538.4,92.4 538.2,92.3 537.9,92.3 537.6,92.2 537.3,92.1 537.1,92.0 536.9,91.9 536.7,91.7 536.6,91.5 536.4,91.4 536.3,91.2 536.2,90.9 536.1,90.7 536.1,90.4 536.1,90.2 536.1,89.9 536.2,89.6" opacity="0.8"/>
    <polyline points="553.1,102.8 553.3,102.5 553.4,102.2 553.5,101.8 553.5,101.1 553.5,100.6 553.4,100.4 553.3,100.3 553.3,100.2 553.2,100.0 553.2,99.9 553.2,99.8 553.1,99.7" opacity="0.8"/>
    <polyline points="550.0,89.4 549.8,89.3 549.7,89.3 549.6,89.3 549.4,89.2 549.3,89.2 549.2,89.2 549.0,89.2 548.8,89.2 548.6,89.2 548.5,89.2 548.4,89.2 548.3,89.2 548.1,89.3 548.0,89.3 547.8,89.3 547.8,89.3 547.6,89.4 547.5,89.4 547.4,89.4 547.3,89.5 547.1,89.6 547.0,89.6 546.9,89.7 546.8,89.8" opacity="0.8"/>
    <polyline points="553.5,100.6 553.4,100.2 553.4,100.0 553.4,99.9 553.3,99.7" opacity="0.8"/>
    <polyline points="601.7,341.0 602.0,340.6 602.1,340.4 602.4,340.1 602.5,340.0 602.6,339.9 603.0,339.6 604.1,338.9" opacity="0.8"/>
    <polyline points="600.5,338.1 600.3,338.2 599.4,338.8 598.5,339.4 598.1,339.7 596.7,340.6 596.5,340.7 595.9,341.2 595.7,341.3 595.4,341.5 595.2,341.6 595.2,341.7 595.0,341.9 594.8,342.1 594.6,342.3 594.5,342.6 594.4,342.8 594.4,343.1 594.4,343.3 594.4,343.6 594.4,343.8 594.5,344.0 594.6,344.3 594.7,344.5 594.8,344.7 595.1,345.0 595.4,345.2 595.6,345.4 595.9,345.6 596.4,345.7 596.8,345.9 597.2,345.9 597.6,346.0 598.0,345.9 598.5,345.9 598.9,345.7 599.4,345.5 599.8,345.3 600.1,345.0 600.4,344.6 600.6,344.4 600.8,344.0 600.9,343.5 601.1,342.7 601.4,341.7 601.6,341.3 601.7,341.0 602.0,340.4 602.2,340.2 602.4,339.8 602.5,339.8 602.7,339.6 603.0,339.4 603.4,339.1 604.0,338.7" opacity="0.8"/>
    <polyline points="598.8,345.9 599.1,345.8 599.4,345.6 599.7,345.5 600.0,345.3 600.2,345.0 600.4,344.8 600.6,344.6 600.7,344.3 600.8,344.1 601.0,343.6 601.2,342.8 601.5,342.0 601.6,341.6 601.6,341.4 601.8,341.2 601.9,341.0 602.0,340.8 602.3,340.5 602.5,340.4 602.5,340.3 602.8,340.1 603.8,339.5 604.4,339.1" opacity="0.8"/>
    <polyline points="602.8,340.1 603.0,339.9 603.3,339.7 603.5,339.5 603.7,339.4 604.3,339.0" opacity="0.8"/>
    <polyline points="602.8,340.5 602.6,340.6 602.5,340.7 602.3,340.8 602.1,341.0 601.9,341.2 601.8,341.4 601.6,341.7 601.5,342.0" opacity="0.8"/>
    <polyline points="603.0,341.0 603.3,340.9 603.6,340.9 603.8,340.8 604.0,340.8 604.3,340.8 604.6,340.7 604.9,340.6 605.1,340.5 605.5,340.3 606.0,339.9 606.7,339.5" opacity="0.8"/>
    <polyline points="600.9,343.5 601.1,343.1 601.2,342.8" opacity="0.8"/>
    <polyline points="603.5,341.8 604.3,341.3 605.2,340.6 606.1,340.1 606.4,339.8 606.8,339.6" opacity="0.8"/>
    <polyline points="605.5,340.3 605.8,340.1 606.1,340.0 606.4,339.8" opacity="0.8"/>
    <polyline points="603.4,341.7 604.2,341.2 604.2,341.2 605.5,340.3" opacity="0.8"/>
    <polyline points="601.1,342.7 601.1,343.1 601.0,343.6" opacity="0.8"/>
    <polyline points="616.0,332.0 616.1,332.1" opacity="0.8"/>
    <polyline points="601.2,342.8 601.5,342.3 601.6,342.0 601.8,341.7 602.0,341.5 602.4,341.3 602.6,341.2 603.0,341.0 603.4,340.9 603.7,340.7 604.0,340.5 605.5,339.5" opacity="0.8"/>
    <polyline points="601.3,341.8 601.2,342.0 601.2,342.3 601.1,342.7" opacity="0.8"/>
    <polyline points="599.1,339.3 599.3,339.1 599.5,339.0 599.9,338.8 600.4,338.4 600.6,338.3" opacity="0.8"/>
    <polyline points="600.7,338.3 600.5,338.4 599.9,338.8 599.7,339.0 599.1,339.3 598.7,339.4 598.4,339.6" opacity="0.8"/>
    <polyline points="602.5,337.9 602.1,338.1 601.1,338.8 601.0,338.9 600.6,339.1 600.4,339.2 600.2,339.3 599.9,339.4 599.5,339.5 598.9,339.7 598.6,339.8 598.3,339.9 597.3,340.4 596.9,340.6" opacity="0.8"/>
    <polyline points="616.1,332.0 616.1,332.0 615.8,331.7 615.4,331.5" opacity="0.8"/>
    <polyline points="609.0,332.5 608.7,332.8 608.5,332.9 608.3,333.1 608.0,333.5 607.9,333.7 607.7,334.0 607.5,334.4 607.3,334.7 607.1,334.9 606.9,335.2 606.7,335.3 606.7,335.3 606.6,335.4 606.4,335.5 605.7,336.0 604.3,336.9 603.0,337.8 602.7,338.0 602.4,338.1 601.7,338.4 601.4,338.6 601.1,338.8" opacity="0.8"/>
    <polyline points="605.7,334.6 605.9,334.5 606.4,334.1 607.1,333.7 607.6,333.3 608.1,333.0 608.9,332.5 609.1,332.4 609.4,332.2 609.8,332.0" opacity="0.8"/>
    <polyline points="605.4,334.4 605.6,334.2 605.7,334.2 606.0,334.0 606.3,333.8 606.6,333.7 606.9,333.6" opacity="0.8"/>
    <polyline points="605.3,334.3 605.5,334.2 605.6,334.1 605.9,334.0 606.1,333.9 606.3,333.8 606.9,333.6 607.3,333.4 607.6,333.3 607.9,333.1 608.1,333.0" opacity="0.8"/>
    <polyline points="605.5,334.4 605.7,334.3 605.7,334.3 606.0,334.1 606.3,334.0 607.0,333.6 607.6,333.3" opacity="0.8"/>
    <polyline points="605.6,334.5 605.7,334.4 605.8,334.4 606.0,334.2 606.2,334.1 606.5,334.0 606.8,333.8 607.1,333.7" opacity="0.8"/>
    <polyline points="605.9,334.8 606.0,334.7 606.2,334.5 606.6,334.3 606.7,334.2 607.1,333.9 607.4,333.6" opacity="0.8"/>
    <polyline points="605.9,334.8 606.1,334.7 606.3,334.6 606.6,334.4 606.9,334.1 607.5,333.6 607.8,333.4 608.1,333.1" opacity="0.8"/>
    <polyline points="606.0,334.9 606.2,334.8 606.3,334.7 606.5,334.6 606.7,334.5 607.3,333.9 607.7,333.6 608.0,333.3 608.2,333.1 608.4,332.9" opacity="0.8"/>
    <polyline points="606.1,335.0 606.3,334.9 606.4,334.8 606.6,334.7 606.8,334.5 607.0,334.3 607.1,334.1 607.3,333.9" opacity="0.8"/>
    <polyline points="606.3,335.2 606.4,335.1 606.5,335.0 606.7,334.9 606.9,334.7 607.0,334.5 607.2,334.4 607.3,334.2 607.5,333.9 607.7,333.6 608.2,333.1" opacity="0.8"/>
    <polyline points="606.2,335.1 606.4,335.0 606.6,334.8 606.8,334.7 607.0,334.5 607.5,333.9" opacity="0.8"/>
    <polyline points="604.3,336.9 604.6,336.7 604.8,336.6 605.0,336.3 605.4,336.0 605.6,335.8 605.9,335.6" opacity="0.8"/>
    <polyline points="604.6,336.5 605.9,335.6 606.3,335.4 606.4,335.3 606.5,335.2 606.7,335.0 607.0,334.8 607.2,334.6 607.4,334.3 608.0,333.5" opacity="0.8"/>
    <polyline points="598.5,338.8 598.7,338.6 598.8,338.3 599.0,338.1 599.2,337.9 599.5,337.6 599.6,337.6 599.8,337.4 600.6,336.9 602.0,336.0" opacity="0.8"/>
    <polyline points="602.2,336.1 600.1,337.5 599.8,337.7 599.6,337.9 599.4,338.1 599.1,338.3 598.8,338.5 598.5,338.8 597.9,339.3 597.8,339.5 597.5,339.9 597.3,340.1 597.2,340.2 597.0,340.4 596.7,340.6" opacity="0.8"/>
    <polyline points="598.8,338.5 599.1,338.2 599.5,337.9 599.7,337.6 600.0,337.4 600.3,337.2 600.5,337.1 602.0,336.0" opacity="0.8"/>
    <polyline points="597.9,339.3 598.2,339.0 598.3,338.8 598.5,338.6 598.6,338.3 598.7,338.2 598.9,338.0 599.2,337.7" opacity="0.8"/>
    <polyline points="598.3,339.5 598.6,339.2 598.7,339.1 599.0,338.7 599.2,338.5 599.4,338.3 599.6,338.1 600.0,337.9 600.1,337.8" opacity="0.8"/>
  </g>

  <!-- 지하철 역 -->
  <g id="subway-stations">
    <circle cx="692.0" cy="52.0" r="4" fill="#dc2626" stroke="#fff" stroke-width="2"/>
    <text x="692.0" y="44.0" text-anchor="middle" font-size="10" fill="#374151">Cologno Nord</text>
    <circle cx="672.1" cy="70.7" r="4" fill="#dc2626" stroke="#fff" stroke-width="2"/>
    <text x="672.1" y="62.7" text-anchor="middle" font-size="10" fill="#374151">Cologno Centro</text>
    <circle cx="196.8" cy="92.0" r="4" fill="#dc2626" stroke="#fff" stroke-width="2"/>
    <text x="196.8" y="84.0" text-anchor="middle" font-size="10" fill="#374151">Rho Fieramilano</text>
    <circle cx="420.8" cy="131.4" r="4" fill="#dc2626" stroke="#fff" stroke-width="2"/>
    <text x="420.8" y="123.4" text-anchor="middle" font-size="10" fill="#374151">Dergano</text>
    <circle cx="349.0" cy="396.8" r="4" fill="#dc2626" stroke="#fff" stroke-width="2"/>
    <circle cx="338.2" cy="417.9" r="4" fill="#dc2626" stroke="#fff" stroke-width="2"/>
    <circle cx="393.4" cy="87.0" r="4" fill="#dc2626" stroke="#fff" stroke-width="2"/>
    <text x="393.4" y="79.0" text-anchor="middle" font-size="10" fill="#374151">Affori FN</text>
    <circle cx="617.9" cy="115.9" r="4" fill="#dc2626" stroke="#fff" stroke-width="2"/>
    <text x="617.9" y="107.9" text-anchor="middle" font-size="10" fill="#374151">Cascina Gobba</text>
    <circle cx="440.6" cy="192.2" r="4" fill="#dc2626" stroke="#fff" stroke-width="2"/>
    <text x="440.6" y="184.2" text-anchor="middle" font-size="10" fill="#374151">Garibaldi FS</text>
    <circle cx="484.8" cy="214.8" r="4" fill="#dc2626" stroke="#fff" stroke-width="2"/>
    <text x="484.8" y="206.8" text-anchor="middle" font-size="10" fill="#374151">Porta Venezia</text>
    <circle cx="442.7" cy="245.8" r="4" fill="#dc2626" stroke="#fff" stroke-width="2"/>
    <text x="442.7" y="237.8" text-anchor="middle" font-size="10" fill="#374151">Duomo</text>
    <circle cx="652.6" cy="90.9" r="4" fill="#dc2626" stroke="#fff" stroke-width="2"/>
    <text x="652.6" y="82.9" text-anchor="middle" font-size="10" fill="#374151">Cologno Sud</text>
    <circle cx="258.8" cy="269.9" r="4" fill="#dc2626" stroke="#fff" stroke-width="2"/>
    <text x="258.8" y="261.9" text-anchor="middle" font-size="10" fill="#374151">Bisceglie</text>
    <circle cx="393.0" cy="321.0" r="4" fill="#dc2626" stroke="#fff" stroke-width="2"/>
    <text x="393.0" y="313.0" text-anchor="middle" font-size="10" fill="#374151">Famagosta</text>
    <circle cx="415.4" cy="340.0" r="4" fill="#dc2626" stroke="#fff" stroke-width="2"/>
    <circle cx="563.0" cy="330.2" r="4" fill="#dc2626" stroke="#fff" stroke-width="2"/>
    <text x="563.0" y="322.2" text-anchor="middle" font-size="10" fill="#374151">Rogoredo FS</text>
    <circle cx="457.7" cy="216.8" r="4" fill="#dc2626" stroke="#fff" stroke-width="2"/>
    <text x="457.7" y="208.8" text-anchor="middle" font-size="10" fill="#374151">Turati</text>
    <circle cx="452.9" cy="229.3" r="4" fill="#dc2626" stroke="#fff" stroke-width="2"/>
    <text x="452.9" y="221.3" text-anchor="middle" font-size="10" fill="#374151">Montenapoleone</text>
    <circle cx="465.5" cy="203.5" r="4" fill="#dc2626" stroke="#fff" stroke-width="2"/>
    <text x="465.5" y="195.5" text-anchor="middle" font-size="10" fill="#374151">Repubblica</text>
    <circle cx="434.1" cy="153.1" r="4" fill="#dc2626" stroke="#fff" stroke-width="2"/>
    <text x="434.1" y="145.1" text-anchor="middle" font-size="10" fill="#374151">Maciachini</text>
    <circle cx="453.2" cy="166.9" r="4" fill="#dc2626" stroke="#fff" stroke-width="2"/>
    <text x="453.2" y="158.9" text-anchor="middle" font-size="10" fill="#374151">Zara</text>
    <circle cx="453.1" cy="167.2" r="4" fill="#dc2626" stroke="#fff" stroke-width="2"/>
    <text x="453.1" y="159.2" text-anchor="middle" font-size="10" fill="#374151">Zara</text>
    <circle cx="472.5" cy="174.8" r="4" fill="#dc2626" stroke="#fff" stroke-width="2"/>
    <text x="472.5" y="166.8" text-anchor="middle" font-size="10" fill="#374151">Sondrio</text>
    <circle cx="478.3" cy="189.5" r="4" fill="#dc2626" stroke="#fff" stroke-width="2"/>
    <text x="478.3" y="181.5" text-anchor="middle" font-size="10" fill="#374151">Centrale FS</text>
    <circle cx="476.9" cy="188.6" r="4" fill="#dc2626" stroke="#fff" stroke-width="2"/>
    <text x="476.9" y="180.6" text-anchor="middle" font-size="10" fill="#374151">Centrale FS</text>
    <circle cx="407.2" cy="109.3" r="4" fill="#dc2626" stroke="#fff" stroke-width="2"/>
    <text x="407.2" y="101.3" text-anchor="middle" font-size="10" fill="#374151">Affori Centro</text>
    <circle cx="382.3" cy="69.0" r="4" fill="#dc2626" stroke="#fff" stroke-width="2"/>
    <text x="382.3" y="61.0" text-anchor="middle" font-size="10" fill="#374151">Comasina</text>
    <circle cx="660.6" cy="249.3" r="4" fill="#dc2626" stroke="#fff" stroke-width="2"/>
    <text x="660.6" y="241.3" text-anchor="middle" font-size="10" fill="#374151">Linate Aeroporto</text>
    <circle cx="558.8" cy="244.8" r="4" fill="#dc2626" stroke="#fff" stroke-width="2"/>
    <text x="558.8" y="236.8" text-anchor="middle" font-size="10" fill="#374151">Stazione Forlanini</text>
    <circle cx="568.7" cy="251.6" r="4" fill="#dc2626" stroke="#fff" stroke-width="2"/>
    <text x="568.7" y="243.6" text-anchor="middle" font-size="10" fill="#374151">Repetti</text>
    <circle cx="607.4" cy="342.6" r="4" fill="#dc2626" stroke="#fff" stroke-width="2"/>
    <text x="607.4" y="334.6" text-anchor="middle" font-size="10" fill="#374151">San Donato</text>
    <circle cx="544.3" cy="320.3" r="4" fill="#dc2626" stroke="#fff" stroke-width="2"/>
    <text x="544.3" y="312.3" text-anchor="middle" font-size="10" fill="#374151">Porto di Mare</text>
    <circle cx="515.5" cy="304.8" r="4" fill="#dc2626" stroke="#fff" stroke-width="2"/>
    <text x="515.5" y="296.8" text-anchor="middle" font-size="10" fill="#374151">Brenta</text>
    <circle cx="527.5" cy="311.4" r="4" fill="#dc2626" stroke="#fff" stroke-width="2"/>
    <text x="527.5" y="303.4" text-anchor="middle" font-size="10" fill="#374151">Corvetto</text>
    <circle cx="496.6" cy="293.6" r="4" fill="#dc2626" stroke="#fff" stroke-width="2"/>
    <text x="496.6" y="285.6" text-anchor="middle" font-size="10" fill="#374151">Lodi T.I.B.B.</text>
    <circle cx="478.3" cy="280.6" r="4" fill="#dc2626" stroke="#fff" stroke-width="2"/>
    <text x="478.3" y="272.6" text-anchor="middle" font-size="10" fill="#374151">Porta Romana</text>
    <circle cx="459.7" cy="267.5" r="4" fill="#dc2626" stroke="#fff" stroke-width="2"/>
    <text x="459.7" y="259.5" text-anchor="middle" font-size="10" fill="#374151">Crocetta</text>
    <circle cx="444.6" cy="257.3" r="4" fill="#dc2626" stroke="#fff" stroke-width="2"/>
    <text x="444.6" y="249.3" text-anchor="middle" font-size="10" fill="#374151">Missori</text>
    <circle cx="444.9" cy="244.5" r="4" fill="#dc2626" stroke="#fff" stroke-width="2"/>
    <text x="444.9" y="236.5" text-anchor="middle" font-size="10" fill="#374151">Duomo</text>
    <circle cx="457.8" cy="188.6" r="4" fill="#dc2626" stroke="#fff" stroke-width="2"/>
    <text x="457.8" y="180.6" text-anchor="middle" font-size="10" fill="#374151">Gioia</text>
    <circle cx="438.2" cy="192.1" r="4" fill="#dc2626" stroke="#fff" stroke-width="2"/>
    <text x="438.2" y="184.1" text-anchor="middle" font-size="10" fill="#374151">Garibaldi FS</text>
    <circle cx="557.0" cy="189.6" r="4" fill="#dc2626" stroke="#fff" stroke-width="2"/>
    <text x="557.0" y="181.6" text-anchor="middle" font-size="10" fill="#374151">Lambrate FS</text>
    <circle cx="531.9" cy="199.6" r="4" fill="#dc2626" stroke="#fff" stroke-width="2"/>
    <text x="531.9" y="191.6" text-anchor="middle" font-size="10" fill="#374151">Piola</text>
    <circle cx="508.7" cy="187.5" r="4" fill="#dc2626" stroke="#fff" stroke-width="2"/>
    <text x="508.7" y="179.5" text-anchor="middle" font-size="10" fill="#374151">Loreto</text>
    <circle cx="509.1" cy="190.3" r="4" fill="#dc2626" stroke="#fff" stroke-width="2"/>
    <text x="509.1" y="182.3" text-anchor="middle" font-size="10" fill="#374151">Loreto</text>
    <circle cx="493.4" cy="187.3" r="4" fill="#dc2626" stroke="#fff" stroke-width="2"/>
    <text x="493.4" y="179.3" text-anchor="middle" font-size="10" fill="#374151">Caiazzo</text>
    <circle cx="586.6" cy="133.3" r="4" fill="#dc2626" stroke="#fff" stroke-width="2"/>
    <text x="586.6" y="125.3" text-anchor="middle" font-size="10" fill="#374151">Crescenzago</text>
    <circle cx="569.6" cy="148.0" r="4" fill="#dc2626" stroke="#fff" stroke-width="2"/>
    <text x="569.6" y="140.0" text-anchor="middle" font-size="10" fill="#374151">Cimiano</text>
    <circle cx="560.5" cy="171.0" r="4" fill="#dc2626" stroke="#fff" stroke-width="2"/>
    <text x="560.5" y="163.0" text-anchor="middle" font-size="10" fill="#374151">Udine</text>
    <circle cx="708.4" cy="98.9" r="4" fill="#dc2626" stroke="#fff" stroke-width="2"/>
    <text x="708.4" y="90.9" text-anchor="middle" font-size="10" fill="#374151">Cascina Burrona</text>
    <circle cx="678.7" cy="103.2" r="4" fill="#dc2626" stroke="#fff" stroke-width="2"/>
    <text x="678.7" y="95.2" text-anchor="middle" font-size="10" fill="#374151">Vimodrone</text>
    <circle cx="392.0" cy="302.1" r="4" fill="#dc2626" stroke="#fff" stroke-width="2"/>
    <text x="392.0" y="294.1" text-anchor="middle" font-size="10" fill="#374151">Romolo</text>
    <circle cx="396.0" cy="279.2" r="4" fill="#dc2626" stroke="#fff" stroke-width="2"/>
    <text x="396.0" y="271.2" text-anchor="middle" font-size="10" fill="#374151">Porta Genova FS</text>
    <circle cx="397.1" cy="261.1" r="4" fill="#dc2626" stroke="#fff" stroke-width="2"/>
    <text x="397.1" y="253.1" text-anchor="middle" font-size="10" fill="#374151">Sant'Agostino</text>
    <circle cx="405.4" cy="252.6" r="4" fill="#dc2626" stroke="#fff" stroke-width="2"/>
    <text x="405.4" y="244.6" text-anchor="middle" font-size="10" fill="#374151">Sant'Ambrogio</text>
    <circle cx="413.3" cy="234.4" r="4" fill="#dc2626" stroke="#fff" stroke-width="2"/>
    <text x="413.3" y="226.4" text-anchor="middle" font-size="10" fill="#374151">Cadorna FN</text>
    <circle cx="414.9" cy="234.7" r="4" fill="#dc2626" stroke="#fff" stroke-width="2"/>
    <text x="414.9" y="226.7" text-anchor="middle" font-size="10" fill="#374151">Cadorna FN</text>
    <circle cx="427.5" cy="224.6" r="4" fill="#dc2626" stroke="#fff" stroke-width="2"/>
    <text x="427.5" y="216.6" text-anchor="middle" font-size="10" fill="#374151">Lanza</text>
    <circle cx="432.5" cy="210.0" r="4" fill="#dc2626" stroke="#fff" stroke-width="2"/>
    <text x="432.5" y="202.0" text-anchor="middle" font-size="10" fill="#374151">Moscova</text>
    <circle cx="547.2" cy="51.8" r="4" fill="#dc2626" stroke="#fff" stroke-width="2"/>
    <text x="547.2" y="43.8" text-anchor="middle" font-size="10" fill="#374151">Sesto Rondò</text>
    <circle cx="538.4" cy="81.8" r="4" fill="#dc2626" stroke="#fff" stroke-width="2"/>
    <text x="538.4" y="73.8" text-anchor="middle" font-size="10" fill="#374151">Sesto Marelli</text>
    <circle cx="533.9" cy="98.4" r="4" fill="#dc2626" stroke="#fff" stroke-width="2"/>
    <text x="533.9" y="90.4" text-anchor="middle" font-size="10" fill="#374151">Villa San Giovanni</text>
    <circle cx="529.9" cy="113.4" r="4" fill="#dc2626" stroke="#fff" stroke-width="2"/>
    <text x="529.9" y="105.4" text-anchor="middle" font-size="10" fill="#374151">Precotto</text>
    <circle cx="525.6" cy="129.7" r="4" fill="#dc2626" stroke="#fff" stroke-width="2"/>
    <text x="525.6" y="121.7" text-anchor="middle" font-size="10" fill="#374151">Gorla</text>
    <circle cx="521.5" cy="145.4" r="4" fill="#dc2626" stroke="#fff" stroke-width="2"/>
    <text x="521.5" y="137.4" text-anchor="middle" font-size="10" fill="#374151">Turro</text>
    <circle cx="517.9" cy="159.0" r="4" fill="#dc2626" stroke="#fff" stroke-width="2"/>
    <text x="517.9" y="151.0" text-anchor="middle" font-size="10" fill="#374151">Rovereto</text>
    <circle cx="514.1" cy="173.5" r="4" fill="#dc2626" stroke="#fff" stroke-width="2"/>
    <text x="514.1" y="165.5" text-anchor="middle" font-size="10" fill="#374151">Pasteur</text>
    <circle cx="464.6" cy="238.8" r="4" fill="#dc2626" stroke="#fff" stroke-width="2"/>
    <text x="464.6" y="230.8" text-anchor="middle" font-size="10" fill="#374151">San Babila</text>
    <circle cx="475.7" cy="225.1" r="4" fill="#dc2626" stroke="#fff" stroke-width="2"/>
    <text x="475.7" y="217.1" text-anchor="middle" font-size="10" fill="#374151">Palestro</text>
    <circle cx="497.1" cy="200.9" r="4" fill="#dc2626" stroke="#fff" stroke-width="2"/>
    <text x="497.1" y="192.9" text-anchor="middle" font-size="10" fill="#374151">Lima</text>
    <circle cx="426.7" cy="233.7" r="4" fill="#dc2626" stroke="#fff" stroke-width="2"/>
    <text x="426.7" y="225.7" text-anchor="middle" font-size="10" fill="#374151">Cairoli</text>
    <circle cx="437.0" cy="241.9" r="4" fill="#dc2626" stroke="#fff" stroke-width="2"/>
    <text x="437.0" y="233.9" text-anchor="middle" font-size="10" fill="#374151">Cordusio</text>
    <circle cx="192.7" cy="122.4" r="4" fill="#dc2626" stroke="#fff" stroke-width="2"/>
    <text x="192.7" y="114.4" text-anchor="middle" font-size="10" fill="#374151">Pero</text>
    <circle cx="281.4" cy="263.9" r="4" fill="#dc2626" stroke="#fff" stroke-width="2"/>
    <text x="281.4" y="255.9" text-anchor="middle" font-size="10" fill="#374151">Inganni</text>
    <circle cx="298.5" cy="258.8" r="4" fill="#dc2626" stroke="#fff" stroke-width="2"/>
    <text x="298.5" y="250.8" text-anchor="middle" font-size="10" fill="#374151">Primaticcio</text>
    <circle cx="316.1" cy="253.0" r="4" fill="#dc2626" stroke="#fff" stroke-width="2"/>
    <text x="316.1" y="245.0" text-anchor="middle" font-size="10" fill="#374151">Bande Nere</text>
    <circle cx="332.0" cy="243.6" r="4" fill="#dc2626" stroke="#fff" stroke-width="2"/>
    <text x="332.0" y="235.6" text-anchor="middle" font-size="10" fill="#374151">Gambara</text>
    <circle cx="211.2" cy="132.4" r="4" fill="#dc2626" stroke="#fff" stroke-width="2"/>
    <text x="211.2" y="124.4" text-anchor="middle" font-size="10" fill="#374151">Molino Dorino</text>
    <circle cx="231.2" cy="143.5" r="4" fill="#dc2626" stroke="#fff" stroke-width="2"/>
    <text x="231.2" y="135.5" text-anchor="middle" font-size="10" fill="#374151">San Leonardo</text>
    <circle cx="252.1" cy="154.9" r="4" fill="#dc2626" stroke="#fff" stroke-width="2"/>
    <text x="252.1" y="146.9" text-anchor="middle" font-size="10" fill="#374151">Bonola</text>
    <circle cx="276.7" cy="163.6" r="4" fill="#dc2626" stroke="#fff" stroke-width="2"/>
    <text x="276.7" y="155.6" text-anchor="middle" font-size="10" fill="#374151">Uruguay</text>
    <circle cx="293.5" cy="175.7" r="4" fill="#dc2626" stroke="#fff" stroke-width="2"/>
    <text x="293.5" y="167.7" text-anchor="middle" font-size="10" fill="#374151">Lampugnano</text>
    <circle cx="317.4" cy="185.3" r="4" fill="#dc2626" stroke="#fff" stroke-width="2"/>
    <text x="317.4" y="177.3" text-anchor="middle" font-size="10" fill="#374151">QT8</text>
    <circle cx="333.8" cy="202.8" r="4" fill="#dc2626" stroke="#fff" stroke-width="2"/>
    <text x="333.8" y="194.8" text-anchor="middle" font-size="10" fill="#374151">Lotto</text>
    <circle cx="335.5" cy="205.7" r="4" fill="#dc2626" stroke="#fff" stroke-width="2"/>
    <text x="335.5" y="197.7" text-anchor="middle" font-size="10" fill="#374151">Lotto</text>
    <circle cx="351.4" cy="219.3" r="4" fill="#dc2626" stroke="#fff" stroke-width="2"/>
    <text x="351.4" y="211.3" text-anchor="middle" font-size="10" fill="#374151">Amendola</text>
    <circle cx="361.9" cy="228.4" r="4" fill="#dc2626" stroke="#fff" stroke-width="2"/>
    <text x="361.9" y="220.4" text-anchor="middle" font-size="10" fill="#374151">Buonarroti</text>
    <circle cx="347.9" cy="239.4" r="4" fill="#dc2626" stroke="#fff" stroke-width="2"/>
    <text x="347.9" y="231.4" text-anchor="middle" font-size="10" fill="#374151">De Angeli</text>
    <circle cx="362.4" cy="235.4" r="4" fill="#dc2626" stroke="#fff" stroke-width="2"/>
    <text x="362.4" y="227.4" text-anchor="middle" font-size="10" fill="#374151">Wagner</text>
    <circle cx="375.9" cy="234.2" r="4" fill="#dc2626" stroke="#fff" stroke-width="2"/>
    <text x="375.9" y="226.2" text-anchor="middle" font-size="10" fill="#374151">Pagano</text>
    <circle cx="389.3" cy="236.4" r="4" fill="#dc2626" stroke="#fff" stroke-width="2"/>
    <text x="389.3" y="228.4" text-anchor="middle" font-size="10" fill="#374151">Conciliazione</text>
    <circle cx="272.0" cy="212.3" r="4" fill="#dc2626" stroke="#fff" stroke-width="2"/>
    <text x="272.0" y="204.3" text-anchor="middle" font-size="10" fill="#374151">San Siro Stadio</text>
    <circle cx="298.0" cy="212.8" r="4" fill="#dc2626" stroke="#fff" stroke-width="2"/>
    <text x="298.0" y="204.8" text-anchor="middle" font-size="10" fill="#374151">San Siro Ippodromo</text>
    <circle cx="319.6" cy="212.3" r="4" fill="#dc2626" stroke="#fff" stroke-width="2"/>
    <text x="319.6" y="204.3" text-anchor="middle" font-size="10" fill="#374151">Segesta</text>
    <circle cx="350.4" cy="198.3" r="4" fill="#dc2626" stroke="#fff" stroke-width="2"/>
    <text x="350.4" y="190.3" text-anchor="middle" font-size="10" fill="#374151">Portello</text>
    <circle cx="365.4" cy="207.3" r="4" fill="#dc2626" stroke="#fff" stroke-width="2"/>
    <text x="365.4" y="199.3" text-anchor="middle" font-size="10" fill="#374151">Tre Torri</text>
    <circle cx="378.0" cy="198.1" r="4" fill="#dc2626" stroke="#fff" stroke-width="2"/>
    <text x="378.0" y="190.1" text-anchor="middle" font-size="10" fill="#374151">Domodossola FN</text>
    <circle cx="389.4" cy="189.6" r="4" fill="#dc2626" stroke="#fff" stroke-width="2"/>
    <text x="389.4" y="181.6" text-anchor="middle" font-size="10" fill="#374151">Gerusalemme</text>
    <circle cx="403.1" cy="181.3" r="4" fill="#dc2626" stroke="#fff" stroke-width="2"/>
    <text x="403.1" y="173.3" text-anchor="middle" font-size="10" fill="#374151">Cenisio</text>
    <circle cx="423.1" cy="187.8" r="4" fill="#dc2626" stroke="#fff" stroke-width="2"/>
    <text x="423.1" y="179.8" text-anchor="middle" font-size="10" fill="#374151">Monumentale</text>
  </g>
</svg>