<?xml version="1.0" encoding="UTF-8"?>
<svg width="800" height="600" viewBox="0 0 800 600" 
     xmlns="http://www.w3.org/2000/svg">
  <title>Montreal Subway Map</title>
  <rect width="100%" height="100%" fill="#f8f9fa"/>

  <!-- 지하철 선로 -->
  <g id="subway-lines" stroke="#2563eb" stroke-width="3" fill="none">
    <polyline points="556.7,430.7 558.3,429.8 558.7,429.6 559.1,429.4 559.3,429.3 559.6,429.2 559.9,429.1 560.1,429.0 560.3,428.9 560.4,428.9 560.6,428.7 560.7,428.6 560.9,428.5 561.1,428.3 561.3,428.2 561.5,428.0 561.6,427.9 561.8,427.7 561.9,427.5 562.1,427.2 562.2,426.9 562.4,426.5 562.5,426.0 562.6,425.6 562.7,425.2 562.7,425.0 562.7,424.7 562.7,424.5 562.7,424.0 562.7,423.8 562.7,423.2 562.6,422.4 562.6,422.2 562.6,421.9 562.7,421.5 562.7,421.3 562.8,420.9 562.9,420.6 563.0,420.3 563.1,420.1 563.5,419.5 563.6,419.2 564.1,418.3 564.4,417.9 565.2,416.6 565.5,416.2 565.7,415.9 565.9,415.7 566.1,415.4 566.5,415.0 567.0,414.5 567.4,414.1 568.1,413.5 568.7,413.1" opacity="0.8"/>
    <polyline points="586.7,374.1 590.4,375.8 590.7,375.9 591.6,376.3 591.9,376.5 592.3,376.6 592.9,376.9 594.0,377.4 595.9,378.2 597.2,378.7 598.0,379.1 598.7,379.4 599.2,379.6 599.4,379.6" opacity="0.8"/>
    <polyline points="468.3,424.0 469.0,422.1 469.4,421.1 469.8,420.2 470.0,419.4 470.1,418.9 470.4,417.9 470.5,416.9 470.8,415.3 471.5,412.8 471.7,412.4 472.0,411.9 472.4,411.4 477.2,406.3 486.9,396.2 488.1,394.6 489.6,392.6 490.1,391.9 491.6,389.3 492.0,388.6 497.3,383.1 498.2,381.8 498.7,380.4 498.9,378.4 498.9,376.3 498.6,374.6 497.6,372.2 496.9,370.7 496.2,369.3 495.5,368.1 494.2,367.0 493.6,366.5 493.0,366.0 492.6,365.9 480.0,361.7 476.7,360.6 475.9,360.3 475.5,360.2 475.2,360.0 474.9,359.9 474.5,359.7 474.2,359.5 473.8,359.3 473.5,359.0 473.5,359.0 473.2,358.8 472.9,358.6 472.7,358.4 472.5,358.1 472.3,357.8 472.1,357.5 472.0,357.3 471.9,357.0 471.8,356.7 471.7,356.4 471.6,356.1 471.6,355.9 471.5,355.7 471.5,355.5 471.5,355.3 471.5,355.1 471.5,355.0 471.5,354.8 471.5,354.7 471.6,354.5 471.6,354.4 471.7,354.2 471.7,354.2 471.8,354.1 471.8,354.0 474.9,349.0 475.4,348.2 475.8,347.6 476.3,346.7 476.6,346.2 477.0,345.9 478.0,345.1 482.5,340.6 482.8,340.4 483.0,340.2 483.3,340.0 483.5,339.9 483.9,339.7 484.4,339.4 488.1,337.4 495.5,333.2 495.8,332.7 497.5,329.0 505.8,320.2 515.4,310.1 516.2,309.3 517.6,307.8 518.3,306.8 518.6,305.8 518.5,304.7 518.2,303.8 518.0,302.6 517.8,301.7 517.9,300.8 518.6,299.8 519.0,299.3 520.4,297.7" opacity="0.8"/>
    <polyline points="639.8,233.6 639.0,234.9 635.1,240.8 635.0,241.2 634.5,242.7 634.3,243.2 631.6,247.3 624.7,258.3 621.7,263.1 619.6,266.5 618.9,267.5 618.2,268.5 614.3,274.0 613.9,274.9 613.8,275.7 614.0,277.2 614.6,278.5 615.8,280.0 617.3,281.7 619.0,283.4 620.1,284.8 620.8,286.0 621.6,287.7 621.8,288.7 621.7,289.9 620.3,292.1 619.3,293.1 618.0,294.4 617.3,295.3 612.7,302.2 611.6,303.8 610.9,304.7 610.2,305.7 609.9,306.2 609.6,306.9 609.4,307.4 608.7,308.7 608.5,309.5 608.6,310.3 608.6,311.3 608.9,312.9 610.0,314.7 610.8,316.5 610.9,316.8 610.9,316.8 611.0,317.5 610.8,318.5 610.1,319.9 606.0,326.4 604.4,328.8 603.8,330.1 601.9,332.1 601.7,332.4 600.8,333.7 600.4,334.5 600.2,335.0 599.9,336.9 600.1,338.5 600.7,340.0 601.2,340.7 601.9,341.4 602.3,341.7 603.3,342.2 607.7,343.8 610.8,345.1 612.9,346.3 613.7,347.1 614.2,347.6 614.5,348.3 614.6,349.2 614.6,350.2 614.4,351.0 613.8,352.2 609.3,356.7 609.0,357.0 606.8,359.2 606.7,359.3 602.9,363.1 600.8,365.1 599.0,366.9 596.5,369.5 595.9,370.2 593.6,372.4 591.8,374.3 591.7,374.4 591.4,374.8 588.7,377.8 587.9,378.5 585.0,381.7 583.7,382.5 581.8,383.4 580.6,384.1 579.6,385.0 579.2,385.6 578.5,386.7 577.1,388.8 572.6,393.5 567.1,398.7 566.2,399.5 563.1,402.6 561.7,404.1 561.3,404.5 560.6,405.1 559.8,406.0 558.7,407.0 557.4,408.5 556.0,409.7" opacity="0.8"/>
    <polyline points="544.3,353.4 541.3,352.0 538.6,350.9 536.1,349.9 533.9,349.0 533.2,348.6 532.2,348.3 531.3,348.1 530.6,347.9 530.3,347.9 529.8,347.8 529.3,347.7 528.6,347.5 527.9,347.3 526.8,346.9 526.0,346.6 525.1,346.3 523.0,345.4 511.9,340.1 497.5,334.0 495.5,333.2 494.9,333.1 492.9,332.7 491.8,332.5 491.2,332.4 489.0,331.9 488.6,331.8 487.5,331.6 478.4,329.1 472.9,327.6 468.6,326.4 468.2,326.4 467.8,326.2 467.7,326.2 467.2,326.1 466.8,326.0 449.0,321.3 421.4,314.0 417.0,312.8 416.5,312.7 404.7,309.5 396.5,307.4 393.5,306.5 389.4,305.4 386.4,304.6 385.1,304.2 384.1,303.9 383.2,303.6 377.6,301.7 377.4,301.6 377.1,301.4 375.5,300.4 372.0,298.3 370.0,297.0 369.8,296.9 368.5,296.1 368.1,295.9 368.0,295.9 367.8,295.8 367.7,295.7 367.5,295.7 367.3,295.6 367.1,295.6 366.5,295.5 365.6,295.3 365.1,295.3 364.8,295.2 364.4,295.2 364.0,295.1 363.7,295.1 360.7,295.1 347.1,295.4 334.7,295.4 328.4,295.5 327.0,295.5 325.6,295.6 323.9,295.7 320.6,296.0 318.5,296.2 313.5,296.7 306.2,297.5 302.7,297.9 301.2,298.0 300.9,298.1 300.5,298.2 300.1,298.3 299.8,298.4 299.5,298.5 299.0,298.7 298.5,298.9 296.1,300.0 293.2,301.3 288.7,303.3" opacity="0.8"/>
    <polyline points="568.7,413.1 573.7,409.1 579.1,404.8 580.8,403.5 581.8,402.7 588.1,397.0 588.2,397.0 588.2,396.9 594.3,390.1 600.4,383.2 602.7,380.7 603.0,380.4 603.2,380.0 603.2,379.7" opacity="0.8"/>
    <polyline points="603.2,379.7 603.2,379.4 603.0,379.1 602.8,378.9 602.7,378.8 602.3,378.6 601.8,378.4 594.4,375.1 590.6,373.4 586.6,371.7 584.9,370.9 579.0,368.5 557.3,359.3 554.4,358.0 549.5,356.0 547.8,355.3 547.5,355.1 547.4,355.1 547.1,355.0 546.8,354.8 546.5,354.6 546.3,354.5 546.0,354.4 545.9,354.3 545.7,354.1 545.3,353.9 545.0,353.7 544.6,353.5 544.3,353.4" opacity="0.8"/>
    <polyline points="556.0,409.7 548.6,415.8 548.0,416.3 546.8,417.3 546.1,417.8 545.5,418.2 543.5,419.9 540.3,422.6 540.2,422.7 540.1,422.8 540.0,422.9 539.9,423.0 539.8,423.1 539.7,423.2 539.6,423.3 539.5,423.4 539.4,423.5 539.4,423.6 539.3,423.7 539.2,423.8 539.1,423.9 539.1,424.0 539.0,424.2 538.9,424.3 538.9,424.4 538.8,424.5 538.8,424.6 538.7,424.7 538.7,424.9 538.6,425.0 538.6,425.1 538.6,425.2 538.6,425.3 538.5,425.4 538.5,425.6 538.5,425.7 538.5,425.8 538.5,425.9 538.5,426.0 538.5,426.2 538.5,426.3 538.5,426.4 538.5,426.5 538.5,426.6 538.5,426.8 538.5,426.9 538.6,427.0 538.6,427.1 538.6,427.2 538.7,427.4 538.7,427.5 538.8,427.6 538.8,427.7 538.9,427.8 538.9,427.9 539.0,428.0 539.0,428.2 539.1,428.3 539.2,428.4 539.2,428.5 539.3,428.6 539.4,428.7 539.5,428.8 539.6,428.9 539.7,429.0 539.8,429.1 539.9,429.2 540.0,429.3 540.1,429.4 540.2,429.5 540.3,429.6 540.4,429.7 540.5,429.8 540.6,429.9 540.8,430.0 540.9,430.1 541.0,430.2 541.1,430.2 541.3,430.3 541.4,430.4 541.5,430.5 541.7,430.6 541.8,430.6 542.0,430.7 542.1,430.8 542.3,430.9 542.4,430.9 542.6,431.0 542.7,431.0 542.9,431.1 544.3,431.6 547.0,432.6 547.1,432.6 547.3,432.7 547.5,432.7 547.6,432.8 547.8,432.8 548.0,432.8 548.1,432.9 548.3,432.9 548.5,432.9 548.7,433.0 548.8,433.0 549.0,433.0 549.2,433.0 549.4,433.0 549.6,433.0 549.7,433.0 549.9,433.0 550.1,433.0 550.3,433.0 550.5,433.0 550.7,433.0 550.8,433.0 551.0,433.0 551.2,433.0 551.4,432.9 551.5,432.9 551.7,432.9 551.9,432.9 552.1,432.8 552.2,432.8 552.4,432.7 552.6,432.7 552.7,432.6 552.9,432.6 553.1,432.5 553.2,432.5 553.4,432.4 553.5,432.3 553.7,432.3 553.8,432.2 554.0,432.1 554.1,432.0 554.7,431.7 556.5,430.6 556.6,430.5 558.1,429.6 558.4,429.4 558.9,429.2 559.1,429.0 559.3,428.9 559.5,428.8 559.8,428.7 560.0,428.7 560.1,428.6 560.3,428.6 560.5,428.5 560.7,428.5 560.9,428.5 561.1,428.4 561.3,428.4 561.4,428.4 561.6,428.4 561.8,428.4 562.0,428.5 562.2,428.5 562.5,428.6 562.8,428.6 563.1,428.7 563.3,428.7 563.5,428.8 563.6,428.9 563.8,429.0 564.1,429.0 564.3,429.1 564.4,429.2 564.6,429.3 564.7,429.4 564.8,429.5 565.0,429.6 565.1,429.7 565.5,430.0 565.8,430.2 566.5,430.9 569.1,432.9 570.6,434.2 571.4,434.8 571.9,435.1 572.5,435.5 572.9,435.7 576.6,437.6 579.5,439.5 580.1,439.9 580.7,440.4 581.1,440.9 581.6,441.3 581.9,441.7 581.9,441.9 582.2,442.3 582.4,442.6 582.5,442.9 582.6,443.4 582.7,443.7 582.8,444.3 582.8,444.6 582.9,445.0 582.9,445.3 582.9,445.6 582.8,446.3 582.7,446.8 582.5,448.5 582.4,450.3 582.3,450.8 581.5,458.3 581.2,461.2" opacity="0.8"/>
    <polyline points="601.6,380.6 602.1,380.8 602.4,380.9 603.7,381.4 604.5,381.8 605.1,382.1 605.9,382.4 607.2,382.9 610.3,383.6 617.8,385.4 622.3,386.0 625.9,386.1 629.0,385.8 631.6,385.2 634.4,384.2 637.5,382.9 643.1,379.1 645.2,377.9 660.5,368.4 661.5,367.6 661.8,367.4 662.0,367.2 662.2,367.0 662.3,366.8 662.4,366.5 662.5,366.3 662.6,366.0 662.7,365.8 662.8,365.4 662.9,365.1 663.0,364.5 663.1,363.9 663.7,358.1 663.7,357.6 663.8,357.0 664.1,352.9" opacity="0.8"/>
    <polyline points="404.7,309.5 404.2,309.4 403.9,309.2 401.5,308.2 399.6,307.2 396.7,305.8 396.2,305.6 395.9,305.5 395.5,305.3 394.8,305.1 394.3,304.9 392.7,304.5 392.3,304.4 391.5,304.3 390.5,304.2 389.9,304.1 389.6,304.1 388.8,304.1 388.1,304.1 387.6,304.0 385.7,303.9 384.8,303.8 384.1,303.7 383.7,303.7 383.2,303.6" opacity="0.8"/>
    <polyline points="599.4,379.6 599.5,379.7 599.8,379.8 601.6,380.6" opacity="0.8"/>
    <polyline points="464.7,431.0 466.2,428.6 468.1,424.4 468.3,424.0" opacity="0.8"/>
    <polyline points="477.9,405.4 477.3,406.1 477.2,406.3 476.4,407.0 476.0,407.4 472.3,411.4 471.9,411.9 471.6,412.3 471.4,412.8 470.8,415.3 470.4,416.9 470.3,417.9 470.0,418.9 469.9,419.5 469.7,420.2 469.3,421.1 469.0,422.1 468.2,424.0" opacity="0.8"/>
    <polyline points="472.1,430.5 471.5,430.2" opacity="0.8"/>
    <polyline points="459.8,435.9 464.5,431.1 464.7,431.0" opacity="0.8"/>
    <polyline points="464.6,430.9 464.1,431.5 459.7,435.9" opacity="0.8"/>
    <polyline points="468.2,424.0 468.0,424.4 466.1,428.6 464.6,430.9" opacity="0.8"/>
    <polyline points="464.5,431.1 464.1,431.5" opacity="0.8"/>
    <polyline points="469.7,429.9 469.6,430.0 469.5,430.0 469.4,430.0 467.4,430.2" opacity="0.8"/>
    <polyline points="471.4,430.2 471.0,430.0 470.7,430.0 470.5,429.9 470.2,429.9 470.0,429.9 469.7,429.9 466.4,430.2 466.2,430.3 466.0,430.3 465.7,430.4 465.5,430.5 465.4,430.5 465.2,430.6 465.0,430.7 464.7,431.0" opacity="0.8"/>
    <polyline points="471.0,419.0 470.9,419.2" opacity="0.8"/>
    <polyline points="470.9,419.2 470.9,419.6 470.7,420.1 470.2,421.3 469.9,422.2 469.1,424.1 468.9,424.6 467.8,427.4 467.8,427.5 467.8,427.7 467.7,427.9 467.8,428.2 467.8,428.3 467.9,428.4 468.0,428.6 468.3,428.8 468.6,428.9 470.8,429.9 471.4,430.2 472.1,430.5 481.0,434.1 484.0,435.3 484.4,435.5 486.2,436.2 493.1,438.9 495.9,440.0 503.0,442.9 504.7,443.6 506.9,444.4 508.4,445.1 509.8,445.6 510.1,445.7 510.4,445.8 510.6,445.8 511.0,445.9 511.1,445.9 511.3,445.9 511.5,445.8 512.0,445.8 512.3,445.7 512.6,445.6 513.4,445.4 515.8,444.6 516.5,444.4 516.8,444.3 517.0,444.2 517.5,443.9 517.9,443.7 518.2,443.6 518.8,443.2" opacity="0.8"/>
    <polyline points="470.9,418.6 471.0,419.0" opacity="0.8"/>
    <polyline points="423.1,409.3 426.7,410.8 428.8,411.2 431.7,411.2 433.3,411.1 434.6,410.7 436.7,409.6 437.9,408.9 439.3,408.2 440.4,407.7 441.9,407.2 442.9,407.1 443.9,407.3 444.4,407.4 445.9,408.0 449.1,409.5 450.8,410.2" opacity="0.8"/>
    <polyline points="450.8,410.2 459.9,413.8 465.2,416.1 467.1,416.9 470.2,418.2 470.6,418.4 470.9,418.7 471.0,419.0" opacity="0.8"/>
    <polyline points="367.3,376.0 376.1,380.6 386.3,386.1" opacity="0.8"/>
    <polyline points="386.3,386.1 394.0,390.9 394.3,391.1 399.7,394.5 405.5,398.6 407.1,400.0" opacity="0.8"/>
    <polyline points="407.1,400.0 411.3,402.4 416.9,405.7 422.5,408.9 423.1,409.3" opacity="0.8"/>
    <polyline points="460.0,413.7 465.3,416.1 467.2,416.8 470.2,418.1 470.7,418.4 470.9,418.6" opacity="0.8"/>
    <polyline points="450.8,410.2 460.0,413.7" opacity="0.8"/>
    <polyline points="471.0,419.0 471.0,419.2 471.0,419.6 470.8,420.1 470.3,421.3 470.0,422.3 469.2,424.1" opacity="0.8"/>
    <polyline points="469.2,424.1 469.0,424.6 467.9,427.4 467.9,427.5 467.8,427.7 467.8,427.9 467.9,428.1 467.9,428.3 467.9,428.4 468.1,428.6 468.4,428.8 468.6,428.9 470.9,429.9 471.5,430.2 481.1,434.1 484.1,435.3" opacity="0.8"/>
    <polyline points="484.1,435.3 484.4,435.4 486.0,436.1 490.6,437.8 493.1,438.8 503.0,442.8 508.4,445.0 509.8,445.6 510.1,445.7 510.6,445.8 511.0,445.8 511.2,445.8 511.5,445.8 512.0,445.7 512.2,445.7 512.5,445.6 513.4,445.3" opacity="0.8"/>
    <polyline points="513.4,445.3 515.7,444.6 516.5,444.3 516.8,444.2 517.4,443.9 517.9,443.7 518.3,443.4 518.7,443.2 520.7,442.1 523.3,440.0 523.8,439.6 524.5,439.1 524.7,438.9 525.0,438.7 525.3,438.6 525.7,438.4 526.1,438.2 526.6,438.0 526.8,437.9 527.2,437.8 527.5,437.7 527.8,437.6 528.0,437.6 528.3,437.6 528.5,437.5 528.7,437.5 529.0,437.5 529.3,437.5 529.6,437.5 530.1,437.5 530.4,437.6 530.8,437.6 531.2,437.7 531.5,437.7 531.9,437.8 532.2,437.8 532.4,437.9 532.8,438.0 533.1,438.2 533.4,438.3 533.8,438.5 534.0,438.6 534.2,438.7 535.6,439.4 535.9,439.6 536.2,439.7 536.4,439.8 536.6,439.9 536.9,440.0 537.2,440.1 537.5,440.1 537.8,440.2 538.0,440.2 538.3,440.2 538.9,440.3 539.6,440.3 540.2,440.4 540.9,440.4 541.8,440.4 542.2,440.4 542.4,440.4 542.7,440.3 543.0,440.3 543.3,440.2 544.8,439.7" opacity="0.8"/>
    <polyline points="544.8,439.7 545.5,439.4 545.8,439.3 546.7,439.0 547.1,438.8 547.5,438.6 547.7,438.5 547.9,438.4 548.2,438.2 548.5,438.0 548.9,437.8 549.4,437.4 549.8,437.1 550.1,436.8 550.4,436.5 550.9,436.0 551.4,435.4 553.6,432.9 553.9,432.6 554.2,432.3 554.4,432.1 554.9,431.8 556.7,430.7 556.7,430.7" opacity="0.8"/>
    <polyline points="512.3,493.7 513.8,493.0 515.2,492.2 516.8,491.3 517.0,491.2 517.4,491.0 517.9,490.8 518.3,490.5 518.6,490.4 518.8,490.2 519.0,490.0 519.3,489.7 519.5,489.5 519.8,489.2 520.0,488.9 520.4,488.4 520.7,488.0 521.0,487.7 521.4,487.3 522.0,487.0 522.6,486.7 523.3,486.4 525.2,485.8 525.8,485.6 530.1,484.9 531.9,484.6 533.6,484.3 535.1,484.0 536.0,483.8 536.7,483.6 538.2,483.2 539.2,482.9 540.1,482.7 541.7,482.1 545.0,481.1 548.5,479.9 549.0,479.6 549.8,479.3 550.5,479.0 550.8,478.7 551.4,478.3 552.1,477.8 552.5,477.4 552.7,477.2 552.9,477.0 553.0,476.8 553.2,476.6 553.3,476.4 553.3,476.2 553.4,474.8 553.5,473.8 553.6,473.1 553.7,472.7 553.8,472.4 553.8,472.0 553.9,471.8 554.0,471.6 554.0,471.5 554.1,471.3 554.2,471.2 554.4,471.0 554.6,470.8 554.8,470.7 555.0,470.5 555.4,470.4 555.7,470.3 556.0,470.2 556.8,470.0 558.0,469.9 559.5,469.9 563.5,470.0 567.8,470.2 569.6,470.2 571.4,470.3 572.8,470.3 576.0,470.4 576.8,470.4 577.0,470.4 577.2,470.4 577.8,470.3 578.2,470.3 578.4,470.2 578.6,470.2 578.9,470.1 579.2,470.0 579.4,469.9 579.5,469.9 579.6,469.9 579.7,469.8 579.9,469.7 580.1,469.5 580.3,469.3 580.4,469.2 580.4,469.1 580.5,468.9 580.5,468.7 580.6,468.5 580.6,468.3 580.7,467.9 580.7,467.5 580.8,466.9 580.8,466.1 581.0,464.5 581.1,463.5 581.6,458.3" opacity="0.8"/>
    <polyline points="503.5,496.1 503.3,496.4 503.3,496.5 503.2,496.8" opacity="0.8"/>
    <polyline points="503.7,496.2 503.4,496.5" opacity="0.8"/>
    <polyline points="503.4,496.5 503.4,496.5 503.3,496.7 503.2,496.8 503.2,497.0 503.2,497.2 503.2,497.3 503.2,497.5 503.3,497.6 503.3,497.7 503.5,497.8 503.6,498.0 503.9,498.2 504.2,498.3 504.5,498.3 504.8,498.3 505.0,498.3 505.3,498.3 505.7,498.2 506.0,498.1 506.2,497.9 506.3,497.8 506.6,497.4 506.8,497.2 507.6,496.4 508.8,495.5 510.1,494.8" opacity="0.8"/>
    <polyline points="508.5,491.9 503.6,495.9 503.6,495.9 503.6,495.9 503.5,496.0 503.5,496.0 503.5,496.1 503.4,496.2 503.3,496.4" opacity="0.8"/>
    <polyline points="508.5,491.9 503.7,495.9 503.7,495.9 503.5,496.1" opacity="0.8"/>
    <polyline points="508.6,492.0 507.2,493.1 503.7,495.9 503.7,495.9 503.5,496.1" opacity="0.8"/>
    <polyline points="508.7,492.0 503.9,495.9 503.8,496.0 503.7,496.2" opacity="0.8"/>
    <polyline points="508.7,492.0 503.9,496.0 503.7,496.2" opacity="0.8"/>
    <polyline points="508.8,492.1 503.9,496.0 503.7,496.3 503.4,496.5" opacity="0.8"/>
    <polyline points="510.1,494.8 512.3,493.7" opacity="0.8"/>
    <polyline points="512.3,493.7 510.1,494.8 508.9,495.4 508.8,495.5" opacity="0.8"/>
    <polyline points="580.6,468.3 580.5,468.5 580.4,468.7 580.4,468.9 580.4,469.0 580.3,469.2 580.2,469.3 580.0,469.5 579.8,469.6 579.6,469.8 579.5,469.8 579.4,469.9 579.1,470.0 578.7,470.1 578.4,470.2 578.2,470.2 577.5,470.3 577.0,470.3 576.8,470.3 572.9,470.3 571.5,470.3 569.6,470.2 563.5,470.0 559.5,469.8 558.0,469.8 556.8,470.0 556.0,470.1 555.6,470.2 555.3,470.3 555.0,470.5 554.7,470.6 554.5,470.8 554.3,471.0 554.2,471.1 554.0,471.3 554.0,471.5 553.9,471.6 553.8,471.8 553.8,472.0 553.7,472.4 553.6,472.7 553.5,473.1 553.4,473.8 553.3,474.8 553.2,476.2 553.2,476.4 553.1,476.5 552.9,476.8 552.8,477.0 552.6,477.2 552.4,477.4 552.0,477.7 551.3,478.3 550.8,478.7 550.5,478.9 549.7,479.2 548.9,479.6 548.4,479.8 545.0,481.0 541.6,482.1 540.1,482.6 539.1,482.9 538.2,483.1 536.6,483.5 536.0,483.7 535.1,483.9 533.6,484.2 531.9,484.5 530.1,484.8 525.8,485.6 525.1,485.8 523.2,486.4 522.6,486.6 521.9,486.9 521.3,487.3 520.9,487.6 520.6,487.9 520.4,488.3 519.9,488.9 519.4,489.5 519.0,489.9 518.7,490.2 518.3,490.5 517.8,490.7 517.5,490.9 517.2,491.1 516.7,491.3 515.1,492.2 514.5,492.5 514.4,492.6 513.7,492.9 512.3,493.7" opacity="0.8"/>
    <polyline points="581.2,461.2 581.0,463.5 580.9,464.5 580.8,465.6 580.7,466.1 580.7,466.9 580.6,467.6 580.6,467.9 580.6,468.3" opacity="0.8"/>
    <polyline points="602.1,380.8 602.6,380.9 603.1,380.9 603.5,380.9 603.9,380.7 604.2,380.5 604.3,380.3 604.3,380.0 604.2,379.7 604.1,379.6 603.9,379.3 603.6,379.1 603.3,378.9 602.8,378.7 601.9,378.3 600.6,377.7 599.2,377.1 598.6,376.9 597.9,376.6 597.2,376.3 596.2,375.9 595.5,375.6 594.5,375.1 593.7,374.8 593.5,374.6 593.3,374.3 593.3,374.0 593.3,373.7 593.3,373.4 593.4,373.2 593.5,372.9 593.5,372.7 593.6,372.4" opacity="0.8"/>
  </g>

  <!-- 지하철 역 -->
  <g id="subway-stations">
    <circle cx="493.0" cy="366.0" r="4" fill="#dc2626" stroke="#fff" stroke-width="2"/>
    <text x="493.0" y="358.0" text-anchor="middle" font-size="10" fill="#374151">Outremont</text>
    <circle cx="573.7" cy="409.1" r="4" fill="#dc2626" stroke="#fff" stroke-width="2"/>
    <text x="573.7" y="401.1" text-anchor="middle" font-size="10" fill="#374151">Lucien L'Allier</text>
    <circle cx="663.8" cy="357.7" r="4" fill="#dc2626" stroke="#fff" stroke-width="2"/>
    <circle cx="477.2" cy="406.3" r="4" fill="#dc2626" stroke="#fff" stroke-width="2"/>
    <text x="477.2" y="398.3" text-anchor="middle" font-size="10" fill="#374151">Côte-des-Neiges</text>
    <circle cx="591.9" cy="374.5" r="4" fill="#dc2626" stroke="#fff" stroke-width="2"/>
    <text x="591.9" y="366.5" text-anchor="middle" font-size="10" fill="#374151">Berri-UQAM</text>
    <circle cx="643.2" cy="379.1" r="4" fill="#dc2626" stroke="#fff" stroke-width="2"/>
    <text x="643.2" y="371.1" text-anchor="middle" font-size="10" fill="#374151">Jean-Drapeau</text>
    <circle cx="484.0" cy="435.3" r="4" fill="#dc2626" stroke="#fff" stroke-width="2"/>
    <text x="484.0" y="427.3" text-anchor="middle" font-size="10" fill="#374151">Villa-Maria</text>
    <circle cx="468.2" cy="425.1" r="4" fill="#dc2626" stroke="#fff" stroke-width="2"/>
    <text x="468.2" y="417.1" text-anchor="middle" font-size="10" fill="#374151">Snowdon</text>
    <circle cx="617.1" cy="295.5" r="4" fill="#dc2626" stroke="#fff" stroke-width="2"/>
    <text x="617.1" y="287.5" text-anchor="middle" font-size="10" fill="#374151">Viau</text>
    <circle cx="532.8" cy="484.6" r="4" fill="#dc2626" stroke="#fff" stroke-width="2"/>
    <text x="532.8" y="476.6" text-anchor="middle" font-size="10" fill="#374151">Monk</text>
    <circle cx="580.9" cy="464.5" r="4" fill="#dc2626" stroke="#fff" stroke-width="2"/>
    <text x="580.9" y="456.5" text-anchor="middle" font-size="10" fill="#374151">De l'Église</text>
    <circle cx="576.6" cy="437.9" r="4" fill="#dc2626" stroke="#fff" stroke-width="2"/>
    <text x="576.6" y="429.9" text-anchor="middle" font-size="10" fill="#374151">Charlevoix</text>
    <circle cx="604.4" cy="328.8" r="4" fill="#dc2626" stroke="#fff" stroke-width="2"/>
    <text x="604.4" y="320.8" text-anchor="middle" font-size="10" fill="#374151">Préfontaine</text>
    <circle cx="572.6" cy="393.5" r="4" fill="#dc2626" stroke="#fff" stroke-width="2"/>
    <text x="572.6" y="385.5" text-anchor="middle" font-size="10" fill="#374151">McGill</text>
    <circle cx="618.3" cy="268.5" r="4" fill="#dc2626" stroke="#fff" stroke-width="2"/>
    <text x="618.3" y="260.5" text-anchor="middle" font-size="10" fill="#374151">Cadillac</text>
    <circle cx="639.0" cy="234.9" r="4" fill="#dc2626" stroke="#fff" stroke-width="2"/>
    <text x="639.0" y="226.9" text-anchor="middle" font-size="10" fill="#374151">Honoré-Beaugrand</text>
    <circle cx="520.4" cy="297.9" r="4" fill="#dc2626" stroke="#fff" stroke-width="2"/>
    <text x="520.4" y="289.9" text-anchor="middle" font-size="10" fill="#374151">Saint-Michel</text>
    <circle cx="515.4" cy="310.1" r="4" fill="#dc2626" stroke="#fff" stroke-width="2"/>
    <text x="515.4" y="302.1" text-anchor="middle" font-size="10" fill="#374151">D’Iberville</text>
    <circle cx="506.0" cy="320.2" r="4" fill="#dc2626" stroke="#fff" stroke-width="2"/>
    <text x="506.0" y="312.2" text-anchor="middle" font-size="10" fill="#374151">Fabre</text>
    <circle cx="495.7" cy="333.2" r="4" fill="#dc2626" stroke="#fff" stroke-width="2"/>
    <text x="495.7" y="325.2" text-anchor="middle" font-size="10" fill="#374151">Jean-Talon</text>
    <circle cx="483.4" cy="339.9" r="4" fill="#dc2626" stroke="#fff" stroke-width="2"/>
    <text x="483.4" y="331.9" text-anchor="middle" font-size="10" fill="#374151">De Castelnau</text>
    <circle cx="475.3" cy="348.3" r="4" fill="#dc2626" stroke="#fff" stroke-width="2"/>
    <text x="475.3" y="340.3" text-anchor="middle" font-size="10" fill="#374151">Parc</text>
    <circle cx="476.7" cy="360.6" r="4" fill="#dc2626" stroke="#fff" stroke-width="2"/>
    <text x="476.7" y="352.6" text-anchor="middle" font-size="10" fill="#374151">Acadie</text>
    <circle cx="497.3" cy="383.1" r="4" fill="#dc2626" stroke="#fff" stroke-width="2"/>
    <text x="497.3" y="375.1" text-anchor="middle" font-size="10" fill="#374151">Édouard-Montpetit</text>
    <circle cx="488.0" cy="394.6" r="4" fill="#dc2626" stroke="#fff" stroke-width="2"/>
    <circle cx="367.3" cy="376.0" r="4" fill="#dc2626" stroke="#fff" stroke-width="2"/>
    <text x="367.3" y="368.0" text-anchor="middle" font-size="10" fill="#374151">Côte-Vertu</text>
    <circle cx="386.5" cy="386.0" r="4" fill="#dc2626" stroke="#fff" stroke-width="2"/>
    <text x="386.5" y="378.0" text-anchor="middle" font-size="10" fill="#374151">Du Collège</text>
    <circle cx="407.2" cy="399.9" r="4" fill="#dc2626" stroke="#fff" stroke-width="2"/>
    <text x="407.2" y="391.9" text-anchor="middle" font-size="10" fill="#374151">De La Savane</text>
    <circle cx="423.1" cy="409.2" r="4" fill="#dc2626" stroke="#fff" stroke-width="2"/>
    <text x="423.1" y="401.2" text-anchor="middle" font-size="10" fill="#374151">Namur</text>
    <circle cx="450.7" cy="410.2" r="4" fill="#dc2626" stroke="#fff" stroke-width="2"/>
    <text x="450.7" y="402.2" text-anchor="middle" font-size="10" fill="#374151">Plamondon</text>
    <circle cx="460.0" cy="413.6" r="4" fill="#dc2626" stroke="#fff" stroke-width="2"/>
    <circle cx="513.3" cy="445.4" r="4" fill="#dc2626" stroke="#fff" stroke-width="2"/>
    <text x="513.3" y="437.4" text-anchor="middle" font-size="10" fill="#374151">Vendôme</text>
    <circle cx="545.0" cy="439.7" r="4" fill="#dc2626" stroke="#fff" stroke-width="2"/>
    <text x="545.0" y="431.7" text-anchor="middle" font-size="10" fill="#374151">Place Saint-Henri</text>
    <circle cx="563.6" cy="419.5" r="4" fill="#dc2626" stroke="#fff" stroke-width="2"/>
    <text x="563.6" y="411.5" text-anchor="middle" font-size="10" fill="#374151">Georges-Vanier</text>
    <circle cx="581.0" cy="403.6" r="4" fill="#dc2626" stroke="#fff" stroke-width="2"/>
    <text x="581.0" y="395.6" text-anchor="middle" font-size="10" fill="#374151">Bonaventure</text>
    <circle cx="588.1" cy="396.9" r="4" fill="#dc2626" stroke="#fff" stroke-width="2"/>
    <circle cx="594.6" cy="390.1" r="4" fill="#dc2626" stroke="#fff" stroke-width="2"/>
    <text x="594.6" y="382.1" text-anchor="middle" font-size="10" fill="#374151">Place d’Armes</text>
    <circle cx="600.3" cy="383.1" r="4" fill="#dc2626" stroke="#fff" stroke-width="2"/>
    <text x="600.3" y="375.1" text-anchor="middle" font-size="10" fill="#374151">Champ-de-Mars</text>
    <circle cx="579.0" cy="368.4" r="4" fill="#dc2626" stroke="#fff" stroke-width="2"/>
    <text x="579.0" y="360.4" text-anchor="middle" font-size="10" fill="#374151">Sherbrooke</text>
    <circle cx="554.1" cy="358.2" r="4" fill="#dc2626" stroke="#fff" stroke-width="2"/>
    <text x="554.1" y="350.2" text-anchor="middle" font-size="10" fill="#374151">Mont-Royal</text>
    <circle cx="541.7" cy="352.3" r="4" fill="#dc2626" stroke="#fff" stroke-width="2"/>
    <text x="541.7" y="344.3" text-anchor="middle" font-size="10" fill="#374151">Laurier</text>
    <circle cx="525.2" cy="346.4" r="4" fill="#dc2626" stroke="#fff" stroke-width="2"/>
    <text x="525.2" y="338.4" text-anchor="middle" font-size="10" fill="#374151">Rosemont</text>
    <circle cx="511.8" cy="340.2" r="4" fill="#dc2626" stroke="#fff" stroke-width="2"/>
    <text x="511.8" y="332.2" text-anchor="middle" font-size="10" fill="#374151">Beaubien</text>
    <circle cx="467.8" cy="326.2" r="4" fill="#dc2626" stroke="#fff" stroke-width="2"/>
    <text x="467.8" y="318.2" text-anchor="middle" font-size="10" fill="#374151">Jarry</text>
    <circle cx="449.0" cy="321.2" r="4" fill="#dc2626" stroke="#fff" stroke-width="2"/>
    <text x="449.0" y="313.2" text-anchor="middle" font-size="10" fill="#374151">Crémazie</text>
    <circle cx="416.5" cy="312.7" r="4" fill="#dc2626" stroke="#fff" stroke-width="2"/>
    <text x="416.5" y="304.7" text-anchor="middle" font-size="10" fill="#374151">Sauvé</text>
    <circle cx="394.9" cy="306.9" r="4" fill="#dc2626" stroke="#fff" stroke-width="2"/>
    <text x="394.9" y="298.9" text-anchor="middle" font-size="10" fill="#374151">Henri-Bourassa</text>
    <circle cx="318.7" cy="296.0" r="4" fill="#dc2626" stroke="#fff" stroke-width="2"/>
    <text x="318.7" y="288.0" text-anchor="middle" font-size="10" fill="#374151">De la Concorde</text>
    <circle cx="631.0" cy="246.5" r="4" fill="#dc2626" stroke="#fff" stroke-width="2"/>
    <text x="631.0" y="238.5" text-anchor="middle" font-size="10" fill="#374151">Radisson</text>
    <circle cx="624.8" cy="258.4" r="4" fill="#dc2626" stroke="#fff" stroke-width="2"/>
    <text x="624.8" y="250.4" text-anchor="middle" font-size="10" fill="#374151">Langelier</text>
    <circle cx="618.2" cy="281.3" r="4" fill="#dc2626" stroke="#fff" stroke-width="2"/>
    <text x="618.2" y="273.3" text-anchor="middle" font-size="10" fill="#374151">Assomption</text>
    <circle cx="609.4" cy="307.4" r="4" fill="#dc2626" stroke="#fff" stroke-width="2"/>
    <text x="609.4" y="299.4" text-anchor="middle" font-size="10" fill="#374151">Pie IX</text>
    <circle cx="610.3" cy="319.9" r="4" fill="#dc2626" stroke="#fff" stroke-width="2"/>
    <text x="610.3" y="311.9" text-anchor="middle" font-size="10" fill="#374151">Joliette</text>
    <circle cx="608.1" cy="343.6" r="4" fill="#dc2626" stroke="#fff" stroke-width="2"/>
    <text x="608.1" y="335.6" text-anchor="middle" font-size="10" fill="#374151">Frontenac</text>
    <circle cx="608.2" cy="359.7" r="4" fill="#dc2626" stroke="#fff" stroke-width="2"/>
    <text x="608.2" y="351.7" text-anchor="middle" font-size="10" fill="#374151">Papineau</text>
    <circle cx="599.0" cy="366.9" r="4" fill="#dc2626" stroke="#fff" stroke-width="2"/>
    <text x="599.0" y="358.9" text-anchor="middle" font-size="10" fill="#374151">Beaudry</text>
    <circle cx="585.0" cy="381.8" r="4" fill="#dc2626" stroke="#fff" stroke-width="2"/>
    <text x="585.0" y="373.8" text-anchor="middle" font-size="10" fill="#374151">Saint-Laurent</text>
    <circle cx="578.6" cy="386.7" r="4" fill="#dc2626" stroke="#fff" stroke-width="2"/>
    <text x="578.6" y="378.7" text-anchor="middle" font-size="10" fill="#374151">Place-des-Arts</text>
    <circle cx="566.1" cy="399.5" r="4" fill="#dc2626" stroke="#fff" stroke-width="2"/>
    <text x="566.1" y="391.5" text-anchor="middle" font-size="10" fill="#374151">Peel</text>
    <circle cx="557.4" cy="408.5" r="4" fill="#dc2626" stroke="#fff" stroke-width="2"/>
    <text x="557.4" y="400.5" text-anchor="middle" font-size="10" fill="#374151">Guy-Concordia</text>
    <circle cx="545.4" cy="418.1" r="4" fill="#dc2626" stroke="#fff" stroke-width="2"/>
    <text x="545.4" y="410.1" text-anchor="middle" font-size="10" fill="#374151">Atwater</text>
    <circle cx="582.6" cy="450.7" r="4" fill="#dc2626" stroke="#fff" stroke-width="2"/>
    <text x="582.6" y="442.7" text-anchor="middle" font-size="10" fill="#374151">LaSalle</text>
    <circle cx="571.8" cy="470.5" r="4" fill="#dc2626" stroke="#fff" stroke-width="2"/>
    <text x="571.8" y="462.5" text-anchor="middle" font-size="10" fill="#374151">Verdun</text>
    <circle cx="553.4" cy="474.6" r="4" fill="#dc2626" stroke="#fff" stroke-width="2"/>
    <text x="553.4" y="466.6" text-anchor="middle" font-size="10" fill="#374151">Jolicoeur</text>
    <circle cx="513.6" cy="493.0" r="4" fill="#dc2626" stroke="#fff" stroke-width="2"/>
    <text x="513.6" y="485.0" text-anchor="middle" font-size="10" fill="#374151">Angrignon</text>
    <circle cx="557.4" cy="430.1" r="4" fill="#dc2626" stroke="#fff" stroke-width="2"/>
    <text x="557.4" y="422.1" text-anchor="middle" font-size="10" fill="#374151">Lionel-Groulx</text>
    <circle cx="632.6" cy="451.5" r="4" fill="#dc2626" stroke="#fff" stroke-width="2"/>
    <text x="632.6" y="443.5" text-anchor="middle" font-size="10" fill="#374151">Île-des-Soeurs</text>
    <circle cx="297.1" cy="300.3" r="4" fill="#dc2626" stroke="#fff" stroke-width="2"/>
    <text x="297.1" y="292.3" text-anchor="middle" font-size="10" fill="#374151">Montmorency</text>
    <circle cx="370.1" cy="297.0" r="4" fill="#dc2626" stroke="#fff" stroke-width="2"/>
    <text x="370.1" y="289.0" text-anchor="middle" font-size="10" fill="#374151">Cartier</text>
    <circle cx="581.5" cy="400.6" r="4" fill="#dc2626" stroke="#fff" stroke-width="2"/>
    <text x="581.5" y="392.6" text-anchor="middle" font-size="10" fill="#374151">Gare Centrale</text>
  </g>
</svg>