<?xml version="1.0" encoding="UTF-8"?>
<svg width="800" height="600" xmlns="http://www.w3.org/2000/svg">
  <title>Moscow Subway Map</title>
  <rect width="100%" height="100%" fill="#f8f9fa"/>
  <g stroke="#2563eb" stroke-width="3" fill="none">
    <polyline points="162.1,294.2 163.0,294.0 163.5,294.0 166.3,293.5 166.8,293.3 167.3,293.2 167.9,293.0 169.4,292.4"/>
    <polyline points="676.3,144.6 676.5,149.4"/>
    <polyline points="291.4,274.6 291.2,274.0 290.9,273.4 290.5,272.9 290.1,272.4 289.6,272.0 289.0,271.7"/>
    <polyline points="291.8,276.4 291.6,275.5 291.4,274.6"/>
    <polyline points="353.8,262.2 352.4,262.2 350.3,262.4 347.1,262.5"/>
    <polyline points="358.2,261.8 357.8,261.8 356.1,262.0 354.7,262.1 353.8,262.2"/>
    <polyline points="289.0,271.7 288.2,271.5 287.9,271.4 287.5,271.3 286.6,271.2 285.1,271.1 284.3,271.0 283.5,270.9 282.4,270.7 278.9,269.9 278.2,269.8 277.4,269.8 276.8,269.9 276.3,269.9 275.0,270.3 274.3,270.4 273.6,270.6 272.7,270.6 272.2,270.6 271.5,270.4 270.9,270.3 268.4,269.5"/>
    <polyline points="268.4,269.5 267.8,269.3 267.2,269.0 266.4,268.6 266.0,268.4 265.8,268.2 265.4,268.0 264.9,267.3"/>
    <polyline points="329.7,272.8 327.5,273.2 326.9,273.4 326.5,273.5 326.2,273.7 325.7,273.9 325.4,274.2 324.1,275.3 323.8,275.5 323.5,275.7 323.0,275.9"/>
    <polyline points="325.5,333.5 325.1,333.9 323.6,335.3 318.3,340.0 317.7,340.5 317.2,341.1 316.6,341.6 303.5,355.7 303.1,356.0 302.4,356.6 301.5,357.2 300.6,357.8 299.7,358.3 294.0,360.9 293.1,361.3 292.3,361.8 290.3,363.2 288.4,364.6 286.4,365.9 280.8,369.8 273.1,375.6"/>
    <polyline points="292.7,278.2 292.1,277.2 291.8,276.4"/>
    <polyline points="296.5,281.9 295.9,281.6 295.5,281.4 294.2,280.1 293.4,279.1 292.8,278.4 292.7,278.2"/>
    <polyline points="323.0,275.9 322.6,276.0 317.9,277.6 315.2,278.5 312.5,279.4 309.8,280.3 307.1,281.2 304.2,282.1 303.0,282.5 302.2,282.7 301.2,282.8 300.3,282.8 299.4,282.7 298.5,282.6 297.4,282.3 296.5,281.9"/>
    <polyline points="660.8,256.6 662.5,256.2 663.3,256.1 666.1,255.6 666.8,255.4 671.4,254.3 672.0,254.2 677.2,252.7 678.3,252.5 679.4,252.4 680.5,252.3 681.6,252.3 682.8,252.4 683.9,252.5 697.5,254.9 699.9,255.4 701.2,255.6"/>
    <polyline points="674.5,189.8 674.0,189.9 673.4,189.9 668.4,189.9 667.4,189.9 661.5,190.1 658.0,190.2 656.2,190.2 653.7,190.3 652.0,190.3 650.2,190.4 646.8,190.5 646.0,190.5 641.6,190.6"/>
    <polyline points="329.7,272.8 329.2,272.8 327.9,273.0 327.4,273.0 326.9,273.2 325.6,273.6 324.7,273.8 323.6,273.9 322.4,273.8 321.4,273.5 320.5,273.1 319.8,272.6 319.3,272.0 319.0,271.4 318.9,270.7 319.0,269.9 319.3,269.2 319.5,268.9 320.1,268.2 320.3,267.8 320.5,267.4 320.7,267.0 320.7,266.5 320.4,264.0 320.2,263.3 319.8,262.8 319.4,262.3 318.9,261.9 311.6,257.4 311.2,257.3 310.8,257.1 310.4,257.0 310.0,256.9 309.5,256.8 309.1,256.7 308.6,256.7 308.2,256.7 307.7,256.8 307.3,256.9 306.8,257.0 306.4,257.1 302.2,258.8 301.0,259.3 300.7,259.5 300.1,259.8"/>
    <polyline points="267.3,475.6 266.6,476.6 265.8,477.5 256.6,487.4 255.8,488.2 253.7,490.0 253.2,490.4 252.8,490.8 252.3,491.4 252.0,492.0 251.8,492.7 251.8,493.4 251.9,494.2 252.2,494.9 254.0,497.6 256.4,501.5 257.2,502.4 258.3,503.2 259.6,503.9 263.5,505.8 264.5,506.2 265.2,506.6 265.9,507.1 266.5,507.7 273.1,513.9 274.5,515.0 274.6,515.1 276.1,516.1 278.1,517.0 279.8,517.5 290.7,520.5 293.6,521.3 296.7,521.9 314.9,526.8 315.7,527.1 316.4,527.4 317.1,527.7 317.8,528.1 320.8,530.1 322.2,531.1"/>
    <polyline points="572.7,138.0 580.4,140.7"/>
    <polyline points="203.5,61.0 206.4,66.4 206.7,67.1"/>
    <polyline points="538.8,173.9 538.0,173.9 537.0,174.1 532.3,175.0"/>
    <polyline points="467.4,214.1 467.1,214.3 466.8,214.5 466.6,214.8 466.3,215.0 464.1,218.4 463.8,219.0 463.5,219.5 463.1,220.8 463.0,221.1 462.8,221.6 462.4,222.0 462.0,222.5 461.5,222.9 460.9,223.2 458.8,224.3"/>
    <polyline points="170.4,293.5 169.9,293.4 169.3,293.4 168.7,293.4 168.0,293.4"/>
    <polyline points="607.5,506.2 600.9,506.6"/>
    <polyline points="368.4,209.3 369.4,208.9 370.5,208.5 371.6,208.2 372.7,208.0 373.3,207.9 392.7,205.0 396.5,204.5 401.8,203.7 403.0,203.6 404.2,203.5 405.1,203.5 406.1,203.5 407.2,203.6 414.3,204.2 418.2,204.5 428.1,205.3 429.4,205.4 430.3,205.4 433.8,205.4 457.6,205.3"/>
    <polyline points="466.5,216.7 466.5,217.7 466.6,218.6 466.7,219.6 467.0,220.5 467.4,221.5 467.8,222.4 468.4,223.2 473.9,230.9 474.5,231.8 474.9,232.7 475.3,233.6 475.7,234.6 475.8,235.0 475.9,235.6 475.9,236.1 476.0,236.6 476.0,237.2 476.0,237.7 476.0,238.3 475.9,238.8 475.9,239.3 475.8,239.9 475.6,240.4 475.5,240.9 475.3,241.5 474.6,243.4 474.2,244.5 473.7,245.9 473.1,247.8 472.4,249.7 468.0,262.8 466.2,268.2 465.8,269.4 465.1,270.6 464.3,271.8 463.4,272.8 462.1,274.1 460.5,275.7 459.6,276.4 458.7,277.1 457.6,277.8 456.3,278.6 455.2,279.2 454.3,279.9 453.4,280.7 452.6,281.5 451.9,282.3 451.3,283.2 449.3,286.3 448.8,287.0 448.2,287.7 447.5,288.4 446.7,289.0 445.8,289.6 444.9,290.1 443.0,291.1 439.8,292.7 438.6,293.3 438.1,293.5 437.1,293.9 436.0,294.3 430.9,295.8 429.6,296.1 428.2,296.3 426.9,296.5 423.1,296.9 412.2,297.9 411.0,297.9 409.8,297.9 408.7,297.8 407.5,297.7 406.4,297.4 405.3,297.2 404.2,296.8 403.7,296.6 401.5,295.7 375.1,284.7 372.7,283.7 369.4,282.3 368.2,281.9 367.0,281.5 365.7,281.2 365.0,281.0 364.5,280.9 353.1,278.7 352.0,278.6 350.9,278.5 349.9,278.4 346.0,278.3 344.6,278.1 342.8,277.7 341.5,277.2 340.8,276.8 340.1,276.3 339.0,275.3 338.3,274.4 337.8,273.3 337.6,272.4 337.6,271.7"/>
    <polyline points="574.8,333.9 575.3,334.0 575.9,334.0 576.6,334.0 579.0,334.1 589.7,334.3 597.4,335.5 610.0,337.6 621.5,338.7 628.9,339.9 640.4,341.8 641.6,341.9 642.8,341.9 643.9,341.8 645.0,341.6 646.2,341.2 647.0,340.9 647.8,340.6 656.8,335.1 657.6,334.6 658.2,334.1 663.6,327.5 665.7,325.0 666.3,324.2"/>
    <polyline points="542.3,318.2 544.1,319.4 545.6,320.4 547.4,321.5 548.3,322.0 550.3,323.0 561.8,328.4 567.4,331.0 571.5,333.0 572.2,333.2 572.8,333.5 573.5,333.6 574.1,333.8 574.8,333.9"/>
    <polyline points="472.9,350.5 473.3,350.9 473.9,351.3 475.4,352.3 477.1,353.5 477.4,353.7 477.8,354.0 478.3,354.5 478.7,354.9 479.1,355.3 479.3,355.6 479.6,355.9 479.8,356.2 480.0,356.5 480.3,357.0 480.5,357.4 480.6,357.7 480.8,358.1 480.9,358.4 481.0,358.9 481.4,361.6 481.6,363.5 481.8,365.6"/>
    <polyline points="500.1,219.4 498.6,220.2 497.2,221.1 495.9,222.0 494.6,223.0 493.4,224.0 483.0,232.9 482.2,233.7 481.5,234.5 480.8,235.3 480.2,236.2 477.5,241.2 477.3,241.5 477.1,241.7 476.9,241.9 476.7,242.1 476.5,242.4 476.2,242.6 476.0,242.7 475.7,242.9 475.4,243.1 475.1,243.2 474.6,243.4"/>
    <polyline points="481.8,365.6 482.1,368.0 482.4,370.4 482.4,371.0 482.4,371.7 482.4,372.2 481.2,382.4"/>
    <polyline points="148.0,51.9 147.9,51.5 147.8,51.1 147.8,50.8 147.8,50.5 147.9,50.2 147.9,49.9"/>
    <polyline points="707.0,256.7 710.8,257.5 712.6,258.0 713.8,258.4 714.0,258.5 715.3,259.2 719.3,261.7 720.3,262.2 721.4,262.7 723.1,263.3 725.0,263.6 726.9,263.9 731.5,264.0 732.9,264.2 734.4,264.4 736.3,264.9 737.8,265.4 746.1,269.1 747.1,269.5 748.3,269.9 749.5,270.2 750.8,270.4 752.5,270.6 754.0,270.6 756.8,270.6 759.0,270.5 761.0,270.3 762.6,270.1 763.7,269.9 768.1,268.9"/>
    <polyline points="417.8,442.1 418.1,442.3 418.3,442.6 418.5,442.8 418.6,443.1 418.8,443.4 418.9,443.7 418.9,443.8 418.9,444.1 418.9,444.9 418.9,445.3 419.0,445.6 419.0,445.9 419.0,446.4 419.0,446.4 419.0,446.8 419.0,447.4 418.9,447.7 418.8,448.2"/>
    <polyline points="418.9,448.8 418.9,448.8 418.9,447.7"/>
    <polyline points="418.8,448.8 418.8,448.8 418.8,448.2"/>
    <polyline points="418.6,448.8 418.6,448.8 418.5,448.0"/>
    <polyline points="418.4,448.8 418.4,448.8 418.4,448.4 418.5,448.2 418.5,448.0 418.6,447.7"/>
    <polyline points="418.3,448.8 418.3,448.8 418.3,448.5 418.3,448.3 418.4,448.0"/>
    <polyline points="418.4,448.0 418.6,447.7 418.8,447.4 418.8,447.3 419.0,446.8"/>
    <polyline points="419.1,448.0 419.1,447.6 419.1,447.3 419.1,446.9 419.1,446.6 419.1,446.4 419.1,445.6 419.0,445.3 419.0,444.9 419.0,444.5 419.0,444.2 419.0,443.9 419.0,443.7 419.0,443.6 418.9,443.5 418.9,443.4 418.8,443.2 418.7,443.0 418.6,442.8 418.4,442.6 418.2,442.3 417.9,442.0"/>
    <polyline points="419.2,448.8 419.2,448.8 419.2,448.5 419.2,448.3 419.1,448.0"/>
    <polyline points="419.4,448.8 419.4,448.8 419.3,448.1"/>
    <polyline points="419.3,448.1 419.3,447.9 419.2,447.6 419.1,447.3"/>
    <polyline points="419.6,448.8 419.6,448.8 419.5,448.5 419.4,447.9"/>
    <polyline points="419.7,448.8 419.7,448.8 419.6,448.5 419.6,448.4 419.6,448.2 419.4,447.9 419.2,447.6"/>
    <polyline points="419.8,448.8 419.8,448.8 419.7,448.3 419.6,447.9"/>
    <polyline points="420.1,448.8 420.1,448.8 420.1,448.3 420.0,448.1 419.9,447.8"/>
    <polyline points="420.2,448.8 420.2,448.8 420.2,448.3 420.2,448.2 420.0,447.9 419.9,447.8 419.8,447.5"/>
    <polyline points="420.3,448.8 420.3,448.8 420.3,448.5 420.2,448.1"/>
    <polyline points="420.4,448.8 420.4,448.8 420.4,448.4 420.4,448.3 420.2,448.1"/>
  </g>
  <g>
    <circle cx="607.4" cy="189.1" r="4" fill="#dc2626"/>
    <circle cx="564.1" cy="198.5" r="4" fill="#dc2626"/>
    <circle cx="217.9" cy="278.2" r="4" fill="#dc2626"/>
    <circle cx="238.8" cy="270.5" r="4" fill="#dc2626"/>
    <circle cx="263.7" cy="266.1" r="4" fill="#dc2626"/>
    <circle cx="292.1" cy="277.3" r="4" fill="#dc2626"/>
    <circle cx="312.6" cy="279.4" r="4" fill="#dc2626"/>
    <circle cx="538.7" cy="201.4" r="4" fill="#dc2626"/>
    <circle cx="504.9" cy="217.2" r="4" fill="#dc2626"/>
    <circle cx="419.3" cy="247.0" r="4" fill="#dc2626"/>
    <circle cx="397.8" cy="255.3" r="4" fill="#dc2626"/>
    <circle cx="121.2" cy="275.9" r="4" fill="#dc2626"/>
    <circle cx="194.3" cy="284.6" r="4" fill="#dc2626"/>
    <circle cx="361.2" cy="263.8" r="4" fill="#dc2626"/>
    <circle cx="425.7" cy="239.5" r="4" fill="#dc2626"/>
    <circle cx="463.2" cy="276.4" r="4" fill="#dc2626"/>
    <circle cx="483.5" cy="292.1" r="4" fill="#dc2626"/>
    <circle cx="514.1" cy="304.1" r="4" fill="#dc2626"/>
    <circle cx="579.0" cy="334.0" r="4" fill="#dc2626"/>
    <circle cx="628.9" cy="339.8" r="4" fill="#dc2626"/>
    <circle cx="704.8" cy="321.6" r="4" fill="#dc2626"/>
    <circle cx="669.0" cy="319.2" r="4" fill="#dc2626"/>
    <circle cx="388.6" cy="255.7" r="4" fill="#dc2626"/>
    <circle cx="302.3" cy="258.9" r="4" fill="#dc2626"/>
    <circle cx="400.3" cy="254.7" r="4" fill="#dc2626"/>
    <circle cx="337.6" cy="270.6" r="4" fill="#dc2626"/>
    <circle cx="199.6" cy="296.2" r="4" fill="#dc2626"/>
    <circle cx="703.1" cy="255.9" r="4" fill="#dc2626"/>
    <circle cx="659.0" cy="256.9" r="4" fill="#dc2626"/>
    <circle cx="605.2" cy="245.3" r="4" fill="#dc2626"/>
    <circle cx="291.9" cy="262.2" r="4" fill="#dc2626"/>
    <circle cx="254.1" cy="497.5" r="4" fill="#dc2626"/>
    <circle cx="301.1" cy="428.0" r="4" fill="#dc2626"/>
    <circle cx="321.7" cy="404.0" r="4" fill="#dc2626"/>
    <circle cx="290.7" cy="520.4" r="4" fill="#dc2626"/>
    <circle cx="583.1" cy="141.5" r="4" fill="#dc2626"/>
    <circle cx="598.7" cy="161.1" r="4" fill="#dc2626"/>
    <circle cx="555.5" cy="174.8" r="4" fill="#dc2626"/>
    <circle cx="207.5" cy="68.2" r="4" fill="#dc2626"/>
    <circle cx="222.8" cy="95.3" r="4" fill="#dc2626"/>
    <circle cx="239.2" cy="133.5" r="4" fill="#dc2626"/>
    <circle cx="290.3" cy="167.5" r="4" fill="#dc2626"/>
    <circle cx="326.8" cy="186.8" r="4" fill="#dc2626"/>
    <circle cx="504.4" cy="188.5" r="4" fill="#dc2626"/>
    <circle cx="469.2" cy="213.3" r="4" fill="#dc2626"/>
    <circle cx="486.1" cy="203.9" r="4" fill="#dc2626"/>
    <circle cx="411.6" cy="245.0" r="4" fill="#dc2626"/>
    <circle cx="428.2" cy="241.1" r="4" fill="#dc2626"/>
    <circle cx="444.4" cy="230.2" r="4" fill="#dc2626"/>
    <circle cx="464.3" cy="67.8" r="4" fill="#dc2626"/>
    <circle cx="443.3" cy="86.6" r="4" fill="#dc2626"/>
    <circle cx="562.4" cy="254.5" r="4" fill="#dc2626"/>
    <circle cx="508.7" cy="264.2" r="4" fill="#dc2626"/>
    <circle cx="465.5" cy="274.9" r="4" fill="#dc2626"/>
    <circle cx="440.7" cy="179.6" r="4" fill="#dc2626"/>
    <circle cx="434.2" cy="203.0" r="4" fill="#dc2626"/>
    <circle cx="433.0" cy="217.4" r="4" fill="#dc2626"/>
    <circle cx="442.2" cy="229.1" r="4" fill="#dc2626"/>
    <circle cx="427.4" cy="275.6" r="4" fill="#dc2626"/>
    <circle cx="403.5" cy="294.6" r="4" fill="#dc2626"/>
    <circle cx="398.8" cy="313.7" r="4" fill="#dc2626"/>
    <circle cx="393.2" cy="267.4" r="4" fill="#dc2626"/>
    <circle cx="402.4" cy="256.9" r="4" fill="#dc2626"/>
    <circle cx="335.5" cy="307.5" r="4" fill="#dc2626"/>
    <circle cx="356.1" cy="301.1" r="4" fill="#dc2626"/>
    <circle cx="367.6" cy="336.2" r="4" fill="#dc2626"/>
    <circle cx="349.1" cy="372.2" r="4" fill="#dc2626"/>
    <circle cx="333.6" cy="390.1" r="4" fill="#dc2626"/>
    <circle cx="279.5" cy="454.0" r="4" fill="#dc2626"/>
    <circle cx="375.0" cy="284.9" r="4" fill="#dc2626"/>
    <circle cx="401.3" cy="295.9" r="4" fill="#dc2626"/>
    <circle cx="362.5" cy="261.3" r="4" fill="#dc2626"/>
    <circle cx="380.5" cy="222.4" r="4" fill="#dc2626"/>
    <circle cx="413.7" cy="221.1" r="4" fill="#dc2626"/>
    <circle cx="320.9" cy="530.0" r="4" fill="#dc2626"/>
    <circle cx="442.7" cy="294.5" r="4" fill="#dc2626"/>
    <circle cx="443.1" cy="291.2" r="4" fill="#dc2626"/>
    <circle cx="415.6" cy="245.4" r="4" fill="#dc2626"/>
    <circle cx="430.1" cy="274.7" r="4" fill="#dc2626"/>
    <circle cx="396.8" cy="232.0" r="4" fill="#dc2626"/>
    <circle cx="471.7" cy="336.6" r="4" fill="#dc2626"/>
    <circle cx="480.7" cy="389.1" r="4" fill="#dc2626"/>
    <circle cx="481.4" cy="361.6" r="4" fill="#dc2626"/>
    <circle cx="433.8" cy="205.2" r="4" fill="#dc2626"/>
    <circle cx="423.2" cy="297.1" r="4" fill="#dc2626"/>
    <circle cx="462.3" cy="274.2" r="4" fill="#dc2626"/>
    <circle cx="416.1" cy="224.3" r="4" fill="#dc2626"/>
    <circle cx="508.8" cy="265.7" r="4" fill="#dc2626"/>
    <circle cx="497.6" cy="315.1" r="4" fill="#dc2626"/>
    <circle cx="510.8" cy="336.2" r="4" fill="#dc2626"/>
    <circle cx="572.4" cy="361.8" r="4" fill="#dc2626"/>
    <circle cx="610.4" cy="366.7" r="4" fill="#dc2626"/>
    <circle cx="623.3" cy="394.1" r="4" fill="#dc2626"/>
    <circle cx="596.0" cy="440.9" r="4" fill="#dc2626"/>
    <circle cx="400.9" cy="232.1" r="4" fill="#dc2626"/>
    <circle cx="397.9" cy="257.3" r="4" fill="#dc2626"/>
    <circle cx="423.8" cy="299.2" r="4" fill="#dc2626"/>
    <circle cx="420.8" cy="334.2" r="4" fill="#dc2626"/>
    <circle cx="420.2" cy="381.0" r="4" fill="#dc2626"/>
    <circle cx="402.6" cy="401.0" r="4" fill="#dc2626"/>
  </g>
</svg>