<?xml version="1.0" encoding="UTF-8"?>
<svg width="800" height="600" viewBox="0 0 800 600" 
     xmlns="http://www.w3.org/2000/svg">
  <title>Mumbai Subway Map</title>
  <rect width="100%" height="100%" fill="#f8f9fa"/>

  <!-- 지하철 선로 -->
  <g id="subway-lines" stroke="#2563eb" stroke-width="3" fill="none">
    <polyline points="211.0,233.8 214.4,234.1 216.8,234.3 218.7,234.5 230.6,235.6 243.1,236.6 254.6,237.6 255.9,237.7 256.5,237.8 257.1,237.8 257.4,237.9 257.6,237.9 258.1,237.9 261.3,237.9 261.9,237.9 262.5,238.0 263.2,238.0 268.4,238.4 269.7,238.5 271.0,238.6 275.1,239.1 276.0,239.2 276.5,239.3 277.1,239.4 277.6,239.6 278.1,239.7 278.7,240.0 279.3,240.2 279.6,240.4 279.8,240.5 280.1,240.7 280.9,241.5 281.2,241.6 281.4,241.7 281.5,241.8 281.8,241.9 282.0,242.0 282.3,242.1 282.7,242.2 283.1,242.3 288.7,243.2 289.9,243.5 294.1,244.3 295.4,244.6 296.7,244.9 301.5,246.1 306.5,247.3 315.6,249.5 318.6,250.2 321.4,250.8 324.8,251.6 328.2,252.3 332.0,253.2 332.0,253.2 332.2,253.2 332.8,253.4 333.3,253.5 333.8,253.6 334.3,253.6 334.5,253.7 334.9,253.7 336.5,253.8 337.8,253.9 338.2,254.0 338.6,254.0 339.3,254.0 340.5,254.1 343.1,254.1 343.9,254.2 344.6,254.2 345.2,254.3 345.6,254.4 346.1,254.4 346.6,254.5 347.3,254.6 348.0,254.7 348.7,254.9 349.4,255.0 350.0,255.1 355.7,256.3 356.5,256.5 357.1,256.6 357.9,256.7 358.6,256.8 359.3,256.9 365.8,257.6 370.2,258.0 373.2,258.3 376.9,258.7 382.4,259.3 383.5,259.4 384.4,259.5 385.3,259.6 386.3,259.8 388.2,260.0 392.5,260.6 392.6,260.6 397.6,261.4 399.1,261.5 400.4,261.7 406.4,262.6 410.6,263.2 410.6,263.2 412.4,263.5 413.1,263.6 413.6,263.7 414.1,263.7 414.7,263.7 415.3,263.8 420.2,263.9 420.9,263.9 421.4,264.0 421.9,264.0 422.4,264.1 423.0,264.2 423.4,264.2 423.8,264.3 424.2,264.4 424.6,264.5 425.1,264.6 425.6,264.8 426.1,265.0 431.1,267.3 431.5,267.5 431.9,267.6 432.3,267.7 432.8,267.9 433.3,268.0 434.0,268.2 439.1,269.5 439.5,269.5 440.5,269.8 441.3,270.0 442.1,270.3 446.1,271.6 446.6,271.8 447.1,272.0 447.6,272.2 448.1,272.5 448.6,272.7 449.0,273.0 453.9,276.1 454.1,276.3 454.4,276.4 454.8,276.6 455.4,276.8 456.1,277.1 456.6,277.3 457.4,277.5 458.9,277.9 462.6,278.8 466.0,279.7 467.2,279.9 468.3,280.2 469.1,280.4 471.3,280.9 474.9,281.8 475.4,281.9 475.9,282.0 476.5,282.2 477.1,282.2 478.0,282.3 480.4,282.6 481.0,282.7 481.6,282.8 482.3,282.9 487.0,284.0 487.2,284.0 488.1,284.2 488.7,284.3 491.5,284.8 492.1,284.9 492.5,285.0 493.0,285.0 494.7,285.3 495.1,285.3 495.5,285.3 495.9,285.4 496.3,285.4 496.7,285.4 497.3,285.4 497.7,285.4 498.2,285.3 500.7,285.2 501.2,285.2 501.6,285.2 502.0,285.2 502.4,285.2 502.7,285.3 502.9,285.3 503.2,285.4 503.6,285.5 503.8,285.6 504.0,285.7 504.1,285.7 504.3,285.9 504.5,286.0 504.6,286.1 504.7,286.3 504.7,286.4 504.8,286.6 504.7,286.8 504.7,287.2 504.7,287.4 504.7,287.5 504.8,287.6 505.2,288.0 505.3,288.1 505.3,288.2 505.4,288.4 505.4,288.5 505.4,288.9 505.5,289.2 505.5,289.5 505.6,289.7 505.7,289.9 505.8,291.7" opacity="0.8"/>
    <polyline points="233.0,231.4 232.4,231.3 232.0,231.3 231.8,231.3 231.5,231.3 231.3,231.3 231.0,231.4 230.7,231.4 230.5,231.4 230.3,231.5 230.1,231.5 229.9,231.6 229.7,231.7 229.6,231.8 229.4,231.8 229.3,231.9 229.3,232.0 229.2,232.1 229.1,232.2 229.1,232.3 229.0,232.4 229.0,232.6 229.1,232.8 229.2,232.9 229.5,233.2 229.5,233.2" opacity="0.8"/>
    <polyline points="230.7,233.6 230.8,233.7 230.9,233.8 230.9,233.9 230.9,234.0 230.9,234.1 230.9,234.2 230.9,234.3 230.8,234.4 230.7,234.5 230.6,234.6 230.5,234.7 230.3,234.8 230.1,234.9 229.8,234.9 229.6,235.0 229.4,235.0 229.1,235.1 228.8,235.1 228.5,235.2 228.2,235.2 227.7,235.2 227.2,235.2" opacity="0.8"/>
    <polyline points="229.8,233.0 229.7,232.9 229.5,232.8 229.5,232.7 229.4,232.6 229.4,232.4 229.4,232.3 229.5,232.2 229.6,232.1 229.7,232.0 229.8,232.0 229.9,231.9 230.0,231.8 230.2,231.7 230.3,231.7 230.5,231.6 230.7,231.5 230.9,231.5 231.2,231.5" opacity="0.8"/>
    <polyline points="231.3,231.5 231.1,231.5 230.8,231.6 230.6,231.7 230.4,231.8 230.2,231.9 230.0,231.9 229.9,232.0 229.8,232.1 229.7,232.3 229.6,232.4 229.6,232.5 229.7,232.6 229.7,232.7 229.8,232.8 229.9,232.9 230.0,233.0" opacity="0.8"/>
    <polyline points="226.4,235.1 227.1,235.1 227.4,235.1 227.9,235.1 228.2,235.1 228.5,235.1 228.8,235.1 229.1,235.0 229.3,235.0 229.5,234.9 229.8,234.9 230.0,234.8 230.2,234.7 230.3,234.6 230.5,234.5 230.6,234.4 230.7,234.3 230.8,234.2 230.8,234.1 230.8,234.0 230.7,233.9 230.6,233.8 230.5,233.7" opacity="0.8"/>
    <polyline points="230.0,233.0 230.7,233.6" opacity="0.8"/>
    <polyline points="230.5,233.7 229.8,233.0" opacity="0.8"/>
    <polyline points="207.7,233.6 207.2,233.5 206.7,233.5 206.1,233.5" opacity="0.8"/>
    <polyline points="219.3,234.5 221.2,234.6 226.4,235.1 227.2,235.2 228.4,235.3 230.7,235.5" opacity="0.8"/>
    <polyline points="230.6,235.6 230.2,235.5 229.9,235.5 229.2,235.4 228.8,235.3 228.4,235.3" opacity="0.8"/>
    <polyline points="221.2,234.6 220.9,234.6 220.4,234.6 219.9,234.6 219.3,234.6 218.7,234.5" opacity="0.8"/>
    <polyline points="238.1,231.8 236.9,231.7 236.5,231.7 236.2,231.7 235.9,231.6 235.6,231.6 235.3,231.5 234.9,231.5 234.1,231.4 233.0,231.4 232.6,231.4 232.3,231.4 232.1,231.4 231.8,231.4 231.6,231.4 231.4,231.4 231.2,231.5" opacity="0.8"/>
    <polyline points="214.4,234.1 215.0,234.2 215.3,234.2 215.6,234.3 215.9,234.3 216.2,234.3 216.7,234.4" opacity="0.8"/>
    <polyline points="214.4,234.2 215.0,234.2 215.3,234.3 215.6,234.3 215.9,234.3 216.2,234.3 216.8,234.3" opacity="0.8"/>
    <polyline points="237.0,233.8 237.4,233.3 237.4,233.2 237.5,232.9 237.5,232.9 237.5,232.8 237.4,232.6 237.3,232.5 237.2,232.4 237.0,232.3 236.8,232.2 236.6,232.0 236.3,231.9 236.2,231.9 235.9,231.8 235.5,231.7 235.1,231.6 234.8,231.6 234.4,231.5 234.1,231.5 233.2,231.4 232.8,231.4 232.5,231.4 232.2,231.4 231.8,231.4 231.5,231.5 231.3,231.5" opacity="0.8"/>
    <polyline points="505.5,289.5 505.5,289.5 505.3,289.1 505.3,289.0 505.3,288.9" opacity="0.8"/>
    <polyline points="505.4,288.9 505.4,289.0 505.4,289.1 505.3,289.5 505.2,289.5" opacity="0.8"/>
    <polyline points="245.1,235.3 245.8,234.3 245.8,234.1 245.9,234.0 246.0,233.9 246.0,233.7 246.0,233.6 245.9,233.4 245.7,233.1 245.6,233.0 245.5,232.8 245.4,232.7 245.4,232.5 245.3,232.3 245.4,232.2 245.4,232.0 246.0,230.8 247.4,227.9 247.5,227.6 247.5,227.3 247.5,226.8 246.5,222.5 246.3,221.3 246.0,220.1 244.8,215.0 244.8,214.9 244.8,214.6 244.8,214.5 244.9,214.4 245.0,214.2 245.1,214.1 245.3,214.0 245.5,213.9 245.7,213.8 246.0,213.7 246.2,213.6 246.5,213.5 246.8,213.4 247.1,213.4 247.5,213.3 247.8,213.3 248.2,213.2 248.5,213.2 248.9,213.2 253.7,213.1 255.3,213.0 259.4,212.9 259.7,212.8 260.1,212.8 260.4,212.8 260.7,212.7 260.9,212.6 261.2,212.5 261.4,212.5 261.7,212.4 261.9,212.3 262.0,212.2 262.2,212.1 262.3,212.0 262.4,211.8 262.5,211.7 262.5,211.6 262.5,211.5 262.5,211.4 262.4,211.0 259.6,203.9 259.1,202.6 258.2,200.2 258.1,199.9 258.1,199.5 258.1,198.7 258.3,196.4 258.2,196.0 258.1,195.7 257.8,195.3 257.2,194.4 257.1,194.2 257.0,193.9 256.9,193.5 256.8,193.1 256.8,192.8 256.7,191.0 256.9,190.3 257.1,188.8 257.8,185.2 258.5,181.9 258.6,181.5 258.8,181.1 259.2,180.7 259.9,179.8 261.0,178.7 262.2,177.5 263.1,176.6 263.7,176.0 264.3,175.3 264.7,174.7 264.8,174.1 264.8,173.7 264.6,173.2 264.2,172.3 262.8,169.1 262.5,168.5 262.2,168.1 261.7,167.5 261.4,167.2 261.1,166.8 260.9,166.4 260.7,165.9 260.5,165.3 260.3,164.6 260.3,164.2 260.2,162.6 260.1,161.5 260.1,160.3 260.0,158.6 259.9,158.2 259.7,157.7 259.4,156.9 259.0,156.2 258.6,155.5 256.8,152.8 256.3,152.1 255.3,151.0 254.0,149.8 253.5,149.3 253.3,149.0 253.1,148.7 253.0,148.3 252.9,148.0 252.9,147.7 253.0,147.3 253.2,146.3 253.4,145.1 253.6,144.0 253.7,143.0 253.7,142.2" opacity="0.8"/>
    <polyline points="505.3,291.7 505.2,289.9 505.3,289.7 505.2,289.5 505.3,289.2 505.3,288.9 505.2,288.5 505.2,288.4 505.2,288.2 505.1,288.1 505.0,288.0 504.6,287.6 504.5,287.5 504.5,287.4 504.5,287.2 504.6,286.8 504.6,286.6 504.6,286.4 504.5,286.3 504.5,286.1 504.3,286.0 504.2,285.9 504.0,285.8 503.8,285.7 503.7,285.6 503.5,285.6 503.1,285.5 502.8,285.4 502.6,285.3 502.3,285.3 501.9,285.3 501.6,285.3 501.3,285.3 500.7,285.3 498.2,285.4 497.7,285.4 497.3,285.4 496.7,285.4 496.3,285.4 495.9,285.4 495.5,285.4 495.1,285.4 494.7,285.3 493.0,285.1 492.4,285.0 492.0,285.0 491.5,284.9 488.7,284.4 488.0,284.3 487.1,284.1 482.5,283.1 482.2,283.0 481.5,282.8 480.9,282.7 480.4,282.7 477.9,282.4 477.0,282.3 476.5,282.2 475.8,282.1 475.3,282.0 474.8,281.9 471.2,281.0 469.0,280.4 468.2,280.2 467.1,280.0 465.9,279.7 458.9,278.0 458.8,278.0 457.3,277.6 456.5,277.3 455.9,277.1 455.2,276.9 454.7,276.7 454.3,276.5 454.0,276.3 453.7,276.2 448.9,273.0 448.4,272.7 447.9,272.5 447.5,272.3 447.0,272.0 446.5,271.8 446.0,271.6 442.0,270.4 441.2,270.1 440.4,269.9 439.4,269.6 435.4,268.6 433.9,268.3 433.2,268.1 432.7,267.9 432.2,267.8 431.8,267.6 431.4,267.5 431.0,267.3 425.9,265.0 425.5,264.8 425.0,264.7 424.5,264.5 424.1,264.4 423.7,264.4 423.4,264.3 422.9,264.2 422.4,264.1 421.9,264.1 421.4,264.0 420.9,264.0 420.2,263.9 415.2,263.8 414.7,263.8 414.1,263.8 413.5,263.7 413.0,263.6 412.3,263.5 410.5,263.3 406.4,262.7 406.3,262.7 400.3,261.8 399.0,261.6 397.5,261.4 392.5,260.7 388.2,260.1 388.2,260.1 386.3,259.8 385.3,259.7 384.3,259.6 383.4,259.5 382.3,259.3 376.9,258.8 373.1,258.4 367.5,257.8 366.0,257.6 365.7,257.6 359.3,257.0 358.5,256.9 357.8,256.8 357.1,256.7 356.4,256.5 355.6,256.4 349.9,255.2 349.4,255.1 348.6,254.9 347.9,254.8 347.2,254.7 346.5,254.6 346.1,254.5 345.6,254.4 345.1,254.4 344.5,254.3 343.9,254.2 343.1,254.2 340.4,254.1 339.2,254.1 338.6,254.0 337.8,254.0 336.5,253.9 334.8,253.8 334.3,253.7 333.7,253.6 333.2,253.5 332.7,253.4 332.1,253.3 332.0,253.3 328.2,252.4 328.1,252.4 324.7,251.6 321.3,250.9 318.5,250.3 315.5,249.6 306.4,247.4 301.6,246.2 301.4,246.1 296.6,244.9 295.3,244.7 294.0,244.4 289.9,243.5 288.6,243.3 287.8,243.1 283.0,242.3 282.6,242.2 282.2,242.1 281.9,242.0 281.7,241.9 281.4,241.9 281.2,241.8 281.0,241.7 280.8,241.5 279.9,240.7 279.7,240.5 279.4,240.4 279.1,240.2 278.6,240.0 278.0,239.8 277.5,239.6 277.0,239.5 276.5,239.4 275.9,239.3 275.1,239.2 270.9,238.7 269.7,238.6 264.2,238.1 263.2,238.1 262.5,238.0 261.9,238.0 261.3,238.0 258.1,237.9 257.6,237.9 257.3,237.9 257.1,237.9 256.5,237.9 255.9,237.8 254.6,237.7 238.8,236.3 216.7,234.4 214.4,234.2 211.0,233.9" opacity="0.8"/>
    <polyline points="338.3,182.2 338.9,179.9 339.8,176.3 339.9,175.9 339.9,175.6 339.8,175.0 339.5,174.4 339.1,173.9 337.1,171.5 336.8,171.0 336.6,170.5 336.6,170.1 336.5,168.7 336.4,167.3 336.7,165.9 336.7,163.0 336.9,162.5 337.2,161.7 337.3,161.3 337.3,159.1 337.2,157.4 337.2,156.9 337.1,156.4 336.6,155.5 336.5,155.0 336.5,153.9 336.6,153.4 336.9,153.0 337.5,152.6 339.5,151.2 340.2,150.7 340.8,150.3 341.7,149.4 344.4,144.3 345.0,143.3 345.7,142.2 347.0,140.9 347.8,140.2 348.6,139.5 349.8,138.8 351.0,138.2 353.6,137.2 365.0,132.6 366.7,131.8 368.3,130.9 369.6,129.9 370.3,128.9 370.7,127.8 370.6,126.5 370.4,125.7 369.9,124.9 365.3,119.6 364.1,118.2 360.2,114.3 356.6,110.1 354.2,107.4 353.6,106.7 353.2,105.9 353.2,105.5 353.0,97.7 353.0,96.6 352.9,95.3 353.0,94.7 353.1,94.1 355.1,89.2 355.7,87.7 355.9,87.0 356.3,86.2 356.5,85.6 357.7,82.3 357.8,81.9 358.1,81.4 358.4,80.4 358.6,80.1 358.9,79.5 359.5,78.9 360.0,78.4 360.7,77.9 361.8,77.2 364.9,75.5" opacity="0.8"/>
    <polyline points="245.3,235.3 245.9,234.3 246.0,234.1 246.1,234.0 246.1,233.9 246.1,233.7 246.1,233.5 246.0,233.4 245.8,233.1 245.7,233.0 245.6,232.8 245.6,232.7 245.5,232.5 245.5,232.3 245.5,232.2 245.5,232.0 246.1,230.8 247.6,227.9 247.6,227.6 247.7,227.3 247.7,226.8 246.7,222.5 246.4,221.3 246.2,220.1 244.9,215.0 244.9,214.9 244.9,214.6 245.0,214.5 245.0,214.4 245.1,214.3 245.3,214.1 245.4,214.0 245.6,213.9 245.8,213.8 246.1,213.7 246.3,213.6 246.6,213.5 246.9,213.5 247.2,213.4 247.5,213.4 247.9,213.3 248.2,213.3 248.5,213.3 248.9,213.3 253.7,213.1 255.3,213.1 259.4,212.9 259.8,212.9 260.1,212.9 260.4,212.8 260.7,212.7 261.0,212.7 261.3,212.6 261.5,212.5 261.8,212.4 262.0,212.3 262.2,212.2 262.3,212.1 262.4,212.0 262.5,211.9 262.6,211.7 262.6,211.6 262.7,211.5 262.6,211.4 262.5,211.0 259.8,203.9 259.2,202.6 258.3,200.2 258.2,199.9 258.2,199.5 258.3,198.7 258.4,196.4 258.4,196.0 258.2,195.6 258.0,195.2 257.4,194.4 257.3,194.2 257.1,193.9 257.0,193.5 256.9,193.1 256.9,192.8 256.9,192.4 256.9,191.0 257.0,190.3 257.3,188.8 258.0,185.2 258.6,181.9 258.8,181.5 258.9,181.1 259.3,180.7 260.0,179.8 261.1,178.7 262.4,177.5 263.2,176.6 263.9,176.0 264.5,175.3 264.8,174.7 264.9,174.1 264.9,173.7 264.8,173.2 264.4,172.3 263.0,169.1 262.7,168.5 262.3,168.1 261.8,167.5 261.5,167.2 261.2,166.8 261.0,166.4 260.8,165.9 260.6,165.3 260.5,164.6 260.4,164.2 260.4,162.6 260.3,161.5 260.2,160.3 260.1,158.6 260.0,158.2 259.8,157.7 259.5,156.9 259.2,156.2 258.8,155.5 257.0,152.8 256.4,152.1 255.4,151.0 254.2,149.8 253.7,149.3 253.4,149.0 253.3,148.7 253.1,148.3 253.1,148.0 253.1,147.7 253.1,147.3 253.3,146.3 253.6,145.1 253.7,144.0 253.8,143.0 253.8,142.2" opacity="0.8"/>
    <polyline points="237.0,233.4 237.0,233.4 237.1,233.3 237.1,232.9 237.1,232.8 237.0,232.7 237.0,232.5 236.9,232.4 236.8,232.3 236.7,232.2 236.6,232.1 236.3,231.9" opacity="0.8"/>
    <polyline points="237.0,232.5 237.0,232.7 237.0,232.8 236.9,232.9 236.8,233.0 236.7,233.1 236.5,233.2 236.2,233.4 236.1,233.6 236.0,233.7 235.9,233.7" opacity="0.8"/>
    <polyline points="238.1,233.4 237.8,233.9" opacity="0.8"/>
    <polyline points="238.3,233.0 238.2,233.2 238.2,233.3 238.1,233.4 238.0,233.5 237.8,233.7 237.7,233.7 237.6,233.9" opacity="0.8"/>
    <polyline points="238.2,233.3 238.2,233.4 238.2,233.5 238.0,233.9" opacity="0.8"/>
    <polyline points="236.3,231.8 236.7,231.9 236.9,232.0 237.1,232.0 237.4,232.1 237.6,232.2 237.8,232.3 237.9,232.4 238.0,232.6 238.1,232.7 238.2,232.8 238.2,232.9 238.3,233.0 238.2,233.3 238.2,233.6 238.2,233.7 238.2,233.8 238.1,233.9" opacity="0.8"/>
    <polyline points="238.3,233.9 238.7,233.4 238.7,233.3 238.7,233.1 238.8,233.0 238.8,232.9 238.7,232.8 238.7,232.8 238.6,232.7 238.5,232.6 238.4,232.4 238.2,232.3 238.0,232.2 237.8,232.2 237.6,232.1 237.4,232.0 237.0,231.9" opacity="0.8"/>
    <polyline points="236.6,231.8 237.6,232.0 237.8,232.0 238.0,232.0" opacity="0.8"/>
    <polyline points="235.6,231.6 236.6,231.8 237.0,231.8 237.2,231.9 237.3,231.9 237.5,231.9 237.8,231.9 237.9,232.0 238.0,232.0" opacity="0.8"/>
    <polyline points="236.5,231.7 237.2,231.8 237.5,231.9 237.8,231.9 238.0,231.9" opacity="0.8"/>
    <polyline points="236.7,231.6 237.4,231.7 237.7,231.7 238.2,231.7" opacity="0.8"/>
    <polyline points="235.8,231.6 236.7,231.6 237.0,231.6 237.2,231.7 237.6,231.7 238.0,231.8 238.1,231.8" opacity="0.8"/>
    <polyline points="234.9,231.5 235.8,231.6 236.2,231.6 236.4,231.6 236.8,231.6 237.1,231.6 237.6,231.6 237.9,231.6 238.2,231.6" opacity="0.8"/>
    <polyline points="228.3,234.0 228.7,233.3 228.8,233.1 229.0,232.8" opacity="0.8"/>
    <polyline points="230.0,235.1 230.2,234.7 230.2,234.6 230.3,234.5 230.2,234.4 230.2,234.2 230.1,234.1 230.0,234.0 229.8,233.8 229.7,233.8" opacity="0.8"/>
    <polyline points="235.1,235.6 236.2,233.8" opacity="0.8"/>
    <polyline points="235.4,235.6 236.4,233.8" opacity="0.8"/>
    <polyline points="234.9,235.6 235.9,233.7" opacity="0.8"/>
    <polyline points="236.0,235.7 237.0,233.8" opacity="0.8"/>
    <polyline points="236.2,235.7 237.2,233.8" opacity="0.8"/>
    <polyline points="236.4,235.7 237.4,233.8" opacity="0.8"/>
    <polyline points="236.6,235.7 237.6,233.9" opacity="0.8"/>
    <polyline points="236.7,235.7 237.8,233.9" opacity="0.8"/>
    <polyline points="236.9,235.7 238.0,233.9" opacity="0.8"/>
    <polyline points="237.1,235.7 238.1,233.9" opacity="0.8"/>
    <polyline points="237.3,235.8 238.3,233.9" opacity="0.8"/>
    <polyline points="237.5,235.8 238.5,233.9" opacity="0.8"/>
    <polyline points="237.6,235.8 238.7,233.9" opacity="0.8"/>
  </g>

  <!-- 지하철 역 -->
  <g id="subway-stations">
    <circle cx="256.6" cy="133.9" r="4" fill="#dc2626" stroke="#fff" stroke-width="2"/>
    <text x="256.6" y="125.9" text-anchor="middle" font-size="10" fill="#374151">Dahanukarwadi</text>
    <circle cx="265.1" cy="123.7" r="4" fill="#dc2626" stroke="#fff" stroke-width="2"/>
    <text x="265.1" y="115.7" text-anchor="middle" font-size="10" fill="#374151">Kandivali (West)</text>
    <circle cx="277.2" cy="100.8" r="4" fill="#dc2626" stroke="#fff" stroke-width="2"/>
    <text x="277.2" y="92.8" text-anchor="middle" font-size="10" fill="#374151">Borivali (West)</text>
    <circle cx="294.0" cy="76.9" r="4" fill="#dc2626" stroke="#fff" stroke-width="2"/>
    <circle cx="310.0" cy="67.6" r="4" fill="#dc2626" stroke="#fff" stroke-width="2"/>
    <text x="310.0" y="59.6" text-anchor="middle" font-size="10" fill="#374151">Kandarpada</text>
    <circle cx="363.8" cy="66.8" r="4" fill="#dc2626" stroke="#fff" stroke-width="2"/>
    <text x="363.8" y="58.8" text-anchor="middle" font-size="10" fill="#374151">Anand Nagar</text>
    <circle cx="277.5" cy="112.1" r="4" fill="#dc2626" stroke="#fff" stroke-width="2"/>
    <text x="277.5" y="104.1" text-anchor="middle" font-size="10" fill="#374151">Shimpoli</text>
    <circle cx="286.0" cy="89.0" r="4" fill="#dc2626" stroke="#fff" stroke-width="2"/>
    <text x="286.0" y="81.0" text-anchor="middle" font-size="10" fill="#374151">Eksar</text>
    <circle cx="391.4" cy="270.6" r="4" fill="#dc2626" stroke="#fff" stroke-width="2"/>
    <circle cx="324.2" cy="325.4" r="4" fill="#dc2626" stroke="#fff" stroke-width="2"/>
    <circle cx="388.9" cy="239.5" r="4" fill="#dc2626" stroke="#fff" stroke-width="2"/>
    <text x="388.9" y="231.5" text-anchor="middle" font-size="10" fill="#374151">SEEPZ</text>
    <circle cx="388.4" cy="250.9" r="4" fill="#dc2626" stroke="#fff" stroke-width="2"/>
    <text x="388.4" y="242.9" text-anchor="middle" font-size="10" fill="#374151">MIDC - Andheri</text>
    <circle cx="405.4" cy="262.5" r="4" fill="#dc2626" stroke="#fff" stroke-width="2"/>
    <text x="405.4" y="254.5" text-anchor="middle" font-size="10" fill="#374151">Marol Naka L3</text>
    <circle cx="304.1" cy="246.8" r="4" fill="#dc2626" stroke="#fff" stroke-width="2"/>
    <text x="304.1" y="238.8" text-anchor="middle" font-size="10" fill="#374151">Andheri L1</text>
    <circle cx="364.9" cy="75.4" r="4" fill="#dc2626" stroke="#fff" stroke-width="2"/>
    <circle cx="367.1" cy="74.0" r="4" fill="#dc2626" stroke="#fff" stroke-width="2"/>
    <circle cx="338.1" cy="182.5" r="4" fill="#dc2626" stroke="#fff" stroke-width="2"/>
    <text x="338.1" y="174.5" text-anchor="middle" font-size="10" fill="#374151">Aarey</text>
    <circle cx="336.4" cy="168.7" r="4" fill="#dc2626" stroke="#fff" stroke-width="2"/>
    <text x="336.4" y="160.7" text-anchor="middle" font-size="10" fill="#374151">Dindoshi</text>
    <circle cx="337.0" cy="158.8" r="4" fill="#dc2626" stroke="#fff" stroke-width="2"/>
    <text x="337.0" y="150.8" text-anchor="middle" font-size="10" fill="#374151">Kurar</text>
    <circle cx="343.9" cy="144.5" r="4" fill="#dc2626" stroke="#fff" stroke-width="2"/>
    <text x="343.9" y="136.5" text-anchor="middle" font-size="10" fill="#374151">Akurli</text>
    <circle cx="352.8" cy="137.5" r="4" fill="#dc2626" stroke="#fff" stroke-width="2"/>
    <text x="352.8" y="129.5" text-anchor="middle" font-size="10" fill="#374151">Poisar</text>
    <circle cx="365.3" cy="120.0" r="4" fill="#dc2626" stroke="#fff" stroke-width="2"/>
    <text x="365.3" y="112.0" text-anchor="middle" font-size="10" fill="#374151">Magathane</text>
    <circle cx="356.9" cy="110.5" r="4" fill="#dc2626" stroke="#fff" stroke-width="2"/>
    <text x="356.9" y="102.5" text-anchor="middle" font-size="10" fill="#374151">Devipada</text>
    <circle cx="352.6" cy="96.3" r="4" fill="#dc2626" stroke="#fff" stroke-width="2"/>
    <text x="352.6" y="88.3" text-anchor="middle" font-size="10" fill="#374151">Rashtriya Udyan</text>
    <circle cx="356.3" cy="85.3" r="4" fill="#dc2626" stroke="#fff" stroke-width="2"/>
    <text x="356.3" y="77.3" text-anchor="middle" font-size="10" fill="#374151">Ovaripada</text>
    <circle cx="325.8" cy="254.6" r="4" fill="#dc2626" stroke="#fff" stroke-width="2"/>
    <text x="325.8" y="246.6" text-anchor="middle" font-size="10" fill="#374151">Gundavali</text>
    <circle cx="326.8" cy="236.3" r="4" fill="#dc2626" stroke="#fff" stroke-width="2"/>
    <text x="326.8" y="228.3" text-anchor="middle" font-size="10" fill="#374151">Mogra</text>
    <circle cx="325.9" cy="217.2" r="4" fill="#dc2626" stroke="#fff" stroke-width="2"/>
    <text x="325.9" y="209.2" text-anchor="middle" font-size="10" fill="#374151">Jogeshwari (East)</text>
    <circle cx="330.7" cy="204.7" r="4" fill="#dc2626" stroke="#fff" stroke-width="2"/>
    <text x="330.7" y="196.7" text-anchor="middle" font-size="10" fill="#374151">Goregaon (East)</text>
    <circle cx="245.2" cy="235.4" r="4" fill="#dc2626" stroke="#fff" stroke-width="2"/>
    <text x="245.2" y="227.4" text-anchor="middle" font-size="10" fill="#374151">Andheri (West)</text>
    <circle cx="246.1" cy="220.1" r="4" fill="#dc2626" stroke="#fff" stroke-width="2"/>
    <text x="246.1" y="212.1" text-anchor="middle" font-size="10" fill="#374151">Lower Oshiwara</text>
    <circle cx="253.7" cy="213.1" r="4" fill="#dc2626" stroke="#fff" stroke-width="2"/>
    <text x="253.7" y="205.1" text-anchor="middle" font-size="10" fill="#374151">Oshiwara</text>
    <circle cx="259.5" cy="203.9" r="4" fill="#dc2626" stroke="#fff" stroke-width="2"/>
    <text x="259.5" y="195.9" text-anchor="middle" font-size="10" fill="#374151">Goregaon (West)</text>
    <circle cx="262.3" cy="177.5" r="4" fill="#dc2626" stroke="#fff" stroke-width="2"/>
    <text x="262.3" y="169.5" text-anchor="middle" font-size="10" fill="#374151">Lower Malad</text>
    <circle cx="260.2" cy="161.5" r="4" fill="#dc2626" stroke="#fff" stroke-width="2"/>
    <text x="260.2" y="153.5" text-anchor="middle" font-size="10" fill="#374151">Malad (West)</text>
    <circle cx="253.1" cy="146.3" r="4" fill="#dc2626" stroke="#fff" stroke-width="2"/>
    <text x="253.1" y="138.3" text-anchor="middle" font-size="10" fill="#374151">Valnai-Meeth Chowky</text>
    <circle cx="306.1" cy="313.2" r="4" fill="#dc2626" stroke="#fff" stroke-width="2"/>
    <text x="306.1" y="305.2" text-anchor="middle" font-size="10" fill="#374151">Bandra Colony</text>
    <circle cx="298.5" cy="300.9" r="4" fill="#dc2626" stroke="#fff" stroke-width="2"/>
    <text x="298.5" y="292.9" text-anchor="middle" font-size="10" fill="#374151">Santacruz L3</text>
    <circle cx="320.4" cy="281.7" r="4" fill="#dc2626" stroke="#fff" stroke-width="2"/>
    <circle cx="360.0" cy="270.8" r="4" fill="#dc2626" stroke="#fff" stroke-width="2"/>
    <text x="360.0" y="262.8" text-anchor="middle" font-size="10" fill="#374151">Sahar Road</text>
    <circle cx="256.8" cy="191.5" r="4" fill="#dc2626" stroke="#fff" stroke-width="2"/>
    <text x="256.8" y="183.5" text-anchor="middle" font-size="10" fill="#374151">Bangur Nagar</text>
    <circle cx="271.6" cy="374.2" r="4" fill="#dc2626" stroke="#fff" stroke-width="2"/>
    <text x="271.6" y="366.2" text-anchor="middle" font-size="10" fill="#374151">Dadar M3</text>
    <circle cx="280.9" cy="354.7" r="4" fill="#dc2626" stroke="#fff" stroke-width="2"/>
    <text x="280.9" y="346.7" text-anchor="middle" font-size="10" fill="#374151">Shitala Devi Mandir</text>
    <circle cx="307.4" cy="344.4" r="4" fill="#dc2626" stroke="#fff" stroke-width="2"/>
    <text x="307.4" y="336.4" text-anchor="middle" font-size="10" fill="#374151">Dharavi</text>
    <circle cx="198.6" cy="408.1" r="4" fill="#dc2626" stroke="#fff" stroke-width="2"/>
    <text x="198.6" y="400.1" text-anchor="middle" font-size="10" fill="#374151">Acharya Atrey Chowk</text>
    <circle cx="203.8" cy="393.9" r="4" fill="#dc2626" stroke="#fff" stroke-width="2"/>
    <text x="203.8" y="385.9" text-anchor="middle" font-size="10" fill="#374151">वरळी Worli</text>
    <circle cx="243.4" cy="384.4" r="4" fill="#dc2626" stroke="#fff" stroke-width="2"/>
  </g>
</svg>