<?xml version="1.0" encoding="UTF-8"?>
<svg width="800" height="600" viewBox="0 0 800 600" 
     xmlns="http://www.w3.org/2000/svg">
  <title>Munich Subway Map</title>
  <rect width="100%" height="100%" fill="#f8f9fa"/>

  <!-- 지하철 선로 -->
  <g id="subway-lines" stroke="#2563eb" stroke-width="3" fill="none">
    <polyline points="465.5,266.4 466.0,266.5 466.6,266.6 470.2,267.3 472.0,267.6 473.3,267.8 477.6,268.6 478.3,268.7 482.5,270.1 483.5,270.4 484.3,270.8 485.1,271.3 485.7,271.8 486.2,272.2 486.6,272.6 486.9,273.0 487.2,273.4 487.5,274.0 487.8,274.7 487.9,275.4 488.0,276.3 487.9,276.9 487.5,279.3 487.1,281.3 486.9,282.4 486.6,283.5" opacity="0.8"/>
    <polyline points="379.3,224.3 378.2,225.9 377.8,226.5 377.5,226.9 377.3,227.4 377.1,227.8 376.9,228.2 376.8,228.7 376.7,229.3 376.7,231.1 376.7,233.9 376.7,236.3 376.8,239.1 376.8,240.7 376.8,241.1 376.8,242.3 376.8,242.8 376.7,243.4 375.9,247.4 375.8,248.1 375.8,251.0 375.8,251.6 375.6,253.6 375.4,254.6 375.4,255.0 375.4,255.4" opacity="0.8"/>
    <polyline points="503.1,257.1 507.5,251.1 508.2,250.2 518.5,236.7 519.2,235.8 519.4,235.5 520.3,234.3 520.9,233.5 521.6,232.6" opacity="0.8"/>
    <polyline points="602.7,477.2 603.7,478.3" opacity="0.8"/>
    <polyline points="599.1,472.7 600.3,474.2 601.3,475.4" opacity="0.8"/>
    <polyline points="597.4,470.6 598.0,471.3 598.5,471.9 599.1,472.6 599.1,472.7" opacity="0.8"/>
    <polyline points="603.6,442.6 604.0,441.2 604.2,440.1 604.4,439.0 604.4,437.8 604.5,427.4 604.5,426.1 604.5,425.5 604.5,424.0 604.5,422.4 604.5,421.8 604.4,420.3 604.4,419.3 604.3,418.7 604.0,417.7 603.6,416.9 603.2,416.1 602.7,415.5 602.2,414.9 587.9,401.8 587.3,401.3 586.7,400.9 586.0,400.5 585.0,400.1 581.7,398.9 578.6,397.6 575.6,396.5 572.5,395.2 571.7,395.0 569.6,394.4 567.0,393.6 565.2,393.1 561.8,392.1 561.3,391.9 560.9,391.8" opacity="0.8"/>
    <polyline points="469.3,395.2 469.3,396.1 469.2,397.3 469.0,398.3 468.8,399.0 468.7,399.5 468.4,400.1 468.0,400.6 467.5,401.3 467.1,401.7 466.5,402.2 466.0,402.6 465.3,403.0 463.4,404.0 462.9,404.3 462.4,404.6 462.1,404.9 461.7,405.4 461.2,405.9 460.9,406.3 460.6,406.9 460.3,407.6 459.9,408.6 459.1,410.8 458.5,412.4 458.4,413.0 458.2,413.6 458.2,414.2 458.2,414.7 458.2,415.3 458.3,415.9 458.5,416.4 458.7,416.9 459.0,417.6 459.4,418.4 459.8,419.0 460.1,419.4 460.5,419.8 461.0,420.3 461.4,420.6 462.4,421.2 464.6,422.3 465.6,422.9 467.1,423.9 468.3,424.6 469.7,425.5 470.0,425.7 471.4,426.5 472.1,426.9 472.6,427.3 473.0,427.7 473.4,428.1 473.8,428.5 476.0,431.2 476.4,431.7 476.7,432.1 478.0,434.0 478.3,434.4 478.5,434.8 478.8,435.2 479.2,436.3 479.4,436.7 479.4,437.0 479.4,437.3 478.8,444.7 478.5,448.9 478.4,449.3 478.3,449.7 478.1,450.1 477.9,450.5 477.7,450.8 477.4,451.1 477.0,451.4 476.7,451.7 476.3,451.9 473.8,453.4" opacity="0.8"/>
    <polyline points="260.0,423.6 264.1,423.2" opacity="0.8"/>
    <polyline points="523.8,229.7 524.4,228.9 524.5,228.8 524.7,228.4 525.3,227.5 525.4,227.4 526.1,226.4 527.1,225.0 528.1,223.7 529.5,221.9 529.8,221.5 531.8,218.8 532.6,217.8 532.8,217.5 533.4,216.8 534.0,216.2 534.0,216.1" opacity="0.8"/>
    <polyline points="606.1,480.7 606.2,480.7 606.3,480.9 606.4,481.0 606.5,481.2 607.3,482.2 609.0,484.3" opacity="0.8"/>
    <polyline points="609.2,484.3 606.8,481.3 606.7,481.2 606.6,481.1 606.1,480.7" opacity="0.8"/>
    <polyline points="513.8,350.5 514.4,350.5 515.0,350.6 515.6,350.8 516.1,350.9" opacity="0.8"/>
    <polyline points="534.0,216.1 534.7,215.4" opacity="0.8"/>
    <polyline points="545.2,184.4 545.1,183.9 544.7,183.3 544.5,182.9 544.3,182.6 543.8,181.9 543.5,181.6 541.7,179.8 541.3,179.3 540.9,178.9 540.6,178.5 540.3,178.0 540.2,177.7 540.0,177.4 539.8,176.8 539.7,176.5 539.5,176.1 539.4,175.6 539.3,175.2" opacity="0.8"/>
    <polyline points="534.7,215.4 535.6,214.5 535.9,214.1 538.6,210.7 538.9,210.2 539.2,209.8 539.5,209.2 539.7,208.4 539.9,207.7 540.0,207.3 540.1,206.8 540.1,206.4 540.1,205.9 540.0,205.6 540.0,205.1 540.1,204.7 540.2,204.1 540.3,203.3 540.6,202.6 540.7,202.3 540.9,201.9 541.2,201.2 541.6,200.5 541.9,199.8 542.1,199.3 542.2,199.0 542.4,198.6 542.6,198.2 543.5,195.8 545.4,190.4 545.5,190.0 545.7,189.4 545.8,188.5 545.9,187.7 545.9,187.0 545.8,186.3 545.7,185.8 545.6,185.4 545.5,184.9 545.3,184.5 545.2,184.4" opacity="0.8"/>
    <polyline points="273.2,474.8 278.4,475.5" opacity="0.8"/>
    <polyline points="597.5,470.5 596.9,469.7 596.3,468.8 595.8,467.8 595.4,467.1 595.2,466.4 595.1,465.4 595.2,464.8 595.3,464.2 595.5,463.4 595.8,462.7 596.8,459.9 597.9,457.0 598.3,456.1 598.5,455.5 598.7,455.1 600.3,452.3 600.6,451.7 601.0,450.8 602.0,448.1 602.8,445.4 603.2,444.0" opacity="0.8"/>
    <polyline points="599.2,472.7 599.2,472.6 598.6,471.9 598.1,471.2 597.5,470.5" opacity="0.8"/>
    <polyline points="602.8,477.1 601.8,475.9" opacity="0.8"/>
    <polyline points="602.8,477.1 602.9,477.2 603.6,477.9 604.1,478.5 604.3,478.8 604.6,479.1 604.7,479.3 604.9,479.4" opacity="0.8"/>
    <polyline points="569.7,68.1 569.5,69.2" opacity="0.8"/>
    <polyline points="404.8,355.8 403.9,355.6" opacity="0.8"/>
    <polyline points="336.5,229.5 338.1,229.4 340.0,229.3 341.3,229.1 343.8,228.6 346.8,228.1 352.2,227.3 353.6,227.2 355.2,227.1 357.1,227.0 358.9,226.9 359.7,226.9 362.2,226.7 362.9,226.7" opacity="0.8"/>
    <polyline points="604.3,420.3 604.2,421.9 604.2,422.4 604.1,424.0 604.1,425.5 604.1,426.1 604.2,426.5 604.3,427.6 604.4,428.0" opacity="0.8"/>
    <polyline points="604.4,428.0 604.3,437.8 604.3,438.3 604.2,438.9 604.0,439.7 603.6,441.1 603.2,442.5" opacity="0.8"/>
    <polyline points="471.8,328.4 472.1,327.5 472.3,326.7 473.5,322.9 477.5,311.0 478.4,308.4 479.8,304.0 482.1,297.3 482.6,295.9 483.0,294.4 483.2,293.9 483.5,293.0 486.4,284.2 486.6,283.5" opacity="0.8"/>
    <polyline points="462.6,350.3 463.7,349.7 465.2,349.0 465.6,348.7 466.0,348.4 466.5,347.9 467.0,347.3 467.5,346.7 467.9,346.2 468.6,344.9 469.4,343.5 469.5,343.2 469.6,343.0 469.8,342.3 470.1,341.4 470.4,340.5 470.5,340.0 470.6,339.6 470.6,339.2 470.5,337.9 470.5,337.4 470.8,334.2 471.0,332.5" opacity="0.8"/>
    <polyline points="607.2,481.4 607.0,481.2 606.0,480.3 604.8,479.2 604.2,478.6 604.1,478.5" opacity="0.8"/>
    <polyline points="606.7,480.8 606.5,480.7 604.3,478.6 603.8,478.1 603.6,477.9" opacity="0.8"/>
    <polyline points="461.2,250.2 461.4,251.1 461.5,252.2 461.5,252.9" opacity="0.8"/>
    <polyline points="438.8,343.5 438.7,343.0 438.6,342.5 438.6,342.1 438.6,341.7 438.7,340.5 438.9,338.7 439.2,336.0 439.4,334.9" opacity="0.8"/>
    <polyline points="461.3,260.3 461.3,260.9 461.4,261.3 461.5,261.7 461.5,261.9 461.6,262.1 461.7,262.4 461.8,262.6 461.8,262.9 461.9,263.2 462.0,263.6 462.0,263.9 462.0,264.4 461.9,264.7 461.8,264.9 461.7,265.3 461.6,265.6 461.3,266.0 461.0,266.4 460.7,266.8 460.4,267.1 458.8,268.4 457.8,269.3 456.7,270.4 456.2,271.0 455.9,271.5 455.6,272.1 455.5,272.6 455.3,273.1 455.0,274.0 454.5,275.7 453.5,278.9 453.1,280.5 452.6,282.6 452.5,283.2 452.3,284.1 452.2,285.0 452.0,287.1 451.9,287.9 451.0,293.0 450.9,293.7 450.4,296.1 450.2,296.8 450.1,297.3 449.9,297.9 445.2,307.9 444.4,309.6 444.2,310.0 443.9,310.8 443.7,311.5 443.5,312.3 443.4,313.1 443.3,313.9 443.3,314.6 443.3,315.5 443.4,316.4 443.5,317.0 443.7,318.1 443.9,319.0 444.0,319.9 444.0,320.8 443.9,321.6 443.8,322.3 443.7,322.9 443.5,323.5 443.3,324.1 443.1,324.7 442.8,325.3 442.5,326.0 442.2,326.7" opacity="0.8"/>
    <polyline points="598.0,471.3 598.2,471.5 598.4,471.8 598.6,471.9 598.7,472.1 598.9,472.3 599.2,472.6" opacity="0.8"/>
    <polyline points="599.1,472.6 598.9,472.4 598.7,472.1 598.6,471.9 598.4,471.7 598.3,471.5 598.1,471.2" opacity="0.8"/>
    <polyline points="533.9,216.1 533.9,216.1 533.3,216.8 532.7,217.4 532.5,217.7 531.4,219.2 530.5,220.2 529.5,221.4 529.2,221.7 528.7,222.4 528.3,222.9 528.2,223.1 527.9,223.5 527.9,223.6 527.7,223.8 527.0,224.9 526.6,225.5 524.4,228.4 523.6,229.5" opacity="0.8"/>
    <polyline points="541.2,162.4 541.5,161.7 541.6,161.5 541.7,161.3 541.7,161.0 541.9,160.7 542.1,159.8 542.6,157.9 542.8,157.4 543.0,157.0 543.2,156.6 543.5,156.2 543.7,155.8 543.8,155.7 543.9,155.5 544.2,155.0 544.5,154.6 544.7,154.3 544.8,154.0 545.0,153.8 545.1,153.6 545.2,153.1 547.4,147.7 547.6,147.0 547.9,146.3 548.2,145.6 548.3,145.4 548.4,144.9 548.7,144.4 548.9,143.9 549.0,143.5 549.1,143.2 549.2,142.5 549.4,142.1 549.6,141.4" opacity="0.8"/>
    <polyline points="543.2,156.6 543.5,156.2 543.8,155.8 544.2,155.3 544.4,155.0 544.7,154.7 545.1,154.4 545.4,154.0 545.6,153.7 545.7,153.3 547.9,147.9 548.0,147.6 548.0,147.3 548.1,147.0 548.1,146.5 548.2,146.1 548.3,145.7 548.3,145.5 548.5,145.0 548.6,144.8 548.8,144.5 549.0,144.2 549.3,143.9 549.3,143.9 549.5,143.7 549.9,143.4 550.2,143.2 550.4,142.9 550.6,142.6 550.9,141.9" opacity="0.8"/>
    <polyline points="553.2,139.1 553.3,138.8 554.6,135.6 555.3,133.7 556.4,130.9 556.5,130.7 556.5,130.4 557.0,128.5 557.1,128.1 557.4,127.2 557.5,126.9 557.5,126.7 557.6,126.4 557.6,126.1 557.5,125.8 557.5,125.6 557.3,125.2 557.1,124.9 556.8,124.1 556.6,123.6 556.5,123.1 556.5,122.9 556.5,122.6" opacity="0.8"/>
    <polyline points="556.8,121.7 555.7,124.3 554.8,126.6 554.1,128.5 553.1,131.1 552.0,133.7 551.6,134.8 550.9,136.6 550.3,138.0 549.4,140.4 547.8,144.5 547.6,144.9 547.0,146.6 546.2,148.7 545.4,150.7 545.0,151.6 544.6,152.6 544.4,153.1 544.2,153.7 543.7,154.6 543.3,155.5 543.1,156.0 542.9,156.5" opacity="0.8"/>
    <polyline points="544.3,152.7 544.6,152.0 544.7,151.7 544.7,151.3 544.8,151.0 545.0,150.4" opacity="0.8"/>
    <polyline points="550.2,141.9 549.8,142.8 549.6,143.2 549.4,143.5 549.2,143.8 549.0,144.2" opacity="0.8"/>
    <polyline points="548.2,145.6 548.0,146.1 547.4,146.7 547.0,147.2 546.8,147.6 546.7,147.9 545.6,150.6 544.6,153.2 544.5,153.6 544.4,153.8 544.3,154.2 544.2,154.7 544.1,155.1 543.9,155.5" opacity="0.8"/>
    <polyline points="544.2,155.0 544.4,154.6 544.9,153.5 547.2,147.6 547.4,147.2 547.5,147.1 547.7,146.8 547.9,146.3" opacity="0.8"/>
    <polyline points="544.3,154.2 544.4,153.9 544.7,153.4 546.8,148.0 547.0,147.6 547.0,147.4 547.2,147.2 547.7,146.6" opacity="0.8"/>
    <polyline points="544.7,154.3 544.8,154.0 545.0,153.5 547.3,147.7 547.5,147.1 547.7,146.8" opacity="0.8"/>
    <polyline points="548.1,147.0 548.1,147.5 548.0,147.7 548.0,147.9 547.9,148.1 547.9,148.3 545.8,153.7" opacity="0.8"/>
    <polyline points="548.1,146.5 548.0,147.0 547.9,147.3 547.8,147.6 547.8,147.8 545.6,153.3 545.5,153.6 545.4,153.8 545.3,154.0 545.1,154.2 544.6,154.7 544.4,155.0" opacity="0.8"/>
    <polyline points="544.2,155.3 544.6,154.7 544.6,154.6 544.9,154.1 545.1,153.7 545.3,153.4 545.3,153.2 547.5,147.7 547.7,147.1 547.8,146.8 548.0,146.5 548.1,146.1 548.3,145.7" opacity="0.8"/>
    <polyline points="548.2,146.1 548.0,146.7 547.9,147.1 547.8,147.4 547.7,147.8 545.5,153.3 545.4,153.6 545.3,153.7 545.2,153.9 544.9,154.4 544.8,154.5 544.6,154.7" opacity="0.8"/>
  </g>

  <!-- 지하철 역 -->
  <g id="subway-stations">
    <circle cx="575.6" cy="396.7" r="4" fill="#dc2626" stroke="#fff" stroke-width="2"/>
    <text x="575.6" y="388.7" text-anchor="middle" font-size="10" fill="#374151">Michaelibad</text>
    <circle cx="459.6" cy="189.2" r="4" fill="#dc2626" stroke="#fff" stroke-width="2"/>
    <text x="459.6" y="181.2" text-anchor="middle" font-size="10" fill="#374151">Am Hart</text>
    <circle cx="461.3" cy="213.6" r="4" fill="#dc2626" stroke="#fff" stroke-width="2"/>
    <text x="461.3" y="205.6" text-anchor="middle" font-size="10" fill="#374151">Frankfurter Ring</text>
    <circle cx="462.2" cy="229.4" r="4" fill="#dc2626" stroke="#fff" stroke-width="2"/>
    <text x="462.2" y="221.4" text-anchor="middle" font-size="10" fill="#374151">Milbertshofen</text>
    <circle cx="454.9" cy="166.7" r="4" fill="#dc2626" stroke="#fff" stroke-width="2"/>
    <text x="454.9" y="158.7" text-anchor="middle" font-size="10" fill="#374151">Harthof</text>
    <circle cx="426.9" cy="142.4" r="4" fill="#dc2626" stroke="#fff" stroke-width="2"/>
    <text x="426.9" y="134.4" text-anchor="middle" font-size="10" fill="#374151">Hasenbergl</text>
    <circle cx="376.9" cy="238.5" r="4" fill="#dc2626" stroke="#fff" stroke-width="2"/>
    <text x="376.9" y="230.5" text-anchor="middle" font-size="10" fill="#374151">Georg-Brauchle-Ring</text>
    <circle cx="530.3" cy="397.9" r="4" fill="#dc2626" stroke="#fff" stroke-width="2"/>
    <text x="530.3" y="389.9" text-anchor="middle" font-size="10" fill="#374151">Karl-Preis-Platz</text>
    <circle cx="489.9" cy="412.0" r="4" fill="#dc2626" stroke="#fff" stroke-width="2"/>
    <text x="489.9" y="404.0" text-anchor="middle" font-size="10" fill="#374151">Untersbergstraße</text>
    <circle cx="464.0" cy="367.0" r="4" fill="#dc2626" stroke="#fff" stroke-width="2"/>
    <text x="464.0" y="359.0" text-anchor="middle" font-size="10" fill="#374151">Fraunhoferstraße</text>
    <circle cx="459.3" cy="410.7" r="4" fill="#dc2626" stroke="#fff" stroke-width="2"/>
    <text x="459.3" y="402.7" text-anchor="middle" font-size="10" fill="#374151">Candidplatz</text>
    <circle cx="478.1" cy="433.9" r="4" fill="#dc2626" stroke="#fff" stroke-width="2"/>
    <text x="478.1" y="425.9" text-anchor="middle" font-size="10" fill="#374151">Sankt-Quirin-Platz</text>
    <circle cx="473.8" cy="453.6" r="4" fill="#dc2626" stroke="#fff" stroke-width="2"/>
    <text x="473.8" y="445.6" text-anchor="middle" font-size="10" fill="#374151">Mangfallplatz</text>
    <circle cx="377.0" cy="277.8" r="4" fill="#dc2626" stroke="#fff" stroke-width="2"/>
    <text x="377.0" y="269.8" text-anchor="middle" font-size="10" fill="#374151">Gern</text>
    <circle cx="384.6" cy="301.2" r="4" fill="#dc2626" stroke="#fff" stroke-width="2"/>
    <text x="384.6" y="293.2" text-anchor="middle" font-size="10" fill="#374151">Rotkreuzplatz</text>
    <circle cx="408.9" cy="312.1" r="4" fill="#dc2626" stroke="#fff" stroke-width="2"/>
    <text x="408.9" y="304.1" text-anchor="middle" font-size="10" fill="#374151">Maillingerstraße</text>
    <circle cx="430.9" cy="317.7" r="4" fill="#dc2626" stroke="#fff" stroke-width="2"/>
    <text x="430.9" y="309.7" text-anchor="middle" font-size="10" fill="#374151">Stiglmaierplatz</text>
    <circle cx="476.3" cy="405.9" r="4" fill="#dc2626" stroke="#fff" stroke-width="2"/>
    <text x="476.3" y="397.9" text-anchor="middle" font-size="10" fill="#374151">Silberhornstraße</text>
    <circle cx="445.3" cy="308.0" r="4" fill="#dc2626" stroke="#fff" stroke-width="2"/>
    <text x="445.3" y="300.0" text-anchor="middle" font-size="10" fill="#374151">Theresienstraße</text>
    <circle cx="450.5" cy="296.7" r="4" fill="#dc2626" stroke="#fff" stroke-width="2"/>
    <text x="450.5" y="288.7" text-anchor="middle" font-size="10" fill="#374151">Josephsplatz</text>
    <circle cx="375.7" cy="257.5" r="4" fill="#dc2626" stroke="#fff" stroke-width="2"/>
    <text x="375.7" y="249.5" text-anchor="middle" font-size="10" fill="#374151">Westfriedhof</text>
    <circle cx="604.3" cy="424.0" r="4" fill="#dc2626" stroke="#fff" stroke-width="2"/>
    <text x="604.3" y="416.0" text-anchor="middle" font-size="10" fill="#374151">Quiddestraße</text>
    <circle cx="541.7" cy="199.8" r="4" fill="#dc2626" stroke="#fff" stroke-width="2"/>
    <text x="541.7" y="191.8" text-anchor="middle" font-size="10" fill="#374151">Freimann</text>
    <circle cx="579.5" cy="374.7" r="4" fill="#dc2626" stroke="#fff" stroke-width="2"/>
    <text x="579.5" y="366.7" text-anchor="middle" font-size="10" fill="#374151">Josephsburg</text>
    <circle cx="714.0" cy="356.5" r="4" fill="#dc2626" stroke="#fff" stroke-width="2"/>
    <text x="714.0" y="348.5" text-anchor="middle" font-size="10" fill="#374151">Messestadt Ost</text>
    <circle cx="689.2" cy="356.3" r="4" fill="#dc2626" stroke="#fff" stroke-width="2"/>
    <text x="689.2" y="348.3" text-anchor="middle" font-size="10" fill="#374151">Messestadt West</text>
    <circle cx="651.4" cy="363.4" r="4" fill="#dc2626" stroke="#fff" stroke-width="2"/>
    <text x="651.4" y="355.4" text-anchor="middle" font-size="10" fill="#374151">Moosfeld</text>
    <circle cx="461.6" cy="254.8" r="4" fill="#dc2626" stroke="#fff" stroke-width="2"/>
    <text x="461.6" y="246.8" text-anchor="middle" font-size="10" fill="#374151">Scheidplatz</text>
    <circle cx="519.0" cy="235.7" r="4" fill="#dc2626" stroke="#fff" stroke-width="2"/>
    <text x="519.0" y="227.7" text-anchor="middle" font-size="10" fill="#374151">Alte Heide</text>
    <circle cx="471.6" cy="329.8" r="4" fill="#dc2626" stroke="#fff" stroke-width="2"/>
    <text x="471.6" y="321.8" text-anchor="middle" font-size="10" fill="#374151">Odeonsplatz</text>
    <circle cx="528.8" cy="222.5" r="4" fill="#dc2626" stroke="#fff" stroke-width="2"/>
    <text x="528.8" y="214.5" text-anchor="middle" font-size="10" fill="#374151">Studentenstadt</text>
    <circle cx="539.7" cy="168.1" r="4" fill="#dc2626" stroke="#fff" stroke-width="2"/>
    <text x="539.7" y="160.1" text-anchor="middle" font-size="10" fill="#374151">Kieferngarten</text>
    <circle cx="450.3" cy="337.9" r="4" fill="#dc2626" stroke="#fff" stroke-width="2"/>
    <circle cx="394.3" cy="400.6" r="4" fill="#dc2626" stroke="#fff" stroke-width="2"/>
    <text x="394.3" y="392.6" text-anchor="middle" font-size="10" fill="#374151">Harras</text>
    <circle cx="468.9" cy="392.7" r="4" fill="#dc2626" stroke="#fff" stroke-width="2"/>
    <text x="468.9" y="384.7" text-anchor="middle" font-size="10" fill="#374151">Kolumbusplatz</text>
    <circle cx="450.0" cy="356.3" r="4" fill="#dc2626" stroke="#fff" stroke-width="2"/>
    <text x="450.0" y="348.3" text-anchor="middle" font-size="10" fill="#374151">Sendlinger Tor</text>
    <circle cx="380.5" cy="226.1" r="4" fill="#dc2626" stroke="#fff" stroke-width="2"/>
    <circle cx="467.2" cy="423.8" r="4" fill="#dc2626" stroke="#fff" stroke-width="2"/>
    <text x="467.2" y="415.8" text-anchor="middle" font-size="10" fill="#374151">Wettersteinplatz</text>
    <circle cx="414.4" cy="391.7" r="4" fill="#dc2626" stroke="#fff" stroke-width="2"/>
    <text x="414.4" y="383.7" text-anchor="middle" font-size="10" fill="#374151">Implerstraße</text>
    <circle cx="603.4" cy="442.6" r="4" fill="#dc2626" stroke="#fff" stroke-width="2"/>
    <text x="603.4" y="434.6" text-anchor="middle" font-size="10" fill="#374151">Neuperlach Zentrum</text>
    <circle cx="546.4" cy="146.6" r="4" fill="#dc2626" stroke="#fff" stroke-width="2"/>
    <text x="546.4" y="138.6" text-anchor="middle" font-size="10" fill="#374151">Fröttmaning</text>
    <circle cx="574.2" cy="51.7" r="4" fill="#dc2626" stroke="#fff" stroke-width="2"/>
    <text x="574.2" y="43.7" text-anchor="middle" font-size="10" fill="#374151">Garching-Hochbrück</text>
    <circle cx="483.2" cy="294.5" r="4" fill="#dc2626" stroke="#fff" stroke-width="2"/>
    <text x="483.2" y="286.5" text-anchor="middle" font-size="10" fill="#374151">Giselastraße</text>
    <circle cx="431.6" cy="368.1" r="4" fill="#dc2626" stroke="#fff" stroke-width="2"/>
    <text x="431.6" y="360.1" text-anchor="middle" font-size="10" fill="#374151">Goetheplatz</text>
    <circle cx="276.4" cy="406.1" r="4" fill="#dc2626" stroke="#fff" stroke-width="2"/>
    <text x="276.4" y="398.1" text-anchor="middle" font-size="10" fill="#374151">Großhadern</text>
    <circle cx="299.3" cy="396.6" r="4" fill="#dc2626" stroke="#fff" stroke-width="2"/>
    <text x="299.3" y="388.6" text-anchor="middle" font-size="10" fill="#374151">Haderner Stern</text>
    <circle cx="324.3" cy="402.1" r="4" fill="#dc2626" stroke="#fff" stroke-width="2"/>
    <text x="324.3" y="394.1" text-anchor="middle" font-size="10" fill="#374151">Holzapfelkreuth</text>
    <circle cx="269.6" cy="421.4" r="4" fill="#dc2626" stroke="#fff" stroke-width="2"/>
    <text x="269.6" y="413.4" text-anchor="middle" font-size="10" fill="#374151">Klinikum Großhadern</text>
    <circle cx="488.0" cy="280.0" r="4" fill="#dc2626" stroke="#fff" stroke-width="2"/>
    <text x="488.0" y="272.0" text-anchor="middle" font-size="10" fill="#374151">Münchner Freiheit</text>
    <circle cx="372.4" cy="400.4" r="4" fill="#dc2626" stroke="#fff" stroke-width="2"/>
    <text x="372.4" y="392.4" text-anchor="middle" font-size="10" fill="#374151">Partnachplatz</text>
    <circle cx="417.9" cy="377.6" r="4" fill="#dc2626" stroke="#fff" stroke-width="2"/>
    <text x="417.9" y="369.6" text-anchor="middle" font-size="10" fill="#374151">Poccistraße</text>
    <circle cx="477.6" cy="311.1" r="4" fill="#dc2626" stroke="#fff" stroke-width="2"/>
    <text x="477.6" y="303.1" text-anchor="middle" font-size="10" fill="#374151">Universität</text>
    <circle cx="352.1" cy="397.6" r="4" fill="#dc2626" stroke="#fff" stroke-width="2"/>
    <text x="352.1" y="389.6" text-anchor="middle" font-size="10" fill="#374151">Westpark</text>
    <circle cx="369.4" cy="451.4" r="4" fill="#dc2626" stroke="#fff" stroke-width="2"/>
    <text x="369.4" y="443.4" text-anchor="middle" font-size="10" fill="#374151">Aidenbachstraße</text>
    <circle cx="303.6" cy="469.1" r="4" fill="#dc2626" stroke="#fff" stroke-width="2"/>
    <text x="303.6" y="461.1" text-anchor="middle" font-size="10" fill="#374151">Basler Straße</text>
    <circle cx="472.1" cy="267.5" r="4" fill="#dc2626" stroke="#fff" stroke-width="2"/>
    <text x="472.1" y="259.5" text-anchor="middle" font-size="10" fill="#374151">Bonner Platz</text>
    <circle cx="414.9" cy="412.2" r="4" fill="#dc2626" stroke="#fff" stroke-width="2"/>
    <text x="414.9" y="404.2" text-anchor="middle" font-size="10" fill="#374151">Brudermühlstraße</text>
    <circle cx="319.4" cy="458.9" r="4" fill="#dc2626" stroke="#fff" stroke-width="2"/>
    <text x="319.4" y="450.9" text-anchor="middle" font-size="10" fill="#374151">Forstenrieder Allee</text>
    <circle cx="283.6" cy="476.8" r="4" fill="#dc2626" stroke="#fff" stroke-width="2"/>
    <text x="283.6" y="468.8" text-anchor="middle" font-size="10" fill="#374151">Fürstenried West</text>
    <circle cx="349.8" cy="452.7" r="4" fill="#dc2626" stroke="#fff" stroke-width="2"/>
    <text x="349.8" y="444.7" text-anchor="middle" font-size="10" fill="#374151">Machtlfinger Straße</text>
    <circle cx="357.1" cy="226.9" r="4" fill="#dc2626" stroke="#fff" stroke-width="2"/>
    <circle cx="390.2" cy="450.4" r="4" fill="#dc2626" stroke="#fff" stroke-width="2"/>
    <text x="390.2" y="442.4" text-anchor="middle" font-size="10" fill="#374151">Obersendling</text>
    <circle cx="412.8" cy="215.8" r="4" fill="#dc2626" stroke="#fff" stroke-width="2"/>
    <text x="412.8" y="207.8" text-anchor="middle" font-size="10" fill="#374151">Oberwiesenfeld</text>
    <circle cx="429.2" cy="233.7" r="4" fill="#dc2626" stroke="#fff" stroke-width="2"/>
    <text x="429.2" y="225.7" text-anchor="middle" font-size="10" fill="#374151">Olympiazentrum</text>
    <circle cx="448.2" cy="243.4" r="4" fill="#dc2626" stroke="#fff" stroke-width="2"/>
    <text x="448.2" y="235.4" text-anchor="middle" font-size="10" fill="#374151">Petuelring</text>
    <circle cx="409.6" cy="438.1" r="4" fill="#dc2626" stroke="#fff" stroke-width="2"/>
    <text x="409.6" y="430.1" text-anchor="middle" font-size="10" fill="#374151">Thalkirchen</text>
    <circle cx="556.8" cy="302.5" r="4" fill="#dc2626" stroke="#fff" stroke-width="2"/>
    <text x="556.8" y="294.5" text-anchor="middle" font-size="10" fill="#374151">Arabellapark</text>
    <circle cx="544.3" cy="329.4" r="4" fill="#dc2626" stroke="#fff" stroke-width="2"/>
    <text x="544.3" y="321.4" text-anchor="middle" font-size="10" fill="#374151">Böhmerwaldplatz</text>
    <circle cx="496.4" cy="266.3" r="4" fill="#dc2626" stroke="#fff" stroke-width="2"/>
    <text x="496.4" y="258.3" text-anchor="middle" font-size="10" fill="#374151">Dietlindenstraße</text>
    <circle cx="341.7" cy="351.8" r="4" fill="#dc2626" stroke="#fff" stroke-width="2"/>
    <circle cx="490.7" cy="339.7" r="4" fill="#dc2626" stroke="#fff" stroke-width="2"/>
    <text x="490.7" y="331.7" text-anchor="middle" font-size="10" fill="#374151">Lehel</text>
    <circle cx="527.7" cy="340.7" r="4" fill="#dc2626" stroke="#fff" stroke-width="2"/>
    <text x="527.7" y="332.7" text-anchor="middle" font-size="10" fill="#374151">Prinzregentenplatz</text>
    <circle cx="324.5" cy="350.9" r="4" fill="#dc2626" stroke="#fff" stroke-width="2"/>
    <text x="324.5" y="342.9" text-anchor="middle" font-size="10" fill="#374151">Laimer Platz</text>
    <circle cx="546.2" cy="316.5" r="4" fill="#dc2626" stroke="#fff" stroke-width="2"/>
    <circle cx="400.1" cy="355.4" r="4" fill="#dc2626" stroke="#fff" stroke-width="2"/>
    <text x="400.1" y="347.4" text-anchor="middle" font-size="10" fill="#374151">Schwanthalerhöhe</text>
    <circle cx="596.7" cy="459.8" r="4" fill="#dc2626" stroke="#fff" stroke-width="2"/>
    <circle cx="421.7" cy="350.3" r="4" fill="#dc2626" stroke="#fff" stroke-width="2"/>
    <text x="421.7" y="342.3" text-anchor="middle" font-size="10" fill="#374151">Theresienwiese</text>
    <circle cx="361.5" cy="352.8" r="4" fill="#dc2626" stroke="#fff" stroke-width="2"/>
    <text x="361.5" y="344.8" text-anchor="middle" font-size="10" fill="#374151">Westendstraße</text>
    <circle cx="443.8" cy="145.5" r="4" fill="#dc2626" stroke="#fff" stroke-width="2"/>
    <text x="443.8" y="137.5" text-anchor="middle" font-size="10" fill="#374151">Dülferstraße</text>
    <circle cx="442.9" cy="325.4" r="4" fill="#dc2626" stroke="#fff" stroke-width="2"/>
    <text x="442.9" y="317.4" text-anchor="middle" font-size="10" fill="#374151">Königsplatz</text>
    <circle cx="453.7" cy="279.0" r="4" fill="#dc2626" stroke="#fff" stroke-width="2"/>
    <text x="453.7" y="271.0" text-anchor="middle" font-size="10" fill="#374151">Hohenzollernplatz</text>
    <circle cx="508.3" cy="250.0" r="4" fill="#dc2626" stroke="#fff" stroke-width="2"/>
    <text x="508.3" y="242.0" text-anchor="middle" font-size="10" fill="#374151">Nordfriedhof</text>
    <circle cx="336.5" cy="229.2" r="4" fill="#dc2626" stroke="#fff" stroke-width="2"/>
    <text x="336.5" y="221.2" text-anchor="middle" font-size="10" fill="#374151">Moosach</text>
    <circle cx="400.0" cy="141.5" r="4" fill="#dc2626" stroke="#fff" stroke-width="2"/>
    <text x="400.0" y="133.5" text-anchor="middle" font-size="10" fill="#374151">Feldmoching</text>
    <circle cx="506.0" cy="416.2" r="4" fill="#dc2626" stroke="#fff" stroke-width="2"/>
    <text x="506.0" y="408.2" text-anchor="middle" font-size="10" fill="#374151">Giesing</text>
    <circle cx="383.0" cy="356.0" r="4" fill="#dc2626" stroke="#fff" stroke-width="2"/>
    <text x="383.0" y="348.0" text-anchor="middle" font-size="10" fill="#374151">Heimeranplatz</text>
    <circle cx="468.0" cy="343.2" r="4" fill="#dc2626" stroke="#fff" stroke-width="2"/>
    <text x="468.0" y="335.2" text-anchor="middle" font-size="10" fill="#374151">Marienplatz</text>
    <circle cx="521.1" cy="370.6" r="4" fill="#dc2626" stroke="#fff" stroke-width="2"/>
    <text x="521.1" y="362.6" text-anchor="middle" font-size="10" fill="#374151">Ostbahnhof</text>
    <circle cx="635.1" cy="377.1" r="4" fill="#dc2626" stroke="#fff" stroke-width="2"/>
    <text x="635.1" y="369.1" text-anchor="middle" font-size="10" fill="#374151">Trudering</text>
    <circle cx="436.7" cy="340.7" r="4" fill="#dc2626" stroke="#fff" stroke-width="2"/>
    <text x="436.7" y="332.7" text-anchor="middle" font-size="10" fill="#374151">Hauptbahnhof</text>
    <circle cx="438.9" cy="338.4" r="4" fill="#dc2626" stroke="#fff" stroke-width="2"/>
    <text x="438.9" y="330.4" text-anchor="middle" font-size="10" fill="#374151">Hauptbahnhof</text>
    <circle cx="468.3" cy="331.4" r="4" fill="#dc2626" stroke="#fff" stroke-width="2"/>
    <text x="468.3" y="323.4" text-anchor="middle" font-size="10" fill="#374151">Odeonsplatz</text>
    <circle cx="450.5" cy="356.1" r="4" fill="#dc2626" stroke="#fff" stroke-width="2"/>
    <text x="450.5" y="348.1" text-anchor="middle" font-size="10" fill="#374151">Sendlinger Tor</text>
    <circle cx="601.5" cy="475.5" r="4" fill="#dc2626" stroke="#fff" stroke-width="2"/>
    <text x="601.5" y="467.5" text-anchor="middle" font-size="10" fill="#374151">Neuperlach Süd</text>
    <circle cx="379.2" cy="224.5" r="4" fill="#dc2626" stroke="#fff" stroke-width="2"/>
    <circle cx="550.4" cy="391.1" r="4" fill="#dc2626" stroke="#fff" stroke-width="2"/>
    <text x="550.4" y="383.1" text-anchor="middle" font-size="10" fill="#374151">Innsbrucker Ring</text>
    <circle cx="604.7" cy="376.9" r="4" fill="#dc2626" stroke="#fff" stroke-width="2"/>
    <text x="604.7" y="368.9" text-anchor="middle" font-size="10" fill="#374151">Kreillerstraße</text>
    <circle cx="510.0" cy="350.3" r="4" fill="#dc2626" stroke="#fff" stroke-width="2"/>
    <text x="510.0" y="342.3" text-anchor="middle" font-size="10" fill="#374151">Max-Weber-Platz</text>
  </g>
</svg>