<?xml version="1.0" encoding="UTF-8"?>
<svg width="800" height="600" xmlns="http://www.w3.org/2000/svg">
  <title>Nanjing Subway Map</title>
  <rect width="100%" height="100%" fill="#f8f9fa"/>

  <!-- 지하철 선로 -->
  <g stroke="#2563eb" stroke-width="2" fill="none" opacity="0.8">
    <polyline points="83.7,478.3 79.1,479.7 77.6,480.2 76.2,480.7 75.3,480.9 74.5,481.1 74.0,481.2 73.3,481.3 72.2,481.5 70.0,481.7 69.1,481.8 68.0,481.9 66.4,482.0 65.2,482.2 62.8,482.5 61.2,482.7 59.7,482.9 58.0,483.1 57.0,483.2 56.5,483.2 56.0,483.2 55.4,483.2 54.8,483.0 54.1,482.9 53.5,482.7 52.7,482.4 52.3,482.2 51.7,481.9 51.3,481.7 51.0,481.4 50.5,481.1 50.1,480.7 49.6,480.2 48.7,479.4 48.3,479.0"/>
    <polyline points="376.6,342.5 377.9,342.0 378.4,341.8 378.9,341.5 379.1,341.5"/>
    <polyline points="97.1,462.0 96.5,465.5"/>
    <polyline points="80.8,486.0 77.1,486.5 77.0,486.5 76.4,486.5 75.9,486.5 75.3,486.4 74.7,486.2 74.0,485.9 73.3,485.6 73.1,485.4 72.8,485.3 72.5,485.1 71.9,484.7 71.4,484.3 70.7,483.8 70.2,483.4 69.6,483.1 69.0,482.9 68.2,482.7"/>
    <polyline points="35.5,497.9 38.7,496.5 39.3,496.3 39.9,496.1 40.3,496.1 41.5,496.1 42.7,496.0 43.2,495.9 43.7,495.8 44.6,495.4 45.3,494.8 47.5,493.1 48.7,492.1 49.7,491.1 50.6,490.1 51.4,489.0 52.1,488.2 52.6,487.5 53.0,486.9 53.8,485.7 54.2,485.2 54.5,484.9 55.2,484.5 56.1,484.2 57.7,483.5 58.0,483.4 58.5,483.3 59.2,483.1"/>
    <polyline points="95.6,465.2 96.2,463.7 96.9,461.8 97.3,461.0 97.6,460.4 97.9,459.9 98.3,459.4 98.6,459.1 98.9,458.6 99.4,458.1 99.8,457.7 101.8,456.3 102.6,455.8 103.3,455.2 104.1,454.6 104.8,453.9 105.4,453.2 106.0,452.3 107.3,450.4 109.1,448.1 110.8,445.7 112.0,444.0 113.0,442.5 113.9,441.3 114.8,440.2 115.6,439.2 116.7,438.1 117.6,437.3 119.5,435.7 120.7,434.6 121.4,433.8 122.5,432.4 123.3,431.4 124.0,430.3"/>
    <polyline points="214.2,543.4 212.2,527.9 211.9,526.8 211.5,525.8 210.2,523.3 209.3,521.5 208.6,520.1 207.2,518.2 206.0,516.8 204.8,516.0 203.8,515.6 202.1,515.2 200.3,514.9 199.1,515.0 198.2,515.2 185.5,521.0 183.1,521.7 181.7,521.6 180.9,521.6 180.3,521.5 179.8,521.3 179.2,521.2 178.6,520.9 178.1,520.7 177.6,520.4 177.1,520.0 176.7,519.6 176.2,519.1 173.0,513.8 169.9,509.0 169.0,507.6 165.6,502.4 162.5,497.0 159.7,493.6 158.5,492.7 157.5,492.2 156.1,491.7 155.2,491.4 154.1,491.3 152.8,491.2 151.6,491.3 150.1,491.5 147.4,491.8 144.9,492.3 142.2,492.8 139.4,493.1 137.7,493.2 136.1,493.3 133.2,493.5 129.9,493.9 125.2,494.2 122.2,494.5 119.6,494.6 117.9,494.7 114.0,495.0 111.5,495.1 104.3,495.5 102.3,495.5 101.4,495.2 100.7,494.7 100.1,494.1 99.8,493.3 99.4,491.9 99.0,489.8 98.5,487.7 98.4,487.0 98.2,486.1 97.1,480.9 96.1,477.7 95.1,474.6 94.6,471.9 94.4,470.0 94.5,468.5 95.0,466.7"/>
    <polyline points="382.3,337.7 382.1,338.3 382.0,339.0 381.9,339.6 381.8,339.9 381.6,340.2 381.5,340.4 381.3,340.6 381.1,340.9 380.7,341.3 380.3,341.5 379.8,341.8 379.8,341.8 379.7,341.8 379.6,341.9"/>
    <polyline points="382.3,337.7 382.5,336.6 382.5,336.2 382.5,335.9"/>
    <polyline points="382.7,328.5 382.8,328.1 382.9,327.8 383.0,327.5 383.3,327.0 383.4,326.7 383.6,326.5 383.7,326.2 383.8,325.8 383.9,325.4 384.2,324.0 384.2,323.9"/>
    <polyline points="381.4,326.6 382.0,327.8 382.2,328.1 382.3,328.3 382.4,328.6 382.4,329.0 382.4,329.3 382.4,330.2 382.4,330.4 382.4,330.6 382.4,331.0 382.4,331.2 382.3,331.7 382.3,332.1 382.3,332.6 382.3,333.1 382.3,334.9 382.3,335.6 382.2,336.2 382.0,337.2"/>
    <polyline points="384.2,323.9 384.4,322.7 384.4,322.4 384.9,319.7"/>
    <polyline points="385.1,319.7 384.7,322.4 384.6,322.7 384.4,323.9"/>
    <polyline points="384.4,323.9 384.4,324.0 384.1,325.4 384.1,325.6 384.0,326.0 383.8,326.4 383.5,326.9 383.2,327.4"/>
    <polyline points="382.7,319.3 381.7,325.0 381.7,325.1 381.6,325.6 381.6,326.0 381.6,326.4 381.8,326.9 381.9,327.1 382.0,327.4"/>
    <polyline points="381.4,326.8 381.9,327.8 382.0,328.1 382.2,328.4 382.3,328.6 382.3,328.7 382.4,329.0 382.3,329.5 382.4,330.2"/>
    <polyline points="380.8,319.3 380.3,322.4 380.2,322.5 380.2,322.8 380.2,323.1 380.2,323.5 380.4,324.1 380.6,324.7 380.8,325.3"/>
    <polyline points="381.2,326.0 381.0,325.4 380.9,324.9 380.9,324.5 381.0,323.8 381.0,323.6 381.1,323.1 381.2,322.6 381.2,322.5 381.8,319.4"/>
    <polyline points="534.6,206.2 536.7,205.8 537.7,205.5"/>
    <polyline points="169.4,505.5 167.4,506.6 167.3,506.6 162.9,508.5 161.3,509.1 160.0,509.5 159.1,509.8 151.2,513.4 149.6,514.0 148.7,514.2 146.6,514.7 145.4,515.2 144.2,515.9 143.1,517.1 142.8,517.9 142.7,519.1 142.6,520.3 142.6,521.7 143.3,524.2 144.0,526.8 144.0,527.4 143.9,528.1 143.4,528.9 142.9,529.7 142.2,530.2 134.8,534.4 134.1,534.9 133.4,535.5 132.8,536.4 132.7,537.1 132.7,537.7 132.8,538.2 132.9,538.4 133.9,539.8 134.8,541.2 136.7,546.8 139.6,555.6 142.9,565.2 144.0,567.2 144.1,567.6 144.5,569.4 148.7,579.5 152.4,588.5 156.3,597.1 156.4,598.2 156.4,609.0 156.9,624.8 156.4,633.1 156.5,634.1 156.4,636.9 156.2,638.9 155.9,641.4 155.4,644.8 154.8,648.5 154.4,650.4 154.0,653.1 153.9,655.3 154.0,660.3 154.3,662.1 155.2,666.3 156.0,669.7 157.1,672.4 158.5,674.6 159.8,676.4 161.2,677.8 163.1,679.4 164.0,680.5 164.7,681.4 165.6,682.5"/>
    <polyline points="120.9,433.9 122.2,432.4 123.1,431.2 123.7,430.0 124.7,428.1 125.7,426.5"/>
    <polyline points="593.3,200.2 593.1,199.7 592.7,199.2 592.2,198.8 591.5,198.5 590.9,198.3 589.6,197.9 588.3,197.6 586.6,197.2 585.0,196.9 581.9,196.5 578.5,196.4 578.1,196.4 575.8,196.3 573.8,196.3"/>
    <polyline points="571.5,195.6 571.1,195.4 570.7,195.1 570.3,194.8 570.0,194.6 569.6,194.2 569.2,193.7 568.9,193.1 568.7,192.5 568.3,191.7 568.2,191.1 568.0,190.3 567.6,188.9"/>
    <polyline points="573.8,196.3 573.3,196.2 572.7,196.1 572.2,195.9 571.5,195.6"/>
    <polyline points="567.5,188.9 567.6,190.1 568.0,192.2 568.1,192.7 568.3,193.3 568.5,193.9 568.8,194.3 569.1,194.7 569.5,195.1 569.9,195.4 570.4,195.8"/>
    <polyline points="570.4,195.8 571.2,196.2 572.1,196.4 572.6,196.6 573.4,196.6 574.0,196.6"/>
    <polyline points="589.8,216.6 591.0,214.2 591.2,213.9 591.6,213.2 591.8,212.8 592.0,212.3 592.1,211.7 592.2,210.5 592.3,209.8 592.6,209.1 592.7,208.6 592.8,208.1 593.0,207.1 593.1,206.4 593.1,205.9"/>
    <polyline points="586.4,217.9 588.7,213.2 588.9,212.9 589.1,212.5 589.5,212.2 589.8,211.9 590.4,211.5 591.0,211.1 591.3,210.7 591.5,210.6 591.6,210.4 591.8,210.0 592.1,209.5 592.3,209.0 592.4,208.6 592.5,208.3 592.7,207.6"/>
    <polyline points="-65.0,534.7 -64.7,534.3 -64.2,533.6 -60.9,528.9 -58.3,524.1 -55.8,519.1 -54.7,516.4 -54.0,513.6 -53.5,511.0 -53.2,508.6 -53.1,507.8 -52.4,503.0 -52.0,501.1 -50.9,499.5 -49.5,498.6 -47.4,497.9 -43.5,497.4 -38.4,496.9 -33.4,495.9 -30.0,495.0 -26.7,493.7 -24.6,492.8 -19.5,490.5 -17.7,489.9 -15.8,489.8 -14.0,490.2 -12.4,491.3 -7.8,496.8 -5.0,500.1 -2.1,503.6 9.8,517.3 10.4,518.1 13.8,521.8 15.2,523.4 16.3,524.3 17.7,525.2 24.2,527.9 26.3,528.6 27.0,528.9 28.5,529.2 31.3,529.6 39.8,530.8 44.1,531.2 45.9,531.3 47.7,531.1 49.4,530.6 51.2,529.1 55.0,526.5 58.0,525.2 62.9,524.9 67.7,524.7 74.1,524.2 85.4,523.0 87.8,522.5 88.9,522.0 90.1,521.3 91.3,520.7 93.0,520.1 94.6,519.8 97.8,519.5 101.1,520.0 104.0,520.4 106.6,521.1 113.2,523.0 120.2,525.0 124.1,525.7 126.1,525.7 128.0,525.4 130.5,524.3 132.6,523.4 135.3,522.6 137.4,521.8 139.6,520.6 145.1,516.9 147.9,515.6 151.4,514.0 158.0,511.1 162.3,509.0 167.7,507.0 175.2,503.6"/>
    <polyline points="200.9,218.0 200.2,218.8 199.4,219.8 198.8,220.7 198.2,221.6 197.7,222.8 197.0,225.1 196.7,225.7"/>
    <polyline points="215.7,192.5 217.6,186.8 218.3,184.6 219.0,182.6 220.0,179.4 220.5,177.1 220.9,174.4 221.1,172.4 221.2,170.5 221.0,169.1 220.4,167.2 219.1,165.1 217.6,162.6 216.6,160.8 216.0,159.1 215.9,158.2 215.9,157.4 216.2,156.7 216.5,156.0 217.1,155.4 217.8,154.9 218.7,154.5 220.0,154.1 225.6,152.6 231.1,151.1 235.2,150.0 238.5,149.1 239.8,148.8 241.0,148.6 243.0,148.4 244.9,148.6 246.5,149.1 248.0,149.8 249.7,150.5 251.2,150.9 252.7,151.0 254.3,150.7 256.2,149.9 258.9,147.7 259.1,147.5 259.9,146.7 261.0,145.7 261.7,145.2 264.3,142.7 265.3,141.7 266.2,141.1 267.3,140.8 268.5,140.7 269.6,140.8 270.3,140.9 271.1,141.2 271.6,141.5 272.4,142.2 272.9,142.8 273.3,143.5 273.5,144.2 273.6,144.9 273.6,145.6"/>
    <polyline points="223.3,466.0 219.8,461.4 218.8,460.0 218.1,458.5 217.7,457.3 217.7,456.1 218.0,454.9 218.6,453.4 220.9,449.8 222.8,446.9 223.3,445.7 223.8,444.3 224.2,442.2 225.5,436.1 225.9,434.0 226.0,432.4 226.1,430.4 226.0,428.3 226.0,426.2 225.5,422.6 225.0,419.3 224.8,418.2 224.7,413.2 224.9,410.4 225.2,406.1 225.1,404.8 225.0,403.5 224.6,402.2 224.2,401.1 223.3,400.0 222.0,399.0 220.2,398.5 217.6,398.2 212.6,398.3 207.4,398.0 204.5,397.9 201.2,397.7 198.3,397.3 196.0,396.8 187.4,394.4 183.3,393.4 178.4,392.3 176.4,392.0 174.8,391.9 173.2,392.3 171.9,392.9 167.5,395.6 165.5,396.6 163.7,397.2 162.0,397.5 160.3,397.5 157.3,397.8 155.7,397.9 153.6,398.2 149.3,398.8 147.2,399.0 145.1,399.1 143.8,399.0 142.4,398.8 141.1,398.4 139.6,397.9 130.1,394.6 125.5,392.4 118.9,388.4 116.9,387.2 116.3,386.4 116.2,385.9 116.1,384.6 116.9,381.7 117.1,381.3 118.3,379.2 119.6,377.0 121.8,372.3 124.2,363.3 124.5,362.3 125.3,359.8 125.8,357.4 126.4,354.2 126.6,351.8 126.8,350.9 127.2,350.1 128.0,348.6 128.5,347.5 128.6,347.0 128.5,346.5 128.3,345.7 127.8,344.8 127.3,344.1 126.2,342.9 125.1,341.8 124.5,340.9 121.4,334.8 121.1,333.7 121.2,330.8 122.1,324.2 122.2,324.0 122.2,322.8 122.2,321.3 122.3,318.5 122.8,317.8 125.9,314.7 126.4,314.0 126.6,313.5 126.5,312.5 126.3,311.9 125.9,311.2 118.8,304.9 116.6,303.0 114.9,301.4 112.9,299.7 104.7,292.7 103.1,291.2 93.8,282.8 93.5,282.4 91.7,280.9 90.5,279.8 81.4,271.9 79.5,270.5 78.6,270.1 77.7,269.7 76.0,269.0 74.2,268.4 72.1,268.0 67.5,267.3 65.8,267.1 64.2,267.2 60.0,267.6 59.2,267.7 58.3,267.7 57.6,267.6 55.1,267.1 54.4,267.0 52.6,266.7 51.6,266.4 50.4,265.9 49.5,265.3 48.5,264.4 47.7,263.3 47.4,262.4 47.2,261.5 47.2,260.8 47.5,257.9 47.7,256.5 48.0,254.4 48.2,253.6 48.4,253.0 49.2,251.8 50.0,250.9 51.1,250.1 53.1,249.0 54.7,248.0 56.4,247.1 57.9,245.6 61.0,241.1 64.1,234.6 65.0,233.4 67.0,230.9"/>
    <polyline points="112.8,232.4 111.5,233.9 110.5,235.3 110.3,236.1 110.3,236.7 110.5,238.2 110.8,238.7 112.6,241.3 114.1,243.1 116.3,246.7 117.5,251.9 117.8,253.2 117.7,254.4 116.9,256.4 116.6,257.3 116.3,258.2 115.1,262.0 114.9,262.5 114.8,262.7 114.4,263.0 111.7,264.2 104.0,270.7 93.8,279.1 92.0,280.7 91.4,281.2 90.1,282.5 89.3,283.5 88.5,285.5 86.6,289.8 85.9,291.6 85.9,293.0 86.1,293.9 87.1,295.5 87.8,296.9 88.3,298.8 88.3,299.7 88.4,300.1 88.5,300.9 88.6,301.7 88.4,302.4 87.9,303.6 84.8,311.5 83.9,315.7 83.7,321.2 83.8,327.3 85.9,337.2 87.3,341.6 88.7,343.7 92.3,346.5 93.9,347.9 100.7,355.3 102.4,357.2 102.7,358.0 102.8,358.6 102.5,359.5 101.9,360.2 98.5,362.5 93.8,366.0 92.8,367.2 91.7,369.4 89.4,373.4 88.5,376.0 87.0,381.1 86.3,383.4 84.6,388.0 83.1,393.5 81.7,396.1 80.7,397.6 80.0,398.7 79.4,399.6 75.3,405.4 71.5,411.2"/>
    <polyline points="74.6,483.1 81.3,482.3"/>
    <polyline points="81.3,482.3 81.4,482.3 81.9,482.2 82.4,482.1 82.9,482.0 83.5,481.8 84.2,481.6 84.6,481.6 85.3,481.4 85.4,481.4 86.2,481.3"/>
    <polyline points="379.1,341.5 379.3,341.4 379.4,341.3 380.0,341.0 380.4,340.7 380.8,340.3 381.1,340.0 381.3,339.7 381.5,339.5 381.7,339.1 381.9,338.7 382.0,338.4 382.2,337.7"/>
    <polyline points="379.6,341.9 379.3,342.0 378.8,342.1 378.3,342.2 377.8,342.3 376.7,342.5"/>
    <polyline points="697.5,396.9 705.1,401.1 707.8,402.4 709.7,403.2 711.5,403.8 715.5,405.0 717.6,405.7 719.9,406.3 721.8,406.7 723.5,407.0 725.9,407.4 729.2,407.7 731.6,407.8 737.2,407.9 766.6,407.5 771.1,407.6 772.7,407.7 774.1,407.9 776.5,408.5 778.0,408.9 780.0,409.8 782.6,410.9 785.8,412.3 788.9,413.7 797.4,417.4 799.7,418.4 802.9,420.0 806.9,422.3 810.9,424.8 812.3,425.8 813.9,426.9 816.5,428.7 817.5,429.4 818.6,430.2 819.8,431.1 820.1,431.2 825.0,434.5 825.6,435.0 827.9,436.5 829.3,437.5 830.7,438.6 831.7,439.4 832.6,440.3 834.1,441.9 835.4,443.6 837.7,446.6 838.1,447.3 838.6,448.0 838.9,448.6 839.2,449.3 839.4,449.7 839.9,450.9 840.6,453.1 841.0,454.3 841.3,455.0 841.6,455.7 841.8,456.2 842.6,457.5 843.1,458.2 843.6,458.8 844.2,459.5 844.9,460.1 845.6,460.8 846.4,461.4 847.6,462.2 848.6,462.8 849.6,463.3 850.4,463.6 851.5,464.0 852.6,464.3 853.8,464.6 855.0,464.8 856.1,464.9 857.8,465.0 863.1,464.9 867.9,464.9 874.8,464.7 882.8,464.6 887.2,464.5 901.9,464.2 908.7,464.0 911.6,463.9 913.6,463.9 914.9,463.9 916.3,463.9 917.6,463.9 920.9,463.8 922.5,463.8 933.2,463.6 935.3,463.5 936.9,463.5 937.8,463.6 938.6,463.7 939.6,463.8 940.5,463.9 941.4,464.2 942.3,464.4 943.4,464.8 944.5,465.2 945.6,465.7 946.5,466.3 947.5,466.9 948.3,467.5 949.3,468.4 950.2,469.3 950.9,470.0 951.5,470.7 952.0,471.6 952.5,472.5 953.0,473.3 953.3,474.0 953.5,474.6 953.8,475.5 954.0,476.3 954.1,477.1 954.2,478.0 954.3,478.8 954.2,479.7 954.2,480.6 954.1,481.4 953.8,482.8 953.7,483.1 953.4,484.3 953.2,485.3 952.3,489.3 951.9,491.6 951.6,493.1 950.0,502.5 949.9,503.6 949.7,504.8 949.6,505.3 948.7,510.0 948.5,511.3 948.4,512.3 948.4,513.3 948.5,514.2 948.6,515.8 948.8,516.9 949.0,518.2 949.6,520.6 950.3,523.8"/>
    <polyline points="359.8,345.1 359.9,345.0 365.4,344.7 366.2,344.6 366.6,344.6 367.9,344.5 369.5,344.3 371.1,344.2 374.2,343.9 376.9,343.6 377.7,343.5 379.9,343.2 382.3,342.8 385.3,342.3 388.3,341.6 393.6,340.4 399.5,338.8 403.7,337.7 404.4,337.5 405.2,337.3 408.7,336.3 411.4,335.6 415.0,334.6 417.5,334.1 420.0,333.8 420.8,333.7 421.6,333.7 422.9,333.9 424.4,334.2 426.5,335.1 427.7,335.5 428.3,335.8 429.0,336.1 429.8,336.4 430.4,336.7 431.1,336.9 432.1,337.0 433.1,337.0 433.7,337.0 434.8,336.9 436.0,336.8 437.1,336.7 438.2,336.5 438.9,336.4 440.1,336.1 441.5,335.7 443.2,335.3 444.5,335.0 445.9,334.9 447.5,334.9 451.1,335.1 453.7,335.3 456.2,335.2 463.4,335.0 465.5,334.9 468.6,334.6 469.5,334.6 470.5,334.6 471.5,334.7"/>
    <polyline points="382.2,337.7 382.2,337.3 382.3,336.7 382.4,336.2 382.4,335.9"/>
    <polyline points="381.7,319.4 381.1,322.5 381.1,322.6 381.0,323.2 380.9,323.6 380.9,323.9 380.9,324.5"/>
    <polyline points="381.5,319.4 381.0,322.5 380.9,322.5 380.8,323.3 380.8,323.6 380.8,324.3 380.9,324.9"/>
    <polyline points="381.4,319.4 380.8,322.4 380.8,322.5 380.7,323.1 380.7,323.4 380.7,323.8 380.8,324.3"/>
    <polyline points="381.2,319.3 380.6,322.4 380.6,322.5 380.5,322.9 380.5,323.3 380.5,323.6 380.6,324.0 380.7,324.5 381.0,325.4"/>
    <polyline points="381.0,319.3 380.4,322.4 380.4,322.5 380.4,322.9 380.3,323.2 380.4,323.6 380.5,323.9 380.7,324.5"/>
    <polyline points="380.7,319.3 380.1,322.3 380.1,322.4 380.0,322.7 380.0,323.1 380.1,323.6 380.2,324.0 380.6,324.7"/>
    <polyline points="380.5,319.3 380.0,322.3 379.9,322.4 379.9,322.7 379.9,323.0 379.9,323.4 380.1,323.9 380.3,324.3 380.5,324.7"/>
    <polyline points="382.7,329.0 382.7,328.3 382.8,327.7 383.0,327.3 383.3,326.7 383.4,326.3 383.6,325.9 383.7,325.4 383.7,325.3 384.7,319.6"/>
    <polyline points="384.6,319.6 383.6,325.3 383.6,325.3 383.5,325.9 383.4,326.4 383.3,326.7"/>
    <polyline points="384.5,319.6 383.5,325.3 383.5,325.3 383.4,325.9 383.3,326.2 383.1,326.8 383.0,327.3"/>
    <polyline points="384.4,319.6 383.4,325.3 383.4,325.3 383.3,325.8 383.1,326.4 382.9,326.9 382.9,326.9 382.8,327.3 382.8,327.7"/>
    <polyline points="384.3,319.5 383.3,325.2 383.3,325.3 383.2,325.8 383.1,326.0 383.0,326.4 382.9,326.9"/>
    <polyline points="384.2,319.5 383.2,325.2 383.2,325.3 383.1,325.9 383.0,326.4"/>
    <polyline points="384.1,319.5 383.1,325.2 383.1,325.3 383.0,325.8 382.9,326.3 382.8,326.9 382.7,327.5 382.7,328.3"/>
    <polyline points="384.0,319.5 383.0,325.2 383.0,325.3 382.9,325.6 382.9,326.3"/>
    <polyline points="383.9,319.5 382.9,325.2 382.9,325.3 382.8,325.6 382.8,325.9 382.8,326.9"/>
    <polyline points="383.8,319.5 382.8,325.2 382.8,325.2 382.7,325.5 382.7,326.0 382.7,326.5 382.7,327.5"/>
    <polyline points="383.7,319.4 382.7,325.2 382.7,325.2 382.6,325.5 382.6,325.9 382.6,326.5 382.6,327.2 382.6,328.2 382.6,328.9"/>
    <polyline points="383.6,319.4 382.6,325.1 382.6,325.2 382.5,325.5 382.5,326.1 382.5,326.7 382.6,327.2"/>
    <polyline points="383.5,319.4 382.5,325.1 382.5,325.2 382.4,325.5 382.4,325.8 382.4,326.2 382.5,326.7"/>
    <polyline points="383.4,319.4 382.4,325.1 382.3,325.2 382.3,325.5 382.2,325.8 382.3,326.2 382.3,326.7 382.4,327.1 382.5,327.7 382.6,328.2"/>
    <polyline points="383.3,319.4 382.3,325.1 382.2,325.2 382.2,325.6 382.1,325.9 382.2,326.3 382.3,326.7 382.4,327.1"/>
    <polyline points="383.2,319.4 382.1,325.1 382.1,325.2 382.1,325.5 382.0,325.9 382.1,326.3 382.2,326.8 382.4,327.3 382.5,327.7"/>
    <polyline points="383.0,319.4 382.0,325.1 382.0,325.2 382.0,325.5 381.9,325.9 382.0,326.4 382.1,326.8 382.3,327.4 382.3,327.7 382.4,328.0 382.5,328.4"/>
    <polyline points="382.9,319.3 381.9,325.0 381.9,325.1 381.8,325.5 381.8,325.9 381.8,326.3 381.9,326.6 382.0,327.0 382.1,327.4 382.3,328.0"/>
    <polyline points="382.8,319.3 381.8,325.0 381.8,325.1 381.7,325.6 381.7,325.9 381.7,326.3 381.8,326.7 382.0,327.1 382.1,327.4"/>
    <polyline points="382.3,329.5 382.3,329.0 382.2,328.7 382.1,328.4 381.9,328.0 381.3,326.9"/>
    <polyline points="384.8,324.8 384.6,325.7 384.2,328.1 383.4,332.4 382.9,334.9 382.5,337.5 381.8,341.1"/>
    <polyline points="381.8,329.9 381.8,330.8 381.8,330.9 381.8,331.1 381.8,331.4 381.9,331.7 382.1,332.2 382.2,332.6 382.3,333.1"/>
    <polyline points="381.9,329.9 381.9,330.8 381.9,330.9 381.9,331.2 381.9,331.6 382.0,331.9 382.1,332.2"/>
    <polyline points="382.1,329.9 382.1,330.8 382.1,330.9 382.1,331.4 382.1,331.6 382.1,332.2 382.2,332.6"/>
    <polyline points="382.2,329.9 382.2,330.8 382.2,330.9 382.2,331.4 382.2,331.7 382.2,332.2 382.3,332.6"/>
    <polyline points="385.5,320.9 385.9,318.6"/>
    <polyline points="382.5,335.9 382.6,335.7 382.6,330.2 382.7,329.6 382.7,329.5 382.7,329.0 382.7,328.5 383.0,327.7 383.2,327.4 383.8,326.7 384.1,326.2 384.4,325.7 384.6,325.4 384.8,324.8 385.1,323.1 385.3,321.8 385.5,320.9 385.5,320.4 385.5,320.0 385.5,319.5 385.3,319.1 385.0,318.6 384.7,318.2 384.1,317.9 383.6,317.6 383.0,317.5 382.2,317.4 381.6,317.5 381.0,317.7 380.4,318.0 380.1,318.3 379.8,318.6 379.7,318.8 379.5,319.0 379.4,319.3 379.3,319.7 379.3,320.1 379.3,320.8 379.3,321.4 379.4,321.8 379.4,322.3 379.4,322.7 379.5,323.0 379.6,323.3 379.6,323.5 379.7,323.7 379.9,323.9 380.0,324.1 380.5,324.7 380.8,325.3 381.2,326.0 381.3,326.2 381.4,326.6 381.8,327.1 382.0,327.4 382.3,328.0 382.5,328.4 382.6,328.9"/>
    <polyline points="382.4,335.9 382.5,335.7 382.5,334.4 382.5,333.2 382.5,331.5 382.5,331.2 382.5,330.8 382.5,330.4 382.5,330.2 382.5,330.0 382.6,329.5 382.6,328.9"/>
    <polyline points="574.0,196.6 574.5,196.6 575.8,196.5 576.8,196.5 578.5,196.5 581.9,196.7 583.4,196.8 584.9,197.0 586.5,197.3 588.2,197.7 589.5,198.0 590.9,198.4 591.5,198.6 592.1,198.9 592.6,199.3 593.0,199.8 593.2,200.2"/>
    <polyline points="593.7,202.0 593.6,202.8 593.4,203.7 593.2,205.0 593.1,205.9 593.1,206.4 593.2,206.9 593.5,207.5 594.0,208.2 594.6,208.9 594.9,209.5 595.1,209.9 595.1,210.3"/>
    <polyline points="595.1,210.3 595.1,211.0 594.8,212.3"/>
    <polyline points="593.3,202.2 593.1,203.4 593.0,204.2 592.9,205.0 592.8,206.1 592.6,207.2 592.6,207.7 592.3,208.5 592.1,209.0 591.9,209.4 591.5,210.0 591.4,210.2 591.2,210.4 590.9,210.6 590.6,210.7 590.4,210.9 589.0,211.7"/>
    <polyline points="591.9,209.4 591.7,209.9 591.6,210.1 591.4,210.3 591.2,210.5 591.0,210.7 590.8,210.8 590.5,211.0 589.7,211.5 588.9,212.0 588.4,212.4 588.0,213.0 587.4,214.0 587.1,214.6 586.9,215.0 586.3,216.2 585.2,218.5"/>
    <polyline points="585.4,218.6 586.5,216.2 587.1,215.1 587.3,214.7 588.2,213.0 588.4,212.7 588.7,212.3 589.2,211.9 589.7,211.5"/>
    <polyline points="592.9,205.0 592.9,205.3 592.9,205.6 592.9,206.0"/>
    <polyline points="593.0,206.0 593.1,205.6 593.2,205.4 593.2,205.0"/>
    <polyline points="588.3,218.6 590.6,213.9 590.9,213.2 591.1,212.7 591.2,212.3 591.3,212.0 591.4,211.7 591.5,211.3 591.7,210.8 592.0,210.2 592.2,209.6 592.3,209.3 592.4,209.0 592.6,208.3 592.7,207.9 592.8,207.4 592.9,206.9 593.0,206.3 593.0,206.0 593.1,205.2 593.3,203.7 593.6,202.2 593.6,201.6 593.6,201.3 593.6,200.7 593.3,200.2"/>
    <polyline points="592.8,208.1 592.8,207.9 592.8,207.6 592.8,207.4"/>
    <polyline points="592.8,206.9 592.8,206.7 592.9,206.6 592.9,206.5 593.0,206.3"/>
    <polyline points="592.9,206.3 592.9,206.5 592.9,206.6 592.9,206.7 592.9,206.9"/>
    <polyline points="592.5,208.3 592.4,208.6 592.2,208.8 592.1,209.0"/>
    <polyline points="590.0,216.7 591.2,214.3 591.4,213.8 591.7,213.3 591.9,212.8 592.0,212.3"/>
    <polyline points="590.4,216.3 591.4,214.4 591.7,213.8 591.9,213.3 592.0,212.8 592.0,212.6 592.1,212.3 592.1,211.7"/>
    <polyline points="592.8,212.9 592.5,211.6 592.4,210.8 592.4,210.5 592.4,210.2 592.4,209.9 592.5,209.5 592.6,209.1"/>
    <polyline points="592.9,212.9 592.7,211.5 592.5,210.7 592.5,210.3 592.4,209.9"/>
    <polyline points="593.1,212.9 592.8,211.5 592.6,210.4 592.6,210.0 592.6,209.6 592.7,209.1 592.7,208.6"/>
    <polyline points="593.2,212.8 593.0,211.5 592.8,210.4 592.7,210.2 592.7,209.7 592.6,209.4 592.7,209.1"/>
    <polyline points="593.4,212.8 593.1,211.5 593.1,211.3 593.0,210.8 592.8,209.8 592.8,209.4 592.8,209.0 593.0,207.9 593.1,207.5 593.1,207.1"/>
    <polyline points="593.1,211.3 593.0,211.0 592.9,210.7 592.8,210.4"/>
    <polyline points="592.2,210.5 592.3,211.6 592.3,212.4 592.2,213.2 592.2,213.6 592.2,213.9 592.1,214.2 591.9,214.6 591.0,216.5"/>
    <polyline points="591.1,216.6 592.1,214.6 592.2,214.3 592.3,213.9 592.4,213.5 592.3,213.0 592.3,212.4"/>
    <polyline points="591.3,216.6 592.2,214.7 592.4,214.3 592.5,214.0 592.5,213.6 592.5,213.2 592.3,212.2 592.3,211.6"/>
    <polyline points="591.7,214.5 591.8,214.1 592.0,213.8 592.0,213.5 592.1,213.1 592.1,212.7 592.1,212.3"/>
  </g>

  <!-- 지하철 역 -->
  <g>
    <circle cx="218.3" cy="184.6" r="3" fill="#dc2626" stroke="#fff" stroke-width="1"/>
    <circle cx="195.4" cy="288.3" r="3" fill="#dc2626" stroke="#fff" stroke-width="1"/>
    <circle cx="193.8" cy="234.1" r="3" fill="#dc2626" stroke="#fff" stroke-width="1"/>
    <circle cx="212.4" cy="204.0" r="3" fill="#dc2626" stroke="#fff" stroke-width="1"/>
    <circle cx="171.3" cy="210.0" r="3" fill="#dc2626" stroke="#fff" stroke-width="1"/>
    <circle cx="178.3" cy="248.4" r="3" fill="#dc2626" stroke="#fff" stroke-width="1"/>
    <circle cx="167.2" cy="266.8" r="3" fill="#dc2626" stroke="#fff" stroke-width="1"/>
    <circle cx="167.0" cy="262.2" r="3" fill="#dc2626" stroke="#fff" stroke-width="1"/>
    <circle cx="140.9" cy="281.6" r="3" fill="#dc2626" stroke="#fff" stroke-width="1"/>
    <circle cx="141.8" cy="301.2" r="3" fill="#dc2626" stroke="#fff" stroke-width="1"/>
    <circle cx="140.7" cy="325.2" r="3" fill="#dc2626" stroke="#fff" stroke-width="1"/>
    <circle cx="139.7" cy="325.0" r="3" fill="#dc2626" stroke="#fff" stroke-width="1"/>
    <circle cx="141.9" cy="341.2" r="3" fill="#dc2626" stroke="#fff" stroke-width="1"/>
    <circle cx="141.6" cy="360.8" r="3" fill="#dc2626" stroke="#fff" stroke-width="1"/>
    <circle cx="141.2" cy="360.3" r="3" fill="#dc2626" stroke="#fff" stroke-width="1"/>
    <circle cx="141.2" cy="382.8" r="3" fill="#dc2626" stroke="#fff" stroke-width="1"/>
    <circle cx="136.3" cy="399.2" r="3" fill="#dc2626" stroke="#fff" stroke-width="1"/>
    <circle cx="122.0" cy="432.5" r="3" fill="#dc2626" stroke="#fff" stroke-width="1"/>
    <circle cx="95.9" cy="463.6" r="3" fill="#dc2626" stroke="#fff" stroke-width="1"/>
    <circle cx="96.6" cy="465.5" r="3" fill="#dc2626" stroke="#fff" stroke-width="1"/>
    <circle cx="98.9" cy="489.8" r="3" fill="#dc2626" stroke="#fff" stroke-width="1"/>
    <circle cx="122.2" cy="494.6" r="3" fill="#dc2626" stroke="#fff" stroke-width="1"/>
    <circle cx="144.9" cy="492.4" r="3" fill="#dc2626" stroke="#fff" stroke-width="1"/>
    <circle cx="170.0" cy="510.3" r="3" fill="#dc2626" stroke="#fff" stroke-width="1"/>
    <circle cx="167.5" cy="506.6" r="3" fill="#dc2626" stroke="#fff" stroke-width="1"/>
    <circle cx="209.2" cy="521.5" r="3" fill="#dc2626" stroke="#fff" stroke-width="1"/>
    <circle cx="214.9" cy="546.9" r="3" fill="#dc2626" stroke="#fff" stroke-width="1"/>
    <circle cx="534.7" cy="206.4" r="3" fill="#dc2626" stroke="#fff" stroke-width="1"/>
    <circle cx="499.9" cy="221.5" r="3" fill="#dc2626" stroke="#fff" stroke-width="1"/>
    <circle cx="460.2" cy="231.6" r="3" fill="#dc2626" stroke="#fff" stroke-width="1"/>
    <circle cx="440.6" cy="242.2" r="3" fill="#dc2626" stroke="#fff" stroke-width="1"/>
    <circle cx="412.8" cy="257.4" r="3" fill="#dc2626" stroke="#fff" stroke-width="1"/>
    <circle cx="388.6" cy="270.6" r="3" fill="#dc2626" stroke="#fff" stroke-width="1"/>
    <circle cx="391.3" cy="297.8" r="3" fill="#dc2626" stroke="#fff" stroke-width="1"/>
    <circle cx="390.6" cy="298.0" r="3" fill="#dc2626" stroke="#fff" stroke-width="1"/>
    <circle cx="367.7" cy="343.6" r="3" fill="#dc2626" stroke="#fff" stroke-width="1"/>
    <circle cx="367.9" cy="344.3" r="3" fill="#dc2626" stroke="#fff" stroke-width="1"/>
    <circle cx="315.0" cy="364.7" r="3" fill="#dc2626" stroke="#fff" stroke-width="1"/>
    <circle cx="292.3" cy="372.9" r="3" fill="#dc2626" stroke="#fff" stroke-width="1"/>
    <circle cx="273.2" cy="368.4" r="3" fill="#dc2626" stroke="#fff" stroke-width="1"/>
    <circle cx="245.9" cy="363.3" r="3" fill="#dc2626" stroke="#fff" stroke-width="1"/>
    <circle cx="214.2" cy="365.3" r="3" fill="#dc2626" stroke="#fff" stroke-width="1"/>
    <circle cx="185.5" cy="363.6" r="3" fill="#dc2626" stroke="#fff" stroke-width="1"/>
    <circle cx="163.5" cy="361.7" r="3" fill="#dc2626" stroke="#fff" stroke-width="1"/>
    <circle cx="163.1" cy="359.6" r="3" fill="#dc2626" stroke="#fff" stroke-width="1"/>
    <circle cx="125.1" cy="359.3" r="3" fill="#dc2626" stroke="#fff" stroke-width="1"/>
    <circle cx="106.7" cy="358.3" r="3" fill="#dc2626" stroke="#fff" stroke-width="1"/>
    <circle cx="90.8" cy="369.6" r="3" fill="#dc2626" stroke="#fff" stroke-width="1"/>
    <circle cx="67.1" cy="374.3" r="3" fill="#dc2626" stroke="#fff" stroke-width="1"/>
    <circle cx="50.7" cy="388.5" r="3" fill="#dc2626" stroke="#fff" stroke-width="1"/>
    <circle cx="64.4" cy="157.6" r="3" fill="#dc2626" stroke="#fff" stroke-width="1"/>
    <circle cx="112.6" cy="207.9" r="3" fill="#dc2626" stroke="#fff" stroke-width="1"/>
    <circle cx="128.6" cy="218.2" r="3" fill="#dc2626" stroke="#fff" stroke-width="1"/>
    <circle cx="144.8" cy="250.2" r="3" fill="#dc2626" stroke="#fff" stroke-width="1"/>
    <circle cx="169.9" cy="328.6" r="3" fill="#dc2626" stroke="#fff" stroke-width="1"/>
    <circle cx="168.7" cy="327.4" r="3" fill="#dc2626" stroke="#fff" stroke-width="1"/>
    <circle cx="166.4" cy="344.6" r="3" fill="#dc2626" stroke="#fff" stroke-width="1"/>
    <circle cx="158.3" cy="377.2" r="3" fill="#dc2626" stroke="#fff" stroke-width="1"/>
    <circle cx="155.6" cy="396.5" r="3" fill="#dc2626" stroke="#fff" stroke-width="1"/>
    <circle cx="162.8" cy="418.5" r="3" fill="#dc2626" stroke="#fff" stroke-width="1"/>
    <circle cx="159.0" cy="438.9" r="3" fill="#dc2626" stroke="#fff" stroke-width="1"/>
    <circle cx="164.8" cy="456.1" r="3" fill="#dc2626" stroke="#fff" stroke-width="1"/>
    <circle cx="174.3" cy="475.5" r="3" fill="#dc2626" stroke="#fff" stroke-width="1"/>
    <circle cx="175.3" cy="493.7" r="3" fill="#dc2626" stroke="#fff" stroke-width="1"/>
    <circle cx="182.3" cy="531.2" r="3" fill="#dc2626" stroke="#fff" stroke-width="1"/>
    <circle cx="50.8" cy="326.6" r="3" fill="#dc2626" stroke="#fff" stroke-width="1"/>
    <circle cx="83.6" cy="321.6" r="3" fill="#dc2626" stroke="#fff" stroke-width="1"/>
    <circle cx="122.2" cy="324.4" r="3" fill="#dc2626" stroke="#fff" stroke-width="1"/>
    <circle cx="186.2" cy="328.0" r="3" fill="#dc2626" stroke="#fff" stroke-width="1"/>
    <circle cx="206.7" cy="311.5" r="3" fill="#dc2626" stroke="#fff" stroke-width="1"/>
    <circle cx="237.9" cy="286.2" r="3" fill="#dc2626" stroke="#fff" stroke-width="1"/>
    <circle cx="252.3" cy="269.9" r="3" fill="#dc2626" stroke="#fff" stroke-width="1"/>
    <circle cx="306.6" cy="252.3" r="3" fill="#dc2626" stroke="#fff" stroke-width="1"/>
    <circle cx="354.7" cy="270.1" r="3" fill="#dc2626" stroke="#fff" stroke-width="1"/>
    <circle cx="443.0" cy="285.0" r="3" fill="#dc2626" stroke="#fff" stroke-width="1"/>
    <circle cx="468.0" cy="285.6" r="3" fill="#dc2626" stroke="#fff" stroke-width="1"/>
    <circle cx="510.7" cy="286.8" r="3" fill="#dc2626" stroke="#fff" stroke-width="1"/>
    <circle cx="556.5" cy="271.9" r="3" fill="#dc2626" stroke="#fff" stroke-width="1"/>
    <circle cx="575.0" cy="242.0" r="3" fill="#dc2626" stroke="#fff" stroke-width="1"/>
    <circle cx="567.0" cy="187.2" r="3" fill="#dc2626" stroke="#fff" stroke-width="1"/>
    <circle cx="131.2" cy="524.4" r="3" fill="#dc2626" stroke="#fff" stroke-width="1"/>
    <circle cx="101.1" cy="520.0" r="3" fill="#dc2626" stroke="#fff" stroke-width="1"/>
    <circle cx="72.1" cy="524.1" r="3" fill="#dc2626" stroke="#fff" stroke-width="1"/>
    <circle cx="408.6" cy="336.2" r="3" fill="#dc2626" stroke="#fff" stroke-width="1"/>
    <circle cx="435.3" cy="336.7" r="3" fill="#dc2626" stroke="#fff" stroke-width="1"/>
    <circle cx="486.1" cy="339.5" r="3" fill="#dc2626" stroke="#fff" stroke-width="1"/>
    <circle cx="600.8" cy="344.8" r="3" fill="#dc2626" stroke="#fff" stroke-width="1"/>
    <circle cx="688.7" cy="319.9" r="3" fill="#dc2626" stroke="#fff" stroke-width="1"/>
    <circle cx="720.8" cy="347.4" r="3" fill="#dc2626" stroke="#fff" stroke-width="1"/>
    <circle cx="688.3" cy="378.3" r="3" fill="#dc2626" stroke="#fff" stroke-width="1"/>
    <circle cx="61.2" cy="482.8" r="3" fill="#dc2626" stroke="#fff" stroke-width="1"/>
    <circle cx="575.7" cy="151.5" r="3" fill="#dc2626" stroke="#fff" stroke-width="1"/>
    <circle cx="219.0" cy="165.1" r="3" fill="#dc2626" stroke="#fff" stroke-width="1"/>
    <circle cx="235.1" cy="149.9" r="3" fill="#dc2626" stroke="#fff" stroke-width="1"/>
    <circle cx="261.0" cy="145.7" r="3" fill="#dc2626" stroke="#fff" stroke-width="1"/>
    <circle cx="369.0" cy="184.2" r="3" fill="#dc2626" stroke="#fff" stroke-width="1"/>
    <circle cx="353.3" cy="193.2" r="3" fill="#dc2626" stroke="#fff" stroke-width="1"/>
    <circle cx="328.9" cy="208.0" r="3" fill="#dc2626" stroke="#fff" stroke-width="1"/>
    <circle cx="296.9" cy="224.0" r="3" fill="#dc2626" stroke="#fff" stroke-width="1"/>
    <circle cx="276.4" cy="215.8" r="3" fill="#dc2626" stroke="#fff" stroke-width="1"/>
    <circle cx="245.4" cy="198.5" r="3" fill="#dc2626" stroke="#fff" stroke-width="1"/>
    <circle cx="113.6" cy="231.1" r="3" fill="#dc2626" stroke="#fff" stroke-width="1"/>
    <circle cx="70.4" cy="412.5" r="3" fill="#dc2626" stroke="#fff" stroke-width="1"/>
    <circle cx="64.5" cy="438.5" r="3" fill="#dc2626" stroke="#fff" stroke-width="1"/>
    <circle cx="263.5" cy="542.5" r="3" fill="#dc2626" stroke="#fff" stroke-width="1"/>
    <circle cx="259.3" cy="532.6" r="3" fill="#dc2626" stroke="#fff" stroke-width="1"/>
    <circle cx="80.7" cy="397.5" r="3" fill="#dc2626" stroke="#fff" stroke-width="1"/>
    <circle cx="92.2" cy="346.6" r="3" fill="#dc2626" stroke="#fff" stroke-width="1"/>
    <circle cx="86.9" cy="381.1" r="3" fill="#dc2626" stroke="#fff" stroke-width="1"/>
    <circle cx="88.2" cy="299.8" r="3" fill="#dc2626" stroke="#fff" stroke-width="1"/>
    <circle cx="91.4" cy="281.1" r="3" fill="#dc2626" stroke="#fff" stroke-width="1"/>
    <circle cx="116.2" cy="258.2" r="3" fill="#dc2626" stroke="#fff" stroke-width="1"/>
    <circle cx="103.0" cy="291.3" r="3" fill="#dc2626" stroke="#fff" stroke-width="1"/>
    <circle cx="118.7" cy="304.9" r="3" fill="#dc2626" stroke="#fff" stroke-width="1"/>
    <circle cx="254.6" cy="504.9" r="3" fill="#dc2626" stroke="#fff" stroke-width="1"/>
    <circle cx="224.8" cy="467.9" r="3" fill="#dc2626" stroke="#fff" stroke-width="1"/>
    <circle cx="66.9" cy="230.9" r="3" fill="#dc2626" stroke="#fff" stroke-width="1"/>
    <circle cx="220.7" cy="449.7" r="3" fill="#dc2626" stroke="#fff" stroke-width="1"/>
    <circle cx="225.9" cy="428.3" r="3" fill="#dc2626" stroke="#fff" stroke-width="1"/>
    <circle cx="54.7" cy="248.0" r="3" fill="#dc2626" stroke="#fff" stroke-width="1"/>
    <circle cx="77.7" cy="269.8" r="3" fill="#dc2626" stroke="#fff" stroke-width="1"/>
    <circle cx="55.1" cy="267.2" r="3" fill="#dc2626" stroke="#fff" stroke-width="1"/>
    <circle cx="204.5" cy="397.9" r="3" fill="#dc2626" stroke="#fff" stroke-width="1"/>
    <circle cx="224.8" cy="410.4" r="3" fill="#dc2626" stroke="#fff" stroke-width="1"/>
    <circle cx="183.3" cy="393.5" r="3" fill="#dc2626" stroke="#fff" stroke-width="1"/>
    <circle cx="118.2" cy="379.1" r="3" fill="#dc2626" stroke="#fff" stroke-width="1"/>
    <circle cx="126.1" cy="342.9" r="3" fill="#dc2626" stroke="#fff" stroke-width="1"/>
  </g>
</svg>