<?xml version="1.0" encoding="UTF-8"?>
<svg width="800" height="600" xmlns="http://www.w3.org/2000/svg">
  <title>Naples Subway Map</title>
  <rect width="100%" height="100%" fill="#f8f9fa"/>

  <!-- 지하철 선로 -->
  <g stroke="#2563eb" stroke-width="2" fill="none" opacity="0.8">
    <polyline points="444.2,435.1 441.1,436.0 440.5,436.1 439.9,436.3 439.2,436.5 436.6,437.0 435.7,437.2 435.2,437.3 434.6,437.5 432.8,438.0 423.2,440.9 420.4,441.9 417.2,443.4 407.7,449.3 396.8,456.7 394.2,458.5 379.8,467.8 376.2,470.1 373.5,472.2 368.5,477.1 366.7,479.5 364.9,481.8 361.2,485.2 359.7,486.6 357.8,488.0 356.1,489.0 353.7,490.0 352.7,490.5 350.7,491.4 349.3,491.9 346.9,492.5 344.2,492.8 342.3,492.9 339.3,492.9 336.1,492.8 334.2,492.6 332.5,492.3 329.5,491.7 312.0,487.6 308.9,486.8 305.4,486.0 302.5,485.3 299.8,484.9 297.3,484.6 294.6,484.4 285.8,483.7 283.1,483.8 279.5,484.2 276.4,484.7 238.2,491.4 235.3,492.0 228.7,493.7 222.1,495.4 218.1,496.4 215.1,497.2 212.0,497.8 208.9,498.3 206.0,498.9 199.5,500.4 178.2,505.8 171.7,507.5 167.4,508.3 157.3,509.7 155.7,510.0 151.9,510.5 147.9,511.1 145.2,511.4 138.5,512.5 132.0,513.7 126.6,514.9 121.9,516.2 116.7,517.8 109.5,520.4 93.8,526.5 84.2,530.3 79.3,532.2 65.7,537.5 58.6,540.3 55.7,541.4 52.4,542.2 49.2,542.7 46.4,543.1 42.1,543.5 8.0,547.5 2.3,548.2 -4.8,549.1 -9.8,549.8 -15.8,550.8 -32.0,554.1 -33.0,554.3 -35.8,555.0 -37.5,555.5 -39.0,556.1 -40.1,556.8 -41.4,558.3 -42.3,560.0 -42.6,561.3 -43.3,564.4"/>
    <polyline points="585.7,327.2 580.4,327.8 578.5,328.0 576.6,328.2 574.9,328.5 573.1,328.8 570.9,329.3 569.1,329.8 567.7,330.3 566.2,330.9 564.5,331.8 562.9,332.6 560.8,333.9 558.8,335.2 527.4,356.6 516.5,364.0 507.8,369.9 495.3,378.4 487.6,383.7 485.4,385.1 483.9,386.1 481.4,387.7 479.9,388.5 476.8,390.2 475.7,390.7 474.8,391.3 473.9,391.9 472.9,392.6 472.0,393.3 471.2,393.9 470.5,394.5 469.8,395.2 466.4,398.6 463.1,402.3 462.2,403.5 461.5,404.6 460.8,405.7 460.4,406.4 460.1,407.5 459.9,408.5 459.7,409.9 459.6,411.0 459.3,416.3 458.9,418.7 458.4,420.1 457.9,421.5 457.3,422.7 456.4,424.0 455.5,425.1 454.6,426.2 453.6,427.1 452.5,427.9 451.1,428.8 449.7,429.4 448.6,429.9 447.5,430.3"/>
    <polyline points="435.6,304.7 436.0,302.3 436.0,300.0 435.5,297.1 434.8,294.8 433.5,292.5 432.0,290.3 428.7,287.2 426.2,285.0 423.8,283.3 420.5,281.5 415.4,280.0 408.8,279.1 403.6,279.0 398.3,279.8 393.1,281.3 386.8,284.0 376.7,288.8 368.2,293.4 364.0,296.1 358.3,300.3 354.9,302.9 325.0,325.2 320.9,327.8 317.9,329.3 313.2,331.7"/>
    <polyline points="422.4,348.0 422.7,346.9 423.6,345.2 424.5,344.0 425.1,343.2 425.6,342.4 425.9,341.7 426.2,340.9 426.6,339.7 426.9,338.6 428.0,334.9 428.3,333.6 428.7,331.3 429.2,328.8 429.9,324.5 430.7,321.2 431.9,317.5 433.1,313.3 434.4,309.2 435.6,304.7"/>
    <polyline points="313.2,331.7 308.4,334.1 304.0,336.2 299.8,338.0 296.2,339.1 290.8,340.6 258.3,348.8 234.0,355.0 229.4,356.9 226.5,358.5 224.3,360.2 222.8,362.0 220.6,364.9 219.2,368.8 217.1,375.0 215.4,379.9 214.7,383.0 214.2,385.9 214.0,388.4 214.1,391.3 214.2,393.8 214.4,396.4 215.1,400.0 216.2,403.0 218.0,406.2 221.3,410.0 225.4,413.3 229.9,415.6 234.2,417.1 239.8,418.0 245.1,418.3 251.1,417.6 257.1,415.6 261.7,413.1 264.3,411.5 266.7,409.7 268.2,408.3 269.3,406.7 270.1,405.0 270.5,402.9 270.5,400.9 270.5,398.9 270.2,397.2 270.0,395.5 268.9,387.3 268.7,385.6 268.4,383.3 265.6,363.0"/>
    <polyline points="447.5,430.3 446.0,430.8 441.0,432.3 436.0,433.9 435.1,434.1 434.1,434.4 432.8,434.6 431.6,434.8 429.5,434.9 426.8,434.8 424.4,434.5 421.6,434.0 419.1,433.1 416.7,431.9 414.5,430.4 412.9,428.7 411.3,426.7 409.9,424.2 409.3,422.3 409.0,420.4 408.9,419.0 408.9,418.1 409.1,417.0 409.3,416.2 409.6,415.2 409.8,414.4 410.1,413.6 410.3,412.8 410.4,412.0 410.7,408.3 413.4,381.2 413.9,377.6 414.5,373.9 415.3,370.7 416.2,367.6 417.5,363.5 419.0,358.8 421.1,352.1 422.4,348.0"/>
    <polyline points="270.8,139.1 270.6,140.4 270.4,141.7 270.2,142.8 270.0,144.0 269.7,145.1 269.3,146.4 268.8,147.8 268.4,148.7 267.8,149.8 267.2,151.0 266.7,151.9 265.8,153.2 265.1,154.1 264.2,155.2 263.5,156.2 262.4,157.2 261.2,158.4 260.3,159.3"/>
    <polyline points="274.0,111.3 273.8,114.0 273.5,116.4 273.2,118.8 272.9,121.2 272.6,123.6 272.1,127.5 271.5,132.6"/>
    <polyline points="228.6,49.1 230.8,50.4 234.5,52.7 238.3,54.9 240.2,56.2 241.9,57.3 243.7,58.5 245.4,59.8 247.1,61.1 248.7,62.4 250.4,63.8 251.9,65.2 253.4,66.6 254.9,68.0 256.4,69.5 257.8,71.0 259.1,72.5 260.5,74.2 262.0,76.0 263.3,77.9 264.7,79.9 266.0,81.9 267.1,83.6 268.4,85.8 269.6,88.0 270.6,90.3 271.5,92.6 272.3,94.9 273.0,97.3 273.5,99.6 273.7,100.7 273.9,102.0 274.0,103.3 274.1,104.7"/>
    <polyline points="273.7,104.7 273.6,103.4 273.5,102.0 273.3,100.7 273.1,99.7 272.8,98.1 272.6,97.3 271.9,95.0 271.1,92.6 270.2,90.4 269.2,88.1 268.0,85.9 266.7,83.7 265.6,82.1 264.3,80.0 263.0,78.1 261.6,76.2 260.1,74.4 258.8,72.7 257.4,71.2 256.1,69.7 254.6,68.2 253.1,66.7 251.6,65.4 250.1,64.0 248.5,62.6 246.8,61.3 245.1,60.0 243.5,58.8 241.7,57.5 240.1,56.5 238.0,55.2 234.3,52.9 230.5,50.7 228.3,49.4"/>
    <polyline points="271.2,132.6 271.8,127.5 272.2,123.5 272.5,121.1 272.8,118.7 273.1,116.4 273.4,113.9 273.7,111.3"/>
    <polyline points="259.5,158.7 260.1,158.2 261.6,156.7 262.6,155.8 263.5,154.8 264.3,153.8 265.1,152.8 265.9,151.6 266.5,150.7 267.1,149.6 267.7,148.5 268.2,147.4 268.7,146.3 269.1,145.1 269.5,144.0 269.8,142.8 270.0,141.6 270.2,140.3 270.4,139.1"/>
    <polyline points="254.2,164.2 255.7,162.7"/>
    <polyline points="251.0,166.2 252.7,165.1 254.0,164.1"/>
    <polyline points="686.6,298.6 687.5,304.5"/>
    <polyline points="687.2,304.5 686.2,298.6"/>
    <polyline points="447.0,429.6 448.2,429.1 449.1,428.7 450.5,428.1 451.8,427.3 452.8,426.5 453.7,425.6 454.7,424.6 455.5,423.5 456.3,422.3 456.8,421.2 457.4,419.9 457.8,418.6 458.0,417.4 458.2,416.3 458.5,411.0 458.6,409.8 458.8,408.4 459.1,407.3 459.4,406.2 459.8,405.4 460.5,404.1 461.4,403.0 462.3,401.8 465.6,398.1 469.0,394.6 469.7,394.0 470.4,393.3 471.2,392.7 472.2,391.9 473.2,391.2 474.1,390.6 475.1,390.0 476.2,389.5 479.3,387.8 480.7,387.0 483.2,385.5 494.6,377.7 507.1,369.2 515.8,363.3 526.7,355.9 558.1,334.6 560.1,333.2 562.3,331.9 563.9,331.0 565.7,330.2 567.2,329.5 568.6,329.0 570.6,328.5 572.8,328.0 574.7,327.6 576.5,327.4 578.3,327.1 580.2,326.9 585.6,326.4"/>
    <polyline points="585.6,326.4 590.9,325.8 592.4,325.7 594.4,325.5 596.5,325.3 598.4,325.3 599.9,325.4 601.3,325.6 602.7,325.8 604.3,326.1 605.7,326.5 608.1,327.2 651.7,340.6 655.4,341.6 658.4,342.4 661.2,342.9 663.6,343.0 665.7,342.9 668.2,342.5 670.6,342.1 672.9,341.4 675.4,340.3 677.8,339.0 679.6,337.9 681.9,336.4 684.5,334.0 686.0,332.4 687.2,330.9 687.6,330.2 688.0,329.6 688.5,328.9 688.9,328.0 689.3,327.2 689.6,326.3 689.8,325.4 689.9,324.5 689.9,323.8 689.9,323.1 689.8,322.1 689.7,320.7 689.4,319.0 687.9,309.5 687.9,309.3 687.5,306.7 687.4,305.8 687.2,304.5"/>
    <polyline points="687.5,304.5 687.7,305.8 687.9,306.7 688.3,309.2 688.3,309.4 689.8,318.9 690.1,320.6 690.3,322.1 690.4,323.1 690.4,323.8 690.4,324.6 690.4,325.5 690.2,326.4 690.0,327.3 689.7,328.2 689.4,329.1 688.9,330.0 688.6,330.7 688.1,331.3 687.0,333.0 685.3,334.9 682.9,337.2 680.8,338.7 678.7,340.0 676.0,341.4 673.7,342.3 671.1,343.2 668.4,343.7 665.9,343.9 663.1,344.1 660.9,343.8 658.0,343.3 654.8,342.5 651.3,341.5 605.7,327.9 604.2,327.5 602.9,327.2 601.7,326.9 600.0,326.6 598.5,326.5 596.7,326.4 594.6,326.4 592.5,326.5 591.1,326.6 585.7,327.2"/>
    <polyline points="426.9,338.6 427.7,336.7 428.4,334.9"/>
    <polyline points="428.0,334.9 427.7,336.7 427.5,338.7"/>
    <polyline points="257.5,311.3 254.9,306.8 252.1,303.7 249.6,301.3 246.5,299.1 242.9,297.1 239.7,295.7 235.7,294.4 231.4,293.6 225.9,293.2 220.3,293.1 214.9,293.0 209.5,292.8 199.8,292.6 189.4,291.1 181.4,287.9 175.7,282.9 171.0,275.0 170.4,266.6 171.7,258.7 173.2,250.9 174.1,246.6 174.9,242.4 179.9,220.0 180.6,217.5 181.3,215.5 183.2,211.3 185.1,207.2 186.8,204.0 188.3,201.8 190.4,199.5 193.0,196.9 195.6,194.8 198.9,192.9 203.2,191.2 207.9,189.7 212.3,188.7 216.3,188.0 220.2,187.2 223.1,186.3 225.6,185.4 227.8,184.3 229.9,183.1 232.2,181.7 234.0,180.5 235.5,179.3 240.4,175.1"/>
    <polyline points="241.3,175.8 236.4,180.0 235.0,181.2 233.1,182.5 230.8,183.9 228.6,185.1 226.3,186.3 223.7,187.4 220.8,188.3 216.8,189.2 212.8,190.1 208.7,191.1 204.4,192.6 200.5,194.5 197.7,196.3 195.0,198.5 192.7,201.0 190.8,203.0 189.4,205.1 187.9,208.0 186.0,212.0 184.1,216.3 183.5,218.0 182.8,220.4 177.8,242.7 177.0,247.0 176.2,251.3 174.6,259.1 173.4,266.7 173.8,274.5 178.2,281.7 183.3,286.1 190.6,289.0 199.8,290.3 209.5,290.5 215.0,290.6 220.4,290.7 226.1,290.9 231.8,291.3 236.6,292.2 240.8,293.6 244.3,295.2 248.2,297.5 251.4,299.9 254.2,302.7 256.6,306.1 258.8,311.0"/>
    <polyline points="266.0,363.0 268.8,383.2 269.6,389.5 270.5,395.5 271.0,398.9 271.3,400.9 271.5,402.8 271.5,405.1 271.1,407.3 270.2,409.3 268.9,411.1 266.6,413.6 263.9,415.7 258.6,418.9 252.7,421.2 246.9,422.5 240.0,422.7 233.2,421.8 227.0,419.9 221.0,416.3 217.1,412.3 213.7,407.9 211.6,404.2 210.4,400.3 209.7,396.6 209.6,394.0 209.7,391.4 210.1,388.7 210.6,386.2 211.6,382.7 212.7,379.3 214.3,374.4 216.4,368.2 217.9,364.3 219.8,361.1 222.0,358.5 224.4,356.5 228.3,354.4 233.1,352.8 257.5,346.6 289.9,338.4 295.2,337.0 298.7,335.7 302.4,334.1 306.8,332.1 311.6,329.7"/>
    <polyline points="258.5,311.8 259.0,313.3 259.7,318.0 261.3,328.9 261.9,332.8"/>
    <polyline points="259.9,159.1 261.2,157.9 262.1,157.0 263.2,155.9 263.9,155.1 264.9,153.8 265.6,152.8 266.4,151.6 267.7,149.3"/>
    <polyline points="311.6,329.7 316.4,327.4 319.6,325.6 323.0,323.5 352.9,301.2 356.3,298.7 362.0,294.4 366.6,291.7 375.6,287.4 385.9,282.8 392.5,279.9 397.9,278.1 403.7,277.0 409.0,277.0 416.1,278.1 422.0,279.7 425.7,281.3 429.3,283.6 431.8,285.8 434.7,288.5 436.7,291.2 437.9,293.8 438.7,296.8 439.3,299.9 439.1,302.6 438.5,305.1"/>
    <polyline points="438.5,305.1 437.2,309.7 436.0,313.8 434.7,318.1 433.6,321.2 432.2,324.7 430.5,328.9 429.6,331.3 428.8,333.6 428.4,334.9 427.5,338.7 427.2,339.8 426.9,341.0 426.6,341.9 426.3,342.7 425.8,343.6 425.4,344.3 424.6,345.5 423.8,347.2 423.4,348.2"/>
    <polyline points="423.4,348.2 422.1,352.3 420.0,359.0 418.5,363.7 417.3,367.8 416.4,370.9 415.6,374.0 415.0,377.7 414.5,381.3 411.8,408.3 411.5,412.1 411.3,412.9 411.1,413.7 410.9,414.6 410.7,415.4 410.4,416.3 410.2,417.2 410.0,418.2 409.9,419.0 410.0,420.3 410.4,422.1 410.9,423.8 412.3,426.3 413.8,428.2 415.3,429.8 417.3,431.2 419.7,432.4 421.9,433.1 424.5,433.7 426.9,434.0 429.4,434.1 431.4,433.9 432.6,433.8 433.8,433.6 434.8,433.3 435.6,433.1 440.6,431.5 445.7,430.0 447.0,429.6"/>
    <polyline points="241.6,176.0 245.3,172.9 249.3,169.4 252.0,167.0"/>
    <polyline points="269.6,389.5 268.9,387.3"/>
    <polyline points="268.7,385.6 268.8,383.2"/>
    <polyline points="261.3,328.9 262.0,330.9"/>
    <polyline points="261.1,331.0 261.3,328.9 261.5,327.1"/>
    <polyline points="251.7,166.7 249.3,169.4"/>
    <polyline points="461.5,435.6 460.4,435.3 453.3,433.5 452.1,433.2 451.3,433.1 450.5,432.9 449.8,432.8 449.1,432.7 448.4,432.8 447.8,432.8 447.3,432.9"/>
    <polyline points="460.2,435.6 453.2,433.9 452.6,433.7 451.9,433.6 451.2,433.5 450.6,433.5 450.0,433.5 449.4,433.6 448.9,433.7 448.4,433.8 448.1,433.9 447.8,434.0"/>
    <polyline points="-43.6,564.3 -43.0,561.3 -42.6,559.9 -41.7,558.1 -40.4,556.6 -39.2,555.9 -37.6,555.2 -35.9,554.7 -33.1,554.1 -29.5,553.4 -15.9,550.5 -9.9,549.5 -4.8,548.8 -0.4,548.3 8.0,547.2 42.0,543.3 42.1,543.3 46.4,542.8 49.1,542.5 52.3,541.9 55.6,541.1 58.4,540.0 65.6,537.2 79.1,531.9 84.0,530.0 92.4,526.8 93.2,526.4 109.4,520.1 116.6,517.6 121.8,515.9 126.5,514.7 132.0,513.4 138.4,512.3 145.2,511.2 147.8,510.8 151.8,510.2 155.7,509.7 157.3,509.5 167.4,508.1 171.6,507.2 178.1,505.5 199.4,500.1 205.9,498.6 208.8,498.1 211.9,497.5 215.0,496.9 218.0,496.2 222.0,495.2 228.6,493.5 235.2,491.8 238.2,491.1 276.3,484.5 279.5,483.9 283.1,483.5 285.9,483.5 294.6,484.1 297.4,484.4 299.9,484.6 302.5,485.1 305.5,485.8 309.0,486.5 312.1,487.3 329.6,491.4 332.6,492.0 334.3,492.3 336.1,492.5 339.3,492.6 342.3,492.7 344.2,492.6 346.8,492.2 349.2,491.7 350.5,491.2 353.5,489.8 355.9,488.8 357.5,487.8 359.5,486.4 360.9,485.0 364.6,481.6 366.4,479.3 368.2,477.0 373.2,472.0 376.0,469.9 379.6,467.6 394.0,458.3 396.5,456.5 407.5,449.1 417.0,443.2 420.3,441.7 423.1,440.6 432.7,437.8 434.5,437.2 435.1,437.1 435.6,436.9 436.4,436.6 438.8,435.6 439.4,435.3 440.0,435.1 440.6,434.9 443.7,434.0"/>
    <polyline points="249.8,167.0 251.0,166.2"/>
    <polyline points="147.8,510.8 145.2,511.4"/>
    <polyline points="447.3,432.9 446.7,433.1 443.7,434.0"/>
    <polyline points="447.8,434.0 447.2,434.2 444.2,435.1"/>
    <polyline points="253.6,163.8 255.2,162.4 256.2,161.5 257.2,160.7 259.0,159.2 259.5,158.7"/>
    <polyline points="254.0,164.1 255.7,162.7 256.6,161.9 257.7,161.0 259.4,159.5 259.9,159.1"/>
    <polyline points="260.3,159.3 259.7,159.8 258.0,161.2 257.0,162.1 256.0,163.0 254.4,164.4 254.4,164.4"/>
    <polyline points="250.9,166.1 253.6,163.8"/>
    <polyline points="252.2,165.7 254.0,164.1"/>
    <polyline points="253.1,165.4 254.2,164.2"/>
    <polyline points="254.4,164.4 254.4,164.4 253.1,165.4 251.7,166.7"/>
    <polyline points="240.4,175.1 244.1,172.0 249.8,167.0 250.9,166.1"/>
    <polyline points="251.7,166.7 248.9,169.1 244.9,172.6 241.3,175.8"/>
    <polyline points="265.6,363.0 263.0,343.1 262.3,338.2 261.4,332.8 261.1,331.0 258.9,316.4 258.8,315.6 258.3,313.2 257.5,311.3"/>
    <polyline points="258.8,311.0 259.4,312.7 260.0,316.6 261.5,327.1 261.7,328.7 262.0,330.9 262.3,333.2 262.8,338.2 263.4,343.1 266.0,363.0"/>
    <polyline points="270.4,139.1 270.7,136.1 271.2,132.6"/>
    <polyline points="271.5,132.6 271.1,136.1 270.8,139.1"/>
    <polyline points="273.7,111.3 273.8,109.4 273.8,107.9 273.8,106.8 273.7,104.7"/>
    <polyline points="274.1,104.7 274.2,106.8 274.2,107.9 274.2,109.4 274.0,111.3"/>
    <polyline points="688.3,309.2 687.9,308.0 687.5,306.7"/>
    <polyline points="687.9,309.3 687.9,308.0 687.9,306.7"/>
    <polyline points="681.1,273.6 681.9,277.9 682.0,278.6 682.2,279.7 683.1,284.3 683.6,286.2 684.0,288.2 685.0,292.1 685.9,295.3 686.1,296.5 686.4,297.5 686.6,298.6"/>
    <polyline points="686.2,298.6 686.0,297.6 685.8,296.5 685.5,295.4 684.7,292.1 683.7,288.2 683.2,286.3 682.8,284.3 681.9,279.7 681.6,277.9 680.8,273.7"/>
  </g>

  <!-- 지하철 역 -->
  <g>
    <circle cx="270.3" cy="395.5" r="3" fill="#dc2626" stroke="#fff" stroke-width="1"/>
    <circle cx="215.7" cy="374.7" r="3" fill="#dc2626" stroke="#fff" stroke-width="1"/>
    <circle cx="357.3" cy="299.5" r="3" fill="#dc2626" stroke="#fff" stroke-width="1"/>
    <circle cx="434.6" cy="313.6" r="3" fill="#dc2626" stroke="#fff" stroke-width="1"/>
    <circle cx="421.6" cy="352.2" r="3" fill="#dc2626" stroke="#fff" stroke-width="1"/>
    <circle cx="214.9" cy="291.8" r="3" fill="#dc2626" stroke="#fff" stroke-width="1"/>
    <circle cx="151.8" cy="510.4" r="3" fill="#dc2626" stroke="#fff" stroke-width="1"/>
    <circle cx="466.0" cy="398.3" r="3" fill="#dc2626" stroke="#fff" stroke-width="1"/>
    <circle cx="379.7" cy="467.7" r="3" fill="#dc2626" stroke="#fff" stroke-width="1"/>
    <circle cx="294.6" cy="484.3" r="3" fill="#dc2626" stroke="#fff" stroke-width="1"/>
    <circle cx="263.2" cy="78.0" r="3" fill="#dc2626" stroke="#fff" stroke-width="1"/>
    <circle cx="411.3" cy="408.3" r="3" fill="#dc2626" stroke="#fff" stroke-width="1"/>
    <circle cx="516.2" cy="363.6" r="3" fill="#dc2626" stroke="#fff" stroke-width="1"/>
    <circle cx="184.6" cy="211.7" r="3" fill="#dc2626" stroke="#fff" stroke-width="1"/>
    <circle cx="244.5" cy="172.3" r="3" fill="#dc2626" stroke="#fff" stroke-width="1"/>
    <circle cx="175.4" cy="246.8" r="3" fill="#dc2626" stroke="#fff" stroke-width="1"/>
    <circle cx="262.5" cy="338.3" r="3" fill="#dc2626" stroke="#fff" stroke-width="1"/>
    <circle cx="585.6" cy="326.8" r="3" fill="#dc2626" stroke="#fff" stroke-width="1"/>
    <circle cx="681.0" cy="273.7" r="3" fill="#dc2626" stroke="#fff" stroke-width="1"/>
    <circle cx="312.4" cy="330.7" r="3" fill="#dc2626" stroke="#fff" stroke-width="1"/>
    <circle cx="228.7" cy="493.6" r="3" fill="#dc2626" stroke="#fff" stroke-width="1"/>
    <circle cx="443.9" cy="434.5" r="3" fill="#dc2626" stroke="#fff" stroke-width="1"/>
    <circle cx="440.9" cy="432.0" r="3" fill="#dc2626" stroke="#fff" stroke-width="1"/>
  </g>
</svg>