<?xml version="1.0" encoding="UTF-8"?>
<svg width="800" height="600" xmlns="http://www.w3.org/2000/svg">
  <title>Osaka Subway Map</title>
  <rect width="100%" height="100%" fill="#f8f9fa"/>
  <g stroke="#2563eb" stroke-width="3" fill="none">
    <polyline points="529.4,488.6 529.9,485.9 531.1,480.2 531.7,477.3 532.5,473.8 532.8,472.5 533.1,471.7 534.9,463.9 536.6,455.4 538.3,446.8 538.8,444.5 539.7,438.4 539.9,436.8 539.9,435.4 539.6,434.2 538.9,433.3 537.8,432.6 537.1,432.3 535.5,431.8 528.8,430.1 522.1,428.5"/>
    <polyline points="801.9,-56.8 797.2,-52.7 787.3,-44.4 787.0,-44.2 786.0,-43.3 776.9,-35.9 776.4,-35.4 775.2,-34.4 763.9,-24.9 761.4,-22.7 749.3,-12.6 738.6,-3.5 735.1,-0.6 732.8,1.2 725.7,7.1 722.5,9.9 716.4,14.9 710.3,20.0 701.2,26.6 695.9,30.3 691.7,33.4 686.8,37.0 683.2,39.8 681.5,41.3 679.8,42.8 678.5,44.9 676.2,50.9 674.0,56.7 672.0,63.0 670.8,66.4 663.2,92.5 660.9,100.8 660.7,101.6 660.2,102.7 659.4,103.3 656.8,104.6 650.6,107.5 647.4,109.1 645.4,110.2 643.5,111.7 642.0,113.2 638.8,116.6 634.2,121.9 632.8,123.5 628.0,129.1 625.0,132.4 623.1,134.2 621.4,135.8 620.6,136.2 619.7,136.5 618.9,136.6 616.8,136.4 607.1,135.9 606.6,135.9 606.3,135.9 605.0,135.8 596.6,135.3 596.1,135.3 595.8,135.3 594.6,135.2 591.0,135.0 578.4,134.4 577.4,134.3 577.4,134.3 577.1,134.3 576.8,134.2 574.9,134.1 571.3,134.1 568.9,134.4 568.0,134.5 566.6,134.7 564.5,135.0 563.6,135.2 558.8,135.9 558.3,136.0 556.9,136.2 553.1,136.8 548.7,137.5 544.9,138.1 544.8,138.2 543.8,138.2 542.5,138.2 542.4,138.2 542.3,138.2 542.2,138.2 542.1,138.1 542.0,138.1 541.6,138.0 540.1,137.5 536.7,136.3 535.5,135.8 526.3,132.8 517.7,130.0 514.2,128.9"/>
    <polyline points="444.8,406.5 444.6,409.1 443.8,417.2 443.3,420.0 442.7,422.7 440.7,432.7 440.6,433.4 440.5,433.6 440.1,436.5 437.5,447.4 434.7,457.2 433.8,461.1 431.9,467.7 430.8,472.2 428.6,480.4 428.1,482.7 427.0,486.8 423.0,498.2 419.0,508.9 417.0,515.3 416.3,518.0 415.7,520.2 415.1,523.0 414.0,528.0 412.9,532.4 412.5,534.0 411.5,535.8 410.7,536.8 409.3,537.9 407.7,539.0 406.4,539.8 404.6,540.1 399.1,540.0 386.8,539.9 385.3,540.0 367.8,543.4 364.4,544.0 360.6,544.7 350.7,546.5 349.1,547.7 348.1,548.7 346.8,551.2 345.0,554.8 342.2,560.9 340.2,564.9 339.4,566.7 338.9,568.5 338.3,571.0 338.1,573.0 337.9,576.8 337.8,579.7 337.5,586.1 337.3,590.9 336.8,598.5 336.8,598.7 336.7,602.6"/>
    <polyline points="342.2,288.5 346.2,285.1 350.3,281.8 355.7,277.2 357.0,276.1 359.3,274.2 359.9,273.7 360.6,273.2 361.1,272.9 362.0,272.3 363.0,271.9 363.9,271.5 364.9,271.2 365.5,271.0 383.8,266.2"/>
    <polyline points="656.4,266.7 645.9,265.3 640.8,264.5 635.3,263.8 632.3,263.4 628.8,263.2 624.9,263.2 615.9,263.1 613.2,263.1 605.8,262.8 602.1,262.8 596.1,262.8"/>
    <polyline points="54.0,449.7 62.4,446.6 63.7,446.1"/>
    <polyline points="394.4,262.0 393.1,258.2 391.7,253.7 390.0,249.6 389.1,247.7 388.7,246.8 388.3,246.4 387.8,246.1 386.9,245.7 386.3,245.5 382.9,244.6 378.9,243.4 375.1,242.3 372.3,241.4 370.6,240.6 368.4,239.4 367.7,239.1 367.1,238.7 367.1,238.6 366.8,238.5 359.6,234.1 355.5,231.7 354.7,231.1 353.7,230.3 353.2,229.7 350.1,225.0"/>
    <polyline points="702.7,356.4 703.2,351.6 703.5,346.5 703.7,344.4 703.8,342.2 704.4,336.5 705.0,331.4 705.1,329.8 704.9,328.0 704.1,326.6 703.7,326.1 703.0,325.4 701.8,325.0 701.1,324.9 700.3,324.8 698.9,324.7 694.1,324.9"/>
    <polyline points="688.7,444.8 689.0,443.7 689.2,442.9 689.8,438.7 691.1,430.1 692.5,422.3 693.1,418.7 694.7,409.5 696.2,400.5 697.2,393.4"/>
    <polyline points="529.8,332.7 526.6,332.2 524.5,331.8 522.6,331.5 518.4,331.2 512.7,331.0 504.4,330.7 498.6,330.4 493.6,330.3 489.0,330.1 483.2,330.0"/>
    <polyline points="502.2,135.1 502.1,130.4"/>
    <polyline points="470.7,415.4 471.8,411.8 475.6,399.6 477.2,394.4 478.8,389.3"/>
    <polyline points="442.3,467.4 442.5,466.5 445.4,453.7 446.0,451.4 446.7,448.9 447.3,447.4 448.3,445.7 449.1,444.5 451.5,441.7 453.5,439.7 455.2,438.5 457.0,437.2 458.7,436.1 460.6,434.9 463.8,433.0 463.9,432.9 465.8,431.6 466.1,431.2 466.5,430.8 468.1,424.1 470.5,416.0"/>
    <polyline points="663.2,-104.2 662.9,-96.4 662.5,-87.9 662.4,-85.0 662.2,-84.0 661.9,-83.2 661.3,-82.4 660.8,-81.8 660.2,-81.3 659.0,-80.3 657.1,-79.4 656.1,-78.9 655.0,-78.5 654.5,-78.2 654.2,-77.8 653.9,-77.2 653.8,-76.4 653.7,-75.7 651.3,-67.8 647.2,-53.3 643.0,-38.7 642.8,-37.3 642.7,-36.8 642.8,-36.1 643.0,-35.8 643.3,-35.4 643.8,-35.0 648.0,-32.2 648.9,-31.6 651.2,-29.2 656.1,-24.2 660.6,-19.5 662.9,-17.0 665.9,-13.6 669.9,-9.0 676.3,-1.5 686.5,10.6 693.4,18.8 696.8,22.9 698.8,25.5 700.6,27.7 701.7,29.0 702.7,29.9 710.9,37.9 716.4,43.3 720.4,47.3 721.5,49.0 722.3,50.1 722.8,51.0 723.1,51.9 723.3,53.0 723.5,54.1 723.5,55.4 723.5,57.1 723.2,59.9 723.2,63.7 722.9,72.1 722.7,77.6 722.4,85.6 721.9,102.1 721.8,103.5 721.6,103.9 721.5,104.0 721.4,104.2 720.9,104.6 720.5,104.7 720.0,104.9 719.3,105.0 718.9,105.1 718.4,105.1 711.7,105.0 696.7,104.6 688.7,104.4 679.6,104.1 662.2,103.6 661.8,103.6 661.5,103.6 661.0,103.8 660.7,104.0 660.3,104.2 660.1,104.4 659.8,104.8 659.6,105.2 659.6,106.1 659.6,106.5 659.7,115.0 659.6,120.2 659.5,125.2 659.4,135.3 659.3,142.6 659.2,151.2 659.1,162.7 659.0,171.7 658.9,175.7 658.8,185.1 658.7,189.4 658.7,193.7 658.5,202.3 658.5,206.7 658.4,208.8 658.2,211.0 657.8,213.8 657.2,218.9 656.6,224.6 656.0,230.4 655.1,236.8 654.1,244.0 653.1,251.1 652.1,259.0 651.5,262.9 651.3,264.7 651.0,267.6 649.0,283.4 647.8,292.0 647.0,298.2 646.3,303.4 645.6,308.4 644.7,315.6"/>
    <polyline points="149.4,398.4 156.5,395.5 158.3,394.6 160.5,393.7 162.5,392.8 163.6,392.4"/>
    <polyline points="233.7,352.3 238.9,343.5 239.1,343.2 239.4,342.8 239.6,342.5 239.9,342.1 240.2,341.8 240.5,341.5 240.7,341.3 240.9,341.1 241.3,340.9 241.7,340.6 242.2,340.3 242.7,340.1 243.5,339.7 244.7,339.3 272.9,329.2 277.5,327.5 285.3,324.7 288.1,323.7"/>
    <polyline points="170.4,389.9 171.4,389.4 172.3,388.9"/>
    <polyline points="163.8,392.8 161.9,393.5 160.7,394.0 158.5,394.9 157.6,395.3 156.6,395.6 149.5,398.6"/>
    <polyline points="288.2,323.8 285.4,324.8 277.6,327.7 273.0,329.3 244.7,339.4 243.6,339.9 242.8,340.2 242.3,340.4 241.8,340.7 241.4,341.0 241.0,341.3 240.8,341.5 240.6,341.6 240.4,341.9 240.0,342.2 239.8,342.5 239.5,342.9 239.3,343.2 239.1,343.6 233.8,352.4"/>
    <polyline points="611.7,228.4 611.7,235.1 611.7,235.6 611.8,236.0 611.9,236.6 612.2,237.5 612.3,237.8"/>
    <polyline points="616.4,255.8 616.4,254.8 616.4,252.3 616.4,251.7 616.3,251.0 615.9,248.5 615.4,246.0 615.1,244.4 615.0,244.0 614.9,243.6 614.8,243.1 614.5,242.6"/>
    <polyline points="612.1,228.3 612.1,235.3 612.1,235.7 612.2,236.1 612.4,236.6 612.8,237.6 613.1,238.6"/>
    <polyline points="612.9,226.2 612.9,230.8 612.9,235.9 612.9,237.0 612.9,237.3 612.9,237.6 613.0,238.1 613.1,238.6 613.2,238.8 613.8,240.2"/>
    <polyline points="613.1,226.2 613.1,231.3 613.1,235.4 613.1,235.7 613.1,236.0 613.3,237.1 613.5,238.1"/>
    <polyline points="616.5,251.0 616.5,250.4 616.5,247.1"/>
    <polyline points="616.7,254.7 616.7,251.9 616.7,251.6 616.5,251.0 616.4,250.4 616.2,249.1 616.1,248.4 615.6,246.0 615.3,244.3 615.1,243.4 615.1,243.1 614.8,241.5 614.8,240.6 614.7,240.0"/>
    <polyline points="612.7,226.2 612.7,230.4 612.7,232.0 612.7,235.1 612.7,236.3 612.7,236.8 612.9,237.6"/>
    <polyline points="614.0,241.0 613.7,239.4 613.7,238.9 613.7,238.5 613.7,237.6 613.7,236.3 613.7,231.3 613.7,226.3"/>
    <polyline points="613.7,239.4 613.5,238.1 613.4,237.8 613.4,237.5 613.4,237.0 613.5,233.4 613.5,226.3"/>
    <polyline points="612.2,247.2 612.2,242.7 612.2,241.0 612.2,240.3 612.2,239.7 612.1,239.0 611.7,237.9 611.6,237.4 611.6,237.2 611.5,236.9 611.5,235.4"/>
    <polyline points="614.4,242.0 614.2,240.9 614.0,239.9 614.0,239.7 613.9,239.4 613.9,239.1 614.0,238.4 614.0,235.5 614.0,230.4 614.0,226.3"/>
    <polyline points="616.2,246.6 616.2,245.9 616.2,245.6 616.2,245.3 616.3,244.9"/>
    <polyline points="617.1,245.4 617.2,245.1 617.8,244.1 618.1,243.3 618.1,242.9"/>
    <polyline points="614.5,242.6 614.4,242.0 614.4,241.5 614.4,241.1 614.4,239.3 614.4,237.3 614.4,235.9 614.4,235.0 614.4,232.5 614.4,226.3"/>
    <polyline points="617.0,245.4 617.6,244.2 617.8,243.6 617.8,242.8"/>
    <polyline points="613.1,247.3 613.1,243.1 613.1,242.4 613.1,241.9 613.1,241.3 613.1,240.3 613.1,240.1 613.1,239.9 613.1,239.7 613.0,239.5 612.9,239.3 612.6,238.3"/>
    <polyline points="614.2,240.9 614.2,240.6 614.2,240.2 614.2,239.4 614.2,238.4 614.2,236.4 614.2,232.1 614.2,226.3"/>
    <polyline points="613.9,246.6 613.9,246.2 614.0,245.9 614.3,244.4"/>
    <polyline points="612.8,247.3 612.8,243.1 612.8,241.9 612.8,241.4 612.8,240.3 612.8,239.8 612.8,239.4 612.7,238.9 612.6,238.6 612.6,238.3 612.3,237.8"/>
    <polyline points="613.6,246.6 613.6,246.4 613.7,245.9 613.8,245.5 614.0,245.1 614.3,244.4 614.3,244.1 614.4,243.8 614.4,243.7 614.5,243.4 614.1,241.2 614.0,241.0"/>
    <polyline points="616.0,246.6 615.8,245.4 615.6,244.9 615.6,244.3 615.6,244.1 615.6,243.4 615.4,242.8 615.4,242.0"/>
    <polyline points="616.2,247.8 616.1,247.4 616.0,246.6 616.0,244.9"/>
    <polyline points="614.8,226.3 614.8,227.9 614.8,228.6 614.8,230.6 614.8,233.3 614.8,233.7 614.7,234.1 614.5,234.9"/>
    <polyline points="614.7,246.8 614.7,246.2 614.8,245.7 614.8,245.2 614.8,244.8 614.7,244.1 614.7,243.7 614.8,243.1 614.8,241.5"/>
    <polyline points="616.2,255.8 616.2,253.2 616.2,252.4 616.2,251.7 616.1,250.9 615.9,249.9 615.6,248.3 615.4,247.1 615.1,245.5 614.8,244.1 614.7,243.7 614.5,242.6"/>
    <polyline points="614.3,246.9 614.4,244.9 614.4,244.4"/>
    <polyline points="614.8,244.8 614.6,243.8 614.5,243.4"/>
    <polyline points="616.2,249.1 616.2,248.6 616.2,248.2 616.2,248.0 616.2,247.8 616.2,247.0 616.2,246.6 616.4,245.5 616.5,245.3 616.6,245.0"/>
    <polyline points="612.4,236.6 612.1,236.0 612.0,235.8 611.9,235.5 611.9,235.2 611.9,234.8 611.9,233.8 611.9,229.9 611.9,228.5"/>
    <polyline points="612.5,236.6 612.4,235.7 612.3,235.4 612.3,235.1 612.3,228.6 612.3,228.1"/>
  </g>
  <g>
    <circle cx="361.2" cy="336.8" r="4" fill="#dc2626"/>
    <circle cx="482.8" cy="291.5" r="4" fill="#dc2626"/>
    <circle cx="598.1" cy="542.3" r="4" fill="#dc2626"/>
    <circle cx="565.1" cy="508.9" r="4" fill="#dc2626"/>
    <circle cx="507.8" cy="444.9" r="4" fill="#dc2626"/>
    <circle cx="514.6" cy="412.5" r="4" fill="#dc2626"/>
    <circle cx="530.3" cy="288.8" r="4" fill="#dc2626"/>
    <circle cx="517.7" cy="368.6" r="4" fill="#dc2626"/>
    <circle cx="531.3" cy="258.6" r="4" fill="#dc2626"/>
    <circle cx="531.1" cy="224.2" r="4" fill="#dc2626"/>
    <circle cx="454.2" cy="173.4" r="4" fill="#dc2626"/>
    <circle cx="479.8" cy="142.4" r="4" fill="#dc2626"/>
    <circle cx="568.9" cy="134.2" r="4" fill="#dc2626"/>
    <circle cx="166.3" cy="391.4" r="4" fill="#dc2626"/>
    <circle cx="459.2" cy="215.2" r="4" fill="#dc2626"/>
    <circle cx="229.7" cy="359.1" r="4" fill="#dc2626"/>
    <circle cx="444.5" cy="333.5" r="4" fill="#dc2626"/>
    <circle cx="68.6" cy="444.5" r="4" fill="#dc2626"/>
    <circle cx="288.1" cy="323.7" r="4" fill="#dc2626"/>
    <circle cx="338.5" cy="291.5" r="4" fill="#dc2626"/>
    <circle cx="589.4" cy="187.6" r="4" fill="#dc2626"/>
    <circle cx="508.8" cy="291.0" r="4" fill="#dc2626"/>
    <circle cx="430.7" cy="290.7" r="4" fill="#dc2626"/>
    <circle cx="584.8" cy="211.6" r="4" fill="#dc2626"/>
    <circle cx="718.7" cy="166.9" r="4" fill="#dc2626"/>
    <circle cx="668.5" cy="173.6" r="4" fill="#dc2626"/>
    <circle cx="589.2" cy="294.8" r="4" fill="#dc2626"/>
    <circle cx="364.7" cy="309.6" r="4" fill="#dc2626"/>
    <circle cx="602.0" cy="259.4" r="4" fill="#dc2626"/>
    <circle cx="397.4" cy="289.7" r="4" fill="#dc2626"/>
    <circle cx="451.5" cy="291.3" r="4" fill="#dc2626"/>
    <circle cx="534.9" cy="288.2" r="4" fill="#dc2626"/>
    <circle cx="440.0" cy="436.5" r="4" fill="#dc2626"/>
    <circle cx="521.8" cy="542.7" r="4" fill="#dc2626"/>
    <circle cx="529.5" cy="488.7" r="4" fill="#dc2626"/>
    <circle cx="445.6" cy="380.6" r="4" fill="#dc2626"/>
    <circle cx="456.2" cy="334.3" r="4" fill="#dc2626"/>
    <circle cx="444.4" cy="160.2" r="4" fill="#dc2626"/>
    <circle cx="441.1" cy="124.6" r="4" fill="#dc2626"/>
    <circle cx="448.9" cy="51.7" r="4" fill="#dc2626"/>
    <circle cx="456.6" cy="295.2" r="4" fill="#dc2626"/>
    <circle cx="475.0" cy="415.5" r="4" fill="#dc2626"/>
    <circle cx="522.3" cy="428.1" r="4" fill="#dc2626"/>
    <circle cx="458.0" cy="253.1" r="4" fill="#dc2626"/>
    <circle cx="503.5" cy="187.5" r="4" fill="#dc2626"/>
    <circle cx="504.1" cy="187.8" r="4" fill="#dc2626"/>
    <circle cx="435.9" cy="178.6" r="4" fill="#dc2626"/>
    <circle cx="438.9" cy="215.9" r="4" fill="#dc2626"/>
    <circle cx="441.4" cy="256.7" r="4" fill="#dc2626"/>
    <circle cx="440.7" cy="297.5" r="4" fill="#dc2626"/>
    <circle cx="502.5" cy="130.3" r="4" fill="#dc2626"/>
    <circle cx="502.8" cy="155.3" r="4" fill="#dc2626"/>
    <circle cx="484.0" cy="217.4" r="4" fill="#dc2626"/>
    <circle cx="483.5" cy="257.4" r="4" fill="#dc2626"/>
    <circle cx="482.1" cy="331.7" r="4" fill="#dc2626"/>
    <circle cx="480.0" cy="383.7" r="4" fill="#dc2626"/>
    <circle cx="470.7" cy="416.1" r="4" fill="#dc2626"/>
    <circle cx="442.4" cy="467.4" r="4" fill="#dc2626"/>
    <circle cx="483.3" cy="329.8" r="4" fill="#dc2626"/>
    <circle cx="697.3" cy="393.4" r="4" fill="#dc2626"/>
    <circle cx="702.8" cy="356.4" r="4" fill="#dc2626"/>
    <circle cx="694.1" cy="324.8" r="4" fill="#dc2626"/>
    <circle cx="648.7" cy="322.4" r="4" fill="#dc2626"/>
    <circle cx="583.0" cy="335.2" r="4" fill="#dc2626"/>
    <circle cx="524.8" cy="330.0" r="4" fill="#dc2626"/>
    <circle cx="529.9" cy="332.4" r="4" fill="#dc2626"/>
    <circle cx="412.2" cy="324.3" r="4" fill="#dc2626"/>
    <circle cx="397.8" cy="298.2" r="4" fill="#dc2626"/>
    <circle cx="394.5" cy="262.0" r="4" fill="#dc2626"/>
    <circle cx="350.2" cy="225.0" r="4" fill="#dc2626"/>
    <circle cx="344.4" cy="202.5" r="4" fill="#dc2626"/>
    <circle cx="688.9" cy="444.9" r="4" fill="#dc2626"/>
    <circle cx="402.6" cy="263.3" r="4" fill="#dc2626"/>
    <circle cx="449.4" cy="260.2" r="4" fill="#dc2626"/>
    <circle cx="485.6" cy="260.9" r="4" fill="#dc2626"/>
    <circle cx="596.1" cy="262.7" r="4" fill="#dc2626"/>
    <circle cx="656.4" cy="266.6" r="4" fill="#dc2626"/>
    <circle cx="708.0" cy="273.8" r="4" fill="#dc2626"/>
    <circle cx="507.2" cy="126.4" r="4" fill="#dc2626"/>
    <circle cx="651.5" cy="262.9" r="4" fill="#dc2626"/>
    <circle cx="658.7" cy="169.0" r="4" fill="#dc2626"/>
    <circle cx="412.8" cy="532.3" r="4" fill="#dc2626"/>
    <circle cx="364.4" cy="543.9" r="4" fill="#dc2626"/>
    <circle cx="671.9" cy="63.0" r="4" fill="#dc2626"/>
    <circle cx="656.8" cy="104.5" r="4" fill="#dc2626"/>
    <circle cx="624.8" cy="132.3" r="4" fill="#dc2626"/>
    <circle cx="534.3" cy="474.5" r="4" fill="#dc2626"/>
    <circle cx="669.2" cy="543.9" r="4" fill="#dc2626"/>
    <circle cx="711.7" cy="104.9" r="4" fill="#dc2626"/>
    <circle cx="722.7" cy="72.1" r="4" fill="#dc2626"/>
    <circle cx="659.5" cy="115.0" r="4" fill="#dc2626"/>
    <circle cx="658.3" cy="208.8" r="4" fill="#dc2626"/>
    <circle cx="531.9" cy="262.8" r="4" fill="#dc2626"/>
    <circle cx="453.8" cy="329.2" r="4" fill="#dc2626"/>
  </g>
</svg>