<?xml version="1.0" encoding="UTF-8"?>
<svg width="800" height="600" viewBox="0 0 800 600" 
     xmlns="http://www.w3.org/2000/svg">
  <title>Oslo Subway Map</title>
  <rect width="100%" height="100%" fill="#f8f9fa"/>

  <!-- 지하철 선로 -->
  <g id="subway-lines" stroke="#2563eb" stroke-width="3" fill="none">
    <polyline points="273.2,184.7 272.7,184.5 272.4,184.4 271.8,184.0 271.1,183.7 270.2,183.3 269.9,183.1 269.6,183.0 269.2,182.8 268.8,182.7 268.0,182.4 265.3,181.5 262.0,180.4 256.4,178.6 253.6,177.7 252.8,177.5 251.9,177.2 251.0,177.0 250.2,176.9 247.4,176.3 244.5,175.7 239.8,174.8 238.7,174.5 237.6,174.2 236.4,173.9 235.6,173.6 234.5,173.3 233.4,172.9 231.2,172.1 227.8,170.8 225.3,169.8 222.8,168.8 219.9,167.7 216.6,166.5 212.7,165.0 205.4,162.0 203.6,161.3 202.2,160.7 200.8,160.2 199.6,159.8 198.6,159.4 197.2,159.0 196.1,158.6 195.2,158.3" opacity="0.8"/>
    <polyline points="582.4,162.7 581.2,158.7 580.3,155.6 579.9,154.2 579.5,152.8 579.1,151.2 578.7,149.8" opacity="0.8"/>
    <polyline points="672.9,323.4 672.8,323.1 671.8,320.7 671.4,319.9 671.1,319.2 670.8,318.7 670.3,318.0 669.9,317.5 669.5,317.0 668.9,316.4 668.3,315.9 667.7,315.3 667.1,314.9 666.5,314.5 665.9,314.1 665.4,313.9 664.9,313.7 664.5,313.5" opacity="0.8"/>
    <polyline points="302.6,186.7 302.2,186.3 301.8,186.0 301.4,185.7 301.1,185.4 300.7,185.2 300.3,185.0 299.8,184.7 299.3,184.5" opacity="0.8"/>
    <polyline points="302.5,188.2 302.9,188.5 304.1,189.4 305.4,190.4 306.3,191.1 307.1,191.8 307.9,192.6 308.9,193.6 309.8,194.5 310.5,195.2 311.4,196.2 311.5,196.2 312.0,196.7 313.1,197.8 314.2,198.9 314.9,199.7 315.4,200.2 316.2,201.1 316.3,201.3 317.1,202.2 317.9,202.9 318.7,203.8 320.1,205.1 321.0,205.9 322.0,206.9" opacity="0.8"/>
    <polyline points="411.3,80.5 412.3,79.8 413.1,79.3 414.3,78.7 415.5,78.1 416.9,77.5 418.3,77.0 420.2,76.5 422.1,76.1 424.0,75.7 425.8,75.5 428.2,75.3 430.5,75.1 432.7,75.2 435.3,75.3 449.8,76.7 497.4,80.8 502.0,81.2 505.1,81.7 512.1,83.3 519.1,84.8 521.3,85.2 532.3,88.2 545.9,92.0 554.0,94.6 559.0,96.9 562.5,99.5 563.7,101.6 566.3,109.4" opacity="0.8"/>
    <polyline points="363.4,113.9 364.2,113.6 365.2,113.3 366.0,113.0 366.9,112.7 367.8,112.3 368.6,111.9 369.4,111.6 370.1,111.2 370.7,111.0 371.4,110.6 372.2,110.2 373.3,109.6 374.2,109.1 379.9,105.8 380.8,105.3 381.5,104.8 382.2,104.4 382.8,104.0 383.5,103.5 384.1,103.0 384.7,102.6 385.3,102.1 387.0,100.8 390.3,98.1 392.8,96.0 394.6,94.5 399.5,90.5 401.9,88.6 402.7,87.9" opacity="0.8"/>
    <polyline points="169.0,145.2 168.5,145.1 168.0,145.0 167.6,144.9 167.2,144.8 166.6,144.7 166.0,144.6 165.5,144.5 165.1,144.4 164.8,144.4 164.5,144.4 164.3,144.3 164.1,144.3 163.9,144.3 163.6,144.3 163.3,144.3 163.0,144.4 162.7,144.4 162.5,144.4 162.3,144.5 162.0,144.5" opacity="0.8"/>
    <polyline points="162.0,144.5 161.7,144.6 161.4,144.7 161.2,144.8" opacity="0.8"/>
    <polyline points="675.6,515.6 675.2,514.8 674.8,513.9" opacity="0.8"/>
    <polyline points="654.6,475.6 654.6,475.2 654.5,474.8 654.5,474.4 654.5,474.0 654.6,473.6 654.6,473.2 654.7,472.7 654.8,472.3 654.9,472.1 654.9,471.9 655.0,471.5" opacity="0.8"/>
    <polyline points="575.2,136.7 575.0,136.1 574.6,135.1" opacity="0.8"/>
    <polyline points="578.0,150.0 578.4,151.6 578.7,153.3 579.1,154.5 579.4,155.7 580.4,158.9 581.6,163.2" opacity="0.8"/>
    <polyline points="569.9,121.2 570.1,121.8 570.2,122.2 570.4,122.5 571.0,123.8 571.2,124.4 571.3,124.8 571.4,125.2" opacity="0.8"/>
    <polyline points="573.3,131.7 573.5,132.1 573.7,132.6 573.9,133.3 574.1,133.6 574.2,133.9 574.4,134.5" opacity="0.8"/>
    <polyline points="571.4,125.2 573.3,131.7 575.0,137.4" opacity="0.8"/>
    <polyline points="289.2,184.5 289.3,184.5 290.6,184.3 291.4,184.2 292.1,184.1 292.9,184.1 293.3,184.1 293.7,184.1 294.3,184.2 295.0,184.3 295.4,184.4 295.8,184.5 296.2,184.6 296.7,184.7 297.3,184.9 298.0,185.2 298.6,185.6 299.1,185.9 299.6,186.2 300.6,186.9 302.5,188.2" opacity="0.8"/>
    <polyline points="297.8,184.0 297.5,184.0 297.2,183.9 296.5,183.8 296.3,183.7 296.0,183.7 295.3,183.6 294.6,183.6 294.1,183.6 293.4,183.6 292.8,183.7 292.1,183.8 291.2,183.9 289.4,184.2" opacity="0.8"/>
    <polyline points="299.3,184.5 298.8,184.3 298.2,184.2 298.0,184.1 297.8,184.0" opacity="0.8"/>
    <polyline points="297.3,175.7 297.1,175.3 296.5,174.3" opacity="0.8"/>
    <polyline points="296.5,174.3 295.6,172.6 292.6,166.9 292.3,166.3 292.0,165.9 291.8,165.4 291.5,165.1 291.2,164.6 291.0,164.3 290.6,163.8 290.1,163.2 286.0,158.5 282.9,154.8 281.7,153.4 281.2,152.9 280.9,152.4 280.5,152.0 280.1,151.4 279.8,150.9 279.5,150.4 279.2,150.0 278.9,149.4 278.6,148.8 278.2,148.1 278.0,147.4 277.8,146.9 277.6,146.3 277.3,145.5 277.2,144.9 277.0,144.3 276.9,143.7 276.9,143.3 276.8,142.7 276.7,142.2 276.7,141.6 276.7,140.9 276.6,140.3 276.6,139.8 276.6,139.2 276.7,138.6 276.7,137.9 276.8,137.3 276.8,136.6 276.9,136.0 277.0,135.4 277.1,134.7 277.3,134.1 277.5,133.4 277.6,132.8 277.8,132.1 278.1,131.3 278.4,130.3 278.7,129.7 278.9,129.1 279.2,128.6 279.4,128.1 279.6,127.8 279.7,127.4 279.9,127.1 280.1,126.8 280.5,126.1 280.9,125.4 281.4,124.7 281.8,124.1 282.5,123.2 283.2,122.3 283.8,121.6 288.3,116.3 288.8,115.7 289.2,115.2 289.6,114.9 289.9,114.5 290.3,114.2 290.6,113.9 291.0,113.7 291.3,113.4 291.9,113.0 292.5,112.6 293.4,112.1 294.2,111.6 296.9,110.1 297.5,109.7 297.9,109.4 298.3,109.1 298.8,108.8 299.2,108.5 299.6,108.1 300.0,107.7 300.3,107.4 300.6,107.1 300.8,106.7 301.1,106.4 301.3,106.0 301.6,105.7 301.7,105.4 301.9,105.0 302.1,104.6 302.2,104.4 302.4,104.1 302.5,103.8 302.5,103.6" opacity="0.8"/>
    <polyline points="662.8,439.4 661.8,437.1 661.6,436.7 661.4,436.1 661.0,435.5 660.4,434.4 660.1,433.9 659.6,433.0 659.2,432.3 658.8,431.7 657.7,429.7 657.6,429.5 657.5,429.2 657.3,428.9 657.2,428.5 657.1,428.2 657.1,427.8 657.0,427.5 657.0,427.0 657.0,426.6 657.1,426.1 657.1,425.6 657.2,425.2 657.3,424.8 657.5,424.3 657.7,423.9 657.8,423.5 657.9,423.4 658.5,422.4 658.8,422.0 659.0,421.7 659.2,421.4 659.6,420.9 660.0,420.6 660.3,420.3" opacity="0.8"/>
    <polyline points="657.9,423.4 658.4,422.7 658.7,422.2 659.0,421.8 659.4,421.5 659.7,421.2 660.0,420.9 660.2,420.7 660.6,420.4 660.9,420.3 661.2,420.1 661.5,420.0 661.8,419.9 662.1,419.8 662.4,419.8 662.8,419.7 663.2,419.7 663.6,419.8 663.9,419.8 664.3,419.9 664.7,420.0 665.0,420.2 665.2,420.3 665.5,420.5 665.7,420.7 666.0,420.9 666.2,421.2 666.4,421.5 666.5,421.7 666.6,421.9 666.7,422.2 666.8,422.5 666.8,422.8 666.8,423.3 666.7,423.7 666.6,424.6 666.4,425.4 666.2,426.5 666.2,426.9 666.1,427.4 666.1,428.0 666.1,428.4 666.2,433.3 666.3,435.8 666.3,437.0 666.3,437.9 666.4,439.4 666.4,441.4 666.4,441.7 666.5,442.2 666.5,442.6 666.6,442.9 666.7,443.1 666.8,443.5" opacity="0.8"/>
    <polyline points="666.5,417.1 664.9,417.5 663.9,417.8 663.1,418.0 662.6,418.2 662.2,418.3 661.8,418.5 661.1,418.8 660.6,419.0 660.2,419.2 659.8,419.5 659.3,419.8 658.7,420.2 658.3,420.5 657.8,420.9 657.4,421.3 657.0,421.7 656.7,422.1 656.4,422.4 656.2,422.7 655.9,423.1 655.8,423.4 655.6,423.8 655.5,424.3" opacity="0.8"/>
    <polyline points="688.2,331.8 685.4,331.6 684.4,331.5 683.4,331.4 682.5,331.3 681.8,331.1 681.1,330.9 680.0,330.6 679.2,330.3 678.6,329.9" opacity="0.8"/>
    <polyline points="714.6,338.9 714.2,338.3 713.8,337.8 713.3,337.2 712.8,336.8 712.4,336.4 712.0,336.0 711.6,335.8 711.2,335.5 710.7,335.2 710.2,334.9 709.7,334.6 709.1,334.4 708.4,334.1 707.8,333.9 707.2,333.7 706.5,333.5 705.8,333.4 705.2,333.3 704.4,333.1 703.5,333.1 702.2,332.9 698.9,332.7 694.2,332.3 692.7,332.2 691.0,332.0 689.7,331.9 688.2,331.8" opacity="0.8"/>
    <polyline points="678.6,329.9 678.1,329.7 677.7,329.5 677.4,329.3 677.0,329.1 676.7,328.8 676.2,328.4 675.8,328.1 675.4,327.8 675.1,327.4 674.8,327.0 674.5,326.5 674.1,326.0 673.9,325.5 673.7,325.1 672.9,323.4" opacity="0.8"/>
    <polyline points="672.7,324.2 673.0,325.0 673.2,325.3 673.4,325.7 673.7,326.2 674.1,326.8 674.4,327.2 674.7,327.6 675.0,327.9 675.4,328.3 675.8,328.7 676.3,329.0 676.7,329.3 677.0,329.6 677.4,329.8 677.8,330.0 678.2,330.2 678.8,330.5 679.3,330.6 679.8,330.8 680.3,330.9 680.7,331.0 681.2,331.1 681.6,331.2 682.2,331.3 682.7,331.3 683.2,331.3 683.9,331.3 684.8,331.3 685.9,331.3 687.0,331.4 687.9,331.4 688.8,331.5 690.1,331.5 694.3,331.9 698.9,332.3 702.4,332.5 703.1,332.6 703.7,332.7 704.5,332.7 705.2,332.8 705.9,333.0 706.6,333.1 707.2,333.3 707.8,333.5 708.3,333.6 708.8,333.8 709.3,334.1 709.9,334.3 710.4,334.6 711.0,335.0 711.5,335.3 711.8,335.5 712.1,335.8 712.5,336.0 712.8,336.3 713.1,336.7 713.5,337.0 713.8,337.4 714.1,337.7 714.5,338.1 715.0,338.9" opacity="0.8"/>
    <polyline points="725.8,347.9 725.1,347.5 724.5,347.1 724.0,346.8 723.5,346.5 722.7,346.1 721.2,345.3 720.9,345.2 720.7,345.1 720.3,344.9 719.9,344.6 719.6,344.5 719.4,344.3 719.3,344.2 719.1,344.1 718.9,344.0 718.7,343.8 718.5,343.7 718.4,343.6 718.2,343.4" opacity="0.8"/>
    <polyline points="663.8,313.7 664.4,314.0 665.3,314.4 665.7,314.6 666.3,314.9" opacity="0.8"/>
    <polyline points="666.2,317.8 666.4,318.3 666.6,318.6 666.9,319.1 667.0,319.4 667.3,319.8" opacity="0.8"/>
    <polyline points="312.7,196.7 313.1,197.0 313.3,197.2 313.5,197.3 314.0,197.7 314.3,197.9 314.6,198.1 315.0,198.4 315.3,198.6 316.1,199.5 317.3,200.9" opacity="0.8"/>
    <polyline points="98.9,186.4 98.5,186.5 97.8,186.8 97.2,187.1 96.6,187.4 95.9,187.7 95.4,188.1 95.0,188.4 94.4,188.9 93.9,189.3 93.4,189.8 92.9,190.4 92.5,191.0 88.9,195.1 86.3,198.1 85.4,199.1 81.9,203.1 81.4,203.7 80.9,204.1 80.4,204.6 79.9,205.1 79.1,205.7 77.3,206.9 76.7,207.4 76.1,207.8 75.6,208.1 75.1,208.4 74.7,208.6 74.3,208.8 73.8,209.0 73.5,209.2 72.7,209.5 72.0,209.8 71.5,209.9 71.0,210.1 70.4,210.3 69.9,210.4 69.3,210.5 68.7,210.6 68.2,210.7 67.6,210.8 67.1,210.8 66.5,210.9 65.4,210.9 63.2,211.0 59.1,211.2 52.0,211.5 50.9,211.6 50.3,211.6 49.7,211.7 49.0,211.7 48.4,211.8 47.7,211.9 47.1,212.1 46.5,212.2 46.0,212.3 45.5,212.5 44.8,212.8 44.1,213.1 43.4,213.4 42.8,213.7 42.2,214.0 41.7,214.4 41.2,214.8 40.7,215.2 40.1,215.7 39.7,216.2 39.2,216.6 38.8,217.1 37.7,218.4 37.2,218.9 36.8,219.3 36.3,219.7 35.8,220.1 35.3,220.5 34.8,220.8 34.2,221.2 33.5,221.5 33.0,221.7 32.3,222.0 31.6,222.2 30.9,222.4 30.3,222.5 29.7,222.6 29.1,222.7 28.3,222.8 27.5,222.8 26.7,222.8 26.0,222.8 25.0,222.7" opacity="0.8"/>
    <polyline points="603.5,304.3 604.1,304.6 607.5,306.2 608.1,306.6 609.1,307.0 609.6,307.2 610.1,307.4 610.7,307.6 611.3,307.7 611.9,307.9 612.7,308.0 613.4,308.1 614.1,308.2 614.9,308.3 615.7,308.3 616.4,308.3 617.1,308.2 617.7,308.2 618.6,308.0 619.5,307.9 619.6,307.9 622.5,307.2 623.5,306.9 624.5,306.8 625.6,306.6 626.6,306.5 627.3,306.4 628.3,306.3 629.2,306.3 630.0,306.3 631.0,306.3 632.1,306.4 633.0,306.4 634.2,306.5 644.5,307.8 645.7,308.0 647.2,308.3 648.2,308.6 649.9,309.1 651.3,309.5 656.1,311.0 659.8,312.2" opacity="0.8"/>
    <polyline points="739.1,190.0 737.8,190.5" opacity="0.8"/>
    <polyline points="774.9,165.5 773.7,168.0 771.6,172.2 770.9,173.4 770.2,174.4 769.3,175.3 768.3,176.2 766.4,177.7 764.5,179.1 762.5,180.4 761.0,181.3 759.2,182.3 757.3,183.2 755.8,183.9 754.1,184.6 750.8,185.8 746.6,187.3 742.6,188.8 739.1,190.0" opacity="0.8"/>
    <polyline points="674.8,513.9 674.6,513.4 674.4,512.9 674.2,512.4 674.0,511.9 673.7,511.2 673.5,510.5 673.2,509.5 673.1,509.0 673.0,508.5 672.9,508.0 672.8,507.5 672.7,506.8 672.5,506.0 672.3,504.4 671.8,501.3 671.5,499.6 670.9,498.0 670.5,497.1 669.7,495.8 668.8,494.6 668.2,493.8 667.5,493.0 663.6,489.3 662.8,488.4" opacity="0.8"/>
    <polyline points="703.2,584.4 701.6,581.1 700.7,579.1 700.5,578.7 700.3,578.1 700.2,577.7 700.0,577.2 699.8,576.5 699.6,575.8 699.4,574.4 698.1,567.4 697.9,566.4 697.7,565.6 697.6,565.1 697.5,564.7 697.4,564.4 697.3,564.1 697.3,563.9 697.2,563.6 697.1,563.4 696.9,562.9 696.7,562.4 696.5,561.8 696.3,561.3 696.1,560.8 695.5,559.5 694.4,557.2 692.9,553.9 690.7,549.0 686.4,539.5 685.4,537.2 685.0,536.3" opacity="0.8"/>
    <polyline points="715.3,338.8 715.0,338.4 714.7,338.0 714.4,337.6 714.0,337.2 713.7,336.9 713.3,336.5 713.0,336.2 712.6,335.9 712.3,335.6 712.0,335.4 711.7,335.1 711.1,334.8 710.6,334.4 710.1,334.2 709.5,333.9 708.9,333.7 708.4,333.5 707.9,333.3 707.3,333.1 706.7,332.9 706.1,332.8 705.3,332.6 704.5,332.5 703.8,332.4 703.1,332.4 702.3,332.3 699.0,332.0 694.3,331.7 690.1,331.3 688.9,331.2 687.9,331.1 687.0,331.1 686.0,331.0 684.8,330.9 684.0,330.8 683.4,330.8 682.8,330.7 682.2,330.6 681.6,330.4 681.1,330.3 680.5,330.1 680.0,329.9 679.4,329.7 678.9,329.5 678.4,329.3 678.0,329.0 677.5,328.7 677.1,328.5 676.6,328.2 676.1,327.8 675.7,327.5 675.4,327.2 675.1,326.8 674.7,326.4 674.4,325.9 674.1,325.5 673.8,325.0 673.5,324.5 673.3,324.1 672.9,323.4" opacity="0.8"/>
    <polyline points="594.3,299.3 594.7,299.6 595.4,300.1 596.2,300.5 597.1,301.1 597.9,301.5 598.6,301.9 599.8,302.5 600.5,302.8 603.5,304.3" opacity="0.8"/>
    <polyline points="672.7,324.2 673.5,326.2 673.9,326.9 674.1,327.3 674.4,327.7 674.6,328.1 675.0,328.5 675.4,328.9 675.8,329.3 676.3,329.6 676.7,329.9 677.1,330.2 677.5,330.4 677.9,330.6 678.3,330.8 678.8,331.0 679.3,331.2 679.8,331.3 680.3,331.5 681.1,331.6 681.7,331.8 682.3,331.8 682.9,331.9 683.6,332.0 684.3,332.1 684.9,332.1 685.7,332.1 689.1,332.2 690.3,332.3 691.4,332.4 692.7,332.4 694.2,332.5 698.8,332.9 702.2,333.2 703.4,333.3 704.3,333.4 705.1,333.5 705.8,333.6 706.4,333.7 707.1,333.9 707.7,334.1 708.3,334.3 709.0,334.6 709.5,334.8 710.1,335.1 710.5,335.4 711.0,335.7 711.4,336.0 711.8,336.2 712.2,336.6 712.6,337.0 713.0,337.4 713.5,337.9 713.9,338.4 714.3,338.9" opacity="0.8"/>
    <polyline points="573.1,268.2 573.4,272.8 573.4,273.4 573.4,274.2 573.3,274.8 573.1,275.5 572.9,276.2 572.7,276.9 572.4,277.5 572.0,278.2 571.6,278.8 571.2,279.4 570.5,280.1 569.9,280.8 569.2,281.4 568.4,282.0 566.2,283.6 564.2,285.0 562.6,286.2 561.8,286.8 561.1,287.4 560.2,288.2 559.5,288.9 558.8,289.6 558.3,290.2 557.8,290.8 557.3,291.5 556.6,292.5 556.1,293.3 555.6,294.1 555.0,295.3 554.8,295.6 554.5,296.0 554.1,296.4 553.4,297.2" opacity="0.8"/>
    <polyline points="307.4,191.4 305.6,189.7 304.7,188.7 303.5,187.6 302.6,186.7" opacity="0.8"/>
    <polyline points="307.4,191.4 306.5,190.6 306.0,190.2 305.6,189.8 305.0,189.4 304.3,188.8 303.3,188.1 302.7,187.7 302.0,187.3 301.5,186.9 301.0,186.5 300.5,186.1 300.0,185.7 299.6,185.3 299.3,185.0 299.0,184.6 298.6,184.1 298.3,183.7 298.1,183.4 297.9,183.0 297.7,182.6 297.5,182.1 297.4,181.6 297.3,181.2 297.2,180.8 297.1,180.3 297.1,179.8 297.0,179.2 297.0,178.2 297.0,177.3 297.0,176.5 297.0,175.7 297.0,174.7 297.1,173.8 297.2,173.0 297.3,172.3 297.4,171.6 297.5,170.9 297.6,170.0 297.8,169.4 298.0,168.7 298.2,168.1 298.4,167.5 298.7,166.9 299.0,166.2 299.2,165.7 299.6,165.1 300.0,164.4 301.5,162.0 301.9,161.5 302.2,161.1 302.4,160.7 302.6,160.5 302.9,160.2 303.2,159.9 303.5,159.6 303.8,159.3 304.1,159.1 304.6,158.7 304.9,158.5 305.5,158.2 306.1,157.8 306.7,157.5 307.5,157.0 309.8,155.8 310.5,155.4 311.0,155.1 311.6,154.7 312.1,154.4 312.6,154.0 313.1,153.7 313.5,153.4 313.9,153.0 314.4,152.6 314.9,152.1 315.2,151.7 315.6,151.4 315.9,151.0 316.5,150.3 317.9,148.7 319.5,147.0 321.3,145.0 324.1,141.9 326.8,138.9 327.2,138.4 327.5,138.0 327.9,137.5 328.3,136.9 328.7,136.3 329.1,135.8 329.4,135.2 329.8,134.5 330.1,133.9 330.3,133.4 330.7,132.6 331.4,131.0 331.6,130.4 331.9,129.8 332.4,129.1 332.8,128.4 333.1,127.9 333.6,127.4 334.0,126.8 334.3,126.4 334.7,126.0 335.1,125.5 335.7,124.9 336.3,124.3 336.9,123.8 337.5,123.3 338.1,122.9 338.5,122.5 339.0,122.2 339.6,121.8 340.2,121.4 340.8,121.0 341.3,120.7 342.0,120.3 342.9,119.8 343.0,119.8" opacity="0.8"/>
    <polyline points="302.6,186.7 301.2,185.2 300.7,184.7 300.3,184.4 300.1,184.0 299.8,183.6 299.5,183.2 299.3,182.9 299.1,182.4 298.9,182.0 298.8,181.6 298.7,181.2 298.5,180.7 298.5,180.4 298.4,180.0 298.4,179.6 298.3,178.9 298.3,178.5 298.2,178.1 298.1,177.7 298.0,177.4 297.9,177.1 297.7,176.6 297.6,176.3 297.4,176.0 297.3,175.7" opacity="0.8"/>
    <polyline points="297.4,182.7 297.6,183.1 297.8,183.5 298.0,183.8 298.3,184.3 298.7,184.7 299.0,185.1 299.3,185.4 299.7,185.8 300.3,186.3 300.7,186.8 301.2,187.2 301.7,187.6 302.5,188.2" opacity="0.8"/>
    <polyline points="467.3,63.3 467.3,62.9 467.3,62.6 467.3,62.2 467.2,61.7" opacity="0.8"/>
    <polyline points="566.3,109.4 567.2,112.1 567.8,114.2 569.0,118.1" opacity="0.8"/>
    <polyline points="169.0,145.2 168.6,145.1 168.1,145.0 167.6,144.8 167.1,144.6 166.5,144.3 166.0,144.1 165.6,143.9 165.1,143.6 164.7,143.3 164.3,143.0 163.8,142.7 163.6,142.5 163.5,142.4 163.2,142.2 163.1,142.0 162.7,141.6 162.3,141.2 162.0,140.8 161.8,140.4 161.5,140.0 161.2,139.4 160.9,138.9 160.7,138.3 160.5,137.8 160.0,136.1 159.0,131.7 158.6,129.8 158.2,128.5 157.8,127.3 157.4,126.2 157.0,125.3 156.5,124.3 155.9,123.3 155.0,122.0 153.8,120.5 152.5,119.1 151.0,117.7 149.6,116.6 139.3,109.1 136.9,107.4 135.8,106.6 135.0,106.1 133.6,105.2 132.4,104.5 131.1,103.9 129.0,103.0 127.5,102.4 126.0,101.9 124.9,101.5 123.6,101.2 122.2,100.9 120.8,100.6 119.0,100.3 117.7,100.1 116.3,100.0 114.4,99.9 112.3,99.9 110.0,100.0 107.5,100.2 104.8,100.6 102.2,100.9 99.7,101.3 91.2,102.3 89.7,102.5 89.0,102.6 87.6,102.8 86.6,102.9 85.7,103.0 83.3,103.3 81.4,103.6 79.9,103.8 78.1,104.0 76.7,104.2 75.3,104.4 73.1,104.6 71.6,104.8 69.8,105.0 68.5,105.1" opacity="0.8"/>
    <polyline points="57.4,104.3 56.1,104.1 54.4,103.8 52.8,103.5 50.9,103.1 49.5,102.7 47.6,102.2 45.7,101.7 43.2,100.9 40.7,100.2" opacity="0.8"/>
  </g>

  <!-- 지하철 역 -->
  <g id="subway-stations">
    <circle cx="672.9" cy="508.5" r="4" fill="#dc2626" stroke="#fff" stroke-width="2"/>
    <text x="672.9" y="500.5" text-anchor="middle" font-size="10" fill="#374151">Karlsrud</text>
    <circle cx="386.0" cy="293.3" r="4" fill="#dc2626" stroke="#fff" stroke-width="2"/>
    <text x="386.0" y="285.3" text-anchor="middle" font-size="10" fill="#374151">Nationaltheatret</text>
    <circle cx="199.3" cy="159.8" r="4" fill="#dc2626" stroke="#fff" stroke-width="2"/>
    <text x="199.3" y="151.8" text-anchor="middle" font-size="10" fill="#374151">Smestad</text>
    <circle cx="342.7" cy="119.7" r="4" fill="#dc2626" stroke="#fff" stroke-width="2"/>
    <text x="342.7" y="111.7" text-anchor="middle" font-size="10" fill="#374151">Forskningsparken</text>
    <circle cx="324.0" cy="141.8" r="4" fill="#dc2626" stroke="#fff" stroke-width="2"/>
    <text x="324.0" y="133.8" text-anchor="middle" font-size="10" fill="#374151">Blindern</text>
    <circle cx="581.2" cy="160.1" r="4" fill="#dc2626" stroke="#fff" stroke-width="2"/>
    <text x="581.2" y="152.1" text-anchor="middle" font-size="10" fill="#374151">Sinsen</text>
    <circle cx="496.4" cy="310.6" r="4" fill="#dc2626" stroke="#fff" stroke-width="2"/>
    <text x="496.4" y="302.6" text-anchor="middle" font-size="10" fill="#374151">Grønland</text>
    <circle cx="386.5" cy="101.0" r="4" fill="#dc2626" stroke="#fff" stroke-width="2"/>
    <text x="386.5" y="93.0" text-anchor="middle" font-size="10" fill="#374151">Ullevål stadion</text>
    <circle cx="519.2" cy="84.6" r="4" fill="#dc2626" stroke="#fff" stroke-width="2"/>
    <text x="519.2" y="76.6" text-anchor="middle" font-size="10" fill="#374151">Nydalen</text>
    <circle cx="463.3" cy="314.2" r="4" fill="#dc2626" stroke="#fff" stroke-width="2"/>
    <text x="463.3" y="306.2" text-anchor="middle" font-size="10" fill="#374151">Jernbanetorget</text>
    <circle cx="568.3" cy="114.3" r="4" fill="#dc2626" stroke="#fff" stroke-width="2"/>
    <text x="568.3" y="106.3" text-anchor="middle" font-size="10" fill="#374151">Storo</text>
    <circle cx="656.2" cy="310.9" r="4" fill="#dc2626" stroke="#fff" stroke-width="2"/>
    <text x="656.2" y="302.9" text-anchor="middle" font-size="10" fill="#374151">Helsfyr</text>
    <circle cx="244.1" cy="175.8" r="4" fill="#dc2626" stroke="#fff" stroke-width="2"/>
    <text x="244.1" y="167.8" text-anchor="middle" font-size="10" fill="#374151">Borgen</text>
    <circle cx="430.7" cy="305.8" r="4" fill="#dc2626" stroke="#fff" stroke-width="2"/>
    <text x="430.7" y="297.8" text-anchor="middle" font-size="10" fill="#374151">Stortinget</text>
    <circle cx="656.5" cy="467.3" r="4" fill="#dc2626" stroke="#fff" stroke-width="2"/>
    <text x="656.5" y="459.3" text-anchor="middle" font-size="10" fill="#374151">Brattlikollen</text>
    <circle cx="670.7" cy="416.2" r="4" fill="#dc2626" stroke="#fff" stroke-width="2"/>
    <text x="670.7" y="408.2" text-anchor="middle" font-size="10" fill="#374151">Ryen</text>
    <circle cx="702.1" cy="401.8" r="4" fill="#dc2626" stroke="#fff" stroke-width="2"/>
    <text x="702.1" y="393.8" text-anchor="middle" font-size="10" fill="#374151">Manglerud</text>
    <circle cx="729.6" cy="353.0" r="4" fill="#dc2626" stroke="#fff" stroke-width="2"/>
    <text x="729.6" y="345.0" text-anchor="middle" font-size="10" fill="#374151">Høyenhall</text>
    <circle cx="698.9" cy="332.5" r="4" fill="#dc2626" stroke="#fff" stroke-width="2"/>
    <text x="698.9" y="324.5" text-anchor="middle" font-size="10" fill="#374151">Brynseng</text>
    <circle cx="614.3" cy="205.3" r="4" fill="#dc2626" stroke="#fff" stroke-width="2"/>
    <text x="614.3" y="197.3" text-anchor="middle" font-size="10" fill="#374151">Løren</text>
    <circle cx="631.6" cy="239.1" r="4" fill="#dc2626" stroke="#fff" stroke-width="2"/>
    <text x="631.6" y="231.1" text-anchor="middle" font-size="10" fill="#374151">Hasle</text>
    <circle cx="676.8" cy="215.1" r="4" fill="#dc2626" stroke="#fff" stroke-width="2"/>
    <text x="676.8" y="207.1" text-anchor="middle" font-size="10" fill="#374151">Økern</text>
    <circle cx="742.7" cy="188.8" r="4" fill="#dc2626" stroke="#fff" stroke-width="2"/>
    <text x="742.7" y="180.8" text-anchor="middle" font-size="10" fill="#374151">Risløkka</text>
    <circle cx="557.6" cy="292.2" r="4" fill="#dc2626" stroke="#fff" stroke-width="2"/>
    <text x="557.6" y="284.2" text-anchor="middle" font-size="10" fill="#374151">Tøyen</text>
    <circle cx="604.2" cy="304.5" r="4" fill="#dc2626" stroke="#fff" stroke-width="2"/>
    <text x="604.2" y="296.5" text-anchor="middle" font-size="10" fill="#374151">Ensjø</text>
    <circle cx="277.9" cy="185.9" r="4" fill="#dc2626" stroke="#fff" stroke-width="2"/>
    <text x="277.9" y="177.9" text-anchor="middle" font-size="10" fill="#374151">Volvat stasjon</text>
    <circle cx="572.5" cy="230.4" r="4" fill="#dc2626" stroke="#fff" stroke-width="2"/>
    <text x="572.5" y="222.4" text-anchor="middle" font-size="10" fill="#374151">Carl Berners plass</text>
    <circle cx="59.1" cy="211.4" r="4" fill="#dc2626" stroke="#fff" stroke-width="2"/>
    <text x="59.1" y="203.4" text-anchor="middle" font-size="10" fill="#374151">Åsjordet</text>
    <circle cx="89.0" cy="195.1" r="4" fill="#dc2626" stroke="#fff" stroke-width="2"/>
    <text x="89.0" y="187.1" text-anchor="middle" font-size="10" fill="#374151">Ullernåsen</text>
    <circle cx="129.8" cy="174.5" r="4" fill="#dc2626" stroke="#fff" stroke-width="2"/>
    <text x="129.8" y="166.5" text-anchor="middle" font-size="10" fill="#374151">Montebello</text>
  </g>
</svg>