<?xml version="1.0" encoding="UTF-8"?>
<svg width="800" height="600" viewBox="0 0 800 600" 
     xmlns="http://www.w3.org/2000/svg">
  <title>Paris Subway Map</title>
  <rect width="100%" height="100%" fill="#f8f9fa"/>

  <!-- 지하철 선로 -->
  <g id="subway-lines" stroke="#2563eb" stroke-width="3" fill="none">
    <polyline points="468.0,184.7 467.9,178.9 467.9,175.0" opacity="0.8"/>
    <polyline points="371.6,446.4 374.4,447.9 380.2,451.1" opacity="0.8"/>
    <polyline points="460.5,375.5 461.4,376.2 461.9,376.5 462.2,376.8 462.5,377.2 463.0,378.0 463.2,378.3 463.4,378.7 463.5,378.9 463.6,379.1 463.7,379.4 463.8,379.7 463.8,380.0" opacity="0.8"/>
    <polyline points="453.0,393.8 452.3,394.3 451.6,394.6 450.6,395.1 449.9,395.4 449.3,395.7 449.0,396.0 448.7,396.2 448.4,396.5 448.3,396.8 448.0,397.3 447.7,398.0 447.2,399.2 446.2,402.0 444.4,406.9" opacity="0.8"/>
    <polyline points="456.0,391.5 454.4,392.7 453.0,393.8" opacity="0.8"/>
    <polyline points="463.8,380.0 463.9,380.4 463.9,380.7 463.9,381.1 463.8,381.5 463.8,381.8 463.7,382.2 463.6,382.6 463.4,382.9 463.2,383.2 463.1,383.4 462.9,383.6 458.2,389.2" opacity="0.8"/>
    <polyline points="442.0,413.2 441.6,414.3 440.9,416.2 436.4,426.1 434.0,432.7 433.4,434.4 432.8,436.0 432.5,436.8 432.3,437.2 432.2,437.5 430.3,441.5 429.9,442.3 429.6,443.2 427.9,447.7 427.3,449.5 427.1,450.1 426.9,450.6 426.7,450.9 426.5,451.2 426.2,451.4 426.0,451.6 424.8,452.2 423.9,452.7 423.5,453.0 423.2,453.3 422.9,453.7 422.6,454.2 422.5,454.8 422.4,455.4 422.4,456.0 422.4,456.6 422.5,457.1 422.7,457.5 422.8,457.8" opacity="0.8"/>
    <polyline points="554.0,405.8 554.0,406.0 553.8,406.5 553.6,406.9 553.3,407.3 553.1,407.6 552.9,407.7 552.7,407.9 552.4,408.1 552.2,408.1 552.0,408.2 551.7,408.3 551.4,408.4 551.0,408.4 545.6,408.7 544.7,408.8 543.1,408.9 541.1,409.1 539.5,409.3 538.3,409.4 536.4,409.7 524.9,411.6 523.4,411.8 521.5,412.1 520.8,412.2 520.4,412.2 520.0,412.2 519.7,412.3 519.3,412.2 518.9,412.2 518.5,412.1 518.2,412.0 517.8,411.9 517.3,411.7 508.0,408.3 506.9,408.0 499.1,405.1 498.7,405.0 497.4,404.6 496.7,404.3 496.4,404.2 496.2,404.1 495.9,404.1 495.5,404.0 495.2,404.0 494.9,404.0 494.5,404.0 494.2,404.1 493.8,404.2 493.5,404.3 493.3,404.4 493.1,404.5 492.8,404.7" opacity="0.8"/>
    <polyline points="457.9,373.0 458.3,373.7 458.8,374.2 459.5,374.9 460.5,375.5" opacity="0.8"/>
    <polyline points="454.6,367.5 454.8,367.9 454.9,368.3 455.1,368.6 455.4,369.1 456.1,370.2 457.9,373.0" opacity="0.8"/>
    <polyline points="557.7,386.3 555.1,400.2 554.2,404.9 554.2,405.2 554.1,405.6 554.0,405.8" opacity="0.8"/>
    <polyline points="468.0,184.7 468.1,185.7" opacity="0.8"/>
    <polyline points="190.5,497.4 194.1,495.0 197.0,493.1 198.4,492.2 200.4,490.2 202.4,488.2 204.4,486.1 205.6,484.4 207.0,482.5 208.2,480.7 212.0,476.2 217.7,469.6 221.2,465.1 224.5,460.9 229.5,454.3 232.8,449.8 236.9,444.4 238.3,442.5 241.0,438.9 244.9,434.2 246.5,432.3 247.8,430.9 249.5,429.2 252.1,427.0 254.9,424.4 257.5,421.8 260.2,418.7 265.0,413.8 266.9,411.8 268.2,410.5 269.4,409.7 270.8,408.7 272.3,407.8 281.9,402.5 283.3,401.6 286.4,399.8 290.0,397.6 298.5,392.4 300.1,391.5 303.8,389.1 314.5,382.5" opacity="0.8"/>
    <polyline points="60.6,401.6 62.3,401.7 63.3,401.8 63.6,401.7 63.8,401.7 64.0,401.7 64.2,401.6 64.8,401.3 65.2,401.1 70.3,398.8 70.6,398.7 70.9,398.6 71.1,398.5 71.4,398.4 71.7,398.4 72.0,398.3 80.2,397.3 80.7,397.2 81.6,397.2 86.7,396.9 86.9,396.8 87.1,396.8 87.3,396.8 87.4,396.8 87.7,396.7 88.0,396.6 88.3,396.5 91.6,395.2 91.8,395.1 91.9,395.1 92.6,394.9 92.8,394.9 94.0,394.4 95.8,393.7 96.0,393.6 96.1,393.6 96.7,393.2 96.9,393.1 97.2,393.0 113.7,386.6 123.2,382.7 124.9,382.0 138.3,376.2 139.2,375.9 139.7,375.7 140.1,375.6 140.6,375.6 141.0,375.6 142.3,375.6 153.7,376.1 155.9,376.3 156.6,376.3 156.8,376.3 157.0,376.3 157.2,376.2 157.3,376.2 157.5,376.2 157.8,376.2 161.5,376.5 163.8,376.6 164.0,376.6 164.1,376.6 164.8,376.4 169.3,376.7 169.8,376.7 170.1,376.7 170.4,376.7 170.8,376.6 171.1,376.5 171.8,376.1 173.3,375.2 181.6,370.1 183.6,369.0 186.3,367.2 188.6,365.8" opacity="0.8"/>
    <polyline points="458.8,714.4 459.7,711.3 462.0,701.8 462.6,699.6 465.7,687.4 466.2,684.2 465.5,679.1 464.3,669.8 463.1,662.3 462.4,658.3 461.5,652.6 460.6,648.5 460.2,646.9 459.8,645.5 459.1,643.9 458.4,642.7 456.3,639.9 455.2,638.3 455.0,638.0 454.8,637.7 454.4,637.0 454.1,636.5 453.9,635.9 453.7,635.1 453.5,633.8 453.3,632.3 452.7,628.0 452.5,626.6 452.2,624.9 452.1,624.6 452.0,623.8 451.8,622.6 449.4,606.7 447.7,595.2 447.3,592.5 446.6,587.9 445.4,580.0 445.0,576.9 444.0,570.8 443.6,567.7 440.7,551.0 440.4,548.7 440.3,547.6 438.7,535.7 437.2,526.5" opacity="0.8"/>
    <polyline points="452.8,171.1 453.6,169.8 455.3,167.6 456.1,166.9 459.6,164.8 463.8,162.6 464.6,162.2 465.4,162.0 466.3,161.9 467.0,161.9 467.7,162.1 468.5,162.5 469.2,163.1 470.1,163.9 471.6,165.1 476.5,169.5 478.3,171.1 486.5,178.4 490.0,181.5 491.1,182.6 492.9,184.5 494.2,185.9 494.6,186.3 495.0,186.6 495.4,186.8 495.8,186.9 496.4,186.9 496.9,186.8 497.8,186.4 499.1,185.7 500.5,184.9 501.4,184.3 504.3,182.5 505.0,182.0 505.8,181.6 506.7,181.2 508.0,180.7 509.9,180.2 511.0,179.9 512.3,179.7 513.6,179.5 515.7,179.3 517.5,179.2 520.2,179.2 522.0,179.3" opacity="0.8"/>
    <polyline points="565.4,224.0 565.2,225.2 560.8,235.1 556.6,244.8 555.9,246.6 554.1,250.3 552.5,254.0 551.4,256.6 549.8,260.4 549.2,261.4 549.0,261.6 548.7,261.9" opacity="0.8"/>
    <polyline points="607.3,542.0 602.8,532.0" opacity="0.8"/>
    <polyline points="602.8,532.0 602.2,530.8 601.5,529.5" opacity="0.8"/>
    <polyline points="600.0,526.4 598.0,522.4 595.3,516.9 594.3,515.5 592.2,512.3 589.8,509.1 580.8,497.4 573.5,488.2 571.2,485.3 570.6,484.4" opacity="0.8"/>
    <polyline points="570.6,484.4 564.7,476.9 560.7,471.8 555.9,465.4 551.0,459.1 549.9,457.8 549.5,456.9 549.2,456.0 549.0,454.9 549.0,453.9 549.3,452.8 549.5,452.2 549.7,451.6 550.1,451.0 550.6,450.5 553.9,448.0 557.7,445.1 562.4,441.5 565.6,439.1 566.5,438.3 570.1,434.1 570.5,433.5 570.7,432.9 570.8,432.4 570.8,431.8 570.5,431.2 570.1,430.7 568.3,429.3 562.5,425.0 559.9,423.2 544.2,411.4 543.1,410.6 542.3,409.9 541.3,408.8 540.3,407.6 539.2,406.1 537.4,402.9 535.0,398.9 531.8,393.4 531.1,392.1 530.5,391.2 530.3,390.9 527.7,386.4 524.8,381.6 522.6,377.8 518.1,370.1 517.0,368.0 516.6,367.0 515.9,365.5 515.2,364.1 515.1,364.0 512.7,357.8 510.3,351.3 509.6,349.7 509.2,349.1 508.9,348.6 508.4,348.3 507.8,347.9 506.8,347.7 504.5,347.3 500.9,346.6 499.6,346.4 498.0,346.3 496.6,346.2 495.6,346.1 494.5,345.8 491.8,344.7 489.7,343.8 487.3,342.7 484.4,341.4 477.9,338.1 473.3,335.4 472.3,334.6 471.6,334.0 470.9,333.4 470.0,332.6 469.3,331.8 468.7,331.2 467.7,330.5 466.6,329.9 466.0,329.4 465.4,328.7 464.8,327.7 464.4,326.7 464.2,326.1 464.1,325.3 461.8,306.1 459.2,284.6 458.3,276.6 457.9,273.5 457.5,272.3 454.0,259.6" opacity="0.8"/>
    <polyline points="133.4,135.9 140.9,140.7" opacity="0.8"/>
    <polyline points="127.6,132.3 128.6,132.8 130.5,134.0 131.1,134.4 133.4,135.9" opacity="0.8"/>
    <polyline points="340.7,135.2 340.6,134.3 340.5,133.4 340.5,132.5 340.6,131.6" opacity="0.8"/>
    <polyline points="69.6,465.7 75.3,462.1 81.7,457.9" opacity="0.8"/>
    <polyline points="643.4,75.1 643.5,75.1 645.0,74.5 650.8,72.1" opacity="0.8"/>
    <polyline points="331.7,204.5 330.4,204.6 323.7,206.0 323.0,206.1 322.2,206.0 321.5,205.9 315.2,204.2 313.6,203.5 312.7,203.2 311.8,203.2 311.0,203.3 310.2,203.8 309.5,204.4 308.9,205.2 308.5,206.2 308.2,207.2 308.0,208.0 308.0,209.0 308.4,212.2 308.7,214.7 309.0,217.4 309.0,218.1 309.0,218.8 309.0,219.4 308.9,220.1 308.7,220.8 307.5,224.4 306.8,226.3 306.0,227.8 305.2,229.0 304.2,230.4 303.5,231.4 303.0,232.6 302.7,233.9 302.5,235.2 302.5,236.5 302.7,237.8 305.4,250.2 307.1,257.8 307.6,260.3 307.9,262.9 308.1,265.5 307.9,282.0 308.0,283.9 308.2,287.0 308.1,288.0 307.8,293.5 307.6,295.5 307.6,296.9 307.7,298.2 307.9,299.5 308.8,302.3 309.1,303.7 309.9,309.5 309.9,310.3 309.9,311.1" opacity="0.8"/>
    <polyline points="458.2,389.2 457.2,390.4 456.9,390.7 456.5,391.0 456.0,391.5" opacity="0.8"/>
    <polyline points="439.6,450.1 435.7,452.6" opacity="0.8"/>
    <polyline points="454.3,365.8 454.3,366.1 454.4,366.5 454.5,367.0 454.6,367.5" opacity="0.8"/>
    <polyline points="205.3,227.1 205.1,226.9 204.9,226.6 202.2,222.7 201.7,222.3 201.3,222.2 201.0,222.2 200.7,222.3 200.4,222.4 200.2,222.6 200.0,222.8 199.9,223.1 199.8,223.4 199.8,223.9 199.9,224.3 200.1,224.7 200.5,225.0 200.9,225.2 205.3,227.1" opacity="0.8"/>
    <polyline points="140.9,140.7 141.9,141.3 144.3,142.8" opacity="0.8"/>
    <polyline points="507.1,573.0 505.8,571.0 488.1,544.8 479.5,527.0 473.8,520.8 467.0,513.6 465.4,511.9 465.1,511.8 452.2,520.6 444.7,525.2 437.2,526.5" opacity="0.8"/>
    <polyline points="205.1,371.1 216.5,369.9 226.8,368.9 244.5,367.0 253.7,366.1 254.4,365.9 254.9,365.6 255.3,365.4 255.7,364.9 256.0,364.4 258.3,359.4 261.7,353.4 265.1,348.7 268.2,344.4 268.7,343.8 269.2,343.5 269.7,343.4 270.4,343.5 271.0,343.7 271.5,344.2 272.5,345.5 280.1,355.2 288.5,366.2 293.2,371.9 293.8,372.7 294.4,373.2 295.0,373.6 295.9,374.2 297.6,375.1 298.3,375.5 299.1,375.7 299.8,375.7 300.5,375.6 301.4,375.2 302.3,374.7 307.2,371.7 312.8,368.2 312.8,368.2 314.7,367.1 315.1,366.6 317.0,365.2 319.6,363.3 322.5,361.0 324.5,359.3 327.6,355.9 329.7,353.9 333.2,350.3 335.1,348.5 335.8,347.8 337.4,346.4 340.9,343.5 344.0,340.4 345.2,339.6 346.4,339.2 348.2,338.5 349.4,337.9 352.8,336.7 354.8,336.0 357.8,334.9 358.4,334.7 358.4,334.7 360.9,333.8 362.1,333.5 363.1,333.4 365.0,332.9 365.5,332.8 367.1,332.2 368.6,331.5 369.5,331.3 370.4,331.3 371.0,331.6 372.1,332.2 373.8,333.1 375.7,334.1 379.5,336.1 383.2,337.8 391.4,341.4 393.5,342.5 405.3,348.2 406.8,348.8 407.0,349.0 407.2,349.2 407.4,349.5 407.5,349.8 408.4,352.0 414.6,368.1 415.0,368.9 415.6,369.6 417.1,371.2 417.3,371.4 417.5,371.6 417.8,371.9 418.2,372.3 418.5,372.5 418.9,372.7 419.2,372.8 419.7,372.9 420.1,372.9 420.4,372.8 420.8,372.7 421.2,372.5 421.5,372.3 421.8,372.0 422.3,371.6 422.7,371.3 423.3,371.1 423.7,371.0 424.3,371.0 425.0,371.0 425.6,371.0" opacity="0.8"/>
    <polyline points="141.6,372.2 141.4,373.2 141.2,373.9 141.0,374.2 140.8,374.6 140.4,375.0 139.7,375.4 124.8,381.8 123.3,382.5 113.7,386.5 97.0,392.9 96.8,393.0 96.6,393.1 96.0,393.2 95.9,393.3 95.7,393.4 93.9,394.0 92.6,394.5 92.5,394.6 91.9,394.9 91.7,395.0 91.6,395.0 88.3,396.3 87.9,396.5 87.6,396.5 87.4,396.6 87.3,396.6 87.1,396.7 86.9,396.7 86.7,396.7 81.6,397.0 80.7,397.1 80.1,397.1 73.9,397.9 71.7,398.2 71.4,398.2 71.1,398.3 70.9,398.4 70.7,398.5 70.4,398.6 70.2,398.6 65.1,400.9 64.9,401.0 64.7,401.1 64.4,401.2 64.1,401.2 63.8,401.2 62.4,401.2 60.6,401.1" opacity="0.8"/>
    <polyline points="530.4,304.7 531.4,305.5 535.2,309.7 536.7,311.4 537.1,312.6 544.3,330.4 547.7,339.9 547.8,340.2 548.2,341.2" opacity="0.8"/>
    <polyline points="429.7,372.1 430.3,372.0 430.8,371.9 431.2,371.7 431.7,371.5 432.3,371.3 432.9,371.0 433.5,370.7 434.2,370.2 434.8,369.7 435.8,368.7 436.7,367.5 437.2,366.9 439.2,364.4 440.3,362.9 441.8,361.0 444.1,357.9 447.2,353.9 448.3,352.5 448.6,351.7 448.7,350.8 448.7,349.7 448.4,348.7 443.8,340.8 441.9,337.8 440.7,336.2 439.3,334.8 436.7,332.9 433.8,330.7 428.8,327.1 421.3,321.3 413.7,315.3 412.0,314.0 408.2,311.0 406.7,310.2 405.3,309.3 402.0,307.5 395.7,304.0 388.9,300.0 388.5,299.8 387.8,299.4 386.7,299.0" opacity="0.8"/>
    <polyline points="498.5,44.7 499.3,45.7 499.9,46.8 503.3,54.2 503.7,55.2 504.0,55.8 504.4,56.2 504.9,56.5" opacity="0.8"/>
    <polyline points="505.5,56.5 504.1,54.6 503.4,53.4 501.6,49.5 500.7,47.7 499.9,46.4 499.4,45.6 499.1,45.2 498.5,44.7 497.6,44.0 496.3,43.0 495.7,42.5 495.4,42.1 495.0,41.4 493.3,35.8" opacity="0.8"/>
    <polyline points="503.5,50.0 501.9,47.4 501.5,46.8 500.9,46.3 500.2,45.7 499.5,45.1" opacity="0.8"/>
    <polyline points="509.9,59.0 508.8,58.2 508.6,57.9 508.4,57.4 508.2,56.9 508.1,56.3 508.0,55.3 507.9,54.3 507.8,53.7 507.6,53.2 507.4,52.9 505.4,49.6 504.9,48.7 504.5,48.1 504.1,47.8 502.6,46.6 502.4,46.3 502.1,46.0 500.3,43.0" opacity="0.8"/>
    <polyline points="508.1,56.3 507.9,55.4 507.6,54.4 507.3,53.9 507.0,53.3 505.0,50.0 503.8,48.1 503.6,47.8 503.2,47.6 502.7,47.3 501.8,46.7" opacity="0.8"/>
    <polyline points="499.5,45.1 500.1,45.9 501.7,48.5 505.9,55.4 506.5,56.4 507.3,57.3 507.8,57.7 508.5,58.1" opacity="0.8"/>
    <polyline points="505.5,56.5 504.4,55.3 503.8,54.4 503.2,53.5 499.9,46.4 499.4,45.3 499.2,44.9 499.0,44.5" opacity="0.8"/>
    <polyline points="496.1,43.3 496.4,44.1 496.7,45.0 498.1,49.4 498.3,50.4 499.5,54.3 499.7,54.9 500.0,55.4 500.5,55.7 501.0,55.9 501.8,56.0 502.7,56.1 503.6,56.2" opacity="0.8"/>
    <polyline points="499.1,51.9 500.0,54.8 500.3,55.3 500.8,55.7 501.8,56.0" opacity="0.8"/>
    <polyline points="506.9,57.1 506.3,56.7 505.4,55.9 505.0,55.5 503.4,52.8 502.6,51.2 501.6,49.1" opacity="0.8"/>
    <polyline points="499.2,54.9 499.4,55.6 499.6,56.1" opacity="0.8"/>
    <polyline points="516.2,67.8 516.4,66.9 516.0,65.6 514.9,64.1 513.6,63.2 513.2,62.7 512.7,61.3 512.5,60.9 512.0,60.4" opacity="0.8"/>
    <polyline points="506.0,56.1 505.5,55.5 505.2,55.1 501.6,49.1 500.7,47.7" opacity="0.8"/>
  </g>

  <!-- 지하철 역 -->
  <g id="subway-stations">
    <circle cx="259.5" cy="548.9" r="4" fill="#dc2626" stroke="#fff" stroke-width="2"/>
    <circle cx="187.8" cy="171.1" r="4" fill="#dc2626" stroke="#fff" stroke-width="2"/>
    <text x="187.8" y="163.1" text-anchor="middle" font-size="10" fill="#374151">Les Sablons</text>
    <circle cx="295.5" cy="239.5" r="4" fill="#dc2626" stroke="#fff" stroke-width="2"/>
    <circle cx="351.8" cy="265.4" r="4" fill="#dc2626" stroke="#fff" stroke-width="2"/>
    <text x="351.8" y="257.4" text-anchor="middle" font-size="10" fill="#374151">Tuileries</text>
    <circle cx="402.6" cy="298.4" r="4" fill="#dc2626" stroke="#fff" stroke-width="2"/>
    <text x="402.6" y="290.4" text-anchor="middle" font-size="10" fill="#374151">Châtelet</text>
    <circle cx="439.7" cy="317.9" r="4" fill="#dc2626" stroke="#fff" stroke-width="2"/>
    <text x="439.7" y="309.9" text-anchor="middle" font-size="10" fill="#374151">Saint-Paul</text>
    <circle cx="106.0" cy="442.8" r="4" fill="#dc2626" stroke="#fff" stroke-width="2"/>
    <text x="106.0" y="434.8" text-anchor="middle" font-size="10" fill="#374151">Marcel Sembat</text>
    <circle cx="262.0" cy="354.7" r="4" fill="#dc2626" stroke="#fff" stroke-width="2"/>
    <circle cx="275.6" cy="363.1" r="4" fill="#dc2626" stroke="#fff" stroke-width="2"/>
    <text x="275.6" y="355.1" text-anchor="middle" font-size="10" fill="#374151">Cambronne</text>
    <circle cx="249.0" cy="346.5" r="4" fill="#dc2626" stroke="#fff" stroke-width="2"/>
    <text x="249.0" y="338.5" text-anchor="middle" font-size="10" fill="#374151">Dupleix</text>
    <circle cx="190.5" cy="497.3" r="4" fill="#dc2626" stroke="#fff" stroke-width="2"/>
    <text x="190.5" y="489.3" text-anchor="middle" font-size="10" fill="#374151">Mairie d'Issy</text>
    <circle cx="208.2" cy="480.7" r="4" fill="#dc2626" stroke="#fff" stroke-width="2"/>
    <text x="208.2" y="472.7" text-anchor="middle" font-size="10" fill="#374151">Corentin Celton</text>
    <circle cx="257.6" cy="421.9" r="4" fill="#dc2626" stroke="#fff" stroke-width="2"/>
    <text x="257.6" y="413.9" text-anchor="middle" font-size="10" fill="#374151">Convention</text>
    <circle cx="340.3" cy="500.4" r="4" fill="#dc2626" stroke="#fff" stroke-width="2"/>
    <text x="340.3" y="492.4" text-anchor="middle" font-size="10" fill="#374151">Porte d'Orléans</text>
    <circle cx="344.4" cy="475.1" r="4" fill="#dc2626" stroke="#fff" stroke-width="2"/>
    <text x="344.4" y="467.1" text-anchor="middle" font-size="10" fill="#374151">Alésia</text>
    <circle cx="352.5" cy="456.4" r="4" fill="#dc2626" stroke="#fff" stroke-width="2"/>
    <text x="352.5" y="448.4" text-anchor="middle" font-size="10" fill="#374151">Mouton-Duvernet</text>
    <circle cx="372.3" cy="446.7" r="4" fill="#dc2626" stroke="#fff" stroke-width="2"/>
    <text x="372.3" y="438.7" text-anchor="middle" font-size="10" fill="#374151">Saint-Jacques</text>
    <circle cx="391.4" cy="457.2" r="4" fill="#dc2626" stroke="#fff" stroke-width="2"/>
    <text x="391.4" y="449.2" text-anchor="middle" font-size="10" fill="#374151">Glacière</text>
    <circle cx="426.8" cy="458.4" r="4" fill="#dc2626" stroke="#fff" stroke-width="2"/>
    <text x="426.8" y="450.4" text-anchor="middle" font-size="10" fill="#374151">Place d'Italie</text>
    <circle cx="446.6" cy="445.4" r="4" fill="#dc2626" stroke="#fff" stroke-width="2"/>
    <text x="446.6" y="437.4" text-anchor="middle" font-size="10" fill="#374151">Nationale</text>
    <circle cx="461.7" cy="435.3" r="4" fill="#dc2626" stroke="#fff" stroke-width="2"/>
    <text x="461.7" y="427.3" text-anchor="middle" font-size="10" fill="#374151">Chevaleret</text>
    <circle cx="475.3" cy="423.3" r="4" fill="#dc2626" stroke="#fff" stroke-width="2"/>
    <text x="475.3" y="415.3" text-anchor="middle" font-size="10" fill="#374151">Quai de la Gare</text>
    <circle cx="458.8" cy="152.1" r="4" fill="#dc2626" stroke="#fff" stroke-width="2"/>
    <text x="458.8" y="144.1" text-anchor="middle" font-size="10" fill="#374151">Stalingrad</text>
    <circle cx="540.1" cy="362.2" r="4" fill="#dc2626" stroke="#fff" stroke-width="2"/>
    <text x="540.1" y="354.2" text-anchor="middle" font-size="10" fill="#374151">Nation</text>
    <circle cx="499.1" cy="185.7" r="4" fill="#dc2626" stroke="#fff" stroke-width="2"/>
    <text x="499.1" y="177.7" text-anchor="middle" font-size="10" fill="#374151">Buttes Chaumont</text>
    <circle cx="478.3" cy="171.1" r="4" fill="#dc2626" stroke="#fff" stroke-width="2"/>
    <text x="478.3" y="163.1" text-anchor="middle" font-size="10" fill="#374151">Bolivar</text>
    <circle cx="556.6" cy="338.4" r="4" fill="#dc2626" stroke="#fff" stroke-width="2"/>
    <text x="556.6" y="330.4" text-anchor="middle" font-size="10" fill="#374151">Buzenval</text>
    <circle cx="516.9" cy="274.6" r="4" fill="#dc2626" stroke="#fff" stroke-width="2"/>
    <text x="516.9" y="266.6" text-anchor="middle" font-size="10" fill="#374151">Père Lachaise</text>
    <circle cx="524.8" cy="301.4" r="4" fill="#dc2626" stroke="#fff" stroke-width="2"/>
    <text x="524.8" y="293.4" text-anchor="middle" font-size="10" fill="#374151">Philippe Auguste</text>
    <circle cx="537.0" cy="312.4" r="4" fill="#dc2626" stroke="#fff" stroke-width="2"/>
    <text x="537.0" y="304.4" text-anchor="middle" font-size="10" fill="#374151">Alexandre Dumas</text>
    <circle cx="486.8" cy="222.2" r="4" fill="#dc2626" stroke="#fff" stroke-width="2"/>
    <text x="486.8" y="214.2" text-anchor="middle" font-size="10" fill="#374151">Belleville</text>
    <circle cx="363.1" cy="156.2" r="4" fill="#dc2626" stroke="#fff" stroke-width="2"/>
    <text x="363.1" y="148.2" text-anchor="middle" font-size="10" fill="#374151">Blanche</text>
    <circle cx="345.1" cy="156.5" r="4" fill="#dc2626" stroke="#fff" stroke-width="2"/>
    <text x="345.1" y="148.5" text-anchor="middle" font-size="10" fill="#374151">Place de Clichy</text>
    <circle cx="328.1" cy="163.2" r="4" fill="#dc2626" stroke="#fff" stroke-width="2"/>
    <text x="328.1" y="155.2" text-anchor="middle" font-size="10" fill="#374151">Rome</text>
    <circle cx="309.7" cy="170.0" r="4" fill="#dc2626" stroke="#fff" stroke-width="2"/>
    <text x="309.7" y="162.0" text-anchor="middle" font-size="10" fill="#374151">Villiers</text>
    <circle cx="291.8" cy="174.6" r="4" fill="#dc2626" stroke="#fff" stroke-width="2"/>
    <text x="291.8" y="166.6" text-anchor="middle" font-size="10" fill="#374151">Monceau</text>
    <circle cx="205.3" cy="227.1" r="4" fill="#dc2626" stroke="#fff" stroke-width="2"/>
    <text x="205.3" y="219.1" text-anchor="middle" font-size="10" fill="#374151">Porte Dauphine</text>
    <circle cx="494.2" cy="266.5" r="4" fill="#dc2626" stroke="#fff" stroke-width="2"/>
    <text x="494.2" y="258.5" text-anchor="middle" font-size="10" fill="#374151">Rue Saint-Maur</text>
    <circle cx="478.3" cy="260.6" r="4" fill="#dc2626" stroke="#fff" stroke-width="2"/>
    <text x="478.3" y="252.6" text-anchor="middle" font-size="10" fill="#374151">Parmentier</text>
    <circle cx="427.5" cy="259.9" r="4" fill="#dc2626" stroke="#fff" stroke-width="2"/>
    <text x="427.5" y="251.9" text-anchor="middle" font-size="10" fill="#374151">Arts et Métiers</text>
    <circle cx="385.5" cy="241.6" r="4" fill="#dc2626" stroke="#fff" stroke-width="2"/>
    <text x="385.5" y="233.6" text-anchor="middle" font-size="10" fill="#374151">Bourse</text>
    <circle cx="369.6" cy="236.2" r="4" fill="#dc2626" stroke="#fff" stroke-width="2"/>
    <text x="369.6" y="228.2" text-anchor="middle" font-size="10" fill="#374151">Quatre Septembre</text>
    <circle cx="359.5" cy="230.2" r="4" fill="#dc2626" stroke="#fff" stroke-width="2"/>
    <text x="359.5" y="222.2" text-anchor="middle" font-size="10" fill="#374151">Opéra</text>
    <circle cx="345.5" cy="212.3" r="4" fill="#dc2626" stroke="#fff" stroke-width="2"/>
    <text x="345.5" y="204.3" text-anchor="middle" font-size="10" fill="#374151">Havre - Caumartin</text>
    <circle cx="292.9" cy="159.3" r="4" fill="#dc2626" stroke="#fff" stroke-width="2"/>
    <text x="292.9" y="151.3" text-anchor="middle" font-size="10" fill="#374151">Malesherbes</text>
    <circle cx="277.8" cy="153.1" r="4" fill="#dc2626" stroke="#fff" stroke-width="2"/>
    <text x="277.8" y="145.1" text-anchor="middle" font-size="10" fill="#374151">Wagram</text>
    <circle cx="262.2" cy="148.7" r="4" fill="#dc2626" stroke="#fff" stroke-width="2"/>
    <text x="262.2" y="140.7" text-anchor="middle" font-size="10" fill="#374151">Pereire</text>
    <circle cx="270.8" cy="408.7" r="4" fill="#dc2626" stroke="#fff" stroke-width="2"/>
    <text x="270.8" y="400.7" text-anchor="middle" font-size="10" fill="#374151">Vaugirard</text>
    <circle cx="290.0" cy="397.5" r="4" fill="#dc2626" stroke="#fff" stroke-width="2"/>
    <text x="290.0" y="389.5" text-anchor="middle" font-size="10" fill="#374151">Volontaires</text>
    <circle cx="318.5" cy="380.5" r="4" fill="#dc2626" stroke="#fff" stroke-width="2"/>
    <text x="318.5" y="372.5" text-anchor="middle" font-size="10" fill="#374151">Falguière</text>
    <circle cx="314.7" cy="367.0" r="4" fill="#dc2626" stroke="#fff" stroke-width="2"/>
    <text x="314.7" y="359.0" text-anchor="middle" font-size="10" fill="#374151">Duroc</text>
    <circle cx="555.5" cy="398.6" r="4" fill="#dc2626" stroke="#fff" stroke-width="2"/>
    <text x="555.5" y="390.6" text-anchor="middle" font-size="10" fill="#374151">Bel-Air</text>
    <circle cx="438.6" cy="116.1" r="4" fill="#dc2626" stroke="#fff" stroke-width="2"/>
    <text x="438.6" y="108.1" text-anchor="middle" font-size="10" fill="#374151">Marx Dormoy</text>
    <circle cx="440.7" cy="227.5" r="4" fill="#dc2626" stroke="#fff" stroke-width="2"/>
    <text x="440.7" y="219.5" text-anchor="middle" font-size="10" fill="#374151">Jacques Bonsergent</text>
    <circle cx="224.4" cy="107.2" r="4" fill="#dc2626" stroke="#fff" stroke-width="2"/>
    <text x="224.4" y="99.2" text-anchor="middle" font-size="10" fill="#374151">Anatole France</text>
    <circle cx="655.0" cy="303.0" r="4" fill="#dc2626" stroke="#fff" stroke-width="2"/>
    <text x="655.0" y="295.0" text-anchor="middle" font-size="10" fill="#374151">Croix de Chavaux</text>
    <circle cx="671.6" cy="276.4" r="4" fill="#dc2626" stroke="#fff" stroke-width="2"/>
    <text x="671.6" y="268.4" text-anchor="middle" font-size="10" fill="#374151">Mairie de Montreuil</text>
    <circle cx="211.1" cy="77.9" r="4" fill="#dc2626" stroke="#fff" stroke-width="2"/>
    <circle cx="234.2" cy="128.8" r="4" fill="#dc2626" stroke="#fff" stroke-width="2"/>
    <text x="234.2" y="120.8" text-anchor="middle" font-size="10" fill="#374151">Louise Michel</text>
    <circle cx="570.4" cy="333.2" r="4" fill="#dc2626" stroke="#fff" stroke-width="2"/>
    <text x="570.4" y="325.2" text-anchor="middle" font-size="10" fill="#374151">Maraîchers</text>
    <circle cx="620.6" cy="315.4" r="4" fill="#dc2626" stroke="#fff" stroke-width="2"/>
    <text x="620.6" y="307.4" text-anchor="middle" font-size="10" fill="#374151">Robespierre</text>
    <circle cx="520.8" cy="334.0" r="4" fill="#dc2626" stroke="#fff" stroke-width="2"/>
    <text x="520.8" y="326.0" text-anchor="middle" font-size="10" fill="#374151">Rue des Boulets</text>
    <circle cx="510.9" cy="321.6" r="4" fill="#dc2626" stroke="#fff" stroke-width="2"/>
    <text x="510.9" y="313.6" text-anchor="middle" font-size="10" fill="#374151">Charonne</text>
    <circle cx="495.2" cy="301.8" r="4" fill="#dc2626" stroke="#fff" stroke-width="2"/>
    <text x="495.2" y="293.8" text-anchor="middle" font-size="10" fill="#374151">Voltaire</text>
    <circle cx="480.6" cy="285.4" r="4" fill="#dc2626" stroke="#fff" stroke-width="2"/>
    <text x="480.6" y="277.4" text-anchor="middle" font-size="10" fill="#374151">Saint-Ambroise</text>
    <circle cx="465.5" cy="267.7" r="4" fill="#dc2626" stroke="#fff" stroke-width="2"/>
    <text x="465.5" y="259.7" text-anchor="middle" font-size="10" fill="#374151">Oberkampf</text>
    <circle cx="406.4" cy="230.8" r="4" fill="#dc2626" stroke="#fff" stroke-width="2"/>
    <text x="406.4" y="222.8" text-anchor="middle" font-size="10" fill="#374151">Bonne Nouvelle</text>
    <circle cx="391.4" cy="225.6" r="4" fill="#dc2626" stroke="#fff" stroke-width="2"/>
    <text x="391.4" y="217.6" text-anchor="middle" font-size="10" fill="#374151">Grands Boulevards</text>
    <circle cx="329.4" cy="208.2" r="4" fill="#dc2626" stroke="#fff" stroke-width="2"/>
    <text x="329.4" y="200.2" text-anchor="middle" font-size="10" fill="#374151">Saint-Augustin</text>
    <circle cx="415.2" cy="368.8" r="4" fill="#dc2626" stroke="#fff" stroke-width="2"/>
    <text x="415.2" y="360.8" text-anchor="middle" font-size="10" fill="#374151">Cardinal Lemoine</text>
    <circle cx="405.5" cy="348.5" r="4" fill="#dc2626" stroke="#fff" stroke-width="2"/>
    <text x="405.5" y="340.5" text-anchor="middle" font-size="10" fill="#374151">Maubert - Mutualité</text>
    <circle cx="393.3" cy="342.6" r="4" fill="#dc2626" stroke="#fff" stroke-width="2"/>
    <text x="393.3" y="334.6" text-anchor="middle" font-size="10" fill="#374151">Cluny-La Sorbonne</text>
    <circle cx="367.0" cy="332.3" r="4" fill="#dc2626" stroke="#fff" stroke-width="2"/>
    <text x="367.0" y="324.3" text-anchor="middle" font-size="10" fill="#374151">Mabillon</text>
    <circle cx="205.4" cy="427.0" r="4" fill="#dc2626" stroke="#fff" stroke-width="2"/>
    <text x="205.4" y="419.0" text-anchor="middle" font-size="10" fill="#374151">Balard</text>
    <circle cx="216.1" cy="413.6" r="4" fill="#dc2626" stroke="#fff" stroke-width="2"/>
    <text x="216.1" y="405.6" text-anchor="middle" font-size="10" fill="#374151">Lourmel</text>
    <circle cx="232.6" cy="400.1" r="4" fill="#dc2626" stroke="#fff" stroke-width="2"/>
    <text x="232.6" y="392.1" text-anchor="middle" font-size="10" fill="#374151">Boucicaut</text>
    <circle cx="243.7" cy="390.9" r="4" fill="#dc2626" stroke="#fff" stroke-width="2"/>
    <text x="243.7" y="382.9" text-anchor="middle" font-size="10" fill="#374151">Félix Faure</text>
    <circle cx="523.5" cy="411.9" r="4" fill="#dc2626" stroke="#fff" stroke-width="2"/>
    <text x="523.5" y="403.9" text-anchor="middle" font-size="10" fill="#374151">Dugommier</text>
    <circle cx="495.6" cy="405.4" r="4" fill="#dc2626" stroke="#fff" stroke-width="2"/>
    <text x="495.6" y="397.4" text-anchor="middle" font-size="10" fill="#374151">Bercy</text>
    <circle cx="325.1" cy="394.2" r="4" fill="#dc2626" stroke="#fff" stroke-width="2"/>
    <circle cx="303.1" cy="389.5" r="4" fill="#dc2626" stroke="#fff" stroke-width="2"/>
    <text x="303.1" y="381.5" text-anchor="middle" font-size="10" fill="#374151">Pasteur</text>
    <circle cx="248.6" cy="224.3" r="4" fill="#dc2626" stroke="#fff" stroke-width="2"/>
    <text x="248.6" y="216.3" text-anchor="middle" font-size="10" fill="#374151">Kléber</text>
    <circle cx="226.5" cy="305.7" r="4" fill="#dc2626" stroke="#fff" stroke-width="2"/>
    <text x="226.5" y="297.7" text-anchor="middle" font-size="10" fill="#374151">Passy</text>
    <circle cx="249.2" cy="264.9" r="4" fill="#dc2626" stroke="#fff" stroke-width="2"/>
    <text x="249.2" y="256.9" text-anchor="middle" font-size="10" fill="#374151">Iéna</text>
    <circle cx="204.7" cy="268.0" r="4" fill="#dc2626" stroke="#fff" stroke-width="2"/>
    <text x="204.7" y="260.0" text-anchor="middle" font-size="10" fill="#374151">Rue de la Pompe</text>
    <circle cx="193.0" cy="303.0" r="4" fill="#dc2626" stroke="#fff" stroke-width="2"/>
    <text x="193.0" y="295.0" text-anchor="middle" font-size="10" fill="#374151">La Muette</text>
    <circle cx="182.0" cy="316.8" r="4" fill="#dc2626" stroke="#fff" stroke-width="2"/>
    <text x="182.0" y="308.8" text-anchor="middle" font-size="10" fill="#374151">Ranelagh</text>
    <circle cx="176.2" cy="334.1" r="4" fill="#dc2626" stroke="#fff" stroke-width="2"/>
    <text x="176.2" y="326.1" text-anchor="middle" font-size="10" fill="#374151">Jasmin</text>
    <circle cx="156.0" cy="377.5" r="4" fill="#dc2626" stroke="#fff" stroke-width="2"/>
    <circle cx="153.0" cy="389.1" r="4" fill="#dc2626" stroke="#fff" stroke-width="2"/>
    <text x="153.0" y="381.1" text-anchor="middle" font-size="10" fill="#374151">Exelmans</text>
    <circle cx="143.0" cy="419.0" r="4" fill="#dc2626" stroke="#fff" stroke-width="2"/>
    <circle cx="268.0" cy="263.4" r="4" fill="#dc2626" stroke="#fff" stroke-width="2"/>
    <text x="268.0" y="255.4" text-anchor="middle" font-size="10" fill="#374151">Alma-Marceau</text>
    <circle cx="295.9" cy="221.1" r="4" fill="#dc2626" stroke="#fff" stroke-width="2"/>
    <circle cx="308.6" cy="212.5" r="4" fill="#dc2626" stroke="#fff" stroke-width="2"/>
    <text x="308.6" y="204.5" text-anchor="middle" font-size="10" fill="#374151">Miromesnil</text>
    <circle cx="343.9" cy="340.5" r="4" fill="#dc2626" stroke="#fff" stroke-width="2"/>
    <text x="343.9" y="332.5" text-anchor="middle" font-size="10" fill="#374151">Sèvres-Babylone</text>
    <circle cx="324.9" cy="115.7" r="4" fill="#dc2626" stroke="#fff" stroke-width="2"/>
    <text x="324.9" y="107.7" text-anchor="middle" font-size="10" fill="#374151">Brochant</text>
    <circle cx="340.9" cy="136.4" r="4" fill="#dc2626" stroke="#fff" stroke-width="2"/>
    <text x="340.9" y="128.4" text-anchor="middle" font-size="10" fill="#374151">La Fourche</text>
    <circle cx="288.4" cy="366.2" r="4" fill="#dc2626" stroke="#fff" stroke-width="2"/>
    <text x="288.4" y="358.2" text-anchor="middle" font-size="10" fill="#374151">Ségur</text>
    <circle cx="253.8" cy="366.2" r="4" fill="#dc2626" stroke="#fff" stroke-width="2"/>
    <text x="253.8" y="358.2" text-anchor="middle" font-size="10" fill="#374151">Avenue Émile Zola</text>
    <circle cx="327.6" cy="288.1" r="4" fill="#dc2626" stroke="#fff" stroke-width="2"/>
    <text x="327.6" y="280.1" text-anchor="middle" font-size="10" fill="#374151">Assemblée Nationale</text>
  </g>
</svg>