<?xml version="1.0" encoding="UTF-8"?>
<svg width="800" height="600" viewBox="0 0 800 600" 
     xmlns="http://www.w3.org/2000/svg">
  <title>Philadelphia Subway Map</title>
  <rect width="100%" height="100%" fill="#f8f9fa"/>

  <!-- 지하철 선로 -->
  <g id="subway-lines" stroke="#2563eb" stroke-width="3" fill="none">
    <polyline points="406.0,410.0 405.7,409.9 405.5,409.9 405.2,409.9 404.8,409.8 404.4,409.8 404.0,409.8 403.5,409.8 402.2,409.8" opacity="0.8"/>
    <polyline points="459.8,449.0 459.0,448.7" opacity="0.8"/>
    <polyline points="393.3,402.1 393.9,400.3 394.2,399.6 394.2,399.5 394.3,399.4 394.3,399.3 394.3,399.2 394.3,399.2 394.3,399.1 394.3,399.0 394.4,398.9 394.4,398.8 394.4,398.7 394.4,398.6 394.3,398.6 394.3,398.5 394.3,398.4 394.3,398.4 394.3,398.3 394.3,398.2 394.3,398.2 394.2,398.2 394.2,398.1 394.2,398.0 394.1,398.0 394.1,397.9 394.0,397.8 394.0,397.7 393.9,397.7 393.9,397.6 393.8,397.5 393.7,397.4 393.6,397.3 393.4,397.1 393.2,397.0 393.1,396.9 392.9,396.7 392.5,396.5 392.4,396.4 392.3,396.3 392.2,396.3 392.1,396.2 392.0,396.2" opacity="0.8"/>
    <polyline points="464.6,450.5 464.1,450.4 463.1,450.1 462.1,449.8 460.8,449.3 459.8,449.0" opacity="0.8"/>
    <polyline points="445.2,441.6 440.8,439.2 438.8,438.1 436.9,437.1 436.2,436.7 435.7,436.4" opacity="0.8"/>
    <polyline points="410.1,412.6 410.0,412.4 409.9,412.2 409.6,411.9 409.0,411.4 408.7,411.2 408.5,411.0 408.2,410.8 407.8,410.6 407.2,410.3 406.9,410.2 406.4,410.1 406.2,410.0 406.0,410.0" opacity="0.8"/>
    <polyline points="410.9,414.6 410.3,412.9 410.1,412.6" opacity="0.8"/>
    <polyline points="459.0,448.7 458.3,448.4 457.8,448.1 453.9,446.3 453.2,445.9" opacity="0.8"/>
    <polyline points="448.6,443.5 448.3,443.3" opacity="0.8"/>
    <polyline points="476.3,453.7 473.5,453.0 471.4,452.4 468.9,451.7 468.1,451.5 466.1,451.0 465.2,450.7" opacity="0.8"/>
    <polyline points="465.2,450.7 464.6,450.5" opacity="0.8"/>
    <polyline points="486.1,456.4 483.6,455.7 482.2,455.3 480.8,454.9 478.6,454.4 476.7,453.8" opacity="0.8"/>
    <polyline points="476.7,453.8 476.3,453.7" opacity="0.8"/>
    <polyline points="500.0,460.1 495.8,459.0 493.7,458.4 493.0,458.3 490.6,457.6 486.5,456.5" opacity="0.8"/>
    <polyline points="486.5,456.5 486.1,456.4" opacity="0.8"/>
    <polyline points="543.1,472.0 541.4,471.5 540.4,471.2 538.2,470.5 536.1,469.9 533.8,469.3" opacity="0.8"/>
    <polyline points="415.4,425.5 414.9,424.9 414.6,424.6 414.3,424.0 414.0,423.5" opacity="0.8"/>
    <polyline points="413.1,421.1 412.9,420.6" opacity="0.8"/>
    <polyline points="412.3,418.9 411.5,416.5 411.0,415.0" opacity="0.8"/>
    <polyline points="411.0,415.0 410.9,414.6" opacity="0.8"/>
    <polyline points="588.7,517.3 588.5,517.2" opacity="0.8"/>
    <polyline points="624.3,538.9 624.0,538.5 623.4,538.0 622.6,537.3 622.0,536.8 620.1,535.5 617.3,533.7 616.3,533.1 615.5,532.7 614.8,532.3 613.4,531.7 607.6,529.0 603.5,527.1 602.3,526.5 601.2,525.9 600.1,525.3 598.4,524.3" opacity="0.8"/>
    <polyline points="588.5,517.2 587.9,516.7 587.3,516.2 586.6,515.6 586.0,515.0 585.7,514.6 585.0,513.6 584.5,513.0 583.8,511.9 583.3,510.7 581.6,507.0" opacity="0.8"/>
    <polyline points="555.8,477.5 553.2,476.2 551.0,475.1 550.6,475.0 549.4,474.5 548.1,473.9 546.4,473.2 545.8,473.0 545.0,472.7 543.5,472.2 543.1,472.0" opacity="0.8"/>
    <polyline points="566.2,484.5 565.4,483.8 564.8,483.3" opacity="0.8"/>
    <polyline points="581.6,507.0 580.0,503.6 579.7,502.9 578.8,501.1 578.0,499.9 578.0,499.7 577.2,498.7 575.5,496.3 574.6,495.3 574.3,494.9 574.1,494.6 573.7,494.1" opacity="0.8"/>
    <polyline points="196.9,381.0 200.0,381.0 200.4,381.0 200.7,381.0 201.0,381.0 201.2,381.0 201.5,381.0 201.8,381.0" opacity="0.8"/>
    <polyline points="196.9,381.1 200.0,381.1 200.5,381.1 200.7,381.1 201.0,381.1 201.3,381.1 201.6,381.1 201.8,381.1" opacity="0.8"/>
    <polyline points="98.8,372.9 99.8,372.3 100.3,372.0 100.7,371.8 102.7,370.8 103.0,370.6 103.3,370.5 103.5,370.4 103.8,370.4 104.0,370.3 104.2,370.2 104.5,370.2 104.8,370.1 105.1,370.1 105.3,370.0 105.5,370.0 105.8,370.0 106.1,370.0 106.3,370.0 106.6,370.0 106.9,370.0 107.1,370.0 107.4,370.0 107.7,370.0 108.0,370.1 108.2,370.1 111.0,370.5" opacity="0.8"/>
    <polyline points="115.7,372.2 115.9,372.3 116.1,372.4 116.4,372.5 116.6,372.6 116.8,372.6 117.0,372.7 117.2,372.8 117.4,372.8 117.6,372.9 117.8,372.9 118.0,373.0 118.2,373.0 118.5,373.0 118.7,373.1 118.9,373.1 119.0,373.1 120.4,373.3 125.1,373.7" opacity="0.8"/>
    <polyline points="115.6,372.2 115.8,372.3 116.0,372.4 116.3,372.5 116.5,372.6 116.7,372.7 117.0,372.8 117.2,372.9 117.4,372.9 117.6,373.0 117.9,373.0 118.1,373.0 118.3,373.1 118.5,373.1 118.8,373.1 123.0,373.6 125.0,373.8" opacity="0.8"/>
    <polyline points="96.0,374.0 93.0,373.8 92.7,373.8 92.5,373.9 92.2,373.9 92.0,374.0 91.3,374.2 91.1,374.2 90.9,374.2 90.7,374.2 90.5,374.2 90.3,374.1 90.2,374.0 90.0,373.9 89.9,373.8 89.8,373.7 89.8,373.6 89.7,373.3 89.7,373.2 89.8,373.0 89.9,372.9" opacity="0.8"/>
    <polyline points="92.8,373.6 92.6,373.6 92.4,373.5 92.1,373.5 91.9,373.5" opacity="0.8"/>
    <polyline points="92.2,373.2 91.5,372.8 91.3,372.7 91.0,372.7 90.8,372.7 90.6,372.7 90.4,372.8 90.2,372.9" opacity="0.8"/>
    <polyline points="348.6,391.4 348.7,391.6 348.7,392.0 348.7,392.5 348.7,392.6 348.7,392.9 348.7,393.2 348.7,393.4 348.7,393.6 348.7,393.7 348.6,394.0 348.6,394.2 348.6,394.4 348.5,394.6 348.4,394.8 348.4,394.9 348.4,395.0 348.3,395.1 348.3,395.3 348.2,395.4 348.2,395.5 348.1,395.6 348.0,395.8 347.9,395.9 347.7,396.1 347.6,396.2 347.5,396.3 347.5,396.4 347.3,396.5 347.2,396.6 347.1,396.7 347.0,396.7 346.8,396.8 346.7,396.9 346.6,396.9 346.4,397.0 346.2,397.0 346.1,397.0 345.9,397.1 345.9,397.1 345.7,397.1 345.6,397.1 345.4,397.1 345.3,397.1 345.1,397.2 345.0,397.2 344.8,397.2 344.7,397.2 344.5,397.2 344.4,397.1 344.3,397.1 344.2,397.1" opacity="0.8"/>
    <polyline points="89.8,372.4 89.9,372.2 89.9,372.1 89.8,371.9 89.9,371.6 89.9,371.6 89.9,371.3 90.0,370.8 90.0,370.7 90.1,370.6 90.2,370.5 90.3,370.4 94.0,368.5" opacity="0.8"/>
    <polyline points="92.8,373.6 91.7,373.5 90.9,373.5 90.7,373.4 90.5,373.4 90.3,373.3 90.1,373.1 90.0,373.0 90.0,372.8 89.9,372.6 89.8,372.4" opacity="0.8"/>
    <polyline points="99.4,372.5 99.7,372.3 100.2,372.0 100.7,371.7 102.6,370.8 102.7,370.7 103.0,370.6 103.2,370.5 103.4,370.4 103.7,370.3 103.9,370.3 104.1,370.2 104.4,370.1 104.7,370.1 105.0,370.0 105.2,370.0 105.5,369.9 105.8,369.9 106.1,369.9 106.3,369.9 106.5,369.9 106.8,369.9 107.0,369.9 107.3,369.9 107.5,369.9 107.7,370.0 107.9,370.0 108.2,370.0 108.4,370.0 108.6,370.1 111.0,370.4" opacity="0.8"/>
    <polyline points="91.9,373.5 91.0,373.4 90.7,373.4 90.5,373.3 90.3,373.2 90.2,373.1 90.1,373.0 90.1,372.8 90.0,372.6 90.0,372.4" opacity="0.8"/>
    <polyline points="94.4,368.7 90.8,370.6 90.7,370.6 90.6,370.7 90.5,370.8 90.4,370.9 90.4,371.0 90.2,371.3" opacity="0.8"/>
    <polyline points="94.3,368.6 90.7,370.5 90.5,370.5 90.4,370.6 90.3,370.7 90.2,370.9 90.1,371.0 90.0,371.2" opacity="0.8"/>
    <polyline points="94.2,368.5 90.6,370.4 90.4,370.5 90.3,370.6 90.2,370.7 90.1,370.8 90.1,370.9 90.0,371.2 89.9,371.4 89.9,371.6" opacity="0.8"/>
    <polyline points="94.1,368.5 90.4,370.4 90.3,370.5 90.2,370.6 90.1,370.7 90.1,370.8 90.0,371.1 89.9,371.3" opacity="0.8"/>
    <polyline points="93.4,368.3 93.3,368.3 93.0,368.3 92.8,368.3 92.7,368.3 92.5,368.4 92.4,368.4 92.3,368.5 91.8,368.9 91.2,369.5 90.3,370.2 90.0,370.5 89.9,370.6 89.8,370.8 89.7,370.9 89.7,371.0 89.7,371.1 89.8,371.4" opacity="0.8"/>
    <polyline points="91.7,368.9 91.7,368.8 91.9,368.7 92.2,368.4 92.3,368.3 92.5,368.3 92.6,368.2 92.8,368.2 93.0,368.2 94.2,368.3 94.4,368.4 94.6,368.4 94.7,368.5 94.8,368.6 94.9,368.7 95.0,368.8 95.0,368.8 95.0,368.9 95.1,368.9 95.1,369.0 95.2,369.4 95.2,369.5 95.3,369.9 95.3,369.9 95.3,370.1 95.1,370.6 95.0,370.7 94.9,370.8 94.8,370.9 94.7,370.9 93.3,371.7" opacity="0.8"/>
    <polyline points="90.1,372.7 90.2,372.7 90.5,372.6 90.7,372.6 90.9,372.6 91.1,372.6 91.3,372.6 91.5,372.7 92.2,373.2" opacity="0.8"/>
    <polyline points="89.9,372.9 89.9,372.9 90.0,372.8 90.1,372.7" opacity="0.8"/>
    <polyline points="90.2,372.9 90.1,373.0 90.0,373.1" opacity="0.8"/>
    <polyline points="90.0,373.1 89.9,373.3 89.9,373.4 89.9,373.6 90.0,373.7 90.1,373.9 90.3,374.0 90.5,374.0 90.7,374.1 90.9,374.1 91.1,374.1 91.2,374.1 91.4,374.1 91.7,374.0 92.3,373.8 92.6,373.7 92.8,373.6 93.0,373.6 93.3,373.6" opacity="0.8"/>
    <polyline points="93.8,368.4 91.3,369.7 91.1,369.9" opacity="0.8"/>
  </g>

  <!-- 지하철 역 -->
  <g id="subway-stations">
    <circle cx="395.4" cy="409.7" r="4" fill="#dc2626" stroke="#fff" stroke-width="2"/>
    <text x="395.4" y="401.7" text-anchor="middle" font-size="10" fill="#374151">Broadway</text>
    <circle cx="392.2" cy="405.0" r="4" fill="#dc2626" stroke="#fff" stroke-width="2"/>
    <text x="392.2" y="397.0" text-anchor="middle" font-size="10" fill="#374151">City Hall</text>
    <circle cx="293.4" cy="399.6" r="4" fill="#dc2626" stroke="#fff" stroke-width="2"/>
    <text x="293.4" y="391.6" text-anchor="middle" font-size="10" fill="#374151">15th-16th & Locust</text>
    <circle cx="315.2" cy="401.9" r="4" fill="#dc2626" stroke="#fff" stroke-width="2"/>
    <text x="315.2" y="393.9" text-anchor="middle" font-size="10" fill="#374151">9th-10th & Locust</text>
    <circle cx="305.0" cy="400.8" r="4" fill="#dc2626" stroke="#fff" stroke-width="2"/>
    <text x="305.0" y="392.8" text-anchor="middle" font-size="10" fill="#374151">12th-13th & Locust</text>
    <circle cx="121.7" cy="373.4" r="4" fill="#dc2626" stroke="#fff" stroke-width="2"/>
    <text x="121.7" y="365.4" text-anchor="middle" font-size="10" fill="#374151">63rd Street</text>
    <circle cx="95.0" cy="373.7" r="4" fill="#dc2626" stroke="#fff" stroke-width="2"/>
    <circle cx="109.9" cy="370.3" r="4" fill="#dc2626" stroke="#fff" stroke-width="2"/>
    <text x="109.9" y="362.3" text-anchor="middle" font-size="10" fill="#374151">Millbourne</text>
    <circle cx="151.5" cy="376.6" r="4" fill="#dc2626" stroke="#fff" stroke-width="2"/>
    <text x="151.5" y="368.6" text-anchor="middle" font-size="10" fill="#374151">56th Street</text>
    <circle cx="192.1" cy="380.9" r="4" fill="#dc2626" stroke="#fff" stroke-width="2"/>
    <text x="192.1" y="372.9" text-anchor="middle" font-size="10" fill="#374151">46th Street</text>
    <circle cx="296.8" cy="407.7" r="4" fill="#dc2626" stroke="#fff" stroke-width="2"/>
    <text x="296.8" y="399.7" text-anchor="middle" font-size="10" fill="#374151">Lombard-South</text>
    <circle cx="293.1" cy="422.3" r="4" fill="#dc2626" stroke="#fff" stroke-width="2"/>
    <text x="293.1" y="414.3" text-anchor="middle" font-size="10" fill="#374151">Ellsworth-Federal</text>
    <circle cx="290.2" cy="434.0" r="4" fill="#dc2626" stroke="#fff" stroke-width="2"/>
    <text x="290.2" y="426.0" text-anchor="middle" font-size="10" fill="#374151">Tasker-Morris</text>
    <circle cx="287.8" cy="445.3" r="4" fill="#dc2626" stroke="#fff" stroke-width="2"/>
    <text x="287.8" y="437.3" text-anchor="middle" font-size="10" fill="#374151">Snyder</text>
    <circle cx="280.2" cy="478.1" r="4" fill="#dc2626" stroke="#fff" stroke-width="2"/>
    <text x="280.2" y="470.1" text-anchor="middle" font-size="10" fill="#374151">NRG</text>
    <circle cx="341.3" cy="233.0" r="4" fill="#dc2626" stroke="#fff" stroke-width="2"/>
    <circle cx="337.1" cy="249.6" r="4" fill="#dc2626" stroke="#fff" stroke-width="2"/>
    <text x="337.1" y="241.6" text-anchor="middle" font-size="10" fill="#374151">Logan</text>
    <circle cx="334.6" cy="259.3" r="4" fill="#dc2626" stroke="#fff" stroke-width="2"/>
    <text x="334.6" y="251.3" text-anchor="middle" font-size="10" fill="#374151">Wyoming</text>
    <circle cx="331.3" cy="272.2" r="4" fill="#dc2626" stroke="#fff" stroke-width="2"/>
    <text x="331.3" y="264.2" text-anchor="middle" font-size="10" fill="#374151">Hunting Park</text>
    <circle cx="327.4" cy="287.6" r="4" fill="#dc2626" stroke="#fff" stroke-width="2"/>
    <text x="327.4" y="279.6" text-anchor="middle" font-size="10" fill="#374151">Erie</text>
    <circle cx="323.8" cy="301.7" r="4" fill="#dc2626" stroke="#fff" stroke-width="2"/>
    <text x="323.8" y="293.7" text-anchor="middle" font-size="10" fill="#374151">Allegheny</text>
    <circle cx="320.5" cy="314.5" r="4" fill="#dc2626" stroke="#fff" stroke-width="2"/>
    <text x="320.5" y="306.5" text-anchor="middle" font-size="10" fill="#374151">North Philadelphia</text>
    <circle cx="313.0" cy="344.2" r="4" fill="#dc2626" stroke="#fff" stroke-width="2"/>
    <text x="313.0" y="336.2" text-anchor="middle" font-size="10" fill="#374151">Cecil B. Moore</text>
    <circle cx="309.6" cy="357.2" r="4" fill="#dc2626" stroke="#fff" stroke-width="2"/>
    <text x="309.6" y="349.2" text-anchor="middle" font-size="10" fill="#374151">Girard</text>
    <circle cx="307.5" cy="365.7" r="4" fill="#dc2626" stroke="#fff" stroke-width="2"/>
    <text x="307.5" y="357.7" text-anchor="middle" font-size="10" fill="#374151">Fairmount</text>
    <circle cx="305.4" cy="374.0" r="4" fill="#dc2626" stroke="#fff" stroke-width="2"/>
    <text x="305.4" y="366.0" text-anchor="middle" font-size="10" fill="#374151">Spring Garden</text>
    <circle cx="302.8" cy="384.2" r="4" fill="#dc2626" stroke="#fff" stroke-width="2"/>
    <text x="302.8" y="376.2" text-anchor="middle" font-size="10" fill="#374151">Race-Vine</text>
    <circle cx="358.4" cy="227.5" r="4" fill="#dc2626" stroke="#fff" stroke-width="2"/>
    <circle cx="408.7" cy="311.1" r="4" fill="#dc2626" stroke="#fff" stroke-width="2"/>
    <text x="408.7" y="303.1" text-anchor="middle" font-size="10" fill="#374151">Allegheny</text>
    <circle cx="378.9" cy="325.2" r="4" fill="#dc2626" stroke="#fff" stroke-width="2"/>
    <text x="378.9" y="317.2" text-anchor="middle" font-size="10" fill="#374151">Huntingdon</text>
    <circle cx="368.5" cy="331.9" r="4" fill="#dc2626" stroke="#fff" stroke-width="2"/>
    <text x="368.5" y="323.9" text-anchor="middle" font-size="10" fill="#374151">York-Dauphin</text>
    <circle cx="359.7" cy="362.0" r="4" fill="#dc2626" stroke="#fff" stroke-width="2"/>
    <text x="359.7" y="354.0" text-anchor="middle" font-size="10" fill="#374151">Girard</text>
    <circle cx="365.4" cy="344.2" r="4" fill="#dc2626" stroke="#fff" stroke-width="2"/>
    <text x="365.4" y="336.2" text-anchor="middle" font-size="10" fill="#374151">Berks</text>
    <circle cx="472.0" cy="274.4" r="4" fill="#dc2626" stroke="#fff" stroke-width="2"/>
    <circle cx="446.1" cy="293.5" r="4" fill="#dc2626" stroke="#fff" stroke-width="2"/>
    <text x="446.1" y="285.5" text-anchor="middle" font-size="10" fill="#374151">Erie-Torresdale</text>
    <circle cx="461.5" cy="285.1" r="4" fill="#dc2626" stroke="#fff" stroke-width="2"/>
    <text x="461.5" y="277.1" text-anchor="middle" font-size="10" fill="#374151">Church</text>
    <circle cx="389.4" cy="320.2" r="4" fill="#dc2626" stroke="#fff" stroke-width="2"/>
    <text x="389.4" y="312.2" text-anchor="middle" font-size="10" fill="#374151">Somerset</text>
    <circle cx="423.4" cy="304.2" r="4" fill="#dc2626" stroke="#fff" stroke-width="2"/>
    <text x="423.4" y="296.2" text-anchor="middle" font-size="10" fill="#374151">Tioga</text>
    <circle cx="323.0" cy="386.0" r="4" fill="#dc2626" stroke="#fff" stroke-width="2"/>
    <text x="323.0" y="378.0" text-anchor="middle" font-size="10" fill="#374151">Chinatown</text>
    <circle cx="329.0" cy="387.0" r="4" fill="#dc2626" stroke="#fff" stroke-width="2"/>
    <text x="329.0" y="379.0" text-anchor="middle" font-size="10" fill="#374151">Franklin Square</text>
    <circle cx="168.8" cy="378.4" r="4" fill="#dc2626" stroke="#fff" stroke-width="2"/>
    <text x="168.8" y="370.4" text-anchor="middle" font-size="10" fill="#374151">52nd Street</text>
    <circle cx="240.6" cy="385.9" r="4" fill="#dc2626" stroke="#fff" stroke-width="2"/>
    <text x="240.6" y="377.9" text-anchor="middle" font-size="10" fill="#374151">34th Street</text>
    <circle cx="134.4" cy="374.8" r="4" fill="#dc2626" stroke="#fff" stroke-width="2"/>
    <text x="134.4" y="366.8" text-anchor="middle" font-size="10" fill="#374151">60th Street</text>
    <circle cx="573.7" cy="493.9" r="4" fill="#dc2626" stroke="#fff" stroke-width="2"/>
    <text x="573.7" y="485.9" text-anchor="middle" font-size="10" fill="#374151">Haddonfield</text>
    <circle cx="513.6" cy="463.9" r="4" fill="#dc2626" stroke="#fff" stroke-width="2"/>
    <text x="513.6" y="455.9" text-anchor="middle" font-size="10" fill="#374151">Collingswood</text>
    <circle cx="552.1" cy="475.8" r="4" fill="#dc2626" stroke="#fff" stroke-width="2"/>
    <text x="552.1" y="467.8" text-anchor="middle" font-size="10" fill="#374151">Westmont</text>
    <circle cx="257.9" cy="387.6" r="4" fill="#dc2626" stroke="#fff" stroke-width="2"/>
    <text x="257.9" y="379.6" text-anchor="middle" font-size="10" fill="#374151">30th Street</text>
    <circle cx="485.5" cy="261.9" r="4" fill="#dc2626" stroke="#fff" stroke-width="2"/>
    <circle cx="350.7" cy="377.4" r="4" fill="#dc2626" stroke="#fff" stroke-width="2"/>
    <text x="350.7" y="369.4" text-anchor="middle" font-size="10" fill="#374151">Spring Garden</text>
    <circle cx="629.0" cy="544.1" r="4" fill="#dc2626" stroke="#fff" stroke-width="2"/>
    <text x="629.0" y="536.1" text-anchor="middle" font-size="10" fill="#374151">Woodcrest</text>
    <circle cx="455.0" cy="447.0" r="4" fill="#dc2626" stroke="#fff" stroke-width="2"/>
    <text x="455.0" y="439.0" text-anchor="middle" font-size="10" fill="#374151">Ferry Avenue</text>
    <circle cx="321.8" cy="394.7" r="4" fill="#dc2626" stroke="#fff" stroke-width="2"/>
    <text x="321.8" y="386.7" text-anchor="middle" font-size="10" fill="#374151">8th Street</text>
    <circle cx="322.4" cy="394.5" r="4" fill="#dc2626" stroke="#fff" stroke-width="2"/>
    <text x="322.4" y="386.5" text-anchor="middle" font-size="10" fill="#374151">8th & Market</text>
    <circle cx="343.3" cy="396.9" r="4" fill="#dc2626" stroke="#fff" stroke-width="2"/>
    <text x="343.3" y="388.9" text-anchor="middle" font-size="10" fill="#374151">2nd Street</text>
    <circle cx="312.0" cy="393.5" r="4" fill="#dc2626" stroke="#fff" stroke-width="2"/>
    <text x="312.0" y="385.5" text-anchor="middle" font-size="10" fill="#374151">11th Street</text>
    <circle cx="332.4" cy="395.8" r="4" fill="#dc2626" stroke="#fff" stroke-width="2"/>
    <text x="332.4" y="387.8" text-anchor="middle" font-size="10" fill="#374151">5th Street</text>
    <circle cx="305.2" cy="392.8" r="4" fill="#dc2626" stroke="#fff" stroke-width="2"/>
    <text x="305.2" y="384.8" text-anchor="middle" font-size="10" fill="#374151">13th Street</text>
    <circle cx="297.4" cy="392.0" r="4" fill="#dc2626" stroke="#fff" stroke-width="2"/>
    <text x="297.4" y="384.0" text-anchor="middle" font-size="10" fill="#374151">15th Street</text>
    <circle cx="218.3" cy="383.5" r="4" fill="#dc2626" stroke="#fff" stroke-width="2"/>
    <text x="218.3" y="375.5" text-anchor="middle" font-size="10" fill="#374151">40th Street</text>
    <circle cx="299.0" cy="399.0" r="4" fill="#dc2626" stroke="#fff" stroke-width="2"/>
    <text x="299.0" y="391.0" text-anchor="middle" font-size="10" fill="#374151">Walnut-Locust</text>
    <circle cx="299.4" cy="391.1" r="4" fill="#dc2626" stroke="#fff" stroke-width="2"/>
    <text x="299.4" y="383.1" text-anchor="middle" font-size="10" fill="#374151">City Hall</text>
    <circle cx="284.6" cy="457.9" r="4" fill="#dc2626" stroke="#fff" stroke-width="2"/>
    <text x="284.6" y="449.9" text-anchor="middle" font-size="10" fill="#374151">Oregon</text>
    <circle cx="317.0" cy="328.4" r="4" fill="#dc2626" stroke="#fff" stroke-width="2"/>
    <text x="317.0" y="320.4" text-anchor="middle" font-size="10" fill="#374151">Susquehanna-Dauphin</text>
    <circle cx="322.2" cy="395.1" r="4" fill="#dc2626" stroke="#fff" stroke-width="2"/>
    <text x="322.2" y="387.1" text-anchor="middle" font-size="10" fill="#374151">8th & Market</text>
  </g>
</svg>