<?xml version="1.0" encoding="UTF-8"?>
<svg width="800" height="600" xmlns="http://www.w3.org/2000/svg">
  <title>Porto Alegre Subway Map</title>
  <rect width="100%" height="100%" fill="#f8f9fa"/>

  <!-- 지하철 선로 -->
  <g stroke="#2563eb" stroke-width="2" fill="none" opacity="0.8">
    <polyline points="340.9,245.1 339.3,247.6 331.1,258.5 330.4,259.4 311.8,284.7 310.6,286.0 308.2,287.5 300.5,290.4 297.6,291.8"/>
    <polyline points="352.1,223.0 351.0,223.8"/>
    <polyline points="379.7,218.9 364.3,219.4 362.5,219.6 358.9,220.6"/>
    <polyline points="399.6,218.3 393.6,218.5"/>
    <polyline points="466.5,158.2 466.4,158.2 456.7,180.6 449.9,190.4"/>
    <polyline points="452.3,187.1 451.3,188.7 451.1,189.1"/>
    <polyline points="451.3,188.7 451.8,188.2 452.5,187.2"/>
    <polyline points="389.7,218.6 385.3,218.7"/>
    <polyline points="385.3,218.7 381.0,218.8 379.7,218.9"/>
    <polyline points="449.3,190.2 452.2,186.1 454.4,183.2 457.0,179.2 464.0,163.5 465.0,160.5 466.1,158.1"/>
    <polyline points="393.6,218.2 399.6,218.2"/>
    <polyline points="379.8,218.7 385.3,218.4"/>
    <polyline points="385.3,218.4 389.7,218.3"/>
    <polyline points="352.0,222.9 353.6,222.0 355.9,221.1 358.8,220.6"/>
    <polyline points="350.9,223.8 352.0,222.9"/>
    <polyline points="256.6,305.0 249.1,307.6"/>
    <polyline points="297.5,291.7 298.8,291.0 300.4,290.3 308.1,287.4 310.5,285.9 311.7,284.7 330.3,259.4 339.1,247.5 340.6,245.0"/>
    <polyline points="263.2,303.7 259.8,304.2 258.4,304.4 256.6,305.0"/>
    <polyline points="256.6,305.0 258.4,304.4 259.7,304.0 263.1,303.5"/>
    <polyline points="428.5,209.1 429.7,208.0 445.0,196.5 446.7,194.7 447.0,193.7"/>
    <polyline points="475.7,93.1 475.6,91.1 472.5,47.8 472.3,44.1"/>
    <polyline points="475.4,132.2 475.3,130.9"/>
    <polyline points="475.5,130.9 475.5,132.2"/>
    <polyline points="472.8,44.1 473.0,47.8 476.0,91.1 476.1,93.1"/>
    <polyline points="455.4,181.2 456.0,179.4 456.5,177.6 456.8,176.7 458.9,171.6"/>
    <polyline points="453.7,172.9 454.5,171.0"/>
    <polyline points="462.2,165.4 461.7,167.4 461.0,168.9 457.1,178.0"/>
    <polyline points="460.1,167.8 458.5,171.1"/>
    <polyline points="458.5,165.9 457.4,167.0 456.0,168.6 452.1,173.1"/>
    <polyline points="453.5,174.2 456.0,168.6"/>
    <polyline points="462.6,164.2 461.7,165.7 460.6,167.2 460.1,167.8 459.1,169.1 458.5,169.8 457.5,170.9 457.1,171.6 456.4,173.4"/>
    <polyline points="461.0,164.4 459.2,165.7 458.3,166.4 457.7,167.5 457.3,169.2 456.9,170.8 456.4,171.9 454.7,176.1"/>
    <polyline points="463.7,162.2 462.1,164.0 460.2,165.9"/>
    <polyline points="467.2,155.5 466.4,156.6 464.8,160.1 463.7,162.2 462.6,164.2 462.2,165.4 461.6,166.8 459.7,171.1 458.0,175.3 456.2,179.5 455.4,181.2 454.4,183.2"/>
    <polyline points="452.7,179.2 453.9,176.4 455.2,173.4 456.5,170.5"/>
    <polyline points="358.8,220.6 362.4,219.5 364.3,219.3 379.8,218.7"/>
    <polyline points="358.9,220.6 356.0,221.2 353.7,222.1 352.1,223.0"/>
    <polyline points="297.6,291.8 295.2,293.4 294.0,293.9 269.0,302.6 267.6,303.0 263.2,303.7"/>
    <polyline points="263.1,303.5 267.5,302.9 269.0,302.6 293.9,293.8 295.0,293.3 297.5,291.7"/>
    <polyline points="340.6,245.0 341.9,242.8 350.9,223.8"/>
    <polyline points="351.0,223.8 342.2,242.8 340.9,245.1"/>
    <polyline points="393.6,218.5 389.7,218.6"/>
    <polyline points="389.7,218.3 393.6,218.2"/>
    <polyline points="399.6,218.2 406.6,218.0 408.1,218.0 410.4,217.7 413.0,217.3 415.9,216.6 419.8,215.2 429.5,207.8 439.4,200.5 444.8,196.4 446.4,194.6 447.0,193.7 447.4,193.1 448.5,191.2 449.3,190.2"/>
    <polyline points="449.9,190.4 447.2,194.3 445.2,196.6 439.9,200.8 429.9,208.1 428.5,209.1 419.8,215.3 416.0,216.7 413.0,217.5 410.5,217.9 408.1,218.1 399.6,218.3"/>
    <polyline points="466.1,158.1 467.2,155.5 468.0,154.2 468.7,152.5 470.5,148.4 472.8,143.3 474.0,140.5 474.7,138.7 475.0,137.9 475.2,136.9 475.4,135.8 475.4,132.2"/>
    <polyline points="475.5,132.2 475.6,135.8 475.0,138.7 466.5,158.2"/>
    <polyline points="475.3,130.9 475.3,130.6 475.2,125.3 475.2,122.6 475.4,120.4 475.8,118.3 476.6,114.1 476.9,112.5 476.0,97.9 475.7,93.1"/>
    <polyline points="476.1,93.1 476.4,97.9 477.1,112.4 475.6,120.2 475.4,122.8 475.5,130.9"/>
  </g>

  <!-- 지하철 역 -->
  <g>
    <circle cx="466.3" cy="158.1" r="3" fill="#dc2626" stroke="#fff" stroke-width="1"/>
    <circle cx="475.9" cy="93.1" r="3" fill="#dc2626" stroke="#fff" stroke-width="1"/>
    <circle cx="389.7" cy="218.5" r="3" fill="#dc2626" stroke="#fff" stroke-width="1"/>
    <circle cx="340.7" cy="245.1" r="3" fill="#dc2626" stroke="#fff" stroke-width="1"/>
    <circle cx="297.5" cy="291.7" r="3" fill="#dc2626" stroke="#fff" stroke-width="1"/>
    <circle cx="263.1" cy="303.6" r="3" fill="#dc2626" stroke="#fff" stroke-width="1"/>
    <circle cx="478.9" cy="195.8" r="3" fill="#dc2626" stroke="#fff" stroke-width="1"/>
    <circle cx="449.6" cy="190.3" r="3" fill="#dc2626" stroke="#fff" stroke-width="1"/>
  </g>
</svg>