<?xml version="1.0" encoding="UTF-8"?>
<svg width="800" height="600" viewBox="0 0 800 600" 
     xmlns="http://www.w3.org/2000/svg">
  <title>Prague Subway Map</title>
  <rect width="100%" height="100%" fill="#f8f9fa"/>

  <!-- 지하철 선로 -->
  <g id="subway-lines" stroke="#2563eb" stroke-width="3" fill="none">
    <polyline points="140.2,392.6 140.3,392.5 140.5,392.4 140.6,392.3 140.8,392.2 141.0,392.1 141.3,392.0 141.8,391.9 142.2,391.9 142.5,392.0 142.7,392.0 143.0,392.1 143.2,392.3 143.4,392.4 143.6,392.5 143.8,392.7 143.9,392.9 144.1,393.1 144.5,393.9 146.7,398.3" opacity="0.8"/>
    <polyline points="383.1,199.8 381.3,200.6 380.4,201.1 379.6,201.4 378.4,201.8 377.8,201.9 377.3,202.0 376.1,202.1 370.9,202.2 369.4,202.4 368.9,202.4 368.5,202.5 368.0,202.6 367.5,202.8 367.0,202.9 366.6,203.1 366.1,203.3 365.7,203.5 365.2,203.7 364.8,204.0 364.4,204.2 364.0,204.5 363.1,205.2 362.2,205.9 361.2,207.0 360.2,208.2 359.0,210.0 358.3,211.5 357.7,213.1 357.3,214.3 356.8,216.1 356.6,217.8 356.5,218.4 356.4,219.0 356.4,219.6 356.4,220.2 356.4,220.8 356.4,221.4 356.4,222.0 356.5,222.6 356.5,223.2 356.6,223.7 356.9,226.0 357.4,228.1 357.5,228.7 357.7,229.3 357.8,229.9 358.0,230.5 358.2,231.0 358.4,231.6 358.6,232.2 358.9,232.7 359.2,233.3 359.5,233.9 359.8,234.4 360.1,234.9 361.3,237.3 362.6,239.9 363.1,240.8 363.1,241.0" opacity="0.8"/>
    <polyline points="133.5,399.1 134.7,398.2 134.8,398.1 134.9,398.0 135.0,397.9 135.1,397.8 135.2,397.7 135.4,397.5" opacity="0.8"/>
    <polyline points="217.4,410.3 217.0,410.6 216.7,410.9 216.3,411.2 216.0,411.5 215.7,411.9 215.5,412.2 215.2,412.6 215.0,413.0 214.7,413.6 214.4,414.3 213.6,416.3 212.6,418.7 212.3,419.3 211.9,419.9 211.8,420.2 211.6,420.5 211.4,420.8 211.3,421.0" opacity="0.8"/>
    <polyline points="563.4,241.9 561.2,242.5 561.0,242.6" opacity="0.8"/>
    <polyline points="537.7,248.4 534.6,249.4 533.5,249.7 532.4,249.9 531.3,249.9 530.5,249.8 529.8,249.7 529.0,249.5 525.5,248.2 525.1,248.0 524.6,247.9 524.2,247.8 523.8,247.7 523.4,247.6 523.0,247.5 522.6,247.5 522.2,247.5 521.8,247.5 521.1,247.5 520.0,247.6 512.1,249.1 510.8,249.3 509.8,249.3 508.8,249.3 507.9,249.2 507.0,249.1 506.0,248.9 505.1,248.7" opacity="0.8"/>
    <polyline points="138.9,393.9 139.0,393.8 139.6,393.2" opacity="0.8"/>
    <polyline points="135.5,397.5 135.4,397.6 135.3,397.7 135.2,397.9 135.1,398.0 135.0,398.1 134.9,398.3 134.7,398.4 134.0,399.0" opacity="0.8"/>
    <polyline points="138.1,395.0 137.5,395.7 137.4,395.8 137.3,395.9 137.2,396.0 137.1,396.2 137.0,396.3 136.9,396.5 136.8,396.6 136.7,396.8 136.6,397.0 136.6,397.2 136.5,397.4 136.5,397.6 136.4,397.7 136.4,397.9 136.4,398.1 136.3,398.3 136.3,398.4 136.3,398.7 136.3,398.9 136.3,399.1 136.3,399.3 136.3,399.5 136.4,399.8 136.4,400.1 136.5,400.4 136.5,400.8 136.7,401.8 136.8,402.6 136.9,403.0" opacity="0.8"/>
    <polyline points="134.8,402.1 134.9,402.0 135.0,401.9 135.0,401.8 135.1,401.7 135.1,401.5 135.2,401.3 135.4,400.8 135.6,400.1" opacity="0.8"/>
    <polyline points="131.9,407.5 135.9,406.2" opacity="0.8"/>
    <polyline points="471.8,347.7 471.9,347.1 472.0,346.9" opacity="0.8"/>
    <polyline points="471.7,355.4 471.5,355.2 471.5,355.1 471.4,354.9 471.3,354.8 471.2,354.7 471.2,354.5 471.1,354.3 471.1,354.2 471.0,354.0 471.0,353.8 470.9,353.7 470.9,353.5 470.9,353.3 470.9,353.1 470.9,353.0 470.8,352.9 470.8,352.8 470.9,352.6 470.9,352.5 470.9,352.3" opacity="0.8"/>
    <polyline points="473.6,336.6 472.3,341.9" opacity="0.8"/>
    <polyline points="471.7,347.8 471.8,347.5 471.8,347.3 471.9,347.2 471.9,347.1 471.9,347.0 472.0,346.9" opacity="0.8"/>
    <polyline points="473.2,342.3 474.5,336.9" opacity="0.8"/>
    <polyline points="474.5,342.8 475.8,337.4" opacity="0.8"/>
    <polyline points="473.9,342.6 475.3,337.2" opacity="0.8"/>
    <polyline points="474.7,343.7 474.8,343.6 474.9,343.5 475.2,343.0 475.3,342.9 475.3,342.8 475.4,342.7 475.4,342.6 475.5,342.4 475.5,342.3 475.6,341.9 476.4,338.7" opacity="0.8"/>
    <polyline points="474.7,343.7 475.0,343.4 475.2,343.2 475.3,343.1 475.4,343.1 475.4,343.0 475.6,342.9 475.6,342.8 475.7,342.6 475.8,342.5 475.8,342.4 475.8,342.3 475.9,342.2 476.2,340.9" opacity="0.8"/>
    <polyline points="471.9,338.2 471.8,338.5 471.1,340.6 470.9,341.3 470.9,341.5 470.8,341.7 470.8,341.9 470.7,342.2 470.7,342.3 470.6,342.6 470.6,342.8 470.6,343.2 470.6,343.4 470.6,343.8 470.6,344.2 470.6,344.5 470.7,344.9 470.8,345.3 470.9,345.6 471.1,346.0 471.3,346.4 471.4,346.7" opacity="0.8"/>
    <polyline points="472.4,346.1 472.5,346.0 472.6,346.0 472.6,345.9 472.7,345.8 472.8,345.7 472.8,345.7 472.9,345.7 473.1,345.5 474.9,344.1 475.1,343.9 475.7,343.4 476.2,342.9 476.7,342.5 476.9,342.3 477.4,341.8 477.8,341.2 478.0,341.0" opacity="0.8"/>
    <polyline points="478.0,341.0 477.9,341.1 477.8,341.3 477.7,341.5 477.6,341.7 477.5,341.8 477.5,341.9 477.4,342.1 477.4,342.2 477.3,342.4 477.3,342.5 477.3,342.7 477.3,342.8 477.3,343.0 477.3,343.2 477.3,343.3 477.3,343.5 477.4,343.7 477.4,343.8 477.5,344.0 477.6,344.4 477.7,344.8" opacity="0.8"/>
    <polyline points="475.1,343.9 475.2,343.8 475.4,343.7 475.5,343.7 475.6,343.6 475.7,343.6 475.8,343.6 475.9,343.5 476.1,343.5 476.2,343.5 476.3,343.5 476.4,343.6 476.6,343.6 476.7,343.6 476.8,343.7 476.9,343.7 477.0,343.8 477.1,343.9 477.2,344.0 477.3,344.1 477.4,344.1 477.5,344.2 477.5,344.4 477.6,344.5 477.7,344.6 477.7,344.8" opacity="0.8"/>
    <polyline points="478.0,341.0 478.3,340.7 478.5,340.5 478.6,340.4 478.7,340.3 478.8,340.2 478.9,340.1 479.0,340.1 479.2,340.0 479.3,339.9 479.6,339.9 481.1,339.5 482.0,339.2 483.2,338.9 483.7,338.8 483.9,338.7 484.1,338.7 484.2,338.6 484.4,338.6 484.7,338.6 485.6,338.5 486.0,338.4 486.3,338.4 486.6,338.4 486.8,338.3 487.0,338.3 487.2,338.3 487.4,338.2 487.6,338.1 487.9,338.0 488.2,337.8 488.5,337.7 488.8,337.6 489.1,337.5 489.3,337.4 489.6,337.3" opacity="0.8"/>
    <polyline points="393.1,432.3 393.7,432.4 394.0,432.4 394.2,432.5" opacity="0.8"/>
    <polyline points="402.7,430.4 402.9,430.3 403.0,430.2 403.4,430.0 403.6,429.9 403.7,429.9 403.8,429.7 404.1,429.5" opacity="0.8"/>
    <polyline points="404.2,430.6 404.5,430.6 404.6,430.6 404.7,430.6 404.8,430.6 404.9,430.7 405.0,430.7 405.0,430.8 405.1,430.8 405.2,430.9 405.4,431.1" opacity="0.8"/>
    <polyline points="397.2,434.1 397.3,434.1 397.6,434.1 397.7,434.1 397.9,434.0 398.0,434.0 398.1,433.9 398.3,433.9 398.5,433.8 398.6,433.7 398.8,433.6 399.0,433.5 399.1,433.4 399.3,433.3 399.4,433.1 399.5,433.1" opacity="0.8"/>
    <polyline points="403.6,431.0 403.9,431.1 404.1,431.2 404.2,431.2 404.3,431.3 404.4,431.3 404.5,431.4 404.5,431.5 404.9,431.9" opacity="0.8"/>
    <polyline points="403.5,431.0 403.6,431.1 403.7,431.2 404.9,432.5" opacity="0.8"/>
    <polyline points="404.3,430.1 404.5,430.1 404.6,430.0 404.7,430.0 404.8,429.9 404.8,429.9 404.9,429.8 404.9,429.7 405.0,429.6 405.1,429.5 405.2,429.4" opacity="0.8"/>
    <polyline points="401.7,431.2 401.7,431.2 402.4,430.6 402.7,430.4" opacity="0.8"/>
    <polyline points="403.0,430.6 403.1,430.6 403.2,430.5 403.3,430.5 403.5,430.5 403.5,430.5" opacity="0.8"/>
    <polyline points="402.3,430.9 402.5,430.8 402.6,430.8 402.6,430.8 402.7,430.8 402.8,430.8 402.9,430.8 403.0,430.8 403.0,430.8 403.1,430.8 403.2,430.9 403.4,430.9 403.5,431.0" opacity="0.8"/>
    <polyline points="404.1,430.0 404.3,429.9 404.4,429.8 404.5,429.8 404.6,429.7 404.6,429.7 404.7,429.6 404.8,429.5 405.0,429.2" opacity="0.8"/>
    <polyline points="403.4,428.8 403.5,428.5 403.7,428.2 403.9,428.0 403.9,427.9" opacity="0.8"/>
    <polyline points="403.5,429.8 403.6,429.7 403.7,429.5 403.8,429.4 403.9,429.3 404.0,429.1 404.4,428.5" opacity="0.8"/>
    <polyline points="401.7,431.2 401.8,431.1 401.9,431.1 402.0,431.0 402.0,431.0 402.3,430.9" opacity="0.8"/>
    <polyline points="402.9,429.3 403.0,429.1 403.0,429.0 403.0,428.9 403.0,428.8 403.1,428.6 403.1,428.4 403.1,428.3 403.1,428.2 403.1,428.1 403.2,428.0 403.2,427.9 403.2,427.9 403.3,427.8 403.3,427.7 403.3,427.6 403.4,427.5 403.4,427.5 403.5,427.4" opacity="0.8"/>
    <polyline points="403.5,430.5 403.6,430.6 403.6,430.6 403.7,430.6 404.0,430.7 404.1,430.7 404.2,430.8 404.3,430.8" opacity="0.8"/>
    <polyline points="354.7,390.4 354.8,390.5 354.9,390.7 355.2,391.1 355.9,392.0" opacity="0.8"/>
    <polyline points="349.6,357.2 349.6,358.1 349.9,370.3" opacity="0.8"/>
    <polyline points="484.5,339.5 483.0,340.2" opacity="0.8"/>
    <polyline points="484.4,339.1 483.9,339.4" opacity="0.8"/>
    <polyline points="484.6,339.7 483.1,340.5" opacity="0.8"/>
    <polyline points="484.6,340.0 484.6,340.0 483.1,340.7" opacity="0.8"/>
    <polyline points="470.8,352.0 470.8,351.8 471.0,351.3 471.0,351.1" opacity="0.8"/>
    <polyline points="471.4,346.7 471.6,347.0 471.9,347.3 472.3,347.9" opacity="0.8"/>
    <polyline points="472.6,342.1 473.9,336.7" opacity="0.8"/>
  </g>

  <!-- 지하철 역 -->
  <g id="subway-stations">
    <circle cx="349.6" cy="340.0" r="4" fill="#dc2626" stroke="#fff" stroke-width="2"/>
    <text x="349.6" y="332.0" text-anchor="middle" font-size="10" fill="#374151">I. P. Pavlova</text>
    <circle cx="384.4" cy="199.3" r="4" fill="#dc2626" stroke="#fff" stroke-width="2"/>
    <text x="384.4" y="191.3" text-anchor="middle" font-size="10" fill="#374151">Kobylisy</text>
    <circle cx="355.2" cy="314.1" r="4" fill="#dc2626" stroke="#fff" stroke-width="2"/>
    <text x="355.2" y="306.1" text-anchor="middle" font-size="10" fill="#374151">Hlavní nádraží</text>
    <circle cx="349.9" cy="371.5" r="4" fill="#dc2626" stroke="#fff" stroke-width="2"/>
    <text x="349.9" y="363.5" text-anchor="middle" font-size="10" fill="#374151">Vyšehrad</text>
    <circle cx="376.4" cy="424.5" r="4" fill="#dc2626" stroke="#fff" stroke-width="2"/>
    <text x="376.4" y="416.5" text-anchor="middle" font-size="10" fill="#374151">Budějovická</text>
    <circle cx="391.7" cy="431.8" r="4" fill="#dc2626" stroke="#fff" stroke-width="2"/>
    <text x="391.7" y="423.8" text-anchor="middle" font-size="10" fill="#374151">Kačerov</text>
    <circle cx="417.6" cy="443.9" r="4" fill="#dc2626" stroke="#fff" stroke-width="2"/>
    <text x="417.6" y="435.9" text-anchor="middle" font-size="10" fill="#374151">Roztyly</text>
    <circle cx="438.0" cy="460.8" r="4" fill="#dc2626" stroke="#fff" stroke-width="2"/>
    <text x="438.0" y="452.8" text-anchor="middle" font-size="10" fill="#374151">Chodov</text>
    <circle cx="464.2" cy="471.2" r="4" fill="#dc2626" stroke="#fff" stroke-width="2"/>
    <text x="464.2" y="463.2" text-anchor="middle" font-size="10" fill="#374151">Opatov</text>
    <circle cx="435.7" cy="193.6" r="4" fill="#dc2626" stroke="#fff" stroke-width="2"/>
    <text x="435.7" y="185.6" text-anchor="middle" font-size="10" fill="#374151">Střížkov</text>
    <circle cx="448.6" cy="212.9" r="4" fill="#dc2626" stroke="#fff" stroke-width="2"/>
    <text x="448.6" y="204.9" text-anchor="middle" font-size="10" fill="#374151">Prosek</text>
    <circle cx="474.4" cy="197.6" r="4" fill="#dc2626" stroke="#fff" stroke-width="2"/>
    <text x="474.4" y="189.6" text-anchor="middle" font-size="10" fill="#374151">Letňany</text>
    <circle cx="363.9" cy="242.1" r="4" fill="#dc2626" stroke="#fff" stroke-width="2"/>
    <text x="363.9" y="234.1" text-anchor="middle" font-size="10" fill="#374151">Nádraží Holešovice</text>
    <circle cx="361.6" cy="267.0" r="4" fill="#dc2626" stroke="#fff" stroke-width="2"/>
    <text x="361.6" y="259.0" text-anchor="middle" font-size="10" fill="#374151">Vltavská</text>
    <circle cx="191.4" cy="421.0" r="4" fill="#dc2626" stroke="#fff" stroke-width="2"/>
    <text x="191.4" y="413.0" text-anchor="middle" font-size="10" fill="#374151">Luka</text>
    <circle cx="406.6" cy="192.3" r="4" fill="#dc2626" stroke="#fff" stroke-width="2"/>
    <text x="406.6" y="184.3" text-anchor="middle" font-size="10" fill="#374151">Ládví</text>
    <circle cx="472.8" cy="338.0" r="4" fill="#dc2626" stroke="#fff" stroke-width="2"/>
    <text x="472.8" y="330.0" text-anchor="middle" font-size="10" fill="#374151">Depo Hostivař</text>
    <circle cx="462.4" cy="356.6" r="4" fill="#dc2626" stroke="#fff" stroke-width="2"/>
    <text x="462.4" y="348.6" text-anchor="middle" font-size="10" fill="#374151">Skalka</text>
    <circle cx="437.4" cy="343.9" r="4" fill="#dc2626" stroke="#fff" stroke-width="2"/>
    <text x="437.4" y="335.9" text-anchor="middle" font-size="10" fill="#374151">Strašnická</text>
    <circle cx="415.9" cy="329.2" r="4" fill="#dc2626" stroke="#fff" stroke-width="2"/>
    <text x="415.9" y="321.2" text-anchor="middle" font-size="10" fill="#374151">Želivského</text>
    <circle cx="395.9" cy="329.3" r="4" fill="#dc2626" stroke="#fff" stroke-width="2"/>
    <text x="395.9" y="321.3" text-anchor="middle" font-size="10" fill="#374151">Flora</text>
    <circle cx="379.3" cy="330.5" r="4" fill="#dc2626" stroke="#fff" stroke-width="2"/>
    <text x="379.3" y="322.5" text-anchor="middle" font-size="10" fill="#374151">Jiřího z Poděbrad</text>
    <circle cx="351.5" cy="325.5" r="4" fill="#dc2626" stroke="#fff" stroke-width="2"/>
    <text x="351.5" y="317.5" text-anchor="middle" font-size="10" fill="#374151">Muzeum</text>
    <circle cx="341.0" cy="313.6" r="4" fill="#dc2626" stroke="#fff" stroke-width="2"/>
    <text x="341.0" y="305.6" text-anchor="middle" font-size="10" fill="#374151">Můstek</text>
    <circle cx="331.2" cy="300.8" r="4" fill="#dc2626" stroke="#fff" stroke-width="2"/>
    <text x="331.2" y="292.8" text-anchor="middle" font-size="10" fill="#374151">Staroměstská</text>
    <circle cx="319.1" cy="291.5" r="4" fill="#dc2626" stroke="#fff" stroke-width="2"/>
    <text x="319.1" y="283.5" text-anchor="middle" font-size="10" fill="#374151">Malostranská</text>
    <circle cx="310.2" cy="274.7" r="4" fill="#dc2626" stroke="#fff" stroke-width="2"/>
    <text x="310.2" y="266.7" text-anchor="middle" font-size="10" fill="#374151">Hradčanská</text>
    <circle cx="295.5" cy="266.2" r="4" fill="#dc2626" stroke="#fff" stroke-width="2"/>
    <text x="295.5" y="258.2" text-anchor="middle" font-size="10" fill="#374151">Dejvická</text>
    <circle cx="251.7" cy="272.1" r="4" fill="#dc2626" stroke="#fff" stroke-width="2"/>
    <text x="251.7" y="264.1" text-anchor="middle" font-size="10" fill="#374151">Bořislavka</text>
    <circle cx="230.8" cy="279.0" r="4" fill="#dc2626" stroke="#fff" stroke-width="2"/>
    <text x="230.8" y="271.0" text-anchor="middle" font-size="10" fill="#374151">Nádraží Veleslavín</text>
    <circle cx="225.8" cy="305.3" r="4" fill="#dc2626" stroke="#fff" stroke-width="2"/>
    <text x="225.8" y="297.3" text-anchor="middle" font-size="10" fill="#374151">Petřiny</text>
    <circle cx="220.4" cy="337.3" r="4" fill="#dc2626" stroke="#fff" stroke-width="2"/>
    <text x="220.4" y="329.3" text-anchor="middle" font-size="10" fill="#374151">Nemocnice Motol</text>
    <circle cx="362.6" cy="295.1" r="4" fill="#dc2626" stroke="#fff" stroke-width="2"/>
    <text x="362.6" y="287.1" text-anchor="middle" font-size="10" fill="#374151">Florenc</text>
    <circle cx="351.0" cy="323.0" r="4" fill="#dc2626" stroke="#fff" stroke-width="2"/>
    <text x="351.0" y="315.0" text-anchor="middle" font-size="10" fill="#374151">Muzeum</text>
    <circle cx="261.7" cy="397.0" r="4" fill="#dc2626" stroke="#fff" stroke-width="2"/>
    <text x="261.7" y="389.0" text-anchor="middle" font-size="10" fill="#374151">Jinonice</text>
    <circle cx="236.1" cy="406.4" r="4" fill="#dc2626" stroke="#fff" stroke-width="2"/>
    <text x="236.1" y="398.4" text-anchor="middle" font-size="10" fill="#374151">Nové Butovice</text>
    <circle cx="222.5" cy="408.7" r="4" fill="#dc2626" stroke="#fff" stroke-width="2"/>
    <text x="222.5" y="400.7" text-anchor="middle" font-size="10" fill="#374151">Hůrka</text>
    <circle cx="204.6" cy="424.3" r="4" fill="#dc2626" stroke="#fff" stroke-width="2"/>
    <text x="204.6" y="416.3" text-anchor="middle" font-size="10" fill="#374151">Lužiny</text>
    <circle cx="169.4" cy="418.1" r="4" fill="#dc2626" stroke="#fff" stroke-width="2"/>
    <text x="169.4" y="410.1" text-anchor="middle" font-size="10" fill="#374151">Stodůlky</text>
    <circle cx="147.5" cy="399.6" r="4" fill="#dc2626" stroke="#fff" stroke-width="2"/>
    <text x="147.5" y="391.6" text-anchor="middle" font-size="10" fill="#374151">Zličín</text>
    <circle cx="311.3" cy="351.6" r="4" fill="#dc2626" stroke="#fff" stroke-width="2"/>
    <text x="311.3" y="343.6" text-anchor="middle" font-size="10" fill="#374151">Anděl</text>
    <circle cx="318.8" cy="377.1" r="4" fill="#dc2626" stroke="#fff" stroke-width="2"/>
    <text x="318.8" y="369.1" text-anchor="middle" font-size="10" fill="#374151">Smíchovské nádraží</text>
    <circle cx="287.8" cy="385.8" r="4" fill="#dc2626" stroke="#fff" stroke-width="2"/>
    <text x="287.8" y="377.8" text-anchor="middle" font-size="10" fill="#374151">Radlická</text>
    <circle cx="397.9" cy="276.1" r="4" fill="#dc2626" stroke="#fff" stroke-width="2"/>
    <text x="397.9" y="268.1" text-anchor="middle" font-size="10" fill="#374151">Invalidovna</text>
    <circle cx="380.8" cy="286.2" r="4" fill="#dc2626" stroke="#fff" stroke-width="2"/>
    <text x="380.8" y="278.2" text-anchor="middle" font-size="10" fill="#374151">Křižíkova</text>
    <circle cx="360.1" cy="294.4" r="4" fill="#dc2626" stroke="#fff" stroke-width="2"/>
    <text x="360.1" y="286.4" text-anchor="middle" font-size="10" fill="#374151">Florenc</text>
    <circle cx="350.1" cy="299.2" r="4" fill="#dc2626" stroke="#fff" stroke-width="2"/>
    <text x="350.1" y="291.2" text-anchor="middle" font-size="10" fill="#374151">Náměstí Republiky</text>
    <circle cx="339.5" cy="314.4" r="4" fill="#dc2626" stroke="#fff" stroke-width="2"/>
    <text x="339.5" y="306.4" text-anchor="middle" font-size="10" fill="#374151">Můstek</text>
    <circle cx="335.1" cy="324.1" r="4" fill="#dc2626" stroke="#fff" stroke-width="2"/>
    <text x="335.1" y="316.1" text-anchor="middle" font-size="10" fill="#374151">Národní třída</text>
    <circle cx="330.2" cy="339.3" r="4" fill="#dc2626" stroke="#fff" stroke-width="2"/>
    <text x="330.2" y="331.3" text-anchor="middle" font-size="10" fill="#374151">Karlovo náměstí</text>
    <circle cx="490.4" cy="462.8" r="4" fill="#dc2626" stroke="#fff" stroke-width="2"/>
    <text x="490.4" y="454.8" text-anchor="middle" font-size="10" fill="#374151">Háje</text>
    <circle cx="562.3" cy="242.3" r="4" fill="#dc2626" stroke="#fff" stroke-width="2"/>
    <text x="562.3" y="234.3" text-anchor="middle" font-size="10" fill="#374151">Černý Most</text>
    <circle cx="538.7" cy="248.2" r="4" fill="#dc2626" stroke="#fff" stroke-width="2"/>
    <text x="538.7" y="240.2" text-anchor="middle" font-size="10" fill="#374151">Rajská zahrada</text>
    <circle cx="504.1" cy="248.7" r="4" fill="#dc2626" stroke="#fff" stroke-width="2"/>
    <text x="504.1" y="240.7" text-anchor="middle" font-size="10" fill="#374151">Hloubětín</text>
    <circle cx="474.9" cy="238.2" r="4" fill="#dc2626" stroke="#fff" stroke-width="2"/>
    <text x="474.9" y="230.2" text-anchor="middle" font-size="10" fill="#374151">Kolbenova</text>
    <circle cx="452.7" cy="238.9" r="4" fill="#dc2626" stroke="#fff" stroke-width="2"/>
    <text x="452.7" y="230.9" text-anchor="middle" font-size="10" fill="#374151">Vysočanská</text>
    <circle cx="413.6" cy="256.4" r="4" fill="#dc2626" stroke="#fff" stroke-width="2"/>
    <text x="413.6" y="248.4" text-anchor="middle" font-size="10" fill="#374151">Palmovka</text>
    <circle cx="354.1" cy="389.5" r="4" fill="#dc2626" stroke="#fff" stroke-width="2"/>
    <text x="354.1" y="381.5" text-anchor="middle" font-size="10" fill="#374151">Pražského povstání</text>
    <circle cx="362.4" cy="337.3" r="4" fill="#dc2626" stroke="#fff" stroke-width="2"/>
    <text x="362.4" y="329.3" text-anchor="middle" font-size="10" fill="#374151">Náměstí Míru</text>
  </g>
</svg>