<?xml version="1.0" encoding="UTF-8"?>
<svg width="800" height="600" xmlns="http://www.w3.org/2000/svg">
  <title>Qingdao Subway Map</title>
  <rect width="100%" height="100%" fill="#f8f9fa"/>

  <!-- 지하철 선로 -->
  <g stroke="#2563eb" stroke-width="2" fill="none" opacity="0.8">
    <polyline points="383.2,232.8 383.3,205.5 383.5,178.3 372.7,171.2 370.6,168.5 368.7,165.7 368.5,161.4 370.9,157.3 375.8,153.3 382.2,150.3 387.6,147.8 396.6,145.7 407.8,143.4 440.1,138.2 455.3,135.6 470.2,132.3 483.3,129.0 495.5,124.1 505.9,119.2 520.0,111.6 536.3,102.5 583.2,79.6 604.0,69.1 625.0,59.6 680.8,37.0 689.9,33.9 720.3,23.7 749.5,14.0 779.4,4.8 884.3,-28.4 894.8,-31.4 909.3,-36.2 919.7,-40.5 928.2,-45.4 933.6,-54.9 936.4,-63.3 938.7,-70.9 939.4,-75.8 939.9,-78.8 941.2,-87.1 943.3,-99.6 938.7,-119.2 938.8,-121.4 939.3,-123.8 941.0,-128.1 942.1,-132.2 942.5,-133.9 942.3,-135.9 941.6,-137.9 940.3,-139.6 935.0,-142.9 924.6,-147.2 922.4,-148.0 911.0,-151.9 901.4,-154.1 774.2,-183.5 654.0,-210.2 621.4,-217.4 607.7,-220.3 598.2,-221.7 586.1,-222.7 572.9,-223.3 491.3,-227.0 455.2,-228.4 416.4,-230.0 408.7,-229.8 401.1,-229.0 394.3,-228.1"/>
    <polyline points="155.9,350.6 162.3,355.5 174.3,364.3 185.7,372.4 206.7,387.4 215.5,392.7 218.7,393.7 222.2,394.2 227.6,394.6 232.0,394.8 237.8,394.9 246.1,394.5 256.9,393.9 267.1,392.9 271.8,392.3 276.8,391.8 279.7,391.2 304.3,386.0 320.0,382.8 336.0,379.4 347.5,377.3 355.3,376.1 364.6,374.9 379.5,374.2 430.7,375.7 453.7,376.9 515.7,379.8 560.1,381.8 568.6,382.2 574.7,382.2 590.1,381.8 601.7,381.4 609.4,380.9 646.0,378.8 668.2,377.5 683.8,376.6 711.8,375.1 722.1,374.8 726.9,374.8 739.2,375.0 760.8,376.0 782.5,377.0 837.2,379.6 841.5,379.7 855.2,379.6 866.5,378.2 890.7,373.3 910.7,369.5 933.3,364.9 990.3,352.8 1015.1,347.8 1038.3,342.3 1093.2,329.5 1131.0,321.2 1146.1,317.4 1152.9,315.7 1164.3,312.6 1179.0,307.4 1185.4,304.7 1191.6,301.4 1196.9,298.3 1205.2,292.9 1229.3,276.9 1249.6,263.4 1264.2,253.6 1269.3,251.1 1275.2,248.8 1281.4,246.8 1292.4,244.2 1299.1,243.1 1311.6,241.7 1345.2,239.5 1355.3,238.7 1361.7,238.0 1369.6,236.8 1377.4,235.3 1387.1,232.9 1427.3,221.4 1433.9,219.5 1440.5,217.6 1444.1,216.0 1447.2,214.1 1450.0,211.7 1455.1,206.5 1457.1,203.7 1457.7,199.7 1457.5,195.8 1456.8,193.7 1454.6,191.3 1451.8,189.5 1448.2,186.8 1433.8,179.6 1424.8,175.1 1402.1,163.8 1374.7,150.3 1342.8,134.5 1306.0,116.7 1284.4,106.3 1237.0,83.5 1234.6,82.3 1208.3,69.6 1160.4,47.5 1146.5,40.7 1140.6,37.7 1135.7,33.4 1131.3,27.5 1130.3,22.9 1124.2,-6.3 1120.2,-21.1 1115.3,-42.3 1114.6,-45.0 1113.0,-48.9 1109.8,-55.1 1108.9,-59.7 1109.8,-65.4 1111.2,-73.5 1112.2,-78.3 1111.9,-80.0 1105.6,-87.9 1100.6,-93.6 1097.2,-98.8 1089.4,-109.3 1085.3,-112.4 1079.2,-115.3 1066.2,-119.1 1059.8,-120.2 1045.5,-122.7 1040.1,-123.2 1034.7,-123.3 1026.5,-123.4 992.5,-123.3 987.6,-123.4 981.6,-123.8 976.2,-124.3 970.8,-125.2 966.7,-126.1 957.8,-128.8 946.8,-133.6 935.2,-138.2 933.5,-138.6 924.1,-144.0 919.2,-147.5 912.8,-151.7 911.4,-154.4 910.2,-166.4 909.8,-173.7 910.1,-176.2 911.5,-178.7 919.1,-187.2 920.5,-189.5 921.8,-196.6 920.0,-200.4"/>
    <polyline points="-303.4,271.0 -256.6,278.5 -248.1,279.3 -223.3,280.9 -181.0,282.0 -120.2,280.3 -62.4,277.0 -59.2,277.0 -55.5,277.1 -52.5,277.6 -48.8,278.2 -45.9,279.0 -32.4,282.5 -25.5,284.3 -9.8,288.4 58.7,307.6 69.9,311.7 81.6,316.5 92.4,321.0 129.5,336.4 133.6,338.4 149.1,346.4 155.9,350.6"/>
    <polyline points="90.0,211.5 176.8,210.0 208.2,209.3 362.0,206.2 396.4,205.7 406.0,205.5 476.8,204.4 520.8,203.1 542.3,202.3 555.2,200.9 563.7,199.6 569.0,198.8 588.6,194.7 619.3,187.4 639.7,182.5 701.5,166.5 730.6,159.5 736.2,158.2 743.4,157.1 748.5,156.7 765.0,154.7 781.1,153.5 794.5,152.6 832.1,150.3 875.9,147.7 899.3,146.2 909.7,145.3 921.0,144.0 928.3,142.8 933.8,141.8 937.4,141.0 941.1,140.1 958.5,135.7 973.4,131.7 980.4,130.0 1034.4,120.0 1067.0,114.3 1095.5,109.2 1102.7,107.9 1181.0,93.5 1241.3,82.9 1252.3,80.9 1279.5,76.2 1325.8,68.3 1364.3,61.7 1369.3,60.5 1374.9,58.7 1379.6,56.7 1383.3,54.5 1385.5,52.7 1388.7,50.0 1391.4,47.3 1392.2,45.5 1392.9,43.5 1393.1,41.4 1393.4,39.4 1393.1,35.5 1392.4,30.6 1391.9,27.9 1392.3,26.4 1392.4,24.8 1400.1,15.9 1411.4,2.8 1416.7,-2.1 1423.9,-7.0 1429.4,-10.4 1433.8,-12.5 1437.6,-13.7 1446.5,-16.0 1461.5,-18.6 1470.7,-20.2 1532.5,-30.7 1555.1,-34.5 1576.2,-37.5 1596.9,-40.0 1606.3,-41.8 1616.3,-43.8 1633.4,-46.2 1642.8,-47.5 1654.6,-48.4 1669.6,-49.0 1694.0,-47.9 1710.9,-46.6 1716.0,-46.3 1766.6,-41.9 1851.9,-35.2 1915.3,-27.9 1926.7,-26.2 1940.4,-24.0 1957.2,-21.3 2020.4,-9.6 2030.7,-7.9 2040.2,-7.0 2055.3,-6.2 2141.9,-0.5 2147.2,-0.1 2155.3,0.6 2163.3,1.6 2175.7,3.4 2190.3,6.0 2205.2,8.7 2230.4,13.3 2281.0,25.6 2287.1,27.6 2291.4,29.3 2320.0,45.0 2330.8,51.1 2341.1,56.9 2383.1,80.0 2387.4,81.3 2390.5,81.8 2396.9,82.5 2404.9,83.0 2419.1,83.3 2431.9,82.9 2445.2,82.0 2475.9,77.7 2489.8,75.5 2502.7,73.5 2514.7,71.5 2522.0,70.5 2524.9,70.0 2539.5,67.3 2559.9,62.9 2578.4,59.0 2600.2,52.8 2618.8,49.1 2639.2,44.9 2651.2,41.9 2669.0,37.5 2682.1,33.6 2694.2,28.7 2718.1,17.1 2732.7,12.0 2749.8,8.3 2772.0,3.8 2814.3,-1.8 2839.2,-4.2 2878.0,-7.6 2897.8,-9.3 2949.6,-14.5 2983.3,-17.8 2992.9,-18.4 3001.6,-18.7 3010.2,-18.4 3016.1,-17.9 3020.6,-17.1 3024.6,-15.7 3030.4,-13.2 3033.6,-10.9 3034.8,-8.7 3036.8,-4.5 3039.2,3.5"/>
    <polyline points="275.6,-213.4 276.5,-210.3 276.5,-210.1 277.7,-206.2 278.1,-204.1 278.2,-202.1 277.9,-199.6 277.2,-197.8 276.2,-195.8 275.2,-194.1 269.5,-184.5 268.4,-183.0 266.5,-180.0 265.1,-177.3 263.3,-173.9 261.3,-169.6 260.1,-167.0 259.5,-163.6 259.4,-161.0 259.0,-157.7 259.0,-154.1 259.0,-150.8 259.2,-147.8 260.3,-124.9 260.4,-122.8 260.8,-121.1 261.9,-119.3 263.5,-118.0 265.8,-116.4 268.6,-115.1 271.8,-113.7 275.4,-112.8 283.6,-111.2 327.8,-106.6 333.7,-105.9 337.6,-105.0 340.8,-104.0 342.9,-102.6 344.0,-101.6 344.6,-100.1 344.7,-98.6 344.2,-97.3 343.4,-96.1 339.9,-92.6 335.3,-88.1 334.1,-86.8 332.0,-84.9 300.1,-71.1 297.0,-70.1 294.8,-69.5 291.4,-68.8 287.6,-68.0 272.8,-65.1 256.3,-61.8 252.9,-60.8 251.0,-60.0 248.8,-58.6 241.0,-53.1 234.3,-48.4 232.7,-46.6 226.3,-34.1 225.8,-32.2 225.4,-31.1 225.3,-30.3 223.8,-2.5 223.5,-0.5 222.6,1.5 221.6,3.0 220.0,4.7 218.3,6.3 215.2,8.2 184.9,24.5 180.5,26.7 174.1,29.7 171.1,31.0 167.9,32.2 162.4,33.9 155.3,36.1 151.6,37.5 142.4,40.9 128.8,45.9 125.2,47.4 121.8,49.1 119.6,50.4 117.6,51.9 95.0,69.9 92.2,72.1 90.2,73.4 86.9,75.6 82.0,79.0 79.1,81.0 76.6,82.7 73.5,84.6 66.8,88.6 60.7,92.3 58.6,93.7 57.1,95.0 56.4,96.2 56.0,97.1 55.8,98.2 55.8,99.3 57.8,120.8 60.4,144.3 61.0,150.7 61.8,158.6 66.5,207.8 66.6,208.9 66.2,209.6 65.6,210.4 61.7,214.2 60.6,215.3 59.7,216.1 58.4,217.3 57.8,217.9 54.3,221.4 40.7,233.9 10.8,263.0 6.8,265.8 -29.7,282.8 -44.2,289.5 -65.5,298.8 -94.1,311.0 -100.0,313.2 -103.4,314.2 -107.0,314.9 -118.8,315.9 -141.3,317.7 -158.8,319.2 -173.0,320.5 -179.1,320.9 -185.1,321.4 -188.5,321.6 -198.8,322.5 -256.3,326.3 -306.9,330.2 -313.1,330.7 -316.3,331.1 -318.7,331.4 -323.2,332.0 -326.9,332.7 -330.0,333.2 -333.2,333.5 -338.2,333.9 -348.3,334.5 -352.3,334.7 -361.0,335.2 -366.2,335.5 -370.9,335.8 -377.8,336.2 -380.9,336.4 -385.5,336.6 -387.6,336.7 -389.8,336.8 -391.8,336.8 -394.3,336.9 -398.1,336.9 -416.1,336.7 -419.7,336.8 -425.2,336.9 -431.5,337.3 -459.0,339.2 -462.4,339.5 -468.0,339.8 -472.3,340.1 -476.7,340.3 -481.3,340.5 -488.6,340.8 -494.5,341.0 -504.7,341.6 -511.4,342.2 -514.6,342.7 -516.9,343.1 -520.9,343.9 -527.4,345.5 -536.6,347.8 -539.1,348.6 -541.0,349.2 -546.6,351.6 -554.3,355.9 -555.7,358.8 -553.7,380.4 -553.4,383.1 -553.5,384.1 -554.1,386.4 -555.0,388.0 -558.0,390.0 -560.6,391.0 -563.5,391.8 -567.1,392.6 -570.5,393.3 -578.7,394.2 -590.8,395.2 -601.2,396.0 -615.6,397.5 -622.5,398.1 -627.4,398.5 -632.5,398.9 -639.4,399.4 -645.5,400.0 -656.1,401.6 -664.1,402.7 -666.1,403.1 -668.7,403.5 -672.1,404.2 -677.0,405.0 -686.8,406.5 -690.9,407.2 -692.7,407.6 -694.8,408.1 -696.1,408.5 -697.2,408.9 -699.0,409.7 -700.4,410.5 -704.6,412.8 -706.1,413.5 -707.6,414.0 -728.2,421.2 -729.5,421.6 -730.6,421.9 -731.8,422.2 -733.2,422.4 -734.8,422.7 -736.7,422.9 -738.3,423.1 -740.2,423.3 -741.4,423.4 -742.5,423.4 -744.0,423.6 -745.6,423.7 -748.3,423.8 -750.9,424.0 -751.5,424.0 -753.7,424.2 -756.9,424.3 -760.4,424.5 -764.5,424.7 -767.7,424.9 -770.0,425.0 -772.4,425.2 -774.5,425.5 -777.0,425.9 -779.7,426.4 -782.8,427.0 -787.6,428.1 -792.3,429.3 -820.2,436.8 -834.3,440.7 -838.8,442.0 -841.5,442.9 -844.4,444.2 -846.8,445.4 -849.3,446.8"/>
    <polyline points="-359.9,408.4 -372.0,404.7 -374.9,403.9 -377.9,403.5 -390.7,402.2 -393.4,401.7 -395.4,400.9 -396.6,400.1 -396.7,399.2 -378.2,378.3 -375.7,375.6 -360.6,360.8 -356.5,357.5 -355.6,356.6 -355.1,355.9 -354.8,355.0 -354.7,354.3 -360.2,346.1 -362.0,338.1 -363.0,336.6 -363.3,336.4 -363.4,336.2 -364.0,335.6 -368.6,333.0 -374.2,329.8 -376.2,328.7 -377.6,327.8 -378.7,326.0 -378.6,323.3 -377.7,320.7 -370.5,313.4 -366.1,307.5 -353.7,301.3 -341.1,296.5 -315.7,285.0 -296.9,277.8 -288.3,274.5 -284.6,273.6 -281.7,273.2 -279.2,272.9 -272.1,272.3 -261.4,271.6 -251.3,270.9 -241.9,270.4 -233.8,270.2 -225.7,270.2 -219.3,270.1 -215.2,269.9 -210.3,269.4 -202.9,268.3 -195.1,266.5 -176.6,261.7 -167.0,258.0 -146.8,250.3 -124.1,238.0 -114.8,227.4 -106.0,215.9 -100.8,210.8 -93.4,207.6 -86.0,205.2 -72.5,202.8 -64.5,201.7 -53.1,200.2 -45.8,199.1 -38.0,198.1 -34.1,197.4 -30.4,197.1 -25.7,196.9 -20.0,197.0 -12.3,197.4 -4.8,197.9 3.0,198.8 11.3,200.3 16.4,201.7 21.8,203.3 52.4,209.7 60.9,211.0 71.8,211.8 90.0,211.5"/>
    <polyline points="-546.9,387.3 -529.9,387.3 -520.5,387.2 -512.1,387.2 -491.3,388.1 -480.3,388.9 -475.7,389.3 -427.0,393.0 -383.0,397.0 -375.3,399.1 -371.7,401.1 -366.7,403.9 -354.1,407.6 -343.5,410.1 -336.3,410.8 -331.6,411.1 -319.5,411.7 -290.1,413.6 -267.5,414.3 -238.9,414.6 -214.3,414.1 -201.9,413.6 -194.5,413.1 -182.9,412.0 -166.5,410.3 -143.5,407.1 -136.9,406.2 -125.7,404.8 -113.0,403.8 -104.4,403.3 -98.7,403.0 -91.2,402.8 -85.7,403.0 -81.1,403.9 -75.1,405.2 -68.6,409.4 -64.5,413.8 -54.9,421.2 -49.4,425.4 -44.9,430.6 -40.2,435.1 -35.0,438.3 -29.0,441.0 -19.0,444.3 -8.7,445.6 -0.3,446.7 10.2,447.3 17.9,447.4 47.0,444.7 71.3,442.0 92.7,439.9 109.2,437.4 130.8,433.5 145.3,429.7 170.1,423.1 201.5,414.9 233.4,403.9 249.8,397.8 319.2,382.4 339.1,378.4 361.6,374.8 394.0,372.3 403.3,371.7 416.5,370.2 417.5,370.0 428.2,368.1 430.2,367.6 432.1,366.9 434.4,365.7 436.0,364.3 436.7,363.1 437.3,362.1 437.6,360.8 437.6,358.8 437.4,356.9 436.2,354.1 434.0,348.6 423.8,334.7 419.0,328.0 387.4,286.3 382.6,279.6 382.2,277.9 383.1,243.9 383.2,232.8"/>
    <polyline points="918.6,-200.3 920.6,-196.6 919.7,-189.5 918.4,-187.3 910.6,-179.1 909.1,-176.4 908.9,-174.7 908.9,-168.8 909.9,-159.6 910.3,-154.4 912.0,-151.3 919.2,-146.5 925.6,-142.4 932.6,-138.4 945.7,-133.4 957.0,-128.6 965.6,-126.0 970.4,-124.9 975.1,-124.2 980.6,-123.5 987.3,-123.2 993.9,-123.0 1026.6,-123.1 1034.1,-123.1 1039.8,-123.0 1045.1,-122.5 1059.0,-120.1 1065.7,-118.9 1078.8,-115.1 1084.7,-112.2 1088.8,-109.2 1096.4,-98.7 1100.4,-92.9 1110.9,-80.4 1111.5,-78.4 1109.2,-67.4 1108.2,-59.8 1109.1,-55.2 1112.4,-48.8 1115.6,-37.7 1123.4,-6.3 1129.6,22.9 1130.6,27.5 1135.0,33.4 1139.6,37.8 1149.3,42.8 1172.5,53.6 1205.2,68.7 1236.1,83.6 1305.2,116.8 1333.4,130.5 1367.7,147.7 1400.4,163.7 1415.8,171.2 1433.2,179.8 1447.6,186.8 1453.9,191.4 1456.1,193.8 1456.8,195.9 1456.8,199.8 1456.1,203.6 1454.3,206.4 1449.5,211.5 1446.7,213.8 1443.3,215.8 1439.8,217.3 1433.3,219.2 1426.2,221.2 1387.2,232.6 1376.6,235.1 1367.9,236.7 1357.4,238.1 1348.1,238.9 1336.4,239.6 1312.2,241.3 1301.8,242.3 1291.9,243.9 1281.8,246.2 1274.9,248.4 1268.5,250.9 1263.5,253.5 1248.8,263.2 1228.3,276.8 1209.1,289.6 1196.3,298.1 1190.8,301.2 1184.9,304.3 1178.0,307.2 1163.5,312.3 1152.4,315.4 1130.3,320.9 1090.8,329.5 1037.7,342.1 1014.3,347.5 990.1,352.3 932.6,364.5 910.3,369.1 890.1,373.2 865.7,378.0 854.7,379.3 843.4,379.4 837.3,379.3 800.1,377.5 739.3,374.7 727.0,374.4 722.1,374.4 712.1,374.7 667.8,377.1 609.4,380.6 602.8,381.0 589.9,381.5 569.0,381.9 517.1,379.5 465.0,377.0 453.7,376.5 440.2,375.8 418.0,375.0 379.4,373.9 364.3,374.6 354.8,375.7 347.0,376.9 330.2,379.4 318.2,381.8 306.3,384.2 275.6,391.1 256.2,393.5 237.9,394.4 227.8,394.2 219.8,393.4 216.1,392.1 207.8,387.0 175.7,364.2 157.0,350.5 150.3,346.0 133.4,337.2 93.4,320.7 70.7,311.2 58.9,307.0 18.5,295.7 -24.4,283.9 -31.6,282.0 -45.3,278.4 -51.6,277.3 -55.5,276.8 -59.7,276.7 -62.8,276.7 -120.3,280.0 -181.0,281.7 -223.2,280.6 -247.9,279.0 -256.2,278.2 -302.9,270.7"/>
    <polyline points="394.3,-227.4 402.0,-228.6 409.2,-229.4 416.4,-229.6 491.2,-226.5 526.4,-225.0 584.1,-222.4 598.1,-221.3 610.0,-219.3 653.4,-209.9 696.5,-200.2 728.8,-193.0 773.9,-183.1 800.7,-176.9 844.8,-166.6 900.8,-153.7 909.9,-151.6 924.1,-146.9 934.0,-142.8 938.7,-140.0 940.5,-138.0 941.1,-135.5 940.9,-132.1 938.2,-124.1 937.5,-118.7 941.9,-99.6 940.1,-87.0 937.8,-70.7 932.7,-55.4 927.3,-45.5 918.9,-40.7 908.6,-36.5 895.0,-31.9 883.5,-28.6 869.5,-24.4 835.6,-13.4 778.6,4.6 744.3,15.2 690.9,32.8 679.9,36.6 660.5,44.6 624.3,59.2 602.7,69.0 582.3,79.3 535.3,102.4 518.8,111.3 494.4,124.0 482.5,128.7 469.4,132.1 453.5,135.5 406.9,143.1 386.9,147.3 382.5,149.2 374.3,153.3 369.5,157.4 367.2,161.5 367.7,165.7 371.7,171.4 382.5,178.5 382.3,205.6 382.2,232.8 381.3,277.4 381.5,279.7 386.4,286.5 399.3,303.8 418.1,328.1 433.3,348.7 436.7,357.0 436.9,358.8 436.7,361.9 435.5,364.0 434.0,365.5 432.0,366.6 430.2,367.2 426.6,368.1 415.8,370.0 409.9,370.7 403.0,371.4 394.4,372.0 378.9,373.2 361.3,374.5 339.0,378.0 330.7,379.7 318.9,382.1 307.0,384.6 250.1,397.2 232.4,403.6 200.9,414.7 169.6,422.9 129.9,433.3 108.7,437.2 91.8,439.7 73.9,441.5 46.8,444.5 17.8,447.1 10.2,447.1 -0.2,446.4 -18.7,444.0 -28.5,440.8 -34.4,438.1 -39.5,434.9 -42.9,431.7 -48.8,425.2 -63.8,413.6 -67.9,409.2 -74.4,405.0 -85.8,402.8 -91.4,402.5 -99.2,402.7 -112.2,403.5 -126.0,404.5 -166.8,410.0 -194.9,412.9 -202.4,413.4 -214.3,413.8 -239.2,414.3 -267.6,414.0 -289.2,413.3 -304.8,412.3 -331.7,410.8 -343.0,409.8 -353.7,407.4 -366.0,403.6 -370.9,400.9 -373.8,399.0 -377.2,398.0 -382.9,396.6 -426.2,392.7 -491.4,387.8 -512.2,386.9 -540.1,386.6 -547.1,386.6"/>
    <polyline points="-106.6,315.4 -102.2,314.6 -98.3,313.6 -92.2,311.2 -60.8,298.1 -43.0,289.8 -33.4,285.6 -28.2,283.2 -5.7,272.9 8.4,266.2 12.6,263.2 23.6,253.4 43.3,234.1 56.2,221.5 60.1,217.9 61.3,216.6 62.6,215.4 63.6,214.4 67.5,210.6 67.8,210.1 68.1,209.3 68.3,208.8 68.4,208.0 68.5,205.8 63.8,161.0 62.9,150.7 62.3,144.3 59.2,120.8 58.0,108.3 57.6,102.2 57.2,99.2 57.2,98.2 57.5,97.2 58.0,96.2 58.7,95.3 59.8,94.4 61.0,93.6 62.3,92.7 63.4,92.0 68.4,88.9 75.2,84.9 78.2,82.9 80.8,81.0 87.2,76.6 91.8,73.6 94.3,71.7 118.7,52.4 120.5,51.0 122.4,49.7 124.1,48.8 126.3,47.8 130.3,46.1 137.0,43.7 152.7,37.9 162.2,34.7 167.3,33.2 171.9,31.6 175.9,30.0 178.4,29.0 182.2,27.2 187.1,24.8 216.9,8.8 219.5,7.3 223.1,4.5 224.4,3.0 225.1,1.4 225.8,-0.5 226.1,-2.4 227.3,-30.5 227.8,-32.1 228.3,-33.8 235.2,-46.5 236.0,-47.5 237.2,-48.7 238.9,-50.0 242.6,-52.7 248.3,-56.7 250.9,-58.6 252.8,-59.8 255.4,-60.8 259.5,-61.9 293.0,-68.5 297.4,-69.5 299.7,-70.2 301.9,-71.2 305.3,-72.6 332.5,-84.7 337.4,-88.6 341.3,-92.5 344.1,-95.3 345.5,-96.8 346.5,-98.6 346.6,-100.0 346.0,-101.3 344.8,-102.8 342.2,-104.4 338.7,-105.6 334.8,-106.4 328.9,-107.1 286.9,-111.4 281.7,-112.2 276.8,-113.1 273.2,-114.1 270.7,-115.0 267.7,-116.4 265.9,-117.6 264.3,-118.9 263.2,-120.4 262.5,-122.2 262.1,-125.0 261.7,-140.1 261.3,-154.1 261.4,-157.8 261.9,-163.0 262.4,-166.3 263.3,-170.2 264.2,-173.9 265.7,-177.4 268.0,-181.3 276.9,-192.6 278.8,-195.9 279.8,-198.2 280.2,-199.8 280.3,-201.6 280.1,-203.2 279.8,-205.4 278.9,-208.4 278.4,-210.2 278.4,-210.4 277.5,-213.4"/>
  </g>

  <!-- 지하철 역 -->
  <g>
    <circle cx="604.6" cy="69.3" r="3" fill="#dc2626" stroke="#fff" stroke-width="1"/>
    <circle cx="536.9" cy="102.7" r="3" fill="#dc2626" stroke="#fff" stroke-width="1"/>
    <circle cx="407.9" cy="143.5" r="3" fill="#dc2626" stroke="#fff" stroke-width="1"/>
    <circle cx="383.5" cy="205.5" r="3" fill="#dc2626" stroke="#fff" stroke-width="1"/>
    <circle cx="383.3" cy="232.8" r="3" fill="#dc2626" stroke="#fff" stroke-width="1"/>
    <circle cx="388.1" cy="286.3" r="3" fill="#dc2626" stroke="#fff" stroke-width="1"/>
    <circle cx="419.2" cy="328.0" r="3" fill="#dc2626" stroke="#fff" stroke-width="1"/>
    <circle cx="319.1" cy="382.0" r="3" fill="#dc2626" stroke="#fff" stroke-width="1"/>
    <circle cx="233.5" cy="404.0" r="3" fill="#dc2626" stroke="#fff" stroke-width="1"/>
    <circle cx="609.5" cy="381.0" r="3" fill="#dc2626" stroke="#fff" stroke-width="1"/>
    <circle cx="155.5" cy="350.7" r="3" fill="#dc2626" stroke="#fff" stroke-width="1"/>
    <circle cx="726.8" cy="374.9" r="3" fill="#dc2626" stroke="#fff" stroke-width="1"/>
    <circle cx="61.8" cy="150.7" r="3" fill="#dc2626" stroke="#fff" stroke-width="1"/>
    <circle cx="67.6" cy="88.8" r="3" fill="#dc2626" stroke="#fff" stroke-width="1"/>
    <circle cx="62.9" cy="214.4" r="3" fill="#dc2626" stroke="#fff" stroke-width="1"/>
    <circle cx="619.0" cy="187.2" r="3" fill="#dc2626" stroke="#fff" stroke-width="1"/>
    <circle cx="520.7" cy="202.9" r="3" fill="#dc2626" stroke="#fff" stroke-width="1"/>
    <circle cx="208.2" cy="209.2" r="3" fill="#dc2626" stroke="#fff" stroke-width="1"/>
    <circle cx="92.9" cy="320.9" r="3" fill="#dc2626" stroke="#fff" stroke-width="1"/>
  </g>
</svg>