<?xml version="1.0" encoding="UTF-8"?>
<svg width="800" height="600" xmlns="http://www.w3.org/2000/svg">
  <title>Recife Subway Map</title>
  <rect width="100%" height="100%" fill="#f8f9fa"/>

  <!-- 지하철 선로 -->
  <g stroke="#2563eb" stroke-width="2" fill="none" opacity="0.8">
    <polyline points="185.6,350.4 183.1,350.7 181.0,351.0 178.9,351.0 177.1,351.0 175.4,350.8 166.3,349.8 163.6,349.6 161.2,349.6 159.1,349.7 156.7,350.0 155.4,350.2 154.1,350.5 152.6,350.8 152.2,350.9 150.7,351.4 148.2,352.4 122.5,363.2"/>
    <polyline points="644.8,233.9 643.5,234.0 642.6,234.1 641.7,234.3 640.8,234.6 640.0,234.9 639.4,235.2 638.7,235.6 638.1,236.2 637.3,237.0 636.3,238.2"/>
    <polyline points="188.2,349.9 185.6,350.4"/>
    <polyline points="278.0,331.0 267.6,333.1 262.5,334.2"/>
    <polyline points="283.1,329.9 278.0,331.0"/>
    <polyline points="342.8,304.8 339.3,305.5"/>
    <polyline points="339.3,305.5 330.9,307.1"/>
    <polyline points="452.2,295.6 449.1,296.8"/>
    <polyline points="455.7,294.2 452.2,295.6"/>
    <polyline points="414.3,300.9 396.9,298.8"/>
    <polyline points="429.0,302.5 426.4,302.4 425.9,302.3 425.1,302.2 423.1,302.0 416.4,301.2 414.3,300.9"/>
    <polyline points="582.5,268.6 566.2,268.0 564.2,268.0 562.3,268.0 560.7,268.1 559.0,268.2 557.7,268.4 556.4,268.6 547.7,270.3"/>
    <polyline points="586.4,268.8 582.5,268.6"/>
    <polyline points="501.6,279.3 486.9,282.3 484.7,282.8 483.2,283.1 481.6,283.6 480.3,284.0 479.1,284.4 475.6,285.9"/>
    <polyline points="504.0,278.9 501.6,279.3"/>
    <polyline points="475.6,285.9 472.7,287.0"/>
    <polyline points="470.6,287.9 455.7,294.2"/>
    <polyline points="514.4,295.5 513.6,297.0 512.9,298.1 512.1,299.2 511.1,300.3 510.1,301.2 509.2,302.0 508.0,302.9 505.8,304.3 503.7,305.2 502.3,305.7 500.7,306.3"/>
    <polyline points="500.7,306.3 495.9,307.5 491.5,308.6"/>
    <polyline points="491.5,308.6 485.1,310.1"/>
    <polyline points="582.4,269.6 568.3,269.0 565.6,269.0 563.7,269.0 561.5,269.1 559.2,269.2 556.9,269.6 553.5,270.2 548.2,271.3"/>
    <polyline points="586.3,269.7 582.4,269.6"/>
    <polyline points="633.2,244.4 632.1,245.5 629.7,247.9 626.9,250.7"/>
    <polyline points="485.1,310.1 482.6,310.6 480.6,311.2 478.3,311.8 476.5,312.4 474.8,313.1 473.3,313.8 471.6,314.9 469.9,316.0 468.2,317.4 467.2,318.3 464.0,321.3 461.6,323.5 461.3,323.7 460.0,325.0 458.9,326.1 458.1,327.2 457.3,328.6 456.4,330.6 455.8,332.5"/>
    <polyline points="430.2,486.9 429.2,489.9 427.3,495.4"/>
    <polyline points="427.3,495.4 423.9,504.5 420.9,513.9 416.7,527.4 415.4,531.9 412.6,540.4 411.1,545.5 409.1,551.9 405.3,563.6 404.8,565.4 397.9,585.9 397.4,587.6 395.1,594.7 388.6,614.6 384.8,625.4"/>
    <polyline points="447.1,297.6 444.4,298.7"/>
    <polyline points="444.4,298.7 440.0,300.5 438.6,301.0 437.5,301.3 436.5,301.5 435.4,301.8 434.4,301.9 433.0,302.2 431.7,302.3 430.7,302.4 429.6,302.4 429.0,302.5"/>
    <polyline points="631.5,242.2 629.8,243.3 629.0,243.9 628.3,244.5 626.9,245.8 619.5,253.9"/>
    <polyline points="636.3,238.2 634.3,240.4 631.7,243.3 631.1,244.0 629.6,245.7"/>
    <polyline points="455.8,332.5 453.8,338.6"/>
    <polyline points="441.7,375.3 441.3,376.4 440.1,379.4 439.2,381.6 438.3,383.9 437.7,385.8 437.1,388.0 436.8,389.7 436.5,391.6 436.2,393.7 436.1,396.5 436.0,398.9 436.0,401.4 436.2,404.4 436.4,406.8 436.9,409.9 437.4,412.6 437.9,414.9 439.0,419.0 441.1,425.6 442.0,429.3 442.4,431.6 442.8,434.5 442.9,436.3 443.0,438.5 443.0,440.7 442.8,443.2 442.7,445.0 442.4,447.0 442.0,448.7 441.6,450.5 441.1,452.7 438.3,461.3 435.8,468.6 432.9,478.1 430.2,486.9"/>
    <polyline points="472.7,287.0 470.6,287.9"/>
    <polyline points="605.8,266.8 605.3,267.0 604.4,267.3 603.2,267.7 601.7,268.1 600.3,268.4 599.0,268.6 598.2,268.8 597.3,268.9 595.5,269.0 593.5,269.0 590.6,268.9 586.4,268.8"/>
    <polyline points="314.9,310.3 313.7,310.8 311.7,311.6 309.8,312.4 308.1,313.3 306.7,314.1 305.3,315.0 303.5,316.4 291.5,326.1 289.7,327.3 288.1,328.1 287.2,328.6 286.1,329.0 284.6,329.5 283.1,329.9"/>
    <polyline points="358.2,301.9 342.8,304.8"/>
    <polyline points="111.0,368.0 107.4,369.0 105.9,369.4 104.5,369.6 102.9,369.7 100.7,369.8 98.6,369.8 96.5,369.7 93.3,369.4 76.9,367.4"/>
    <polyline points="76.9,367.4 73.1,367.0 68.0,366.9 63.1,367.1 60.3,367.4 58.6,367.6 56.1,368.0 31.7,372.6"/>
    <polyline points="234.2,340.1 231.0,340.8 221.3,342.8 214.0,344.3"/>
    <polyline points="214.0,344.3 203.3,346.6"/>
    <polyline points="262.5,334.2 254.9,335.8"/>
    <polyline points="632.5,244.1 629.2,247.6 626.5,250.5"/>
    <polyline points="635.3,238.8 634.2,240.0 633.7,240.5 633.2,241.0 632.6,241.5 631.5,242.2 630.3,242.8 629.2,243.4 628.3,244.0 627.5,244.7 626.6,245.6 625.5,246.7 625.2,247.0 619.2,253.7"/>
    <polyline points="632.4,242.0 631.1,243.0 630.0,243.6 628.8,244.5 627.9,245.2 627.0,246.2 619.8,254.0"/>
    <polyline points="620.2,254.1 627.6,245.9 628.3,245.1 628.9,244.6 629.8,243.9 631.1,243.0"/>
    <polyline points="632.4,242.0 630.2,243.9 628.4,245.5 625.8,248.4 624.9,249.4 623.3,252.6"/>
    <polyline points="625.5,246.7 626.4,245.6 626.8,244.9 627.0,244.1 627.2,243.3 627.3,242.5 627.3,242.0 627.2,241.5 627.1,241.1 626.8,240.7 626.6,240.4 626.3,240.3"/>
    <polyline points="632.4,242.0 633.5,241.1 634.3,240.4"/>
    <polyline points="643.7,233.4 642.6,233.5 641.7,233.7 640.9,233.9 640.2,234.2 639.4,234.5 638.7,234.9 638.3,235.3 637.8,235.8 634.0,239.9 633.4,240.5 632.9,241.0 631.9,241.7 631.0,242.2 629.5,243.0 628.3,243.7 627.5,244.2 626.8,244.9 625.5,246.3 625.0,246.9 618.8,253.7"/>
    <polyline points="635.3,238.8 633.4,240.5"/>
    <polyline points="623.1,254.3 625.6,251.4"/>
    <polyline points="614.9,261.5 613.8,262.5 613.1,263.1 612.2,263.8 611.5,264.4 610.4,265.1 609.3,265.7 608.0,266.4 606.5,267.1 605.0,267.7 603.9,268.0 602.6,268.4 601.2,268.7 599.6,269.0 598.1,269.2 597.0,269.3 595.7,269.4 594.1,269.4 592.7,269.4"/>
    <polyline points="614.9,261.5 615.6,260.6 616.7,259.4"/>
    <polyline points="339.4,305.8 343.0,305.1"/>
    <polyline points="343.0,305.1 348.4,304.1 374.0,299.3 376.3,298.9 378.1,298.7 380.4,298.4 382.6,298.2 384.2,298.1 386.0,298.1 387.6,298.1 388.8,298.2 389.4,298.2"/>
    <polyline points="414.1,301.2 417.4,301.7 425.4,302.6 426.6,302.7 427.9,302.8 429.1,302.7"/>
    <polyline points="429.1,302.7 430.4,302.7 432.2,302.6 433.6,302.4 435.2,302.1 436.7,301.8 438.1,301.4 439.8,300.9 441.3,300.3 444.4,299.0"/>
    <polyline points="444.4,299.0 447.2,297.8"/>
    <polyline points="447.2,297.8 449.2,297.1"/>
    <polyline points="475.8,286.1 478.4,285.0 480.2,284.3 481.8,283.8 483.5,283.3 485.2,282.9 501.7,279.6"/>
    <polyline points="470.6,288.2 475.8,286.1"/>
    <polyline points="501.7,279.6 504.1,279.2"/>
    <polyline points="504.1,279.2 511.7,277.6 522.1,275.6 540.6,271.9"/>
    <polyline points="514.3,294.9 513.5,296.4 512.6,297.9 511.4,299.5 509.9,300.9 508.4,302.2 507.0,303.2 505.0,304.4 503.7,304.9 500.6,306.0"/>
    <polyline points="500.6,306.0 497.3,306.8 491.4,308.3"/>
    <polyline points="491.4,308.3 484.9,309.8"/>
    <polyline points="466.5,318.0 463.3,320.9 461.8,322.2 460.6,323.4 459.5,324.5 458.2,326.3 457.0,328.4 455.5,332.5"/>
    <polyline points="586.3,269.0 590.5,269.2 590.6,269.2 591.7,269.2 594.1,269.2 595.6,269.2 597.2,269.1 598.8,268.9 600.3,268.6 602.0,268.3 603.7,267.8 605.1,267.3 606.3,266.9 607.7,266.3 608.8,265.7 609.9,265.1 610.8,264.5 611.7,263.8 613.4,262.4 616.7,259.4 618.6,257.8 620.3,256.3 623.1,253.4 625.9,250.3"/>
    <polyline points="582.4,269.3 567.4,268.7 564.1,268.7 561.8,268.8 560.0,268.9 558.5,269.0 556.8,269.3 553.2,270.0 548.1,271.0"/>
    <polyline points="586.3,269.5 582.4,269.3"/>
    <polyline points="582.5,268.8 586.3,269.0"/>
    <polyline points="455.5,332.5 453.5,338.5"/>
    <polyline points="440.7,375.1 440.6,375.5 440.1,376.9 439.5,378.8 438.9,381.0 438.3,382.8 437.7,384.4 437.3,385.3 437.1,386.0 436.5,388.9 435.8,393.2 435.6,398.1 435.6,401.5 436.0,405.6 436.4,408.5 436.8,411.3 437.4,414.1 439.0,419.8 440.1,423.5 441.2,427.4 441.7,429.8 442.2,432.7 442.5,435.2 442.6,438.1 442.7,440.5 442.5,443.6 442.0,446.8 441.6,448.8 441.2,450.8 440.8,452.5 432.7,477.5 431.1,481.8 429.4,486.8"/>
    <polyline points="444.3,367.0 445.4,361.4"/>
    <polyline points="440.1,379.4 438.3,382.8"/>
    <polyline points="426.6,495.4 419.9,515.5 417.4,523.0 416.0,527.4 415.4,529.2 414.5,531.8 413.1,536.4 412.6,538.3 411.6,541.6 410.6,545.4 410.5,545.7 404.9,563.7 399.9,578.6 396.8,588.5 396.5,589.2 390.3,608.3 386.7,618.6 384.4,625.3"/>
    <polyline points="429.4,486.8 428.4,489.8 426.6,495.4"/>
    <polyline points="414.5,531.8 413.8,535.3 411.9,541.6 411.1,545.5"/>
    <polyline points="411.9,541.6 410.6,545.4"/>
    <polyline points="413.8,535.3 415.4,531.9"/>
    <polyline points="540.8,272.5 537.9,273.1 534.5,273.8 532.9,274.2 531.0,274.7 529.5,275.2 527.2,276.2 524.8,277.4 522.8,278.8 521.2,280.3 519.8,281.8 518.6,283.7 517.5,285.8 517.3,286.3"/>
    <polyline points="540.9,272.8 536.8,273.6 534.1,274.2 532.2,274.6 530.7,275.1 529.1,275.7 527.2,276.6 525.5,277.4 523.7,278.5 522.5,279.5 521.5,280.5 520.4,281.7 519.6,282.8 518.8,284.0 517.9,285.9 517.7,286.4"/>
    <polyline points="540.5,271.7 513.3,277.0 504.0,278.9"/>
    <polyline points="540.6,271.9 543.7,271.3 547.8,270.5"/>
    <polyline points="547.7,270.3 543.5,271.1 540.5,271.7"/>
    <polyline points="547.8,270.5 552.4,269.6 556.2,268.9 557.6,268.6 559.4,268.4 561.6,268.3 562.8,268.2 564.3,268.2 565.7,268.2 582.5,268.8"/>
    <polyline points="548.1,271.0 544.4,271.8 540.8,272.5"/>
    <polyline points="548.2,271.3 544.5,272.0 540.9,272.8"/>
    <polyline points="449.1,296.8 447.1,297.6"/>
    <polyline points="449.2,297.1 452.3,295.8 455.9,294.3"/>
    <polyline points="455.9,294.3 470.6,288.2"/>
    <polyline points="396.9,298.8 393.0,298.3 389.5,297.9"/>
    <polyline points="396.9,299.1 414.1,301.2"/>
    <polyline points="389.5,297.9 388.6,297.9 387.3,297.8 385.9,297.8 384.8,297.8 383.4,297.9 381.3,298.0 378.6,298.3 375.5,298.8 370.8,299.7 358.2,301.9"/>
    <polyline points="389.4,298.2 392.9,298.6 396.9,299.1"/>
    <polyline points="330.9,307.1 326.8,307.8 323.6,308.5"/>
    <polyline points="331.0,307.4 339.4,305.8"/>
    <polyline points="323.7,308.7 326.9,308.2 331.0,307.4"/>
    <polyline points="323.6,308.5 317.7,309.6 316.2,310.0 314.9,310.3"/>
    <polyline points="278.1,331.3 282.3,330.4 283.2,330.2"/>
  </g>

  <!-- 지하철 역 -->
  <g>
    <circle cx="428.8" cy="489.8" r="3" fill="#dc2626" stroke="#fff" stroke-width="1"/>
    <circle cx="119.2" cy="364.8" r="3" fill="#dc2626" stroke="#fff" stroke-width="1"/>
    <circle cx="199.7" cy="347.6" r="3" fill="#dc2626" stroke="#fff" stroke-width="1"/>
    <circle cx="392.9" cy="298.5" r="3" fill="#dc2626" stroke="#fff" stroke-width="1"/>
    <circle cx="251.3" cy="336.7" r="3" fill="#dc2626" stroke="#fff" stroke-width="1"/>
    <circle cx="326.8" cy="308.0" r="3" fill="#dc2626" stroke="#fff" stroke-width="1"/>
    <circle cx="628.8" cy="247.5" r="3" fill="#dc2626" stroke="#fff" stroke-width="1"/>
    <circle cx="452.3" cy="295.7" r="3" fill="#dc2626" stroke="#fff" stroke-width="1"/>
    <circle cx="544.3" cy="271.5" r="3" fill="#dc2626" stroke="#fff" stroke-width="1"/>
    <circle cx="416.4" cy="527.4" r="3" fill="#dc2626" stroke="#fff" stroke-width="1"/>
    <circle cx="442.1" cy="372.6" r="3" fill="#dc2626" stroke="#fff" stroke-width="1"/>
  </g>
</svg>