<?xml version="1.0" encoding="UTF-8"?>
<svg width="800" height="600" xmlns="http://www.w3.org/2000/svg">
  <title>Rennes Subway Map</title>
  <rect width="100%" height="100%" fill="#f8f9fa"/>

  <!-- 지하철 선로 -->
  <g stroke="#2563eb" stroke-width="2" fill="none" opacity="0.8">
    <polyline points="681.5,204.8 685.4,206.2"/>
    <polyline points="34.3,578.2 33.8,576.0 33.3,568.5 33.4,561.0 34.2,554.0 34.8,551.4 36.4,545.2 40.3,535.8 45.9,527.1 52.0,520.7 56.6,517.1 63.7,513.0"/>
    <polyline points="621.2,200.7 621.5,200.5 622.7,200.0 622.8,199.9 625.4,198.2 626.0,197.8 629.6,195.6 634.7,193.0 637.0,192.3 639.3,191.9 641.5,191.8 643.7,191.8 646.1,192.1 648.5,192.5 681.5,204.8"/>
    <polyline points="464.0,149.3 466.1,144.6 469.8,135.6 474.1,118.9 476.8,111.3 480.7,103.9 485.1,98.2 490.2,92.7 496.6,87.7 505.7,82.8 514.6,80.2 523.0,79.1 524.7,79.0"/>
    <polyline points="287.1,496.8 292.8,495.1 299.0,493.6 302.7,493.2 304.8,493.3 306.7,493.5 313.5,495.9 315.2,496.8 317.6,498.4 321.9,502.1 331.7,513.8 339.7,521.5 344.6,525.1 351.9,528.7 360.1,530.8 367.8,531.2 372.0,530.8 373.9,530.6"/>
    <polyline points="380.9,532.6 375.8,526.2 373.7,523.8 371.5,521.6 369.1,519.6 367.4,518.3 365.4,517.0 363.5,515.9 361.5,514.9 358.1,513.5 355.4,512.6 339.1,506.9"/>
    <polyline points="339.0,507.4 355.3,513.1 358.0,514.1 361.4,515.5 363.3,516.4 365.2,517.5 367.1,518.8 368.9,520.0 371.2,522.1 373.4,524.2 375.5,526.6 380.5,533.0"/>
    <polyline points="312.1,427.0 311.9,421.3 311.7,414.3 311.5,410.2 310.6,372.6 310.4,369.4 310.0,365.6 309.5,362.9 308.7,360.2 307.8,357.6 306.5,354.6 305.1,352.3 303.8,350.3 300.8,346.4"/>
    <polyline points="300.5,346.7 303.4,350.7 304.7,352.6 306.1,354.9 307.3,357.8 308.3,360.4 309.0,363.0 309.5,365.7 310.0,369.4 310.1,372.6 311.0,410.2 311.2,414.3 311.5,421.3 311.6,427.0"/>
    <polyline points="202.5,233.6 203.8,236.0 205.2,239.2 206.6,243.1 211.8,258.7 212.7,261.6 213.3,263.0 213.9,264.4 214.8,266.4 216.2,268.9 217.5,270.7 219.1,272.9 220.9,274.8 221.9,275.8 225.3,279.0"/>
    <polyline points="225.6,278.6 222.2,275.3 221.2,274.3 219.5,272.5 217.9,270.3 216.6,268.5 215.2,266.1 214.3,264.2 213.7,262.9 213.2,261.4 212.2,258.5 207.0,242.9 205.6,239.0 204.2,235.8 202.9,233.3"/>
    <polyline points="227.4,280.9 232.8,285.9 236.0,288.5 238.6,290.3 240.3,291.4 242.3,292.6 264.8,303.8 268.1,305.6 270.2,306.8 272.1,308.0 274.7,310.0 277.4,312.6 279.9,315.6 282.2,318.9 285.3,324.6 288.1,330.3 289.7,333.3 291.0,335.3 293.5,338.7 295.9,341.4"/>
    <polyline points="296.2,341.1 293.9,338.3 291.4,334.9 290.1,333.0 288.5,330.0 285.7,324.3 282.6,318.6 280.3,315.2 277.7,312.2 275.0,309.5 272.3,307.6 270.4,306.3 268.3,305.1 265.0,303.3 242.5,292.1 240.5,290.9 238.8,289.8 236.3,288.1 233.1,285.4 227.7,280.5"/>
    <polyline points="170.8,218.6 172.9,218.5 175.1,218.6 176.6,218.7 178.2,218.9 180.9,219.4 185.1,220.3 186.9,220.8 188.4,221.3 190.0,222.0 191.1,222.5"/>
    <polyline points="202.9,233.3 202.2,232.1 201.4,231.0 200.6,229.9 199.8,228.9 198.4,227.4 196.9,225.9 195.6,224.8 194.3,223.9 193.2,223.2 192.1,222.5 191.2,222.1"/>
    <polyline points="311.7,431.7 311.7,448.1 311.6,452.4 311.2,456.8 310.9,459.4 310.1,465.0 309.7,467.5 309.4,470.2 309.3,472.7 309.4,475.5 309.8,478.7 310.3,481.5 311.2,484.6 312.0,486.8 312.6,488.3 313.6,490.2 314.4,491.6 315.6,493.4 316.8,495.1 318.6,497.1 320.8,499.2 322.0,500.2 324.1,501.5 326.4,502.8 329.8,504.3 332.1,505.0"/>
    <polyline points="332.2,504.5 329.9,503.7 326.6,502.3 324.3,501.0 322.3,499.7 321.1,498.7 318.9,496.7 317.2,494.7 315.9,493.0 314.8,491.3 314.0,489.9 313.0,488.0 312.4,486.6 311.7,484.4 310.8,481.3 310.3,478.6 309.9,475.4 309.8,472.7 309.9,470.3 310.1,467.6 310.6,465.1 311.4,459.5 311.7,456.9 312.1,452.5 312.2,448.1 312.1,431.7"/>
    <polyline points="339.1,506.9 335.7,505.7 335.2,505.6 332.2,504.5"/>
    <polyline points="295.9,341.4 298.3,344.0 300.5,346.7"/>
    <polyline points="227.7,280.5 226.6,279.5 225.6,278.6"/>
    <polyline points="58.8,224.4 60.9,224.5 62.9,224.6"/>
    <polyline points="300.8,346.4 298.6,343.7 296.2,341.1"/>
    <polyline points="225.3,279.0 226.4,279.9 227.4,280.9"/>
    <polyline points="62.9,224.1 60.9,224.0 58.8,224.0"/>
    <polyline points="170.8,218.1 167.7,218.4 164.6,218.6"/>
    <polyline points="164.6,219.1 167.7,218.8 170.8,218.6"/>
    <polyline points="311.6,427.0 311.7,429.3 311.7,431.7"/>
    <polyline points="384.0,536.5 382.6,534.8 380.9,532.6"/>
    <polyline points="332.1,505.0 335.5,506.2 339.0,507.4"/>
    <polyline points="312.1,431.7 312.1,429.3 312.1,427.0"/>
    <polyline points="380.5,533.0 382.2,535.2 383.6,536.9"/>
    <polyline points="164.6,218.6 159.6,219.0 156.5,219.2 153.3,219.2 148.0,218.8 142.6,218.3 141.1,218.3 139.5,218.3 138.4,218.4 137.5,218.5 136.6,218.6 135.3,218.9 134.2,219.3 132.9,219.7 131.7,220.3 127.5,222.9 125.5,224.3 123.5,225.5 122.3,226.2 121.3,226.7 119.9,227.3 118.7,227.6 117.6,227.9 116.1,228.1 115.1,228.2 113.9,228.3 112.4,228.2 110.7,227.9 108.9,227.5 105.7,226.4 102.1,225.2 100.6,224.7 98.9,224.4 97.4,224.2 95.7,224.1 95.0,224.1"/>
    <polyline points="74.3,224.7 86.6,224.6 92.7,224.6 95.1,224.6"/>
    <polyline points="74.3,224.2 69.3,224.3 65.6,224.2 65.1,224.2 62.9,224.1"/>
    <polyline points="62.9,224.6 65.1,224.6 69.3,224.7 74.3,224.7"/>
    <polyline points="349.6,645.0 348.5,638.1 348.3,635.9 348.1,634.0 348.1,631.2 348.3,628.8 348.6,625.9 349.4,622.5 350.0,620.4 351.0,617.7 352.1,615.1 353.5,612.7 355.0,610.5 355.9,609.2 357.1,607.9 359.4,605.7 361.3,604.1 362.7,603.1 364.7,601.9 367.0,600.7 375.0,597.5 378.1,596.1 380.8,594.4 381.9,593.7 382.5,593.2 384.6,591.5 386.1,590.0 387.6,588.2 389.2,586.0 390.4,584.1 391.5,582.1 392.5,580.0 393.3,577.9 394.2,575.1 394.7,572.8 395.1,570.4 395.4,567.4 395.5,564.9 395.4,562.5 395.1,559.6 394.8,557.3 394.3,555.0 393.4,552.2 392.6,549.9 391.7,547.9 390.6,545.8 389.4,543.9 388.0,541.8 386.1,539.2 384.0,536.5"/>
    <polyline points="383.6,536.9 385.7,539.6 387.7,542.2 389.0,544.2 390.2,546.1 391.3,548.2 392.2,550.2 393.0,552.4 393.8,555.2 394.3,557.4 394.7,559.7 395.0,562.6 395.0,564.9 395.0,567.4 394.7,570.3 394.2,572.7 393.7,574.9 392.8,577.6 392.0,579.7 391.1,581.8 390.0,583.8 388.8,585.7 387.2,587.9 385.8,589.5 384.3,591.0 382.3,592.8 381.7,593.1 380.6,593.9 377.9,595.6 374.8,597.0 366.8,600.2 364.5,601.4 362.5,602.7 361.0,603.6 359.1,605.2 356.8,607.5 355.6,608.8 354.6,610.1 353.2,612.4 351.7,614.9 350.5,617.4 349.5,620.2 348.9,622.4 348.2,625.8 347.8,628.7 347.7,631.1 347.6,634.1 347.8,636.0 348.1,638.2 349.2,645.1"/>
    <polyline points="-6.8,223.6 6.1,223.9 10.6,223.9 12.4,223.8 21.8,223.3 25.9,223.3 58.8,224.4"/>
    <polyline points="58.8,224.0 50.5,223.7"/>
    <polyline points="63.6,512.5 62.8,512.9 56.4,516.6 51.7,520.3 45.6,526.8 39.9,535.6 35.9,545.1 33.7,553.9 32.9,561.0 32.8,568.5 33.5,576.2 33.9,578.3"/>
    <polyline points="344.2,274.4 330.4,275.4 326.1,276.2 321.9,277.5 318.3,279.2 314.7,281.6 309.0,286.8 306.3,290.3 303.9,294.1 301.9,298.3 300.3,302.5 299.3,306.4 298.7,310.2 298.4,313.8 298.4,317.5 298.6,321.0 299.0,324.4 299.8,328.2 300.7,331.6 301.8,334.7"/>
    <polyline points="302.2,334.5 301.2,331.4 300.3,328.3 299.4,324.3 299.0,320.9 298.8,317.4 298.9,313.9 299.2,310.2 299.8,306.4 300.8,302.6 302.3,298.5 304.3,294.4 306.6,290.7 309.3,287.2 315.0,282.1 318.5,279.8 322.0,278.1 326.3,276.8 330.5,276.0 344.2,275.0"/>
    <polyline points="681.7,204.3 665.6,198.2 648.6,192.0 646.1,191.6 643.7,191.3 641.5,191.3 640.0,191.3"/>
    <polyline points="524.7,78.5 522.9,78.6 514.5,79.6 505.5,82.3 496.4,87.2 489.9,92.3 484.8,97.8 480.3,103.7 476.4,111.1 473.7,118.7 469.3,135.5 465.7,144.3 463.5,149.1"/>
    <polyline points="347.6,419.0 362.0,429.2 368.8,435.5 379.4,447.0 386.8,452.7 387.1,452.9"/>
    <polyline points="373.8,530.0 372.0,530.3 367.8,530.6 360.1,530.3 352.0,528.2 344.8,524.6 340.0,521.0 332.0,513.4 322.2,501.7 317.8,497.9 315.4,496.3 313.6,495.3 306.8,493.0 304.8,492.7 302.7,492.7 298.9,493.0 292.7,494.5 287.0,496.2"/>
    <polyline points="380.0,529.4 384.0,528.5 388.4,527.6"/>
    <polyline points="388.3,527.0 383.9,528.0 380.0,528.9"/>
    <polyline points="387.3,452.4 387.0,452.2 379.7,446.6 369.1,435.1 362.3,428.8 347.8,418.5"/>
    <polyline points="621.0,200.1 620.1,200.5 618.4,201.0 616.6,201.3 614.1,201.4 611.7,201.3 609.1,200.7 606.7,200.0 605.2,199.4 603.9,198.7 602.7,197.9 601.6,197.0 599.7,194.9 598.0,192.8 597.2,191.5 596.5,190.3 596.1,189.0 595.1,184.3"/>
    <polyline points="823.6,120.8 822.3,121.2 821.0,121.7 818.6,122.8 816.7,123.7 814.9,124.7 812.5,126.0 807.2,129.6 804.4,131.8 800.8,134.8 797.5,137.9 794.3,141.2 791.1,144.6 787.9,147.8 778.0,158.3 775.5,160.9 767.0,169.8 759.8,177.4 752.4,185.1 750.0,187.7 746.1,191.7 743.8,193.9 742.9,194.8 741.8,195.7 740.9,196.4 738.5,198.1 737.1,199.0 735.6,199.9 733.5,201.0 731.4,202.0 724.6,205.2"/>
    <polyline points="50.5,223.7 25.9,222.8 21.8,222.8 12.4,223.3 10.6,223.5 6.1,223.4 -6.7,223.1 -8.7,223.1"/>
    <polyline points="191.1,222.5 191.9,223.0 193.0,223.6 194.1,224.3 195.4,225.2 196.7,226.3 198.2,227.8 199.5,229.2 200.3,230.3 201.1,231.3 201.8,232.4 202.5,233.6"/>
    <polyline points="191.2,222.1 190.2,221.6 188.5,220.9 187.1,220.4 185.2,219.8 180.9,218.9 178.3,218.4 176.6,218.2 175.1,218.1 172.9,218.1 170.8,218.1"/>
    <polyline points="95.0,224.1 92.7,224.1 86.6,224.1 74.3,224.2"/>
    <polyline points="95.1,224.6 95.7,224.6 97.3,224.7 98.9,224.9 100.6,225.2 102.0,225.6 105.6,226.9 108.8,228.0 110.6,228.4 112.3,228.7 113.9,228.7 115.2,228.7 116.1,228.6 117.7,228.4 118.8,228.1 120.0,227.7 121.5,227.1 122.5,226.6 123.6,226.0 125.7,224.7 127.7,223.3 131.9,220.7 133.1,220.2 134.3,219.8 135.4,219.4 136.7,219.1 137.6,218.9 138.4,218.8 139.5,218.8 141.1,218.7 142.6,218.8 148.0,219.3 153.3,219.7 156.5,219.6 159.6,219.5 164.6,219.1"/>
    <polyline points="724.8,205.8 731.8,202.4 735.6,200.5 737.2,199.6 739.2,198.3 741.2,196.8 742.7,195.6 744.1,194.4 746.4,192.1 760.0,177.8 768.0,169.4 770.6,166.7 774.8,162.3 775.7,161.3 788.4,148.1 791.4,144.8 794.6,141.5 797.6,138.4 801.0,135.2 803.9,132.8 806.0,131.1 808.1,129.6 811.2,127.5 812.9,126.4 815.1,125.1 816.8,124.2 818.7,123.2 821.3,122.1 823.7,121.3"/>
    <polyline points="685.6,205.7 681.7,204.3"/>
    <polyline points="625.4,198.2 623.8,198.6"/>
    <polyline points="391.3,455.7 390.2,454.4"/>
    <polyline points="63.7,513.0 67.7,511.7 72.4,510.1 78.1,509.5 85.9,509.8 116.7,512.3 123.4,512.5 137.3,513.0 164.2,513.2 166.1,513.2"/>
    <polyline points="166.1,512.7 137.4,512.4 121.6,512.1 121.3,512.1 116.7,511.7 114.5,511.6 85.9,509.2 78.1,508.9 72.3,509.6 63.6,512.5"/>
    <polyline points="181.9,512.7 173.7,512.7 166.1,512.7"/>
    <polyline points="166.1,513.2 173.7,513.3 181.9,513.3"/>
    <polyline points="181.9,513.3 183.4,513.3 188.4,512.9 193.1,511.9 199.3,509.6 212.2,502.6 219.1,500.3 225.4,499.5 230.6,499.7 252.4,503.1 260.2,503.2 268.2,502.1 273.8,500.7"/>
    <polyline points="273.7,500.1 268.2,501.6 260.1,502.7 252.5,502.5 230.6,499.1 225.4,498.9 219.0,499.8 212.0,502.1 199.1,509.1 193.0,511.4 188.3,512.4 183.4,512.7 181.9,512.7"/>
    <polyline points="287.0,496.2 282.6,497.6 278.0,498.9 277.1,499.1 273.7,500.1"/>
    <polyline points="273.8,500.7 282.7,498.1 287.1,496.8"/>
    <polyline points="380.0,528.9 376.6,529.6 373.8,530.0"/>
    <polyline points="373.9,530.6 376.7,530.2 380.0,529.4"/>
    <polyline points="388.4,527.6 391.7,526.7"/>
    <polyline points="391.6,526.2 388.3,527.0"/>
    <polyline points="391.7,526.7 398.6,524.0 404.0,519.8 408.0,515.3 410.2,511.4 412.0,507.2 413.6,499.9 413.9,495.5 413.8,490.9 413.2,486.7 412.3,483.0 410.9,479.2 409.4,475.4 405.5,468.8 401.4,463.5 395.1,457.6"/>
    <polyline points="394.8,458.1 401.1,463.9 405.2,469.1 409.0,475.7 410.5,479.5 411.8,483.1 412.7,486.9 413.3,491.0 413.5,495.5 413.1,499.8 411.5,507.1 409.8,511.2 407.6,514.9 403.7,519.3 398.4,523.4 391.6,526.2"/>
    <polyline points="395.1,457.6 390.2,454.4 387.3,452.4"/>
    <polyline points="387.1,452.9 391.3,455.7 394.8,458.1"/>
    <polyline points="335.8,409.8 331.7,406.8 325.7,401.0 323.1,397.5 320.6,393.6 318.9,390.0"/>
    <polyline points="318.5,390.3 320.2,394.0 322.7,397.9 325.4,401.5 331.5,407.3 335.5,410.2"/>
    <polyline points="347.8,418.5 343.2,415.2 341.5,414.0 335.8,409.8"/>
    <polyline points="335.5,410.2 341.3,414.5 343.0,415.7 347.6,419.0"/>
    <polyline points="318.9,390.0 317.3,386.3 315.4,379.9 311.1,361.1 308.0,351.3 306.2,346.0"/>
    <polyline points="305.8,346.3 307.6,351.5 310.6,361.3 315.0,380.1 316.9,386.6 318.5,390.3"/>
    <polyline points="306.2,346.0 304.4,340.8 302.2,334.5"/>
    <polyline points="301.8,334.7 304.0,341.1 305.8,346.3"/>
    <polyline points="344.2,275.0 384.4,271.5 391.4,270.8"/>
    <polyline points="391.4,270.3 384.4,271.0 344.2,274.4"/>
    <polyline points="391.4,270.8 395.7,270.4 402.3,269.8"/>
    <polyline points="402.3,269.2 395.6,269.9 391.4,270.3"/>
    <polyline points="402.3,269.8 406.9,269.3 410.0,268.7 413.2,268.0 415.5,267.0 417.8,265.7 424.6,261.2 428.0,257.7 431.0,253.9 433.2,250.2 434.9,246.1 437.0,239.0 438.2,231.8 438.7,225.3 438.8,220.6 438.9,215.6 439.4,211.6 440.3,207.1 447.3,186.9 451.8,176.1 457.9,162.6"/>
    <polyline points="457.5,162.4 451.3,175.9 446.8,186.7 439.8,207.0 438.9,211.5 438.4,215.6 438.3,220.6 438.2,225.3 437.7,231.8 436.5,238.9 434.4,245.9 432.7,250.0 430.6,253.6 427.7,257.3 424.3,260.7 417.7,265.2 415.3,266.4 413.1,267.4 410.0,268.2 406.9,268.7 402.3,269.2"/>
    <polyline points="457.9,162.6 461.9,154.0 464.0,149.3"/>
    <polyline points="463.5,149.1 461.4,153.8 457.5,162.4"/>
    <polyline points="541.8,78.1 551.4,77.6 558.7,78.1 565.2,80.4 571.3,84.3 575.6,87.9 579.0,92.2 581.9,97.1 583.9,101.2 585.3,105.3 586.9,114.8"/>
    <polyline points="587.3,114.7 585.8,105.2 584.3,100.9 582.3,96.8 579.3,91.8 575.9,87.4 575.2,86.8 571.5,83.8 565.4,79.9 558.8,77.5 551.4,77.0 541.7,77.5"/>
    <polyline points="524.7,79.0 535.4,78.4 541.8,78.1"/>
    <polyline points="541.7,77.5 535.4,77.9 524.7,78.5"/>
    <polyline points="586.9,114.8 587.6,121.1 588.6,130.9 588.7,132.5 589.9,144.5 591.9,161.9"/>
    <polyline points="592.4,161.7 590.4,144.4 589.2,132.4 589.0,130.9 588.0,121.0 587.3,114.7"/>
    <polyline points="591.9,161.9 593.4,174.0 593.9,178.8 594.6,184.4"/>
    <polyline points="595.1,184.3 594.4,178.7 593.8,173.9 592.4,161.7"/>
  </g>

  <!-- 지하철 역 -->
  <g>
    <circle cx="382.6" cy="531.8" r="3" fill="#dc2626" stroke="#fff" stroke-width="1"/>
    <circle cx="335.2" cy="505.8" r="3" fill="#dc2626" stroke="#fff" stroke-width="1"/>
    <circle cx="282.6" cy="497.9" r="3" fill="#dc2626" stroke="#fff" stroke-width="1"/>
    <circle cx="311.8" cy="429.6" r="3" fill="#dc2626" stroke="#fff" stroke-width="1"/>
    <circle cx="342.4" cy="414.9" r="3" fill="#dc2626" stroke="#fff" stroke-width="1"/>
    <circle cx="301.9" cy="343.3" r="3" fill="#dc2626" stroke="#fff" stroke-width="1"/>
    <circle cx="60.9" cy="224.3" r="3" fill="#dc2626" stroke="#fff" stroke-width="1"/>
    <circle cx="173.7" cy="513.0" r="3" fill="#dc2626" stroke="#fff" stroke-width="1"/>
    <circle cx="395.6" cy="270.2" r="3" fill="#dc2626" stroke="#fff" stroke-width="1"/>
    <circle cx="461.6" cy="153.9" r="3" fill="#dc2626" stroke="#fff" stroke-width="1"/>
    <circle cx="535.4" cy="78.2" r="3" fill="#dc2626" stroke="#fff" stroke-width="1"/>
    <circle cx="593.6" cy="174.0" r="3" fill="#dc2626" stroke="#fff" stroke-width="1"/>
  </g>
</svg>