<?xml version="1.0" encoding="UTF-8"?>
<svg width="800" height="600" xmlns="http://www.w3.org/2000/svg">
  <title>Rio de Janeiro Subway Map</title>
  <rect width="100%" height="100%" fill="#f8f9fa"/>

  <!-- 지하철 선로 -->
  <g stroke="#2563eb" stroke-width="2" fill="none" opacity="0.8">
    <polyline points="663.5,353.2 663.6,354.5"/>
    <polyline points="605.8,283.1 605.9,283.5 605.9,284.3 606.1,285.0 606.4,285.7 607.5,287.6 608.9,289.5 609.9,291.0"/>
    <polyline points="580.3,250.1 576.4,248.3"/>
    <polyline points="576.4,248.3 575.9,247.9 574.8,247.1 573.8,246.3 573.4,245.9 572.7,245.1 571.9,244.1"/>
    <polyline points="652.9,286.8 652.7,286.8 652.6,286.8 652.4,286.8 652.3,286.7 651.8,286.5 651.6,286.4 651.3,286.4 650.8,286.4 649.0,286.4 648.8,286.5 648.6,286.5 648.3,286.6 647.8,286.8 647.3,287.1 646.6,287.4 645.7,287.9 645.4,288.0 645.2,288.2 643.8,289.5 643.0,290.1 642.3,290.8 642.1,291.0"/>
    <polyline points="652.9,286.9 653.1,286.9"/>
    <polyline points="672.1,294.7 672.3,295.5 672.6,296.3 672.8,296.9 672.9,297.6 672.8,299.1 672.4,299.9 672.2,300.4 672.1,300.7 672.0,301.3 671.9,302.3 671.9,302.9 671.8,303.9 671.8,304.3 671.8,306.5 671.2,308.8 671.1,309.1 670.9,310.6 670.6,312.4 670.6,313.4 671.0,315.4 671.2,316.5 671.2,316.7 671.2,317.0 671.1,318.2 671.0,319.3 670.7,320.7 670.1,323.0 670.1,323.5 670.1,324.7"/>
    <polyline points="605.9,283.1 605.9,280.9 605.9,280.2 605.9,279.7"/>
    <polyline points="580.3,250.2 580.7,250.4 581.2,250.7 581.5,250.8 582.0,251.0 582.3,251.1 582.7,251.1 583.6,251.1 585.1,251.1 585.4,251.1 585.9,251.1 586.5,251.1 588.3,251.1"/>
    <polyline points="605.8,279.7 605.9,280.3 605.9,280.9 605.8,283.1"/>
    <polyline points="605.9,279.7 605.8,279.2 605.7,278.5 605.7,278.5 605.5,277.9 605.3,277.3"/>
    <polyline points="588.3,251.0 586.4,251.0 585.4,251.0 585.1,251.0 583.6,251.0 582.7,251.0 582.3,251.0 581.9,250.9 581.5,250.7 581.2,250.6 580.7,250.4 580.3,250.1"/>
    <polyline points="580.8,250.3 581.2,250.6 581.5,250.7 581.9,250.8 582.3,250.9 582.8,250.9 583.3,251.0 585.9,251.0 586.4,251.0"/>
    <polyline points="585.4,251.0 585.9,251.1"/>
    <polyline points="588.3,251.1 589.0,251.1 590.1,251.1 590.5,251.1 590.8,251.2 590.9,251.3"/>
    <polyline points="580.9,250.2 581.5,250.6 582.0,250.7 582.5,250.8 583.1,250.8 585.1,250.9 585.3,250.9"/>
    <polyline points="585.1,250.9 584.8,250.8 583.6,250.8 583.0,250.8 582.3,250.7 581.6,250.5 580.9,250.2"/>
    <polyline points="580.9,250.3 581.2,250.5 581.5,250.6 581.9,250.7 582.3,250.8 582.7,250.9 583.4,250.9 585.3,250.9 585.9,251.0"/>
    <polyline points="582.8,250.9 583.4,250.9"/>
    <polyline points="589.0,251.1 588.5,251.0"/>
    <polyline points="490.2,158.3 490.0,158.0"/>
    <polyline points="496.2,163.4 496.2,163.0 496.0,162.5 496.0,162.3 495.9,161.9 495.8,161.5 495.7,161.3 495.6,161.1 495.4,160.7 495.3,160.5 495.2,160.3 495.0,160.1 494.8,159.9 494.7,159.7 494.4,159.6 494.2,159.5 494.0,159.4 493.8,159.3 493.6,159.3 493.4,159.3 493.1,159.3 492.7,159.4 492.3,159.4 492.1,159.4 491.9,159.4 491.7,159.4 491.5,159.4 491.3,159.3 491.2,159.2 491.0,159.1 490.9,159.0 490.6,158.9 490.5,158.8 490.3,158.6 490.3,158.4 490.2,158.3"/>
    <polyline points="496.4,164.0 496.2,163.4"/>
    <polyline points="531.9,207.9 531.6,207.6"/>
    <polyline points="552.9,231.9 552.7,231.9"/>
    <polyline points="571.2,243.4 570.8,243.0 570.3,242.7 569.7,242.4 569.0,242.1 567.1,241.3 566.7,241.2 566.2,241.1 566.0,241.0 563.8,240.7 563.4,240.6"/>
    <polyline points="614.5,293.2 615.0,293.4 615.4,293.4 616.4,293.4 617.1,293.4 617.5,293.4 618.0,293.5 618.7,293.6 619.7,293.8 620.1,293.9 620.4,293.9 621.4,294.1 621.7,294.1 622.0,294.1 622.3,294.1 622.6,294.1 622.9,294.0 623.4,293.8 623.7,293.7 624.9,293.2 625.2,293.1 625.5,293.0 626.1,292.9 626.3,292.9 626.6,292.9 626.9,292.9 627.1,293.0 627.4,293.1 627.7,293.2"/>
    <polyline points="608.0,325.7 608.2,325.5 608.7,325.2 608.9,325.0 609.1,324.6 609.3,324.4 609.5,324.2 609.8,323.7 610.0,323.4 610.1,323.2 610.2,323.0 610.3,322.8 610.9,321.2"/>
    <polyline points="571.9,244.2 572.1,244.5 572.7,245.1 573.8,246.4 574.8,247.2 575.8,248.0 576.4,248.3"/>
    <polyline points="576.4,248.3 580.3,250.2"/>
    <polyline points="571.2,243.4 571.5,243.7 571.7,243.9 571.9,244.2"/>
    <polyline points="571.9,244.1 571.7,243.9 571.5,243.6 571.2,243.4"/>
    <polyline points="531.6,207.6 530.6,206.6"/>
    <polyline points="530.3,206.3 529.5,205.6 529.3,205.4 529.0,205.2 528.3,204.7 528.0,204.5 527.4,204.1 527.2,203.9 526.6,203.5"/>
    <polyline points="530.6,206.6 530.3,206.3"/>
    <polyline points="526.6,203.5 525.7,202.7 525.2,202.3 524.9,202.0 524.2,201.4 523.4,200.8 522.9,200.5 522.2,200.1 521.9,199.9 521.6,199.8 521.4,199.7"/>
    <polyline points="604.0,275.2 603.7,274.7 602.4,272.8 602.3,272.6 602.0,272.0 601.7,271.3 601.0,269.6 600.4,268.2 599.7,266.7 598.7,264.5 598.2,263.6 597.4,262.5 597.2,262.1 597.1,261.9 596.9,261.4 596.8,260.9 596.5,260.1 596.3,259.4 596.2,259.0 596.1,258.7 595.9,258.3 595.7,257.9 595.3,257.3 594.1,255.2 592.8,252.9 592.6,252.6 592.4,252.4 592.1,252.0 591.8,251.7 591.5,251.5 591.2,251.4 590.9,251.2"/>
    <polyline points="605.2,277.3 605.4,277.8 605.6,278.2 605.6,278.7 605.7,278.7 605.7,279.1 605.8,279.7"/>
    <polyline points="604.0,275.2 604.3,275.7 604.7,276.2 604.8,276.5 605.0,276.9 605.2,277.3"/>
    <polyline points="605.3,277.3 605.1,276.9 605.0,276.6 604.5,275.8 604.0,275.2"/>
    <polyline points="629.3,294.0 629.7,294.1 630.1,294.1 630.4,294.1 630.8,294.1"/>
    <polyline points="609.9,291.0 608.9,289.4 607.5,287.6 606.4,285.7 606.2,285.1 605.9,284.3 605.9,283.2 605.9,283.1"/>
    <polyline points="640.5,298.4 639.6,298.4 639.4,298.4 631.3,294.2 631.0,294.1 630.8,294.0"/>
    <polyline points="616.6,293.2 615.7,293.3 615.5,293.3 614.8,293.2"/>
    <polyline points="629.4,293.9 629.1,293.8 628.6,293.5"/>
    <polyline points="614.8,293.2 615.5,293.3 615.8,293.4 616.4,293.4"/>
    <polyline points="612.6,292.7 612.8,292.7 614.5,293.1 614.8,293.2"/>
    <polyline points="612.6,292.7 612.1,292.5 611.8,292.4 611.5,292.2 611.2,292.0"/>
    <polyline points="611.1,292.1 611.6,292.4 611.8,292.5 612.2,292.6 612.6,292.7"/>
    <polyline points="627.9,293.3 628.4,293.6 628.8,293.8 629.2,294.0 629.6,294.1 629.8,294.2 630.1,294.2 630.4,294.2 630.7,294.2 631.3,294.1 631.9,293.9 632.8,293.7 633.3,293.6 633.7,293.6 634.4,293.5 635.5,293.4 636.1,293.3 636.7,293.2 637.1,293.1 638.0,292.9 638.6,292.8 639.2,292.6 639.6,292.5"/>
    <polyline points="627.9,293.3 628.7,293.6 629.1,293.8 629.3,294.0"/>
    <polyline points="639.7,292.3 639.3,292.5 638.9,292.5 638.6,292.6 637.7,292.7 637.4,292.8 637.2,292.9 637.0,293.0 636.6,293.1 636.3,293.2 635.6,293.2 634.4,293.4 633.9,293.5 633.4,293.5 632.9,293.6 632.1,293.7 631.3,293.9 630.7,294.0 630.3,294.0 630.0,294.0 629.7,293.9 629.4,293.8 629.1,293.8 628.6,293.5"/>
    <polyline points="627.7,293.1 627.4,293.0 627.3,293.0 627.1,292.9 626.9,292.9 626.7,292.9 626.3,292.8 626.1,292.8 625.5,292.9 625.2,293.0 624.9,293.1 624.1,293.5 623.7,293.6 623.5,293.7 622.9,293.9 622.5,294.0 622.3,294.1 622.0,294.1 621.7,294.1 621.4,294.1 620.4,293.9 619.7,293.8 619.4,293.7 618.6,293.4 618.2,293.3 617.8,293.3 617.5,293.2 617.2,293.2 616.6,293.2 616.1,293.2 615.6,293.2 614.7,293.0 614.5,292.9"/>
    <polyline points="639.6,298.6 639.8,298.5 640.5,298.4"/>
    <polyline points="641.8,298.3 640.5,298.4"/>
    <polyline points="640.5,298.7 639.8,298.5 639.6,298.4"/>
    <polyline points="630.8,294.1 631.0,294.2 631.2,294.3 636.7,297.1 639.4,298.5 639.6,298.6 640.5,298.7"/>
    <polyline points="552.9,232.0 553.3,232.2 554.9,232.8 555.2,232.9 555.6,233.1 556.0,233.4 556.4,233.6 556.7,233.8 557.1,234.2 557.5,234.5 557.9,234.9 558.1,235.2 558.4,235.6 558.6,235.9 558.8,236.2 559.6,237.6 559.9,238.1 560.1,238.4 560.3,238.8 560.6,239.2 560.8,239.4 561.0,239.6 561.3,239.8 561.5,240.0 561.8,240.2 562.0,240.3 562.3,240.4 562.5,240.5 562.8,240.6 563.0,240.6 563.4,240.7 566.0,241.1 566.4,241.2 566.7,241.2 567.1,241.4 567.5,241.5 568.2,241.8 569.0,242.1 569.7,242.4 570.3,242.8 570.8,243.1 571.2,243.4"/>
    <polyline points="552.7,231.9 552.9,232.0"/>
    <polyline points="646.1,287.7 646.4,287.6 646.6,287.5"/>
    <polyline points="644.2,289.1 644.1,289.2 643.8,289.5"/>
    <polyline points="643.8,289.6 643.9,289.4 644.2,289.1"/>
    <polyline points="653.1,286.9 654.1,287.0 655.2,287.0"/>
    <polyline points="646.6,287.4 646.5,287.5 646.3,287.6 646.1,287.7"/>
    <polyline points="653.1,286.9 652.9,286.8"/>
    <polyline points="642.1,291.1 642.2,291.0 642.4,290.9 642.7,290.6 643.3,290.0 643.8,289.6 645.3,288.3 645.4,288.2 645.6,288.0 645.9,287.9 646.6,287.5 647.0,287.4 648.3,286.7 648.6,286.6 648.8,286.5 649.1,286.5 649.3,286.4 650.8,286.4 651.3,286.4 651.6,286.5 651.8,286.5 652.3,286.8 652.5,286.8 652.7,286.9 652.9,286.9"/>
    <polyline points="646.1,287.7 645.8,287.9 645.5,288.0 645.4,288.1 645.3,288.2 644.2,289.1"/>
    <polyline points="640.5,298.7 643.1,298.6"/>
    <polyline points="484.1,142.3 484.7,143.8 484.9,144.3"/>
    <polyline points="546.2,435.4 546.8,435.0"/>
    <polyline points="532.9,436.4 533.9,436.7 534.5,436.8 534.8,436.8 536.4,436.9"/>
    <polyline points="545.5,435.7 546.2,435.4"/>
    <polyline points="540.8,437.3 542.1,437.4 542.6,437.4 543.0,437.3 543.4,437.2 543.9,437.0 544.3,436.6 544.7,436.3 544.7,436.2"/>
    <polyline points="544.7,436.2 545.5,435.7"/>
    <polyline points="649.5,401.9 649.3,402.2 648.9,402.3 647.9,402.3 643.0,401.8 642.8,401.9 642.6,402.0 642.5,402.1 642.1,402.4 641.0,403.1 640.9,403.2 640.7,403.3 640.6,403.3 640.4,403.3 639.3,403.3 633.1,402.8 632.1,402.6 631.1,402.6 630.7,402.6 629.9,402.7 629.8,402.7 629.7,402.7 628.8,402.8 627.7,402.9 626.9,403.1 626.1,403.2 625.3,403.5 624.5,403.7 624.4,403.7 623.3,404.1 622.6,404.4 621.9,404.8 621.1,405.2 620.4,405.6 619.6,406.1 619.0,406.5 618.4,406.9 618.0,407.1 617.6,407.3 617.2,407.5 616.9,407.6 615.8,407.8 614.3,408.3"/>
    <polyline points="539.2,437.2 540.4,437.3"/>
    <polyline points="540.4,437.3 540.8,437.3"/>
    <polyline points="614.3,408.3 613.0,408.7 612.0,409.0 610.7,409.2 608.8,409.6 607.8,409.7"/>
    <polyline points="607.8,409.7 605.8,410.0 605.7,410.1 604.4,410.3 603.0,410.6 602.9,410.6 602.8,410.6 602.7,410.6 601.2,411.0 600.6,411.2 600.4,411.2 600.3,411.2 600.2,411.2 599.4,411.3 598.9,411.4 598.5,411.4 598.0,411.4 597.1,411.6 596.5,411.9 593.3,413.5 592.0,414.0 591.8,414.1 589.5,416.1 588.2,416.7 586.2,417.1 582.2,417.3 579.5,417.7 578.0,418.0 577.4,418.1 576.2,418.5 573.9,419.5 571.7,420.6 563.6,425.1 563.1,425.4 558.9,427.9 557.4,428.8 552.5,431.8 550.2,433.3 547.4,434.7 546.8,435.0"/>
    <polyline points="553.0,232.0 553.3,232.2"/>
    <polyline points="552.7,231.9 551.8,231.5 549.7,230.7 549.1,230.4 548.1,230.0 546.7,229.5 544.9,228.8 543.9,228.4 542.8,227.7 542.4,227.2 541.9,226.6 541.5,226.0 541.2,225.4 541.0,224.6 540.8,224.0 540.7,223.4 540.5,222.4 540.5,222.1 540.5,221.6 540.4,221.3 540.3,220.8 540.3,220.4 540.1,219.8 540.0,219.4 539.9,219.1 539.7,218.5 539.6,218.1 539.4,217.6 539.2,217.2 539.1,216.8 538.9,216.5 538.6,216.0 538.3,215.5 538.1,215.1 537.5,214.2 537.2,213.7 536.9,213.2 536.6,212.8 536.2,212.4 535.8,211.9 533.6,209.7 532.6,208.6"/>
    <polyline points="563.4,240.6 562.8,240.5 562.5,240.5 562.3,240.4 562.0,240.3 561.8,240.1 561.5,240.0 561.3,239.8 561.1,239.6 560.8,239.4 560.6,239.1 560.4,238.8 560.1,238.4 559.9,238.1 559.6,237.6 558.9,236.2 558.7,235.9 558.5,235.6 558.2,235.2 557.9,234.9 557.5,234.5 557.1,234.1 556.7,233.8 556.4,233.6 556.0,233.3 555.6,233.1 555.3,232.9 554.9,232.7 553.0,232.0 552.9,231.9"/>
    <polyline points="548.1,230.0 548.4,230.2"/>
    <polyline points="590.9,251.3 591.1,251.4 591.4,251.5 591.7,251.7 592.0,252.0 592.3,252.3 592.5,252.6 592.8,253.1 595.1,257.0 595.3,257.3 595.7,257.9 595.9,258.3 596.0,258.7 596.1,259.0 596.3,259.4 596.5,260.1 596.7,260.8 596.8,261.2 597.0,261.7 597.1,262.0 597.3,262.3 597.5,262.7 598.1,263.6 598.6,264.5 599.4,266.2 600.4,268.3 600.9,269.6 601.6,271.4 601.9,272.1 602.2,272.6 602.4,272.8 603.7,274.8 604.0,275.2"/>
    <polyline points="590.9,251.2 590.7,251.1 590.4,251.1 590.0,251.0 588.5,251.0 588.3,251.0"/>
    <polyline points="531.9,208.0 532.6,208.7"/>
    <polyline points="532.6,208.6 531.9,207.9"/>
    <polyline points="530.2,206.3 530.6,206.7"/>
    <polyline points="530.6,206.7 531.5,207.7"/>
    <polyline points="521.4,199.7 520.8,199.4 520.3,199.2 519.9,198.9 519.7,198.9 519.4,198.7 519.2,198.6 519.0,198.4 518.8,198.2 518.5,197.9 518.3,197.8 518.3,197.7 518.0,197.4 517.8,197.1 516.8,195.6 516.3,194.8 516.2,194.6 516.0,194.4 516.0,194.4 515.9,194.2 515.7,194.1 515.6,194.0 515.4,193.9 515.3,193.8 515.1,193.7 515.0,193.7"/>
    <polyline points="526.6,203.5 527.4,204.2 528.0,204.6 528.3,204.8 528.6,205.0 529.0,205.3 529.2,205.4 529.5,205.6 530.2,206.3"/>
    <polyline points="531.5,207.7 531.9,208.0"/>
    <polyline points="532.6,208.7 533.6,209.7 535.8,212.0 536.2,212.4 536.6,212.9 536.9,213.3 537.2,213.7 537.5,214.2 538.0,215.1 538.3,215.6 538.6,216.0 538.9,216.5 539.0,216.8 539.2,217.2 539.4,217.6 539.6,218.1 539.7,218.5 539.9,219.2 540.0,219.4 540.1,219.8 540.2,220.4 540.3,220.8 540.4,221.3 540.4,221.6 540.5,222.1 540.6,223.4 540.7,224.0 540.9,224.7 541.2,225.4 541.5,226.0 541.9,226.6 542.4,227.3 542.8,227.7 543.9,228.4 544.9,228.8 546.7,229.6 548.4,230.2 548.9,230.4 549.2,230.6 549.4,230.7 549.7,230.8 551.7,231.6 552.0,231.7 552.5,231.9 552.7,231.9"/>
    <polyline points="520.3,199.2 520.6,199.3"/>
    <polyline points="521.4,199.7 521.6,199.8 521.9,200.0 522.2,200.2 522.9,200.6 523.3,200.9 524.1,201.5 524.8,202.1 525.1,202.4 525.7,202.8 525.7,202.8 526.6,203.5"/>
    <polyline points="510.5,191.4 510.6,191.6 510.7,191.9 510.8,192.0 510.9,192.2"/>
    <polyline points="510.9,192.2 511.0,192.4 511.1,192.6 511.3,192.8 511.6,193.0 511.8,193.2 512.0,193.3 512.2,193.4 512.4,193.4 512.6,193.4 513.9,193.6"/>
    <polyline points="513.9,193.6 514.1,193.6 514.4,193.6 514.6,193.6 514.8,193.7 515.0,193.7"/>
    <polyline points="507.8,184.5 507.7,184.3 507.7,184.2 507.5,183.5 506.8,181.8 506.6,181.4 506.5,181.1 506.4,180.9 506.3,180.8"/>
    <polyline points="515.0,193.7 514.8,193.6 514.6,193.5 514.4,193.5 513.9,193.5"/>
  </g>

  <!-- 지하철 역 -->
  <g>
    <circle cx="666.4" cy="373.2" r="3" fill="#dc2626" stroke="#fff" stroke-width="1"/>
    <circle cx="671.1" cy="309.1" r="3" fill="#dc2626" stroke="#fff" stroke-width="1"/>
    <circle cx="641.1" cy="298.6" r="3" fill="#dc2626" stroke="#fff" stroke-width="1"/>
    <circle cx="671.2" cy="317.0" r="3" fill="#dc2626" stroke="#fff" stroke-width="1"/>
    <circle cx="663.6" cy="353.2" r="3" fill="#dc2626" stroke="#fff" stroke-width="1"/>
    <circle cx="624.1" cy="309.3" r="3" fill="#dc2626" stroke="#fff" stroke-width="1"/>
    <circle cx="629.9" cy="305.9" r="3" fill="#dc2626" stroke="#fff" stroke-width="1"/>
    <circle cx="504.4" cy="177.4" r="3" fill="#dc2626" stroke="#fff" stroke-width="1"/>
    <circle cx="498.0" cy="167.2" r="3" fill="#dc2626" stroke="#fff" stroke-width="1"/>
    <circle cx="488.8" cy="154.3" r="3" fill="#dc2626" stroke="#fff" stroke-width="1"/>
    <circle cx="540.6" cy="223.0" r="3" fill="#dc2626" stroke="#fff" stroke-width="1"/>
    <circle cx="534.2" cy="210.3" r="3" fill="#dc2626" stroke="#fff" stroke-width="1"/>
    <circle cx="524.1" cy="201.4" r="3" fill="#dc2626" stroke="#fff" stroke-width="1"/>
    <circle cx="512.8" cy="193.4" r="3" fill="#dc2626" stroke="#fff" stroke-width="1"/>
    <circle cx="587.3" cy="251.0" r="3" fill="#dc2626" stroke="#fff" stroke-width="1"/>
    <circle cx="575.6" cy="247.7" r="3" fill="#dc2626" stroke="#fff" stroke-width="1"/>
    <circle cx="564.0" cy="240.8" r="3" fill="#dc2626" stroke="#fff" stroke-width="1"/>
    <circle cx="550.1" cy="230.9" r="3" fill="#dc2626" stroke="#fff" stroke-width="1"/>
    <circle cx="613.7" cy="292.9" r="3" fill="#dc2626" stroke="#fff" stroke-width="1"/>
    <circle cx="603.1" cy="273.8" r="3" fill="#dc2626" stroke="#fff" stroke-width="1"/>
    <circle cx="626.7" cy="292.9" r="3" fill="#dc2626" stroke="#fff" stroke-width="1"/>
    <circle cx="647.4" cy="293.2" r="3" fill="#dc2626" stroke="#fff" stroke-width="1"/>
    <circle cx="669.7" cy="289.7" r="3" fill="#dc2626" stroke="#fff" stroke-width="1"/>
    <circle cx="670.1" cy="324.7" r="3" fill="#dc2626" stroke="#fff" stroke-width="1"/>
    <circle cx="672.1" cy="294.7" r="3" fill="#dc2626" stroke="#fff" stroke-width="1"/>
    <circle cx="653.3" cy="390.5" r="3" fill="#dc2626" stroke="#fff" stroke-width="1"/>
    <circle cx="660.4" cy="378.3" r="3" fill="#dc2626" stroke="#fff" stroke-width="1"/>
    <circle cx="641.4" cy="291.5" r="3" fill="#dc2626" stroke="#fff" stroke-width="1"/>
    <circle cx="615.0" cy="314.3" r="3" fill="#dc2626" stroke="#fff" stroke-width="1"/>
    <circle cx="609.3" cy="324.4" r="3" fill="#dc2626" stroke="#fff" stroke-width="1"/>
    <circle cx="661.6" cy="283.4" r="3" fill="#dc2626" stroke="#fff" stroke-width="1"/>
    <circle cx="624.0" cy="403.9" r="3" fill="#dc2626" stroke="#fff" stroke-width="1"/>
    <circle cx="631.4" cy="402.7" r="3" fill="#dc2626" stroke="#fff" stroke-width="1"/>
    <circle cx="641.7" cy="402.7" r="3" fill="#dc2626" stroke="#fff" stroke-width="1"/>
    <circle cx="665.9" cy="282.8" r="3" fill="#dc2626" stroke="#fff" stroke-width="1"/>
    <circle cx="481.8" cy="139.5" r="3" fill="#dc2626" stroke="#fff" stroke-width="1"/>
    <circle cx="656.7" cy="285.3" r="3" fill="#dc2626" stroke="#fff" stroke-width="1"/>
    <circle cx="651.3" cy="400.3" r="3" fill="#dc2626" stroke="#fff" stroke-width="1"/>
    <circle cx="669.2" cy="333.7" r="3" fill="#dc2626" stroke="#fff" stroke-width="1"/>
    <circle cx="592.5" cy="413.8" r="3" fill="#dc2626" stroke="#fff" stroke-width="1"/>
    <circle cx="536.4" cy="437.0" r="3" fill="#dc2626" stroke="#fff" stroke-width="1"/>
  </g>
</svg>