<?xml version="1.0" encoding="UTF-8"?>
<svg width="800" height="600" xmlns="http://www.w3.org/2000/svg">
  <title>Rome Subway Map</title>
  <rect width="100%" height="100%" fill="#f8f9fa"/>
  <g stroke="#2563eb" stroke-width="3" fill="none">
    <polyline points="300.5,431.8 301.3,435.2 302.0,438.4 302.5,439.9 303.2,441.6 303.9,442.6 305.0,443.6 306.5,444.4 308.6,445.2 310.7,446.1 312.8,446.8 316.7,448.1 327.6,451.6 334.5,454.0 336.3,454.3 340.5,454.4 344.6,454.5 347.2,454.8 350.0,455.5 354.9,457.0"/>
    <polyline points="339.4,392.5 339.3,393.2 339.0,393.9 338.5,395.0"/>
    <polyline points="338.5,395.0 338.0,395.8 337.7,396.3 337.5,396.6 337.1,397.1 336.6,397.7 336.2,398.2 335.7,398.7 334.8,399.4 334.3,399.8 333.8,400.2 333.6,400.3 332.6,400.9 331.2,401.7 329.8,402.5 329.2,402.9 328.6,403.4 327.9,403.9 327.6,404.1 327.2,404.4 326.9,404.7 326.5,405.1 325.7,405.8 325.0,406.7 324.3,407.6 323.4,408.6 322.6,409.6 321.8,410.6 321.3,411.1 320.8,411.6 320.6,411.8 320.3,412.1 320.1,412.2 319.8,412.5 319.3,412.9 318.7,413.3"/>
    <polyline points="344.9,381.2 344.8,381.4 344.7,381.7 344.6,381.8 344.5,382.0 344.4,382.2 344.1,382.6"/>
    <polyline points="343.5,383.5 342.5,384.9 341.8,386.0 341.5,386.5 341.3,386.9 341.0,387.6 340.5,388.7 340.1,390.2 339.4,392.5"/>
    <polyline points="347.6,367.2 347.3,369.0"/>
    <polyline points="347.3,369.0 347.0,370.6 346.6,374.1 346.3,375.8 346.2,376.7 346.0,377.5 345.9,378.3 345.7,379.0 345.5,379.7 345.3,380.3 345.1,380.8 345.0,381.0 344.9,381.2"/>
    <polyline points="344.1,382.6 343.8,383.1"/>
    <polyline points="343.8,383.1 343.5,383.5"/>
    <polyline points="595.1,161.7 592.6,163.3 592.5,163.4 592.4,163.5 591.4,164.2 591.0,164.5 590.6,164.8 590.4,164.9 590.1,165.1 589.9,165.2 589.7,165.3 589.4,165.4 588.7,165.7 588.5,165.8 588.3,165.9 588.2,165.9 587.9,166.0 587.8,166.1 587.7,166.1 587.2,166.3 584.8,166.9 584.7,167.0 584.0,167.2"/>
    <polyline points="584.0,167.2 581.2,168.1"/>
    <polyline points="581.2,168.1 580.8,168.2 580.6,168.3 580.3,168.5 580.0,168.6 579.8,168.8 579.3,169.1 579.1,169.2 578.8,169.4 578.6,169.7 578.2,170.0 578.0,170.2 577.8,170.4 577.6,170.7 577.5,170.9 577.3,171.1 577.2,171.3 577.0,171.6 576.8,172.0 576.5,172.6 576.1,173.5 575.7,174.4 574.8,176.4 574.4,177.1 573.8,178.2 572.8,180.4"/>
    <polyline points="572.8,180.4 571.3,183.3 571.1,183.7 571.0,184.0 570.8,184.4 570.5,184.8 570.3,185.1 570.1,185.4 569.8,185.8 569.6,186.1 569.3,186.4 569.1,186.7 568.8,187.0 568.6,187.1 568.4,187.3 568.3,187.5 568.1,187.7 567.8,187.9 567.5,188.1"/>
    <polyline points="361.8,324.4 362.0,325.0 362.1,325.5 362.2,326.1 362.4,326.8 362.4,327.2 362.5,327.7 362.5,327.9 362.5,328.2 362.5,328.5 362.5,328.9 362.5,329.4 362.5,329.9 362.4,330.4 362.4,330.9 362.2,332.3 362.1,333.1 361.9,333.9 361.6,334.8 361.5,335.3 361.3,335.6 361.2,335.9 360.9,336.6 360.5,337.4 359.6,339.4 358.7,341.3 358.2,342.4 357.8,343.2 355.1,348.8 354.2,350.7 353.7,351.7 353.5,352.0 353.3,352.6 352.4,354.5 351.9,355.5 351.5,356.4"/>
    <polyline points="359.4,317.6 361.8,324.4"/>
    <polyline points="181.4,220.2 182.0,220.7 182.9,221.4 184.5,222.4 189.6,226.3 192.1,227.3 195.5,228.0 199.6,228.7 204.5,230.0 207.3,231.3 208.3,232.2 208.7,232.5 208.8,232.6 208.9,232.7 209.1,233.0 209.9,234.7 211.0,237.0 212.6,240.0 214.8,241.7 217.1,242.6 220.2,243.2 222.8,243.3 224.8,243.0 228.4,242.0 235.4,240.0 237.2,239.1 239.8,237.5 243.1,234.9 244.4,233.9 245.7,233.1 250.3,230.0 253.7,227.8 260.9,221.1 263.3,218.2 264.0,217.7 264.9,217.4 266.8,216.6 267.7,216.2 267.9,216.1 268.0,216.1 268.1,216.0 268.3,216.0 268.5,216.0 268.6,216.0 268.8,216.0 269.0,216.0 269.2,216.0 269.4,216.0 270.9,216.3 271.4,216.4 271.6,216.4 271.9,216.4 272.1,216.4 272.4,216.4 272.6,216.4 272.9,216.4 273.1,216.3 273.3,216.3 288.1,212.1 291.8,211.2 292.7,211.0 293.6,210.7 294.6,210.4 314.6,204.8 315.2,204.6 318.3,203.8 318.4,203.8 318.6,203.7 318.9,203.7 319.1,203.7 319.3,203.6 319.6,203.6 319.9,203.6 325.6,203.0 325.7,203.0"/>
    <polyline points="357.6,312.5 358.0,313.8 358.8,315.9"/>
    <polyline points="358.8,318.8 360.7,322.9 360.9,323.5"/>
    <polyline points="360.9,323.5 361.3,324.3 361.5,324.8 361.7,325.5 361.9,326.2 362.0,326.7 362.1,327.2 362.2,327.8 362.2,328.3 362.2,328.9 362.2,329.3 362.2,329.8 362.1,330.3 362.0,330.8 362.0,331.5 361.9,332.2 361.8,332.5 361.8,332.9 361.7,333.2 361.6,333.7 361.4,334.2 361.2,334.7 361.0,335.2 360.7,335.7 359.9,337.5 359.0,339.4 358.6,340.3 358.4,340.7 358.1,341.2 356.6,344.4 356.2,345.3 355.9,345.9 355.6,346.7 354.9,348.3 354.4,349.5 354.1,350.1 354.0,350.4 353.8,350.7 353.1,352.1 352.8,352.7 352.5,353.4 351.1,356.3"/>
    <polyline points="351.5,356.4 348.7,362.2"/>
    <polyline points="348.7,362.2 348.4,363.0 348.1,363.9 348.1,364.1 348.0,364.3 348.0,364.5 348.0,364.7 347.8,365.9 347.7,366.5 347.6,367.2"/>
    <polyline points="567.5,188.1 564.1,191.1 562.8,192.1 561.6,192.7 560.5,193.0 557.7,193.4 553.6,193.8 548.4,193.9 547.8,193.9 529.8,191.5 528.6,191.5 519.1,191.5 513.8,191.8 509.1,192.3 505.7,193.0 504.5,193.6 502.9,194.5 501.3,195.9 492.7,202.3 490.5,203.6 487.6,204.9 483.5,206.4 482.5,206.6 481.5,206.6 481.0,206.5 477.1,205.1 468.8,201.9 467.6,201.4 466.4,200.8 464.2,199.6 461.8,198.5 460.5,198.0 460.1,197.8 459.6,197.7 459.2,197.7 458.8,197.7 458.5,197.7"/>
    <polyline points="357.7,457.9 358.9,458.3 359.7,458.5 360.4,458.8 362.3,459.4 364.6,460.1 366.7,460.8"/>
    <polyline points="198.3,515.4 197.3,517.0"/>
    <polyline points="227.7,487.9 225.0,490.1 223.7,491.1 223.3,491.4 222.3,492.2 221.0,493.3 220.3,493.9 219.6,494.4 218.9,495.0 218.1,495.7 217.4,496.3 216.6,497.0 215.6,497.9 214.6,498.9 212.7,500.6 211.9,501.5 210.9,502.3 209.0,503.9 208.4,504.3 207.3,505.2 205.8,506.4 204.6,507.4 203.6,508.2 202.9,509.0 202.2,509.8 201.4,510.9 200.2,512.6 198.3,515.4"/>
    <polyline points="346.8,369.0 346.7,369.7 346.6,370.6 346.4,371.8 346.2,373.1 346.1,373.6 345.9,375.4 345.8,376.5 345.7,377.4 345.5,378.1 345.4,378.8 345.2,379.4 345.1,379.8 345.0,380.2 344.9,380.5 344.8,380.8 344.7,380.9 344.7,381.0 344.6,381.1"/>
    <polyline points="318.5,413.0 318.2,413.3"/>
    <polyline points="318.7,413.3 318.4,413.5"/>
    <polyline points="318.4,413.5 317.9,413.8 317.4,414.1 316.3,414.6 314.7,415.4 313.6,415.9 312.6,416.3 312.2,416.5 312.0,416.6 311.8,416.7 311.4,416.9 311.2,417.1 310.8,417.3 310.2,417.8 309.5,418.3 309.0,418.8 307.9,419.8 306.1,421.4 305.8,421.7 305.5,421.9 304.4,422.9 303.2,424.0 302.8,424.5 302.3,424.9 302.0,425.3 301.7,425.6 301.5,425.9 301.3,426.2 301.1,426.6 300.9,427.0 300.7,427.4 300.5,427.8 300.4,428.2 300.3,428.6 300.3,429.2 300.2,429.5 300.2,429.9 300.2,430.3 300.2,430.6 300.3,431.0 300.3,431.3 300.5,431.8"/>
    <polyline points="318.2,413.3 317.7,413.6 317.2,413.9 316.7,414.2 316.2,414.4 315.3,414.8 314.2,415.3 313.2,415.7 312.7,415.9 312.3,416.1 311.7,416.4 311.1,416.8 309.9,417.5 309.6,417.8 309.2,418.1 308.4,418.8 307.5,419.5 305.7,421.1 305.1,421.7 304.6,422.2 303.4,423.3 302.8,423.9 302.2,424.4 301.5,425.0 301.3,425.2 300.9,425.5 300.4,426.0 298.5,427.6 297.7,428.5 296.7,429.3 295.8,430.2 294.9,430.9 293.6,432.1 292.2,433.3 290.7,434.7 289.3,436.0 288.3,436.8 287.8,437.3 287.4,437.6 286.1,438.8 284.5,440.3"/>
    <polyline points="284.5,440.3 284.4,440.3 284.1,440.6"/>
    <polyline points="284.1,440.6 281.4,443.0 280.1,444.2 278.7,445.5 276.0,447.9 274.6,449.1 273.3,450.4 269.8,453.5 267.9,455.1 266.2,456.6 264.9,457.8 263.5,459.1"/>
    <polyline points="263.5,459.1 262.8,459.7"/>
    <polyline points="251.4,469.0 250.7,469.6"/>
    <polyline points="262.8,459.7 262.0,460.4 259.7,462.4 258.6,463.4 258.0,463.9 257.5,464.2 255.7,465.7 254.6,466.5 253.9,467.1 252.7,468.0 251.4,469.0"/>
    <polyline points="332.3,201.9 332.6,201.8 332.9,201.7 333.3,201.5 339.7,199.6 339.9,199.6 340.0,199.5 340.2,199.5 340.3,199.4 340.4,199.4 340.5,199.4 340.8,199.3 340.9,199.3 341.0,199.3 341.2,199.3 341.3,199.3 341.4,199.3 341.5,199.3 341.6,199.3 341.8,199.3 341.9,199.3 342.0,199.3 342.1,199.3 342.2,199.4 342.4,199.4 342.5,199.4 342.6,199.5 342.7,199.5 342.8,199.6 342.9,199.6 343.0,199.7 343.2,199.8 344.0,200.2 345.1,200.8 346.0,201.3 346.6,201.8 347.1,202.2 347.4,202.5 347.7,202.7 348.0,203.1 348.3,203.6 350.3,206.1 354.1,210.7 356.7,213.5 359.5,215.2 361.5,216.7 362.5,217.4 363.3,218.3 364.0,219.7 364.7,221.0 367.0,223.1 370.9,225.4 374.5,227.1 375.9,227.6 376.7,227.9 377.5,228.1 378.6,228.3 379.7,228.5 381.9,228.8 383.6,229.1 393.0,230.0 397.4,230.5 398.0,230.5 398.3,230.6 398.7,230.6 399.1,230.7 399.5,230.8 399.9,230.9 400.5,231.0 401.2,231.2 402.2,231.6 402.4,231.7 403.7,232.3 404.3,232.6 405.0,233.0 405.4,233.3 405.9,233.6 406.3,234.0 406.7,234.4 407.4,235.2 408.0,236.0 408.6,236.8 409.2,237.8 409.7,238.8 410.6,240.9 415.6,253.9 416.1,255.1 421.8,267.4 421.9,267.6 426.7,278.1 427.4,279.1 428.1,280.2 430.1,282.5 441.7,293.6 442.4,294.3 452.5,303.9 453.6,305.0 456.0,307.2 458.4,309.3 460.8,311.1 464.3,314.2 474.4,323.7 474.7,324.0 478.6,327.7 479.5,328.4 480.1,328.8 480.9,329.3 482.8,330.3 486.3,332.3 488.0,333.4 489.9,334.8 496.0,339.3 500.7,342.5 501.8,342.9 502.3,343.0 502.7,343.2 502.9,343.2 503.4,343.4 504.2,343.6 504.6,343.7 505.0,343.8 505.3,343.8 505.7,343.9 506.3,344.0 506.7,344.0 507.2,344.1 507.6,344.1 508.1,344.2 508.5,344.2 515.6,344.4 516.1,344.4 517.6,344.4 520.4,344.5 521.9,344.5 523.0,344.8 526.9,346.0 530.3,347.0 533.7,348.2 534.5,348.3 536.4,349.1 538.3,350.1 542.0,352.0 543.4,352.8 554.1,359.3 559.1,362.6 568.1,368.6 581.4,376.9 582.7,377.8 584.4,379.1 586.2,380.4 588.7,382.4 594.2,386.8 598.2,389.9 598.5,390.1 598.9,390.4 602.8,393.3 606.7,396.3 610.4,399.2 614.2,402.2 615.1,402.8 615.5,403.0 615.8,403.1 616.2,403.4 616.6,403.6 617.1,403.8 617.5,404.0 618.1,404.2 618.9,404.5 619.1,404.6 619.3,404.7 619.5,404.9 619.8,405.0 629.4,410.6"/>
    <polyline points="351.1,356.3 348.4,362.1"/>
    <polyline points="348.4,362.1 348.1,363.0 347.9,363.4 347.8,363.9 347.7,364.4 347.4,365.7 347.2,366.4 347.1,367.2"/>
    <polyline points="347.1,367.2 347.0,367.6 346.9,368.1 346.8,369.0"/>
    <polyline points="338.2,394.9 338.0,395.3 337.7,395.7 337.4,396.1 337.2,396.5 337.0,396.8 336.8,397.1 336.5,397.3 336.3,397.6 335.9,398.1 335.4,398.5 334.6,399.2 333.6,400.0 333.4,400.1 332.9,400.4 332.5,400.7 331.1,401.5 329.6,402.3 329.0,402.7 328.4,403.1 327.7,403.6 327.0,404.2 326.2,404.9 325.8,405.3 325.5,405.7 325.1,406.1 324.7,406.5 324.4,407.0 324.0,407.4 322.3,409.4 321.5,410.4 321.0,411.0 320.5,411.4 319.6,412.3 319.0,412.7 318.6,413.0 318.5,413.0"/>
    <polyline points="339.1,392.5 338.9,393.1 338.7,393.7 338.2,394.9"/>
    <polyline points="343.3,383.4 342.3,384.7 341.9,385.3 341.5,385.9 341.2,386.3 341.0,386.6 340.8,387.0 340.6,387.4 340.4,387.8 340.2,388.3 340.1,388.6 340.0,388.9 339.9,389.4 339.7,390.0 339.4,391.2 339.1,392.5"/>
    <polyline points="343.5,383.0 343.3,383.3 343.3,383.4"/>
    <polyline points="343.9,382.5 343.5,383.0"/>
    <polyline points="344.6,381.1 344.5,381.4 344.4,381.5 344.4,381.7 344.3,381.8 344.2,382.0 344.1,382.1 343.9,382.5"/>
    <polyline points="474.5,89.2 474.6,89.5 474.6,89.6 474.6,89.8 474.6,89.9 474.7,90.0 474.7,90.2 474.8,90.4 474.8,90.6 474.9,90.9 474.9,91.2 475.0,91.9 475.1,92.9 475.2,93.7 475.3,94.4 475.5,94.8 475.6,95.5"/>
    <polyline points="611.2,422.4 610.9,422.9 610.8,423.1 610.7,423.3 610.6,423.8 610.5,424.2 610.2,425.0 609.3,428.1 609.2,428.5 609.1,428.7 608.9,428.8 608.8,429.0 608.6,429.2 608.3,429.5 607.9,429.8 607.7,430.0 607.4,430.2 607.2,430.5 607.1,430.6 607.0,430.7 606.7,431.2 606.6,431.6 605.6,435.0"/>
    <polyline points="606.2,435.2 606.8,433.2 607.2,431.5 607.4,431.0 607.6,430.6 608.0,430.2 608.3,429.8 608.6,429.5 608.8,429.4 609.0,429.2 609.2,428.8 609.3,428.5 609.5,428.1 609.6,427.7 610.6,424.3"/>
    <polyline points="607.9,432.0 608.1,431.5 608.1,431.3 608.3,431.0 608.5,430.8 608.9,430.2 609.1,429.9 609.5,429.1 609.7,428.5 609.8,428.2 610.0,427.9 610.1,427.6"/>
    <polyline points="614.3,425.8 614.5,425.4 614.6,425.0 614.6,424.5 614.6,424.1 614.5,423.6 614.5,423.3 614.4,423.0 614.4,422.8"/>
  </g>
  <g>
    <circle cx="358.0" cy="313.9" r="4" fill="#dc2626"/>
    <circle cx="266.8" cy="216.6" r="4" fill="#dc2626"/>
    <circle cx="505.7" cy="193.0" r="4" fill="#dc2626"/>
    <circle cx="458.5" cy="197.7" r="4" fill="#dc2626"/>
    <circle cx="393.0" cy="230.0" r="4" fill="#dc2626"/>
    <circle cx="374.5" cy="227.1" r="4" fill="#dc2626"/>
    <circle cx="363.3" cy="218.3" r="4" fill="#dc2626"/>
    <circle cx="344.0" cy="200.2" r="4" fill="#dc2626"/>
    <circle cx="598.9" cy="390.4" r="4" fill="#dc2626"/>
    <circle cx="477.7" cy="119.6" r="4" fill="#dc2626"/>
    <circle cx="315.2" cy="204.6" r="4" fill="#dc2626"/>
    <circle cx="250.3" cy="230.0" r="4" fill="#dc2626"/>
    <circle cx="228.4" cy="242.0" r="4" fill="#dc2626"/>
    <circle cx="211.0" cy="237.0" r="4" fill="#dc2626"/>
    <circle cx="421.9" cy="267.6" r="4" fill="#dc2626"/>
    <circle cx="415.6" cy="253.9" r="4" fill="#dc2626"/>
    <circle cx="441.7" cy="293.6" r="4" fill="#dc2626"/>
    <circle cx="453.6" cy="305.0" r="4" fill="#dc2626"/>
    <circle cx="464.3" cy="314.2" r="4" fill="#dc2626"/>
    <circle cx="482.8" cy="330.3" r="4" fill="#dc2626"/>
    <circle cx="496.0" cy="339.3" r="4" fill="#dc2626"/>
    <circle cx="530.3" cy="347.0" r="4" fill="#dc2626"/>
    <circle cx="542.0" cy="352.0" r="4" fill="#dc2626"/>
    <circle cx="554.1" cy="359.3" r="4" fill="#dc2626"/>
    <circle cx="568.1" cy="368.6" r="4" fill="#dc2626"/>
    <circle cx="581.4" cy="376.9" r="4" fill="#dc2626"/>
    <circle cx="629.4" cy="410.6" r="4" fill="#dc2626"/>
    <circle cx="454.4" cy="143.5" r="4" fill="#dc2626"/>
    <circle cx="238.1" cy="479.5" r="4" fill="#dc2626"/>
    <circle cx="445.7" cy="167.2" r="4" fill="#dc2626"/>
    <circle cx="733.2" cy="345.4" r="4" fill="#dc2626"/>
    <circle cx="710.2" cy="348.5" r="4" fill="#dc2626"/>
    <circle cx="693.8" cy="346.0" r="4" fill="#dc2626"/>
    <circle cx="658.7" cy="338.6" r="4" fill="#dc2626"/>
    <circle cx="630.9" cy="331.5" r="4" fill="#dc2626"/>
    <circle cx="566.8" cy="279.9" r="4" fill="#dc2626"/>
    <circle cx="451.8" cy="278.0" r="4" fill="#dc2626"/>
    <circle cx="510.2" cy="276.3" r="4" fill="#dc2626"/>
    <circle cx="578.5" cy="295.1" r="4" fill="#dc2626"/>
    <circle cx="610.6" cy="324.6" r="4" fill="#dc2626"/>
    <circle cx="476.3" cy="98.3" r="4" fill="#dc2626"/>
    <circle cx="430.1" cy="282.3" r="4" fill="#dc2626"/>
    <circle cx="406.0" cy="233.7" r="4" fill="#dc2626"/>
    <circle cx="307.7" cy="419.6" r="4" fill="#dc2626"/>
    <circle cx="327.5" cy="451.7" r="4" fill="#dc2626"/>
    <circle cx="354.9" cy="457.1" r="4" fill="#dc2626"/>
    <circle cx="316.7" cy="448.2" r="4" fill="#dc2626"/>
    <circle cx="381.6" cy="264.2" r="4" fill="#dc2626"/>
    <circle cx="418.5" cy="219.8" r="4" fill="#dc2626"/>
    <circle cx="435.7" cy="212.6" r="4" fill="#dc2626"/>
    <circle cx="386.9" cy="254.1" r="4" fill="#dc2626"/>
    <circle cx="372.6" cy="288.0" r="4" fill="#dc2626"/>
    <circle cx="574.7" cy="176.3" r="4" fill="#dc2626"/>
    <circle cx="529.8" cy="191.4" r="4" fill="#dc2626"/>
    <circle cx="595.0" cy="161.6" r="4" fill="#dc2626"/>
    <circle cx="548.4" cy="193.9" r="4" fill="#dc2626"/>
    <circle cx="483.4" cy="206.3" r="4" fill="#dc2626"/>
    <circle cx="562.7" cy="192.1" r="4" fill="#dc2626"/>
    <circle cx="359.5" cy="339.4" r="4" fill="#dc2626"/>
  </g>
</svg>