<?xml version="1.0" encoding="UTF-8"?>
<svg width="800" height="600" xmlns="http://www.w3.org/2000/svg">
  <title>San Francisco Subway Map</title>
  <rect width="100%" height="100%" fill="#f8f9fa"/>
  <g stroke="#2563eb" stroke-width="3" fill="none">
    <polyline points="351.7,472.8 351.0,474.8 350.5,476.9 349.9,479.4"/>
    <polyline points="349.9,479.4 349.2,482.5"/>
    <polyline points="347.6,490.7 346.9,494.4 346.6,495.9 346.4,497.4 346.2,498.6 346.1,499.7 346.1,500.9 346.0,502.1 345.8,503.2 345.6,504.3"/>
    <polyline points="287.5,539.8 277.1,539.7 276.1,539.7 275.3,539.7 274.4,539.8 273.5,539.9 272.7,540.1 271.9,540.3 271.1,540.5 270.3,540.8 269.5,541.1 268.7,541.5 267.9,541.9 267.1,542.4 266.3,543.0 265.6,543.6 264.9,544.2 264.3,544.9 263.8,545.5 263.4,545.9"/>
    <polyline points="378.5,448.2 377.2,448.7 375.9,449.3 374.7,449.8 373.5,450.4 372.3,451.0 371.1,451.6 369.9,452.3 368.8,452.9 367.7,453.6 366.6,454.3 365.6,455.0 364.6,455.7 363.6,456.5 362.6,457.3 361.6,458.2 360.7,459.0 359.9,459.9 358.9,460.9 357.9,462.0 357.0,463.0 356.2,464.1 355.6,465.1 354.9,466.0 354.4,466.8 353.9,467.8"/>
    <polyline points="469.3,242.4 469.4,245.5 470.4,256.8 470.8,262.2 471.3,267.2 471.5,269.7 472.3,278.8 476.9,331.1 477.7,340.3 478.9,353.7 479.0,354.9 479.0,355.4 478.9,356.0 478.6,356.5 478.1,357.5 461.3,385.8 459.7,388.4 458.1,390.8 454.4,396.1 447.4,402.4 414.7,425.6 411.0,428.3 406.5,431.5 402.2,434.5 392.0,441.6 384.7,445.4 378.5,448.2"/>
    <polyline points="597.4,126.9 584.8,133.0 583.8,133.5 582.8,134.0 581.8,134.6 580.9,135.2 580.1,135.8 579.2,136.5 574.1,140.9 569.3,145.0 567.7,146.4"/>
    <polyline points="931.5,65.3 886.4,60.9 878.1,60.4 876.9,60.3 867.5,60.1 858.9,60.4 851.3,60.8 844.2,61.3 836.5,62.1 828.7,63.2 820.9,64.4 686.7,89.4 681.3,90.5 676.4,91.7 671.4,93.0 666.7,94.4 662.0,96.2 657.4,98.1 597.4,126.9"/>
    <polyline points="345.6,504.3 345.4,505.1 345.1,505.9 344.9,506.8 344.6,507.6 344.3,508.3 343.9,509.2 343.5,510.0 343.1,510.7 342.7,511.5 342.1,512.3 341.7,512.9 341.1,513.7 340.6,514.4 339.9,515.2 339.2,516.0"/>
    <polyline points="339.2,516.0 338.4,517.0 337.6,517.9 336.7,518.8 335.9,519.6 335.1,520.4 334.3,521.2 333.5,522.0 332.5,522.8 330.8,524.3 325.9,528.6 323.1,531.1 322.3,531.8 321.5,532.4 320.6,533.1 319.7,533.8 318.8,534.5 317.8,535.1 316.9,535.6 316.0,536.2 315.1,536.6 314.0,537.1 313.0,537.6 312.0,537.9 311.1,538.3"/>
    <polyline points="378.6,448.4 384.9,445.6 392.3,441.8 402.7,434.8 406.7,431.7 414.9,425.8 447.5,402.7 454.6,396.3 460.5,387.9 478.6,357.5 479.0,356.8 479.2,356.4 479.4,356.0 479.4,355.5 479.5,354.7 479.4,354.1 479.4,353.5 478.2,340.3 477.4,331.1 472.0,269.7 471.8,267.2 471.3,262.1 469.9,245.5 469.8,242.4"/>
    <polyline points="354.1,467.9 354.7,466.9 355.2,466.1 355.8,465.2 356.4,464.2 357.2,463.2 358.1,462.1 359.1,461.0 360.0,460.0 360.9,459.1 361.8,458.3 362.7,457.5 363.7,456.7 364.8,455.9 365.8,455.2 366.8,454.5 367.9,453.8 368.9,453.1 370.1,452.4 371.2,451.8 372.4,451.2 373.6,450.6 374.8,450.0 376.1,449.5 377.3,448.9 378.6,448.4"/>
    <polyline points="349.7,482.6 350.3,479.4"/>
    <polyline points="350.6,478.1 350.9,477.0 351.4,474.9 352.0,472.9 352.6,471.1 353.4,469.4 354.1,467.9"/>
    <polyline points="345.8,504.3 346.1,503.1 347.3,495.6"/>
    <polyline points="263.4,545.9 261.8,548.1 259.6,551.0 259.1,551.6 256.9,554.6 255.9,555.9"/>
    <polyline points="257.4,554.8 258.7,553.1 263.4,546.8"/>
    <polyline points="263.4,545.9 261.9,547.8 261.1,548.8 260.2,549.9 257.3,553.6 255.7,555.7"/>
    <polyline points="263.4,546.8 264.2,545.8 264.7,545.2 265.3,544.6 265.9,543.9 266.7,543.3 267.4,542.7 268.1,542.3 268.9,541.9 269.7,541.5 270.5,541.1 271.3,540.8 272.0,540.6 272.8,540.4 273.6,540.2 274.4,540.0 275.3,539.9 276.1,539.9 277.0,539.9 277.9,539.9 280.9,539.9 287.5,539.9"/>
    <polyline points="258.7,553.1 260.8,549.7 261.3,548.8 261.8,548.1"/>
    <polyline points="259.6,551.0 260.2,550.3 260.8,549.7 262.4,548.0 263.4,546.8"/>
    <polyline points="597.6,127.1 657.5,98.3 662.1,96.3 666.8,94.6 671.5,93.2 676.4,91.9 681.3,90.7 686.8,89.6 821.0,64.6 828.8,63.4 836.5,62.4 844.2,61.5 851.4,61.0 858.9,60.6 867.5,60.3 876.9,60.5 886.3,61.1 931.5,65.5"/>
    <polyline points="469.8,242.4 469.8,240.6 469.9,238.9 470.1,237.2 470.5,235.6 471.0,233.9 471.7,232.3 472.5,230.8 473.4,229.3 474.5,227.8 475.7,226.4 477.0,225.1 478.4,223.9 482.7,220.1 495.2,209.4 502.5,203.1 521.2,187.1 531.7,178.1 549.6,162.8"/>
    <polyline points="328.7,526.5 330.8,524.3"/>
    <polyline points="325.9,528.6 328.5,526.6"/>
    <polyline points="470.8,262.2 471.3,264.7 471.8,267.2"/>
    <polyline points="471.3,267.2 471.3,264.7 471.3,262.1"/>
    <polyline points="568.2,146.8 565.7,148.5 563.3,150.2"/>
    <polyline points="567.7,146.4 565.7,148.5 563.8,150.6"/>
    <polyline points="339.4,516.1 340.1,515.4 340.8,514.5 341.3,513.8 341.8,513.0 342.3,512.3 342.8,511.6 343.3,510.8 343.7,510.0 344.1,509.2 344.5,508.4 344.8,507.6 345.1,506.8 345.4,506.0 345.6,505.2 345.8,504.3"/>
    <polyline points="309.1,539.0 310.1,538.8 311.1,538.4 312.1,538.1 313.1,537.7 314.1,537.3 315.2,536.8 316.1,536.3 317.0,535.8 318.0,535.2 318.9,534.6 319.9,533.9 320.8,533.3 321.6,532.6 322.4,531.9 323.2,531.2 326.1,528.7 328.5,526.6 328.7,526.5 330.9,524.5 332.7,523.0 333.6,522.1 334.5,521.3 335.3,520.5 336.1,519.7 336.9,518.9 337.7,518.0 338.6,517.1 339.4,516.1"/>
    <polyline points="264.2,545.8 265.0,545.0 266.1,544.1 266.9,543.5 267.6,542.9 268.3,542.5 269.0,542.1 269.8,541.7 270.6,541.3 271.4,541.0 272.1,540.8 272.9,540.6 273.7,540.4 274.6,540.3 275.6,540.2"/>
    <polyline points="348.1,487.9 348.0,488.4 348.0,488.5"/>
    <polyline points="349.2,482.5 348.1,487.9"/>
    <polyline points="567.7,146.4 563.3,150.2 553.8,158.4 549.1,162.3 529.8,178.9 523.6,184.3 507.2,198.3 502.0,202.7 494.7,209.0 487.0,215.7 481.3,220.5 477.9,223.5 476.4,224.7 475.1,226.1 473.9,227.5 472.9,229.0 471.9,230.5 471.1,232.1 470.5,233.8 469.9,235.4 469.6,237.2 469.3,238.9 469.3,240.6 469.3,242.4"/>
    <polyline points="563.8,150.6 568.2,146.8 569.8,145.5 573.5,142.3 577.4,139.0 579.7,136.9 582.0,134.9 582.7,134.4 583.4,134.0 584.1,133.5 584.9,133.1 597.6,127.1"/>
    <polyline points="549.6,162.8 556.9,156.5"/>
    <polyline points="556.9,156.5 563.8,150.6"/>
    <polyline points="348.0,488.5 347.6,490.7"/>
    <polyline points="347.3,495.6 347.5,494.1 347.7,492.9 347.9,491.6 348.0,490.6 348.5,488.5 348.6,488.0 349.7,482.6"/>
    <polyline points="350.3,479.4 350.6,478.1"/>
    <polyline points="353.9,467.8 353.2,469.3 352.4,471.1 351.7,472.8"/>
    <polyline points="311.1,538.3 310.0,538.6 309.1,538.8 308.1,539.1 307.1,539.3 306.1,539.4 305.0,539.6 303.9,539.7 302.8,539.7 301.9,539.8 300.7,539.8 299.6,539.8 298.5,539.8 289.9,539.8 287.5,539.8"/>
    <polyline points="293.0,540.0 298.5,540.0 299.6,540.0 300.7,540.0 301.9,540.0 302.9,539.9 303.9,539.9 305.0,539.7 306.1,539.6 307.1,539.4 308.1,539.2 309.1,539.0"/>
    <polyline points="287.5,539.9 293.0,540.0"/>
  </g>
  <g>
    <circle cx="497.6" cy="206.9" r="4" fill="#dc2626"/>
    <circle cx="573.2" cy="142.0" r="4" fill="#dc2626"/>
    <circle cx="527.7" cy="181.2" r="4" fill="#dc2626"/>
    <circle cx="472.3" cy="275.6" r="4" fill="#dc2626"/>
    <circle cx="477.8" cy="337.2" r="4" fill="#dc2626"/>
    <circle cx="553.0" cy="159.5" r="4" fill="#dc2626"/>
    <circle cx="409.7" cy="429.3" r="4" fill="#dc2626"/>
    <circle cx="348.8" cy="485.4" r="4" fill="#dc2626"/>
  </g>
</svg>