<?xml version="1.0" encoding="UTF-8"?>
<svg width="800" height="600" xmlns="http://www.w3.org/2000/svg">
  <title>Santiago Subway Map</title>
  <rect width="100%" height="100%" fill="#f8f9fa"/>

  <!-- 지하철 선로 -->
  <g stroke="#2563eb" stroke-width="2" fill="none" opacity="0.8">
    <polyline points="464.0,483.8 463.5,482.5 461.8,478.5 458.7,471.4 458.3,470.6 458.0,470.0 457.8,469.5 457.5,469.0 457.2,468.5 456.7,467.8 456.2,467.1 454.7,465.0 451.1,460.3"/>
    <polyline points="115.1,294.0 114.0,297.6 113.8,298.6 113.8,298.9 113.8,299.2 113.9,299.4 114.1,299.7 114.4,300.0 114.9,300.3 115.3,300.6 115.6,300.7 115.9,300.8 116.1,300.9 116.3,300.9 116.5,300.9 116.7,300.9 116.8,300.9 117.0,300.9 117.2,300.8 117.4,300.7 117.5,300.7 117.7,300.6 117.8,300.5 118.0,300.3 118.1,300.2 118.1,300.1 118.2,300.0 118.2,299.8 118.3,299.7 118.3,299.5"/>
    <polyline points="114.1,293.8 113.0,297.6 112.8,298.1 112.8,298.2 112.7,298.6 112.7,298.9 112.9,299.2 113.0,299.5 113.3,299.7 113.8,300.0 114.2,300.2 114.5,300.4 114.8,300.5 115.3,300.7 115.6,300.7"/>
    <polyline points="113.8,293.8 112.7,297.4 112.5,298.0 112.5,298.1 112.4,298.5 112.4,298.9 112.5,299.1 112.7,299.4 113.0,299.6 113.2,299.7 113.5,299.9 113.9,300.2 114.2,300.3 114.5,300.4 114.8,300.5"/>
    <polyline points="112.8,293.6 111.7,297.0 111.6,297.4 111.4,298.1 111.4,298.2 111.5,298.5 111.6,298.8 111.7,299.0 111.9,299.2 112.1,299.4 112.5,299.6 112.9,299.8 113.1,299.8 113.4,300.0"/>
    <polyline points="113.5,293.7 112.4,297.4 112.2,297.9 112.2,298.0 112.1,298.4 112.1,298.7 112.2,298.9 112.4,299.2 112.5,299.4 112.9,299.6 113.4,300.0 113.9,300.2"/>
    <polyline points="108.6,293.0 107.5,296.5 107.5,296.8 107.5,297.1 107.5,297.4 107.7,297.7 107.9,297.9 108.9,299.0 109.2,299.2 109.5,299.5 109.8,299.6 110.4,299.9 114.7,300.6 115.9,300.8"/>
    <polyline points="107.8,292.6 106.8,295.8 106.8,296.1 106.7,296.2 106.7,296.4 106.8,296.6 106.8,296.8 106.9,296.9 107.2,297.3 107.3,297.4 107.5,297.6 107.9,297.9"/>
    <polyline points="104.5,296.4 107.0,298.9 107.3,299.1 107.6,299.2 108.3,299.5 108.8,299.6 109.8,299.7 110.4,299.9"/>
    <polyline points="104.7,296.0 107.4,298.7 107.7,299.0 108.0,299.2 108.2,299.4 108.8,299.6"/>
    <polyline points="106.0,292.1 105.3,294.4 105.2,294.8 105.1,295.1 105.1,295.3 105.1,295.4 105.2,295.6 105.2,295.8 105.4,296.0 105.7,296.3 105.8,296.4 106.1,296.7 106.4,297.0 106.9,297.4 108.5,299.0 108.7,299.2 109.1,299.4 109.8,299.6"/>
    <polyline points="106.9,297.4 106.2,296.4 105.9,296.0 105.8,295.7 105.7,295.5 105.7,295.2 105.8,294.9 106.6,292.2"/>
    <polyline points="107.2,292.6 106.5,295.0 106.3,295.5 106.3,295.7 106.3,295.9 106.3,296.2 106.4,296.4 106.5,296.6 106.7,296.8 107.2,297.3"/>
    <polyline points="108.2,292.7 107.3,295.9 107.2,296.1 107.1,296.5 107.1,296.7 107.1,296.9 107.3,297.2 107.5,297.6"/>
    <polyline points="118.5,298.4 118.6,300.3 118.6,300.8 118.6,300.9 118.6,301.0 118.5,301.2 118.4,301.3 118.3,301.5 118.2,301.6 118.1,301.7 118.0,301.8 117.8,301.9 117.7,302.0 117.5,302.0 117.3,302.1 117.1,302.1 116.8,302.1 116.6,302.1 116.4,302.1 115.5,301.9"/>
    <polyline points="114.9,301.7 114.6,301.6 114.4,301.4 113.3,300.8 113.1,300.8 113.0,300.7 112.8,300.7 112.7,300.6 112.4,300.6"/>
    <polyline points="114.3,301.5 113.2,300.9 113.1,300.8 112.9,300.8 112.8,300.7 112.7,300.7 112.4,300.7"/>
    <polyline points="115.5,301.9 114.8,301.8 114.2,301.7 113.6,301.6 113.1,301.5 112.2,301.3"/>
    <polyline points="118.1,294.3 118.2,293.8 118.3,293.3 118.5,292.7 118.6,292.2 118.7,291.8 118.8,291.2"/>
    <polyline points="118.8,291.2 118.9,290.8 118.9,290.3 118.8,289.8 118.8,289.1 118.8,288.3 118.8,287.9 118.9,287.3"/>
    <polyline points="289.1,247.6 289.0,246.8 288.9,246.3 288.9,246.0 288.9,245.6 288.9,245.3 289.0,245.1 289.0,244.9 289.1,244.7 289.2,244.5 289.3,244.3 289.4,244.1 289.6,244.0 289.7,243.8 289.9,243.7 290.1,243.5 290.4,243.4 290.7,243.2 291.1,243.0 291.6,242.9 292.1,242.7 292.9,242.6 293.4,242.5 293.8,242.5 294.3,242.5 294.8,242.5 295.4,242.6 295.8,242.6 296.7,242.8 301.9,243.9 305.2,244.6 305.8,244.7 306.5,244.8 309.8,244.9 313.5,245.1 314.1,245.1 314.4,245.1 314.7,245.1 315.2,245.0 315.7,245.0 316.2,244.9 316.8,244.8 317.3,244.7 317.9,244.6 318.3,244.4 318.8,244.3 321.0,243.5 321.6,243.3 322.2,243.0 322.5,242.9 322.7,242.8 322.9,242.7 323.1,242.5 323.3,242.4 323.5,242.2 323.6,242.1 323.8,241.9 323.9,241.7 324.0,241.6 324.3,241.0 324.8,239.8 325.8,237.1 326.9,234.1 327.7,231.7 330.3,223.0 331.4,219.4 333.5,212.9 333.7,212.3 333.9,211.6 334.1,211.0 334.2,210.4 334.3,209.5 334.5,208.7 334.6,207.7 334.8,206.7 334.9,205.7 335.1,202.8 335.4,197.1 336.6,176.8 337.5,160.8 337.8,154.0 338.1,146.5 338.6,138.7 339.0,130.8 339.1,130.1 339.6,124.4 339.7,123.9 339.7,123.4 339.6,123.0 339.6,122.5 339.5,122.0 339.3,121.6 339.2,121.1 339.0,120.6 338.8,120.2 338.6,119.7 338.4,119.3 338.1,118.9 337.8,118.4 337.4,118.0 337.1,117.6 336.7,117.2 336.2,116.8 335.8,116.4 335.3,116.0 334.8,115.7 334.3,115.4 333.8,115.1 333.3,114.8 332.7,114.5 332.1,114.3 331.5,114.1 328.0,112.9"/>
    <polyline points="460.7,471.0 460.3,471.5 459.8,472.1 459.4,472.5 459.1,472.8 458.8,473.1 458.4,473.4 458.2,473.6 457.9,473.8"/>
    <polyline points="296.9,449.4 296.8,450.1 296.8,450.4 296.9,450.8 296.9,451.1 297.0,451.4 297.2,451.8 297.4,452.0 297.7,452.3 298.1,452.5 298.5,452.7 299.1,452.9 301.2,453.3"/>
    <polyline points="301.2,453.3 306.7,454.3 306.9,454.3 307.1,454.4 307.3,454.4 307.5,454.3 308.1,454.2 308.8,454.2 310.7,453.9 312.0,453.8 312.1,453.7 312.3,453.7 312.4,453.7 313.2,453.8 313.4,453.8"/>
    <polyline points="308.5,453.5 307.8,453.3 307.2,453.1 307.1,453.1 307.0,453.0 306.8,453.0 306.5,452.9 302.2,452.2"/>
    <polyline points="308.7,453.7 308.3,453.7 307.8,453.7 307.3,453.7 307.1,453.6 307.0,453.6 306.3,453.5 302.0,452.7"/>
    <polyline points="309.4,453.8 309.1,453.7 308.8,453.7 308.5,453.5 308.2,453.5 308.1,453.4 307.9,453.4 306.4,453.1 302.1,452.4"/>
    <polyline points="310.7,453.9 310.2,453.9 309.9,453.9 309.8,453.9 309.6,453.9 309.4,453.8 308.7,453.7 308.1,453.6 307.3,453.4 306.4,453.3 302.1,452.5"/>
    <polyline points="318.4,455.2 313.2,454.3"/>
    <polyline points="318.4,454.9 313.3,454.0"/>
    <polyline points="75.6,303.4 76.0,306.2"/>
    <polyline points="471.6,501.0 474.1,506.0 474.6,507.1 475.8,509.6 479.4,516.8 483.4,525.1 486.1,530.8 487.2,533.0 487.7,534.0 487.9,534.5 488.1,534.9 488.2,535.3 488.4,535.6 488.5,535.9 488.6,536.2 488.6,536.6 488.7,537.0 489.4,541.0 489.5,542.1 489.8,543.4 491.0,549.9 491.4,552.1 493.0,560.7 494.1,566.6 494.6,569.2 494.9,570.9 495.2,572.6 496.9,581.7 497.5,584.8 498.6,589.7 498.9,591.4 499.3,593.0 499.7,595.3 501.4,603.2 502.6,608.8 503.0,610.7 503.3,612.2 504.2,616.6 505.6,622.9 507.9,633.5 508.9,638.2 509.5,641.3 509.8,642.8 510.2,645.0 511.0,648.6 512.2,654.6 512.9,657.9"/>
    <polyline points="387.5,334.3 387.1,333.1 386.8,332.4"/>
    <polyline points="386.5,331.4 386.1,330.3 384.3,324.9 382.8,320.5 382.3,319.2 381.9,318.0 381.2,316.0 380.9,314.9 379.0,308.8"/>
    <polyline points="386.8,332.4 386.5,331.4"/>
    <polyline points="482.6,434.9 481.8,438.9 481.2,442.7"/>
    <polyline points="452.3,209.3 455.7,211.7 457.9,213.1 461.3,215.3 463.1,216.7 464.7,217.8 469.7,221.5 475.3,225.6 479.3,228.5 480.6,229.6 483.3,231.6 485.9,233.5 492.2,238.7 494.1,240.2 494.9,240.8 495.3,241.3 495.7,241.6 496.4,242.4 497.8,243.9 498.3,244.3 498.7,244.7 500.8,246.3 503.9,248.3 505.1,249.0 511.6,252.1 512.2,252.4 512.9,252.7 513.7,253.0 514.6,253.3 515.4,253.4 517.4,253.8 518.1,253.9 518.7,254.1 519.4,254.3 523.3,255.8 523.9,256.1 524.7,256.5 525.4,256.9 526.0,257.3 526.4,257.7 526.8,258.0 527.0,258.3 527.2,258.6 527.3,258.8 527.5,259.1 527.6,259.3 527.7,259.6 527.8,259.9 527.8,260.1 528.1,261.2 531.4,278.9 532.8,286.6 534.1,293.0 534.4,294.6 534.6,295.8 534.6,296.3 534.6,296.6 534.6,296.8 534.6,296.9 534.5,297.2 534.5,297.5 534.4,298.1 534.2,298.6 534.1,299.1 533.4,301.4 532.7,303.7 531.5,308.1 531.4,308.5 531.3,308.9 529.5,313.6 529.3,314.1 529.1,314.6 528.8,315.0 527.3,317.8 526.8,318.9 526.6,319.3 526.4,319.6 526.1,320.1 525.9,320.6 522.6,329.1 520.0,335.1 519.7,335.9 519.4,336.6 519.1,337.4 518.9,338.1 518.7,338.9 518.5,339.6 517.1,345.8 515.7,352.3"/>
    <polyline points="451.1,460.3 448.7,457.4"/>
    <polyline points="290.0,282.2 290.5,283.7 290.9,284.7 291.2,285.8 291.7,287.4 293.5,293.2 294.8,297.4 295.3,299.0 295.4,299.3 295.5,299.6 295.7,299.9 295.8,300.2 296.0,300.6 296.2,300.9 296.5,301.2 298.0,303.0 298.2,303.4 298.5,303.8 298.7,304.1 298.9,304.5 299.0,304.9 299.1,305.3 299.2,305.7 299.3,306.2 299.5,307.5 299.5,307.9 299.5,308.4 299.5,308.9 299.5,309.3 299.1,312.3 299.1,312.7 299.1,313.1 299.1,313.6 299.1,314.1 299.1,314.6"/>
    <polyline points="128.1,305.6 125.9,305.1 125.4,305.0 124.8,304.9 124.2,304.7 123.8,304.6 123.5,304.5 123.1,304.3 122.8,304.2 122.5,304.0 122.2,303.8 122.0,303.6 121.7,303.4 121.4,303.1 121.2,302.9 121.0,302.6 120.8,302.3 120.7,302.1 120.6,301.8 120.5,301.5 120.3,301.0 120.2,300.6 120.1,300.1 119.9,299.5 119.8,299.0 119.7,298.4 119.6,296.7 119.3,292.6 119.2,291.2"/>
    <polyline points="119.2,291.2 118.9,287.3 118.7,284.9"/>
    <polyline points="118.7,284.9 118.1,276.4 117.9,273.9"/>
    <polyline points="118.4,299.1 118.4,298.7 118.3,298.4 118.2,298.2 118.1,297.9 118.1,297.7 118.1,297.4 117.9,294.8"/>
    <polyline points="481.2,442.7 480.7,445.4 480.6,445.9 480.5,446.3 480.4,446.7 480.3,447.0 480.2,447.3 480.1,447.7 479.9,448.1 479.8,448.4 479.6,448.7 479.4,449.1 479.2,449.4 478.9,449.7 478.7,450.0 478.5,450.3 478.2,450.6 477.8,451.0 476.7,452.1 475.7,453.1 474.8,453.9 473.8,455.0 472.6,456.2 471.7,457.3 471.2,457.8 469.6,459.7"/>
    <polyline points="134.9,306.7 130.8,306.0 130.5,305.9 130.3,305.9 129.1,305.7 128.8,305.7 128.1,305.6"/>
    <polyline points="457.9,473.8 457.2,474.4 456.7,474.7 456.1,475.0 454.1,476.3 453.5,476.7 452.9,477.1 452.5,477.4 452.1,477.7 451.8,478.0 451.4,478.3 451.1,478.6 450.7,478.9 450.2,479.5 449.7,480.0 449.3,480.5 448.9,481.0 447.8,482.6 444.0,488.0 441.0,492.3 439.5,494.4 438.1,496.4 435.8,499.7 429.8,508.2 426.3,513.4 426.0,513.9 425.6,514.4 425.4,514.6 425.2,514.9 424.9,515.2 424.6,515.5 424.3,515.7 424.0,516.0 423.7,516.3 423.4,516.5 423.0,516.8 422.7,517.0 422.4,517.2 422.0,517.4 421.7,517.6 421.3,517.7 420.9,517.9 420.5,518.1 420.1,518.3 419.6,518.5 419.1,518.6 418.6,518.8 418.1,518.9 417.6,519.0 417.1,519.1 416.6,519.2 416.1,519.3 415.6,519.3 410.7,519.9 407.5,520.2 407.1,520.3 406.6,520.4 406.1,520.5 404.7,520.8 404.1,520.9 403.6,521.0 403.0,521.0 402.5,521.1 399.7,521.4"/>
    <polyline points="500.7,399.7 500.2,400.7 500.0,401.3 499.8,401.9 499.8,402.5 499.9,403.1 500.1,403.6 500.7,404.2 501.5,404.7"/>
    <polyline points="510.4,407.3 510.9,407.3 511.1,407.2 511.3,407.2 511.6,407.3 511.8,407.3 512.0,407.4 512.2,407.4 512.4,407.5 512.6,407.5 512.7,407.6"/>
    <polyline points="508.9,407.6 509.6,407.7 509.9,407.7 510.4,407.8 510.7,407.9 511.0,408.0 511.3,408.0 511.6,408.1 511.9,408.3 512.1,408.3"/>
    <polyline points="507.1,407.1 507.4,407.1 507.7,407.2 508.0,407.3 508.2,407.3 508.5,407.3 508.8,407.3 509.5,407.2 510.9,407.1 511.2,407.1 511.5,407.1 511.8,407.1 512.0,407.2 512.3,407.2 512.4,407.3 512.6,407.4"/>
    <polyline points="509.7,407.6 510.7,407.7 511.0,407.7 511.3,407.8 511.5,407.8 511.8,407.9 511.9,407.9 512.1,408.0 512.3,408.1"/>
    <polyline points="507.8,407.3 508.1,407.4 508.4,407.5 508.7,407.5 508.9,407.6 509.4,407.6 509.7,407.6 510.7,407.6 510.9,407.6 511.2,407.6 511.5,407.6 511.7,407.7 511.9,407.7 512.1,407.8 512.3,407.9 512.4,407.9"/>
    <polyline points="386.0,332.8 384.1,333.3 383.7,333.4 383.3,333.6 382.9,333.7 382.6,333.9 382.2,334.1 381.9,334.3 381.6,334.5 381.3,334.8 381.1,335.0 380.8,335.3 380.6,335.6 380.5,335.9 380.3,336.2 380.2,336.5 380.1,336.8 380.1,337.1 380.0,337.5 380.0,337.8 380.1,338.1 380.1,338.4 380.2,338.8 380.4,339.3 380.5,339.6 380.5,339.9 380.6,340.2 380.6,340.5 380.6,340.9 380.6,341.2 380.5,341.5 380.4,341.8 380.3,342.1 380.1,342.4 380.0,342.7 379.7,343.0 379.5,343.3 379.3,343.5 379.0,343.8 378.7,344.0 378.3,344.2 378.0,344.4 377.6,344.6 377.3,344.7 370.5,347.2 367.6,348.1 361.8,350.1 348.9,354.3 345.3,355.3 344.6,355.4 343.9,355.6 343.1,355.7 342.4,355.8 341.8,355.9 341.1,356.0 340.5,356.0 339.9,356.0 339.4,356.1 329.9,356.2 323.2,356.3 322.4,356.3 321.6,356.3 319.5,356.2 317.6,356.2 313.3,356.0 312.7,356.0 312.1,356.0 311.6,356.0 311.2,356.1 310.9,356.1 310.6,356.1 310.3,356.2 310.0,356.2 309.7,356.3 309.4,356.4 309.1,356.4 308.9,356.5 308.4,356.7 308.1,356.9 307.8,357.0 307.4,357.3 304.2,359.6 303.8,359.9 303.3,360.2 303.2,360.3 302.6,360.6 302.2,360.7 301.9,360.9 301.6,361.0 301.1,361.2 300.8,361.3 300.6,361.3 300.2,361.4 299.9,361.4 299.7,361.5 299.4,361.5 299.0,361.6 298.5,361.6 292.2,361.9 291.7,361.9 291.3,361.9 290.8,361.9 278.5,361.4 277.8,361.3 277.5,361.3 277.2,361.3 276.5,361.3 266.2,361.4 265.9,361.4 265.6,361.4 265.3,361.4 259.5,361.0 259.2,361.0 258.9,361.0 238.7,360.7 233.5,360.6 226.6,360.8 226.1,360.8 225.7,360.9 225.3,360.9 225.0,361.0 224.7,361.1 224.4,361.2 224.2,361.3 223.9,361.4 223.7,361.6 223.5,361.7 223.3,361.9 223.1,362.1 223.0,362.3 222.8,362.5 222.6,362.9 221.1,366.4 218.9,371.0 218.6,371.6 218.4,371.9 218.2,372.2 218.1,372.4 217.9,372.7 217.7,372.9 217.4,373.1 217.2,373.3 216.9,373.5 216.6,373.7 216.3,373.8 216.0,374.0 215.7,374.1 215.3,374.2 214.9,374.4 214.4,374.5 214.1,374.6 213.9,374.7 213.6,374.7 213.3,374.8 204.3,376.2 204.0,376.3 203.7,376.3 203.4,376.3 203.2,376.3 203.0,376.3 202.7,376.3 202.5,376.3 202.3,376.2 202.0,376.2 201.8,376.1 201.1,375.9 200.4,375.7 195.4,374.0 193.4,373.4"/>
    <polyline points="467.9,461.9 465.8,464.5 465.4,464.9 465.1,465.4 464.9,465.8 464.6,466.1 464.2,466.7 463.8,467.4 463.6,467.8 463.4,468.3 463.2,468.7 463.0,469.2 462.9,469.6 462.7,470.1 462.6,470.5 462.5,470.9 462.4,471.4 462.2,471.9 462.2,472.5 462.1,473.1 462.0,473.7 462.0,474.2 461.9,474.6 461.9,475.0 461.9,475.3 461.9,475.7 461.9,476.3 462.0,476.8 462.0,477.3 462.2,478.4 462.2,478.8 462.3,479.2 462.4,479.7 462.5,480.2 462.7,480.6 462.9,481.2 463.1,481.8 463.4,482.5 467.9,493.0"/>
    <polyline points="501.5,404.7 506.4,406.8 507.1,407.1 507.8,407.3 508.4,407.6 508.6,407.6 509.0,407.7 509.6,407.9"/>
    <polyline points="382.5,315.7 382.4,315.3 382.2,314.6 382.2,314.6"/>
    <polyline points="384.3,323.7 384.2,323.3 384.0,322.7 383.8,322.1 383.4,321.6 381.6,316.0 381.2,315.0 379.3,308.7"/>
    <polyline points="382.7,318.5 382.5,317.7 382.4,317.4 382.3,317.1 382.2,316.9 382.2,316.8 382.1,316.6 382.1,316.5 382.1,316.2 382.2,316.0 382.2,315.8 382.2,315.7 382.2,315.6 382.2,315.3 382.2,315.1 382.2,314.9 382.2,314.8 382.2,314.7 382.1,314.6"/>
    <polyline points="382.6,315.8 382.6,314.9 382.6,314.8 382.6,314.7 382.5,314.5"/>
    <polyline points="384.2,322.2 384.1,321.9 383.9,321.2"/>
    <polyline points="382.0,316.4 382.0,316.0 382.0,315.9 382.0,315.8 381.9,315.6 381.7,314.7"/>
    <polyline points="384.2,322.2 384.2,321.8 384.2,321.6 384.1,321.4 384.1,321.3 384.0,321.1"/>
    <polyline points="382.5,316.3 382.5,316.2 382.5,316.0 382.5,315.7 382.5,315.2 382.5,314.9 382.5,314.9 382.5,314.8 382.5,314.6 382.4,314.6"/>
    <polyline points="382.1,315.7 382.0,315.4 382.0,315.3 381.8,314.7"/>
    <polyline points="384.3,323.7 384.3,323.3 384.3,323.0 384.4,322.8 384.4,322.6 384.7,321.9 384.8,321.8 384.8,321.6 384.8,321.5 384.8,321.4 384.8,321.2 384.8,321.1 384.8,321.0"/>
    <polyline points="384.3,322.7 384.3,322.4 384.4,322.2 384.4,322.1 384.4,321.9 384.4,321.8 384.4,321.7 384.3,321.6 384.2,321.1"/>
    <polyline points="381.9,315.8 381.5,314.7"/>
    <polyline points="382.4,317.4 382.3,317.2 382.3,317.0 382.3,316.9 382.4,316.8 382.4,316.6 382.5,316.3 382.6,315.8 382.7,315.4 382.8,315.1 382.8,315.0 382.9,314.9 382.9,314.7 382.8,314.6 382.8,314.5 382.8,314.5"/>
    <polyline points="382.0,316.4 382.0,316.2 381.9,316.0 381.9,315.9 381.9,315.8 381.9,315.8 381.6,315.4 381.4,315.1 381.4,315.0 381.3,314.9 381.3,314.8"/>
    <polyline points="384.4,322.6 384.5,322.2 384.5,321.9 384.6,321.7 384.6,321.5 384.6,321.4 384.5,321.4 384.5,321.3 384.5,321.0"/>
    <polyline points="605.1,181.7 585.1,183.1 584.3,183.1 584.0,183.1 583.7,183.1 583.5,183.1 583.2,183.1 582.9,183.0 582.5,183.0 581.8,182.9 575.4,181.8 572.3,181.3 571.0,181.1 569.9,181.0 569.0,180.9 567.1,180.8 562.0,180.6 560.9,180.6 560.5,180.6 560.0,180.6 559.5,180.6 559.0,180.7 558.5,180.7 558.0,180.8 556.7,181.0 555.5,181.3 551.6,182.1 547.4,183.1 538.7,185.3 530.9,187.4 524.9,189.0 521.3,190.1 519.4,190.7 517.2,191.3 509.2,193.3 508.4,193.5 507.7,193.8 507.0,194.0 506.3,194.2 502.0,195.9 496.7,197.8 496.2,198.0 495.6,198.2 495.2,198.3 494.8,198.4 494.5,198.5 482.0,200.8 466.4,203.8 462.2,204.6 461.5,204.8 460.7,204.9 459.9,205.1 459.1,205.4 455.0,206.5 454.1,206.7 453.1,207.0 452.4,207.3 451.6,207.5 450.6,207.9 448.9,208.5 444.9,210.0 438.5,212.2 438.2,212.4 437.9,212.5 437.6,212.6 437.4,212.8 437.2,212.9 437.1,213.1 436.9,213.2 436.7,213.4 435.9,214.4 435.6,214.6 435.3,214.9 433.8,215.9 431.2,217.6 428.8,219.2 425.7,221.1 425.4,221.4 421.7,224.2 421.0,224.6 420.7,224.8 420.5,225.0 420.3,225.0 420.1,225.1 419.9,225.2 419.7,225.3 416.9,226.3 415.7,226.8 415.4,226.8 415.2,226.9 415.0,227.0 414.8,227.1 414.7,227.1 414.5,227.2 414.3,227.3 414.1,227.4 414.0,227.5 413.8,227.6 413.6,227.7 413.5,227.8 413.2,228.0 412.9,228.3 411.0,229.7 410.7,229.9 410.3,230.2 409.7,230.5 407.6,231.6 406.8,232.0 402.9,233.4 400.9,234.1 400.3,234.4 399.7,234.6 399.1,234.9 398.5,235.2 397.9,235.5 397.3,235.8 394.0,237.8 390.5,239.7 387.7,241.5 386.8,242.2 385.8,242.8 385.0,243.4 384.1,244.1 383.3,244.7 382.8,245.1 380.1,247.5 379.3,248.2 378.8,248.5 378.3,248.9 377.9,249.2 377.3,249.5 376.8,249.8 375.5,250.6 373.6,251.5 367.1,254.5 366.1,254.9 365.3,255.3 364.6,255.6 364.3,255.7 364.0,255.9 363.7,256.0 363.3,256.1 361.6,256.6 358.4,257.5 355.1,258.2 354.0,258.5 353.5,258.6 353.1,258.7 352.6,258.9 352.2,259.0 351.8,259.1 351.5,259.3 351.1,259.4 350.7,259.6 349.8,260.0 349.4,260.2 349.0,260.5 348.5,260.7 347.6,261.3 345.6,262.6 338.5,267.1 338.1,267.3 337.6,267.5 337.2,267.8 336.6,268.0 336.1,268.3 335.5,268.5 334.2,268.9 332.3,269.4 331.3,269.7 330.2,269.9 329.1,270.2 328.0,270.4 316.1,273.0 304.6,275.5 287.8,279.2 285.1,279.8 271.1,282.7 270.0,283.0 268.6,283.3 254.1,286.9 243.2,289.7 242.3,289.9 241.5,290.1 238.8,290.6 237.6,290.9 236.9,291.0 236.6,291.1 236.4,291.1 236.2,291.2 236.0,291.3 235.7,291.4 235.5,291.6 234.6,292.1 234.4,292.2 234.1,292.3 233.9,292.4 233.6,292.4 233.3,292.5 233.1,292.6 218.0,295.8 202.4,299.2 182.0,303.6 162.8,307.7 159.6,308.4 158.5,308.6 157.5,308.8 156.7,308.9 155.6,309.0 155.0,309.1 154.4,309.1 154.0,309.2 153.5,309.2 152.5,309.2 151.5,309.2 150.5,309.2 149.5,309.1 148.7,309.1 147.7,309.0 146.6,308.8 145.6,308.7 144.8,308.6 144.0,308.4"/>
    <polyline points="448.7,457.4 448.4,457.1 448.2,456.8 447.9,456.5 447.6,456.2 447.3,455.9 446.9,455.6 443.0,452.6 441.1,451.1 438.6,449.2 434.2,445.9 432.0,444.2 429.5,442.3 426.6,440.1 425.8,439.5 425.2,439.0 424.1,438.1 423.4,437.6 422.9,437.2 422.5,436.9 422.1,436.6 420.7,435.6 418.1,433.8 417.7,433.6 417.4,433.3 417.1,433.1 416.9,432.8 416.6,432.5 416.4,432.2 416.1,431.9 415.9,431.6 415.8,431.3 415.7,431.1 415.6,430.8 415.4,430.5 415.3,430.2 415.3,429.8 414.4,426.1 413.3,421.5 412.3,417.5 411.8,415.4 411.5,413.8 411.1,412.2 409.5,405.7 408.4,400.8 407.3,396.4 406.8,394.6 406.4,392.9 405.3,388.6 404.5,385.0 404.4,384.6 404.3,384.3 404.1,383.9 404.0,383.6 403.8,383.2 403.6,382.9 403.3,382.5 402.3,380.9 401.3,379.4 399.9,377.3 399.2,376.3 399.0,375.9 398.8,375.6 398.6,375.3 398.5,375.1 398.4,374.7 398.2,374.2 398.0,373.6 396.8,369.4 396.2,367.2 395.5,364.8 394.8,362.4 394.1,359.9 393.9,359.2 393.1,356.6 391.9,352.4 391.0,349.3 390.3,346.5 389.6,344.1 389.2,342.5 389.1,342.1 389.0,341.9 389.0,341.6 389.0,341.3 388.9,341.1 388.9,340.8 388.9,339.6 388.9,339.1 388.9,338.7 388.9,338.5 388.8,338.1 388.7,337.7 388.6,337.3 388.5,336.9 387.6,334.3"/>
    <polyline points="489.5,416.3 489.4,416.6 489.2,417.0 489.0,417.4 487.0,421.7 486.1,423.7 484.9,426.3 484.6,426.9 484.4,427.4 484.2,427.9 484.0,428.4 483.8,428.9 483.7,429.4 483.5,429.9 483.4,430.4 483.3,430.9 483.2,431.6 482.6,434.9"/>
    <polyline points="309.1,244.8 309.0,239.2 308.9,238.6 308.9,238.2 308.8,237.6 305.0,225.6 304.2,223.0 303.7,221.3 303.1,218.1 302.3,214.4 300.4,206.5 300.1,205.7 299.9,205.0 299.6,204.2 299.4,203.6 299.1,202.9 298.8,202.3 294.9,194.8 292.7,190.2 291.5,187.4 290.3,184.5 289.1,181.4 288.6,180.3 288.0,178.9 287.9,178.6 287.8,178.3 287.6,178.0 287.4,177.7 287.2,177.4 286.7,176.8 285.8,175.8 282.9,172.9 276.1,165.9 274.5,164.3 273.6,163.6 273.0,163.1 270.3,160.9 264.4,156.3 262.4,154.7 261.9,154.4 261.5,154.0 261.1,153.7 260.7,153.3 260.3,152.9 259.9,152.6 258.5,151.2 258.1,150.7 257.7,150.3 257.3,149.8 256.9,149.3 256.5,148.8 254.0,145.2 251.4,141.2 249.6,138.8 245.7,134.4 242.5,130.8 237.0,124.5 232.3,119.7 230.8,118.1 230.4,117.5 229.7,116.6 229.1,115.8 228.8,115.3 228.4,114.5 227.9,113.6 227.3,112.3 227.1,111.9 227.0,111.5 226.9,111.2 226.7,110.7 225.2,105.5 225.0,105.1 224.9,104.6 224.7,104.2 224.5,103.7 224.2,103.3 223.9,102.8 223.4,102.1 222.0,100.3 219.8,97.2 219.6,96.9 219.4,96.5 219.2,96.2 219.1,95.9 219.0,95.5 218.9,95.2 218.8,94.9 218.7,94.5 218.7,94.2 218.7,93.8 218.7,93.3 218.7,92.7 218.8,92.2 218.9,91.5 219.0,90.8 219.2,88.7 219.3,88.3 219.3,87.8 219.2,87.4 219.2,87.0 219.1,86.5 219.0,86.1 218.8,85.6 218.6,85.2 217.9,83.3 217.6,82.4 216.5,79.4 216.4,79.0 216.2,78.7 216.0,78.3 215.7,78.0 215.5,77.7 215.3,77.5 215.1,77.3 214.8,77.0 214.4,76.7 213.9,76.5 213.5,76.2 213.0,76.0 212.6,75.8 212.2,75.6 211.7,75.4 210.8,75.1 209.7,74.7 209.0,74.5 208.2,74.3 207.3,74.1 206.3,74.0 205.4,73.9 203.2,73.9 199.2,73.9 188.0,74.0 181.8,74.0 169.8,73.6 169.4,73.6 169.0,73.6 168.5,73.7 168.2,73.7 167.7,73.7 167.2,73.8 166.6,73.9 166.1,74.0 161.8,74.9 161.4,75.0 161.0,75.0 160.6,75.0 160.2,75.1 157.5,75.0 157.0,75.0 156.5,75.1 156.0,75.1 155.5,75.2 149.7,76.0 149.0,76.1 148.3,76.3 147.6,76.4 146.8,76.6 144.4,77.1 143.2,77.4 137.9,78.6 137.6,78.7 137.2,78.8 136.8,78.8 136.5,78.9 136.2,78.9 135.9,78.9 135.6,78.9 135.3,78.9 135.0,78.9 134.6,78.9 134.3,78.8 127.2,77.5 123.1,76.6 122.5,76.5 121.9,76.5 121.4,76.4 120.8,76.3 120.3,76.3 119.8,76.3 117.5,76.3 116.9,76.3 116.4,76.2 116.0,76.2 115.6,76.1 115.1,76.0 114.7,75.9 111.0,75.1 106.5,74.2 106.2,74.1 105.9,74.1 105.7,74.1 105.5,74.1 105.3,74.1 105.1,74.1 104.8,74.1 104.6,74.2 103.3,74.4 102.8,74.5 102.2,74.6"/>
    <polyline points="467.9,493.0 470.2,498.0 471.6,501.0"/>
    <polyline points="468.4,461.2 467.9,461.9"/>
    <polyline points="469.6,459.7 468.4,461.2"/>
    <polyline points="463.8,467.2 463.4,467.6 462.9,468.3 462.1,469.3 461.2,470.5 460.7,471.0"/>
    <polyline points="466.1,464.2 465.0,465.6 463.8,467.2"/>
    <polyline points="76.0,306.2 76.3,309.2 76.7,312.0 77.3,317.6 77.5,319.5 79.1,332.1 79.2,332.8 79.3,333.7 79.4,335.1 79.4,335.7 79.6,339.2 79.7,341.1 79.7,341.7 79.7,342.1 79.6,342.4 79.6,342.7 79.6,342.9 79.5,343.2 79.4,343.4 79.3,343.7 79.2,343.9 79.1,344.2 78.9,344.5 78.7,344.8 78.6,344.9 78.5,345.1 78.3,345.3 78.1,345.5 77.9,345.7 75.1,348.8 74.8,349.2 74.4,349.6 74.1,350.0 73.8,350.4 71.9,352.7 68.2,357.4 66.8,359.2 66.3,359.8 66.0,360.2 65.6,360.7 65.1,361.2 64.6,361.7 64.2,362.3 63.6,362.8 63.1,363.3 61.3,365.1 60.3,366.1 59.9,366.5 59.6,366.9 59.2,367.3 58.9,367.7 58.6,368.2 58.3,368.6 57.0,370.5 56.3,371.5 54.3,374.3 53.9,374.8 53.4,375.4"/>
    <polyline points="193.4,373.4 192.3,373.0 191.6,372.6 191.1,372.4 190.6,372.1 190.1,371.8 187.3,369.9 183.0,367.0 182.7,366.8 182.4,366.6 182.1,366.5 181.8,366.4 181.4,366.2 181.1,366.2 180.7,366.1 180.4,366.0 180.0,366.0 179.7,366.0 179.3,366.0 179.0,366.0 178.6,366.1 178.3,366.1 177.7,366.2 175.4,366.7 173.8,367.0"/>
    <polyline points="53.4,375.4 52.4,376.6 51.1,378.2 50.7,378.7 50.5,378.9 50.3,379.1 50.1,379.3 49.9,379.4"/>
    <polyline points="309.7,454.2 309.9,454.2 310.2,454.2 310.3,454.3 310.5,454.4 310.6,454.4 310.8,454.4 310.9,454.5 311.1,454.6 311.4,454.7 311.7,455.0 311.8,455.0 311.9,455.1 312.1,455.1 312.3,455.2 312.9,455.3"/>
    <polyline points="310.9,454.5 311.6,454.8 312.0,454.9 312.2,455.0 312.4,455.0 312.9,455.1"/>
    <polyline points="310.7,454.4 310.9,454.4 311.1,454.4 311.4,454.4 312.7,454.4 312.8,454.4 312.9,454.5 313.1,454.5"/>
    <polyline points="310.3,454.3 310.7,454.4 311.5,454.5 313.0,454.8"/>
    <polyline points="166.2,368.8 166.0,368.9 165.8,369.0 165.6,369.0 165.4,369.1 164.9,369.4 164.7,369.5 164.4,369.6 164.0,369.6 163.8,369.7 163.6,369.7 163.4,369.8 162.9,369.8 162.6,369.8 162.4,369.9 162.2,369.9 161.9,370.0"/>
    <polyline points="163.8,369.8 163.2,369.9 162.6,370.1 162.0,370.2"/>
    <polyline points="163.4,370.2 162.8,370.4 162.5,370.5 162.4,370.5 162.1,370.6"/>
    <polyline points="164.4,369.6 163.8,369.8 163.2,370.0 163.0,370.1 162.8,370.2 162.6,370.2 162.0,370.3"/>
    <polyline points="161.9,371.9 162.3,371.8 162.6,371.6 162.8,371.4 163.1,371.2 163.5,370.8 163.8,370.5 164.0,370.3 164.1,370.2 164.2,370.1 164.4,370.0 164.7,369.8 164.9,369.7 165.4,369.5 165.5,369.4 166.0,369.1 166.3,369.0 166.5,368.9 166.7,368.8 167.0,368.8"/>
    <polyline points="172.3,367.5 167.5,368.5 166.8,368.7 166.2,368.8 165.9,368.9 165.6,368.9 165.5,369.0 165.3,369.0 165.1,369.1 164.9,369.2 164.6,369.3 161.1,370.0"/>
    <polyline points="164.1,370.1 163.0,370.7 162.8,370.8 162.6,370.8 162.3,370.9 162.1,371.0 162.0,371.0 161.5,371.2"/>
    <polyline points="163.6,370.5 163.4,370.6 163.1,370.8 162.9,370.9 162.7,371.0 162.6,371.1 161.7,371.5"/>
    <polyline points="164.7,369.8 164.4,370.0 164.3,370.0 164.1,370.1 163.9,370.2 163.8,370.3 163.6,370.5 163.4,370.7 163.2,370.8 162.8,371.2 162.7,371.3 162.5,371.4 162.3,371.5 162.2,371.6 161.9,371.7"/>
    <polyline points="163.0,370.7 162.8,370.8 162.6,370.9 162.4,371.0 161.6,371.3"/>
    <polyline points="157.5,374.0 160.9,372.5 164.2,371.1 171.3,368.0"/>
    <polyline points="172.3,367.6 167.8,368.6 167.0,368.8 166.5,368.9 166.2,369.0 165.9,369.0 165.7,369.1 165.0,369.4 164.7,369.5 164.4,369.6"/>
    <polyline points="162.6,371.6 162.8,371.4 163.1,371.3 163.4,371.1 163.7,371.0 163.9,371.0 164.1,370.9 164.3,370.8 166.8,369.7"/>
    <polyline points="379.1,308.8 378.2,305.9 378.1,305.4 377.9,304.9 377.8,304.5 377.8,304.1 377.2,301.4 377.2,300.9 377.0,300.4 376.9,299.8 375.9,296.2 373.5,287.7 371.5,281.3 369.8,275.5 369.5,274.6 369.4,274.3 369.2,274.0 369.0,273.7 368.8,273.4 368.6,273.2 368.4,272.9 368.2,272.7 368.0,272.5 367.9,272.2 367.8,271.9 367.7,271.7 367.6,271.5 367.4,270.3 367.0,268.7 366.9,268.1 366.8,267.6 366.9,267.1 367.0,266.6 367.0,266.0 367.0,265.8 367.0,265.5 367.0,265.1 366.9,264.6 366.8,264.1 365.7,261.0 365.4,260.5 365.2,259.9 363.9,257.2 363.8,257.0 363.2,255.7 363.1,255.5 362.9,255.4 362.8,255.2 362.6,255.1 362.5,255.0 362.1,254.8 361.9,254.7 361.5,254.6 361.2,254.6 360.8,254.6 360.2,254.6 359.3,254.7 358.6,254.8 357.8,254.9 357.1,254.9 349.6,255.1 345.6,255.2 344.7,255.2 343.6,255.1 342.8,255.1 338.1,254.5 337.5,254.4 337.0,254.4 336.4,254.4 334.0,254.6 329.4,255.0 320.2,255.9 317.2,256.2 291.6,258.6 267.3,261.0 235.1,264.1 234.8,264.1 234.4,264.2 234.0,264.2 233.6,264.2 233.2,264.2 232.5,264.1 231.8,264.1 231.0,264.0 230.1,263.9 229.3,263.8 228.4,263.7 227.6,263.6 226.9,263.4 226.1,263.3 225.4,263.1 223.6,262.7 222.5,262.4 221.5,262.1 220.4,261.8 219.5,261.5 218.5,261.2 217.6,260.8 216.7,260.5 213.6,259.1 212.1,258.5 211.7,258.3 211.3,258.2 210.9,258.1 210.4,258.0 209.9,257.9 209.5,257.9 209.1,257.8 208.8,257.8 208.5,257.8 208.2,257.8 207.7,257.9 207.2,257.9 206.7,258.0 206.3,258.0 205.8,258.1 204.4,258.4 202.7,258.6 199.8,259.2 197.9,259.4 190.1,260.3 186.8,260.8 185.5,260.9 183.9,261.3 163.0,266.5 152.8,269.1 149.4,269.8 147.1,270.2 144.5,270.6 135.4,271.8 119.9,273.7 112.2,274.3 110.6,274.4 108.3,274.5 100.9,274.6 94.4,274.7 91.3,274.7 88.2,274.7 72.2,274.9 71.6,274.9 71.0,275.0 70.3,275.1 69.7,275.2 69.2,275.3 68.7,275.5 68.4,275.6 68.3,275.7 68.1,275.8 67.8,276.0 67.7,276.1 67.5,276.3 67.4,276.4 67.3,276.5 67.3,276.7 67.2,276.9 67.2,277.0 67.1,277.2 67.1,277.4 67.1,277.5 67.2,277.7 67.2,277.9 67.3,278.0 67.3,278.1 67.4,278.3 67.5,278.4 67.6,278.5 67.7,278.6 67.8,278.7 68.0,278.8 68.1,278.9 68.2,279.0 68.7,279.2 69.2,279.4 71.3,280.2 71.7,280.4 72.0,280.6 72.2,280.7 72.3,280.8 72.4,280.9 72.6,281.0 72.7,281.1 72.8,281.3 72.9,281.4 73.0,281.5 73.1,281.7 73.2,281.9 73.2,282.2 73.2,282.4 73.3,283.2 73.5,285.0 73.9,289.2 74.4,295.1 74.4,295.6 74.4,295.9 74.5,296.1 74.5,296.5 74.6,296.8 74.9,297.8 75.0,298.1 75.1,298.5 75.1,298.8 75.2,299.2 75.6,303.4"/>
  </g>

  <!-- 지하철 역 -->
  <g>
    <circle cx="294.5" cy="296.1" r="3" fill="#dc2626" stroke="#fff" stroke-width="1"/>
    <circle cx="300.5" cy="338.5" r="3" fill="#dc2626" stroke="#fff" stroke-width="1"/>
    <circle cx="502.0" cy="195.9" r="3" fill="#dc2626" stroke="#fff" stroke-width="1"/>
    <circle cx="482.1" cy="200.9" r="3" fill="#dc2626" stroke="#fff" stroke-width="1"/>
    <circle cx="466.4" cy="203.9" r="3" fill="#dc2626" stroke="#fff" stroke-width="1"/>
    <circle cx="450.6" cy="207.9" r="3" fill="#dc2626" stroke="#fff" stroke-width="1"/>
    <circle cx="417.0" cy="226.4" r="3" fill="#dc2626" stroke="#fff" stroke-width="1"/>
    <circle cx="401.0" cy="234.1" r="3" fill="#dc2626" stroke="#fff" stroke-width="1"/>
    <circle cx="345.6" cy="262.6" r="3" fill="#dc2626" stroke="#fff" stroke-width="1"/>
    <circle cx="332.3" cy="269.5" r="3" fill="#dc2626" stroke="#fff" stroke-width="1"/>
    <circle cx="271.1" cy="282.7" r="3" fill="#dc2626" stroke="#fff" stroke-width="1"/>
    <circle cx="254.1" cy="287.0" r="3" fill="#dc2626" stroke="#fff" stroke-width="1"/>
    <circle cx="238.8" cy="290.7" r="3" fill="#dc2626" stroke="#fff" stroke-width="1"/>
    <circle cx="479.3" cy="228.5" r="3" fill="#dc2626" stroke="#fff" stroke-width="1"/>
    <circle cx="496.5" cy="242.4" r="3" fill="#dc2626" stroke="#fff" stroke-width="1"/>
    <circle cx="528.1" cy="261.2" r="3" fill="#dc2626" stroke="#fff" stroke-width="1"/>
    <circle cx="531.5" cy="278.9" r="3" fill="#dc2626" stroke="#fff" stroke-width="1"/>
    <circle cx="334.0" cy="254.7" r="3" fill="#dc2626" stroke="#fff" stroke-width="1"/>
    <circle cx="267.3" cy="261.0" r="3" fill="#dc2626" stroke="#fff" stroke-width="1"/>
    <circle cx="218.0" cy="295.8" r="3" fill="#dc2626" stroke="#fff" stroke-width="1"/>
    <circle cx="202.4" cy="299.2" r="3" fill="#dc2626" stroke="#fff" stroke-width="1"/>
    <circle cx="182.0" cy="303.6" r="3" fill="#dc2626" stroke="#fff" stroke-width="1"/>
    <circle cx="162.8" cy="307.7" r="3" fill="#dc2626" stroke="#fff" stroke-width="1"/>
    <circle cx="139.0" cy="307.6" r="3" fill="#dc2626" stroke="#fff" stroke-width="1"/>
    <circle cx="371.5" cy="281.3" r="3" fill="#dc2626" stroke="#fff" stroke-width="1"/>
    <circle cx="438.5" cy="449.2" r="3" fill="#dc2626" stroke="#fff" stroke-width="1"/>
    <circle cx="420.7" cy="435.7" r="3" fill="#dc2626" stroke="#fff" stroke-width="1"/>
    <circle cx="406.8" cy="394.6" r="3" fill="#dc2626" stroke="#fff" stroke-width="1"/>
    <circle cx="402.2" cy="381.0" r="3" fill="#dc2626" stroke="#fff" stroke-width="1"/>
    <circle cx="393.8" cy="359.2" r="3" fill="#dc2626" stroke="#fff" stroke-width="1"/>
    <circle cx="299.2" cy="316.1" r="3" fill="#dc2626" stroke="#fff" stroke-width="1"/>
    <circle cx="235.1" cy="264.1" r="3" fill="#dc2626" stroke="#fff" stroke-width="1"/>
    <circle cx="526.0" cy="320.6" r="3" fill="#dc2626" stroke="#fff" stroke-width="1"/>
    <circle cx="518.9" cy="338.2" r="3" fill="#dc2626" stroke="#fff" stroke-width="1"/>
    <circle cx="513.0" cy="364.3" r="3" fill="#dc2626" stroke="#fff" stroke-width="1"/>
    <circle cx="508.2" cy="385.7" r="3" fill="#dc2626" stroke="#fff" stroke-width="1"/>
    <circle cx="491.5" cy="413.2" r="3" fill="#dc2626" stroke="#fff" stroke-width="1"/>
    <circle cx="481.9" cy="438.9" r="3" fill="#dc2626" stroke="#fff" stroke-width="1"/>
    <circle cx="474.7" cy="507.1" r="3" fill="#dc2626" stroke="#fff" stroke-width="1"/>
    <circle cx="487.2" cy="533.0" r="3" fill="#dc2626" stroke="#fff" stroke-width="1"/>
    <circle cx="454.6" cy="465.0" r="3" fill="#dc2626" stroke="#fff" stroke-width="1"/>
    <circle cx="335.5" cy="197.2" r="3" fill="#dc2626" stroke="#fff" stroke-width="1"/>
    <circle cx="338.6" cy="138.7" r="3" fill="#dc2626" stroke="#fff" stroke-width="1"/>
    <circle cx="337.8" cy="154.0" r="3" fill="#dc2626" stroke="#fff" stroke-width="1"/>
    <circle cx="328.0" cy="112.8" r="3" fill="#dc2626" stroke="#fff" stroke-width="1"/>
    <circle cx="319.7" cy="371.3" r="3" fill="#dc2626" stroke="#fff" stroke-width="1"/>
    <circle cx="315.0" cy="386.8" r="3" fill="#dc2626" stroke="#fff" stroke-width="1"/>
    <circle cx="309.7" cy="407.4" r="3" fill="#dc2626" stroke="#fff" stroke-width="1"/>
    <circle cx="305.3" cy="421.7" r="3" fill="#dc2626" stroke="#fff" stroke-width="1"/>
    <circle cx="299.8" cy="439.7" r="3" fill="#dc2626" stroke="#fff" stroke-width="1"/>
    <circle cx="293.9" cy="459.3" r="3" fill="#dc2626" stroke="#fff" stroke-width="1"/>
    <circle cx="286.8" cy="482.6" r="3" fill="#dc2626" stroke="#fff" stroke-width="1"/>
    <circle cx="439.5" cy="494.4" r="3" fill="#dc2626" stroke="#fff" stroke-width="1"/>
    <circle cx="410.8" cy="519.9" r="3" fill="#dc2626" stroke="#fff" stroke-width="1"/>
    <circle cx="361.4" cy="523.1" r="3" fill="#dc2626" stroke="#fff" stroke-width="1"/>
    <circle cx="336.8" cy="520.1" r="3" fill="#dc2626" stroke="#fff" stroke-width="1"/>
    <circle cx="537.4" cy="185.7" r="3" fill="#dc2626" stroke="#fff" stroke-width="1"/>
    <circle cx="575.4" cy="181.8" r="3" fill="#dc2626" stroke="#fff" stroke-width="1"/>
    <circle cx="605.1" cy="181.7" r="3" fill="#dc2626" stroke="#fff" stroke-width="1"/>
    <circle cx="74.5" cy="296.1" r="3" fill="#dc2626" stroke="#fff" stroke-width="1"/>
    <circle cx="77.6" cy="319.5" r="3" fill="#dc2626" stroke="#fff" stroke-width="1"/>
    <circle cx="71.9" cy="352.7" r="3" fill="#dc2626" stroke="#fff" stroke-width="1"/>
    <circle cx="57.0" cy="370.5" r="3" fill="#dc2626" stroke="#fff" stroke-width="1"/>
    <circle cx="367.3" cy="270.3" r="3" fill="#dc2626" stroke="#fff" stroke-width="1"/>
    <circle cx="205.8" cy="258.1" r="3" fill="#dc2626" stroke="#fff" stroke-width="1"/>
    <circle cx="163.1" cy="266.6" r="3" fill="#dc2626" stroke="#fff" stroke-width="1"/>
    <circle cx="68.7" cy="275.5" r="3" fill="#dc2626" stroke="#fff" stroke-width="1"/>
    <circle cx="135.4" cy="271.9" r="3" fill="#dc2626" stroke="#fff" stroke-width="1"/>
    <circle cx="290.9" cy="258.8" r="3" fill="#dc2626" stroke="#fff" stroke-width="1"/>
    <circle cx="383.4" cy="244.7" r="3" fill="#dc2626" stroke="#fff" stroke-width="1"/>
    <circle cx="277.5" cy="361.4" r="3" fill="#dc2626" stroke="#fff" stroke-width="1"/>
    <circle cx="339.4" cy="356.1" r="3" fill="#dc2626" stroke="#fff" stroke-width="1"/>
    <circle cx="434.6" cy="260.0" r="3" fill="#dc2626" stroke="#fff" stroke-width="1"/>
    <circle cx="387.0" cy="332.6" r="3" fill="#dc2626" stroke="#fff" stroke-width="1"/>
    <circle cx="117.9" cy="273.9" r="3" fill="#dc2626" stroke="#fff" stroke-width="1"/>
    <circle cx="325.8" cy="237.1" r="3" fill="#dc2626" stroke="#fff" stroke-width="1"/>
    <circle cx="331.5" cy="219.4" r="3" fill="#dc2626" stroke="#fff" stroke-width="1"/>
    <circle cx="336.6" cy="176.8" r="3" fill="#dc2626" stroke="#fff" stroke-width="1"/>
    <circle cx="363.3" cy="256.1" r="3" fill="#dc2626" stroke="#fff" stroke-width="1"/>
    <circle cx="417.7" cy="296.7" r="3" fill="#dc2626" stroke="#fff" stroke-width="1"/>
    <circle cx="459.8" cy="301.0" r="3" fill="#dc2626" stroke="#fff" stroke-width="1"/>
    <circle cx="505.3" cy="300.4" r="3" fill="#dc2626" stroke="#fff" stroke-width="1"/>
    <circle cx="289.4" cy="278.9" r="3" fill="#dc2626" stroke="#fff" stroke-width="1"/>
    <circle cx="203.2" cy="73.9" r="3" fill="#dc2626" stroke="#fff" stroke-width="1"/>
    <circle cx="193.4" cy="373.4" r="3" fill="#dc2626" stroke="#fff" stroke-width="1"/>
    <circle cx="304.6" cy="275.6" r="3" fill="#dc2626" stroke="#fff" stroke-width="1"/>
    <circle cx="233.5" cy="360.7" r="3" fill="#dc2626" stroke="#fff" stroke-width="1"/>
    <circle cx="437.7" cy="320.0" r="3" fill="#dc2626" stroke="#fff" stroke-width="1"/>
    <circle cx="119.2" cy="292.6" r="3" fill="#dc2626" stroke="#fff" stroke-width="1"/>
    <circle cx="319.4" cy="356.2" r="3" fill="#dc2626" stroke="#fff" stroke-width="1"/>
    <circle cx="272.2" cy="533.7" r="3" fill="#dc2626" stroke="#fff" stroke-width="1"/>
    <circle cx="166.1" cy="74.0" r="3" fill="#dc2626" stroke="#fff" stroke-width="1"/>
    <circle cx="127.2" cy="77.5" r="3" fill="#dc2626" stroke="#fff" stroke-width="1"/>
    <circle cx="102.2" cy="74.7" r="3" fill="#dc2626" stroke="#fff" stroke-width="1"/>
    <circle cx="316.4" cy="292.1" r="3" fill="#dc2626" stroke="#fff" stroke-width="1"/>
    <circle cx="411.4" cy="413.8" r="3" fill="#dc2626" stroke="#fff" stroke-width="1"/>
    <circle cx="431.3" cy="217.6" r="3" fill="#dc2626" stroke="#fff" stroke-width="1"/>
    <circle cx="278.8" cy="510.3" r="3" fill="#dc2626" stroke="#fff" stroke-width="1"/>
    <circle cx="336.9" cy="309.6" r="3" fill="#dc2626" stroke="#fff" stroke-width="1"/>
    <circle cx="300.3" cy="206.5" r="3" fill="#dc2626" stroke="#fff" stroke-width="1"/>
    <circle cx="288.0" cy="178.9" r="3" fill="#dc2626" stroke="#fff" stroke-width="1"/>
    <circle cx="264.4" cy="156.3" r="3" fill="#dc2626" stroke="#fff" stroke-width="1"/>
    <circle cx="236.9" cy="124.6" r="3" fill="#dc2626" stroke="#fff" stroke-width="1"/>
    <circle cx="218.6" cy="93.8" r="3" fill="#dc2626" stroke="#fff" stroke-width="1"/>
    <circle cx="314.5" cy="256.6" r="3" fill="#dc2626" stroke="#fff" stroke-width="1"/>
    <circle cx="309.6" cy="245.0" r="3" fill="#dc2626" stroke="#fff" stroke-width="1"/>
    <circle cx="316.1" cy="273.0" r="3" fill="#dc2626" stroke="#fff" stroke-width="1"/>
    <circle cx="377.3" cy="301.4" r="3" fill="#dc2626" stroke="#fff" stroke-width="1"/>
    <circle cx="441.1" cy="299.2" r="3" fill="#dc2626" stroke="#fff" stroke-width="1"/>
    <circle cx="534.5" cy="297.4" r="3" fill="#dc2626" stroke="#fff" stroke-width="1"/>
    <circle cx="569.2" cy="293.9" r="3" fill="#dc2626" stroke="#fff" stroke-width="1"/>
    <circle cx="463.5" cy="482.5" r="3" fill="#dc2626" stroke="#fff" stroke-width="1"/>
    <circle cx="465.1" cy="465.6" r="3" fill="#dc2626" stroke="#fff" stroke-width="1"/>
  </g>
</svg>