<?xml version="1.0" encoding="UTF-8"?>
<svg width="800" height="600" xmlns="http://www.w3.org/2000/svg">
  <title>Sao Paulo Subway Map</title>
  <rect width="100%" height="100%" fill="#f8f9fa"/>

  <!-- 지하철 선로 -->
  <g stroke="#2563eb" stroke-width="2" fill="none" opacity="0.8">
    <polyline points="395.4,221.3 395.2,221.5 394.9,221.8 394.8,221.9 394.6,222.1 394.5,222.3 394.2,222.6 393.8,223.2 393.5,223.7 393.1,224.2 392.7,224.7 392.3,225.2 391.9,225.7 391.6,226.1 391.0,226.7 390.6,227.2 389.8,228.1 389.4,228.5"/>
    <polyline points="354.9,284.9 354.9,283.1 355.0,281.4 355.0,281.0 355.2,275.5 355.2,274.6 355.2,273.9 355.3,272.0 355.3,271.0 355.4,269.8 355.4,268.8 355.5,267.2 355.5,265.5 355.5,264.4 355.6,263.4 355.6,261.7 355.6,261.3"/>
    <polyline points="355.7,258.9 355.7,258.6 355.8,258.3 355.8,258.0 355.9,257.7 356.0,257.3 356.1,257.1 356.3,256.8 356.5,256.5 356.6,256.3 356.8,256.1 361.1,251.9 361.6,251.5 362.0,251.1 362.4,250.8 362.9,250.5 363.3,250.3 365.0,249.2 365.6,248.9 367.3,247.8 371.1,245.4 371.9,244.9 372.4,244.7 372.9,244.4 373.2,244.3 373.6,244.2 374.1,244.1 375.0,243.9 375.5,243.8 376.0,243.6 376.7,243.4"/>
    <polyline points="290.7,296.4 292.8,296.6 293.4,296.7 293.9,296.7 294.6,296.9 294.9,297.0"/>
    <polyline points="138.4,488.9 139.3,487.7 139.5,487.4 139.8,486.9"/>
    <polyline points="138.4,488.9 137.4,490.4 136.8,491.2 136.6,491.5 136.2,492.0 135.9,492.4"/>
    <polyline points="329.1,323.7 329.3,323.9 329.6,324.2 329.8,324.5 331.0,326.0 331.2,326.2 331.3,326.4 331.5,326.6 331.8,326.8 332.1,327.0 332.4,327.3 333.9,328.3 334.2,328.4 334.4,328.6 334.7,328.8 337.9,330.5 338.3,330.7 338.7,330.9 339.3,331.2 339.8,331.4 340.3,331.5 340.9,331.7 341.4,331.9 342.1,332.0 343.2,332.3 344.3,332.5 344.8,332.6 345.1,332.6 345.2,332.6 345.2,332.6 345.6,332.6 345.6,332.6 346.0,332.6 346.5,332.6 347.0,332.5 347.5,332.3"/>
    <polyline points="330.2,447.0 330.2,446.1 330.3,445.6 330.4,444.8"/>
    <polyline points="330.9,470.8 330.8,470.4 330.6,469.7 330.6,469.1 330.5,467.4 330.3,464.1 330.2,463.6 330.3,462.8 330.5,459.3 330.5,455.3 330.5,454.3 330.4,453.7 330.2,452.7 330.1,451.8 330.0,450.3 330.2,447.0"/>
    <polyline points="420.0,319.0 423.9,318.3"/>
    <polyline points="423.9,318.3 425.0,318.2 426.1,318.0 427.1,317.8 427.5,317.7"/>
    <polyline points="421.3,379.7 420.6,381.0"/>
    <polyline points="221.5,483.2 222.1,483.1 223.7,482.9 226.0,482.6 229.7,482.0 230.2,481.9 230.7,481.8 231.1,481.5 231.6,480.9 234.4,477.1 235.0,476.2"/>
    <polyline points="321.7,327.0 317.0,328.6 315.7,329.0 314.4,329.4 314.0,329.5 313.8,329.6 312.5,330.3 311.5,330.8 310.8,331.2 310.3,331.4 309.8,331.7 305.9,333.7 304.2,334.6 302.3,335.8 301.5,336.4 300.9,336.8 298.5,338.7 297.5,339.6 297.0,339.9 296.5,340.1 296.0,340.3 295.5,340.5 295.0,340.6 294.6,340.7 294.0,340.9 293.4,341.1 293.0,341.2 292.4,341.5 291.8,341.8 291.0,342.3 290.0,343.0 286.8,344.9 284.6,346.2 283.9,346.6 282.6,347.4 277.5,350.3 276.9,350.7 276.4,350.9 275.9,351.2 275.5,351.3 275.1,351.5 275.0,351.5 274.9,351.5 274.4,351.7 273.9,351.8 273.4,351.9 272.3,352.1 271.6,352.2 271.1,352.4 270.4,352.6 269.8,352.8 265.3,354.7 264.6,355.0 264.0,355.2 260.8,356.5 259.9,356.7 258.8,356.9 257.9,357.0 257.3,357.0 256.0,357.0 255.1,357.0 254.0,356.8 252.3,356.5 251.0,356.2 250.4,356.1 248.5,355.8 247.9,355.8 247.2,355.8 241.4,355.8 239.8,355.9 239.0,356.0 238.4,356.1 235.5,356.7 234.8,356.9 234.2,357.1 233.7,357.5 232.8,358.4 231.5,359.6 230.7,360.4 230.3,360.8 230.1,361.0 229.9,361.2 229.5,361.9 229.0,362.8"/>
    <polyline points="325.6,482.5 325.6,482.7 325.7,483.0 325.8,483.4 326.0,483.6 326.2,483.9 326.4,484.1 326.8,484.3 327.1,484.5 327.5,484.6 327.9,484.6 328.3,484.6 328.7,484.5 329.1,484.3 329.4,484.1 329.7,483.8 329.9,483.6 330.0,483.4 330.1,483.2 330.2,482.7 330.2,482.5 330.3,482.2 330.4,480.7 330.5,480.0 330.6,477.9 330.7,477.0 330.8,476.1 330.9,473.9"/>
    <polyline points="325.6,482.0 325.6,482.4 325.6,482.5"/>
    <polyline points="377.3,326.9 378.8,326.7 379.6,326.5 382.5,326.0 383.7,325.7"/>
    <polyline points="347.5,332.3 348.0,332.2 348.8,331.9 349.7,331.6 350.3,331.4 350.8,331.2 351.3,331.1 351.9,331.0 353.8,330.8 357.6,330.2 358.7,330.0 360.5,329.6 364.4,328.7 365.1,328.6 366.1,328.5 367.0,328.4 369.2,328.1 370.0,328.1 370.6,328.0 371.3,327.9 372.8,327.8 373.7,327.7 374.3,327.6 376.0,327.2 377.3,326.9"/>
    <polyline points="341.1,320.0 341.1,319.9 341.1,319.5 341.2,319.1 341.5,317.9 341.6,317.4 341.7,316.8 341.8,316.3 341.8,315.8 341.9,315.2 342.1,312.4 342.2,311.3 342.3,310.7 342.3,310.1 342.4,309.7 342.6,309.2 342.7,308.6 344.4,303.6 344.9,301.8 345.2,301.1 345.4,300.3 345.6,299.8 346.3,298.4"/>
    <polyline points="330.4,444.8 330.5,444.1 330.6,443.3 330.7,442.3 330.8,441.8 330.9,441.4 331.1,441.0 331.1,440.8 331.4,440.1 331.7,438.8 332.6,434.9 333.7,430.0 334.7,425.9 335.3,423.2 335.5,422.5 335.6,421.4 335.6,418.8 335.7,415.9 335.7,415.4 335.9,414.6 336.1,413.8 337.1,410.8 337.3,410.2 337.4,409.7 337.4,409.5 337.4,407.7 337.5,403.1 337.5,402.3 337.5,401.4 337.6,396.3 337.6,393.8 337.7,392.9 337.9,392.4 338.2,391.8 339.2,390.8 339.7,389.9 340.3,388.7 340.5,388.0 340.7,387.4 340.7,386.8"/>
    <polyline points="598.6,326.4 597.7,326.6 596.0,327.0 593.7,327.6 593.3,327.7 593.0,327.7 592.7,327.7 592.4,327.7 591.9,327.6 591.7,327.4 591.3,327.3 590.9,327.0"/>
    <polyline points="592.5,330.3 596.4,329.3 596.7,329.2 597.2,329.1 597.8,328.8 598.2,328.6 598.5,328.4 598.9,328.0 599.1,327.7 599.9,326.8 600.3,326.0 600.7,325.4"/>
    <polyline points="592.2,329.3 596.1,328.3 596.5,328.1 596.9,328.0 597.3,327.8 597.8,327.7 598.0,327.6 598.2,327.6 598.5,327.5 598.8,327.3 599.0,327.2 599.5,326.7 600.0,326.1"/>
    <polyline points="592.3,329.7 596.2,328.7 596.5,328.6 596.7,328.5 596.9,328.4 597.3,328.2 597.7,328.0 598.0,327.9 598.2,327.9 598.4,327.7 598.7,327.6 598.9,327.4 599.2,327.1"/>
    <polyline points="590.9,327.1 591.2,327.4 591.4,327.5 591.8,327.7 592.1,327.8 592.5,327.9 592.9,327.9 593.2,327.9 593.4,327.9 593.8,327.8 596.1,327.2 598.4,326.6 598.7,326.5 599.1,326.4"/>
    <polyline points="592.3,319.6 593.0,319.4 593.9,319.2 595.0,319.1 595.8,319.0 596.5,318.9 596.8,318.9 597.3,318.8 597.6,318.9 597.9,318.9 598.3,319.0 598.7,319.1 599.2,319.3 599.5,319.6 599.7,319.8 599.9,320.0 600.0,320.1 600.2,320.4 600.3,320.6 600.5,321.3 600.7,321.7 600.9,322.4 601.0,322.9 601.1,323.3 601.1,323.7 601.0,324.1 600.9,324.4 600.8,324.8"/>
    <polyline points="600.5,321.3 600.7,321.7 601.0,322.4 601.1,322.9 601.1,323.3 601.1,323.7 601.1,324.2 601.0,324.4 600.8,324.8"/>
    <polyline points="590.1,326.4 590.5,326.7 590.9,327.1 591.1,327.4 591.4,327.6 591.7,327.8 592.0,327.9 592.3,328.0 592.6,328.1 592.9,328.1 593.2,328.1 593.4,328.0 593.6,328.0 593.8,327.9 596.1,327.3 596.3,327.3 598.0,326.9 598.6,326.7 599.0,326.5 599.3,326.4 599.6,326.1"/>
    <polyline points="600.6,324.7 597.4,325.5 594.1,326.3 593.3,326.5 593.0,326.6 592.4,326.6 592.0,326.6 591.7,326.6 591.3,326.5 590.8,326.4 590.3,326.2 589.8,326.0 589.5,325.9 589.2,325.8 589.0,325.8 588.8,325.8 588.5,325.8 588.1,325.8 587.7,325.9"/>
    <polyline points="589.5,326.1 589.9,326.3 590.1,326.4 590.6,326.7 590.9,327.0 591.4,327.4 591.8,327.6 592.1,327.7 592.5,327.8 592.8,327.8 593.1,327.8 593.4,327.8 593.8,327.7 596.1,327.1 597.8,326.7 598.4,326.5 599.1,326.4 599.6,326.1 599.8,326.0 600.0,325.8 600.2,325.6"/>
    <polyline points="597.1,329.1 597.6,328.9 597.9,328.7"/>
    <polyline points="590.1,326.4 590.6,326.7 590.9,326.9 591.3,327.2 591.7,327.4 592.1,327.5 592.5,327.7 592.9,327.7 593.3,327.7 593.7,327.6 596.0,327.0 597.7,326.6 598.1,326.5 598.6,326.4 599.0,326.2 599.5,326.0 599.5,326.0"/>
    <polyline points="592.5,330.3 592.3,330.4 591.9,330.5 591.4,330.5 591.1,330.5 590.6,330.5 590.1,330.5 589.5,330.4 589.3,330.4 588.8,330.3 588.7,330.3 588.4,330.2 588.0,330.1 587.7,329.9 587.3,329.6 586.9,329.3 586.7,329.0 586.4,328.7 586.3,328.3 586.3,327.9 586.3,327.6 586.4,327.3 586.5,327.0 586.6,326.8 586.8,326.6 587.0,326.4 587.2,326.3 587.4,326.2 587.5,326.1 587.8,326.0 588.1,325.9 588.5,325.9 588.8,325.9 589.0,325.9 589.2,325.9 589.4,326.0 589.7,326.1 590.3,326.3 590.5,326.4 590.8,326.5 591.3,326.7 591.5,326.7 591.9,326.8 592.4,326.8 592.8,326.8 593.1,326.7 593.4,326.6 595.8,326.0 596.5,325.8 596.6,325.8 596.8,325.8 597.0,325.7 597.2,325.6 597.4,325.5 597.9,325.4 599.0,325.1 600.6,324.8"/>
    <polyline points="592.2,329.4 596.1,328.4 596.5,328.3 596.9,328.2"/>
    <polyline points="592.3,329.5 596.2,328.5 596.5,328.5 596.9,328.4"/>
    <polyline points="592.1,329.1 596.0,328.1 596.4,328.0 597.0,327.9"/>
    <polyline points="592.1,329.2 596.1,328.2 596.5,328.1 596.9,328.0"/>
    <polyline points="592.0,328.9 595.9,327.9 596.2,327.8 596.6,327.8"/>
    <polyline points="600.0,326.1 600.3,325.7 600.3,325.7 600.5,325.5"/>
    <polyline points="592.2,329.3 596.1,328.3 596.4,328.2 596.9,328.2"/>
    <polyline points="600.5,325.2 600.2,325.8 599.5,326.7 599.2,327.1"/>
    <polyline points="590.7,329.3 591.0,329.2 591.3,329.0 591.6,328.9 591.8,328.8 592.0,328.8 592.5,328.6 595.9,327.8 596.1,327.7 596.3,327.7 597.0,327.7"/>
    <polyline points="592.3,329.7 596.2,328.7 596.5,328.6 596.7,328.5 596.9,328.4"/>
    <polyline points="592.0,329.0 596.0,328.0 596.3,327.9 596.6,327.8 596.9,327.8"/>
    <polyline points="592.1,329.1 596.0,328.1 596.6,328.0 597.0,327.9 597.3,327.8"/>
    <polyline points="592.2,329.4 596.1,328.4 596.5,328.3 596.9,328.2 597.3,328.1"/>
    <polyline points="592.4,330.1 596.3,329.1 596.8,329.0 597.1,328.9 597.3,328.7 597.5,328.6"/>
    <polyline points="592.5,330.2 596.4,329.2 596.8,329.1 597.1,329.0 597.4,328.8 597.7,328.5"/>
    <polyline points="592.3,329.6 596.2,328.6 596.4,328.5 596.7,328.5 596.9,328.4 597.3,328.2"/>
    <polyline points="592.2,329.5 596.2,328.5 596.5,328.4 596.9,328.2 597.3,328.1 597.7,328.0"/>
    <polyline points="592.0,328.8 595.9,327.8 596.2,327.8 596.6,327.8 597.0,327.7 597.3,327.7"/>
    <polyline points="592.4,329.9 596.3,328.9 596.7,328.8 597.1,328.7 597.7,328.4 598.0,328.2"/>
    <polyline points="592.3,329.9 596.3,328.8 596.7,328.8 597.1,328.6 597.4,328.5 597.7,328.3"/>
    <polyline points="592.4,330.0 596.3,329.0 596.5,328.9 596.8,328.9 597.0,328.8 597.3,328.6 597.7,328.4"/>
    <polyline points="591.3,329.2 591.6,329.1 592.1,329.0 596.0,328.0 596.5,327.9 596.9,327.8 597.3,327.7 597.5,327.7 597.8,327.7"/>
    <polyline points="592.4,330.0 596.3,329.0 596.8,328.9 597.1,328.8 597.5,328.6 598.0,328.3 598.4,327.9"/>
    <polyline points="592.4,330.1 596.4,329.1 596.8,329.0 597.1,328.9 597.4,328.7 597.7,328.5 598.0,328.3"/>
    <polyline points="592.5,330.3 596.4,329.3 596.8,329.2 597.1,329.1 597.3,328.9 597.6,328.7 597.9,328.5 598.7,327.7"/>
    <polyline points="592.3,329.8 596.2,328.8 596.6,328.7 597.1,328.6 597.7,328.3 598.0,328.2 598.4,327.9 598.7,327.7 599.2,327.1"/>
    <polyline points="591.9,326.8 592.2,326.9 592.5,327.0 592.8,327.0 593.1,327.0 593.5,326.9 595.8,326.4 596.1,326.3 596.4,326.3 596.6,326.2 596.9,326.3 597.6,326.3"/>
    <polyline points="591.2,326.7 591.5,326.9 591.9,327.0 592.3,327.2 592.5,327.2 592.9,327.2 593.2,327.2 593.6,327.1 595.9,326.6 596.3,326.5 596.6,326.5 596.9,326.5 597.6,326.5"/>
    <polyline points="591.8,326.9 592.2,327.1 592.6,327.1 592.9,327.2 593.2,327.1 593.6,327.1 595.8,326.5 596.3,326.4 596.6,326.4 597.0,326.4 597.6,326.5 597.8,326.4 598.5,326.3"/>
    <polyline points="591.3,326.7 591.6,326.8 591.9,326.8 592.4,326.9 592.8,327.0 593.2,326.9 593.5,326.9 595.8,326.3 596.2,326.2 596.6,326.2 596.9,326.2 597.2,326.2 597.6,326.3 598.0,326.3 598.5,326.3 599.0,326.2"/>
    <polyline points="590.5,326.4 591.1,326.7 591.2,326.7 591.4,326.8 591.8,326.9 592.3,327.0 592.6,327.1 592.8,327.1 593.3,327.1 593.5,327.0 595.8,326.4 596.1,326.4 596.4,326.3 596.6,326.3 597.0,326.3 597.4,326.4 597.6,326.4 598.0,326.3"/>
    <polyline points="591.9,326.8 592.3,326.8 592.6,326.9 592.9,326.8 593.1,326.8 593.5,326.7 595.7,326.1 596.2,326.0 596.4,326.0 596.6,326.0 597.0,325.9 597.2,326.0 597.7,326.1 598.1,326.1 598.5,326.2 598.8,326.2 599.1,326.1 599.5,326.0"/>
    <polyline points="595.8,326.0 596.2,326.0 596.6,326.0"/>
    <polyline points="597.7,326.1 597.1,326.0 596.9,326.0 596.6,326.0 596.3,326.1 596.1,326.1 593.6,326.8"/>
    <polyline points="589.8,326.0 590.1,326.2 590.4,326.3 590.6,326.4 591.0,326.5 591.3,326.6 591.7,326.7 591.9,326.7 592.2,326.7 592.6,326.7 593.0,326.6 593.2,326.6 593.9,326.4 596.8,325.7 597.4,325.5"/>
    <polyline points="592.4,329.9 592.0,330.0 591.5,330.0 591.1,330.1 590.5,330.1 591.1,330.0 591.5,330.0 591.8,330.0 592.1,329.9 592.3,329.9"/>
    <polyline points="592.4,330.1 592.2,330.2 591.9,330.2 591.4,330.2 590.7,330.2 590.2,330.1 590.6,330.1 591.4,330.1 591.8,330.1 592.1,330.1 592.4,330.0"/>
    <polyline points="588.8,326.0 589.0,326.1 589.3,326.1 589.6,326.3 589.9,326.4 590.1,326.6 590.4,326.9 590.6,327.1 590.8,327.2 591.1,327.4 591.3,327.6 591.7,327.8"/>
    <polyline points="588.7,330.1 589.7,330.3"/>
    <polyline points="590.8,329.2 591.2,329.0"/>
    <polyline points="588.2,329.8 588.7,330.0"/>
    <polyline points="590.2,330.2 591.0,330.3"/>
    <polyline points="589.5,326.1 590.3,326.3"/>
    <polyline points="589.5,326.1 589.3,326.1 588.9,326.0 588.3,326.0 587.9,326.1 587.5,326.2 587.2,326.4 587.0,326.7 586.7,327.1 586.5,327.5 586.5,327.8 586.5,328.1 586.6,328.5 586.7,328.7 586.9,329.1 587.1,329.3 587.3,329.5 587.6,329.6 587.9,329.8 588.2,329.8 588.7,329.9"/>
    <polyline points="596.8,325.8 598.2,325.4 600.2,324.9"/>
    <polyline points="590.6,328.9 590.9,328.8 591.2,328.8"/>
    <polyline points="590.8,329.1 591.2,329.0 591.6,328.8"/>
    <polyline points="591.5,330.0 591.9,329.9 592.3,329.8"/>
    <polyline points="588.0,329.9 588.4,330.0 588.7,330.0"/>
    <polyline points="589.3,330.0 589.7,330.1 590.2,330.1"/>
    <polyline points="590.7,329.0 591.1,328.9 591.6,328.8"/>
    <polyline points="588.7,330.0 589.4,330.2 590.2,330.3"/>
    <polyline points="591.2,329.7 591.7,329.6 592.2,329.5"/>
    <polyline points="589.7,330.1 590.2,330.1 590.5,330.1"/>
    <polyline points="591.3,329.8 591.8,329.7 592.3,329.6"/>
    <polyline points="590.2,330.3 590.6,330.3 591.0,330.3"/>
    <polyline points="590.8,329.5 591.3,329.5 591.6,329.4 592.2,329.3"/>
    <polyline points="591.3,329.1 591.6,329.0 591.8,329.0 592.0,328.9"/>
    <polyline points="588.7,330.0 589.4,330.1 589.8,330.1 590.2,330.2"/>
    <polyline points="590.8,329.0 591.3,328.9 591.6,328.8 592.1,328.7"/>
    <polyline points="591.2,329.6 591.6,329.5 592.0,329.4 592.2,329.4"/>
    <polyline points="590.4,329.6 590.8,329.5 591.5,329.4 592.1,329.2"/>
    <polyline points="590.7,329.8 591.2,329.7 591.6,329.6 592.2,329.4"/>
    <polyline points="590.8,329.8 591.3,329.8 591.8,329.8 592.3,329.7"/>
    <polyline points="591.0,329.4 591.4,329.3 591.8,329.2 592.1,329.1"/>
    <polyline points="591.3,329.8 591.7,329.8 592.0,329.8 592.3,329.7"/>
    <polyline points="591.2,330.3 591.6,330.3 592.0,330.3 592.3,330.3 592.5,330.2"/>
  </g>

  <!-- 지하철 역 -->
  <g>
    <circle cx="254.8" cy="326.1" r="3" fill="#dc2626" stroke="#fff" stroke-width="1"/>
    <circle cx="333.5" cy="328.0" r="3" fill="#dc2626" stroke="#fff" stroke-width="1"/>
    <circle cx="369.0" cy="328.1" r="3" fill="#dc2626" stroke="#fff" stroke-width="1"/>
    <circle cx="353.7" cy="330.7" r="3" fill="#dc2626" stroke="#fff" stroke-width="1"/>
    <circle cx="409.1" cy="393.2" r="3" fill="#dc2626" stroke="#fff" stroke-width="1"/>
    <circle cx="209.5" cy="484.3" r="3" fill="#dc2626" stroke="#fff" stroke-width="1"/>
    <circle cx="171.8" cy="462.0" r="3" fill="#dc2626" stroke="#fff" stroke-width="1"/>
    <circle cx="342.4" cy="331.8" r="3" fill="#dc2626" stroke="#fff" stroke-width="1"/>
    <circle cx="328.4" cy="322.6" r="3" fill="#dc2626" stroke="#fff" stroke-width="1"/>
    <circle cx="428.6" cy="317.0" r="3" fill="#dc2626" stroke="#fff" stroke-width="1"/>
    <circle cx="238.4" cy="356.2" r="3" fill="#dc2626" stroke="#fff" stroke-width="1"/>
    <circle cx="389.3" cy="405.5" r="3" fill="#dc2626" stroke="#fff" stroke-width="1"/>
    <circle cx="225.9" cy="482.5" r="3" fill="#dc2626" stroke="#fff" stroke-width="1"/>
    <circle cx="374.2" cy="406.9" r="3" fill="#dc2626" stroke="#fff" stroke-width="1"/>
    <circle cx="290.7" cy="296.3" r="3" fill="#dc2626" stroke="#fff" stroke-width="1"/>
    <circle cx="331.0" cy="368.0" r="3" fill="#dc2626" stroke="#fff" stroke-width="1"/>
    <circle cx="332.6" cy="358.0" r="3" fill="#dc2626" stroke="#fff" stroke-width="1"/>
    <circle cx="330.5" cy="454.4" r="3" fill="#dc2626" stroke="#fff" stroke-width="1"/>
    <circle cx="346.6" cy="393.0" r="3" fill="#dc2626" stroke="#fff" stroke-width="1"/>
    <circle cx="234.9" cy="476.2" r="3" fill="#dc2626" stroke="#fff" stroke-width="1"/>
    <circle cx="388.2" cy="229.8" r="3" fill="#dc2626" stroke="#fff" stroke-width="1"/>
    <circle cx="334.9" cy="376.5" r="3" fill="#dc2626" stroke="#fff" stroke-width="1"/>
    <circle cx="420.6" cy="381.1" r="3" fill="#dc2626" stroke="#fff" stroke-width="1"/>
    <circle cx="320.6" cy="358.1" r="3" fill="#dc2626" stroke="#fff" stroke-width="1"/>
    <circle cx="330.8" cy="470.8" r="3" fill="#dc2626" stroke="#fff" stroke-width="1"/>
    <circle cx="340.5" cy="387.9" r="3" fill="#dc2626" stroke="#fff" stroke-width="1"/>
    <circle cx="367.3" cy="247.7" r="3" fill="#dc2626" stroke="#fff" stroke-width="1"/>
    <circle cx="242.2" cy="464.0" r="3" fill="#dc2626" stroke="#fff" stroke-width="1"/>
    <circle cx="259.4" cy="442.5" r="3" fill="#dc2626" stroke="#fff" stroke-width="1"/>
    <circle cx="252.2" cy="452.1" r="3" fill="#dc2626" stroke="#fff" stroke-width="1"/>
    <circle cx="265.4" cy="354.7" r="3" fill="#dc2626" stroke="#fff" stroke-width="1"/>
    <circle cx="298.6" cy="338.8" r="3" fill="#dc2626" stroke="#fff" stroke-width="1"/>
    <circle cx="343.8" cy="303.5" r="3" fill="#dc2626" stroke="#fff" stroke-width="1"/>
    <circle cx="331.0" cy="441.0" r="3" fill="#dc2626" stroke="#fff" stroke-width="1"/>
    <circle cx="333.7" cy="430.1" r="3" fill="#dc2626" stroke="#fff" stroke-width="1"/>
    <circle cx="335.6" cy="418.8" r="3" fill="#dc2626" stroke="#fff" stroke-width="1"/>
    <circle cx="337.5" cy="402.3" r="3" fill="#dc2626" stroke="#fff" stroke-width="1"/>
    <circle cx="250.5" cy="356.2" r="3" fill="#dc2626" stroke="#fff" stroke-width="1"/>
    <circle cx="301.2" cy="342.5" r="3" fill="#dc2626" stroke="#fff" stroke-width="1"/>
    <circle cx="310.9" cy="350.5" r="3" fill="#dc2626" stroke="#fff" stroke-width="1"/>
    <circle cx="285.5" cy="337.0" r="3" fill="#dc2626" stroke="#fff" stroke-width="1"/>
    <circle cx="313.7" cy="329.7" r="3" fill="#dc2626" stroke="#fff" stroke-width="1"/>
    <circle cx="189.7" cy="467.3" r="3" fill="#dc2626" stroke="#fff" stroke-width="1"/>
    <circle cx="138.1" cy="489.4" r="3" fill="#dc2626" stroke="#fff" stroke-width="1"/>
    <circle cx="229.0" cy="362.9" r="3" fill="#dc2626" stroke="#fff" stroke-width="1"/>
    <circle cx="308.3" cy="307.9" r="3" fill="#dc2626" stroke="#fff" stroke-width="1"/>
    <circle cx="275.4" cy="332.6" r="3" fill="#dc2626" stroke="#fff" stroke-width="1"/>
    <circle cx="340.9" cy="310.0" r="3" fill="#dc2626" stroke="#fff" stroke-width="1"/>
    <circle cx="408.9" cy="320.8" r="3" fill="#dc2626" stroke="#fff" stroke-width="1"/>
    <circle cx="382.6" cy="326.1" r="3" fill="#dc2626" stroke="#fff" stroke-width="1"/>
    <circle cx="318.8" cy="315.7" r="3" fill="#dc2626" stroke="#fff" stroke-width="1"/>
    <circle cx="568.2" cy="317.0" r="3" fill="#dc2626" stroke="#fff" stroke-width="1"/>
    <circle cx="480.2" cy="307.2" r="3" fill="#dc2626" stroke="#fff" stroke-width="1"/>
    <circle cx="498.1" cy="305.0" r="3" fill="#dc2626" stroke="#fff" stroke-width="1"/>
    <circle cx="519.7" cy="301.2" r="3" fill="#dc2626" stroke="#fff" stroke-width="1"/>
    <circle cx="542.6" cy="303.7" r="3" fill="#dc2626" stroke="#fff" stroke-width="1"/>
    <circle cx="339.1" cy="338.7" r="3" fill="#dc2626" stroke="#fff" stroke-width="1"/>
    <circle cx="341.1" cy="322.5" r="3" fill="#dc2626" stroke="#fff" stroke-width="1"/>
    <circle cx="447.4" cy="313.6" r="3" fill="#dc2626" stroke="#fff" stroke-width="1"/>
    <circle cx="588.7" cy="320.0" r="3" fill="#dc2626" stroke="#fff" stroke-width="1"/>
    <circle cx="298.8" cy="409.1" r="3" fill="#dc2626" stroke="#fff" stroke-width="1"/>
    <circle cx="313.6" cy="400.5" r="3" fill="#dc2626" stroke="#fff" stroke-width="1"/>
    <circle cx="323.9" cy="401.3" r="3" fill="#dc2626" stroke="#fff" stroke-width="1"/>
    <circle cx="205.0" cy="383.5" r="3" fill="#dc2626" stroke="#fff" stroke-width="1"/>
    <circle cx="336.9" cy="401.3" r="3" fill="#dc2626" stroke="#fff" stroke-width="1"/>
    <circle cx="268.2" cy="430.8" r="3" fill="#dc2626" stroke="#fff" stroke-width="1"/>
    <circle cx="334.5" cy="348.0" r="3" fill="#dc2626" stroke="#fff" stroke-width="1"/>
    <circle cx="151.8" cy="475.1" r="3" fill="#dc2626" stroke="#fff" stroke-width="1"/>
    <circle cx="188.5" cy="394.1" r="3" fill="#dc2626" stroke="#fff" stroke-width="1"/>
    <circle cx="298.5" cy="408.3" r="3" fill="#dc2626" stroke="#fff" stroke-width="1"/>
  </g>
</svg>