<?xml version="1.0" encoding="UTF-8"?>
<svg width="800" height="600" viewBox="0 0 800 600" 
     xmlns="http://www.w3.org/2000/svg">
  <title>Seoul Subway Map</title>
  <rect width="100%" height="100%" fill="#f8f9fa"/>

  <!-- 지하철 선로 -->
  <g id="subway-lines" stroke="#2563eb" stroke-width="3" fill="none">
    <polyline points="154.5,262.5 151.3,260.6 149.3,259.3 148.8,259.1 148.3,258.9 147.9,258.7 147.4,258.5 147.0,258.4 146.3,258.3 145.3,258.0 145.1,258.0 144.8,257.9 144.5,257.9 142.5,257.7" opacity="0.8"/>
    <polyline points="155.2,263.1 153.6,262.3 152.9,261.9 152.2,261.5 148.9,259.8 147.4,259.0 146.7,258.6 146.2,258.4 145.9,258.3 145.6,258.1 145.3,258.0" opacity="0.8"/>
    <polyline points="142.4,258.0 144.7,258.2 144.9,258.2 145.2,258.3 145.5,258.4 145.8,258.5 146.2,258.6 146.7,258.8 147.1,259.0 147.7,259.3 147.9,259.4 148.1,259.5 148.4,259.6 148.9,259.8" opacity="0.8"/>
    <polyline points="419.6,332.4 419.7,334.4" opacity="0.8"/>
    <polyline points="360.7,321.2 360.8,320.9 360.8,320.7 360.8,320.5 360.9,319.6 360.9,319.4 361.0,318.3" opacity="0.8"/>
    <polyline points="371.8,398.9 372.0,397.8 372.6,395.0 375.6,381.1 375.8,380.2 375.8,379.8" opacity="0.8"/>
    <polyline points="568.2,515.6 573.5,514.5 574.6,514.3 575.3,514.0 576.4,513.6 577.0,513.2 577.8,512.8 578.8,512.1 581.7,510.0 586.1,506.9 588.5,505.2 589.0,505.0 590.6,504.2 590.9,504.1 591.8,503.6 593.5,503.0 594.6,502.5 595.7,502.0 596.9,501.4 601.1,498.7 601.6,498.4 602.3,497.8 602.8,497.3 603.0,496.9 603.6,495.6 604.1,494.3 604.2,494.1 606.8,486.6 607.8,483.6 607.9,483.1 607.8,482.8 607.7,482.6 607.6,482.4 607.1,481.6 606.2,480.7 605.7,480.3 605.1,479.8 604.3,479.4 603.7,479.2 602.7,478.9 602.0,478.8 594.8,477.9 594.4,477.9 594.0,477.9 593.8,477.9 593.6,477.8 593.3,477.8 592.9,477.6 592.3,477.3 592.0,477.1 591.6,476.8 591.1,476.4 590.3,475.6 589.1,474.6 587.1,473.2 586.7,472.9" opacity="0.8"/>
    <polyline points="44.1,288.0 49.0,288.0 49.4,288.0 50.3,288.0" opacity="0.8"/>
    <polyline points="56.5,288.2 56.9,288.3 57.2,288.5 57.5,288.7" opacity="0.8"/>
    <polyline points="155.2,263.1 155.4,263.3 155.6,263.5 155.8,263.7 155.9,263.9 156.1,264.2 156.2,264.3 156.3,264.5 156.3,264.7 156.4,264.9 156.4,265.1 156.5,265.3 156.5,265.5 156.5,265.7 156.4,266.0 156.4,266.3 156.3,266.6 155.7,268.6" opacity="0.8"/>
    <polyline points="257.6,399.2 257.2,402.1 257.2,402.7 257.1,403.2 257.1,403.6 257.1,403.9 257.1,404.2 257.1,404.5 257.2,404.9 257.2,405.3" opacity="0.8"/>
    <polyline points="454.7,312.5 454.3,308.5 454.2,307.4 453.8,306.5 453.0,305.7 452.1,305.2 451.5,305.0 451.4,305.0 451.3,305.0 451.1,304.9 449.9,304.9 448.2,304.9 447.4,304.9 446.3,305.0 445.0,305.0 444.4,304.9 443.8,304.6 442.8,303.7 441.2,302.5 436.0,299.6 433.7,298.9 432.8,298.7 429.9,298.6 429.6,298.6 428.4,298.3 426.5,298.0 425.2,297.7 423.7,297.6 422.2,297.7 419.1,298.0 416.9,298.3 414.4,298.7 413.5,298.8 412.6,298.8 411.6,298.5 408.5,297.2" opacity="0.8"/>
    <polyline points="531.3,367.1 530.5,365.5 522.9,350.5" opacity="0.8"/>
    <polyline points="375.9,375.9 375.8,375.2 375.8,375.1 375.8,375.0 375.6,374.6 375.4,374.2 375.3,374.0 375.2,373.9 375.2,373.9 374.8,373.6 374.8,373.6 374.7,373.5 373.9,373.1 363.3,368.9 361.3,368.2 360.3,368.0 359.4,367.8 358.9,367.7 358.3,367.3 354.9,364.9 354.7,364.8 354.6,364.6 354.3,364.3 354.1,363.9 354.0,363.6 353.8,363.2 353.7,362.8 353.6,362.4 353.6,362.1 353.6,361.7 353.6,361.4 353.7,361.1 353.7,360.9 353.8,360.7 353.9,360.6 353.9,360.4 354.0,360.3 354.1,360.0 354.3,359.8 355.7,358.1 356.1,357.5 356.7,356.8 358.1,354.9 358.7,354.1 358.7,354.1 361.7,350.2 362.3,349.3 363.8,347.2 363.9,346.9 364.0,346.7 364.1,346.4 364.1,346.0 364.0,345.6 361.5,333.7 361.4,333.0 361.1,331.6 360.9,328.1 360.8,324.7 361.2,321.9 361.6,319.8 361.7,319.6 361.7,319.3" opacity="0.8"/>
    <polyline points="453.9,286.9 449.6,284.4 448.4,284.0 448.0,283.8 447.6,283.7 447.4,283.7 447.0,283.7 443.6,283.8 440.2,283.9 437.8,283.9 437.0,283.9 436.4,283.9 435.7,283.9 435.0,283.9 434.2,283.9 434.1,283.9 433.6,284.0 433.3,284.0 433.2,284.0 433.0,283.9 432.8,283.9 432.6,283.8 432.5,283.8 432.3,283.7 432.2,283.6" opacity="0.8"/>
    <polyline points="271.3,347.3 269.7,349.8 269.5,350.2 264.8,357.7" opacity="0.8"/>
    <polyline points="489.5,341.9 484.6,355.2 484.6,355.3" opacity="0.8"/>
    <polyline points="459.0,93.6 458.7,93.0 458.5,92.5 458.5,92.1 458.4,91.7 458.4,91.3" opacity="0.8"/>
    <polyline points="469.1,72.5 468.7,73.0 468.1,73.6 467.2,74.8" opacity="0.8"/>
    <polyline points="565.2,171.5 566.1,172.4 568.9,175.8 570.0,176.7 571.0,177.4 572.2,178.2 575.0,179.7 578.0,181.1 586.4,185.6 587.5,186.3 588.8,187.3 590.5,189.0 592.1,190.7 593.1,191.7 593.6,192.3 594.0,193.0 594.1,193.4 594.2,194.1 594.3,195.0 594.2,196.0 593.9,198.5 593.7,199.5 593.5,201.4 593.3,202.6 593.2,204.5 593.0,205.9 592.9,206.6 592.7,206.9 592.5,207.3 592.2,207.7 591.8,208.2 591.4,208.6 591.1,208.8 588.5,210.4 586.0,211.9 583.9,213.1 582.5,213.8 581.1,214.5 580.2,215.2 579.5,215.6 578.9,216.4 578.6,217.0 578.4,217.8 578.2,219.4 578.1,221.2 578.1,221.6 578.2,222.3 578.3,223.1 578.4,223.9 578.6,224.5 578.8,225.4 579.3,227.3 579.6,228.2 581.5,235.6 582.2,238.0 582.5,239.0 582.6,239.2 583.7,241.2 584.1,242.0 584.3,242.4 584.5,243.0 584.5,243.4 584.5,243.9 584.4,244.3 584.1,244.8 583.7,245.4 582.0,247.4 581.2,248.4 580.1,249.6 579.6,250.3 579.1,251.1 578.7,251.8 578.4,252.5 578.1,253.3 578.1,253.8 578.1,260.7 578.1,263.1 578.2,274.4 578.4,277.5 578.6,279.2 580.4,295.8 580.6,296.8 581.3,302.5 581.5,303.7 581.6,304.8 581.7,306.0 581.9,307.0 581.9,307.7 581.8,308.2 581.7,308.8 581.5,309.2 581.3,309.6 581.0,310.0 580.6,310.4 580.3,310.6 580.0,310.8 579.2,311.2 578.4,311.5 577.7,311.7 577.1,311.9 576.3,312.1 575.9,312.2 575.3,312.2 574.6,312.2 574.2,312.2 573.9,312.2 573.6,312.2 573.0,312.1 572.3,312.0 571.6,311.8 571.1,311.7 570.6,311.7 570.2,311.7 569.8,311.8 569.4,311.9 569.1,312.0 568.8,312.2 568.5,312.4 568.2,312.6 567.8,313.0 567.5,313.4 567.3,313.8 567.2,314.2 566.9,315.2 566.5,316.3 566.2,317.3" opacity="0.8"/>
    <polyline points="324.7,383.6 325.3,383.6 325.8,383.6 326.3,383.7 329.4,384.5 331.8,385.2 332.4,385.3 333.1,385.3 333.7,385.3 337.1,384.9 339.3,384.7 340.2,384.7 340.5,384.7 340.8,384.7 341.3,384.9 342.8,385.8 344.1,386.3 345.5,386.7 346.4,387.1 347.0,387.6 347.7,388.3 349.8,391.5 350.6,392.5 351.8,393.5 352.1,393.8 352.2,393.9 352.5,394.1 355.1,395.3 357.2,396.5 357.4,396.5 358.3,396.9 358.9,397.1 359.5,397.2 360.5,397.2 361.3,397.2 361.9,397.3 362.4,397.5 362.9,397.7 364.6,398.6 367.0,400.1" opacity="0.8"/>
    <polyline points="57.5,288.7 57.7,288.9 57.8,289.1 58.1,289.5 58.3,289.8 58.5,290.4 59.2,292.0 59.5,292.7 60.5,294.7 60.8,295.2 61.0,295.8 61.2,296.4 61.3,296.8 61.3,297.2" opacity="0.8"/>
    <polyline points="50.3,288.0 49.9,287.9 49.4,287.9" opacity="0.8"/>
    <polyline points="57.5,288.7 57.4,288.5 57.1,288.4 56.9,288.2 56.6,288.1" opacity="0.8"/>
    <polyline points="60.6,294.7 60.4,294.4 59.5,292.5 59.2,292.0 58.6,290.3 58.4,289.8 58.1,289.4 57.9,289.1 57.5,288.7" opacity="0.8"/>
    <polyline points="56.6,288.1 56.4,288.0 56.3,288.0 56.1,288.0 55.6,287.9 55.2,287.9 53.4,287.9" opacity="0.8"/>
    <polyline points="49.4,288.0 49.9,287.9 50.3,287.9" opacity="0.8"/>
    <polyline points="128.6,277.8 129.1,277.6 129.7,277.4" opacity="0.8"/>
    <polyline points="115.8,281.0 116.3,280.7 116.8,280.4 117.3,280.3 117.7,280.2 118.1,280.1 123.6,279.3 124.7,279.1 125.6,278.9 126.6,278.5 128.6,277.8" opacity="0.8"/>
    <polyline points="129.7,277.5 130.4,277.3 132.2,276.6" opacity="0.8"/>
    <polyline points="114.4,284.6 114.3,284.3 114.3,283.9 114.3,283.6 114.3,283.3 114.3,283.0 114.4,282.7 114.4,282.4 114.5,282.1 114.7,281.8 114.9,281.5 115.1,281.2 115.5,280.7 115.8,280.5 116.1,280.2 116.5,280.1 117.1,279.8 118.2,279.4 118.9,279.2 119.5,279.0 119.8,278.9 121.1,278.4 122.0,278.1 123.3,277.6 123.8,277.4 124.8,277.1 125.4,276.9 125.7,276.8 126.1,276.6 126.5,276.5 126.8,276.4 127.1,276.2" opacity="0.8"/>
    <polyline points="129.7,277.4 130.4,277.1 132.1,276.4" opacity="0.8"/>
    <polyline points="121.2,278.3 121.5,278.2 121.8,278.0 122.2,277.8 122.3,277.7 122.6,277.5 122.7,277.3 122.9,277.2 123.1,276.9 123.4,276.5 124.1,275.8 124.7,275.2 125.2,274.8 125.4,274.6 125.7,274.4 125.9,274.2 126.1,274.1 126.5,274.0 127.0,273.8" opacity="0.8"/>
    <polyline points="126.1,276.6 126.7,276.5 127.2,276.4 129.0,276.0 129.3,275.9 129.6,275.8 129.6,275.8" opacity="0.8"/>
    <polyline points="129.7,277.5 129.1,277.6 128.5,277.8" opacity="0.8"/>
    <polyline points="123.1,277.6 123.7,277.3 123.9,277.2 124.6,276.8 124.8,276.7 125.0,276.5 126.4,275.2" opacity="0.8"/>
    <polyline points="128.5,277.8 127.4,278.2 125.7,278.8 125.2,278.9 124.5,279.1 123.6,279.2 118.1,280.1 117.7,280.1 117.3,280.2 116.8,280.4 116.2,280.7 115.8,281.0" opacity="0.8"/>
    <polyline points="122.0,278.2 123.1,278.0 123.6,278.0 124.2,278.1 124.5,278.1 125.7,278.2 126.0,278.3 126.4,278.3 126.7,278.2 127.1,278.1 131.7,276.5 132.1,276.3 132.4,276.1 132.6,275.8 132.9,275.5 133.0,275.1 133.1,274.8 133.1,274.5 133.1,274.2 133.1,273.9 132.9,273.4 132.7,273.1 132.5,272.8 132.2,272.6 131.9,272.4 131.5,272.2 131.2,272.2 130.8,272.1 130.5,272.2 128.1,273.0 127.4,273.2 126.9,273.4 126.6,273.5 126.3,273.7 125.9,273.9 125.7,274.1 125.3,274.5 124.9,274.9 124.5,275.3 124.1,275.8" opacity="0.8"/>
    <polyline points="203.4,367.7 204.2,369.8 204.8,371.4 205.5,373.2 206.1,374.9 206.9,377.3 208.1,380.6 208.5,381.9 208.9,382.9 209.1,383.8 209.2,384.3 209.4,385.6 209.5,386.3 209.7,386.7 209.8,387.0 210.0,387.4 210.2,387.7 210.6,388.1 211.0,388.5 211.3,388.6 211.8,388.8 212.3,388.9 212.9,389.0 213.4,389.1 213.7,389.1 214.0,389.0 214.5,389.0 215.0,388.8 215.6,388.7 216.6,388.4 217.8,387.9 218.6,387.6 219.3,387.2" opacity="0.8"/>
    <polyline points="50.3,287.9 49.4,287.9 49.0,287.9 44.1,287.9" opacity="0.8"/>
    <polyline points="50.6,288.0 55.2,287.9 55.6,288.0 56.1,288.0 56.5,288.2" opacity="0.8"/>
    <polyline points="64.1,306.1 63.5,305.1 61.9,302.9 61.7,302.4 61.6,301.8 61.6,300.1" opacity="0.8"/>
    <polyline points="503.4,121.5 502.9,122.1 502.5,122.6 502.1,123.0 501.0,124.6 500.4,125.5" opacity="0.8"/>
    <polyline points="370.0,445.1 368.9,445.1 368.7,445.1 367.9,445.2 367.5,445.2 367.2,445.2 366.6,445.3 365.8,445.5 365.1,445.6 364.7,445.6 364.2,445.8 363.6,445.9 363.0,446.1 359.7,447.1 359.2,447.2 358.9,447.3 358.5,447.4 358.1,447.4 358.0,447.4 357.5,447.4 357.1,447.3 356.3,447.2 355.8,447.1 355.2,446.9 354.2,446.5 350.1,444.4 348.5,443.6 347.9,443.3 345.3,442.1 344.8,441.8 343.7,441.3 341.6,440.2 339.9,439.4 339.5,439.1 338.0,438.4 336.8,437.9 336.0,437.5 335.3,437.4 334.3,437.2 331.0,436.8 327.5,436.4 326.8,436.3 325.4,436.1 323.3,435.8 322.6,435.7 321.9,435.6 321.5,435.5 320.8,435.3 320.4,435.1 320.0,434.9 318.2,433.9 316.4,432.8 314.8,431.9 314.6,431.8 314.3,431.7 314.0,431.6 313.6,431.6 313.3,431.5 312.8,431.5 312.4,431.5 311.7,431.5 307.7,432.2 307.6,432.2 307.0,432.3 306.0,432.5 305.8,432.5" opacity="0.8"/>
    <polyline points="282.8,328.7 282.3,330.7 281.9,331.6 281.5,332.4 280.9,333.2 280.4,334.1 273.5,344.1 271.5,347.0 271.3,347.3" opacity="0.8"/>
    <polyline points="309.5,361.9 310.2,361.3 310.9,360.6 311.5,359.9 318.5,350.8 323.1,344.9 323.9,343.9 324.9,342.8 327.1,340.7 331.7,336.6 332.1,336.1 333.4,334.0 334.7,331.9 336.7,328.5 336.8,328.1 338.2,325.1 341.1,317.8 342.8,313.6 343.2,313.1 347.9,308.2 348.2,307.8 348.8,307.2 349.1,306.7 350.7,303.4 352.5,300.1 354.1,297.4 354.2,297.3 354.2,297.2 354.6,296.8 356.0,294.9 357.3,293.4 357.5,293.2 358.6,292.2 362.3,289.0 362.7,288.6 363.0,288.4 363.3,288.2 363.9,287.9 364.5,287.7 367.6,287.7 372.8,287.7 375.6,287.0 377.0,286.7 380.0,286.1 381.5,286.1 383.0,286.2" opacity="0.8"/>
    <polyline points="220.0,388.8 220.5,388.6 220.7,388.5 221.3,388.1 221.9,387.7 222.6,387.2 222.8,387.1 222.9,387.0 223.3,386.7 223.9,386.2 225.4,385.0 225.7,384.7 226.2,384.3 226.8,383.8 227.0,383.6" opacity="0.8"/>
    <polyline points="227.1,383.7 227.3,383.6 227.4,383.4 227.8,383.1 228.0,382.9 229.0,382.5 229.5,382.3" opacity="0.8"/>
    <polyline points="220.4,389.7 220.8,389.3 221.3,388.9 221.5,388.7 221.8,388.4" opacity="0.8"/>
    <polyline points="220.7,390.3 220.9,390.1 221.0,389.9 221.2,389.7 221.4,389.4 221.8,388.9 221.9,388.7 222.0,388.6 222.1,388.3 222.3,388.1 222.3,387.9 222.5,387.7" opacity="0.8"/>
  </g>

  <!-- 지하철 역 -->
  <g id="subway-stations">
    <circle cx="405.6" cy="259.7" r="4" fill="#dc2626" stroke="#fff" stroke-width="2"/>
    <text x="405.6" y="251.7" text-anchor="middle" font-size="10" fill="#374151">한성대입구</text>
    <circle cx="279.0" cy="541.0" r="4" fill="#dc2626" stroke="#fff" stroke-width="2"/>
    <text x="279.0" y="533.0" text-anchor="middle" font-size="10" fill="#374151">관악</text>
    <circle cx="442.9" cy="276.5" r="4" fill="#dc2626" stroke="#fff" stroke-width="2"/>
    <text x="442.9" y="268.5" text-anchor="middle" font-size="10" fill="#374151">제기동</text>
    <circle cx="485.8" cy="238.0" r="4" fill="#dc2626" stroke="#fff" stroke-width="2"/>
    <text x="485.8" y="230.0" text-anchor="middle" font-size="10" fill="#374151">신이문</text>
    <circle cx="473.1" cy="258.1" r="4" fill="#dc2626" stroke="#fff" stroke-width="2"/>
    <text x="473.1" y="250.1" text-anchor="middle" font-size="10" fill="#374151">회기</text>
    <circle cx="474.8" cy="185.9" r="4" fill="#dc2626" stroke="#fff" stroke-width="2"/>
    <text x="474.8" y="177.9" text-anchor="middle" font-size="10" fill="#374151">월계</text>
    <circle cx="465.0" cy="166.8" r="4" fill="#dc2626" stroke="#fff" stroke-width="2"/>
    <text x="465.0" y="158.8" text-anchor="middle" font-size="10" fill="#374151">녹천</text>
    <circle cx="478.6" cy="201.5" r="4" fill="#dc2626" stroke="#fff" stroke-width="2"/>
    <text x="478.6" y="193.5" text-anchor="middle" font-size="10" fill="#374151">광운대</text>
    <circle cx="460.5" cy="153.6" r="4" fill="#dc2626" stroke="#fff" stroke-width="2"/>
    <text x="460.5" y="145.6" text-anchor="middle" font-size="10" fill="#374151">창동</text>
    <circle cx="455.7" cy="128.6" r="4" fill="#dc2626" stroke="#fff" stroke-width="2"/>
    <text x="455.7" y="120.6" text-anchor="middle" font-size="10" fill="#374151">방학</text>
    <circle cx="459.8" cy="58.1" r="4" fill="#dc2626" stroke="#fff" stroke-width="2"/>
    <text x="459.8" y="50.1" text-anchor="middle" font-size="10" fill="#374151">망월사</text>
    <circle cx="194.5" cy="415.7" r="4" fill="#dc2626" stroke="#fff" stroke-width="2"/>
    <text x="194.5" y="407.7" text-anchor="middle" font-size="10" fill="#374151">오류동</text>
    <circle cx="213.0" cy="415.3" r="4" fill="#dc2626" stroke="#fff" stroke-width="2"/>
    <text x="213.0" y="407.3" text-anchor="middle" font-size="10" fill="#374151">개봉</text>
    <circle cx="227.4" cy="412.7" r="4" fill="#dc2626" stroke="#fff" stroke-width="2"/>
    <text x="227.4" y="404.7" text-anchor="middle" font-size="10" fill="#374151">구일</text>
    <circle cx="89.1" cy="428.3" r="4" fill="#dc2626" stroke="#fff" stroke-width="2"/>
    <text x="89.1" y="420.3" text-anchor="middle" font-size="10" fill="#374151">중동</text>
    <circle cx="74.6" cy="426.7" r="4" fill="#dc2626" stroke="#fff" stroke-width="2"/>
    <text x="74.6" y="418.7" text-anchor="middle" font-size="10" fill="#374151">송내</text>
    <circle cx="130.4" cy="434.9" r="4" fill="#dc2626" stroke="#fff" stroke-width="2"/>
    <text x="130.4" y="426.9" text-anchor="middle" font-size="10" fill="#374151">소사</text>
    <circle cx="113.6" cy="432.7" r="4" fill="#dc2626" stroke="#fff" stroke-width="2"/>
    <text x="113.6" y="424.7" text-anchor="middle" font-size="10" fill="#374151">부천</text>
    <circle cx="393.8" cy="517.2" r="4" fill="#dc2626" stroke="#fff" stroke-width="2"/>
    <text x="393.8" y="509.2" text-anchor="middle" font-size="10" fill="#374151">과천</text>
    <circle cx="408.1" cy="499.5" r="4" fill="#dc2626" stroke="#fff" stroke-width="2"/>
    <text x="408.1" y="491.5" text-anchor="middle" font-size="10" fill="#374151">경마공원</text>
    <circle cx="508.1" cy="433.4" r="4" fill="#dc2626" stroke="#fff" stroke-width="2"/>
    <text x="508.1" y="425.4" text-anchor="middle" font-size="10" fill="#374151">일원</text>
    <circle cx="538.9" cy="229.8" r="4" fill="#dc2626" stroke="#fff" stroke-width="2"/>
    <text x="538.9" y="221.8" text-anchor="middle" font-size="10" fill="#374151">양원</text>
    <circle cx="585.3" cy="235.3" r="4" fill="#dc2626" stroke="#fff" stroke-width="2"/>
    <text x="585.3" y="227.3" text-anchor="middle" font-size="10" fill="#374151">구리</text>
    <circle cx="96.3" cy="104.5" r="4" fill="#dc2626" stroke="#fff" stroke-width="2"/>
    <text x="96.3" y="96.5" text-anchor="middle" font-size="10" fill="#374151">일산</text>
    <circle cx="261.2" cy="272.6" r="4" fill="#dc2626" stroke="#fff" stroke-width="2"/>
    <text x="261.2" y="264.6" text-anchor="middle" font-size="10" fill="#374151">수색</text>
    <circle cx="497.6" cy="249.1" r="4" fill="#dc2626" stroke="#fff" stroke-width="2"/>
    <text x="497.6" y="241.1" text-anchor="middle" font-size="10" fill="#374151">중랑</text>
    <circle cx="517.9" cy="241.3" r="4" fill="#dc2626" stroke="#fff" stroke-width="2"/>
    <text x="517.9" y="233.3" text-anchor="middle" font-size="10" fill="#374151">망우</text>
    <circle cx="290.5" cy="360.0" r="4" fill="#dc2626" stroke="#fff" stroke-width="2"/>
    <text x="290.5" y="352.0" text-anchor="middle" font-size="10" fill="#374151">국회의사당</text>
    <circle cx="337.0" cy="384.9" r="4" fill="#dc2626" stroke="#fff" stroke-width="2"/>
    <text x="337.0" y="376.9" text-anchor="middle" font-size="10" fill="#374151">노들</text>
    <circle cx="430.0" cy="280.4" r="4" fill="#dc2626" stroke="#fff" stroke-width="2"/>
    <text x="430.0" y="272.4" text-anchor="middle" font-size="10" fill="#374151">신설동</text>
    <circle cx="225.7" cy="236.1" r="4" fill="#dc2626" stroke="#fff" stroke-width="2"/>
    <text x="225.7" y="228.1" text-anchor="middle" font-size="10" fill="#374151">한국항공대</text>
    <circle cx="138.6" cy="164.9" r="4" fill="#dc2626" stroke="#fff" stroke-width="2"/>
    <text x="138.6" y="156.9" text-anchor="middle" font-size="10" fill="#374151">곡산</text>
    <circle cx="129.0" cy="144.1" r="4" fill="#dc2626" stroke="#fff" stroke-width="2"/>
    <text x="129.0" y="136.1" text-anchor="middle" font-size="10" fill="#374151">백마</text>
    <circle cx="118.2" cy="120.9" r="4" fill="#dc2626" stroke="#fff" stroke-width="2"/>
    <text x="118.2" y="112.9" text-anchor="middle" font-size="10" fill="#374151">풍산</text>
    <circle cx="464.3" cy="303.5" r="4" fill="#dc2626" stroke="#fff" stroke-width="2"/>
    <text x="464.3" y="295.5" text-anchor="middle" font-size="10" fill="#374151">용답</text>
    <circle cx="322.4" cy="307.3" r="4" fill="#dc2626" stroke="#fff" stroke-width="2"/>
    <text x="322.4" y="299.3" text-anchor="middle" font-size="10" fill="#374151">신촌</text>
    <circle cx="531.0" cy="427.2" r="4" fill="#dc2626" stroke="#fff" stroke-width="2"/>
    <text x="531.0" y="419.2" text-anchor="middle" font-size="10" fill="#374151">수서</text>
    <circle cx="629.1" cy="156.1" r="4" fill="#dc2626" stroke="#fff" stroke-width="2"/>
    <text x="629.1" y="148.1" text-anchor="middle" font-size="10" fill="#374151">사릉</text>
    <circle cx="52.3" cy="287.9" r="4" fill="#dc2626" stroke="#fff" stroke-width="2"/>
    <text x="52.3" y="279.9" text-anchor="middle" font-size="10" fill="#374151">계양</text>
    <circle cx="52.9" cy="287.5" r="4" fill="#dc2626" stroke="#fff" stroke-width="2"/>
    <text x="52.9" y="279.5" text-anchor="middle" font-size="10" fill="#374151">계양</text>
    <circle cx="61.2" cy="296.5" r="4" fill="#dc2626" stroke="#fff" stroke-width="2"/>
    <text x="61.2" y="288.5" text-anchor="middle" font-size="10" fill="#374151">귤현</text>
    <circle cx="58.5" cy="425.4" r="4" fill="#dc2626" stroke="#fff" stroke-width="2"/>
    <text x="58.5" y="417.4" text-anchor="middle" font-size="10" fill="#374151">부개</text>
    <circle cx="349.3" cy="308.0" r="4" fill="#dc2626" stroke="#fff" stroke-width="2"/>
    <text x="349.3" y="300.0" text-anchor="middle" font-size="10" fill="#374151">충정로</text>
    <circle cx="75.0" cy="396.7" r="4" fill="#dc2626" stroke="#fff" stroke-width="2"/>
    <text x="75.0" y="388.7" text-anchor="middle" font-size="10" fill="#374151">상동</text>
    <circle cx="313.0" cy="319.6" r="4" fill="#dc2626" stroke="#fff" stroke-width="2"/>
    <text x="313.0" y="311.6" text-anchor="middle" font-size="10" fill="#374151">서강대</text>
    <circle cx="400.4" cy="288.8" r="4" fill="#dc2626" stroke="#fff" stroke-width="2"/>
    <text x="400.4" y="280.8" text-anchor="middle" font-size="10" fill="#374151">종로5가</text>
    <circle cx="404.3" cy="398.0" r="4" fill="#dc2626" stroke="#fff" stroke-width="2"/>
    <text x="404.3" y="390.0" text-anchor="middle" font-size="10" fill="#374151">고속터미널</text>
    <circle cx="476.6" cy="382.9" r="4" fill="#dc2626" stroke="#fff" stroke-width="2"/>
    <text x="476.6" y="374.9" text-anchor="middle" font-size="10" fill="#374151">봉은사</text>
    <circle cx="442.1" cy="394.2" r="4" fill="#dc2626" stroke="#fff" stroke-width="2"/>
    <text x="442.1" y="386.2" text-anchor="middle" font-size="10" fill="#374151">언주</text>
    <circle cx="467.7" cy="384.7" r="4" fill="#dc2626" stroke="#fff" stroke-width="2"/>
    <text x="467.7" y="376.7" text-anchor="middle" font-size="10" fill="#374151">삼성중앙</text>
    <circle cx="417.6" cy="399.3" r="4" fill="#dc2626" stroke="#fff" stroke-width="2"/>
    <text x="417.6" y="391.3" text-anchor="middle" font-size="10" fill="#374151">사평</text>
    <circle cx="455.1" cy="389.4" r="4" fill="#dc2626" stroke="#fff" stroke-width="2"/>
    <text x="455.1" y="381.4" text-anchor="middle" font-size="10" fill="#374151">선정릉</text>
    <circle cx="429.9" cy="399.2" r="4" fill="#dc2626" stroke="#fff" stroke-width="2"/>
    <text x="429.9" y="391.2" text-anchor="middle" font-size="10" fill="#374151">신논현</text>
    <circle cx="481.1" cy="246.8" r="4" fill="#dc2626" stroke="#fff" stroke-width="2"/>
    <text x="481.1" y="238.8" text-anchor="middle" font-size="10" fill="#374151">외대앞</text>
    <circle cx="380.5" cy="404.2" r="4" fill="#dc2626" stroke="#fff" stroke-width="2"/>
    <text x="380.5" y="396.2" text-anchor="middle" font-size="10" fill="#374151">구반포</text>
    <circle cx="350.6" cy="392.5" r="4" fill="#dc2626" stroke="#fff" stroke-width="2"/>
    <text x="350.6" y="384.5" text-anchor="middle" font-size="10" fill="#374151">흑석</text>
    <circle cx="393.1" cy="400.4" r="4" fill="#dc2626" stroke="#fff" stroke-width="2"/>
    <text x="393.1" y="392.4" text-anchor="middle" font-size="10" fill="#374151">신반포</text>
    <circle cx="85.9" cy="53.6" r="4" fill="#dc2626" stroke="#fff" stroke-width="2"/>
    <text x="85.9" y="45.6" text-anchor="middle" font-size="10" fill="#374151">야당</text>
    <circle cx="167.0" cy="419.1" r="4" fill="#dc2626" stroke="#fff" stroke-width="2"/>
    <text x="167.0" y="411.1" text-anchor="middle" font-size="10" fill="#374151">온수</text>
    <circle cx="448.2" cy="304.5" r="4" fill="#dc2626" stroke="#fff" stroke-width="2"/>
    <text x="448.2" y="296.5" text-anchor="middle" font-size="10" fill="#374151">왕십리</text>
    <circle cx="443.2" cy="323.1" r="4" fill="#dc2626" stroke="#fff" stroke-width="2"/>
    <text x="443.2" y="315.1" text-anchor="middle" font-size="10" fill="#374151">응봉</text>
    <circle cx="457.3" cy="109.5" r="4" fill="#dc2626" stroke="#fff" stroke-width="2"/>
    <text x="457.3" y="101.5" text-anchor="middle" font-size="10" fill="#374151">도봉</text>
    <circle cx="382.5" cy="373.9" r="4" fill="#dc2626" stroke="#fff" stroke-width="2"/>
    <text x="382.5" y="365.9" text-anchor="middle" font-size="10" fill="#374151">서빙고</text>
    <circle cx="442.4" cy="432.2" r="4" fill="#dc2626" stroke="#fff" stroke-width="2"/>
    <text x="442.4" y="424.2" text-anchor="middle" font-size="10" fill="#374151">양재</text>
    <circle cx="362.9" cy="369.2" r="4" fill="#dc2626" stroke="#fff" stroke-width="2"/>
    <text x="362.9" y="361.2" text-anchor="middle" font-size="10" fill="#374151">이촌</text>
    <circle cx="664.1" cy="320.3" r="4" fill="#dc2626" stroke="#fff" stroke-width="2"/>
    <text x="664.1" y="312.3" text-anchor="middle" font-size="10" fill="#374151">하남풍산</text>
    <circle cx="668.1" cy="337.2" r="4" fill="#dc2626" stroke="#fff" stroke-width="2"/>
    <text x="668.1" y="329.2" text-anchor="middle" font-size="10" fill="#374151">하남시청</text>
    <circle cx="690.1" cy="340.6" r="4" fill="#dc2626" stroke="#fff" stroke-width="2"/>
    <text x="690.1" y="332.6" text-anchor="middle" font-size="10" fill="#374151">하남검단산</text>
    <circle cx="563.5" cy="455.1" r="4" fill="#dc2626" stroke="#fff" stroke-width="2"/>
    <text x="563.5" y="447.1" text-anchor="middle" font-size="10" fill="#374151">복정</text>
    <circle cx="85.2" cy="84.8" r="4" fill="#dc2626" stroke="#fff" stroke-width="2"/>
    <text x="85.2" y="76.8" text-anchor="middle" font-size="10" fill="#374151">탄현</text>
    <circle cx="180.7" cy="220.8" r="4" fill="#dc2626" stroke="#fff" stroke-width="2"/>
    <text x="180.7" y="212.8" text-anchor="middle" font-size="10" fill="#374151">행신</text>
    <circle cx="270.0" cy="513.8" r="4" fill="#dc2626" stroke="#fff" stroke-width="2"/>
    <text x="270.0" y="505.8" text-anchor="middle" font-size="10" fill="#374151">석수</text>
    <circle cx="253.2" cy="462.6" r="4" fill="#dc2626" stroke="#fff" stroke-width="2"/>
    <text x="253.2" y="454.6" text-anchor="middle" font-size="10" fill="#374151">독산</text>
    <circle cx="608.6" cy="226.2" r="4" fill="#dc2626" stroke="#fff" stroke-width="2"/>
    <text x="608.6" y="218.2" text-anchor="middle" font-size="10" fill="#374151">도농</text>
    <circle cx="652.3" cy="234.1" r="4" fill="#dc2626" stroke="#fff" stroke-width="2"/>
    <text x="652.3" y="226.1" text-anchor="middle" font-size="10" fill="#374151">양정</text>
    <circle cx="670.9" cy="262.4" r="4" fill="#dc2626" stroke="#fff" stroke-width="2"/>
    <text x="670.9" y="254.4" text-anchor="middle" font-size="10" fill="#374151">덕소</text>
    <circle cx="689.0" cy="274.5" r="4" fill="#dc2626" stroke="#fff" stroke-width="2"/>
    <text x="689.0" y="266.5" text-anchor="middle" font-size="10" fill="#374151">도심</text>
    <circle cx="716.6" cy="327.7" r="4" fill="#dc2626" stroke="#fff" stroke-width="2"/>
    <text x="716.6" y="319.7" text-anchor="middle" font-size="10" fill="#374151">팔당</text>
    <circle cx="532.8" cy="219.8" r="4" fill="#dc2626" stroke="#fff" stroke-width="2"/>
    <text x="532.8" y="211.8" text-anchor="middle" font-size="10" fill="#374151">신내</text>
    <circle cx="259.0" cy="479.6" r="4" fill="#dc2626" stroke="#fff" stroke-width="2"/>
    <text x="259.0" y="471.6" text-anchor="middle" font-size="10" fill="#374151">금천구청</text>
    <circle cx="194.4" cy="220.4" r="4" fill="#dc2626" stroke="#fff" stroke-width="2"/>
    <text x="194.4" y="212.4" text-anchor="middle" font-size="10" fill="#374151">강매</text>
    <circle cx="163.0" cy="209.3" r="4" fill="#dc2626" stroke="#fff" stroke-width="2"/>
    <text x="163.0" y="201.3" text-anchor="middle" font-size="10" fill="#374151">능곡</text>
    <circle cx="577.5" cy="311.9" r="4" fill="#dc2626" stroke="#fff" stroke-width="2"/>
    <text x="577.5" y="303.9" text-anchor="middle" font-size="10" fill="#374151">암사역사공원</text>
    <circle cx="423.1" cy="265.1" r="4" fill="#dc2626" stroke="#fff" stroke-width="2"/>
    <text x="423.1" y="257.1" text-anchor="middle" font-size="10" fill="#374151">보문</text>
    <circle cx="369.3" cy="401.4" r="4" fill="#dc2626" stroke="#fff" stroke-width="2"/>
    <text x="369.3" y="393.4" text-anchor="middle" font-size="10" fill="#374151">동작</text>
    <circle cx="470.3" cy="421.4" r="4" fill="#dc2626" stroke="#fff" stroke-width="2"/>
    <text x="470.3" y="413.4" text-anchor="middle" font-size="10" fill="#374151">도곡</text>
    <circle cx="138.0" cy="303.8" r="4" fill="#dc2626" stroke="#fff" stroke-width="2"/>
    <text x="138.0" y="295.8" text-anchor="middle" font-size="10" fill="#374151">김포공항</text>
    <circle cx="408.4" cy="298.3" r="4" fill="#dc2626" stroke="#fff" stroke-width="2"/>
    <text x="408.4" y="290.3" text-anchor="middle" font-size="10" fill="#374151">동대문역사문화공원</text>
    <circle cx="244.1" cy="400.7" r="4" fill="#dc2626" stroke="#fff" stroke-width="2"/>
    <text x="244.1" y="392.7" text-anchor="middle" font-size="10" fill="#374151">구로</text>
    <circle cx="379.7" cy="279.1" r="4" fill="#dc2626" stroke="#fff" stroke-width="2"/>
    <text x="379.7" y="271.1" text-anchor="middle" font-size="10" fill="#374151">안국</text>
    <circle cx="627.7" cy="311.2" r="4" fill="#dc2626" stroke="#fff" stroke-width="2"/>
    <text x="627.7" y="303.2" text-anchor="middle" font-size="10" fill="#374151">강일</text>
    <circle cx="559.2" cy="342.6" r="4" fill="#dc2626" stroke="#fff" stroke-width="2"/>
    <text x="559.2" y="334.6" text-anchor="middle" font-size="10" fill="#374151">천호</text>
    <circle cx="412.8" cy="287.3" r="4" fill="#dc2626" stroke="#fff" stroke-width="2"/>
    <text x="412.8" y="279.3" text-anchor="middle" font-size="10" fill="#374151">동대문</text>
    <circle cx="363.6" cy="347.6" r="4" fill="#dc2626" stroke="#fff" stroke-width="2"/>
    <text x="363.6" y="339.6" text-anchor="middle" font-size="10" fill="#374151">삼각지</text>
    <circle cx="458.0" cy="91.9" r="4" fill="#dc2626" stroke="#fff" stroke-width="2"/>
    <text x="458.0" y="83.9" text-anchor="middle" font-size="10" fill="#374151">도봉산</text>
    <circle cx="458.7" cy="93.0" r="4" fill="#dc2626" stroke="#fff" stroke-width="2"/>
    <text x="458.7" y="85.0" text-anchor="middle" font-size="10" fill="#374151">도봉산</text>
    <circle cx="276.1" cy="380.9" r="4" fill="#dc2626" stroke="#fff" stroke-width="2"/>
    <text x="276.1" y="372.9" text-anchor="middle" font-size="10" fill="#374151">영등포</text>
    <circle cx="322.0" cy="382.8" r="4" fill="#dc2626" stroke="#fff" stroke-width="2"/>
    <text x="322.0" y="374.8" text-anchor="middle" font-size="10" fill="#374151">노량진</text>
    <circle cx="375.8" cy="290.1" r="4" fill="#dc2626" stroke="#fff" stroke-width="2"/>
    <text x="375.8" y="282.1" text-anchor="middle" font-size="10" fill="#374151">종각</text>
    <circle cx="490.5" cy="339.4" r="4" fill="#dc2626" stroke="#fff" stroke-width="2"/>
    <text x="490.5" y="331.4" text-anchor="middle" font-size="10" fill="#374151">건대입구</text>
  </g>
</svg>