<?xml version="1.0" encoding="UTF-8"?>
<svg width="800" height="600" viewBox="0 0 800 600" 
     xmlns="http://www.w3.org/2000/svg">
  <title>Shanghai Subway Map</title>
  <rect width="100%" height="100%" fill="#f8f9fa"/>

  <!-- 지하철 선로 -->
  <g id="subway-lines" stroke="#2563eb" stroke-width="3" fill="none">
    <polyline points="372.0,204.3 371.7,203.4" opacity="0.8"/>
    <polyline points="515.1,62.8 515.1,63.6 515.0,66.7" opacity="0.8"/>
    <polyline points="275.1,463.3 271.2,464.5 269.5,465.0 265.3,466.2 264.4,466.5 263.5,466.7 262.5,466.8 259.4,467.3 258.0,467.5 256.6,467.9 255.4,468.1 254.2,468.5 253.0,468.9 246.8,471.2 245.2,471.8 243.9,472.4 243.0,472.8 241.9,473.4 238.8,475.3 234.6,477.8 230.0,480.6" opacity="0.8"/>
    <polyline points="379.5,181.1 379.4,181.7 379.1,182.4 378.2,184.7 378.0,185.3 377.7,185.9 377.4,186.4 377.0,187.1 373.4,192.9 373.1,193.4 372.8,193.9 372.5,194.5 372.2,195.0 372.0,195.7 371.8,196.3 371.6,196.9 371.5,197.6 371.3,198.2 371.3,198.8 371.2,199.7" opacity="0.8"/>
    <polyline points="470.7,133.9 470.6,133.3 470.3,132.5 470.0,131.9 468.7,129.6 467.3,127.6 466.1,125.9 461.9,120.0 459.6,116.7 458.3,114.9 454.7,109.6 452.7,106.6 452.0,105.6 450.8,103.8 449.8,102.3 449.1,101.2 448.6,100.4 448.3,99.6 448.0,99.1 447.8,98.5 447.7,97.9 447.5,97.3 447.3,96.3 447.2,95.3 447.2,94.2 447.2,92.2 447.2,89.3 447.1,86.7 446.8,84.2 446.7,80.6 446.7,79.4 446.7,77.7 446.7,75.8 446.7,74.3 446.6,73.0 446.6,71.8 446.6,71.4 446.6,70.9 446.4,70.1 446.4,70.0 446.4,69.9 446.4,69.5 446.4,69.1 446.6,68.0 446.6,67.6 446.6,67.1 446.7,66.0" opacity="0.8"/>
    <polyline points="371.3,199.7 371.4,198.8 371.5,198.2 371.6,197.6 371.7,197.0 371.9,196.3 372.1,195.7 372.3,195.1 372.6,194.5 372.9,193.9 373.2,193.4 373.5,192.9 377.1,187.2 377.5,186.4 377.8,185.9 378.1,185.3 378.3,184.7 379.2,182.4 379.4,181.7 379.7,181.1" opacity="0.8"/>
    <polyline points="290.3,243.9 308.1,249.8 315.0,252.1 316.3,252.6 317.4,252.9 318.0,253.1 323.0,254.7 324.2,255.1 325.2,255.5 328.8,256.7 330.0,257.0 334.3,258.2 335.0,258.4" opacity="0.8"/>
    <polyline points="379.7,181.1 379.8,180.4 380.0,179.9 380.2,178.3 380.3,176.7 380.3,176.4 380.5,174.2 380.5,173.6 380.6,173.0 381.6,163.4 381.7,162.8 381.8,162.0 382.5,157.6 382.6,156.9 383.2,153.9 383.3,153.3 383.4,152.7 383.5,152.0 383.8,148.9 383.9,148.3 384.0,147.7 384.2,147.1 384.7,145.2 384.9,144.4 385.0,143.8 385.5,140.2 385.5,139.5 385.6,138.9 385.9,133.3 385.9,132.7 386.0,132.1 386.0,131.5 387.2,123.8 387.4,121.9 387.5,120.4 387.5,119.9 387.5,119.2 387.4,103.4 387.4,102.9 387.4,102.3 387.3,101.8 387.0,98.5 387.0,98.0 387.0,97.5 387.0,87.0 386.9,84.1 387.0,83.7 387.0,83.2 387.1,82.5 387.2,82.1 387.3,81.7 387.5,81.3 387.7,80.8 387.9,80.4 388.1,80.0 388.3,79.6 388.6,79.2 389.1,78.7 389.5,78.1 399.9,66.5 400.5,65.7 402.5,63.2 402.9,62.8 403.5,62.2 406.0,59.4 406.6,58.7 407.4,57.7 407.7,57.4 408.4,56.7 412.5,52.2 413.3,51.3 415.0,49.4 417.0,47.5 418.0,46.4 420.6,42.8 424.5,37.1 428.1,31.7 430.1,28.8 431.5,26.8 432.3,25.6 433.1,23.6 433.4,22.2 433.6,20.6 433.6,19.5 433.2,17.5 432.5,15.6 431.0,12.7 431.0,12.6" opacity="0.8"/>
    <polyline points="667.0,208.9 666.7,211.5 666.6,212.5 666.2,214.2" opacity="0.8"/>
    <polyline points="667.1,208.9 667.2,207.1 667.4,205.2 668.0,198.4 668.3,194.6 668.5,192.7 668.7,190.8 669.1,183.3 669.1,182.6 669.3,180.9 669.3,180.2 669.4,178.4 669.4,178.0 669.6,173.4 669.7,172.4 669.7,171.5 669.6,170.7 669.6,169.8 670.3,155.1 671.6,127.6 671.7,127.0 671.8,124.6 671.9,122.3 671.9,105.1 671.9,103.7 671.9,103.1 672.0,102.5 672.2,101.9 672.4,101.3 672.8,100.7 673.1,100.2 673.6,99.7 674.1,99.2 674.7,98.7 675.3,98.3 676.0,98.0 676.8,97.7 677.5,97.4 678.3,97.2 679.2,97.0 680.0,97.0 680.9,96.9 681.7,96.9 697.7,96.8 698.5,96.8 699.3,96.8 700.1,96.7 701.0,96.6 701.8,96.3 702.6,96.1 703.3,95.8 704.0,95.5 704.8,95.1 705.4,94.7 706.0,94.2 706.5,93.7 706.9,93.1 707.3,92.6 707.7,92.0 707.9,91.4 708.1,90.8 708.2,90.3 708.3,89.6 708.3,89.0 708.2,88.4 708.1,87.9 707.9,87.3 707.6,86.8 707.3,86.2 705.4,83.5 683.8,51.7 666.3,25.9 665.8,25.1 665.4,24.3 665.0,23.6 664.7,22.8 664.4,22.1 664.2,21.1 662.6,15.1 662.4,14.5 662.1,13.9 661.7,13.4 661.3,12.8 660.8,12.3 660.2,11.8 659.6,11.4 658.9,11.0 658.1,10.7 657.3,10.5 656.5,10.2 655.7,10.1 654.8,10.0 654.1,10.0 653.3,10.0 652.6,10.0 651.8,10.1 630.4,11.6" opacity="0.8"/>
    <polyline points="294.6,161.9 294.4,161.3 293.1,155.5 292.8,154.3 292.6,153.4" opacity="0.8"/>
    <polyline points="216.0,381.2 219.2,385.1" opacity="0.8"/>
    <polyline points="216.4,381.1 216.0,380.6 215.7,380.1 215.3,379.5 214.9,378.9 214.7,378.3" opacity="0.8"/>
    <polyline points="219.7,385.2 216.4,381.1" opacity="0.8"/>
    <polyline points="389.4,234.2 392.4,232.4 392.9,232.1 393.5,231.8 394.1,231.5 394.3,231.3 396.0,230.7 396.5,230.6 397.5,230.4 398.1,230.3 400.3,229.9 403.3,229.3 409.9,228.1 411.2,227.9 412.7,227.7 418.7,227.0 420.4,226.8 424.7,226.2 426.3,225.9 429.9,225.3 435.1,224.5 435.6,224.4 441.4,223.5 442.5,223.4 443.6,223.3 445.2,223.3 446.7,223.4 448.1,223.6 453.2,224.9 454.6,225.4 456.0,225.9 457.1,226.5 458.1,227.2 458.9,227.8 464.4,233.2 465.3,234.0 467.2,236.0 468.7,237.9 471.2,241.1 473.2,244.2 474.8,246.7 476.8,250.0 477.2,250.9 477.6,252.8 478.1,254.9 478.2,255.5 480.2,266.9 480.4,268.9 480.4,270.1 480.5,271.5 480.7,272.6 480.9,273.7 481.1,274.4 481.2,274.9 481.8,276.0 482.6,277.4 484.5,279.8 485.9,281.6 487.5,283.8 491.0,289.7 492.1,291.5 493.8,293.8 494.8,294.8 496.5,296.2 498.6,297.4 502.0,299.2 503.1,299.7 504.1,300.2 508.0,302.1 508.9,302.6 509.4,303.0 510.3,304.0 510.9,304.8 511.5,305.7 512.1,306.9 514.2,310.9 515.9,314.5 516.4,316.2 516.3,317.3 516.1,318.2 513.5,324.3 507.7,334.2 505.0,338.6 501.5,344.2 499.4,346.2 497.3,347.4 495.7,347.7 492.9,347.7 487.1,346.6 485.6,346.1 484.4,345.6 479.1,343.2 476.8,342.3 475.9,342.0 474.8,341.6 473.0,341.2 468.0,339.9 466.1,339.3 464.3,338.5 456.4,335.3 454.4,334.6 452.5,334.2 450.9,334.2 449.2,334.4 447.9,334.8 446.7,335.3 445.7,335.8 440.5,339.5 438.8,340.7 437.3,341.7 435.9,342.5 433.9,343.3 431.1,344.6 426.7,346.7 424.4,347.8 421.3,349.6 407.1,358.3 401.1,362.0 399.7,362.5 398.2,362.8 393.8,363.8 386.5,363.9 380.5,364.7 367.3,367.0 360.3,368.3 354.4,369.4 343.8,372.3 338.3,375.1 334.3,377.2 329.2,379.9 328.8,380.1 319.5,383.3 304.6,388.1 296.2,390.9 287.1,394.0 283.8,394.9 278.8,397.0 274.5,400.1 273.1,401.1 270.6,402.1 270.0,402.4 268.8,403.1 268.2,403.4 267.6,403.7 266.5,404.0 264.6,404.5 262.3,405.2 260.1,405.7 258.8,406.0 257.6,406.2" opacity="0.8"/>
    <polyline points="212.7,374.0 213.2,375.5 214.2,378.4" opacity="0.8"/>
    <polyline points="335.1,258.4 334.3,258.2 333.4,257.9 331.7,257.5 330.0,257.0 328.9,256.6 325.2,255.4 324.2,255.1 323.0,254.7 320.1,253.7 319.1,253.3 318.4,253.0 317.8,252.8 317.0,252.5 316.3,252.2 310.6,250.4 310.3,250.3 309.7,250.1 308.9,249.9 307.9,249.6 297.3,246.0 296.3,245.7 293.7,244.9 292.8,244.6 290.4,243.8" opacity="0.8"/>
    <polyline points="212.7,374.0 214.4,378.4 214.7,379.0 215.0,379.6 215.4,380.2 215.8,380.7 216.2,381.1 226.3,393.8 226.7,394.3 228.1,395.8 228.1,395.9 230.7,398.9 231.5,399.7 232.0,400.4 232.8,401.1 233.2,401.6 233.8,402.1 234.3,402.6 234.8,403.0 247.1,412.5 248.2,413.3 249.0,413.9 249.9,414.5 250.9,415.1 256.1,418.3 256.7,418.6 257.4,419.0 261.8,421.5 267.3,424.6 268.0,425.0 268.6,425.4 269.1,425.8 269.8,426.3 270.3,426.8 270.9,427.3 271.3,427.7 271.8,428.2 272.3,428.8 272.7,429.4 273.0,429.9 273.4,430.5 274.7,432.8 274.9,433.4 275.2,434.0 276.8,438.8 277.5,440.5 277.7,441.1 277.9,441.8 278.0,442.4 278.3,443.8 278.5,444.9 278.6,445.4 278.8,446.0 278.9,446.5 279.1,447.0 279.4,447.5 279.7,448.2 280.8,449.9 281.9,451.6 282.2,452.2 282.5,452.7 282.7,453.2 282.8,453.7 282.9,454.4 283.0,454.9 283.0,455.6 283.0,456.2 282.9,456.8 282.7,457.5 282.4,458.1 282.0,458.7 281.7,459.3 281.3,459.8 280.8,460.3 280.2,460.8 279.6,461.3 279.0,461.7 278.3,462.1 277.6,462.4 276.9,462.7 276.1,463.0 275.1,463.3" opacity="0.8"/>
    <polyline points="388.8,234.5 383.0,238.2 382.1,238.8 381.5,239.1 381.1,239.3 380.4,239.6 379.7,239.8 379.2,240.0 379.0,240.1 378.3,240.2 377.5,240.4" opacity="0.8"/>
    <polyline points="367.2,245.4 369.5,244.5 370.4,244.1 371.2,243.8 372.7,243.0 373.4,242.7 374.5,242.3 375.5,241.8 378.1,240.9 379.0,240.4 380.0,240.0 380.7,239.6 381.2,239.4 381.6,239.1 382.2,238.8 388.8,234.6" opacity="0.8"/>
    <polyline points="335.0,258.4 335.9,258.5 336.8,258.6 337.6,258.7 338.5,258.7 339.3,258.6 340.2,258.5 341.0,258.4 341.9,258.3 342.7,258.1 343.5,257.9 344.2,257.6 345.0,257.3 347.0,256.4 348.3,255.8 349.0,255.5 349.7,255.1 350.3,254.7 350.9,254.3 352.6,252.9 353.1,252.4 353.7,251.9 354.3,251.5 354.9,251.3 355.4,251.0 365.2,246.3 367.2,245.4" opacity="0.8"/>
    <polyline points="619.4,358.7 620.2,358.7 621.1,358.8 621.9,358.9 622.8,359.0 623.7,359.1 624.7,359.4 641.2,363.6 642.2,363.8 642.9,363.9 643.7,364.1 644.7,364.2 645.7,364.3 646.5,364.3 647.3,364.3 648.2,364.3 648.9,364.3 649.6,364.2 652.6,363.9 655.5,363.5 658.9,363.1 665.7,362.4" opacity="0.8"/>
    <polyline points="619.4,358.6 620.2,358.6 621.1,358.7 621.9,358.8 622.8,358.9 623.7,359.1 624.7,359.3 629.9,360.6 641.2,363.5 642.2,363.7 643.0,363.9 643.8,364.0 644.8,364.1 645.7,364.2 646.5,364.2 647.3,364.3 648.2,364.2 648.9,364.2 649.6,364.1 653.4,363.7 654.7,363.5 665.7,362.3" opacity="0.8"/>
    <polyline points="629.3,359.6 626.8,358.9 625.9,358.7 625.0,358.5 624.3,358.4 623.6,358.3 622.9,358.2 622.3,358.2" opacity="0.8"/>
    <polyline points="515.0,66.7 515.0,68.0 515.2,69.4 515.2,70.1 515.3,70.7 515.3,77.2 515.3,81.9" opacity="0.8"/>
    <polyline points="610.4,357.1 611.6,356.9 612.5,356.8 614.3,356.6 615.5,356.4 615.9,356.4 622.7,355.5" opacity="0.8"/>
    <polyline points="600.3,359.1 602.4,359.1 603.2,359.1 603.9,358.9 605.4,358.6" opacity="0.8"/>
    <polyline points="613.2,358.1 613.8,358.1 614.4,358.2 615.2,358.2 616.0,358.2 621.2,357.5 623.0,357.3" opacity="0.8"/>
    <polyline points="613.5,356.4 615.5,356.1 615.8,356.1 627.1,354.7" opacity="0.8"/>
    <polyline points="611.5,356.7 612.8,356.2 613.6,356.0 614.0,355.8 614.6,355.6 615.2,355.5 615.7,355.4 626.9,354.0" opacity="0.8"/>
    <polyline points="613.0,355.8 613.7,355.5 614.4,355.2 615.1,355.0 615.6,355.0 626.8,353.6" opacity="0.8"/>
    <polyline points="613.2,357.8 613.9,358.0 614.4,358.0 615.1,358.0 615.7,358.0 621.3,357.2 625.0,356.8 625.1,356.8 626.0,356.6" opacity="0.8"/>
    <polyline points="609.4,357.4 611.1,357.2 612.2,357.1 612.8,357.1" opacity="0.8"/>
    <polyline points="600.3,359.2 602.4,359.2 603.2,359.2 604.6,358.8" opacity="0.8"/>
    <polyline points="609.5,357.5 610.4,357.5 611.0,357.5 611.6,357.5 613.2,357.8 613.9,357.9 614.4,357.9 615.1,357.8 621.2,357.1 625.0,356.6 625.0,356.6 626.3,356.4" opacity="0.8"/>
    <polyline points="612.2,356.7 615.5,356.3 615.9,356.2 621.7,355.5" opacity="0.8"/>
    <polyline points="600.2,359.3 602.4,359.3 603.2,359.2 604.0,359.1 604.6,358.8 605.4,358.6 606.2,358.2 606.9,358.0 607.8,357.7" opacity="0.8"/>
    <polyline points="610.6,356.9 611.1,356.7 611.5,356.6 612.0,356.3 613.0,355.8 613.8,355.6 615.2,355.3 615.6,355.2 626.9,353.8" opacity="0.8"/>
    <polyline points="610.4,357.5 610.9,357.5 611.5,357.7 612.5,358.0 613.3,358.2 613.7,358.3 614.4,358.4 615.2,358.5 615.4,358.4 616.1,358.4 622.0,357.7 622.4,357.6 623.7,357.6" opacity="0.8"/>
    <polyline points="608.4,357.6 609.5,357.5 610.4,357.4 611.3,357.4 612.8,357.3" opacity="0.8"/>
    <polyline points="612.8,356.2 613.5,355.9 613.9,355.7 614.5,355.5 615.2,355.4 615.7,355.3 626.9,353.9" opacity="0.8"/>
    <polyline points="612.5,356.8 613.5,356.8 615.5,356.7 616.0,356.7 622.7,355.8" opacity="0.8"/>
    <polyline points="613.5,356.8 614.8,356.9 615.2,356.9 615.6,356.9 616.0,356.8 622.8,356.0" opacity="0.8"/>
    <polyline points="598.7,358.7 601.0,358.7 602.0,358.7 603.0,358.6 604.0,358.5 608.4,357.4 609.6,357.1 610.6,356.9 611.5,356.7 615.3,355.8 615.8,355.8 627.0,354.4" opacity="0.8"/>
    <polyline points="612.5,356.0 613.6,355.4 614.3,355.1 615.1,354.9 615.5,354.9 626.8,353.5" opacity="0.8"/>
    <polyline points="614.3,356.2 615.4,356.0 615.8,356.0 627.1,354.6" opacity="0.8"/>
    <polyline points="621.9,357.8 623.7,357.6 624.4,357.5 624.9,357.4 625.1,357.3 625.2,357.2 625.6,357.1 626.2,356.8 626.7,356.4 627.1,356.0 627.4,355.5 627.6,355.0 627.7,354.4 627.6,353.9 627.4,353.3" opacity="0.8"/>
    <polyline points="613.8,355.6 614.4,355.3 615.2,355.2 615.6,355.1 626.9,353.7" opacity="0.8"/>
    <polyline points="614.3,356.6 615.5,356.5 615.9,356.5 622.7,355.7" opacity="0.8"/>
    <polyline points="611.3,357.4 612.3,357.5 612.8,357.5" opacity="0.8"/>
  </g>

  <!-- 지하철 역 -->
  <g id="subway-stations">
    <circle cx="383.6" cy="280.3" r="4" fill="#dc2626" stroke="#fff" stroke-width="2"/>
    <text x="383.6" y="272.3" text-anchor="middle" font-size="10" fill="#374151">南京东路</text>
    <circle cx="341.2" cy="277.0" r="4" fill="#dc2626" stroke="#fff" stroke-width="2"/>
    <text x="341.2" y="269.0" text-anchor="middle" font-size="10" fill="#374151">新闸路</text>
    <circle cx="316.3" cy="228.5" r="4" fill="#dc2626" stroke="#fff" stroke-width="2"/>
    <text x="316.3" y="220.5" text-anchor="middle" font-size="10" fill="#374151">中山北路</text>
    <circle cx="666.8" cy="361.7" r="4" fill="#dc2626" stroke="#fff" stroke-width="2"/>
    <text x="666.8" y="353.7" text-anchor="middle" font-size="10" fill="#374151">张江高科</text>
    <circle cx="260.4" cy="382.3" r="4" fill="#dc2626" stroke="#fff" stroke-width="2"/>
    <text x="260.4" y="374.3" text-anchor="middle" font-size="10" fill="#374151">徐家汇</text>
    <circle cx="282.2" cy="356.0" r="4" fill="#dc2626" stroke="#fff" stroke-width="2"/>
    <text x="282.2" y="348.0" text-anchor="middle" font-size="10" fill="#374151">衡山路</text>
    <circle cx="318.5" cy="327.2" r="4" fill="#dc2626" stroke="#fff" stroke-width="2"/>
    <text x="318.5" y="319.2" text-anchor="middle" font-size="10" fill="#374151">陕西南路</text>
    <circle cx="356.8" cy="313.2" r="4" fill="#dc2626" stroke="#fff" stroke-width="2"/>
    <text x="356.8" y="305.2" text-anchor="middle" font-size="10" fill="#374151">一大会址·黄陂南路</text>
    <circle cx="545.2" cy="320.2" r="4" fill="#dc2626" stroke="#fff" stroke-width="2"/>
    <text x="545.2" y="312.2" text-anchor="middle" font-size="10" fill="#374151">上海科技馆</text>
    <circle cx="320.5" cy="297.2" r="4" fill="#dc2626" stroke="#fff" stroke-width="2"/>
    <text x="320.5" y="289.2" text-anchor="middle" font-size="10" fill="#374151">南京西路</text>
    <circle cx="84.1" cy="328.3" r="4" fill="#dc2626" stroke="#fff" stroke-width="2"/>
    <text x="84.1" y="320.3" text-anchor="middle" font-size="10" fill="#374151">北新泾</text>
    <circle cx="706.1" cy="356.1" r="4" fill="#dc2626" stroke="#fff" stroke-width="2"/>
    <text x="706.1" y="348.1" text-anchor="middle" font-size="10" fill="#374151">金科路</text>
    <circle cx="183.7" cy="268.2" r="4" fill="#dc2626" stroke="#fff" stroke-width="2"/>
    <text x="183.7" y="260.2" text-anchor="middle" font-size="10" fill="#374151">枫桥路</text>
    <circle cx="175.4" cy="248.8" r="4" fill="#dc2626" stroke="#fff" stroke-width="2"/>
    <text x="175.4" y="240.8" text-anchor="middle" font-size="10" fill="#374151">真如</text>
    <circle cx="92.6" cy="200.9" r="4" fill="#dc2626" stroke="#fff" stroke-width="2"/>
    <text x="92.6" y="192.9" text-anchor="middle" font-size="10" fill="#374151">祁连山路</text>
    <circle cx="59.6" cy="189.4" r="4" fill="#dc2626" stroke="#fff" stroke-width="2"/>
    <text x="59.6" y="181.4" text-anchor="middle" font-size="10" fill="#374151">武威路</text>
    <circle cx="491.4" cy="489.9" r="4" fill="#dc2626" stroke="#fff" stroke-width="2"/>
    <text x="491.4" y="481.9" text-anchor="middle" font-size="10" fill="#374151">三林东</text>
    <circle cx="300.6" cy="429.2" r="4" fill="#dc2626" stroke="#fff" stroke-width="2"/>
    <text x="300.6" y="421.2" text-anchor="middle" font-size="10" fill="#374151">龙华</text>
    <circle cx="318.2" cy="460.1" r="4" fill="#dc2626" stroke="#fff" stroke-width="2"/>
    <text x="318.2" y="452.1" text-anchor="middle" font-size="10" fill="#374151">龙耀路</text>
    <circle cx="535.4" cy="479.4" r="4" fill="#dc2626" stroke="#fff" stroke-width="2"/>
    <text x="535.4" y="471.4" text-anchor="middle" font-size="10" fill="#374151">浦三路</text>
    <circle cx="461.7" cy="497.4" r="4" fill="#dc2626" stroke="#fff" stroke-width="2"/>
    <text x="461.7" y="489.4" text-anchor="middle" font-size="10" fill="#374151">三林</text>
    <circle cx="268.1" cy="414.3" r="4" fill="#dc2626" stroke="#fff" stroke-width="2"/>
    <text x="268.1" y="406.3" text-anchor="middle" font-size="10" fill="#374151">上海游泳馆</text>
    <circle cx="256.2" cy="376.7" r="4" fill="#dc2626" stroke="#fff" stroke-width="2"/>
    <text x="256.2" y="368.7" text-anchor="middle" font-size="10" fill="#374151">徐家汇</text>
    <circle cx="314.6" cy="441.6" r="4" fill="#dc2626" stroke="#fff" stroke-width="2"/>
    <text x="314.6" y="433.6" text-anchor="middle" font-size="10" fill="#374151">云锦路</text>
    <circle cx="696.3" cy="509.1" r="4" fill="#dc2626" stroke="#fff" stroke-width="2"/>
    <text x="696.3" y="501.1" text-anchor="middle" font-size="10" fill="#374151">秀沿路</text>
    <circle cx="282.8" cy="312.3" r="4" fill="#dc2626" stroke="#fff" stroke-width="2"/>
    <text x="282.8" y="304.3" text-anchor="middle" font-size="10" fill="#374151">静安寺</text>
    <circle cx="747.9" cy="526.8" r="4" fill="#dc2626" stroke="#fff" stroke-width="2"/>
    <text x="747.9" y="518.8" text-anchor="middle" font-size="10" fill="#374151">康新公路</text>
    <circle cx="199.6" cy="324.5" r="4" fill="#dc2626" stroke="#fff" stroke-width="2"/>
    <text x="199.6" y="316.5" text-anchor="middle" font-size="10" fill="#374151">中山公园</text>
    <circle cx="121.1" cy="332.1" r="4" fill="#dc2626" stroke="#fff" stroke-width="2"/>
    <text x="121.1" y="324.1" text-anchor="middle" font-size="10" fill="#374151">威宁路</text>
    <circle cx="163.5" cy="526.4" r="4" fill="#dc2626" stroke="#fff" stroke-width="2"/>
    <text x="163.5" y="518.4" text-anchor="middle" font-size="10" fill="#374151">莲花路</text>
    <circle cx="194.0" cy="500.5" r="4" fill="#dc2626" stroke="#fff" stroke-width="2"/>
    <text x="194.0" y="492.5" text-anchor="middle" font-size="10" fill="#374151">锦江乐园</text>
    <circle cx="268.5" cy="63.0" r="4" fill="#dc2626" stroke="#fff" stroke-width="2"/>
    <text x="268.5" y="55.0" text-anchor="middle" font-size="10" fill="#374151">通河新村</text>
    <circle cx="282.5" cy="89.0" r="4" fill="#dc2626" stroke="#fff" stroke-width="2"/>
    <text x="282.5" y="81.0" text-anchor="middle" font-size="10" fill="#374151">共康路</text>
    <circle cx="287.6" cy="121.9" r="4" fill="#dc2626" stroke="#fff" stroke-width="2"/>
    <text x="287.6" y="113.9" text-anchor="middle" font-size="10" fill="#374151">彭浦新村</text>
    <circle cx="292.1" cy="152.0" r="4" fill="#dc2626" stroke="#fff" stroke-width="2"/>
    <text x="292.1" y="144.0" text-anchor="middle" font-size="10" fill="#374151">汶水路</text>
    <circle cx="294.6" cy="335.8" r="4" fill="#dc2626" stroke="#fff" stroke-width="2"/>
    <text x="294.6" y="327.8" text-anchor="middle" font-size="10" fill="#374151">常熟路</text>
    <circle cx="374.4" cy="474.1" r="4" fill="#dc2626" stroke="#fff" stroke-width="2"/>
    <text x="374.4" y="466.1" text-anchor="middle" font-size="10" fill="#374151">东方体育中心</text>
    <circle cx="410.2" cy="456.6" r="4" fill="#dc2626" stroke="#fff" stroke-width="2"/>
    <text x="410.2" y="448.6" text-anchor="middle" font-size="10" fill="#374151">杨思</text>
    <circle cx="417.7" cy="434.0" r="4" fill="#dc2626" stroke="#fff" stroke-width="2"/>
    <text x="417.7" y="426.0" text-anchor="middle" font-size="10" fill="#374151">成山路</text>
    <circle cx="389.7" cy="338.8" r="4" fill="#dc2626" stroke="#fff" stroke-width="2"/>
    <text x="389.7" y="330.8" text-anchor="middle" font-size="10" fill="#374151">陆家浜路</text>
    <circle cx="381.5" cy="322.6" r="4" fill="#dc2626" stroke="#fff" stroke-width="2"/>
    <text x="381.5" y="314.6" text-anchor="middle" font-size="10" fill="#374151">老西门</text>
    <circle cx="371.9" cy="303.4" r="4" fill="#dc2626" stroke="#fff" stroke-width="2"/>
    <text x="371.9" y="295.4" text-anchor="middle" font-size="10" fill="#374151">大世界</text>
    <circle cx="350.2" cy="268.6" r="4" fill="#dc2626" stroke="#fff" stroke-width="2"/>
    <text x="350.2" y="260.6" text-anchor="middle" font-size="10" fill="#374151">曲阜路</text>
    <circle cx="343.2" cy="243.4" r="4" fill="#dc2626" stroke="#fff" stroke-width="2"/>
    <text x="343.2" y="235.4" text-anchor="middle" font-size="10" fill="#374151">中兴路</text>
    <circle cx="343.8" cy="219.1" r="4" fill="#dc2626" stroke="#fff" stroke-width="2"/>
    <text x="343.8" y="211.1" text-anchor="middle" font-size="10" fill="#374151">西藏北路</text>
    <circle cx="401.5" cy="189.0" r="4" fill="#dc2626" stroke="#fff" stroke-width="2"/>
    <text x="401.5" y="181.0" text-anchor="middle" font-size="10" fill="#374151">曲阳路</text>
    <circle cx="431.9" cy="192.9" r="4" fill="#dc2626" stroke="#fff" stroke-width="2"/>
    <text x="431.9" y="184.9" text-anchor="middle" font-size="10" fill="#374151">四平路</text>
    <circle cx="454.2" cy="196.6" r="4" fill="#dc2626" stroke="#fff" stroke-width="2"/>
    <text x="454.2" y="188.6" text-anchor="middle" font-size="10" fill="#374151">鞍山新村</text>
    <circle cx="478.7" cy="192.6" r="4" fill="#dc2626" stroke="#fff" stroke-width="2"/>
    <text x="478.7" y="184.6" text-anchor="middle" font-size="10" fill="#374151">江浦路</text>
    <circle cx="505.6" cy="183.4" r="4" fill="#dc2626" stroke="#fff" stroke-width="2"/>
    <text x="505.6" y="175.4" text-anchor="middle" font-size="10" fill="#374151">黄兴路</text>
    <circle cx="523.3" cy="160.8" r="4" fill="#dc2626" stroke="#fff" stroke-width="2"/>
    <text x="523.3" y="152.8" text-anchor="middle" font-size="10" fill="#374151">延吉中路</text>
    <circle cx="518.5" cy="144.3" r="4" fill="#dc2626" stroke="#fff" stroke-width="2"/>
    <text x="518.5" y="136.3" text-anchor="middle" font-size="10" fill="#374151">黄兴公园</text>
    <circle cx="515.1" cy="122.8" r="4" fill="#dc2626" stroke="#fff" stroke-width="2"/>
    <text x="515.1" y="114.8" text-anchor="middle" font-size="10" fill="#374151">翔殷路</text>
    <circle cx="515.2" cy="81.9" r="4" fill="#dc2626" stroke="#fff" stroke-width="2"/>
    <text x="515.2" y="73.9" text-anchor="middle" font-size="10" fill="#374151">市光路</text>
    <circle cx="230.0" cy="402.9" r="4" fill="#dc2626" stroke="#fff" stroke-width="2"/>
    <text x="230.0" y="394.9" text-anchor="middle" font-size="10" fill="#374151">宜山路</text>
    <circle cx="321.4" cy="360.2" r="4" fill="#dc2626" stroke="#fff" stroke-width="2"/>
    <text x="321.4" y="352.2" text-anchor="middle" font-size="10" fill="#374151">嘉善路</text>
    <circle cx="342.2" cy="351.9" r="4" fill="#dc2626" stroke="#fff" stroke-width="2"/>
    <text x="342.2" y="343.9" text-anchor="middle" font-size="10" fill="#374151">打浦桥</text>
    <circle cx="364.0" cy="344.8" r="4" fill="#dc2626" stroke="#fff" stroke-width="2"/>
    <text x="364.0" y="336.8" text-anchor="middle" font-size="10" fill="#374151">马当路</text>
    <circle cx="423.9" cy="326.9" r="4" fill="#dc2626" stroke="#fff" stroke-width="2"/>
    <text x="423.9" y="318.9" text-anchor="middle" font-size="10" fill="#374151">小南门</text>
    <circle cx="75.5" cy="419.0" r="4" fill="#dc2626" stroke="#fff" stroke-width="2"/>
    <text x="75.5" y="411.0" text-anchor="middle" font-size="10" fill="#374151">龙柏新村</text>
    <circle cx="62.1" cy="436.3" r="4" fill="#dc2626" stroke="#fff" stroke-width="2"/>
    <text x="62.1" y="428.3" text-anchor="middle" font-size="10" fill="#374151">紫藤路</text>
    <circle cx="68.7" cy="389.2" r="4" fill="#dc2626" stroke="#fff" stroke-width="2"/>
    <text x="68.7" y="381.2" text-anchor="middle" font-size="10" fill="#374151">上海动物园</text>
    <circle cx="102.1" cy="379.4" r="4" fill="#dc2626" stroke="#fff" stroke-width="2"/>
    <text x="102.1" y="371.4" text-anchor="middle" font-size="10" fill="#374151">龙溪路</text>
    <circle cx="134.5" cy="368.0" r="4" fill="#dc2626" stroke="#fff" stroke-width="2"/>
    <text x="134.5" y="360.0" text-anchor="middle" font-size="10" fill="#374151">水城路</text>
    <circle cx="162.8" cy="368.4" r="4" fill="#dc2626" stroke="#fff" stroke-width="2"/>
    <text x="162.8" y="360.4" text-anchor="middle" font-size="10" fill="#374151">伊犁路</text>
    <circle cx="189.7" cy="374.8" r="4" fill="#dc2626" stroke="#fff" stroke-width="2"/>
    <text x="189.7" y="366.8" text-anchor="middle" font-size="10" fill="#374151">宋园路</text>
    <circle cx="215.8" cy="374.2" r="4" fill="#dc2626" stroke="#fff" stroke-width="2"/>
    <text x="215.8" y="366.2" text-anchor="middle" font-size="10" fill="#374151">虹桥路</text>
    <circle cx="251.0" cy="361.6" r="4" fill="#dc2626" stroke="#fff" stroke-width="2"/>
    <text x="251.0" y="353.6" text-anchor="middle" font-size="10" fill="#374151">交通大学</text>
    <circle cx="276.0" cy="347.7" r="4" fill="#dc2626" stroke="#fff" stroke-width="2"/>
    <text x="276.0" y="339.7" text-anchor="middle" font-size="10" fill="#374151">上海图书馆</text>
    <circle cx="315.0" cy="331.9" r="4" fill="#dc2626" stroke="#fff" stroke-width="2"/>
    <text x="315.0" y="323.9" text-anchor="middle" font-size="10" fill="#374151">陕西南路</text>
    <circle cx="358.4" cy="329.0" r="4" fill="#dc2626" stroke="#fff" stroke-width="2"/>
    <text x="358.4" y="321.0" text-anchor="middle" font-size="10" fill="#374151">一大会址·新天地</text>
    <circle cx="393.5" cy="301.6" r="4" fill="#dc2626" stroke="#fff" stroke-width="2"/>
    <text x="393.5" y="293.6" text-anchor="middle" font-size="10" fill="#374151">豫园</text>
    <circle cx="379.8" cy="265.0" r="4" fill="#dc2626" stroke="#fff" stroke-width="2"/>
    <text x="379.8" y="257.0" text-anchor="middle" font-size="10" fill="#374151">天潼路</text>
    <circle cx="384.3" cy="246.5" r="4" fill="#dc2626" stroke="#fff" stroke-width="2"/>
    <text x="384.3" y="238.5" text-anchor="middle" font-size="10" fill="#374151">四川北路</text>
    <circle cx="412.4" cy="207.8" r="4" fill="#dc2626" stroke="#fff" stroke-width="2"/>
    <text x="412.4" y="199.8" text-anchor="middle" font-size="10" fill="#374151">邮电新村</text>
    <circle cx="445.7" cy="175.4" r="4" fill="#dc2626" stroke="#fff" stroke-width="2"/>
    <text x="445.7" y="167.4" text-anchor="middle" font-size="10" fill="#374151">同济大学</text>
    <circle cx="455.3" cy="159.6" r="4" fill="#dc2626" stroke="#fff" stroke-width="2"/>
    <text x="455.3" y="151.6" text-anchor="middle" font-size="10" fill="#374151">国权路</text>
    <circle cx="467.5" cy="139.9" r="4" fill="#dc2626" stroke="#fff" stroke-width="2"/>
    <text x="467.5" y="131.9" text-anchor="middle" font-size="10" fill="#374151">五角场</text>
    <circle cx="467.1" cy="127.7" r="4" fill="#dc2626" stroke="#fff" stroke-width="2"/>
    <text x="467.1" y="119.7" text-anchor="middle" font-size="10" fill="#374151">江湾体育场</text>
    <circle cx="446.7" cy="84.2" r="4" fill="#dc2626" stroke="#fff" stroke-width="2"/>
    <text x="446.7" y="76.2" text-anchor="middle" font-size="10" fill="#374151">殷高东路</text>
    <circle cx="446.5" cy="68.0" r="4" fill="#dc2626" stroke="#fff" stroke-width="2"/>
    <text x="446.5" y="60.0" text-anchor="middle" font-size="10" fill="#374151">新江湾城</text>
    <circle cx="102.4" cy="510.9" r="4" fill="#dc2626" stroke="#fff" stroke-width="2"/>
    <text x="102.4" y="502.9" text-anchor="middle" font-size="10" fill="#374151">虹莘路</text>
    <circle cx="134.1" cy="502.4" r="4" fill="#dc2626" stroke="#fff" stroke-width="2"/>
    <text x="134.1" y="494.4" text-anchor="middle" font-size="10" fill="#374151">顾戴路</text>
    <circle cx="133.2" cy="468.9" r="4" fill="#dc2626" stroke="#fff" stroke-width="2"/>
    <text x="133.2" y="460.9" text-anchor="middle" font-size="10" fill="#374151">东兰路</text>
    <circle cx="148.3" cy="458.4" r="4" fill="#dc2626" stroke="#fff" stroke-width="2"/>
    <text x="148.3" y="450.4" text-anchor="middle" font-size="10" fill="#374151">虹梅路</text>
    <circle cx="184.8" cy="449.1" r="4" fill="#dc2626" stroke="#fff" stroke-width="2"/>
    <text x="184.8" y="441.1" text-anchor="middle" font-size="10" fill="#374151">虹漕路</text>
    <circle cx="208.9" cy="442.8" r="4" fill="#dc2626" stroke="#fff" stroke-width="2"/>
    <text x="208.9" y="434.8" text-anchor="middle" font-size="10" fill="#374151">桂林公园</text>
    <circle cx="274.1" cy="435.6" r="4" fill="#dc2626" stroke="#fff" stroke-width="2"/>
    <text x="274.1" y="427.6" text-anchor="middle" font-size="10" fill="#374151">龙漕路</text>
    <circle cx="299.2" cy="425.0" r="4" fill="#dc2626" stroke="#fff" stroke-width="2"/>
    <text x="299.2" y="417.0" text-anchor="middle" font-size="10" fill="#374151">龙华</text>
    <circle cx="325.8" cy="300.4" r="4" fill="#dc2626" stroke="#fff" stroke-width="2"/>
    <text x="325.8" y="292.4" text-anchor="middle" font-size="10" fill="#374151">南京西路</text>
    <circle cx="317.2" cy="302.8" r="4" fill="#dc2626" stroke="#fff" stroke-width="2"/>
    <text x="317.2" y="294.8" text-anchor="middle" font-size="10" fill="#374151">南京西路</text>
    <circle cx="423.7" cy="250.2" r="4" fill="#dc2626" stroke="#fff" stroke-width="2"/>
    <text x="423.7" y="242.2" text-anchor="middle" font-size="10" fill="#374151">国际客运中心</text>
    <circle cx="492.7" cy="216.8" r="4" fill="#dc2626" stroke="#fff" stroke-width="2"/>
    <text x="492.7" y="208.8" text-anchor="middle" font-size="10" fill="#374151">江浦公园</text>
    <circle cx="517.1" cy="207.2" r="4" fill="#dc2626" stroke="#fff" stroke-width="2"/>
    <text x="517.1" y="199.2" text-anchor="middle" font-size="10" fill="#374151">宁国路</text>
    <circle cx="550.8" cy="191.1" r="4" fill="#dc2626" stroke="#fff" stroke-width="2"/>
    <text x="550.8" y="183.1" text-anchor="middle" font-size="10" fill="#374151">隆昌路</text>
    <circle cx="571.4" cy="181.0" r="4" fill="#dc2626" stroke="#fff" stroke-width="2"/>
    <text x="571.4" y="173.0" text-anchor="middle" font-size="10" fill="#374151">爱国路</text>
    <circle cx="595.0" cy="178.6" r="4" fill="#dc2626" stroke="#fff" stroke-width="2"/>
    <text x="595.0" y="170.6" text-anchor="middle" font-size="10" fill="#374151">复兴岛</text>
    <circle cx="671.6" cy="180.3" r="4" fill="#dc2626" stroke="#fff" stroke-width="2"/>
    <text x="671.6" y="172.3" text-anchor="middle" font-size="10" fill="#374151">巨峰路</text>
    <circle cx="741.4" cy="181.3" r="4" fill="#dc2626" stroke="#fff" stroke-width="2"/>
    <text x="741.4" y="173.3" text-anchor="middle" font-size="10" fill="#374151">金京路</text>
    <circle cx="66.7" cy="279.5" r="4" fill="#dc2626" stroke="#fff" stroke-width="2"/>
    <text x="66.7" y="271.5" text-anchor="middle" font-size="10" fill="#374151">祁连山南路</text>
  </g>
</svg>