<?xml version="1.0" encoding="UTF-8"?>
<svg width="800" height="600" viewBox="0 0 800 600" 
     xmlns="http://www.w3.org/2000/svg">
  <title>Shenzhen Subway Map</title>
  <rect width="100%" height="100%" fill="#f8f9fa"/>

  <!-- 지하철 선로 -->
  <g id="subway-lines" stroke="#2563eb" stroke-width="3" fill="none">
    <polyline points="334.6,430.2 333.8,430.6 333.4,430.8 333.0,431.0 332.6,431.3 332.3,431.5 332.1,431.7 331.8,432.0 331.2,432.6 330.4,433.3 330.2,433.5 330.0,433.7 329.7,433.8 329.5,433.9 329.3,433.9 329.0,434.0 323.0,434.1 321.5,434.0 320.6,434.0 319.4,434.1 319.1,434.1 318.1,434.3 317.7,434.4 315.2,434.5 314.0,434.4 312.8,434.4 311.6,434.5 309.9,434.6" opacity="0.8"/>
    <polyline points="288.6,473.6 287.6,473.8 287.3,473.8 286.5,473.8 285.9,473.8 285.5,473.8 285.2,473.8 284.9,473.7 284.6,473.7 284.4,473.5 284.2,473.2 284.1,473.0 284.1,472.6 284.1,472.3 284.1,471.9 284.2,471.7 284.2,471.3 284.2,471.1 284.2,468.6 284.3,468.1 284.4,467.8 284.6,466.9" opacity="0.8"/>
    <polyline points="296.6,456.4 296.4,455.1 296.2,454.2 295.7,451.3 295.4,449.9 295.4,449.7 295.3,449.5 295.3,449.3 295.2,449.1 295.1,448.8 294.9,448.1 294.3,446.8 293.9,445.8 293.8,445.5 293.7,445.3 293.6,445.0 293.6,444.7 293.5,444.3 293.5,443.9 293.5,443.6 293.5,443.3" opacity="0.8"/>
    <polyline points="255.8,358.8 256.4,358.6 257.0,358.3 257.4,358.1 257.8,357.9 258.2,357.6 258.6,357.4 259.0,357.1 259.4,357.0 259.9,356.8 260.6,356.6 260.9,356.5 261.3,356.3 262.7,355.6 263.4,355.4 263.9,355.1 264.4,354.9 264.9,354.7 265.3,354.5 265.6,354.2 265.9,354.0 266.0,353.9 266.1,353.8 269.2,349.9 270.4,348.4 270.7,348.1 270.9,347.9 271.2,347.7 271.5,347.4 271.9,347.2 272.1,347.0 272.3,346.8 272.5,346.6 272.7,346.4 272.9,346.1 273.1,345.8 273.4,345.4 273.6,345.0 274.0,344.6 274.2,344.3 274.4,344.0 274.6,343.8 274.9,343.7 275.1,343.5 275.4,343.3 275.7,343.1 276.0,342.9 276.6,342.4 277.5,341.7 277.9,341.4 279.4,340.2 280.8,339.1 281.4,338.5 281.8,338.3 282.1,338.0 282.4,337.7 282.8,337.4 283.5,336.8 284.8,335.7 287.6,333.5 287.8,333.3 288.0,333.1 288.2,332.9 288.5,332.5 289.2,331.6 289.4,331.4 289.6,331.2 289.7,331.1 289.9,330.9 290.2,330.8 290.5,330.7 290.9,330.6 291.1,330.6 291.3,330.6 291.8,330.6 292.3,330.7 293.2,330.9 294.3,331.0 294.6,331.0 294.9,331.0 295.1,331.0 295.7,330.9 296.8,330.8 297.5,330.7 300.8,330.1 302.7,329.8 303.6,329.7 304.1,329.8 304.8,329.9 306.0,330.2 308.9,331.0 312.2,331.9 328.9,336.4 329.9,336.7 330.3,336.9 330.6,337.1 330.9,337.4 331.6,338.3 332.0,338.8 332.2,339.3 332.4,339.7 332.5,340.3 333.3,345.1 333.5,346.1 333.7,347.1 334.0,347.8 334.3,349.0 334.5,349.7 334.6,350.3 334.6,351.1 334.7,351.6 334.7,351.9 334.8,352.1 335.1,352.5 335.5,352.9 336.9,354.4 337.1,354.6 337.2,354.8 338.2,357.1 338.4,357.4 338.6,357.6 339.1,358.1 339.3,358.3 339.6,358.6 340.0,358.8 340.2,358.9 341.9,359.6 343.5,360.3 343.6,360.4 343.8,360.5 344.1,360.5 344.4,360.5 346.3,360.5 346.8,360.5 347.1,360.7 347.5,361.0 347.9,361.5 348.2,362.1 348.5,362.6 348.8,363.5 349.0,364.3 349.0,365.2 349.1,366.1 349.1,368.8 349.2,369.3 349.3,370.3 349.4,371.3 349.5,372.4 349.6,372.6 349.7,372.9 349.8,373.1 349.9,373.4 350.1,373.7 350.3,374.2 353.6,380.8 354.3,382.1 354.6,382.5 355.0,383.4 355.3,384.3 355.3,385.1 355.4,385.9 355.4,387.5 355.1,391.5 354.8,393.8 354.5,395.5 353.7,399.7 353.3,402.1 353.0,404.1 352.7,406.2 352.7,407.4 352.9,408.6 353.3,409.5 353.9,410.6 354.1,411.1 354.7,412.2 355.9,414.2 357.0,415.8 357.7,417.0 359.8,420.6 359.9,420.8 360.0,421.0 360.0,421.2 359.9,421.4 359.9,421.6 359.8,421.8 359.1,423.6 358.1,426.0 358.0,426.5 357.9,426.6 357.8,426.7 357.8,426.7 357.8,426.8 357.7,426.8 357.7,426.8 357.6,426.8 357.6,426.9 357.1,427.0 354.1,427.6" opacity="0.8"/>
    <polyline points="372.4,335.7 372.6,335.4 372.8,335.0 372.9,334.7 373.5,333.5 373.9,332.6 374.4,331.5 374.8,330.8 375.1,330.3 375.6,329.4 375.9,329.1 376.7,327.9 377.1,327.4 377.5,327.0 377.9,326.6 378.2,326.3 378.7,325.9 379.2,325.5 379.7,325.1 380.3,324.7 380.9,324.3 381.5,324.0 382.2,323.6 382.9,323.3 383.3,323.1 383.8,322.9 384.2,322.8 385.0,322.6 386.3,322.3 388.0,321.9 388.3,321.9 388.5,321.8 388.8,321.8 389.3,321.7 389.7,321.6 390.3,321.5 390.6,321.4 390.8,321.4 390.9,321.3 391.1,321.2 391.3,321.2 391.5,321.0 391.8,320.9 392.1,320.7 392.3,320.6 392.5,320.4 392.9,320.1" opacity="0.8"/>
    <polyline points="369.5,337.9 369.9,337.7 370.4,337.5 370.9,337.3 371.1,337.1 371.3,336.9 371.7,336.6 371.9,336.3 372.2,336.0 372.4,335.7" opacity="0.8"/>
    <polyline points="341.1,390.8 340.9,390.0 340.8,389.6 340.7,389.3 340.6,388.4 340.4,387.5 340.3,387.1 340.2,386.6" opacity="0.8"/>
    <polyline points="392.9,320.1 394.0,319.3 396.7,317.5 399.4,315.6 399.9,315.3 402.3,313.7 403.5,313.0 404.8,312.4" opacity="0.8"/>
    <polyline points="404.8,312.4 405.5,312.1 405.9,311.9 406.3,311.6 406.6,311.4 406.9,311.1 407.2,310.8 407.8,310.2 410.5,307.1 411.1,306.4 411.5,305.9 411.9,305.5 412.3,305.0 412.6,304.5 413.0,304.1 413.3,303.6 413.5,303.3 413.6,303.0 413.8,302.6 415.8,298.8 416.1,298.3 416.3,298.0 416.5,297.7 416.8,297.3 418.1,295.6 418.4,295.2 418.7,294.7 419.0,294.2 419.3,293.7 419.5,293.0 419.7,292.5 419.9,291.8 420.1,291.2 420.5,289.7 420.9,288.7 421.1,287.8 421.3,287.1 421.5,286.5 421.6,285.9 421.7,285.3 422.3,281.7 422.4,281.4 422.5,281.0 422.6,280.6 422.7,280.3 422.8,280.0 422.9,279.7 424.1,276.9 424.4,276.1 424.7,275.5 424.9,274.9 425.2,274.3 425.6,273.4" opacity="0.8"/>
    <polyline points="350.4,353.2 351.4,352.2 352.0,351.5 352.6,350.9 352.8,350.6 353.2,350.1 354.0,348.9 354.8,347.3 354.8,347.3 355.4,346.3 355.7,345.8 356.1,344.9 356.6,344.1 357.6,342.3 358.0,341.7 358.1,341.4 358.3,341.1 358.4,340.9 358.6,340.7 358.8,340.5 359.1,340.2 359.4,339.9 359.8,339.6 360.1,339.5 360.4,339.3 360.6,339.3 360.9,339.2 361.2,339.2 361.5,339.1 361.8,339.1 362.4,339.1 362.8,339.1 363.0,339.0 363.5,339.0 364.0,339.0 364.4,339.0 364.7,339.0 365.1,338.9 365.8,338.7 366.9,338.5 368.0,338.2 369.5,337.9" opacity="0.8"/>
    <polyline points="162.4,442.6 162.4,437.8 162.4,435.8 162.3,435.1 162.3,434.4 162.2,433.8 162.1,433.4 161.9,432.9 161.7,432.5 161.5,432.2 161.4,431.9 160.9,431.4 160.5,431.1 160.0,430.8 159.4,430.6 156.3,429.6 155.5,429.4 154.9,429.2 154.6,429.1 154.3,428.9 154.0,428.8 153.6,428.6 153.4,428.4 153.2,428.2 153.0,428.0 152.9,427.9 152.8,427.8 152.7,427.6 152.6,427.4 152.5,427.2 152.4,427.0 152.4,426.7 152.3,426.5 152.3,426.3 152.3,425.9 152.3,425.1 152.2,424.8 152.3,424.5 152.3,424.0 152.3,422.9 152.3,422.0 152.3,421.4 152.3,421.0 152.4,420.0 152.4,419.8 152.4,419.6 152.5,419.6 152.5,419.4 152.5,419.3 152.6,419.1 152.7,418.9 152.8,418.6 153.0,418.3 153.8,417.3 153.9,417.1 158.5,411.2 158.9,410.7 167.5,399.7 172.8,392.9 175.5,389.5 176.8,387.9 179.4,384.4 179.7,384.1 180.0,383.8 180.5,383.4 181.0,383.2 181.6,383.1 182.3,383.1 184.4,383.3 186.7,383.9 189.9,384.9 191.1,385.3 192.2,385.7 193.6,385.9 195.0,386.1 199.6,385.9 205.1,385.8 207.4,385.8 208.8,385.7 212.4,385.6 212.6,385.6 212.9,385.5 213.3,385.4 213.8,385.1 214.2,384.9 215.1,384.6 216.5,384.0 217.8,383.4 218.1,383.4 218.5,383.4 218.8,383.4 219.7,383.5 222.4,383.6 223.1,383.5 223.6,383.3 224.1,383.0 225.8,381.7 226.1,381.5 226.6,381.3 227.0,381.2 228.3,381.2 231.8,381.3 232.0,381.3 232.2,381.3" opacity="0.8"/>
    <polyline points="472.1,184.8 472.2,183.8 472.2,183.5 472.2,183.2 472.2,182.7 472.2,182.4 472.2,181.0 472.2,180.1 472.1,179.6 472.1,179.2 472.0,178.9 471.9,178.6 471.8,178.4 471.7,178.1 471.0,176.9 470.8,176.6 470.7,176.2 470.6,175.9 470.6,175.6 470.4,172.8 470.3,172.5 470.3,172.1 470.2,171.6 470.2,171.1 470.2,170.6 470.2,170.2 470.3,169.6 470.4,169.2 470.9,167.7 471.3,166.6 471.6,165.5 471.8,164.9 472.1,164.3 473.4,160.9 473.8,160.2 474.1,159.7 474.3,159.3 474.7,159.0 475.0,158.6 475.4,158.4 476.5,157.6 477.4,156.9 478.4,156.2 478.7,156.1 479.0,156.0 479.2,155.9 479.4,155.8 482.7,155.0 483.2,154.9 485.2,154.6 485.4,154.5 485.6,154.4 485.7,154.4 485.8,154.3 486.0,154.2 486.1,154.1 486.7,153.4 487.0,153.1 487.2,152.8 487.5,152.5 487.8,152.2 488.2,151.9 488.5,151.6 488.7,151.4 488.9,151.2 489.2,151.1 489.3,151.0 489.5,150.8 490.2,150.2 491.3,149.1 491.6,148.8 492.0,148.4 492.3,148.1 492.6,147.7 492.9,147.5 493.3,147.2 493.5,147.0 493.8,146.8 494.3,146.3 494.6,146.1 495.0,145.7 495.3,145.4 495.7,145.2 496.1,144.8 497.2,144.0 497.6,143.7 500.0,141.6 502.0,139.7 502.3,139.3 502.6,139.1 502.7,138.9 502.9,138.6 503.1,138.4 503.4,138.0" opacity="0.8"/>
    <polyline points="468.8,207.1 468.1,207.7 467.6,208.0" opacity="0.8"/>
    <polyline points="372.4,335.7 372.2,336.1 371.9,336.4 371.6,336.7 371.3,337.0 371.0,337.2 370.6,337.4 370.4,337.6 370.0,337.7 369.9,337.8 369.5,337.9 369.0,338.0 367.9,338.3 367.1,338.5 365.7,338.8 364.7,339.0 364.5,339.1 364.3,339.1 364.0,339.1 363.5,339.1 362.9,339.2 362.4,339.2 361.8,339.2 361.4,339.2 361.1,339.3 360.8,339.3 360.4,339.4 360.1,339.5 359.8,339.7 359.5,339.9 359.2,340.1 359.0,340.3 358.8,340.5 358.6,340.7 358.5,340.9 358.3,341.2 358.2,341.4 358.0,341.8 357.7,342.3 356.6,344.2 355.8,345.7 355.7,345.8 355.6,346.0 355.4,346.3 354.9,347.3 354.9,347.4 354.6,347.8 354.0,348.9 353.3,350.2 352.9,350.7 352.6,351.0 352.1,351.5 351.4,352.2 350.6,353.1 350.5,353.2" opacity="0.8"/>
    <polyline points="350.5,353.2 350.1,353.5 349.7,353.9 349.6,354.1 349.2,354.5 348.8,354.9 348.4,355.3 348.3,355.4 348.1,355.6 347.9,355.7 347.7,355.8 347.2,356.2 345.4,357.5 344.6,358.2 344.3,358.4 344.1,358.5 343.4,359.0 343.3,359.2 343.1,359.3 343.0,359.4 342.9,359.6 342.8,359.8 342.7,360.0 342.4,360.3 342.2,360.9 341.8,361.4 341.6,361.8 341.5,362.1 341.3,362.5 341.0,363.1 340.8,363.4 339.7,365.3 339.4,365.9 339.1,366.2 338.9,366.9 338.1,369.0 337.4,371.0 336.9,372.7 336.8,373.1 336.7,373.3 336.7,373.6 336.6,374.2" opacity="0.8"/>
    <polyline points="282.3,367.4 282.1,366.9 281.8,366.4 281.5,365.9 281.3,365.4 280.9,364.9 280.7,364.5 280.5,364.2 280.4,363.9 279.9,363.0 279.7,362.6" opacity="0.8"/>
    <polyline points="232.2,381.3 232.4,381.3 232.7,381.2 232.9,381.2 233.1,381.1" opacity="0.8"/>
    <polyline points="309.9,434.6 307.8,434.7 307.2,434.7 306.8,434.8 306.4,435.0 306.1,435.2 305.8,435.5 305.6,435.8 305.4,436.1 305.3,436.4 305.2,436.6 304.8,437.5 304.7,437.7 304.6,438.0 304.4,438.2 304.3,438.4 304.1,438.6 303.9,438.8 303.6,439.0 303.4,439.2 301.0,440.6 300.8,440.8 300.6,440.8 300.4,440.9 300.3,441.0 300.1,441.0 299.9,441.0 299.6,441.0 299.1,441.1 293.7,441.2 289.9,441.3 288.4,441.3 286.9,441.4 286.4,441.3 285.9,441.2 285.4,441.1 284.9,440.9 284.4,440.6 284.0,440.3 283.6,439.9 283.2,439.5 280.9,437.2 280.5,436.8 280.0,436.4 279.5,436.1 279.1,435.9 278.8,435.9 278.3,435.8 277.7,435.8 277.0,435.8 276.3,435.9 275.5,436.1 273.0,436.8 272.7,436.9 272.2,437.1 271.9,437.3 271.5,437.4 271.1,437.5 265.2,439.0 263.3,439.5 263.0,439.6 262.6,439.7 262.3,439.8 262.0,440.0 261.7,440.2 259.7,441.4 259.5,441.6 259.2,441.7 258.9,441.8 257.4,442.2 256.4,442.4 255.8,442.6 255.1,442.7 254.6,442.9 254.3,442.9 253.9,443.0 253.6,443.1 252.6,443.3 251.6,443.5 250.4,443.6 248.1,443.9 246.8,444.0 245.4,444.2 244.9,444.3 244.4,444.2 243.8,444.2 243.1,444.1 242.5,443.9 242.1,443.7 241.7,443.6 239.7,442.8 239.3,442.7 239.0,442.6 238.7,442.6 235.2,442.5 234.7,442.4 234.0,442.3 233.6,442.3 232.8,442.3 231.1,442.2 230.7,442.2 230.4,442.1 230.2,442.1 229.9,441.9 229.6,441.8 228.4,440.8 228.1,440.6 227.7,440.4 223.9,438.3 222.4,437.5" opacity="0.8"/>
    <polyline points="315.9,213.1 314.9,213.7 314.5,213.9 314.2,214.0 314.0,214.1 313.7,214.2 313.4,214.2 313.1,214.3 312.6,214.3 312.3,214.3 312.0,214.3 311.8,214.3 311.4,214.2 311.1,214.2 310.8,214.1 310.6,214.1 310.4,214.1 310.2,214.1 310.0,214.2 309.8,214.2 309.6,214.3 309.3,214.4 309.1,214.6 308.8,214.7 308.6,214.9 308.4,215.1 308.2,215.3 307.8,215.5 307.6,215.7 307.4,215.8 307.1,216.0 306.9,216.1 306.0,216.5 305.2,216.8 304.7,217.0 304.5,217.1 304.3,217.1 304.1,217.2 303.8,217.2 303.6,217.2 303.4,217.2 303.0,217.2 301.9,217.0 300.5,216.8 300.4,216.8 299.8,216.9 297.9,217.1 296.4,217.3 295.1,217.4 294.8,217.5 293.9,217.7 293.4,217.9 293.2,218.1 292.7,218.7 291.2,220.8 289.1,223.6 288.8,223.9 288.5,224.2 288.3,224.6 287.9,224.9 285.3,226.3 284.2,226.8 283.7,227.0 283.4,227.1 282.2,227.5 281.6,227.9 281.0,228.3 280.7,228.8 280.5,229.2 280.3,229.7 280.2,229.9 280.0,231.2 279.6,233.1 279.0,236.9 278.7,238.8 278.0,243.1 277.8,244.3 277.1,247.6 276.9,249.3 277.0,250.1 277.2,252.4 277.3,254.1 277.3,254.7 277.2,255.7 276.8,258.5 276.7,259.2 276.1,263.1 276.0,263.6 276.0,264.1 276.0,264.5 276.2,265.3 276.6,266.0 277.0,266.5" opacity="0.8"/>
    <polyline points="165.5,503.8 165.7,504.2 165.7,504.4 165.8,504.7 165.8,505.0 165.9,505.3 165.9,505.5 166.0,505.7 166.0,505.8" opacity="0.8"/>
    <polyline points="165.7,505.6 165.6,505.3 165.6,504.9 165.5,504.4 165.5,504.1 165.5,504.0 165.4,503.8 165.4,503.6 165.2,503.1" opacity="0.8"/>
    <polyline points="165.1,502.8 165.2,503.0 165.4,503.4 165.4,503.6 165.5,503.8 165.7,504.1 165.9,504.5 166.0,504.9 166.3,505.5" opacity="0.8"/>
    <polyline points="165.7,504.8 165.7,505.2 165.7,505.4 165.7,505.6 165.7,505.8" opacity="0.8"/>
    <polyline points="165.6,505.3 165.5,504.8 165.4,504.7 165.4,504.6 165.3,504.4 164.4,502.9" opacity="0.8"/>
    <polyline points="165.7,504.1 165.8,504.5 165.9,504.8 165.9,505.1 166.0,505.3 166.0,505.5 166.1,505.7" opacity="0.8"/>
    <polyline points="165.4,503.6 165.5,503.9 165.6,504.2 165.7,504.6 165.7,504.8 165.7,505.2 165.8,505.4 165.8,505.6 165.9,505.8 165.9,505.9" opacity="0.8"/>
    <polyline points="165.9,504.5 166.0,504.8 166.1,505.1 166.1,505.3 166.2,505.5 166.2,505.6" opacity="0.8"/>
    <polyline points="248.4,445.0 248.1,445.1" opacity="0.8"/>
    <polyline points="246.9,445.5 246.6,445.7 246.4,445.8 246.3,445.8 246.2,445.8 246.2,445.8 246.1,445.9" opacity="0.8"/>
    <polyline points="247.4,445.4 247.0,445.7 246.7,445.9 246.6,446.0 246.4,446.1 246.2,446.1 246.2,446.1 246.1,446.1" opacity="0.8"/>
    <polyline points="249.2,444.8 249.0,444.8 248.8,444.9" opacity="0.8"/>
    <polyline points="249.2,444.7 249.2,444.7 248.8,444.9 248.4,445.0 247.8,445.3 247.7,445.3 247.4,445.4 247.1,445.6 246.7,445.8 246.6,445.8 246.2,445.9 246.2,445.9 246.1,446.0" opacity="0.8"/>
    <polyline points="247.1,445.4 246.9,445.5 246.5,445.5 246.2,445.6 246.1,445.6 246.1,445.6" opacity="0.8"/>
    <polyline points="247.2,446.3 246.7,446.6 246.6,446.6 246.3,446.7 246.3,446.7 246.2,446.7" opacity="0.8"/>
    <polyline points="246.2,447.4 243.5,448.1" opacity="0.8"/>
    <polyline points="249.2,444.7 249.2,444.8 248.8,444.9 248.7,445.0 248.4,445.1 248.1,445.2 247.9,445.3 247.7,445.4 247.6,445.5 247.5,445.5" opacity="0.8"/>
    <polyline points="249.0,444.5 248.5,444.8 248.3,444.9 248.2,445.0 247.9,445.2 247.8,445.2" opacity="0.8"/>
    <polyline points="248.4,445.1 248.1,445.3 247.6,445.6 247.6,445.6" opacity="0.8"/>
    <polyline points="247.4,446.2 247.2,446.3 246.9,446.5 246.8,446.6 246.7,446.6 246.3,446.8 246.3,446.8 246.2,446.8" opacity="0.8"/>
    <polyline points="247.9,445.3 247.7,445.4 247.6,445.5 247.5,445.5" opacity="0.8"/>
    <polyline points="247.1,445.6 246.8,445.8 246.6,445.9 246.5,446.0 246.2,446.0 246.2,446.1 246.1,446.1" opacity="0.8"/>
    <polyline points="246.8,445.5 246.5,445.6 246.4,445.6 246.2,445.6 246.1,445.7 246.1,445.7" opacity="0.8"/>
    <polyline points="247.0,445.7 246.7,446.0 246.6,446.1 246.4,446.2 246.2,446.2 246.2,446.2 246.2,446.2" opacity="0.8"/>
    <polyline points="248.1,445.3 247.8,445.5 247.6,445.7 247.6,445.7" opacity="0.8"/>
    <polyline points="246.9,445.5 246.6,445.4 246.5,445.4 246.1,445.5 246.1,445.5 246.1,445.5" opacity="0.8"/>
    <polyline points="248.7,445.0 248.4,445.1 248.2,445.3 248.1,445.3 248.0,445.5 247.9,445.6 247.7,445.9 247.0,446.8 246.9,447.0 246.8,447.0 246.7,447.1 246.6,447.2 246.5,447.2 246.4,447.3 246.2,447.4 245.9,447.5" opacity="0.8"/>
    <polyline points="249.2,444.6 248.6,444.9 248.1,445.1 247.8,445.2 247.6,445.3 247.3,445.4" opacity="0.8"/>
    <polyline points="248.8,444.9 249.0,444.8 249.2,444.7" opacity="0.8"/>
    <polyline points="247.7,445.3 247.3,445.4 247.1,445.4 246.9,445.5 246.8,445.5 246.2,445.7 246.1,445.7 246.1,445.7" opacity="0.8"/>
    <polyline points="246.6,445.7 246.2,445.8 246.1,445.8 246.1,445.8" opacity="0.8"/>
  </g>

  <!-- 지하철 역 -->
  <g id="subway-stations">
    <circle cx="279.5" cy="418.8" r="4" fill="#dc2626" stroke="#fff" stroke-width="2"/>
    <text x="279.5" y="410.8" text-anchor="middle" font-size="10" fill="#374151">景田</text>
    <circle cx="399.4" cy="315.2" r="4" fill="#dc2626" stroke="#fff" stroke-width="2"/>
    <text x="399.4" y="307.2" text-anchor="middle" font-size="10" fill="#374151">塘坑</text>
    <circle cx="277.5" cy="341.6" r="4" fill="#dc2626" stroke="#fff" stroke-width="2"/>
    <text x="277.5" y="333.6" text-anchor="middle" font-size="10" fill="#374151">民治</text>
    <circle cx="227.3" cy="455.0" r="4" fill="#dc2626" stroke="#fff" stroke-width="2"/>
    <text x="227.3" y="447.0" text-anchor="middle" font-size="10" fill="#374151">深湾</text>
    <circle cx="226.7" cy="89.2" r="4" fill="#dc2626" stroke="#fff" stroke-width="2"/>
    <text x="226.7" y="81.2" text-anchor="middle" font-size="10" fill="#374151">黄江南</text>
    <circle cx="257.8" cy="314.1" r="4" fill="#dc2626" stroke="#fff" stroke-width="2"/>
    <text x="257.8" y="306.1" text-anchor="middle" font-size="10" fill="#374151">上芬</text>
    <circle cx="248.6" cy="295.1" r="4" fill="#dc2626" stroke="#fff" stroke-width="2"/>
    <text x="248.6" y="287.1" text-anchor="middle" font-size="10" fill="#374151">元芬</text>
    <circle cx="237.7" cy="281.1" r="4" fill="#dc2626" stroke="#fff" stroke-width="2"/>
    <text x="237.7" y="273.1" text-anchor="middle" font-size="10" fill="#374151">阳台山东</text>
    <circle cx="337.6" cy="429.5" r="4" fill="#dc2626" stroke="#fff" stroke-width="2"/>
    <text x="337.6" y="421.5" text-anchor="middle" font-size="10" fill="#374151">老街</text>
    <circle cx="349.2" cy="354.4" r="4" fill="#dc2626" stroke="#fff" stroke-width="2"/>
    <text x="349.2" y="346.4" text-anchor="middle" font-size="10" fill="#374151">木棉湾</text>
    <circle cx="342.1" cy="360.8" r="4" fill="#dc2626" stroke="#fff" stroke-width="2"/>
    <text x="342.1" y="352.8" text-anchor="middle" font-size="10" fill="#374151">布吉</text>
    <circle cx="269.1" cy="349.9" r="4" fill="#dc2626" stroke="#fff" stroke-width="2"/>
    <text x="269.1" y="341.9" text-anchor="middle" font-size="10" fill="#374151">深圳北站</text>
    <circle cx="252.8" cy="363.4" r="4" fill="#dc2626" stroke="#fff" stroke-width="2"/>
    <text x="252.8" y="355.4" text-anchor="middle" font-size="10" fill="#374151">长岭陂</text>
    <circle cx="244.3" cy="374.7" r="4" fill="#dc2626" stroke="#fff" stroke-width="2"/>
    <text x="244.3" y="366.7" text-anchor="middle" font-size="10" fill="#374151">塘朗</text>
    <circle cx="449.3" cy="222.2" r="4" fill="#dc2626" stroke="#fff" stroke-width="2"/>
    <text x="449.3" y="214.2" text-anchor="middle" font-size="10" fill="#374151">龙城广场</text>
    <circle cx="467.6" cy="207.9" r="4" fill="#dc2626" stroke="#fff" stroke-width="2"/>
    <text x="467.6" y="199.9" text-anchor="middle" font-size="10" fill="#374151">双龙</text>
    <circle cx="458.1" cy="216.1" r="4" fill="#dc2626" stroke="#fff" stroke-width="2"/>
    <text x="458.1" y="208.1" text-anchor="middle" font-size="10" fill="#374151">南联</text>
    <circle cx="433.0" cy="245.5" r="4" fill="#dc2626" stroke="#fff" stroke-width="2"/>
    <text x="433.0" y="237.5" text-anchor="middle" font-size="10" fill="#374151">爱联</text>
    <circle cx="428.0" cy="259.7" r="4" fill="#dc2626" stroke="#fff" stroke-width="2"/>
    <text x="428.0" y="251.7" text-anchor="middle" font-size="10" fill="#374151">大运</text>
    <circle cx="424.9" cy="274.9" r="4" fill="#dc2626" stroke="#fff" stroke-width="2"/>
    <text x="424.9" y="266.9" text-anchor="middle" font-size="10" fill="#374151">荷坳</text>
    <circle cx="419.9" cy="291.8" r="4" fill="#dc2626" stroke="#fff" stroke-width="2"/>
    <text x="419.9" y="283.8" text-anchor="middle" font-size="10" fill="#374151">永湖</text>
    <circle cx="412.6" cy="304.5" r="4" fill="#dc2626" stroke="#fff" stroke-width="2"/>
    <text x="412.6" y="296.5" text-anchor="middle" font-size="10" fill="#374151">横岗</text>
    <circle cx="389.7" cy="321.5" r="4" fill="#dc2626" stroke="#fff" stroke-width="2"/>
    <text x="389.7" y="313.5" text-anchor="middle" font-size="10" fill="#374151">六约</text>
    <circle cx="363.5" cy="339.1" r="4" fill="#dc2626" stroke="#fff" stroke-width="2"/>
    <text x="363.5" y="331.1" text-anchor="middle" font-size="10" fill="#374151">丹竹头</text>
    <circle cx="355.7" cy="345.8" r="4" fill="#dc2626" stroke="#fff" stroke-width="2"/>
    <text x="355.7" y="337.8" text-anchor="middle" font-size="10" fill="#374151">大芬</text>
    <circle cx="338.0" cy="381.7" r="4" fill="#dc2626" stroke="#fff" stroke-width="2"/>
    <text x="338.0" y="373.7" text-anchor="middle" font-size="10" fill="#374151">草埔</text>
    <circle cx="273.8" cy="285.9" r="4" fill="#dc2626" stroke="#fff" stroke-width="2"/>
    <text x="273.8" y="277.9" text-anchor="middle" font-size="10" fill="#374151">清湖</text>
    <circle cx="262.5" cy="300.8" r="4" fill="#dc2626" stroke="#fff" stroke-width="2"/>
    <text x="262.5" y="292.8" text-anchor="middle" font-size="10" fill="#374151">龙华</text>
    <circle cx="254.2" cy="309.1" r="4" fill="#dc2626" stroke="#fff" stroke-width="2"/>
    <text x="254.2" y="301.1" text-anchor="middle" font-size="10" fill="#374151">龙胜</text>
    <circle cx="254.8" cy="318.3" r="4" fill="#dc2626" stroke="#fff" stroke-width="2"/>
    <text x="254.8" y="310.3" text-anchor="middle" font-size="10" fill="#374151">上塘</text>
    <circle cx="263.2" cy="336.6" r="4" fill="#dc2626" stroke="#fff" stroke-width="2"/>
    <text x="263.2" y="328.6" text-anchor="middle" font-size="10" fill="#374151">红山</text>
    <circle cx="268.8" cy="350.3" r="4" fill="#dc2626" stroke="#fff" stroke-width="2"/>
    <text x="268.8" y="342.3" text-anchor="middle" font-size="10" fill="#374151">深圳北站</text>
    <circle cx="278.5" cy="361.1" r="4" fill="#dc2626" stroke="#fff" stroke-width="2"/>
    <text x="278.5" y="353.1" text-anchor="middle" font-size="10" fill="#374151">白石龙</text>
    <circle cx="283.5" cy="369.8" r="4" fill="#dc2626" stroke="#fff" stroke-width="2"/>
    <text x="283.5" y="361.8" text-anchor="middle" font-size="10" fill="#374151">民乐</text>
    <circle cx="92.5" cy="256.7" r="4" fill="#dc2626" stroke="#fff" stroke-width="2"/>
    <text x="92.5" y="248.7" text-anchor="middle" font-size="10" fill="#374151">桥头</text>
    <circle cx="98.1" cy="240.0" r="4" fill="#dc2626" stroke="#fff" stroke-width="2"/>
    <text x="98.1" y="232.0" text-anchor="middle" font-size="10" fill="#374151">塘尾</text>
    <circle cx="97.4" cy="222.1" r="4" fill="#dc2626" stroke="#fff" stroke-width="2"/>
    <text x="97.4" y="214.1" text-anchor="middle" font-size="10" fill="#374151">马安山</text>
    <circle cx="103.4" cy="205.6" r="4" fill="#dc2626" stroke="#fff" stroke-width="2"/>
    <text x="103.4" y="197.6" text-anchor="middle" font-size="10" fill="#374151">沙井</text>
    <circle cx="266.7" cy="439.6" r="4" fill="#dc2626" stroke="#fff" stroke-width="2"/>
    <text x="266.7" y="431.6" text-anchor="middle" font-size="10" fill="#374151">车公庙</text>
    <circle cx="351.4" cy="484.9" r="4" fill="#dc2626" stroke="#fff" stroke-width="2"/>
    <text x="351.4" y="476.9" text-anchor="middle" font-size="10" fill="#374151">上水 Sheung Shui</text>
    <circle cx="354.0" cy="427.8" r="4" fill="#dc2626" stroke="#fff" stroke-width="2"/>
    <text x="354.0" y="419.8" text-anchor="middle" font-size="10" fill="#374151">黄贝岭</text>
    <circle cx="277.0" cy="276.0" r="4" fill="#dc2626" stroke="#fff" stroke-width="2"/>
    <text x="277.0" y="268.0" text-anchor="middle" font-size="10" fill="#374151">清湖北</text>
    <circle cx="276.8" cy="258.5" r="4" fill="#dc2626" stroke="#fff" stroke-width="2"/>
    <text x="276.8" y="250.5" text-anchor="middle" font-size="10" fill="#374151">竹村</text>
    <circle cx="277.8" cy="244.3" r="4" fill="#dc2626" stroke="#fff" stroke-width="2"/>
    <text x="277.8" y="236.3" text-anchor="middle" font-size="10" fill="#374151">茜坑</text>
    <circle cx="280.3" cy="229.7" r="4" fill="#dc2626" stroke="#fff" stroke-width="2"/>
    <text x="280.3" y="221.7" text-anchor="middle" font-size="10" fill="#374151">长湖</text>
    <circle cx="288.6" cy="224.3" r="4" fill="#dc2626" stroke="#fff" stroke-width="2"/>
    <text x="288.6" y="216.3" text-anchor="middle" font-size="10" fill="#374151">观澜</text>
    <circle cx="306.0" cy="216.6" r="4" fill="#dc2626" stroke="#fff" stroke-width="2"/>
    <text x="306.0" y="208.6" text-anchor="middle" font-size="10" fill="#374151">观澜湖</text>
    <circle cx="296.4" cy="217.3" r="4" fill="#dc2626" stroke="#fff" stroke-width="2"/>
    <text x="296.4" y="209.3" text-anchor="middle" font-size="10" fill="#374151">松元厦</text>
    <circle cx="314.8" cy="213.9" r="4" fill="#dc2626" stroke="#fff" stroke-width="2"/>
    <text x="314.8" y="205.9" text-anchor="middle" font-size="10" fill="#374151">牛湖</text>
    <circle cx="349.0" cy="402.2" r="4" fill="#dc2626" stroke="#fff" stroke-width="2"/>
    <text x="349.0" y="394.2" text-anchor="middle" font-size="10" fill="#374151">田贝‎</text>
    <circle cx="441.0" cy="231.1" r="4" fill="#dc2626" stroke="#fff" stroke-width="2"/>
    <text x="441.0" y="223.1" text-anchor="middle" font-size="10" fill="#374151">吉祥</text>
    <circle cx="199.2" cy="460.8" r="4" fill="#dc2626" stroke="#fff" stroke-width="2"/>
    <text x="199.2" y="452.8" text-anchor="middle" font-size="10" fill="#374151">后海</text>
    <circle cx="183.2" cy="453.7" r="4" fill="#dc2626" stroke="#fff" stroke-width="2"/>
    <text x="183.2" y="445.7" text-anchor="middle" font-size="10" fill="#374151">南山</text>
    <circle cx="162.3" cy="437.9" r="4" fill="#dc2626" stroke="#fff" stroke-width="2"/>
    <text x="162.3" y="429.9" text-anchor="middle" font-size="10" fill="#374151">前海湾</text>
    <circle cx="148.5" cy="416.9" r="4" fill="#dc2626" stroke="#fff" stroke-width="2"/>
    <text x="148.5" y="408.9" text-anchor="middle" font-size="10" fill="#374151">宝安</text>
    <circle cx="128.2" cy="391.6" r="4" fill="#dc2626" stroke="#fff" stroke-width="2"/>
    <text x="128.2" y="383.6" text-anchor="middle" font-size="10" fill="#374151">碧海湾</text>
    <circle cx="95.0" cy="334.4" r="4" fill="#dc2626" stroke="#fff" stroke-width="2"/>
    <text x="95.0" y="326.4" text-anchor="middle" font-size="10" fill="#374151">机场</text>
    <circle cx="88.5" cy="274.5" r="4" fill="#dc2626" stroke="#fff" stroke-width="2"/>
    <text x="88.5" y="266.5" text-anchor="middle" font-size="10" fill="#374151">福永</text>
    <circle cx="105.3" cy="179.1" r="4" fill="#dc2626" stroke="#fff" stroke-width="2"/>
    <text x="105.3" y="171.1" text-anchor="middle" font-size="10" fill="#374151">后亭</text>
    <circle cx="107.6" cy="155.5" r="4" fill="#dc2626" stroke="#fff" stroke-width="2"/>
    <text x="107.6" y="147.5" text-anchor="middle" font-size="10" fill="#374151">松岗</text>
    <circle cx="99.8" cy="142.3" r="4" fill="#dc2626" stroke="#fff" stroke-width="2"/>
    <text x="99.8" y="134.3" text-anchor="middle" font-size="10" fill="#374151">碧头</text>
    <circle cx="287.3" cy="434.9" r="4" fill="#dc2626" stroke="#fff" stroke-width="2"/>
    <text x="287.3" y="426.9" text-anchor="middle" font-size="10" fill="#374151">福田</text>
    <circle cx="293.5" cy="441.3" r="4" fill="#dc2626" stroke="#fff" stroke-width="2"/>
    <text x="293.5" y="433.3" text-anchor="middle" font-size="10" fill="#374151">会展中心</text>
    <circle cx="354.8" cy="393.8" r="4" fill="#dc2626" stroke="#fff" stroke-width="2"/>
    <text x="354.8" y="385.8" text-anchor="middle" font-size="10" fill="#374151">太安</text>
    <circle cx="449.7" cy="376.6" r="4" fill="#dc2626" stroke="#fff" stroke-width="2"/>
    <text x="449.7" y="368.6" text-anchor="middle" font-size="10" fill="#374151">盐田路</text>
    <circle cx="442.7" cy="408.3" r="4" fill="#dc2626" stroke="#fff" stroke-width="2"/>
    <text x="442.7" y="400.3" text-anchor="middle" font-size="10" fill="#374151">盐田港西</text>
    <circle cx="384.2" cy="405.9" r="4" fill="#dc2626" stroke="#fff" stroke-width="2"/>
    <text x="384.2" y="397.9" text-anchor="middle" font-size="10" fill="#374151">莲塘</text>
    <circle cx="176.5" cy="443.9" r="4" fill="#dc2626" stroke="#fff" stroke-width="2"/>
    <text x="176.5" y="435.9" text-anchor="middle" font-size="10" fill="#374151">大新</text>
    <circle cx="207.6" cy="434.3" r="4" fill="#dc2626" stroke="#fff" stroke-width="2"/>
    <text x="207.6" y="426.3" text-anchor="middle" font-size="10" fill="#374151">高新园</text>
    <circle cx="255.8" cy="442.7" r="4" fill="#dc2626" stroke="#fff" stroke-width="2"/>
    <text x="255.8" y="434.7" text-anchor="middle" font-size="10" fill="#374151">竹子林</text>
    <circle cx="232.8" cy="442.6" r="4" fill="#dc2626" stroke="#fff" stroke-width="2"/>
    <text x="232.8" y="434.6" text-anchor="middle" font-size="10" fill="#374151">华侨城</text>
    <circle cx="320.6" cy="434.2" r="4" fill="#dc2626" stroke="#fff" stroke-width="2"/>
    <text x="320.6" y="426.2" text-anchor="middle" font-size="10" fill="#374151">科学馆</text>
    <circle cx="159.8" cy="425.3" r="4" fill="#dc2626" stroke="#fff" stroke-width="2"/>
    <text x="159.8" y="417.3" text-anchor="middle" font-size="10" fill="#374151">新安</text>
    <circle cx="275.5" cy="436.2" r="4" fill="#dc2626" stroke="#fff" stroke-width="2"/>
    <text x="275.5" y="428.2" text-anchor="middle" font-size="10" fill="#374151">香蜜湖</text>
    <circle cx="149.2" cy="410.3" r="4" fill="#dc2626" stroke="#fff" stroke-width="2"/>
    <text x="149.2" y="402.3" text-anchor="middle" font-size="10" fill="#374151">宝体</text>
    <circle cx="312.8" cy="434.6" r="4" fill="#dc2626" stroke="#fff" stroke-width="2"/>
    <text x="312.8" y="426.6" text-anchor="middle" font-size="10" fill="#374151">华强路</text>
    <circle cx="340.1" cy="435.3" r="4" fill="#dc2626" stroke="#fff" stroke-width="2"/>
    <text x="340.1" y="427.3" text-anchor="middle" font-size="10" fill="#374151">国贸</text>
    <circle cx="166.9" cy="444.2" r="4" fill="#dc2626" stroke="#fff" stroke-width="2"/>
    <text x="166.9" y="436.2" text-anchor="middle" font-size="10" fill="#374151">鲤鱼门</text>
    <circle cx="243.4" cy="427.1" r="4" fill="#dc2626" stroke="#fff" stroke-width="2"/>
    <text x="243.4" y="419.1" text-anchor="middle" font-size="10" fill="#374151">深康</text>
    <circle cx="235.6" cy="429.7" r="4" fill="#dc2626" stroke="#fff" stroke-width="2"/>
    <text x="235.6" y="421.7" text-anchor="middle" font-size="10" fill="#374151">侨城北</text>
    <circle cx="199.6" cy="386.0" r="4" fill="#dc2626" stroke="#fff" stroke-width="2"/>
    <text x="199.6" y="378.0" text-anchor="middle" font-size="10" fill="#374151">留仙洞</text>
    <circle cx="256.0" cy="423.2" r="4" fill="#dc2626" stroke="#fff" stroke-width="2"/>
    <text x="256.0" y="415.2" text-anchor="middle" font-size="10" fill="#374151">侨香</text>
    <circle cx="223.8" cy="438.4" r="4" fill="#dc2626" stroke="#fff" stroke-width="2"/>
    <text x="223.8" y="430.4" text-anchor="middle" font-size="10" fill="#374151">世界之窗</text>
    <circle cx="219.0" cy="452.7" r="4" fill="#dc2626" stroke="#fff" stroke-width="2"/>
    <text x="219.0" y="444.7" text-anchor="middle" font-size="10" fill="#374151">红树湾</text>
    <circle cx="201.1" cy="450.1" r="4" fill="#dc2626" stroke="#fff" stroke-width="2"/>
    <text x="201.1" y="442.1" text-anchor="middle" font-size="10" fill="#374151">科苑</text>
    <circle cx="196.6" cy="461.8" r="4" fill="#dc2626" stroke="#fff" stroke-width="2"/>
    <text x="196.6" y="453.8" text-anchor="middle" font-size="10" fill="#374151">后海</text>
    <circle cx="194.5" cy="472.0" r="4" fill="#dc2626" stroke="#fff" stroke-width="2"/>
    <text x="194.5" y="464.0" text-anchor="middle" font-size="10" fill="#374151">登良</text>
    <circle cx="194.6" cy="482.5" r="4" fill="#dc2626" stroke="#fff" stroke-width="2"/>
    <text x="194.6" y="474.5" text-anchor="middle" font-size="10" fill="#374151">海月</text>
    <circle cx="195.2" cy="490.4" r="4" fill="#dc2626" stroke="#fff" stroke-width="2"/>
    <text x="195.2" y="482.4" text-anchor="middle" font-size="10" fill="#374151">湾厦</text>
    <circle cx="189.4" cy="499.3" r="4" fill="#dc2626" stroke="#fff" stroke-width="2"/>
    <text x="189.4" y="491.3" text-anchor="middle" font-size="10" fill="#374151">东角头</text>
    <circle cx="180.0" cy="496.6" r="4" fill="#dc2626" stroke="#fff" stroke-width="2"/>
    <text x="180.0" y="488.6" text-anchor="middle" font-size="10" fill="#374151">水湾</text>
    <circle cx="176.3" cy="500.6" r="4" fill="#dc2626" stroke="#fff" stroke-width="2"/>
    <text x="176.3" y="492.6" text-anchor="middle" font-size="10" fill="#374151">海上世界</text>
    <circle cx="162.1" cy="507.6" r="4" fill="#dc2626" stroke="#fff" stroke-width="2"/>
    <text x="162.1" y="499.6" text-anchor="middle" font-size="10" fill="#374151">赤湾</text>
    <circle cx="174.1" cy="510.7" r="4" fill="#dc2626" stroke="#fff" stroke-width="2"/>
    <text x="174.1" y="502.7" text-anchor="middle" font-size="10" fill="#374151">蛇口港</text>
    <circle cx="270.9" cy="418.2" r="4" fill="#dc2626" stroke="#fff" stroke-width="2"/>
    <text x="270.9" y="410.2" text-anchor="middle" font-size="10" fill="#374151">香梅北</text>
    <circle cx="294.1" cy="434.2" r="4" fill="#dc2626" stroke="#fff" stroke-width="2"/>
    <text x="294.1" y="426.2" text-anchor="middle" font-size="10" fill="#374151">市民中心</text>
    <circle cx="300.2" cy="434.1" r="4" fill="#dc2626" stroke="#fff" stroke-width="2"/>
    <text x="300.2" y="426.1" text-anchor="middle" font-size="10" fill="#374151">岗厦北</text>
    <circle cx="313.0" cy="429.8" r="4" fill="#dc2626" stroke="#fff" stroke-width="2"/>
    <text x="313.0" y="421.8" text-anchor="middle" font-size="10" fill="#374151">华强北</text>
    <circle cx="318.3" cy="429.6" r="4" fill="#dc2626" stroke="#fff" stroke-width="2"/>
    <text x="318.3" y="421.6" text-anchor="middle" font-size="10" fill="#374151">燕南</text>
    <circle cx="345.3" cy="429.8" r="4" fill="#dc2626" stroke="#fff" stroke-width="2"/>
    <text x="345.3" y="421.8" text-anchor="middle" font-size="10" fill="#374151">湖贝</text>
  </g>
</svg>