<?xml version="1.0" encoding="UTF-8"?>
<svg width="800" height="600" xmlns="http://www.w3.org/2000/svg">
  <title>Shenzhen Subway Map</title>
  <rect width="100%" height="100%" fill="#f8f9fa"/>

  <!-- 지하철 선로 -->
  <g stroke="#2563eb" stroke-width="2" fill="none" opacity="0.8">
    <polyline points="334.6,430.2 333.8,430.6 333.4,430.8 333.0,431.0 332.6,431.3 332.3,431.5 332.1,431.7 331.8,432.0 331.2,432.6 330.4,433.3 330.2,433.5 330.0,433.7 329.7,433.8 329.5,433.9 329.3,433.9 329.0,434.0 323.0,434.1 321.5,434.0 320.6,434.0 319.4,434.1 319.1,434.1 318.1,434.3 317.7,434.4 315.2,434.5 314.0,434.4 312.8,434.4 311.6,434.5 309.9,434.6"/>
    <polyline points="288.6,473.6 287.6,473.8 287.3,473.8 286.5,473.8 285.9,473.8 285.5,473.8 285.2,473.8 284.9,473.7 284.6,473.7 284.4,473.5 284.2,473.2 284.1,473.0 284.1,472.6 284.1,472.3 284.1,471.9 284.2,471.7 284.2,471.3 284.2,471.1 284.2,468.6 284.3,468.1 284.4,467.8 284.6,466.9"/>
    <polyline points="296.6,456.4 296.4,455.1 296.2,454.2 295.7,451.3 295.4,449.9 295.4,449.7 295.3,449.5 295.3,449.3 295.2,449.1 295.1,448.8 294.9,448.1 294.3,446.8 293.9,445.8 293.8,445.5 293.7,445.3 293.6,445.0 293.6,444.7 293.5,444.3 293.5,443.9 293.5,443.6 293.5,443.3"/>
    <polyline points="255.8,358.8 256.4,358.6 257.0,358.3 257.4,358.1 257.8,357.9 258.2,357.6 258.6,357.4 259.0,357.1 259.4,357.0 259.9,356.8 260.6,356.6 260.9,356.5 261.3,356.3 262.7,355.6 263.4,355.4 263.9,355.1 264.4,354.9 264.9,354.7 265.3,354.5 265.6,354.2 265.9,354.0 266.0,353.9 266.1,353.8 269.2,349.9 270.4,348.4 270.7,348.1 270.9,347.9 271.2,347.7 271.5,347.4 271.9,347.2 272.1,347.0 272.3,346.8 272.5,346.6 272.7,346.4 272.9,346.1 273.1,345.8 273.4,345.4 273.6,345.0 274.0,344.6 274.2,344.3 274.4,344.0 274.6,343.8 274.9,343.7 275.1,343.5 275.4,343.3 275.7,343.1 276.0,342.9 276.6,342.4 277.5,341.7 277.9,341.4 279.4,340.2 280.8,339.1 281.4,338.5 281.8,338.3 282.1,338.0 282.4,337.7 282.8,337.4 283.5,336.8 284.8,335.7 287.6,333.5 287.8,333.3 288.0,333.1 288.2,332.9 288.5,332.5 289.2,331.6 289.4,331.4 289.6,331.2 289.7,331.1 289.9,330.9 290.2,330.8 290.5,330.7 290.9,330.6 291.1,330.6 291.3,330.6 291.8,330.6 292.3,330.7 293.2,330.9 294.3,331.0 294.6,331.0 294.9,331.0 295.1,331.0 295.7,330.9 296.8,330.8 297.5,330.7 300.8,330.1 302.7,329.8 303.6,329.7 304.1,329.8 304.8,329.9 306.0,330.2 308.9,331.0 312.2,331.9 328.9,336.4 329.9,336.7 330.3,336.9 330.6,337.1 330.9,337.4 331.6,338.3 332.0,338.8 332.2,339.3 332.4,339.7 332.5,340.3 333.3,345.1 333.5,346.1 333.7,347.1 334.0,347.8 334.3,349.0 334.5,349.7 334.6,350.3 334.6,351.1 334.7,351.6 334.7,351.9 334.8,352.1 335.1,352.5 335.5,352.9 336.9,354.4 337.1,354.6 337.2,354.8 338.2,357.1 338.4,357.4 338.6,357.6 339.1,358.1 339.3,358.3 339.6,358.6 340.0,358.8 340.2,358.9 341.9,359.6 343.5,360.3 343.6,360.4 343.8,360.5 344.1,360.5 344.4,360.5 346.3,360.5 346.8,360.5 347.1,360.7 347.5,361.0 347.9,361.5 348.2,362.1 348.5,362.6 348.8,363.5 349.0,364.3 349.0,365.2 349.1,366.1 349.1,368.8 349.2,369.3 349.3,370.3 349.4,371.3 349.5,372.4 349.6,372.6 349.7,372.9 349.8,373.1 349.9,373.4 350.1,373.7 350.3,374.2 353.6,380.8 354.3,382.1 354.6,382.5 355.0,383.4 355.3,384.3 355.3,385.1 355.4,385.9 355.4,387.5 355.1,391.5 354.8,393.8 354.5,395.5 353.7,399.7 353.3,402.1 353.0,404.1 352.7,406.2 352.7,407.4 352.9,408.6 353.3,409.5 353.9,410.6 354.1,411.1 354.7,412.2 355.9,414.2 357.0,415.8 357.7,417.0 359.8,420.6 359.9,420.8 360.0,421.0 360.0,421.2 359.9,421.4 359.9,421.6 359.8,421.8 359.1,423.6 358.1,426.0 358.0,426.5 357.9,426.6 357.8,426.7 357.8,426.7 357.8,426.8 357.7,426.8 357.7,426.8 357.6,426.8 357.6,426.9 357.1,427.0 354.1,427.6"/>
    <polyline points="372.4,335.7 372.6,335.4 372.8,335.0 372.9,334.7 373.5,333.5 373.9,332.6 374.4,331.5 374.8,330.8 375.1,330.3 375.6,329.4 375.9,329.1 376.7,327.9 377.1,327.4 377.5,327.0 377.9,326.6 378.2,326.3 378.7,325.9 379.2,325.5 379.7,325.1 380.3,324.7 380.9,324.3 381.5,324.0 382.2,323.6 382.9,323.3 383.3,323.1 383.8,322.9 384.2,322.8 385.0,322.6 386.3,322.3 388.0,321.9 388.3,321.9 388.5,321.8 388.8,321.8 389.3,321.7 389.7,321.6 390.3,321.5 390.6,321.4 390.8,321.4 390.9,321.3 391.1,321.2 391.3,321.2 391.5,321.0 391.8,320.9 392.1,320.7 392.3,320.6 392.5,320.4 392.9,320.1"/>
    <polyline points="369.5,337.9 369.9,337.7 370.4,337.5 370.9,337.3 371.1,337.1 371.3,336.9 371.7,336.6 371.9,336.3 372.2,336.0 372.4,335.7"/>
    <polyline points="341.1,390.8 340.9,390.0 340.8,389.6 340.7,389.3 340.6,388.4 340.4,387.5 340.3,387.1 340.2,386.6"/>
    <polyline points="392.9,320.1 394.0,319.3 396.7,317.5 399.4,315.6 399.9,315.3 402.3,313.7 403.5,313.0 404.8,312.4"/>
    <polyline points="404.8,312.4 405.5,312.1 405.9,311.9 406.3,311.6 406.6,311.4 406.9,311.1 407.2,310.8 407.8,310.2 410.5,307.1 411.1,306.4 411.5,305.9 411.9,305.5 412.3,305.0 412.6,304.5 413.0,304.1 413.3,303.6 413.5,303.3 413.6,303.0 413.8,302.6 415.8,298.8 416.1,298.3 416.3,298.0 416.5,297.7 416.8,297.3 418.1,295.6 418.4,295.2 418.7,294.7 419.0,294.2 419.3,293.7 419.5,293.0 419.7,292.5 419.9,291.8 420.1,291.2 420.5,289.7 420.9,288.7 421.1,287.8 421.3,287.1 421.5,286.5 421.6,285.9 421.7,285.3 422.3,281.7 422.4,281.4 422.5,281.0 422.6,280.6 422.7,280.3 422.8,280.0 422.9,279.7 424.1,276.9 424.4,276.1 424.7,275.5 424.9,274.9 425.2,274.3 425.6,273.4"/>
    <polyline points="350.4,353.2 351.4,352.2 352.0,351.5 352.6,350.9 352.8,350.6 353.2,350.1 354.0,348.9 354.8,347.3 354.8,347.3 355.4,346.3 355.7,345.8 356.1,344.9 356.6,344.1 357.6,342.3 358.0,341.7 358.1,341.4 358.3,341.1 358.4,340.9 358.6,340.7 358.8,340.5 359.1,340.2 359.4,339.9 359.8,339.6 360.1,339.5 360.4,339.3 360.6,339.3 360.9,339.2 361.2,339.2 361.5,339.1 361.8,339.1 362.4,339.1 362.8,339.1 363.0,339.0 363.5,339.0 364.0,339.0 364.4,339.0 364.7,339.0 365.1,338.9 365.8,338.7 366.9,338.5 368.0,338.2 369.5,337.9"/>
    <polyline points="162.4,442.6 162.4,437.8 162.4,435.8 162.3,435.1 162.3,434.4 162.2,433.8 162.1,433.4 161.9,432.9 161.7,432.5 161.5,432.2 161.4,431.9 160.9,431.4 160.5,431.1 160.0,430.8 159.4,430.6 156.3,429.6 155.5,429.4 154.9,429.2 154.6,429.1 154.3,428.9 154.0,428.8 153.6,428.6 153.4,428.4 153.2,428.2 153.0,428.0 152.9,427.9 152.8,427.8 152.7,427.6 152.6,427.4 152.5,427.2 152.4,427.0 152.4,426.7 152.3,426.5 152.3,426.3 152.3,425.9 152.3,425.1 152.2,424.8 152.3,424.5 152.3,424.0 152.3,422.9 152.3,422.0 152.3,421.4 152.3,421.0 152.4,420.0 152.4,419.8 152.4,419.6 152.5,419.6 152.5,419.4 152.5,419.3 152.6,419.1 152.7,418.9 152.8,418.6 153.0,418.3 153.8,417.3 153.9,417.1 158.5,411.2 158.9,410.7 167.5,399.7 172.8,392.9 175.5,389.5 176.8,387.9 179.4,384.4 179.7,384.1 180.0,383.8 180.5,383.4 181.0,383.2 181.6,383.1 182.3,383.1 184.4,383.3 186.7,383.9 189.9,384.9 191.1,385.3 192.2,385.7 193.6,385.9 195.0,386.1 199.6,385.9 205.1,385.8 207.4,385.8 208.8,385.7 212.4,385.6 212.6,385.6 212.9,385.5 213.3,385.4 213.8,385.1 214.2,384.9 215.1,384.6 216.5,384.0 217.8,383.4 218.1,383.4 218.5,383.4 218.8,383.4 219.7,383.5 222.4,383.6 223.1,383.5 223.6,383.3 224.1,383.0 225.8,381.7 226.1,381.5 226.6,381.3 227.0,381.2 228.3,381.2 231.8,381.3 232.0,381.3 232.2,381.3"/>
    <polyline points="472.1,184.8 472.2,183.8 472.2,183.5 472.2,183.2 472.2,182.7 472.2,182.4 472.2,181.0 472.2,180.1 472.1,179.6 472.1,179.2 472.0,178.9 471.9,178.6 471.8,178.4 471.7,178.1 471.0,176.9 470.8,176.6 470.7,176.2 470.6,175.9 470.6,175.6 470.4,172.8 470.3,172.5 470.3,172.1 470.2,171.6 470.2,171.1 470.2,170.6 470.2,170.2 470.3,169.6 470.4,169.2 470.9,167.7 471.3,166.6 471.6,165.5 471.8,164.9 472.1,164.3 473.4,160.9 473.8,160.2 474.1,159.7 474.3,159.3 474.7,159.0 475.0,158.6 475.4,158.4 476.5,157.6 477.4,156.9 478.4,156.2 478.7,156.1 479.0,156.0 479.2,155.9 479.4,155.8 482.7,155.0 483.2,154.9 485.2,154.6 485.4,154.5 485.6,154.4 485.7,154.4 485.8,154.3 486.0,154.2 486.1,154.1 486.7,153.4 487.0,153.1 487.2,152.8 487.5,152.5 487.8,152.2 488.2,151.9 488.5,151.6 488.7,151.4 488.9,151.2 489.2,151.1 489.3,151.0 489.5,150.8 490.2,150.2 491.3,149.1 491.6,148.8 492.0,148.4 492.3,148.1 492.6,147.7 492.9,147.5 493.3,147.2 493.5,147.0 493.8,146.8 494.3,146.3 494.6,146.1 495.0,145.7 495.3,145.4 495.7,145.2 496.1,144.8 497.2,144.0 497.6,143.7 500.0,141.6 502.0,139.7 502.3,139.3 502.6,139.1 502.7,138.9 502.9,138.6 503.1,138.4 503.4,138.0"/>
    <polyline points="468.8,207.1 468.1,207.7 467.6,208.0"/>
    <polyline points="372.4,335.7 372.2,336.1 371.9,336.4 371.6,336.7 371.3,337.0 371.0,337.2 370.6,337.4 370.4,337.6 370.0,337.7 369.9,337.8 369.5,337.9 369.0,338.0 367.9,338.3 367.1,338.5 365.7,338.8 364.7,339.0 364.5,339.1 364.3,339.1 364.0,339.1 363.5,339.1 362.9,339.2 362.4,339.2 361.8,339.2 361.4,339.2 361.1,339.3 360.8,339.3 360.4,339.4 360.1,339.5 359.8,339.7 359.5,339.9 359.2,340.1 359.0,340.3 358.8,340.5 358.6,340.7 358.5,340.9 358.3,341.2 358.2,341.4 358.0,341.8 357.7,342.3 356.6,344.2 355.8,345.7 355.7,345.8 355.6,346.0 355.4,346.3 354.9,347.3 354.9,347.4 354.6,347.8 354.0,348.9 353.3,350.2 352.9,350.7 352.6,351.0 352.1,351.5 351.4,352.2 350.6,353.1 350.5,353.2"/>
    <polyline points="350.5,353.2 350.1,353.5 349.7,353.9 349.6,354.1 349.2,354.5 348.8,354.9 348.4,355.3 348.3,355.4 348.1,355.6 347.9,355.7 347.7,355.8 347.2,356.2 345.4,357.5 344.6,358.2 344.3,358.4 344.1,358.5 343.4,359.0 343.3,359.2 343.1,359.3 343.0,359.4 342.9,359.6 342.8,359.8 342.7,360.0 342.4,360.3 342.2,360.9 341.8,361.4 341.6,361.8 341.5,362.1 341.3,362.5 341.0,363.1 340.8,363.4 339.7,365.3 339.4,365.9 339.1,366.2 338.9,366.9 338.1,369.0 337.4,371.0 336.9,372.7 336.8,373.1 336.7,373.3 336.7,373.6 336.6,374.2"/>
    <polyline points="282.3,367.4 282.1,366.9 281.8,366.4 281.5,365.9 281.3,365.4 280.9,364.9 280.7,364.5 280.5,364.2 280.4,363.9 279.9,363.0 279.7,362.6"/>
    <polyline points="232.2,381.3 232.4,381.3 232.7,381.2 232.9,381.2 233.1,381.1"/>
    <polyline points="309.9,434.6 307.8,434.7 307.2,434.7 306.8,434.8 306.4,435.0 306.1,435.2 305.8,435.5 305.6,435.8 305.4,436.1 305.3,436.4 305.2,436.6 304.8,437.5 304.7,437.7 304.6,438.0 304.4,438.2 304.3,438.4 304.1,438.6 303.9,438.8 303.6,439.0 303.4,439.2 301.0,440.6 300.8,440.8 300.6,440.8 300.4,440.9 300.3,441.0 300.1,441.0 299.9,441.0 299.6,441.0 299.1,441.1 293.7,441.2 289.9,441.3 288.4,441.3 286.9,441.4 286.4,441.3 285.9,441.2 285.4,441.1 284.9,440.9 284.4,440.6 284.0,440.3 283.6,439.9 283.2,439.5 280.9,437.2 280.5,436.8 280.0,436.4 279.5,436.1 279.1,435.9 278.8,435.9 278.3,435.8 277.7,435.8 277.0,435.8 276.3,435.9 275.5,436.1 273.0,436.8 272.7,436.9 272.2,437.1 271.9,437.3 271.5,437.4 271.1,437.5 265.2,439.0 263.3,439.5 263.0,439.6 262.6,439.7 262.3,439.8 262.0,440.0 261.7,440.2 259.7,441.4 259.5,441.6 259.2,441.7 258.9,441.8 257.4,442.2 256.4,442.4 255.8,442.6 255.1,442.7 254.6,442.9 254.3,442.9 253.9,443.0 253.6,443.1 252.6,443.3 251.6,443.5 250.4,443.6 248.1,443.9 246.8,444.0 245.4,444.2 244.9,444.3 244.4,444.2 243.8,444.2 243.1,444.1 242.5,443.9 242.1,443.7 241.7,443.6 239.7,442.8 239.3,442.7 239.0,442.6 238.7,442.6 235.2,442.5 234.7,442.4 234.0,442.3 233.6,442.3 232.8,442.3 231.1,442.2 230.7,442.2 230.4,442.1 230.2,442.1 229.9,441.9 229.6,441.8 228.4,440.8 228.1,440.6 227.7,440.4 223.9,438.3 222.4,437.5"/>
    <polyline points="315.9,213.1 314.9,213.7 314.5,213.9 314.2,214.0 314.0,214.1 313.7,214.2 313.4,214.2 313.1,214.3 312.6,214.3 312.3,214.3 312.0,214.3 311.8,214.3 311.4,214.2 311.1,214.2 310.8,214.1 310.6,214.1 310.4,214.1 310.2,214.1 310.0,214.2 309.8,214.2 309.6,214.3 309.3,214.4 309.1,214.6 308.8,214.7 308.6,214.9 308.4,215.1 308.2,215.3 307.8,215.5 307.6,215.7 307.4,215.8 307.1,216.0 306.9,216.1 306.0,216.5 305.2,216.8 304.7,217.0 304.5,217.1 304.3,217.1 304.1,217.2 303.8,217.2 303.6,217.2 303.4,217.2 303.0,217.2 301.9,217.0 300.5,216.8 300.4,216.8 299.8,216.9 297.9,217.1 296.4,217.3 295.1,217.4 294.8,217.5 293.9,217.7 293.4,217.9 293.2,218.1 292.7,218.7 291.2,220.8 289.1,223.6 288.8,223.9 288.5,224.2 288.3,224.6 287.9,224.9 285.3,226.3 284.2,226.8 283.7,227.0 283.4,227.1 282.2,227.5 281.6,227.9 281.0,228.3 280.7,228.8 280.5,229.2 280.3,229.7 280.2,229.9 280.0,231.2 279.6,233.1 279.0,236.9 278.7,238.8 278.0,243.1 277.8,244.3 277.1,247.6 276.9,249.3 277.0,250.1 277.2,252.4 277.3,254.1 277.3,254.7 277.2,255.7 276.8,258.5 276.7,259.2 276.1,263.1 276.0,263.6 276.0,264.1 276.0,264.5 276.2,265.3 276.6,266.0 277.0,266.5"/>
    <polyline points="165.5,503.8 165.7,504.2 165.7,504.4 165.8,504.7 165.8,505.0 165.9,505.3 165.9,505.5 166.0,505.7 166.0,505.8"/>
    <polyline points="165.7,505.6 165.6,505.3 165.6,504.9 165.5,504.4 165.5,504.1 165.5,504.0 165.4,503.8 165.4,503.6 165.2,503.1"/>
    <polyline points="165.1,502.8 165.2,503.0 165.4,503.4 165.4,503.6 165.5,503.8 165.7,504.1 165.9,504.5 166.0,504.9 166.3,505.5"/>
    <polyline points="165.7,504.8 165.7,505.2 165.7,505.4 165.7,505.6 165.7,505.8"/>
    <polyline points="165.6,505.3 165.5,504.8 165.4,504.7 165.4,504.6 165.3,504.4 164.4,502.9"/>
    <polyline points="165.7,504.1 165.8,504.5 165.9,504.8 165.9,505.1 166.0,505.3 166.0,505.5 166.1,505.7"/>
    <polyline points="165.4,503.6 165.5,503.9 165.6,504.2 165.7,504.6 165.7,504.8 165.7,505.2 165.8,505.4 165.8,505.6 165.9,505.8 165.9,505.9"/>
    <polyline points="165.9,504.5 166.0,504.8 166.1,505.1 166.1,505.3 166.2,505.5 166.2,505.6"/>
    <polyline points="248.4,445.0 248.1,445.1"/>
    <polyline points="246.9,445.5 246.6,445.7 246.4,445.8 246.3,445.8 246.2,445.8 246.2,445.8 246.1,445.9"/>
    <polyline points="247.4,445.4 247.0,445.7 246.7,445.9 246.6,446.0 246.4,446.1 246.2,446.1 246.2,446.1 246.1,446.1"/>
    <polyline points="249.2,444.8 249.0,444.8 248.8,444.9"/>
    <polyline points="249.2,444.7 249.2,444.7 248.8,444.9 248.4,445.0 247.8,445.3 247.7,445.3 247.4,445.4 247.1,445.6 246.7,445.8 246.6,445.8 246.2,445.9 246.2,445.9 246.1,446.0"/>
    <polyline points="247.1,445.4 246.9,445.5 246.5,445.5 246.2,445.6 246.1,445.6 246.1,445.6"/>
    <polyline points="247.2,446.3 246.7,446.6 246.6,446.6 246.3,446.7 246.3,446.7 246.2,446.7"/>
    <polyline points="246.2,447.4 243.5,448.1"/>
    <polyline points="249.2,444.7 249.2,444.8 248.8,444.9 248.7,445.0 248.4,445.1 248.1,445.2 247.9,445.3 247.7,445.4 247.6,445.5 247.5,445.5"/>
    <polyline points="249.0,444.5 248.5,444.8 248.3,444.9 248.2,445.0 247.9,445.2 247.8,445.2"/>
    <polyline points="248.4,445.1 248.1,445.3 247.6,445.6 247.6,445.6"/>
    <polyline points="247.4,446.2 247.2,446.3 246.9,446.5 246.8,446.6 246.7,446.6 246.3,446.8 246.3,446.8 246.2,446.8"/>
    <polyline points="247.9,445.3 247.7,445.4 247.6,445.5 247.5,445.5"/>
    <polyline points="247.1,445.6 246.8,445.8 246.6,445.9 246.5,446.0 246.2,446.0 246.2,446.1 246.1,446.1"/>
    <polyline points="246.8,445.5 246.5,445.6 246.4,445.6 246.2,445.6 246.1,445.7 246.1,445.7"/>
    <polyline points="247.0,445.7 246.7,446.0 246.6,446.1 246.4,446.2 246.2,446.2 246.2,446.2 246.2,446.2"/>
    <polyline points="248.1,445.3 247.8,445.5 247.6,445.7 247.6,445.7"/>
    <polyline points="246.9,445.5 246.6,445.4 246.5,445.4 246.1,445.5 246.1,445.5 246.1,445.5"/>
    <polyline points="248.7,445.0 248.4,445.1 248.2,445.3 248.1,445.3 248.0,445.5 247.9,445.6 247.7,445.9 247.0,446.8 246.9,447.0 246.8,447.0 246.7,447.1 246.6,447.2 246.5,447.2 246.4,447.3 246.2,447.4 245.9,447.5"/>
    <polyline points="249.2,444.6 248.6,444.9 248.1,445.1 247.8,445.2 247.6,445.3 247.3,445.4"/>
    <polyline points="248.8,444.9 249.0,444.8 249.2,444.7"/>
    <polyline points="247.7,445.3 247.3,445.4 247.1,445.4 246.9,445.5 246.8,445.5 246.2,445.7 246.1,445.7 246.1,445.7"/>
    <polyline points="246.6,445.7 246.2,445.8 246.1,445.8 246.1,445.8"/>
    <polyline points="248.4,445.1 248.2,445.3 248.1,445.5 248.0,445.6 247.0,447.0"/>
    <polyline points="248.1,445.2 247.8,445.3"/>
    <polyline points="243.5,448.2 245.9,447.5 246.4,447.4 251.2,446.2"/>
    <polyline points="248.2,445.3 248.1,445.6 248.0,445.7 248.0,445.8 247.8,446.1 247.3,446.9"/>
    <polyline points="248.0,445.8 247.8,446.1 247.4,446.9"/>
    <polyline points="247.7,445.9 247.4,446.2 247.1,446.5 247.0,446.6 246.9,446.7 246.7,446.7 246.3,446.9 246.3,446.9 246.2,446.9"/>
    <polyline points="247.6,445.3 247.4,445.3 247.0,445.3 246.8,445.2 246.6,445.1 246.4,445.1 246.2,445.1 246.1,445.1 246.1,445.2 246.0,445.2"/>
    <polyline points="249.2,444.6 250.3,444.0 251.0,443.7 251.4,443.6 251.7,443.5 252.0,443.5 252.5,443.4 252.7,443.4 253.0,443.4"/>
    <polyline points="247.4,445.3 247.0,445.3 246.6,445.4 246.4,445.4 246.1,445.5 246.1,445.5 246.1,445.5"/>
    <polyline points="247.0,445.3 246.7,445.3 246.5,445.3 246.1,445.4 246.1,445.4 246.0,445.4"/>
    <polyline points="246.8,445.2 246.4,445.1 246.3,445.2 246.1,445.2 246.1,445.2 246.0,445.2"/>
    <polyline points="247.0,445.3 246.8,445.2 246.5,445.2 246.3,445.2 246.1,445.3 246.1,445.3 246.0,445.3"/>
    <polyline points="246.8,445.2 246.4,445.3 246.3,445.3 246.1,445.3 246.1,445.3 246.0,445.3"/>
    <polyline points="258.1,305.4 257.8,305.6 257.5,305.8 257.4,305.9 256.3,307.0 256.1,307.2 256.0,307.3 255.9,307.4 255.7,307.5 255.5,307.6"/>
    <polyline points="114.1,334.8 113.8,332.6 113.7,332.1 113.5,331.5 113.4,331.1 113.4,330.8 113.3,330.5 113.2,330.2 113.1,329.9 112.9,329.6 112.7,329.0 112.2,327.9 111.6,326.5 111.4,326.1 111.2,325.6 111.0,325.1 110.7,324.7 110.6,324.4 110.4,324.2 110.2,323.9 109.9,323.6 109.3,322.8 108.6,321.9 108.5,321.7 108.3,321.4 108.1,321.0 108.0,320.9 107.9,320.8 107.8,320.7 107.6,320.3 107.5,320.0 107.4,319.9 107.4,319.7 107.2,319.4 107.1,319.1 107.0,319.0 107.0,318.9 106.8,318.4 106.4,317.3 106.2,317.0 106.1,316.7 106.0,316.5 105.9,316.3 105.6,315.8 105.5,315.4 105.4,315.3 105.3,315.2 105.3,315.0 105.1,314.7 105.0,314.5 105.0,314.3 104.9,314.2 104.7,313.7 104.4,312.8 103.3,309.7 103.0,309.0 102.9,308.5 102.6,307.9 102.2,306.8 101.9,306.0"/>
    <polyline points="166.0,504.4 166.4,504.7 166.5,504.8 166.6,504.9 166.7,505.0"/>
    <polyline points="165.9,504.8 165.9,505.0 165.9,505.2 166.0,505.5 166.0,505.6 166.1,505.7"/>
    <polyline points="165.9,504.5 166.0,504.7 166.2,505.0 166.4,505.4"/>
    <polyline points="166.2,504.6 166.5,504.9 166.5,505.0 166.6,505.1"/>
    <polyline points="164.4,503.0 165.2,504.5 165.3,504.6 165.3,504.7 165.4,504.9 165.5,505.1"/>
    <polyline points="166.2,505.0 166.3,505.2 166.4,505.3 166.4,505.3"/>
    <polyline points="165.8,504.2 166.0,504.5 166.1,504.7 166.3,504.9 166.4,505.1 166.5,505.2"/>
    <polyline points="166.0,504.7 166.4,505.1 166.4,505.2 166.5,505.3"/>
    <polyline points="164.3,503.1 165.2,504.5 165.2,504.7 165.3,504.8 165.5,505.1 165.6,505.3 165.7,505.6 165.7,505.8"/>
    <polyline points="166.1,504.7 166.3,504.9 166.4,505.0 166.5,505.1 166.6,505.2"/>
    <polyline points="166.0,504.9 166.2,505.3 166.2,505.5 166.3,505.5"/>
    <polyline points="166.3,504.9 166.4,505.1 166.5,505.1 166.5,505.2"/>
    <polyline points="165.9,505.1 166.0,505.3 166.1,505.5 166.2,505.6"/>
    <polyline points="165.4,505.1 165.2,504.8 165.1,504.6 164.6,503.8"/>
    <polyline points="165.5,504.5 165.4,504.1 165.4,503.9 165.4,503.7 165.2,503.2"/>
    <polyline points="165.2,502.8 165.5,503.7"/>
    <polyline points="165.8,504.7 165.8,505.0 165.8,505.3 165.9,505.5 165.9,505.7 166.0,505.8"/>
    <polyline points="165.4,503.4 165.5,503.7 165.6,503.8 165.8,504.2 165.9,504.5 166.0,504.8 166.1,505.0 166.2,505.1 166.3,505.3 166.3,505.5"/>
    <polyline points="165.6,503.8 165.8,504.1 165.8,504.2 165.9,504.3 166.0,504.4 166.1,504.5 166.2,504.6 166.3,504.6 166.5,504.8 166.5,504.9 166.7,505.1"/>
    <polyline points="165.6,504.9 165.5,504.5 165.4,504.3 165.4,504.0 165.3,503.8 165.3,503.6 165.1,503.3"/>
    <polyline points="164.6,503.7 165.1,504.6 165.4,505.1 165.6,505.3"/>
    <polyline points="165.5,503.9 165.4,503.5 165.1,502.9"/>
    <polyline points="253.5,361.8 253.3,362.2 253.2,362.5 253.2,362.6 252.4,364.5 252.4,364.6 252.3,364.9 252.2,365.0 252.2,365.2 252.0,365.7 251.9,365.8 251.8,366.2 251.6,366.5 251.6,366.6 251.3,367.1 251.2,367.3 251.0,367.6 250.0,369.4"/>
    <polyline points="249.3,372.0 249.2,372.2 249.1,372.3 248.9,372.5 248.7,372.7 248.5,373.0 247.9,373.7 246.9,374.8"/>
    <polyline points="346.3,417.6 348.8,415.5 350.1,414.4 350.9,413.6 351.3,413.3 351.5,413.1 351.7,412.8 351.8,412.6 351.9,412.1 352.0,411.6 352.0,411.2 352.0,410.8 352.0,410.3 351.8,409.8 351.7,409.5 351.3,408.8 350.2,406.9 349.9,406.3 349.6,405.6 349.0,403.7 349.0,402.6 349.0,402.5 349.0,402.4 349.0,402.2 348.9,401.9 348.9,401.6 348.4,398.6 348.2,397.1 348.1,396.8 347.8,395.8 347.7,395.4 347.7,395.3 347.7,395.2 347.6,395.1 347.5,395.0 347.5,394.9 347.4,394.7 347.3,394.7 347.2,394.6 347.1,394.5 347.0,394.5 345.8,393.9 345.7,393.9 345.6,393.9 345.5,393.9 345.4,393.9 345.2,393.9 344.7,393.9 343.5,393.9 343.5,393.9 343.3,393.9 343.2,393.8 343.1,393.8 343.0,393.7 342.8,393.7 342.6,393.5 342.4,393.4 342.4,393.4 342.3,393.3 342.3,393.3 342.2,393.2 342.1,393.1 342.1,393.0 342.0,392.9 341.9,392.8 341.8,392.7 341.8,392.5 341.7,392.3 341.6,392.1 341.1,390.8"/>
    <polyline points="165.1,502.9 165.0,502.7 164.3,501.0"/>
    <polyline points="165.2,502.8 165.1,502.7 165.0,502.4 164.8,502.0 164.6,501.4 164.3,500.9 164.1,500.5 163.9,500.2 163.7,499.9 163.4,499.7 163.1,499.5 162.8,499.5 162.5,499.4 162.2,499.4 161.9,499.5 161.7,499.6 161.4,499.7 161.2,499.9 161.0,500.1 160.8,500.4 160.5,500.8 160.3,501.2 160.2,501.5 160.0,501.9 159.9,502.4 159.9,502.8 159.9,503.3 159.9,503.7 160.0,504.0 160.1,504.4 160.3,504.7 160.4,505.0 161.2,506.0 161.3,506.3 161.4,506.4 161.5,506.5"/>
    <polyline points="162.3,507.5 161.8,506.8 161.6,506.5 161.1,505.8"/>
    <polyline points="425.6,273.4 425.8,272.8 426.0,272.1 426.4,271.2 426.7,270.2 426.9,269.2 427.1,268.3 427.2,267.6 427.3,266.9 427.4,266.3 427.7,262.6 427.8,261.8 427.9,261.1 428.0,260.4 428.0,259.7 428.1,258.9 428.1,258.5 428.2,258.0 428.2,257.7 428.3,257.2 428.3,256.7 428.4,256.4 428.5,256.0 428.6,255.7 428.7,255.3 428.9,254.9 429.0,254.6 431.9,248.3 432.2,247.7 432.3,247.3 432.5,247.0 432.7,246.4 432.8,246.2 433.1,245.6 433.4,244.8 434.4,242.2 434.6,241.8 434.8,241.3 434.9,240.9 435.7,239.0 436.0,238.4 436.3,237.8 436.6,237.2 437.0,236.7 437.3,236.2 437.6,235.8 439.7,232.8 440.1,232.4 440.7,231.6 441.0,231.1 441.4,230.6 441.7,230.3 442.0,229.8 442.1,229.6 446.3,224.0 446.6,223.6 446.9,223.3 447.1,223.2 447.3,223.0 447.6,222.9 447.9,222.8 448.0,222.7 448.6,222.5 448.8,222.4 449.3,222.2 449.8,222.1 450.1,221.9 450.5,221.7 450.8,221.6 451.2,221.4 451.5,221.2 451.8,220.9 453.5,219.7 456.3,217.6 457.0,217.0 457.3,216.8 457.7,216.5 458.1,216.1 458.5,215.8 459.0,215.3 459.5,214.9 462.5,212.2 464.6,210.2 465.0,209.8 465.5,209.5 465.7,209.3 466.0,209.1 466.1,209.0"/>
    <polyline points="208.0,381.0 207.9,382.0 207.9,382.9 207.8,384.3 207.7,385.7 207.7,386.7 207.7,386.9 207.7,387.3 207.7,387.8 207.7,388.4 207.7,389.2 207.7,389.6 207.8,392.0 207.8,393.6 207.9,395.1 207.9,395.5 207.9,395.9 208.0,397.0 208.1,397.5 208.2,397.9 208.3,398.3 208.6,398.7 208.8,399.1 209.0,399.4 209.3,399.7 209.5,400.0 209.8,400.1 210.0,400.3 210.3,400.4 210.6,400.5 210.9,400.5 211.3,400.6 211.8,400.6 213.0,400.7 214.1,400.8 214.5,400.8 214.8,400.9 215.2,401.0 216.1,401.4 217.3,401.9 217.9,402.1 218.6,402.3 220.1,402.8 220.5,402.9 220.8,403.1 221.1,403.2 221.4,403.4 221.8,403.7 222.5,404.3 223.8,405.2 224.2,405.6 224.6,406.0 224.9,406.3 226.0,407.3 226.3,407.6 228.8,409.8 230.0,410.8 230.8,411.5 231.2,411.8 231.6,412.1 232.0,412.3 232.4,412.4 233.6,412.9 235.4,413.6 237.4,414.4 237.9,414.6 238.3,414.7 239.5,415.0 240.9,415.4 242.2,415.8 242.5,415.9 243.1,416.1"/>
    <polyline points="99.8,142.3 99.9,143.5 99.9,143.9 99.9,144.5 100.0,145.0 100.1,145.5 100.3,146.1 100.4,146.5 100.5,146.9 100.7,147.3 100.9,147.6 101.1,147.7 101.3,147.8 101.7,148.0 104.0,148.5 104.5,148.7 105.0,148.8 105.4,149.1 105.7,149.3 106.0,149.6 106.2,150.0 106.5,150.6 106.6,151.0 106.7,151.4 107.0,152.5 107.6,155.5 108.2,158.8 108.8,161.7 108.9,162.0 109.0,162.6 109.0,163.0 109.0,163.4 109.0,163.9 109.0,164.5 109.0,165.2 108.9,165.6 108.8,166.2 108.6,166.7 108.4,167.3 108.1,168.0 107.3,169.5 106.9,170.4 106.6,171.0 106.5,171.5 106.3,172.0 106.1,172.6 105.9,173.2 105.8,173.8 105.7,174.4 105.6,175.1 105.6,175.8 105.3,179.1 104.9,185.3 104.6,188.4 104.4,192.1"/>
    <polyline points="98.4,144.0 98.3,143.7 98.2,143.0 98.2,142.2 98.3,140.9"/>
    <polyline points="98.5,140.9 98.4,142.2 98.4,143.2 98.4,144.0 98.4,144.4 98.5,144.8 98.7,145.5 98.9,145.8 99.1,146.1 99.3,146.4 99.4,146.6 99.8,146.8 100.8,147.5 101.1,147.7"/>
    <polyline points="98.3,143.7 98.1,143.2 98.0,142.8 98.0,142.4 98.0,140.8"/>
    <polyline points="79.6,283.4 79.6,283.4 79.7,283.6 79.7,283.7 79.8,283.8 79.9,284.0 80.1,284.4 80.2,284.6 80.2,284.7 80.3,284.7 80.4,285.2 80.5,285.4 80.6,285.5 80.7,285.9 81.3,287.5 81.4,287.7 81.4,287.8 81.4,288.0 81.5,288.1 81.5,288.3 81.6,288.4 81.6,288.6 81.6,288.7 81.6,288.9 81.7,289.1"/>
  </g>

  <!-- 지하철 역 -->
  <g>
    <circle cx="279.5" cy="418.8" r="3" fill="#dc2626" stroke="#fff" stroke-width="1"/>
    <circle cx="399.4" cy="315.2" r="3" fill="#dc2626" stroke="#fff" stroke-width="1"/>
    <circle cx="277.5" cy="341.6" r="3" fill="#dc2626" stroke="#fff" stroke-width="1"/>
    <circle cx="227.3" cy="455.0" r="3" fill="#dc2626" stroke="#fff" stroke-width="1"/>
    <circle cx="226.7" cy="89.2" r="3" fill="#dc2626" stroke="#fff" stroke-width="1"/>
    <circle cx="257.8" cy="314.1" r="3" fill="#dc2626" stroke="#fff" stroke-width="1"/>
    <circle cx="248.6" cy="295.1" r="3" fill="#dc2626" stroke="#fff" stroke-width="1"/>
    <circle cx="237.7" cy="281.1" r="3" fill="#dc2626" stroke="#fff" stroke-width="1"/>
    <circle cx="337.6" cy="429.5" r="3" fill="#dc2626" stroke="#fff" stroke-width="1"/>
    <circle cx="349.2" cy="354.4" r="3" fill="#dc2626" stroke="#fff" stroke-width="1"/>
    <circle cx="342.1" cy="360.8" r="3" fill="#dc2626" stroke="#fff" stroke-width="1"/>
    <circle cx="269.1" cy="349.9" r="3" fill="#dc2626" stroke="#fff" stroke-width="1"/>
    <circle cx="252.8" cy="363.4" r="3" fill="#dc2626" stroke="#fff" stroke-width="1"/>
    <circle cx="244.3" cy="374.7" r="3" fill="#dc2626" stroke="#fff" stroke-width="1"/>
    <circle cx="449.3" cy="222.2" r="3" fill="#dc2626" stroke="#fff" stroke-width="1"/>
    <circle cx="467.6" cy="207.9" r="3" fill="#dc2626" stroke="#fff" stroke-width="1"/>
    <circle cx="458.1" cy="216.1" r="3" fill="#dc2626" stroke="#fff" stroke-width="1"/>
    <circle cx="433.0" cy="245.5" r="3" fill="#dc2626" stroke="#fff" stroke-width="1"/>
    <circle cx="428.0" cy="259.7" r="3" fill="#dc2626" stroke="#fff" stroke-width="1"/>
    <circle cx="424.9" cy="274.9" r="3" fill="#dc2626" stroke="#fff" stroke-width="1"/>
    <circle cx="419.9" cy="291.8" r="3" fill="#dc2626" stroke="#fff" stroke-width="1"/>
    <circle cx="412.6" cy="304.5" r="3" fill="#dc2626" stroke="#fff" stroke-width="1"/>
    <circle cx="389.7" cy="321.5" r="3" fill="#dc2626" stroke="#fff" stroke-width="1"/>
    <circle cx="363.5" cy="339.1" r="3" fill="#dc2626" stroke="#fff" stroke-width="1"/>
    <circle cx="355.7" cy="345.8" r="3" fill="#dc2626" stroke="#fff" stroke-width="1"/>
    <circle cx="338.0" cy="381.7" r="3" fill="#dc2626" stroke="#fff" stroke-width="1"/>
    <circle cx="273.8" cy="285.9" r="3" fill="#dc2626" stroke="#fff" stroke-width="1"/>
    <circle cx="262.5" cy="300.8" r="3" fill="#dc2626" stroke="#fff" stroke-width="1"/>
    <circle cx="254.2" cy="309.1" r="3" fill="#dc2626" stroke="#fff" stroke-width="1"/>
    <circle cx="254.8" cy="318.3" r="3" fill="#dc2626" stroke="#fff" stroke-width="1"/>
    <circle cx="263.2" cy="336.6" r="3" fill="#dc2626" stroke="#fff" stroke-width="1"/>
    <circle cx="268.8" cy="350.3" r="3" fill="#dc2626" stroke="#fff" stroke-width="1"/>
    <circle cx="278.5" cy="361.1" r="3" fill="#dc2626" stroke="#fff" stroke-width="1"/>
    <circle cx="283.5" cy="369.8" r="3" fill="#dc2626" stroke="#fff" stroke-width="1"/>
    <circle cx="92.5" cy="256.7" r="3" fill="#dc2626" stroke="#fff" stroke-width="1"/>
    <circle cx="98.1" cy="240.0" r="3" fill="#dc2626" stroke="#fff" stroke-width="1"/>
    <circle cx="97.4" cy="222.1" r="3" fill="#dc2626" stroke="#fff" stroke-width="1"/>
    <circle cx="103.4" cy="205.6" r="3" fill="#dc2626" stroke="#fff" stroke-width="1"/>
    <circle cx="266.7" cy="439.6" r="3" fill="#dc2626" stroke="#fff" stroke-width="1"/>
    <circle cx="351.4" cy="484.9" r="3" fill="#dc2626" stroke="#fff" stroke-width="1"/>
    <circle cx="354.0" cy="427.8" r="3" fill="#dc2626" stroke="#fff" stroke-width="1"/>
    <circle cx="277.0" cy="276.0" r="3" fill="#dc2626" stroke="#fff" stroke-width="1"/>
    <circle cx="276.8" cy="258.5" r="3" fill="#dc2626" stroke="#fff" stroke-width="1"/>
    <circle cx="277.8" cy="244.3" r="3" fill="#dc2626" stroke="#fff" stroke-width="1"/>
    <circle cx="280.3" cy="229.7" r="3" fill="#dc2626" stroke="#fff" stroke-width="1"/>
    <circle cx="288.6" cy="224.3" r="3" fill="#dc2626" stroke="#fff" stroke-width="1"/>
    <circle cx="306.0" cy="216.6" r="3" fill="#dc2626" stroke="#fff" stroke-width="1"/>
    <circle cx="296.4" cy="217.3" r="3" fill="#dc2626" stroke="#fff" stroke-width="1"/>
    <circle cx="314.8" cy="213.9" r="3" fill="#dc2626" stroke="#fff" stroke-width="1"/>
    <circle cx="349.0" cy="402.2" r="3" fill="#dc2626" stroke="#fff" stroke-width="1"/>
    <circle cx="441.0" cy="231.1" r="3" fill="#dc2626" stroke="#fff" stroke-width="1"/>
    <circle cx="199.2" cy="460.8" r="3" fill="#dc2626" stroke="#fff" stroke-width="1"/>
    <circle cx="183.2" cy="453.7" r="3" fill="#dc2626" stroke="#fff" stroke-width="1"/>
    <circle cx="162.3" cy="437.9" r="3" fill="#dc2626" stroke="#fff" stroke-width="1"/>
    <circle cx="148.5" cy="416.9" r="3" fill="#dc2626" stroke="#fff" stroke-width="1"/>
    <circle cx="128.2" cy="391.6" r="3" fill="#dc2626" stroke="#fff" stroke-width="1"/>
    <circle cx="95.0" cy="334.4" r="3" fill="#dc2626" stroke="#fff" stroke-width="1"/>
    <circle cx="88.5" cy="274.5" r="3" fill="#dc2626" stroke="#fff" stroke-width="1"/>
    <circle cx="105.3" cy="179.1" r="3" fill="#dc2626" stroke="#fff" stroke-width="1"/>
    <circle cx="107.6" cy="155.5" r="3" fill="#dc2626" stroke="#fff" stroke-width="1"/>
    <circle cx="99.8" cy="142.3" r="3" fill="#dc2626" stroke="#fff" stroke-width="1"/>
    <circle cx="287.3" cy="434.9" r="3" fill="#dc2626" stroke="#fff" stroke-width="1"/>
    <circle cx="293.5" cy="441.3" r="3" fill="#dc2626" stroke="#fff" stroke-width="1"/>
    <circle cx="354.8" cy="393.8" r="3" fill="#dc2626" stroke="#fff" stroke-width="1"/>
    <circle cx="449.7" cy="376.6" r="3" fill="#dc2626" stroke="#fff" stroke-width="1"/>
    <circle cx="442.7" cy="408.3" r="3" fill="#dc2626" stroke="#fff" stroke-width="1"/>
    <circle cx="384.2" cy="405.9" r="3" fill="#dc2626" stroke="#fff" stroke-width="1"/>
    <circle cx="176.5" cy="443.9" r="3" fill="#dc2626" stroke="#fff" stroke-width="1"/>
    <circle cx="207.6" cy="434.3" r="3" fill="#dc2626" stroke="#fff" stroke-width="1"/>
    <circle cx="255.8" cy="442.7" r="3" fill="#dc2626" stroke="#fff" stroke-width="1"/>
    <circle cx="232.8" cy="442.6" r="3" fill="#dc2626" stroke="#fff" stroke-width="1"/>
    <circle cx="320.6" cy="434.2" r="3" fill="#dc2626" stroke="#fff" stroke-width="1"/>
    <circle cx="159.8" cy="425.3" r="3" fill="#dc2626" stroke="#fff" stroke-width="1"/>
    <circle cx="275.5" cy="436.2" r="3" fill="#dc2626" stroke="#fff" stroke-width="1"/>
    <circle cx="149.2" cy="410.3" r="3" fill="#dc2626" stroke="#fff" stroke-width="1"/>
    <circle cx="312.8" cy="434.6" r="3" fill="#dc2626" stroke="#fff" stroke-width="1"/>
    <circle cx="340.1" cy="435.3" r="3" fill="#dc2626" stroke="#fff" stroke-width="1"/>
    <circle cx="166.9" cy="444.2" r="3" fill="#dc2626" stroke="#fff" stroke-width="1"/>
    <circle cx="243.4" cy="427.1" r="3" fill="#dc2626" stroke="#fff" stroke-width="1"/>
    <circle cx="235.6" cy="429.7" r="3" fill="#dc2626" stroke="#fff" stroke-width="1"/>
    <circle cx="199.6" cy="386.0" r="3" fill="#dc2626" stroke="#fff" stroke-width="1"/>
    <circle cx="256.0" cy="423.2" r="3" fill="#dc2626" stroke="#fff" stroke-width="1"/>
    <circle cx="223.8" cy="438.4" r="3" fill="#dc2626" stroke="#fff" stroke-width="1"/>
    <circle cx="219.0" cy="452.7" r="3" fill="#dc2626" stroke="#fff" stroke-width="1"/>
    <circle cx="201.1" cy="450.1" r="3" fill="#dc2626" stroke="#fff" stroke-width="1"/>
    <circle cx="196.6" cy="461.8" r="3" fill="#dc2626" stroke="#fff" stroke-width="1"/>
    <circle cx="194.5" cy="472.0" r="3" fill="#dc2626" stroke="#fff" stroke-width="1"/>
    <circle cx="194.6" cy="482.5" r="3" fill="#dc2626" stroke="#fff" stroke-width="1"/>
    <circle cx="195.2" cy="490.4" r="3" fill="#dc2626" stroke="#fff" stroke-width="1"/>
    <circle cx="189.4" cy="499.3" r="3" fill="#dc2626" stroke="#fff" stroke-width="1"/>
    <circle cx="180.0" cy="496.6" r="3" fill="#dc2626" stroke="#fff" stroke-width="1"/>
    <circle cx="176.3" cy="500.6" r="3" fill="#dc2626" stroke="#fff" stroke-width="1"/>
    <circle cx="162.1" cy="507.6" r="3" fill="#dc2626" stroke="#fff" stroke-width="1"/>
    <circle cx="174.1" cy="510.7" r="3" fill="#dc2626" stroke="#fff" stroke-width="1"/>
    <circle cx="270.9" cy="418.2" r="3" fill="#dc2626" stroke="#fff" stroke-width="1"/>
    <circle cx="294.1" cy="434.2" r="3" fill="#dc2626" stroke="#fff" stroke-width="1"/>
    <circle cx="300.2" cy="434.1" r="3" fill="#dc2626" stroke="#fff" stroke-width="1"/>
    <circle cx="313.0" cy="429.8" r="3" fill="#dc2626" stroke="#fff" stroke-width="1"/>
    <circle cx="318.3" cy="429.6" r="3" fill="#dc2626" stroke="#fff" stroke-width="1"/>
    <circle cx="345.3" cy="429.8" r="3" fill="#dc2626" stroke="#fff" stroke-width="1"/>
    <circle cx="263.5" cy="419.3" r="3" fill="#dc2626" stroke="#fff" stroke-width="1"/>
    <circle cx="140.6" cy="399.8" r="3" fill="#dc2626" stroke="#fff" stroke-width="1"/>
    <circle cx="133.6" cy="391.3" r="3" fill="#dc2626" stroke="#fff" stroke-width="1"/>
    <circle cx="121.5" cy="361.6" r="3" fill="#dc2626" stroke="#fff" stroke-width="1"/>
    <circle cx="218.2" cy="435.2" r="3" fill="#dc2626" stroke="#fff" stroke-width="1"/>
    <circle cx="199.4" cy="436.9" r="3" fill="#dc2626" stroke="#fff" stroke-width="1"/>
    <circle cx="184.1" cy="443.8" r="3" fill="#dc2626" stroke="#fff" stroke-width="1"/>
    <circle cx="153.9" cy="417.0" r="3" fill="#dc2626" stroke="#fff" stroke-width="1"/>
    <circle cx="241.6" cy="443.7" r="3" fill="#dc2626" stroke="#fff" stroke-width="1"/>
    <circle cx="288.4" cy="441.4" r="3" fill="#dc2626" stroke="#fff" stroke-width="1"/>
    <circle cx="299.1" cy="441.1" r="3" fill="#dc2626" stroke="#fff" stroke-width="1"/>
    <circle cx="339.5" cy="446.3" r="3" fill="#dc2626" stroke="#fff" stroke-width="1"/>
    <circle cx="162.4" cy="444.9" r="3" fill="#dc2626" stroke="#fff" stroke-width="1"/>
    <circle cx="160.6" cy="456.4" r="3" fill="#dc2626" stroke="#fff" stroke-width="1"/>
    <circle cx="156.4" cy="462.5" r="3" fill="#dc2626" stroke="#fff" stroke-width="1"/>
    <circle cx="152.8" cy="472.8" r="3" fill="#dc2626" stroke="#fff" stroke-width="1"/>
    <circle cx="156.4" cy="479.9" r="3" fill="#dc2626" stroke="#fff" stroke-width="1"/>
    <circle cx="158.7" cy="484.9" r="3" fill="#dc2626" stroke="#fff" stroke-width="1"/>
    <circle cx="205.5" cy="443.3" r="3" fill="#dc2626" stroke="#fff" stroke-width="1"/>
    <circle cx="200.9" cy="443.4" r="3" fill="#dc2626" stroke="#fff" stroke-width="1"/>
    <circle cx="193.1" cy="451.4" r="3" fill="#dc2626" stroke="#fff" stroke-width="1"/>
    <circle cx="187.1" cy="460.5" r="3" fill="#dc2626" stroke="#fff" stroke-width="1"/>
    <circle cx="185.2" cy="470.0" r="3" fill="#dc2626" stroke="#fff" stroke-width="1"/>
    <circle cx="179.0" cy="471.5" r="3" fill="#dc2626" stroke="#fff" stroke-width="1"/>
    <circle cx="175.0" cy="468.5" r="3" fill="#dc2626" stroke="#fff" stroke-width="1"/>
    <circle cx="166.6" cy="463.9" r="3" fill="#dc2626" stroke="#fff" stroke-width="1"/>
    <circle cx="163.2" cy="459.7" r="3" fill="#dc2626" stroke="#fff" stroke-width="1"/>
    <circle cx="230.0" cy="410.8" r="3" fill="#dc2626" stroke="#fff" stroke-width="1"/>
    <circle cx="240.1" cy="407.6" r="3" fill="#dc2626" stroke="#fff" stroke-width="1"/>
    <circle cx="298.7" cy="410.0" r="3" fill="#dc2626" stroke="#fff" stroke-width="1"/>
    <circle cx="342.8" cy="278.8" r="3" fill="#dc2626" stroke="#fff" stroke-width="1"/>
    <circle cx="346.5" cy="298.0" r="3" fill="#dc2626" stroke="#fff" stroke-width="1"/>
    <circle cx="351.1" cy="244.5" r="3" fill="#dc2626" stroke="#fff" stroke-width="1"/>
    <circle cx="345.7" cy="250.2" r="3" fill="#dc2626" stroke="#fff" stroke-width="1"/>
    <circle cx="341.7" cy="259.0" r="3" fill="#dc2626" stroke="#fff" stroke-width="1"/>
    <circle cx="342.7" cy="271.7" r="3" fill="#dc2626" stroke="#fff" stroke-width="1"/>
    <circle cx="329.6" cy="305.6" r="3" fill="#dc2626" stroke="#fff" stroke-width="1"/>
    <circle cx="307.7" cy="294.3" r="3" fill="#dc2626" stroke="#fff" stroke-width="1"/>
    <circle cx="302.0" cy="294.6" r="3" fill="#dc2626" stroke="#fff" stroke-width="1"/>
    <circle cx="298.4" cy="302.3" r="3" fill="#dc2626" stroke="#fff" stroke-width="1"/>
    <circle cx="297.7" cy="312.9" r="3" fill="#dc2626" stroke="#fff" stroke-width="1"/>
    <circle cx="295.3" cy="320.9" r="3" fill="#dc2626" stroke="#fff" stroke-width="1"/>
    <circle cx="293.2" cy="331.3" r="3" fill="#dc2626" stroke="#fff" stroke-width="1"/>
    <circle cx="293.3" cy="343.1" r="3" fill="#dc2626" stroke="#fff" stroke-width="1"/>
    <circle cx="293.1" cy="349.3" r="3" fill="#dc2626" stroke="#fff" stroke-width="1"/>
    <circle cx="292.8" cy="358.4" r="3" fill="#dc2626" stroke="#fff" stroke-width="1"/>
    <circle cx="298.1" cy="402.1" r="3" fill="#dc2626" stroke="#fff" stroke-width="1"/>
    <circle cx="298.9" cy="424.6" r="3" fill="#dc2626" stroke="#fff" stroke-width="1"/>
    <circle cx="299.0" cy="434.9" r="3" fill="#dc2626" stroke="#fff" stroke-width="1"/>
    <circle cx="300.0" cy="464.2" r="3" fill="#dc2626" stroke="#fff" stroke-width="1"/>
    <circle cx="299.2" cy="452.8" r="3" fill="#dc2626" stroke="#fff" stroke-width="1"/>
    <circle cx="423.9" cy="417.5" r="3" fill="#dc2626" stroke="#fff" stroke-width="1"/>
    <circle cx="435.6" cy="416.2" r="3" fill="#dc2626" stroke="#fff" stroke-width="1"/>
    <circle cx="441.2" cy="382.3" r="3" fill="#dc2626" stroke="#fff" stroke-width="1"/>
    <circle cx="369.5" cy="418.6" r="3" fill="#dc2626" stroke="#fff" stroke-width="1"/>
    <circle cx="378.2" cy="406.1" r="3" fill="#dc2626" stroke="#fff" stroke-width="1"/>
    <circle cx="391.6" cy="412.8" r="3" fill="#dc2626" stroke="#fff" stroke-width="1"/>
    <circle cx="289.6" cy="473.3" r="3" fill="#dc2626" stroke="#fff" stroke-width="1"/>
    <circle cx="190.7" cy="185.2" r="3" fill="#dc2626" stroke="#fff" stroke-width="1"/>
    <circle cx="314.2" cy="431.4" r="3" fill="#dc2626" stroke="#fff" stroke-width="1"/>
    <circle cx="287.4" cy="454.5" r="3" fill="#dc2626" stroke="#fff" stroke-width="1"/>
    <circle cx="287.0" cy="442.3" r="3" fill="#dc2626" stroke="#fff" stroke-width="1"/>
    <circle cx="321.7" cy="424.1" r="3" fill="#dc2626" stroke="#fff" stroke-width="1"/>
    <circle cx="284.6" cy="426.4" r="3" fill="#dc2626" stroke="#fff" stroke-width="1"/>
    <circle cx="331.0" cy="433.3" r="3" fill="#dc2626" stroke="#fff" stroke-width="1"/>
    <circle cx="364.3" cy="425.6" r="3" fill="#dc2626" stroke="#fff" stroke-width="1"/>
    <circle cx="293.4" cy="432.9" r="3" fill="#dc2626" stroke="#fff" stroke-width="1"/>
    <circle cx="296.5" cy="455.1" r="3" fill="#dc2626" stroke="#fff" stroke-width="1"/>
    <circle cx="113.5" cy="152.9" r="3" fill="#dc2626" stroke="#fff" stroke-width="1"/>
    <circle cx="123.7" cy="148.2" r="3" fill="#dc2626" stroke="#fff" stroke-width="1"/>
    <circle cx="138.4" cy="144.9" r="3" fill="#dc2626" stroke="#fff" stroke-width="1"/>
    <circle cx="148.9" cy="144.1" r="3" fill="#dc2626" stroke="#fff" stroke-width="1"/>
    <circle cx="157.0" cy="148.7" r="3" fill="#dc2626" stroke="#fff" stroke-width="1"/>
    <circle cx="169.6" cy="148.7" r="3" fill="#dc2626" stroke="#fff" stroke-width="1"/>
    <circle cx="183.0" cy="151.0" r="3" fill="#dc2626" stroke="#fff" stroke-width="1"/>
    <circle cx="191.5" cy="149.1" r="3" fill="#dc2626" stroke="#fff" stroke-width="1"/>
    <circle cx="200.5" cy="156.0" r="3" fill="#dc2626" stroke="#fff" stroke-width="1"/>
    <circle cx="199.2" cy="166.5" r="3" fill="#dc2626" stroke="#fff" stroke-width="1"/>
    <circle cx="189.1" cy="210.7" r="3" fill="#dc2626" stroke="#fff" stroke-width="1"/>
    <circle cx="195.2" cy="255.4" r="3" fill="#dc2626" stroke="#fff" stroke-width="1"/>
    <circle cx="204.2" cy="262.5" r="3" fill="#dc2626" stroke="#fff" stroke-width="1"/>
    <circle cx="287.1" cy="369.5" r="3" fill="#dc2626" stroke="#fff" stroke-width="1"/>
    <circle cx="299.8" cy="393.8" r="3" fill="#dc2626" stroke="#fff" stroke-width="1"/>
    <circle cx="316.2" cy="400.6" r="3" fill="#dc2626" stroke="#fff" stroke-width="1"/>
    <circle cx="319.9" cy="410.1" r="3" fill="#dc2626" stroke="#fff" stroke-width="1"/>
    <circle cx="321.3" cy="417.4" r="3" fill="#dc2626" stroke="#fff" stroke-width="1"/>
    <circle cx="321.7" cy="424.1" r="3" fill="#dc2626" stroke="#fff" stroke-width="1"/>
    <circle cx="321.8" cy="435.7" r="3" fill="#dc2626" stroke="#fff" stroke-width="1"/>
    <circle cx="293.2" cy="330.8" r="3" fill="#dc2626" stroke="#fff" stroke-width="1"/>
    <circle cx="158.9" cy="410.7" r="3" fill="#dc2626" stroke="#fff" stroke-width="1"/>
    <circle cx="155.5" cy="429.5" r="3" fill="#dc2626" stroke="#fff" stroke-width="1"/>
    <circle cx="207.9" cy="393.6" r="3" fill="#dc2626" stroke="#fff" stroke-width="1"/>
    <circle cx="224.2" cy="405.6" r="3" fill="#dc2626" stroke="#fff" stroke-width="1"/>
    <circle cx="273.1" cy="453.4" r="3" fill="#dc2626" stroke="#fff" stroke-width="1"/>
    <circle cx="287.5" cy="455.3" r="3" fill="#dc2626" stroke="#fff" stroke-width="1"/>
    <circle cx="291.9" cy="455.2" r="3" fill="#dc2626" stroke="#fff" stroke-width="1"/>
    <circle cx="297.2" cy="455.1" r="3" fill="#dc2626" stroke="#fff" stroke-width="1"/>
    <circle cx="304.2" cy="457.2" r="3" fill="#dc2626" stroke="#fff" stroke-width="1"/>
    <circle cx="320.8" cy="408.7" r="3" fill="#dc2626" stroke="#fff" stroke-width="1"/>
    <circle cx="221.6" cy="454.9" r="3" fill="#dc2626" stroke="#fff" stroke-width="1"/>
  </g>
</svg>