<?xml version="1.0" encoding="UTF-8"?>
<svg width="800" height="600" xmlns="http://www.w3.org/2000/svg">
  <title>Shijiazhuang Subway Map</title>
  <rect width="100%" height="100%" fill="#f8f9fa"/>

  <!-- 지하철 선로 -->
  <g stroke="#2563eb" stroke-width="2" fill="none" opacity="0.8">
    <polyline points="228.0,590.8 230.4,584.3 232.6,580.5 236.2,577.1 239.6,574.6 245.1,571.5 253.3,568.6 262.2,566.8 274.6,565.6 296.7,565.2 317.3,564.7 338.0,564.5 344.7,564.6 366.3,565.3 376.2,565.6 398.3,566.1 409.2,566.0 419.4,565.2 427.3,563.7 431.7,562.2 440.3,558.2 448.2,553.4 459.7,546.3 476.8,534.7 480.5,530.8 482.6,528.3 483.9,525.5 485.2,520.5 486.9,509.8 482.8,431.9 482.7,429.5 480.5,373.4"/>
    <polyline points="202.9,602.8 163.4,598.7 153.0,597.9 145.6,597.1 142.7,596.2 138.5,594.9 135.6,593.8 132.1,591.8 128.3,589.4 126.1,586.9 124.8,584.8 124.0,582.4 124.0,571.2 123.6,551.6 123.4,480.7 123.8,464.6 124.0,423.7 124.2,400.8 123.2,372.2 122.8,311.2 122.6,296.0 122.6,295.8"/>
    <polyline points="480.5,373.4 480.3,368.8 479.0,298.9 478.7,281.3 478.1,248.3 474.6,201.2 474.5,191.5 474.8,176.5 476.0,171.8 476.6,168.9 478.1,165.4 480.7,159.1 501.1,136.7 516.0,117.9 529.8,100.6 536.5,93.3 558.5,68.0 582.3,40.6"/>
    <polyline points="-596.7,396.0 -548.2,395.7 -423.6,391.2 -282.3,386.8 -149.5,383.2 0.9,378.2 114.9,375.4 126.0,375.1 158.2,374.1 231.3,374.3 258.0,373.4 260.5,373.3 265.8,373.0 275.8,372.5 292.6,371.5 302.6,371.6 305.1,371.7 306.6,371.7 316.0,371.8 324.6,371.9 328.0,372.0 341.1,372.2 372.5,373.0 374.2,373.0 386.9,373.3 422.2,373.9 457.8,374.8 478.3,375.2 567.5,377.5 590.0,377.2 692.9,375.7 715.8,375.7 839.6,371.9 1014.0,369.5 1155.5,367.6 1255.6,366.4 1274.1,366.4 1284.7,367.8 1291.0,369.3 1294.9,371.6 1303.4,377.3 1306.3,380.0 1307.9,383.9 1308.8,388.0 1312.3,394.5 1317.1,399.4 1326.2,404.2 1333.7,407.4 1343.7,410.1 1357.3,411.9 1368.2,412.6 1396.1,414.1 1401.2,414.2 1406.3,414.2 1473.0,413.3 1629.5,411.3 1666.1,411.0 1674.5,410.4 1681.5,408.4 1687.8,405.1 1689.5,403.1 1691.0,401.0 1691.6,398.1 1691.7,395.3 1694.2,380.3 1692.6,345.7 1690.6,328.5 1686.6,262.6 1686.6,261.6 1686.6,261.3 1684.0,228.1 1683.1,204.5 1682.6,195.3"/>
    <polyline points="124.4,390.6 126.0,385.9 128.7,382.7 133.3,379.7 138.0,377.6 143.5,376.4 158.2,374.1"/>
    <polyline points="-225.9,126.0 -178.6,126.4 -24.2,129.3 112.7,130.1 119.6,130.5 125.9,131.7 131.2,134.2 133.8,137.3 135.0,141.5 135.9,152.9 136.9,177.1 133.8,189.8 128.7,207.0 126.1,218.3 125.1,234.8 124.9,278.4 124.1,285.2 124.4,311.3 125.0,323.7 124.3,372.2 124.4,390.6 124.7,423.7 125.1,464.6 124.5,480.6 124.7,551.6 124.8,571.2 124.8,582.4 126.2,584.8 127.5,586.0 129.2,587.8 132.2,589.7 136.0,591.0 140.2,592.2 143.0,592.5 145.8,592.8 152.3,593.5 166.9,594.9 204.3,598.8"/>
    <polyline points="-225.7,126.5 -195.1,126.8 -178.7,126.9 -150.3,127.3 -116.2,127.8 -24.2,129.8 112.6,130.6 119.2,130.9 125.2,132.2 130.1,134.5 132.6,137.5 134.2,141.5 134.3,145.4 134.8,152.9 135.3,177.0 132.4,190.0 125.3,218.3 124.3,234.7 124.2,254.0 123.8,273.4 123.8,276.1 123.4,282.1 122.6,295.8"/>
  </g>

  <!-- 지하철 역 -->
  <g>
    <circle cx="374.2" cy="373.0" r="3" fill="#dc2626" stroke="#fff" stroke-width="1"/>
    <circle cx="231.3" cy="374.3" r="3" fill="#dc2626" stroke="#fff" stroke-width="1"/>
    <circle cx="590.0" cy="377.2" r="3" fill="#dc2626" stroke="#fff" stroke-width="1"/>
    <circle cx="692.9" cy="375.7" r="3" fill="#dc2626" stroke="#fff" stroke-width="1"/>
    <circle cx="124.4" cy="424.7" r="3" fill="#dc2626" stroke="#fff" stroke-width="1"/>
    <circle cx="123.9" cy="480.6" r="3" fill="#dc2626" stroke="#fff" stroke-width="1"/>
    <circle cx="123.7" cy="375.1" r="3" fill="#dc2626" stroke="#fff" stroke-width="1"/>
    <circle cx="123.6" cy="311.3" r="3" fill="#dc2626" stroke="#fff" stroke-width="1"/>
    <circle cx="135.5" cy="152.9" r="3" fill="#dc2626" stroke="#fff" stroke-width="1"/>
    <circle cx="124.7" cy="234.8" r="3" fill="#dc2626" stroke="#fff" stroke-width="1"/>
    <circle cx="466.0" cy="541.7" r="3" fill="#dc2626" stroke="#fff" stroke-width="1"/>
    <circle cx="483.6" cy="477.8" r="3" fill="#dc2626" stroke="#fff" stroke-width="1"/>
    <circle cx="481.4" cy="427.8" r="3" fill="#dc2626" stroke="#fff" stroke-width="1"/>
    <circle cx="480.4" cy="373.1" r="3" fill="#dc2626" stroke="#fff" stroke-width="1"/>
    <circle cx="479.1" cy="266.2" r="3" fill="#dc2626" stroke="#fff" stroke-width="1"/>
    <circle cx="478.4" cy="170.5" r="3" fill="#dc2626" stroke="#fff" stroke-width="1"/>
    <circle cx="539.2" cy="90.0" r="3" fill="#dc2626" stroke="#fff" stroke-width="1"/>
    <circle cx="479.7" cy="329.4" r="3" fill="#dc2626" stroke="#fff" stroke-width="1"/>
  </g>
</svg>