<?xml version="1.0" encoding="UTF-8"?>
<svg width="800" height="600" viewBox="0 0 800 600" 
     xmlns="http://www.w3.org/2000/svg">
  <title>Singapore Subway Map</title>
  <rect width="100%" height="100%" fill="#f8f9fa"/>

  <!-- 지하철 선로 -->
  <g id="subway-lines" stroke="#2563eb" stroke-width="3" fill="none">
    <polyline points="444.2,295.3 444.4,293.7 444.7,292.1 444.7,292.0" opacity="0.8"/>
    <polyline points="562.0,357.7 565.7,356.1 566.9,355.6 567.9,355.3 569.0,355.0 571.2,354.6 572.5,354.3 573.3,354.1 574.7,353.7 575.8,353.5 577.0,353.3 578.2,353.1 579.2,352.9 579.8,352.9 580.8,352.8 581.7,352.7 588.5,351.4 591.6,350.9 593.8,350.6 595.4,350.1 597.7,349.1 598.7,348.7 599.8,348.2" opacity="0.8"/>
    <polyline points="270.6,329.6 270.9,330.3 271.3,331.2 271.7,332.3 272.0,332.9 272.6,334.2 273.2,335.7 273.4,336.3 273.7,336.7 273.8,337.0 274.1,337.4 274.4,337.9 274.7,338.3 274.9,338.5 275.1,338.8 275.6,339.2 276.1,339.5 276.9,340.1 277.3,340.4 277.7,340.7 278.2,341.0 279.0,341.6 279.3,341.8 280.6,342.6 281.3,343.1 282.3,343.6 283.0,344.0 283.9,344.2 284.8,344.4 286.5,344.3 287.2,344.3 288.1,344.5 288.8,344.7 290.4,345.5 291.0,345.7 292.1,346.1 293.0,346.4 293.7,346.6 294.6,346.9 295.5,347.1 297.2,347.6 297.5,347.7 297.8,347.8 298.0,348.0 298.2,348.1 298.4,348.2 299.0,348.7 299.2,348.8 299.4,349.0 299.6,349.2 299.9,349.5 300.1,349.8 300.3,350.1 300.5,350.4 300.7,350.8 300.9,351.1 301.0,351.5 301.2,352.0 301.6,353.1 302.0,354.3 302.5,355.9 303.0,357.3 303.3,358.0 303.5,358.5 303.8,359.1 304.2,360.0 305.2,362.0 306.5,364.3 307.8,366.8 308.4,368.0 308.9,369.3 309.3,370.5 309.7,371.9 310.4,373.8 310.9,375.0 311.2,375.7 311.8,376.5 312.5,377.3 313.1,377.8 313.6,378.1 314.1,378.4 314.5,378.5 314.9,378.6 315.3,378.7 315.7,378.7 316.2,378.8 317.5,378.6 318.6,378.5 321.6,378.0 323.7,377.7 325.4,377.4 325.7,377.4 326.7,377.3 327.6,377.4 328.4,377.6 329.1,378.0 329.7,378.4 330.3,378.8 331.3,379.6 332.6,380.7 334.4,382.0 338.8,385.4 339.2,385.8 339.6,386.1 340.6,386.7 341.1,386.8 341.8,386.9 343.8,387.3 344.7,387.4 345.7,387.5 346.6,387.7 347.4,387.8 348.1,388.0 348.7,388.0 349.6,388.2 350.9,388.3 352.0,388.5 352.8,388.6 353.5,388.8 354.0,389.0 354.7,389.3 355.1,389.5 355.7,389.9 356.1,390.2 356.5,390.6 356.8,391.1 357.4,391.7 359.9,394.6 361.1,396.0 361.9,396.8 362.4,397.3 363.3,398.3 364.3,399.5 364.6,399.8 364.6,399.9 365.2,400.7 365.7,401.1 366.5,402.1 367.7,403.5 368.6,404.5 371.7,408.1 373.0,409.6 373.6,410.3 374.1,411.1 374.4,411.8 375.3,413.5 375.9,414.7 376.4,415.9 376.8,416.7 377.2,417.4 377.4,417.7 377.7,418.1 378.0,418.6 378.9,419.6 379.5,420.3 379.8,420.6 380.2,420.9 380.5,421.2 381.0,421.5 381.4,421.7 382.1,421.9 382.5,422.0 383.2,422.2 388.0,423.1 390.0,423.5 390.7,423.7 391.2,423.9 391.6,424.1 392.2,424.5 392.2,424.5 393.2,425.1 394.6,426.0 395.2,426.3 395.7,426.5 396.2,426.7 396.8,426.8 397.2,426.9 397.7,426.9" opacity="0.8"/>
    <polyline points="398.3,427.0 399.2,427.0 400.1,427.1 401.1,427.2 401.7,427.3 402.2,427.5 403.3,428.1 405.4,430.3 406.2,431.0 407.0,431.4 408.1,431.8 410.0,432.4 412.0,432.9 413.8,433.0 415.6,432.8 418.6,432.7 419.1,432.8 419.5,432.9 419.9,433.1 420.3,433.3 420.7,433.7 420.9,434.0 422.4,436.2 422.9,436.7 423.3,437.1 424.5,438.3 428.3,441.4" opacity="0.8"/>
    <polyline points="666.7,281.3 666.0,280.9 663.6,279.8 662.7,279.4 661.8,279.3 660.8,279.4 660.0,279.5 658.8,279.9 657.8,280.4 656.7,281.3 655.9,282.0 655.1,283.2 654.4,284.1 653.7,285.7 645.9,309.4 645.5,310.6 644.8,312.0 643.6,313.4 642.6,314.1 641.8,314.6 638.2,315.8 636.9,316.2 636.2,316.5 635.6,316.9 635.0,317.4 634.4,318.1 633.9,318.9 632.7,321.3 630.2,326.5" opacity="0.8"/>
    <polyline points="443.2,301.8 443.0,302.5 441.9,310.0 441.8,317.4 441.8,318.6 441.7,321.1 441.6,322.0 440.8,324.2 440.7,325.7 440.8,326.9 441.4,329.1 442.3,331.3 442.8,332.9 442.9,334.0 443.3,335.8 443.5,337.3 443.8,338.9 443.8,340.5 443.5,342.1 442.5,346.0 441.7,351.1 441.2,353.2 440.6,355.0 439.9,356.7 439.1,358.0 438.0,359.5 437.1,360.8 436.5,361.6 434.5,364.7 433.8,365.6 433.1,368.8 431.6,373.7 428.5,376.8 427.4,377.8 423.1,381.6 421.6,383.3 420.4,385.5 418.4,391.5 418.1,392.8 418.1,393.9 418.2,395.5 418.3,397.1 418.6,398.5 418.8,399.3 419.4,400.3 419.9,400.9 420.7,401.6 421.6,402.0 422.6,402.2 423.7,402.1 425.3,401.7 426.3,401.9 429.2,402.8 431.9,403.6" opacity="0.8"/>
    <polyline points="312.7,130.7 313.1,130.1 313.5,129.6 314.0,129.1 314.4,128.7 314.7,128.4 315.2,128.1 315.8,127.8 316.0,127.6" opacity="0.8"/>
    <polyline points="311.5,133.3 312.2,131.6 312.7,130.7" opacity="0.8"/>
    <polyline points="307.9,138.4 308.7,137.6 309.4,137.0 309.7,136.6 309.9,136.3" opacity="0.8"/>
    <polyline points="274.7,244.2 274.7,243.6" opacity="0.8"/>
    <polyline points="288.0,285.6 288.0,284.3 287.9,282.7 287.8,281.9 287.8,280.4 287.7,279.0 287.6,275.7 287.6,273.9 287.5,270.2 287.4,267.8 287.4,266.9 287.3,266.0 287.1,265.2 286.9,264.5 286.5,263.4 285.8,262.4 285.0,261.4 284.0,260.3 283.0,259.1 281.7,257.6 279.4,255.0 278.5,253.8 277.9,252.9 277.0,251.6 276.5,250.5 276.1,249.6" opacity="0.8"/>
    <polyline points="287.2,295.7 287.5,295.2 287.7,294.6 287.8,294.3 287.9,293.8 288.0,293.3" opacity="0.8"/>
    <polyline points="480.6,380.2 481.5,379.4 482.4,378.7 483.2,378.1 484.7,377.0 485.6,376.3 486.1,375.9 487.1,375.1 487.4,374.8 488.5,373.8 489.4,373.0 490.3,372.3 490.7,371.9 491.2,371.6 491.7,371.3 492.2,371.1 492.8,370.9 493.2,370.8 494.2,370.5 496.9,369.9 497.7,369.7 498.2,369.5 498.6,369.4 499.3,369.3 500.3,369.0 501.4,368.7 502.6,368.5 503.5,368.4 504.8,368.1 506.9,367.5 512.8,366.2 514.1,365.9 515.3,365.7 516.7,365.5 518.4,365.2 519.8,365.1 521.2,364.9 521.8,364.7 524.8,364.0 528.5,363.0 529.5,362.7 530.3,362.5 531.5,362.2 532.7,362.0 533.5,361.9 535.0,361.6 536.6,361.6 537.9,361.7 538.4,361.8 539.4,361.9 540.1,361.9 540.6,361.9 540.9,361.8 541.2,361.7 542.8,361.3 544.2,360.9 545.6,360.5 546.6,360.1 547.8,359.7 548.9,359.4 550.1,359.1 551.4,358.8 552.9,358.6 553.9,358.5" opacity="0.8"/>
    <polyline points="553.9,358.5 554.9,358.6 556.1,358.8 557.3,358.9 558.2,359.0 559.0,358.9 559.7,358.8 562.0,357.7" opacity="0.8"/>
    <polyline points="431.7,443.2 435.2,438.2 436.6,436.1 438.0,434.0 439.4,432.4 440.4,431.0 441.2,428.9 441.6,427.1 442.0,425.0 442.2,423.3 442.2,422.0 442.0,420.8 441.5,419.2 438.3,412.4 438.0,411.3 437.9,410.4 437.8,409.1 437.9,408.0 438.2,406.8 438.4,406.0 439.5,403.5 442.4,396.4 443.4,394.0 444.4,392.1 445.9,389.7 447.7,386.3 452.4,379.1 453.8,377.5 456.4,374.3 459.7,370.4 461.0,369.4 461.8,368.6 464.4,365.2 466.0,362.7 467.2,360.8" opacity="0.8"/>
    <polyline points="340.3,420.4 340.5,419.0 340.5,417.7 340.6,417.0 340.7,414.7 340.8,413.6 341.1,412.9 342.5,409.1 342.8,408.6 343.1,407.9 344.1,406.5 344.7,405.6 345.3,404.3 347.1,400.9 347.6,399.6 348.1,397.9 349.4,393.0 349.7,392.0 350.5,390.3 351.1,388.9 351.3,388.3 352.0,386.8 352.5,386.1 353.2,384.9 355.9,381.2 356.4,380.7 357.1,380.1 359.1,378.5 360.0,377.8 361.5,376.7 362.0,376.1 363.2,374.6 363.8,373.9 364.3,373.6 364.9,373.2 366.3,372.8 368.2,372.2 369.1,372.0 370.5,371.8 372.1,371.9 372.8,371.8 373.8,371.6 375.0,370.8 376.6,368.6 378.0,366.9 379.8,364.8 380.6,363.9 381.2,363.4 381.8,363.1 382.2,362.9 382.8,362.8 383.6,362.7 385.1,362.7 386.0,362.5 386.8,362.2 387.3,361.9 387.7,361.5 388.0,361.1 390.5,357.0 391.0,356.2 392.4,354.4 393.1,353.5 393.5,352.6 393.8,350.5 394.3,345.3 394.6,342.3 394.7,341.2 394.9,340.2 395.2,339.2 395.5,338.5 395.9,337.9 396.4,337.2 396.8,336.9 397.4,336.5 398.3,336.0 404.4,333.3 405.3,333.0 406.3,332.9 415.7,332.9 418.3,332.9 419.8,332.9 421.0,333.0 422.0,333.2 422.9,333.4 423.5,333.4 424.3,333.4 426.7,332.8 427.4,332.5 428.0,332.1 428.6,331.6 429.1,330.9 429.6,330.1 429.9,329.1 430.0,328.4 430.1,327.3 430.1,326.2 430.0,324.9 429.9,323.3 429.5,318.1 429.3,315.0 429.0,313.2 428.8,311.2 428.9,310.3 428.9,309.1 429.2,305.9 429.6,302.8" opacity="0.8"/>
    <polyline points="429.6,302.8 429.7,301.7 429.9,300.3 430.0,298.9 430.2,297.0 430.4,295.4 430.6,294.7 431.0,293.7 431.5,293.0 432.0,292.4 432.6,291.9 433.4,291.5 434.0,291.3 434.7,291.3 435.5,291.4 436.3,291.7 437.2,292.3 438.0,293.1 438.5,293.7 439.2,294.2 439.9,294.5 440.5,294.7 441.1,294.7 442.0,294.8 444.2,295.5 447.7,296.5 448.5,296.6 449.7,296.8 452.3,297.9 453.8,298.6 456.4,299.4 458.6,300.1 459.9,300.2 461.0,300.0 462.0,299.6 465.3,297.7 467.2,296.3 467.9,296.0 468.7,295.9 468.9,295.8 470.7,295.7 472.8,295.0 474.1,294.6 475.8,294.6 476.9,294.6 477.6,294.9 478.5,295.3 481.3,296.6 483.1,297.4 484.2,298.1 485.4,299.3 485.9,299.8 487.0,301.1 487.1,301.8 487.3,303.0 487.4,304.9 487.6,306.1 487.8,307.1 488.1,307.7 488.7,308.8 488.7,309.0 488.8,309.0 489.9,310.4 492.0,311.8 494.0,313.2 495.1,313.8 495.3,314.0 498.9,316.3" opacity="0.8"/>
    <polyline points="489.6,396.6 488.3,397.5 486.4,398.5 484.6,399.5 483.0,400.0 480.6,400.1 479.9,400.3 475.8,401.9 471.5,402.9 470.4,403.3 469.2,404.1 469.0,404.2 467.2,405.2 465.9,406.4 465.2,407.6 464.7,409.1 464.6,410.6 464.7,412.2 465.0,414.1 465.1,414.9" opacity="0.8"/>
    <polyline points="418.3,203.5 424.4,208.4" opacity="0.8"/>
    <polyline points="417.4,202.7 418.3,203.5" opacity="0.8"/>
    <polyline points="411.0,189.6 411.1,190.5 411.4,192.3 411.9,194.2 412.3,195.4 412.9,196.8 413.4,197.9 414.0,198.8 414.4,199.4 414.8,200.0 415.7,201.1 416.5,202.0 417.4,202.7" opacity="0.8"/>
    <polyline points="345.7,116.0 346.6,115.6 347.0,115.4 347.4,115.2 348.3,114.9 348.6,114.8 349.0,114.6 350.0,114.2 350.8,113.8 351.5,113.6 352.1,113.4 352.8,113.3 353.6,113.2 359.7,112.8 360.5,112.7 361.2,112.6 361.8,112.4 362.5,112.1 363.3,111.7 363.9,111.3 366.4,109.8 367.5,109.2 368.6,108.6 371.0,107.2 372.6,106.3 374.2,105.3 374.8,104.8 375.4,104.3 375.8,104.0 376.2,103.5 376.8,102.8 377.5,101.9 378.2,101.1 378.8,100.4 379.5,99.3 380.5,98.2 381.2,97.6 381.8,97.1 382.8,96.5 383.4,96.1 384.1,95.9 387.0,95.0 391.4,93.6 395.5,92.4 395.9,92.3 396.9,92.0 397.3,91.8 398.4,91.5 399.6,91.2 400.3,91.0 400.7,90.9 401.3,90.8 401.8,90.8 402.4,90.7 403.3,90.7 403.9,90.8 404.5,91.0 405.3,91.4 405.8,91.6 406.3,91.9 407.0,92.5 407.5,93.1 407.9,93.5 408.3,94.0 409.6,95.5 409.9,95.9 410.3,96.5 410.8,97.3 411.2,98.1 411.6,98.9 412.3,100.3 413.0,101.8 413.9,103.9 415.6,107.4 417.8,112.0 418.8,114.1 419.7,116.0 419.8,116.3 420.7,118.4 421.1,119.2 421.3,120.0 421.5,120.6 421.6,121.4 421.9,123.0 422.2,124.5 422.7,127.0 422.8,127.7 422.8,128.3 422.9,129.1 422.9,130.1 422.9,131.4 422.9,132.9 422.8,134.1 422.8,135.1 422.8,136.0 422.7,136.9 422.5,141.5 422.3,146.7 422.3,148.2 422.2,149.7 422.2,150.4 422.1,151.2 421.9,151.9 421.6,152.7 421.1,154.0 420.8,154.9 420.1,156.9 419.6,158.1 419.1,159.4 418.6,160.6 418.3,161.5 417.4,163.8 416.5,166.1 415.9,167.4 415.6,168.2 415.0,169.2 414.5,170.1 414.0,171.0 413.7,171.7 413.5,172.3 413.4,172.8 413.3,173.5 413.2,173.9 413.2,174.4 413.2,174.9 413.2,176.1 413.2,176.8 413.1,177.3 413.1,177.9 413.0,178.4 412.8,179.1 412.7,179.6 412.0,181.5 411.8,182.2 411.6,182.8 411.4,183.5 411.2,184.2 411.1,185.1 411.0,186.0 411.0,186.6 411.0,187.2 411.0,188.6 411.0,189.1 411.0,189.6" opacity="0.8"/>
    <polyline points="271.6,332.4 270.8,330.8 270.6,330.3 270.5,330.0 270.4,329.6 270.3,329.2 270.2,328.8 270.1,328.4 270.1,328.0 270.0,327.6 270.0,327.2 270.1,326.9 270.1,326.5 270.1,326.2 270.2,325.8 270.3,325.4 270.4,325.1 270.5,324.8 270.6,324.5 270.7,324.2 270.9,324.0 271.4,323.0 272.0,322.2" opacity="0.8"/>
    <polyline points="302.4,349.1 302.4,346.2 302.4,343.4" opacity="0.8"/>
    <polyline points="294.6,346.9 296.1,347.2 297.2,347.5" opacity="0.8"/>
    <polyline points="301.6,353.1 301.2,351.6 301.1,351.4" opacity="0.8"/>
    <polyline points="301.7,339.4 301.8,339.2 301.8,338.2 301.9,337.5 302.0,337.1 302.0,336.9" opacity="0.8"/>
    <polyline points="301.9,343.5 301.8,343.9 301.8,344.3 301.8,344.7 301.7,345.0 301.7,345.3 301.6,345.6 301.5,346.0 301.3,346.4 301.1,346.7 301.0,346.9 300.7,347.2 300.4,347.5 300.2,347.7 299.9,347.9 299.5,348.1 299.3,348.2 299.0,348.3 298.8,348.3 298.5,348.3 298.3,348.3 298.1,348.3 297.8,348.3 297.5,348.2" opacity="0.8"/>
    <polyline points="622.7,340.6 622.0,340.5" opacity="0.8"/>
    <polyline points="618.2,340.0 620.5,340.5" opacity="0.8"/>
    <polyline points="618.3,339.4 620.6,339.9" opacity="0.8"/>
    <polyline points="618.3,339.6 620.5,340.1" opacity="0.8"/>
    <polyline points="618.3,339.4 620.6,340.0" opacity="0.8"/>
    <polyline points="624.7,341.0 624.9,341.2 625.4,341.5 625.7,341.7 626.2,342.0 626.4,342.1 626.6,342.2 626.7,342.2 626.8,342.2 627.0,342.3 627.3,342.3 627.5,342.4" opacity="0.8"/>
    <polyline points="618.2,340.1 620.5,340.6" opacity="0.8"/>
    <polyline points="618.4,339.1 620.6,339.6" opacity="0.8"/>
    <polyline points="626.2,342.1 626.2,342.1 626.0,341.9 625.2,341.4 624.9,341.3 623.9,340.9 623.9,340.9 622.7,340.3 622.6,340.2 622.4,340.2 622.1,340.0 621.9,339.8 621.6,339.7 621.4,339.6 620.6,339.3 620.2,339.2 619.9,339.1" opacity="0.8"/>
    <polyline points="450.1,286.3 449.7,286.1 449.4,286.0 449.1,286.0 448.8,286.0 448.5,286.0 448.1,286.1 447.8,286.3 447.5,286.5 447.2,286.7 447.0,286.9 446.7,287.3 446.4,287.9" opacity="0.8"/>
    <polyline points="453.3,291.3 453.4,291.6 453.5,291.7 453.5,291.9 453.6,292.0 453.7,292.2 453.8,292.3 453.9,292.4" opacity="0.8"/>
    <polyline points="453.4,291.2 453.5,291.6 453.6,291.8 453.7,292.0 453.7,292.1 453.9,292.4" opacity="0.8"/>
    <polyline points="453.4,291.2 453.5,291.5 453.6,291.7 453.7,291.9 453.8,292.1 453.9,292.3" opacity="0.8"/>
    <polyline points="452.8,290.0 453.1,290.5 453.4,291.1" opacity="0.8"/>
    <polyline points="453.4,291.1 453.6,291.5 453.8,291.8 453.9,292.0 454.0,292.2" opacity="0.8"/>
    <polyline points="453.5,291.1 453.6,291.4 453.8,291.6 453.9,291.8 454.0,291.9 454.1,292.1" opacity="0.8"/>
    <polyline points="453.6,291.0 453.8,291.4 454.0,291.6 454.1,291.7 454.2,292.0" opacity="0.8"/>
    <polyline points="453.5,291.1 453.8,291.6 454.1,292.1" opacity="0.8"/>
    <polyline points="453.6,290.9 454.0,291.5 454.3,291.9" opacity="0.8"/>
    <polyline points="453.6,290.9 453.8,291.2 453.9,291.3 454.1,291.5 454.2,291.6 454.3,291.9" opacity="0.8"/>
    <polyline points="452.9,290.0 453.1,290.2 453.2,290.4 453.7,290.9" opacity="0.8"/>
    <polyline points="453.7,290.9 454.1,291.3 454.2,291.4 454.3,291.6 454.4,291.7" opacity="0.8"/>
  </g>

  <!-- 지하철 역 -->
  <g id="subway-stations">
    <circle cx="500.3" cy="369.1" r="4" fill="#dc2626" stroke="#fff" stroke-width="2"/>
    <text x="500.3" y="361.1" text-anchor="middle" font-size="10" fill="#374151">Aljunied</text>
    <circle cx="481.6" cy="379.6" r="4" fill="#dc2626" stroke="#fff" stroke-width="2"/>
    <text x="481.6" y="371.6" text-anchor="middle" font-size="10" fill="#374151">Kallang</text>
    <circle cx="438.8" cy="232.4" r="4" fill="#dc2626" stroke="#fff" stroke-width="2"/>
    <text x="438.8" y="224.4" text-anchor="middle" font-size="10" fill="#374151">Yio Chu Kang</text>
    <circle cx="603.4" cy="346.5" r="4" fill="#dc2626" stroke="#fff" stroke-width="2"/>
    <text x="603.4" y="338.5" text-anchor="middle" font-size="10" fill="#374151">Tanah Merah</text>
    <circle cx="577.0" cy="353.4" r="4" fill="#dc2626" stroke="#fff" stroke-width="2"/>
    <text x="577.0" y="345.4" text-anchor="middle" font-size="10" fill="#374151">Bedok</text>
    <circle cx="393.1" cy="425.2" r="4" fill="#dc2626" stroke="#fff" stroke-width="2"/>
    <text x="393.1" y="417.2" text-anchor="middle" font-size="10" fill="#374151">Redhill</text>
    <circle cx="375.8" cy="414.8" r="4" fill="#dc2626" stroke="#fff" stroke-width="2"/>
    <text x="375.8" y="406.8" text-anchor="middle" font-size="10" fill="#374151">Queenstown</text>
    <circle cx="363.2" cy="398.4" r="4" fill="#dc2626" stroke="#fff" stroke-width="2"/>
    <text x="363.2" y="390.4" text-anchor="middle" font-size="10" fill="#374151">Commonwealth</text>
    <circle cx="331.3" cy="379.7" r="4" fill="#dc2626" stroke="#fff" stroke-width="2"/>
    <text x="331.3" y="371.7" text-anchor="middle" font-size="10" fill="#374151">Dover</text>
    <circle cx="272.5" cy="334.3" r="4" fill="#dc2626" stroke="#fff" stroke-width="2"/>
    <text x="272.5" y="326.3" text-anchor="middle" font-size="10" fill="#374151">Jurong East</text>
    <circle cx="256.7" cy="314.9" r="4" fill="#dc2626" stroke="#fff" stroke-width="2"/>
    <text x="256.7" y="306.9" text-anchor="middle" font-size="10" fill="#374151">Chinese Garden</text>
    <circle cx="237.5" cy="311.0" r="4" fill="#dc2626" stroke="#fff" stroke-width="2"/>
    <text x="237.5" y="303.0" text-anchor="middle" font-size="10" fill="#374151">Lakeside</text>
    <circle cx="213.4" cy="322.9" r="4" fill="#dc2626" stroke="#fff" stroke-width="2"/>
    <text x="213.4" y="314.9" text-anchor="middle" font-size="10" fill="#374151">Boon Lay</text>
    <circle cx="199.7" cy="324.9" r="4" fill="#dc2626" stroke="#fff" stroke-width="2"/>
    <text x="199.7" y="316.9" text-anchor="middle" font-size="10" fill="#374151">Pioneer</text>
    <circle cx="168.6" cy="345.5" r="4" fill="#dc2626" stroke="#fff" stroke-width="2"/>
    <text x="168.6" y="337.5" text-anchor="middle" font-size="10" fill="#374151">Joo Koon</text>
    <circle cx="140.2" cy="362.5" r="4" fill="#dc2626" stroke="#fff" stroke-width="2"/>
    <text x="140.2" y="354.5" text-anchor="middle" font-size="10" fill="#374151">Gul Circle</text>
    <circle cx="121.1" cy="359.3" r="4" fill="#dc2626" stroke="#fff" stroke-width="2"/>
    <text x="121.1" y="351.3" text-anchor="middle" font-size="10" fill="#374151">Tuas Crescent</text>
    <circle cx="106.0" cy="340.7" r="4" fill="#dc2626" stroke="#fff" stroke-width="2"/>
    <text x="106.0" y="332.7" text-anchor="middle" font-size="10" fill="#374151">Tuas West Road</text>
    <circle cx="101.5" cy="319.3" r="4" fill="#dc2626" stroke="#fff" stroke-width="2"/>
    <text x="101.5" y="311.3" text-anchor="middle" font-size="10" fill="#374151">Tuas Link</text>
    <circle cx="549.0" cy="359.6" r="4" fill="#dc2626" stroke="#fff" stroke-width="2"/>
    <text x="549.0" y="351.6" text-anchor="middle" font-size="10" fill="#374151">Kembangan</text>
    <circle cx="614.5" cy="313.2" r="4" fill="#dc2626" stroke="#fff" stroke-width="2"/>
    <text x="614.5" y="305.2" text-anchor="middle" font-size="10" fill="#374151">Simei</text>
    <circle cx="284.3" cy="300.9" r="4" fill="#dc2626" stroke="#fff" stroke-width="2"/>
    <text x="284.3" y="292.9" text-anchor="middle" font-size="10" fill="#374151">Bukit Batok</text>
    <circle cx="367.5" cy="109.3" r="4" fill="#dc2626" stroke="#fff" stroke-width="2"/>
    <text x="367.5" y="101.3" text-anchor="middle" font-size="10" fill="#374151">Admiralty</text>
    <circle cx="287.9" cy="280.3" r="4" fill="#dc2626" stroke="#fff" stroke-width="2"/>
    <text x="287.9" y="272.3" text-anchor="middle" font-size="10" fill="#374151">Bukit Gombak</text>
    <circle cx="304.4" cy="141.6" r="4" fill="#dc2626" stroke="#fff" stroke-width="2"/>
    <text x="304.4" y="133.6" text-anchor="middle" font-size="10" fill="#374151">Kranji</text>
    <circle cx="324.0" cy="126.2" r="4" fill="#dc2626" stroke="#fff" stroke-width="2"/>
    <text x="324.0" y="118.2" text-anchor="middle" font-size="10" fill="#374151">Marsiling</text>
    <circle cx="280.7" cy="199.7" r="4" fill="#dc2626" stroke="#fff" stroke-width="2"/>
    <text x="280.7" y="191.7" text-anchor="middle" font-size="10" fill="#374151">Yew Tee</text>
    <circle cx="422.7" cy="132.9" r="4" fill="#dc2626" stroke="#fff" stroke-width="2"/>
    <text x="422.7" y="124.9" text-anchor="middle" font-size="10" fill="#374151">Yishun</text>
    <circle cx="275.8" cy="225.1" r="4" fill="#dc2626" stroke="#fff" stroke-width="2"/>
    <text x="275.8" y="217.1" text-anchor="middle" font-size="10" fill="#374151">Choa Chu Kang</text>
    <circle cx="532.7" cy="362.1" r="4" fill="#dc2626" stroke="#fff" stroke-width="2"/>
    <text x="532.7" y="354.1" text-anchor="middle" font-size="10" fill="#374151">Eunos</text>
    <circle cx="419.5" cy="158.0" r="4" fill="#dc2626" stroke="#fff" stroke-width="2"/>
    <text x="419.5" y="150.0" text-anchor="middle" font-size="10" fill="#374151">Khatib</text>
    <circle cx="268.3" cy="308.3" r="4" fill="#dc2626" stroke="#fff" stroke-width="2"/>
    <text x="268.3" y="300.3" text-anchor="middle" font-size="10" fill="#374151">Bukit Batok West</text>
    <circle cx="258.1" cy="283.6" r="4" fill="#dc2626" stroke="#fff" stroke-width="2"/>
    <text x="258.1" y="275.6" text-anchor="middle" font-size="10" fill="#374151">Tengah Plantation</text>
    <circle cx="263.6" cy="294.2" r="4" fill="#dc2626" stroke="#fff" stroke-width="2"/>
    <text x="263.6" y="286.2" text-anchor="middle" font-size="10" fill="#374151">Tengah Park</text>
    <circle cx="190.8" cy="297.6" r="4" fill="#dc2626" stroke="#fff" stroke-width="2"/>
    <text x="190.8" y="289.6" text-anchor="middle" font-size="10" fill="#374151">Tawas</text>
    <circle cx="200.8" cy="302.5" r="4" fill="#dc2626" stroke="#fff" stroke-width="2"/>
    <text x="200.8" y="294.5" text-anchor="middle" font-size="10" fill="#374151">Gek Poh</text>
    <circle cx="276.5" cy="360.8" r="4" fill="#dc2626" stroke="#fff" stroke-width="2"/>
    <text x="276.5" y="352.8" text-anchor="middle" font-size="10" fill="#374151">Pandan Reservoir</text>
    <circle cx="169.2" cy="313.9" r="4" fill="#dc2626" stroke="#fff" stroke-width="2"/>
    <text x="169.2" y="305.9" text-anchor="middle" font-size="10" fill="#374151">Peng Kang Hill</text>
    <circle cx="173.4" cy="302.0" r="4" fill="#dc2626" stroke="#fff" stroke-width="2"/>
    <text x="173.4" y="294.0" text-anchor="middle" font-size="10" fill="#374151">Nanyang Crescent</text>
    <circle cx="182.3" cy="291.0" r="4" fill="#dc2626" stroke="#fff" stroke-width="2"/>
    <text x="182.3" y="283.0" text-anchor="middle" font-size="10" fill="#374151">Nanyang Gateway</text>
    <circle cx="277.2" cy="348.3" r="4" fill="#dc2626" stroke="#fff" stroke-width="2"/>
    <text x="277.2" y="340.3" text-anchor="middle" font-size="10" fill="#374151">Jurong Town Hall</text>
    <circle cx="273.0" cy="319.8" r="4" fill="#dc2626" stroke="#fff" stroke-width="2"/>
    <text x="273.0" y="311.8" text-anchor="middle" font-size="10" fill="#374151">Toh Guan</text>
    <circle cx="220.8" cy="376.3" r="4" fill="#dc2626" stroke="#fff" stroke-width="2"/>
    <text x="220.8" y="368.3" text-anchor="middle" font-size="10" fill="#374151">Jurong Pier</text>
    <circle cx="220.5" cy="364.7" r="4" fill="#dc2626" stroke="#fff" stroke-width="2"/>
    <text x="220.5" y="356.7" text-anchor="middle" font-size="10" fill="#374151">Jurong Hill</text>
    <circle cx="219.0" cy="350.6" r="4" fill="#dc2626" stroke="#fff" stroke-width="2"/>
    <text x="219.0" y="342.6" text-anchor="middle" font-size="10" fill="#374151">Tukang</text>
    <circle cx="217.8" cy="334.9" r="4" fill="#dc2626" stroke="#fff" stroke-width="2"/>
    <text x="217.8" y="326.9" text-anchor="middle" font-size="10" fill="#374151">Enterprise</text>
    <circle cx="217.4" cy="300.6" r="4" fill="#dc2626" stroke="#fff" stroke-width="2"/>
    <text x="217.4" y="292.6" text-anchor="middle" font-size="10" fill="#374151">Jurong West</text>
    <circle cx="226.3" cy="292.7" r="4" fill="#dc2626" stroke="#fff" stroke-width="2"/>
    <text x="226.3" y="284.7" text-anchor="middle" font-size="10" fill="#374151">Corporation</text>
    <circle cx="252.7" cy="265.0" r="4" fill="#dc2626" stroke="#fff" stroke-width="2"/>
    <text x="252.7" y="257.0" text-anchor="middle" font-size="10" fill="#374151">Tengah</text>
    <circle cx="246.2" cy="282.0" r="4" fill="#dc2626" stroke="#fff" stroke-width="2"/>
    <text x="246.2" y="274.0" text-anchor="middle" font-size="10" fill="#374151">Hong Kah</text>
    <circle cx="268.7" cy="237.8" r="4" fill="#dc2626" stroke="#fff" stroke-width="2"/>
    <text x="268.7" y="229.8" text-anchor="middle" font-size="10" fill="#374151">Choa Chu Kang West</text>
    <circle cx="207.8" cy="307.7" r="4" fill="#dc2626" stroke="#fff" stroke-width="2"/>
    <text x="207.8" y="299.7" text-anchor="middle" font-size="10" fill="#374151">Bahar Junction</text>
    <circle cx="446.2" cy="256.9" r="4" fill="#dc2626" stroke="#fff" stroke-width="2"/>
    <text x="446.2" y="248.9" text-anchor="middle" font-size="10" fill="#374151">Ang Mo Kio</text>
    <circle cx="400.9" cy="476.0" r="4" fill="#dc2626" stroke="#fff" stroke-width="2"/>
    <text x="400.9" y="468.0" text-anchor="middle" font-size="10" fill="#374151">HarbourFront</text>
  </g>
</svg>