<?xml version="1.0" encoding="UTF-8"?>
<svg width="800" height="600" viewBox="0 0 800 600" 
     xmlns="http://www.w3.org/2000/svg">
  <title>Stockholm Subway Map</title>
  <rect width="100%" height="100%" fill="#f8f9fa"/>

  <!-- 지하철 선로 -->
  <g id="subway-lines" stroke="#2563eb" stroke-width="3" fill="none">
    <polyline points="553.6,186.8 554.2,186.0 555.2,184.8" opacity="0.8"/>
    <polyline points="479.8,270.9 480.0,271.4 480.3,272.1 480.6,272.8 481.0,273.4 481.5,274.2 482.0,274.9 482.5,275.5 483.1,276.2 483.7,276.9 485.8,278.6 486.7,279.4 487.3,280.1 488.0,280.9 488.6,281.6 489.1,282.4 489.7,283.4 490.0,284.1 490.4,284.9 491.0,286.2 491.7,287.8 491.9,288.2 492.1,288.7 492.5,289.6 492.8,290.0 493.1,290.6 493.5,291.2" opacity="0.8"/>
    <polyline points="438.5,103.4 438.8,102.3" opacity="0.8"/>
    <polyline points="441.5,97.2 441.9,96.8 442.5,96.1 442.7,95.9 442.8,95.7" opacity="0.8"/>
    <polyline points="553.6,186.8 552.6,187.9 550.8,189.9 546.7,194.7 546.2,195.2 545.9,195.7 545.5,196.6 545.3,197.3 545.1,198.0 545.1,198.7 545.0,199.3 545.0,200.0 545.1,200.5" opacity="0.8"/>
    <polyline points="292.8,55.0 286.4,53.7 285.9,53.6 285.5,53.5 285.2,53.5 284.8,53.4 284.5,53.3 284.2,53.2 283.8,53.1 283.4,52.9 283.2,52.9 282.9,52.8 282.7,52.7 282.5,52.6 282.2,52.5 282.0,52.4 281.7,52.3 281.5,52.2 281.2,52.1 280.9,51.9 280.6,51.7 280.4,51.6 280.1,51.5 279.8,51.3 279.6,51.1 279.1,50.9 278.9,50.7 278.7,50.6 278.6,50.5 278.4,50.3 278.2,50.1 278.0,50.0 277.8,49.8 277.6,49.7 277.5,49.6 277.3,49.4 277.1,49.3 277.0,49.1 276.8,49.0 276.6,48.7 276.4,48.5 276.2,48.4 276.1,48.2 276.0,48.1 275.8,47.8 275.6,47.6 275.4,47.4 275.3,47.2 272.3,43.2 271.3,41.9 270.9,41.3 270.4,40.6 270.1,40.3 269.9,40.0 269.6,39.7 269.3,39.3 268.8,38.8 268.6,38.6 268.3,38.3 268.1,38.1 267.8,37.8 267.5,37.6 267.2,37.3 266.9,37.1 266.5,36.8" opacity="0.8"/>
    <polyline points="292.8,55.0 298.1,56.1 298.8,56.3 299.4,56.5 299.9,56.6 300.6,56.9 301.0,57.0 301.4,57.2 301.7,57.4" opacity="0.8"/>
    <polyline points="266.6,36.4 266.9,36.6 267.2,36.8 267.5,37.0 267.9,37.3 268.2,37.5 268.5,37.7 268.8,38.0 269.2,38.3 269.5,38.6 269.7,38.8 270.0,39.1 270.3,39.4 270.6,39.7 270.8,40.0 271.0,40.2 271.2,40.5 271.4,40.7 271.7,41.1 272.1,41.6 273.1,43.0 275.9,46.7 276.2,47.1 276.5,47.5 276.7,47.7 276.9,48.0 277.0,48.2 277.2,48.4 277.4,48.6 277.6,48.8 277.8,49.0 278.0,49.1 278.3,49.4 278.5,49.6 278.8,49.8 279.0,50.0 279.3,50.2 279.6,50.5 279.9,50.7 280.2,50.9 280.5,51.1 280.8,51.3 281.1,51.5 281.3,51.6 281.6,51.8 282.0,52.0 282.3,52.1 282.6,52.2 283.0,52.4 283.3,52.6 283.8,52.7 284.1,52.9 284.5,53.0 284.8,53.1 285.1,53.2 285.4,53.3 285.7,53.4 286.0,53.4 286.4,53.5 286.7,53.6 287.0,53.7 292.8,54.9" opacity="0.8"/>
    <polyline points="314.6,71.2 312.2,68.3" opacity="0.8"/>
    <polyline points="320.2,81.6 320.0,80.5 319.7,79.3 319.3,78.2 318.7,76.9 317.9,75.5 316.8,73.9 314.6,71.2" opacity="0.8"/>
    <polyline points="514.1,250.5 514.8,250.0 515.6,249.5 516.5,248.8 517.3,248.0 517.9,247.3 518.5,246.4 518.9,245.6 519.2,244.4 519.5,243.0 519.3,240.3 518.1,236.5 516.1,231.3 514.6,228.4 511.5,225.8 500.4,221.0 499.2,220.6 494.0,217.4 485.6,211.2 480.5,204.3" opacity="0.8"/>
    <polyline points="159.4,183.6 159.5,183.7 159.6,183.9 159.7,184.0 160.1,184.5 160.3,184.7 160.5,184.9 160.8,185.2 161.2,185.7 161.6,186.2 161.7,186.3 161.8,186.4 161.9,186.5 162.1,186.6 162.2,186.6 162.3,186.7 162.5,186.7 162.6,186.8 162.8,186.8 162.9,186.8 163.0,186.8 163.2,186.8 163.4,186.8 163.5,186.8 163.6,186.7 163.8,186.7 163.9,186.6 164.0,186.5 164.1,186.4 164.2,186.4 164.3,186.3 164.3,186.2 164.4,186.1 164.5,186.0 164.5,185.9 164.5,185.8 164.6,185.7 164.6,185.5 164.6,185.4" opacity="0.8"/>
    <polyline points="526.9,371.1 527.3,371.3 527.6,371.4 527.9,371.6 528.2,371.7 528.7,372.0 528.8,372.0" opacity="0.8"/>
    <polyline points="458.2,492.3 457.9,491.7 457.9,491.6 457.8,491.4 457.7,491.3 457.5,490.6 457.4,490.3 457.3,490.1 457.2,489.9 457.1,489.7 457.0,489.5 456.9,489.3 456.7,489.1 456.6,488.8 456.5,488.7 456.2,488.4" opacity="0.8"/>
    <polyline points="454.1,467.4 453.0,468.8 452.8,469.1 452.6,469.4 452.2,470.1 451.7,470.8 451.3,471.6 449.9,474.2" opacity="0.8"/>
    <polyline points="447.2,480.2 447.3,480.8 447.4,481.2 447.5,481.6 447.6,481.9 447.9,482.3 448.1,482.7 448.4,482.9 448.6,483.2 448.9,483.4 449.4,483.7 450.2,484.2 451.1,484.6 452.5,485.3 452.8,485.5 453.2,485.7 453.8,486.1 454.3,486.5 454.8,486.9 455.3,487.4 456.2,488.3 456.5,488.5 456.7,488.7 456.8,488.9 457.0,489.1 457.3,489.2 457.5,489.4 457.7,489.5 457.8,489.6 458.0,489.7 458.2,489.8 458.4,489.9 458.6,489.9 458.8,490.0 459.0,490.0 459.2,490.1 459.3,490.1 459.5,490.1 459.6,490.1 459.7,490.1 459.8,490.1 460.1,490.1 460.3,490.1 461.1,490.0 461.2,490.0 461.4,490.0 461.6,490.0 461.7,490.0 462.3,489.8 462.4,489.8 462.6,489.7 462.7,489.7 462.9,489.7 463.5,489.7 463.7,489.7 463.8,489.7 463.9,489.6 464.7,489.5" opacity="0.8"/>
    <polyline points="517.0,363.5 517.4,364.6 517.6,365.2 517.8,365.7 517.9,366.4 517.9,367.1 517.8,367.7 517.7,368.1" opacity="0.8"/>
    <polyline points="442.8,95.7 445.8,93.1 447.2,91.2 448.1,89.8 448.3,89.0 449.0,85.5 448.3,81.0 447.7,76.7 444.9,65.4 438.6,57.5" opacity="0.8"/>
    <polyline points="539.7,438.3 539.3,438.6 538.9,439.0 538.3,439.5 537.7,439.9 536.9,440.5 536.0,441.2" opacity="0.8"/>
    <polyline points="530.6,445.8 529.0,447.3 527.7,448.4 526.2,449.8 525.0,450.8" opacity="0.8"/>
    <polyline points="561.8,377.5 562.2,377.5 562.8,377.6 564.2,377.6" opacity="0.8"/>
    <polyline points="564.2,377.6 566.3,377.8 567.2,377.9 567.9,378.0 568.5,378.0 569.2,378.1 569.8,378.3 570.2,378.4 570.7,378.5 571.3,378.7" opacity="0.8"/>
    <polyline points="517.5,367.7 517.6,367.1 517.6,366.5 517.4,365.8 517.1,364.7 516.8,363.6" opacity="0.8"/>
    <polyline points="516.8,363.6 516.6,363.1 516.4,362.6 516.3,362.2 516.2,361.8 516.1,361.5 516.1,361.3 515.9,360.6 515.8,360.1 515.7,359.6" opacity="0.8"/>
    <polyline points="517.4,363.4 517.2,362.8 517.0,362.3 517.0,362.1 516.7,361.4 516.5,360.9 516.4,360.5 516.3,360.2 516.2,359.8" opacity="0.8"/>
    <polyline points="521.2,369.4 520.6,369.1 519.8,368.7 519.4,368.3 518.9,367.8 518.0,365.2 517.4,363.4" opacity="0.8"/>
    <polyline points="410.2,339.1 410.4,339.4 410.5,339.7 410.7,340.0" opacity="0.8"/>
    <polyline points="69.4,536.9 71.6,537.2 73.5,537.5 76.3,538.4 78.5,539.4 83.2,542.5 86.7,544.8 89.8,546.8 91.9,547.7 92.9,548.2 94.5,548.6 96.2,548.7 99.6,548.8 102.1,548.8 104.3,548.8 107.3,548.5 110.2,547.9 113.4,547.0 116.1,545.8 118.5,543.9 120.1,542.0 121.7,539.5 122.5,537.2 122.9,535.6" opacity="0.8"/>
    <polyline points="122.9,535.6 123.3,533.3" opacity="0.8"/>
    <polyline points="147.7,518.4 149.4,518.5 151.5,518.6 153.8,518.6 156.3,518.4 159.1,518.1" opacity="0.8"/>
    <polyline points="159.1,518.1 160.0,518.0 160.9,517.8" opacity="0.8"/>
    <polyline points="338.3,375.3 340.1,374.5 342.4,373.8 346.5,372.5 351.4,371.1" opacity="0.8"/>
    <polyline points="369.4,367.0 370.5,366.8 371.3,366.6 372.1,366.4 372.8,366.2 373.8,365.9 375.8,365.4" opacity="0.8"/>
    <polyline points="338.3,375.3 335.9,376.7 334.5,377.7" opacity="0.8"/>
    <polyline points="311.9,394.4 311.8,394.8 311.7,395.3 311.6,395.8 311.6,396.3 311.5,397.0" opacity="0.8"/>
    <polyline points="311.5,397.0 311.5,397.3 311.5,397.7 311.6,398.4 311.7,399.5 311.9,400.7 312.0,401.6 312.3,403.5" opacity="0.8"/>
    <polyline points="312.9,391.7 312.8,392.0 312.6,392.4 312.4,392.8 312.2,393.2 312.0,393.9 311.9,394.4" opacity="0.8"/>
    <polyline points="313.9,390.2 313.3,391.1 313.1,391.5 312.9,391.7" opacity="0.8"/>
    <polyline points="146.4,163.9 149.4,166.6 150.2,167.3 152.1,168.9 155.4,171.9" opacity="0.8"/>
    <polyline points="146.4,163.9 145.3,162.9" opacity="0.8"/>
    <polyline points="166.1,190.5 166.3,191.7" opacity="0.8"/>
    <polyline points="155.4,171.9 155.9,172.3 156.3,172.7 156.7,173.0 157.4,173.7 158.1,174.4 158.8,175.1 159.3,175.6 159.8,176.1 160.2,176.5 160.5,176.8 160.7,177.1 161.0,177.3 161.3,177.6 161.5,178.0 161.9,178.4 162.2,178.8 162.5,179.2 162.8,179.6 163.1,180.2 163.4,180.6 163.6,181.0 163.9,181.5 164.1,181.9 164.3,182.3 164.5,182.7 164.7,183.2 164.9,183.8 165.1,184.4 165.2,185.0 165.3,185.3 165.4,185.8 165.5,186.2 165.6,186.7 165.7,186.9 165.7,187.4 165.8,187.8 165.8,188.2 166.1,190.5" opacity="0.8"/>
    <polyline points="324.6,348.8 325.2,348.7 326.3,348.5 327.4,348.4 329.3,348.2 329.6,348.2" opacity="0.8"/>
    <polyline points="406.0,338.2 404.4,341.3 400.1,349.5 399.7,350.4 399.3,351.1 398.9,351.8 398.3,352.6 397.8,353.4 397.3,353.9 396.9,354.4 396.2,355.1 394.2,357.0 392.8,358.4 392.1,359.0 391.4,359.7 390.6,360.2 389.6,360.9 388.6,361.4 387.7,361.9 386.8,362.3 385.9,362.6 384.9,363.0 383.8,363.3 382.4,363.7 380.1,364.3 378.8,364.7 377.2,365.1 375.8,365.5" opacity="0.8"/>
    <polyline points="409.8,332.5 409.4,332.9 409.3,333.2 409.1,333.5 409.0,333.9 408.8,334.3 408.7,334.8 408.6,335.3 408.6,335.7 408.6,336.2 408.7,336.7 408.8,337.2 409.0,337.6 409.2,337.9 409.5,338.4 409.8,338.8 410.1,339.2" opacity="0.8"/>
    <polyline points="410.0,344.5 409.6,344.6 409.4,344.7 409.3,344.7 409.2,344.7 409.1,344.7 409.0,344.7 408.9,344.6 408.8,344.6 408.6,344.6 408.3,344.5 407.9,344.4 407.8,344.4 407.7,344.3 407.5,344.3 407.4,344.3 407.3,344.3 407.2,344.3 407.1,344.3 407.0,344.4 406.9,344.4 406.5,344.5" opacity="0.8"/>
    <polyline points="408.5,344.6 408.4,344.6 408.3,344.6 408.2,344.6 407.7,344.7 407.5,344.7 407.4,344.7 407.3,344.8 406.7,345.0" opacity="0.8"/>
    <polyline points="409.5,345.0 409.3,345.1 409.2,345.2 409.1,345.2 407.1,345.9" opacity="0.8"/>
    <polyline points="409.6,344.6 409.1,344.7 408.5,344.9 407.7,345.1 407.5,345.1 406.8,345.4" opacity="0.8"/>
    <polyline points="411.3,342.9 411.2,342.6 411.1,342.5 410.9,342.2 410.8,342.1" opacity="0.8"/>
  </g>

  <!-- 지하철 역 -->
  <g id="subway-stations">
    <circle cx="499.4" cy="220.4" r="4" fill="#dc2626" stroke="#fff" stroke-width="2"/>
    <text x="499.4" y="212.4" text-anchor="middle" font-size="10" fill="#374151">Tekniska högskolan</text>
    <circle cx="396.9" cy="477.3" r="4" fill="#dc2626" stroke="#fff" stroke-width="2"/>
    <text x="396.9" y="469.3" text-anchor="middle" font-size="10" fill="#374151">Hagsätra</text>
    <circle cx="578.1" cy="388.9" r="4" fill="#dc2626" stroke="#fff" stroke-width="2"/>
    <text x="578.1" y="380.9" text-anchor="middle" font-size="10" fill="#374151">Björkhagen</text>
    <circle cx="236.3" cy="405.7" r="4" fill="#dc2626" stroke="#fff" stroke-width="2"/>
    <text x="236.3" y="397.7" text-anchor="middle" font-size="10" fill="#374151">Sätra</text>
    <circle cx="257.1" cy="377.8" r="4" fill="#dc2626" stroke="#fff" stroke-width="2"/>
    <text x="257.1" y="369.8" text-anchor="middle" font-size="10" fill="#374151">Bredäng</text>
    <circle cx="335.5" cy="377.2" r="4" fill="#dc2626" stroke="#fff" stroke-width="2"/>
    <text x="335.5" y="369.2" text-anchor="middle" font-size="10" fill="#374151">Hägerstensåsen</text>
    <circle cx="450.4" cy="473.6" r="4" fill="#dc2626" stroke="#fff" stroke-width="2"/>
    <text x="450.4" y="465.6" text-anchor="middle" font-size="10" fill="#374151">Högdalen</text>
    <circle cx="210.0" cy="433.0" r="4" fill="#dc2626" stroke="#fff" stroke-width="2"/>
    <text x="210.0" y="425.0" text-anchor="middle" font-size="10" fill="#374151">Skärholmen</text>
    <circle cx="169.3" cy="469.5" r="4" fill="#dc2626" stroke="#fff" stroke-width="2"/>
    <text x="169.3" y="461.5" text-anchor="middle" font-size="10" fill="#374151">Vårby gård</text>
    <circle cx="128.8" cy="524.2" r="4" fill="#dc2626" stroke="#fff" stroke-width="2"/>
    <text x="128.8" y="516.2" text-anchor="middle" font-size="10" fill="#374151">Fittja</text>
    <circle cx="292.9" cy="249.2" r="4" fill="#dc2626" stroke="#fff" stroke-width="2"/>
    <text x="292.9" y="241.2" text-anchor="middle" font-size="10" fill="#374151">Abrahamsberg</text>
    <circle cx="100.8" cy="549.0" r="4" fill="#dc2626" stroke="#fff" stroke-width="2"/>
    <text x="100.8" y="541.0" text-anchor="middle" font-size="10" fill="#374151">Alby</text>
    <circle cx="343.2" cy="258.6" r="4" fill="#dc2626" stroke="#fff" stroke-width="2"/>
    <text x="343.2" y="250.6" text-anchor="middle" font-size="10" fill="#374151">Alvik</text>
    <circle cx="378.7" cy="341.4" r="4" fill="#dc2626" stroke="#fff" stroke-width="2"/>
    <text x="378.7" y="333.4" text-anchor="middle" font-size="10" fill="#374151">Aspudden</text>
    <circle cx="329.3" cy="348.4" r="4" fill="#dc2626" stroke="#fff" stroke-width="2"/>
    <text x="329.3" y="340.4" text-anchor="middle" font-size="10" fill="#374151">Axelsberg</text>
    <circle cx="606.0" cy="435.2" r="4" fill="#dc2626" stroke="#fff" stroke-width="2"/>
    <text x="606.0" y="427.2" text-anchor="middle" font-size="10" fill="#374151">Bagarmossen</text>
    <circle cx="461.9" cy="453.4" r="4" fill="#dc2626" stroke="#fff" stroke-width="2"/>
    <text x="461.9" y="445.4" text-anchor="middle" font-size="10" fill="#374151">Bandhagen</text>
    <circle cx="440.4" cy="112.6" r="4" fill="#dc2626" stroke="#fff" stroke-width="2"/>
    <text x="440.4" y="104.6" text-anchor="middle" font-size="10" fill="#374151">Bergshamra</text>
    <circle cx="167.6" cy="212.1" r="4" fill="#dc2626" stroke="#fff" stroke-width="2"/>
    <text x="167.6" y="204.1" text-anchor="middle" font-size="10" fill="#374151">Blackeberg</text>
    <circle cx="535.2" cy="391.0" r="4" fill="#dc2626" stroke="#fff" stroke-width="2"/>
    <text x="535.2" y="383.0" text-anchor="middle" font-size="10" fill="#374151">Blåsut</text>
    <circle cx="268.1" cy="243.6" r="4" fill="#dc2626" stroke="#fff" stroke-width="2"/>
    <text x="268.1" y="235.6" text-anchor="middle" font-size="10" fill="#374151">Brommaplan</text>
    <circle cx="448.4" cy="81.0" r="4" fill="#dc2626" stroke="#fff" stroke-width="2"/>
    <text x="448.4" y="73.0" text-anchor="middle" font-size="10" fill="#374151">Danderyds sjukhus</text>
    <circle cx="312.5" cy="153.2" r="4" fill="#dc2626" stroke="#fff" stroke-width="2"/>
    <text x="312.5" y="145.2" text-anchor="middle" font-size="10" fill="#374151">Duvbo</text>
    <circle cx="498.2" cy="394.8" r="4" fill="#dc2626" stroke="#fff" stroke-width="2"/>
    <text x="498.2" y="386.8" text-anchor="middle" font-size="10" fill="#374151">Enskede gård</text>
    <circle cx="540.1" cy="536.6" r="4" fill="#dc2626" stroke="#fff" stroke-width="2"/>
    <text x="540.1" y="528.6" text-anchor="middle" font-size="10" fill="#374151">Farsta</text>
    <circle cx="429.2" cy="260.0" r="4" fill="#dc2626" stroke="#fff" stroke-width="2"/>
    <text x="429.2" y="252.0" text-anchor="middle" font-size="10" fill="#374151">Fridhemsplan</text>
    <circle cx="312.5" cy="403.5" r="4" fill="#dc2626" stroke="#fff" stroke-width="2"/>
    <text x="312.5" y="395.5" text-anchor="middle" font-size="10" fill="#374151">Fruängen</text>
    <circle cx="492.6" cy="289.8" r="4" fill="#dc2626" stroke="#fff" stroke-width="2"/>
    <text x="492.6" y="281.8" text-anchor="middle" font-size="10" fill="#374151">Gamla stan</text>
    <circle cx="509.8" cy="380.1" r="4" fill="#dc2626" stroke="#fff" stroke-width="2"/>
    <text x="509.8" y="372.1" text-anchor="middle" font-size="10" fill="#374151">Globen</text>
    <circle cx="519.2" cy="474.0" r="4" fill="#dc2626" stroke="#fff" stroke-width="2"/>
    <text x="519.2" y="466.0" text-anchor="middle" font-size="10" fill="#374151">Gubbängen</text>
    <circle cx="516.6" cy="363.2" r="4" fill="#dc2626" stroke="#fff" stroke-width="2"/>
    <text x="516.6" y="355.2" text-anchor="middle" font-size="10" fill="#374151">Gullmarsplan</text>
    <circle cx="320.0" cy="131.9" r="4" fill="#dc2626" stroke="#fff" stroke-width="2"/>
    <text x="320.0" y="123.9" text-anchor="middle" font-size="10" fill="#374151">Hallonbergen</text>
    <circle cx="66.0" cy="536.8" r="4" fill="#dc2626" stroke="#fff" stroke-width="2"/>
    <text x="66.0" y="528.8" text-anchor="middle" font-size="10" fill="#374151">Hallunda</text>
    <circle cx="558.4" cy="377.8" r="4" fill="#dc2626" stroke="#fff" stroke-width="2"/>
    <text x="558.4" y="369.8" text-anchor="middle" font-size="10" fill="#374151">Hammarbyhöjden</text>
    <circle cx="177.1" cy="64.6" r="4" fill="#dc2626" stroke="#fff" stroke-width="2"/>
    <text x="177.1" y="56.6" text-anchor="middle" font-size="10" fill="#374151">Hjulsta</text>
    <circle cx="439.2" cy="311.0" r="4" fill="#dc2626" stroke="#fff" stroke-width="2"/>
    <text x="439.2" y="303.0" text-anchor="middle" font-size="10" fill="#374151">Hornstull</text>
    <circle cx="351.6" cy="208.5" r="4" fill="#dc2626" stroke="#fff" stroke-width="2"/>
    <text x="351.6" y="200.5" text-anchor="middle" font-size="10" fill="#374151">Huvudsta</text>
    <circle cx="99.2" cy="155.0" r="4" fill="#dc2626" stroke="#fff" stroke-width="2"/>
    <text x="99.2" y="147.0" text-anchor="middle" font-size="10" fill="#374151">Hässelby gård</text>
    <circle cx="78.9" cy="172.3" r="4" fill="#dc2626" stroke="#fff" stroke-width="2"/>
    <text x="78.9" y="164.3" text-anchor="middle" font-size="10" fill="#374151">Hässelby strand</text>
    <circle cx="520.5" cy="493.5" r="4" fill="#dc2626" stroke="#fff" stroke-width="2"/>
    <text x="520.5" y="485.5" text-anchor="middle" font-size="10" fill="#374151">Hökarängen</text>
    <circle cx="486.0" cy="251.1" r="4" fill="#dc2626" stroke="#fff" stroke-width="2"/>
    <text x="486.0" y="243.1" text-anchor="middle" font-size="10" fill="#374151">Hötorget</text>
    <circle cx="187.1" cy="219.9" r="4" fill="#dc2626" stroke="#fff" stroke-width="2"/>
    <text x="187.1" y="211.9" text-anchor="middle" font-size="10" fill="#374151">Islandstorget</text>
    <circle cx="123.8" cy="152.0" r="4" fill="#dc2626" stroke="#fff" stroke-width="2"/>
    <text x="123.8" y="144.0" text-anchor="middle" font-size="10" fill="#374151">Johannelund</text>
    <circle cx="537.2" cy="239.0" r="4" fill="#dc2626" stroke="#fff" stroke-width="2"/>
    <text x="537.2" y="231.0" text-anchor="middle" font-size="10" fill="#374151">Karlaplan</text>
    <circle cx="499.7" cy="266.5" r="4" fill="#dc2626" stroke="#fff" stroke-width="2"/>
    <text x="499.7" y="258.5" text-anchor="middle" font-size="10" fill="#374151">Kungsträdgården</text>
    <circle cx="381.7" cy="261.2" r="4" fill="#dc2626" stroke="#fff" stroke-width="2"/>
    <text x="381.7" y="253.2" text-anchor="middle" font-size="10" fill="#374151">Kristineberg</text>
    <circle cx="576.6" cy="410.6" r="4" fill="#dc2626" stroke="#fff" stroke-width="2"/>
    <text x="576.6" y="402.6" text-anchor="middle" font-size="10" fill="#374151">Kärrtorp</text>
    <circle cx="415.2" cy="328.6" r="4" fill="#dc2626" stroke="#fff" stroke-width="2"/>
    <text x="415.2" y="320.6" text-anchor="middle" font-size="10" fill="#374151">Liljeholmen</text>
    <circle cx="481.1" cy="308.9" r="4" fill="#dc2626" stroke="#fff" stroke-width="2"/>
    <text x="481.1" y="300.9" text-anchor="middle" font-size="10" fill="#374151">Mariatorget</text>
    <circle cx="165.5" cy="516.7" r="4" fill="#dc2626" stroke="#fff" stroke-width="2"/>
    <text x="165.5" y="508.7" text-anchor="middle" font-size="10" fill="#374151">Masmo</text>
    <circle cx="503.5" cy="314.9" r="4" fill="#dc2626" stroke="#fff" stroke-width="2"/>
    <text x="503.5" y="306.9" text-anchor="middle" font-size="10" fill="#374151">Medborgarplatsen</text>
    <circle cx="393.8" cy="356.8" r="4" fill="#dc2626" stroke="#fff" stroke-width="2"/>
    <text x="393.8" y="348.8" text-anchor="middle" font-size="10" fill="#374151">Midsommarkransen</text>
    <circle cx="296.5" cy="358.8" r="4" fill="#dc2626" stroke="#fff" stroke-width="2"/>
    <text x="296.5" y="350.8" text-anchor="middle" font-size="10" fill="#374151">Mälarhöjden</text>
    <circle cx="438.6" cy="57.5" r="4" fill="#dc2626" stroke="#fff" stroke-width="2"/>
    <text x="438.6" y="49.5" text-anchor="middle" font-size="10" fill="#374151">Mörby centrum</text>
    <circle cx="342.3" cy="153.2" r="4" fill="#dc2626" stroke="#fff" stroke-width="2"/>
    <text x="342.3" y="145.2" text-anchor="middle" font-size="10" fill="#374151">Näckrosen</text>
    <circle cx="458.9" cy="229.0" r="4" fill="#dc2626" stroke="#fff" stroke-width="2"/>
    <text x="458.9" y="221.0" text-anchor="middle" font-size="10" fill="#374151">Odenplan</text>
    <circle cx="248.2" cy="89.3" r="4" fill="#dc2626" stroke="#fff" stroke-width="2"/>
    <text x="248.2" y="81.3" text-anchor="middle" font-size="10" fill="#374151">Rinkeby</text>
    <circle cx="269.0" cy="128.4" r="4" fill="#dc2626" stroke="#fff" stroke-width="2"/>
    <text x="269.0" y="120.4" text-anchor="middle" font-size="10" fill="#374151">Rissne</text>
    <circle cx="555.0" cy="184.7" r="4" fill="#dc2626" stroke="#fff" stroke-width="2"/>
    <text x="555.0" y="176.7" text-anchor="middle" font-size="10" fill="#374151">Ropsten</text>
    <circle cx="166.1" cy="192.2" r="4" fill="#dc2626" stroke="#fff" stroke-width="2"/>
    <text x="166.1" y="184.2" text-anchor="middle" font-size="10" fill="#374151">Råcksta</text>
    <circle cx="452.5" cy="268.7" r="4" fill="#dc2626" stroke="#fff" stroke-width="2"/>
    <text x="452.5" y="260.7" text-anchor="middle" font-size="10" fill="#374151">Rådhuset</text>
    <circle cx="478.6" cy="237.4" r="4" fill="#dc2626" stroke="#fff" stroke-width="2"/>
    <text x="478.6" y="229.4" text-anchor="middle" font-size="10" fill="#374151">Rådmansgatan</text>
    <circle cx="424.6" cy="495.4" r="4" fill="#dc2626" stroke="#fff" stroke-width="2"/>
    <text x="424.6" y="487.4" text-anchor="middle" font-size="10" fill="#374151">Rågsved</text>
    <circle cx="536.6" cy="405.9" r="4" fill="#dc2626" stroke="#fff" stroke-width="2"/>
    <text x="536.6" y="397.9" text-anchor="middle" font-size="10" fill="#374151">Sandsborg</text>
    <circle cx="440.1" cy="236.6" r="4" fill="#dc2626" stroke="#fff" stroke-width="2"/>
    <text x="440.1" y="228.6" text-anchor="middle" font-size="10" fill="#374151">Sankt Eriksplan</text>
    <circle cx="508.4" cy="334.9" r="4" fill="#dc2626" stroke="#fff" stroke-width="2"/>
    <text x="508.4" y="326.9" text-anchor="middle" font-size="10" fill="#374151">Skanstull</text>
    <circle cx="609.1" cy="465.3" r="4" fill="#dc2626" stroke="#fff" stroke-width="2"/>
    <text x="609.1" y="457.3" text-anchor="middle" font-size="10" fill="#374151">Skarpnäck</text>
    <circle cx="542.6" cy="427.5" r="4" fill="#dc2626" stroke="#fff" stroke-width="2"/>
    <text x="542.6" y="419.5" text-anchor="middle" font-size="10" fill="#374151">Skogskyrkogården</text>
    <circle cx="533.0" cy="375.4" r="4" fill="#dc2626" stroke="#fff" stroke-width="2"/>
    <text x="533.0" y="367.4" text-anchor="middle" font-size="10" fill="#374151">Skärmarbrink</text>
    <circle cx="501.7" cy="302.1" r="4" fill="#dc2626" stroke="#fff" stroke-width="2"/>
    <text x="501.7" y="294.1" text-anchor="middle" font-size="10" fill="#374151">Slussen</text>
    <circle cx="498.4" cy="414.2" r="4" fill="#dc2626" stroke="#fff" stroke-width="2"/>
    <text x="498.4" y="406.2" text-anchor="middle" font-size="10" fill="#374151">Sockenplan</text>
    <circle cx="370.6" cy="178.1" r="4" fill="#dc2626" stroke="#fff" stroke-width="2"/>
    <text x="370.6" y="170.1" text-anchor="middle" font-size="10" fill="#374151">Solna centrum</text>
    <circle cx="327.2" cy="193.6" r="4" fill="#dc2626" stroke="#fff" stroke-width="2"/>
    <text x="327.2" y="185.6" text-anchor="middle" font-size="10" fill="#374151">Solna strand</text>
    <circle cx="516.3" cy="231.2" r="4" fill="#dc2626" stroke="#fff" stroke-width="2"/>
    <text x="516.3" y="223.2" text-anchor="middle" font-size="10" fill="#374151">Stadion</text>
    <circle cx="402.4" cy="245.6" r="4" fill="#dc2626" stroke="#fff" stroke-width="2"/>
    <text x="402.4" y="237.6" text-anchor="middle" font-size="10" fill="#374151">Stadshagen</text>
    <circle cx="314.6" cy="255.1" r="4" fill="#dc2626" stroke="#fff" stroke-width="2"/>
    <text x="314.6" y="247.1" text-anchor="middle" font-size="10" fill="#374151">Stora mossen</text>
    <circle cx="472.8" cy="440.0" r="4" fill="#dc2626" stroke="#fff" stroke-width="2"/>
    <text x="472.8" y="432.0" text-anchor="middle" font-size="10" fill="#374151">Stureby</text>
    <circle cx="325.9" cy="174.5" r="4" fill="#dc2626" stroke="#fff" stroke-width="2"/>
    <text x="325.9" y="166.5" text-anchor="middle" font-size="10" fill="#374151">Sundbybergs centrum</text>
    <circle cx="492.8" cy="431.2" r="4" fill="#dc2626" stroke="#fff" stroke-width="2"/>
    <text x="492.8" y="423.2" text-anchor="middle" font-size="10" fill="#374151">Svedmyra</text>
    <circle cx="481.9" cy="263.3" r="4" fill="#dc2626" stroke="#fff" stroke-width="2"/>
    <text x="481.9" y="255.3" text-anchor="middle" font-size="10" fill="#374151">T-Centralen</text>
    <circle cx="526.2" cy="449.6" r="4" fill="#dc2626" stroke="#fff" stroke-width="2"/>
    <text x="526.2" y="441.6" text-anchor="middle" font-size="10" fill="#374151">Tallkrogen</text>
    <circle cx="371.3" cy="366.8" r="4" fill="#dc2626" stroke="#fff" stroke-width="2"/>
    <text x="371.3" y="358.8" text-anchor="middle" font-size="10" fill="#374151">Telefonplan</text>
    <circle cx="197.6" cy="69.2" r="4" fill="#dc2626" stroke="#fff" stroke-width="2"/>
    <text x="197.6" y="61.2" text-anchor="middle" font-size="10" fill="#374151">Tensta</text>
    <circle cx="399.7" cy="264.7" r="4" fill="#dc2626" stroke="#fff" stroke-width="2"/>
    <text x="399.7" y="256.7" text-anchor="middle" font-size="10" fill="#374151">Thorildsplan</text>
    <circle cx="470.2" cy="161.1" r="4" fill="#dc2626" stroke="#fff" stroke-width="2"/>
    <text x="470.2" y="153.1" text-anchor="middle" font-size="10" fill="#374151">Universitetet</text>
    <circle cx="146.7" cy="164.4" r="4" fill="#dc2626" stroke="#fff" stroke-width="2"/>
    <text x="146.7" y="156.4" text-anchor="middle" font-size="10" fill="#374151">Vällingby</text>
    <circle cx="315.7" cy="388.5" r="4" fill="#dc2626" stroke="#fff" stroke-width="2"/>
    <text x="315.7" y="380.5" text-anchor="middle" font-size="10" fill="#374151">Västertorp</text>
    <circle cx="381.3" cy="215.6" r="4" fill="#dc2626" stroke="#fff" stroke-width="2"/>
    <text x="381.3" y="207.6" text-anchor="middle" font-size="10" fill="#374151">Västra skogen</text>
    <circle cx="181.6" cy="435.8" r="4" fill="#dc2626" stroke="#fff" stroke-width="2"/>
    <text x="181.6" y="427.8" text-anchor="middle" font-size="10" fill="#374151">Vårberg</text>
    <circle cx="461.2" cy="306.7" r="4" fill="#dc2626" stroke="#fff" stroke-width="2"/>
    <text x="461.2" y="298.7" text-anchor="middle" font-size="10" fill="#374151">Zinkensdamm</text>
    <circle cx="211.2" cy="232.4" r="4" fill="#dc2626" stroke="#fff" stroke-width="2"/>
    <text x="211.2" y="224.4" text-anchor="middle" font-size="10" fill="#374151">Ängbyplan</text>
    <circle cx="240.8" cy="231.7" r="4" fill="#dc2626" stroke="#fff" stroke-width="2"/>
    <text x="240.8" y="223.7" text-anchor="middle" font-size="10" fill="#374151">Åkeshov</text>
    <circle cx="352.7" cy="345.3" r="4" fill="#dc2626" stroke="#fff" stroke-width="2"/>
    <text x="352.7" y="337.3" text-anchor="middle" font-size="10" fill="#374151">Örnsberg</text>
    <circle cx="511.4" cy="252.2" r="4" fill="#dc2626" stroke="#fff" stroke-width="2"/>
    <text x="511.4" y="244.2" text-anchor="middle" font-size="10" fill="#374151">Östermalmstorg</text>
    <circle cx="548.8" cy="220.1" r="4" fill="#dc2626" stroke="#fff" stroke-width="2"/>
    <text x="548.8" y="212.1" text-anchor="middle" font-size="10" fill="#374151">Gärdet</text>
  </g>
</svg>