<?xml version="1.0" encoding="UTF-8"?>
<svg width="800" height="600" xmlns="http://www.w3.org/2000/svg">
  <title>Suzhou Subway Map</title>
  <rect width="100%" height="100%" fill="#f8f9fa"/>

  <!-- 지하철 선로 -->
  <g stroke="#2563eb" stroke-width="2" fill="none" opacity="0.8">
    <polyline points="574.6,-98.4 579.1,-80.6 579.6,-77.1 579.9,-73.4 579.4,-70.1 578.5,-65.4 576.6,-60.7 574.8,-57.5 570.9,-53.1 567.6,-50.2 564.3,-48.1 560.0,-46.0 555.2,-44.4 549.9,-43.3 544.0,-42.2 517.4,-38.9 486.1,-35.5 437.1,-32.2 423.6,-31.2 417.3,-30.3 412.5,-29.2 407.9,-27.7 404.8,-26.2 400.3,-23.4 395.9,-19.9 392.6,-16.7 390.2,-13.5 388.5,-10.4 387.5,-6.7 386.7,-3.0 386.5,-0.2 387.0,3.3 387.9,8.6 393.3,34.9 397.4,53.5 412.2,126.3 421.7,167.8 422.9,173.7 423.0,175.4 422.8,177.3 422.5,178.7 422.1,179.9 421.5,181.0 420.6,182.1 419.2,183.5 417.5,184.6 415.9,185.5 413.7,186.4 411.6,187.1 408.2,188.0 405.4,188.7 400.7,189.6 370.1,195.1 351.4,198.5 344.6,200.0 338.7,201.6 334.6,202.9 331.7,204.0 326.3,206.2 324.2,207.3 321.8,208.6 319.8,210.0 318.1,211.5 316.8,213.0 315.7,215.1 314.8,217.8 314.0,221.4 308.0,256.2 307.5,258.6 306.9,260.6 305.7,263.1 304.3,265.2 298.7,271.1 290.3,279.3 288.1,281.7 286.4,283.9 285.4,285.6 284.2,287.8 283.7,289.6 282.4,293.8 281.8,296.7 281.2,298.6 279.8,302.3 273.9,312.4 271.0,317.3 269.0,320.8 266.5,324.5 261.6,329.4 256.0,334.8 253.8,337.4 251.4,340.8 249.2,344.9 247.8,348.1 246.6,352.2 245.7,358.4 245.9,363.0 246.5,368.0 253.0,398.5 258.7,436.4 263.7,470.3 264.6,478.5 264.9,481.8 264.9,483.7 264.7,485.6 264.4,488.0 263.6,490.8 262.4,494.1 260.8,497.3 258.4,500.6 254.1,505.3 245.0,512.8 238.9,520.3 234.2,526.9 231.0,533.4 227.8,541.0 224.2,548.7 221.9,554.1 220.4,558.7 219.0,565.9 218.7,569.9 218.7,573.6 221.0,594.6 222.1,605.4 224.8,640.8 225.4,645.4 226.3,649.5 228.0,654.5 231.7,663.1 234.5,669.5 235.6,673.1 236.8,677.2 237.9,681.6 242.8,714.8 243.7,719.8 244.4,723.1 244.9,725.6 246.1,729.1 249.6,737.8 251.8,743.3 252.9,745.2 254.1,747.2 258.0,752.0 269.5,765.6 288.6,788.4 296.7,798.0 301.2,802.9 304.1,805.6 306.5,807.4 309.1,809.0 311.5,810.3 314.2,811.4 317.6,812.5 321.5,813.5 325.3,814.1 327.6,814.3 330.0,814.4 339.1,814.2 351.2,813.2 363.9,812.1 376.0,811.5 386.6,810.9 389.4,810.9 392.3,811.0 396.5,811.6 400.9,813.1 404.3,814.8 406.6,816.4 408.7,818.2 410.7,820.5 412.0,823.0 412.9,825.6 413.4,828.9 414.0,833.0 415.1,876.2 416.9,903.8 415.9,913.5 414.4,923.3 414.0,929.5 413.6,941.1 413.5,946.9 413.9,952.0 414.8,958.1 418.3,972.2 419.4,977.2 420.9,982.9 422.6,987.1 425.8,993.7 427.0,995.9 428.3,997.7 430.4,1000.0 432.4,1001.7 435.1,1003.5 439.1,1005.4 443.0,1006.6 448.5,1007.6 453.5,1008.2 458.3,1008.5 515.1,1008.5 583.7,1008.3 651.7,1008.2 657.2,1008.2 660.1,1008.3 663.6,1008.5 667.9,1009.2 672.9,1010.3 677.9,1011.6 683.2,1013.6 727.6,1030.4 734.8,1032.8 738.7,1033.9 742.9,1034.8 746.1,1035.3 750.7,1035.7 756.5,1036.4 794.6,1039.1 809.0,1040.1"/>
    <polyline points="2053.8,431.3 2047.8,428.6 2041.8,427.2 2035.7,426.7 2030.2,426.7 2008.4,426.8 1885.8,430.4 1775.6,430.1 1759.5,430.1 1757.3,430.1 1738.9,430.1 1729.7,429.4 1704.4,428.2 1685.7,429.0 1671.4,429.4 1662.1,429.7 1652.3,429.8 1640.0,431.4 1618.3,434.4 1618.1,434.4 1591.1,438.9 1556.0,446.4 1524.2,447.2 1502.6,446.7 1460.5,444.3 1426.5,444.6 1363.9,447.4 1320.3,450.3 1256.7,450.2 1191.7,450.2 1157.1,450.9 1142.5,451.1 1138.1,451.7 1134.1,453.1 1129.8,453.9 1125.4,454.2 1091.9,454.3 1061.2,454.5 1020.2,454.8 976.4,455.3 880.4,456.3 852.3,456.1 846.7,456.3 835.7,457.3 830.5,458.0 819.2,460.2 803.7,463.6 784.2,469.6 776.0,471.5 768.2,474.3 700.5,485.2 670.3,490.6 652.7,491.9 635.1,493.2 629.7,493.4 624.8,493.2 621.6,492.6 618.9,491.3 617.5,489.9 616.4,488.4 615.5,485.7 611.5,452.4 610.3,447.9 609.4,446.2 607.8,444.9 605.8,444.0 603.7,443.2 601.2,441.5 600.0,440.4 599.1,439.0 598.1,437.5 597.2,435.6 594.4,425.8 579.0,368.5 557.1,283.2 555.7,278.0 547.8,250.6 548.1,247.5 549.3,245.2 551.1,243.2 553.6,241.7 556.1,240.9 559.2,240.5 589.1,237.9 597.3,236.7 601.2,235.9 603.4,235.2 605.4,234.0 608.6,230.8 609.8,228.9 611.0,226.1 613.7,210.9 613.7,206.9 613.0,202.1 601.0,161.7 596.7,146.6 593.5,135.7 584.4,118.4 582.3,115.3 578.6,111.0 576.2,109.2 573.3,108.1 570.8,107.8 567.8,107.7 562.1,108.0 526.6,111.3 506.7,112.0 497.8,112.7 420.2,125.9 400.5,128.7 381.0,131.1 351.7,134.8 321.7,137.3"/>
    <polyline points="321.7,137.3 304.4,138.5"/>
    <polyline points="304.4,138.5 289.4,139.6 209.8,145.3 201.5,146.0 193.0,148.1 187.8,149.9 180.2,153.3 166.3,164.5 157.2,174.6 153.5,177.9 151.4,179.4 150.0,180.1 148.2,180.6 145.7,181.0 142.7,180.9 138.2,180.2 133.9,179.9 129.3,179.7 124.2,179.7 117.4,180.3 108.9,181.4 101.5,182.3 78.9,185.0 73.9,185.6 68.3,186.7 62.6,188.8 56.5,192.1 50.0,196.3 44.8,199.1 39.7,201.5 32.1,203.7 24.7,205.0 18.2,205.7 8.5,206.0 -18.6,207.9 -33.9,209.1 -44.4,209.5 -51.6,208.6 -57.4,206.7 -66.7,203.2 -75.2,199.2 -84.3,194.5 -91.4,189.9 -95.5,186.5 -118.4,167.0 -156.8,132.6 -179.0,113.0"/>
    <polyline points="2054.9,430.3 2048.5,427.3 2042.2,425.9 2035.9,425.3 2030.2,425.3 2008.2,425.5 1885.8,428.8 1775.6,428.6 1759.5,428.8 1757.3,428.8 1738.8,428.8 1729.9,428.1 1704.5,426.9 1685.6,427.6 1671.3,428.1 1662.0,428.4 1652.1,428.6 1639.7,430.0 1618.0,433.0 1617.7,433.1 1590.7,437.5 1555.8,445.1 1524.2,445.8 1502.6,445.3 1460.6,442.9 1426.5,443.2 1363.8,446.0 1320.2,448.9 1256.7,448.9 1191.7,448.8 1157.0,449.5 1142.6,449.7 1137.8,450.3 1133.9,451.5 1129.5,452.3 1125.3,452.5 1091.7,452.9 1061.2,453.2 1020.1,453.5 976.3,453.9 880.3,454.9 846.5,455.1 835.6,456.1 828.8,457.0 818.6,458.7 803.1,462.3 783.6,468.3 775.4,470.2 767.7,473.0 700.2,483.8 670.0,489.3 652.4,490.6 635.0,491.9 629.8,492.0 625.1,491.9 622.3,491.3 620.1,490.3 618.9,489.1 618.0,487.9 617.2,485.4 613.2,452.2 612.0,447.5 610.9,445.4 609.0,443.9 606.7,442.8 604.7,442.1 602.4,440.6 601.5,439.7 600.6,438.4 599.6,436.9 598.8,435.2 596.0,425.4 580.6,368.2 558.7,283.0 557.4,277.7 549.5,250.5 549.8,247.8 550.8,245.8 552.4,244.1 554.4,242.9 556.6,242.2 559.5,241.9 589.3,239.2 597.6,238.0 601.8,237.2 604.3,236.3 606.7,234.9 610.0,231.5 611.4,229.4 612.7,226.4 615.4,211.0 615.5,206.8 614.7,201.9 602.7,161.4 598.4,146.3 595.1,135.3 585.9,117.9 583.8,114.6 579.9,110.1 577.2,108.1 573.9,106.8 571.0,106.4 567.7,106.3 561.9,106.7 526.5,109.9 506.6,110.7 497.5,111.3 419.9,124.6 400.2,127.3 380.8,129.8 351.5,133.5 321.5,135.9"/>
    <polyline points="321.5,135.9 307.8,136.9 304.2,137.1"/>
    <polyline points="304.2,137.1 289.2,138.2 209.7,144.0 201.2,144.7 192.4,146.8 187.0,148.6 179.2,152.2 165.0,163.7 155.9,173.7 152.3,177.0 150.4,178.3 149.2,178.8 147.8,179.3 145.6,179.6 142.9,179.6 138.4,178.9 134.1,178.5 129.4,178.4 124.1,178.4 117.2,179.0 108.6,180.1 101.2,181.0 78.7,183.7 73.5,184.2 67.7,185.4 61.8,187.6 55.4,191.1 49.0,195.3 43.9,198.0 39.0,200.3 31.6,202.4 24.4,203.7 18.1,204.3 8.4,204.6 -18.8,206.5 -34.0,207.7 -44.3,208.1 -51.1,207.3 -56.7,205.4 -65.9,202.0 -74.3,198.1 -83.3,193.4 -90.2,188.9 -94.3,185.5 -117.1,166.1 -155.5,131.7 -177.9,112.0"/>
    <polyline points="283.1,-122.2 291.2,-86.2 293.8,-74.3 294.4,-70.1 294.7,-65.6 294.6,-62.0 294.2,-57.1 293.6,-52.6 279.4,8.7 278.3,15.0 277.6,19.3 276.9,24.6 276.8,27.4 277.0,30.9 277.4,33.6 281.2,53.8 285.1,70.8 285.6,72.4 286.0,74.0 287.3,78.1 288.8,81.9 296.3,96.3 297.6,98.7 298.4,100.6 301.2,110.4 308.5,136.3 311.6,144.6 313.8,149.0 315.7,151.6 318.4,154.4 321.6,156.9 328.1,161.0 352.1,173.5 356.1,175.9 359.5,178.1 362.2,180.3 364.4,182.6 366.1,185.0 366.8,186.6 367.4,188.2 370.0,196.9 376.3,216.1 384.2,242.7 385.7,245.8"/>
    <polyline points="385.7,245.8 387.4,248.6 389.4,251.4 391.5,253.6 393.8,255.6 396.3,257.3 398.9,258.9 403.7,261.1 453.5,277.4 457.1,278.7 458.9,279.5 460.5,280.3 462.9,281.9 464.5,283.5 466.2,286.1 467.5,288.6 469.8,293.6 472.0,299.0 473.2,302.2 473.9,304.4 475.0,308.0 475.4,310.6 476.4,315.1 477.9,325.9 479.3,337.5 481.1,347.7 482.8,359.6 486.2,381.4 491.5,403.4 492.4,406.9 498.8,433.0 502.9,450.9 503.6,454.4 511.4,503.6 514.5,522.3 516.1,531.6 517.7,539.7 520.0,551.0 523.1,568.8 527.3,598.9 531.0,623.3 538.6,668.3 545.1,703.4 557.0,762.2 558.6,771.4 559.8,778.4 564.7,809.7 567.9,834.3 568.8,840.9 571.7,859.5 581.1,915.8 581.9,932.3 583.0,959.9 583.6,981.8"/>
    <polyline points="284.9,-122.4 293.0,-86.4 295.7,-74.5 296.2,-70.2 296.6,-65.7 296.5,-61.9 296.1,-56.9 295.5,-52.4 281.3,8.9 280.2,15.2 279.5,19.5 278.8,24.7 278.7,27.4 278.9,30.8 279.3,33.4 283.0,53.6 287.0,70.5 287.4,72.1 287.9,73.7 289.1,77.7 290.6,81.4 298.0,95.8 299.4,98.2 300.2,100.2 303.1,110.1 310.3,136.0 313.4,144.1 315.6,148.3 317.3,150.7 319.9,153.4 322.9,155.8 329.3,159.8 353.2,172.3 357.3,174.8 360.8,177.0 363.6,179.3 366.0,181.8 367.8,184.3 368.6,186.1 369.2,187.8 371.9,196.6 378.1,215.8 386.0,242.3 387.5,245.2"/>
    <polyline points="387.5,245.2 389.1,248.0 390.9,250.6 392.9,252.6 395.1,254.5 397.5,256.2 400.0,257.6 404.6,259.8 454.3,276.0 457.9,277.4 459.9,278.2 461.6,279.1 464.2,280.8 466.1,282.7 468.0,285.4 469.3,288.0 471.6,293.1 473.8,298.5 475.1,301.8 475.7,304.1 476.8,307.7 477.3,310.3 478.3,314.9 479.8,325.7 481.2,337.4 483.0,347.6 484.7,359.4 488.1,381.1 493.4,403.1 494.2,406.6 500.7,432.7 504.7,450.6 505.5,454.2 513.3,503.4 516.3,522.1 517.9,531.4 519.6,539.5 521.8,550.7 525.0,568.6 529.1,598.8 532.8,623.1 540.5,668.1 547.0,703.2 558.8,762.0 560.5,771.2 561.7,778.2 566.5,809.5 569.7,834.1 570.6,840.7 573.6,859.3 583.0,915.7 583.8,932.3 584.8,959.8 585.5,981.7"/>
    <polyline points="-34.2,505.1 -5.5,502.4 51.7,496.1 79.8,493.0 92.4,491.5 107.7,490.2 153.2,485.8 260.4,476.8 323.3,471.8 374.8,468.2 406.5,464.8 445.1,460.1 464.1,457.5 481.9,454.8 502.7,451.1 597.9,434.3 617.7,431.2 627.8,429.4 637.5,427.4 649.5,423.3 652.3,422.6 654.9,422.0 673.4,418.6 685.9,416.9 688.6,416.4 690.4,415.9 696.2,414.3 705.2,411.6 714.6,408.8 724.2,405.8 725.7,405.3 727.4,404.9 728.4,404.6 729.8,404.4 731.2,404.2 733.2,404.1 745.1,403.3 748.9,403.0 755.0,402.4 756.3,402.3 757.5,402.1 764.6,400.9 812.9,391.1 932.6,374.4 973.5,368.6 1050.6,357.0 1156.4,341.0 1159.5,340.4 1188.0,335.9 1236.3,328.8 1246.5,327.0 1256.0,324.7 1263.5,322.5 1366.2,283.9 1368.6,283.2 1371.7,282.4 1375.8,281.5 1380.0,280.7 1385.0,279.8 1393.0,278.8 1395.6,278.6 1398.6,278.3 1403.4,278.1 1407.5,278.0 1428.1,277.7 1446.7,277.4 1473.8,277.5 1484.3,278.9 1505.3,282.4 1514.4,283.4 1518.5,283.8 1525.4,284.1 1529.5,284.1 1533.7,284.2 1538.9,284.1 1548.5,283.5 1560.7,282.5 1579.7,280.9 1611.5,277.9 1633.5,275.8 1658.4,273.4 1681.3,271.3 1755.9,264.3 1796.4,260.7 1836.1,256.9 1876.8,252.7 1926.6,248.9 2011.6,243.6"/>
    <polyline points="-34.4,503.6 -5.7,500.9 51.4,494.6 79.5,491.5 92.2,490.0 107.5,488.7 153.0,484.3 260.2,475.4 323.1,470.3 374.6,466.7 406.2,463.3 444.7,458.6 463.7,456.0 481.5,453.3 502.2,449.7 597.5,432.8 617.3,429.7 627.4,427.9 636.9,426.0 648.8,421.9 651.7,421.1 654.4,420.6 673.1,417.2 685.5,415.4 688.1,415.0 689.8,414.5 695.6,412.9 704.6,410.2 713.9,407.4 723.5,404.4 725.1,403.9 726.8,403.4 727.9,403.2 729.4,402.9 731.0,402.7 733.0,402.6 744.9,401.8 748.7,401.5 754.8,400.9 756.0,400.8 757.1,400.6 764.2,399.4 812.5,389.6 932.3,372.9 973.1,367.1 1050.2,355.5 1156.0,339.5 1159.1,339.0 1187.7,334.5 1235.9,327.3 1246.0,325.5 1255.4,323.3 1262.7,321.1 1365.5,282.5 1368.0,281.8 1371.1,280.9 1375.4,280.1 1379.5,279.3 1384.7,278.3 1392.7,277.4 1395.3,277.1 1398.4,276.8 1403.3,276.6 1407.5,276.5 1428.1,276.2 1446.7,275.9 1474.0,276.0 1484.7,277.4 1505.6,280.9 1514.6,281.9 1518.7,282.3 1525.4,282.6 1529.6,282.6 1533.7,282.7 1538.8,282.6 1548.4,282.0 1560.5,281.0 1579.5,279.4 1611.2,276.4 1633.2,274.3 1658.2,271.9 1681.1,269.8 1755.7,262.9 1796.2,259.2 1835.9,255.4 1876.6,251.3 1926.5,247.4 2011.5,242.1"/>
  </g>

  <!-- 지하철 역 -->
  <g>
    <circle cx="597.7" cy="433.6" r="3" fill="#dc2626" stroke="#fff" stroke-width="1"/>
    <circle cx="685.7" cy="416.1" r="3" fill="#dc2626" stroke="#fff" stroke-width="1"/>
    <circle cx="406.4" cy="464.1" r="3" fill="#dc2626" stroke="#fff" stroke-width="1"/>
    <circle cx="260.3" cy="476.1" r="3" fill="#dc2626" stroke="#fff" stroke-width="1"/>
    <circle cx="153.1" cy="485.1" r="3" fill="#dc2626" stroke="#fff" stroke-width="1"/>
    <circle cx="397.4" cy="53.5" r="3" fill="#dc2626" stroke="#fff" stroke-width="1"/>
    <circle cx="273.9" cy="312.4" r="3" fill="#dc2626" stroke="#fff" stroke-width="1"/>
    <circle cx="227.8" cy="541.0" r="3" fill="#dc2626" stroke="#fff" stroke-width="1"/>
    <circle cx="253.0" cy="398.5" r="3" fill="#dc2626" stroke="#fff" stroke-width="1"/>
    <circle cx="518.6" cy="539.6" r="3" fill="#dc2626" stroke="#fff" stroke-width="1"/>
    <circle cx="492.5" cy="403.3" r="3" fill="#dc2626" stroke="#fff" stroke-width="1"/>
    <circle cx="472.9" cy="298.7" r="3" fill="#dc2626" stroke="#fff" stroke-width="1"/>
    <circle cx="282.1" cy="53.7" r="3" fill="#dc2626" stroke="#fff" stroke-width="1"/>
    <circle cx="503.5" cy="450.3" r="3" fill="#dc2626" stroke="#fff" stroke-width="1"/>
    <circle cx="263.7" cy="470.3" r="3" fill="#dc2626" stroke="#fff" stroke-width="1"/>
    <circle cx="371.0" cy="196.8" r="3" fill="#dc2626" stroke="#fff" stroke-width="1"/>
    <circle cx="108.8" cy="180.8" r="3" fill="#dc2626" stroke="#fff" stroke-width="1"/>
    <circle cx="209.7" cy="144.7" r="3" fill="#dc2626" stroke="#fff" stroke-width="1"/>
    <circle cx="557.9" cy="283.1" r="3" fill="#dc2626" stroke="#fff" stroke-width="1"/>
    <circle cx="579.9" cy="368.3" r="3" fill="#dc2626" stroke="#fff" stroke-width="1"/>
    <circle cx="597.6" cy="146.3" r="3" fill="#dc2626" stroke="#fff" stroke-width="1"/>
    <circle cx="652.6" cy="491.3" r="3" fill="#dc2626" stroke="#fff" stroke-width="1"/>
    <circle cx="595.3" cy="425.6" r="3" fill="#dc2626" stroke="#fff" stroke-width="1"/>
    <circle cx="307.4" cy="137.5" r="3" fill="#dc2626" stroke="#fff" stroke-width="1"/>
    <circle cx="420.5" cy="125.1" r="3" fill="#dc2626" stroke="#fff" stroke-width="1"/>
  </g>
</svg>