<?xml version="1.0" encoding="UTF-8"?>
<svg width="800" height="600" xmlns="http://www.w3.org/2000/svg">
  <title>Sydney Subway Map</title>
  <rect width="100%" height="100%" fill="#f8f9fa"/>

  <!-- 지하철 선로 -->
  <g stroke="#2563eb" stroke-width="2" fill="none" opacity="0.8">
    <polyline points="612.1,249.3 612.1,249.2 612.1,248.8 612.1,248.4 612.0,246.7 612.0,246.5 612.0,246.3 612.0,246.2 612.0,246.0 612.0,245.9 612.0,245.8"/>
    <polyline points="612.1,251.6 612.1,251.3"/>
    <polyline points="612.2,254.4 612.2,254.3"/>
    <polyline points="612.2,254.3 612.2,254.0 612.1,253.2 612.1,252.6 612.1,252.4"/>
    <polyline points="612.1,251.3 612.1,250.8 612.1,250.1 612.1,249.8 612.1,249.3"/>
    <polyline points="612.2,256.8 612.2,255.5 612.2,254.9"/>
    <polyline points="612.0,245.8 612.1,245.9 612.1,246.0 612.1,246.2 612.1,246.3 612.1,246.5 612.1,246.7 612.1,248.4 612.1,248.8 612.1,249.2 612.1,249.3"/>
    <polyline points="612.1,251.3 612.2,251.6"/>
    <polyline points="612.2,254.2 612.2,254.4"/>
    <polyline points="612.2,251.6 612.2,252.0 612.2,252.6 612.2,253.2 612.2,254.0 612.2,254.2"/>
    <polyline points="612.2,255.4 612.2,255.5 612.2,255.9 612.2,256.4 612.2,256.6 612.2,256.8"/>
    <polyline points="612.1,249.3 612.1,249.8 612.1,250.6"/>
    <polyline points="612.2,252.0 612.1,252.4"/>
    <polyline points="612.1,250.6 612.1,250.1"/>
    <polyline points="612.2,255.4 612.2,255.1 612.2,254.9"/>
    <polyline points="575.6,357.1 575.4,357.0"/>
    <polyline points="568.2,359.1 567.9,359.3"/>
    <polyline points="490.3,364.5 490.3,364.5 490.2,364.5"/>
    <polyline points="554.4,356.6 554.3,356.6 554.2,356.6"/>
    <polyline points="591.5,361.8 591.3,361.7"/>
    <polyline points="556.7,357.7 556.6,357.6 556.1,357.3"/>
    <polyline points="575.4,357.0 575.4,357.0 575.3,357.0 575.2,356.9 575.0,356.9 574.9,356.8 574.9,356.8 574.8,356.8 574.7,356.8 574.5,356.7 574.4,356.7 574.4,356.7 574.2,356.7 574.2,356.7 574.1,356.7 574.0,356.7 573.8,356.6 573.8,356.6 573.7,356.6 573.6,356.6 573.5,356.6 573.4,356.6 573.3,356.7 573.2,356.7 573.2,356.7 573.1,356.7 572.9,356.7 572.7,356.7 572.6,356.8 572.4,356.8 572.3,356.9 572.2,356.9 572.0,357.0 571.9,357.0 571.7,357.2 571.5,357.3 571.0,357.6 570.9,357.7 570.6,357.8 570.5,357.9 570.3,358.0 570.1,358.1 569.9,358.2 569.7,358.3 569.6,358.4 569.1,358.6 568.9,358.7 568.8,358.8 568.5,358.9 568.3,359.1 568.2,359.1"/>
    <polyline points="567.9,359.3 567.7,359.4 567.6,359.4 567.4,359.5 567.3,359.6 567.2,359.6 567.2,359.6 567.1,359.7 566.9,359.7 566.9,359.7 566.8,359.8 566.7,359.8 566.6,359.8 566.5,359.8 566.4,359.9 566.2,359.9 566.1,359.9 566.0,359.9 565.9,359.9 565.7,360.0 565.2,360.0 564.2,360.2 564.1,360.2 563.7,360.2 563.6,360.2 563.4,360.3 563.3,360.3 563.0,360.3 562.7,360.4 562.6,360.4 562.4,360.4 562.3,360.4 562.3,360.4 562.2,360.4 562.2,360.4 562.1,360.4 562.0,360.4 561.8,360.4 561.7,360.4 561.7,360.4 561.6,360.3 561.5,360.3 561.4,360.3 561.3,360.3 561.2,360.3 561.1,360.3 561.0,360.2 560.8,360.2 560.7,360.1 560.6,360.1 560.5,360.0 560.4,360.0 560.3,360.0 560.3,359.9 560.2,359.9 559.8,359.7 559.7,359.6 559.6,359.6 559.5,359.5 559.3,359.4 559.2,359.4 559.2,359.3 559.1,359.3 559.0,359.2 558.9,359.1 558.7,359.0 558.1,358.6 558.0,358.5 557.8,358.5 557.8,358.4 557.6,358.3 557.4,358.2 557.3,358.0"/>
    <polyline points="591.3,361.7 590.6,361.6 590.5,361.5 590.0,361.4 589.7,361.3 589.4,361.2 589.2,361.2 589.1,361.2 589.0,361.1 588.9,361.1 588.9,361.1 588.7,361.0 588.7,361.0 588.4,360.9 587.9,360.7 587.7,360.6 587.5,360.5 587.2,360.4 587.1,360.3 587.0,360.3 586.9,360.2 586.7,360.1 586.6,360.1 586.1,359.8 585.4,359.5 585.0,359.2 584.8,359.1 584.6,359.0 584.4,359.0 584.3,358.9 584.2,358.8 584.0,358.8 583.9,358.7 583.7,358.7 583.5,358.6 583.5,358.6 583.3,358.6 583.1,358.6 583.0,358.5 582.8,358.5 582.7,358.5 582.6,358.5 582.5,358.5 582.3,358.5 582.0,358.5 581.8,358.5 581.6,358.5 581.2,358.5 581.0,358.5 580.3,358.6 580.1,358.6 579.9,358.6 579.8,358.6 579.6,358.6 579.6,358.6 579.5,358.6 579.4,358.6 579.1,358.6"/>
    <polyline points="556.1,357.3 555.9,357.2 555.7,357.1 555.6,357.0 555.5,357.0 555.4,356.9 555.2,356.8 555.1,356.8 555.1,356.8 554.9,356.7 554.8,356.7 554.7,356.7 554.6,356.6 554.5,356.6 554.4,356.6"/>
    <polyline points="554.2,356.6 554.2,356.5 554.0,356.5 553.8,356.5 553.7,356.5 553.5,356.5 553.4,356.5 553.3,356.5 553.2,356.5 553.0,356.6 552.8,356.6 550.7,357.0 550.3,357.0 550.0,357.1 549.7,357.1 548.7,357.3"/>
    <polyline points="490.2,364.5 490.3,364.5 490.3,364.5"/>
    <polyline points="554.2,356.5 554.4,356.5 554.5,356.6"/>
    <polyline points="591.3,361.7 591.5,361.8"/>
    <polyline points="556.1,357.3 556.4,357.5 556.7,357.7"/>
    <polyline points="575.5,357.0 575.6,357.1"/>
    <polyline points="567.9,359.2 568.0,359.2 568.0,359.2 568.2,359.1"/>
    <polyline points="568.2,359.1 568.5,358.9 568.8,358.8 568.9,358.7 569.1,358.6 569.1,358.6 569.2,358.5 569.4,358.4 569.5,358.4 569.6,358.3 569.6,358.3 569.7,358.3 569.7,358.3 569.8,358.2 569.9,358.2 570.0,358.1 570.0,358.1 570.1,358.1 570.1,358.1 570.2,358.0 570.2,358.0 570.2,358.0 570.3,358.0 570.3,358.0 570.5,357.9 570.6,357.8 570.7,357.7 570.9,357.6 570.9,357.6 571.2,357.5 571.4,357.3 571.5,357.2 571.7,357.1 571.8,357.1 571.9,357.0 572.1,356.9 572.1,356.9 572.1,356.9 572.2,356.9 572.2,356.9 572.3,356.8 572.4,356.8 572.5,356.8 572.5,356.8 572.7,356.7 572.7,356.7 572.9,356.7 572.9,356.7 573.1,356.6 573.1,356.6 573.2,356.6 573.4,356.6 573.5,356.6 573.6,356.6 573.8,356.6 574.0,356.6 574.1,356.6 574.1,356.6 574.2,356.6 574.4,356.7 574.5,356.7 574.6,356.7 574.7,356.7 574.8,356.8 574.9,356.8 575.0,356.8 575.2,356.9 575.3,356.9 575.4,357.0 575.5,357.0"/>
    <polyline points="559.9,359.7 560.0,359.7 560.1,359.8 560.2,359.9 560.3,359.9 560.5,360.0 560.5,360.0 560.6,360.1 560.8,360.1 561.0,360.2 561.1,360.2 561.3,360.3 561.4,360.3 561.6,360.3 561.7,360.3 561.8,360.3 562.0,360.4 562.1,360.4 562.2,360.4 562.3,360.4 562.4,360.4 562.6,360.3 562.6,360.3 562.9,360.3 563.0,360.3 563.2,360.3 563.7,360.2 563.9,360.2 564.1,360.1 564.2,360.1 564.5,360.1 564.8,360.1 565.0,360.0 565.2,360.0 565.5,360.0 565.7,359.9 565.9,359.9 566.1,359.9 566.3,359.8 566.5,359.8 566.6,359.8 566.7,359.7 566.8,359.7 567.0,359.7 567.0,359.6 567.2,359.6 567.3,359.5 567.4,359.5 567.6,359.4 567.6,359.4 567.7,359.3 567.8,359.3 567.9,359.2"/>
    <polyline points="594.9,362.7 595.0,362.8 595.4,362.9 595.6,362.9 595.7,363.0 595.9,363.0 596.0,363.0 596.1,363.0 596.2,363.1 596.3,363.1 596.5,363.1 596.7,363.1 596.8,363.1 597.0,363.1 597.1,363.0 597.3,363.0 597.4,363.0 597.6,362.9 597.7,362.9 597.8,362.8 597.9,362.8"/>
    <polyline points="581.1,358.5 581.2,358.5 581.6,358.4 581.8,358.4 581.9,358.4 582.1,358.4 582.2,358.4 582.5,358.4 582.6,358.5 582.8,358.5 582.9,358.5 583.1,358.5 583.3,358.6 583.5,358.6 583.7,358.7 583.9,358.7 584.0,358.8 584.2,358.8 584.4,358.9 584.6,359.0 584.8,359.1 585.0,359.2 585.5,359.4 586.1,359.8 586.6,360.0 587.0,360.2 587.1,360.3 587.2,360.4 587.4,360.4 587.6,360.5 587.9,360.6 588.3,360.8 588.5,360.9 588.5,360.9 588.6,360.9 588.7,361.0 588.8,361.0 589.0,361.1 589.1,361.1 589.2,361.1 589.3,361.2 589.4,361.2 590.0,361.4 590.3,361.4 590.4,361.5 590.7,361.6 591.0,361.6 591.3,361.7"/>
    <polyline points="554.5,356.6 554.5,356.6 554.6,356.6 554.7,356.6 554.8,356.6 554.9,356.7 554.9,356.7 555.1,356.7 555.1,356.8 555.2,356.8 555.4,356.9 555.4,356.9 555.5,356.9 555.6,357.0 556.1,357.3"/>
    <polyline points="491.5,364.4 492.6,364.3 492.9,364.3 493.0,364.3 493.3,364.3 493.5,364.3 493.6,364.3 493.8,364.3 493.9,364.3 494.0,364.3 494.1,364.3 494.2,364.3 494.3,364.4 494.4,364.4 494.5,364.4 494.5,364.4 494.7,364.4 494.9,364.5 495.0,364.5 495.2,364.6 495.4,364.7 495.5,364.7 495.6,364.8 495.8,364.8 496.0,364.9 496.1,365.0 496.3,365.1 496.3,365.1 496.5,365.2 496.6,365.3 496.7,365.4 496.9,365.6 497.1,365.7 497.4,365.9 497.8,366.3 498.2,366.7 498.4,366.9 498.6,367.0 498.9,367.3 499.4,367.7 499.8,368.1 500.1,368.3 500.2,368.5 500.4,368.6 500.6,368.8 500.9,369.1 501.2,369.3 501.6,369.7 501.8,369.8 502.2,370.2 502.3,370.2"/>
    <polyline points="540.9,360.3 540.8,360.4 540.6,360.6 540.5,360.8"/>
    <polyline points="548.3,357.4 548.2,357.4 547.9,357.4 547.7,357.5"/>
    <polyline points="527.7,227.4 527.7,227.6 527.7,227.8 527.7,228.1 527.7,228.4 527.7,228.7 527.8,228.9 527.8,229.2 527.9,229.5 528.0,229.8"/>
    <polyline points="612.0,245.8 611.9,245.4 611.8,245.1 611.7,244.7 611.5,244.1 611.4,243.9 611.4,243.8 611.3,243.5 611.3,243.4 611.2,243.1 611.2,243.0 611.2,242.8 611.2,242.7 611.2,242.4 611.1,242.3 611.1,241.9 611.1,241.6 611.0,241.4 611.0,241.1 610.9,240.8 610.8,240.6 610.7,240.4 610.6,240.1 610.5,239.8 610.2,239.3 610.0,239.0 609.7,238.7 609.5,238.5 609.0,237.9 608.6,237.6 608.1,237.2 607.6,236.9 607.1,236.7 606.5,236.4 605.9,236.3 605.4,236.1 605.0,236.1 604.7,236.0 604.0,236.0 603.5,236.0 602.9,236.0 602.5,236.1 601.8,236.3 601.3,236.4 600.8,236.6 600.1,236.9 599.6,237.3 599.2,237.6 598.7,238.0 598.3,238.4 598.1,238.6 597.8,238.9 597.4,239.5 597.2,240.0 597.1,240.3 596.9,240.7 596.8,241.1 596.7,241.4 596.5,242.2 596.1,243.2 595.8,243.8 595.6,244.1 595.3,244.7 594.9,245.2 594.2,245.9 593.4,246.6 592.0,247.9 591.6,248.2 591.0,248.7 590.6,249.0 590.0,249.5 589.3,250.0 588.2,250.6 587.6,251.0 587.1,251.2 585.4,251.8 584.4,251.9 583.7,252.0 583.3,252.0 582.6,251.9 582.3,251.9 581.9,251.8 577.9,250.9 577.5,250.8 576.4,250.5 575.6,250.2 574.9,250.1 574.6,250.0 574.2,249.8 573.9,249.7 573.7,249.6 573.4,249.4 572.9,249.0 572.5,248.6 572.3,248.4 572.1,248.2 571.9,247.9 571.6,247.5 571.4,247.2 571.2,246.8 571.1,246.4 570.7,245.5 570.5,245.1 570.3,244.8 570.1,244.4 569.9,244.1 569.6,243.7 569.3,243.3 569.0,243.0 567.9,242.2"/>
    <polyline points="527.4,227.4 527.5,227.2 527.5,226.7 527.6,226.4 527.6,226.3 527.7,226.2 527.8,225.9 527.9,225.7 527.9,225.6 528.1,225.3"/>
    <polyline points="566.9,241.2 565.6,240.3"/>
    <polyline points="529.3,233.6 529.0,232.4"/>
    <polyline points="591.6,248.2 590.9,248.7"/>
    <polyline points="411.0,191.9 411.0,192.0 411.2,192.3 411.2,192.4 411.3,192.7 411.4,192.8 411.5,192.9 411.6,193.2 411.9,193.5 412.6,194.3 412.9,194.6 413.1,194.9 413.2,194.9 413.5,195.2 413.9,195.4 414.6,195.9 414.9,196.0 415.3,196.2 415.9,196.5 416.5,196.7 417.1,196.9 417.4,197.0 418.3,197.3 418.9,197.4 419.3,197.5 420.0,197.6 420.4,197.6 420.9,197.6 421.2,197.6 422.0,197.6 422.4,197.6 422.8,197.6 423.1,197.5 423.4,197.5 423.8,197.3 424.0,197.3 424.5,197.1 424.7,197.0 424.9,196.9 425.3,196.7 425.5,196.5 425.8,196.3 426.1,196.0 426.8,195.3 427.0,195.2 427.0,195.1 427.2,195.0 427.6,194.6 427.6,194.6 428.0,194.2 428.1,194.2 428.2,194.0 428.5,193.8 428.6,193.6 428.8,193.4 429.0,193.2 429.2,193.1 429.3,193.0 429.5,192.8 429.7,192.7 429.8,192.5 430.1,192.4 430.3,192.2 430.4,192.2 430.5,192.1 430.6,192.0 430.8,191.9 431.2,191.8 431.5,191.6 431.8,191.6 432.0,191.5 432.3,191.4 432.5,191.4 433.2,191.3 434.5,191.1 435.7,190.9 437.3,190.6 438.0,190.5 439.2,190.4 440.3,190.2 441.6,190.0 442.7,189.8 444.6,189.5 445.1,189.4 445.5,189.3 446.0,189.2 446.3,189.1 446.6,189.0 446.8,188.9 447.1,188.8 447.4,188.7 448.0,188.5 448.5,188.3 448.8,188.2 449.1,188.1 449.4,188.1 449.7,188.0 450.0,188.0 450.3,188.0 450.8,188.0 451.2,188.1 451.5,188.1 451.7,188.2 451.9,188.3 452.0,188.3 452.3,188.5 452.5,188.6 452.9,188.8 453.3,189.0 453.4,189.1 453.5,189.2 454.6,189.9 455.2,190.3 455.5,190.4 457.0,191.4 457.7,191.8 458.0,192.0 458.7,192.3 458.9,192.4 459.1,192.4 459.6,192.6 460.2,192.7 460.9,192.7 461.5,192.7 461.9,192.7 462.7,192.6 463.3,192.5 463.8,192.4 464.0,192.3"/>
    <polyline points="410.8,191.9 410.7,191.6 410.5,191.0 410.3,190.6 410.3,190.6 410.2,190.3 410.1,190.1 410.0,190.0 409.8,189.5 409.6,189.2 409.4,188.9 409.1,188.5 408.9,188.2 408.7,188.0 408.6,187.8 408.4,187.6 408.3,187.4 408.2,187.2"/>
    <polyline points="407.8,186.3 407.6,185.6 407.3,184.9"/>
    <polyline points="369.9,157.8 370.1,157.7 371.3,157.3 371.4,157.3 372.5,156.9 372.6,156.9 372.6,156.9 372.7,156.9 372.8,156.9 372.8,156.9 373.1,156.8"/>
    <polyline points="369.9,157.7 370.1,157.6 371.2,157.2 371.3,157.2 372.5,156.8 372.5,156.8 372.6,156.8 372.7,156.8 372.8,156.7 372.9,156.7 372.9,156.7 373.1,156.7 373.2,156.7 373.3,156.7"/>
    <polyline points="369.9,157.7 370.1,157.6 371.2,157.2 371.3,157.2 372.5,156.8 372.5,156.8 372.7,156.7 372.8,156.7 373.0,156.6 373.1,156.6 373.3,156.6"/>
    <polyline points="369.8,157.5 370.0,157.4 371.2,157.1 372.4,156.6 372.4,156.6 372.5,156.6 372.6,156.6 372.6,156.6 372.7,156.6 372.7,156.6 372.8,156.6 373.3,156.5"/>
    <polyline points="392.4,153.7 392.2,153.6 392.0,153.5 391.9,153.4 391.8,153.3 391.7,153.2 391.5,153.2 391.3,153.1 391.1,153.0 391.0,153.0 390.8,152.9"/>
    <polyline points="389.9,152.8 389.8,152.8 389.7,152.8 389.5,152.8 389.4,152.8 389.2,152.8 389.1,152.8 389.0,152.9 388.8,152.9 388.7,152.9 388.4,153.0 385.0,153.8 384.8,153.8"/>
    <polyline points="377.4,155.5 376.6,155.7 376.4,155.8 376.3,155.8 376.0,155.9 374.8,156.3 374.7,156.4 374.7,156.4 374.5,156.4 374.1,156.6 374.1,156.6 374.1,156.6"/>
    <polyline points="371.8,155.9 371.8,155.9 371.9,155.9 372.0,155.9 372.1,155.9 372.1,155.9 372.2,155.9 372.3,155.9 372.4,155.9 373.2,156.1 373.4,156.2"/>
    <polyline points="371.8,155.8 371.8,155.8 372.1,155.8 372.2,155.8 372.3,155.8 372.3,155.8 372.4,155.9 372.5,155.9 372.5,155.9 372.6,155.9 372.7,155.9 373.2,156.1 373.3,156.2 373.4,156.2"/>
    <polyline points="371.8,155.8 371.8,155.8 372.1,155.8 372.2,155.8 372.2,155.8 372.3,155.8 372.4,155.8 372.4,155.8 372.5,155.8 372.6,155.8 372.7,155.9 373.3,156.1 373.4,156.2"/>
    <polyline points="371.8,155.7 371.8,155.7 372.1,155.7 372.2,155.7 372.2,155.7 372.3,155.7 372.4,155.7 372.5,155.7 372.6,155.7 372.6,155.8 372.7,155.8 372.8,155.8 373.1,156.0 373.3,156.1 373.4,156.2"/>
    <polyline points="373.1,156.9 372.6,157.1 372.6,157.1 372.3,157.1 371.4,157.4 371.3,157.5 370.2,157.9 369.3,158.1 369.2,158.2"/>
    <polyline points="373.1,156.8 372.6,157.0 372.6,157.0 371.4,157.4 371.3,157.5 370.2,157.8 370.0,157.9"/>
    <polyline points="373.5,156.7 373.9,156.6 373.9,156.6 374.1,156.5"/>
    <polyline points="374.1,156.4 374.1,156.4 374.4,156.3 374.5,156.3 374.6,156.3"/>
    <polyline points="373.2,156.8 373.3,156.8 373.4,156.8 373.5,156.7 373.5,156.7 373.9,156.6 374.1,156.5"/>
    <polyline points="369.6,156.9 369.7,156.9 369.8,156.8 369.9,156.8 370.6,156.7"/>
    <polyline points="369.3,157.1 369.4,157.0 370.3,156.7 370.4,156.7 370.6,156.7"/>
    <polyline points="369.3,157.1 369.5,157.1 370.8,156.6 370.9,156.6 371.0,156.6"/>
    <polyline points="372.2,156.4 372.0,156.5 371.8,156.5 371.6,156.5 371.5,156.5 371.5,156.5 371.4,156.6 371.3,156.6 370.8,156.8 370.7,156.8"/>
    <polyline points="369.4,157.2 371.2,156.6 371.3,156.5 371.4,156.5"/>
    <polyline points="373.0,156.8 372.9,156.8 372.8,156.8 372.5,156.9 372.5,156.9 371.4,157.3 371.3,157.3 370.1,157.7 369.9,157.8"/>
    <polyline points="369.9,157.7 370.1,157.7 371.2,157.3 371.4,157.2 372.5,156.9 372.5,156.8 372.6,156.8 372.6,156.8 372.8,156.8 373.0,156.8"/>
    <polyline points="369.9,157.6 370.0,157.6 371.2,157.2 371.3,157.1 372.5,156.8 372.5,156.7 372.7,156.7 372.8,156.6 372.9,156.6"/>
    <polyline points="369.8,157.6 370.0,157.5 371.2,157.1 371.3,157.1 372.5,156.7 372.5,156.7 372.5,156.7 372.6,156.7 372.9,156.6"/>
    <polyline points="369.8,157.6 370.0,157.5 371.2,157.1 371.3,157.1 372.4,156.7 372.5,156.7 372.5,156.7 372.6,156.6 372.6,156.6 373.0,156.6 373.1,156.5 373.3,156.5"/>
    <polyline points="527.7,229.9 527.6,229.5 527.5,229.2 527.5,228.8 527.4,228.3 527.4,227.7 527.4,227.4"/>
    <polyline points="568.1,242.2 569.1,243.0 569.4,243.3 569.7,243.6 570.1,244.2 570.3,244.4 570.4,244.6 570.6,245.1 571.2,246.4 571.5,247.1 571.7,247.5 572.0,247.9 572.2,248.1 572.6,248.5 573.0,248.9 573.4,249.2 573.6,249.4 573.9,249.5 574.3,249.7 574.6,249.9 574.9,250.0 575.6,250.1 576.4,250.3 578.0,250.8 578.2,250.9 581.7,251.7 582.6,251.8 583.1,251.9 583.7,251.9 584.4,251.8 585.3,251.7 585.9,251.5 586.4,251.4 587.3,251.0 587.6,250.8 588.1,250.6 589.1,250.0 589.9,249.4 590.6,248.9 590.9,248.7 591.5,248.2 591.9,247.8 592.1,247.6 593.4,246.5 594.4,245.6 594.8,245.1 595.2,244.5 595.7,243.7 596.1,243.0 596.4,242.2 596.6,241.3 596.9,240.5 597.0,240.2 597.1,239.9 597.3,239.5 597.5,239.2 597.8,238.8 598.2,238.3 598.6,237.9 599.2,237.4 599.6,237.1 600.1,236.8 600.5,236.6 600.9,236.5 601.6,236.2 602.0,236.1 602.5,236.0 603.3,235.9 604.1,235.9 604.7,235.9 605.3,236.0 605.5,236.0 606.1,236.2 606.6,236.3 607.0,236.5 607.6,236.8 608.1,237.1 608.7,237.5 609.1,237.9 609.4,238.1 609.6,238.4 609.9,238.8 610.1,239.0 610.3,239.2 610.5,239.7 610.7,240.0 610.8,240.2 610.8,240.4 611.0,240.7 611.1,241.1 611.1,241.4 611.2,241.7 611.2,242.1 611.3,242.4 611.3,242.8 611.3,243.0 611.4,243.2 611.4,243.5 611.5,243.7 611.5,244.0 611.7,244.6 611.9,245.2 612.0,245.4 612.0,245.8"/>
    <polyline points="464.0,192.4 463.9,192.5 462.8,192.7 462.3,192.8 462.0,192.8 461.8,192.9 461.7,192.9 460.9,192.9 460.6,192.8 460.2,192.8 459.6,192.7 458.8,192.4 458.0,192.1 457.7,191.9 457.5,191.8 457.4,191.7 456.9,191.4 456.5,191.2 456.1,190.9 455.4,190.5 453.8,189.5 453.0,189.0 452.5,188.7 452.3,188.6 452.0,188.4 451.6,188.3 451.4,188.2 451.0,188.2 450.8,188.1 450.6,188.1 450.0,188.1 449.7,188.1 449.6,188.2 449.4,188.2 449.2,188.2 448.9,188.3 448.5,188.4 448.0,188.6 447.4,188.8 447.1,188.9 446.9,189.0 446.6,189.1 446.0,189.3 445.6,189.4 445.1,189.6 444.7,189.6 443.0,189.9 442.7,189.9 440.3,190.3 439.3,190.4 438.8,190.5 438.0,190.6 436.8,190.8 436.2,190.9 435.7,191.0 435.4,191.1 435.0,191.1 434.3,191.2 433.6,191.3 432.3,191.5 431.8,191.7 431.5,191.7 431.2,191.9 430.8,192.1 430.6,192.2 430.3,192.3 430.1,192.4 430.0,192.5 429.7,192.8 429.4,193.1 429.2,193.3 428.9,193.5 428.5,193.9 428.2,194.2 427.7,194.7 427.4,195.0 427.1,195.2 427.0,195.3 426.5,195.8 425.9,196.4 425.5,196.7 425.2,196.9"/>
    <polyline points="408.3,187.2 408.3,187.3 408.4,187.4 408.6,187.7 408.9,188.2 409.2,188.5 409.6,189.2 410.0,189.6 410.1,189.8 410.2,190.2 410.4,190.6 410.5,190.7 410.9,191.8 411.0,191.9"/>
    <polyline points="384.8,153.8 384.9,153.8 385.1,153.7 388.4,152.9 388.7,152.9 389.0,152.8 389.1,152.8 389.2,152.8 389.4,152.8 389.5,152.7 389.6,152.7 389.7,152.7 389.9,152.7"/>
    <polyline points="384.8,153.8 384.6,153.9 384.5,153.9 384.4,153.9 384.2,153.9 384.1,153.9 384.0,153.9 383.8,153.9 383.0,153.9 382.8,153.9 382.6,153.9 382.5,153.9 382.4,154.0 382.3,154.0 382.2,154.0 382.0,154.0 381.9,154.0 381.7,154.1 381.6,154.1 381.3,154.2 380.9,154.3"/>
    <polyline points="407.3,184.8 407.3,184.9 407.6,185.4 407.6,185.6 408.0,186.6"/>
    <polyline points="392.4,153.7 392.6,153.8 392.7,154.0 392.9,154.2 393.0,154.3 393.2,154.6 393.4,154.9 393.4,154.9 393.6,155.2 394.3,156.1 394.4,156.1 394.4,156.1 394.4,156.1 394.5,156.3 395.2,157.2 395.7,157.9 396.0,158.3 396.3,158.6 396.3,158.7 396.7,159.3 396.9,159.7 397.1,160.1 397.1,160.1 397.2,160.3 397.3,160.6 397.4,161.0 397.6,161.4 398.0,162.6 398.5,164.1 399.1,165.7 399.2,166.1 399.4,166.6 399.5,167.0 399.6,167.3 399.7,167.6 399.7,167.8 399.9,168.3 400.0,168.7 400.1,169.0 400.2,169.4 400.3,169.5 400.4,169.9 400.5,170.0 400.6,170.3 400.7,170.6 400.9,171.0 401.7,172.4 402.0,172.9 402.2,173.4 402.5,173.8 402.7,174.2 402.9,174.8 403.0,174.8 403.0,174.8 403.2,175.4 403.3,175.6 403.4,175.7 403.4,175.9 403.5,176.1 403.6,176.1 403.6,176.1 403.6,176.2 403.7,176.4 403.9,176.8 404.1,177.4 404.2,177.6 404.5,178.2 404.9,179.1 405.1,179.4 405.3,180.0 405.7,180.8 406.0,181.5 406.1,181.8 406.3,182.2 406.3,182.4 406.4,182.7 406.5,182.8"/>
    <polyline points="407.0,184.2 407.1,184.3 407.2,184.5 407.3,184.8"/>
    <polyline points="379.2,155.0 379.2,155.0 379.1,155.0 378.9,155.1 378.4,155.2 377.6,155.5 377.6,155.5 377.6,155.5 377.5,155.5 377.5,155.5"/>
    <polyline points="380.1,154.5 379.4,154.7 379.3,154.8 378.6,155.0 377.4,155.4 376.9,155.6 376.8,155.6 376.8,155.6 376.7,155.7 376.6,155.7 376.4,155.8 376.2,155.8 376.0,155.9 375.2,156.2 375.1,156.2 375.1,156.2 374.9,156.2 374.8,156.3 374.6,156.3"/>
    <polyline points="379.2,155.0 379.4,154.9 379.6,154.8 379.8,154.7 380.2,154.5 380.5,154.4 380.6,154.4 380.7,154.3"/>
    <polyline points="379.3,154.8 379.4,154.8 379.5,154.7 379.8,154.6 379.9,154.6 380.1,154.5"/>
    <polyline points="376.6,155.7 376.8,155.7 376.9,155.7 377.0,155.6 377.2,155.6 377.3,155.6 377.5,155.5"/>
    <polyline points="376.9,155.6 377.0,155.6 377.1,155.5 377.2,155.5 377.3,155.5 377.4,155.5"/>
    <polyline points="377.5,155.3 377.0,155.5 375.8,155.9 375.8,155.9 375.5,156.0 375.4,156.0 375.3,156.1 375.2,156.1 375.1,156.2 375.0,156.2 374.8,156.3 374.6,156.3"/>
    <polyline points="376.0,155.9 376.1,155.9 376.2,155.8 376.2,155.8 376.3,155.8 376.3,155.8 376.4,155.8"/>
    <polyline points="375.8,155.9 375.7,155.9 375.6,156.0 375.4,156.1 375.3,156.1 375.2,156.2"/>
    <polyline points="375.1,156.2 374.7,156.3 374.5,156.4 374.1,156.5 374.1,156.5 374.1,156.5"/>
    <polyline points="372.3,156.4 372.3,156.4 373.3,156.3 373.6,156.3"/>
    <polyline points="528.1,225.8 528.0,225.9 528.0,226.1 527.9,226.3 527.8,226.6 527.8,226.9 527.7,227.2 527.7,227.3 527.7,227.4"/>
    <polyline points="380.7,154.4 380.6,154.4 380.2,154.5 379.4,154.8 379.3,154.8"/>
    <polyline points="380.1,154.5 380.6,154.4 380.7,154.3 380.9,154.3"/>
    <polyline points="380.9,154.3 380.7,154.4"/>
    <polyline points="407.6,185.4 407.8,186.3"/>
  </g>

  <!-- 지하철 역 -->
  <g>
    <circle cx="588.9" cy="361.1" r="3" fill="#dc2626" stroke="#fff" stroke-width="1"/>
    <circle cx="570.4" cy="358.0" r="3" fill="#dc2626" stroke="#fff" stroke-width="1"/>
    <circle cx="505.7" cy="371.7" r="3" fill="#dc2626" stroke="#fff" stroke-width="1"/>
    <circle cx="515.5" cy="369.4" r="3" fill="#dc2626" stroke="#fff" stroke-width="1"/>
    <circle cx="612.2" cy="253.2" r="3" fill="#dc2626" stroke="#fff" stroke-width="1"/>
    <circle cx="528.1" cy="230.4" r="3" fill="#dc2626" stroke="#fff" stroke-width="1"/>
    <circle cx="533.7" cy="364.1" r="3" fill="#dc2626" stroke="#fff" stroke-width="1"/>
    <circle cx="522.8" cy="366.8" r="3" fill="#dc2626" stroke="#fff" stroke-width="1"/>
    <circle cx="545.6" cy="357.9" r="3" fill="#dc2626" stroke="#fff" stroke-width="1"/>
    <circle cx="559.2" cy="359.2" r="3" fill="#dc2626" stroke="#fff" stroke-width="1"/>
    <circle cx="578.1" cy="358.3" r="3" fill="#dc2626" stroke="#fff" stroke-width="1"/>
  </g>
</svg>