<?xml version="1.0" encoding="UTF-8"?>
<svg width="800" height="600" xmlns="http://www.w3.org/2000/svg">
  <title>Taipei Subway Map</title>
  <rect width="100%" height="100%" fill="#f8f9fa"/>

  <!-- 지하철 선로 -->
  <g stroke="#2563eb" stroke-width="2" fill="none" opacity="0.8">
    <polyline points="297.3,406.1 295.5,404.7 294.7,404.1 292.6,402.6 291.8,401.9 291.6,401.7 291.0,401.1 290.4,400.3 289.7,399.1 289.4,398.3 289.2,397.3 289.1,396.8 289.1,396.0 289.2,395.4 289.3,394.7 289.6,393.9 289.7,393.7 289.8,393.6"/>
    <polyline points="314.6,418.4 314.8,418.8 315.7,419.5 316.6,420.2 317.5,420.9 319.7,422.5 320.5,423.0 324.7,426.3 325.5,426.8"/>
    <polyline points="347.6,540.9 353.5,542.7 354.2,542.8 354.9,542.9 355.6,543.0 357.0,543.1 357.7,543.1 359.9,543.6 361.4,543.9 363.2,544.4 364.1,544.7 367.6,546.0 370.9,547.2 372.7,547.9 373.4,548.1 374.4,548.4 375.0,548.6 375.6,548.7 376.2,548.9"/>
    <polyline points="217.1,188.9 216.6,188.5 216.5,188.4 216.1,187.9 215.9,187.6 215.8,187.3 215.6,187.0 215.5,186.7 215.5,186.4 215.5,186.1 215.5,185.8 215.6,185.5 215.7,185.2 215.8,184.9 216.0,184.6 216.2,184.3 216.5,184.0 216.8,183.8 217.1,183.5 217.4,183.3 217.8,183.0 218.3,182.8 218.7,182.6 219.2,182.4 219.7,182.2 220.2,182.0 220.8,181.9 221.4,181.7 221.9,181.6 222.5,181.5 223.2,181.4 223.8,181.4 224.4,181.3 225.0,181.3 228.8,181.3"/>
    <polyline points="300.8,409.2 302.8,410.7 303.2,411.0 303.8,411.4 306.7,413.5 312.5,417.7"/>
    <polyline points="86.9,209.5 85.5,209.8 84.8,209.9 82.2,210.0"/>
    <polyline points="82.2,210.0 81.2,209.9 80.0,209.9 79.9,209.8"/>
    <polyline points="79.9,209.8 78.4,209.6 77.0,209.3 75.3,208.7 73.9,208.1 72.9,207.5 71.6,206.4 68.5,203.5 65.4,200.5"/>
    <polyline points="266.2,477.6 264.8,478.5 263.2,479.4 260.4,481.1 252.6,485.9 251.5,486.8 251.1,487.2 250.8,487.6 250.2,488.3 249.8,489.1 249.1,490.6 248.3,492.2 247.4,493.7 247.3,494.1 247.0,494.8 246.9,495.3 247.0,495.5 247.1,496.0 247.3,496.4 247.5,496.7 247.8,497.0 248.5,497.6 249.0,497.9 250.1,498.4 251.1,498.7 252.1,499.0 257.1,500.5 263.1,502.0 266.5,502.9"/>
    <polyline points="303.7,438.8 302.4,439.0 300.9,439.3 299.5,439.6 298.3,439.9 297.3,440.3 296.3,440.7 295.7,441.0 294.6,441.7 294.1,442.1 292.7,443.8 290.5,448.2 289.5,450.5 288.5,452.3 287.7,453.7 287.4,454.4 286.6,455.7 284.8,459.1 283.7,461.2 282.7,463.3 281.8,465.1 281.1,466.3 280.5,467.6 279.7,468.9 278.4,470.1 270.7,474.8 266.2,477.6"/>
    <polyline points="303.8,338.9 305.0,335.8"/>
    <polyline points="157.2,359.0 156.3,359.2 155.3,359.3 153.9,359.7 153.0,360.0 152.3,360.4 151.5,360.8 150.8,361.2 149.5,362.0 147.2,364.5 146.0,365.8 145.5,366.2 145.0,366.8 143.9,367.8 142.4,369.5 141.3,370.7 140.2,371.6 138.4,373.4 137.6,373.7 134.9,374.9 131.8,375.6 130.2,376.0 127.1,376.4 125.2,376.7 121.6,377.3 117.8,377.9 114.8,378.4 113.1,378.7 111.2,379.1 107.2,379.8 105.9,380.1 105.0,380.4 103.6,380.8 102.2,381.5 99.3,382.9 96.7,384.3 92.7,386.3 91.4,387.1 90.5,387.5 89.5,387.8 87.4,388.6 84.0,389.7 79.7,391.2 75.0,392.7 71.6,393.8 65.7,395.7 62.6,396.8 57.4,398.5 55.1,399.4 54.1,399.5 52.8,399.6 50.6,399.8 45.9,399.9 42.5,400.3 33.7,401.3 32.1,401.5 29.6,401.8 26.3,402.3 22.5,402.8 19.1,403.2 5.0,404.8 -6.8,406.2 -24.6,407.8 -27.6,408.0 -33.4,408.6"/>
    <polyline points="219.4,191.2 217.4,189.9 215.7,188.7 213.0,186.9 211.5,186.0 210.7,185.5 209.9,185.2 208.2,184.4 203.1,182.2 202.1,181.8 201.0,181.4 192.8,179.3 191.6,179.1"/>
    <polyline points="435.8,292.9 434.7,293.0 434.2,293.1 433.4,293.2 432.6,293.4"/>
    <polyline points="469.8,447.7 469.8,452.2"/>
    <polyline points="414.4,337.8 413.7,337.5 413.0,337.2 411.6,336.6 410.5,336.1 409.6,335.7 408.9,335.4 408.4,335.2 408.2,335.1 408.0,335.1 407.8,335.0 407.6,335.0 407.3,334.9 407.1,334.9 406.9,334.9 406.6,334.9 406.4,335.0 406.2,335.0 406.0,335.1 405.8,335.2 405.6,335.3 405.5,335.4 405.4,335.5 405.3,335.7 405.2,335.8 405.2,336.0 405.2,336.2 405.2,338.0 405.1,339.2 405.0,340.2 405.0,341.3 404.9,343.5 404.9,343.9 404.9,344.3 404.8,346.1 404.8,346.6"/>
    <polyline points="223.6,193.3 221.8,192.1 220.1,190.9 219.4,190.5 218.6,190.0 217.1,188.9"/>
    <polyline points="318.3,310.5 322.2,306.5 322.6,306.0 323.2,305.1 323.8,303.8 325.3,300.9 326.9,298.2 327.8,296.2 329.1,293.2 329.8,292.3 330.5,291.5 334.5,288.9 335.5,288.0 336.3,287.1 336.8,286.4 337.0,285.4 337.0,284.4 336.8,283.6 336.5,282.9 335.6,281.2 335.1,280.1 334.6,279.0 334.2,278.2 333.9,277.7 332.7,275.9 331.6,274.2 331.5,274.0 330.3,272.1 330.2,272.0 328.5,269.6 326.6,267.1 326.4,266.9 324.5,264.9 320.1,260.2 319.1,258.8 318.5,257.2 317.9,255.2 317.6,254.3 317.1,252.8 316.5,251.5 315.4,250.3 313.9,249.2 306.5,243.3 304.4,241.5 302.0,239.6 300.2,238.3 298.5,237.1 297.2,236.1 294.3,233.6 292.7,232.3 292.3,231.9 290.0,230.1 288.5,228.9 287.4,228.1 286.0,227.1 285.7,226.9 279.9,222.4 279.0,221.7 277.7,220.7 276.6,220.1 275.6,219.6 274.3,219.1 273.3,218.8 271.9,218.4 270.4,218.1 268.1,217.8 259.9,217.0 257.1,216.6 255.1,216.4 252.2,216.1 247.7,215.7 243.1,215.3 241.4,215.0 239.9,214.7 238.4,214.2 237.1,213.6 235.7,213.0 234.9,212.3 234.0,211.4 233.4,210.4 233.0,209.0 232.4,207.5 231.7,205.5 231.3,204.6 230.6,202.7 230.1,201.3 229.9,200.8"/>
    <polyline points="464.4,463.2 462.9,464.3 461.8,465.1 461.3,465.4 460.6,465.8 459.7,466.2"/>
    <polyline points="229.6,200.2 229.0,199.2 228.2,197.7 227.4,196.8 226.4,195.9 225.6,195.4 222.9,193.6"/>
    <polyline points="469.8,452.8 469.7,455.2 469.7,456.2 469.7,456.6 469.7,457.2 469.6,457.8 469.6,458.3 469.5,458.6 469.3,459.0 469.1,459.4 468.8,459.8 468.4,460.2 468.1,460.6 467.7,461.0 467.1,461.4 464.8,463.0"/>
    <polyline points="569.5,476.6 569.7,476.6 570.3,476.7 570.9,476.8"/>
    <polyline points="568.0,476.7 568.1,476.6 568.3,476.6 568.5,476.5 569.0,476.5 569.5,476.6"/>
    <polyline points="566.6,477.4 567.5,477.0 567.7,476.9 567.8,476.9 567.9,476.8 568.1,476.8 568.2,476.8 568.4,476.8 568.6,476.8 569.2,476.8 569.9,476.9 570.6,477.1"/>
    <polyline points="569.5,476.6 570.6,476.6 571.1,476.7"/>
    <polyline points="569.3,477.5 570.1,477.8"/>
    <polyline points="566.6,477.4 566.8,477.2 567.0,477.1 567.2,477.0 567.3,476.9 568.0,476.7"/>
    <polyline points="566.5,477.5 567.4,477.1 567.9,477.1 568.7,477.1 569.2,477.1 570.1,477.3"/>
    <polyline points="570.1,477.8 571.0,478.2 571.6,478.6 572.3,478.8"/>
    <polyline points="566.5,477.5 567.6,477.3 568.1,477.2 568.4,477.3 568.7,477.3 569.3,477.5 570.1,477.7 570.9,478.0 571.1,478.1"/>
    <polyline points="142.3,185.9 143.4,185.6 145.0,185.1 146.4,184.7 146.7,184.6 158.2,182.0 159.3,181.8 162.6,181.1"/>
    <polyline points="174.2,181.5 173.6,181.7 172.9,181.8 172.0,181.9 171.2,182.0 169.2,182.4"/>
    <polyline points="174.8,181.5 174.3,181.8 173.8,182.0 169.1,183.0"/>
    <polyline points="130.8,190.0 133.3,189.0 134.7,188.4 135.6,188.0 136.5,187.7 137.2,187.5 137.9,187.3 139.0,187.1 141.5,186.6 142.5,186.6 143.2,186.6 144.5,186.5 145.9,186.4 147.6,186.0 160.0,183.2 162.4,182.6 164.4,182.0 166.0,181.7 167.4,181.4 168.3,181.2 169.6,181.1 170.8,181.1 175.1,180.7 176.2,180.6 176.3,180.5 177.8,180.2"/>
    <polyline points="145.8,188.0 147.1,188.3 147.9,188.5 149.0,188.7 149.9,188.8 150.8,188.9 151.4,188.9 152.3,188.8 153.0,188.7 153.3,188.6 159.4,187.2"/>
    <polyline points="177.8,180.2 178.7,180.0 179.5,179.8 180.4,179.6 181.5,179.5 183.6,179.4 185.8,179.3 188.1,179.3"/>
    <polyline points="142.4,186.0 144.3,185.7 147.0,185.0 158.6,182.4 159.5,182.2 160.4,182.0 161.8,181.5 163.0,181.2"/>
    <polyline points="139.0,187.1 140.1,187.1 140.9,187.1 143.8,187.1 145.8,187.2 147.0,187.0 148.1,186.8 160.8,183.9 163.9,183.0 166.1,182.2 167.1,181.8 167.8,181.5 168.4,181.4 169.0,181.3 169.6,181.2 170.8,181.1"/>
    <polyline points="144.2,187.7 145.8,188.0 147.2,188.2 148.4,188.3 149.3,188.4 150.4,188.3 151.1,188.2 152.6,187.8 158.7,186.6"/>
    <polyline points="143.4,186.2 144.6,186.0 146.5,185.5 147.3,185.3 158.8,182.7 159.6,182.5 161.4,182.1 162.5,181.8"/>
    <polyline points="141.7,186.5 143.2,186.4 144.3,186.2 145.9,186.0 146.8,185.8 147.5,185.6 159.1,183.0 159.9,182.8 160.9,182.5 162.0,182.1 163.2,181.7 164.1,181.4"/>
    <polyline points="143.2,186.4 144.5,186.3 145.7,186.2 146.3,186.1 147.2,185.9 147.7,185.8 159.3,183.2 160.0,183.1 161.3,182.7 162.7,181.9 163.2,181.7"/>
    <polyline points="140.8,186.4 142.4,186.0 144.2,185.4 146.8,184.8 158.4,182.2 159.4,182.0 161.8,181.4 163.0,181.2 163.7,181.1"/>
    <polyline points="184.7,179.0 180.2,179.3"/>
    <polyline points="140.9,187.1 142.0,187.2 144.2,187.7 146.3,188.0 147.4,188.0 148.2,188.0 149.1,188.0 151.8,187.4 152.1,187.3 158.1,185.9"/>
    <polyline points="136.7,187.3 137.6,187.2 138.2,187.0 139.0,186.8 140.8,186.4 142.3,185.9 143.0,185.6 144.0,185.2 145.0,184.8 145.9,184.5 146.4,184.4 157.9,181.8 159.0,181.5 160.3,181.3 161.5,181.2 162.6,181.1 163.7,181.1 165.5,180.9 166.5,180.8 168.1,180.7 169.3,180.6 175.1,180.0 179.7,179.6 180.4,179.6"/>
    <polyline points="176.4,180.8 175.7,181.1 174.8,181.5 169.0,182.9"/>
    <polyline points="143.2,186.6 144.5,186.6"/>
    <polyline points="144.5,186.6 145.5,186.7 146.3,186.6 146.9,186.6 147.9,186.5 160.4,183.6 162.0,183.3 164.0,182.7 166.6,181.6 167.4,181.4"/>
    <polyline points="139.0,186.8 140.1,186.7 140.7,186.6 141.7,186.5 143.4,186.2 144.4,185.8 145.7,185.6 147.2,185.2 158.7,182.6 159.6,182.4 161.4,182.0 162.5,181.8 164.1,181.4 165.2,181.1 166.5,180.8"/>
    <polyline points="92.5,207.6 93.0,207.1 94.9,205.7 96.5,204.5 97.7,203.6 98.4,203.2 99.3,202.7 100.5,202.2 108.0,199.0 108.9,198.6 109.5,198.3 114.4,196.5 116.0,196.0 117.5,195.3 119.7,194.4 124.2,192.4 125.9,191.7 127.7,190.9 133.2,188.5 135.7,187.5 138.1,186.4 139.3,185.9 140.5,185.5 141.7,185.1 143.2,184.7 150.3,183.1 157.9,181.3 159.1,181.1 160.1,180.9 161.1,180.7 162.3,180.6 165.6,180.3 168.5,180.0 171.3,179.7 178.6,179.1 181.4,178.9 184.8,178.7 187.1,178.7 188.3,178.8 189.4,178.9 190.8,179.1 191.9,179.3 193.7,179.7 196.5,180.5 198.3,181.1 200.8,181.8 203.5,182.5 205.8,183.2 207.4,183.7"/>
    <polyline points="91.0,266.7 91.4,266.7 91.5,266.7 92.0,266.8 92.4,266.9 94.1,267.1 95.3,267.4 95.9,267.5 96.4,267.7 97.2,267.9 97.9,268.1 98.5,268.3 99.2,268.5 99.5,268.6 100.1,268.8 101.0,269.1 101.6,269.3 102.1,269.4 102.6,269.4 103.7,269.6"/>
    <polyline points="304.6,342.6 302.3,342.6 302.1,342.6 301.8,342.6 294.1,342.5 293.2,342.4 292.5,342.4 291.7,342.3 291.1,342.3 287.7,342.0 286.7,341.9 285.8,341.9 285.0,341.8 283.6,341.8 279.0,341.9 275.1,342.0 274.2,342.1 273.3,342.1 272.6,342.1 272.1,342.0 271.5,342.0 270.8,341.9 270.4,341.9 270.0,341.8 269.1,341.6 267.4,341.2 264.9,340.7 263.7,340.5 262.7,340.3"/>
    <polyline points="72.4,267.0 71.1,268.1 68.9,269.7 68.0,270.6 67.5,271.2 67.3,271.7 67.2,272.3 67.3,272.6 67.5,273.0 67.8,273.4 68.2,273.9 68.7,274.3 69.7,275.0 72.3,276.5 72.9,276.8 73.4,277.0 74.0,277.3 74.4,277.5 75.1,277.7 75.7,277.9 81.4,279.5"/>
    <polyline points="104.2,268.8 102.9,268.6 102.2,268.5 101.5,268.3 100.4,268.1 99.3,267.9 98.2,267.6 97.6,267.5 96.0,267.2 94.9,267.1 94.3,267.0 92.2,266.7 91.6,266.6 91.5,266.6 88.8,266.2 88.3,266.2 87.3,266.0 85.8,265.8 83.8,265.5 83.5,265.5 82.0,265.3 81.0,265.2 80.1,265.1 79.4,265.1 78.8,265.1 78.0,265.1 77.0,265.3 76.3,265.4 75.4,265.6 74.5,265.9 73.8,266.2 73.1,266.6 72.4,267.0"/>
    <polyline points="398.5,543.0 398.3,543.3 398.1,543.5 397.8,543.8 397.4,544.1 397.0,544.4 396.5,544.6 396.0,544.9 395.3,545.2 394.6,545.4 390.9,546.6 389.3,547.1"/>
    <polyline points="376.4,549.2 375.6,549.0 373.5,548.3"/>
    <polyline points="139.7,401.7 141.4,401.3 143.9,401.2 145.9,401.1 147.5,401.0 148.9,401.0 154.4,401.1 161.4,401.2"/>
    <polyline points="161.4,401.2 186.6,401.6 196.5,402.2 198.3,402.3 200.3,402.4 203.9,402.4 211.1,402.6 212.0,402.6 213.1,402.7 215.3,402.9 217.2,403.0 219.1,403.1 221.4,403.2"/>
    <polyline points="703.5,359.7 703.7,359.7 704.2,359.7 704.5,359.7 704.8,359.6 705.1,359.6 705.3,359.5 705.6,359.4 705.9,359.2 707.0,358.2 707.6,357.6 708.0,357.3 708.5,357.0 709.3,356.6 710.0,356.4 710.8,356.2 716.6,354.5"/>
    <polyline points="218.0,189.7 216.8,189.1 215.4,188.3"/>
    <polyline points="225.8,194.9 224.2,194.0"/>
    <polyline points="186.5,179.4 185.5,179.5 182.9,179.6 181.0,179.7 180.0,179.8 179.0,180.0 177.3,180.5 176.4,180.8"/>
    <polyline points="217.7,189.9 216.8,189.1 216.2,188.4"/>
    <polyline points="197.7,181.1 194.9,180.5"/>
    <polyline points="240.6,180.9 238.6,181.0 235.9,181.0 233.5,181.0 231.5,181.1 230.4,181.1"/>
    <polyline points="195.0,180.3 197.4,181.2"/>
    <polyline points="229.9,200.8 229.2,198.5 228.7,197.5 227.9,196.7 227.5,196.3 226.9,195.8 225.8,194.9 224.7,194.1 224.1,193.7 223.6,193.3"/>
    <polyline points="203.5,182.5 201.6,182.1 199.7,181.7 197.7,181.1 195.0,180.3 192.5,179.6"/>
    <polyline points="213.0,186.9 212.2,186.1"/>
    <polyline points="191.6,179.1 189.6,178.8 187.3,178.6 184.9,178.6 180.9,178.7 174.9,179.3 168.5,179.9 161.5,180.6 160.5,180.7 159.7,180.8 158.7,181.0 157.1,181.4 142.2,184.8 141.5,185.0 140.8,185.2 139.9,185.5 134.1,188.0 129.1,190.2 122.7,192.9 119.6,194.3 117.0,195.4 115.4,196.1 111.4,197.5 109.9,198.0 109.0,198.4 107.9,198.8 99.1,202.7 97.8,203.4 96.8,204.1 94.7,205.7 92.8,207.1 92.3,207.5"/>
    <polyline points="207.4,183.7 209.0,184.3 210.6,185.1 212.2,186.1 214.1,187.4 215.4,188.3 216.7,189.2 217.7,189.9 218.3,190.3 219.5,191.1 221.3,192.4 223.1,193.6 224.9,194.8 226.8,195.9"/>
    <polyline points="200.9,182.2 199.8,181.9 197.4,181.2 194.9,180.5 192.1,179.7 190.7,179.3 189.6,179.1 188.5,179.0 187.3,179.0 186.0,179.1 184.7,179.2 182.9,179.3 181.5,179.5"/>
    <polyline points="147.2,188.2 148.4,188.3 149.6,188.2 150.4,188.1 151.7,187.9 152.5,187.7 158.5,186.4"/>
    <polyline points="147.1,188.3 147.7,188.4 148.5,188.5 149.5,188.6 150.3,188.6 151.1,188.5 151.5,188.5 152.7,188.3 153.0,188.2 159.0,186.9"/>
    <polyline points="147.9,188.5 148.8,188.6 149.8,188.7 150.7,188.8 151.5,188.8 152.3,188.7 153.1,188.5 153.2,188.5 159.2,187.1"/>
    <polyline points="175.7,181.1 175.1,181.5 174.5,181.9 173.7,182.2 172.6,182.4 169.2,183.2"/>
    <polyline points="148.5,188.5 149.4,188.5 150.3,188.5 151.0,188.4 152.0,188.3 152.7,188.1 152.8,188.1 158.9,186.8"/>
    <polyline points="177.8,180.2 176.7,180.4 176.3,180.4 170.0,180.9 169.5,181.0 169.2,181.1 168.3,181.2"/>
    <polyline points="175.7,181.0 174.5,181.3 173.6,181.5 172.7,181.6 170.2,181.8 169.2,181.9 168.3,182.1 166.8,182.4"/>
    <polyline points="167.1,181.8 166.1,182.1 163.9,182.8 162.0,183.4 161.5,183.6 160.5,183.9 148.0,186.7 147.0,186.9 146.1,187.0 145.0,187.1 143.8,187.1"/>
    <polyline points="166.6,181.6 165.8,181.9 164.5,182.3 163.1,182.7 161.7,183.1 147.8,186.3 147.1,186.5 146.4,186.6 145.6,186.6 144.5,186.6"/>
    <polyline points="149.1,188.0 150.2,187.8 151.5,187.6 151.9,187.6 152.2,187.5 158.2,186.1"/>
    <polyline points="174.5,181.3 169.5,181.7 168.6,181.9 167.7,182.1 166.8,182.4 165.8,182.8 165.0,183.0 164.2,183.2"/>
    <polyline points="171.1,180.3 169.3,180.6"/>
    <polyline points="179.5,179.8 178.0,180.0 170.1,180.7 167.9,180.9 165.2,181.1"/>
    <polyline points="140.1,186.7 137.5,187.3 136.8,187.4 135.8,187.8 132.9,189.0 130.9,189.8 130.4,190.0 129.5,190.4 128.6,190.8"/>
    <polyline points="161.4,182.0 160.3,182.2 159.4,182.3 158.6,182.5 147.1,185.1 146.9,185.2 145.7,185.5 144.4,185.8"/>
    <polyline points="142.5,186.6 140.7,186.6"/>
    <polyline points="161.4,182.1 160.7,182.3 159.8,182.6 158.9,182.8 147.4,185.4 146.8,185.6 146.0,185.7 144.6,186.0"/>
    <polyline points="162.7,181.9 161.5,182.5 160.7,182.7 159.2,183.1 158.1,183.3 147.6,185.7 147.2,185.8 145.9,186.1 144.5,186.3"/>
    <polyline points="162.0,182.1 161.0,182.4 159.0,182.9 147.4,185.5 147.2,185.6 144.3,186.2"/>
    <polyline points="125.9,191.7 127.9,191.0"/>
    <polyline points="184.3,179.1 182.9,179.3"/>
    <polyline points="173.7,180.0 175.6,179.7"/>
    <polyline points="136.8,187.4 137.6,187.2"/>
    <polyline points="180.1,179.5 177.9,179.7 173.7,180.0 171.1,180.3 167.6,180.6 162.7,180.9 159.4,181.3 157.9,181.6 145.7,184.4 145.1,184.5 144.5,184.8 143.9,185.0 143.0,185.6"/>
    <polyline points="180.2,179.3 177.1,179.6 175.6,179.7 174.3,179.8 166.9,180.5 163.2,180.7 161.5,180.9 159.3,181.2 157.8,181.5 153.1,182.6 145.2,184.4 144.1,184.7 143.5,184.9 138.8,186.6 136.7,187.3 136.0,187.6 134.4,188.2 133.0,188.8 130.9,189.7 129.1,190.5 127.9,191.0 125.8,191.9"/>
    <polyline points="129.1,190.5 130.4,190.0"/>
    <polyline points="124.2,192.4 122.7,192.9"/>
  </g>

  <!-- 지하철 역 -->
  <g>
    <circle cx="341.2" cy="435.3" r="3" fill="#dc2626" stroke="#fff" stroke-width="1"/>
    <circle cx="239.8" cy="181.1" r="3" fill="#dc2626" stroke="#fff" stroke-width="1"/>
    <circle cx="497.8" cy="300.7" r="3" fill="#dc2626" stroke="#fff" stroke-width="1"/>
    <circle cx="456.6" cy="468.2" r="3" fill="#dc2626" stroke="#fff" stroke-width="1"/>
    <circle cx="460.9" cy="481.4" r="3" fill="#dc2626" stroke="#fff" stroke-width="1"/>
    <circle cx="501.1" cy="483.2" r="3" fill="#dc2626" stroke="#fff" stroke-width="1"/>
    <circle cx="521.4" cy="484.0" r="3" fill="#dc2626" stroke="#fff" stroke-width="1"/>
    <circle cx="546.6" cy="483.8" r="3" fill="#dc2626" stroke="#fff" stroke-width="1"/>
    <circle cx="464.0" cy="439.9" r="3" fill="#dc2626" stroke="#fff" stroke-width="1"/>
    <circle cx="360.4" cy="350.4" r="3" fill="#dc2626" stroke="#fff" stroke-width="1"/>
    <circle cx="359.9" cy="366.6" r="3" fill="#dc2626" stroke="#fff" stroke-width="1"/>
    <circle cx="417.9" cy="305.8" r="3" fill="#dc2626" stroke="#fff" stroke-width="1"/>
    <circle cx="344.7" cy="406.2" r="3" fill="#dc2626" stroke="#fff" stroke-width="1"/>
    <circle cx="698.6" cy="361.0" r="3" fill="#dc2626" stroke="#fff" stroke-width="1"/>
    <circle cx="327.2" cy="501.2" r="3" fill="#dc2626" stroke="#fff" stroke-width="1"/>
    <circle cx="163.7" cy="462.3" r="3" fill="#dc2626" stroke="#fff" stroke-width="1"/>
    <circle cx="67.4" cy="393.0" r="3" fill="#dc2626" stroke="#fff" stroke-width="1"/>
    <circle cx="65.3" cy="346.4" r="3" fill="#dc2626" stroke="#fff" stroke-width="1"/>
    <circle cx="66.0" cy="371.0" r="3" fill="#dc2626" stroke="#fff" stroke-width="1"/>
    <circle cx="92.9" cy="423.1" r="3" fill="#dc2626" stroke="#fff" stroke-width="1"/>
    <circle cx="84.6" cy="447.0" r="3" fill="#dc2626" stroke="#fff" stroke-width="1"/>
    <circle cx="338.0" cy="514.0" r="3" fill="#dc2626" stroke="#fff" stroke-width="1"/>
    <circle cx="292.1" cy="497.3" r="3" fill="#dc2626" stroke="#fff" stroke-width="1"/>
    <circle cx="116.0" cy="448.4" r="3" fill="#dc2626" stroke="#fff" stroke-width="1"/>
    <circle cx="605.9" cy="297.8" r="3" fill="#dc2626" stroke="#fff" stroke-width="1"/>
    <circle cx="292.1" cy="389.2" r="3" fill="#dc2626" stroke="#fff" stroke-width="1"/>
    <circle cx="268.6" cy="372.3" r="3" fill="#dc2626" stroke="#fff" stroke-width="1"/>
    <circle cx="507.6" cy="408.4" r="3" fill="#dc2626" stroke="#fff" stroke-width="1"/>
    <circle cx="439.2" cy="407.8" r="3" fill="#dc2626" stroke="#fff" stroke-width="1"/>
    <circle cx="402.2" cy="407.4" r="3" fill="#dc2626" stroke="#fff" stroke-width="1"/>
    <circle cx="368.9" cy="406.9" r="3" fill="#dc2626" stroke="#fff" stroke-width="1"/>
    <circle cx="298.5" cy="407.2" r="3" fill="#dc2626" stroke="#fff" stroke-width="1"/>
    <circle cx="297.3" cy="379.2" r="3" fill="#dc2626" stroke="#fff" stroke-width="1"/>
    <circle cx="309.0" cy="365.2" r="3" fill="#dc2626" stroke="#fff" stroke-width="1"/>
    <circle cx="310.3" cy="354.3" r="3" fill="#dc2626" stroke="#fff" stroke-width="1"/>
    <circle cx="305.1" cy="342.9" r="3" fill="#dc2626" stroke="#fff" stroke-width="1"/>
    <circle cx="308.0" cy="324.2" r="3" fill="#dc2626" stroke="#fff" stroke-width="1"/>
    <circle cx="327.5" cy="296.1" r="3" fill="#dc2626" stroke="#fff" stroke-width="1"/>
    <circle cx="332.6" cy="276.0" r="3" fill="#dc2626" stroke="#fff" stroke-width="1"/>
    <circle cx="317.6" cy="255.2" r="3" fill="#dc2626" stroke="#fff" stroke-width="1"/>
    <circle cx="302.5" cy="240.3" r="3" fill="#dc2626" stroke="#fff" stroke-width="1"/>
    <circle cx="289.5" cy="229.9" r="3" fill="#dc2626" stroke="#fff" stroke-width="1"/>
    <circle cx="251.7" cy="216.1" r="3" fill="#dc2626" stroke="#fff" stroke-width="1"/>
    <circle cx="231.6" cy="205.9" r="3" fill="#dc2626" stroke="#fff" stroke-width="1"/>
    <circle cx="221.4" cy="192.1" r="3" fill="#dc2626" stroke="#fff" stroke-width="1"/>
    <circle cx="168.7" cy="179.9" r="3" fill="#dc2626" stroke="#fff" stroke-width="1"/>
    <circle cx="119.9" cy="194.2" r="3" fill="#dc2626" stroke="#fff" stroke-width="1"/>
    <circle cx="94.8" cy="205.7" r="3" fill="#dc2626" stroke="#fff" stroke-width="1"/>
    <circle cx="64.1" cy="181.1" r="3" fill="#dc2626" stroke="#fff" stroke-width="1"/>
    <circle cx="61.4" cy="143.0" r="3" fill="#dc2626" stroke="#fff" stroke-width="1"/>
    <circle cx="440.7" cy="428.1" r="3" fill="#dc2626" stroke="#fff" stroke-width="1"/>
    <circle cx="401.8" cy="423.1" r="3" fill="#dc2626" stroke="#fff" stroke-width="1"/>
    <circle cx="403.1" cy="389.4" r="3" fill="#dc2626" stroke="#fff" stroke-width="1"/>
    <circle cx="403.9" cy="367.0" r="3" fill="#dc2626" stroke="#fff" stroke-width="1"/>
    <circle cx="404.8" cy="347.6" r="3" fill="#dc2626" stroke="#fff" stroke-width="1"/>
    <circle cx="434.7" cy="342.4" r="3" fill="#dc2626" stroke="#fff" stroke-width="1"/>
    <circle cx="450.9" cy="294.9" r="3" fill="#dc2626" stroke="#fff" stroke-width="1"/>
    <circle cx="529.6" cy="305.3" r="3" fill="#dc2626" stroke="#fff" stroke-width="1"/>
    <circle cx="568.7" cy="308.6" r="3" fill="#dc2626" stroke="#fff" stroke-width="1"/>
    <circle cx="638.7" cy="297.2" r="3" fill="#dc2626" stroke="#fff" stroke-width="1"/>
    <circle cx="658.9" cy="321.5" r="3" fill="#dc2626" stroke="#fff" stroke-width="1"/>
    <circle cx="676.0" cy="332.9" r="3" fill="#dc2626" stroke="#fff" stroke-width="1"/>
    <circle cx="693.3" cy="349.2" r="3" fill="#dc2626" stroke="#fff" stroke-width="1"/>
    <circle cx="701.3" cy="359.4" r="3" fill="#dc2626" stroke="#fff" stroke-width="1"/>
    <circle cx="399.7" cy="534.7" r="3" fill="#dc2626" stroke="#fff" stroke-width="1"/>
    <circle cx="393.3" cy="517.4" r="3" fill="#dc2626" stroke="#fff" stroke-width="1"/>
    <circle cx="61.8" cy="345.4" r="3" fill="#dc2626" stroke="#fff" stroke-width="1"/>
    <circle cx="492.9" cy="390.3" r="3" fill="#dc2626" stroke="#fff" stroke-width="1"/>
    <circle cx="391.2" cy="495.5" r="3" fill="#dc2626" stroke="#fff" stroke-width="1"/>
    <circle cx="383.9" cy="476.0" r="3" fill="#dc2626" stroke="#fff" stroke-width="1"/>
    <circle cx="364.9" cy="447.6" r="3" fill="#dc2626" stroke="#fff" stroke-width="1"/>
    <circle cx="321.2" cy="382.4" r="3" fill="#dc2626" stroke="#fff" stroke-width="1"/>
    <circle cx="658.2" cy="366.4" r="3" fill="#dc2626" stroke="#fff" stroke-width="1"/>
    <circle cx="457.9" cy="389.9" r="3" fill="#dc2626" stroke="#fff" stroke-width="1"/>
    <circle cx="63.2" cy="461.0" r="3" fill="#dc2626" stroke="#fff" stroke-width="1"/>
    <circle cx="558.2" cy="382.4" r="3" fill="#dc2626" stroke="#fff" stroke-width="1"/>
    <circle cx="426.1" cy="389.5" r="3" fill="#dc2626" stroke="#fff" stroke-width="1"/>
    <circle cx="99.5" cy="428.9" r="3" fill="#dc2626" stroke="#fff" stroke-width="1"/>
    <circle cx="602.4" cy="369.9" r="3" fill="#dc2626" stroke="#fff" stroke-width="1"/>
    <circle cx="78.1" cy="448.5" r="3" fill="#dc2626" stroke="#fff" stroke-width="1"/>
    <circle cx="531.6" cy="390.9" r="3" fill="#dc2626" stroke="#fff" stroke-width="1"/>
    <circle cx="117.5" cy="413.7" r="3" fill="#dc2626" stroke="#fff" stroke-width="1"/>
    <circle cx="261.6" cy="386.9" r="3" fill="#dc2626" stroke="#fff" stroke-width="1"/>
    <circle cx="225.3" cy="403.1" r="3" fill="#dc2626" stroke="#fff" stroke-width="1"/>
    <circle cx="229.2" cy="342.2" r="3" fill="#dc2626" stroke="#fff" stroke-width="1"/>
    <circle cx="350.1" cy="541.8" r="3" fill="#dc2626" stroke="#fff" stroke-width="1"/>
    <circle cx="270.9" cy="474.9" r="3" fill="#dc2626" stroke="#fff" stroke-width="1"/>
    <circle cx="172.2" cy="312.4" r="3" fill="#dc2626" stroke="#fff" stroke-width="1"/>
    <circle cx="119.6" cy="293.4" r="3" fill="#dc2626" stroke="#fff" stroke-width="1"/>
    <circle cx="168.2" cy="357.9" r="3" fill="#dc2626" stroke="#fff" stroke-width="1"/>
    <circle cx="216.1" cy="327.3" r="3" fill="#dc2626" stroke="#fff" stroke-width="1"/>
    <circle cx="334.0" cy="343.3" r="3" fill="#dc2626" stroke="#fff" stroke-width="1"/>
    <circle cx="113.1" cy="378.8" r="3" fill="#dc2626" stroke="#fff" stroke-width="1"/>
    <circle cx="485.7" cy="367.8" r="3" fill="#dc2626" stroke="#fff" stroke-width="1"/>
    <circle cx="262.6" cy="501.9" r="3" fill="#dc2626" stroke="#fff" stroke-width="1"/>
    <circle cx="319.4" cy="422.5" r="3" fill="#dc2626" stroke="#fff" stroke-width="1"/>
    <circle cx="434.2" cy="367.3" r="3" fill="#dc2626" stroke="#fff" stroke-width="1"/>
    <circle cx="278.1" cy="342.1" r="3" fill="#dc2626" stroke="#fff" stroke-width="1"/>
    <circle cx="270.5" cy="401.7" r="3" fill="#dc2626" stroke="#fff" stroke-width="1"/>
    <circle cx="147.5" cy="304.7" r="3" fill="#dc2626" stroke="#fff" stroke-width="1"/>
    <circle cx="359.1" cy="387.8" r="3" fill="#dc2626" stroke="#fff" stroke-width="1"/>
    <circle cx="247.3" cy="493.7" r="3" fill="#dc2626" stroke="#fff" stroke-width="1"/>
    <circle cx="538.7" cy="370.8" r="3" fill="#dc2626" stroke="#fff" stroke-width="1"/>
    <circle cx="195.3" cy="348.5" r="3" fill="#dc2626" stroke="#fff" stroke-width="1"/>
    <circle cx="86.6" cy="280.8" r="3" fill="#dc2626" stroke="#fff" stroke-width="1"/>
    <circle cx="289.3" cy="450.4" r="3" fill="#dc2626" stroke="#fff" stroke-width="1"/>
    <circle cx="71.7" cy="393.9" r="3" fill="#dc2626" stroke="#fff" stroke-width="1"/>
    <circle cx="250.0" cy="494.5" r="3" fill="#dc2626" stroke="#fff" stroke-width="1"/>
    <circle cx="284.7" cy="373.8" r="3" fill="#dc2626" stroke="#fff" stroke-width="1"/>
    <circle cx="158.1" cy="360.7" r="3" fill="#dc2626" stroke="#fff" stroke-width="1"/>
    <circle cx="187.8" cy="470.1" r="3" fill="#dc2626" stroke="#fff" stroke-width="1"/>
    <circle cx="210.3" cy="475.1" r="3" fill="#dc2626" stroke="#fff" stroke-width="1"/>
    <circle cx="478.2" cy="408.1" r="3" fill="#dc2626" stroke="#fff" stroke-width="1"/>
    <circle cx="394.5" cy="517.6" r="3" fill="#dc2626" stroke="#fff" stroke-width="1"/>
  </g>
</svg>