<?xml version="1.0" encoding="UTF-8"?>
<svg width="800" height="600" xmlns="http://www.w3.org/2000/svg">
  <title>Tianjin Subway Map</title>
  <rect width="100%" height="100%" fill="#f8f9fa"/>

  <!-- 지하철 선로 -->
  <g stroke="#2563eb" stroke-width="2" fill="none" opacity="0.8">
    <polyline points="181.6,-40.3 200.8,-34.2 209.8,-31.0 218.8,-27.9 249.2,-18.0 256.6,-14.6 260.1,-12.2 263.7,-8.5 266.9,-0.6 272.9,12.5 294.7,52.1 298.0,56.2 298.6,57.2 298.8,59.3 300.0,62.7 301.6,64.5 307.7,70.0 311.3,73.9 317.4,82.0 321.9,86.9 323.9,89.1 324.2,89.9 324.3,90.6 324.5,92.6 324.6,94.8 326.0,122.4 333.1,133.6 339.2,141.1 340.5,143.0 341.4,144.9 342.0,147.2 340.6,157.1 340.1,161.9 339.8,166.8 340.1,169.4 340.3,170.6 341.4,172.1 342.5,172.7 343.7,173.3 357.5,177.8 363.1,179.6 366.2,180.2 370.2,180.7 373.9,181.2 388.2,182.8 402.7,184.0 405.7,184.3 412.0,184.8 419.4,185.3 438.0,186.3 449.4,187.0 452.9,187.4 462.2,189.2 471.0,190.8 475.3,191.6 488.9,193.3 497.7,194.2 501.4,194.4 506.4,194.7 518.7,195.1 529.8,196.9 530.7,197.1 553.2,199.4 569.2,202.1 576.4,204.7 578.8,205.4 580.0,205.7 582.7,206.7 589.3,210.1 591.2,210.5 601.4,212.0 603.5,212.8 605.0,213.9 608.8,217.5 610.8,220.3 612.0,223.1 613.3,227.3 614.9,232.4 615.6,233.9 616.6,235.2 619.0,238.0 623.0,243.4 623.6,244.1 624.0,244.9 624.6,246.4 624.9,247.6 625.0,248.7 624.8,251.2 624.2,253.7 622.6,259.0 622.5,261.8 623.0,264.4 625.0,269.2 625.7,271.7 625.7,272.7 625.8,279.3 626.4,281.4 627.2,284.1 627.4,284.7 627.5,284.9 627.8,285.3 628.1,285.5 628.7,285.8 629.3,286.0 630.1,286.2 641.2,288.6 651.0,291.7 673.3,298.7 696.0,305.7 718.2,310.2"/>
    <polyline points="718.2,310.2 725.4,311.6 747.2,314.8 752.3,315.9 768.4,320.3 772.9,321.4"/>
    <polyline points="537.7,118.5 548.9,120.8 561.4,123.6 562.6,124.0 564.2,125.2 567.8,128.0 569.1,129.8 569.5,130.6 570.1,131.8 570.5,135.9 570.1,141.9 572.1,146.8 572.8,147.5 574.7,148.8 578.6,150.6 593.4,159.7 599.6,163.7 625.8,180.7 632.1,184.5 633.1,185.1 643.7,192.4 679.3,215.7 682.7,218.1 684.6,219.4 697.1,227.8 718.0,239.0 728.0,243.7 732.6,245.9 741.3,250.2 745.7,252.2 748.1,252.9 749.8,253.1 751.5,253.2 755.5,253.2 789.2,251.7"/>
    <polyline points="527.4,150.0 531.5,144.4 535.6,137.7 539.5,132.1 548.5,119.8 557.4,109.5 559.1,107.3 560.2,105.0 559.9,100.8 558.6,97.3 554.5,92.6 550.4,88.4 546.6,84.5 539.7,77.5 533.6,72.1 527.4,66.8 523.9,60.8 524.7,56.1 528.8,49.0 529.0,47.9 528.8,46.9 526.1,42.5 524.1,39.2 520.4,32.9 518.7,30.3 516.5,27.2 516.5,26.3 517.8,23.4 519.0,21.1 521.9,19.1 533.1,14.5 535.0,13.3 536.3,11.7 537.2,10.1 537.2,9.0 536.3,5.6 535.0,1.1 532.0,-16.8 531.5,-21.9 531.4,-22.8 530.7,-33.6 530.6,-34.8 530.1,-41.3 530.9,-43.4 533.3,-45.7 544.7,-56.7 560.3,-70.3 571.6,-74.6"/>
    <polyline points="19.4,329.9 22.7,327.5 33.4,320.8 69.6,309.1 74.9,307.5 104.2,297.5 119.7,293.0 130.7,290.1 142.5,287.0 144.5,286.8 146.0,286.8 160.7,286.6 187.8,286.5 241.1,287.0 269.1,287.0 276.4,286.9 282.9,286.6 289.6,285.6 306.9,279.3 311.9,278.2 318.8,276.8 329.3,275.8 352.5,275.4 364.9,275.3 386.7,274.7 396.8,274.1 404.2,273.2 405.0,273.0 405.4,272.9 405.7,272.6 406.1,272.3 406.6,271.5 407.1,268.7 407.5,259.5 407.3,255.7 405.6,251.9 406.8,237.9 407.7,220.5 409.7,218.9 418.7,215.0 421.3,213.8 426.6,211.6 473.1,191.9 478.2,189.4 486.0,182.8 490.1,178.9 498.4,172.4 504.7,167.5 514.0,160.8 516.8,158.6 518.5,157.4 525.9,151.5 527.4,150.0"/>
    <polyline points="498.2,115.4 495.1,116.3 477.9,121.1 472.0,123.0 469.6,123.5 466.6,123.9 459.5,124.0 441.1,124.3 432.9,124.2 391.3,123.5 378.7,123.3 369.4,123.0 333.7,122.4 325.9,122.4 311.5,122.3 266.4,122.2 263.9,122.2 229.3,121.9 200.6,121.8 196.7,121.8 138.2,122.0 114.4,121.8 112.1,121.7 70.9,121.9 63.8,121.6 58.1,120.3 53.8,118.6 40.7,112.4 29.6,107.1 25.1,105.0 17.0,101.7 0.2,95.8 -12.5,92.4 -24.6,90.7 -30.8,90.4 -36.3,90.4 -61.5,90.6 -114.5,92.2 -120.0,92.4 -138.3,93.1 -142.5,93.3 -172.4,94.3 -183.9,94.8"/>
    <polyline points="1207.0,50.8 1203.1,51.0 1193.2,51.2 1184.2,51.5 1177.2,51.8 1172.9,52.2 1167.4,52.9 1122.4,60.0 1113.3,61.4 1075.3,67.7 1047.2,72.6 1002.7,80.7 995.1,81.6 988.1,82.0 948.9,85.5 914.2,87.4 907.6,87.7 900.5,88.4 894.6,89.3 888.2,90.2 882.3,91.0 876.6,91.8 850.8,95.3 850.0,95.4 843.9,96.0 839.2,96.6 832.4,97.2 829.0,97.0 818.4,97.3 810.8,97.6 805.1,97.8 793.0,98.3 778.7,99.3 763.8,100.8 752.2,101.3 744.0,101.8 737.4,102.2 730.9,102.3 723.7,102.5 716.2,102.6 708.5,103.0 703.5,103.2 692.4,105.1 685.2,107.0 683.3,107.5 677.4,108.8 672.8,110.1 658.4,114.3 656.8,114.8 649.0,116.8 645.7,117.8 637.7,119.6 626.8,122.1 615.5,124.6 610.3,125.7 600.5,127.6 597.2,128.2"/>
    <polyline points="1091.6,-134.1 1082.8,-134.4 1074.2,-134.9 1064.8,-135.5 1056.4,-135.5 1045.6,-135.0 1034.5,-133.9 1014.7,-130.9 1001.2,-128.7 973.4,-123.8 946.1,-119.3 932.1,-117.0 905.1,-112.8 877.0,-108.5 868.8,-107.0 856.6,-104.9 848.8,-102.6 837.2,-98.2 827.2,-94.6 819.0,-90.7 808.9,-84.3 802.7,-77.6 802.2,-76.9 798.5,-71.1 794.8,-61.1 793.2,-54.8 792.0,-49.2 788.9,-41.7 786.6,-36.4 784.7,-33.9 782.5,-32.0 777.9,-29.0 768.7,-24.3 752.4,-15.0 741.2,-7.9 734.0,-4.2 728.1,-1.6 718.2,1.7 707.9,4.6 700.3,5.8 694.8,6.7 683.3,7.0 667.3,7.6 663.2,8.0 656.2,10.4 641.8,14.5 631.7,15.8 619.6,16.6 615.3,16.9 611.2,17.0 607.2,17.0 603.5,16.8 599.4,16.6 594.9,16.6 578.1,17.2 572.0,17.1 554.2,17.2 551.0,17.1 547.6,16.9 544.1,16.6 536.4,15.7 533.3,14.9 524.9,12.8 517.4,10.5 509.6,7.9 505.3,6.7 475.0,-2.0 464.8,-3.9 456.6,-4.6 453.3,-4.6 449.4,-4.3 441.4,-2.5 425.3,0.9 414.5,3.4 393.7,8.5 384.7,10.7 381.1,11.9 376.3,14.1 364.9,21.3 357.8,26.2 352.2,29.9 347.6,31.8 341.5,33.8 336.8,35.5 330.9,38.3 317.2,43.9 299.6,50.6 284.6,53.1 277.2,54.0 274.6,54.2 250.9,54.4 245.1,55.3 215.4,59.1 211.0,61.0 206.9,64.3 197.2,70.1 194.2,73.9 193.6,78.8 194.4,88.7 195.4,115.9 194.9,122.7 194.8,151.9 194.8,161.3 195.3,181.6 195.0,198.8 195.2,226.8 195.1,247.7 195.2,285.3 195.3,287.6 195.4,308.7 195.4,314.3 195.4,324.2 196.3,328.7 197.2,330.4 198.5,331.7 200.6,332.9 202.1,333.8 205.1,335.3 207.4,335.9 211.1,336.1 214.4,336.2 218.0,336.0 226.8,335.4 231.3,334.9 235.2,334.4 242.8,333.5 245.8,333.2 248.5,333.0"/>
    <polyline points="597.2,128.2 594.8,128.0 569.3,123.4 563.3,122.3 546.5,119.7 538.4,118.2 530.2,116.5 524.9,115.9 519.3,115.3 510.7,114.7 506.4,114.6 501.7,115.0 498.2,115.4"/>
    <polyline points="248.5,333.0 291.2,334.1 330.7,335.2 354.5,336.1 382.2,337.1 384.4,337.1 387.2,337.0 394.9,336.2 406.1,334.8 415.1,333.4 421.7,332.1 424.8,331.4 430.0,330.2 437.0,328.3 445.5,325.7 449.3,324.3 480.5,312.9 493.5,308.4 528.4,296.4 538.2,293.1 540.9,292.5 543.7,292.0 548.3,291.5 558.2,291.3 587.4,291.2 595.3,291.4 602.0,291.5 605.1,291.6 608.9,291.8 611.4,292.2 613.8,292.7 616.0,293.4 618.0,294.4 620.4,295.6 622.4,296.8 624.0,297.9 626.0,299.8 626.8,300.8 627.5,302.5 627.7,303.5 627.2,330.8 627.2,332.1 627.2,334.8 631.6,352.0 632.0,353.9 635.7,372.1 635.8,373.0 635.0,375.8 633.7,377.9 631.7,380.7 629.0,383.0 625.5,384.7 621.1,386.4 599.9,392.4 596.3,393.8 593.1,395.3 591.0,396.8 589.7,397.8 589.1,398.7 588.3,400.3 588.5,407.1 588.3,412.5 588.6,434.4 588.1,462.6 588.6,469.4 592.7,473.9 601.2,478.7 605.5,479.7 610.2,480.5 614.8,481.3 618.6,481.8 622.4,482.0 645.0,481.5 662.5,480.0 671.3,479.1 676.5,478.2 683.9,477.1 708.6,473.5 753.2,466.7 755.2,466.4 763.8,465.2 778.2,462.9 786.5,462.4 792.3,462.3 806.3,461.9"/>
    <polyline points="172.5,-375.4 195.3,-358.3 200.0,-354.7 258.2,-314.7 271.8,-304.3 276.5,-300.9 298.7,-284.2 335.2,-257.0 359.4,-239.7 379.3,-224.5 381.9,-222.5 413.4,-200.3 442.2,-177.6 467.8,-158.0 484.9,-145.8 518.9,-120.3 559.9,-88.1 571.5,-80.3 595.7,-62.4 599.7,-59.4 603.3,-57.3 613.7,-53.7 621.9,-51.4 631.2,-49.2 634.4,-48.5 637.5,-48.1 649.4,-46.9 660.1,-45.8 664.5,-45.2 668.5,-44.5 671.4,-43.9 673.4,-43.3 674.7,-42.6 688.3,-33.4 692.0,-30.8 695.5,-28.4 698.6,-25.9 709.9,-15.6 712.6,-13.7 715.2,-12.1 717.9,-10.8 729.8,-5.4 732.9,-4.0 734.2,-3.6 739.1,-1.0 745.8,2.1 750.1,4.0 753.9,5.9 756.2,8.0 756.7,8.7 757.1,10.7 757.1,12.2 756.3,14.9 755.3,18.8 751.3,26.7 749.2,30.7 747.6,34.2 745.7,38.7 744.8,60.7 744.4,70.7 743.9,83.3 743.8,89.5 744.8,101.2 748.9,142.1 751.7,148.4 752.0,151.1 755.9,160.7 755.7,163.3 755.2,165.8 753.8,168.3 751.8,172.0 742.6,182.6 741.4,184.0 740.7,185.2 738.8,189.1 737.9,191.1 735.3,193.9 727.8,198.4 722.3,201.5 721.1,202.2 711.1,208.0 704.5,211.7 701.3,213.2 692.7,216.2 684.1,219.3 680.3,220.4 659.5,226.8 645.8,231.3 628.7,237.4 621.6,239.6"/>
    <polyline points="69.7,307.9 70.1,308.1 71.1,307.8 70.7,307.5 69.7,307.9"/>
    <polyline points="312.7,494.7 307.9,495.6 287.1,500.3 277.4,502.4 277.0,502.5"/>
    <polyline points="264.5,504.8 262.8,505.0 256.1,505.5 248.4,505.8 245.2,506.7 240.5,508.6"/>
    <polyline points="275.3,502.8 270.7,503.8 268.6,504.2 266.9,504.5 264.5,504.8"/>
    <polyline points="277.0,502.5 275.3,502.8"/>
    <polyline points="321.9,492.5 325.3,491.6 328.1,491.1 331.8,490.6 335.3,490.4 336.9,490.4 338.8,490.4 350.9,490.7"/>
    <polyline points="287.7,500.4 293.0,499.3 299.6,497.9 302.9,497.0 305.8,496.2 312.7,494.7 313.5,494.5"/>
    <polyline points="941.0,73.8 947.0,81.8 948.1,83.1 951.4,87.8 970.3,115.1 972.1,117.6 974.9,121.7 985.5,139.4 987.5,142.2 989.1,145.9 990.3,149.1 994.0,165.8 994.7,168.5 995.8,172.9 1001.6,190.6 1002.1,192.0 1003.0,193.6 1003.8,196.5 1004.8,200.3 1006.3,206.7 1007.7,213.3 1007.8,215.9 1007.2,218.5 1005.4,222.3 1003.8,225.7 995.2,240.5 994.7,245.5 995.1,249.2 995.5,253.2 996.2,259.5 993.3,274.4 992.7,276.9 992.7,280.0 990.7,292.0 989.4,298.7 986.5,312.6 986.1,314.7 985.7,318.0 984.4,330.1 983.6,335.7 981.5,342.1 979.9,347.5 979.1,351.2 978.8,354.5 978.8,357.7 978.8,361.0 978.8,369.1 978.7,378.4 977.6,381.6 976.8,383.0 975.9,384.1 972.0,386.9 965.4,389.3 957.7,390.4 944.0,390.4 835.8,395.6 817.4,396.3 800.2,396.8 791.1,397.2 786.4,397.4 771.1,398.1 765.6,397.8 748.6,396.5 744.5,396.3 735.2,395.3 721.4,393.6 715.2,393.3 709.1,393.3 696.5,393.3 673.8,393.1 664.8,393.0 646.2,392.9 602.9,392.7 592.3,392.7 590.5,392.6 588.9,392.6 525.8,392.4 516.5,392.3 496.4,392.7 458.3,395.3 453.9,395.6 436.0,396.9 431.9,397.4 428.1,398.2 424.5,399.7 422.0,401.1 411.3,409.3 405.1,413.3 403.6,414.1 402.1,414.7 399.2,415.4 391.0,417.1 386.6,418.0 381.3,419.0 353.2,424.4 345.6,425.6 342.6,426.1 330.4,427.9 320.2,429.5 308.5,431.2 300.6,432.6 291.6,434.5 286.7,436.3 282.4,439.1 281.4,440.3 280.5,442.8 279.4,446.6 278.6,448.4 270.7,456.1"/>
    <polyline points="-105.2,-493.9 -96.7,-483.0 -86.2,-469.1 -81.8,-463.0 -77.9,-456.4 -73.3,-443.4 -67.6,-425.9 -63.2,-414.4 -57.2,-398.9 -49.5,-377.7 -45.8,-367.9 -45.2,-366.3 -41.5,-358.2 -30.0,-337.4 -27.7,-333.2 -24.2,-327.3 -18.9,-320.9 -14.3,-316.1 -11.3,-313.3 -7.9,-310.2 -3.7,-305.6 0.3,-299.3 2.0,-296.7 3.9,-293.4 11.3,-280.2 14.8,-274.4 19.4,-266.3 22.2,-262.7 25.0,-258.4 29.5,-254.0 35.9,-246.9 37.5,-244.6 41.3,-239.0 44.4,-234.0 46.9,-229.2 48.6,-224.3 49.3,-222.7 51.3,-218.9 57.9,-211.0 58.3,-210.5 62.8,-205.2 67.8,-200.0 74.1,-195.1 82.0,-190.3 84.3,-188.8 91.9,-184.4 101.1,-178.9 125.3,-165.6 130.1,-162.2 136.1,-158.0 158.1,-139.4 162.6,-136.1 167.1,-132.5 174.0,-126.2 178.9,-122.0 182.6,-119.2 184.7,-117.9 191.6,-113.8 201.6,-107.7 208.8,-103.3 217.5,-98.0 225.2,-93.3 241.5,-83.5 248.7,-80.0 272.0,-68.0 282.5,-62.8 287.6,-60.4 297.5,-56.6 316.7,-49.8 324.7,-47.6 334.0,-45.0 340.3,-44.3 346.7,-44.1 355.1,-43.8 359.6,-43.4 361.6,-42.9 363.1,-42.2 365.1,-41.0 366.9,-39.1 367.1,-38.9 369.0,-35.9 370.6,-31.6 370.5,-29.1 370.0,-25.6 369.1,-19.2 368.4,-17.5 366.8,-16.2 364.5,-15.5 354.8,-13.5 343.4,-11.9 334.7,-10.5 326.8,-8.4 325.3,-8.0 323.3,-7.2 309.1,-1.4 305.5,1.3 301.0,6.0 296.9,10.8 294.5,13.1 291.7,15.1 287.5,18.1 284.3,20.8 281.1,24.7 277.3,31.3 274.7,36.7 274.6,38.9 274.7,45.0 274.9,49.6 275.2,51.8 275.5,53.7"/>
    <polyline points="621.6,239.6 613.2,242.1 605.8,243.9 599.4,245.6 597.6,246.0 595.7,246.5 593.8,246.9 591.4,247.2 587.6,247.6 585.8,247.8 584.3,248.0 583.4,248.3 582.7,248.7 581.5,249.5 580.6,250.4 580.4,251.2 580.2,252.4 580.1,252.9 580.2,253.5 580.4,254.5 580.7,255.7 580.9,256.5 581.2,261.4 580.4,266.2 580.4,275.8 580.5,277.8 580.9,279.5 580.9,282.9 581.0,285.2 581.2,296.6 581.1,296.9 581.0,297.1 580.8,297.3 580.5,297.5 580.2,297.7 579.8,297.9 579.4,298.1 578.9,298.3 578.3,298.5 576.9,298.6 533.1,300.4 523.2,300.8 519.7,301.0 516.6,301.4 515.0,301.7 514.1,301.9 513.3,302.1 512.3,302.3 490.1,310.1 480.8,313.2 462.6,319.8 449.4,324.6 445.6,325.9 437.3,328.6 430.1,330.5 425.7,331.5 421.9,332.4 415.2,333.7 406.4,335.0 394.9,336.4 386.4,337.3 384.7,337.4 379.4,337.3 361.4,337.3 354.2,337.7 346.4,338.5 342.7,338.9 339.0,340.1 332.2,343.1 330.7,344.7 329.4,346.5 329.1,347.5 328.1,355.0 327.6,360.2 325.4,377.4 324.4,384.5 323.4,388.8 323.1,390.3 323.3,391.9 323.3,393.5 324.7,395.3 335.3,399.1 344.3,401.1 373.6,410.9 390.5,416.7 394.1,418.2 396.0,419.7 397.8,421.8 399.2,423.9 399.9,425.4 401.1,428.6 401.9,433.0 401.8,438.8 400.7,444.9 398.9,453.9 397.9,458.5"/>
    <polyline points="313.0,494.0 317.3,493.0"/>
    <polyline points="350.9,490.7 338.8,490.2 335.2,490.1 331.7,490.3 327.8,490.8"/>
    <polyline points="397.9,458.5 397.0,463.1 392.9,466.8 389.3,469.6 381.4,477.0 372.5,487.0 371.1,487.9 368.3,489.1 364.1,489.8 357.2,490.7 350.9,490.7"/>
    <polyline points="265.1,480.6 265.0,482.3 264.4,483.4 263.5,484.5 261.7,485.8 259.1,486.9 255.9,487.7 245.0,489.5"/>
    <polyline points="432.7,123.6 432.8,127.6 432.6,131.6 432.7,132.0 433.2,133.7 433.9,134.9 437.0,137.9 442.3,142.3 443.7,143.5 449.9,147.7 450.9,148.4 458.5,151.4 468.1,153.1 474.8,153.9 480.9,154.1 492.9,152.9 498.0,152.9 500.9,153.2 505.9,153.8 508.1,154.1 509.9,154.6 511.3,155.0 517.7,158.2 518.8,158.6 527.4,161.5 539.1,165.3 543.4,167.1 547.9,169.7 561.4,177.7 576.0,186.8 582.3,191.3 585.8,194.0 591.2,198.7 595.0,202.2 595.2,202.5 600.2,207.4 600.4,207.5 601.0,208.0 604.3,209.1 608.2,210.0 610.6,210.3 613.0,210.3 617.6,210.2 621.6,209.6 626.7,208.6 637.3,205.8 640.9,204.9 649.8,202.0 662.9,196.9 692.3,184.7 712.0,174.7 717.4,171.6 719.5,169.9 721.8,167.2 723.0,164.4 723.3,161.6 723.5,154.5 723.6,152.0 724.8,150.5 727.2,149.6 730.4,149.0 737.0,148.0 745.6,148.1 757.7,148.9 772.8,149.6 777.4,150.0 783.6,150.8 787.5,151.8 788.9,152.3 790.0,152.9 790.5,153.3 791.0,153.6 791.4,154.1 791.8,154.9 790.9,169.9 791.1,170.9 791.2,171.4 791.8,172.0 792.4,172.2 794.5,173.0 799.4,174.3 806.1,175.8 813.8,177.5 814.8,177.6 815.4,177.7 833.7,181.3 854.0,185.5 866.5,188.0 881.3,190.8 892.7,192.8 898.0,193.4 905.8,193.5 913.3,192.9 919.9,192.6 929.6,192.2 940.7,191.9 949.7,192.2 962.5,192.6 979.1,194.4 994.5,195.6 1002.4,195.9 1019.1,196.6 1031.8,197.0 1041.9,197.6 1071.2,198.5 1085.2,198.8 1096.0,199.3 1120.8,200.5 1136.2,202.1 1167.9,207.1 1177.3,208.5 1187.8,210.2 1203.1,212.2 1228.5,215.3 1262.5,219.0 1267.9,219.7 1281.4,220.8 1292.9,222.0 1320.5,225.4 1338.4,227.5 1350.6,228.6 1359.0,228.9 1367.2,229.1 1372.1,229.4 1378.8,230.1 1385.4,231.3 1394.8,233.1 1401.1,234.8 1413.9,238.1 1442.8,245.1 1461.9,250.9 1468.0,252.8 1474.2,255.0 1481.9,257.7 1487.7,259.6 1492.8,261.4 1500.6,264.4 1501.6,264.8"/>
    <polyline points="1501.8,264.6 1482.0,257.3 1474.6,254.7 1468.6,252.6 1462.7,250.8 1443.0,244.8 1414.2,237.9 1401.4,234.6 1394.8,232.9 1385.8,231.1 1378.9,229.9 1372.3,229.2 1367.3,228.9 1359.0,228.7 1350.6,228.4 1338.5,227.2 1320.6,225.2 1293.0,221.8 1281.5,220.6 1268.2,219.4 1262.5,218.7 1228.7,215.0 1203.3,211.9 1188.1,209.7 1177.6,208.2 1168.0,206.7 1136.6,201.8 1120.8,200.2 1096.1,198.8 1096.1,198.8 1085.5,198.5 1071.1,198.1 1042.2,197.4 1031.7,196.7 1019.1,196.3 1002.5,195.6 994.2,195.3 979.6,194.1 963.0,192.5 949.7,191.9 940.7,191.6 929.7,191.9 919.9,192.4 913.4,192.7 905.8,193.3 898.1,193.2 893.1,192.5 881.6,190.3 866.9,187.8 862.9,187.0 854.4,185.3 833.9,181.2 826.6,179.8 814.9,177.3 799.7,174.1 794.8,172.8 792.2,171.8 791.7,171.4 791.5,169.9 792.4,154.9 791.8,153.8 791.1,153.1 790.5,152.7 789.1,152.0 787.7,151.5 783.8,150.6 777.8,149.7 772.9,149.3 757.9,148.6 752.5,148.3 745.8,147.9 736.9,147.8 730.5,148.7 726.8,149.4 724.4,150.3 723.1,151.9 722.9,154.4 722.8,161.6 722.5,164.4 721.3,167.1 718.8,169.9 716.7,171.6 711.6,174.5 691.9,184.5 662.5,196.7 649.5,201.7 640.7,204.7 637.1,205.7 626.6,208.5 621.5,209.5 617.5,210.1 610.6,210.2 608.4,209.9 604.5,209.0 601.4,207.8 600.7,207.3 595.7,202.4 591.6,198.6 586.3,193.9 585.0,192.9 582.7,191.2 576.3,186.7 561.8,177.5 543.6,167.0 539.4,165.1 527.6,161.3 518.9,158.5 511.6,154.8 508.3,153.9 506.1,153.6 501.2,153.0 498.1,152.8 492.9,152.8 480.9,154.0 474.9,153.8 468.1,152.9 458.7,151.3 451.3,148.3 442.7,142.2 437.4,137.8 434.2,134.8 433.5,133.7 432.9,131.6 433.1,127.6 433.0,123.6"/>
    <polyline points="436.1,397.1 454.0,395.9 457.1,395.6 458.3,395.5 496.4,392.9 516.5,392.5 525.8,392.6 575.8,392.8 588.9,392.8 590.5,392.8 592.3,392.9 602.9,392.9 646.2,393.1 664.8,393.2 673.3,393.3 673.8,393.3 696.5,393.5 709.1,393.5 715.2,393.5 721.3,393.8 735.1,395.5 744.4,396.5 748.5,396.7 765.5,398.0 771.1,398.3 786.5,397.6 791.2,397.4 800.2,397.0 835.9,395.8 943.9,390.9 957.9,390.7 965.9,389.6 972.4,387.1 976.4,384.0 977.2,383.1 977.7,382.2 979.1,378.4 979.2,369.1 979.2,361.0 979.2,357.7 979.2,354.5 979.5,351.2 980.3,347.5 981.9,342.2 984.0,335.8 985.1,330.2 985.9,323.2 986.4,318.0 986.6,316.3 987.2,312.9 989.8,298.7 991.1,292.0 993.2,280.0 993.0,276.9 993.4,275.5 993.5,275.2 996.6,259.5 995.9,253.2 995.5,249.2 995.1,245.5 995.6,240.6 1004.2,225.8 1005.8,222.4 1007.6,218.6 1008.2,216.0 1008.1,213.2 1006.7,206.7 1005.2,200.3 1004.2,196.4 1003.4,193.5 1002.5,192.0 1002.0,190.6 996.2,172.8 995.1,168.5 994.4,165.8 990.7,149.1 989.5,145.9 987.8,142.2 985.9,139.3 975.3,121.6 972.5,117.6 970.6,115.0 948.4,83.0 947.4,81.7 941.3,73.8"/>
    <polyline points="245.1,489.7 256.1,487.9 258.7,487.2 260.8,486.4 262.2,485.8 263.8,484.6 264.7,483.5 265.4,482.3 265.5,480.6"/>
    <polyline points="270.7,456.1 267.1,460.4 263.0,464.9 261.5,467.0 260.7,469.7 264.1,478.5 265.1,480.6"/>
    <polyline points="265.5,480.6 261.2,469.7 262.0,467.1 263.4,465.0 267.5,460.5 271.3,456.3"/>
    <polyline points="537.6,118.7 548.7,121.0 561.2,123.8 562.3,124.1 567.6,128.0 568.8,129.8 569.8,131.8 570.3,135.9 569.7,141.9 571.8,146.8 572.5,147.6 574.5,148.9 576.9,150.0 578.3,150.7 593.1,159.7 599.3,163.9 625.6,180.8 626.0,181.0 632.8,185.2 643.5,192.6 682.4,218.2 696.7,227.8 717.7,239.1 732.4,246.1 741.0,250.3 745.5,252.3 748.0,253.0 751.5,253.4 755.5,253.4 774.8,252.4 789.2,251.8"/>
    <polyline points="299.2,259.0 300.8,259.1 303.7,259.4"/>
    <polyline points="300.7,259.5 303.7,259.4 313.1,259.1"/>
    <polyline points="313.1,258.8 303.8,259.0 300.8,259.1"/>
    <polyline points="299.2,259.7 300.7,259.5 303.8,259.0"/>
    <polyline points="506.6,274.8 505.7,276.5"/>
    <polyline points="276.6,260.3 287.3,260.0 299.2,259.7 311.7,259.3 328.3,258.6 336.8,257.8 349.7,254.7 357.5,253.6 361.6,253.1 365.7,252.8 376.3,253.7 386.6,254.2 401.9,255.3 411.4,256.0 415.9,256.4 422.3,256.8 443.7,257.9 459.6,258.9 471.3,260.2 479.7,260.9 484.5,261.3 491.2,262.7 497.5,266.7 503.1,271.1 505.8,274.9 505.7,276.5 505.7,281.4 505.6,284.4 505.7,290.4 505.7,292.9 506.2,294.6 507.4,297.0 511.2,300.6 524.7,308.6 529.8,312.7 532.8,315.1 535.5,317.1 536.3,317.6 537.3,318.0 538.7,318.3 540.5,318.4 585.2,318.3 588.3,318.9 590.9,319.9 599.6,325.2 602.0,326.4 605.6,327.5 614.2,327.8 619.8,327.9 623.9,327.9 636.7,327.7 650.2,327.5 651.8,327.4 653.3,327.0 665.1,323.7 666.5,323.4 668.5,323.2 677.3,323.1 682.0,323.1 693.4,323.2 736.6,323.6 741.3,324.0 745.8,324.9 749.8,326.4 751.6,328.2 751.9,335.9 751.7,341.7 751.7,343.9 751.6,348.2 751.5,352.1 751.5,356.4 752.5,362.6 753.2,363.5 754.3,364.2 755.5,364.6 756.7,364.9 769.0,366.5 776.8,367.8 778.4,368.1 809.0,373.8 821.0,375.8"/>
    <polyline points="820.8,375.4 810.4,373.8 778.9,367.8 777.0,367.5 769.1,366.2 757.2,364.7 756.1,364.4 754.7,363.9 753.8,363.4 753.1,362.5 752.3,356.4 752.3,352.1 752.4,341.7 752.3,335.8 752.0,328.1 750.2,326.3 746.0,324.7 741.3,323.8 736.7,323.4 693.5,322.9 686.9,322.8 682.0,322.8 672.5,323.0 668.3,323.0 666.5,323.2 665.1,323.5 653.6,326.8 651.9,327.2 650.3,327.3 636.4,327.4 623.8,327.6 619.8,327.6 614.3,327.5 605.9,327.3 602.2,326.3 599.9,325.1 591.0,319.7 588.2,318.6 585.1,318.0 540.6,318.2 539.1,318.0 537.9,317.8 536.8,317.4 536.0,317.0 533.4,315.0 530.3,312.6 525.1,308.4 510.7,299.4 508.7,297.5 507.1,294.9 506.6,293.2 506.6,290.9 506.7,281.4 506.6,274.8 503.9,271.2 501.6,269.1 498.1,266.3 492.1,262.5 484.8,261.0 479.8,260.5 471.1,259.8 459.8,258.4 454.3,257.9 447.2,257.5 439.9,257.2 434.5,257.1 422.2,256.6 416.0,256.1 411.5,255.6 401.9,255.0 386.9,253.9 375.4,253.2 366.3,252.3 361.6,252.6 357.4,253.2 349.7,254.3 336.9,257.3 328.0,258.2 312.7,258.6 299.2,259.0 287.3,259.4 286.8,259.5 275.8,259.9"/>
    <polyline points="313.0,494.0 312.3,494.2 309.4,494.9 305.4,495.8 298.7,497.1 295.4,497.8 292.1,498.5 288.7,499.2 286.8,499.6"/>
    <polyline points="321.4,492.0 325.0,491.2 327.8,490.8"/>
    <polyline points="313.5,494.5 317.7,493.5"/>
    <polyline points="287.7,500.4 279.4,502.5 269.1,505.1 249.5,510.1 239.6,512.4"/>
    <polyline points="230.3,514.5 220.3,516.8 214.7,517.6 209.3,517.9 204.7,517.9 200.4,517.8 194.4,517.2"/>
    <polyline points="194.4,517.2 169.9,514.7"/>
    <polyline points="169.9,514.7 159.2,513.6 152.6,513.4 131.8,514.1 111.1,514.7 96.1,514.9 89.0,514.8 83.3,514.7 80.0,514.8 76.8,515.2 72.1,516.0 68.3,517.2 64.7,518.8 62.0,520.5 60.8,521.6 59.2,523.5 55.5,530.0 54.1,533.1 53.7,534.4 53.2,535.7 52.2,538.9 51.7,542.7 51.4,549.0 51.1,558.1 50.9,564.7 51.1,568.8 51.7,573.7 52.8,579.9 53.4,582.8 53.7,585.2 53.6,586.8 53.2,588.5 52.6,590.4 51.6,592.3 50.9,593.6 49.0,596.1 46.8,598.4 42.6,601.4 36.4,605.1 30.8,608.2 22.4,612.9 13.9,617.5"/>
    <polyline points="625.5,-170.5 622.9,-166.3 620.6,-162.7 618.8,-161.3 616.3,-159.6 612.0,-157.5 600.5,-153.2 590.8,-150.0 586.3,-148.1 582.4,-145.7 572.3,-138.3 571.3,-136.8 571.2,-135.6 574.3,-129.7 582.0,-117.5 594.6,-98.3 598.0,-93.8 598.3,-93.2 598.6,-92.6 598.6,-91.3 597.9,-88.3 597.6,-86.8 597.2,-85.7 595.5,-84.5 583.8,-79.2 578.1,-77.2 571.4,-74.9 559.8,-70.6 550.4,-62.5 544.0,-56.8 532.8,-45.8 530.3,-43.5 529.6,-41.3 529.9,-34.9 530.0,-33.6 530.7,-22.8 530.8,-21.9 531.2,-15.7 534.4,1.3 535.8,6.5 536.5,9.0 536.5,10.1 535.6,11.8 534.5,13.1 532.9,14.3 527.3,16.6 521.5,18.9 518.8,20.7 517.5,22.9 515.8,26.3 515.8,27.2 516.0,27.6 518.1,30.4 519.4,32.2 527.6,46.3 528.1,47.0 528.4,48.0 528.0,49.0 525.9,52.5 524.2,56.1 523.3,60.7 526.8,66.9 533.2,72.2 540.0,78.4 552.2,91.3 554.2,93.4 557.7,97.5 559.2,101.0 559.6,104.8 558.3,107.2 548.1,119.5 538.9,132.0 535.0,137.6 531.0,144.2 529.3,146.6 526.7,150.0 524.6,152.1 518.0,157.3 513.4,160.6 506.6,165.7 497.6,172.5 495.8,174.1 488.0,180.2 477.8,189.1 472.6,191.7 467.9,193.7 463.0,195.7 436.8,206.8 418.2,214.7 413.9,216.5 409.1,218.6 408.1,219.4 407.1,220.4 406.3,236.4 405.5,247.2 405.1,251.9 406.9,255.8 407.1,259.5 406.5,268.5 405.9,271.5 405.2,272.3 404.7,272.7 404.1,272.9 397.1,273.8 386.7,274.4 378.2,274.7 352.4,275.2 350.2,275.3 337.7,275.5 329.2,275.7 323.0,276.2 318.6,276.6 315.7,277.2 306.6,279.2 302.2,280.8 289.3,285.4 282.7,286.3 276.7,286.5 275.0,286.6 263.9,286.7 220.7,286.6 187.7,286.3 185.0,286.3 145.0,286.6 142.1,286.8 130.5,289.9 120.1,292.6 103.8,297.4 74.7,307.3 53.6,313.8 33.2,320.7 22.5,327.4 18.9,329.8"/>
    <polyline points="317.3,493.0 321.4,492.0"/>
    <polyline points="317.7,493.5 321.9,492.5"/>
    <polyline points="312.3,494.2 307.8,495.5 287.0,500.2"/>
    <polyline points="286.8,499.6 281.5,501.0 268.9,504.8 239.4,512.2"/>
    <polyline points="239.6,512.4 230.3,514.5"/>
    <polyline points="239.4,512.2 230.3,514.5"/>
    <polyline points="276.9,503.1 278.5,502.8 284.0,501.7 292.1,499.9 296.5,498.9 299.5,498.2 305.1,496.9 311.4,495.3 313.7,494.8 322.2,492.8 325.2,492.0 325.7,491.9 326.1,491.9 327.9,491.5 330.1,491.2 333.1,490.9 336.0,490.7 338.5,490.7 342.5,490.8 352.0,491.1"/>
    <polyline points="268.6,504.2 270.9,503.9 271.8,503.8 272.1,503.8 274.3,503.6 275.2,503.4 275.3,503.4"/>
    <polyline points="275.3,503.4 275.7,503.3 276.9,503.1"/>
    <polyline points="275.7,503.3 273.0,504.0 270.1,504.6 262.6,506.1"/>
    <polyline points="-104.9,-494.0 -102.2,-490.4 -96.4,-483.0 -93.7,-479.5 -89.7,-474.1 -84.3,-467.0 -81.2,-462.8 -79.1,-459.3 -77.5,-456.5 -75.9,-452.1 -73.7,-445.4 -72.8,-443.0 -64.2,-418.2 -62.7,-414.4 -59.2,-405.5 -45.5,-368.0 -41.2,-358.2 -34.7,-346.4 -29.9,-337.4 -29.7,-337.1 -27.5,-333.0 -24.9,-328.5 -24.2,-327.3 -18.7,-320.9 -14.7,-316.6 -14.1,-316.1 -10.5,-312.8 -7.8,-310.3 -3.3,-305.4 0.5,-299.3 1.0,-298.4 2.7,-295.8 3.8,-294.0 4.4,-292.9 9.3,-284.2 11.8,-279.8 14.3,-275.6 17.0,-270.9 19.4,-266.6 22.3,-262.8 25.2,-258.4 29.7,-254.0 36.1,-246.9 38.3,-243.8 42.6,-237.4 47.0,-229.6 47.1,-229.3 47.6,-227.9 48.2,-225.8 49.4,-222.7 50.8,-220.1 51.4,-219.0 58.2,-210.9 60.8,-207.8 64.4,-203.8 64.9,-203.4 68.4,-199.7 73.4,-195.8 82.3,-190.3 84.4,-188.8 101.2,-179.0 107.4,-175.6 112.2,-173.0 125.4,-165.7 130.3,-162.2 136.3,-158.0 159.7,-138.8 162.9,-136.1 167.8,-132.2 174.3,-126.3 179.2,-122.0 181.9,-120.0 184.9,-118.0 187.8,-116.1 191.8,-113.8 199.8,-109.0 201.4,-108.1 204.7,-106.0 208.9,-103.4 210.7,-102.3 225.4,-93.4 241.7,-83.5 248.9,-80.1 272.2,-68.0 282.7,-62.9 283.8,-62.3 287.7,-60.5 297.7,-56.7 316.8,-49.8 324.8,-47.6 334.0,-45.1 340.4,-44.4 346.7,-44.1 355.1,-43.9 359.5,-43.5 361.7,-42.9 363.3,-42.3 365.3,-41.0 367.3,-38.9 369.3,-35.9 370.9,-31.6 370.8,-29.1 370.2,-25.5 369.3,-19.2 368.6,-17.5 366.8,-16.1 364.3,-15.3 363.2,-15.1 354.9,-13.4 343.4,-11.8 334.7,-10.4 325.4,-7.9 323.4,-7.1 309.3,-1.4 305.5,1.4 301.0,6.1 297.0,10.9 294.6,13.2 291.9,15.1 287.6,18.1 285.6,19.8 284.4,20.8 281.2,24.7 277.6,31.4 275.0,36.7 274.9,38.9 275.1,45.0 275.4,49.8 275.9,53.7"/>
    <polyline points="271.3,456.3 279.0,448.4 279.8,446.6 280.9,442.8 281.8,440.3 282.8,439.2 287.0,436.5 291.8,434.7 300.7,432.8 308.7,431.4 320.3,429.7 330.5,428.1 342.7,426.3 345.7,425.8 353.3,424.6 381.4,419.2 386.7,418.2 391.2,417.3 399.3,415.6 402.3,414.8 403.8,414.2 405.4,413.4 411.6,409.4 422.3,401.2 424.8,399.8 428.3,398.4 432.0,397.6 434.8,397.2 436.1,397.1"/>
  </g>

  <!-- 지하철 역 -->
  <g>
    <circle cx="321.9" cy="86.9" r="3" fill="#dc2626" stroke="#fff" stroke-width="1"/>
    <circle cx="341.4" cy="144.9" r="3" fill="#dc2626" stroke="#fff" stroke-width="1"/>
    <circle cx="578.8" cy="205.4" r="3" fill="#dc2626" stroke="#fff" stroke-width="1"/>
    <circle cx="625.7" cy="272.7" r="3" fill="#dc2626" stroke="#fff" stroke-width="1"/>
    <circle cx="673.3" cy="298.7" r="3" fill="#dc2626" stroke="#fff" stroke-width="1"/>
    <circle cx="419.4" cy="185.3" r="3" fill="#dc2626" stroke="#fff" stroke-width="1"/>
    <circle cx="533.4" cy="72.2" r="3" fill="#dc2626" stroke="#fff" stroke-width="1"/>
    <circle cx="114.4" cy="121.8" r="3" fill="#dc2626" stroke="#fff" stroke-width="1"/>
    <circle cx="378.5" cy="123.3" r="3" fill="#dc2626" stroke="#fff" stroke-width="1"/>
    <circle cx="495.1" cy="116.3" r="3" fill="#dc2626" stroke="#fff" stroke-width="1"/>
    <circle cx="683.3" cy="107.5" r="3" fill="#dc2626" stroke="#fff" stroke-width="1"/>
    <circle cx="263.9" cy="122.2" r="3" fill="#dc2626" stroke="#fff" stroke-width="1"/>
    <circle cx="195.4" cy="308.7" r="3" fill="#dc2626" stroke="#fff" stroke-width="1"/>
    <circle cx="248.5" cy="333.0" r="3" fill="#dc2626" stroke="#fff" stroke-width="1"/>
    <circle cx="195.1" cy="247.7" r="3" fill="#dc2626" stroke="#fff" stroke-width="1"/>
    <circle cx="195.2" cy="226.8" r="3" fill="#dc2626" stroke="#fff" stroke-width="1"/>
    <circle cx="195.0" cy="198.8" r="3" fill="#dc2626" stroke="#fff" stroke-width="1"/>
    <circle cx="194.8" cy="161.3" r="3" fill="#dc2626" stroke="#fff" stroke-width="1"/>
    <circle cx="194.4" cy="88.7" r="3" fill="#dc2626" stroke="#fff" stroke-width="1"/>
    <circle cx="325.4" cy="377.4" r="3" fill="#dc2626" stroke="#fff" stroke-width="1"/>
    <circle cx="330.7" cy="335.2" r="3" fill="#dc2626" stroke="#fff" stroke-width="1"/>
    <circle cx="627.7" cy="303.5" r="3" fill="#dc2626" stroke="#fff" stroke-width="1"/>
    <circle cx="735.3" cy="193.9" r="3" fill="#dc2626" stroke="#fff" stroke-width="1"/>
    <circle cx="327.6" cy="360.2" r="3" fill="#dc2626" stroke="#fff" stroke-width="1"/>
    <circle cx="587.4" cy="291.2" r="3" fill="#dc2626" stroke="#fff" stroke-width="1"/>
    <circle cx="635.7" cy="372.1" r="3" fill="#dc2626" stroke="#fff" stroke-width="1"/>
    <circle cx="588.5" cy="407.1" r="3" fill="#dc2626" stroke="#fff" stroke-width="1"/>
    <circle cx="588.1" cy="462.6" r="3" fill="#dc2626" stroke="#fff" stroke-width="1"/>
    <circle cx="683.9" cy="477.1" r="3" fill="#dc2626" stroke="#fff" stroke-width="1"/>
    <circle cx="588.6" cy="434.4" r="3" fill="#dc2626" stroke="#fff" stroke-width="1"/>
    <circle cx="744.8" cy="60.7" r="3" fill="#dc2626" stroke="#fff" stroke-width="1"/>
    <circle cx="397.9" cy="458.5" r="3" fill="#dc2626" stroke="#fff" stroke-width="1"/>
    <circle cx="550.7" cy="120.7" r="3" fill="#dc2626" stroke="#fff" stroke-width="1"/>
    <circle cx="620.3" cy="240.3" r="3" fill="#dc2626" stroke="#fff" stroke-width="1"/>
    <circle cx="130.6" cy="290.0" r="3" fill="#dc2626" stroke="#fff" stroke-width="1"/>
    <circle cx="194.6" cy="198.9" r="3" fill="#dc2626" stroke="#fff" stroke-width="1"/>
    <circle cx="244.8" cy="55.1" r="3" fill="#dc2626" stroke="#fff" stroke-width="1"/>
    <circle cx="581.2" cy="275.8" r="3" fill="#dc2626" stroke="#fff" stroke-width="1"/>
    <circle cx="284.3" cy="52.7" r="3" fill="#dc2626" stroke="#fff" stroke-width="1"/>
    <circle cx="615.3" cy="124.5" r="3" fill="#dc2626" stroke="#fff" stroke-width="1"/>
    <circle cx="394.9" cy="336.3" r="3" fill="#dc2626" stroke="#fff" stroke-width="1"/>
    <circle cx="317.5" cy="493.2" r="3" fill="#dc2626" stroke="#fff" stroke-width="1"/>
    <circle cx="432.9" cy="124.0" r="3" fill="#dc2626" stroke="#fff" stroke-width="1"/>
    <circle cx="442.5" cy="142.3" r="3" fill="#dc2626" stroke="#fff" stroke-width="1"/>
    <circle cx="527.5" cy="161.4" r="3" fill="#dc2626" stroke="#fff" stroke-width="1"/>
    <circle cx="595.4" cy="202.4" r="3" fill="#dc2626" stroke="#fff" stroke-width="1"/>
    <circle cx="744.7" cy="101.7" r="3" fill="#dc2626" stroke="#fff" stroke-width="1"/>
    <circle cx="735.1" cy="395.4" r="3" fill="#dc2626" stroke="#fff" stroke-width="1"/>
    <circle cx="664.6" cy="393.9" r="3" fill="#dc2626" stroke="#fff" stroke-width="1"/>
    <circle cx="588.9" cy="392.7" r="3" fill="#dc2626" stroke="#fff" stroke-width="1"/>
    <circle cx="454.0" cy="395.7" r="3" fill="#dc2626" stroke="#fff" stroke-width="1"/>
    <circle cx="525.8" cy="392.5" r="3" fill="#dc2626" stroke="#fff" stroke-width="1"/>
    <circle cx="342.6" cy="426.2" r="3" fill="#dc2626" stroke="#fff" stroke-width="1"/>
    <circle cx="271.1" cy="456.3" r="3" fill="#dc2626" stroke="#fff" stroke-width="1"/>
    <circle cx="391.9" cy="417.0" r="3" fill="#dc2626" stroke="#fff" stroke-width="1"/>
    <circle cx="732.5" cy="246.0" r="3" fill="#dc2626" stroke="#fff" stroke-width="1"/>
    <circle cx="625.7" cy="180.7" r="3" fill="#dc2626" stroke="#fff" stroke-width="1"/>
    <circle cx="593.2" cy="159.7" r="3" fill="#dc2626" stroke="#fff" stroke-width="1"/>
    <circle cx="684.1" cy="219.2" r="3" fill="#dc2626" stroke="#fff" stroke-width="1"/>
    <circle cx="531.1" cy="299.1" r="3" fill="#dc2626" stroke="#fff" stroke-width="1"/>
    <circle cx="620.5" cy="239.8" r="3" fill="#dc2626" stroke="#fff" stroke-width="1"/>
    <circle cx="238.4" cy="512.8" r="3" fill="#dc2626" stroke="#fff" stroke-width="1"/>
    <circle cx="475.2" cy="191.7" r="3" fill="#dc2626" stroke="#fff" stroke-width="1"/>
    <circle cx="357.9" cy="177.8" r="3" fill="#dc2626" stroke="#fff" stroke-width="1"/>
    <circle cx="51.2" cy="549.0" r="3" fill="#dc2626" stroke="#fff" stroke-width="1"/>
    <circle cx="194.6" cy="286.6" r="3" fill="#dc2626" stroke="#fff" stroke-width="1"/>
    <circle cx="326.2" cy="122.3" r="3" fill="#dc2626" stroke="#fff" stroke-width="1"/>
    <circle cx="195.1" cy="122.0" r="3" fill="#dc2626" stroke="#fff" stroke-width="1"/>
    <circle cx="369.7" cy="217.2" r="3" fill="#dc2626" stroke="#fff" stroke-width="1"/>
    <circle cx="352.5" cy="275.3" r="3" fill="#dc2626" stroke="#fff" stroke-width="1"/>
    <circle cx="460.1" cy="442.6" r="3" fill="#dc2626" stroke="#fff" stroke-width="1"/>
    <circle cx="529.6" cy="493.2" r="3" fill="#dc2626" stroke="#fff" stroke-width="1"/>
    <circle cx="682.0" cy="323.0" r="3" fill="#dc2626" stroke="#fff" stroke-width="1"/>
    <circle cx="506.2" cy="281.4" r="3" fill="#dc2626" stroke="#fff" stroke-width="1"/>
    <circle cx="479.8" cy="260.7" r="3" fill="#dc2626" stroke="#fff" stroke-width="1"/>
    <circle cx="408.2" cy="256.9" r="3" fill="#dc2626" stroke="#fff" stroke-width="1"/>
    <circle cx="287.3" cy="259.8" r="3" fill="#dc2626" stroke="#fff" stroke-width="1"/>
    <circle cx="276.8" cy="286.7" r="3" fill="#dc2626" stroke="#fff" stroke-width="1"/>
    <circle cx="74.8" cy="307.4" r="3" fill="#dc2626" stroke="#fff" stroke-width="1"/>
    <circle cx="418.4" cy="214.9" r="3" fill="#dc2626" stroke="#fff" stroke-width="1"/>
    <circle cx="513.7" cy="160.7" r="3" fill="#dc2626" stroke="#fff" stroke-width="1"/>
    <circle cx="531.3" cy="144.3" r="3" fill="#dc2626" stroke="#fff" stroke-width="1"/>
    <circle cx="366.3" cy="252.6" r="3" fill="#dc2626" stroke="#fff" stroke-width="1"/>
    <circle cx="530.1" cy="312.7" r="3" fill="#dc2626" stroke="#fff" stroke-width="1"/>
    <circle cx="619.8" cy="327.8" r="3" fill="#dc2626" stroke="#fff" stroke-width="1"/>
    <circle cx="480.7" cy="313.1" r="3" fill="#dc2626" stroke="#fff" stroke-width="1"/>
    <circle cx="383.5" cy="333.1" r="3" fill="#dc2626" stroke="#fff" stroke-width="1"/>
    <circle cx="368.5" cy="280.0" r="3" fill="#dc2626" stroke="#fff" stroke-width="1"/>
    <circle cx="375.9" cy="152.6" r="3" fill="#dc2626" stroke="#fff" stroke-width="1"/>
    <circle cx="592.4" cy="523.7" r="3" fill="#dc2626" stroke="#fff" stroke-width="1"/>
    <circle cx="370.1" cy="186.3" r="3" fill="#dc2626" stroke="#fff" stroke-width="1"/>
    <circle cx="649.6" cy="201.9" r="3" fill="#dc2626" stroke="#fff" stroke-width="1"/>
  </g>
</svg>