<?xml version="1.0" encoding="UTF-8"?>
<svg width="800" height="600" viewBox="0 0 800 600" 
     xmlns="http://www.w3.org/2000/svg">
  <title>Tokyo Subway Map</title>
  <rect width="100%" height="100%" fill="#f8f9fa"/>

  <!-- 지하철 선로 -->
  <g id="subway-lines" stroke="#2563eb" stroke-width="3" fill="none">
    <polyline points="96.5,516.8 100.4,516.3 101.1,516.2 101.9,516.0 102.9,515.8 103.6,515.6 104.1,515.5 104.8,515.4 105.5,515.3 106.1,515.2 106.6,515.1 107.2,514.9" opacity="0.8"/>
    <polyline points="350.2,267.7 347.0,265.3 345.3,264.5 344.1,264.1 343.1,263.8 342.0,263.5 341.0,263.4 336.3,262.8 335.5,262.7 334.7,262.5 333.8,262.3 333.1,262.1 332.3,261.8 328.1,260.2 327.2,259.9 326.5,259.6 325.8,259.4 325.1,259.3 324.2,259.2 323.3,259.2 322.4,259.1 321.6,259.2 317.8,259.5 316.1,259.7 311.9,260.3 310.8,260.4 309.6,260.5 308.5,260.4 307.5,260.3 306.3,260.1 286.8,256.6 274.2,254.2 272.9,254.0 271.9,253.7 270.8,253.4 268.1,252.6 267.0,252.2 266.1,252.0 265.1,251.8 264.2,251.6 263.1,251.5 262.0,251.5 250.8,251.9 249.7,251.9 248.6,251.9 247.4,251.7 246.4,251.6 245.4,251.4 244.5,251.2 243.5,250.9 242.5,250.6 239.0,249.2 237.9,248.8 236.7,248.4 235.6,248.1 234.4,247.9 233.1,247.7 219.3,246.2 214.7,245.7 211.1,245.4 209.5,245.1 208.3,244.9 207.3,244.7 206.1,244.3 205.0,243.9 203.8,243.2 203.0,242.7 202.1,242.0 197.9,238.1 196.8,236.9 195.6,235.6 194.6,234.3 191.1,228.9 190.3,227.9 189.6,227.1 188.9,226.5 188.2,226.0 187.4,225.5 186.3,224.9 185.3,224.5 184.2,224.1 183.2,223.9 174.7,222.5 173.5,222.3 172.5,222.0 171.5,221.7 170.5,221.3 169.7,220.9 161.3,216.2 160.1,215.5 158.6,214.9 157.2,214.3 156.0,213.9 154.6,213.5 153.2,213.2 145.7,211.8 143.0,211.3 141.1,210.9 139.9,210.6 138.8,210.3 137.9,210.0 136.9,209.5 127.6,204.2 124.1,202.2 121.5,201.0 120.1,200.5 119.1,200.2 117.8,199.9 116.8,199.8 115.6,199.9 114.4,200.0 113.8,200.1 113.1,200.2 112.4,200.3 111.3,200.4 110.2,200.7 109.2,201.0 108.7,201.2 107.9,201.4 106.7,201.8 106.0,202.1 105.5,202.3 104.5,202.8 99.0,206.1 97.7,206.8 96.2,207.3 94.9,207.9 93.5,208.4 91.9,208.9 90.5,209.3 89.9,209.5 87.8,210.2 83.8,211.1 82.2,211.4 80.6,211.8 78.1,212.2 75.7,212.6 56.5,214.8 54.2,215.0 52.1,215.0 50.2,214.9 42.9,214.2 41.4,214.2 39.8,214.2 36.1,214.4 34.1,214.5 32.5,214.7 30.9,214.9 29.7,215.1 28.4,215.3 27.0,215.6 18.0,217.9" opacity="0.8"/>
    <polyline points="94.2,343.3 97.9,342.7 101.8,342.2 104.7,341.8 107.7,340.9 112.6,339.2" opacity="0.8"/>
    <polyline points="370.2,566.1 371.9,555.6 372.2,553.6 372.8,550.2 373.4,546.1" opacity="0.8"/>
    <polyline points="641.0,216.6 638.0,221.5" opacity="0.8"/>
    <polyline points="107.8,511.4 110.3,511.1 111.5,510.9 115.1,510.3 117.9,509.8 122.1,509.1 125.7,508.3 127.4,507.8 130.2,506.7 134.7,503.7 143.1,498.0 152.7,491.9 154.8,490.3 156.9,488.4 161.7,482.9" opacity="0.8"/>
    <polyline points="627.6,102.2 629.0,102.4 630.4,102.5 631.1,102.5 632.1,102.4 633.4,102.2 634.5,101.9 635.2,101.7 635.8,101.4 636.4,101.1 639.2,99.3 641.1,98.2 642.3,97.4 642.9,97.0 643.3,96.5 643.7,96.1 646.2,93.1 648.9,89.5 650.3,87.7 651.9,85.4 652.5,84.4 653.0,83.4 653.7,81.7 656.5,75.4 657.6,72.8 658.1,71.5 658.7,69.5 659.2,67.8 659.8,65.7 660.4,63.6 660.7,62.7 660.9,61.6 661.6,58.5 662.6,53.4" opacity="0.8"/>
    <polyline points="616.5,101.8 617.4,101.6 618.0,101.5 618.6,101.4 619.3,101.4 620.0,101.4 620.8,101.4 626.0,102.1 627.6,102.2" opacity="0.8"/>
    <polyline points="714.5,494.1 741.0,491.4 744.1,491.1 745.7,490.9 748.1,490.6 750.5,490.5 752.3,490.3 758.2,489.7 759.2,489.6 760.1,489.5 762.7,489.2 764.0,489.1" opacity="0.8"/>
    <polyline points="679.3,62.4 671.1,65.4 670.5,65.6 669.9,65.6 668.4,65.6 667.0,65.6 665.9,65.7 664.9,65.9 664.6,66.1 663.1,66.8 662.3,67.2 661.7,67.6 661.1,68.1 660.4,68.7 659.9,69.6 659.4,70.7 658.6,73.0" opacity="0.8"/>
    <polyline points="653.8,82.7 654.7,80.7 655.2,79.5 658.5,72.1 658.8,71.3" opacity="0.8"/>
    <polyline points="312.7,196.6 312.9,197.1 313.1,197.5 314.4,199.7 315.1,200.8 316.8,203.7" opacity="0.8"/>
    <polyline points="713.4,223.6 718.4,221.0 719.0,220.6 720.8,219.7 723.3,218.3" opacity="0.8"/>
    <polyline points="676.4,58.4 673.2,59.5 672.5,59.8 672.2,59.9 671.8,60.1 670.6,60.9 669.4,61.7 668.7,62.4 667.9,63.2 667.1,63.9 663.9,65.7 662.3,66.6 661.5,67.0 661.1,67.3 660.6,67.7 660.2,68.3 659.6,69.1 659.3,69.6 659.0,70.1 658.7,70.8" opacity="0.8"/>
    <polyline points="668.3,66.1 669.9,65.8" opacity="0.8"/>
    <polyline points="679.4,59.8 670.0,63.2 668.9,63.8" opacity="0.8"/>
    <polyline points="667.1,63.9 665.4,65.2 664.8,65.7" opacity="0.8"/>
    <polyline points="679.4,60.0 668.9,63.8 667.7,64.4" opacity="0.8"/>
    <polyline points="679.4,60.5 670.8,63.6 668.9,64.2" opacity="0.8"/>
    <polyline points="665.0,66.2 665.4,66.2 668.0,66.1 668.3,66.1 668.8,66.1 668.9,66.1 669.5,66.1" opacity="0.8"/>
    <polyline points="674.3,60.1 671.8,61.1 670.7,61.4 670.0,61.8 669.0,62.5" opacity="0.8"/>
    <polyline points="679.4,60.2 669.6,63.8 667.7,64.4 666.2,65.3" opacity="0.8"/>
    <polyline points="661.1,67.8 660.6,68.1 660.2,68.5 659.6,69.1" opacity="0.8"/>
    <polyline points="679.4,61.9 670.8,65.0 670.0,65.2 669.2,65.4 668.3,65.5" opacity="0.8"/>
    <polyline points="666.8,66.0 668.0,65.9 668.3,65.9 669.3,65.9 669.9,65.8 670.1,65.8" opacity="0.8"/>
    <polyline points="679.4,59.4 669.2,63.0 668.5,63.4 668.0,63.6 667.1,64.1" opacity="0.8"/>
    <polyline points="679.0,58.8 670.3,62.0 670.0,62.1 669.4,62.3 669.0,62.5 667.9,63.2" opacity="0.8"/>
    <polyline points="679.4,61.2 673.7,63.3 670.8,64.3 670.0,64.5 669.1,64.7 668.1,65.0" opacity="0.8"/>
    <polyline points="679.4,60.7 670.8,63.8 669.7,64.0 668.9,64.2 667.8,64.6" opacity="0.8"/>
    <polyline points="678.2,58.6 675.8,59.4 674.3,59.9 671.7,60.8 671.1,61.0 670.7,61.2 670.3,61.4 669.0,62.5 667.9,63.2" opacity="0.8"/>
    <polyline points="668.4,65.6 669.2,65.8 670.1,65.8 670.7,65.7 671.6,65.5 678.2,63.2" opacity="0.8"/>
    <polyline points="679.4,61.1 670.8,64.1 670.2,64.3 669.1,64.5 668.1,64.8 666.9,65.2" opacity="0.8"/>
    <polyline points="673.7,59.0 672.4,59.5 671.9,59.8 669.8,61.1 668.2,61.9 668.0,62.1 665.9,63.3 665.7,63.4" opacity="0.8"/>
    <polyline points="679.3,62.2 674.3,64.0 670.7,65.3 670.1,65.4 669.2,65.5 668.3,65.5 667.0,65.6" opacity="0.8"/>
    <polyline points="679.4,59.0 670.4,62.2 669.5,62.5 669.0,62.8 668.6,63.0 667.7,63.7 667.1,64.1 665.7,65.2" opacity="0.8"/>
    <polyline points="679.4,61.5 670.8,64.6 670.5,64.7 670.1,64.8 668.1,65.0 666.9,65.2 664.9,65.9" opacity="0.8"/>
    <polyline points="679.4,60.9 670.8,64.0 670.1,64.1 669.0,64.4 667.8,64.6 666.2,65.3 664.9,65.9" opacity="0.8"/>
    <polyline points="677.0,58.5 675.6,59.0 674.1,59.6 671.8,60.4 671.3,60.6 670.6,60.9 669.7,61.3 669.2,61.6 668.2,61.9" opacity="0.8"/>
    <polyline points="679.4,61.7 674.1,63.6 670.8,64.8 670.2,64.9 669.7,65.0 669.1,65.1 668.6,65.1 668.2,65.2 665.9,65.7" opacity="0.8"/>
    <polyline points="384.1,236.6 397.8,236.6" opacity="0.8"/>
    <polyline points="402.8,236.8 397.9,236.8" opacity="0.8"/>
    <polyline points="167.0,107.5 168.9,108.1 170.2,108.5 171.1,108.7 172.0,108.9 172.8,109.0 173.5,109.0 174.1,109.0 175.0,108.9" opacity="0.8"/>
    <polyline points="367.0,237.4 366.1,237.2 365.1,237.0 363.9,236.6 363.2,236.3 360.6,235.0 357.8,233.0 352.4,229.0 348.8,226.7 344.4,224.1" opacity="0.8"/>
    <polyline points="378.0,236.8 381.3,236.7 384.1,236.6" opacity="0.8"/>
    <polyline points="472.1,300.7 472.9,297.0 472.8,293.6 472.2,292.0 471.5,290.3 470.9,288.6 470.0,287.1 469.1,285.5 466.4,282.6" opacity="0.8"/>
    <polyline points="384.1,236.8 381.3,236.8 378.0,237.0" opacity="0.8"/>
    <polyline points="466.8,282.6 469.3,285.4 470.3,287.0 471.1,288.5 471.8,290.3 472.5,291.9 473.1,293.6 473.2,297.1 472.4,300.8" opacity="0.8"/>
    <polyline points="462.2,278.9 464.1,280.0" opacity="0.8"/>
    <polyline points="465.1,280.8 465.7,281.4 466.6,282.3" opacity="0.8"/>
    <polyline points="466.1,282.2 465.4,281.5 464.9,281.0 464.5,280.6" opacity="0.8"/>
  </g>

  <!-- 지하철 역 -->
  <g id="subway-stations">
    <circle cx="625.6" cy="438.2" r="4" fill="#dc2626" stroke="#fff" stroke-width="2"/>
    <text x="625.6" y="430.2" text-anchor="middle" font-size="10" fill="#374151">門前仲町</text>
    <circle cx="91.6" cy="344.4" r="4" fill="#dc2626" stroke="#fff" stroke-width="2"/>
    <text x="91.6" y="336.4" text-anchor="middle" font-size="10" fill="#374151">新線新宿</text>
    <circle cx="198.7" cy="283.0" r="4" fill="#dc2626" stroke="#fff" stroke-width="2"/>
    <text x="198.7" y="275.0" text-anchor="middle" font-size="10" fill="#374151">若松河田</text>
    <circle cx="430.1" cy="240.8" r="4" fill="#dc2626" stroke="#fff" stroke-width="2"/>
    <text x="430.1" y="232.8" text-anchor="middle" font-size="10" fill="#374151">本郷三丁目</text>
    <circle cx="420.1" cy="179.3" r="4" fill="#dc2626" stroke="#fff" stroke-width="2"/>
    <text x="420.1" y="171.3" text-anchor="middle" font-size="10" fill="#374151">東大前</text>
    <circle cx="744.8" cy="176.3" r="4" fill="#dc2626" stroke="#fff" stroke-width="2"/>
    <circle cx="689.5" cy="454.7" r="4" fill="#dc2626" stroke="#fff" stroke-width="2"/>
    <text x="689.5" y="446.7" text-anchor="middle" font-size="10" fill="#374151">木場</text>
    <circle cx="466.3" cy="367.4" r="4" fill="#dc2626" stroke="#fff" stroke-width="2"/>
    <text x="466.3" y="359.4" text-anchor="middle" font-size="10" fill="#374151">大手町</text>
    <circle cx="470.5" cy="91.7" r="4" fill="#dc2626" stroke="#fff" stroke-width="2"/>
    <text x="470.5" y="83.7" text-anchor="middle" font-size="10" fill="#374151">西日暮里</text>
    <circle cx="458.3" cy="355.4" r="4" fill="#dc2626" stroke="#fff" stroke-width="2"/>
    <text x="458.3" y="347.4" text-anchor="middle" font-size="10" fill="#374151">大手町</text>
    <circle cx="450.4" cy="355.0" r="4" fill="#dc2626" stroke="#fff" stroke-width="2"/>
    <text x="450.4" y="347.0" text-anchor="middle" font-size="10" fill="#374151">大手町</text>
    <circle cx="99.5" cy="323.6" r="4" fill="#dc2626" stroke="#fff" stroke-width="2"/>
    <text x="99.5" y="315.6" text-anchor="middle" font-size="10" fill="#374151">新宿</text>
    <circle cx="553.8" cy="357.8" r="4" fill="#dc2626" stroke="#fff" stroke-width="2"/>
    <text x="553.8" y="349.8" text-anchor="middle" font-size="10" fill="#374151">人形町</text>
    <circle cx="469.0" cy="453.2" r="4" fill="#dc2626" stroke="#fff" stroke-width="2"/>
    <text x="469.0" y="445.2" text-anchor="middle" font-size="10" fill="#374151">東銀座</text>
    <circle cx="500.4" cy="462.3" r="4" fill="#dc2626" stroke="#fff" stroke-width="2"/>
    <text x="500.4" y="454.3" text-anchor="middle" font-size="10" fill="#374151">築地</text>
    <circle cx="204.1" cy="131.7" r="4" fill="#dc2626" stroke="#fff" stroke-width="2"/>
    <text x="204.1" y="123.7" text-anchor="middle" font-size="10" fill="#374151">東池袋</text>
    <circle cx="327.7" cy="405.7" r="4" fill="#dc2626" stroke="#fff" stroke-width="2"/>
    <text x="327.7" y="397.7" text-anchor="middle" font-size="10" fill="#374151">永田町</text>
    <circle cx="150.1" cy="108.6" r="4" fill="#dc2626" stroke="#fff" stroke-width="2"/>
    <text x="150.1" y="100.6" text-anchor="middle" font-size="10" fill="#374151">池袋</text>
    <circle cx="88.9" cy="87.9" r="4" fill="#dc2626" stroke="#fff" stroke-width="2"/>
    <text x="88.9" y="79.9" text-anchor="middle" font-size="10" fill="#374151">要町</text>
    <circle cx="505.0" cy="447.7" r="4" fill="#dc2626" stroke="#fff" stroke-width="2"/>
    <text x="505.0" y="439.7" text-anchor="middle" font-size="10" fill="#374151">新富町</text>
    <circle cx="566.6" cy="484.8" r="4" fill="#dc2626" stroke="#fff" stroke-width="2"/>
    <text x="566.6" y="476.8" text-anchor="middle" font-size="10" fill="#374151">月島</text>
    <circle cx="162.4" cy="105.9" r="4" fill="#dc2626" stroke="#fff" stroke-width="2"/>
    <text x="162.4" y="97.9" text-anchor="middle" font-size="10" fill="#374151">池袋</text>
    <circle cx="301.9" cy="180.1" r="4" fill="#dc2626" stroke="#fff" stroke-width="2"/>
    <text x="301.9" y="172.1" text-anchor="middle" font-size="10" fill="#374151">茗荷谷</text>
    <circle cx="503.1" cy="365.4" r="4" fill="#dc2626" stroke="#fff" stroke-width="2"/>
    <text x="503.1" y="357.4" text-anchor="middle" font-size="10" fill="#374151">三越前</text>
    <circle cx="400.8" cy="526.5" r="4" fill="#dc2626" stroke="#fff" stroke-width="2"/>
    <text x="400.8" y="518.5" text-anchor="middle" font-size="10" fill="#374151">大門</text>
    <circle cx="139.0" cy="285.1" r="4" fill="#dc2626" stroke="#fff" stroke-width="2"/>
    <text x="139.0" y="277.1" text-anchor="middle" font-size="10" fill="#374151">東新宿</text>
    <circle cx="178.5" cy="162.6" r="4" fill="#dc2626" stroke="#fff" stroke-width="2"/>
    <text x="178.5" y="154.6" text-anchor="middle" font-size="10" fill="#374151">雑司が谷</text>
    <circle cx="91.0" cy="345.8" r="4" fill="#dc2626" stroke="#fff" stroke-width="2"/>
    <text x="91.0" y="337.8" text-anchor="middle" font-size="10" fill="#374151">新宿</text>
    <circle cx="91.6" cy="318.4" r="4" fill="#dc2626" stroke="#fff" stroke-width="2"/>
    <text x="91.6" y="310.4" text-anchor="middle" font-size="10" fill="#374151">新宿西口</text>
    <circle cx="238.6" cy="282.1" r="4" fill="#dc2626" stroke="#fff" stroke-width="2"/>
    <text x="238.6" y="274.1" text-anchor="middle" font-size="10" fill="#374151">牛込柳町</text>
    <circle cx="296.4" cy="273.7" r="4" fill="#dc2626" stroke="#fff" stroke-width="2"/>
    <text x="296.4" y="265.7" text-anchor="middle" font-size="10" fill="#374151">牛込神楽坂</text>
    <circle cx="433.4" cy="235.7" r="4" fill="#dc2626" stroke="#fff" stroke-width="2"/>
    <text x="433.4" y="227.7" text-anchor="middle" font-size="10" fill="#374151">本郷三丁目</text>
    <circle cx="538.5" cy="392.6" r="4" fill="#dc2626" stroke="#fff" stroke-width="2"/>
    <text x="538.5" y="384.6" text-anchor="middle" font-size="10" fill="#374151">茅場町</text>
    <circle cx="262.8" cy="365.2" r="4" fill="#dc2626" stroke="#fff" stroke-width="2"/>
    <text x="262.8" y="357.2" text-anchor="middle" font-size="10" fill="#374151">四ツ谷</text>
    <circle cx="727.1" cy="219.8" r="4" fill="#dc2626" stroke="#fff" stroke-width="2"/>
    <text x="727.1" y="211.8" text-anchor="middle" font-size="10" fill="#374151">押上〈スカイツリー前〉</text>
    <circle cx="120.5" cy="457.3" r="4" fill="#dc2626" stroke="#fff" stroke-width="2"/>
    <text x="120.5" y="449.3" text-anchor="middle" font-size="10" fill="#374151">明治神宮前〈原宿〉</text>
    <circle cx="381.4" cy="236.8" r="4" fill="#dc2626" stroke="#fff" stroke-width="2"/>
    <text x="381.4" y="228.8" text-anchor="middle" font-size="10" fill="#374151">後楽園</text>
    <circle cx="381.8" cy="302.4" r="4" fill="#dc2626" stroke="#fff" stroke-width="2"/>
    <text x="381.8" y="294.4" text-anchor="middle" font-size="10" fill="#374151">九段下</text>
    <circle cx="260.5" cy="361.7" r="4" fill="#dc2626" stroke="#fff" stroke-width="2"/>
    <text x="260.5" y="353.7" text-anchor="middle" font-size="10" fill="#374151">四ツ谷</text>
    <circle cx="300.3" cy="318.0" r="4" fill="#dc2626" stroke="#fff" stroke-width="2"/>
    <text x="300.3" y="310.0" text-anchor="middle" font-size="10" fill="#374151">市ケ谷</text>
    <circle cx="339.2" cy="270.1" r="4" fill="#dc2626" stroke="#fff" stroke-width="2"/>
    <text x="339.2" y="262.1" text-anchor="middle" font-size="10" fill="#374151">飯田橋</text>
    <circle cx="384.6" cy="231.4" r="4" fill="#dc2626" stroke="#fff" stroke-width="2"/>
    <text x="384.6" y="223.4" text-anchor="middle" font-size="10" fill="#374151">後楽園</text>
    <circle cx="395.2" cy="136.6" r="4" fill="#dc2626" stroke="#fff" stroke-width="2"/>
    <text x="395.2" y="128.6" text-anchor="middle" font-size="10" fill="#374151">本駒込</text>
    <circle cx="356.6" cy="72.1" r="4" fill="#dc2626" stroke="#fff" stroke-width="2"/>
    <text x="356.6" y="64.1" text-anchor="middle" font-size="10" fill="#374151">駒込</text>
    <circle cx="122.7" cy="332.2" r="4" fill="#dc2626" stroke="#fff" stroke-width="2"/>
    <text x="122.7" y="324.2" text-anchor="middle" font-size="10" fill="#374151">新宿三丁目</text>
    <circle cx="124.1" cy="202.0" r="4" fill="#dc2626" stroke="#fff" stroke-width="2"/>
    <text x="124.1" y="194.0" text-anchor="middle" font-size="10" fill="#374151">高田馬場</text>
    <circle cx="214.2" cy="245.6" r="4" fill="#dc2626" stroke="#fff" stroke-width="2"/>
    <text x="214.2" y="237.6" text-anchor="middle" font-size="10" fill="#374151">早稲田</text>
    <circle cx="286.3" cy="256.3" r="4" fill="#dc2626" stroke="#fff" stroke-width="2"/>
    <text x="286.3" y="248.3" text-anchor="middle" font-size="10" fill="#374151">神楽坂</text>
    <circle cx="352.3" cy="269.1" r="4" fill="#dc2626" stroke="#fff" stroke-width="2"/>
    <text x="352.3" y="261.1" text-anchor="middle" font-size="10" fill="#374151">飯田橋</text>
    <circle cx="423.3" cy="335.8" r="4" fill="#dc2626" stroke="#fff" stroke-width="2"/>
    <text x="423.3" y="327.8" text-anchor="middle" font-size="10" fill="#374151">竹橋</text>
    <circle cx="511.0" cy="381.2" r="4" fill="#dc2626" stroke="#fff" stroke-width="2"/>
    <text x="511.0" y="373.2" text-anchor="middle" font-size="10" fill="#374151">日本橋</text>
    <circle cx="445.1" cy="370.8" r="4" fill="#dc2626" stroke="#fff" stroke-width="2"/>
    <text x="445.1" y="362.8" text-anchor="middle" font-size="10" fill="#374151">大手町</text>
    <circle cx="403.3" cy="258.7" r="4" fill="#dc2626" stroke="#fff" stroke-width="2"/>
    <text x="403.3" y="250.7" text-anchor="middle" font-size="10" fill="#374151">水道橋</text>
    <circle cx="392.3" cy="222.1" r="4" fill="#dc2626" stroke="#fff" stroke-width="2"/>
    <text x="392.3" y="214.1" text-anchor="middle" font-size="10" fill="#374151">春日</text>
    <circle cx="386.6" cy="155.3" r="4" fill="#dc2626" stroke="#fff" stroke-width="2"/>
    <text x="386.6" y="147.3" text-anchor="middle" font-size="10" fill="#374151">白山</text>
    <circle cx="346.7" cy="119.7" r="4" fill="#dc2626" stroke="#fff" stroke-width="2"/>
    <text x="346.7" y="111.7" text-anchor="middle" font-size="10" fill="#374151">千石</text>
    <circle cx="309.0" cy="84.8" r="4" fill="#dc2626" stroke="#fff" stroke-width="2"/>
    <text x="309.0" y="76.8" text-anchor="middle" font-size="10" fill="#374151">巣鴨</text>
    <circle cx="146.0" cy="100.0" r="4" fill="#dc2626" stroke="#fff" stroke-width="2"/>
    <text x="146.0" y="92.0" text-anchor="middle" font-size="10" fill="#374151">池袋</text>
    <circle cx="105.1" cy="373.4" r="4" fill="#dc2626" stroke="#fff" stroke-width="2"/>
    <text x="105.1" y="365.4" text-anchor="middle" font-size="10" fill="#374151">代々木</text>
    <circle cx="520.5" cy="241.6" r="4" fill="#dc2626" stroke="#fff" stroke-width="2"/>
    <text x="520.5" y="233.6" text-anchor="middle" font-size="10" fill="#374151">仲御徒町</text>
    <circle cx="740.4" cy="342.2" r="4" fill="#dc2626" stroke="#fff" stroke-width="2"/>
    <text x="740.4" y="334.2" text-anchor="middle" font-size="10" fill="#374151">住吉</text>
    <circle cx="636.6" cy="347.9" r="4" fill="#dc2626" stroke="#fff" stroke-width="2"/>
    <text x="636.6" y="339.9" text-anchor="middle" font-size="10" fill="#374151">森下</text>
    <circle cx="646.2" cy="382.1" r="4" fill="#dc2626" stroke="#fff" stroke-width="2"/>
    <text x="646.2" y="374.1" text-anchor="middle" font-size="10" fill="#374151">清澄白河</text>
    <circle cx="305.1" cy="415.0" r="4" fill="#dc2626" stroke="#fff" stroke-width="2"/>
    <text x="305.1" y="407.0" text-anchor="middle" font-size="10" fill="#374151">赤坂見附</text>
    <circle cx="465.4" cy="308.0" r="4" fill="#dc2626" stroke="#fff" stroke-width="2"/>
    <text x="465.4" y="300.0" text-anchor="middle" font-size="10" fill="#374151">小川町</text>
    <circle cx="420.7" cy="307.6" r="4" fill="#dc2626" stroke="#fff" stroke-width="2"/>
    <text x="420.7" y="299.6" text-anchor="middle" font-size="10" fill="#374151">神保町</text>
    <circle cx="414.7" cy="302.3" r="4" fill="#dc2626" stroke="#fff" stroke-width="2"/>
    <text x="414.7" y="294.3" text-anchor="middle" font-size="10" fill="#374151">神保町</text>
    <circle cx="376.7" cy="305.5" r="4" fill="#dc2626" stroke="#fff" stroke-width="2"/>
    <text x="376.7" y="297.5" text-anchor="middle" font-size="10" fill="#374151">九段下</text>
    <circle cx="377.4" cy="306.3" r="4" fill="#dc2626" stroke="#fff" stroke-width="2"/>
    <text x="377.4" y="298.3" text-anchor="middle" font-size="10" fill="#374151">九段下</text>
    <circle cx="486.0" cy="236.8" r="4" fill="#dc2626" stroke="#fff" stroke-width="2"/>
    <text x="486.0" y="228.8" text-anchor="middle" font-size="10" fill="#374151">湯島</text>
    <circle cx="421.1" cy="429.9" r="4" fill="#dc2626" stroke="#fff" stroke-width="2"/>
    <text x="421.1" y="421.9" text-anchor="middle" font-size="10" fill="#374151">日比谷</text>
    <circle cx="383.4" cy="408.8" r="4" fill="#dc2626" stroke="#fff" stroke-width="2"/>
    <text x="383.4" y="400.8" text-anchor="middle" font-size="10" fill="#374151">桜田門</text>
    <circle cx="431.4" cy="415.5" r="4" fill="#dc2626" stroke="#fff" stroke-width="2"/>
    <text x="431.4" y="407.5" text-anchor="middle" font-size="10" fill="#374151">日比谷</text>
    <circle cx="442.2" cy="417.0" r="4" fill="#dc2626" stroke="#fff" stroke-width="2"/>
    <text x="442.2" y="409.0" text-anchor="middle" font-size="10" fill="#374151">有楽町</text>
    <circle cx="457.9" cy="382.3" r="4" fill="#dc2626" stroke="#fff" stroke-width="2"/>
    <text x="457.9" y="374.3" text-anchor="middle" font-size="10" fill="#374151">東京</text>
    <circle cx="383.6" cy="437.0" r="4" fill="#dc2626" stroke="#fff" stroke-width="2"/>
    <text x="383.6" y="429.0" text-anchor="middle" font-size="10" fill="#374151">霞ケ関</text>
    <circle cx="380.5" cy="429.2" r="4" fill="#dc2626" stroke="#fff" stroke-width="2"/>
    <text x="380.5" y="421.2" text-anchor="middle" font-size="10" fill="#374151">霞ケ関</text>
    <circle cx="389.7" cy="427.1" r="4" fill="#dc2626" stroke="#fff" stroke-width="2"/>
    <text x="389.7" y="419.1" text-anchor="middle" font-size="10" fill="#374151">霞ケ関</text>
    <circle cx="461.6" cy="294.9" r="4" fill="#dc2626" stroke="#fff" stroke-width="2"/>
    <text x="461.6" y="286.9" text-anchor="middle" font-size="10" fill="#374151">新御茶ノ水</text>
    <circle cx="504.4" cy="233.1" r="4" fill="#dc2626" stroke="#fff" stroke-width="2"/>
    <text x="504.4" y="225.1" text-anchor="middle" font-size="10" fill="#374151">上野御徒町</text>
    <circle cx="338.0" cy="430.1" r="4" fill="#dc2626" stroke="#fff" stroke-width="2"/>
    <text x="338.0" y="422.1" text-anchor="middle" font-size="10" fill="#374151">国会議事堂前</text>
    <circle cx="326.9" cy="434.2" r="4" fill="#dc2626" stroke="#fff" stroke-width="2"/>
    <text x="326.9" y="426.2" text-anchor="middle" font-size="10" fill="#374151">溜池山王</text>
    <circle cx="329.8" cy="442.5" r="4" fill="#dc2626" stroke="#fff" stroke-width="2"/>
    <text x="329.8" y="434.5" text-anchor="middle" font-size="10" fill="#374151">溜池山王</text>
    <circle cx="56.2" cy="332.9" r="4" fill="#dc2626" stroke="#fff" stroke-width="2"/>
    <text x="56.2" y="324.9" text-anchor="middle" font-size="10" fill="#374151">都庁前</text>
    <circle cx="173.8" cy="393.3" r="4" fill="#dc2626" stroke="#fff" stroke-width="2"/>
    <text x="173.8" y="385.3" text-anchor="middle" font-size="10" fill="#374151">国立競技場</text>
    <circle cx="439.3" cy="392.0" r="4" fill="#dc2626" stroke="#fff" stroke-width="2"/>
    <text x="439.3" y="384.0" text-anchor="middle" font-size="10" fill="#374151">二重橋前〈丸の内〉</text>
    <circle cx="327.7" cy="363.9" r="4" fill="#dc2626" stroke="#fff" stroke-width="2"/>
    <text x="327.7" y="355.9" text-anchor="middle" font-size="10" fill="#374151">半蔵門</text>
    <circle cx="551.9" cy="238.4" r="4" fill="#dc2626" stroke="#fff" stroke-width="2"/>
    <text x="551.9" y="230.4" text-anchor="middle" font-size="10" fill="#374151">新御徒町</text>
    <circle cx="298.8" cy="438.6" r="4" fill="#dc2626" stroke="#fff" stroke-width="2"/>
    <text x="298.8" y="430.6" text-anchor="middle" font-size="10" fill="#374151">赤坂</text>
    <circle cx="166.0" cy="479.1" r="4" fill="#dc2626" stroke="#fff" stroke-width="2"/>
    <text x="166.0" y="471.1" text-anchor="middle" font-size="10" fill="#374151">表参道</text>
    <circle cx="109.8" cy="514.6" r="4" fill="#dc2626" stroke="#fff" stroke-width="2"/>
    <text x="109.8" y="506.6" text-anchor="middle" font-size="10" fill="#374151">渋谷</text>
    <circle cx="112.0" cy="517.7" r="4" fill="#dc2626" stroke="#fff" stroke-width="2"/>
    <text x="112.0" y="509.7" text-anchor="middle" font-size="10" fill="#374151">渋谷</text>
    <circle cx="107.2" cy="511.7" r="4" fill="#dc2626" stroke="#fff" stroke-width="2"/>
    <text x="107.2" y="503.7" text-anchor="middle" font-size="10" fill="#374151">渋谷</text>
    <circle cx="312.5" cy="480.2" r="4" fill="#dc2626" stroke="#fff" stroke-width="2"/>
    <text x="312.5" y="472.2" text-anchor="middle" font-size="10" fill="#374151">六本木一丁目</text>
    <circle cx="423.9" cy="467.5" r="4" fill="#dc2626" stroke="#fff" stroke-width="2"/>
    <text x="423.9" y="459.5" text-anchor="middle" font-size="10" fill="#374151">新橋</text>
    <circle cx="426.9" cy="477.8" r="4" fill="#dc2626" stroke="#fff" stroke-width="2"/>
    <text x="426.9" y="469.8" text-anchor="middle" font-size="10" fill="#374151">新橋</text>
    <circle cx="432.1" cy="426.0" r="4" fill="#dc2626" stroke="#fff" stroke-width="2"/>
    <text x="432.1" y="418.0" text-anchor="middle" font-size="10" fill="#374151">日比谷</text>
    <circle cx="431.8" cy="490.2" r="4" fill="#dc2626" stroke="#fff" stroke-width="2"/>
    <text x="431.8" y="482.2" text-anchor="middle" font-size="10" fill="#374151">汐留</text>
    <circle cx="374.0" cy="541.9" r="4" fill="#dc2626" stroke="#fff" stroke-width="2"/>
    <text x="374.0" y="533.9" text-anchor="middle" font-size="10" fill="#374151">芝公園</text>
    <circle cx="640.9" cy="216.6" r="4" fill="#dc2626" stroke="#fff" stroke-width="2"/>
    <text x="640.9" y="208.6" text-anchor="middle" font-size="10" fill="#374151">浅草</text>
  </g>
</svg>