<?xml version="1.0" encoding="UTF-8"?>
<svg width="800" height="600" viewBox="0 0 800 600" 
     xmlns="http://www.w3.org/2000/svg">
  <title>Toronto Subway Map</title>
  <rect width="100%" height="100%" fill="#f8f9fa"/>

  <!-- 지하철 선로 -->
  <g id="subway-lines" stroke="#2563eb" stroke-width="3" fill="none">
    <polyline points="514.7,344.1 515.0,343.9 515.2,343.7 515.4,343.6 515.5,343.5 515.8,343.3 515.9,343.3 516.1,343.2 516.3,343.0" opacity="0.8"/>
    <polyline points="187.4,447.6 189.2,445.5 189.4,445.3 189.6,445.1 189.8,444.9 190.5,444.2 191.1,443.5 191.7,442.9 192.3,442.3 192.8,441.7 193.4,441.0 193.5,440.9 193.8,440.6 195.0,439.1 195.9,438.2 196.3,437.7 196.7,437.2 196.9,436.9 197.1,436.7 197.3,436.5 197.4,436.4 197.5,436.3 197.5,436.2" opacity="0.8"/>
    <polyline points="409.3,382.2 409.7,381.9" opacity="0.8"/>
    <polyline points="500.7,352.9 485.6,357.5 483.9,358.0 483.4,358.1 472.0,361.5 462.4,364.4 460.5,364.9 453.5,366.8 452.3,367.2 443.1,369.7 432.7,372.6 430.4,373.2 430.3,373.3 430.2,373.3 430.1,373.3 427.2,374.1" opacity="0.8"/>
    <polyline points="413.8,379.1 421.2,377.1" opacity="0.8"/>
    <polyline points="554.6,272.1 554.1,272.3 554.0,272.3 553.9,272.4 553.7,272.5 553.5,272.6 553.3,272.7 553.1,272.8 552.9,272.9 552.7,273.0 552.5,273.1 552.5,273.1" opacity="0.8"/>
    <polyline points="531.3,309.1 531.3,309.7 531.2,310.2" opacity="0.8"/>
    <polyline points="398.1,431.3 398.2,431.2 398.4,431.2 398.5,431.1 398.7,431.0 398.8,430.9 399.0,430.9 399.1,430.8 399.2,430.6 399.4,430.5 399.5,430.4 399.6,430.3 399.7,430.1 399.8,430.0 399.8,429.8 399.9,429.7 399.9,429.5 399.9,429.3 399.9,429.1 399.9,428.9 399.8,428.7 399.0,426.0 398.7,424.8 398.5,424.2 396.9,419.4 396.7,418.7 394.7,412.1 393.9,409.7 393.0,407.0 392.9,406.5 392.3,404.6 391.9,403.6 391.8,403.0 391.6,402.4 391.5,402.0 391.5,401.6 391.4,401.2 391.4,400.9 391.4,400.6 391.4,400.4 391.5,400.1 391.5,399.9 391.5,399.7 391.5,399.4 391.6,399.2 391.6,399.0 391.6,398.7 391.6,398.5 391.6,398.2 391.6,398.0 391.5,397.8 391.5,397.5 391.1,396.1 388.9,388.8 388.8,388.7 388.8,388.5 388.5,386.5 388.3,385.3 388.1,384.2 388.1,383.7 387.9,383.0 387.8,382.6 387.7,382.2" opacity="0.8"/>
    <polyline points="375.1,346.4 375.0,345.7 374.9,345.3 374.8,344.6 374.4,342.1 374.3,341.2 374.1,339.9 374.0,339.4 373.9,339.0 373.8,338.8 373.7,338.5 373.1,336.9 372.5,335.4 372.1,334.3 371.9,333.9 371.9,333.4 371.8,333.0 371.8,332.2 371.7,330.9 371.7,330.1 371.7,329.5 371.6,328.6 371.5,326.8 371.5,326.2" opacity="0.8"/>
    <polyline points="320.3,331.5 319.8,329.7 319.5,328.4 318.8,326.4 318.4,325.0 318.3,324.4 318.0,323.6 317.7,322.9 317.5,322.2 317.2,321.6 317.0,321.0 316.7,320.4 316.4,319.8 315.9,318.8 315.0,316.9 314.0,314.9 313.6,313.9 313.3,313.3 313.1,312.8 312.9,312.5 312.8,312.1 312.6,311.5 312.4,310.9 312.1,309.8 311.7,308.4 311.3,307.1 311.2,306.9" opacity="0.8"/>
    <polyline points="291.2,253.0 288.4,249.0 288.0,248.3 287.6,247.5 286.9,245.7 286.6,244.5 286.5,244.0 286.2,242.9 285.9,241.7 285.5,240.3 285.2,239.3 284.8,238.5 284.4,237.8 283.6,237.1 282.8,236.7 275.5,234.2 274.5,234.0 273.8,233.9 271.8,233.8 270.2,233.8 269.3,233.9 268.2,234.0 267.1,234.2 265.6,234.6 263.4,235.3 260.4,236.1 259.7,236.3 259.0,236.4 258.5,236.5 257.8,236.4 257.0,236.3 256.2,236.1 255.0,235.8 254.2,235.4 253.5,235.0 252.8,234.5 252.2,233.9 251.7,233.4 251.4,232.9 250.9,232.0 250.6,231.4 250.4,230.8 250.2,230.0 249.9,228.8 247.8,217.1 247.7,216.5 247.6,216.0 247.4,214.8 247.2,213.7 247.2,213.6 246.3,209.3 246.0,207.7 245.5,204.3 245.2,203.2 244.9,202.3 244.4,201.4 243.7,200.7 243.0,200.3 242.3,199.9 237.6,198.0 236.2,197.5 235.8,197.4 235.1,197.1 225.8,193.5 225.2,193.2 224.4,193.0 223.3,192.5 221.0,191.6 216.1,189.9 213.1,188.7 210.8,187.7 208.6,186.3 207.7,185.5 206.8,184.4 206.2,183.4 205.5,182.1 204.9,180.8 204.2,179.3 201.1,170.2 199.9,165.4 199.4,162.8 199.3,162.2 199.1,160.9" opacity="0.8"/>
    <polyline points="288.2,414.4 289.7,414.0 291.1,413.5 292.1,413.2 292.3,413.2 293.3,412.9" opacity="0.8"/>
    <polyline points="277.3,417.9 279.8,417.0 281.5,416.5" opacity="0.8"/>
    <polyline points="273.2,419.2 275.3,418.5" opacity="0.8"/>
    <polyline points="199.4,433.7 199.8,433.5 200.0,433.4 200.2,433.2 200.5,433.2 201.2,432.9 201.9,432.7 202.5,432.6 204.2,432.1 204.4,432.0 204.5,432.0 204.7,431.9 204.8,431.9 205.3,431.7 208.7,430.7" opacity="0.8"/>
    <polyline points="387.7,382.2 387.6,381.9 387.5,381.7 387.2,381.2 387.0,380.8 386.0,379.1 385.8,378.9 385.7,378.6 385.6,378.3 385.4,378.0 385.2,377.4 384.8,375.8 384.6,375.2 384.2,373.9 383.8,372.6 383.3,370.7" opacity="0.8"/>
    <polyline points="383.3,370.7 382.0,366.4 381.7,365.3 379.5,358.0 379.4,357.5 379.3,357.0 379.1,356.4 379.0,355.8" opacity="0.8"/>
    <polyline points="419.0,202.2 438.5,196.2 439.5,195.9 440.9,195.4" opacity="0.8"/>
    <polyline points="354.8,220.6 356.6,220.0 357.6,219.8 363.7,217.9 364.4,217.7 372.4,215.2 385.0,211.3 386.2,210.8 387.2,210.5 387.9,210.3 388.7,210.0 389.8,209.7 392.9,208.8 396.3,207.8 399.4,206.9 400.5,206.6 401.7,206.3 413.9,203.3 414.0,203.3 415.0,203.1 416.3,202.8 417.4,202.6" opacity="0.8"/>
    <polyline points="245.1,425.3 247.5,426.5" opacity="0.8"/>
    <polyline points="292.3,413.2 292.6,413.1 292.7,413.1 293.2,413.0" opacity="0.8"/>
    <polyline points="303.7,274.7 303.5,274.0 303.4,273.5 302.8,271.3 302.8,271.2" opacity="0.8"/>
    <polyline points="304.3,279.4 304.0,277.0" opacity="0.8"/>
    <polyline points="305.2,285.5 305.1,284.9 305.0,284.4 304.9,283.7 304.7,282.3 304.3,279.4" opacity="0.8"/>
    <polyline points="305.5,286.3 305.2,285.5" opacity="0.8"/>
    <polyline points="302.8,271.2 302.6,270.4" opacity="0.8"/>
    <polyline points="302.6,270.4 302.5,269.9 302.1,268.6 301.7,266.9 301.6,266.7 301.5,266.4 301.4,266.1 301.2,265.9" opacity="0.8"/>
    <polyline points="306.3,289.5 305.8,287.5 305.5,286.3" opacity="0.8"/>
    <polyline points="306.5,290.1 306.3,289.5" opacity="0.8"/>
    <polyline points="417.4,202.6 418.7,202.3 419.0,202.2" opacity="0.8"/>
    <polyline points="197.9,435.3 198.1,435.2 198.1,435.0 198.2,434.9 198.3,434.7 198.4,434.6 198.5,434.5 198.6,434.4 198.7,434.3 198.8,434.2 198.9,434.1 199.0,434.0 199.0,433.9 199.1,433.9 199.2,433.8 199.3,433.7 199.4,433.7" opacity="0.8"/>
    <polyline points="197.5,436.2 197.9,435.3" opacity="0.8"/>
    <polyline points="210.7,430.1 212.2,429.6" opacity="0.8"/>
    <polyline points="212.2,429.6 214.3,429.0" opacity="0.8"/>
    <polyline points="208.7,430.7 209.5,430.5 209.9,430.3 210.1,430.3 210.7,430.1 210.7,430.1" opacity="0.8"/>
    <polyline points="242.2,423.8 243.8,424.6" opacity="0.8"/>
    <polyline points="372.0,335.9 371.9,335.7 371.9,335.4 371.7,335.0 371.7,334.5 371.7,333.9 371.7,333.4" opacity="0.8"/>
    <polyline points="373.3,338.9 373.2,338.6 373.0,338.1" opacity="0.8"/>
    <polyline points="373.3,338.9 373.2,338.4 373.2,338.2 373.1,338.0" opacity="0.8"/>
    <polyline points="371.8,334.5 371.9,334.8 372.3,335.8 373.0,337.6 373.1,337.9 373.4,338.5 373.5,338.8 373.6,339.2 373.8,339.5 373.9,339.9 374.0,340.1 374.3,342.5 374.5,343.6 374.5,343.8 374.6,344.6 374.8,345.8 375.0,346.4" opacity="0.8"/>
    <polyline points="371.7,332.3 371.7,333.3 371.7,333.4 371.7,333.8 371.8,334.0 371.8,334.3 372.0,334.7 372.1,335.0 372.4,335.9 373.1,337.5 373.2,337.9 373.5,338.6 373.8,339.3 374.0,339.7 374.1,340.1" opacity="0.8"/>
    <polyline points="374.5,343.6 374.4,343.4 374.4,343.2 374.3,342.9 374.2,342.6 374.0,342.2 373.9,341.9 373.8,341.6 373.6,341.3 373.5,340.8 373.3,340.4 372.7,338.9" opacity="0.8"/>
    <polyline points="372.6,339.1 372.8,339.6 373.2,340.2 373.3,340.4" opacity="0.8"/>
    <polyline points="374.4,343.2 374.3,342.9 373.9,340.3 373.8,339.7 373.8,339.5" opacity="0.8"/>
    <polyline points="374.3,342.9 374.2,342.7 373.7,339.4 373.6,339.2" opacity="0.8"/>
    <polyline points="373.5,338.8 373.6,339.1 374.1,342.2 374.2,342.6" opacity="0.8"/>
    <polyline points="373.2,337.9 373.4,338.5 373.5,338.9 373.5,339.1 373.6,339.8 373.8,341.1 373.9,341.5 373.9,342.0 374.0,342.2" opacity="0.8"/>
    <polyline points="373.1,337.9 373.4,338.7 373.5,339.4 373.5,339.9 373.6,340.3 373.7,340.7 373.7,341.0 373.7,341.2 373.8,341.6 373.9,341.9" opacity="0.8"/>
    <polyline points="373.3,338.9 373.5,339.4" opacity="0.8"/>
    <polyline points="373.5,339.9 373.5,339.1" opacity="0.8"/>
  </g>

  <!-- 지하철 역 -->
  <g id="subway-stations">
    <circle cx="382.3" cy="387.3" r="4" fill="#dc2626" stroke="#fff" stroke-width="2"/>
    <text x="382.3" y="379.3" text-anchor="middle" font-size="10" fill="#374151">Bay</text>
    <circle cx="298.5" cy="411.3" r="4" fill="#dc2626" stroke="#fff" stroke-width="2"/>
    <text x="298.5" y="403.3" text-anchor="middle" font-size="10" fill="#374151">Dundas West</text>
    <circle cx="384.9" cy="415.3" r="4" fill="#dc2626" stroke="#fff" stroke-width="2"/>
    <text x="384.9" y="407.3" text-anchor="middle" font-size="10" fill="#374151">St. Patrick</text>
    <circle cx="394.6" cy="412.2" r="4" fill="#dc2626" stroke="#fff" stroke-width="2"/>
    <text x="394.6" y="404.2" text-anchor="middle" font-size="10" fill="#374151">Dundas</text>
    <circle cx="370.8" cy="390.4" r="4" fill="#dc2626" stroke="#fff" stroke-width="2"/>
    <text x="370.8" y="382.4" text-anchor="middle" font-size="10" fill="#374151">St. George</text>
    <circle cx="387.3" cy="422.6" r="4" fill="#dc2626" stroke="#fff" stroke-width="2"/>
    <text x="387.3" y="414.6" text-anchor="middle" font-size="10" fill="#374151">Osgoode</text>
    <circle cx="389.5" cy="428.1" r="4" fill="#dc2626" stroke="#fff" stroke-width="2"/>
    <text x="389.5" y="420.1" text-anchor="middle" font-size="10" fill="#374151">St. Andrew</text>
    <circle cx="399.0" cy="426.0" r="4" fill="#dc2626" stroke="#fff" stroke-width="2"/>
    <text x="399.0" y="418.0" text-anchor="middle" font-size="10" fill="#374151">King</text>
    <circle cx="396.7" cy="418.8" r="4" fill="#dc2626" stroke="#fff" stroke-width="2"/>
    <text x="396.7" y="410.8" text-anchor="middle" font-size="10" fill="#374151">Queen</text>
    <circle cx="392.3" cy="404.6" r="4" fill="#dc2626" stroke="#fff" stroke-width="2"/>
    <text x="392.3" y="396.6" text-anchor="middle" font-size="10" fill="#374151">College</text>
    <circle cx="390.9" cy="395.8" r="4" fill="#dc2626" stroke="#fff" stroke-width="2"/>
    <text x="390.9" y="387.8" text-anchor="middle" font-size="10" fill="#374151">Wellesley</text>
    <circle cx="377.7" cy="354.8" r="4" fill="#dc2626" stroke="#fff" stroke-width="2"/>
    <text x="377.7" y="346.8" text-anchor="middle" font-size="10" fill="#374151">St. Clair</text>
    <circle cx="371.2" cy="321.7" r="4" fill="#dc2626" stroke="#fff" stroke-width="2"/>
    <text x="371.2" y="313.7" text-anchor="middle" font-size="10" fill="#374151">Eglinton</text>
    <circle cx="366.0" cy="284.8" r="4" fill="#dc2626" stroke="#fff" stroke-width="2"/>
    <text x="366.0" y="276.8" text-anchor="middle" font-size="10" fill="#374151">Lawrence</text>
    <circle cx="360.4" cy="252.5" r="4" fill="#dc2626" stroke="#fff" stroke-width="2"/>
    <text x="360.4" y="244.5" text-anchor="middle" font-size="10" fill="#374151">York Mills</text>
    <circle cx="348.0" cy="184.5" r="4" fill="#dc2626" stroke="#fff" stroke-width="2"/>
    <text x="348.0" y="176.5" text-anchor="middle" font-size="10" fill="#374151">Finch</text>
    <circle cx="243.3" cy="424.4" r="4" fill="#dc2626" stroke="#fff" stroke-width="2"/>
    <text x="243.3" y="416.4" text-anchor="middle" font-size="10" fill="#374151">Old Mill</text>
    <circle cx="352.4" cy="207.5" r="4" fill="#dc2626" stroke="#fff" stroke-width="2"/>
    <text x="352.4" y="199.5" text-anchor="middle" font-size="10" fill="#374151">North York Centre</text>
    <circle cx="382.0" cy="366.3" r="4" fill="#dc2626" stroke="#fff" stroke-width="2"/>
    <text x="382.0" y="358.3" text-anchor="middle" font-size="10" fill="#374151">Summerhill</text>
    <circle cx="382.4" cy="406.4" r="4" fill="#dc2626" stroke="#fff" stroke-width="2"/>
    <text x="382.4" y="398.4" text-anchor="middle" font-size="10" fill="#374151">Queen's Park</text>
    <circle cx="286.1" cy="242.9" r="4" fill="#dc2626" stroke="#fff" stroke-width="2"/>
    <text x="286.1" y="234.9" text-anchor="middle" font-size="10" fill="#374151">Sheppard West</text>
    <circle cx="289.7" cy="413.9" r="4" fill="#dc2626" stroke="#fff" stroke-width="2"/>
    <text x="289.7" y="405.9" text-anchor="middle" font-size="10" fill="#374151">Keele</text>
    <circle cx="280.0" cy="417.0" r="4" fill="#dc2626" stroke="#fff" stroke-width="2"/>
    <text x="280.0" y="409.0" text-anchor="middle" font-size="10" fill="#374151">High Park</text>
    <circle cx="188.3" cy="446.7" r="4" fill="#dc2626" stroke="#fff" stroke-width="2"/>
    <text x="188.3" y="438.7" text-anchor="middle" font-size="10" fill="#374151">Kipling</text>
    <circle cx="314.9" cy="316.9" r="4" fill="#dc2626" stroke="#fff" stroke-width="2"/>
    <text x="314.9" y="308.9" text-anchor="middle" font-size="10" fill="#374151">Glencairn</text>
    <circle cx="388.4" cy="386.2" r="4" fill="#dc2626" stroke="#fff" stroke-width="2"/>
    <text x="388.4" y="378.2" text-anchor="middle" font-size="10" fill="#374151">Bloor-Yonge</text>
    <circle cx="267.8" cy="421.0" r="4" fill="#dc2626" stroke="#fff" stroke-width="2"/>
    <text x="267.8" y="413.0" text-anchor="middle" font-size="10" fill="#374151">Runnymede</text>
    <circle cx="257.3" cy="424.2" r="4" fill="#dc2626" stroke="#fff" stroke-width="2"/>
    <text x="257.3" y="416.2" text-anchor="middle" font-size="10" fill="#374151">Jane</text>
    <circle cx="400.8" cy="383.4" r="4" fill="#dc2626" stroke="#fff" stroke-width="2"/>
    <text x="400.8" y="375.4" text-anchor="middle" font-size="10" fill="#374151">Sherbourne</text>
    <circle cx="410.6" cy="381.2" r="4" fill="#dc2626" stroke="#fff" stroke-width="2"/>
    <text x="410.6" y="373.2" text-anchor="middle" font-size="10" fill="#374151">Castle Frank</text>
    <circle cx="199.0" cy="160.9" r="4" fill="#dc2626" stroke="#fff" stroke-width="2"/>
    <circle cx="551.3" cy="273.7" r="4" fill="#dc2626" stroke="#fff" stroke-width="2"/>
    <text x="551.3" y="265.7" text-anchor="middle" font-size="10" fill="#374151">Kennedy</text>
    <circle cx="264.4" cy="235.1" r="4" fill="#dc2626" stroke="#fff" stroke-width="2"/>
    <text x="264.4" y="227.1" text-anchor="middle" font-size="10" fill="#374151">Downsview Park</text>
    <circle cx="247.3" cy="214.9" r="4" fill="#dc2626" stroke="#fff" stroke-width="2"/>
    <text x="247.3" y="206.9" text-anchor="middle" font-size="10" fill="#374151">Finch West</text>
    <circle cx="344.7" cy="398.3" r="4" fill="#dc2626" stroke="#fff" stroke-width="2"/>
    <text x="344.7" y="390.3" text-anchor="middle" font-size="10" fill="#374151">Christie</text>
    <circle cx="354.7" cy="220.7" r="4" fill="#dc2626" stroke="#fff" stroke-width="2"/>
    <text x="354.7" y="212.7" text-anchor="middle" font-size="10" fill="#374151">Sheppard-Yonge</text>
    <circle cx="386.1" cy="211.0" r="4" fill="#dc2626" stroke="#fff" stroke-width="2"/>
    <text x="386.1" y="203.0" text-anchor="middle" font-size="10" fill="#374151">Bayview</text>
    <circle cx="400.6" cy="206.7" r="4" fill="#dc2626" stroke="#fff" stroke-width="2"/>
    <text x="400.6" y="198.7" text-anchor="middle" font-size="10" fill="#374151">Bessarion</text>
    <circle cx="441.5" cy="195.4" r="4" fill="#dc2626" stroke="#fff" stroke-width="2"/>
    <text x="441.5" y="187.4" text-anchor="middle" font-size="10" fill="#374151">Don Mills</text>
    <circle cx="415.2" cy="203.2" r="4" fill="#dc2626" stroke="#fff" stroke-width="2"/>
    <text x="415.2" y="195.2" text-anchor="middle" font-size="10" fill="#374151">Leslie</text>
    <circle cx="372.9" cy="336.6" r="4" fill="#dc2626" stroke="#fff" stroke-width="2"/>
    <text x="372.9" y="328.6" text-anchor="middle" font-size="10" fill="#374151">Davisville</text>
    <circle cx="395.7" cy="432.0" r="4" fill="#dc2626" stroke="#fff" stroke-width="2"/>
    <text x="395.7" y="424.0" text-anchor="middle" font-size="10" fill="#374151">Union</text>
    <circle cx="363.0" cy="390.3" r="4" fill="#dc2626" stroke="#fff" stroke-width="2"/>
    <text x="363.0" y="382.3" text-anchor="middle" font-size="10" fill="#374151">Spadina</text>
    <circle cx="378.2" cy="393.3" r="4" fill="#dc2626" stroke="#fff" stroke-width="2"/>
    <text x="378.2" y="385.3" text-anchor="middle" font-size="10" fill="#374151">Museum</text>
    <circle cx="348.8" cy="360.2" r="4" fill="#dc2626" stroke="#fff" stroke-width="2"/>
    <text x="348.8" y="352.2" text-anchor="middle" font-size="10" fill="#374151">St. Clair West</text>
    <circle cx="359.9" cy="379.0" r="4" fill="#dc2626" stroke="#fff" stroke-width="2"/>
    <text x="359.9" y="371.0" text-anchor="middle" font-size="10" fill="#374151">Dupont</text>
    <circle cx="320.7" cy="332.8" r="4" fill="#dc2626" stroke="#fff" stroke-width="2"/>
    <text x="320.7" y="324.8" text-anchor="middle" font-size="10" fill="#374151">Eglinton West</text>
    <circle cx="302.4" cy="269.9" r="4" fill="#dc2626" stroke="#fff" stroke-width="2"/>
    <text x="302.4" y="261.9" text-anchor="middle" font-size="10" fill="#374151">Wilson</text>
    <circle cx="305.8" cy="287.9" r="4" fill="#dc2626" stroke="#fff" stroke-width="2"/>
    <text x="305.8" y="279.9" text-anchor="middle" font-size="10" fill="#374151">Yorkdale</text>
    <circle cx="310.6" cy="305.0" r="4" fill="#dc2626" stroke="#fff" stroke-width="2"/>
    <text x="310.6" y="297.0" text-anchor="middle" font-size="10" fill="#374151">Lawrence West</text>
    <circle cx="204.8" cy="180.8" r="4" fill="#dc2626" stroke="#fff" stroke-width="2"/>
    <text x="204.8" y="172.8" text-anchor="middle" font-size="10" fill="#374151">Highway 407</text>
    <circle cx="223.3" cy="192.6" r="4" fill="#dc2626" stroke="#fff" stroke-width="2"/>
    <text x="223.3" y="184.6" text-anchor="middle" font-size="10" fill="#374151">Pioneer Village</text>
    <circle cx="442.9" cy="369.5" r="4" fill="#dc2626" stroke="#fff" stroke-width="2"/>
    <text x="442.9" y="361.5" text-anchor="middle" font-size="10" fill="#374151">Pape</text>
    <circle cx="220.6" cy="427.4" r="4" fill="#dc2626" stroke="#fff" stroke-width="2"/>
    <text x="220.6" y="419.4" text-anchor="middle" font-size="10" fill="#374151">Royal York</text>
    <circle cx="202.5" cy="432.6" r="4" fill="#dc2626" stroke="#fff" stroke-width="2"/>
    <text x="202.5" y="424.6" text-anchor="middle" font-size="10" fill="#374151">Islington</text>
    <circle cx="312.1" cy="407.5" r="4" fill="#dc2626" stroke="#fff" stroke-width="2"/>
    <text x="312.1" y="399.5" text-anchor="middle" font-size="10" fill="#374151">Lansdowne</text>
    <circle cx="322.0" cy="405.4" r="4" fill="#dc2626" stroke="#fff" stroke-width="2"/>
    <text x="322.0" y="397.4" text-anchor="middle" font-size="10" fill="#374151">Dufferin</text>
    <circle cx="334.4" cy="401.5" r="4" fill="#dc2626" stroke="#fff" stroke-width="2"/>
    <text x="334.4" y="393.5" text-anchor="middle" font-size="10" fill="#374151">Ossington</text>
    <circle cx="354.3" cy="395.0" r="4" fill="#dc2626" stroke="#fff" stroke-width="2"/>
    <text x="354.3" y="387.0" text-anchor="middle" font-size="10" fill="#374151">Bathurst</text>
    <circle cx="530.9" cy="312.6" r="4" fill="#dc2626" stroke="#fff" stroke-width="2"/>
    <text x="530.9" y="304.6" text-anchor="middle" font-size="10" fill="#374151">Warden</text>
    <circle cx="517.8" cy="342.2" r="4" fill="#dc2626" stroke="#fff" stroke-width="2"/>
    <text x="517.8" y="334.2" text-anchor="middle" font-size="10" fill="#374151">Victoria Park</text>
    <circle cx="500.7" cy="352.8" r="4" fill="#dc2626" stroke="#fff" stroke-width="2"/>
    <text x="500.7" y="344.8" text-anchor="middle" font-size="10" fill="#374151">Main Street</text>
    <circle cx="486.0" cy="357.6" r="4" fill="#dc2626" stroke="#fff" stroke-width="2"/>
    <text x="486.0" y="349.6" text-anchor="middle" font-size="10" fill="#374151">Woodbine</text>
    <circle cx="472.1" cy="361.8" r="4" fill="#dc2626" stroke="#fff" stroke-width="2"/>
    <text x="472.1" y="353.8" text-anchor="middle" font-size="10" fill="#374151">Coxwell</text>
    <circle cx="462.4" cy="364.7" r="4" fill="#dc2626" stroke="#fff" stroke-width="2"/>
    <text x="462.4" y="356.7" text-anchor="middle" font-size="10" fill="#374151">Greenwood</text>
    <circle cx="452.4" cy="367.5" r="4" fill="#dc2626" stroke="#fff" stroke-width="2"/>
    <text x="452.4" y="359.5" text-anchor="middle" font-size="10" fill="#374151">Donlands</text>
    <circle cx="236.2" cy="197.6" r="4" fill="#dc2626" stroke="#fff" stroke-width="2"/>
    <text x="236.2" y="189.6" text-anchor="middle" font-size="10" fill="#374151">York University</text>
    <circle cx="432.7" cy="372.6" r="4" fill="#dc2626" stroke="#fff" stroke-width="2"/>
    <text x="432.7" y="364.6" text-anchor="middle" font-size="10" fill="#374151">Chester</text>
  </g>
</svg>