<?xml version="1.0" encoding="UTF-8"?>
<svg width="800" height="600" xmlns="http://www.w3.org/2000/svg">
  <title>Toulouse Subway Map</title>
  <rect width="100%" height="100%" fill="#f8f9fa"/>

  <!-- 지하철 선로 -->
  <g stroke="#2563eb" stroke-width="2" fill="none" opacity="0.8">
    <polyline points="139.1,527.9 138.4,528.0 137.5,528.2 136.6,528.3 135.7,528.5 134.8,528.6 134.1,528.6 133.0,528.8 131.7,528.9 130.4,529.1 129.0,529.2 127.5,529.3 125.8,529.4 124.4,529.5 123.2,529.6 122.1,529.6 120.9,529.7 119.8,529.7 118.5,529.7 112.8,529.7"/>
    <polyline points="155.6,524.1 153.9,524.7"/>
    <polyline points="715.2,177.6 716.7,176.7"/>
    <polyline points="710.3,180.6 712.3,179.4 715.2,177.6"/>
    <polyline points="112.8,529.7 109.1,529.7"/>
    <polyline points="94.1,532.0 90.2,533.5 86.8,534.9 82.7,536.9 80.4,538.4 77.6,540.3 75.6,542.0 74.1,543.8 72.3,546.8 71.5,549.1 71.0,551.5 70.9,557.6 70.9,558.6 70.9,559.3 70.9,562.1 70.9,568.9 70.8,569.9 70.1,571.8 69.1,573.9 67.1,577.5 66.3,580.2 65.9,583.7 65.9,585.5 66.6,588.7 67.9,591.5 68.1,592.9 68.4,596.6 68.5,598.5 68.8,602.7 68.9,620.6 68.6,621.7 68.0,622.8 67.2,624.0 63.7,627.2 62.3,628.5 59.6,630.8 56.4,633.4 52.8,636.0 49.5,638.3 43.3,641.8 42.1,642.4 40.8,642.8 39.5,643.1 38.1,643.3 36.5,643.4 33.9,643.5 30.6,643.5 27.1,643.6 6.9,643.5 3.3,643.4 0.8,643.2 -2.0,642.5"/>
    <polyline points="598.8,-57.4 597.4,-54.3 596.6,-53.0 595.3,-50.9 593.2,-48.4 590.2,-45.5 585.4,-42.4 582.1,-41.1 577.3,-39.9 567.7,-37.8 554.8,-34.9 549.5,-34.2 546.7,-33.9 543.6,-33.9 529.7,-34.7 519.1,-34.8 511.1,-34.7 494.1,-34.9 488.6,-34.7 483.0,-33.9 478.6,-32.5 475.6,-30.9 471.6,-28.4 459.1,-19.9 426.4,2.0 411.4,12.3 406.7,15.8 404.7,18.9 402.9,21.8 402.1,24.7 402.0,27.5 402.7,36.4 403.5,48.2 405.3,67.2 405.9,74.7 406.2,78.1 407.5,88.9 409.1,99.2 409.6,101.6 410.3,104.2 412.2,108.2 416.9,116.7 421.1,123.7 423.7,128.7 424.3,130.2 425.3,133.2 426.4,136.1 428.1,139.9 430.6,146.4 432.8,152.8 434.6,158.0 434.9,160.1 434.4,162.1 433.0,164.6 431.2,166.9 429.0,169.1 425.9,171.1 422.0,173.5 413.8,176.5 410.9,177.7 405.8,179.6 402.1,181.2 394.8,184.6 390.2,186.1 368.2,194.4 362.1,198.4 361.1,199.5 360.1,201.3 359.7,202.7 359.7,205.6 359.9,207.7 360.4,209.7 362.0,212.9 363.6,215.2 366.3,218.7 368.8,221.3 372.6,224.1 374.9,225.2 378.1,226.3 381.4,226.8 385.8,227.2 390.0,227.6 395.2,227.8 400.5,227.8 406.5,227.4 410.9,226.1 417.3,224.3 427.5,221.6 438.0,218.5 443.5,216.3 449.0,214.8 453.3,214.1 458.3,214.1 463.2,214.8 470.5,216.0 495.3,220.9 503.4,223.2 508.0,225.8 511.5,228.6 517.2,233.3 521.8,237.7 526.8,242.2 529.2,244.8 529.4,244.9 531.8,247.1 534.4,249.1 537.5,250.7 541.3,253.7 544.9,257.0 552.5,263.3 556.5,266.6 563.9,272.7 571.9,279.7 578.6,285.4 588.8,293.9 591.5,296.9 592.9,300.1 594.6,313.0 594.6,314.2 595.1,319.1 595.3,321.2 595.6,324.0 594.5,325.8 593.8,327.8 592.7,329.3 590.6,330.7 587.7,331.8 584.5,332.4 580.9,332.7 548.8,332.2 543.4,333.1 539.3,334.5 534.8,340.7 528.6,344.9 524.3,347.2 523.3,347.7 521.7,348.8 517.5,350.9 514.6,353.3 511.6,365.4 509.9,370.6 509.3,375.6 508.6,378.0 508.8,381.1 510.6,384.8 516.0,394.3 516.3,395.0"/>
    <polyline points="516.3,395.0 517.0,396.7 523.3,412.9 529.4,425.5 534.0,436.1 538.1,444.3 541.9,452.4 541.9,452.6 543.7,456.5 546.3,463.6 546.4,469.7 544.6,474.9 542.2,479.4 538.1,482.9 533.9,485.2 528.2,487.7 506.1,498.2 501.4,501.0 497.6,504.0 493.0,509.4 489.4,514.8 489.2,515.0 481.6,525.3 476.3,535.0 475.6,538.4 476.1,541.7 478.6,544.1 482.7,545.2 487.6,545.5 493.2,545.1 499.4,543.9 506.7,541.9 522.6,536.9 539.0,528.6 544.2,524.7 551.3,518.0 555.5,515.1 560.2,513.3 566.0,511.0 573.4,508.0 574.1,507.8 581.5,504.6 587.5,502.6 598.3,502.4 604.4,503.0 610.8,503.2 618.9,503.8 638.9,506.5 651.8,508.1 656.3,509.3 661.2,511.5 664.0,513.2 667.0,514.9 671.0,517.0 674.2,519.6 676.2,522.1 677.5,524.3 678.4,526.3 679.0,529.0 680.8,536.9 683.3,546.8 684.4,552.9 684.7,554.4 686.1,556.5 687.9,557.7 692.8,560.2 696.7,562.1 698.9,563.3 701.4,564.7 705.4,568.5 709.1,576.2 717.7,599.6 721.7,610.6 722.3,614.6 723.1,619.9 723.8,623.3 724.0,624.5 724.0,624.7 724.5,628.8 724.5,632.6 722.7,639.2 708.0,663.5 705.9,670.3 704.9,673.1 704.7,677.3 706.7,684.5 711.2,692.8 711.3,693.0 714.7,699.0 719.4,704.8 724.9,709.3 745.3,723.2 752.0,726.4 759.5,728.9 771.5,731.4 821.5,740.4 828.5,741.7 833.6,742.0 838.0,741.9 848.4,740.8 867.0,738.5"/>
    <polyline points="109.1,529.7 107.3,529.8 105.4,529.8 103.9,529.9 102.7,530.0 101.4,530.2 100.2,530.4 98.9,530.7 98.0,530.9 96.5,531.2 95.2,531.6 94.1,532.0"/>
    <polyline points="92.7,532.8 94.3,532.3"/>
    <polyline points="109.1,530.0 112.8,530.0"/>
    <polyline points="112.8,530.0 118.3,529.9 120.4,529.9 121.8,529.9 122.7,529.8 123.6,529.8 124.5,529.8 125.8,529.7 127.1,529.6 128.9,529.5 130.5,529.3 132.0,529.2 133.7,529.0 134.8,528.8 135.6,528.7 136.3,528.6 137.3,528.5 138.2,528.4 139.3,528.2"/>
    <polyline points="92.7,532.8 87.8,534.7 83.1,537.0 81.9,537.8 78.0,540.5 76.0,542.2 74.6,543.9 73.9,545.0 72.7,547.0 72.1,548.8 71.7,550.2 71.5,551.7 71.5,552.4 71.4,556.2 71.3,562.1 71.3,562.6 71.3,569.0 70.8,571.1 70.5,571.9 69.9,573.2 68.6,575.7 67.6,577.5 66.7,580.2 66.3,583.7 66.2,585.5 66.6,587.2 67.0,588.6 67.8,590.2 68.3,591.5 68.5,592.8 68.8,595.5 68.9,597.7 69.0,598.6 69.3,602.7 69.4,609.4 69.3,611.4 69.3,619.1 69.3,620.3 69.2,621.3 68.9,622.0 68.4,622.9 67.2,624.3 65.4,626.0 62.3,628.9 59.4,631.3 56.2,633.9 51.4,637.4 49.7,638.5 47.7,639.6 45.1,641.2 42.8,642.4 41.5,642.9 40.5,643.2 39.2,643.4 37.9,643.6 36.5,643.7 30.7,643.8 27.1,643.8 15.6,643.8 4.4,643.7 3.1,643.6 1.9,643.6 0.7,643.4"/>
    <polyline points="94.3,532.3 95.5,531.9 96.7,531.5 98.1,531.2 99.0,531.0 100.0,530.8 100.9,530.6 101.9,530.5 103.2,530.3 104.7,530.2 106.1,530.1 107.6,530.1 109.1,530.0"/>
    <polyline points="139.3,528.2 140.5,528.0 141.8,527.8 142.5,527.6"/>
    <polyline points="142.5,527.6 143.5,527.4 144.9,527.2 146.5,526.8 147.8,526.5 148.9,526.3 150.8,525.8 151.9,525.5 153.0,525.2 154.0,524.9"/>
    <polyline points="142.4,527.4 141.5,527.5 140.2,527.8 139.1,527.9"/>
    <polyline points="153.9,524.7 153.0,524.9 152.0,525.2 150.6,525.6 148.7,526.0 147.1,526.4 144.7,526.9 143.3,527.2 142.4,527.4"/>
    <polyline points="760.8,146.2 760.2,146.6 759.5,147.0 758.6,147.5 757.9,148.0 756.7,148.6 752.5,151.0 751.5,151.5 750.5,152.1 749.5,152.6 748.9,153.0 748.5,153.3 748.0,153.6 747.6,153.9 747.1,154.2 746.5,154.6"/>
    <polyline points="746.5,154.6 746.1,154.9 745.8,155.2 745.3,155.5 744.9,155.8 744.3,156.3 743.7,156.9 743.1,157.5 740.4,159.9 739.4,160.8 738.2,161.9 736.9,163.1 735.9,163.9 735.2,164.5 734.1,165.3 733.2,166.0 732.1,166.8 731.0,167.5 729.9,168.3 727.8,169.6 726.4,170.4 725.6,171.0 717.4,175.9 716.4,176.5"/>
    <polyline points="746.8,154.8 747.5,154.3 748.1,153.9 749.1,153.3 749.9,152.9 750.8,152.3 751.8,151.7 752.7,151.2 757.0,148.8 757.7,148.4 758.5,148.0 759.3,147.5 760.0,147.1 760.6,146.7 761.1,146.4"/>
    <polyline points="716.4,176.5 715.5,177.1"/>
    <polyline points="716.7,176.7 718.8,175.4 724.5,171.9 725.4,171.4 726.7,170.6 728.0,169.8 730.1,168.5 730.9,168.0 731.8,167.4 732.8,166.7 733.8,166.0 734.6,165.3 735.4,164.7 736.4,163.9 737.4,163.1 738.8,161.8 739.8,160.9 740.7,160.1 743.4,157.6 744.2,156.8 744.6,156.5 745.1,156.1 745.6,155.7 746.2,155.3 746.8,154.8"/>
    <polyline points="715.5,177.1 712.0,179.2 710.0,180.4"/>
    <polyline points="605.2,240.1 580.6,257.4 576.2,260.3 568.6,264.2 567.1,265.1 555.7,271.8 550.3,274.8 545.6,276.5 544.1,277.0 542.4,277.3 537.1,278.1 532.4,278.9 530.1,279.4 528.2,280.0 526.3,280.7 522.8,282.1 518.3,283.9 515.7,285.7 513.9,288.1 512.9,290.7 512.5,293.2 510.6,310.2 509.5,312.2 507.5,316.4 507.1,317.4 507.0,318.5 507.1,322.9 507.5,326.0 507.3,328.2 507.0,329.4 505.7,332.0 502.7,335.0 497.9,336.8 492.2,339.1 487.5,340.4 481.7,341.5 472.4,342.1 393.3,341.3 389.2,341.4 385.6,341.8 378.8,342.8 375.1,343.4 359.4,346.0 322.7,352.1 293.0,357.0 290.5,357.5 286.8,358.2 281.6,359.2 274.4,360.3 269.5,361.0 262.7,362.5 258.7,363.7 254.7,365.4 252.6,366.8 250.0,369.2 248.3,371.3 247.1,374.0 246.1,377.0 244.5,382.1 243.7,385.3 243.3,387.1 242.9,389.3 242.6,390.9"/>
    <polyline points="707.8,181.9 705.7,183.1 704.3,183.8 703.4,184.0 702.4,184.2 699.8,184.6 697.6,184.9 696.1,185.3 694.6,186.0 655.8,210.1 653.1,211.7 651.5,212.3 634.5,217.2 632.7,217.7 631.4,218.3 629.6,219.3"/>
    <polyline points="710.3,180.6 707.5,182.4 706.1,183.2 704.5,183.9 703.5,184.2 702.4,184.5 697.7,185.1 696.2,185.6 694.9,186.2 656.1,210.3 653.4,211.9 651.8,212.5 632.9,217.9 631.6,218.5 629.7,219.5 626.9,221.0 623.9,222.9 623.1,223.6 622.1,224.5 621.1,225.9 619.6,228.1 616.4,231.8 612.2,235.8 605.6,240.4 581.3,257.8 578.2,259.8 572.5,263.5"/>
    <polyline points="629.4,219.4 629.1,219.6 626.7,221.1 623.7,222.8 622.9,223.5 621.7,224.7 619.4,227.6 615.9,231.6 611.8,235.6 605.2,240.1"/>
    <polyline points="629.6,219.3 629.4,219.4"/>
    <polyline points="544.9,257.0 546.0,260.5 545.8,264.8 545.4,270.4 545.1,273.0 544.5,274.4 543.0,275.7 541.0,276.9 537.1,278.1"/>
    <polyline points="710.0,180.4 707.8,181.9"/>
    <polyline points="576.2,260.3 574.0,261.5 568.6,264.2"/>
    <polyline points="572.5,263.5 568.4,266.1 559.1,271.5 551.0,275.4 548.3,276.4 546.2,277.2 543.9,277.9 541.2,278.4 536.1,279.3 532.8,279.9 530.0,280.4 528.0,281.0 523.4,282.9 518.9,284.7 516.9,286.1 515.4,288.3 514.4,290.9 513.8,294.2 512.1,310.1 509.9,317.2 510.1,322.9 510.4,325.4 510.7,328.3 510.5,329.8 509.5,331.6 506.7,334.2 503.2,335.8 498.5,337.5 492.8,339.8 487.3,341.4 481.6,342.5 472.4,343.2 442.0,342.9 431.8,342.3 419.9,342.1 393.2,341.8 389.9,341.9 388.0,342.0 385.0,342.3 378.9,343.2 375.6,343.7 352.4,347.6 345.4,348.7 309.9,354.5 290.6,357.7 285.5,358.8 281.6,359.5 270.0,361.3 268.9,361.6 263.2,362.8 258.9,364.0 255.0,365.7 252.8,367.1 250.4,369.4 248.7,371.5 247.6,374.0 247.0,375.5 245.8,379.5 245.0,382.0 244.4,384.1 244.1,385.3 243.7,387.1 243.4,388.5 243.1,390.6 241.1,402.8 241.0,403.6 241.1,404.7 241.4,406.4 246.7,428.8 246.9,431.1 246.5,433.8 245.8,436.1 244.7,438.7 242.5,441.5 231.5,454.1 225.9,460.5 213.7,473.5 208.4,479.3 204.8,483.4 195.1,494.6 186.0,504.3 181.3,509.3 178.4,512.2 176.8,513.7 174.7,515.4 171.9,517.4 168.0,519.6 163.2,521.5 158.3,523.5 154.0,524.9"/>
    <polyline points="242.6,390.9 240.6,402.8 240.5,403.9 240.7,405.4 240.9,407.0 246.1,428.8 246.3,431.2 245.9,433.8 245.3,436.0 244.2,438.7 242.0,441.4 208.0,479.1 189.5,500.0 178.0,512.1 176.5,513.6 174.8,514.9 172.4,516.5 168.2,519.1 163.2,521.2 158.2,523.3 155.6,524.1"/>
    <polyline points="718.8,175.4 717.4,175.9"/>
    <polyline points="580.6,257.4 581.3,257.8"/>
    <polyline points="242.9,389.3 243.4,388.5"/>
    <polyline points="598.5,-57.4 597.1,-54.3 596.3,-53.1 595.1,-51.1 592.8,-48.5 589.9,-45.7 585.1,-42.5 582.1,-41.4 577.3,-40.0 571.8,-38.9 554.8,-35.2 549.7,-34.5 546.7,-34.3 543.3,-34.3 530.1,-34.9 519.1,-34.9 508.3,-35.0 494.0,-35.1 488.4,-34.9 483.0,-34.2 478.3,-32.7 475.3,-31.2 468.2,-26.5 456.0,-18.1 448.1,-13.0 426.1,1.9 410.9,12.1 406.2,15.7 404.4,18.7 402.6,21.5 401.7,24.7 401.5,27.5 402.6,42.0 403.5,53.6 404.9,67.1 405.7,74.7 406.2,80.2 406.9,88.8 408.3,97.2 409.0,101.6 410.0,104.5 411.9,108.6 414.7,113.6 418.5,120.3 422.8,127.5 423.7,129.3 424.1,130.2 425.2,133.2 426.2,136.2 428.8,142.5 430.9,148.7 432.5,153.6 434.0,157.6 434.3,159.1 434.2,160.4 433.8,162.0 432.7,164.3 431.6,165.6 430.0,167.6 428.6,169.0 425.5,170.9 421.7,173.4 410.8,177.5 405.7,179.4 402.1,181.1 394.6,184.5 390.7,185.8 381.0,188.9 368.0,194.2 364.2,196.8 361.8,198.2 360.7,199.4 359.6,201.2 359.3,202.6 359.2,205.6 359.4,207.7 359.9,209.7 361.5,212.9 363.0,215.1 365.8,218.9 368.4,221.5 372.3,224.3 374.6,225.5 377.9,226.6 381.4,227.1 385.4,227.6 390.0,227.9 395.3,228.2 400.5,228.2 406.4,227.6 411.0,226.3 417.4,224.5 427.4,221.8 438.3,218.6 443.7,216.6 449.2,215.2 453.4,214.6 458.2,214.6 463.0,215.2 470.8,216.5 495.3,221.3 503.2,223.6 507.5,226.2 511.0,228.7 516.8,233.5 521.5,237.7 526.5,242.1 529.2,244.9 533.9,249.0 537.2,250.8 544.1,257.0 555.5,267.1 562.7,273.0 571.0,279.6 588.1,293.9 591.7,298.2 592.4,300.4 593.5,309.8 594.3,313.0 595.0,319.2 595.1,320.3 595.4,324.0 594.2,326.0 592.5,329.2 589.7,330.9 587.6,331.7 584.1,332.2 580.8,332.5 568.0,332.4 549.0,332.1 543.5,332.9 539.1,334.4 534.5,340.5 528.5,344.9 524.3,347.2 523.2,347.7 519.8,349.6 517.3,350.8 514.5,353.2 512.2,362.4 509.6,371.0 509.1,375.7 508.4,377.6 508.7,381.3 511.8,387.3 514.7,392.6 515.8,394.1 516.1,394.7 517.9,399.3 522.6,411.7 533.0,434.2 537.9,444.2 541.6,452.1 541.8,452.5 543.1,455.2 544.5,458.9 546.1,463.7 546.2,469.7 544.4,474.8 542.0,479.3 537.9,482.8 534.0,485.0 515.2,493.7 507.5,497.4 501.2,500.9 497.3,504.0 492.6,509.5 489.2,514.8 488.6,515.7 482.0,524.6 476.0,535.0 475.4,538.5 475.9,541.7 478.5,544.2 482.6,545.5 487.5,545.7 493.2,545.2 500.1,543.8 509.0,541.4 515.4,539.3 522.7,537.0 536.0,530.3 539.2,528.8 544.7,524.6 551.6,518.1 555.7,515.3 569.1,509.9 573.5,508.1 576.5,506.9 581.6,504.8 587.6,502.7 598.2,502.6 604.3,503.2 610.7,503.4 620.3,504.2 636.5,506.4 650.1,508.1 656.2,509.4 660.9,511.7 664.0,513.3 667.0,515.0 670.9,517.1 674.1,519.7 677.3,524.4 682.3,544.0 684.4,554.4 685.9,556.7 687.7,558.0 693.7,560.7 696.6,562.1 697.2,562.4 701.3,564.8 705.3,568.5 708.9,576.2 714.8,592.2 718.1,601.5 721.4,610.6 723.7,623.3 723.9,624.7 724.3,628.0 724.3,632.6 723.5,635.2 722.3,639.2 711.5,657.1 707.6,663.4 704.5,673.4 704.4,677.3 706.3,684.6 708.5,688.2 711.2,693.0 711.7,694.0 711.9,694.7 715.2,700.0 719.1,704.9 725.2,709.9 745.5,723.6 749.3,725.4 752.2,726.7 759.1,729.2 766.1,730.5 781.5,733.5 797.9,736.4 819.6,740.4 828.1,742.0 834.0,742.1 838.4,742.1 848.4,740.9 866.0,738.8 867.0,738.5"/>
  </g>

  <!-- 지하철 역 -->
  <g>
    <circle cx="556.6" cy="270.6" r="3" fill="#dc2626" stroke="#fff" stroke-width="1"/>
    <circle cx="378.6" cy="343.1" r="3" fill="#dc2626" stroke="#fff" stroke-width="1"/>
    <circle cx="626.6" cy="221.2" r="3" fill="#dc2626" stroke="#fff" stroke-width="1"/>
    <circle cx="712.3" cy="179.2" r="3" fill="#dc2626" stroke="#fff" stroke-width="1"/>
    <circle cx="541.9" cy="452.6" r="3" fill="#dc2626" stroke="#fff" stroke-width="1"/>
    <circle cx="208.3" cy="479.1" r="3" fill="#dc2626" stroke="#fff" stroke-width="1"/>
    <circle cx="522.7" cy="282.5" r="3" fill="#dc2626" stroke="#fff" stroke-width="1"/>
    <circle cx="508.6" cy="322.9" r="3" fill="#dc2626" stroke="#fff" stroke-width="1"/>
    <circle cx="243.8" cy="385.4" r="3" fill="#dc2626" stroke="#fff" stroke-width="1"/>
    <circle cx="242.2" cy="441.5" r="3" fill="#dc2626" stroke="#fff" stroke-width="1"/>
    <circle cx="178.0" cy="512.3" r="3" fill="#dc2626" stroke="#fff" stroke-width="1"/>
    <circle cx="405.9" cy="75.2" r="3" fill="#dc2626" stroke="#fff" stroke-width="1"/>
    <circle cx="424.1" cy="130.1" r="3" fill="#dc2626" stroke="#fff" stroke-width="1"/>
    <circle cx="411.0" cy="177.5" r="3" fill="#dc2626" stroke="#fff" stroke-width="1"/>
    <circle cx="422.0" cy="224.8" r="3" fill="#dc2626" stroke="#fff" stroke-width="1"/>
    <circle cx="521.5" cy="237.6" r="3" fill="#dc2626" stroke="#fff" stroke-width="1"/>
    <circle cx="524.4" cy="347.1" r="3" fill="#dc2626" stroke="#fff" stroke-width="1"/>
    <circle cx="290.4" cy="357.7" r="3" fill="#dc2626" stroke="#fff" stroke-width="1"/>
    <circle cx="638.4" cy="152.7" r="3" fill="#dc2626" stroke="#fff" stroke-width="1"/>
    <circle cx="667.1" cy="515.0" r="3" fill="#dc2626" stroke="#fff" stroke-width="1"/>
    <circle cx="573.8" cy="507.9" r="3" fill="#dc2626" stroke="#fff" stroke-width="1"/>
    <circle cx="489.4" cy="514.6" r="3" fill="#dc2626" stroke="#fff" stroke-width="1"/>
    <circle cx="516.1" cy="394.6" r="3" fill="#dc2626" stroke="#fff" stroke-width="1"/>
    <circle cx="595.0" cy="319.2" r="3" fill="#dc2626" stroke="#fff" stroke-width="1"/>
    <circle cx="417.1" cy="224.5" r="3" fill="#dc2626" stroke="#fff" stroke-width="1"/>
  </g>
</svg>