<?xml version="1.0" encoding="UTF-8"?>
<svg width="800" height="600" xmlns="http://www.w3.org/2000/svg">
  <title>Turin Subway Map</title>
  <rect width="100%" height="100%" fill="#f8f9fa"/>

  <!-- 지하철 선로 -->
  <g stroke="#2563eb" stroke-width="2" fill="none" opacity="0.8">
    <polyline points="467.0,297.5 408.0,280.4 379.0,272.1 373.6,270.6 356.1,265.6 312.3,253.0 304.1,250.7 301.5,249.7 299.5,248.6 296.7,246.6 294.7,244.3 293.7,242.6 292.2,240.0 291.4,238.2 291.0,236.0 290.7,234.1 290.9,232.2 292.0,229.4 293.5,226.8 299.3,220.1 307.6,210.4 311.6,206.3 315.9,203.0 320.2,200.2 325.6,196.6 332.3,189.5 334.0,187.3 334.8,185.1 335.3,182.3"/>
    <polyline points="317.3,166.6 312.7,165.4 307.5,164.6 304.0,164.2 299.6,163.9 291.2,163.9 182.5,167.5 100.4,170.3 40.5,172.2 37.5,172.3"/>
    <polyline points="335.3,182.3 334.7,180.1 334.0,178.2 331.9,174.6 328.9,171.1 323.9,168.5 317.3,166.6"/>
    <polyline points="318.7,604.9 321.5,599.4 325.7,590.7 334.1,573.4 338.2,564.7 350.2,539.6 350.6,538.8 350.7,538.6"/>
    <polyline points="350.7,538.6 368.9,501.3 370.5,498.0 371.2,496.6 371.5,495.9 373.6,491.6 374.0,490.8 382.7,473.2 386.3,465.6 392.4,452.9 395.1,447.4 399.6,437.9 404.4,428.1 413.8,408.5 416.8,402.1 419.3,396.9 425.1,385.3 432.5,369.6 436.8,360.5 441.2,352.5 448.7,338.8 451.9,334.0 461.0,324.2 470.3,314.0 476.3,307.3 477.1,305.4 477.1,303.9 476.4,301.8 475.7,301.0 474.8,300.2 472.9,299.4 471.0,298.7 467.0,297.5"/>
  </g>

  <!-- 지하철 역 -->
  <g>
    <circle cx="467.0" cy="297.5" r="3" fill="#dc2626" stroke="#fff" stroke-width="1"/>
    <circle cx="408.0" cy="280.4" r="3" fill="#dc2626" stroke="#fff" stroke-width="1"/>
    <circle cx="182.5" cy="167.5" r="3" fill="#dc2626" stroke="#fff" stroke-width="1"/>
    <circle cx="332.3" cy="189.5" r="3" fill="#dc2626" stroke="#fff" stroke-width="1"/>
    <circle cx="299.3" cy="220.1" r="3" fill="#dc2626" stroke="#fff" stroke-width="1"/>
    <circle cx="312.3" cy="253.0" r="3" fill="#dc2626" stroke="#fff" stroke-width="1"/>
    <circle cx="392.4" cy="452.9" r="3" fill="#dc2626" stroke="#fff" stroke-width="1"/>
    <circle cx="100.4" cy="170.3" r="3" fill="#dc2626" stroke="#fff" stroke-width="1"/>
    <circle cx="350.6" cy="538.8" r="3" fill="#dc2626" stroke="#fff" stroke-width="1"/>
    <circle cx="413.8" cy="408.5" r="3" fill="#dc2626" stroke="#fff" stroke-width="1"/>
    <circle cx="441.2" cy="352.5" r="3" fill="#dc2626" stroke="#fff" stroke-width="1"/>
    <circle cx="291.2" cy="163.9" r="3" fill="#dc2626" stroke="#fff" stroke-width="1"/>
    <circle cx="371.2" cy="496.6" r="3" fill="#dc2626" stroke="#fff" stroke-width="1"/>
  </g>
</svg>