<?xml version="1.0" encoding="UTF-8"?>
<svg width="800" height="600" xmlns="http://www.w3.org/2000/svg">
  <title>Valencia Subway Map</title>
  <rect width="100%" height="100%" fill="#f8f9fa"/>

  <!-- 지하철 선로 -->
  <g stroke="#2563eb" stroke-width="2" fill="none" opacity="0.8">
    <polyline points="122.0,471.9 115.1,477.2"/>
    <polyline points="345.4,354.5 343.9,354.2 341.4,354.1 339.2,354.1 337.1,354.5 335.3,355.0 331.7,356.3 329.1,357.3 327.3,358.3 325.5,359.3 323.7,360.7 322.4,361.9 320.9,363.4 319.8,364.8 317.7,368.1 316.9,369.5"/>
    <polyline points="485.0,236.7 480.7,239.9 480.2,240.4 480.0,240.7 479.7,241.0 479.3,241.7 478.9,242.4 478.5,243.2 475.5,248.7 471.7,255.9 469.0,261.1 455.1,287.3 453.3,290.6 453.1,291.0 452.7,291.7 452.2,292.3 451.5,293.1 450.9,293.6 450.2,294.1 449.2,294.6 441.2,298.2 436.9,300.1 431.2,302.7 424.7,305.7 424.1,306.0 423.4,306.5 422.8,306.9 422.3,307.3 421.0,308.0 419.9,308.5 417.9,309.4 416.0,310.1"/>
    <polyline points="106.9,82.8 104.8,80.9"/>
    <polyline points="111.6,87.1 108.1,83.9 106.9,82.8"/>
    <polyline points="274.9,414.7 276.4,413.9 277.8,412.9 278.5,412.1 279.2,410.7 279.5,409.4 280.4,405.7 280.7,405.2 284.5,391.9 287.7,380.4 289.8,372.8"/>
    <polyline points="683.7,373.2 679.3,372.0 676.4,371.2 675.5,371.0 673.5,370.9 672.2,370.8 670.9,370.4"/>
    <polyline points="75.4,513.2 73.3,515.6 70.4,519.2 67.8,522.6 59.2,534.6"/>
    <polyline points="59.2,534.6 54.1,541.7 42.5,558.0 41.5,559.4 40.8,560.3 37.2,564.8 27.0,576.9 12.1,594.8 4.0,604.3 -4.1,614.1 -4.7,614.8 -8.2,619.0"/>
    <polyline points="274.9,414.7 262.2,419.7 253.5,423.2 251.7,423.9 249.6,424.5 248.0,425.1 246.5,425.9 245.3,426.7 244.5,427.3 243.7,428.3 243.0,429.4 242.4,431.0 242.0,432.2 241.4,434.5 240.7,435.9 240.0,437.0 239.2,438.0 238.2,438.9 236.9,439.9 235.2,441.0 233.8,441.7 232.0,442.4 230.1,442.9 227.7,443.2"/>
    <polyline points="544.8,47.6 545.3,49.0 545.8,49.9 546.6,51.0 548.2,53.1 549.8,55.7 550.9,57.3 551.7,58.6 552.3,59.8 552.7,60.8 553.2,62.4 553.6,63.7"/>
    <polyline points="503.0,118.8 503.4,119.7 503.9,120.9 504.3,122.4 504.6,124.0 504.8,125.2 504.8,125.9 504.9,126.5 505.0,127.1 505.0,128.1"/>
    <polyline points="503.0,118.8 502.4,117.8 501.7,116.8 500.9,115.8 499.8,114.7 498.7,113.6 497.5,112.6 496.2,111.8 495.3,111.2 494.0,110.4 492.7,109.9 491.5,109.4"/>
    <polyline points="120.6,94.8 111.6,87.1"/>
    <polyline points="124.9,99.9 123.6,98.0 122.3,96.5 120.6,94.8"/>
    <polyline points="99.2,76.1 88.7,67.0 87.7,66.1 82.0,61.1 79.5,59.0"/>
    <polyline points="475.1,104.8 474.2,104.5 473.5,104.3 460.5,99.3 459.9,99.0 458.8,98.7"/>
    <polyline points="473.1,104.3 472.2,104.0 471.4,103.8 470.5,103.4 466.3,102.0 464.8,101.5 462.4,100.6 461.0,100.2 459.9,99.8 458.9,99.6 458.6,99.5 444.5,96.2"/>
    <polyline points="474.6,104.9 472.4,104.4 471.4,104.2 470.0,103.8 468.7,103.6 467.2,103.5 463.6,103.3 463.2,103.2 460.4,103.1 458.6,102.9 457.5,102.7 457.2,102.6 443.1,99.3"/>
    <polyline points="474.9,102.6 458.8,98.7 444.9,95.4"/>
    <polyline points="474.6,104.9 473.6,104.7 473.2,104.7 472.8,104.6 471.9,104.6 471.1,104.5 470.3,104.6 469.3,104.6 468.4,104.7 467.5,104.9 466.8,105.1 466.6,105.1 464.7,105.6 462.8,106.0 461.7,106.2 460.6,106.4 459.7,106.4 458.8,106.4 457.9,106.3 457.0,106.1 456.3,106.0 455.0,105.6 453.0,105.2 447.4,103.8 441.7,102.5"/>
    <polyline points="475.3,104.8 475.1,104.8 473.1,104.3 469.9,103.5 467.1,102.8 466.4,102.7 464.9,102.3 463.3,102.0 461.9,101.8 459.9,101.6 459.0,101.5 458.2,101.3 457.8,101.2 443.8,97.9"/>
    <polyline points="464.8,104.8 464.2,104.9 463.7,105.0 462.4,105.3 461.4,105.6 460.3,105.8 459.1,105.9 457.8,106.0 456.5,105.9 455.9,105.8 455.0,105.6"/>
    <polyline points="469.9,103.5 469.0,103.4 468.4,103.3 463.5,102.7 460.5,102.4 458.7,102.1 457.9,102.0 457.5,101.9 443.5,98.5"/>
    <polyline points="-7.7,618.9 -6.4,617.3 8.7,599.3 27.3,577.0 39.3,562.8 41.9,559.4 54.5,541.8 59.4,534.8"/>
    <polyline points="45.1,553.7 46.9,551.2 48.4,548.9 51.1,544.6 53.9,540.2 55.7,537.4"/>
    <polyline points="75.6,513.4 73.5,515.8 70.7,519.3 68.1,522.8 64.1,528.3 59.4,534.8"/>
    <polyline points="122.2,472.0 115.3,477.4"/>
    <polyline points="554.7,63.6 554.2,62.1 553.7,61.1 553.2,60.3 552.8,59.7 552.3,59.0 551.6,57.9 549.3,54.2 547.0,51.0 546.5,50.3 545.7,49.0 545.2,47.8 545.1,47.5"/>
    <polyline points="416.1,310.3 416.8,310.0 418.4,309.4 419.3,309.0 420.8,308.3 422.1,307.7 422.7,307.3 423.3,306.9 423.8,306.6 424.5,306.2 425.0,305.9 431.4,302.9 438.6,299.7 441.4,298.4 443.3,297.7 443.8,297.4 445.8,296.6 447.6,295.8 450.0,294.6 450.7,294.2 451.5,293.5 452.1,293.0 452.7,292.2 453.1,291.7 453.4,291.2 453.6,290.7 454.6,289.0 469.3,261.2 472.0,256.0 475.8,248.7 478.7,243.3 479.3,242.2 479.8,241.4 480.0,241.0 480.2,240.7 480.5,240.4 480.9,240.0 485.2,236.9"/>
    <polyline points="553.6,63.7 554.8,67.2 555.9,70.7 557.0,73.0 557.3,74.2 557.5,75.3 557.6,76.2 557.6,77.3 557.6,78.5 557.5,79.0 557.3,79.4 557.2,79.7 556.7,80.3 556.2,80.8 555.5,81.5 554.8,82.2 554.6,82.4"/>
    <polyline points="553.7,83.5 555.7,81.6 556.0,81.3 556.6,80.9 557.0,80.3 557.4,79.8 557.6,79.3 557.7,78.8 557.8,78.2 557.8,76.8 557.8,75.7 557.7,74.6 557.4,73.3 557.3,72.5 557.3,71.7 557.1,70.7 556.0,67.4 554.7,63.6"/>
    <polyline points="668.0,370.0 671.6,371.0 672.0,371.2 672.4,371.3 672.7,371.4 673.0,371.5 673.5,371.8 674.5,372.4 674.8,372.5 675.3,372.7 675.8,372.9 678.7,373.7 682.9,374.9"/>
    <polyline points="376.9,337.9 381.9,334.8 386.1,331.8 389.9,328.9 393.1,326.3 406.7,314.6 407.3,314.1 408.6,313.3 409.2,313.0 416.1,310.3"/>
    <polyline points="345.4,354.5 344.4,354.3 343.6,354.0 342.7,353.8 340.3,353.0 339.6,352.7 338.9,352.4 338.4,352.3 337.9,352.1 337.3,352.0 335.0,351.5 326.5,349.4 314.6,346.6 309.9,345.2 307.4,344.6 304.8,344.0 302.3,343.3 300.3,342.6 298.4,342.0 296.6,341.3 294.6,340.5 293.0,339.7 291.7,339.0 290.5,338.3 289.8,337.9 277.7,329.1 276.8,328.5 275.7,328.0 274.8,327.5 273.5,327.0 271.3,326.5 270.2,326.2 268.7,326.0 266.8,325.8 265.1,325.7 263.1,325.6"/>
    <polyline points="375.4,338.2 367.1,344.4 359.6,349.2 352.8,353.6 352.0,354.1 350.7,354.6 349.4,354.8 347.9,354.8 346.4,354.6 345.4,354.5"/>
    <polyline points="316.9,369.5 312.7,378.9 311.8,380.4 310.1,384.1 306.8,392.0 306.4,393.4 305.8,395.8 305.4,397.0 304.9,398.4 303.3,401.8 302.6,403.0 301.7,403.9 300.9,404.4 300.0,404.9"/>
    <polyline points="317.4,369.6 318.5,367.6 320.4,364.6 321.3,363.5 322.1,362.6 323.9,360.8 325.0,360.0 327.0,358.7 329.1,357.5 331.3,356.5 333.6,355.6 335.3,355.0 337.1,354.5 339.2,354.1 341.4,354.1 343.9,354.2 345.4,354.5"/>
    <polyline points="122.2,472.0 142.4,456.7 147.1,453.0 148.7,452.0 151.1,450.8 152.6,450.1 155.6,449.1 157.5,448.4 160.2,447.7 161.7,447.4 163.6,447.2 169.7,446.7 170.0,446.7 181.8,445.9 187.7,445.6 194.9,445.2 198.6,445.0 206.2,444.7 209.8,444.5 225.0,443.6 227.7,443.5"/>
    <polyline points="275.0,414.9 276.6,414.1 277.4,413.6 278.4,412.7 278.8,412.2 279.4,411.0 284.8,391.9 290.2,372.9"/>
    <polyline points="125.3,99.8 124.1,98.0 122.7,96.4 120.8,94.7"/>
    <polyline points="120.8,94.7 111.8,86.9"/>
    <polyline points="111.8,86.9 108.4,83.8 107.2,82.6"/>
    <polyline points="107.2,82.6 105.1,80.8"/>
    <polyline points="99.5,75.9 97.3,74.0 89.0,66.8 85.0,63.3 84.4,62.8 79.9,58.8"/>
    <polyline points="99.5,75.9 97.8,74.1 97.0,73.2 96.2,72.2 95.5,71.1 95.1,70.3 94.7,69.3 94.4,68.1 94.4,67.3"/>
    <polyline points="115.3,477.4 109.4,481.9 105.9,484.8 103.6,486.8 95.6,494.0 93.5,495.9 88.4,500.5 84.2,504.5 80.7,507.9 78.3,510.4 75.6,513.4"/>
    <polyline points="115.1,477.2 109.2,481.8 105.7,484.6 103.4,486.5 95.3,493.9 93.3,495.7 88.2,500.4 86.3,502.1 83.9,504.4 82.2,506.0 80.4,507.8 78.1,510.2 75.4,513.2"/>
    <polyline points="263.1,325.6 262.1,325.6 261.1,325.6 260.4,325.7 259.4,325.7 258.3,325.8 257.3,326.0 255.0,326.6 252.2,327.1 247.2,328.1 242.4,329.1 241.3,329.4 240.6,329.6 240.0,329.8 238.9,330.2 237.6,330.5 236.4,330.8 235.1,331.1 233.3,331.5 225.5,332.9 223.5,333.1 213.3,335.2 198.4,338.0 197.5,338.2 163.1,344.2 161.9,344.3 160.6,344.3 159.5,344.2 158.2,344.1 157.6,344.0 156.4,343.8 153.7,343.4 152.2,343.1 150.1,342.7 148.5,342.4 146.6,342.1 142.9,341.5 133.3,339.8 133.2,339.8 131.8,339.6 130.6,339.5 129.4,339.3 128.3,339.2 127.3,339.1 126.4,339.0 125.9,339.0 125.2,338.9 123.7,338.7 101.4,334.9 86.8,332.4 80.2,331.2 79.1,330.9 77.7,330.4 76.6,329.8 75.8,329.2 75.0,328.5 74.0,327.7 73.0,326.9 71.5,326.0 69.6,325.2 67.4,324.6 53.6,321.6 37.4,317.9 14.4,312.6 12.1,312.1 10.3,311.7 5.2,310.3 2.5,309.5 -0.4,308.7 -16.5,303.8 -41.6,295.9 -42.0,295.9 -45.1,294.9 -48.7,293.8 -50.5,293.3 -54.6,292.1 -69.0,287.7 -73.1,286.4 -74.7,286.0 -75.6,285.7 -86.4,282.3 -95.9,279.5 -104.4,277.0 -113.2,274.4"/>
    <polyline points="505.5,127.9 505.4,127.2 505.4,126.6 505.3,126.0 505.3,125.7 505.2,125.2 505.2,124.8 505.1,124.0 504.9,123.0 504.6,121.8 504.3,120.7 504.0,119.8 503.3,118.7"/>
    <polyline points="474.4,187.1 474.8,185.8"/>
    <polyline points="475.5,184.5 476.6,183.2"/>
    <polyline points="455.1,287.3 454.6,289.0"/>
    <polyline points="668.0,370.0 670.9,370.4"/>
    <polyline points="654.1,365.9 656.1,366.8"/>
    <polyline points="458.1,295.6 460.3,296.4"/>
    <polyline points="445.1,297.7 442.9,299.1"/>
    <polyline points="446.3,297.2 447.2,296.6 447.7,296.3 448.7,295.4 449.2,295.1 450.0,294.6"/>
    <polyline points="421.1,308.4 423.2,307.9 423.3,307.9"/>
    <polyline points="413.4,311.1 411.6,312.1"/>
    <polyline points="111.8,86.9 109.1,84.8"/>
    <polyline points="87.7,66.1 85.7,63.9"/>
    <polyline points="84.4,62.8 80.9,60.2"/>
    <polyline points="471.1,104.5 469.9,104.5 468.3,104.6 466.7,104.6 464.9,104.8 464.8,104.8 462.2,105.1 460.7,105.3 459.2,105.3 457.7,105.1 456.5,104.9 456.2,104.8 442.2,101.5"/>
    <polyline points="470.2,104.3 469.4,104.3 468.8,104.3 467.9,104.3 466.8,104.3 462.1,104.9 460.5,105.0 459.1,105.0 457.5,104.8 456.5,104.6 456.3,104.5 442.3,101.2"/>
    <polyline points="466.2,104.1 465.3,104.1 464.3,104.3 462.0,104.5 460.5,104.7 459.2,104.6 458.0,104.5 456.8,104.2 456.5,104.1 442.4,100.8"/>
    <polyline points="473.2,104.7 472.1,104.5 470.9,104.4 470.2,104.3 469.0,104.2 467.6,104.1 466.4,104.1 466.2,104.1 462.6,104.2 460.6,104.3 459.1,104.3 457.9,104.2 456.8,104.0 456.6,103.9 442.6,100.6"/>
    <polyline points="463.8,103.7 462.4,103.8 460.6,103.9 459.3,103.9 458.0,103.8 456.8,103.5 442.7,100.1"/>
    <polyline points="472.4,104.4 471.4,104.2 470.9,104.1 469.5,103.9 468.3,103.8 466.8,103.8 463.8,103.7 459.7,103.7 458.3,103.6 457.2,103.3 456.9,103.2 442.9,99.9"/>
    <polyline points="463.2,103.2 462.0,103.3 461.1,103.3 459.9,103.3 458.7,103.2 457.3,102.9 457.1,102.8 443.0,99.5"/>
    <polyline points="463.5,102.7 462.8,102.7 462.2,102.7 460.7,102.7 459.7,102.6 458.5,102.5 457.7,102.3 457.4,102.2 443.3,98.9"/>
    <polyline points="467.1,102.8 466.3,102.7 465.6,102.6 464.3,102.5 460.8,102.1 459.1,101.9 458.0,101.6 457.7,101.6 443.6,98.2"/>
    <polyline points="463.3,101.7 462.5,101.5 461.7,101.4 460.5,101.2 459.2,101.0 458.4,100.8 458.0,100.8 444.0,97.4"/>
    <polyline points="470.5,103.4 469.3,103.1 468.6,102.9 463.3,101.7 458.5,100.5 458.2,100.4 444.1,97.1"/>
    <polyline points="466.3,102.0 465.6,101.8 464.7,101.6 458.7,100.1 458.4,100.0 444.3,96.7"/>
    <polyline points="501.1,117.0 500.4,116.1 499.5,115.1 498.4,114.1 497.2,113.1 495.6,112.1 494.3,111.3 493.1,110.6 491.8,110.0 490.2,109.4 488.8,108.9 487.2,108.5 486.1,108.2 485.3,108.0 484.6,107.7 484.0,107.4 483.3,107.1 482.3,106.8"/>
    <polyline points="491.5,109.4 490.4,108.9 489.2,108.5 487.8,108.1 485.4,107.5 482.3,106.8 481.3,106.5 475.4,105.1 474.6,104.9"/>
    <polyline points="503.3,118.7 502.8,117.7 502.2,116.8 501.6,116.1 500.8,115.2 500.1,114.4 499.3,113.7 498.4,112.9 497.4,112.2 496.4,111.5 495.2,110.8 494.1,110.2 492.9,109.6 491.7,109.1"/>
    <polyline points="491.7,109.1 490.4,108.6 488.8,108.1 487.5,107.8 486.1,107.4 480.7,106.1 479.0,105.7 477.7,105.4 475.3,104.8"/>
    <polyline points="475.4,105.1 477.7,105.4"/>
    <polyline points="479.0,105.7 481.3,106.5"/>
    <polyline points="129.1,339.7 142.7,342.0 152.4,343.7"/>
    <polyline points="262.7,326.1 264.5,326.3 265.8,326.3 266.8,326.4 268.7,326.5 270.3,326.8 271.7,327.1 273.3,327.6 274.5,328.1 276.0,328.8 277.3,329.4 285.3,335.3 287.2,336.6 289.4,338.1 290.7,338.9 291.7,339.5 293.1,340.1 295.1,341.0 297.1,341.7 298.3,342.1 300.4,342.7 302.2,343.3 304.8,344.0 307.4,344.6 309.9,345.3 313.4,346.3 326.9,349.5 335.0,351.5 337.3,352.0 337.9,352.1 338.4,352.3 338.9,352.4 339.6,352.7 340.3,353.0 342.7,353.8 343.6,354.0 344.4,354.3 345.4,354.5"/>
    <polyline points="157.6,344.0 155.6,343.9 154.6,343.9 153.1,343.8 152.4,343.7"/>
    <polyline points="152.4,343.7 153.0,343.8 153.8,344.0 155.2,344.4 156.2,344.6 157.1,344.8"/>
    <polyline points="129.1,339.7 128.4,339.6 127.3,339.3 125.9,339.0"/>
    <polyline points="125.0,339.3 126.3,339.4 127.3,339.6 128.4,339.7 129.1,339.7"/>
    <polyline points="96.7,57.5 98.9,51.4 99.3,49.9 99.7,48.5 99.9,47.2 100.1,45.7 100.3,44.2 100.3,41.9 100.0,40.4 99.5,38.9 98.8,37.0 98.4,35.9"/>
    <polyline points="98.0,35.9 98.4,36.8 99.0,38.5 99.6,40.4 99.8,41.6 99.9,43.0 99.9,44.2 99.8,45.7 99.6,47.2 99.3,48.4 99.0,49.7 98.4,51.6 96.8,56.2 96.4,57.4"/>
    <polyline points="502.3,134.8 502.6,133.4"/>
    <polyline points="441.2,298.2 443.8,297.4"/>
    <polyline points="515.4,116.8 518.2,116.1"/>
    <polyline points="554.8,82.2 556.0,81.3"/>
    <polyline points="553.7,83.5 554.6,82.4"/>
    <polyline points="552.3,59.8 551.6,57.9"/>
    <polyline points="554.6,82.4 535.3,100.5 534.4,101.3 533.6,102.0 533.0,102.4 532.2,103.1 531.5,103.7 528.7,106.3 521.7,112.9 520.6,113.9 520.0,114.5 519.4,114.9 518.7,115.4 518.0,115.8 515.4,116.8 512.9,117.7 511.6,118.2"/>
    <polyline points="416.0,310.1 413.4,311.1 412.7,311.4 408.4,313.0 406.8,313.7 405.4,314.5 392.6,325.6 389.3,328.3 387.8,329.5 384.1,332.2 375.4,338.2"/>
    <polyline points="-113.5,274.8 -95.3,280.2 -93.5,280.7 -86.9,282.7 -79.3,285.0 -73.3,286.8 -54.5,292.6 -49.0,294.2 -23.8,301.7 -16.9,304.0 -0.5,309.1 2.3,309.9 5.0,310.6 10.0,312.0 11.9,312.4 19.4,314.1 37.1,318.2 53.3,321.9 64.2,324.2 67.4,324.9 69.3,325.4 70.5,325.9 71.5,326.4 72.9,327.3 73.7,327.9 74.4,328.5 75.1,329.2 75.7,329.7 76.4,330.2 77.3,330.6 78.5,331.1 79.6,331.4 80.9,331.7 86.5,332.7 101.2,335.2 123.8,339.0 125.0,339.3 125.2,339.3 126.4,339.6 127.6,339.8 128.2,340.0 129.0,340.2 129.4,340.3 130.4,340.5 132.9,340.9 142.4,342.5 146.3,343.2 148.0,343.5 150.2,343.9 151.9,344.2 153.5,344.4 155.8,344.7 157.1,344.8 157.8,344.8 159.3,344.9 160.7,344.9 162.1,344.9 163.4,344.8 184.0,340.8 198.5,338.3 213.5,335.5 225.9,333.2 233.5,331.7 235.8,331.3 236.6,331.1 237.5,330.9 239.0,330.7 240.7,330.4 247.5,328.9 252.5,327.9 255.4,327.3 257.6,326.6 258.5,326.4 259.3,326.3 260.0,326.2 260.7,326.1 261.3,326.1 262.7,326.1"/>
    <polyline points="279.5,409.4 279.6,410.4"/>
    <polyline points="279.5,410.7 279.3,411.0 278.7,411.8"/>
  </g>

  <!-- 지하철 역 -->
  <g>
    <circle cx="98.9" cy="490.1" r="3" fill="#dc2626" stroke="#fff" stroke-width="1"/>
    <circle cx="128.3" cy="152.8" r="3" fill="#dc2626" stroke="#fff" stroke-width="1"/>
    <circle cx="176.3" cy="214.8" r="3" fill="#dc2626" stroke="#fff" stroke-width="1"/>
    <circle cx="211.1" cy="259.7" r="3" fill="#dc2626" stroke="#fff" stroke-width="1"/>
    <circle cx="285.6" cy="361.7" r="3" fill="#dc2626" stroke="#fff" stroke-width="1"/>
    <circle cx="138.7" cy="460.0" r="3" fill="#dc2626" stroke="#fff" stroke-width="1"/>
    <circle cx="210.3" cy="443.8" r="3" fill="#dc2626" stroke="#fff" stroke-width="1"/>
    <circle cx="555.8" cy="67.9" r="3" fill="#dc2626" stroke="#fff" stroke-width="1"/>
    <circle cx="526.7" cy="110.9" r="3" fill="#dc2626" stroke="#fff" stroke-width="1"/>
    <circle cx="498.1" cy="142.5" r="3" fill="#dc2626" stroke="#fff" stroke-width="1"/>
    <circle cx="465.0" cy="204.2" r="3" fill="#dc2626" stroke="#fff" stroke-width="1"/>
    <circle cx="469.2" cy="261.0" r="3" fill="#dc2626" stroke="#fff" stroke-width="1"/>
    <circle cx="431.7" cy="303.3" r="3" fill="#dc2626" stroke="#fff" stroke-width="1"/>
    <circle cx="387.8" cy="328.1" r="3" fill="#dc2626" stroke="#fff" stroke-width="1"/>
    <circle cx="141.5" cy="342.0" r="3" fill="#dc2626" stroke="#fff" stroke-width="1"/>
    <circle cx="60.3" cy="323.2" r="3" fill="#dc2626" stroke="#fff" stroke-width="1"/>
    <circle cx="639.8" cy="348.5" r="3" fill="#dc2626" stroke="#fff" stroke-width="1"/>
    <circle cx="572.8" cy="326.8" r="3" fill="#dc2626" stroke="#fff" stroke-width="1"/>
    <circle cx="311.1" cy="383.9" r="3" fill="#dc2626" stroke="#fff" stroke-width="1"/>
    <circle cx="508.7" cy="309.3" r="3" fill="#dc2626" stroke="#fff" stroke-width="1"/>
    <circle cx="103.0" cy="79.2" r="3" fill="#dc2626" stroke="#fff" stroke-width="1"/>
    <circle cx="680.6" cy="373.3" r="3" fill="#dc2626" stroke="#fff" stroke-width="1"/>
    <circle cx="262.3" cy="419.8" r="3" fill="#dc2626" stroke="#fff" stroke-width="1"/>
  </g>
</svg>