<?xml version="1.0" encoding="UTF-8"?>
<svg width="800" height="600" xmlns="http://www.w3.org/2000/svg">
  <title>Vancouver Subway Map</title>
  <rect width="100%" height="100%" fill="#f8f9fa"/>

  <!-- 지하철 선로 -->
  <g stroke="#2563eb" stroke-width="2" fill="none" opacity="0.8">
    <polyline points="494.2,294.5 494.2,295.0 494.2,295.6 494.2,296.2 494.3,296.6 494.3,296.9 494.4,297.4 494.5,298.0 494.7,298.9 494.9,299.6 495.2,300.5 495.4,301.1 495.8,301.9 496.2,302.7 496.7,303.4 497.2,304.1 499.0,306.2 501.7,309.2 502.9,310.5 504.1,311.8 505.3,313.0 506.5,314.2 508.2,315.4 510.5,316.8"/>
    <polyline points="370.7,173.1 368.6,171.8 361.9,168.2 360.5,167.5 360.1,167.3 359.8,167.2 356.9,166.1 356.0,165.9 354.5,165.5"/>
    <polyline points="583.3,282.1 581.7,282.4 578.8,283.0 576.9,283.3 575.6,283.5 572.1,284.2 570.8,284.3 568.3,284.7 567.2,284.8 565.8,285.1 564.2,285.4 561.9,285.8 560.2,286.2 558.7,286.5 556.9,286.8 555.2,287.2 553.1,287.7 551.7,288.0 548.9,288.6 546.6,289.1 545.0,289.4 543.4,289.8 542.2,290.0 541.1,290.1 540.0,290.2 539.0,290.2"/>
    <polyline points="357.3,185.3 353.9,188.5 352.5,189.7 351.6,190.7 348.7,193.4 345.7,196.3 340.5,201.1 337.6,203.9 336.4,205.2 335.5,206.7 335.0,208.3 334.8,209.9 334.9,211.6 335.2,213.0 335.5,213.9 336.0,214.9 336.7,215.9 337.6,216.9 339.2,218.4 342.4,221.4 343.4,222.4 346.9,225.7 347.8,226.7 348.5,227.8 350.2,231.0 352.5,236.7 354.3,241.6 354.9,242.9 360.3,250.7 360.9,251.9 361.7,253.9 362.6,256.2 362.9,257.2 363.3,258.8 363.4,260.0 363.5,261.2 363.5,264.6 363.5,265.9 363.5,267.2 363.4,269.4 363.2,272.1 362.7,276.1 361.7,317.7 361.7,322.1 361.7,323.9 361.8,325.6 362.0,328.7 362.1,330.2 362.0,331.7"/>
    <polyline points="357.3,479.2 357.2,484.5"/>
    <polyline points="355.5,510.8 355.2,516.6 354.8,522.2 354.5,526.8 354.4,527.3 354.4,527.5"/>
    <polyline points="354.4,527.5 354.3,527.9 354.3,528.3 354.1,528.7 354.0,529.1 353.9,529.5 353.8,529.9 353.6,530.2 353.4,530.7 353.1,531.0 352.9,531.4 352.6,531.8 352.3,532.1 351.8,532.7 350.1,534.9 348.8,536.4 348.5,536.8 348.2,537.2 347.8,537.6 347.4,537.9"/>
    <polyline points="260.1,549.8 258.3,551.3"/>
    <polyline points="582.3,359.5 585.6,361.6 592.1,365.4 597.4,368.4 601.1,370.6 603.2,371.9 607.1,374.1 611.9,377.6 616.1,380.5 619.4,382.7 623.4,385.3 627.9,388.3 629.2,389.0 632.9,391.0 634.8,392.1 643.0,397.5 648.0,400.8"/>
    <polyline points="271.5,543.2 268.8,543.9 268.2,544.0 267.7,544.2 267.2,544.4 266.7,544.6 266.3,544.9 265.8,545.2 265.4,545.5 264.4,546.3 262.8,547.6 260.1,549.8"/>
    <polyline points="539.0,290.2 537.9,290.2 536.8,290.1 536.2,290.1 535.3,289.9 534.8,289.9 534.0,289.7"/>
    <polyline points="491.6,266.8 490.6,266.5 489.7,266.2 489.1,266.0 488.6,265.9 487.7,265.6 487.2,265.4 486.7,265.2 486.2,265.0 485.1,264.5"/>
    <polyline points="336.9,540.6 339.9,539.0 340.3,538.9 340.6,538.7 341.0,538.6 341.3,538.5 341.9,538.3 342.2,538.3 342.6,538.2"/>
    <polyline points="341.8,537.9 342.1,537.8 342.4,537.8 349.1,536.1"/>
    <polyline points="346.9,540.0 345.7,540.7 345.5,540.8 345.3,540.9 345.1,541.1 344.8,541.3"/>
    <polyline points="337.3,538.5 337.6,538.3 337.9,538.3 338.1,538.2 338.8,538.1 339.3,537.9 339.6,537.9 339.9,537.9 340.1,537.9 340.3,537.9 340.7,537.9 341.6,538.0 343.4,538.1 344.1,538.1 344.9,538.2 345.5,538.2 345.9,538.3 346.4,538.3"/>
    <polyline points="336.1,541.3 340.8,538.8 341.1,538.7 341.4,538.6 341.6,538.6 341.8,538.5 342.1,538.5 342.8,538.4 343.7,538.4"/>
    <polyline points="342.8,538.4 342.3,538.5 342.1,538.6 341.8,538.6 341.6,538.7 341.4,538.8 341.2,538.9 336.3,541.5"/>
    <polyline points="341.4,543.5 341.8,543.3 342.0,543.1 342.6,542.7 343.2,542.2 343.4,542.0 343.7,541.7 343.9,541.5 344.1,541.4 344.3,541.2 344.5,541.1 344.7,541.0 344.9,540.9 345.5,540.5 345.7,540.4"/>
    <polyline points="338.8,538.1 338.2,538.3 337.4,538.6 337.1,538.8 336.9,538.9 336.7,539.1 336.5,539.3 336.3,539.6 336.1,539.8 335.9,540.1 335.9,540.3 335.8,540.6 335.7,540.9 335.7,541.2 335.7,541.5 335.7,541.8 335.8,542.0 335.9,542.3 336.0,542.5 336.1,542.7 336.2,543.0 336.4,543.2 336.6,543.4 336.9,543.6 337.2,543.8 337.4,543.9 337.7,544.1 337.9,544.1 338.3,544.2 338.6,544.3 338.9,544.3 339.2,544.3 339.5,544.2 339.8,544.1 340.1,544.0 340.3,543.9 340.6,543.8 340.8,543.7 341.0,543.5 341.2,543.3 341.7,542.7 342.2,542.2 342.8,541.5"/>
    <polyline points="345.5,539.9 343.8,540.8 343.6,540.9 343.4,541.0 343.2,541.2 343.0,541.3 342.8,541.5"/>
    <polyline points="339.0,537.8 338.8,537.8 338.6,537.9 337.3,538.5 337.0,538.6 336.7,538.8 336.5,538.9 336.4,539.1 336.2,539.2 336.0,539.5 335.8,539.7 335.7,539.9 335.6,540.2 335.5,540.4 335.5,540.7 335.4,540.9 335.4,541.2 335.4,541.5 335.5,541.8 335.5,542.1 335.6,542.4 335.8,542.6 335.9,542.9 336.1,543.1 336.3,543.3 336.5,543.5 336.7,543.7 337.0,543.9 337.2,544.1 337.5,544.2 337.9,544.3 338.2,544.4 338.5,544.4 338.8,544.4 339.2,544.4 339.5,544.4 339.8,544.3 340.1,544.2 340.4,544.1 340.7,543.9 341.3,543.6"/>
    <polyline points="342.2,542.2 342.5,541.9 342.7,541.7 343.0,541.5 343.2,541.4 343.4,541.3 343.5,541.2 345.6,540.1"/>
    <polyline points="338.1,544.8 338.4,544.8 338.5,544.8 338.7,544.8 339.0,544.8 339.2,544.8 339.5,544.7 339.8,544.6 340.0,544.5 340.3,544.3 340.5,544.2 340.7,544.0 340.9,543.8 341.3,543.6"/>
    <polyline points="344.8,541.4 347.0,540.2"/>
    <polyline points="344.4,539.4 343.7,539.9 343.4,540.1 343.2,540.2 343.1,540.4 342.9,540.6 342.7,540.8 342.6,541.0 342.4,541.4 342.2,541.8 342.0,542.1 341.8,542.4 341.7,542.7 341.5,542.9 341.2,543.3"/>
    <polyline points="336.3,541.7 341.3,539.0 341.5,538.9 341.9,538.8 342.1,538.7 342.9,538.5 343.2,538.4 343.7,538.4"/>
    <polyline points="341.8,537.9 342.4,537.8 342.7,537.8 343.0,537.8 343.3,537.7 345.6,537.1 349.2,536.2"/>
    <polyline points="344.1,538.1 343.7,538.1 343.4,538.1 342.6,538.2 341.9,538.3 341.6,538.3 341.4,538.3 341.1,538.4 340.8,538.5 340.6,538.6 340.3,538.7 336.9,540.5"/>
    <polyline points="345.5,540.5 345.2,540.7 345.0,540.9 344.8,541.0 344.6,541.2 344.4,541.4 343.8,542.0 343.6,542.2 343.3,542.4"/>
    <polyline points="569.9,352.1 582.3,359.5"/>
    <polyline points="560.3,346.6 561.0,347.0 562.4,347.8 563.7,348.6 569.9,352.1"/>
    <polyline points="464.4,257.0 462.5,256.5 461.5,256.3 459.8,255.9 458.0,255.5"/>
    <polyline points="673.5,417.7 675.9,419.2 678.1,420.7 679.2,421.4 680.7,422.4 681.4,422.9 681.6,423.0 683.1,424.0 683.7,424.3 684.4,424.8 685.2,425.4 685.6,425.7 687.2,426.9"/>
    <polyline points="332.4,547.1 333.2,546.5 333.7,546.0 334.3,545.4 334.8,545.0 335.4,544.5"/>
    <polyline points="556.9,344.5 558.8,345.7"/>
    <polyline points="539.7,334.2 548.6,339.5 554.4,343.0 555.7,343.8 556.9,344.5"/>
    <polyline points="388.5,207.7 388.0,207.6 387.6,207.5 387.4,207.5 387.2,207.4 387.0,207.3 386.8,207.3 386.4,207.1 386.0,206.9 385.7,206.8 385.4,206.6 385.1,206.4 384.8,206.3 384.5,206.0 384.2,205.8 384.0,205.6 383.7,205.4 382.9,204.7 381.7,203.5 381.5,203.3 379.2,201.1 378.1,200.1"/>
    <polyline points="377.1,199.7 377.4,200.0"/>
    <polyline points="377.7,177.2 374.9,175.6 372.1,173.9"/>
    <polyline points="374.7,175.6 373.4,174.9 372.1,173.9"/>
    <polyline points="374.7,175.6 376.6,176.7 377.7,177.4 378.8,177.9"/>
    <polyline points="370.5,173.3 371.1,173.7 372.7,174.7"/>
    <polyline points="354.4,165.6 358.1,166.9 359.5,167.3 359.9,167.5 360.3,167.6 360.5,167.8 365.6,170.5 368.1,171.9 370.5,173.3"/>
    <polyline points="356.9,166.1 358.1,166.9"/>
    <polyline points="372.1,173.9 371.3,173.4 370.7,173.1"/>
    <polyline points="377.7,199.7 377.4,199.5 377.3,199.4 377.1,199.2 376.7,199.0 376.4,198.7 376.1,198.6 375.7,198.4 374.7,197.9 374.2,197.6 373.7,197.4 373.2,196.9 365.7,189.9 359.7,184.5 356.2,181.3 355.5,180.7 351.2,177.0 349.0,175.0 348.1,174.1"/>
    <polyline points="347.4,537.9 347.0,538.3 346.6,538.5 346.2,538.8 345.8,539.1 345.3,539.4 344.2,540.0 342.3,540.9 338.8,542.7"/>
    <polyline points="316.6,551.3 314.5,549.9 313.7,549.5 312.8,549.0 312.2,548.7 311.6,548.4 310.9,548.1 310.3,547.9 309.7,547.8 309.1,547.6 308.4,547.5 296.6,545.5 285.9,543.7"/>
    <polyline points="318.2,552.4 318.6,552.6 319.1,552.7 319.5,552.8 319.9,552.9 320.4,553.0 320.8,553.0 321.2,553.0 321.8,553.0 322.3,552.9 322.7,552.8 323.1,552.7 323.5,552.6 324.0,552.4 324.4,552.3 324.9,552.0 325.7,551.5 326.7,550.8 328.2,549.8 330.0,548.7"/>
    <polyline points="807.9,475.9 807.2,474.3 806.5,473.1 805.9,471.8 805.5,471.3 804.8,470.4 804.2,469.8 803.6,469.3 802.9,468.8 802.0,468.4 801.2,468.0 800.2,467.7 799.2,467.6 797.4,467.4 795.9,467.5 790.1,467.8 786.6,467.9 782.9,468.1 780.9,468.1 779.8,468.2 778.7,468.1 777.7,468.1 776.8,468.0 775.7,467.8 774.2,467.5 773.2,467.1 772.1,466.7 771.2,466.2 764.9,462.1 758.6,457.7 757.3,456.9 755.4,455.7 754.1,455.0 753.1,454.5 751.8,454.0 750.0,453.4 746.4,452.3 734.3,448.9 732.9,448.4 731.1,447.9 729.7,447.4 727.6,446.7 725.6,446.1 723.5,445.5 720.3,444.6 718.1,443.9 715.0,443.0 712.6,442.3 711.0,441.7 710.1,441.4 709.2,441.0 708.3,440.5 707.2,440.0 706.1,439.4 705.4,439.0 702.9,437.5 699.9,435.4 696.0,432.9 693.9,431.3 692.7,430.5"/>
    <polyline points="692.5,430.7 693.7,431.5 695.9,433.0 699.8,435.6 702.9,437.6 704.8,438.7 706.7,440.0 709.0,441.1 710.2,441.6 711.2,441.9 712.3,442.3 725.5,446.5 733.9,448.9 746.9,452.6 751.2,453.9 752.9,454.5 754.4,455.3 755.7,456.0 756.8,456.7 757.9,457.4 763.5,461.3 769.2,465.2"/>
    <polyline points="648.1,400.7 645.5,399.0 642.2,396.9 640.3,395.5 637.3,393.6 636.0,392.7 634.7,391.9 632.9,390.9 629.3,388.9 627.9,388.1 623.5,385.2 618.0,381.6 617.6,381.3 612.3,377.7 611.1,376.9 609.2,375.4 607.4,374.1 606.0,373.2 603.3,371.5 601.3,370.4 599.8,369.5 598.0,368.4 596.6,367.7 595.4,367.1 592.7,365.5 588.6,363.2 586.0,361.6 583.0,359.8 582.4,359.4"/>
    <polyline points="686.9,426.5 688.4,427.5 691.2,429.6"/>
    <polyline points="691.2,429.6 692.5,430.7"/>
    <polyline points="685.8,425.4 686.9,426.5"/>
    <polyline points="619.4,382.7 618.0,381.6"/>
    <polyline points="617.6,381.3 616.1,380.5"/>
    <polyline points="582.4,359.4 578.2,356.9 563.7,348.2 562.7,347.6 561.1,346.6 560.5,346.3"/>
    <polyline points="559.0,345.4 557.1,344.2"/>
    <polyline points="557.1,344.2 555.4,343.3 553.0,342.0 550.6,340.6 545.6,337.6 542.8,335.9 539.8,334.1"/>
    <polyline points="490.6,265.3 483.4,262.0 477.3,259.3 471.3,256.5 470.2,256.0 469.8,255.8 469.5,255.6 469.2,255.5 469.0,255.3 468.7,255.2 468.5,255.0 468.2,254.8 468.0,254.6 467.7,254.5 467.6,254.3 467.4,254.2 467.2,254.1 467.1,253.9 466.9,253.7 466.7,253.6 466.6,253.4 466.4,253.2 466.2,253.1 466.1,252.9 465.9,252.7 465.8,252.6 465.7,252.4 465.5,252.2 465.4,252.0 465.3,251.8 465.1,251.6 465.0,251.3 464.9,251.2 464.7,250.9 464.6,250.6 464.4,250.3 463.7,249.1 463.0,247.6 462.8,247.3 462.7,247.1 462.5,246.8 462.4,246.6 462.3,246.4 462.2,246.2 462.1,246.1 462.0,245.9 461.9,245.8 461.7,245.6 461.6,245.4 461.4,245.2 461.3,245.0 461.2,244.8 461.0,244.7 460.9,244.5 460.8,244.4 460.6,244.2 460.4,244.0 460.2,243.9 460.0,243.7 459.8,243.5 459.5,243.2 459.2,243.1 458.9,242.9 458.7,242.7 458.3,242.5 458.0,242.3 457.8,242.2 457.4,242.0 457.2,241.9 456.9,241.8 456.7,241.7 456.3,241.5 456.0,241.4 455.7,241.3 455.3,241.2 455.1,241.1 454.5,240.9 448.0,238.9 447.4,238.7 447.0,238.6 446.6,238.5 446.2,238.3 445.8,238.2 445.5,238.2 445.3,238.1 445.0,238.0"/>
    <polyline points="512.2,317.7 514.4,319.1 516.6,320.4"/>
    <polyline points="516.6,320.4 518.1,321.1"/>
    <polyline points="512.2,317.7 510.8,317.0"/>
    <polyline points="444.9,238.1 445.2,238.2 445.6,238.3 446.0,238.4 446.4,238.5 446.9,238.7 447.3,238.8 447.8,239.0 451.2,240.0 454.3,241.0 455.0,241.2 455.4,241.3 455.6,241.4 455.8,241.5 456.0,241.6 456.3,241.6 456.5,241.7 456.8,241.8 457.0,242.0 457.2,242.1 457.6,242.2 457.8,242.4 458.0,242.5 458.2,242.6 458.3,242.7 458.5,242.8 458.7,242.9 458.9,243.0 459.2,243.3 459.4,243.4 459.7,243.6 459.9,243.8 460.1,243.9 460.2,244.1 460.4,244.3 460.6,244.4 460.8,244.7 460.9,244.8 461.1,245.0 461.3,245.2 461.5,245.5 461.7,245.7 461.8,245.9 461.9,246.1 462.1,246.4 462.3,246.6 462.4,246.8 462.6,247.2 463.0,247.9 464.2,250.4 464.4,250.6 464.6,251.0 464.9,251.5 465.0,251.7 465.2,251.9 465.5,252.4 465.7,252.7 465.8,252.8 466.1,253.2 466.5,253.5 466.6,253.7 466.7,253.8 467.0,254.0 467.2,254.2 467.4,254.4 467.7,254.6 468.0,254.8 468.3,255.1 468.8,255.4 469.2,255.6 469.7,255.9 470.2,256.2 471.2,256.6 473.9,257.9 490.3,265.4"/>
    <polyline points="390.7,208.0 389.3,208.0"/>
    <polyline points="534.0,289.7 533.2,289.5 532.7,289.4 532.0,289.2 531.5,289.1 531.0,288.9 530.6,288.7 530.1,288.5 529.6,288.3 529.0,288.0 528.4,287.7 528.0,287.5 527.0,287.0 525.1,285.9 521.3,283.8 518.0,281.8 513.1,279.0 507.6,275.8 506.8,275.3 504.8,274.2 503.4,273.4 502.8,273.0 501.2,272.0 500.3,271.5 499.5,270.9 498.8,270.4 498.1,270.1 496.3,269.0 494.5,268.0 494.0,267.7 493.6,267.5 493.1,267.3 492.9,267.2 492.3,267.0 491.6,266.8"/>
    <polyline points="462.5,256.5 463.6,256.9"/>
    <polyline points="475.7,260.6 476.9,260.9"/>
    <polyline points="491.6,267.0 491.9,267.1 492.1,267.2 492.3,267.3 492.8,267.5 493.1,267.7 493.4,267.9 494.0,268.2 496.0,269.4 499.0,271.1 501.6,272.5 501.9,272.7 504.5,274.2 506.7,275.5 510.8,277.8 526.6,287.0 527.4,287.5 528.5,288.0 529.2,288.3 529.6,288.5 530.0,288.7 530.8,289.0 531.5,289.2 532.5,289.5 533.9,289.9 535.1,290.1 536.4,290.3 537.5,290.4 539.0,290.4"/>
    <polyline points="501.9,272.7 503.4,273.4"/>
    <polyline points="539.0,290.4 540.0,290.4 541.6,290.2 543.3,290.0 544.7,289.7 553.2,287.8 555.8,287.3 557.3,286.9 558.9,286.6 562.0,286.0 565.1,285.4 566.5,285.1 567.6,285.0 569.6,284.7 571.8,284.4 573.3,284.1 578.8,283.1 579.8,282.9 581.0,282.7 582.5,282.4 583.4,282.2"/>
    <polyline points="576.9,283.3 578.8,283.1"/>
    <polyline points="579.8,282.9 581.7,282.4"/>
    <polyline points="664.5,255.1 666.3,254.8"/>
    <polyline points="666.9,254.7 668.8,254.8"/>
    <polyline points="258.4,551.4 260.2,550.0"/>
    <polyline points="260.2,550.0 262.7,547.9"/>
    <polyline points="273.2,543.0 274.2,542.7 274.8,542.6 275.2,542.5 275.8,542.4 276.2,542.4 276.7,542.4 277.3,542.5 277.9,542.5 278.4,542.6 279.5,542.8 281.7,543.2"/>
    <polyline points="279.3,542.6 279.8,542.7 280.2,542.8 280.7,543.0 281.1,543.1 281.7,543.2"/>
    <polyline points="281.7,543.2 285.8,543.9"/>
    <polyline points="616.8,271.3 618.0,271.3 622.0,271.3 624.9,271.4 627.4,271.4 630.5,271.5 633.7,271.6 635.7,271.6 641.6,271.7 643.7,271.8 644.3,271.7 645.2,271.6 645.6,271.5 646.4,271.2 646.7,271.0 647.4,270.6 648.1,270.0 648.5,269.6 648.7,269.2 648.9,268.9 649.7,267.2 650.5,265.0 650.6,264.7 650.8,264.2 651.2,263.7 651.6,263.1 652.5,262.2 654.0,260.9 658.4,257.2 658.9,256.8 659.0,256.7 659.5,256.4 659.8,256.2 660.5,255.9 660.9,255.7 661.6,255.5 662.3,255.3 663.1,255.2 664.0,255.2 664.5,255.1 666.1,255.0 668.8,254.8 669.1,254.8 669.9,254.7 670.6,254.6 671.8,254.6 672.8,254.6 674.1,254.5 675.4,254.6 677.3,254.6 679.2,254.7 683.6,254.9 685.8,255.0 687.8,255.1 689.7,255.2 696.1,255.4 697.7,255.5 698.7,255.5 699.8,255.6 700.9,255.8 702.2,256.0 704.4,256.6 706.1,257.2 708.1,258.1 709.5,258.8 711.2,259.5 712.4,260.1 713.3,260.4 713.9,260.6 714.4,260.7 715.2,260.9 716.1,261.0 717.3,261.2 718.8,261.3 719.4,261.3"/>
    <polyline points="461.5,256.3 461.0,256.1 460.0,255.7 459.6,255.6 458.7,255.4 457.3,255.1 455.5,254.5"/>
    <polyline points="469.5,258.3 470.1,258.4 471.3,258.8 472.0,259.0 472.7,259.3 473.6,259.6 475.7,260.6 477.9,261.5 479.7,262.3 482.4,263.5 484.3,264.4 485.0,264.7"/>
    <polyline points="464.3,257.1 466.0,257.5 468.2,258.0 469.5,258.3"/>
    <polyline points="469.5,258.2 467.9,257.8 466.1,257.4 464.4,257.0"/>
    <polyline points="330.0,548.7 331.2,547.8 332.4,547.1 333.4,546.4 333.8,546.2 334.3,545.8 334.7,545.6 335.1,545.2 336.7,544.0 337.1,543.7 337.4,543.5 337.8,543.2 338.3,542.9 338.8,542.7"/>
    <polyline points="262.7,547.9 263.1,547.6 263.3,547.4 263.8,546.9 263.9,546.7 264.4,546.3"/>
    <polyline points="335.6,544.4 335.4,544.5 331.0,547.5 326.5,550.4 325.9,550.8"/>
    <polyline points="340.4,541.6 339.5,542.1 338.8,542.4 338.3,542.7 337.9,542.9 337.5,543.2 337.1,543.4 336.8,543.6 336.4,543.9 335.6,544.4"/>
    <polyline points="357.1,185.1 353.7,188.2 352.3,189.5 351.3,190.4 350.2,191.5 344.8,196.6 341.5,199.8 340.0,201.2 337.4,203.7 336.2,205.1 335.4,206.7 334.9,208.3 334.7,209.9 334.7,211.6 335.0,212.9 335.3,213.8 335.8,214.9 336.5,216.0 337.4,217.1 339.0,218.6 342.1,221.5 343.2,222.6 343.9,223.1 345.7,224.7 346.8,225.7 347.7,226.7 348.5,227.8 348.9,228.6 350.1,231.0 352.5,236.7 353.7,240.1 354.2,241.6 354.8,242.8 356.0,244.7 356.9,246.0 357.9,247.4 359.4,249.8 359.9,250.8 360.6,252.1 361.4,254.1 362.1,256.1 362.7,257.6 363.1,259.0 363.3,260.2 363.3,261.3 363.4,262.4 363.4,264.0 363.4,265.9 363.3,267.2 363.2,268.8 363.2,269.4 363.1,270.6 363.0,272.1"/>
    <polyline points="347.3,537.7 346.9,538.1 346.6,538.4 346.1,538.7 345.6,539.0 345.2,539.2 344.7,539.5 340.4,541.6"/>
    <polyline points="355.4,510.7 355.3,512.5 354.6,522.2 354.2,526.8 354.2,527.1"/>
    <polyline points="357.2,479.2 357.0,484.5"/>
    <polyline points="365.7,177.3 364.9,177.7 364.2,178.1"/>
    <polyline points="348.0,174.1 349.0,175.0 351.2,177.0 362.2,186.8 373.7,197.4 374.1,197.7 374.6,198.0 375.6,198.5 376.0,198.8 376.4,199.0 376.7,199.3 376.8,199.4 377.1,199.7 377.4,200.0"/>
    <polyline points="350.0,534.8 349.6,535.2 349.4,535.4 349.1,535.7 348.9,535.8 348.7,536.1 348.4,536.4 348.0,536.8 347.6,537.2 347.2,537.6 346.9,537.9 346.5,538.2 346.1,538.5 345.8,538.7 345.4,538.9 345.0,539.2"/>
    <polyline points="345.2,538.3 344.8,538.3 344.6,538.4 344.0,538.5 343.8,538.6 343.5,538.7 343.2,538.8 343.1,538.9 342.8,539.1 342.6,539.3 342.4,539.5 342.3,539.7 341.9,540.2 341.7,540.5 341.5,540.7 341.3,540.9 341.0,541.1 340.7,541.3 340.4,541.5"/>
    <polyline points="344.4,539.4 343.0,540.2 340.4,541.5 340.3,541.5"/>
  </g>

  <!-- 지하철 역 -->
  <g>
    <circle cx="654.1" cy="260.7" r="3" fill="#dc2626" stroke="#fff" stroke-width="1"/>
    <circle cx="404.5" cy="227.1" r="3" fill="#dc2626" stroke="#fff" stroke-width="1"/>
    <circle cx="687.7" cy="255.0" r="3" fill="#dc2626" stroke="#fff" stroke-width="1"/>
    <circle cx="370.7" cy="173.2" r="3" fill="#dc2626" stroke="#fff" stroke-width="1"/>
    <circle cx="494.3" cy="273.8" r="3" fill="#dc2626" stroke="#fff" stroke-width="1"/>
    <circle cx="331.3" cy="547.5" r="3" fill="#dc2626" stroke="#fff" stroke-width="1"/>
    <circle cx="725.9" cy="446.4" r="3" fill="#dc2626" stroke="#fff" stroke-width="1"/>
    <circle cx="681.5" cy="422.5" r="3" fill="#dc2626" stroke="#fff" stroke-width="1"/>
    <circle cx="655.9" cy="406.1" r="3" fill="#dc2626" stroke="#fff" stroke-width="1"/>
    <circle cx="601.7" cy="370.8" r="3" fill="#dc2626" stroke="#fff" stroke-width="1"/>
    <circle cx="531.9" cy="329.1" r="3" fill="#dc2626" stroke="#fff" stroke-width="1"/>
    <circle cx="560.9" cy="346.7" r="3" fill="#dc2626" stroke="#fff" stroke-width="1"/>
    <circle cx="465.6" cy="257.3" r="3" fill="#dc2626" stroke="#fff" stroke-width="1"/>
    <circle cx="359.7" cy="185.4" r="3" fill="#dc2626" stroke="#fff" stroke-width="1"/>
    <circle cx="379.0" cy="201.2" r="3" fill="#dc2626" stroke="#fff" stroke-width="1"/>
    <circle cx="348.9" cy="175.5" r="3" fill="#dc2626" stroke="#fff" stroke-width="1"/>
    <circle cx="744.4" cy="261.9" r="3" fill="#dc2626" stroke="#fff" stroke-width="1"/>
    <circle cx="597.7" cy="278.5" r="3" fill="#dc2626" stroke="#fff" stroke-width="1"/>
    <circle cx="562.8" cy="285.8" r="3" fill="#dc2626" stroke="#fff" stroke-width="1"/>
    <circle cx="272.4" cy="543.1" r="3" fill="#dc2626" stroke="#fff" stroke-width="1"/>
    <circle cx="360.7" cy="254.3" r="3" fill="#dc2626" stroke="#fff" stroke-width="1"/>
    <circle cx="357.1" cy="489.3" r="3" fill="#dc2626" stroke="#fff" stroke-width="1"/>
    <circle cx="358.1" cy="392.3" r="3" fill="#dc2626" stroke="#fff" stroke-width="1"/>
    <circle cx="359.6" cy="420.8" r="3" fill="#dc2626" stroke="#fff" stroke-width="1"/>
    <circle cx="360.3" cy="326.1" r="3" fill="#dc2626" stroke="#fff" stroke-width="1"/>
    <circle cx="364.1" cy="269.7" r="3" fill="#dc2626" stroke="#fff" stroke-width="1"/>
    <circle cx="342.9" cy="221.3" r="3" fill="#dc2626" stroke="#fff" stroke-width="1"/>
    <circle cx="351.5" cy="190.5" r="3" fill="#dc2626" stroke="#fff" stroke-width="1"/>
    <circle cx="366.9" cy="175.9" r="3" fill="#dc2626" stroke="#fff" stroke-width="1"/>
    <circle cx="496.1" cy="269.2" r="3" fill="#dc2626" stroke="#fff" stroke-width="1"/>
  </g>
</svg>