<?xml version="1.0" encoding="UTF-8"?>
<svg width="800" height="600" viewBox="0 0 800 600" 
     xmlns="http://www.w3.org/2000/svg">
  <title>Vancouver Subway Map</title>
  <rect width="100%" height="100%" fill="#f8f9fa"/>

  <!-- 지하철 선로 -->
  <g id="subway-lines" stroke="#2563eb" stroke-width="3" fill="none">
    <polyline points="494.2,294.5 494.2,295.0 494.2,295.6 494.2,296.2 494.3,296.6 494.3,296.9 494.4,297.4 494.5,298.0 494.7,298.9 494.9,299.6 495.2,300.5 495.4,301.1 495.8,301.9 496.2,302.7 496.7,303.4 497.2,304.1 499.0,306.2 501.7,309.2 502.9,310.5 504.1,311.8 505.3,313.0 506.5,314.2 508.2,315.4 510.5,316.8" opacity="0.8"/>
    <polyline points="370.7,173.1 368.6,171.8 361.9,168.2 360.5,167.5 360.1,167.3 359.8,167.2 356.9,166.1 356.0,165.9 354.5,165.5" opacity="0.8"/>
    <polyline points="583.3,282.1 581.7,282.4 578.8,283.0 576.9,283.3 575.6,283.5 572.1,284.2 570.8,284.3 568.3,284.7 567.2,284.8 565.8,285.1 564.2,285.4 561.9,285.8 560.2,286.2 558.7,286.5 556.9,286.8 555.2,287.2 553.1,287.7 551.7,288.0 548.9,288.6 546.6,289.1 545.0,289.4 543.4,289.8 542.2,290.0 541.1,290.1 540.0,290.2 539.0,290.2" opacity="0.8"/>
    <polyline points="357.3,185.3 353.9,188.5 352.5,189.7 351.6,190.7 348.7,193.4 345.7,196.3 340.5,201.1 337.6,203.9 336.4,205.2 335.5,206.7 335.0,208.3 334.8,209.9 334.9,211.6 335.2,213.0 335.5,213.9 336.0,214.9 336.7,215.9 337.6,216.9 339.2,218.4 342.4,221.4 343.4,222.4 346.9,225.7 347.8,226.7 348.5,227.8 350.2,231.0 352.5,236.7 354.3,241.6 354.9,242.9 360.3,250.7 360.9,251.9 361.7,253.9 362.6,256.2 362.9,257.2 363.3,258.8 363.4,260.0 363.5,261.2 363.5,264.6 363.5,265.9 363.5,267.2 363.4,269.4 363.2,272.1 362.7,276.1 361.7,317.7 361.7,322.1 361.7,323.9 361.8,325.6 362.0,328.7 362.1,330.2 362.0,331.7" opacity="0.8"/>
    <polyline points="357.3,479.2 357.2,484.5" opacity="0.8"/>
    <polyline points="355.5,510.8 355.2,516.6 354.8,522.2 354.5,526.8 354.4,527.3 354.4,527.5" opacity="0.8"/>
    <polyline points="354.4,527.5 354.3,527.9 354.3,528.3 354.1,528.7 354.0,529.1 353.9,529.5 353.8,529.9 353.6,530.2 353.4,530.7 353.1,531.0 352.9,531.4 352.6,531.8 352.3,532.1 351.8,532.7 350.1,534.9 348.8,536.4 348.5,536.8 348.2,537.2 347.8,537.6 347.4,537.9" opacity="0.8"/>
    <polyline points="260.1,549.8 258.3,551.3" opacity="0.8"/>
    <polyline points="582.3,359.5 585.6,361.6 592.1,365.4 597.4,368.4 601.1,370.6 603.2,371.9 607.1,374.1 611.9,377.6 616.1,380.5 619.4,382.7 623.4,385.3 627.9,388.3 629.2,389.0 632.9,391.0 634.8,392.1 643.0,397.5 648.0,400.8" opacity="0.8"/>
    <polyline points="271.5,543.2 268.8,543.9 268.2,544.0 267.7,544.2 267.2,544.4 266.7,544.6 266.3,544.9 265.8,545.2 265.4,545.5 264.4,546.3 262.8,547.6 260.1,549.8" opacity="0.8"/>
    <polyline points="539.0,290.2 537.9,290.2 536.8,290.1 536.2,290.1 535.3,289.9 534.8,289.9 534.0,289.7" opacity="0.8"/>
    <polyline points="491.6,266.8 490.6,266.5 489.7,266.2 489.1,266.0 488.6,265.9 487.7,265.6 487.2,265.4 486.7,265.2 486.2,265.0 485.1,264.5" opacity="0.8"/>
    <polyline points="336.9,540.6 339.9,539.0 340.3,538.9 340.6,538.7 341.0,538.6 341.3,538.5 341.9,538.3 342.2,538.3 342.6,538.2" opacity="0.8"/>
    <polyline points="341.8,537.9 342.1,537.8 342.4,537.8 349.1,536.1" opacity="0.8"/>
    <polyline points="346.9,540.0 345.7,540.7 345.5,540.8 345.3,540.9 345.1,541.1 344.8,541.3" opacity="0.8"/>
    <polyline points="337.3,538.5 337.6,538.3 337.9,538.3 338.1,538.2 338.8,538.1 339.3,537.9 339.6,537.9 339.9,537.9 340.1,537.9 340.3,537.9 340.7,537.9 341.6,538.0 343.4,538.1 344.1,538.1 344.9,538.2 345.5,538.2 345.9,538.3 346.4,538.3" opacity="0.8"/>
    <polyline points="336.1,541.3 340.8,538.8 341.1,538.7 341.4,538.6 341.6,538.6 341.8,538.5 342.1,538.5 342.8,538.4 343.7,538.4" opacity="0.8"/>
    <polyline points="342.8,538.4 342.3,538.5 342.1,538.6 341.8,538.6 341.6,538.7 341.4,538.8 341.2,538.9 336.3,541.5" opacity="0.8"/>
    <polyline points="341.4,543.5 341.8,543.3 342.0,543.1 342.6,542.7 343.2,542.2 343.4,542.0 343.7,541.7 343.9,541.5 344.1,541.4 344.3,541.2 344.5,541.1 344.7,541.0 344.9,540.9 345.5,540.5 345.7,540.4" opacity="0.8"/>
    <polyline points="338.8,538.1 338.2,538.3 337.4,538.6 337.1,538.8 336.9,538.9 336.7,539.1 336.5,539.3 336.3,539.6 336.1,539.8 335.9,540.1 335.9,540.3 335.8,540.6 335.7,540.9 335.7,541.2 335.7,541.5 335.7,541.8 335.8,542.0 335.9,542.3 336.0,542.5 336.1,542.7 336.2,543.0 336.4,543.2 336.6,543.4 336.9,543.6 337.2,543.8 337.4,543.9 337.7,544.1 337.9,544.1 338.3,544.2 338.6,544.3 338.9,544.3 339.2,544.3 339.5,544.2 339.8,544.1 340.1,544.0 340.3,543.9 340.6,543.8 340.8,543.7 341.0,543.5 341.2,543.3 341.7,542.7 342.2,542.2 342.8,541.5" opacity="0.8"/>
    <polyline points="345.5,539.9 343.8,540.8 343.6,540.9 343.4,541.0 343.2,541.2 343.0,541.3 342.8,541.5" opacity="0.8"/>
    <polyline points="339.0,537.8 338.8,537.8 338.6,537.9 337.3,538.5 337.0,538.6 336.7,538.8 336.5,538.9 336.4,539.1 336.2,539.2 336.0,539.5 335.8,539.7 335.7,539.9 335.6,540.2 335.5,540.4 335.5,540.7 335.4,540.9 335.4,541.2 335.4,541.5 335.5,541.8 335.5,542.1 335.6,542.4 335.8,542.6 335.9,542.9 336.1,543.1 336.3,543.3 336.5,543.5 336.7,543.7 337.0,543.9 337.2,544.1 337.5,544.2 337.9,544.3 338.2,544.4 338.5,544.4 338.8,544.4 339.2,544.4 339.5,544.4 339.8,544.3 340.1,544.2 340.4,544.1 340.7,543.9 341.3,543.6" opacity="0.8"/>
    <polyline points="342.2,542.2 342.5,541.9 342.7,541.7 343.0,541.5 343.2,541.4 343.4,541.3 343.5,541.2 345.6,540.1" opacity="0.8"/>
    <polyline points="338.1,544.8 338.4,544.8 338.5,544.8 338.7,544.8 339.0,544.8 339.2,544.8 339.5,544.7 339.8,544.6 340.0,544.5 340.3,544.3 340.5,544.2 340.7,544.0 340.9,543.8 341.3,543.6" opacity="0.8"/>
    <polyline points="344.8,541.4 347.0,540.2" opacity="0.8"/>
    <polyline points="344.4,539.4 343.7,539.9 343.4,540.1 343.2,540.2 343.1,540.4 342.9,540.6 342.7,540.8 342.6,541.0 342.4,541.4 342.2,541.8 342.0,542.1 341.8,542.4 341.7,542.7 341.5,542.9 341.2,543.3" opacity="0.8"/>
    <polyline points="336.3,541.7 341.3,539.0 341.5,538.9 341.9,538.8 342.1,538.7 342.9,538.5 343.2,538.4 343.7,538.4" opacity="0.8"/>
    <polyline points="341.8,537.9 342.4,537.8 342.7,537.8 343.0,537.8 343.3,537.7 345.6,537.1 349.2,536.2" opacity="0.8"/>
    <polyline points="344.1,538.1 343.7,538.1 343.4,538.1 342.6,538.2 341.9,538.3 341.6,538.3 341.4,538.3 341.1,538.4 340.8,538.5 340.6,538.6 340.3,538.7 336.9,540.5" opacity="0.8"/>
    <polyline points="345.5,540.5 345.2,540.7 345.0,540.9 344.8,541.0 344.6,541.2 344.4,541.4 343.8,542.0 343.6,542.2 343.3,542.4" opacity="0.8"/>
    <polyline points="569.9,352.1 582.3,359.5" opacity="0.8"/>
    <polyline points="560.3,346.6 561.0,347.0 562.4,347.8 563.7,348.6 569.9,352.1" opacity="0.8"/>
    <polyline points="464.4,257.0 462.5,256.5 461.5,256.3 459.8,255.9 458.0,255.5" opacity="0.8"/>
    <polyline points="673.5,417.7 675.9,419.2 678.1,420.7 679.2,421.4 680.7,422.4 681.4,422.9 681.6,423.0 683.1,424.0 683.7,424.3 684.4,424.8 685.2,425.4 685.6,425.7 687.2,426.9" opacity="0.8"/>
    <polyline points="332.4,547.1 333.2,546.5 333.7,546.0 334.3,545.4 334.8,545.0 335.4,544.5" opacity="0.8"/>
    <polyline points="556.9,344.5 558.8,345.7" opacity="0.8"/>
    <polyline points="539.7,334.2 548.6,339.5 554.4,343.0 555.7,343.8 556.9,344.5" opacity="0.8"/>
    <polyline points="388.5,207.7 388.0,207.6 387.6,207.5 387.4,207.5 387.2,207.4 387.0,207.3 386.8,207.3 386.4,207.1 386.0,206.9 385.7,206.8 385.4,206.6 385.1,206.4 384.8,206.3 384.5,206.0 384.2,205.8 384.0,205.6 383.7,205.4 382.9,204.7 381.7,203.5 381.5,203.3 379.2,201.1 378.1,200.1" opacity="0.8"/>
    <polyline points="377.1,199.7 377.4,200.0" opacity="0.8"/>
    <polyline points="377.7,177.2 374.9,175.6 372.1,173.9" opacity="0.8"/>
    <polyline points="374.7,175.6 373.4,174.9 372.1,173.9" opacity="0.8"/>
    <polyline points="374.7,175.6 376.6,176.7 377.7,177.4 378.8,177.9" opacity="0.8"/>
    <polyline points="370.5,173.3 371.1,173.7 372.7,174.7" opacity="0.8"/>
    <polyline points="354.4,165.6 358.1,166.9 359.5,167.3 359.9,167.5 360.3,167.6 360.5,167.8 365.6,170.5 368.1,171.9 370.5,173.3" opacity="0.8"/>
    <polyline points="356.9,166.1 358.1,166.9" opacity="0.8"/>
    <polyline points="372.1,173.9 371.3,173.4 370.7,173.1" opacity="0.8"/>
    <polyline points="377.7,199.7 377.4,199.5 377.3,199.4 377.1,199.2 376.7,199.0 376.4,198.7 376.1,198.6 375.7,198.4 374.7,197.9 374.2,197.6 373.7,197.4 373.2,196.9 365.7,189.9 359.7,184.5 356.2,181.3 355.5,180.7 351.2,177.0 349.0,175.0 348.1,174.1" opacity="0.8"/>
    <polyline points="347.4,537.9 347.0,538.3 346.6,538.5 346.2,538.8 345.8,539.1 345.3,539.4 344.2,540.0 342.3,540.9 338.8,542.7" opacity="0.8"/>
    <polyline points="316.6,551.3 314.5,549.9 313.7,549.5 312.8,549.0 312.2,548.7 311.6,548.4 310.9,548.1 310.3,547.9 309.7,547.8 309.1,547.6 308.4,547.5 296.6,545.5 285.9,543.7" opacity="0.8"/>
    <polyline points="318.2,552.4 318.6,552.6 319.1,552.7 319.5,552.8 319.9,552.9 320.4,553.0 320.8,553.0 321.2,553.0 321.8,553.0 322.3,552.9 322.7,552.8 323.1,552.7 323.5,552.6 324.0,552.4 324.4,552.3 324.9,552.0 325.7,551.5 326.7,550.8 328.2,549.8 330.0,548.7" opacity="0.8"/>
  </g>

  <!-- 지하철 역 -->
  <g id="subway-stations">
    <circle cx="654.1" cy="260.7" r="4" fill="#dc2626" stroke="#fff" stroke-width="2"/>
    <text x="654.1" y="252.7" text-anchor="middle" font-size="10" fill="#374151">Gilmore</text>
    <circle cx="404.5" cy="227.1" r="4" fill="#dc2626" stroke="#fff" stroke-width="2"/>
    <circle cx="687.7" cy="255.0" r="4" fill="#dc2626" stroke="#fff" stroke-width="2"/>
    <circle cx="370.7" cy="173.2" r="4" fill="#dc2626" stroke="#fff" stroke-width="2"/>
    <text x="370.7" y="165.2" text-anchor="middle" font-size="10" fill="#374151">Waterfront</text>
    <circle cx="494.3" cy="273.8" r="4" fill="#dc2626" stroke="#fff" stroke-width="2"/>
    <text x="494.3" y="265.8" text-anchor="middle" font-size="10" fill="#374151">Commercial–Broadway</text>
    <circle cx="331.3" cy="547.5" r="4" fill="#dc2626" stroke="#fff" stroke-width="2"/>
    <text x="331.3" y="539.5" text-anchor="middle" font-size="10" fill="#374151">Bridgeport</text>
    <circle cx="725.9" cy="446.4" r="4" fill="#dc2626" stroke="#fff" stroke-width="2"/>
    <text x="725.9" y="438.4" text-anchor="middle" font-size="10" fill="#374151">Royal Oak</text>
    <circle cx="681.5" cy="422.5" r="4" fill="#dc2626" stroke="#fff" stroke-width="2"/>
    <text x="681.5" y="414.5" text-anchor="middle" font-size="10" fill="#374151">Metrotown</text>
    <circle cx="655.9" cy="406.1" r="4" fill="#dc2626" stroke="#fff" stroke-width="2"/>
    <text x="655.9" y="398.1" text-anchor="middle" font-size="10" fill="#374151">Patterson</text>
    <circle cx="601.7" cy="370.8" r="4" fill="#dc2626" stroke="#fff" stroke-width="2"/>
    <text x="601.7" y="362.8" text-anchor="middle" font-size="10" fill="#374151">Joyce–Collingwood</text>
    <circle cx="531.9" cy="329.1" r="4" fill="#dc2626" stroke="#fff" stroke-width="2"/>
    <text x="531.9" y="321.1" text-anchor="middle" font-size="10" fill="#374151">Nanaimo</text>
    <circle cx="560.9" cy="346.7" r="4" fill="#dc2626" stroke="#fff" stroke-width="2"/>
    <text x="560.9" y="338.7" text-anchor="middle" font-size="10" fill="#374151">29th Avenue</text>
    <circle cx="465.6" cy="257.3" r="4" fill="#dc2626" stroke="#fff" stroke-width="2"/>
    <text x="465.6" y="249.3" text-anchor="middle" font-size="10" fill="#374151">VCC–Clark</text>
    <circle cx="359.7" cy="185.4" r="4" fill="#dc2626" stroke="#fff" stroke-width="2"/>
    <text x="359.7" y="177.4" text-anchor="middle" font-size="10" fill="#374151">Granville</text>
    <circle cx="379.0" cy="201.2" r="4" fill="#dc2626" stroke="#fff" stroke-width="2"/>
    <text x="379.0" y="193.2" text-anchor="middle" font-size="10" fill="#374151">Stadium–Chinatown</text>
    <circle cx="348.9" cy="175.5" r="4" fill="#dc2626" stroke="#fff" stroke-width="2"/>
    <text x="348.9" y="167.5" text-anchor="middle" font-size="10" fill="#374151">Burrard</text>
    <circle cx="744.4" cy="261.9" r="4" fill="#dc2626" stroke="#fff" stroke-width="2"/>
    <text x="744.4" y="253.9" text-anchor="middle" font-size="10" fill="#374151">Holdom</text>
    <circle cx="597.7" cy="278.5" r="4" fill="#dc2626" stroke="#fff" stroke-width="2"/>
    <text x="597.7" y="270.5" text-anchor="middle" font-size="10" fill="#374151">Rupert</text>
    <circle cx="562.8" cy="285.8" r="4" fill="#dc2626" stroke="#fff" stroke-width="2"/>
    <text x="562.8" y="277.8" text-anchor="middle" font-size="10" fill="#374151">Renfrew</text>
    <circle cx="272.4" cy="543.1" r="4" fill="#dc2626" stroke="#fff" stroke-width="2"/>
    <text x="272.4" y="535.1" text-anchor="middle" font-size="10" fill="#374151">Templeton</text>
    <circle cx="360.7" cy="254.3" r="4" fill="#dc2626" stroke="#fff" stroke-width="2"/>
    <text x="360.7" y="246.3" text-anchor="middle" font-size="10" fill="#374151">Olympic Village</text>
    <circle cx="357.1" cy="489.3" r="4" fill="#dc2626" stroke="#fff" stroke-width="2"/>
    <text x="357.1" y="481.3" text-anchor="middle" font-size="10" fill="#374151">Marine Drive</text>
    <circle cx="358.1" cy="392.3" r="4" fill="#dc2626" stroke="#fff" stroke-width="2"/>
    <circle cx="359.6" cy="420.8" r="4" fill="#dc2626" stroke="#fff" stroke-width="2"/>
    <text x="359.6" y="412.8" text-anchor="middle" font-size="10" fill="#374151">Langara-49th Avenue</text>
    <circle cx="360.3" cy="326.1" r="4" fill="#dc2626" stroke="#fff" stroke-width="2"/>
    <text x="360.3" y="318.1" text-anchor="middle" font-size="10" fill="#374151">King Edward</text>
    <circle cx="364.1" cy="269.7" r="4" fill="#dc2626" stroke="#fff" stroke-width="2"/>
    <text x="364.1" y="261.7" text-anchor="middle" font-size="10" fill="#374151">Broadway–City Hall</text>
    <circle cx="342.9" cy="221.3" r="4" fill="#dc2626" stroke="#fff" stroke-width="2"/>
    <text x="342.9" y="213.3" text-anchor="middle" font-size="10" fill="#374151">Yaletown–Roundhouse</text>
    <circle cx="351.5" cy="190.5" r="4" fill="#dc2626" stroke="#fff" stroke-width="2"/>
    <circle cx="366.9" cy="175.9" r="4" fill="#dc2626" stroke="#fff" stroke-width="2"/>
    <text x="366.9" y="167.9" text-anchor="middle" font-size="10" fill="#374151">Waterfront</text>
    <circle cx="496.1" cy="269.2" r="4" fill="#dc2626" stroke="#fff" stroke-width="2"/>
    <text x="496.1" y="261.2" text-anchor="middle" font-size="10" fill="#374151">Commercial–Broadway</text>
  </g>
</svg>