<?xml version="1.0" encoding="UTF-8"?>
<svg width="800" height="600" viewBox="0 0 800 600" 
     xmlns="http://www.w3.org/2000/svg">
  <title>Vienna Subway Map</title>
  <rect width="100%" height="100%" fill="#f8f9fa"/>

  <!-- 지하철 선로 -->
  <g id="subway-lines" stroke="#2563eb" stroke-width="3" fill="none">
    <polyline points="381.4,358.9 381.2,358.6 381.0,358.3 380.8,358.0 380.6,357.7 380.4,357.4 380.2,357.1 380.1,356.7 379.9,356.3 379.8,356.0 379.7,355.6 379.6,355.2 379.5,354.8 379.5,354.4 379.4,354.0 379.4,353.7 379.4,353.4 379.4,353.1" opacity="0.8"/>
    <polyline points="434.3,218.4 433.8,219.8" opacity="0.8"/>
    <polyline points="325.0,339.0 324.9,338.1" opacity="0.8"/>
    <polyline points="325.8,369.7 325.9,369.5 325.9,369.4 326.1,369.0 326.3,368.5 326.9,367.0 327.4,365.9" opacity="0.8"/>
    <polyline points="279.7,320.1 279.9,319.1 280.2,317.5 280.3,317.2 280.4,317.0 280.4,316.7 280.5,316.4 280.6,316.2 280.6,316.0" opacity="0.8"/>
    <polyline points="371.2,245.1 371.4,244.7 371.5,244.3 371.7,244.0 372.0,243.3 372.0,243.3 372.3,242.4 372.4,242.1 372.5,241.9 372.6,241.6 372.7,241.4 372.7,241.3 372.8,241.1 372.9,240.8 372.9,240.6 373.0,240.4 373.0,240.1 373.2,239.7 373.3,239.2 373.3,238.9" opacity="0.8"/>
    <polyline points="436.9,212.0 436.7,212.4 436.5,212.7 436.3,213.2 436.1,213.6 435.8,214.1 435.6,214.7 435.5,215.0 435.3,215.3 435.2,215.6 434.3,218.4" opacity="0.8"/>
    <polyline points="370.8,262.7 370.4,262.6" opacity="0.8"/>
    <polyline points="409.7,247.6 409.3,247.9 409.1,248.0 408.8,248.2 408.6,248.3 408.4,248.5 408.2,248.6 408.0,248.8 407.8,248.9 407.6,249.1" opacity="0.8"/>
    <polyline points="309.3,426.2 309.3,426.0 309.3,425.7 309.4,425.4 309.4,425.1 309.5,424.8 309.6,424.4 309.7,424.2 309.9,423.9 310.0,423.6 310.2,423.3 310.3,423.0 310.5,422.7 310.6,422.5 310.9,422.2 311.1,421.9 311.3,421.7 311.5,421.4 312.2,420.7 312.5,420.3 312.8,419.9 313.0,419.6 313.2,419.3 313.4,419.0 313.6,418.7 313.8,418.4 314.0,418.1 314.1,417.8 314.2,417.5 314.3,417.2 314.4,416.9 314.5,416.5 314.6,416.1 314.6,415.8 314.7,415.2 314.8,414.1 315.0,412.8 315.1,411.6" opacity="0.8"/>
    <polyline points="195.3,359.9 195.2,359.7 195.1,359.5 195.0,359.2 194.9,359.0 194.8,358.8 194.7,358.6 194.6,358.4 194.4,358.2 194.3,358.0 194.1,357.8 194.0,357.7 193.8,357.5 193.5,357.3 193.3,357.2 193.1,357.0 192.9,356.9 192.6,356.8 191.8,356.5" opacity="0.8"/>
    <polyline points="527.2,188.5 527.1,188.2 525.4,184.5 525.0,183.9 524.8,183.5 524.7,183.1 524.5,182.8 524.4,182.6 524.2,182.4 524.1,182.1 523.9,181.8 523.4,181.1 523.2,180.8 523.0,180.5 522.9,180.2 522.7,180.0 522.6,179.7 522.5,179.5 522.4,179.2 522.2,178.6 521.9,177.8 521.7,177.1 521.3,175.9 520.9,174.8 520.6,174.0 520.0,172.3 519.8,171.7 519.6,171.0 519.5,170.4 519.4,169.8 519.3,169.5 519.3,169.2 519.2,168.9 519.2,168.6 519.2,168.3 519.2,168.0 519.2,167.7 519.2,167.4 519.3,167.1 519.3,166.8 519.4,166.5 519.5,166.2 519.6,165.9 519.7,165.6 519.9,165.3 520.0,165.0 520.2,164.7 520.4,164.4 520.6,164.2 520.8,163.9 521.0,163.7 521.3,163.4 521.5,163.2 521.8,163.0 522.1,162.8" opacity="0.8"/>
    <polyline points="522.3,212.2 522.0,212.8 521.4,213.8 520.7,215.2" opacity="0.8"/>
    <polyline points="499.5,239.3 501.9,236.0 502.1,235.8" opacity="0.8"/>
    <polyline points="455.1,308.2 455.3,308.3 455.5,308.5 455.9,308.9 456.3,309.3 457.4,310.4 457.6,310.7 457.9,311.0 458.2,311.2 458.5,311.4 458.8,311.7" opacity="0.8"/>
    <polyline points="450.3,305.7 450.6,305.8 450.8,305.8 451.1,305.9 451.3,306.0 451.5,306.1 451.8,306.1 452.0,306.2 452.2,306.3 452.4,306.4 452.6,306.5 452.8,306.6 453.0,306.7 453.2,306.8 453.4,306.9 453.6,307.0 453.8,307.1 454.0,307.3 454.3,307.4 454.5,307.6 454.7,307.8 454.9,308.0 455.1,308.2" opacity="0.8"/>
    <polyline points="275.6,523.4 275.6,523.2 276.1,520.1 276.3,519.0" opacity="0.8"/>
    <polyline points="333.2,357.5 332.8,357.6 332.5,357.6 332.0,357.8 331.5,357.8 331.1,357.9 330.8,357.9 330.3,358.0 329.9,358.1 329.5,358.1 328.6,358.1 328.1,358.2 327.8,358.2 327.1,358.3 326.4,358.3 326.0,358.3 325.6,358.3 325.3,358.4 325.0,358.4 324.6,358.4 324.3,358.4 324.0,358.3 323.7,358.3 323.4,358.3 323.1,358.3 322.8,358.2 322.4,358.1 322.1,358.1 321.8,358.0 321.5,357.9 321.2,357.8 320.9,357.6 320.6,357.5 320.3,357.4 320.0,357.2 319.8,357.0 319.5,356.8" opacity="0.8"/>
    <polyline points="309.2,426.2 309.1,426.5 309.1,426.7 309.1,426.9 309.1,427.1 309.1,427.2 309.1,427.5 309.1,428.2 309.1,428.5 309.0,429.3 309.0,430.4 308.9,430.8" opacity="0.8"/>
    <polyline points="325.5,381.0 325.6,380.9 325.7,380.7 325.9,380.4 326.0,380.3 326.1,380.0 326.2,379.8 326.3,379.7 326.4,379.4 326.5,379.2" opacity="0.8"/>
    <polyline points="326.6,374.1 326.3,373.2 326.3,372.9 326.2,372.7 326.1,372.5 326.0,372.2 325.9,372.0 325.9,371.8 325.8,371.6 325.8,371.5 325.8,371.4 325.8,371.3 325.7,371.2 325.7,371.2 325.7,371.1 325.7,371.0 325.7,370.8 325.7,370.7 325.7,370.5 325.7,370.3 325.7,370.2 325.7,370.0 325.8,369.9 325.8,369.8 325.8,369.7" opacity="0.8"/>
    <polyline points="324.9,338.1 324.9,337.4 324.7,335.2 324.7,334.8 324.7,334.3 324.8,334.1 324.8,333.8 324.8,333.6 324.9,333.3 325.0,333.1 325.0,332.9 325.1,332.6 325.2,332.4 325.3,332.1 325.7,331.4 326.5,329.6" opacity="0.8"/>
    <polyline points="371.3,245.2 371.4,245.0 371.5,244.9 371.6,244.8 371.6,244.7 371.7,244.5 371.8,244.4 371.8,244.4 371.9,244.3 371.9,244.2 372.1,243.7 372.2,243.5 372.3,243.2 372.5,242.7 372.6,242.4 372.8,242.1 372.9,241.8 373.0,241.5 373.0,241.4 373.1,241.3 373.1,241.1 373.2,240.9 373.3,240.5 373.4,240.3 373.4,240.1 373.5,239.8 373.6,239.6 373.6,239.3 373.7,239.2 373.7,239.1" opacity="0.8"/>
    <polyline points="264.9,377.9 264.3,377.8 263.8,377.6 263.0,377.4 260.2,376.6 259.3,376.3 258.5,376.1 257.7,375.8 256.8,375.6 255.9,375.3 255.5,375.2 255.2,375.1 254.3,374.9 253.9,374.8 253.4,374.7 251.7,374.2 250.5,373.9 250.1,373.7 249.6,373.6 249.0,373.4 248.4,373.2 246.9,372.8 246.2,372.6 245.7,372.5 244.6,372.2 243.7,371.9 242.0,371.5 241.5,371.4 241.0,371.3 238.1,370.7 237.7,370.7 237.0,370.6 236.7,370.5 235.5,370.3 234.3,370.1 233.8,370.0 232.6,369.7 232.4,369.7 232.0,369.6 231.1,369.3 230.7,369.2 230.4,369.2 230.0,369.1 229.1,369.0 228.1,368.8 227.0,368.6 226.1,368.5 225.2,368.3 224.5,368.3 223.3,368.1 221.1,367.8 220.5,367.7 220.1,367.7 219.7,367.6 219.1,367.6 218.7,367.6 218.3,367.5" opacity="0.8"/>
    <polyline points="197.8,363.5 197.6,363.4 197.4,363.3 197.3,363.2 197.1,363.0 196.8,362.7 196.7,362.6 196.6,362.5 196.5,362.3 196.4,362.2 196.2,362.0 195.6,360.6" opacity="0.8"/>
    <polyline points="433.1,222.0 433.0,222.3" opacity="0.8"/>
    <polyline points="356.5,266.3 356.6,266.0 356.6,265.8 356.7,265.6 356.8,265.4 356.9,265.2 356.9,265.1 357.0,264.9 357.1,264.7 357.2,264.5 357.4,264.2 357.5,264.0 357.6,263.9 357.8,263.8 357.9,263.6 358.0,263.5 358.2,263.4 358.3,263.3 358.5,263.2 358.6,263.1 358.8,263.0 359.0,262.9 359.1,262.8 359.3,262.8 359.5,262.7 359.7,262.6 359.9,262.6 360.2,262.5 360.4,262.4" opacity="0.8"/>
    <polyline points="354.2,271.3 354.4,271.2 354.6,271.0 354.8,270.8 354.9,270.7 355.1,270.5 355.2,270.4 355.3,270.3 355.4,270.1 355.5,270.0 355.6,269.8 355.6,269.7 355.7,269.5 355.8,269.2 355.9,268.9 356.0,268.6 356.5,266.3" opacity="0.8"/>
    <polyline points="408.4,324.1 409.0,325.3" opacity="0.8"/>
    <polyline points="295.3,383.3 295.1,383.3" opacity="0.8"/>
    <polyline points="462.0,272.1 462.3,271.7 462.6,271.3 462.9,271.0 463.0,270.8 463.3,270.5 463.6,270.3 463.8,270.1 464.4,269.7 465.5,268.8 466.9,267.9 468.1,267.0 469.0,266.3 470.8,265.0 471.3,264.6 471.6,264.3 471.9,264.1 472.1,263.8 472.3,263.7 472.5,263.5 472.7,263.2 473.0,262.9 473.2,262.6 473.5,262.3 474.4,261.0 474.6,260.8 474.8,260.5 475.1,260.1 475.4,259.8 475.7,259.5 476.0,259.2 476.3,258.9 476.8,258.5 477.1,258.2 477.4,257.9 477.9,257.5 479.0,256.7 480.3,255.7 481.7,254.5 483.5,253.2 485.1,252.0 488.5,249.4 489.7,248.6 489.9,248.4 490.4,248.0 491.4,247.3 491.9,246.9 492.2,246.7 492.6,246.3 493.0,246.0 493.6,245.5 494.8,244.3 497.2,241.9 497.6,241.6 497.9,241.3 498.2,241.0 498.4,240.7 498.7,240.4 498.9,240.2 499.2,239.7 499.5,239.3" opacity="0.8"/>
    <polyline points="284.3,379.7 283.2,379.4 282.8,379.3 282.5,379.3 282.2,379.2 282.0,379.2" opacity="0.8"/>
    <polyline points="291.3,381.9 290.5,381.5 289.4,381.0 289.2,381.0 288.9,380.9 288.6,380.8 288.3,380.7 287.9,380.6 286.0,380.1 284.3,379.7" opacity="0.8"/>
    <polyline points="336.4,376.4 336.3,376.4" opacity="0.8"/>
    <polyline points="360.2,357.2 359.8,357.3 359.6,357.3 359.3,357.4 359.1,357.5 358.9,357.6 358.6,357.7 358.4,357.8 358.1,358.0 357.9,358.1 357.7,358.2 357.5,358.4" opacity="0.8"/>
    <polyline points="401.4,340.6 400.5,341.4 399.3,342.5" opacity="0.8"/>
    <polyline points="463.0,369.5 463.3,369.6 463.5,369.7 463.8,369.7 464.1,369.8 464.4,369.8 464.7,369.8 465.0,369.8 465.2,369.8 465.6,369.7 466.0,369.6 466.3,369.5 466.6,369.4 467.0,369.3 467.5,369.1 468.3,368.7 468.7,368.5 469.0,368.3 469.6,368.0 470.2,367.5 470.7,367.2 471.3,366.8 473.9,364.7 475.9,362.5 478.0,360.0 479.9,357.4 480.8,355.8 481.9,353.7 482.8,351.5 483.4,349.8 483.9,348.1 484.2,346.8 484.5,345.2 484.6,343.3 484.6,341.1 484.4,339.2 484.2,337.8 483.9,337.0 483.6,336.3" opacity="0.8"/>
    <polyline points="282.0,379.2 281.8,379.2 281.6,379.2 281.2,379.1 280.9,379.1 280.3,379.1 274.7,378.8 273.8,378.8 273.2,378.8 272.2,378.8 271.9,378.8 271.5,378.8 271.2,378.8 270.5,378.8 270.2,378.8 269.7,378.8 268.6,378.8 268.2,378.7 268.0,378.7 267.7,378.7 267.5,378.7 267.2,378.6 267.1,378.6 266.9,378.6" opacity="0.8"/>
    <polyline points="266.9,378.6 266.6,378.5 266.4,378.5 266.2,378.4 266.0,378.3 265.7,378.3 265.2,378.0 264.9,377.9" opacity="0.8"/>
    <polyline points="373.3,238.9 373.4,238.6" opacity="0.8"/>
    <polyline points="398.8,342.9 398.5,343.2 398.3,343.3 398.2,343.5 398.0,343.7 395.6,346.6 395.5,346.8 395.4,346.9 395.2,347.1 395.1,347.2 394.9,347.3 394.8,347.4 394.7,347.5 394.5,347.6 394.4,347.7 394.2,347.8 394.1,347.9 393.9,348.0 393.7,348.1 393.3,348.2 391.0,349.0 390.8,349.1 390.7,349.1 390.5,349.2 390.4,349.2 390.2,349.3 390.0,349.3 389.9,349.3 389.7,349.3 389.5,349.3 389.3,349.3 389.1,349.3 389.0,349.3 388.8,349.3 388.6,349.3 388.5,349.2 388.3,349.2 388.2,349.2 388.0,349.1 387.9,349.1 386.9,348.8 386.0,348.5 384.0,347.9 383.9,347.9" opacity="0.8"/>
    <polyline points="624.6,297.8 624.8,297.0 625.2,296.0 625.4,295.2" opacity="0.8"/>
    <polyline points="460.0,367.5 461.0,368.5 462.1,369.4 462.6,369.8 462.7,370.0 462.8,370.0 463.0,370.2 463.3,370.5 463.5,370.7 463.6,370.8 463.7,370.9 463.8,371.0 463.9,371.1 464.2,371.3 465.8,372.6 466.6,373.2 467.0,373.6 467.2,373.8 468.0,374.4 468.5,374.8 468.7,375.0 468.8,375.1 469.0,375.2 469.2,375.3 469.3,375.3 469.4,375.4 469.5,375.4 469.6,375.5 469.9,375.6 470.1,375.7 470.2,375.7" opacity="0.8"/>
    <polyline points="465.4,370.7 465.5,370.7 465.6,370.7 465.7,370.6 466.0,370.6 466.1,370.6 466.3,370.6 466.4,370.6 466.6,370.6 466.8,370.6 466.9,370.6 467.4,370.6 467.5,370.6 467.6,370.6 467.7,370.6 467.8,370.6 467.9,370.6 468.0,370.6 468.1,370.6 468.2,370.6 468.3,370.6 468.5,370.7 468.6,370.7 468.8,370.8 468.9,370.9 469.1,370.9 469.2,371.0 474.7,375.1 475.2,375.5 475.9,376.0 476.4,376.4 476.9,376.7 477.3,376.9 477.6,377.0 477.9,377.2 478.7,377.6 479.6,378.0 480.4,378.4 481.0,378.6 481.3,378.8 481.7,378.9 482.8,379.4 483.6,379.8 484.7,380.3 485.2,380.5 485.6,380.7 486.0,380.8 487.3,381.5 488.8,382.2 489.0,382.3" opacity="0.8"/>
    <polyline points="466.9,370.6 467.1,370.6 467.3,370.6 467.4,370.6 467.5,370.6 467.6,370.7 467.7,370.7 467.8,370.7 467.9,370.7 468.0,370.7" opacity="0.8"/>
    <polyline points="334.6,303.3 335.4,300.6" opacity="0.8"/>
    <polyline points="338.6,294.8 338.5,294.8 338.5,294.9 338.4,294.9 338.3,294.9 338.2,295.1 338.0,295.2 337.9,295.3 337.6,295.6 337.4,295.8 337.2,296.0 336.9,296.3 336.7,296.5 336.5,296.8 336.2,297.1 336.2,297.1 336.1,297.2 336.1,297.3" opacity="0.8"/>
    <polyline points="336.5,297.4 336.4,297.5 336.1,297.9 336.1,298.0 336.0,298.1 336.0,298.1 336.0,298.2 336.0,298.3 336.0,298.4" opacity="0.8"/>
    <polyline points="336.4,297.3 336.3,297.4 336.1,297.7 336.1,297.8 336.0,297.9 336.0,298.0" opacity="0.8"/>
    <polyline points="336.3,297.3 336.3,297.4 336.2,297.5 336.1,297.6 336.1,297.7 336.1,297.7 336.0,297.9 336.0,298.0" opacity="0.8"/>
  </g>

  <!-- 지하철 역 -->
  <g id="subway-stations">
    <circle cx="448.0" cy="361.9" r="4" fill="#dc2626" stroke="#fff" stroke-width="2"/>
    <text x="448.0" y="353.9" text-anchor="middle" font-size="10" fill="#374151">Schlachthausgasse</text>
    <circle cx="466.9" cy="385.2" r="4" fill="#dc2626" stroke="#fff" stroke-width="2"/>
    <text x="466.9" y="377.2" text-anchor="middle" font-size="10" fill="#374151">Gasometer</text>
    <circle cx="457.5" cy="396.5" r="4" fill="#dc2626" stroke="#fff" stroke-width="2"/>
    <text x="457.5" y="388.5" text-anchor="middle" font-size="10" fill="#374151">Zippererstraße</text>
    <circle cx="528.6" cy="160.2" r="4" fill="#dc2626" stroke="#fff" stroke-width="2"/>
    <text x="528.6" y="152.2" text-anchor="middle" font-size="10" fill="#374151">Leopoldau</text>
    <circle cx="422.6" cy="343.5" r="4" fill="#dc2626" stroke="#fff" stroke-width="2"/>
    <text x="422.6" y="335.5" text-anchor="middle" font-size="10" fill="#374151">Rochusgasse</text>
    <circle cx="462.5" cy="409.9" r="4" fill="#dc2626" stroke="#fff" stroke-width="2"/>
    <text x="462.5" y="401.9" text-anchor="middle" font-size="10" fill="#374151">Enkplatz</text>
    <circle cx="436.1" cy="354.4" r="4" fill="#dc2626" stroke="#fff" stroke-width="2"/>
    <text x="436.1" y="346.4" text-anchor="middle" font-size="10" fill="#374151">Kardinal-Nagl-Platz</text>
    <circle cx="472.7" cy="421.9" r="4" fill="#dc2626" stroke="#fff" stroke-width="2"/>
    <text x="472.7" y="413.9" text-anchor="middle" font-size="10" fill="#374151">Simmering</text>
    <circle cx="410.9" cy="334.6" r="4" fill="#dc2626" stroke="#fff" stroke-width="2"/>
    <text x="410.9" y="326.6" text-anchor="middle" font-size="10" fill="#374151">Landstraße</text>
    <circle cx="308.6" cy="388.2" r="4" fill="#dc2626" stroke="#fff" stroke-width="2"/>
    <circle cx="405.1" cy="460.8" r="4" fill="#dc2626" stroke="#fff" stroke-width="2"/>
    <text x="405.1" y="452.8" text-anchor="middle" font-size="10" fill="#374151">Alaudagasse</text>
    <circle cx="406.6" cy="440.1" r="4" fill="#dc2626" stroke="#fff" stroke-width="2"/>
    <text x="406.6" y="432.1" text-anchor="middle" font-size="10" fill="#374151">Altes Landgut</text>
    <circle cx="410.8" cy="480.2" r="4" fill="#dc2626" stroke="#fff" stroke-width="2"/>
    <text x="410.8" y="472.2" text-anchor="middle" font-size="10" fill="#374151">Neulaa</text>
    <circle cx="436.1" cy="488.6" r="4" fill="#dc2626" stroke="#fff" stroke-width="2"/>
    <text x="436.1" y="480.6" text-anchor="middle" font-size="10" fill="#374151">Oberlaa</text>
    <circle cx="401.4" cy="423.8" r="4" fill="#dc2626" stroke="#fff" stroke-width="2"/>
    <text x="401.4" y="415.8" text-anchor="middle" font-size="10" fill="#374151">Troststraße</text>
    <circle cx="314.8" cy="412.8" r="4" fill="#dc2626" stroke="#fff" stroke-width="2"/>
    <text x="314.8" y="404.8" text-anchor="middle" font-size="10" fill="#374151">Bahnhof Meidling</text>
    <circle cx="389.3" cy="379.8" r="4" fill="#dc2626" stroke="#fff" stroke-width="2"/>
    <circle cx="410.9" cy="247.0" r="4" fill="#dc2626" stroke="#fff" stroke-width="2"/>
    <text x="410.9" y="239.0" text-anchor="middle" font-size="10" fill="#374151">Handelskai</text>
    <circle cx="375.3" cy="231.9" r="4" fill="#dc2626" stroke="#fff" stroke-width="2"/>
    <text x="375.3" y="223.9" text-anchor="middle" font-size="10" fill="#374151">Heiligenstadt</text>
    <circle cx="362.1" cy="262.2" r="4" fill="#dc2626" stroke="#fff" stroke-width="2"/>
    <text x="362.1" y="254.2" text-anchor="middle" font-size="10" fill="#374151">Spittelau</text>
    <circle cx="362.9" cy="264.1" r="4" fill="#dc2626" stroke="#fff" stroke-width="2"/>
    <text x="362.9" y="256.1" text-anchor="middle" font-size="10" fill="#374151">Spittelau</text>
    <circle cx="385.9" cy="328.9" r="4" fill="#dc2626" stroke="#fff" stroke-width="2"/>
    <text x="385.9" y="320.9" text-anchor="middle" font-size="10" fill="#374151">Stephansplatz</text>
    <circle cx="383.9" cy="363.9" r="4" fill="#dc2626" stroke="#fff" stroke-width="2"/>
    <text x="383.9" y="355.9" text-anchor="middle" font-size="10" fill="#374151">Taubstummengasse</text>
    <circle cx="382.5" cy="347.6" r="4" fill="#dc2626" stroke="#fff" stroke-width="2"/>
    <text x="382.5" y="339.6" text-anchor="middle" font-size="10" fill="#374151">Karlsplatz</text>
    <circle cx="189.7" cy="355.9" r="4" fill="#dc2626" stroke="#fff" stroke-width="2"/>
    <text x="189.7" y="347.9" text-anchor="middle" font-size="10" fill="#374151">Hütteldorf</text>
    <circle cx="621.5" cy="264.8" r="4" fill="#dc2626" stroke="#fff" stroke-width="2"/>
    <text x="621.5" y="256.8" text-anchor="middle" font-size="10" fill="#374151">Aspern Nord</text>
    <circle cx="588.1" cy="267.4" r="4" fill="#dc2626" stroke="#fff" stroke-width="2"/>
    <text x="588.1" y="259.4" text-anchor="middle" font-size="10" fill="#374151">Hausfeldstraße</text>
    <circle cx="628.4" cy="284.9" r="4" fill="#dc2626" stroke="#fff" stroke-width="2"/>
    <text x="628.4" y="276.9" text-anchor="middle" font-size="10" fill="#374151">Seestadt</text>
    <circle cx="445.1" cy="305.4" r="4" fill="#dc2626" stroke="#fff" stroke-width="2"/>
    <text x="445.1" y="297.4" text-anchor="middle" font-size="10" fill="#374151">Messe-Prater</text>
    <circle cx="424.1" cy="300.6" r="4" fill="#dc2626" stroke="#fff" stroke-width="2"/>
    <text x="424.1" y="292.6" text-anchor="middle" font-size="10" fill="#374151">Praterstern</text>
    <circle cx="425.5" cy="303.6" r="4" fill="#dc2626" stroke="#fff" stroke-width="2"/>
    <text x="425.5" y="295.6" text-anchor="middle" font-size="10" fill="#374151">Praterstern</text>
    <circle cx="251.7" cy="374.3" r="4" fill="#dc2626" stroke="#fff" stroke-width="2"/>
    <text x="251.7" y="366.3" text-anchor="middle" font-size="10" fill="#374151">Braunschweiggasse</text>
    <circle cx="267.2" cy="378.7" r="4" fill="#dc2626" stroke="#fff" stroke-width="2"/>
    <text x="267.2" y="370.7" text-anchor="middle" font-size="10" fill="#374151">Hietzing</text>
    <circle cx="321.2" cy="385.3" r="4" fill="#dc2626" stroke="#fff" stroke-width="2"/>
    <text x="321.2" y="377.3" text-anchor="middle" font-size="10" fill="#374151">Längenfeldgasse</text>
    <circle cx="216.9" cy="367.4" r="4" fill="#dc2626" stroke="#fff" stroke-width="2"/>
    <text x="216.9" y="359.4" text-anchor="middle" font-size="10" fill="#374151">Ober St. Veit</text>
    <circle cx="292.7" cy="382.4" r="4" fill="#dc2626" stroke="#fff" stroke-width="2"/>
    <text x="292.7" y="374.4" text-anchor="middle" font-size="10" fill="#374151">Schönbrunn</text>
    <circle cx="234.3" cy="370.1" r="4" fill="#dc2626" stroke="#fff" stroke-width="2"/>
    <text x="234.3" y="362.1" text-anchor="middle" font-size="10" fill="#374151">Unter St. Veit</text>
    <circle cx="400.6" cy="341.4" r="4" fill="#dc2626" stroke="#fff" stroke-width="2"/>
    <text x="400.6" y="333.4" text-anchor="middle" font-size="10" fill="#374151">Stadtpark</text>
    <circle cx="362.1" cy="356.7" r="4" fill="#dc2626" stroke="#fff" stroke-width="2"/>
    <text x="362.1" y="348.7" text-anchor="middle" font-size="10" fill="#374151">Kettenbrückengasse</text>
    <circle cx="335.4" cy="376.5" r="4" fill="#dc2626" stroke="#fff" stroke-width="2"/>
    <text x="335.4" y="368.5" text-anchor="middle" font-size="10" fill="#374151">Margaretengürtel</text>
    <circle cx="355.3" cy="367.6" r="4" fill="#dc2626" stroke="#fff" stroke-width="2"/>
    <text x="355.3" y="359.6" text-anchor="middle" font-size="10" fill="#374151">Pilgramgasse</text>
    <circle cx="372.5" cy="281.0" r="4" fill="#dc2626" stroke="#fff" stroke-width="2"/>
    <text x="372.5" y="273.0" text-anchor="middle" font-size="10" fill="#374151">Friedensbrücke</text>
    <circle cx="378.9" cy="294.3" r="4" fill="#dc2626" stroke="#fff" stroke-width="2"/>
    <text x="378.9" y="286.3" text-anchor="middle" font-size="10" fill="#374151">Roßauer Lände</text>
    <circle cx="409.5" cy="331.8" r="4" fill="#dc2626" stroke="#fff" stroke-width="2"/>
    <text x="409.5" y="323.8" text-anchor="middle" font-size="10" fill="#374151">Landstraße</text>
    <circle cx="387.5" cy="306.3" r="4" fill="#dc2626" stroke="#fff" stroke-width="2"/>
    <text x="387.5" y="298.3" text-anchor="middle" font-size="10" fill="#374151">Schottenring</text>
    <circle cx="398.5" cy="320.1" r="4" fill="#dc2626" stroke="#fff" stroke-width="2"/>
    <text x="398.5" y="312.1" text-anchor="middle" font-size="10" fill="#374151">Schwedenplatz</text>
    <circle cx="276.5" cy="517.2" r="4" fill="#dc2626" stroke="#fff" stroke-width="2"/>
    <text x="276.5" y="509.2" text-anchor="middle" font-size="10" fill="#374151">Siebenhirten</text>
    <circle cx="437.1" cy="212.1" r="4" fill="#dc2626" stroke="#fff" stroke-width="2"/>
    <text x="437.1" y="204.1" text-anchor="middle" font-size="10" fill="#374151">Floridsdorf</text>
    <circle cx="289.0" cy="468.6" r="4" fill="#dc2626" stroke="#fff" stroke-width="2"/>
    <text x="289.0" y="460.6" text-anchor="middle" font-size="10" fill="#374151">Alterlaa</text>
    <circle cx="302.0" cy="444.0" r="4" fill="#dc2626" stroke="#fff" stroke-width="2"/>
    <text x="302.0" y="436.0" text-anchor="middle" font-size="10" fill="#374151">Am Schöpfwerk</text>
    <circle cx="288.4" cy="489.4" r="4" fill="#dc2626" stroke="#fff" stroke-width="2"/>
    <text x="288.4" y="481.4" text-anchor="middle" font-size="10" fill="#374151">Erlaaer Straße</text>
    <circle cx="282.6" cy="502.4" r="4" fill="#dc2626" stroke="#fff" stroke-width="2"/>
    <text x="282.6" y="494.4" text-anchor="middle" font-size="10" fill="#374151">Perfektastraße</text>
    <circle cx="308.4" cy="433.5" r="4" fill="#dc2626" stroke="#fff" stroke-width="2"/>
    <text x="308.4" y="425.5" text-anchor="middle" font-size="10" fill="#374151">Tscherttegasse</text>
    <circle cx="314.3" cy="395.2" r="4" fill="#dc2626" stroke="#fff" stroke-width="2"/>
    <text x="314.3" y="387.2" text-anchor="middle" font-size="10" fill="#374151">Niederhofstraße</text>
    <circle cx="472.6" cy="323.1" r="4" fill="#dc2626" stroke="#fff" stroke-width="2"/>
    <text x="472.6" y="315.1" text-anchor="middle" font-size="10" fill="#374151">Stadion</text>
    <circle cx="492.1" cy="333.0" r="4" fill="#dc2626" stroke="#fff" stroke-width="2"/>
    <text x="492.1" y="325.0" text-anchor="middle" font-size="10" fill="#374151">Donaumarina</text>
    <circle cx="460.7" cy="312.9" r="4" fill="#dc2626" stroke="#fff" stroke-width="2"/>
    <text x="460.7" y="304.9" text-anchor="middle" font-size="10" fill="#374151">Krieau</text>
    <circle cx="569.1" cy="293.8" r="4" fill="#dc2626" stroke="#fff" stroke-width="2"/>
    <text x="569.1" y="285.8" text-anchor="middle" font-size="10" fill="#374151">Aspernstraße</text>
    <circle cx="554.4" cy="301.4" r="4" fill="#dc2626" stroke="#fff" stroke-width="2"/>
    <text x="554.4" y="293.4" text-anchor="middle" font-size="10" fill="#374151">Donauspital</text>
    <circle cx="538.8" cy="297.9" r="4" fill="#dc2626" stroke="#fff" stroke-width="2"/>
    <text x="538.8" y="289.9" text-anchor="middle" font-size="10" fill="#374151">Hardeggasse</text>
    <circle cx="524.2" cy="300.6" r="4" fill="#dc2626" stroke="#fff" stroke-width="2"/>
    <text x="524.2" y="292.6" text-anchor="middle" font-size="10" fill="#374151">Stadlau</text>
    <circle cx="507.5" cy="319.9" r="4" fill="#dc2626" stroke="#fff" stroke-width="2"/>
    <text x="507.5" y="311.9" text-anchor="middle" font-size="10" fill="#374151">Donaustadtbrücke</text>
    <circle cx="403.2" cy="301.9" r="4" fill="#dc2626" stroke="#fff" stroke-width="2"/>
    <text x="403.2" y="293.9" text-anchor="middle" font-size="10" fill="#374151">Taborstraße</text>
    <circle cx="357.3" cy="323.8" r="4" fill="#dc2626" stroke="#fff" stroke-width="2"/>
    <text x="357.3" y="315.8" text-anchor="middle" font-size="10" fill="#374151">Rathaus</text>
    <circle cx="361.6" cy="335.9" r="4" fill="#dc2626" stroke="#fff" stroke-width="2"/>
    <text x="361.6" y="327.9" text-anchor="middle" font-size="10" fill="#374151">Volkstheater</text>
    <circle cx="367.6" cy="342.0" r="4" fill="#dc2626" stroke="#fff" stroke-width="2"/>
    <text x="367.6" y="334.0" text-anchor="middle" font-size="10" fill="#374151">Museumsquartier</text>
    <circle cx="521.2" cy="176.0" r="4" fill="#dc2626" stroke="#fff" stroke-width="2"/>
    <text x="521.2" y="168.0" text-anchor="middle" font-size="10" fill="#374151">Großfeldsiedlung</text>
    <circle cx="527.8" cy="194.6" r="4" fill="#dc2626" stroke="#fff" stroke-width="2"/>
    <text x="527.8" y="186.6" text-anchor="middle" font-size="10" fill="#374151">Aderklaaer Straße</text>
    <circle cx="524.3" cy="208.7" r="4" fill="#dc2626" stroke="#fff" stroke-width="2"/>
    <text x="524.3" y="200.7" text-anchor="middle" font-size="10" fill="#374151">Rennbahnweg</text>
    <circle cx="513.0" cy="226.6" r="4" fill="#dc2626" stroke="#fff" stroke-width="2"/>
    <text x="513.0" y="218.6" text-anchor="middle" font-size="10" fill="#374151">Kagraner Platz</text>
    <circle cx="494.7" cy="244.2" r="4" fill="#dc2626" stroke="#fff" stroke-width="2"/>
    <text x="494.7" y="236.2" text-anchor="middle" font-size="10" fill="#374151">Kagran</text>
    <circle cx="480.2" cy="255.7" r="4" fill="#dc2626" stroke="#fff" stroke-width="2"/>
    <text x="480.2" y="247.7" text-anchor="middle" font-size="10" fill="#374151">Alte Donau</text>
    <circle cx="327.1" cy="358.5" r="4" fill="#dc2626" stroke="#fff" stroke-width="2"/>
    <text x="327.1" y="350.5" text-anchor="middle" font-size="10" fill="#374151">Westbahnhof</text>
    <circle cx="309.9" cy="354.2" r="4" fill="#dc2626" stroke="#fff" stroke-width="2"/>
    <text x="309.9" y="346.2" text-anchor="middle" font-size="10" fill="#374151">Schweglerstraße</text>
    <circle cx="295.0" cy="354.3" r="4" fill="#dc2626" stroke="#fff" stroke-width="2"/>
    <text x="295.0" y="346.3" text-anchor="middle" font-size="10" fill="#374151">Johnstraße</text>
    <circle cx="278.7" cy="348.3" r="4" fill="#dc2626" stroke="#fff" stroke-width="2"/>
    <text x="278.7" y="340.3" text-anchor="middle" font-size="10" fill="#374151">Hütteldorfer Straße</text>
    <circle cx="275.3" cy="337.5" r="4" fill="#dc2626" stroke="#fff" stroke-width="2"/>
    <text x="275.3" y="329.5" text-anchor="middle" font-size="10" fill="#374151">Kendlerstraße</text>
    <circle cx="394.0" cy="398.7" r="4" fill="#dc2626" stroke="#fff" stroke-width="2"/>
    <text x="394.0" y="390.7" text-anchor="middle" font-size="10" fill="#374151">Keplerplatz</text>
    <circle cx="397.2" cy="409.3" r="4" fill="#dc2626" stroke="#fff" stroke-width="2"/>
    <text x="397.2" y="401.3" text-anchor="middle" font-size="10" fill="#374151">Reumannplatz</text>
    <circle cx="465.5" cy="268.8" r="4" fill="#dc2626" stroke="#fff" stroke-width="2"/>
    <text x="465.5" y="260.8" text-anchor="middle" font-size="10" fill="#374151">Kaisermühlen - VIC</text>
    <circle cx="456.5" cy="277.6" r="4" fill="#dc2626" stroke="#fff" stroke-width="2"/>
    <text x="456.5" y="269.6" text-anchor="middle" font-size="10" fill="#374151">Donauinsel</text>
    <circle cx="438.2" cy="291.2" r="4" fill="#dc2626" stroke="#fff" stroke-width="2"/>
    <text x="438.2" y="283.2" text-anchor="middle" font-size="10" fill="#374151">Vorgartenstraße</text>
    <circle cx="410.6" cy="311.5" r="4" fill="#dc2626" stroke="#fff" stroke-width="2"/>
    <text x="410.6" y="303.5" text-anchor="middle" font-size="10" fill="#374151">Nestroyplatz</text>
    <circle cx="279.2" cy="321.8" r="4" fill="#dc2626" stroke="#fff" stroke-width="2"/>
    <text x="279.2" y="313.8" text-anchor="middle" font-size="10" fill="#374151">Ottakring</text>
    <circle cx="325.7" cy="371.0" r="4" fill="#dc2626" stroke="#fff" stroke-width="2"/>
    <text x="325.7" y="363.0" text-anchor="middle" font-size="10" fill="#374151">Gumpendorfer Straße</text>
    <circle cx="328.7" cy="356.4" r="4" fill="#dc2626" stroke="#fff" stroke-width="2"/>
    <text x="328.7" y="348.4" text-anchor="middle" font-size="10" fill="#374151">Westbahnhof</text>
    <circle cx="325.1" cy="340.7" r="4" fill="#dc2626" stroke="#fff" stroke-width="2"/>
    <circle cx="426.9" cy="236.2" r="4" fill="#dc2626" stroke="#fff" stroke-width="2"/>
    <text x="426.9" y="228.2" text-anchor="middle" font-size="10" fill="#374151">Neue Donau</text>
    <circle cx="380.8" cy="263.0" r="4" fill="#dc2626" stroke="#fff" stroke-width="2"/>
    <text x="380.8" y="255.0" text-anchor="middle" font-size="10" fill="#374151">Jägerstraße</text>
    <circle cx="401.1" cy="258.1" r="4" fill="#dc2626" stroke="#fff" stroke-width="2"/>
    <text x="401.1" y="250.1" text-anchor="middle" font-size="10" fill="#374151">Dresdner Straße</text>
    <circle cx="333.3" cy="307.8" r="4" fill="#dc2626" stroke="#fff" stroke-width="2"/>
    <text x="333.3" y="299.8" text-anchor="middle" font-size="10" fill="#374151">Alser Straße</text>
    <circle cx="328.5" cy="320.7" r="4" fill="#dc2626" stroke="#fff" stroke-width="2"/>
    <text x="328.5" y="312.7" text-anchor="middle" font-size="10" fill="#374151">Josefstädter Straße</text>
    <circle cx="337.5" cy="297.0" r="4" fill="#dc2626" stroke="#fff" stroke-width="2"/>
    <text x="337.5" y="289.0" text-anchor="middle" font-size="10" fill="#374151">Michelbeuern-AKH</text>
    <circle cx="352.1" cy="272.5" r="4" fill="#dc2626" stroke="#fff" stroke-width="2"/>
    <text x="352.1" y="264.5" text-anchor="middle" font-size="10" fill="#374151">Nußdorfer Straße</text>
    <circle cx="326.5" cy="329.6" r="4" fill="#dc2626" stroke="#fff" stroke-width="2"/>
    <text x="326.5" y="321.6" text-anchor="middle" font-size="10" fill="#374151">Thaliastraße</text>
    <circle cx="346.8" cy="286.4" r="4" fill="#dc2626" stroke="#fff" stroke-width="2"/>
    <circle cx="370.8" cy="311.9" r="4" fill="#dc2626" stroke="#fff" stroke-width="2"/>
    <text x="370.8" y="303.9" text-anchor="middle" font-size="10" fill="#374151">Schottentor</text>
    <circle cx="461.4" cy="369.3" r="4" fill="#dc2626" stroke="#fff" stroke-width="2"/>
    <text x="461.4" y="361.3" text-anchor="middle" font-size="10" fill="#374151">Erdberg</text>
    <circle cx="374.5" cy="325.9" r="4" fill="#dc2626" stroke="#fff" stroke-width="2"/>
    <text x="374.5" y="317.9" text-anchor="middle" font-size="10" fill="#374151">Herrengasse</text>
    <circle cx="399.6" cy="331.7" r="4" fill="#dc2626" stroke="#fff" stroke-width="2"/>
    <text x="399.6" y="323.7" text-anchor="middle" font-size="10" fill="#374151">Stubentor</text>
  </g>
</svg>