<?xml version="1.0" encoding="UTF-8"?>
<svg width="800" height="600" xmlns="http://www.w3.org/2000/svg">
  <title>Vienna Subway Map</title>
  <rect width="100%" height="100%" fill="#f8f9fa"/>

  <!-- 지하철 선로 -->
  <g stroke="#2563eb" stroke-width="2" fill="none" opacity="0.8">
    <polyline points="381.4,358.9 381.2,358.6 381.0,358.3 380.8,358.0 380.6,357.7 380.4,357.4 380.2,357.1 380.1,356.7 379.9,356.3 379.8,356.0 379.7,355.6 379.6,355.2 379.5,354.8 379.5,354.4 379.4,354.0 379.4,353.7 379.4,353.4 379.4,353.1"/>
    <polyline points="434.3,218.4 433.8,219.8"/>
    <polyline points="325.0,339.0 324.9,338.1"/>
    <polyline points="325.8,369.7 325.9,369.5 325.9,369.4 326.1,369.0 326.3,368.5 326.9,367.0 327.4,365.9"/>
    <polyline points="279.7,320.1 279.9,319.1 280.2,317.5 280.3,317.2 280.4,317.0 280.4,316.7 280.5,316.4 280.6,316.2 280.6,316.0"/>
    <polyline points="371.2,245.1 371.4,244.7 371.5,244.3 371.7,244.0 372.0,243.3 372.0,243.3 372.3,242.4 372.4,242.1 372.5,241.9 372.6,241.6 372.7,241.4 372.7,241.3 372.8,241.1 372.9,240.8 372.9,240.6 373.0,240.4 373.0,240.1 373.2,239.7 373.3,239.2 373.3,238.9"/>
    <polyline points="436.9,212.0 436.7,212.4 436.5,212.7 436.3,213.2 436.1,213.6 435.8,214.1 435.6,214.7 435.5,215.0 435.3,215.3 435.2,215.6 434.3,218.4"/>
    <polyline points="370.8,262.7 370.4,262.6"/>
    <polyline points="409.7,247.6 409.3,247.9 409.1,248.0 408.8,248.2 408.6,248.3 408.4,248.5 408.2,248.6 408.0,248.8 407.8,248.9 407.6,249.1"/>
    <polyline points="309.3,426.2 309.3,426.0 309.3,425.7 309.4,425.4 309.4,425.1 309.5,424.8 309.6,424.4 309.7,424.2 309.9,423.9 310.0,423.6 310.2,423.3 310.3,423.0 310.5,422.7 310.6,422.5 310.9,422.2 311.1,421.9 311.3,421.7 311.5,421.4 312.2,420.7 312.5,420.3 312.8,419.9 313.0,419.6 313.2,419.3 313.4,419.0 313.6,418.7 313.8,418.4 314.0,418.1 314.1,417.8 314.2,417.5 314.3,417.2 314.4,416.9 314.5,416.5 314.6,416.1 314.6,415.8 314.7,415.2 314.8,414.1 315.0,412.8 315.1,411.6"/>
    <polyline points="195.3,359.9 195.2,359.7 195.1,359.5 195.0,359.2 194.9,359.0 194.8,358.8 194.7,358.6 194.6,358.4 194.4,358.2 194.3,358.0 194.1,357.8 194.0,357.7 193.8,357.5 193.5,357.3 193.3,357.2 193.1,357.0 192.9,356.9 192.6,356.8 191.8,356.5"/>
    <polyline points="527.2,188.5 527.1,188.2 525.4,184.5 525.0,183.9 524.8,183.5 524.7,183.1 524.5,182.8 524.4,182.6 524.2,182.4 524.1,182.1 523.9,181.8 523.4,181.1 523.2,180.8 523.0,180.5 522.9,180.2 522.7,180.0 522.6,179.7 522.5,179.5 522.4,179.2 522.2,178.6 521.9,177.8 521.7,177.1 521.3,175.9 520.9,174.8 520.6,174.0 520.0,172.3 519.8,171.7 519.6,171.0 519.5,170.4 519.4,169.8 519.3,169.5 519.3,169.2 519.2,168.9 519.2,168.6 519.2,168.3 519.2,168.0 519.2,167.7 519.2,167.4 519.3,167.1 519.3,166.8 519.4,166.5 519.5,166.2 519.6,165.9 519.7,165.6 519.9,165.3 520.0,165.0 520.2,164.7 520.4,164.4 520.6,164.2 520.8,163.9 521.0,163.7 521.3,163.4 521.5,163.2 521.8,163.0 522.1,162.8"/>
    <polyline points="522.3,212.2 522.0,212.8 521.4,213.8 520.7,215.2"/>
    <polyline points="499.5,239.3 501.9,236.0 502.1,235.8"/>
    <polyline points="455.1,308.2 455.3,308.3 455.5,308.5 455.9,308.9 456.3,309.3 457.4,310.4 457.6,310.7 457.9,311.0 458.2,311.2 458.5,311.4 458.8,311.7"/>
    <polyline points="450.3,305.7 450.6,305.8 450.8,305.8 451.1,305.9 451.3,306.0 451.5,306.1 451.8,306.1 452.0,306.2 452.2,306.3 452.4,306.4 452.6,306.5 452.8,306.6 453.0,306.7 453.2,306.8 453.4,306.9 453.6,307.0 453.8,307.1 454.0,307.3 454.3,307.4 454.5,307.6 454.7,307.8 454.9,308.0 455.1,308.2"/>
    <polyline points="275.6,523.4 275.6,523.2 276.1,520.1 276.3,519.0"/>
    <polyline points="333.2,357.5 332.8,357.6 332.5,357.6 332.0,357.8 331.5,357.8 331.1,357.9 330.8,357.9 330.3,358.0 329.9,358.1 329.5,358.1 328.6,358.1 328.1,358.2 327.8,358.2 327.1,358.3 326.4,358.3 326.0,358.3 325.6,358.3 325.3,358.4 325.0,358.4 324.6,358.4 324.3,358.4 324.0,358.3 323.7,358.3 323.4,358.3 323.1,358.3 322.8,358.2 322.4,358.1 322.1,358.1 321.8,358.0 321.5,357.9 321.2,357.8 320.9,357.6 320.6,357.5 320.3,357.4 320.0,357.2 319.8,357.0 319.5,356.8"/>
    <polyline points="309.2,426.2 309.1,426.5 309.1,426.7 309.1,426.9 309.1,427.1 309.1,427.2 309.1,427.5 309.1,428.2 309.1,428.5 309.0,429.3 309.0,430.4 308.9,430.8"/>
    <polyline points="325.5,381.0 325.6,380.9 325.7,380.7 325.9,380.4 326.0,380.3 326.1,380.0 326.2,379.8 326.3,379.7 326.4,379.4 326.5,379.2"/>
    <polyline points="326.6,374.1 326.3,373.2 326.3,372.9 326.2,372.7 326.1,372.5 326.0,372.2 325.9,372.0 325.9,371.8 325.8,371.6 325.8,371.5 325.8,371.4 325.8,371.3 325.7,371.2 325.7,371.2 325.7,371.1 325.7,371.0 325.7,370.8 325.7,370.7 325.7,370.5 325.7,370.3 325.7,370.2 325.7,370.0 325.8,369.9 325.8,369.8 325.8,369.7"/>
    <polyline points="324.9,338.1 324.9,337.4 324.7,335.2 324.7,334.8 324.7,334.3 324.8,334.1 324.8,333.8 324.8,333.6 324.9,333.3 325.0,333.1 325.0,332.9 325.1,332.6 325.2,332.4 325.3,332.1 325.7,331.4 326.5,329.6"/>
    <polyline points="371.3,245.2 371.4,245.0 371.5,244.9 371.6,244.8 371.6,244.7 371.7,244.5 371.8,244.4 371.8,244.4 371.9,244.3 371.9,244.2 372.1,243.7 372.2,243.5 372.3,243.2 372.5,242.7 372.6,242.4 372.8,242.1 372.9,241.8 373.0,241.5 373.0,241.4 373.1,241.3 373.1,241.1 373.2,240.9 373.3,240.5 373.4,240.3 373.4,240.1 373.5,239.8 373.6,239.6 373.6,239.3 373.7,239.2 373.7,239.1"/>
    <polyline points="264.9,377.9 264.3,377.8 263.8,377.6 263.0,377.4 260.2,376.6 259.3,376.3 258.5,376.1 257.7,375.8 256.8,375.6 255.9,375.3 255.5,375.2 255.2,375.1 254.3,374.9 253.9,374.8 253.4,374.7 251.7,374.2 250.5,373.9 250.1,373.7 249.6,373.6 249.0,373.4 248.4,373.2 246.9,372.8 246.2,372.6 245.7,372.5 244.6,372.2 243.7,371.9 242.0,371.5 241.5,371.4 241.0,371.3 238.1,370.7 237.7,370.7 237.0,370.6 236.7,370.5 235.5,370.3 234.3,370.1 233.8,370.0 232.6,369.7 232.4,369.7 232.0,369.6 231.1,369.3 230.7,369.2 230.4,369.2 230.0,369.1 229.1,369.0 228.1,368.8 227.0,368.6 226.1,368.5 225.2,368.3 224.5,368.3 223.3,368.1 221.1,367.8 220.5,367.7 220.1,367.7 219.7,367.6 219.1,367.6 218.7,367.6 218.3,367.5"/>
    <polyline points="197.8,363.5 197.6,363.4 197.4,363.3 197.3,363.2 197.1,363.0 196.8,362.7 196.7,362.6 196.6,362.5 196.5,362.3 196.4,362.2 196.2,362.0 195.6,360.6"/>
    <polyline points="433.1,222.0 433.0,222.3"/>
    <polyline points="356.5,266.3 356.6,266.0 356.6,265.8 356.7,265.6 356.8,265.4 356.9,265.2 356.9,265.1 357.0,264.9 357.1,264.7 357.2,264.5 357.4,264.2 357.5,264.0 357.6,263.9 357.8,263.8 357.9,263.6 358.0,263.5 358.2,263.4 358.3,263.3 358.5,263.2 358.6,263.1 358.8,263.0 359.0,262.9 359.1,262.8 359.3,262.8 359.5,262.7 359.7,262.6 359.9,262.6 360.2,262.5 360.4,262.4"/>
    <polyline points="354.2,271.3 354.4,271.2 354.6,271.0 354.8,270.8 354.9,270.7 355.1,270.5 355.2,270.4 355.3,270.3 355.4,270.1 355.5,270.0 355.6,269.8 355.6,269.7 355.7,269.5 355.8,269.2 355.9,268.9 356.0,268.6 356.5,266.3"/>
    <polyline points="408.4,324.1 409.0,325.3"/>
    <polyline points="295.3,383.3 295.1,383.3"/>
    <polyline points="462.0,272.1 462.3,271.7 462.6,271.3 462.9,271.0 463.0,270.8 463.3,270.5 463.6,270.3 463.8,270.1 464.4,269.7 465.5,268.8 466.9,267.9 468.1,267.0 469.0,266.3 470.8,265.0 471.3,264.6 471.6,264.3 471.9,264.1 472.1,263.8 472.3,263.7 472.5,263.5 472.7,263.2 473.0,262.9 473.2,262.6 473.5,262.3 474.4,261.0 474.6,260.8 474.8,260.5 475.1,260.1 475.4,259.8 475.7,259.5 476.0,259.2 476.3,258.9 476.8,258.5 477.1,258.2 477.4,257.9 477.9,257.5 479.0,256.7 480.3,255.7 481.7,254.5 483.5,253.2 485.1,252.0 488.5,249.4 489.7,248.6 489.9,248.4 490.4,248.0 491.4,247.3 491.9,246.9 492.2,246.7 492.6,246.3 493.0,246.0 493.6,245.5 494.8,244.3 497.2,241.9 497.6,241.6 497.9,241.3 498.2,241.0 498.4,240.7 498.7,240.4 498.9,240.2 499.2,239.7 499.5,239.3"/>
    <polyline points="284.3,379.7 283.2,379.4 282.8,379.3 282.5,379.3 282.2,379.2 282.0,379.2"/>
    <polyline points="291.3,381.9 290.5,381.5 289.4,381.0 289.2,381.0 288.9,380.9 288.6,380.8 288.3,380.7 287.9,380.6 286.0,380.1 284.3,379.7"/>
    <polyline points="336.4,376.4 336.3,376.4"/>
    <polyline points="360.2,357.2 359.8,357.3 359.6,357.3 359.3,357.4 359.1,357.5 358.9,357.6 358.6,357.7 358.4,357.8 358.1,358.0 357.9,358.1 357.7,358.2 357.5,358.4"/>
    <polyline points="401.4,340.6 400.5,341.4 399.3,342.5"/>
    <polyline points="463.0,369.5 463.3,369.6 463.5,369.7 463.8,369.7 464.1,369.8 464.4,369.8 464.7,369.8 465.0,369.8 465.2,369.8 465.6,369.7 466.0,369.6 466.3,369.5 466.6,369.4 467.0,369.3 467.5,369.1 468.3,368.7 468.7,368.5 469.0,368.3 469.6,368.0 470.2,367.5 470.7,367.2 471.3,366.8 473.9,364.7 475.9,362.5 478.0,360.0 479.9,357.4 480.8,355.8 481.9,353.7 482.8,351.5 483.4,349.8 483.9,348.1 484.2,346.8 484.5,345.2 484.6,343.3 484.6,341.1 484.4,339.2 484.2,337.8 483.9,337.0 483.6,336.3"/>
    <polyline points="282.0,379.2 281.8,379.2 281.6,379.2 281.2,379.1 280.9,379.1 280.3,379.1 274.7,378.8 273.8,378.8 273.2,378.8 272.2,378.8 271.9,378.8 271.5,378.8 271.2,378.8 270.5,378.8 270.2,378.8 269.7,378.8 268.6,378.8 268.2,378.7 268.0,378.7 267.7,378.7 267.5,378.7 267.2,378.6 267.1,378.6 266.9,378.6"/>
    <polyline points="266.9,378.6 266.6,378.5 266.4,378.5 266.2,378.4 266.0,378.3 265.7,378.3 265.2,378.0 264.9,377.9"/>
    <polyline points="373.3,238.9 373.4,238.6"/>
    <polyline points="398.8,342.9 398.5,343.2 398.3,343.3 398.2,343.5 398.0,343.7 395.6,346.6 395.5,346.8 395.4,346.9 395.2,347.1 395.1,347.2 394.9,347.3 394.8,347.4 394.7,347.5 394.5,347.6 394.4,347.7 394.2,347.8 394.1,347.9 393.9,348.0 393.7,348.1 393.3,348.2 391.0,349.0 390.8,349.1 390.7,349.1 390.5,349.2 390.4,349.2 390.2,349.3 390.0,349.3 389.9,349.3 389.7,349.3 389.5,349.3 389.3,349.3 389.1,349.3 389.0,349.3 388.8,349.3 388.6,349.3 388.5,349.2 388.3,349.2 388.2,349.2 388.0,349.1 387.9,349.1 386.9,348.8 386.0,348.5 384.0,347.9 383.9,347.9"/>
    <polyline points="624.6,297.8 624.8,297.0 625.2,296.0 625.4,295.2"/>
    <polyline points="460.0,367.5 461.0,368.5 462.1,369.4 462.6,369.8 462.7,370.0 462.8,370.0 463.0,370.2 463.3,370.5 463.5,370.7 463.6,370.8 463.7,370.9 463.8,371.0 463.9,371.1 464.2,371.3 465.8,372.6 466.6,373.2 467.0,373.6 467.2,373.8 468.0,374.4 468.5,374.8 468.7,375.0 468.8,375.1 469.0,375.2 469.2,375.3 469.3,375.3 469.4,375.4 469.5,375.4 469.6,375.5 469.9,375.6 470.1,375.7 470.2,375.7"/>
    <polyline points="465.4,370.7 465.5,370.7 465.6,370.7 465.7,370.6 466.0,370.6 466.1,370.6 466.3,370.6 466.4,370.6 466.6,370.6 466.8,370.6 466.9,370.6 467.4,370.6 467.5,370.6 467.6,370.6 467.7,370.6 467.8,370.6 467.9,370.6 468.0,370.6 468.1,370.6 468.2,370.6 468.3,370.6 468.5,370.7 468.6,370.7 468.8,370.8 468.9,370.9 469.1,370.9 469.2,371.0 474.7,375.1 475.2,375.5 475.9,376.0 476.4,376.4 476.9,376.7 477.3,376.9 477.6,377.0 477.9,377.2 478.7,377.6 479.6,378.0 480.4,378.4 481.0,378.6 481.3,378.8 481.7,378.9 482.8,379.4 483.6,379.8 484.7,380.3 485.2,380.5 485.6,380.7 486.0,380.8 487.3,381.5 488.8,382.2 489.0,382.3"/>
    <polyline points="466.9,370.6 467.1,370.6 467.3,370.6 467.4,370.6 467.5,370.6 467.6,370.7 467.7,370.7 467.8,370.7 467.9,370.7 468.0,370.7"/>
    <polyline points="334.6,303.3 335.4,300.6"/>
    <polyline points="338.6,294.8 338.5,294.8 338.5,294.9 338.4,294.9 338.3,294.9 338.2,295.1 338.0,295.2 337.9,295.3 337.6,295.6 337.4,295.8 337.2,296.0 336.9,296.3 336.7,296.5 336.5,296.8 336.2,297.1 336.2,297.1 336.1,297.2 336.1,297.3"/>
    <polyline points="336.5,297.4 336.4,297.5 336.1,297.9 336.1,298.0 336.0,298.1 336.0,298.1 336.0,298.2 336.0,298.3 336.0,298.4"/>
    <polyline points="336.4,297.3 336.3,297.4 336.1,297.7 336.1,297.8 336.0,297.9 336.0,298.0"/>
    <polyline points="336.3,297.3 336.3,297.4 336.2,297.5 336.1,297.6 336.1,297.7 336.1,297.7 336.0,297.9 336.0,298.0"/>
    <polyline points="336.3,297.2 336.2,297.3 336.1,297.5 336.0,297.5 336.0,297.7"/>
    <polyline points="336.3,298.0 336.3,298.1 336.2,298.1 336.2,298.2 336.2,298.3 336.1,298.4 336.1,298.7"/>
    <polyline points="336.2,298.0 336.2,298.1 336.2,298.1 336.1,298.2 336.1,298.3 336.1,298.4 336.1,298.5 336.1,298.6 336.1,298.8"/>
    <polyline points="334.3,303.2 335.2,300.6"/>
    <polyline points="334.5,303.3 335.3,300.6"/>
    <polyline points="373.7,282.2 373.5,282.0 373.3,281.8 373.1,281.5 372.9,281.2 372.6,280.9 372.2,280.2 371.5,279.3 371.3,279.0 371.0,278.7 370.9,278.5 370.8,278.3 370.7,278.1 370.6,277.9 370.5,277.9 370.5,277.8 370.4,277.6 370.3,277.4 370.2,277.2 370.1,277.1 370.0,277.0 369.9,276.7 369.9,276.6 369.8,276.4 369.7,276.3 369.7,276.1 369.6,275.9 369.5,275.6 368.9,274.2 368.6,273.5 368.4,273.1 368.1,272.2 368.0,272.0 367.9,271.8"/>
    <polyline points="364.3,267.3 364.2,267.2 364.0,267.0 363.9,266.7 363.8,266.5 363.7,266.3 363.6,266.2 363.6,266.0 363.5,265.8 363.4,265.6 363.3,265.3 363.2,264.8 363.1,264.5 363.1,264.1 363.0,263.6 362.9,263.2 362.8,262.8 362.8,262.7 362.8,262.5 362.8,262.3 362.8,262.1 362.8,261.9 362.8,261.7 362.8,261.5"/>
    <polyline points="465.6,387.4 465.4,387.7 465.2,387.9 465.1,388.1 464.9,388.3 464.7,388.6 464.5,388.8 464.2,389.0 464.0,389.1 463.8,389.4 463.5,389.5 463.3,389.7 462.1,390.7 461.1,391.4 460.4,392.0 460.1,392.1 459.9,392.3 459.6,392.5 459.4,392.7 459.2,392.9 459.1,393.1 458.9,393.3 458.7,393.5 458.5,393.7 458.3,394.0 458.2,394.3 458.0,394.5 457.9,394.8 457.8,395.0 457.7,395.1 457.5,395.4 457.1,396.3 456.5,397.4 456.2,398.0 456.0,398.3 455.9,398.5 455.8,398.8 455.7,399.1 455.6,399.4 455.5,399.7 455.4,400.0 455.3,400.3 455.3,400.6 455.3,400.9 455.3,401.2 455.3,401.5 455.3,401.8 455.3,402.2 455.4,402.5 455.5,402.8 455.5,403.1 455.6,403.4 455.8,403.7 455.9,404.0 456.0,404.2"/>
    <polyline points="326.4,379.2 326.3,379.3 326.3,379.5 326.2,379.7"/>
    <polyline points="324.3,381.9 324.0,382.2 323.8,382.4 322.7,383.7"/>
    <polyline points="322.9,383.9 323.2,383.4"/>
    <polyline points="317.0,387.6 316.9,387.7 316.7,387.8 316.5,388.0 316.3,388.1 316.1,388.3 315.9,388.5 315.8,388.6 315.6,388.8 315.4,389.0 315.3,389.2 315.2,389.4 315.1,389.5 315.0,389.7 314.9,389.9 314.8,390.1 314.8,390.3 314.7,390.6 314.6,390.8 314.6,391.1 314.5,391.3 314.5,391.6 314.3,393.9 314.2,395.2 314.0,396.5 314.0,396.8 314.0,397.2 314.0,397.6 314.0,398.1 314.0,398.5 314.0,398.9 314.1,399.3 314.2,399.7 314.3,400.1 314.5,400.9 314.5,401.2 314.6,401.6 314.6,401.9 314.7,402.2 314.7,402.7 314.9,406.4 314.9,406.5 315.0,406.8 315.0,407.8 315.0,408.2 315.0,408.7 315.0,409.2 315.0,409.7 314.9,410.3 314.9,410.6 314.8,411.5"/>
    <polyline points="317.9,387.4 317.6,387.5 317.2,387.7 316.7,387.8 316.4,387.9 316.1,388.0 315.8,388.1 315.5,388.1 315.2,388.1 315.0,388.1 314.8,388.2 314.4,388.2 314.2,388.2 313.6,388.2 312.3,388.1 312.1,388.1 311.9,388.1"/>
    <polyline points="322.7,383.7 322.3,384.1 322.1,384.3 321.8,384.6 321.4,384.9 321.1,385.2 320.8,385.5 320.4,385.8 320.1,386.1 319.9,386.3 319.7,386.4 319.5,386.6 319.3,386.7 319.0,386.8 318.8,387.0 318.4,387.2 318.2,387.3 317.9,387.4"/>
    <polyline points="322.5,383.5 321.9,384.1 321.6,384.5 321.3,384.8 321.0,385.1 320.6,385.4 320.3,385.7 319.9,386.0 319.8,386.1 319.6,386.2 319.4,386.3 319.2,386.5 318.9,386.6 318.7,386.8 318.4,386.9 317.8,387.2"/>
    <polyline points="317.8,387.2 317.5,387.3 317.3,387.4 317.2,387.5 317.0,387.6"/>
    <polyline points="325.3,381.1 325.5,380.8 325.7,380.6 326.0,380.3 326.2,380.0 326.4,379.8 326.6,379.6 326.8,379.3 327.0,379.1 327.3,378.9 327.5,378.7 327.8,378.5 328.0,378.3 328.3,378.1 328.6,377.9 328.9,377.8 329.1,377.7 329.5,377.5 329.7,377.4 330.0,377.3 330.3,377.2 330.6,377.1 330.9,377.1 331.2,377.0 331.6,376.9 331.9,376.9 332.2,376.8 332.6,376.8 333.4,376.7 333.9,376.6"/>
    <polyline points="325.5,379.1 326.1,378.5"/>
    <polyline points="327.4,365.9 327.6,365.3"/>
    <polyline points="328.2,364.0 328.3,363.7"/>
    <polyline points="328.3,363.7 328.8,362.5"/>
    <polyline points="327.6,365.3 328.2,364.0"/>
    <polyline points="338.2,376.3 338.6,376.2"/>
    <polyline points="338.6,376.2 339.0,376.2 339.2,376.1 339.4,376.1 339.6,376.1 339.7,376.0 339.8,376.0 344.9,374.9"/>
    <polyline points="357.5,358.4 357.3,358.5 357.2,358.6 357.0,358.8 356.9,358.9 356.7,359.1 356.6,359.2 356.4,359.4 356.3,359.5 356.2,359.7 356.1,359.8 356.0,360.0 355.9,360.1 355.8,360.3 355.8,360.4 355.7,360.6 355.7,360.8 355.6,360.9 355.6,361.1 355.5,361.3 355.5,361.4 355.5,361.6 355.5,361.8 355.5,361.9 355.5,362.1 355.5,362.4 355.7,364.8 355.7,365.0 355.7,365.3"/>
    <polyline points="355.7,365.3 355.7,365.5 355.7,365.7 355.7,365.9 355.7,366.1 355.6,366.4 355.6,366.6"/>
    <polyline points="335.3,301.9 335.9,300.0 335.9,299.8 336.0,299.7 336.1,299.5 336.1,299.4 336.2,299.2 336.3,299.0 336.4,298.8 336.5,298.5 336.7,298.2 336.8,298.0 337.0,297.9 337.1,297.7 337.4,297.3 337.6,297.1 337.7,297.0 338.1,296.6 338.2,296.4 338.4,296.2 338.7,296.0 338.9,295.8 339.1,295.6 339.3,295.5 339.5,295.3 339.7,295.2 339.9,295.1 340.0,295.0 340.2,294.9 340.4,294.8 340.6,294.7 340.8,294.6 341.0,294.5 341.2,294.4 341.4,294.3 341.6,294.2 341.9,294.2 342.6,293.9 342.8,293.8 343.0,293.8"/>
    <polyline points="343.0,293.8 343.3,293.7 343.5,293.6 343.7,293.4 343.9,293.4 344.0,293.3 344.1,293.2 344.3,293.1 344.5,292.9 344.7,292.8 344.9,292.6 345.0,292.5 345.2,292.3 345.3,292.2 345.4,292.0 345.6,291.9 345.7,291.7 345.8,291.5 345.9,291.3 346.0,291.2 346.1,291.0 346.1,290.8 346.2,290.6 346.2,290.4 346.3,290.2 346.3,290.0 346.9,286.4 347.1,284.9 347.6,282.2 347.9,280.3 348.0,279.6 348.5,276.4 348.6,276.2 348.6,276.0 348.7,275.8 348.7,275.6 348.8,275.4 348.9,275.2 349.0,275.0 349.1,274.8 349.3,274.6 349.4,274.4 349.6,274.2 349.7,274.0 349.9,273.9 350.0,273.7 350.2,273.6 350.4,273.5 350.6,273.4 350.7,273.3 351.0,273.2 352.1,272.5 353.1,272.0 353.3,271.9 353.5,271.7 353.8,271.6 354.0,271.5 354.2,271.3"/>
    <polyline points="195.4,360.6 196.0,361.9 196.1,362.1 196.3,362.2 196.4,362.4 196.5,362.5 196.6,362.7 196.7,362.8 196.9,363.0 197.1,363.2 197.2,363.3 197.4,363.4 197.5,363.5 197.8,363.6"/>
    <polyline points="371.3,247.5 371.5,247.4"/>
    <polyline points="203.2,365.4 203.6,365.5 204.0,365.6 204.4,365.7 205.0,365.8 205.4,365.8 206.0,365.9 207.6,366.1 210.8,366.5"/>
    <polyline points="318.4,387.2 319.8,386.1"/>
    <polyline points="195.6,360.6 195.5,360.5 195.3,359.9 194.8,359.0 194.7,358.9 194.6,358.7 194.5,358.5 194.3,358.3 194.2,358.1 194.0,358.0 193.8,357.8 193.7,357.6 193.6,357.5 193.3,357.3 193.0,357.1 192.6,356.9 192.3,356.7 192.1,356.6 191.8,356.5 191.6,356.4 191.2,356.2 189.8,355.7"/>
    <polyline points="191.4,356.7 191.6,356.8 191.7,356.9 191.7,357.0 191.8,357.0 192.1,357.3 192.2,357.3"/>
    <polyline points="300.1,385.4 300.3,385.5 300.5,385.5 300.9,385.6 301.2,385.7 301.4,385.8 301.6,385.8 301.8,385.9"/>
    <polyline points="191.5,356.7 191.8,356.8 192.0,356.9 192.2,357.1 192.4,357.2"/>
    <polyline points="258.5,376.2 258.9,376.3 259.5,376.4 260.1,376.6 263.4,377.6 263.9,377.7 264.4,377.9"/>
    <polyline points="191.0,356.5 191.2,356.6 191.4,356.7 191.9,357.0 192.1,357.1 192.3,357.2"/>
    <polyline points="266.9,378.7 267.1,378.7 267.2,378.7 267.4,378.7 267.7,378.8 268.0,378.8 268.2,378.8 268.6,378.8 269.7,378.9 270.2,378.9 270.5,378.9 271.2,378.8 271.5,378.8 271.9,378.8 272.2,378.8 273.2,378.9 273.8,378.9 274.7,378.9 280.3,379.2 280.9,379.2 281.2,379.2 281.6,379.2 281.8,379.2 281.9,379.3"/>
    <polyline points="284.3,379.8 286.6,380.3 287.9,380.7 288.3,380.8 288.6,380.9 288.9,380.9 289.1,381.0 289.4,381.1 289.7,381.2 290.4,381.5 291.1,381.8 291.3,381.9"/>
    <polyline points="194.9,359.5 195.2,359.9 195.3,360.2 195.5,360.5"/>
    <polyline points="281.9,379.3 282.1,379.3 282.4,379.3 282.8,379.4 283.1,379.5 284.3,379.8"/>
    <polyline points="300.1,385.4 301.0,385.7 301.3,385.9 301.5,386.0 301.6,386.1 301.7,386.1 302.0,386.2"/>
    <polyline points="311.4,388.1 311.0,388.1 310.6,388.1 309.1,388.1 308.8,388.1 308.6,388.0 308.4,388.0 308.1,388.0 307.8,388.0 307.6,387.9 307.3,387.9 307.0,387.8"/>
    <polyline points="293.9,382.9 294.3,383.0"/>
    <polyline points="264.9,378.0 265.1,378.1 265.7,378.3 265.9,378.4 266.2,378.5 266.4,378.5 266.6,378.6 266.9,378.7"/>
    <polyline points="295.1,383.4 295.1,383.4 296.4,383.9 297.0,384.1 298.0,384.6 302.0,386.2 303.1,386.7 303.5,386.9 304.2,387.1 305.4,387.7 305.6,387.8 305.9,387.9 306.1,388.0 306.4,388.1"/>
    <polyline points="311.9,388.4 312.1,388.4 312.2,388.3 312.3,388.3 312.5,388.3 312.7,388.2 312.9,388.2 313.0,388.2 313.1,388.2 313.2,388.2 313.3,388.2 313.4,388.2 313.5,388.2 313.6,388.2"/>
    <polyline points="263.4,377.6 263.6,377.6 264.2,377.7 264.3,377.8"/>
    <polyline points="191.2,356.2 191.5,356.4 191.7,356.5 192.0,356.6 192.6,357.0 192.9,357.2 193.4,357.5"/>
  </g>

  <!-- 지하철 역 -->
  <g>
    <circle cx="448.0" cy="361.9" r="3" fill="#dc2626" stroke="#fff" stroke-width="1"/>
    <circle cx="466.9" cy="385.2" r="3" fill="#dc2626" stroke="#fff" stroke-width="1"/>
    <circle cx="457.5" cy="396.5" r="3" fill="#dc2626" stroke="#fff" stroke-width="1"/>
    <circle cx="528.6" cy="160.2" r="3" fill="#dc2626" stroke="#fff" stroke-width="1"/>
    <circle cx="422.6" cy="343.5" r="3" fill="#dc2626" stroke="#fff" stroke-width="1"/>
    <circle cx="462.5" cy="409.9" r="3" fill="#dc2626" stroke="#fff" stroke-width="1"/>
    <circle cx="436.1" cy="354.4" r="3" fill="#dc2626" stroke="#fff" stroke-width="1"/>
    <circle cx="472.7" cy="421.9" r="3" fill="#dc2626" stroke="#fff" stroke-width="1"/>
    <circle cx="410.9" cy="334.6" r="3" fill="#dc2626" stroke="#fff" stroke-width="1"/>
    <circle cx="308.6" cy="388.2" r="3" fill="#dc2626" stroke="#fff" stroke-width="1"/>
    <circle cx="405.1" cy="460.8" r="3" fill="#dc2626" stroke="#fff" stroke-width="1"/>
    <circle cx="406.6" cy="440.1" r="3" fill="#dc2626" stroke="#fff" stroke-width="1"/>
    <circle cx="410.8" cy="480.2" r="3" fill="#dc2626" stroke="#fff" stroke-width="1"/>
    <circle cx="436.1" cy="488.6" r="3" fill="#dc2626" stroke="#fff" stroke-width="1"/>
    <circle cx="401.4" cy="423.8" r="3" fill="#dc2626" stroke="#fff" stroke-width="1"/>
    <circle cx="314.8" cy="412.8" r="3" fill="#dc2626" stroke="#fff" stroke-width="1"/>
    <circle cx="389.3" cy="379.8" r="3" fill="#dc2626" stroke="#fff" stroke-width="1"/>
    <circle cx="410.9" cy="247.0" r="3" fill="#dc2626" stroke="#fff" stroke-width="1"/>
    <circle cx="375.3" cy="231.9" r="3" fill="#dc2626" stroke="#fff" stroke-width="1"/>
    <circle cx="362.1" cy="262.2" r="3" fill="#dc2626" stroke="#fff" stroke-width="1"/>
    <circle cx="362.9" cy="264.1" r="3" fill="#dc2626" stroke="#fff" stroke-width="1"/>
    <circle cx="385.9" cy="328.9" r="3" fill="#dc2626" stroke="#fff" stroke-width="1"/>
    <circle cx="383.9" cy="363.9" r="3" fill="#dc2626" stroke="#fff" stroke-width="1"/>
    <circle cx="382.5" cy="347.6" r="3" fill="#dc2626" stroke="#fff" stroke-width="1"/>
    <circle cx="189.7" cy="355.9" r="3" fill="#dc2626" stroke="#fff" stroke-width="1"/>
    <circle cx="621.5" cy="264.8" r="3" fill="#dc2626" stroke="#fff" stroke-width="1"/>
    <circle cx="588.1" cy="267.4" r="3" fill="#dc2626" stroke="#fff" stroke-width="1"/>
    <circle cx="628.4" cy="284.9" r="3" fill="#dc2626" stroke="#fff" stroke-width="1"/>
    <circle cx="445.1" cy="305.4" r="3" fill="#dc2626" stroke="#fff" stroke-width="1"/>
    <circle cx="424.1" cy="300.6" r="3" fill="#dc2626" stroke="#fff" stroke-width="1"/>
    <circle cx="425.5" cy="303.6" r="3" fill="#dc2626" stroke="#fff" stroke-width="1"/>
    <circle cx="251.7" cy="374.3" r="3" fill="#dc2626" stroke="#fff" stroke-width="1"/>
    <circle cx="267.2" cy="378.7" r="3" fill="#dc2626" stroke="#fff" stroke-width="1"/>
    <circle cx="321.2" cy="385.3" r="3" fill="#dc2626" stroke="#fff" stroke-width="1"/>
    <circle cx="216.9" cy="367.4" r="3" fill="#dc2626" stroke="#fff" stroke-width="1"/>
    <circle cx="292.7" cy="382.4" r="3" fill="#dc2626" stroke="#fff" stroke-width="1"/>
    <circle cx="234.3" cy="370.1" r="3" fill="#dc2626" stroke="#fff" stroke-width="1"/>
    <circle cx="400.6" cy="341.4" r="3" fill="#dc2626" stroke="#fff" stroke-width="1"/>
    <circle cx="362.1" cy="356.7" r="3" fill="#dc2626" stroke="#fff" stroke-width="1"/>
    <circle cx="335.4" cy="376.5" r="3" fill="#dc2626" stroke="#fff" stroke-width="1"/>
    <circle cx="355.3" cy="367.6" r="3" fill="#dc2626" stroke="#fff" stroke-width="1"/>
    <circle cx="372.5" cy="281.0" r="3" fill="#dc2626" stroke="#fff" stroke-width="1"/>
    <circle cx="378.9" cy="294.3" r="3" fill="#dc2626" stroke="#fff" stroke-width="1"/>
    <circle cx="409.5" cy="331.8" r="3" fill="#dc2626" stroke="#fff" stroke-width="1"/>
    <circle cx="387.5" cy="306.3" r="3" fill="#dc2626" stroke="#fff" stroke-width="1"/>
    <circle cx="398.5" cy="320.1" r="3" fill="#dc2626" stroke="#fff" stroke-width="1"/>
    <circle cx="276.5" cy="517.2" r="3" fill="#dc2626" stroke="#fff" stroke-width="1"/>
    <circle cx="437.1" cy="212.1" r="3" fill="#dc2626" stroke="#fff" stroke-width="1"/>
    <circle cx="289.0" cy="468.6" r="3" fill="#dc2626" stroke="#fff" stroke-width="1"/>
    <circle cx="302.0" cy="444.0" r="3" fill="#dc2626" stroke="#fff" stroke-width="1"/>
    <circle cx="288.4" cy="489.4" r="3" fill="#dc2626" stroke="#fff" stroke-width="1"/>
    <circle cx="282.6" cy="502.4" r="3" fill="#dc2626" stroke="#fff" stroke-width="1"/>
    <circle cx="308.4" cy="433.5" r="3" fill="#dc2626" stroke="#fff" stroke-width="1"/>
    <circle cx="314.3" cy="395.2" r="3" fill="#dc2626" stroke="#fff" stroke-width="1"/>
    <circle cx="472.6" cy="323.1" r="3" fill="#dc2626" stroke="#fff" stroke-width="1"/>
    <circle cx="492.1" cy="333.0" r="3" fill="#dc2626" stroke="#fff" stroke-width="1"/>
    <circle cx="460.7" cy="312.9" r="3" fill="#dc2626" stroke="#fff" stroke-width="1"/>
    <circle cx="569.1" cy="293.8" r="3" fill="#dc2626" stroke="#fff" stroke-width="1"/>
    <circle cx="554.4" cy="301.4" r="3" fill="#dc2626" stroke="#fff" stroke-width="1"/>
    <circle cx="538.8" cy="297.9" r="3" fill="#dc2626" stroke="#fff" stroke-width="1"/>
    <circle cx="524.2" cy="300.6" r="3" fill="#dc2626" stroke="#fff" stroke-width="1"/>
    <circle cx="507.5" cy="319.9" r="3" fill="#dc2626" stroke="#fff" stroke-width="1"/>
    <circle cx="403.2" cy="301.9" r="3" fill="#dc2626" stroke="#fff" stroke-width="1"/>
    <circle cx="357.3" cy="323.8" r="3" fill="#dc2626" stroke="#fff" stroke-width="1"/>
    <circle cx="361.6" cy="335.9" r="3" fill="#dc2626" stroke="#fff" stroke-width="1"/>
    <circle cx="367.6" cy="342.0" r="3" fill="#dc2626" stroke="#fff" stroke-width="1"/>
    <circle cx="521.2" cy="176.0" r="3" fill="#dc2626" stroke="#fff" stroke-width="1"/>
    <circle cx="527.8" cy="194.6" r="3" fill="#dc2626" stroke="#fff" stroke-width="1"/>
    <circle cx="524.3" cy="208.7" r="3" fill="#dc2626" stroke="#fff" stroke-width="1"/>
    <circle cx="513.0" cy="226.6" r="3" fill="#dc2626" stroke="#fff" stroke-width="1"/>
    <circle cx="494.7" cy="244.2" r="3" fill="#dc2626" stroke="#fff" stroke-width="1"/>
    <circle cx="480.2" cy="255.7" r="3" fill="#dc2626" stroke="#fff" stroke-width="1"/>
    <circle cx="327.1" cy="358.5" r="3" fill="#dc2626" stroke="#fff" stroke-width="1"/>
    <circle cx="309.9" cy="354.2" r="3" fill="#dc2626" stroke="#fff" stroke-width="1"/>
    <circle cx="295.0" cy="354.3" r="3" fill="#dc2626" stroke="#fff" stroke-width="1"/>
    <circle cx="278.7" cy="348.3" r="3" fill="#dc2626" stroke="#fff" stroke-width="1"/>
    <circle cx="275.3" cy="337.5" r="3" fill="#dc2626" stroke="#fff" stroke-width="1"/>
    <circle cx="394.0" cy="398.7" r="3" fill="#dc2626" stroke="#fff" stroke-width="1"/>
    <circle cx="397.2" cy="409.3" r="3" fill="#dc2626" stroke="#fff" stroke-width="1"/>
    <circle cx="465.5" cy="268.8" r="3" fill="#dc2626" stroke="#fff" stroke-width="1"/>
    <circle cx="456.5" cy="277.6" r="3" fill="#dc2626" stroke="#fff" stroke-width="1"/>
    <circle cx="438.2" cy="291.2" r="3" fill="#dc2626" stroke="#fff" stroke-width="1"/>
    <circle cx="410.6" cy="311.5" r="3" fill="#dc2626" stroke="#fff" stroke-width="1"/>
    <circle cx="279.2" cy="321.8" r="3" fill="#dc2626" stroke="#fff" stroke-width="1"/>
    <circle cx="325.7" cy="371.0" r="3" fill="#dc2626" stroke="#fff" stroke-width="1"/>
    <circle cx="328.7" cy="356.4" r="3" fill="#dc2626" stroke="#fff" stroke-width="1"/>
    <circle cx="325.1" cy="340.7" r="3" fill="#dc2626" stroke="#fff" stroke-width="1"/>
    <circle cx="426.9" cy="236.2" r="3" fill="#dc2626" stroke="#fff" stroke-width="1"/>
    <circle cx="380.8" cy="263.0" r="3" fill="#dc2626" stroke="#fff" stroke-width="1"/>
    <circle cx="401.1" cy="258.1" r="3" fill="#dc2626" stroke="#fff" stroke-width="1"/>
    <circle cx="333.3" cy="307.8" r="3" fill="#dc2626" stroke="#fff" stroke-width="1"/>
    <circle cx="328.5" cy="320.7" r="3" fill="#dc2626" stroke="#fff" stroke-width="1"/>
    <circle cx="337.5" cy="297.0" r="3" fill="#dc2626" stroke="#fff" stroke-width="1"/>
    <circle cx="352.1" cy="272.5" r="3" fill="#dc2626" stroke="#fff" stroke-width="1"/>
    <circle cx="326.5" cy="329.6" r="3" fill="#dc2626" stroke="#fff" stroke-width="1"/>
    <circle cx="346.8" cy="286.4" r="3" fill="#dc2626" stroke="#fff" stroke-width="1"/>
    <circle cx="370.8" cy="311.9" r="3" fill="#dc2626" stroke="#fff" stroke-width="1"/>
    <circle cx="461.4" cy="369.3" r="3" fill="#dc2626" stroke="#fff" stroke-width="1"/>
    <circle cx="374.5" cy="325.9" r="3" fill="#dc2626" stroke="#fff" stroke-width="1"/>
    <circle cx="399.6" cy="331.7" r="3" fill="#dc2626" stroke="#fff" stroke-width="1"/>
    <circle cx="352.5" cy="350.2" r="3" fill="#dc2626" stroke="#fff" stroke-width="1"/>
    <circle cx="341.2" cy="355.5" r="3" fill="#dc2626" stroke="#fff" stroke-width="1"/>
    <circle cx="381.6" cy="344.8" r="3" fill="#dc2626" stroke="#fff" stroke-width="1"/>
    <circle cx="381.6" cy="346.1" r="3" fill="#dc2626" stroke="#fff" stroke-width="1"/>
    <circle cx="386.6" cy="308.3" r="3" fill="#dc2626" stroke="#fff" stroke-width="1"/>
    <circle cx="363.8" cy="335.0" r="3" fill="#dc2626" stroke="#fff" stroke-width="1"/>
    <circle cx="396.6" cy="319.9" r="3" fill="#dc2626" stroke="#fff" stroke-width="1"/>
    <circle cx="386.8" cy="328.0" r="3" fill="#dc2626" stroke="#fff" stroke-width="1"/>
  </g>
</svg>