<?xml version="1.0" encoding="UTF-8"?>
<svg width="800" height="600" viewBox="0 0 800 600" 
     xmlns="http://www.w3.org/2000/svg">
  <title>Warsaw Subway Map</title>
  <rect width="100%" height="100%" fill="#f8f9fa"/>

  <!-- 지하철 선로 -->
  <g id="subway-lines" stroke="#2563eb" stroke-width="3" fill="none">
    <polyline points="228.3,215.9 231.6,217.6 232.2,217.9 233.9,218.8 235.5,219.7 236.9,220.7 239.1,222.7 239.8,223.2 240.5,223.6 241.1,224.0 242.1,224.5 243.1,225.0 244.1,225.4 245.0,225.7 246.1,226.1 247.1,226.4 249.1,226.8" opacity="0.8"/>
    <polyline points="395.1,495.6 394.0,495.6 393.9,495.5 393.8,495.5 393.7,495.5 393.6,495.5 393.4,495.5 393.3,495.5 393.2,495.6 393.0,495.6 392.9,495.6 392.8,495.6 392.6,495.7 391.9,495.9 391.8,495.9 391.6,496.0 391.5,496.0 391.3,496.0 391.2,496.0 391.1,496.1 391.0,496.1 390.8,496.1 390.3,496.1 390.2,496.1 390.1,496.1 390.0,496.1" opacity="0.8"/>
    <polyline points="303.0,297.3 303.6,297.1 304.0,297.0 305.1,296.8 305.7,296.7 306.3,296.5 310.3,295.6 310.4,295.6 311.1,295.4 311.9,295.3 312.1,295.2 313.3,294.9 314.6,294.6 314.9,294.6 315.0,294.5 316.2,294.3 316.2,294.3 317.9,293.9 319.6,293.5 320.1,293.4 320.5,293.3 320.9,293.2 321.3,293.1 321.8,293.0 323.6,292.7 323.6,292.6 324.7,292.4 324.9,292.4 325.8,292.2 326.4,292.0 327.2,291.9 327.8,291.8 328.0,291.7 328.4,291.6 328.9,291.5 329.2,291.5 329.2,291.5 329.5,291.4 330.1,291.3 330.7,291.2 337.6,290.0 339.5,289.7" opacity="0.8"/>
    <polyline points="406.3,499.6 409.3,499.8 409.6,499.8 409.8,499.8 410.1,499.8 410.3,499.8 410.5,499.9 410.7,499.9 411.4,499.9" opacity="0.8"/>
    <polyline points="394.2,498.8 394.3,498.8 394.4,498.8 394.5,498.8 394.8,498.8 395.0,498.8 395.1,498.8 395.2,498.8" opacity="0.8"/>
    <polyline points="391.4,498.0 391.5,498.0 391.6,498.1 391.6,498.1 392.0,498.4 392.1,498.5 392.2,498.5 392.3,498.6 392.3,498.6 392.5,498.7 392.6,498.7 392.7,498.8 392.7,498.8 392.9,498.8 393.2,498.9 393.3,498.9 393.4,498.9 393.5,498.9" opacity="0.8"/>
    <polyline points="390.6,497.5 390.7,497.5 390.8,497.6 390.9,497.6 391.0,497.7 391.1,497.8 391.1,497.8 391.2,497.9" opacity="0.8"/>
    <polyline points="386.2,495.1 386.4,495.1 386.5,495.2 386.6,495.3 387.0,495.5 387.1,495.6 387.2,495.7 387.4,495.8" opacity="0.8"/>
    <polyline points="381.7,492.9 381.8,492.9 383.4,493.5 383.6,493.6 383.7,493.7 383.9,493.7 384.0,493.8 384.4,494.0 384.5,494.0 384.5,494.1" opacity="0.8"/>
    <polyline points="400.5,496.7 400.7,496.7 400.8,496.7 400.9,496.7 401.0,496.7 401.1,496.7 401.2,496.7 401.3,496.8 401.4,496.8 401.5,496.8 401.6,496.9 401.7,496.9 401.8,496.9 401.9,497.0 401.9,497.0 402.0,497.1 402.1,497.1 402.5,497.4 402.7,497.5 402.8,497.6 402.8,497.6 402.9,497.6" opacity="0.8"/>
    <polyline points="392.0,496.1 392.1,496.1 392.2,496.1 392.3,496.0 392.8,495.9 392.9,495.9 393.1,495.9 393.2,495.9 393.3,495.9 393.5,495.9 393.6,495.9 393.7,495.9 393.9,495.9 394.1,495.9" opacity="0.8"/>
    <polyline points="400.4,496.9 400.6,497.0 400.9,497.0 401.1,497.0 401.2,497.0 401.2,497.0 401.3,497.0 401.4,497.1 401.7,497.1 401.8,497.2 401.9,497.2 402.0,497.2 402.1,497.3 402.5,497.5" opacity="0.8"/>
    <polyline points="392.1,496.3 392.2,496.3 392.3,496.3 392.4,496.3 392.8,496.2 392.9,496.2 393.0,496.2 393.1,496.2 393.3,496.2 393.8,496.3 394.0,496.3" opacity="0.8"/>
    <polyline points="405.1,498.3 405.0,498.3 404.9,498.3 404.7,498.3 404.4,498.2 404.3,498.2 404.3,498.2 404.2,498.2 404.1,498.2 404.0,498.2 403.9,498.1 403.8,498.1 403.7,498.1 403.6,498.0 402.6,497.7 401.9,497.4 401.7,497.3" opacity="0.8"/>
    <polyline points="403.5,497.9 403.5,497.9 403.4,497.8 403.3,497.8 403.3,497.8 403.1,497.6 403.0,497.6 403.0,497.6 402.9,497.5 402.9,497.4 402.9,497.4 402.8,497.4 402.2,496.7 402.2,496.7 402.1,496.6 402.1,496.6 402.0,496.5 401.9,496.5 401.9,496.4 401.8,496.4 401.7,496.4 401.6,496.3 401.6,496.3 401.5,496.2 401.4,496.2 401.3,496.2 401.2,496.2 401.1,496.1 401.0,496.1 400.9,496.1 400.8,496.1 400.7,496.1 395.3,495.7 395.1,495.6" opacity="0.8"/>
    <polyline points="387.0,495.4 387.5,495.6 387.6,495.7 387.7,495.7 387.9,495.8 388.0,495.8 388.1,495.9 388.3,495.9 388.4,496.0 388.6,496.0 388.7,496.0 388.8,496.1 389.0,496.1 389.1,496.1 389.2,496.1 389.4,496.2 389.6,496.2 393.1,496.5 393.1,496.5 393.8,496.5 394.0,496.5" opacity="0.8"/>
    <polyline points="408.8,498.1 408.9,498.1 409.0,498.0 409.1,498.0 409.6,497.9 409.7,497.9 410.1,497.8 410.3,497.8 410.5,497.7 410.7,497.7 410.8,497.7 411.0,497.6" opacity="0.8"/>
    <polyline points="386.7,495.2 385.7,494.7 385.3,494.5 384.5,494.1" opacity="0.8"/>
    <polyline points="402.9,498.1 402.8,498.1 402.7,498.0 402.6,498.0 402.2,497.9 402.1,497.8 402.0,497.8 401.9,497.8 401.1,497.6 401.0,497.6 401.0,497.6 400.9,497.5 400.7,497.5 400.6,497.5 400.5,497.5 400.4,497.5" opacity="0.8"/>
    <polyline points="401.7,497.8 401.1,497.7 401.0,497.7 401.0,497.7 400.9,497.7 400.8,497.6 400.7,497.6 400.6,497.6 400.5,497.6 400.3,497.6" opacity="0.8"/>
    <polyline points="389.5,496.4 389.6,496.4 389.7,496.4 389.8,496.4 390.4,496.5 393.0,496.7" opacity="0.8"/>
    <polyline points="388.9,496.2 389.0,496.3 389.1,496.3 389.2,496.3 389.9,496.3 393.0,496.6" opacity="0.8"/>
    <polyline points="393.8,497.3 393.7,497.3 393.4,497.2 392.1,497.1 391.9,497.1 391.8,497.1 391.6,497.1 391.5,497.0 389.9,496.7 389.8,496.6 389.7,496.6 389.6,496.6 389.1,496.4 388.2,496.1" opacity="0.8"/>
    <polyline points="400.3,497.9 400.4,498.0 400.8,498.0 402.3,498.1 402.5,498.1 402.6,498.1 402.7,498.2 403.2,498.3" opacity="0.8"/>
    <polyline points="393.8,497.2 393.7,497.2 393.4,497.1 392.9,497.1 392.8,497.1 392.6,497.1 392.6,497.1 392.5,497.0 392.4,497.0 391.8,496.9" opacity="0.8"/>
    <polyline points="392.3,497.5 392.4,497.6 392.5,497.6 392.6,497.6 393.1,497.7 393.3,497.8 393.3,497.8 393.4,497.8 393.6,497.8 393.7,497.8" opacity="0.8"/>
    <polyline points="391.3,497.2 391.3,497.3 391.4,497.3 391.6,497.3 391.8,497.4 391.9,497.4 392.0,497.4 392.1,497.5 392.3,497.5 392.8,497.7 392.9,497.8 393.0,497.8 393.1,497.8 393.2,497.8 393.3,497.9 393.6,497.9 393.7,497.9" opacity="0.8"/>
    <polyline points="400.3,498.0 400.4,498.0 400.8,498.1 402.9,498.2 403.0,498.2 403.1,498.3 403.2,498.3 403.4,498.3 403.5,498.3 403.6,498.4 403.7,498.4" opacity="0.8"/>
    <polyline points="393.8,497.3 393.6,497.3 393.4,497.3 391.9,497.2 391.8,497.2 391.7,497.2 391.6,497.1 391.4,497.1 390.4,496.9 390.3,496.9 390.2,496.8 390.1,496.8 389.6,496.6" opacity="0.8"/>
    <polyline points="400.3,498.1 400.4,498.1 400.8,498.1 403.7,498.4 404.1,498.4 404.2,498.4 404.3,498.4 404.4,498.4" opacity="0.8"/>
    <polyline points="391.8,497.4 392.6,497.6 393.1,497.7 393.2,497.7 393.3,497.7 393.4,497.7 393.6,497.7 393.7,497.7" opacity="0.8"/>
    <polyline points="400.2,498.2 400.4,498.2 400.7,498.2 403.3,498.4 403.4,498.4 403.6,498.4 403.7,498.4 404.4,498.4 404.9,498.4 405.1,498.4 405.2,498.4 405.2,498.4 406.9,498.3" opacity="0.8"/>
    <polyline points="389.9,496.8 389.9,496.8 390.0,496.9 390.1,496.9 390.7,497.3 390.8,497.3 390.9,497.4 391.0,497.5 391.5,497.8 392.0,498.1 392.0,498.2 392.1,498.2 392.2,498.3" opacity="0.8"/>
    <polyline points="391.4,497.4 391.5,497.4 391.6,497.5 391.7,497.5 392.2,497.8 392.3,497.9 392.3,497.9 392.4,498.0 392.5,498.0 392.6,498.0 392.7,498.1 392.8,498.1 392.8,498.1 392.9,498.1 393.0,498.1 393.1,498.2 393.3,498.2 393.5,498.2 393.7,498.2" opacity="0.8"/>
    <polyline points="390.4,497.0 390.5,497.1 390.6,497.1 390.7,497.2 392.1,498.0 392.1,498.0 392.2,498.1 392.3,498.1 392.4,498.1 392.5,498.2 392.5,498.2 392.6,498.2 392.7,498.2 392.8,498.3 393.0,498.3 393.1,498.3 393.2,498.3 393.2,498.3 393.5,498.3 393.6,498.4" opacity="0.8"/>
    <polyline points="388.3,496.2 388.4,496.3 388.5,496.3 388.6,496.4 389.0,496.5 389.5,496.7 389.6,496.7 389.7,496.7 389.9,496.8 390.4,497.0 390.9,497.2 391.4,497.4 391.9,497.6 392.6,497.9 392.7,497.9 392.8,497.9 392.9,498.0 393.0,498.0 393.1,498.0 393.2,498.0 393.3,498.0 393.5,498.0 393.7,498.1" opacity="0.8"/>
    <polyline points="391.9,497.6 391.9,497.6 392.0,497.7 392.1,497.7 392.3,497.8 392.4,497.8 392.4,497.9 392.5,497.9 392.6,497.9 392.7,498.0 392.8,498.0 392.8,498.0 392.9,498.0 393.0,498.1 393.2,498.1 393.3,498.1 393.5,498.1 393.7,498.1" opacity="0.8"/>
    <polyline points="390.9,497.2 391.0,497.2 391.1,497.3 391.2,497.3 392.1,497.9 392.2,498.0 392.3,498.0 392.4,498.0 392.5,498.1 392.6,498.1 392.7,498.1 392.7,498.2 392.9,498.2 393.0,498.2 393.1,498.2 393.2,498.2 393.2,498.2 393.3,498.3 393.5,498.3 393.7,498.3" opacity="0.8"/>
    <polyline points="407.1,498.3 407.2,498.3 407.3,498.3 407.4,498.3 407.6,498.3 407.7,498.3 407.8,498.3 407.8,498.3 407.9,498.3" opacity="0.8"/>
    <polyline points="408.2,498.3 408.3,498.3 408.4,498.3 408.5,498.2 408.7,498.2 408.8,498.2 408.9,498.2 409.0,498.2" opacity="0.8"/>
    <polyline points="406.8,498.4 406.7,498.4 406.5,498.4 406.3,498.4 405.6,498.5 405.5,498.5 405.3,498.5 405.1,498.5" opacity="0.8"/>
    <polyline points="406.9,498.3 406.7,498.3 406.6,498.3 406.5,498.3 406.2,498.2 406.1,498.2 406.0,498.2 405.8,498.2" opacity="0.8"/>
    <polyline points="405.2,498.4 405.3,498.4 405.4,498.4 405.5,498.4 405.7,498.4 405.8,498.4 405.9,498.4 406.0,498.4" opacity="0.8"/>
    <polyline points="404.1,498.5 404.2,498.5 404.3,498.5 404.4,498.5 404.6,498.4 404.7,498.4 404.9,498.4 404.9,498.4" opacity="0.8"/>
    <polyline points="407.6,498.2 407.7,498.2 407.8,498.2 407.9,498.2 408.3,498.1 408.4,498.1 408.5,498.1 408.6,498.1" opacity="0.8"/>
    <polyline points="406.8,498.4 406.0,498.4 405.3,498.4 404.1,498.5 404.1,498.5 403.8,498.5 403.0,498.6 402.1,498.6 402.0,498.6 401.9,498.6 401.8,498.6 401.7,498.6 400.7,498.5 400.3,498.5 400.2,498.5" opacity="0.8"/>
    <polyline points="392.2,498.3 392.4,498.3 392.5,498.4 392.6,498.4 392.7,498.5 392.9,498.5 393.0,498.5 393.1,498.6 393.2,498.6 393.4,498.6 393.5,498.6 393.7,498.7 394.3,498.7 395.2,498.8" opacity="0.8"/>
    <polyline points="410.0,498.2 410.2,498.2 410.4,498.2 410.6,498.1 410.8,498.1 410.9,498.1 411.1,498.1 411.2,498.0 411.4,498.0 411.5,498.0 411.7,497.9 411.9,497.9 412.0,497.8 412.2,497.7 412.3,497.7 412.5,497.6 413.0,497.3 413.3,497.1 413.6,496.8 413.9,496.3 413.9,496.0 413.9,495.5 413.9,495.4 413.9,495.3 413.9,495.2 413.9,495.1 413.8,495.0 413.8,494.9 413.8,494.8 413.7,494.7 413.7,494.6 413.6,494.5 413.6,494.4 413.5,494.4 413.4,494.3 413.4,494.3 413.4,494.2 413.4,494.2 413.3,494.1 413.2,494.0 413.2,494.0" opacity="0.8"/>
    <polyline points="230.1,290.1 228.3,289.9 228.3,289.9 227.2,289.8 227.0,289.8 226.9,289.8 226.7,289.7 226.6,289.7 226.4,289.7 226.2,289.7 226.2,289.7 226.0,289.7 225.8,289.6 225.7,289.6 225.5,289.6 225.4,289.6 225.2,289.6 225.0,289.5 224.8,289.5 224.6,289.5 224.4,289.5 224.3,289.4 224.1,289.4 223.0,289.3 222.9,289.2 222.7,289.2 222.6,289.2 222.4,289.2 222.2,289.1 222.0,289.1 221.8,289.1 221.7,289.1 221.5,289.1 221.3,289.0 221.1,289.0 221.0,289.0 220.8,289.0 220.7,289.0 220.5,289.0 220.4,289.0 220.3,288.9 220.1,288.9 219.9,288.9 219.8,288.9 219.5,288.9 219.3,288.9 219.1,288.9 218.8,288.8 216.0,288.7 215.1,288.6 214.8,288.6 214.6,288.6 214.5,288.5 214.3,288.5 214.1,288.5 213.9,288.5 213.7,288.5 213.5,288.5 213.4,288.4 213.2,288.4 213.0,288.4 212.8,288.4 212.6,288.4 212.4,288.3 212.2,288.3 212.0,288.3 211.8,288.3 211.6,288.2 211.5,288.2 211.3,288.2 211.0,288.1 210.7,288.1 210.7,288.1 210.6,288.1 210.5,288.1 210.3,288.0 210.1,288.0 210.0,288.0 209.8,288.0 209.6,287.9 209.4,287.9 209.2,287.9 209.0,287.9 208.9,287.8 208.7,287.8 208.5,287.8 208.3,287.8 208.1,287.7 208.0,287.7 207.8,287.7 207.6,287.7 207.4,287.7 207.3,287.6 207.1,287.6 207.1,287.6 206.9,287.6 206.7,287.6 206.5,287.6 206.4,287.5 206.2,287.5 206.1,287.5 205.9,287.5 205.7,287.5 205.4,287.4 205.2,287.4 204.7,287.4 204.2,287.3 203.9,287.3 203.7,287.3 202.3,287.1 201.4,287.0 201.2,287.0 201.0,287.0 200.5,286.9 200.4,286.9 200.2,286.9 200.0,286.9 199.8,286.9 199.3,286.8 199.1,286.8 198.8,286.7 198.6,286.7 198.5,286.7 198.3,286.7 198.1,286.7 197.8,286.6 197.0,286.5 196.5,286.5 196.3,286.5 196.1,286.5 195.9,286.4 195.7,286.4 195.5,286.4 195.3,286.4 195.2,286.4 195.0,286.3 194.8,286.3 194.6,286.3 194.4,286.3 194.2,286.3 194.0,286.3 193.8,286.2 193.6,286.2 193.5,286.2 193.3,286.2" opacity="0.8"/>
    <polyline points="395.6,216.7 395.6,216.8 392.4,219.0 391.7,219.5 391.1,219.9 391.1,220.0 391.0,220.0 390.0,220.7 389.0,221.5 388.5,221.8 388.1,222.0 388.0,222.1 387.8,222.3 387.7,222.4 387.5,222.5 387.4,222.6 387.3,222.6 387.2,222.7 387.0,222.9 386.8,223.0 386.7,223.1 386.5,223.3 386.4,223.4 386.2,223.5 386.1,223.7 386.0,223.8 385.8,223.9 385.7,224.1 385.6,224.2 385.5,224.4 385.4,224.5 385.3,224.7 385.2,224.8 385.1,225.0 385.0,225.1 385.0,225.1 384.9,225.3 384.8,225.5 384.7,225.6 384.7,225.8 384.6,225.9 384.6,226.1 384.5,226.3 384.4,226.4 384.4,226.6 384.4,226.7 384.3,226.9 384.3,227.1 384.3,227.2 384.3,227.4 384.2,227.6 384.2,227.7 384.2,227.9 384.2,228.0 384.2,228.1 384.2,228.1 384.2,228.1 383.9,230.6 383.9,230.6 383.9,230.7 383.8,231.7 383.7,232.7 383.6,233.1 383.6,233.2 383.6,233.4 383.6,233.6 383.5,233.7 383.5,233.9 383.5,234.1 383.5,234.2 383.4,234.3 383.4,234.3 383.4,234.4 383.4,234.6 383.4,234.7 383.3,234.9 383.3,235.1 383.2,235.2 383.1,235.4 383.1,235.6 383.0,235.7 382.9,235.9 382.9,236.0 382.8,236.2 382.7,236.3 382.6,236.5 382.5,236.7 382.4,236.8 382.3,237.0 382.2,237.1 382.1,237.3 382.0,237.4 381.9,237.6 381.8,237.7 381.6,237.8 381.5,238.0 381.4,238.1 381.2,238.3 381.1,238.4 381.0,238.5 380.8,238.7 380.7,238.8 380.5,238.9 380.4,239.1 380.2,239.2 380.0,239.3 379.9,239.4 379.7,239.6 379.5,239.7 379.3,239.8 379.2,239.9 379.0,240.0 378.8,240.1 378.6,240.2 378.4,240.3 378.4,240.4 378.3,240.4 378.2,240.4 378.0,240.5 377.8,240.6 377.6,240.7 377.4,240.8 377.2,240.9 376.9,241.1 375.5,241.7 375.3,241.8 374.1,242.3 372.9,242.9 372.7,243.0 370.8,243.8 370.8,243.8 369.9,244.3 369.7,244.3 369.5,244.4 369.3,244.5 369.1,244.6 368.9,244.7 368.7,244.8 368.5,244.9 368.3,245.0 368.1,245.1 367.9,245.2 367.7,245.2 367.5,245.3 367.3,245.4 367.0,245.5 366.8,245.6 366.6,245.7 366.4,245.8 366.2,245.9 366.0,245.9 365.8,246.0 365.6,246.1 365.4,246.2 365.2,246.3 365.0,246.4 364.7,246.5 364.6,246.5 360.7,248.1 358.6,248.9 358.4,249.0 358.2,249.1 358.0,249.1 357.8,249.2 357.6,249.3 357.4,249.4 357.2,249.5 357.0,249.6 356.8,249.7 356.6,249.8 356.4,249.9 356.2,250.0 356.0,250.1 355.9,250.3 355.7,250.4 355.5,250.5 355.4,250.6 355.2,250.8 355.1,250.9 355.0,251.0 354.8,251.2 354.7,251.3 354.6,251.5 354.5,251.6 354.4,251.8 354.3,251.9 354.2,252.1 354.1,252.2 354.0,252.4 353.9,252.6 353.9,252.7 353.8,252.9 353.7,253.0 353.7,253.2 353.6,253.4 353.6,253.5 353.6,253.7 353.6,253.9 353.6,254.0 353.6,254.2 353.6,254.4 353.6,254.5 353.6,254.7 353.6,254.8 353.6,255.0 353.6,255.1 353.7,255.3 353.7,255.4 353.8,255.6 353.8,255.6 353.8,255.7" opacity="0.8"/>
  </g>

  <!-- 지하철 역 -->
  <g id="subway-stations">
    <circle cx="299.8" cy="276.4" r="4" fill="#dc2626" stroke="#fff" stroke-width="2"/>
    <text x="299.8" y="268.4" text-anchor="middle" font-size="10" fill="#374151">Ratusz-Arsenał</text>
    <circle cx="251.2" cy="227.2" r="4" fill="#dc2626" stroke="#fff" stroke-width="2"/>
    <text x="251.2" y="219.2" text-anchor="middle" font-size="10" fill="#374151">Marymont</text>
    <circle cx="213.9" cy="208.3" r="4" fill="#dc2626" stroke="#fff" stroke-width="2"/>
    <text x="213.9" y="200.3" text-anchor="middle" font-size="10" fill="#374151">Stare Bielany</text>
    <circle cx="197.7" cy="200.0" r="4" fill="#dc2626" stroke="#fff" stroke-width="2"/>
    <text x="197.7" y="192.0" text-anchor="middle" font-size="10" fill="#374151">Wawrzyszew</text>
    <circle cx="181.4" cy="191.7" r="4" fill="#dc2626" stroke="#fff" stroke-width="2"/>
    <text x="181.4" y="183.7" text-anchor="middle" font-size="10" fill="#374151">Młociny</text>
    <circle cx="232.1" cy="217.6" r="4" fill="#dc2626" stroke="#fff" stroke-width="2"/>
    <text x="232.1" y="209.6" text-anchor="middle" font-size="10" fill="#374151">Słodowiec</text>
    <circle cx="357.5" cy="259.9" r="4" fill="#dc2626" stroke="#fff" stroke-width="2"/>
    <text x="357.5" y="251.9" text-anchor="middle" font-size="10" fill="#374151">Dworzec Wileński</text>
    <circle cx="369.7" cy="273.1" r="4" fill="#dc2626" stroke="#fff" stroke-width="2"/>
    <text x="369.7" y="265.1" text-anchor="middle" font-size="10" fill="#374151">Stadion Narodowy</text>
    <circle cx="351.3" cy="286.2" r="4" fill="#dc2626" stroke="#fff" stroke-width="2"/>
    <circle cx="326.3" cy="291.9" r="4" fill="#dc2626" stroke="#fff" stroke-width="2"/>
    <circle cx="295.5" cy="298.9" r="4" fill="#dc2626" stroke="#fff" stroke-width="2"/>
    <text x="295.5" y="290.9" text-anchor="middle" font-size="10" fill="#374151">Rondo ONZ</text>
    <circle cx="269.8" cy="304.5" r="4" fill="#dc2626" stroke="#fff" stroke-width="2"/>
    <text x="269.8" y="296.5" text-anchor="middle" font-size="10" fill="#374151">Rondo Daszyńskiego</text>
    <circle cx="406.8" cy="486.7" r="4" fill="#dc2626" stroke="#fff" stroke-width="2"/>
    <text x="406.8" y="478.7" text-anchor="middle" font-size="10" fill="#374151">Kabaty</text>
    <circle cx="356.2" cy="442.1" r="4" fill="#dc2626" stroke="#fff" stroke-width="2"/>
    <text x="356.2" y="434.1" text-anchor="middle" font-size="10" fill="#374151">Stokłosy</text>
    <circle cx="392.4" cy="469.9" r="4" fill="#dc2626" stroke="#fff" stroke-width="2"/>
    <text x="392.4" y="461.9" text-anchor="middle" font-size="10" fill="#374151">Natolin</text>
    <circle cx="375.2" cy="454.6" r="4" fill="#dc2626" stroke="#fff" stroke-width="2"/>
    <text x="375.2" y="446.6" text-anchor="middle" font-size="10" fill="#374151">Imielin</text>
    <circle cx="344.4" cy="431.0" r="4" fill="#dc2626" stroke="#fff" stroke-width="2"/>
    <text x="344.4" y="423.0" text-anchor="middle" font-size="10" fill="#374151">Ursynów</text>
    <circle cx="342.1" cy="411.0" r="4" fill="#dc2626" stroke="#fff" stroke-width="2"/>
    <text x="342.1" y="403.0" text-anchor="middle" font-size="10" fill="#374151">Służew</text>
    <circle cx="318.7" cy="362.4" r="4" fill="#dc2626" stroke="#fff" stroke-width="2"/>
    <text x="318.7" y="354.4" text-anchor="middle" font-size="10" fill="#374151">Racławicka</text>
    <circle cx="326.0" cy="379.1" r="4" fill="#dc2626" stroke="#fff" stroke-width="2"/>
    <text x="326.0" y="371.1" text-anchor="middle" font-size="10" fill="#374151">Wierzbno</text>
    <circle cx="336.9" cy="394.2" r="4" fill="#dc2626" stroke="#fff" stroke-width="2"/>
    <text x="336.9" y="386.2" text-anchor="middle" font-size="10" fill="#374151">Wilanowska</text>
    <circle cx="311.3" cy="344.6" r="4" fill="#dc2626" stroke="#fff" stroke-width="2"/>
    <text x="311.3" y="336.6" text-anchor="middle" font-size="10" fill="#374151">Pole Mokotowskie</text>
    <circle cx="323.9" cy="326.1" r="4" fill="#dc2626" stroke="#fff" stroke-width="2"/>
    <text x="323.9" y="318.1" text-anchor="middle" font-size="10" fill="#374151">Politechnika</text>
    <circle cx="315.3" cy="302.8" r="4" fill="#dc2626" stroke="#fff" stroke-width="2"/>
    <text x="315.3" y="294.8" text-anchor="middle" font-size="10" fill="#374151">Centrum</text>
    <circle cx="288.6" cy="252.5" r="4" fill="#dc2626" stroke="#fff" stroke-width="2"/>
    <text x="288.6" y="244.5" text-anchor="middle" font-size="10" fill="#374151">Dworzec Gdański</text>
    <circle cx="272.3" cy="231.7" r="4" fill="#dc2626" stroke="#fff" stroke-width="2"/>
    <text x="272.3" y="223.7" text-anchor="middle" font-size="10" fill="#374151">Plac Wilsona</text>
    <circle cx="242.3" cy="300.1" r="4" fill="#dc2626" stroke="#fff" stroke-width="2"/>
    <text x="242.3" y="292.1" text-anchor="middle" font-size="10" fill="#374151">Płocka</text>
    <circle cx="390.1" cy="220.8" r="4" fill="#dc2626" stroke="#fff" stroke-width="2"/>
    <text x="390.1" y="212.8" text-anchor="middle" font-size="10" fill="#374151">Trocka</text>
    <circle cx="311.5" cy="295.2" r="4" fill="#dc2626" stroke="#fff" stroke-width="2"/>
    <text x="311.5" y="287.2" text-anchor="middle" font-size="10" fill="#374151">Świętokrzyska</text>
    <circle cx="205.6" cy="287.6" r="4" fill="#dc2626" stroke="#fff" stroke-width="2"/>
    <text x="205.6" y="279.6" text-anchor="middle" font-size="10" fill="#374151">Księcia Janusza</text>
    <circle cx="231.8" cy="290.4" r="4" fill="#dc2626" stroke="#fff" stroke-width="2"/>
    <text x="231.8" y="282.4" text-anchor="middle" font-size="10" fill="#374151">Młynów</text>
    <circle cx="374.2" cy="242.4" r="4" fill="#dc2626" stroke="#fff" stroke-width="2"/>
    <text x="374.2" y="234.4" text-anchor="middle" font-size="10" fill="#374151">Szwedzka</text>
    <circle cx="383.9" cy="231.7" r="4" fill="#dc2626" stroke="#fff" stroke-width="2"/>
    <circle cx="157.2" cy="287.6" r="4" fill="#dc2626" stroke="#fff" stroke-width="2"/>
    <text x="157.2" y="279.6" text-anchor="middle" font-size="10" fill="#374151">Bemowo</text>
    <circle cx="181.7" cy="285.5" r="4" fill="#dc2626" stroke="#fff" stroke-width="2"/>
    <text x="181.7" y="277.5" text-anchor="middle" font-size="10" fill="#374151">Ulrychów</text>
    <circle cx="346.6" cy="186.5" r="4" fill="#dc2626" stroke="#fff" stroke-width="2"/>
    <text x="346.6" y="178.5" text-anchor="middle" font-size="10" fill="#374151">Bródno</text>
    <circle cx="379.5" cy="189.2" r="4" fill="#dc2626" stroke="#fff" stroke-width="2"/>
    <text x="379.5" y="181.2" text-anchor="middle" font-size="10" fill="#374151">Kondratowicza</text>
    <circle cx="401.9" cy="204.7" r="4" fill="#dc2626" stroke="#fff" stroke-width="2"/>
    <text x="401.9" y="196.7" text-anchor="middle" font-size="10" fill="#374151">Zacisze</text>
  </g>
</svg>