<?xml version="1.0" encoding="UTF-8"?>
<svg width="800" height="600" xmlns="http://www.w3.org/2000/svg">
  <title>Warsaw Subway Map</title>
  <rect width="100%" height="100%" fill="#f8f9fa"/>

  <!-- 지하철 선로 -->
  <g stroke="#2563eb" stroke-width="2" fill="none" opacity="0.8">
    <polyline points="228.3,215.9 231.6,217.6 232.2,217.9 233.9,218.8 235.5,219.7 236.9,220.7 239.1,222.7 239.8,223.2 240.5,223.6 241.1,224.0 242.1,224.5 243.1,225.0 244.1,225.4 245.0,225.7 246.1,226.1 247.1,226.4 249.1,226.8"/>
    <polyline points="395.1,495.6 394.0,495.6 393.9,495.5 393.8,495.5 393.7,495.5 393.6,495.5 393.4,495.5 393.3,495.5 393.2,495.6 393.0,495.6 392.9,495.6 392.8,495.6 392.6,495.7 391.9,495.9 391.8,495.9 391.6,496.0 391.5,496.0 391.3,496.0 391.2,496.0 391.1,496.1 391.0,496.1 390.8,496.1 390.3,496.1 390.2,496.1 390.1,496.1 390.0,496.1"/>
    <polyline points="303.0,297.3 303.6,297.1 304.0,297.0 305.1,296.8 305.7,296.7 306.3,296.5 310.3,295.6 310.4,295.6 311.1,295.4 311.9,295.3 312.1,295.2 313.3,294.9 314.6,294.6 314.9,294.6 315.0,294.5 316.2,294.3 316.2,294.3 317.9,293.9 319.6,293.5 320.1,293.4 320.5,293.3 320.9,293.2 321.3,293.1 321.8,293.0 323.6,292.7 323.6,292.6 324.7,292.4 324.9,292.4 325.8,292.2 326.4,292.0 327.2,291.9 327.8,291.8 328.0,291.7 328.4,291.6 328.9,291.5 329.2,291.5 329.2,291.5 329.5,291.4 330.1,291.3 330.7,291.2 337.6,290.0 339.5,289.7"/>
    <polyline points="406.3,499.6 409.3,499.8 409.6,499.8 409.8,499.8 410.1,499.8 410.3,499.8 410.5,499.9 410.7,499.9 411.4,499.9"/>
    <polyline points="394.2,498.8 394.3,498.8 394.4,498.8 394.5,498.8 394.8,498.8 395.0,498.8 395.1,498.8 395.2,498.8"/>
    <polyline points="391.4,498.0 391.5,498.0 391.6,498.1 391.6,498.1 392.0,498.4 392.1,498.5 392.2,498.5 392.3,498.6 392.3,498.6 392.5,498.7 392.6,498.7 392.7,498.8 392.7,498.8 392.9,498.8 393.2,498.9 393.3,498.9 393.4,498.9 393.5,498.9"/>
    <polyline points="390.6,497.5 390.7,497.5 390.8,497.6 390.9,497.6 391.0,497.7 391.1,497.8 391.1,497.8 391.2,497.9"/>
    <polyline points="386.2,495.1 386.4,495.1 386.5,495.2 386.6,495.3 387.0,495.5 387.1,495.6 387.2,495.7 387.4,495.8"/>
    <polyline points="381.7,492.9 381.8,492.9 383.4,493.5 383.6,493.6 383.7,493.7 383.9,493.7 384.0,493.8 384.4,494.0 384.5,494.0 384.5,494.1"/>
    <polyline points="400.5,496.7 400.7,496.7 400.8,496.7 400.9,496.7 401.0,496.7 401.1,496.7 401.2,496.7 401.3,496.8 401.4,496.8 401.5,496.8 401.6,496.9 401.7,496.9 401.8,496.9 401.9,497.0 401.9,497.0 402.0,497.1 402.1,497.1 402.5,497.4 402.7,497.5 402.8,497.6 402.8,497.6 402.9,497.6"/>
    <polyline points="392.0,496.1 392.1,496.1 392.2,496.1 392.3,496.0 392.8,495.9 392.9,495.9 393.1,495.9 393.2,495.9 393.3,495.9 393.5,495.9 393.6,495.9 393.7,495.9 393.9,495.9 394.1,495.9"/>
    <polyline points="400.4,496.9 400.6,497.0 400.9,497.0 401.1,497.0 401.2,497.0 401.2,497.0 401.3,497.0 401.4,497.1 401.7,497.1 401.8,497.2 401.9,497.2 402.0,497.2 402.1,497.3 402.5,497.5"/>
    <polyline points="392.1,496.3 392.2,496.3 392.3,496.3 392.4,496.3 392.8,496.2 392.9,496.2 393.0,496.2 393.1,496.2 393.3,496.2 393.8,496.3 394.0,496.3"/>
    <polyline points="405.1,498.3 405.0,498.3 404.9,498.3 404.7,498.3 404.4,498.2 404.3,498.2 404.3,498.2 404.2,498.2 404.1,498.2 404.0,498.2 403.9,498.1 403.8,498.1 403.7,498.1 403.6,498.0 402.6,497.7 401.9,497.4 401.7,497.3"/>
    <polyline points="403.5,497.9 403.5,497.9 403.4,497.8 403.3,497.8 403.3,497.8 403.1,497.6 403.0,497.6 403.0,497.6 402.9,497.5 402.9,497.4 402.9,497.4 402.8,497.4 402.2,496.7 402.2,496.7 402.1,496.6 402.1,496.6 402.0,496.5 401.9,496.5 401.9,496.4 401.8,496.4 401.7,496.4 401.6,496.3 401.6,496.3 401.5,496.2 401.4,496.2 401.3,496.2 401.2,496.2 401.1,496.1 401.0,496.1 400.9,496.1 400.8,496.1 400.7,496.1 395.3,495.7 395.1,495.6"/>
    <polyline points="387.0,495.4 387.5,495.6 387.6,495.7 387.7,495.7 387.9,495.8 388.0,495.8 388.1,495.9 388.3,495.9 388.4,496.0 388.6,496.0 388.7,496.0 388.8,496.1 389.0,496.1 389.1,496.1 389.2,496.1 389.4,496.2 389.6,496.2 393.1,496.5 393.1,496.5 393.8,496.5 394.0,496.5"/>
    <polyline points="408.8,498.1 408.9,498.1 409.0,498.0 409.1,498.0 409.6,497.9 409.7,497.9 410.1,497.8 410.3,497.8 410.5,497.7 410.7,497.7 410.8,497.7 411.0,497.6"/>
    <polyline points="386.7,495.2 385.7,494.7 385.3,494.5 384.5,494.1"/>
    <polyline points="402.9,498.1 402.8,498.1 402.7,498.0 402.6,498.0 402.2,497.9 402.1,497.8 402.0,497.8 401.9,497.8 401.1,497.6 401.0,497.6 401.0,497.6 400.9,497.5 400.7,497.5 400.6,497.5 400.5,497.5 400.4,497.5"/>
    <polyline points="401.7,497.8 401.1,497.7 401.0,497.7 401.0,497.7 400.9,497.7 400.8,497.6 400.7,497.6 400.6,497.6 400.5,497.6 400.3,497.6"/>
    <polyline points="389.5,496.4 389.6,496.4 389.7,496.4 389.8,496.4 390.4,496.5 393.0,496.7"/>
    <polyline points="388.9,496.2 389.0,496.3 389.1,496.3 389.2,496.3 389.9,496.3 393.0,496.6"/>
    <polyline points="393.8,497.3 393.7,497.3 393.4,497.2 392.1,497.1 391.9,497.1 391.8,497.1 391.6,497.1 391.5,497.0 389.9,496.7 389.8,496.6 389.7,496.6 389.6,496.6 389.1,496.4 388.2,496.1"/>
    <polyline points="400.3,497.9 400.4,498.0 400.8,498.0 402.3,498.1 402.5,498.1 402.6,498.1 402.7,498.2 403.2,498.3"/>
    <polyline points="393.8,497.2 393.7,497.2 393.4,497.1 392.9,497.1 392.8,497.1 392.6,497.1 392.6,497.1 392.5,497.0 392.4,497.0 391.8,496.9"/>
    <polyline points="392.3,497.5 392.4,497.6 392.5,497.6 392.6,497.6 393.1,497.7 393.3,497.8 393.3,497.8 393.4,497.8 393.6,497.8 393.7,497.8"/>
    <polyline points="391.3,497.2 391.3,497.3 391.4,497.3 391.6,497.3 391.8,497.4 391.9,497.4 392.0,497.4 392.1,497.5 392.3,497.5 392.8,497.7 392.9,497.8 393.0,497.8 393.1,497.8 393.2,497.8 393.3,497.9 393.6,497.9 393.7,497.9"/>
    <polyline points="400.3,498.0 400.4,498.0 400.8,498.1 402.9,498.2 403.0,498.2 403.1,498.3 403.2,498.3 403.4,498.3 403.5,498.3 403.6,498.4 403.7,498.4"/>
    <polyline points="393.8,497.3 393.6,497.3 393.4,497.3 391.9,497.2 391.8,497.2 391.7,497.2 391.6,497.1 391.4,497.1 390.4,496.9 390.3,496.9 390.2,496.8 390.1,496.8 389.6,496.6"/>
    <polyline points="400.3,498.1 400.4,498.1 400.8,498.1 403.7,498.4 404.1,498.4 404.2,498.4 404.3,498.4 404.4,498.4"/>
    <polyline points="391.8,497.4 392.6,497.6 393.1,497.7 393.2,497.7 393.3,497.7 393.4,497.7 393.6,497.7 393.7,497.7"/>
    <polyline points="400.2,498.2 400.4,498.2 400.7,498.2 403.3,498.4 403.4,498.4 403.6,498.4 403.7,498.4 404.4,498.4 404.9,498.4 405.1,498.4 405.2,498.4 405.2,498.4 406.9,498.3"/>
    <polyline points="389.9,496.8 389.9,496.8 390.0,496.9 390.1,496.9 390.7,497.3 390.8,497.3 390.9,497.4 391.0,497.5 391.5,497.8 392.0,498.1 392.0,498.2 392.1,498.2 392.2,498.3"/>
    <polyline points="391.4,497.4 391.5,497.4 391.6,497.5 391.7,497.5 392.2,497.8 392.3,497.9 392.3,497.9 392.4,498.0 392.5,498.0 392.6,498.0 392.7,498.1 392.8,498.1 392.8,498.1 392.9,498.1 393.0,498.1 393.1,498.2 393.3,498.2 393.5,498.2 393.7,498.2"/>
    <polyline points="390.4,497.0 390.5,497.1 390.6,497.1 390.7,497.2 392.1,498.0 392.1,498.0 392.2,498.1 392.3,498.1 392.4,498.1 392.5,498.2 392.5,498.2 392.6,498.2 392.7,498.2 392.8,498.3 393.0,498.3 393.1,498.3 393.2,498.3 393.2,498.3 393.5,498.3 393.6,498.4"/>
    <polyline points="388.3,496.2 388.4,496.3 388.5,496.3 388.6,496.4 389.0,496.5 389.5,496.7 389.6,496.7 389.7,496.7 389.9,496.8 390.4,497.0 390.9,497.2 391.4,497.4 391.9,497.6 392.6,497.9 392.7,497.9 392.8,497.9 392.9,498.0 393.0,498.0 393.1,498.0 393.2,498.0 393.3,498.0 393.5,498.0 393.7,498.1"/>
    <polyline points="391.9,497.6 391.9,497.6 392.0,497.7 392.1,497.7 392.3,497.8 392.4,497.8 392.4,497.9 392.5,497.9 392.6,497.9 392.7,498.0 392.8,498.0 392.8,498.0 392.9,498.0 393.0,498.1 393.2,498.1 393.3,498.1 393.5,498.1 393.7,498.1"/>
    <polyline points="390.9,497.2 391.0,497.2 391.1,497.3 391.2,497.3 392.1,497.9 392.2,498.0 392.3,498.0 392.4,498.0 392.5,498.1 392.6,498.1 392.7,498.1 392.7,498.2 392.9,498.2 393.0,498.2 393.1,498.2 393.2,498.2 393.2,498.2 393.3,498.3 393.5,498.3 393.7,498.3"/>
    <polyline points="407.1,498.3 407.2,498.3 407.3,498.3 407.4,498.3 407.6,498.3 407.7,498.3 407.8,498.3 407.8,498.3 407.9,498.3"/>
    <polyline points="408.2,498.3 408.3,498.3 408.4,498.3 408.5,498.2 408.7,498.2 408.8,498.2 408.9,498.2 409.0,498.2"/>
    <polyline points="406.8,498.4 406.7,498.4 406.5,498.4 406.3,498.4 405.6,498.5 405.5,498.5 405.3,498.5 405.1,498.5"/>
    <polyline points="406.9,498.3 406.7,498.3 406.6,498.3 406.5,498.3 406.2,498.2 406.1,498.2 406.0,498.2 405.8,498.2"/>
    <polyline points="405.2,498.4 405.3,498.4 405.4,498.4 405.5,498.4 405.7,498.4 405.8,498.4 405.9,498.4 406.0,498.4"/>
    <polyline points="404.1,498.5 404.2,498.5 404.3,498.5 404.4,498.5 404.6,498.4 404.7,498.4 404.9,498.4 404.9,498.4"/>
    <polyline points="407.6,498.2 407.7,498.2 407.8,498.2 407.9,498.2 408.3,498.1 408.4,498.1 408.5,498.1 408.6,498.1"/>
    <polyline points="406.8,498.4 406.0,498.4 405.3,498.4 404.1,498.5 404.1,498.5 403.8,498.5 403.0,498.6 402.1,498.6 402.0,498.6 401.9,498.6 401.8,498.6 401.7,498.6 400.7,498.5 400.3,498.5 400.2,498.5"/>
    <polyline points="392.2,498.3 392.4,498.3 392.5,498.4 392.6,498.4 392.7,498.5 392.9,498.5 393.0,498.5 393.1,498.6 393.2,498.6 393.4,498.6 393.5,498.6 393.7,498.7 394.3,498.7 395.2,498.8"/>
    <polyline points="410.0,498.2 410.2,498.2 410.4,498.2 410.6,498.1 410.8,498.1 410.9,498.1 411.1,498.1 411.2,498.0 411.4,498.0 411.5,498.0 411.7,497.9 411.9,497.9 412.0,497.8 412.2,497.7 412.3,497.7 412.5,497.6 413.0,497.3 413.3,497.1 413.6,496.8 413.9,496.3 413.9,496.0 413.9,495.5 413.9,495.4 413.9,495.3 413.9,495.2 413.9,495.1 413.8,495.0 413.8,494.9 413.8,494.8 413.7,494.7 413.7,494.6 413.6,494.5 413.6,494.4 413.5,494.4 413.4,494.3 413.4,494.3 413.4,494.2 413.4,494.2 413.3,494.1 413.2,494.0 413.2,494.0"/>
    <polyline points="230.1,290.1 228.3,289.9 228.3,289.9 227.2,289.8 227.0,289.8 226.9,289.8 226.7,289.7 226.6,289.7 226.4,289.7 226.2,289.7 226.2,289.7 226.0,289.7 225.8,289.6 225.7,289.6 225.5,289.6 225.4,289.6 225.2,289.6 225.0,289.5 224.8,289.5 224.6,289.5 224.4,289.5 224.3,289.4 224.1,289.4 223.0,289.3 222.9,289.2 222.7,289.2 222.6,289.2 222.4,289.2 222.2,289.1 222.0,289.1 221.8,289.1 221.7,289.1 221.5,289.1 221.3,289.0 221.1,289.0 221.0,289.0 220.8,289.0 220.7,289.0 220.5,289.0 220.4,289.0 220.3,288.9 220.1,288.9 219.9,288.9 219.8,288.9 219.5,288.9 219.3,288.9 219.1,288.9 218.8,288.8 216.0,288.7 215.1,288.6 214.8,288.6 214.6,288.6 214.5,288.5 214.3,288.5 214.1,288.5 213.9,288.5 213.7,288.5 213.5,288.5 213.4,288.4 213.2,288.4 213.0,288.4 212.8,288.4 212.6,288.4 212.4,288.3 212.2,288.3 212.0,288.3 211.8,288.3 211.6,288.2 211.5,288.2 211.3,288.2 211.0,288.1 210.7,288.1 210.7,288.1 210.6,288.1 210.5,288.1 210.3,288.0 210.1,288.0 210.0,288.0 209.8,288.0 209.6,287.9 209.4,287.9 209.2,287.9 209.0,287.9 208.9,287.8 208.7,287.8 208.5,287.8 208.3,287.8 208.1,287.7 208.0,287.7 207.8,287.7 207.6,287.7 207.4,287.7 207.3,287.6 207.1,287.6 207.1,287.6 206.9,287.6 206.7,287.6 206.5,287.6 206.4,287.5 206.2,287.5 206.1,287.5 205.9,287.5 205.7,287.5 205.4,287.4 205.2,287.4 204.7,287.4 204.2,287.3 203.9,287.3 203.7,287.3 202.3,287.1 201.4,287.0 201.2,287.0 201.0,287.0 200.5,286.9 200.4,286.9 200.2,286.9 200.0,286.9 199.8,286.9 199.3,286.8 199.1,286.8 198.8,286.7 198.6,286.7 198.5,286.7 198.3,286.7 198.1,286.7 197.8,286.6 197.0,286.5 196.5,286.5 196.3,286.5 196.1,286.5 195.9,286.4 195.7,286.4 195.5,286.4 195.3,286.4 195.2,286.4 195.0,286.3 194.8,286.3 194.6,286.3 194.4,286.3 194.2,286.3 194.0,286.3 193.8,286.2 193.6,286.2 193.5,286.2 193.3,286.2"/>
    <polyline points="395.6,216.7 395.6,216.8 392.4,219.0 391.7,219.5 391.1,219.9 391.1,220.0 391.0,220.0 390.0,220.7 389.0,221.5 388.5,221.8 388.1,222.0 388.0,222.1 387.8,222.3 387.7,222.4 387.5,222.5 387.4,222.6 387.3,222.6 387.2,222.7 387.0,222.9 386.8,223.0 386.7,223.1 386.5,223.3 386.4,223.4 386.2,223.5 386.1,223.7 386.0,223.8 385.8,223.9 385.7,224.1 385.6,224.2 385.5,224.4 385.4,224.5 385.3,224.7 385.2,224.8 385.1,225.0 385.0,225.1 385.0,225.1 384.9,225.3 384.8,225.5 384.7,225.6 384.7,225.8 384.6,225.9 384.6,226.1 384.5,226.3 384.4,226.4 384.4,226.6 384.4,226.7 384.3,226.9 384.3,227.1 384.3,227.2 384.3,227.4 384.2,227.6 384.2,227.7 384.2,227.9 384.2,228.0 384.2,228.1 384.2,228.1 384.2,228.1 383.9,230.6 383.9,230.6 383.9,230.7 383.8,231.7 383.7,232.7 383.6,233.1 383.6,233.2 383.6,233.4 383.6,233.6 383.5,233.7 383.5,233.9 383.5,234.1 383.5,234.2 383.4,234.3 383.4,234.3 383.4,234.4 383.4,234.6 383.4,234.7 383.3,234.9 383.3,235.1 383.2,235.2 383.1,235.4 383.1,235.6 383.0,235.7 382.9,235.9 382.9,236.0 382.8,236.2 382.7,236.3 382.6,236.5 382.5,236.7 382.4,236.8 382.3,237.0 382.2,237.1 382.1,237.3 382.0,237.4 381.9,237.6 381.8,237.7 381.6,237.8 381.5,238.0 381.4,238.1 381.2,238.3 381.1,238.4 381.0,238.5 380.8,238.7 380.7,238.8 380.5,238.9 380.4,239.1 380.2,239.2 380.0,239.3 379.9,239.4 379.7,239.6 379.5,239.7 379.3,239.8 379.2,239.9 379.0,240.0 378.8,240.1 378.6,240.2 378.4,240.3 378.4,240.4 378.3,240.4 378.2,240.4 378.0,240.5 377.8,240.6 377.6,240.7 377.4,240.8 377.2,240.9 376.9,241.1 375.5,241.7 375.3,241.8 374.1,242.3 372.9,242.9 372.7,243.0 370.8,243.8 370.8,243.8 369.9,244.3 369.7,244.3 369.5,244.4 369.3,244.5 369.1,244.6 368.9,244.7 368.7,244.8 368.5,244.9 368.3,245.0 368.1,245.1 367.9,245.2 367.7,245.2 367.5,245.3 367.3,245.4 367.0,245.5 366.8,245.6 366.6,245.7 366.4,245.8 366.2,245.9 366.0,245.9 365.8,246.0 365.6,246.1 365.4,246.2 365.2,246.3 365.0,246.4 364.7,246.5 364.6,246.5 360.7,248.1 358.6,248.9 358.4,249.0 358.2,249.1 358.0,249.1 357.8,249.2 357.6,249.3 357.4,249.4 357.2,249.5 357.0,249.6 356.8,249.7 356.6,249.8 356.4,249.9 356.2,250.0 356.0,250.1 355.9,250.3 355.7,250.4 355.5,250.5 355.4,250.6 355.2,250.8 355.1,250.9 355.0,251.0 354.8,251.2 354.7,251.3 354.6,251.5 354.5,251.6 354.4,251.8 354.3,251.9 354.2,252.1 354.1,252.2 354.0,252.4 353.9,252.6 353.9,252.7 353.8,252.9 353.7,253.0 353.7,253.2 353.6,253.4 353.6,253.5 353.6,253.7 353.6,253.9 353.6,254.0 353.6,254.2 353.6,254.4 353.6,254.5 353.6,254.7 353.6,254.8 353.6,255.0 353.6,255.1 353.7,255.3 353.7,255.4 353.8,255.6 353.8,255.6 353.8,255.7"/>
    <polyline points="410.0,498.0 410.2,498.0 410.4,498.0 410.6,498.0 410.7,497.9 410.9,497.9 411.0,497.9 411.1,497.9 411.3,497.8 411.4,497.8 411.6,497.7 411.7,497.7 411.9,497.6 412.0,497.6 412.1,497.5 412.3,497.4 412.5,497.3 412.7,497.2 413.0,496.9 413.2,496.7 413.5,496.2 413.6,496.0 413.6,495.5 413.6,495.4 413.6,495.3 413.6,495.2 413.6,495.1 413.6,495.0 413.6,494.9 413.5,494.9 413.5,494.8 413.4,494.7 413.4,494.6 413.3,494.5 413.3,494.4 413.3,494.4 413.2,494.3 413.2,494.2 413.1,494.2 413.1,494.1 413.0,494.0"/>
    <polyline points="402.2,497.9 401.6,497.6 401.5,497.6 401.4,497.5 401.2,497.5 401.1,497.5 401.0,497.5 401.0,497.5 400.9,497.4 400.8,497.4 400.6,497.4 400.5,497.4 400.4,497.4"/>
    <polyline points="249.2,226.6 247.2,226.1 246.2,225.9 245.2,225.6 244.2,225.2 243.3,224.8 242.3,224.3 241.3,223.8 240.6,223.4 240.0,223.0 239.4,222.5 237.1,220.7 235.6,219.6 234.1,218.6 232.4,217.7 231.8,217.4 230.4,216.7 228.5,215.7"/>
    <polyline points="413.1,494.0 413.1,494.1 413.2,494.1 413.2,494.2 413.3,494.2 413.3,494.3 413.4,494.3 413.4,494.5 413.5,494.6 413.6,494.7 413.6,494.7 413.6,494.8 413.7,494.9 413.7,495.0 413.7,495.1 413.8,495.2 413.8,495.3 413.8,495.4 413.8,495.5 413.7,496.0 413.7,496.2 413.4,496.7 413.2,497.0 412.8,497.2 412.4,497.5 412.2,497.6 412.1,497.7 411.9,497.7 411.8,497.8 411.7,497.8 411.5,497.9 411.3,497.9 411.2,497.9 411.0,498.0 410.9,498.0 410.7,498.0 410.6,498.0 410.4,498.1 410.2,498.1 410.0,498.1"/>
    <polyline points="314.0,300.6 313.9,300.5 313.9,300.4 313.8,300.3 313.7,300.2 313.4,299.8 313.2,299.6 313.0,299.3 312.9,299.2 312.9,299.1 312.7,299.0 312.7,299.0 312.6,298.9 312.5,298.8 312.4,298.7 312.3,298.6 312.2,298.5 312.0,298.4 311.9,298.3 311.8,298.2 311.6,298.1 311.5,298.1 311.4,298.0 311.3,297.9 311.1,297.8 311.0,297.8 310.8,297.7 310.7,297.6 310.5,297.6 310.4,297.5 310.3,297.5 310.1,297.4"/>
    <polyline points="369.3,276.8 369.2,276.9 369.2,277.1 369.1,277.2 369.0,277.3 368.9,277.4 368.8,277.6 368.8,277.7 368.7,277.8 368.6,277.9 368.4,278.0 368.4,278.1 368.3,278.2 368.1,278.4 368.0,278.5 367.8,278.6 367.7,278.7 367.6,278.8 367.5,278.9 367.3,279.0 367.2,279.0 367.1,279.1 366.9,279.2 366.7,279.3 366.5,279.4 366.3,279.5 366.0,279.7 365.7,279.8 358.3,283.1 357.7,283.4 357.1,283.6 356.6,283.9 356.0,284.1 353.8,285.0 353.8,285.0 353.4,285.2 352.8,285.5 352.5,285.6 352.5,285.6 351.7,285.9 351.2,286.1 350.6,286.4 350.3,286.5 350.0,286.6 349.8,286.7 349.3,286.9 349.0,287.1 348.8,287.2 348.7,287.2"/>
    <polyline points="261.8,306.0 262.0,306.0 262.1,306.0 262.2,305.9 262.4,305.9 262.6,305.9 262.7,305.9 263.0,305.8 263.2,305.8 263.4,305.8 263.6,305.7 263.9,305.7 264.1,305.7 264.3,305.6 265.6,305.4 267.6,305.0 268.3,304.9 268.4,304.9 268.5,304.9 269.9,304.6 271.3,304.3 271.4,304.3 273.1,304.0 273.4,304.0 273.5,303.9 273.8,303.9 274.3,303.8 274.8,303.7 275.2,303.6 275.7,303.5 276.1,303.4 276.4,303.3 278.4,302.9 284.9,301.4 286.9,300.9 290.3,300.2 290.4,300.2 293.1,299.5 293.8,299.4 295.5,299.0 296.6,298.7 296.7,298.7 298.0,298.4 298.0,298.4 301.4,297.6 302.8,297.3 303.0,297.3 303.0,297.3"/>
    <polyline points="369.7,276.9 369.7,276.7 369.8,276.6 369.8,276.4 369.8,276.3 369.9,276.2 369.9,276.0 369.9,275.9 369.9,275.8 370.0,275.6 370.0,275.4 370.0,275.2 370.0,274.9 369.9,274.4 369.9,274.4 369.9,273.1 369.9,272.1 369.9,271.6 369.9,271.3 369.8,271.1 369.8,270.9 369.8,270.8 369.8,270.7 369.8,270.6 369.8,270.4 369.7,270.2 369.7,270.1 369.7,269.9 369.6,269.8 369.6,269.7 369.5,269.5 369.4,269.4 369.4,269.3 369.3,269.2 369.2,269.0 369.1,268.9 369.1,268.7 369.0,268.6 368.9,268.5 368.8,268.4 368.7,268.3 368.6,268.1 368.5,268.0 368.4,267.9 368.3,267.8 368.1,267.7 368.0,267.6 367.9,267.5 367.8,267.4 367.6,267.3 367.5,267.2 367.4,267.1 367.2,267.0 367.0,266.9 366.8,266.8 366.5,266.6 366.2,266.4 363.3,264.8 363.0,264.6 362.7,264.5 362.5,264.3 362.2,264.1 362.0,264.0 361.8,263.9 361.6,263.7 361.4,263.6 361.2,263.5 361.1,263.3 361.1,263.3 361.0,263.3 360.9,263.2 360.9,263.2 360.7,263.0 360.5,262.8 360.3,262.6 360.1,262.4 359.9,262.2 359.5,261.8 359.0,261.3 357.6,259.9 357.3,259.5 357.3,259.5 356.8,259.0 355.7,257.9 355.5,257.7 355.3,257.5 355.1,257.2 354.9,257.0 354.8,256.9 354.7,256.7 354.6,256.6 354.5,256.5 354.5,256.3 354.4,256.2 354.3,256.1 354.3,255.9 354.2,255.8 354.2,255.7 354.2,255.7"/>
    <polyline points="353.8,255.7 353.8,255.8 353.9,255.9 353.9,256.0 354.0,256.1 354.1,256.3 354.1,256.4 354.2,256.5 354.3,256.7 354.4,256.8 354.5,257.0 354.6,257.2 354.8,257.4 355.0,257.6 355.2,257.8 355.4,258.0 356.5,259.1 357.0,259.6 357.0,259.7 357.3,260.0 358.8,261.5 358.9,261.6 359.6,262.3 359.8,262.5 360.0,262.7 360.2,262.9 360.2,263.0 360.4,263.1 360.6,263.3 360.8,263.5 361.0,263.6 361.2,263.8 361.3,263.9 361.5,264.0 361.8,264.2 362.0,264.3 362.2,264.5 362.5,264.6 362.8,264.8 363.1,265.0 366.0,266.6 366.3,266.8 366.6,266.9 366.7,267.0 366.9,267.2 367.1,267.3 367.3,267.4 367.4,267.5 367.5,267.6 367.7,267.7 367.8,267.8 367.9,267.9 368.1,268.0 368.2,268.1 368.3,268.2 368.4,268.4 368.5,268.5 368.5,268.6 368.6,268.7 368.7,268.8 368.8,268.9 368.9,269.0 368.9,269.2 369.0,269.2 369.1,269.3 369.1,269.5 369.2,269.6 369.2,269.7 369.3,269.8 369.3,269.9 369.3,270.0 369.4,270.1 369.4,270.3 369.4,270.4 369.5,270.6 369.5,270.7 369.5,270.9 369.5,271.1 369.5,271.3 369.5,271.6 369.5,272.1 369.6,273.1 369.6,274.7 369.6,274.9 369.6,275.1 369.6,275.3 369.6,275.4 369.6,275.6 369.6,275.7 369.6,275.9 369.5,276.0 369.5,276.1 369.5,276.2 369.5,276.3 369.4,276.4 369.4,276.6 369.3,276.7 369.3,276.8 369.3,276.8"/>
    <polyline points="355.8,258.1 355.9,258.2 355.9,258.3 356.0,258.4 356.1,258.4 356.2,258.6 356.5,259.0"/>
    <polyline points="355.7,258.1 355.8,258.2 355.9,258.3 356.0,258.4 356.1,258.5 356.2,258.6 356.6,259.0"/>
    <polyline points="353.9,255.7 354.0,255.7 354.0,255.8 354.0,256.0 354.1,256.1 354.2,256.2 354.2,256.4 354.3,256.5 354.4,256.6 354.5,256.8 354.6,256.9 354.7,257.1 354.9,257.2 355.0,257.4 355.1,257.5 355.4,257.8 355.6,258.1 355.7,258.1 355.7,258.1 356.2,258.6 356.3,258.7 356.3,258.8 356.4,258.9 356.5,259.0 356.7,259.3 356.8,259.4 356.8,259.5 356.9,259.6 357.0,259.6"/>
    <polyline points="354.1,255.7 354.1,255.7 354.1,255.8 354.2,256.0 354.2,256.1 354.3,256.2 354.3,256.3 354.4,256.5 354.5,256.6 354.6,256.8 354.7,256.9 354.8,257.1 355.0,257.2 355.1,257.4 355.2,257.5 355.5,257.8 355.7,258.0 355.8,258.1 355.8,258.1 356.3,258.6 356.3,258.7 356.4,258.8 356.5,258.9 356.6,259.0 356.9,259.2 357.0,259.2 357.1,259.3 357.2,259.4 357.3,259.5"/>
    <polyline points="262.0,305.9 262.0,305.9 262.2,305.9 262.4,305.8 262.6,305.8 262.7,305.8 262.9,305.8 263.1,305.7 263.4,305.7 263.6,305.7 263.8,305.6 264.0,305.6 264.3,305.5 264.6,305.5 264.8,305.5 265.1,305.4 265.5,305.3 265.8,305.3 265.8,305.3 266.6,305.1 266.8,305.1 267.0,305.1 267.1,305.0 267.3,305.0 267.7,305.0 267.8,305.0 268.0,304.9 268.1,304.9 268.3,304.9"/>
    <polyline points="265.8,305.2 265.9,305.2 266.0,305.2 266.2,305.1 266.3,305.1 266.5,305.1 267.3,305.0"/>
    <polyline points="262.0,305.8 262.0,305.8 262.2,305.8 262.4,305.8 262.5,305.7 262.7,305.7 262.9,305.7 263.1,305.7 263.4,305.6 263.6,305.6 263.8,305.6 264.0,305.5 264.3,305.5 264.6,305.4 264.8,305.4 265.1,305.3 265.4,305.3 265.8,305.2 265.8,305.2 266.6,305.1 266.8,305.0 266.9,305.0 267.1,305.0 267.2,304.9 267.6,304.8 267.7,304.8 267.9,304.7 268.1,304.7 268.2,304.7"/>
    <polyline points="369.9,274.4 370.0,274.6 370.0,274.7 370.0,274.8 370.0,274.9 370.1,275.5 370.1,275.7 370.2,275.8 370.2,275.9 370.2,276.0"/>
    <polyline points="370.4,278.8 370.3,276.2 370.3,275.6 370.3,275.5 370.3,275.3 370.3,275.3 370.2,275.2 370.2,274.9 370.2,274.8 370.2,274.7 370.1,274.5 370.1,274.4"/>
    <polyline points="370.5,278.8 370.4,276.2 370.4,275.6 370.4,275.5 370.4,275.4 370.4,275.3 370.4,275.2 370.4,274.9 370.5,274.8 370.5,274.7 370.5,274.5 370.5,274.4"/>
    <polyline points="370.3,276.2 370.3,276.1 370.3,275.9 370.3,275.8 370.3,275.7 370.3,275.7 370.4,275.2"/>
    <polyline points="370.2,275.2 370.3,275.7 370.4,275.7 370.4,275.8 370.4,275.9 370.4,276.1 370.4,276.2"/>
    <polyline points="370.6,278.8 370.5,274.4 370.4,271.7"/>
    <polyline points="370.1,271.7 370.1,274.4 370.2,276.0 370.3,278.9"/>
    <polyline points="301.4,297.6 301.3,297.7 301.1,297.7 300.9,297.7 300.8,297.8 299.7,297.9 298.5,298.1 298.4,298.1 298.2,298.1 298.1,298.2 297.9,298.2"/>
    <polyline points="298.0,298.4 298.2,298.4 298.3,298.3 298.5,298.3 298.6,298.2 299.7,297.9 300.7,297.6 300.8,297.5 301.0,297.5 301.2,297.5 301.3,297.4"/>
    <polyline points="194.1,286.5 194.3,286.5 194.5,286.6 194.7,286.6 194.8,286.6 195.0,286.6 195.2,286.6 195.4,286.6 195.6,286.7 195.8,286.7 196.0,286.7 196.9,286.8 201.5,287.3 202.2,287.3 202.9,287.4 203.6,287.5 203.8,287.5 204.2,287.5 205.1,287.6 205.4,287.7 205.6,287.7 205.8,287.7 206.0,287.7 206.2,287.8 206.4,287.8 206.5,287.8 206.7,287.8 206.9,287.8 207.0,287.9 207.1,287.9 207.2,287.9 207.4,287.9 207.6,287.9 207.7,287.9 207.9,288.0 208.1,288.0 208.3,288.0 208.5,288.0 208.7,288.1 208.9,288.1 209.1,288.1 209.2,288.1 209.4,288.2 209.6,288.2 209.8,288.2 209.9,288.2 209.9,288.2 210.0,288.2 210.2,288.3 210.3,288.3 210.6,288.3 211.1,288.4 211.3,288.4 211.5,288.4 211.7,288.5 211.8,288.5 211.9,288.5 212.0,288.5 212.2,288.5 212.4,288.6 212.6,288.6 212.8,288.6 212.9,288.6 213.1,288.7 213.3,288.7 213.5,288.7 213.7,288.7 213.9,288.7 214.0,288.8 214.2,288.8 214.4,288.8 214.6,288.8 214.8,288.8 215.0,288.8 215.2,288.9 215.3,288.9 216.1,288.9 218.5,289.1 218.7,289.1 219.0,289.1 219.2,289.2 219.4,289.2 219.6,289.2 219.8,289.2 220.0,289.2 220.1,289.2 220.3,289.3 220.5,289.3 220.6,289.3 220.8,289.3 220.9,289.3 221.0,289.3 221.2,289.3 221.4,289.4 221.6,289.4 221.8,289.4 222.0,289.4 222.1,289.4 222.2,289.5 222.3,289.5 222.5,289.5 222.6,289.5 223.4,289.6 223.5,289.6 223.7,289.6 223.9,289.7 224.1,289.7 224.3,289.7 224.5,289.7 224.6,289.8 224.8,289.8 225.0,289.8 225.2,289.8 225.4,289.8 225.6,289.9 225.7,289.9 225.9,289.9 226.1,289.9 226.8,290.0 226.8,290.0 228.3,290.2 228.5,290.2 228.7,290.2 228.9,290.2 229.1,290.2 229.4,290.3 230.1,290.3"/>
    <polyline points="415.0,497.9 415.0,497.9 414.8,497.9 414.6,497.9 414.5,497.9 414.4,497.9 414.3,497.9 414.2,497.9 414.1,498.0 413.1,498.1 412.6,498.2 412.1,498.3 411.9,498.3 411.8,498.3 411.6,498.3 411.3,498.4 411.2,498.4 411.1,498.4 411.0,498.4"/>
    <polyline points="411.0,498.5 410.8,498.5 408.7,498.4 408.6,498.4 408.4,498.4 408.4,498.4 408.3,498.4 408.2,498.4 408.0,498.4 407.2,498.4"/>
    <polyline points="415.0,498.4 414.9,498.4 414.8,498.4 414.5,498.4 414.3,498.4 414.2,498.4 414.1,498.4 414.0,498.4 413.9,498.4 413.4,498.4"/>
    <polyline points="415.0,498.3 414.9,498.3 414.8,498.3 414.5,498.3 414.1,498.3 414.0,498.3 413.8,498.3 413.7,498.3 412.9,498.3 412.4,498.4 412.3,498.4 412.1,498.4 411.4,498.5 411.2,498.5 411.1,498.5 411.0,498.5"/>
    <polyline points="415.0,498.5 414.9,498.5 414.8,498.5 414.5,498.5 413.2,498.5 413.1,498.4 413.0,498.4 412.8,498.5 412.3,498.5"/>
    <polyline points="415.0,498.6 414.9,498.6 414.8,498.6 414.4,498.6 412.6,498.5 412.5,498.5 412.4,498.5 412.3,498.5 412.1,498.5 412.0,498.5 411.9,498.5 411.8,498.5"/>
    <polyline points="415.0,498.1 414.9,498.1 414.8,498.1 414.6,498.1 414.5,498.1 414.5,498.1 414.4,498.1 414.3,498.1 414.2,498.1 414.0,498.1 413.9,498.1 413.5,498.2"/>
    <polyline points="415.0,498.0 415.0,498.0 414.8,498.0 414.6,498.0 414.5,498.0 414.4,498.0 414.3,498.0 414.2,498.0 414.1,498.0 414.0,498.0 413.8,498.1 412.7,498.3 412.6,498.4 412.5,498.4 412.4,498.4"/>
    <polyline points="415.0,497.9 415.0,497.9 414.8,497.9 414.6,497.9 414.5,497.9 414.5,497.9 414.4,497.9 414.3,497.9 414.2,497.9 414.1,497.9 414.0,497.9 413.9,497.9 413.8,497.9 413.7,498.0 413.5,498.0 413.4,498.1 413.3,498.1 413.1,498.1"/>
    <polyline points="415.0,497.8 415.0,497.8 414.9,497.8 414.6,497.8 414.5,497.8 414.5,497.8 414.4,497.8 414.3,497.8 414.1,497.8 414.0,497.8 413.9,497.8 413.8,497.8 413.7,497.9 413.6,497.9 413.5,497.9 412.9,498.1 412.8,498.1 412.7,498.2 412.6,498.2"/>
    <polyline points="415.0,498.5 414.9,498.5 414.8,498.5 414.5,498.4 413.7,498.4 413.6,498.4 413.5,498.4 413.4,498.4 412.8,498.5"/>
    <polyline points="412.4,493.1 412.4,493.0 412.3,492.9 412.3,492.9 412.2,492.8 412.2,492.8 412.1,492.7 412.0,492.5 412.0,492.4 411.9,492.4 411.9,492.4 411.9,492.3 411.8,492.3 411.8,492.2 411.8,492.2 409.4,489.4 408.7,488.6 408.7,488.6 408.7,488.6 408.5,488.3 406.9,486.6"/>
    <polyline points="385.3,494.5 385.4,494.5 385.5,494.6 385.6,494.6 386.2,494.8 386.3,494.8 386.4,494.9 386.6,494.9 386.7,494.9 387.0,494.9 387.8,495.0 388.0,495.0 388.3,495.0"/>
    <polyline points="387.0,494.9 387.1,494.9 387.2,494.9 387.3,495.0 387.8,495.1 388.0,495.1 388.0,495.1 388.0,495.1 388.2,495.2 388.3,495.2"/>
    <polyline points="415.0,498.2 414.9,498.2 414.8,498.2 414.6,498.2 414.5,498.2 414.4,498.2 414.3,498.2 414.2,498.2 413.7,498.3"/>
    <polyline points="415.0,498.2 414.9,498.2 414.8,498.2 414.6,498.1 414.5,498.1 414.4,498.1 414.3,498.2 413.8,498.2 413.7,498.2 413.6,498.2 413.5,498.2 413.3,498.3 413.2,498.3 413.1,498.3 412.9,498.3"/>
    <polyline points="383.9,230.6 383.9,230.4 383.9,230.3 384.0,230.2 384.0,230.1 384.2,229.3 384.4,228.6 384.5,228.5 384.5,228.3 384.5,228.2 384.5,228.1"/>
    <polyline points="384.2,228.1 384.2,228.2 384.2,228.3 384.2,228.4 384.2,228.6 384.2,229.3 384.2,230.1 384.3,230.2 384.3,230.3 384.2,230.5 384.2,230.6"/>
    <polyline points="391.1,219.9 391.2,219.9 391.3,219.8 391.5,219.7 391.6,219.6 391.9,219.5 392.0,219.4 392.1,219.3 392.2,219.3 392.3,219.2 392.9,218.7 393.0,218.7 395.1,217.2 395.7,216.8 395.7,216.8"/>
    <polyline points="391.3,220.1 391.5,220.0 391.6,219.9 391.7,219.8 391.8,219.8 392.0,219.5 392.1,219.5 392.2,219.4 392.3,219.3 392.4,219.2 393.0,218.8 393.1,218.8 395.2,217.3 395.7,216.9 395.7,216.9"/>
    <polyline points="392.0,219.5 392.5,219.1 392.6,219.0 392.7,218.9 392.8,218.9 392.9,218.8 392.9,218.7"/>
    <polyline points="391.9,219.5 392.5,219.1 392.6,219.0 392.7,219.0 392.8,218.9 392.9,218.9 393.0,218.8"/>
    <polyline points="354.2,255.7 354.1,255.6 354.1,255.5 354.1,255.4 354.0,255.2 354.0,255.0 353.9,254.9 353.9,254.7 353.9,254.6 353.9,254.4 353.9,254.2 353.9,254.0 353.9,253.9 353.9,253.7 354.0,253.5 354.0,253.4 354.0,253.2 354.1,253.0 354.1,252.9 354.2,252.7 354.3,252.6 354.4,252.4 354.4,252.2 354.5,252.1 354.6,251.9 354.7,251.8 354.9,251.6 355.0,251.5 355.1,251.3 355.2,251.2 355.4,251.1 355.5,250.9 355.7,250.8 355.8,250.7 356.0,250.5 356.1,250.4 356.3,250.3 356.5,250.2 356.7,250.1 356.9,250.0 357.0,249.9 357.2,249.8 357.4,249.7 357.6,249.6 357.8,249.5 358.1,249.4 358.3,249.3 358.5,249.2 358.7,249.1 358.9,249.1 360.8,248.3 364.7,246.7 365.0,246.6 365.2,246.5 365.4,246.5 365.7,246.4 365.9,246.3 366.1,246.2 366.3,246.1 366.5,246.0 366.7,245.9 366.9,245.8 367.1,245.8 367.3,245.7 367.5,245.6 367.7,245.5 367.9,245.4 368.1,245.3 368.4,245.2 368.6,245.1 368.8,245.0 369.0,245.0 369.2,244.9 369.4,244.8 369.6,244.7 369.8,244.6 370.1,244.5 370.6,244.2 370.6,244.2 372.9,243.2 373.1,243.1 374.3,242.5 375.5,242.0 375.7,241.9 377.1,241.3 377.3,241.2 377.5,241.1 377.6,241.0 377.6,241.0 377.7,241.0 377.9,240.9 378.1,240.8 378.3,240.7 378.5,240.6 378.7,240.5 378.9,240.4 379.1,240.3 379.3,240.2 379.4,240.1 379.6,239.9 379.8,239.8 380.0,239.7 380.1,239.6 380.3,239.5 380.5,239.3 380.6,239.2 380.8,239.1 380.9,239.0 381.1,238.8 381.2,238.7 381.4,238.6 381.5,238.4 381.6,238.3 381.8,238.1 381.9,238.0 382.0,237.9 382.2,237.7 382.3,237.6 382.4,237.4 382.5,237.3 382.6,237.1 382.7,237.0 382.8,236.8 382.9,236.7 383.0,236.5 383.1,236.3 383.2,236.2 383.2,236.0 383.3,235.9 383.4,235.7 383.4,235.6 383.4,235.6 383.4,235.5 383.5,235.4 383.6,235.2 383.6,235.1 383.7,234.9 383.7,234.7 383.7,234.6 383.8,234.4 383.8,234.2 383.8,234.1 383.9,233.9 383.9,233.7 383.9,233.6 383.9,233.4 383.9,233.2 384.0,233.1 384.0,232.7 384.1,231.7 384.2,230.7 384.2,230.6 384.2,230.6 384.5,228.1 384.5,228.1 384.5,228.1 384.5,228.0 384.5,227.9 384.6,227.7 384.6,227.6 384.6,227.4 384.6,227.2 384.7,227.1 384.7,226.9 384.7,226.7 384.8,226.6 384.8,226.4 384.9,226.3 384.9,226.1 385.0,225.9 385.0,225.8 385.1,225.6 385.2,225.4 385.2,225.4 385.3,225.3 385.4,225.1 385.4,225.0 385.5,224.8 385.6,224.7 385.8,224.5 385.9,224.4 386.0,224.2 386.1,224.1 386.2,223.9 386.4,223.8 386.5,223.7 386.7,223.5 386.8,223.4 387.0,223.3 387.1,223.1 387.3,223.0 387.4,222.9 387.5,222.9 387.6,222.8 387.8,222.6 387.9,222.5 388.1,222.4 388.3,222.3 388.4,222.2 388.7,222.0 389.2,221.6 390.2,220.9 391.2,220.2 391.3,220.1 391.3,220.1 391.9,219.7 392.6,219.2 395.8,216.9 396.7,216.3"/>
    <polyline points="178.6,190.3 177.8,190.1 173.9,188.1"/>
  </g>

  <!-- 지하철 역 -->
  <g>
    <circle cx="299.8" cy="276.4" r="3" fill="#dc2626" stroke="#fff" stroke-width="1"/>
    <circle cx="251.2" cy="227.2" r="3" fill="#dc2626" stroke="#fff" stroke-width="1"/>
    <circle cx="213.9" cy="208.3" r="3" fill="#dc2626" stroke="#fff" stroke-width="1"/>
    <circle cx="197.7" cy="200.0" r="3" fill="#dc2626" stroke="#fff" stroke-width="1"/>
    <circle cx="181.4" cy="191.7" r="3" fill="#dc2626" stroke="#fff" stroke-width="1"/>
    <circle cx="232.1" cy="217.6" r="3" fill="#dc2626" stroke="#fff" stroke-width="1"/>
    <circle cx="357.5" cy="259.9" r="3" fill="#dc2626" stroke="#fff" stroke-width="1"/>
    <circle cx="369.7" cy="273.1" r="3" fill="#dc2626" stroke="#fff" stroke-width="1"/>
    <circle cx="351.3" cy="286.2" r="3" fill="#dc2626" stroke="#fff" stroke-width="1"/>
    <circle cx="326.3" cy="291.9" r="3" fill="#dc2626" stroke="#fff" stroke-width="1"/>
    <circle cx="295.5" cy="298.9" r="3" fill="#dc2626" stroke="#fff" stroke-width="1"/>
    <circle cx="269.8" cy="304.5" r="3" fill="#dc2626" stroke="#fff" stroke-width="1"/>
    <circle cx="406.8" cy="486.7" r="3" fill="#dc2626" stroke="#fff" stroke-width="1"/>
    <circle cx="356.2" cy="442.1" r="3" fill="#dc2626" stroke="#fff" stroke-width="1"/>
    <circle cx="392.4" cy="469.9" r="3" fill="#dc2626" stroke="#fff" stroke-width="1"/>
    <circle cx="375.2" cy="454.6" r="3" fill="#dc2626" stroke="#fff" stroke-width="1"/>
    <circle cx="344.4" cy="431.0" r="3" fill="#dc2626" stroke="#fff" stroke-width="1"/>
    <circle cx="342.1" cy="411.0" r="3" fill="#dc2626" stroke="#fff" stroke-width="1"/>
    <circle cx="318.7" cy="362.4" r="3" fill="#dc2626" stroke="#fff" stroke-width="1"/>
    <circle cx="326.0" cy="379.1" r="3" fill="#dc2626" stroke="#fff" stroke-width="1"/>
    <circle cx="336.9" cy="394.2" r="3" fill="#dc2626" stroke="#fff" stroke-width="1"/>
    <circle cx="311.3" cy="344.6" r="3" fill="#dc2626" stroke="#fff" stroke-width="1"/>
    <circle cx="323.9" cy="326.1" r="3" fill="#dc2626" stroke="#fff" stroke-width="1"/>
    <circle cx="315.3" cy="302.8" r="3" fill="#dc2626" stroke="#fff" stroke-width="1"/>
    <circle cx="288.6" cy="252.5" r="3" fill="#dc2626" stroke="#fff" stroke-width="1"/>
    <circle cx="272.3" cy="231.7" r="3" fill="#dc2626" stroke="#fff" stroke-width="1"/>
    <circle cx="242.3" cy="300.1" r="3" fill="#dc2626" stroke="#fff" stroke-width="1"/>
    <circle cx="390.1" cy="220.8" r="3" fill="#dc2626" stroke="#fff" stroke-width="1"/>
    <circle cx="311.5" cy="295.2" r="3" fill="#dc2626" stroke="#fff" stroke-width="1"/>
    <circle cx="205.6" cy="287.6" r="3" fill="#dc2626" stroke="#fff" stroke-width="1"/>
    <circle cx="231.8" cy="290.4" r="3" fill="#dc2626" stroke="#fff" stroke-width="1"/>
    <circle cx="374.2" cy="242.4" r="3" fill="#dc2626" stroke="#fff" stroke-width="1"/>
    <circle cx="383.9" cy="231.7" r="3" fill="#dc2626" stroke="#fff" stroke-width="1"/>
    <circle cx="157.2" cy="287.6" r="3" fill="#dc2626" stroke="#fff" stroke-width="1"/>
    <circle cx="181.7" cy="285.5" r="3" fill="#dc2626" stroke="#fff" stroke-width="1"/>
    <circle cx="346.6" cy="186.5" r="3" fill="#dc2626" stroke="#fff" stroke-width="1"/>
    <circle cx="379.5" cy="189.2" r="3" fill="#dc2626" stroke="#fff" stroke-width="1"/>
    <circle cx="401.9" cy="204.7" r="3" fill="#dc2626" stroke="#fff" stroke-width="1"/>
  </g>
</svg>