<?xml version="1.0" encoding="UTF-8"?>
<svg width="800" height="600" xmlns="http://www.w3.org/2000/svg">
  <title>Washington DC Subway Map</title>
  <rect width="100%" height="100%" fill="#f8f9fa"/>
  <g stroke="#2563eb" stroke-width="3" fill="none">
    <polyline points="572.2,406.9 570.8,407.5 569.9,407.9 569.2,408.3 568.0,409.0 560.9,413.0 559.8,413.7"/>
    <polyline points="113.3,321.6 119.6,319.7 120.0,319.5 120.5,319.4 120.8,319.2 122.5,318.6 124.3,318.0 124.7,317.9 128.7,316.5 129.3,316.2 130.0,316.0 131.4,315.5 132.3,315.2 133.1,314.9 134.9,314.3 135.3,314.1 135.5,314.0 135.7,314.0 136.0,313.9 136.1,313.8 136.8,313.7 138.4,313.2 138.8,313.1 139.4,313.0 140.0,312.8 141.2,312.5 141.6,312.4 143.3,311.9 143.7,311.8 144.1,311.7 144.8,311.5 152.4,309.3 155.6,308.3 156.6,308.0 157.0,307.9 159.9,307.0 160.2,306.9 160.6,306.8 161.0,306.7 161.4,306.5 162.2,306.3 162.5,306.2 162.7,306.2 163.1,306.1 163.6,306.0 163.8,305.9 163.9,305.9 164.2,305.8 164.5,305.7 164.8,305.6 165.0,305.6 165.2,305.5 165.4,305.5 165.7,305.4 166.0,305.4 166.4,305.3 166.8,305.2 167.4,305.1 167.7,305.1 167.9,305.0 168.2,305.0 168.5,304.9 168.7,304.9 169.1,304.8 169.8,304.8 171.0,304.6 171.2,304.6 171.4,304.6 171.7,304.5 171.9,304.5 172.0,304.5 172.2,304.5 172.5,304.5 173.4,304.4 174.2,304.4 174.6,304.4 176.2,304.3 177.4,304.2 179.2,304.1 180.5,304.1 181.7,304.0 183.5,303.9 184.6,303.8 185.6,303.7 186.6,303.7 187.6,303.6 190.0,303.4 193.4,303.3 200.3,302.9"/>
    <polyline points="195.0,545.0 195.5,543.1 195.9,541.4"/>
    <polyline points="453.7,246.2 453.6,244.8 453.5,244.0 453.5,243.8 453.5,243.5 453.5,243.3 453.6,243.0 453.7,242.7 453.8,242.4 453.8,242.3 454.0,242.1 454.1,241.8 454.4,241.4 454.5,241.2 454.7,241.0 454.9,240.7 455.0,240.6 455.2,240.4 455.5,240.1 456.1,239.5 456.8,238.8 457.4,238.2 457.7,237.8 457.9,237.6 458.1,237.2 458.3,237.0 458.5,236.7 459.2,235.4 460.4,233.3"/>
    <polyline points="438.2,263.9 438.9,263.0 439.0,262.9 439.4,262.4 439.8,261.7 441.6,259.5 442.0,259.0 442.5,258.6 443.0,258.1 443.6,257.6 444.9,256.7 450.7,252.6 451.3,252.2 451.9,251.8 452.5,251.2 453.0,250.7 453.4,250.2 453.6,249.7 453.8,249.3 453.9,248.8 453.9,248.2 453.9,247.5 453.7,246.2"/>
    <polyline points="465.2,203.3 464.6,201.8 464.2,200.8 463.7,199.8 463.1,198.6 462.6,197.8 459.6,192.9 458.8,191.6 458.0,190.2 453.1,181.5 452.0,179.7 451.3,178.4 450.7,177.2 449.7,175.6 448.7,173.8 448.7,173.8"/>
    <polyline points="438.5,155.7 437.4,153.6 437.0,153.0 436.6,152.2 435.9,150.8 435.1,149.5 434.3,148.0"/>
    <polyline points="440.9,160.0 439.7,157.8 438.5,155.7"/>
    <polyline points="80.4,518.1 72.5,521.2"/>
    <polyline points="72.5,521.2 70.9,521.7"/>
    <polyline points="70.9,521.7 67.9,522.8 65.8,523.5 63.7,524.1 61.4,524.7 58.9,525.2 57.0,525.6 55.5,525.8 54.1,526.0"/>
    <polyline points="86.5,515.9 84.5,516.6 82.6,517.3"/>
    <polyline points="90.3,514.8 89.6,515.0 88.0,515.4 86.5,515.9"/>
    <polyline points="82.6,517.3 80.4,518.1"/>
    <polyline points="147.1,518.8 160.4,519.4 161.0,519.4"/>
    <polyline points="219.1,520.8 219.0,521.0 218.9,521.1 218.8,521.3 218.6,521.4 218.4,521.6 218.0,521.8 216.7,522.6 215.7,523.2 215.3,523.4 215.0,523.7 214.6,524.0 214.0,524.4"/>
    <polyline points="154.6,515.6 155.2,515.6 155.5,515.6 156.1,515.6 156.3,515.6 156.4,515.6 156.5,515.6 156.7,515.6 167.2,516.1 167.7,516.1 167.9,516.1 168.5,516.2"/>
    <polyline points="168.5,516.2 167.8,516.1 166.9,516.0 166.6,516.0"/>
    <polyline points="168.5,516.2 168.7,516.2 169.0,516.2 169.2,516.3 169.5,516.4 169.8,516.5 170.0,516.5 170.3,516.6 170.5,516.7 170.8,516.9 170.9,517.0 171.1,517.1 171.2,517.2 171.3,517.3 171.4,517.4 171.4,517.5 171.5,517.6 171.5,517.7 171.5,517.8 171.5,518.0 171.5,518.1 171.5,518.3 171.4,518.6"/>
    <polyline points="167.8,516.2 176.0,516.6"/>
    <polyline points="218.8,518.4 218.5,518.4 218.2,518.3 217.7,518.2 216.9,518.2 214.1,518.0 189.9,517.0 187.9,516.9"/>
    <polyline points="214.3,518.2 219.3,518.4 220.3,518.3 221.4,518.3 222.4,518.2 223.4,518.0 225.6,517.6 227.1,517.3 229.8,516.7"/>
    <polyline points="229.8,516.7 230.0,516.7 234.6,515.7"/>
    <polyline points="109.3,513.4 105.6,513.3 103.6,513.3 101.6,513.3 99.5,513.4 97.9,513.5 96.4,513.7 94.7,513.9 93.2,514.2 91.8,514.5 90.3,514.8"/>
    <polyline points="123.2,514.2 129.5,514.5 142.2,515.1 152.5,515.5 154.3,515.6 154.6,515.6 156.7,515.7 162.9,516.0"/>
    <polyline points="222.6,519.3 222.0,519.6 221.3,520.0 220.3,520.6"/>
    <polyline points="229.8,516.5 229.6,516.6 227.4,517.0 226.3,517.1 225.5,517.3 225.0,517.3 224.4,517.4 223.4,517.6 222.6,517.7"/>
    <polyline points="214.5,517.9 211.5,517.8 207.4,517.6 200.9,517.3 196.3,517.1 190.5,516.9 190.2,516.9 188.6,516.8 156.7,515.4 154.6,515.4 154.3,515.3 151.6,515.2 143.5,514.8 129.8,514.3 123.1,514.0"/>
    <polyline points="222.6,517.7 220.5,517.9 218.7,518.0 216.7,518.0 214.5,517.9"/>
    <polyline points="176.0,516.6 180.9,516.8 184.1,516.9"/>
    <polyline points="229.9,516.6 229.7,516.7 228.9,516.8 228.3,517.0 227.8,517.1 227.2,517.3 226.3,517.6 225.4,517.9"/>
    <polyline points="234.2,515.6 233.2,515.9 232.9,515.9"/>
    <polyline points="225.4,517.9 224.9,518.1 224.2,518.5 222.6,519.3"/>
    <polyline points="301.6,401.5 301.7,401.6 302.1,402.1 302.3,402.5 302.5,402.8 302.6,403.1 302.7,403.3 302.7,403.5 302.7,403.6 302.7,403.8 302.7,404.1 302.7,404.3 302.7,404.5 302.7,404.8 302.6,405.0 302.5,405.3 302.4,405.5 302.2,405.9 302.1,406.1 301.9,406.4 301.7,406.6 301.4,406.9 301.2,407.0 300.6,407.5 300.3,407.7 300.0,407.9 299.7,408.1 299.1,408.3 298.6,408.5 297.8,408.8 296.1,409.4 295.6,409.5 292.1,410.7 289.3,411.5 287.3,412.2 285.8,412.7 285.0,413.0 284.6,413.2 284.2,413.3 283.9,413.5 283.6,413.6 283.2,413.8 282.9,414.0 282.5,414.2 282.3,414.4 282.0,414.6 281.7,414.8 281.4,415.0 281.3,415.2 281.0,415.5 280.9,415.7 280.8,415.8 280.7,416.0 280.6,416.1 280.5,416.3 280.4,416.5 280.3,416.8 280.3,417.1 280.2,417.2"/>
    <polyline points="251.7,386.7 252.1,386.9 252.4,387.0 252.7,387.2 253.1,387.3 253.4,387.4 253.8,387.5 254.2,387.6 254.5,387.7 254.9,387.8 255.3,387.9 255.7,388.0 256.2,388.1 256.8,388.2 257.1,388.2 257.5,388.2 258.0,388.3 258.4,388.3 258.7,388.3 259.0,388.4 259.5,388.4 259.9,388.4 260.5,388.4 261.3,388.5 262.2,388.5 262.9,388.5 263.6,388.5 264.1,388.4 264.9,388.4 265.4,388.4 266.1,388.3 266.7,388.3 267.4,388.2 268.0,388.2 268.7,388.1 270.8,387.9 274.2,387.6 279.1,387.1 279.7,387.0 283.3,386.6 284.4,386.5 285.0,386.5 285.6,386.4 286.0,386.4 286.5,386.4 286.9,386.4 287.5,386.4 287.8,386.4 288.3,386.4 288.6,386.4 289.3,386.5 289.9,386.7 290.4,386.8 290.9,386.9 291.3,387.1 291.6,387.2 291.9,387.3 292.1,387.4"/>
    <polyline points="670.9,419.2 667.9,417.2 666.7,416.5 666.0,416.1 665.2,415.7 664.4,415.3 663.5,415.1 662.4,414.8 661.1,414.5 650.7,412.2 649.1,411.8 647.5,411.4 645.6,410.9 644.2,410.5 642.7,410.0 641.3,409.5 640.0,409.0 638.7,408.5 637.2,407.9 635.9,407.4 634.7,406.8 633.8,406.4 624.3,402.1 623.4,401.7 622.5,401.4 621.4,401.1 620.6,401.0 619.7,400.8 618.9,400.8 618.1,400.7 617.3,400.7 616.4,400.7"/>
    <polyline points="762.7,231.8 761.3,232.5 759.4,233.4 758.4,233.8 757.5,234.2 756.2,234.8 754.4,235.5 753.0,236.0 751.8,236.4 750.3,236.9 748.4,237.6 746.6,238.1"/>
    <polyline points="703.2,250.5 702.4,250.7 701.3,251.0 700.1,251.3 685.6,254.7 684.1,255.1 682.7,255.5 681.4,255.8 680.3,256.1 679.0,256.5 677.6,257.0 676.4,257.4 674.7,258.0 673.9,258.3"/>
    <polyline points="200.3,302.8 194.4,303.1 193.4,303.2 189.8,303.4 185.6,303.7 183.7,303.8 183.0,303.8 181.0,303.9 179.7,304.0 178.7,304.1 177.5,304.1 177.3,304.1 176.1,304.2 174.6,304.3 173.4,304.3 172.4,304.4 172.2,304.4 171.9,304.4 171.7,304.5 171.5,304.5 171.3,304.5 171.0,304.5 170.7,304.6 170.3,304.6 169.8,304.7 169.0,304.8 168.8,304.8 168.5,304.8 168.4,304.9 168.1,304.9 167.9,304.9 167.8,305.0 167.7,305.0 167.5,305.0 167.3,305.1 166.8,305.1 166.5,305.2 166.2,305.3 165.7,305.4 165.4,305.4 165.2,305.5 165.0,305.5 164.5,305.6 164.1,305.7 163.9,305.8 163.8,305.8 163.5,305.9 163.0,306.0 162.7,306.1 162.4,306.2 162.0,306.3 161.4,306.5 161.0,306.6 160.7,306.7 160.5,306.7 160.3,306.8 160.1,306.8 159.9,306.9 156.9,307.8 155.5,308.2 152.3,309.2 144.3,311.6 143.7,311.7 143.2,311.8 142.7,312.0 142.3,312.1 142.0,312.2 141.5,312.3 141.1,312.4 139.0,313.0 138.3,313.1 136.7,313.6 136.3,313.7 136.1,313.8 135.9,313.8 135.5,314.0 135.2,314.1 134.8,314.2 134.4,314.3 134.1,314.4 133.8,314.6 133.0,314.8 132.8,314.9 132.2,315.1 131.3,315.4 130.0,315.9 129.0,316.2 128.6,316.4 124.7,317.8 122.4,318.6 120.5,319.3 120.2,319.4 119.9,319.4 119.6,319.5 119.3,319.6 113.2,321.5"/>
    <polyline points="426.6,320.4 425.8,320.4 408.9,320.4 397.1,320.4 396.3,320.4"/>
    <polyline points="573.2,290.5 573.0,290.5 570.3,290.2 569.1,290.1 568.3,290.1 567.9,290.0 567.6,290.0 567.3,290.0 566.9,290.0 566.5,290.0 566.1,290.0 565.7,290.0 565.4,290.0 565.0,290.0 564.6,290.0 564.3,290.0 564.0,290.1 563.6,290.1 563.2,290.1 562.9,290.1 562.5,290.2 562.1,290.2 561.7,290.3 561.4,290.3 561.1,290.4 560.7,290.4 560.0,290.5 559.4,290.6 558.5,290.9 557.4,291.1 556.4,291.4 555.3,291.8 554.5,292.1 553.8,292.4 553.0,292.7 552.2,293.1 551.4,293.5 550.7,294.0 544.6,297.6"/>
    <polyline points="544.6,297.6 539.2,300.8 538.7,301.1 538.4,301.2"/>
    <polyline points="713.8,246.1 713.0,246.4 712.3,246.6 711.7,246.9 710.9,247.2 710.1,247.6 709.4,247.9 707.4,248.9 706.4,249.3 705.4,249.7 704.6,250.0 703.9,250.3 703.2,250.5"/>
    <polyline points="236.8,322.3 236.3,321.7 235.9,321.3"/>
    <polyline points="296.4,390.9 296.3,390.7 296.1,390.4 295.8,390.1 295.5,389.7 295.2,389.4 295.0,389.2 294.7,388.9 294.5,388.8"/>
    <polyline points="210.4,297.2 210.4,298.2 210.5,299.1 210.7,300.5 210.8,301.3 210.8,301.7 210.9,302.0 210.9,302.2 211.0,302.3 211.1,302.6 211.1,302.8 211.2,303.0 211.4,303.3 211.5,303.5 211.6,303.7 211.8,304.0 212.0,304.2 212.2,304.4 212.3,304.6 212.6,304.8 212.8,305.0 213.0,305.2 213.3,305.4 213.5,305.6 213.8,305.8 214.3,306.1 214.7,306.3 214.9,306.5 215.3,306.7 216.0,307.0 217.3,307.6 219.8,308.8 220.8,309.3 222.0,309.9 223.0,310.4 223.9,310.8"/>
    <polyline points="279.5,481.7 283.4,478.0 286.8,474.9 287.2,474.5 287.7,474.0 288.2,473.4 288.7,472.8 289.2,472.2 289.6,471.8 289.8,471.4 290.1,470.9 290.5,470.3 290.8,469.7 291.2,468.9 291.5,468.3 291.7,468.0 291.9,467.5 292.0,467.3 292.1,466.9"/>
    <polyline points="223.9,310.8 224.1,310.9 224.4,311.1 224.9,311.3 225.3,311.6 226.0,312.0 226.4,312.2 226.7,312.4 227.0,312.6 227.2,312.8 227.6,313.0 227.8,313.2 228.0,313.3 228.2,313.4 228.4,313.6 228.6,313.7 228.9,313.9 229.1,314.1 229.3,314.3 229.6,314.5 229.7,314.6 230.0,314.8 230.2,315.0 230.5,315.2 230.6,315.4 230.8,315.6 231.0,315.7 231.2,315.9 231.4,316.1 231.6,316.4 231.8,316.6 232.0,316.8 232.2,317.0 232.4,317.2 232.8,317.7 233.5,318.5 233.5,318.5"/>
    <polyline points="279.4,481.6 277.9,483.0 277.3,483.5 276.2,484.6 274.3,486.5 271.3,489.6 271.1,489.8"/>
    <polyline points="241.6,512.7 240.6,513.2 240.1,513.4 239.7,513.6 239.2,513.9 238.8,514.1 238.4,514.3 238.0,514.4 237.7,514.6 237.2,514.7 236.8,514.9 236.4,515.0 236.0,515.2 235.6,515.3 235.2,515.4 234.2,515.6"/>
  </g>
  <g>
    <circle cx="266.4" cy="359.4" r="4" fill="#dc2626"/>
    <circle cx="301.5" cy="260.4" r="4" fill="#dc2626"/>
    <circle cx="251.9" cy="197.5" r="4" fill="#dc2626"/>
    <circle cx="210.3" cy="294.0" r="4" fill="#dc2626"/>
    <circle cx="267.8" cy="493.5" r="4" fill="#dc2626"/>
    <circle cx="426.4" cy="320.4" r="4" fill="#dc2626"/>
    <circle cx="75.0" cy="328.0" r="4" fill="#dc2626"/>
    <circle cx="311.8" cy="280.9" r="4" fill="#dc2626"/>
    <circle cx="523.0" cy="312.6" r="4" fill="#dc2626"/>
    <circle cx="351.3" cy="288.2" r="4" fill="#dc2626"/>
    <circle cx="422.0" cy="289.6" r="4" fill="#dc2626"/>
    <circle cx="486.4" cy="418.0" r="4" fill="#dc2626"/>
    <circle cx="662.2" cy="264.5" r="4" fill="#dc2626"/>
    <circle cx="739.7" cy="462.6" r="4" fill="#dc2626"/>
    <circle cx="132.8" cy="78.3" r="4" fill="#dc2626"/>
    <circle cx="243.2" cy="512.1" r="4" fill="#dc2626"/>
    <circle cx="182.3" cy="166.9" r="4" fill="#dc2626"/>
    <circle cx="340.0" cy="280.8" r="4" fill="#dc2626"/>
    <circle cx="353.2" cy="300.1" r="4" fill="#dc2626"/>
    <circle cx="685.8" cy="92.8" r="4" fill="#dc2626"/>
    <circle cx="591.1" cy="124.8" r="4" fill="#dc2626"/>
    <circle cx="102.3" cy="325.7" r="4" fill="#dc2626"/>
    <circle cx="736.1" cy="310.3" r="4" fill="#dc2626"/>
    <circle cx="373.6" cy="251.3" r="4" fill="#dc2626"/>
    <circle cx="279.0" cy="386.8" r="4" fill="#dc2626"/>
    <circle cx="129.2" cy="315.7" r="4" fill="#dc2626"/>
    <circle cx="248.6" cy="374.3" r="4" fill="#dc2626"/>
    <circle cx="387.0" cy="99.7" r="4" fill="#dc2626"/>
    <circle cx="278.8" cy="282.0" r="4" fill="#dc2626"/>
    <circle cx="496.0" cy="329.8" r="4" fill="#dc2626"/>
    <circle cx="373.6" cy="287.1" r="4" fill="#dc2626"/>
    <circle cx="373.6" cy="270.7" r="4" fill="#dc2626"/>
    <circle cx="314.2" cy="276.1" r="4" fill="#dc2626"/>
    <circle cx="439.5" cy="157.8" r="4" fill="#dc2626"/>
    <circle cx="272.1" cy="223.1" r="4" fill="#dc2626"/>
    <circle cx="591.1" cy="403.3" r="4" fill="#dc2626"/>
    <circle cx="671.1" cy="419.6" r="4" fill="#dc2626"/>
    <circle cx="624.2" cy="286.2" r="4" fill="#dc2626"/>
    <circle cx="163.3" cy="139.1" r="4" fill="#dc2626"/>
    <circle cx="530.4" cy="427.1" r="4" fill="#dc2626"/>
    <circle cx="366.1" cy="194.1" r="4" fill="#dc2626"/>
    <circle cx="436.2" cy="267.0" r="4" fill="#dc2626"/>
    <circle cx="195.7" cy="543.1" r="4" fill="#dc2626"/>
    <circle cx="236.4" cy="321.7" r="4" fill="#dc2626"/>
    <circle cx="548.3" cy="149.4" r="4" fill="#dc2626"/>
    <circle cx="654.9" cy="307.4" r="4" fill="#dc2626"/>
    <circle cx="360.0" cy="242.7" r="4" fill="#dc2626"/>
    <circle cx="299.9" cy="397.8" r="4" fill="#dc2626"/>
    <circle cx="724.5" cy="243.6" r="4" fill="#dc2626"/>
    <circle cx="371.4" cy="320.9" r="4" fill="#dc2626"/>
    <circle cx="373.6" cy="299.6" r="4" fill="#dc2626"/>
    <circle cx="161.2" cy="306.6" r="4" fill="#dc2626"/>
    <circle cx="464.9" cy="203.1" r="4" fill="#dc2626"/>
    <circle cx="462.2" cy="376.4" r="4" fill="#dc2626"/>
    <circle cx="460.6" cy="322.6" r="4" fill="#dc2626"/>
    <circle cx="426.9" cy="341.5" r="4" fill="#dc2626"/>
    <circle cx="396.4" cy="320.4" r="4" fill="#dc2626"/>
    <circle cx="391.1" cy="293.7" r="4" fill="#dc2626"/>
    <circle cx="235.1" cy="176.4" r="4" fill="#dc2626"/>
    <circle cx="337.3" cy="214.2" r="4" fill="#dc2626"/>
    <circle cx="351.5" cy="312.2" r="4" fill="#dc2626"/>
    <circle cx="342.2" cy="55.3" r="4" fill="#dc2626"/>
    <circle cx="460.1" cy="233.4" r="4" fill="#dc2626"/>
    <circle cx="388.3" cy="341.6" r="4" fill="#dc2626"/>
    <circle cx="209.6" cy="527.2" r="4" fill="#dc2626"/>
    <circle cx="291.9" cy="447.0" r="4" fill="#dc2626"/>
    <circle cx="437.7" cy="158.0" r="4" fill="#dc2626"/>
    <circle cx="371.4" cy="288.2" r="4" fill="#dc2626"/>
    <circle cx="373.7" cy="319.8" r="4" fill="#dc2626"/>
    <circle cx="353.3" cy="289.5" r="4" fill="#dc2626"/>
  </g>
</svg>