<?xml version="1.0" encoding="UTF-8"?>
<svg width="800" height="600" xmlns="http://www.w3.org/2000/svg">
  <title>Wuhan Subway Map</title>
  <rect width="100%" height="100%" fill="#f8f9fa"/>

  <!-- 지하철 선로 -->
  <g stroke="#2563eb" stroke-width="2" fill="none" opacity="0.8">
    <polyline points="-105.4,324.1 -103.6,324.2 -101.7,324.3 -98.9,324.5 -96.7,324.6 -92.3,324.6 -89.0,324.7 -85.4,324.8 -81.8,325.0 -77.6,325.4 -75.1,325.7 -72.6,326.0 -70.3,326.4 -67.4,327.0 -64.4,327.6 -62.3,328.2 -60.1,328.7 -58.0,329.3 -56.1,329.9 -54.3,330.6 -53.2,331.0 -52.1,331.4 -51.4,331.8 -51.0,332.0 -50.5,332.4 -50.0,332.8 -49.6,333.1 -49.5,333.2 -49.4,333.4 -49.3,334.6 -49.0,336.6 -48.9,336.9 -48.9,337.2 -48.9,337.5 -49.0,337.9 -49.3,338.5 -49.8,339.1 -50.3,339.5 -50.9,339.9 -54.9,342.0 -60.6,345.0 -76.4,353.1 -86.2,358.2 -86.8,358.5 -87.2,358.8 -87.6,359.1 -87.8,359.5 -87.9,360.1 -87.6,360.6 -87.1,361.0 -86.4,361.4 -85.5,361.8 -84.7,362.1 -83.4,362.6 -82.5,362.9 -81.8,363.1 -80.7,363.5 -79.8,363.7 -78.6,364.0 -77.3,364.2 -75.6,364.5 -74.2,364.7 -72.3,364.9 -70.2,365.1 -68.6,365.3 -66.9,365.4 -65.3,365.5 -61.5,365.7 -58.6,365.8 -55.5,365.9 -53.2,366.0 -50.4,366.2 -47.9,366.4 -46.0,366.6 -23.8,368.7 -6.8,370.2 5.6,371.3 9.0,371.6 11.4,371.8 17.3,372.3 54.1,375.2 58.2,375.5 99.1,378.8 120.2,380.5 132.9,381.5 138.1,381.8 146.1,382.4 157.4,383.1 161.1,383.4 163.5,383.7 166.4,383.9 169.9,384.3 172.2,384.6 176.5,385.4 191.9,388.4 215.7,393.1 218.7,393.8 221.9,394.5 234.3,397.6 236.8,398.2 237.6,398.4 239.2,399.1 240.1,399.8 240.6,400.5 240.9,401.1 240.9,401.7 240.7,402.2 240.4,402.7 239.6,403.5 238.4,404.6 237.7,405.6 237.3,406.5 237.3,407.5 237.6,408.5 238.0,409.0 238.8,409.5 239.6,410.0 240.7,410.4 245.6,411.9 246.7,412.3 257.4,415.3 260.3,416.1 262.1,416.5 265.8,417.3 274.7,418.9 296.7,422.8 325.5,427.8 328.1,428.3 329.6,428.5 332.1,428.8 335.0,429.0 336.7,429.1 339.0,429.2 340.9,429.3 350.1,429.3 419.7,429.9 423.6,429.9 426.8,429.9 429.1,429.9 431.0,429.8 433.3,429.7 469.7,428.3 477.7,427.9 520.6,426.3 544.5,425.3 579.3,423.9 583.1,423.8 585.7,423.7 590.8,423.5 594.5,423.5 597.3,423.4 599.4,423.4 601.8,423.5 607.7,423.6 632.1,424.2 644.8,424.6 662.0,425.0 666.1,425.1 669.6,425.1 672.5,425.2 675.6,425.2 678.1,425.2 709.5,426.0 730.7,426.5 732.3,426.6 734.3,426.6 737.3,426.6 747.2,426.5 750.1,426.6 753.2,426.6 755.8,426.7 758.2,426.8 760.0,426.9 762.4,427.2 763.9,427.4 765.5,427.6 767.3,427.9 768.9,428.3 770.9,428.9 772.3,429.5 773.5,430.1 773.8,430.4 774.5,431.1 775.0,432.1 775.0,432.6 774.8,433.3 774.4,433.9 774.1,434.3 770.8,438.5 770.6,438.8 769.9,440.9 767.5,446.9 767.4,447.6 767.5,448.1 767.8,448.8 768.3,449.3 769.0,449.8 770.2,450.4 771.2,450.8 781.0,454.8 782.0,455.3 783.0,455.9 783.6,456.3 784.1,456.7 784.5,457.1 784.8,457.8 784.9,458.4 784.8,458.9 782.2,462.9 776.2,472.5 769.9,481.8 763.8,494.0 761.0,497.3 756.8,500.2 755.8,501.2 753.5,502.8 751.2,503.9 749.2,504.8 747.1,505.6 744.8,506.3 741.7,507.2 738.2,508.1 733.9,509.0 728.0,510.0 724.5,510.6 721.0,511.2 717.6,511.8 713.1,512.7 710.1,513.3 707.2,514.0 704.1,514.8 701.8,515.5 694.3,517.8 692.4,518.5 689.8,519.5 687.5,520.4 685.2,521.6 683.9,522.6 682.7,523.7 682.1,524.4 680.7,525.3 679.3,527.2 679.1,530.8 682.0,535.9 682.4,536.7 682.7,537.3 682.9,537.7 683.0,538.1 683.9,544.2 684.1,545.4 684.0,546.0 683.7,546.8 683.4,547.7 682.8,549.0 682.7,550.0 682.6,550.8 682.6,551.5 683.1,556.0 684.2,561.2 684.4,563.9 686.1,575.0 686.1,575.5 685.8,576.0 685.4,576.4 684.9,577.3 684.2,578.4 680.9,582.1 680.5,582.7 680.3,583.3 680.6,584.0 681.0,584.6 681.9,585.2 683.9,586.3 685.8,587.0 687.8,587.8 689.9,588.5 691.8,589.0 694.4,589.5 696.7,589.9 699.6,590.2 702.4,590.5 705.5,590.8 708.6,591.0 711.4,591.1 713.5,591.1 715.4,591.1 758.4,588.9 806.4,585.7 809.1,585.5 811.7,585.5 815.5,585.4 819.8,585.4 828.8,585.4 836.2,585.4 847.0,585.5"/>
    <polyline points="716.7,189.4 749.8,187.2 751.7,187.1 754.0,187.1 756.0,187.2 758.7,187.3 760.7,187.5 762.9,187.8 764.9,188.2 766.4,188.6 767.0,188.7 767.9,189.1 769.0,189.5 769.8,190.1 770.1,190.3 770.4,190.7 770.7,191.2 770.8,191.5 770.9,193.0 770.7,194.2 770.8,194.8 771.0,195.2 771.5,195.7 772.6,196.2"/>
    <polyline points="154.4,174.2 151.2,174.9 126.9,180.1 108.2,184.0 103.5,184.9 89.9,187.8 72.5,191.5 52.9,196.5 42.0,199.3 11.9,207.1 -7.5,212.1 -33.6,218.9 -41.2,220.8 -63.9,226.9 -70.1,228.5 -85.8,232.6 -87.2,233.0 -127.2,245.9 -141.3,250.4 -144.4,251.4 -156.1,255.1 -167.8,258.7 -174.9,260.9 -187.5,264.6 -203.3,269.2 -234.7,278.3 -235.2,278.5 -240.0,280.0 -249.1,282.9 -254.9,284.4 -269.5,290.0 -280.3,294.6 -285.6,297.1 -293.5,301.2 -311.7,311.7 -314.2,313.5 -317.0,315.5 -317.6,316.0 -319.0,317.1 -320.6,318.3 -335.1,327.2 -336.3,327.9 -338.4,329.1 -341.3,330.8 -344.1,332.5 -344.8,332.9 -345.6,333.4 -346.1,333.8 -346.7,334.6 -347.3,335.6 -347.8,336.8 -348.2,337.5 -349.0,339.4 -349.1,340.0 -349.1,340.4 -349.1,340.7 -348.7,344.5 -348.3,346.3 -347.0,357.0 -346.8,357.9 -347.2,360.4 -347.2,361.1 -347.4,366.7 -348.4,369.2 -353.0,376.1 -356.7,380.3 -359.2,381.5 -360.3,382.1 -361.5,383.0 -362.8,384.4 -362.8,386.2 -361.1,388.6 -355.4,393.1 -353.1,395.3 -352.4,395.5 -351.4,396.6 -350.8,397.3 -350.6,398.1 -350.8,399.1 -351.6,399.9 -353.2,400.8 -354.6,401.8 -356.0,403.0 -361.8,412.3 -362.2,413.3 -363.2,414.4 -364.8,415.5 -371.5,419.0 -379.5,423.0 -388.4,426.8 -395.2,429.4 -400.4,431.4 -401.5,432.0 -402.3,432.5 -403.4,433.8"/>
    <polyline points="-465.2,421.1 -459.2,415.5 -458.3,414.8 -457.5,414.3 -456.3,413.8 -454.6,413.1 -452.2,412.3 -429.8,405.9 -427.5,405.1 -426.0,404.3 -425.3,403.9 -424.5,403.4 -417.0,397.3 -414.2,395.1 -410.8,392.8 -407.9,391.5 -406.6,391.1 -404.1,390.3 -401.3,389.8 -398.6,389.4 -392.7,388.8 -374.0,386.0 -367.3,384.8 -362.0,383.8 -357.9,382.6 -355.6,381.7 -354.3,381.0 -353.2,380.2 -352.5,378.8 -351.0,376.6 -349.6,374.4 -348.5,372.9 -347.6,371.3 -345.7,370.1 -343.0,369.1 -340.3,368.2 -335.7,366.4 -334.1,366.0 -331.5,365.4 -328.2,364.9 -324.2,364.7 -320.4,364.4 -316.3,364.3 -268.5,363.1 -264.8,363.0 -262.2,363.0 -258.7,363.0 -220.1,364.1 -216.3,364.3 -213.1,364.5 -211.5,364.7 -207.6,365.1 -205.6,365.4 -203.7,365.7 -202.4,366.0 -198.9,366.8 -196.0,367.4 -169.2,373.0 -152.0,376.5 -149.8,377.1 -148.3,377.5 -146.5,378.3 -145.6,379.0 -144.8,379.9 -144.5,380.6 -143.8,382.2 -143.5,383.1 -143.0,383.8 -142.0,384.7 -140.7,385.4 -138.9,386.1 -137.7,386.4 -135.1,387.1 -132.6,387.5 -128.4,388.1 -123.2,388.7 -116.5,389.3 -102.8,390.3 -96.5,390.7 -85.2,391.4 -83.5,391.4 -80.4,391.6 -74.2,391.9 -58.0,392.6 -54.7,392.8 -50.6,393.1 -46.2,393.5 -42.0,394.0 -37.1,394.8 -34.5,395.3 -32.6,395.9 -30.8,396.5 -25.2,398.7 -22.4,399.7 -20.5,400.3 -9.3,403.6 -7.4,404.0 -3.0,405.0 3.6,406.3 5.5,406.6 11.0,407.3 17.0,407.8 21.5,408.1 25.9,408.3 30.0,408.4 38.0,408.3 65.4,408.1 69.8,408.1 76.4,408.1 80.1,408.2 85.2,408.4 89.6,408.6 98.2,408.9 101.7,409.1 104.9,409.2 108.7,409.2 136.9,409.6 148.5,409.7 151.8,409.7 156.8,409.5 162.9,409.1 167.7,408.9 169.2,408.9 171.2,408.8 174.5,408.8 177.1,408.9 181.9,409.2 189.1,409.7 191.9,409.8 196.4,410.0 204.7,410.2 207.7,410.2 226.0,410.2 237.3,410.1 241.7,410.0 246.3,409.8 250.4,409.6 254.6,409.2 257.6,408.7 261.8,407.8 263.7,407.3 265.4,406.8 267.4,406.0 269.7,404.9 271.7,404.2 274.3,403.3 278.1,402.4 282.2,401.6 286.3,401.0 290.0,400.6 293.5,400.4 298.2,400.4 302.9,400.4 308.3,400.6 311.5,400.7 325.6,401.6 373.6,404.5 377.6,404.8 380.9,405.1 383.6,405.4 386.5,405.8 390.0,406.3 393.2,406.9 396.0,407.5 398.6,408.1 448.0,419.9 450.7,420.5 454.4,421.3 460.1,422.4 463.9,423.0 468.4,423.7 472.7,424.3 474.8,424.6 479.2,425.2 491.5,427.1 520.4,431.6 525.0,431.9 526.4,432.1 528.2,432.2 530.8,432.3 532.9,432.5 537.0,432.7 541.2,433.0 544.6,433.4 549.6,434.3 553.1,435.3 554.3,435.8 556.0,436.7 557.3,437.6 559.1,439.5 559.8,440.7 560.8,442.9 562.2,443.8 564.6,444.7 568.9,445.7 574.5,446.5 579.1,446.9 583.5,447.2 587.2,447.4 590.2,447.6 593.8,447.7 607.0,448.0 613.9,448.1 645.0,449.0 673.7,449.8 676.2,450.0 678.0,450.1 691.8,451.5 693.6,451.7 695.3,452.0 702.5,453.2 711.5,454.6 725.2,456.3 728.7,456.9 732.6,458.0 734.6,459.2 735.9,460.5 736.1,461.4 736.4,462.7 736.6,464.3 738.1,466.2 739.5,467.4 741.3,468.1 744.8,468.8 747.6,469.2 751.9,469.6 755.7,470.0 761.3,470.6 767.6,471.2 772.1,471.6 783.4,472.1 784.5,472.2"/>
    <polyline points="-180.3,528.3 -170.8,526.3 -160.4,524.2 -153.9,522.8 -152.3,522.2 -151.5,521.8 -150.9,521.1 -150.9,520.6 -150.9,517.6 -151.0,516.8 -151.0,516.6 -151.0,516.4 -150.9,516.1 -150.7,515.6 -150.6,515.4 -150.5,515.1 -150.1,514.8 -147.3,512.3 -143.4,508.4 -140.3,505.5 -139.8,504.9 -139.0,504.1 -138.7,503.5 -138.3,502.7 -138.0,502.0 -137.8,501.3 -136.0,491.9 -134.6,483.3 -134.5,481.1 -134.6,480.3 -135.1,479.3 -135.4,478.6 -135.9,478.0 -153.0,467.4 -153.9,466.7 -154.7,465.9 -154.9,465.2 -154.8,464.3 -154.4,463.6 -153.7,462.8 -152.2,462.2 -150.3,461.7 -146.6,460.9 -141.5,460.1 -137.5,459.6 -134.1,459.3 -129.9,459.1 -125.3,458.9 -122.0,458.9 -118.1,459.0 -107.6,459.6 -80.1,461.4 -77.3,461.5 -73.8,461.6 -72.0,461.6 -68.3,461.6 -64.2,461.4 -62.1,461.3 -57.8,461.1 -32.4,459.4 -29.3,459.1 -26.6,458.8 -24.0,458.5 -21.3,458.1 -18.9,457.7 -16.5,457.2 -12.8,456.2 -9.7,455.1 19.4,442.4 23.8,440.2 38.8,432.9 39.7,432.5 40.6,432.1 41.3,431.9 42.3,431.5 43.1,431.2 66.8,419.4 68.3,418.7 69.5,418.0 70.1,417.5 71.0,416.6 71.4,415.8 72.1,414.7 72.7,413.6 73.1,412.6 73.3,411.6 75.2,405.7 78.2,396.4 78.6,395.6 79.2,394.7 79.7,394.2 80.2,393.7 81.1,393.0 82.4,392.2 84.9,390.3 91.5,385.4 91.8,385.3 92.2,385.1 93.0,384.8 93.6,384.5 94.1,384.2 99.8,380.1 117.9,367.4 118.6,366.8 119.1,366.3 119.4,365.8 119.4,365.3 119.3,364.9 118.7,364.3 118.0,363.8 117.2,363.3 116.2,362.8 115.2,362.2 113.6,361.5 112.1,360.9 110.2,360.3 109.0,360.0 107.8,359.6 106.7,359.4 105.3,359.2 104.4,359.0 103.0,358.8 93.2,357.5 80.7,355.8 76.8,355.3 73.3,354.9 70.3,354.6 67.7,354.5 65.5,354.4 32.9,353.7 32.2,353.7 31.2,353.7 30.3,353.7 29.2,353.6 28.4,353.6 27.3,353.5 25.6,353.4 24.4,353.3 23.0,353.2 20.6,352.9 18.4,352.5 16.2,352.1 14.1,351.7 11.3,350.9 9.1,350.2 7.5,349.5 6.1,348.6 5.0,347.5 4.5,346.8 4.4,345.9 4.6,345.0 5.3,344.2 6.4,343.3 8.2,342.6 10.9,341.5 12.9,340.7 14.2,340.2 15.1,339.7 15.9,339.1 16.7,338.4 17.2,337.8 17.5,337.3 17.7,334.9 17.9,330.7 18.2,329.7 18.7,329.0 19.4,328.4 20.0,327.9 20.8,327.4 22.1,326.8 23.1,326.3 34.1,322.6 40.7,320.0 59.7,312.5 61.5,311.9 62.9,311.5 64.7,311.0 66.2,310.7 68.2,310.3 70.0,310.1 73.2,309.9 76.4,309.7 79.8,309.6 83.4,309.5 134.4,308.0 146.8,307.6 148.5,307.6 150.1,307.5 151.7,307.4 153.1,307.3 155.5,307.1 157.5,306.9 159.7,306.6 162.3,306.1 165.0,305.5 167.1,305.1 168.9,304.7 170.4,304.2 171.7,303.6 173.0,302.9 183.8,296.1 186.0,295.0 187.5,294.3 189.2,293.8 190.5,293.4 203.3,289.3 213.8,285.9 215.0,285.6 216.9,285.2 219.4,284.8 221.7,284.6 224.5,284.3 227.3,284.1 231.4,283.8 256.1,282.8 259.8,282.6 263.6,282.3 266.9,282.0 269.4,281.7 271.9,281.4 276.1,280.7 279.6,280.1 281.3,279.7 283.4,279.1 284.9,278.7 286.4,277.9 287.5,277.1 288.2,276.4 288.8,275.5 289.1,274.5 289.0,273.6 288.7,272.9 287.9,272.1 285.8,270.7 284.3,270.0 282.3,269.3 279.9,268.5 278.5,268.2 276.8,267.9 274.2,267.4 270.6,267.0 265.5,266.6 245.1,265.6 222.3,264.3 219.7,264.2 216.9,264.1 194.3,263.4 190.0,263.3 185.8,263.1 182.9,262.9 178.7,262.4 175.7,262.1 169.2,261.2 156.0,259.5 146.5,258.1 144.3,257.7 142.3,257.4 140.4,257.0 138.8,256.6 137.4,256.2 135.6,255.5 134.0,254.9 130.8,254.1 90.8,245.8 80.9,243.8 34.7,234.3 -1.5,227.0 -4.0,226.6 -7.6,226.0 -9.4,225.7 -11.8,225.5 -14.6,225.3 -17.1,225.1 -21.3,225.0 -25.9,225.0 -53.4,225.1 -63.2,225.1 -68.2,225.0 -73.4,224.8 -76.6,224.6 -79.6,224.4 -85.0,224.0 -90.0,223.5 -93.1,223.1 -97.0,222.5 -100.2,222.1 -110.4,220.1 -111.9,219.8 -113.7,219.5 -207.8,197.1 -209.8,196.7 -212.1,196.2 -216.0,195.5 -219.1,195.0 -221.8,194.6 -234.5,192.9 -238.9,192.4 -242.3,192.0 -273.0,189.1 -280.8,188.3 -287.5,187.8 -317.1,185.4 -320.9,185.1 -325.3,184.8 -343.9,183.7 -347.2,183.5 -349.2,183.3 -351.7,183.0 -353.8,182.7 -355.2,182.4 -356.6,182.0 -357.8,181.4 -358.3,180.9 -360.0,177.9 -360.9,176.8 -362.5,175.5 -364.0,174.6 -365.3,174.0 -366.4,173.6 -367.3,173.2 -371.9,172.0 -373.6,171.5 -374.9,171.0 -376.1,170.5 -385.0,163.9 -388.3,161.8 -389.9,161.0 -390.9,160.5 -393.0,159.8 -397.5,158.8 -402.5,158.0 -406.1,157.4 -423.6,154.4 -443.3,151.0 -470.7,146.2 -494.1,142.2 -496.0,141.8 -498.2,141.3 -499.6,141.0 -500.9,140.6 -502.0,140.1 -502.4,139.7 -502.8,139.3 -523.6,111.9 -533.8,98.8 -534.3,97.9 -534.6,97.2 -535.1,96.5 -535.3,95.7 -535.2,94.8 -534.9,94.1 -534.5,93.4 -528.4,83.4 -521.7,74.2 -521.2,73.4 -520.0,70.9 -519.6,69.6 -519.1,61.3 -519.2,60.2 -520.2,59.1 -521.0,58.3 -523.0,56.8 -533.4,51.5 -534.5,50.8 -535.0,49.9 -535.4,48.9 -535.2,48.3 -534.8,47.6 -534.3,47.0 -533.5,46.2 -529.3,43.6 -527.1,42.2 -503.2,28.6 -497.9,25.6"/>
    <polyline points="433.2,429.5 477.5,427.7 526.4,425.8 544.4,425.0 554.1,424.6 558.6,424.5 583.4,423.5 587.3,423.3 590.9,423.2 595.4,423.2 599.5,423.2 604.1,423.3 632.3,424.0 644.6,424.3 662.2,424.7 663.9,424.8 666.4,424.8 676.5,424.9 679.3,425.0 709.7,425.8 731.5,426.3 733.0,426.3 737.3,426.3 746.2,426.2 749.5,426.2 753.1,426.2 756.5,426.3 759.4,426.5 762.8,426.8 765.7,427.2 767.2,427.4 768.7,427.7 769.9,428.0 771.2,428.3 772.0,428.6 773.1,429.1 774.1,429.6 774.8,430.1 775.7,430.8 776.1,431.2 776.4,431.6 776.4,431.9 776.5,432.6 776.4,432.9 776.2,433.3 775.8,433.8 775.4,434.3 774.8,435.0 771.9,438.4 771.8,438.7 770.9,441.0 768.7,446.9 768.6,447.4 768.6,448.0 768.7,448.4 769.0,448.9 769.5,449.3 770.5,449.9 771.5,450.4 781.2,454.4 782.9,455.1 784.0,455.8 784.8,456.3 785.5,457.1 786.0,457.7 786.0,458.4 785.8,459.1 785.5,459.7 777.5,472.5 765.2,494.0 762.0,497.5 759.6,498.8 758.6,499.9 757.0,501.5 754.5,503.1 751.7,504.4 748.9,505.6 745.4,506.7 741.7,507.7 737.4,508.7 729.6,510.1 721.5,511.6 717.9,512.2 712.1,513.4 708.9,514.2 704.4,515.3 699.7,516.7 695.8,518.1 693.0,519.0 690.4,520.1 688.1,521.4 686.7,522.3 685.0,523.4 684.4,524.0 684.1,524.6 681.9,526.8 681.4,530.8 683.8,536.4 684.1,537.1 684.2,537.6 684.3,538.1 685.1,543.0 685.6,545.3 685.5,545.8 685.2,546.9 684.4,548.1 683.9,549.4 683.9,549.9 684.0,551.0 684.8,557.1 685.5,563.9 687.1,575.1 687.2,575.9 687.0,576.5 686.6,577.0 685.2,578.7 682.1,582.3 681.8,582.8 681.7,583.4 682.1,584.0 682.6,584.6 683.7,585.3 684.9,586.0 686.8,586.9 688.4,587.5 690.1,588.1"/>
    <polyline points="244.8,265.8 264.6,267.0 267.9,267.2 271.0,267.5 274.4,267.9 276.6,268.3 278.5,268.7 280.3,269.3 282.8,270.3 284.7,271.3 285.9,272.4 286.8,273.3 287.1,274.4 286.8,275.2 286.0,276.3 284.5,277.6 281.7,278.7 279.0,279.4 275.5,280.1 269.8,281.1 266.6,281.5 262.5,281.8 258.7,282.1 255.1,282.4 233.9,283.2 229.0,283.5 223.9,283.9 221.2,284.1 218.9,284.4 216.7,284.7 215.2,285.0 213.9,285.3 212.9,285.5 201.6,289.0 188.3,293.2 187.1,293.7 186.0,294.1 184.7,294.7 183.4,295.4 171.2,302.9 170.6,303.3 169.6,303.8 168.3,304.3 166.3,304.8 164.4,305.2 162.6,305.7 159.8,306.2 157.3,306.5 155.1,306.8 153.0,307.0 151.2,307.1 149.2,307.2 134.2,307.7 83.9,309.2 78.7,309.3 75.5,309.4 71.6,309.7 68.7,309.9 66.7,310.2 64.3,310.6 62.5,311.1 61.1,311.5 59.7,311.9 39.7,319.6 39.2,319.8 31.9,322.6 29.5,323.5 27.3,324.3 25.1,325.1 21.9,326.2 20.3,326.9 19.0,327.6 18.0,328.4 17.3,329.1 17.0,329.7 16.9,330.7 16.9,331.7 16.7,334.9 16.4,337.3 16.1,338.0 15.6,338.6 14.4,339.5 13.2,340.1 11.4,340.8 9.8,341.4 5.8,343.1 4.1,343.8 2.7,344.6 2.0,345.2 1.6,345.8 1.4,346.5 1.3,347.1 1.4,347.9 2.0,348.7 3.0,349.5 3.8,349.9 4.6,350.3 6.8,351.1 9.0,351.7 10.8,352.2 12.7,352.6 14.7,352.9 17.0,353.2 19.0,353.4 21.5,353.6 23.8,353.7 25.1,353.7 26.8,353.8 28.6,353.8 30.4,353.9 65.7,354.7 66.8,354.7 68.5,354.8 70.9,355.0 73.7,355.2 77.5,355.6 82.8,356.3 88.9,357.1 92.8,357.6 103.2,359.1 104.2,359.3 105.5,359.6 106.6,359.9 108.0,360.4 109.1,360.8 111.3,361.7 112.7,362.6 113.5,363.3 114.1,364.1 114.9,364.9 115.2,365.7 115.2,366.4 115.1,366.9 114.7,367.4 113.3,368.5 101.0,377.1 96.7,379.9 91.1,384.0 90.7,384.3 90.5,384.4 90.3,384.8 90.0,385.2 89.7,385.5 80.2,392.2 79.4,392.9 78.1,394.1 77.4,395.0 76.8,396.0 73.0,405.6 69.8,414.9 69.4,415.7 68.9,416.5 68.1,417.2 67.3,417.9 65.8,418.9 64.0,419.7 40.5,431.2 32.0,435.4 22.3,440.1 -11.5,454.9 -13.4,455.5 -15.1,456.1 -17.1,456.6 -18.8,457.0 -22.2,457.6 -24.4,458.0 -27.0,458.3 -30.5,458.7 -33.3,458.9 -58.4,460.6 -62.2,460.8 -65.9,461.0 -68.9,461.1 -71.8,461.1 -74.7,461.1 -78.8,461.0 -107.0,459.1 -113.6,458.7 -117.5,458.5 -121.6,458.4 -125.9,458.4 -130.1,458.6 -133.5,458.7 -137.0,459.0 -141.6,459.5 -143.9,459.9 -147.2,460.3 -150.8,461.0 -154.2,461.8 -155.7,462.4 -156.6,463.0 -157.4,464.0 -157.7,465.1 -157.6,465.6 -156.9,466.6 -155.9,467.3 -141.6,475.9 -139.6,477.0 -138.1,477.9 -137.2,478.8 -136.7,479.9 -136.5,481.0 -136.7,483.3 -139.5,499.8 -140.1,502.6 -140.7,503.6 -141.4,504.5 -142.1,505.3 -145.3,508.2 -149.6,512.3 -151.0,513.2 -152.2,514.2 -153.2,515.2 -154.2,516.3 -154.4,516.6 -154.8,517.2 -155.0,517.8 -155.4,518.9 -156.1,519.6 -157.3,520.5 -159.0,521.5 -160.9,522.4 -163.7,523.4 -167.1,524.6 -170.1,525.5 -174.0,526.4 -177.0,527.0 -181.4,528.0"/>
    <polyline points="-524.7,69.5 -524.5,71.3 -524.5,72.5 -524.7,73.4 -524.8,74.0 -527.9,80.3 -529.9,83.3 -536.0,93.2 -536.5,94.4 -536.6,95.6 -536.4,96.5 -536.0,97.5 -535.5,98.3 -524.8,111.9 -503.7,139.5 -503.0,140.0 -501.5,140.7 -500.1,141.2 -497.8,141.8 -493.7,142.6 -488.7,143.6 -471.4,146.5 -396.0,159.9 -393.3,160.5 -391.6,160.9 -389.9,161.6 -388.9,162.1 -388.1,162.5 -385.7,164.0 -379.3,168.9 -378.7,169.4 -377.5,170.1 -376.4,170.8 -374.6,171.6 -372.9,172.1 -369.1,173.0 -367.0,173.8 -365.2,174.5 -363.9,175.1 -363.0,175.9 -361.7,176.8 -360.3,178.8 -358.8,181.3 -358.3,181.6 -356.9,182.3 -355.7,182.6 -353.3,183.1 -350.3,183.5 -346.7,183.7 -343.0,184.0 -334.1,184.5 -329.0,184.8 -323.9,185.1 -287.8,187.9 -242.1,192.2 -225.9,194.3 -223.1,194.6 -217.5,195.5 -211.9,196.5 -115.6,219.3 -109.0,220.6 -100.4,222.3 -92.4,223.4 -86.0,224.1 -81.9,224.5 -77.8,224.8 -73.6,225.0 -68.2,225.2 -61.8,225.3 -53.5,225.3 -36.9,225.2 -28.1,225.2 -22.2,225.2 -16.8,225.3 -12.2,225.7 -8.2,226.1 1.6,227.9 9.5,229.4 34.2,234.5 55.4,238.8 80.1,243.9 129.8,254.3 133.1,255.1 134.3,255.5 135.4,256.0 137.1,256.6 139.2,257.2 141.5,257.7 145.2,258.3 152.7,259.4 168.3,261.5 181.3,263.1 184.0,263.3 186.1,263.4 188.7,263.6 192.2,263.7 195.3,263.8 198.7,263.9 203.7,264.0 210.2,264.1 212.4,264.2 216.9,264.3 219.5,264.5 222.1,264.6 244.8,265.8"/>
    <polyline points="162.6,172.6 154.4,174.2"/>
    <polyline points="604.9,109.9 602.9,110.1 600.1,110.4 597.8,110.5 593.9,110.7 590.7,110.8 588.6,110.8 585.9,110.7 568.1,110.3 564.3,110.2 560.9,110.1 557.4,110.1 554.9,110.2 553.0,110.3 550.5,110.4 548.1,110.6 545.9,110.8 543.5,111.1 518.5,114.5 497.7,117.4 465.1,121.7 450.1,123.7 427.3,126.6 424.8,127.0 398.4,131.0 388.2,132.5 381.4,133.6 358.3,138.1 327.0,143.4 309.0,146.4 301.3,147.8 298.7,148.2 295.7,148.7 264.9,153.9 242.7,157.6 227.2,160.3 202.2,164.5 189.3,166.9 162.6,172.6"/>
    <polyline points="650.3,105.9 647.0,105.8 644.2,105.7 641.6,105.7 637.9,105.8 634.8,105.9 632.0,106.0 629.9,106.2 628.2,106.4 626.3,106.7 624.9,106.9 619.2,107.9 615.8,108.5 612.7,108.9 609.8,109.3 607.7,109.6 604.9,109.9"/>
    <polyline points="735.7,191.9 735.0,187.6 735.3,187.0 735.9,186.4 736.9,185.8 739.0,184.7 742.1,183.8 744.0,183.2 746.8,182.6 749.9,182.0 751.9,181.7 755.0,181.3 758.4,181.0 762.2,180.7 766.0,180.6 770.6,180.6 800.5,180.8 818.1,180.8 822.8,180.8 826.6,180.7 830.4,180.4 836.6,179.6 841.0,179.0 845.9,178.0 848.9,177.1 852.4,175.9 854.6,174.9 856.3,174.0 856.9,173.3 857.4,172.5 857.5,172.3 857.5,171.8 857.2,170.7 856.3,169.9 855.0,169.0 853.1,168.0 851.8,167.5 849.8,166.7 845.6,165.6 838.2,164.2 826.7,162.0 811.5,159.1 752.1,147.6 747.5,146.6 744.4,145.7 741.0,144.5 737.5,142.8 735.6,141.6 731.5,139.3 729.6,137.9 728.6,136.8 727.5,135.1 727.3,134.4 727.2,132.4 727.2,124.8 727.2,124.5 727.1,122.2 727.0,121.2 726.6,120.4 725.9,119.5 724.6,118.2 717.7,112.4 716.7,111.9 716.1,111.6 714.9,111.0 713.5,110.4 711.7,109.8 709.6,109.2 707.0,108.7 704.7,108.3 702.0,107.9 698.4,107.6 695.2,107.3 691.8,107.2 672.2,106.5 650.3,105.9"/>
    <polyline points="697.9,194.7 710.3,199.3 713.6,200.9 714.7,201.4 721.2,204.7 723.0,205.8 723.8,206.5 724.1,207.3 724.1,209.0 723.4,210.5 722.4,211.9 721.7,213.1 720.2,215.3 720.0,216.1 719.8,216.8 720.0,217.6 720.5,218.6 721.5,219.4 722.7,220.4 724.5,221.4 726.6,222.2 729.6,223.1 732.7,223.8 737.5,224.6 741.2,225.0 746.2,225.5 751.0,225.8 755.2,226.1 760.8,226.3 809.1,226.9 816.4,227.0 824.7,227.3 832.6,227.9 844.2,229.0 854.0,230.6 863.6,232.4 873.1,234.6 878.3,235.9 882.7,237.2 889.2,239.7 893.9,242.1 907.0,248.9 910.4,250.1 915.4,251.5 921.9,252.8 930.5,253.9 937.7,254.5 946.2,255.2 958.3,255.7 990.5,257.0 1040.7,259.2 1046.9,259.6 1055.7,260.6 1063.2,261.9 1068.7,263.2 1073.4,264.8 1076.8,266.3 1079.8,268.0 1083.0,270.3 1084.2,271.8 1084.4,274.0 1082.9,276.3 1062.4,294.8 1056.0,299.7 1053.5,301.8 1052.3,303.9 1052.3,305.9 1053.6,307.8 1055.9,309.3 1058.9,310.6 1065.1,312.6 1109.3,327.2 1117.2,329.4 1121.9,330.2 1127.5,331.0 1137.5,331.8 1146.8,332.0 1158.6,331.8 1170.9,330.9 1183.1,329.6 1195.7,328.0 1205.6,326.1 1213.9,323.8 1234.2,315.9 1240.7,314.0 1243.2,313.4 1250.0,311.8 1256.3,310.7 1264.2,309.6 1273.6,308.7 1283.3,307.8 1293.7,307.2 1305.7,306.5 1313.2,306.3 1321.6,306.3 1331.5,306.4 1340.3,306.6 1358.2,307.5 1363.7,307.9 1376.4,309.3 1384.2,310.2 1398.0,312.3 1435.7,319.0 1481.0,326.9 1485.2,327.9 1489.7,329.4 1492.3,330.6 1494.1,332.1 1494.4,333.6 1494.2,335.1 1492.6,337.0 1489.9,338.7 1487.3,340.0 1480.9,342.6 1474.5,344.5 1464.7,347.4 1457.3,349.3 1451.8,350.4 1441.3,351.9 1418.4,354.6 1413.5,355.9 1408.7,357.4 1404.1,359.0 1397.3,362.9 1393.1,371.3 1390.5,376.6 1390.0,377.6 1388.2,378.7 1386.1,379.9 1380.7,382.6 1379.1,383.6 1377.4,385.1 1375.6,386.8 1364.8,402.9 1349.5,415.2 1347.2,416.9 1344.3,418.6 1342.4,419.8 1341.1,421.3 1341.0,422.4 1341.5,423.7 1342.7,424.8 1370.4,441.0 1378.4,446.7 1386.4,451.7 1390.9,454.3 1393.7,456.8 1394.6,458.3 1394.4,468.0 1393.1,475.3 1392.8,476.9 1393.0,479.0 1392.8,488.3 1393.8,493.9 1393.8,498.0"/>
    <polyline points="716.7,189.4 687.8,191.2 687.4,191.3 657.5,193.2 643.9,194.1 633.9,194.7 630.8,194.8 629.5,194.9 627.1,194.9 624.8,194.9 622.5,194.8 619.5,194.7 616.3,194.5 613.7,194.2 610.6,193.8 607.9,193.5 584.9,189.1 583.2,188.8 579.8,188.4 577.0,188.1 573.6,187.9 570.4,187.7 561.6,187.7 557.8,187.7 551.8,188.0 528.7,189.0 495.5,190.4 451.0,192.4 426.4,193.5 413.6,194.3 408.9,194.6 402.1,195.2 334.9,203.5 318.3,205.5 305.3,207.3 277.5,211.6 271.8,212.4 269.1,212.9 264.7,213.9 261.6,214.9 258.2,216.1 256.2,217.1 255.1,218.2 254.7,219.3 254.9,220.3 256.2,222.3 258.2,224.3 268.5,232.1 270.5,234.0 270.8,234.8 270.8,235.5 269.2,237.2 267.4,238.6 265.9,239.4 264.3,240.1 262.5,240.5 258.5,241.2 253.9,241.8 243.1,243.2 237.8,243.9 232.7,244.7 227.2,245.6 222.2,246.6 216.3,248.0 207.9,250.2 193.3,254.8 184.1,257.5 172.8,260.7 172.4,260.8 161.5,263.9 150.1,267.4 141.4,270.0 132.2,272.6 124.3,275.0 119.0,276.4 113.3,278.2 103.3,281.3 93.1,284.5 83.4,287.3 73.5,290.4 62.5,293.6 52.2,296.9 34.8,302.1 27.4,304.3 19.7,306.5 10.3,309.2 6.3,310.6 0.3,312.9 -0.8,313.6 -3.2,314.8 -7.5,316.8 -10.5,318.5 -12.1,319.3 -16.6,321.9 -19.6,323.4 -25.2,326.5 -32.1,329.7 -41.5,334.6 -46.0,336.9 -46.0,336.9 -46.1,336.9 -46.2,337.0 -46.3,337.1 -46.4,337.2 -46.6,337.4 -46.8,337.7 -47.0,337.9 -47.7,338.5 -48.7,339.5 -49.0,339.8 -49.5,340.1 -49.9,340.3 -50.2,340.4 -51.3,340.7"/>
    <polyline points="-86.8,359.7 -86.8,359.4 -86.7,359.2 -86.5,358.9 -86.1,358.7 -75.3,353.2 -59.2,345.2 -53.8,342.3 -52.9,341.9 -52.3,341.6 -49.8,340.5 -49.1,340.1 -48.7,339.9 -48.3,339.7 -48.1,339.4 -47.8,339.0 -47.1,338.2 -46.6,337.5 -46.3,337.2 -46.2,337.1 -46.1,337.0 -46.0,336.9 -45.8,336.8 -41.4,334.6 -36.3,332.0 -31.9,329.7 -24.7,326.5 -19.2,323.4 -16.3,321.9 -11.8,319.4 -10.1,318.5 -6.8,316.8 -2.7,314.8 -0.3,313.6 0.8,312.9 6.7,310.6 10.9,309.2 27.6,304.3 35.2,302.1 52.5,297.0 63.3,293.7 84.1,287.4 93.5,284.6 103.9,281.4 114.0,278.3 119.4,276.5 124.6,275.0 132.6,272.7 141.8,270.0 150.6,267.4 162.1,264.0 173.1,260.9 184.5,257.6 193.8,254.9 208.6,250.3 216.9,248.1 222.5,246.6 227.5,245.6 233.0,244.8 238.1,244.0 243.4,243.3 254.1,241.9 258.8,241.3 262.9,240.6 264.7,240.1 266.4,239.5 267.9,238.7 269.8,237.3 271.3,235.5 271.4,234.8 271.0,234.0 269.1,232.0 258.6,224.2 256.5,222.3 255.2,220.3 255.1,219.3 255.5,218.2 256.5,217.1 258.5,216.1 261.8,214.9 264.9,213.9 269.3,212.9 271.9,212.5 277.6,211.6 305.8,207.5 319.0,205.7 335.2,203.6 402.2,195.3 409.0,194.7 413.7,194.3 426.5,193.6 451.1,192.5 495.6,190.7 528.9,189.2 551.8,188.1 557.9,187.9 561.5,187.8 570.6,187.9 574.0,188.1 577.1,188.3 580.1,188.7 583.7,189.2 606.0,193.4 607.6,193.7 609.4,194.0 611.0,194.2 613.1,194.4 615.3,194.6 620.0,194.9 622.5,195.0 625.8,195.1 628.3,195.1 631.3,195.0 634.6,194.8 644.1,194.2 658.1,193.3 687.4,191.5 717.0,189.5"/>
    <polyline points="653.6,106.4 657.4,106.4 672.0,106.9 685.3,107.3 690.6,107.5 693.9,107.6 696.0,107.7 698.1,107.9 700.4,108.2 703.6,108.6 706.6,109.2 709.0,109.8 711.7,110.5 714.6,111.8 716.1,112.8 722.5,118.2 723.4,119.1 724.7,120.7 725.3,121.9 725.6,124.5 725.7,124.8 726.0,130.8 725.8,132.4 726.0,134.3 726.2,135.7 726.7,136.4 728.1,138.2 729.0,139.0 731.2,140.4 734.2,142.0 737.4,143.7 740.1,144.8 742.4,145.7 745.7,146.6 749.7,147.5 810.8,159.2 826.0,162.2 836.3,164.3 842.3,165.7 845.5,166.7 847.7,167.5 849.1,168.2 850.3,168.9 850.9,169.7 851.4,170.6 851.6,171.4 851.5,172.3 851.1,173.5 849.9,174.7 848.8,175.5 846.2,176.5 843.2,177.4 839.2,178.2 836.0,178.7 832.0,179.3 828.6,179.7 825.4,180.0 820.9,180.3 818.6,180.4 815.3,180.4 800.9,180.3 770.7,180.2 766.4,180.2 762.7,180.3 758.2,180.5 754.6,180.8 751.5,181.1 748.9,181.4 745.3,182.1 743.0,182.6 740.9,183.2 739.1,183.8 737.3,184.5 735.8,185.2 734.9,185.8 734.3,186.5 734.0,187.1 734.0,187.6 734.8,191.9"/>
    <polyline points="624.2,108.4 631.3,107.6 636.0,107.1 640.3,106.8 644.4,106.6 648.0,106.5 649.9,106.4 653.6,106.4"/>
    <polyline points="162.9,172.7 189.5,167.0 202.3,164.6 227.8,160.4 243.0,157.7 265.5,154.0 299.1,148.3 302.2,147.7 327.3,143.5 358.6,138.3 381.8,133.7 388.6,132.6 425.0,127.1 427.7,126.7 450.4,123.7 465.5,121.8 519.3,114.7 544.5,111.4 547.1,111.1 548.6,110.9 550.5,110.8 552.7,110.6 555.8,110.5 558.9,110.5 561.8,110.5 565.4,110.5 585.1,111.1 589.2,111.1 592.1,111.1 596.8,111.0 601.4,110.8 605.3,110.5 610.5,110.0 619.5,108.9 624.2,108.4"/>
    <polyline points="-403.0,433.8 -402.4,433.1 -401.7,432.6 -401.0,432.1 -400.0,431.7 -398.9,431.2 -387.7,426.8 -378.7,423.0 -370.5,419.0 -364.3,415.7 -362.4,414.6 -361.4,413.3 -360.9,412.3 -355.1,403.0 -353.8,401.8 -352.3,400.9 -350.9,400.0 -350.0,399.1 -349.9,398.1 -349.9,397.2 -350.5,396.3 -351.2,395.6 -354.2,393.0 -360.1,388.5 -362.0,386.2 -362.1,384.4 -361.0,383.0 -359.6,382.1 -355.9,380.2 -352.6,377.7 -347.4,369.1 -346.5,360.4 -346.3,357.8 -347.7,344.4 -348.2,340.7 -347.8,339.4 -347.1,337.5 -346.4,335.5 -346.0,334.6 -345.4,333.8 -344.9,333.4 -343.2,332.6 -340.5,330.9 -334.3,327.3 -319.9,318.4 -315.4,315.3 -312.9,313.6 -310.5,311.7 -292.7,301.3 -284.7,297.2 -279.1,294.5 -268.0,289.9 -254.1,284.6 -248.7,283.0 -239.4,280.0 -234.1,278.4 -202.7,269.3 -187.1,264.7 -174.5,261.0 -155.7,255.2 -144.0,251.4 -140.9,250.4 -126.8,246.0 -86.8,233.1 -84.9,232.5 -69.7,228.5 -63.5,226.9 -40.2,220.7 -33.0,218.9 -7.2,212.2 12.4,207.2 42.6,199.4 73.1,191.6 83.9,189.2 90.3,187.9 103.9,185.0 108.5,184.1 127.2,180.2 151.3,175.0 154.7,174.3"/>
    <polyline points="154.7,174.3 162.9,172.7"/>
    <polyline points="5.6,371.1 15.1,371.9 26.5,372.8 33.8,373.3 63.2,375.7 72.0,376.4 99.4,378.5 120.5,380.2 133.6,381.3 138.2,381.6 143.7,381.9 152.1,382.5 160.1,383.1 163.3,383.3 167.6,383.7 171.1,384.1 173.7,384.5 177.1,385.1 192.7,388.1 217.2,392.9 230.7,396.1 235.3,397.2 238.1,397.9 240.6,398.7 241.7,399.3 242.2,399.9 242.7,400.6 242.9,401.3 242.7,402.1 241.9,403.2 240.4,404.4 239.3,405.6 238.9,406.6 238.8,407.3 238.9,408.0 239.2,408.7 240.0,409.4 241.3,410.0 242.3,410.4 247.8,412.0 258.8,415.3 262.1,416.1 265.2,416.8 268.6,417.5 270.9,417.9 325.2,427.5 328.4,428.0 330.2,428.3 332.1,428.5 335.2,428.8 338.0,428.9 339.8,429.0 350.3,429.1 425.2,429.6 427.4,429.6 430.2,429.6 433.2,429.5"/>
    <polyline points="1394.7,498.0 1394.7,491.9 1395.0,475.2 1395.1,472.3 1395.6,458.2 1394.6,456.5 1391.0,453.7 1371.1,440.8 1347.5,426.8 1343.9,424.6 1342.7,423.2 1342.4,422.3 1342.4,421.4 1343.7,420.1 1351.3,415.1 1366.2,402.4 1377.5,386.4 1391.4,377.6 1393.2,374.3 1398.9,363.1 1412.6,357.2 1420.6,354.9 1451.9,350.9 1458.7,349.6 1468.2,346.7 1475.3,344.7 1481.8,342.8 1490.5,339.3 1494.4,336.7 1495.9,334.7 1495.7,332.2 1492.9,330.0 1487.2,328.0 1479.4,326.3 1399.2,312.2 1384.1,309.8 1367.3,307.9 1345.6,306.5 1331.2,306.1 1314.5,306.0 1302.0,306.4 1282.8,307.6 1263.4,309.4 1254.6,310.5 1244.9,312.4 1237.1,314.5 1230.5,316.8 1213.0,323.5 1204.8,325.8 1195.3,327.7 1170.0,330.6 1157.4,331.6 1147.5,331.7 1137.2,331.5 1127.3,330.6 1119.0,329.3 1114.2,328.2 1066.3,312.5 1058.6,309.8 1055.3,308.0 1053.4,306.1 1053.4,304.2 1055.2,301.9 1068.1,291.6 1084.9,276.3 1086.2,273.7 1085.8,271.5 1083.6,269.1 1076.5,265.3 1073.7,264.2 1070.3,263.1 1066.7,262.1 1062.3,261.3 1058.6,260.7 1054.1,260.0 1047.6,259.3 1041.4,259.0 1029.5,258.4 1001.0,257.2 990.8,256.8 953.3,255.2 944.4,254.7 937.5,254.2 930.4,253.6 922.1,252.4 918.9,251.9 916.3,251.3 914.4,250.9 910.4,249.7 907.8,248.7 906.7,248.1 889.6,239.5 887.7,238.6 885.9,237.8 883.2,236.8 880.6,236.1 876.8,235.1 872.2,233.9 865.4,232.3 858.2,230.9 852.3,229.9 846.1,229.0 841.2,228.4 835.9,227.8 831.4,227.4 825.6,227.1 818.2,226.8 808.1,226.4 766.5,225.7 760.5,225.5 754.8,225.1 749.3,224.7 744.5,224.2 739.4,223.4 735.5,222.8 732.3,222.0 729.8,221.1 726.9,219.9 725.0,218.5 724.0,217.6 723.5,216.7 723.2,215.7 723.4,214.4 724.0,213.2 724.6,212.2 726.3,210.1 726.7,209.1 726.8,207.5 726.4,206.8 725.3,205.6 723.4,204.6 720.2,202.9 714.8,200.4 713.0,199.8 711.4,199.1 699.2,194.5"/>
    <polyline points="717.0,189.5 724.9,189.0 750.1,187.4 751.7,187.3 753.9,187.3 756.1,187.3 758.6,187.5 760.6,187.6 762.7,187.9 764.3,188.2 765.6,188.6 767.2,189.1 768.4,189.6 769.1,190.0 769.6,190.5 770.0,191.1 770.2,191.5 770.3,192.0 770.4,192.6 770.1,194.4 770.1,194.6 770.2,194.9 770.3,195.1 770.6,195.4 771.0,195.7 771.7,196.0 772.2,196.3"/>
    <polyline points="784.8,471.7 772.5,471.1 768.0,470.8 761.8,470.2 760.5,470.1 748.5,468.7 743.0,467.8 741.5,467.3 740.1,466.2 738.3,464.2 737.7,460.4 736.5,459.1 733.3,457.7 730.4,456.6 725.9,455.8 692.0,450.8 686.3,450.2 682.2,449.9 678.1,449.6 673.5,449.4 664.0,449.1 652.2,448.8 633.7,448.3 614.1,447.8 607.4,447.6 594.1,447.3 591.0,447.2 587.7,447.2 584.0,447.0 579.5,446.7 575.0,446.2 569.3,445.5 565.6,444.6 563.3,443.8 561.9,442.9 561.1,440.7 560.1,439.4 558.3,437.5 557.0,436.6 555.4,435.7 554.2,435.2 550.3,434.0 546.0,433.2 541.5,432.7 521.7,431.4 492.2,426.8 487.6,426.1 483.4,425.5 481.6,425.2 474.4,424.3 471.2,423.8 468.1,423.3 463.8,422.7 459.7,421.9 455.0,420.9 449.6,419.5 401.2,408.0 397.3,407.1 394.4,406.5 390.9,405.8 387.2,405.3 382.8,404.7 378.0,404.3 374.9,404.1 325.9,401.1 312.2,400.2 305.3,400.0 302.7,399.9 298.1,399.8 293.6,399.8 290.5,399.9 286.0,400.3 283.4,400.6 280.2,401.1 276.3,401.8 273.7,402.6 270.2,403.7 263.8,406.3 261.3,407.0 258.5,407.7 256.2,408.2 253.4,408.7 250.9,409.0 247.4,409.3 244.0,409.5 234.9,409.6 225.9,409.7 209.9,409.7 206.8,409.7 202.1,409.7 195.1,409.5 192.4,409.3 180.6,408.6 177.2,408.4 174.1,408.4 171.0,408.4 167.9,408.4 163.8,408.6 159.5,408.8 155.0,409.1 152.2,409.2 148.7,409.3 145.4,409.3 131.9,409.1 109.3,408.8 104.6,408.7 102.4,408.6 97.4,408.4 85.9,407.9 80.1,407.7 76.5,407.7 69.6,407.7 30.7,407.8 28.0,407.8 25.0,407.7 22.4,407.7 20.1,407.5 16.2,407.2 9.3,406.4 5.3,405.8 2.5,405.4 0.3,405.0 -3.0,404.3 -6.4,403.5 -15.7,400.8 -18.3,400.0 -20.5,399.2 -24.8,397.5 -27.5,396.5 -29.1,395.9 -31.4,395.2 -34.1,394.6 -38.9,393.7 -42.6,393.2 -45.4,393.0 -49.1,392.6 -58.5,391.9 -63.2,391.7 -90.8,390.4 -96.3,390.0 -117.5,388.6 -121.2,388.2 -125.0,387.7 -127.7,387.3 -130.7,386.8 -132.8,386.4 -135.3,385.8 -137.0,385.2 -138.4,384.6 -140.2,383.7 -140.8,383.2 -141.3,382.7 -141.6,382.4 -142.6,379.6 -143.4,378.8 -144.2,378.2 -145.3,377.6 -146.6,377.1 -148.5,376.6 -150.2,376.2 -158.2,374.7 -168.0,372.6 -197.6,366.5 -199.7,366.0 -201.0,365.7 -202.4,365.4 -204.3,365.0 -206.1,364.7 -209.5,364.3 -212.6,364.0 -214.8,363.9 -218.0,363.7 -221.3,363.6 -259.8,362.6 -261.8,362.6 -264.8,362.6 -269.0,362.7 -312.5,363.7 -323.7,364.1 -330.9,364.9 -335.8,365.9 -342.8,368.4 -347.1,370.2 -348.3,371.3 -350.2,374.4 -352.4,377.9 -354.1,380.2 -356.5,381.7 -360.5,383.0 -362.9,383.7 -371.2,385.2 -389.3,387.9 -401.0,389.4 -404.4,390.1 -407.4,390.9 -409.6,391.8 -412.1,393.0 -415.4,395.2 -417.9,397.3 -425.4,403.5 -427.6,404.7 -431.0,405.9 -453.7,412.5 -455.8,413.2 -458.5,414.3 -459.9,415.3 -463.0,418.2 -466.2,420.9"/>
    <polyline points="699.2,194.5 691.6,191.7"/>
    <polyline points="690.4,191.9 697.9,194.7"/>
    <polyline points="728.1,120.7 732.8,117.0 735.0,115.4 735.6,114.9 737.0,113.9 737.5,113.5 739.1,112.3 742.3,109.9 742.8,109.6 743.8,108.8 744.8,108.3 745.1,108.2 758.9,101.9"/>
    <polyline points="728.5,120.7 735.5,115.4 736.1,115.0 737.4,114.0 738.0,113.5 738.3,113.3 739.4,112.4 740.1,111.9 740.9,111.3 741.8,110.6 742.7,109.9 744.1,109.0 745.6,108.3 759.6,102.0"/>
    <polyline points="727.8,120.1 732.0,116.9 733.2,116.3 734.2,115.7 734.7,115.3 734.9,115.1 736.1,114.2 736.8,113.7 737.9,112.8 738.3,112.3 738.4,111.8 738.1,111.2 737.8,110.9 737.3,110.2 736.3,108.5"/>
    <polyline points="728.1,120.7 727.2,121.4 726.3,122.2 726.0,122.8 725.7,123.7 725.6,124.5"/>
    <polyline points="727.2,124.5 726.4,123.1 726.8,122.2 728.5,120.7"/>
    <polyline points="738.3,113.3 739.1,112.9 740.0,112.4 742.8,111.0 744.1,110.5 746.3,109.9 748.0,109.4"/>
    <polyline points="736.0,119.5 746.9,111.3 748.7,110.2 751.1,108.9 755.3,106.9 768.7,100.8"/>
    <polyline points="740.1,111.9 742.0,111.0 744.3,110.2 745.7,109.8 746.1,109.7 749.3,108.9 751.0,108.4 753.1,107.7 755.3,106.9"/>
    <polyline points="737.4,114.0 736.5,114.4 735.6,114.9"/>
    <polyline points="737.0,113.9 736.5,114.4 736.1,115.0"/>
    <polyline points="758.5,101.9 744.6,108.1 744.4,108.2 743.5,108.7 743.0,109.1 742.8,109.3 742.3,109.9"/>
    <polyline points="740.9,111.3 742.0,110.8 743.6,110.1 745.3,109.7 747.2,109.1 747.8,108.9 748.4,108.6 762.5,102.3"/>
    <polyline points="762.8,102.4 748.8,108.7 747.7,109.1 746.8,109.4 745.7,109.8"/>
    <polyline points="761.4,102.2 747.4,108.5 745.7,109.4 744.7,109.7 744.5,109.8 743.6,110.1"/>
    <polyline points="761.8,102.3 747.9,108.6 746.7,109.1 745.8,109.4 744.7,109.7"/>
    <polyline points="760.3,102.1 746.4,108.4 744.3,109.3 743.5,109.7 743.1,109.9 742.8,110.1 741.8,110.6"/>
    <polyline points="759.9,102.0 746.0,108.3 744.5,109.0 743.9,109.3 743.4,109.6 742.8,110.1"/>
    <polyline points="761.0,102.2 747.0,108.4 746.1,108.8 745.5,109.1 744.9,109.3 744.2,109.6 743.1,109.9"/>
    <polyline points="725.6,107.6 733.2,111.3 734.6,112.0 735.5,112.5 735.9,113.2 735.8,113.8 735.1,114.8 734.9,115.1"/>
    <polyline points="735.0,115.4 733.2,116.3"/>
    <polyline points="739.4,112.4 739.1,112.9 738.8,113.4 738.3,113.9 737.7,114.4 734.2,117.0 729.3,120.6"/>
    <polyline points="735.5,115.4 735.2,115.8 734.8,116.4 734.2,117.0"/>
    <polyline points="740.0,112.4 739.6,112.7 739.1,113.1 738.8,113.4"/>
    <polyline points="737.9,112.8 737.5,113.5"/>
    <polyline points="735.8,108.5 736.9,110.2 737.2,110.6 738.1,111.2"/>
    <polyline points="724.7,108.2 733.1,112.3 733.4,112.5 734.2,112.9 734.9,113.4 735.2,113.9 735.2,114.2 735.1,114.8"/>
    <polyline points="739.4,103.6 732.2,106.9 731.4,107.2 730.8,107.6 730.3,108.0 730.1,108.5 730.2,108.8 730.4,109.1 730.9,109.6 732.4,110.4 733.2,110.7 734.1,111.2 735.6,111.9 736.1,112.3 736.6,112.8 736.7,113.2 736.6,113.7 736.1,114.2"/>
    <polyline points="743.2,104.0 735.8,107.3 734.5,108.0 734.0,108.3 733.6,108.6 733.5,108.9 733.4,109.3 733.6,109.9 733.7,110.3 734.4,111.0 735.6,111.9"/>
    <polyline points="732.4,110.4 731.3,109.6 730.9,109.1 730.7,108.6 731.0,108.0 731.7,107.5 732.9,106.9 740.2,103.6"/>
    <polyline points="734.1,111.2 732.5,110.0 731.7,109.4 731.5,109.1 731.3,108.7 731.5,108.2 732.0,107.7 732.8,107.3 733.4,107.0 740.7,103.7"/>
    <polyline points="734.4,111.0 733.1,110.1 732.3,109.6 731.9,109.1 731.8,108.8 732.0,108.4 732.4,107.9 733.0,107.5 733.9,107.1 741.1,103.8"/>
    <polyline points="733.1,110.1 732.5,109.2 732.4,108.9 732.5,108.5 732.9,108.1 733.4,107.7 734.0,107.4 734.6,107.1 741.8,103.9"/>
    <polyline points="733.7,110.3 732.9,109.3 733.0,108.9 733.4,108.4 734.1,107.9 735.4,107.2 742.5,103.9"/>
    <polyline points="733.4,112.5 731.7,111.9 730.4,111.5 728.8,111.1 728.1,110.8 727.6,110.5 725.3,109.4"/>
    <polyline points="731.7,111.9 729.3,111.0 728.2,110.5 725.9,109.4"/>
  </g>

  <!-- 지하철 역 -->
  <g>
    <circle cx="119.2" cy="276.4" r="3" fill="#dc2626" stroke="#fff" stroke-width="1"/>
    <circle cx="62.9" cy="293.7" r="3" fill="#dc2626" stroke="#fff" stroke-width="1"/>
    <circle cx="172.0" cy="260.8" r="3" fill="#dc2626" stroke="#fff" stroke-width="1"/>
    <circle cx="258.4" cy="224.3" r="3" fill="#dc2626" stroke="#fff" stroke-width="1"/>
    <circle cx="408.9" cy="194.6" r="3" fill="#dc2626" stroke="#fff" stroke-width="1"/>
    <circle cx="644.0" cy="194.1" r="3" fill="#dc2626" stroke="#fff" stroke-width="1"/>
    <circle cx="551.8" cy="188.0" r="3" fill="#dc2626" stroke="#fff" stroke-width="1"/>
    <circle cx="318.6" cy="205.6" r="3" fill="#dc2626" stroke="#fff" stroke-width="1"/>
    <circle cx="489.9" cy="427.3" r="3" fill="#dc2626" stroke="#fff" stroke-width="1"/>
    <circle cx="350.4" cy="429.3" r="3" fill="#dc2626" stroke="#fff" stroke-width="1"/>
    <circle cx="239.8" cy="410.3" r="3" fill="#dc2626" stroke="#fff" stroke-width="1"/>
    <circle cx="238.0" cy="244.0" r="3" fill="#dc2626" stroke="#fff" stroke-width="1"/>
    <circle cx="100.1" cy="378.7" r="3" fill="#dc2626" stroke="#fff" stroke-width="1"/>
    <circle cx="680.3" cy="530.9" r="3" fill="#dc2626" stroke="#fff" stroke-width="1"/>
    <circle cx="709.6" cy="425.9" r="3" fill="#dc2626" stroke="#fff" stroke-width="1"/>
    <circle cx="632.3" cy="424.0" r="3" fill="#dc2626" stroke="#fff" stroke-width="1"/>
    <circle cx="544.5" cy="425.1" r="3" fill="#dc2626" stroke="#fff" stroke-width="1"/>
    <circle cx="203.4" cy="289.2" r="3" fill="#dc2626" stroke="#fff" stroke-width="1"/>
    <circle cx="93.0" cy="357.5" r="3" fill="#dc2626" stroke="#fff" stroke-width="1"/>
    <circle cx="134.8" cy="307.7" r="3" fill="#dc2626" stroke="#fff" stroke-width="1"/>
    <circle cx="672.1" cy="106.7" r="3" fill="#dc2626" stroke="#fff" stroke-width="1"/>
    <circle cx="735.4" cy="191.7" r="3" fill="#dc2626" stroke="#fff" stroke-width="1"/>
    <circle cx="726.5" cy="132.4" r="3" fill="#dc2626" stroke="#fff" stroke-width="1"/>
    <circle cx="298.9" cy="148.2" r="3" fill="#dc2626" stroke="#fff" stroke-width="1"/>
    <circle cx="388.4" cy="132.6" r="3" fill="#dc2626" stroke="#fff" stroke-width="1"/>
    <circle cx="202.3" cy="164.5" r="3" fill="#dc2626" stroke="#fff" stroke-width="1"/>
    <circle cx="519.1" cy="114.5" r="3" fill="#dc2626" stroke="#fff" stroke-width="1"/>
    <circle cx="90.1" cy="187.8" r="3" fill="#dc2626" stroke="#fff" stroke-width="1"/>
    <circle cx="716.7" cy="189.4" r="3" fill="#dc2626" stroke="#fff" stroke-width="1"/>
    <circle cx="73.9" cy="405.7" r="3" fill="#dc2626" stroke="#fff" stroke-width="1"/>
    <circle cx="80.6" cy="243.9" r="3" fill="#dc2626" stroke="#fff" stroke-width="1"/>
    <circle cx="245.0" cy="265.7" r="3" fill="#dc2626" stroke="#fff" stroke-width="1"/>
    <circle cx="698.5" cy="194.6" r="3" fill="#dc2626" stroke="#fff" stroke-width="1"/>
    <circle cx="325.7" cy="401.4" r="3" fill="#dc2626" stroke="#fff" stroke-width="1"/>
    <circle cx="614.0" cy="448.0" r="3" fill="#dc2626" stroke="#fff" stroke-width="1"/>
  </g>
</svg>