<?xml version="1.0" encoding="UTF-8"?>
<svg width="800" height="600" xmlns="http://www.w3.org/2000/svg">
  <title>Xi An Subway Map</title>
  <rect width="100%" height="100%" fill="#f8f9fa"/>

  <!-- 지하철 선로 -->
  <g stroke="#2563eb" stroke-width="2" fill="none" opacity="0.8">
    <polyline points="362.1,-391.7 365.1,-383.7 370.5,-369.5 395.2,-326.0 398.0,-320.2 413.9,-292.4 414.1,-291.9 414.2,-291.4 414.5,-290.2 414.6,-289.1 414.7,-287.8 414.7,-286.7 414.7,-285.8 414.5,-285.0 411.6,-273.8 411.1,-271.4 410.7,-269.2 410.1,-266.4 409.3,-262.5 408.7,-255.2 408.7,-248.1 408.7,-218.1 408.7,-215.2 408.7,-213.2 408.7,-211.0 408.6,-203.6 408.7,-195.8 408.7,-189.1 408.6,-174.6 408.7,-157.9 408.6,-156.0 408.7,-154.0 408.5,-139.4 408.5,-117.4 408.6,-103.2 408.7,-97.3 408.7,-96.8 408.7,-95.0 408.6,-29.3 408.7,37.2 408.7,65.1 408.5,91.4 408.3,98.5 408.1,106.4 408.1,112.8 408.2,118.5 408.2,120.7 408.2,121.5 408.1,123.2 408.1,124.6 408.1,129.7 408.4,149.3 408.4,151.5 408.3,154.3 408.0,167.4 407.7,184.6 407.6,193.4 407.5,195.4 407.5,198.6 407.5,204.0 407.3,207.2 407.3,210.1 407.3,213.3 407.2,228.2 407.2,229.7 407.2,231.2 407.2,233.3 407.4,235.4 407.3,239.9 407.3,243.7 407.1,250.0 407.1,256.5 407.1,259.6 406.9,291.7 406.8,300.1 406.8,302.7 406.6,309.7 406.5,333.0 406.4,340.3 406.4,342.5 406.4,343.8 406.2,361.4 406.1,376.2 406.1,378.6 406.1,389.8 406.0,411.3 406.0,424.7 405.9,438.1 405.8,442.0 405.5,446.2 405.1,503.0 409.5,516.1 410.5,519.0 412.3,524.7 412.3,526.5 406.4,548.2 404.4,556.0 402.2,563.4 399.9,572.1 399.4,576.1 399.4,579.1 401.5,593.2 402.5,599.2 403.1,602.8 403.3,604.2 403.4,608.5 403.2,611.8 402.4,617.1 397.2,633.2 397.1,635.8 397.7,658.0 397.7,663.3 397.8,666.2 398.1,695.9 397.9,699.3 394.8,720.2 394.3,722.7 393.7,726.5 393.8,728.1 394.8,730.6 399.6,743.5 399.8,745.1 399.8,747.3 399.7,750.9 399.4,786.2 399.5,789.6 399.7,792.0 399.7,798.2 399.7,801.3 399.7,803.5 399.2,805.2 397.6,811.1 392.6,820.9 385.3,837.5 375.3,860.8 369.6,877.2 368.3,880.9 366.5,886.2 365.5,889.3 365.1,892.0 364.3,909.2 363.5,927.5 363.0,944.0 362.7,951.5 362.5,956.6 362.4,959.4 362.4,960.4 362.3,962.1"/>
    <polyline points="-329.7,-13.0 -314.4,-5.8 -310.7,-4.1 -301.1,0.3 -283.1,8.5 -267.9,15.9 -250.5,24.1 -243.9,27.6 -213.9,45.8 -212.6,46.5 -209.0,48.5 -201.3,51.2 -194.3,52.9 -189.0,53.7 -176.1,54.8 -162.5,56.1 -156.6,56.9 -143.2,59.3 -132.8,62.1 -126.1,64.3 -120.2,66.6 -111.7,70.5 -108.4,72.3 -102.0,75.7 -93.8,80.2 -83.6,85.6 -77.9,88.7 -74.4,90.1 -71.7,91.3 -67.8,92.8 -62.0,95.3 -55.4,98.1 -46.8,102.5 -42.3,104.8 -39.7,106.9 -37.7,108.4 -32.6,111.5 -30.5,112.5 4.5,128.6 9.6,131.5 13.4,133.6 16.7,135.4 31.6,143.2 49.2,151.6 52.5,152.4 54.3,152.6 107.7,152.1 114.1,152.1 156.7,151.9 178.4,151.4 207.5,151.3 212.3,151.3 267.1,151.2 271.7,151.2 277.4,151.0 292.4,150.8 337.4,150.4 340.9,150.4 355.2,150.2 371.9,149.9 401.3,149.3 408.2,149.3 446.1,149.4 480.6,149.0 492.7,149.0 541.4,149.0 548.2,148.9 553.0,149.3 558.5,149.7 570.9,150.8 582.2,151.6 607.8,151.9 611.9,151.9 628.2,152.0 639.4,152.1 663.4,151.9 671.7,151.9 708.1,152.2 761.6,152.3 779.5,152.2 785.7,152.1 790.5,151.5 796.2,150.4 822.6,143.2 828.7,142.2 842.5,140.7 856.5,139.6 860.6,139.3 875.2,138.3 901.2,136.4 915.2,134.2 919.9,133.3 924.2,132.3 929.5,130.8 933.5,129.7 947.0,126.2 952.8,125.2 980.9,124.9 986.4,124.5 989.0,124.3 992.9,123.7 996.5,123.0 1001.6,121.9 1012.3,116.7 1023.8,107.3 1027.1,105.5 1030.3,104.3 1049.0,101.9 1061.7,102.0 1065.8,102.0"/>
    <polyline points="826.5,-59.6 814.5,-59.4 805.4,-59.1 793.4,-58.5 784.0,-58.2 762.8,-58.1 754.1,-58.0 723.3,-57.6 705.7,-57.2 688.4,-57.1 683.7,-56.8 679.3,-55.9 675.1,-54.3 670.7,-50.9 669.6,-49.2 668.7,-46.5 668.0,-41.1 667.8,-29.7 667.8,-9.8 668.9,38.5 668.9,42.0 668.9,44.5 668.0,47.4 668.2,57.4 667.9,77.4 668.0,95.5 667.9,108.3 667.9,111.7 667.9,123.7 667.5,135.1 667.2,152.1 666.9,167.7 666.9,170.0 666.9,172.8 666.9,174.2 666.9,181.9 667.0,184.2 669.6,193.0 671.7,196.6 673.0,198.9 673.8,201.5 673.8,216.7 673.4,239.4 673.5,243.5 673.5,245.8 673.6,249.7 673.6,250.5 673.5,253.1 674.0,270.5 674.1,276.8 674.3,278.9 674.5,282.2 674.7,286.9 675.9,296.9 676.6,299.5 677.6,301.3 679.4,303.3 681.9,304.9 686.7,307.5 690.1,309.7 691.7,311.1 693.7,313.3 694.9,315.0 696.0,316.7 696.8,317.9 697.8,319.8 698.2,321.8 698.2,323.2 697.6,326.1 695.9,328.8 694.5,331.1 692.8,333.3 690.9,335.2 689.5,336.6 687.0,338.3 683.9,339.8 680.4,341.3 676.3,343.0 674.4,343.8 672.7,344.4 671.1,345.1 667.8,346.4 661.9,348.7 619.9,365.4 597.6,374.2 580.6,381.0 578.3,381.9 572.5,384.2 569.6,385.4 566.8,386.5 565.9,386.9 564.9,387.2 563.9,387.4 562.7,387.6 561.5,387.7 560.2,387.7 555.5,387.7 530.1,387.7 524.5,387.8 521.6,387.9 518.8,388.1 510.6,389.3 504.3,390.0 498.4,390.0 455.9,390.1 451.0,390.1 444.5,390.2 432.8,390.2 423.9,390.2 421.5,390.2 409.6,390.2 404.7,390.2 395.8,390.2 387.5,390.2 371.4,390.2 360.3,390.1 339.7,391.5 333.9,391.5 325.2,391.5 311.8,390.5 292.2,389.4 283.3,389.3 280.3,389.3 278.7,389.3 277.8,389.1 276.8,388.8 275.3,388.2 257.9,380.9 247.9,376.6 244.7,375.3 237.7,372.3 218.5,364.1 214.7,362.5 197.0,355.0 176.9,346.6 136.9,329.5 134.7,328.4 109.1,317.7 106.9,316.9 104.2,316.5 89.2,316.3 85.7,316.2 81.5,316.2 73.8,316.1 57.9,316.0 15.3,315.4 9.6,315.3 -15.6,315.0 -43.4,315.3 -102.3,313.1 -117.4,312.7 -121.6,312.6 -126.7,312.4 -136.3,312.2"/>
    <polyline points="419.0,389.5 416.4,388.5 414.4,387.6 412.4,386.3 410.7,385.0 408.9,383.0 407.3,380.4 406.5,378.4 406.1,376.2"/>
    <polyline points="208.6,296.8 208.6,294.8 208.7,290.9 208.6,242.9 208.5,229.7 209.6,222.6 211.6,218.9 214.0,215.7 217.7,213.0 222.7,210.0 227.8,208.4 236.3,205.9 245.4,204.5 258.0,203.6 271.8,203.3 274.8,203.4 277.8,203.6 279.9,204.0 282.2,204.6 284.3,205.4 285.9,206.0 287.6,206.3 289.6,206.4 291.8,206.2 293.5,205.8 296.2,204.7 298.4,204.1 300.6,203.7 304.9,203.4 308.8,203.2 316.1,203.1 366.2,203.4 386.6,203.6 393.0,203.6 396.3,203.5 398.8,203.5 401.2,203.7 404.5,204.1 406.0,204.2 408.7,204.1 411.0,203.8 415.9,203.0 417.2,202.9 421.7,202.7 426.0,202.5 485.0,202.9 488.3,202.9 506.7,203.3 517.6,203.5 522.6,203.3 525.9,203.3 530.6,203.4 534.6,203.3 537.2,203.3 540.0,203.4 541.9,203.3 544.2,203.5 546.6,203.7 548.9,203.8 551.3,204.0 554.3,204.1 559.3,204.3 577.4,205.2 578.4,205.3 579.4,205.5 580.4,205.6 581.4,205.9 582.4,206.1 583.4,206.4 584.3,206.7 585.3,207.1 586.2,207.5 587.0,208.0 587.9,208.4 588.7,209.0 589.5,209.5 590.2,210.1 591.0,210.7 591.6,211.4 592.3,212.1 592.8,212.8 593.4,213.5 593.9,214.2 594.3,215.0 606.9,240.0 607.3,240.6 607.8,241.2 608.3,241.7 608.8,242.2 609.4,242.7 610.0,243.2 610.7,243.6 611.3,244.0 612.1,244.4 612.9,244.7 613.7,245.0 614.5,245.3 615.4,245.5 616.2,245.7 617.1,245.9 618.0,246.0 618.9,246.0 622.8,246.0 625.8,246.1 628.4,246.3 661.1,246.1 667.3,246.1 673.4,246.1 726.1,246.4 766.2,246.2"/>
    <polyline points="770.6,800.1 763.8,800.1 760.5,800.1 756.3,800.1 723.6,800.0 694.1,799.9 675.6,799.9 603.9,799.8 592.9,799.7 582.9,799.0 577.7,797.9 572.1,795.3 568.4,792.4 564.6,788.9 558.2,781.1 555.6,776.9 554.8,773.1 554.9,767.6 554.9,757.3 554.9,743.0 554.9,738.5 554.9,716.0 554.9,698.1 554.8,671.9 554.8,665.6 554.8,658.8 554.8,656.0 554.8,645.1 555.0,641.7 555.9,638.3 557.5,631.3 558.6,626.2 559.1,622.5 558.8,616.4 558.9,605.7 559.2,589.7 559.1,578.2 559.3,548.0 559.2,531.1 557.5,520.6 557.5,519.5 557.4,517.2 557.7,501.9 557.5,484.4 557.5,480.6 556.7,478.1 555.6,476.1 553.9,473.4 539.1,459.8 536.5,456.8 530.8,450.4 530.3,449.7 529.7,449.0 529.2,448.3 528.8,447.6 528.4,446.9 528.1,446.2 528.0,445.8 527.9,445.4 527.9,445.1 527.8,444.7 527.9,444.3 527.9,443.9 527.9,443.5 528.0,443.1 528.2,442.2 528.6,441.4 529.0,440.5 529.4,439.6 529.9,438.7 531.0,436.8 531.6,435.8 532.1,434.9 532.6,433.9 533.0,432.9 533.4,431.9 533.5,431.4 533.6,430.9 533.8,430.4 533.8,429.9 533.9,429.4 534.0,428.9 534.0,428.4 534.0,427.9 533.9,427.0 533.8,426.0 533.6,425.1 533.3,424.1 533.0,423.2 532.8,422.8 532.6,422.4 532.3,421.8 532.0,421.3 531.7,420.9 531.4,420.4 531.0,419.9 530.5,419.3 530.1,418.9 529.7,418.5 529.3,418.0 528.8,417.6 528.5,417.4 527.9,416.9 527.6,416.6 526.7,416.1 525.9,415.5 525.0,415.0 524.1,414.6 523.5,414.3 523.0,414.1 521.8,413.6 518.5,412.3 517.2,411.9 507.8,408.5 506.8,408.2 505.8,407.7 505.0,407.3 504.3,407.0 503.5,406.5 502.9,406.1 502.6,405.8 502.2,405.5 501.7,405.0 501.3,404.6 501.1,404.4 500.7,404.0 500.4,403.6 500.2,403.2 500.0,402.9 499.7,402.3 499.4,401.7 499.2,401.1 499.0,400.4 498.9,399.8 498.8,399.0 498.7,398.1 498.7,397.3 498.7,392.9 498.7,392.4 498.6,391.8 498.6,391.5 498.2,389.7 498.0,389.0 498.0,388.7 497.9,388.1 497.7,377.7 497.4,356.1 497.3,350.9 496.9,335.7 496.7,324.5 496.1,302.2"/>
    <polyline points="321.7,513.4 306.4,513.4 298.0,513.3 271.7,513.6 259.7,513.8 213.8,514.1 190.4,514.8 180.7,514.9 173.8,514.9 115.0,513.9 112.8,513.8 110.5,513.5 108.5,513.1 106.4,512.4 104.9,511.5 103.8,510.3 103.3,509.5 103.0,508.7 102.7,507.6 102.6,506.5 102.6,501.1 102.5,497.5 102.4,496.6 101.5,493.6 101.1,491.8 100.6,490.0 100.2,488.9 99.6,486.9 99.2,485.2 99.0,483.9 98.9,481.2 98.9,480.2 98.9,478.3 99.2,470.3 99.2,468.8 99.1,450.3 99.1,440.6 99.1,437.7 98.7,386.0 98.6,377.8 98.5,371.1 98.8,351.0 98.6,348.7 98.1,345.6 97.2,343.2 95.9,341.2 94.7,339.2 92.9,336.8 91.9,334.3 91.1,332.0 90.7,329.5 90.5,327.4 90.5,320.7 90.6,316.6 90.5,304.0 90.6,302.7 90.8,301.4 97.2,273.6 97.6,271.6 97.8,269.8 97.8,265.4 97.6,243.8 97.6,237.2 97.8,206.8 97.8,203.0 97.7,196.9 99.0,179.3 99.0,176.8 99.4,174.3 100.3,172.4 101.5,170.5 104.8,166.0 105.6,164.3 105.9,163.2 106.2,161.6 106.8,158.0 107.3,156.2 108.6,151.4 108.9,149.7 109.0,148.1 108.9,143.3 108.9,135.9 108.6,133.1 107.6,119.7 107.4,117.6 107.0,114.8 105.7,109.6 105.4,107.5 105.4,105.6 105.6,104.4 107.5,98.0 108.1,96.0 108.3,94.5 108.1,85.4 108.1,82.1 108.0,78.3 108.0,76.9 108.9,73.9 110.6,71.3 112.9,69.4 114.9,67.9 116.8,66.9 119.2,66.0 122.1,65.4 124.5,65.4 155.8,65.6 167.7,65.4 169.0,65.4 175.9,65.3 179.2,65.5 182.9,66.3 186.3,67.6 190.7,69.4 195.1,71.1 199.9,72.4 204.0,73.0 210.3,73.3 218.5,73.4 225.2,73.5 232.8,73.6 249.3,73.2 264.1,73.0 266.8,72.7 268.6,72.4 270.1,71.7 270.9,71.1 271.8,70.1 272.3,69.1 273.4,67.2 274.2,65.5 274.5,63.8 274.8,59.1 274.7,49.8 274.7,41.6 274.8,36.8 274.8,30.7 275.2,25.0 278.3,-6.0 279.4,-14.7 279.9,-19.1 280.3,-23.9 280.4,-29.0 280.7,-32.0 280.1,-46.1 279.7,-51.9 278.2,-68.6 277.3,-75.8 276.2,-82.1 276.1,-84.4 276.1,-85.7 276.8,-88.0 278.0,-90.3 280.5,-92.1 283.7,-93.5 288.1,-94.3 291.2,-94.6 296.2,-94.9 309.5,-94.9 314.5,-94.9 329.2,-94.8 397.8,-94.7 403.9,-94.7 415.2,-94.7 469.1,-94.9 478.7,-94.9 484.9,-95.0 489.6,-94.7 493.2,-94.0 497.3,-92.9 501.7,-92.0 506.7,-91.8 543.5,-91.6 551.7,-91.5 567.0,-91.7 574.0,-91.2 581.0,-90.9 601.4,-90.8 616.4,-90.7 619.6,-90.7 702.8,-90.8 708.7,-90.8 715.9,-90.8 749.9,-90.7 752.8,-90.6 757.6,-89.6 761.4,-87.6 764.5,-84.8 766.8,-81.1 767.6,-76.7 767.8,-64.1 767.9,-60.7 768.0,-59.1 768.5,-56.0 772.7,-16.5 773.2,-11.3 773.6,-6.6 773.3,12.1 773.0,22.3 770.7,40.7 769.6,57.4 768.4,67.9 768.3,69.8 767.8,72.4 767.8,75.7 767.7,87.6 767.6,151.4 767.6,154.3 767.5,203.4 767.5,206.3 767.5,246.1 767.7,296.8 767.7,323.3 768.5,329.4 770.9,334.6 777.0,341.4 785.0,347.0 789.9,350.9 802.0,364.8 805.2,368.4 838.6,407.4 847.6,417.9 851.4,422.1 852.6,425.5 852.8,428.2 852.2,432.1 851.3,434.6 850.1,436.3 847.6,438.6 845.5,440.7 842.8,443.4 840.1,445.8 836.6,448.4 834.4,449.9 830.2,452.5 827.9,453.7 824.5,455.2 822.8,455.9 818.7,457.3 814.0,458.5 809.6,459.4 804.4,460.1 799.0,460.6 788.8,461.7 782.5,462.6 777.2,463.8 769.7,465.8 763.4,467.1 757.9,468.3 750.5,469.1 742.6,469.7 716.2,469.7 712.4,470.3 709.0,471.2 706.7,472.8 704.7,475.0 702.8,479.0 702.3,482.2 702.0,486.4 702.0,490.1 702.7,495.3 703.2,499.3 702.9,500.9 702.3,502.5 701.0,503.7 698.9,504.9 696.5,505.6 692.3,506.3 688.8,506.4 683.0,506.5 678.3,506.5 643.1,506.0 634.6,506.1 627.0,506.1 621.8,506.7 616.9,508.2 613.3,510.5 608.7,513.2 604.7,515.0 601.3,516.6 597.2,517.7 591.9,518.5 573.0,518.8 566.5,519.0 559.5,519.2 551.8,519.2 531.2,519.6 525.3,520.1 520.5,520.6 510.0,521.7 501.5,522.1 496.3,522.1 488.1,522.1 484.4,522.1 481.2,521.8 478.3,521.2 475.2,520.2 472.0,519.4 462.1,517.4 459.5,517.1 452.6,516.6 445.3,516.2 406.5,515.6 401.2,515.6 395.6,515.6 377.5,516.4 373.8,516.4 347.9,514.5 321.7,513.4"/>
    <polyline points="-686.9,277.7 -672.9,277.7 -662.6,277.7 -632.6,277.6 -619.4,277.6 -609.4,277.6 -605.8,277.6 -553.3,277.6 -544.6,277.5 -538.1,277.6 -449.6,277.4 -434.5,277.3 -430.1,277.3 -361.1,277.2 -354.6,276.7 -343.5,275.7 -339.8,275.1 -337.0,273.8 -334.5,272.3 -333.1,270.2 -332.6,253.9 -332.0,252.0 -330.6,249.3 -328.2,246.8 -325.9,244.6 -322.7,243.1 -319.8,242.5 -291.0,240.9 -281.9,240.2 -266.2,239.2 -265.9,239.2 -260.7,239.1 -253.0,239.0 -252.3,239.0 -247.1,238.9 -243.1,238.9 -236.7,239.2 -222.9,239.1 -216.0,239.2 -210.5,239.2 -203.9,239.3 -200.3,239.2 -180.4,239.5 -115.5,239.4 -107.4,239.4 -100.9,239.5 -89.7,239.3 -46.6,239.5 -35.0,239.6 -19.4,239.6 -19.1,239.7 -8.6,239.5 -0.8,239.4 2.5,239.4 23.4,239.3 88.3,240.2 89.7,240.2 91.7,240.2 95.3,240.2 123.3,239.5 126.0,239.7 129.0,240.4 140.5,243.7 144.8,245.8 146.6,247.3 148.7,249.4 150.9,253.2 152.6,257.5 154.2,270.7 154.7,274.2 155.4,277.8 156.6,280.6 157.5,282.5 158.6,284.1 160.6,286.1 171.6,290.9 182.9,296.3 191.0,298.7 195.1,299.1 196.7,299.0 198.5,298.8 203.1,298.1 212.0,296.7 214.2,296.6 216.4,296.5 218.4,296.5 220.1,296.5 280.6,296.1 332.2,295.9 336.6,295.9 401.3,296.2 452.4,296.2 489.7,296.3 490.1,296.3 496.3,296.3 533.7,296.3 551.2,296.1 617.1,296.3 620.0,296.4 621.8,296.7 624.0,297.9 626.2,300.2 633.6,311.0 634.5,312.4 636.2,315.0 637.0,316.2 648.7,334.8 659.0,349.6 671.6,368.8 687.1,390.5 698.2,406.8 701.2,411.2 704.3,415.8 704.9,416.6 710.1,425.4 714.6,428.6 720.2,431.0 723.4,431.9 731.0,433.4 738.5,435.4 740.7,436.0 742.3,436.4 743.5,436.7 745.0,436.9 747.2,436.8 749.2,436.7 752.4,436.1 755.4,434.9 765.9,430.0 785.4,421.6 796.3,416.6 806.7,414.0 812.0,412.8 822.1,410.9 830.2,409.4 835.1,408.5 838.8,407.8 841.5,407.3"/>
    <polyline points="841.0,406.5 838.4,407.0 834.9,407.7 829.7,408.7 811.8,412.5 806.4,413.7 796.0,416.4 785.1,421.4 765.7,429.8 755.2,434.6 752.2,435.8 749.0,436.4 747.0,436.5 745.0,436.6 743.5,436.5 742.3,436.2 740.7,435.7 738.5,435.1 731.0,433.1 723.4,431.6 720.2,430.8 714.4,428.3 710.2,425.1 705.5,416.5 703.9,414.1 701.8,411.0 698.7,406.4 671.8,368.7 659.2,349.5 649.1,334.4 637.5,316.4 637.2,315.9 634.9,312.3 633.9,310.8 630.0,305.1 626.4,299.8 624.3,297.8 621.9,296.4 619.9,296.1 616.9,296.0 551.2,295.8 533.5,296.0 496.2,295.8 491.4,295.8 452.6,295.9 401.3,295.6 346.3,295.6 336.6,295.6 332.2,295.6 280.7,295.6 221.1,296.1 220.0,296.1 218.2,296.1 216.2,296.1 214.0,296.3 211.9,296.4 202.9,297.9 198.3,298.5 196.5,298.7 195.0,298.8 191.0,298.4 182.9,295.8 171.6,290.5 160.7,285.8 158.6,283.8 157.5,282.2 156.8,280.4 155.6,277.6 154.9,274.1 154.6,270.7 152.8,257.3 151.2,253.0 148.8,249.3 146.7,247.2 144.9,245.8 140.6,243.6 129.0,240.3 126.1,239.5 123.5,239.3 95.3,239.7 91.7,239.7 89.7,239.7 88.3,239.7 23.4,239.0 2.5,239.1 -0.8,239.1 -8.6,239.1 -19.1,239.2 -89.7,239.0 -101.0,239.1 -108.1,239.1 -115.4,239.1 -180.2,238.9 -200.4,238.6 -203.8,238.8 -210.9,238.8 -216.2,238.7 -224.1,238.7 -235.6,238.4 -243.1,238.2 -247.1,238.2 -252.4,238.3 -253.0,238.3 -254.9,238.4 -260.9,238.5 -265.9,238.5 -266.2,238.5 -282.2,239.9 -290.9,240.5 -319.8,241.9 -322.8,242.7 -326.0,244.1 -328.5,246.4 -330.9,248.8 -332.4,251.6 -333.0,253.8 -333.6,270.1 -335.1,272.2 -337.5,273.8 -340.0,274.5 -343.6,275.3 -354.6,276.5 -361.2,277.0 -430.2,277.0 -434.5,276.9 -449.6,276.9 -538.2,277.2 -544.7,277.2 -553.3,277.3 -605.8,277.2 -609.4,277.3 -619.4,277.3 -632.5,277.4 -662.7,277.5 -663.9,277.5 -673.0,277.4 -686.8,277.5"/>
    <polyline points="374.2,-411.1 369.3,-410.2 367.5,-409.8 364.5,-409.2 360.9,-408.5 359.0,-408.0 344.9,-405.0 325.6,-400.7 324.2,-400.0 323.1,-399.1 321.9,-397.6 319.5,-394.8 317.3,-391.2 314.3,-384.5 314.1,-383.4 313.8,-380.5 313.8,-378.2 313.8,-374.8 313.8,-372.1 313.6,-363.8 314.1,-347.3 314.3,-336.6 314.2,-324.5 314.0,-305.6 314.0,-298.7 314.3,-290.1 314.3,-268.2 314.2,-255.5 314.1,-248.2 314.1,-245.9 314.1,-243.5 314.4,-241.0 314.9,-238.7 315.8,-236.6 317.3,-234.2 320.5,-229.6 322.5,-226.9 325.3,-222.8 330.6,-218.7 336.7,-214.9 345.1,-212.8 352.0,-212.9 408.4,-213.1 411.2,-213.1 426.8,-213.1 479.2,-213.1 501.8,-213.0 506.1,-213.0 523.0,-210.2 530.6,-208.6 532.7,-207.8 535.9,-205.7 538.0,-202.7 538.5,-200.5 539.2,-197.7 539.1,-186.1 538.9,-166.8 539.1,-152.7 538.9,-138.8 538.8,-118.8 539.0,-101.9 538.9,-90.9 538.8,-73.3 538.8,-56.9 538.9,-44.8 538.6,-34.6 538.5,-12.2 538.6,0.7 538.4,13.2 538.5,28.4 538.3,57.1 538.3,59.5 538.4,68.0 538.0,84.3 537.4,86.8 536.4,88.7 533.9,91.2 531.5,92.6 527.4,94.1 523.1,95.6 522.1,95.9 517.6,97.9 514.6,100.1 506.9,107.0 498.9,114.0 496.3,115.8 494.9,117.1 493.7,118.2 492.9,119.5 492.2,121.7 492.1,125.9 492.1,132.0 492.3,141.4 492.6,151.4 492.8,157.2 492.9,164.7 493.0,171.5 493.6,191.4 493.7,196.8"/>
    <polyline points="766.3,245.9 736.7,245.9 726.1,245.9 672.9,245.6 667.3,245.6 651.7,245.8 631.6,245.8 622.8,245.6 619.0,245.5 618.1,245.5 617.2,245.4 616.3,245.3 615.4,245.1 614.6,244.9 613.7,244.6 612.9,244.3 612.2,244.0 611.4,243.6 610.7,243.2 610.0,242.7 609.4,242.2 608.8,241.7 608.3,241.1 607.8,240.5 607.3,239.9 594.9,214.9 594.4,214.1 593.9,213.3 593.4,212.6 592.8,211.9 592.2,211.2 591.5,210.5 590.8,209.8 590.0,209.2 589.2,208.6 588.4,208.1 587.5,207.6 586.6,207.1 585.7,206.7 584.7,206.3 583.7,206.0 582.7,205.6 581.7,205.4 580.6,205.1 579.6,205.0 578.5,204.8 577.4,204.7 568.2,204.3 559.3,203.8 541.8,202.9 526.1,202.8 517.7,202.9 494.6,202.7 488.3,202.5 483.1,202.3 426.2,202.1 421.7,202.1 417.2,202.1 408.6,202.2 405.9,202.2 403.9,202.4 399.4,203.1 397.4,203.2 393.0,203.2 381.1,203.3 366.2,202.7 316.1,202.6 308.8,202.7 304.3,202.6 300.8,202.6 298.1,202.2 295.8,201.6 294.1,201.0 292.6,200.5 290.9,200.2 289.2,200.2 286.8,200.4 285.0,200.9 283.6,201.5 280.8,202.1 277.6,202.4 274.7,202.7 271.8,202.9 261.9,203.0 257.9,203.1 245.2,204.1 235.9,205.6 222.4,209.7 217.4,212.7 213.4,215.5 211.0,218.7 209.2,222.3 208.1,229.5 208.1,235.1 208.1,242.8 208.1,261.6 208.0,277.9 207.9,288.9 207.9,294.8 207.9,296.8"/>
    <polyline points="494.1,196.8 492.9,151.4 492.6,140.8 492.4,129.1 492.5,121.7 492.9,120.5 493.3,119.5 493.8,118.6 494.8,117.6 495.4,117.1 497.0,115.7 501.9,111.9 507.5,107.0 511.5,103.4 514.4,100.9 518.0,98.2 522.4,96.2 531.7,92.8 534.5,91.2 536.8,88.8 537.8,86.8 538.4,84.3 538.7,62.4 538.7,59.5 538.7,56.7 538.7,55.7 539.1,13.2 539.3,-43.9 539.3,-44.8 539.3,-61.0 539.5,-90.1 539.6,-90.9 539.6,-101.9 539.6,-106.4 539.6,-136.9 539.6,-138.8 539.7,-181.8 539.7,-186.1 539.8,-197.7 539.2,-200.5 538.2,-203.3 536.1,-205.9 533.1,-208.0 530.4,-209.1 507.7,-213.3 504.7,-213.5 484.0,-213.4 479.3,-213.4 420.8,-213.3 414.7,-213.3 412.7,-213.3 408.4,-213.3 363.7,-213.3 352.0,-213.2 346.9,-213.2 343.1,-213.5 339.2,-214.5 335.6,-215.8 331.2,-218.6 325.5,-222.9 324.2,-224.9 318.6,-232.9 316.1,-236.7 315.4,-238.8 315.0,-241.1 314.9,-243.4 314.9,-246.0 314.9,-248.2 314.9,-255.4 314.8,-256.1 314.8,-280.3 314.4,-296.6 314.4,-298.7 314.4,-305.6 314.4,-321.0 314.5,-336.5 314.4,-347.3 314.2,-356.3 314.3,-363.6 314.3,-374.3 314.1,-380.5 314.2,-382.8 314.5,-384.0 314.9,-385.3 315.4,-386.5 317.4,-390.8 320.4,-395.5 323.4,-399.0 324.4,-399.8 325.7,-400.5 326.7,-400.8 345.0,-404.8 359.0,-407.9 361.0,-408.3 364.5,-409.1 367.5,-409.6 369.4,-410.0 374.3,-410.9"/>
    <polyline points="99.2,488.1 99.1,486.9"/>
    <polyline points="207.9,294.8 208.4,293.5"/>
    <polyline points="208.6,294.8 208.4,293.5"/>
    <polyline points="208.4,293.5 208.3,290.2 208.3,289.2"/>
    <polyline points="208.3,290.2 207.9,288.9"/>
    <polyline points="361.8,-391.6 364.5,-384.4 370.2,-369.4 394.7,-325.8 396.2,-322.2 397.3,-320.0 399.0,-316.8 413.4,-292.4 413.6,-291.8 413.8,-291.1 414.1,-289.8 414.2,-288.9 414.3,-287.6 414.3,-286.8 414.2,-286.0 414.0,-285.0 410.9,-273.8 410.4,-271.4 410.1,-269.3 409.9,-268.5 409.1,-263.6 408.5,-257.5 408.4,-255.2 408.1,-213.2 408.1,-211.1 408.2,-203.5 408.2,-195.1 408.1,-189.1 408.1,-174.5 408.1,-156.0 408.1,-153.9 408.1,-139.4 408.1,-117.4 408.0,-101.8 408.0,-97.3 408.0,-95.0 408.0,-92.9 408.2,-64.0 408.1,-29.2 407.9,37.3 407.9,65.2 407.8,91.4 407.9,98.5 407.8,149.3 407.8,151.6 407.6,165.4 407.4,179.0 407.3,184.7 407.0,190.8 407.0,193.5 407.0,195.3 407.0,198.6 406.9,204.1 406.8,207.2 406.8,210.1 407.0,213.3 407.1,219.8 407.1,227.3 407.0,235.1 406.8,243.4 406.5,256.4 406.4,259.6 406.5,264.7 406.2,291.7 406.2,300.1 406.1,302.7 406.0,310.0 405.9,333.2 405.8,338.4 405.8,340.3 405.8,342.8 405.8,345.1 405.5,361.3 405.2,368.6 405.2,375.6 405.2,389.8 405.2,395.1 405.2,411.4 404.9,442.0 404.8,447.2 404.8,476.3 404.7,503.2 408.9,516.2 409.5,518.1 409.8,519.1 411.7,524.6 411.8,526.5 409.6,534.1 405.7,548.7 403.9,555.9 401.7,563.4 399.4,572.0 398.8,576.3 398.8,579.5 400.8,593.3 402.5,603.1 402.7,604.4 402.9,608.5 402.7,611.8 401.9,617.0 396.6,633.3 396.4,636.0 397.1,663.3 397.2,668.8 397.4,695.8 397.3,699.3 394.0,720.2 393.4,723.8 393.2,726.6 393.4,728.2 394.2,730.7 399.1,743.6 399.4,745.2 399.4,747.4 398.9,786.3 399.1,792.1 399.0,796.6 398.9,801.3 398.8,803.5 398.4,805.0 397.1,810.2 392.1,820.6 381.6,844.5 374.7,860.3 369.0,877.1 367.8,880.7 366.0,885.7 364.9,889.6 364.6,891.9 363.9,905.4 362.9,926.8 362.3,949.8 362.1,951.1 361.9,956.6 361.7,960.3 361.6,962.1"/>
    <polyline points="406.1,302.7 406.4,303.9"/>
    <polyline points="406.8,302.7 406.4,303.9"/>
    <polyline points="406.4,303.9 406.4,308.4 406.4,309.0"/>
    <polyline points="406.4,308.4 406.6,309.7"/>
    <polyline points="405.8,342.8 406.4,343.8"/>
    <polyline points="409.8,519.1 410.2,519.6 410.5,520.0 410.7,520.4"/>
    <polyline points="410.5,519.0 410.5,519.6 410.5,520.0 410.5,520.4"/>
    <polyline points="410.2,519.6 410.5,520.4 411.3,523.1"/>
    <polyline points="410.5,519.6 410.7,520.4 411.6,523.0"/>
    <polyline points="-330.4,-12.3 -314.9,-5.2 -311.2,-3.5 -307.4,-1.7 -297.5,2.9 -283.3,9.3 -267.8,16.8 -250.9,24.6 -242.1,29.3 -213.0,47.1 -209.1,49.3 -201.7,51.7 -194.4,53.4 -188.9,54.2 -175.9,55.3 -162.6,56.5 -155.9,57.4 -143.1,59.8 -132.9,62.5 -126.4,64.8 -120.6,67.0 -112.2,70.8 -105.9,74.2 -102.4,76.2 -94.1,80.7 -83.7,86.1 -78.0,89.0 -74.5,90.6 -71.3,91.8 -62.1,95.8 -55.5,98.5 -50.8,101.1 -47.2,102.9 -42.6,105.2 -37.9,108.9 -32.8,111.9 -1.8,126.4 4.0,129.1 9.1,131.9 12.8,134.0 16.2,135.8 31.3,143.5 48.9,152.1 52.4,152.9 54.6,153.2 107.6,152.7 114.1,152.7 156.7,152.5 178.8,152.0 207.5,152.0 218.0,152.0 267.0,151.8 271.7,151.8 292.8,151.4 337.4,151.1 340.9,151.0 358.6,150.8 371.9,150.5 401.4,149.5 408.1,149.4 420.9,149.5 446.2,149.8 480.8,149.5 492.7,149.6 519.3,149.6 545.3,149.5 552.8,149.9 567.7,151.1 582.2,152.0 601.1,152.4 607.8,152.5 615.5,152.4 663.4,152.4 671.6,152.4 707.8,152.7 761.6,152.9 779.4,153.0 785.4,153.0 791.0,152.3 822.7,143.6 828.4,142.4 852.3,140.7 856.5,140.4 860.7,140.0 868.5,139.4 901.3,136.8 915.2,134.6 920.4,133.6 925.0,132.7 929.6,131.5 936.1,129.7 947.4,126.8 953.0,125.8 981.1,125.4 989.3,125.0 992.9,124.3 996.7,123.7 1001.9,122.4 1012.4,117.2 1024.4,108.0 1027.2,106.3 1030.6,104.8 1049.2,102.3 1060.1,102.2 1061.8,102.2 1065.8,102.2"/>
    <polyline points="212.3,151.3 218.0,152.0"/>
    <polyline points="340.9,151.0 344.5,150.7"/>
    <polyline points="340.9,150.4 344.5,150.7"/>
    <polyline points="344.5,150.7 352.0,150.6 353.4,150.6"/>
    <polyline points="352.0,150.6 355.2,150.2"/>
    <polyline points="611.9,151.9 615.5,152.4"/>
    <polyline points="493.7,196.8 493.8,201.1 493.9,202.8 493.9,205.3 493.9,207.3 493.9,208.6"/>
    <polyline points="493.9,208.6 494.2,220.1 494.4,228.3 494.4,230.6 494.6,235.9 494.8,248.6 494.8,252.0 494.9,271.2 495.9,290.9"/>
    <polyline points="495.9,290.9 496.1,296.1 496.1,299.1 496.1,299.7 496.1,302.2"/>
    <polyline points="770.6,800.0 763.8,799.9 760.5,799.9 757.4,799.9 753.4,799.9 723.5,799.6 694.1,799.7 675.6,799.6 658.9,799.6 645.4,799.5 608.4,799.4 603.9,799.4 596.2,799.4 590.1,799.2 583.9,798.6 579.9,797.9 577.0,797.4 573.3,795.7 571.6,794.7 565.9,789.8 564.6,788.4 559.0,781.8 558.2,780.7 557.1,779.0 556.0,777.3 555.6,776.1 555.1,773.9 555.1,772.5 555.5,764.4 555.3,744.0 555.3,741.8 555.3,738.5 555.3,713.9 555.2,699.0 555.2,698.2 555.3,676.4 555.4,665.6 555.4,658.8 555.4,657.0 555.4,656.0 555.1,644.6 555.2,643.0 555.4,641.5 558.0,630.3 559.2,625.1 559.5,622.3 559.5,618.0 559.3,612.5 559.3,605.7 559.4,597.8 559.4,591.3 559.6,581.0 559.5,576.5 559.6,569.3 559.6,541.1 559.4,532.2 559.3,530.9 559.2,529.5 557.8,520.6 557.8,519.5 557.7,517.2 558.0,512.4 557.7,484.4 557.6,480.5 556.8,478.1 555.8,476.1 554.0,473.4 548.2,467.8 539.9,459.4 537.3,456.4 532.0,450.3 531.2,449.4 530.7,448.8 530.3,448.2 529.9,447.8 529.7,447.3 529.5,446.9 529.3,446.5 529.1,446.1 529.0,445.7 528.9,445.3 528.9,444.9 528.9,444.5 528.9,444.1 528.9,443.7 529.0,443.2 529.1,442.8 529.2,442.3 529.4,441.9 529.8,441.0 530.3,440.1 530.8,439.2 532.0,437.1 532.5,436.1 533.1,435.1 533.5,434.3 533.9,433.2 534.3,432.2 534.4,431.8 534.6,431.3 534.8,430.4 534.9,429.9 534.9,429.3 535.0,428.8 535.0,428.4 535.0,427.9 535.0,427.4 534.9,426.9 534.9,426.2 534.8,425.8 534.7,425.3 534.4,424.3 534.2,423.7 534.0,423.1 533.8,422.7 533.5,422.1 533.2,421.6 532.9,421.0 532.5,420.5 532.2,419.9 531.8,419.4 531.3,418.9 530.9,418.4 530.4,417.9 530.0,417.5 529.5,417.0 529.0,416.6 528.4,416.2 527.7,415.7 527.3,415.4 526.5,414.9 526.1,414.7 525.3,414.2 524.4,413.8 523.5,413.4 522.3,412.9 518.9,411.7 517.7,411.2 508.5,407.9 507.4,407.5 506.3,407.0 505.2,406.5 504.7,406.2 504.2,405.9 503.7,405.6 503.3,405.3 502.9,404.9 502.5,404.6 502.1,404.2 501.8,403.8 501.4,403.4 501.2,403.0 500.9,402.5 500.7,402.1 500.5,401.6 500.3,401.2 500.1,400.7 500.0,400.2 499.8,399.3 499.7,398.3 499.7,397.3 499.7,392.8 499.7,392.2 499.6,391.7 499.5,391.2 499.1,389.1 499.0,388.6 499.0,388.2 499.0,388.1 498.7,377.6 497.2,335.7 496.9,324.4 496.5,302.2"/>
    <polyline points="494.3,208.6 494.2,205.3 494.2,204.2 494.2,202.8 494.1,196.8"/>
    <polyline points="496.3,290.8 495.4,266.4 495.1,252.0 495.0,248.7 495.0,242.6 494.9,235.4 494.8,230.0 494.3,208.6"/>
    <polyline points="496.5,302.2 496.4,298.4 496.4,296.1 496.3,290.8"/>
    <polyline points="496.1,299.1 496.4,298.4"/>
    <polyline points="496.1,299.7 495.9,299.1 495.6,298.4 495.1,297.8 494.3,297.4 492.9,296.9 489.7,296.3"/>
    <polyline points="490.1,296.3 491.4,295.8"/>
    <polyline points="494.1,209.7 494.0,206.3 494.1,206.0 494.2,205.3"/>
    <polyline points="494.2,209.7 494.1,206.3 494.1,206.0 493.9,205.3"/>
    <polyline points="493.9,207.3 493.6,206.3 492.8,205.2 491.7,204.2 490.3,203.6 488.0,203.2 485.0,202.9"/>
    <polyline points="538.3,57.1 538.7,55.7"/>
    <polyline points="-136.3,311.8 -126.7,312.1 -121.6,312.2 -120.5,312.2 -115.0,312.4 -43.4,314.9 -15.5,314.6 9.6,314.9 15.2,314.9 79.1,315.6 85.7,315.7 88.4,315.7 100.7,315.7 104.5,316.0 107.1,316.4 109.3,317.3 177.2,346.3 179.3,347.2 245.0,374.9 248.1,376.3 259.7,381.1 275.5,387.8 277.2,388.4 278.9,388.8 311.9,389.9 325.3,391.1 333.9,391.1 339.7,391.0 360.3,389.5 370.8,389.5 383.6,389.5 406.6,389.5 409.6,389.5 413.8,389.5 419.0,389.5 420.3,389.5 498.4,389.5 504.3,389.5 510.5,388.8 518.8,387.6 521.6,387.5 524.5,387.4 530.1,387.4 555.5,387.4 560.2,387.4 561.4,387.4 562.6,387.3 563.7,387.1 564.8,386.9 565.7,386.6 566.6,386.3 569.5,385.1 572.4,384.0 578.2,381.6 597.4,373.9 634.0,359.5 661.6,348.4 680.2,340.9 686.5,338.0 689.0,336.3 692.4,333.1 694.1,330.9 697.2,326.1 697.9,323.1 697.4,319.9 696.4,318.0 693.4,313.5 691.5,311.2 689.9,309.8 685.7,307.2 682.0,305.2 679.3,303.4 677.5,301.5 676.3,299.5 675.5,296.9 675.0,291.8 674.2,287.0 673.9,282.2 673.7,279.0 673.9,276.9 673.9,270.4 673.7,262.4 673.4,253.1 673.0,250.5 673.0,245.8 673.0,243.5 673.4,201.5 672.5,199.0 671.2,196.7 669.2,193.0 666.3,184.3 666.7,152.1 666.7,151.5 667.4,111.7 667.4,109.6 667.4,108.3 667.4,103.9 667.5,74.7 667.5,51.3 667.3,44.7 667.3,42.0 667.2,38.6 667.4,36.8 667.3,-26.9 667.3,-29.7 667.3,-33.7 667.5,-41.1 668.3,-46.6 669.4,-49.3 670.4,-50.9 674.9,-54.5 679.3,-56.2 683.8,-57.0 688.4,-57.3 757.4,-58.6 762.8,-58.6 768.9,-58.6 826.5,-59.8"/>
    <polyline points="667.4,108.3 667.7,107.5 667.7,104.7 667.7,103.9"/>
    <polyline points="667.9,108.3 667.7,107.5"/>
    <polyline points="667.7,104.7 667.4,103.9"/>
    <polyline points="673.6,249.7 673.0,250.5"/>
    <polyline points="572.4,384.0 573.1,383.8 577.6,382.0 578.2,381.7"/>
    <polyline points="577.6,382.0 578.2,381.6"/>
    <polyline points="573.1,383.8 572.5,384.2"/>
    <polyline points="420.3,389.5 423.9,390.2"/>
    <polyline points="244.7,375.3 243.8,374.6 239.0,372.6 237.8,372.1"/>
    <polyline points="239.0,372.6 237.7,372.3"/>
    <polyline points="243.8,374.6 245.0,374.9"/>
    <polyline points="79.1,315.6 81.5,316.2"/>
    <polyline points="703.9,414.1 704.3,415.8"/>
    <polyline points="634.9,312.3 635.0,312.8 637.0,315.9 637.3,316.4"/>
    <polyline points="637.0,315.9 637.5,316.4"/>
    <polyline points="635.0,312.8 634.5,312.4"/>
    <polyline points="336.6,295.6 337.8,295.8 345.3,295.8 346.3,295.8"/>
    <polyline points="345.3,295.8 346.3,295.6"/>
    <polyline points="337.8,295.8 336.6,295.9"/>
    <polyline points="-181.6,793.7 -176.7,786.2 -175.6,784.6 -174.2,782.3 -172.0,780.3 -169.8,778.2 -156.7,769.6 -150.1,765.5 -145.2,761.4 -142.0,757.9 -141.0,756.3 -140.0,754.8 -139.3,753.0 -138.4,749.6 -136.5,743.2 -134.3,737.7 -132.4,732.7 -129.3,724.9 -128.7,722.8 -128.4,720.6 -128.4,719.7 -128.5,718.1 -130.2,710.4 -130.7,707.8 -133.6,693.4 -133.6,688.0 -133.9,656.5 -133.7,621.3 -133.8,613.9 -133.8,611.3 -133.8,603.1 -134.0,594.5 -134.2,583.3 -134.2,577.7 -134.2,566.7 -134.2,556.3 -134.2,547.9 -132.9,544.9 -129.0,541.8 -121.7,539.1 -116.0,537.6 -110.8,537.1 -107.2,537.1 -97.6,537.1 -91.7,537.1 -87.3,537.1 -82.0,537.1 -79.2,537.1 -42.2,537.1 -3.3,537.0 14.1,537.1 47.0,537.1 71.5,537.1 78.9,537.1 88.6,537.1 92.5,536.8 95.9,535.9 98.5,534.2 100.5,532.3 101.9,530.0 102.8,525.8 102.6,522.7 102.3,520.2 102.1,517.1 102.0,514.0 102.0,512.1"/>
    <polyline points="-181.1,793.9 -176.2,786.3 -175.3,784.9 -173.6,782.4 -171.8,780.5 -169.5,778.4 -156.3,770.0 -149.6,765.9 -144.7,761.5 -141.6,758.1 -140.5,756.5 -139.6,755.0 -139.0,753.0 -138.1,749.6 -136.2,743.2 -134.0,737.8 -132.1,732.7 -128.9,725.0 -128.4,722.9 -128.1,720.6 -128.1,719.7 -128.2,718.1 -129.7,710.4 -130.6,706.1 -133.2,693.4 -133.2,688.0 -133.2,656.4 -133.3,621.3 -133.4,613.9 -133.3,611.3 -133.3,603.1 -133.5,594.5 -133.6,583.3 -133.5,577.7 -133.6,566.7 -133.6,556.3 -133.6,547.9 -132.4,545.3 -128.4,542.3 -121.3,539.6 -115.8,538.2 -110.6,537.6 -107.1,537.5 -97.6,537.6 -91.7,537.5 -87.3,537.5 -82.0,537.5 -79.1,537.5 -42.2,537.4 -3.4,537.5 14.4,537.5 47.0,537.5 71.5,537.6 79.2,537.5 88.8,537.4 92.7,537.0 96.1,536.0 98.8,534.3 101.0,532.4 102.4,530.0 103.2,525.7 103.1,522.7 102.8,520.0 102.7,517.1 102.6,514.1 102.4,512.1"/>
    <polyline points="207.9,296.8 207.9,297.6"/>
    <polyline points="208.6,297.6 208.6,296.8"/>
    <polyline points="551.7,-92.2 566.8,-92.3 574.1,-91.6 581.0,-91.3 601.4,-91.2 616.3,-91.1 619.7,-91.1 702.7,-91.2 708.7,-91.3 716.4,-91.3 749.7,-91.2 752.9,-91.1 755.5,-90.7 757.5,-90.1 759.8,-89.2 761.9,-88.0 763.5,-86.7 765.2,-84.8 766.5,-82.6 767.3,-80.7 767.9,-78.2 768.2,-75.4 768.5,-70.8 768.6,-64.2 768.6,-60.7 768.8,-59.1 769.1,-56.1 772.9,-24.5 773.5,-16.6 774.2,-11.4 774.1,-6.8 774.1,12.1 773.3,26.0 769.7,68.9 769.1,69.9 769.0,70.7 768.5,73.0 768.4,75.9 768.4,87.6 768.2,151.4 768.2,203.7 768.2,206.3 768.3,246.1 768.4,296.7 768.4,323.2 768.6,325.7 769.0,329.1 770.1,331.7 771.4,334.4 774.0,337.6 777.6,341.1 781.0,343.7 790.2,350.5 802.9,364.4 807.7,369.5 839.6,407.1 851.8,421.5 853.3,424.0 853.8,425.8 854.1,428.6 853.7,431.5 852.5,434.0 851.0,436.4 848.5,438.8 840.5,446.1 837.1,448.7 833.7,450.9 830.5,452.7 828.2,453.9 824.7,455.6 824.3,455.8 819.6,457.5 814.7,458.9 809.8,459.7 804.0,460.6 799.1,461.1 791.8,461.9 787.4,462.6 782.8,463.4 777.5,464.5 770.0,466.6 763.7,467.8 758.4,468.8 754.1,469.6 750.2,469.9 742.7,470.1 716.6,470.3 712.7,470.9 709.4,472.0 707.1,473.6 705.6,475.4 704.3,477.7 703.4,480.2 703.1,482.5 702.8,485.9 703.9,499.2 703.8,500.6 703.2,502.2 702.4,503.5 700.5,504.9 698.6,505.8 695.9,506.3 692.6,506.8 688.6,507.1 683.0,507.1 676.8,507.0 643.0,506.6 634.6,506.6 627.0,506.6 623.6,506.8 621.3,507.2 619.2,507.8 617.9,508.3 616.4,509.0 609.2,513.3 606.5,514.6 604.0,515.6 601.5,516.7 598.5,517.6 596.0,518.2 593.4,518.7 592.0,518.8 589.3,518.9 573.0,519.5 566.5,519.7 559.5,519.9 531.2,520.1 525.4,520.4 520.7,520.9 510.1,522.1 501.6,522.6 496.4,522.7 486.9,522.7 484.2,522.7 481.9,522.5 479.2,522.0 475.6,520.9 471.9,519.9 461.6,517.8 459.4,517.5 456.4,517.2 448.9,516.9 445.2,516.9 406.5,516.4 401.3,516.4 395.8,516.4 377.4,517.0 372.8,516.9 347.7,515.0 343.5,514.8 321.7,514.0 306.4,513.9 297.9,513.8 272.0,514.3 259.7,514.4 254.6,514.4 213.8,514.3 190.1,515.6 180.7,515.7 173.6,515.7 115.0,514.4 112.7,514.2 110.5,514.0 108.7,513.6 106.9,513.2 105.3,512.5 104.2,511.7 103.3,510.5 102.6,509.3 102.0,507.9 101.8,506.9 101.6,506.0 101.5,504.5 101.4,497.7 101.3,496.7 101.1,495.6 100.6,494.3 100.1,492.9 99.5,491.6 99.2,490.3 98.8,488.9 98.3,486.7 97.9,485.0 97.7,482.8 97.6,481.3 97.5,478.1 98.0,467.6 98.5,464.3 98.8,461.8 98.7,440.6 98.6,437.7 97.9,385.2 97.9,377.8 97.9,371.4 98.1,351.0 98.0,348.7 97.5,345.7 96.6,343.4 92.6,337.3 91.8,335.7 90.8,332.8 90.1,329.8 90.0,327.5 89.9,320.7 89.9,316.6 89.9,304.1 90.1,302.1 90.6,299.5 96.6,273.0 96.9,271.3 97.2,269.7 97.1,265.4 97.1,243.8 97.1,237.2 96.9,206.7 96.9,202.9 97.0,197.3 98.2,179.2 98.5,176.6 99.0,174.3 99.9,172.2 101.2,170.1 104.2,165.9 105.0,164.3 105.4,163.1 105.8,161.5 108.1,151.4 108.5,149.4 108.5,147.6 108.5,143.4 108.4,136.0 108.2,133.1 107.3,119.7 107.1,117.5 106.8,115.8 106.5,114.1 105.3,109.4 105.1,107.7 105.1,106.7 105.2,105.2 105.5,104.0 107.6,96.7 108.0,95.3 108.1,94.2 108.0,92.2 107.9,85.4 107.7,77.6 107.9,76.3 108.4,74.4 109.0,73.1 109.9,71.7 110.9,70.6 112.1,69.5 113.4,68.5 115.4,67.3 117.2,66.4 119.5,65.7 121.7,65.2 124.3,65.1 126.1,65.1 167.7,65.0 176.0,64.9 179.8,65.1 183.2,65.8 192.2,69.3 196.2,70.8 199.9,71.7 203.3,72.5 207.4,72.7 225.2,73.0 232.7,73.1 239.0,73.0 264.0,72.5 266.1,72.3 268.3,71.8 270.0,71.1 271.3,69.8 272.3,68.3 273.8,65.5 274.1,62.8 274.0,49.9 274.1,41.6 274.1,37.1 274.2,30.7 278.1,-9.0 278.8,-14.7 279.3,-18.7 280.0,-29.0 280.2,-32.0 280.2,-35.4 279.7,-46.1 277.8,-68.6 276.8,-75.9 275.7,-82.2 275.6,-84.3 275.8,-86.0 276.4,-87.7 277.1,-89.5 278.2,-91.0 280.2,-92.4 282.7,-93.5 285.5,-94.1 290.0,-94.9 295.8,-95.3 309.7,-95.3 314.4,-95.3 329.2,-95.2 403.9,-95.3 415.5,-95.3 478.7,-95.4 484.7,-95.4 487.4,-95.3 489.8,-95.0 492.0,-94.5 497.0,-93.3 499.2,-92.8 500.8,-92.5 503.4,-92.3 506.9,-92.2 543.5,-92.2 551.7,-92.2"/>
    <polyline points="100.1,463.0 101.5,460.0 103.5,455.8 105.2,453.4 107.8,449.2 111.9,443.4 113.1,441.5 114.8,438.7 119.9,431.0 129.1,417.6 141.0,400.2 150.9,385.7 160.8,371.2 169.6,358.5 179.5,344.0 193.5,323.9 203.4,309.0 205.3,306.2 206.4,304.4 206.7,303.4 207.8,299.6 207.9,297.6"/>
    <polyline points="100.5,463.1 101.9,460.1 104.0,455.8 105.8,453.4 108.7,449.3 112.5,443.6 113.6,441.9 115.2,438.8 120.4,431.1 129.5,417.7 141.4,400.3 151.4,385.8 161.3,371.4 170.0,358.7 180.0,344.2 180.7,343.1 193.9,324.0 204.2,308.9 206.1,306.2 207.1,304.4 207.6,303.0 208.4,299.7 208.6,297.6"/>
    <polyline points="98.8,467.4 98.9,466.6 99.1,466.0 99.4,465.2 99.8,464.4 100.5,463.1"/>
    <polyline points="98.4,467.6 98.6,466.6 98.8,465.8 99.3,464.5 100.1,463.0"/>
    <polyline points="101.9,505.9 101.8,500.8 101.8,497.5 101.7,496.7 101.4,495.5 100.9,493.9 100.3,492.2 99.8,490.2 99.2,488.1 98.8,486.8 98.2,483.9 97.9,481.1 97.9,479.6 97.9,478.2 98.4,470.1 98.4,467.6"/>
    <polyline points="102.3,505.9 102.3,500.7 102.2,497.5 102.1,496.5 101.8,495.5 101.2,493.7 100.5,492.0 100.0,490.2 99.1,486.9 98.6,483.9 98.4,481.1 98.3,479.6 98.4,478.2 98.7,470.1 98.8,467.4"/>
    <polyline points="102.0,512.1 101.9,506.8 101.9,505.9"/>
    <polyline points="102.4,512.1 102.3,506.8 102.3,505.9"/>
  </g>

  <!-- 지하철 역 -->
  <g>
    <circle cx="537.0" cy="456.6" r="3" fill="#dc2626" stroke="#fff" stroke-width="1"/>
    <circle cx="405.2" cy="442.0" r="3" fill="#dc2626" stroke="#fff" stroke-width="1"/>
    <circle cx="109.2" cy="149.9" r="3" fill="#dc2626" stroke="#fff" stroke-width="1"/>
    <circle cx="406.6" cy="389.5" r="3" fill="#dc2626" stroke="#fff" stroke-width="1"/>
    <circle cx="659.9" cy="349.3" r="3" fill="#dc2626" stroke="#fff" stroke-width="1"/>
    <circle cx="561.3" cy="519.6" r="3" fill="#dc2626" stroke="#fff" stroke-width="1"/>
    <circle cx="208.2" cy="297.6" r="3" fill="#dc2626" stroke="#fff" stroke-width="1"/>
    <circle cx="177.5" cy="345.8" r="3" fill="#dc2626" stroke="#fff" stroke-width="1"/>
    <circle cx="498.4" cy="389.1" r="3" fill="#dc2626" stroke="#fff" stroke-width="1"/>
    <circle cx="497.0" cy="335.7" r="3" fill="#dc2626" stroke="#fff" stroke-width="1"/>
    <circle cx="496.3" cy="296.1" r="3" fill="#dc2626" stroke="#fff" stroke-width="1"/>
    <circle cx="538.5" cy="59.4" r="3" fill="#dc2626" stroke="#fff" stroke-width="1"/>
    <circle cx="494.0" cy="202.8" r="3" fill="#dc2626" stroke="#fff" stroke-width="1"/>
    <circle cx="495.0" cy="252.1" r="3" fill="#dc2626" stroke="#fff" stroke-width="1"/>
    <circle cx="151.1" cy="385.7" r="3" fill="#dc2626" stroke="#fff" stroke-width="1"/>
    <circle cx="112.2" cy="443.5" r="3" fill="#dc2626" stroke="#fff" stroke-width="1"/>
    <circle cx="99.9" cy="490.2" r="3" fill="#dc2626" stroke="#fff" stroke-width="1"/>
    <circle cx="71.5" cy="537.3" r="3" fill="#dc2626" stroke="#fff" stroke-width="1"/>
    <circle cx="408.2" cy="91.4" r="3" fill="#dc2626" stroke="#fff" stroke-width="1"/>
    <circle cx="408.2" cy="149.4" r="3" fill="#dc2626" stroke="#fff" stroke-width="1"/>
    <circle cx="411.1" cy="199.7" r="3" fill="#dc2626" stroke="#fff" stroke-width="1"/>
    <circle cx="406.1" cy="340.3" r="3" fill="#dc2626" stroke="#fff" stroke-width="1"/>
    <circle cx="406.8" cy="259.6" r="3" fill="#dc2626" stroke="#fff" stroke-width="1"/>
    <circle cx="406.5" cy="295.7" r="3" fill="#dc2626" stroke="#fff" stroke-width="1"/>
    <circle cx="405.7" cy="516.0" r="3" fill="#dc2626" stroke="#fff" stroke-width="1"/>
    <circle cx="154.4" cy="270.7" r="3" fill="#dc2626" stroke="#fff" stroke-width="1"/>
    <circle cx="94.8" cy="242.1" r="3" fill="#dc2626" stroke="#fff" stroke-width="1"/>
    <circle cx="280.6" cy="295.9" r="3" fill="#dc2626" stroke="#fff" stroke-width="1"/>
    <circle cx="332.2" cy="295.8" r="3" fill="#dc2626" stroke="#fff" stroke-width="1"/>
    <circle cx="452.5" cy="296.0" r="3" fill="#dc2626" stroke="#fff" stroke-width="1"/>
    <circle cx="551.2" cy="295.9" r="3" fill="#dc2626" stroke="#fff" stroke-width="1"/>
    <circle cx="701.5" cy="411.1" r="3" fill="#dc2626" stroke="#fff" stroke-width="1"/>
    <circle cx="633.8" cy="310.9" r="3" fill="#dc2626" stroke="#fff" stroke-width="1"/>
    <circle cx="207.5" cy="151.7" r="3" fill="#dc2626" stroke="#fff" stroke-width="1"/>
    <circle cx="492.7" cy="149.9" r="3" fill="#dc2626" stroke="#fff" stroke-width="1"/>
    <circle cx="552.9" cy="149.6" r="3" fill="#dc2626" stroke="#fff" stroke-width="1"/>
    <circle cx="267.0" cy="151.5" r="3" fill="#dc2626" stroke="#fff" stroke-width="1"/>
    <circle cx="337.4" cy="150.7" r="3" fill="#dc2626" stroke="#fff" stroke-width="1"/>
    <circle cx="607.8" cy="152.2" r="3" fill="#dc2626" stroke="#fff" stroke-width="1"/>
    <circle cx="665.2" cy="152.1" r="3" fill="#dc2626" stroke="#fff" stroke-width="1"/>
    <circle cx="726.1" cy="246.1" r="3" fill="#dc2626" stroke="#fff" stroke-width="1"/>
    <circle cx="672.5" cy="245.8" r="3" fill="#dc2626" stroke="#fff" stroke-width="1"/>
    <circle cx="622.8" cy="245.8" r="3" fill="#dc2626" stroke="#fff" stroke-width="1"/>
    <circle cx="559.3" cy="204.1" r="3" fill="#dc2626" stroke="#fff" stroke-width="1"/>
    <circle cx="366.2" cy="203.1" r="3" fill="#dc2626" stroke="#fff" stroke-width="1"/>
    <circle cx="316.1" cy="202.8" r="3" fill="#dc2626" stroke="#fff" stroke-width="1"/>
    <circle cx="274.7" cy="203.1" r="3" fill="#dc2626" stroke="#fff" stroke-width="1"/>
    <circle cx="208.3" cy="242.9" r="3" fill="#dc2626" stroke="#fff" stroke-width="1"/>
    <circle cx="507.2" cy="107.0" r="3" fill="#dc2626" stroke="#fff" stroke-width="1"/>
    <circle cx="667.7" cy="111.7" r="3" fill="#dc2626" stroke="#fff" stroke-width="1"/>
    <circle cx="671.4" cy="196.7" r="3" fill="#dc2626" stroke="#fff" stroke-width="1"/>
    <circle cx="674.2" cy="282.2" r="3" fill="#dc2626" stroke="#fff" stroke-width="1"/>
    <circle cx="569.5" cy="385.2" r="3" fill="#dc2626" stroke="#fff" stroke-width="1"/>
    <circle cx="248.0" cy="376.5" r="3" fill="#dc2626" stroke="#fff" stroke-width="1"/>
    <circle cx="333.9" cy="391.3" r="3" fill="#dc2626" stroke="#fff" stroke-width="1"/>
    <circle cx="88.0" cy="317.8" r="3" fill="#dc2626" stroke="#fff" stroke-width="1"/>
    <circle cx="225.2" cy="73.2" r="3" fill="#dc2626" stroke="#fff" stroke-width="1"/>
    <circle cx="167.7" cy="65.2" r="3" fill="#dc2626" stroke="#fff" stroke-width="1"/>
    <circle cx="108.0" cy="85.4" r="3" fill="#dc2626" stroke="#fff" stroke-width="1"/>
    <circle cx="97.4" cy="203.0" r="3" fill="#dc2626" stroke="#fff" stroke-width="1"/>
    <circle cx="98.3" cy="377.8" r="3" fill="#dc2626" stroke="#fff" stroke-width="1"/>
    <circle cx="98.9" cy="440.6" r="3" fill="#dc2626" stroke="#fff" stroke-width="1"/>
    <circle cx="180.7" cy="515.2" r="3" fill="#dc2626" stroke="#fff" stroke-width="1"/>
    <circle cx="259.7" cy="514.1" r="3" fill="#dc2626" stroke="#fff" stroke-width="1"/>
    <circle cx="306.4" cy="513.6" r="3" fill="#dc2626" stroke="#fff" stroke-width="1"/>
    <circle cx="496.4" cy="522.4" r="3" fill="#dc2626" stroke="#fff" stroke-width="1"/>
    <circle cx="634.6" cy="506.3" r="3" fill="#dc2626" stroke="#fff" stroke-width="1"/>
    <circle cx="683.0" cy="506.7" r="3" fill="#dc2626" stroke="#fff" stroke-width="1"/>
  </g>
</svg>