<?xml version="1.0" encoding="UTF-8"?>
<svg width="800" height="600" xmlns="http://www.w3.org/2000/svg">
  <title>Zhengzhou Subway Map</title>
  <rect width="100%" height="100%" fill="#f8f9fa"/>

  <!-- 지하철 선로 -->
  <g stroke="#2563eb" stroke-width="2" fill="none" opacity="0.8">
    <polyline points="-931.2,-254.0 -933.1,-222.3 -935.7,-183.9 -936.9,-165.2 -939.8,-120.0 -942.0,-102.2 -945.0,-77.2 -945.0,-75.3 -944.9,-52.3 -944.7,-28.1 -944.4,43.8 -944.8,153.0 -944.8,159.7 -944.8,167.1 -942.6,172.3 -937.9,175.9 -931.6,179.8 -926.2,183.1 -918.6,186.2 -912.8,187.7 -905.4,188.6 -892.6,189.4 -841.9,189.5 -823.6,189.2 -806.9,189.4 -780.6,190.4 -757.3,191.4 -714.5,193.2 -682.1,195.2 -638.4,198.8 -606.4,199.5 -557.1,196.0 -532.2,193.8 -512.1,194.5 -490.4,196.3 -458.0,202.4 -449.7,204.1 -420.4,209.3 -391.5,215.1 -354.8,219.9 -336.3,222.3 -303.0,227.6 -291.1,228.8 -232.1,232.2 -184.4,234.8 -151.5,236.1 -85.9,238.9 -72.5,239.4 -44.0,241.5 -37.4,242.1 -31.7,243.2 -27.9,246.5 -25.0,250.9 -12.9,283.2 -10.9,287.2 -9.0,288.5 -5.6,290.1 -3.0,291.0 -1.2,291.4 2.1,291.9 11.8,292.0 19.1,292.0 94.0,291.9 122.2,291.8 153.2,292.0 159.8,292.1 168.9,292.7 177.0,293.9 197.4,298.0 219.0,302.6 233.3,304.1 246.4,303.5 259.6,300.7 269.0,298.4 312.3,288.3 316.9,286.3 319.5,284.0 322.9,276.3 325.2,272.6 328.2,268.4 332.6,264.8 333.4,264.4 338.4,262.1 347.2,260.3 361.1,258.2 376.4,255.9 382.6,253.9 385.3,252.8 392.3,249.3 404.9,242.9 422.1,234.9 439.2,226.5 450.3,221.5 476.4,208.5 490.1,201.6 497.9,198.7 507.2,196.2 517.1,194.2 526.4,193.2 532.4,193.1 535.6,193.2 545.6,193.8 545.9,193.8 561.1,194.8 573.4,195.1 580.6,194.8 583.5,194.2 588.6,193.2 609.5,186.1 619.7,184.1 625.9,183.8 630.0,183.7 657.0,184.3 671.6,184.5 711.9,185.3 720.4,185.2 730.1,183.7 740.5,183.1 748.2,182.8 764.7,183.5 775.9,184.1 829.9,188.1 844.5,188.8 848.4,188.8 852.0,188.5 860.5,186.7 872.3,183.0 894.9,176.4 910.8,171.5 927.4,166.7 943.0,163.4 955.3,163.0 959.1,163.3 962.6,163.8 966.8,164.1 972.4,164.2 983.8,163.3 993.6,162.9 997.3,162.6 1000.1,162.8 1003.5,163.0 1008.1,163.9 1012.1,165.5 1015.3,167.1 1037.7,179.8 1042.5,183.7 1053.3,192.2 1060.9,197.9 1070.4,201.1 1078.3,202.3 1086.3,203.0 1095.7,202.8 1108.8,201.2 1120.7,199.1 1181.3,188.6 1292.5,170.4 1350.1,161.1 1360.2,160.0 1368.6,159.9 1375.9,160.0 1383.6,160.6 1389.0,161.6 1393.9,162.7 1398.6,164.5 1403.6,166.7 1407.0,169.3 1411.5,175.7 1424.6,194.1 1427.6,197.8 1431.6,201.5 1436.9,204.9 1442.2,207.6 1448.5,210.1 1455.7,212.0 1462.0,213.1 1470.3,214.0 1485.1,214.9 1521.0,213.7 1690.6,208.4 1786.0,205.7 1793.2,205.4 1801.6,204.3 1810.9,202.0 1816.6,199.4 1825.8,193.7 1833.1,186.9 1839.2,180.2 1845.2,171.9 1851.1,164.7 1855.3,159.6 1861.4,151.0 1864.2,145.7 1869.0,131.1 1870.5,125.3 1871.5,115.1 1872.6,97.5 1872.6,94.3 1872.3,71.3 1870.5,-17.5 1869.7,-32.0 1868.6,-51.5 1868.5,-52.5 1869.2,-55.8 1873.0,-69.8 1878.7,-90.4 1887.2,-121.6 1893.8,-148.3 1895.0,-158.6 1895.3,-182.5 1895.1,-196.1"/>
    <polyline points="533.2,627.8 532.3,575.3 531.9,545.6 530.8,512.7 529.3,478.7 529.4,472.0 529.1,465.5 525.5,437.1 528.2,418.4 529.5,401.5 529.6,395.5 529.3,391.9 529.2,387.8"/>
    <polyline points="931.7,474.7 891.9,474.9 885.6,474.9 877.1,474.9 829.5,474.8 825.8,474.8 783.9,474.7 740.6,474.6 723.3,474.6 666.0,474.9 608.2,475.0 578.1,475.3 531.9,477.0 509.4,477.3 473.3,477.6 410.4,477.5 376.7,477.3 295.8,477.6 265.9,477.6 236.1,477.6 164.9,477.8 127.2,477.8 71.1,477.8 0.9,476.2 -34.5,475.6 -56.3,475.4 -77.1,475.7 -87.0,475.9 -97.5,476.7 -108.3,477.5 -131.7,479.8 -142.4,480.7 -146.5,480.8 -151.1,481.0 -162.9,480.7 -166.5,480.0 -170.8,478.5 -175.4,476.6 -180.8,473.4 -182.8,470.4 -184.4,465.0 -184.4,463.9 -184.8,456.5 -184.7,447.9 -184.5,417.9 -184.7,364.6 -184.7,303.9 -184.7,298.5 -184.7,287.6 -184.7,246.6 -184.8,235.2 -184.7,215.8 -184.7,203.1 -184.1,200.7 -180.6,193.8 -174.0,185.4 -170.4,181.8 -166.6,179.7 -160.3,178.0 -148.5,175.8 -127.0,171.2 -116.6,168.8 -109.8,168.3 -98.8,169.0 -81.0,171.3"/>
    <polyline points="-776.8,351.6 -747.5,350.1 -739.2,349.9 -729.7,350.0 -722.6,350.6 -715.4,351.5 -710.2,352.7 -703.7,354.4 -694.6,357.4 -685.3,361.7 -681.4,364.6 -679.6,366.7 -676.7,369.8 -674.6,373.0 -669.0,383.5 -668.0,385.3 -656.9,402.9 -651.5,411.0 -648.1,415.8 -646.2,418.2 -643.6,420.8 -639.8,423.6 -634.7,426.0 -628.1,428.4 -622.8,429.4 -611.3,430.5 -602.6,430.9 -593.8,431.3 -562.5,431.6 -548.2,431.6 -518.1,431.0 -506.9,430.3 -497.8,428.5 -447.2,419.7 -416.7,419.5 -413.9,419.5 -399.3,419.5 -339.0,419.2 -285.7,419.1 -282.3,419.1 -203.1,419.8 -196.0,419.7 -188.2,419.7 -147.1,419.4 -56.8,419.2 -53.2,419.2 -28.8,419.3 -24.4,419.3 -11.5,419.4 78.7,419.6 114.0,419.9 139.3,419.9 144.5,419.8 236.1,419.1 248.5,419.1 257.8,419.0 446.1,417.8 459.0,417.8 472.3,417.8 523.2,419.4 539.2,419.4 549.0,419.4 556.6,419.6 573.4,420.3 586.2,421.9 599.1,425.5 602.5,426.6 606.9,427.9 612.1,428.6 616.3,428.7 618.3,428.7 620.6,428.7 631.5,428.7 659.9,428.5 678.3,428.4 729.8,428.1 749.4,426.8 755.0,425.2 758.1,422.4 759.6,417.1 760.8,409.9 761.1,395.6 761.4,393.7 761.9,373.9 761.0,365.4 760.2,356.7 759.4,328.5 758.9,307.1 760.0,290.0 759.5,280.9 759.6,225.0 759.6,196.7 761.7,181.7 764.3,175.8 767.0,169.4 800.8,115.2 807.5,106.0 815.8,100.8 828.8,94.9 844.9,88.5 854.6,83.8 862.2,79.5 868.1,75.0 871.9,70.7 875.8,64.2 887.4,28.4 897.8,-7.5 903.3,-33.0 905.1,-41.5 906.9,-48.8 911.2,-66.5 915.8,-99.1 918.6,-102.7 925.6,-105.3 930.0,-106.8 939.0,-108.9 955.8,-113.6 964.0,-116.5 973.1,-122.9 980.3,-128.1 986.8,-134.1 987.5,-141.4 986.0,-148.7 985.3,-154.6 980.6,-168.3 945.1,-192.7 869.3,-226.3 861.8,-234.3 861.3,-264.2 860.9,-273.2"/>
    <polyline points="784.6,463.3 783.9,464.8 781.9,466.5 778.6,468.9 774.3,470.8 767.7,472.6 762.3,473.3 757.5,473.7 743.5,474.5 740.6,474.6"/>
    <polyline points="-81.0,171.3 -61.9,173.1 -53.4,172.7 -41.5,171.6 -34.5,170.7 -27.3,168.9 -20.2,166.2 -7.2,161.5 5.9,158.6 30.9,152.5 54.2,146.5 77.2,140.2 91.8,136.1 116.0,129.3 126.0,126.9 164.4,117.4 188.4,111.1 191.5,110.6 192.5,110.4 203.0,108.5 212.5,107.2 213.4,107.2 215.7,107.1 219.2,106.9 227.4,106.8 282.3,106.8 313.6,106.7 340.5,106.7 371.6,106.7 373.4,106.7 400.9,106.7 427.8,106.7 485.1,106.7 505.5,106.8 530.1,106.8 550.5,106.8 641.9,106.9 655.1,106.8 698.4,106.8"/>
    <polyline points="529.2,387.8 529.3,385.7 530.1,369.6 530.4,361.8 530.5,354.1 530.8,349.0 530.7,342.2 530.4,335.8 530.4,321.9 530.1,307.8 530.3,284.6 530.1,264.2 530.2,232.3 530.2,219.4 530.3,210.2 530.0,197.7 530.3,193.4 530.6,189.7 530.6,187.4 531.8,161.9 531.7,132.7 531.9,108.4 532.0,98.7 532.1,73.2"/>
    <polyline points="532.1,73.2 531.9,53.0 530.1,41.8 527.8,27.0 527.8,8.3 528.1,-16.2 527.8,-38.1 527.8,-63.2 526.7,-108.6 524.7,-158.4 524.5,-175.3 527.3,-204.6 528.4,-212.1 532.6,-241.2 531.5,-246.0 520.7,-265.4 509.8,-288.9 492.6,-318.9 491.0,-322.2 490.6,-327.0 498.8,-368.4 506.7,-434.5 507.9,-443.5 509.3,-449.3 513.9,-466.4 514.0,-468.0 513.3,-470.2 512.8,-471.8 511.7,-473.7 510.0,-475.7 507.1,-478.5 504.5,-481.2 502.2,-484.5 496.7,-493.6 491.6,-502.5 485.5,-513.8 480.7,-517.9 477.5,-520.2 474.4,-521.5 466.8,-523.3 461.7,-523.8 456.4,-524.3 448.4,-524.4 390.1,-523.8 358.5,-523.8 344.7,-523.7 327.4,-523.7 315.3,-523.6 308.3,-523.5 224.5,-525.5 156.1,-527.5 139.4,-528.2 114.0,-529.1 92.2,-529.6 23.5,-531.2 15.7,-531.2 8.2,-531.1 3.8,-530.9 -10.4,-529.7 -23.1,-528.3 -53.5,-524.2 -69.8,-521.9 -85.1,-519.4 -93.4,-518.1 -102.4,-516.8 -107.2,-516.4 -111.9,-516.4 -118.9,-516.4 -126.4,-516.7 -164.1,-518.7 -193.4,-519.8 -212.5,-520.4 -303.4,-522.7 -331.0,-523.8 -398.5,-526.6"/>
    <polyline points="545.9,284.2 527.7,281.3 499.6,277.3 482.1,274.7 451.8,270.3 441.5,268.5 438.4,268.1 401.2,264.2 387.0,262.8 386.1,262.6 384.4,262.1 371.9,258.5 369.6,258.3 365.3,258.1 361.1,257.9 354.3,257.8"/>
    <polyline points="301.3,240.3 300.6,237.5 300.5,235.5 299.9,226.1 299.9,218.8 299.5,211.4 299.4,209.4 299.0,207.0 298.3,204.9 297.6,203.1 296.1,201.0 293.8,198.6 286.9,193.0 270.5,179.5 263.1,174.3 256.6,170.0 245.6,162.6 229.3,154.0 227.4,152.9 225.4,151.8 222.0,149.4 218.6,147.1 217.7,145.9 213.4,140.0 198.3,118.5 192.5,110.4 190.3,107.3 171.4,80.9 159.2,68.8 126.3,40.3 116.5,31.7 99.5,16.8 47.8,-34.2 42.0,-39.9 11.7,-70.2 0.6,-80.2 -25.5,-106.8 -33.1,-114.2 -41.4,-122.4 -56.9,-137.6 -60.9,-141.5 -62.5,-145.9 -55.6,-182.4 -54.8,-187.6 -55.1,-204.0 -54.7,-214.5 -54.9,-282.5 -54.8,-287.1 -55.0,-296.3 -55.0,-298.2"/>
    <polyline points="354.3,257.8 345.7,257.0 336.6,256.0 328.7,255.1 316.7,253.1 312.4,251.8 308.8,250.6 306.5,249.0 303.3,244.8 301.3,240.3"/>
    <polyline points="986.6,296.6 957.9,296.8 941.0,296.8 913.3,296.7 883.6,296.8 860.8,296.9 820.8,296.8 787.5,296.6 761.3,296.4 732.5,296.6 688.5,296.9 638.1,296.4 630.3,296.3 627.9,296.2 626.3,296.1 615.8,294.8"/>
    <polyline points="615.8,294.8 591.2,291.1 564.6,287.2 563.3,287.1 545.9,284.2"/>
    <polyline points="-771.3,289.0 -735.2,288.9 -725.5,289.2 -638.4,292.2 -569.0,292.3 -509.6,292.2 -466.9,292.2 -343.9,292.1 -332.2,292.1 -269.0,292.2 -188.1,292.1 -169.6,292.2 -122.1,292.2 -81.7,292.0 -73.5,292.3 -65.4,292.7 -53.9,293.3 -41.9,294.1 -36.6,294.5 -30.6,294.7 -16.4,294.7 -6.2,294.8 2.6,294.6 12.0,293.5 16.6,293.3 43.0,293.0 86.9,293.2 92.0,293.8 96.2,294.9 101.1,296.9 104.1,298.7 117.3,307.4 120.4,309.3 124.4,310.4 130.4,310.9 136.5,311.1 149.0,311.1 156.7,311.1 168.6,310.9 176.5,310.7 186.7,309.8 197.4,308.0 216.9,303.7 232.4,300.6 237.2,299.5 248.3,297.0"/>
    <polyline points="133.0,920.9 133.1,906.3 133.8,817.5 136.5,760.5 136.3,757.6 136.2,748.8 136.2,744.1 137.5,665.1 136.0,656.0 134.5,646.4 134.7,578.1 134.7,540.9 134.6,528.4 132.1,502.6 132.0,479.5 132.6,423.3 133.0,388.2 132.8,380.5 130.8,306.4 130.7,299.3 141.3,243.8 144.8,236.0 150.2,224.0 150.8,212.4 163.8,200.0 195.2,186.6 223.7,179.2 245.7,173.1 258.4,169.5 266.4,166.7 274.0,163.8 282.4,160.7 287.6,160.2 328.6,160.3 359.8,160.6 365.3,159.4 369.9,157.2 372.9,153.2 371.8,105.4 369.4,31.8 369.1,23.6 366.4,-36.5 364.6,-51.6 363.2,-58.0 361.3,-67.1 346.4,-139.3"/>
    <polyline points="698.4,106.8 740.6,106.8 807.2,109.1 822.9,109.6 831.2,110.2 842.1,111.2 852.2,111.5 860.9,111.8 870.3,111.3 878.0,110.0 886.6,108.3 892.0,106.8 895.6,105.1 902.5,100.6 909.7,95.2 914.7,92.0 929.2,83.2 944.7,77.3 960.1,73.3 974.6,72.1 987.0,72.2 1000.9,73.5 1023.9,78.0"/>
    <polyline points="245.2,172.7 257.1,168.9 265.5,165.9 273.3,163.1 282.1,160.2 287.6,159.7 328.7,159.6 359.7,159.9 365.2,158.6 369.3,156.8 372.0,153.1 370.9,124.9 370.6,105.4 370.4,93.0 368.4,31.7 368.1,23.7 367.2,1.8 365.2,-36.2 362.9,-52.3 361.8,-57.9 360.1,-67.0 344.9,-139.2"/>
    <polyline points="859.8,-273.2 860.0,-264.4 860.1,-234.6 866.9,-226.1 943.9,-191.5 978.9,-168.1 984.3,-154.5 984.8,-148.7 985.8,-141.8 984.4,-134.4 977.9,-128.4 970.8,-123.3 963.5,-118.0 953.1,-113.9 930.8,-108.2 925.9,-106.9 917.2,-103.5 913.6,-99.7 911.9,-84.7 910.4,-66.5 904.4,-42.4 901.7,-33.2 896.8,-7.7 885.9,28.2 875.4,64.1 871.6,70.6 867.7,74.9 861.9,79.4 854.3,83.7 844.7,88.4 828.6,94.7 815.5,100.6 807.2,105.9 799.7,115.0 765.4,169.3 762.8,175.6 760.3,181.5 759.2,196.7 759.2,225.0 759.1,280.9 758.7,290.0 758.5,307.1 759.0,328.5 758.8,356.8 759.7,365.5 760.8,373.9 761.0,393.7 760.7,395.5 760.0,409.7 759.2,415.6 757.2,422.3 754.2,424.8 749.3,426.2 729.5,427.4 678.3,427.9 631.6,428.1 620.7,428.1 618.8,428.1 615.7,428.1 612.3,428.1 607.6,427.4 600.6,425.1 586.8,421.2 573.7,419.5 549.2,418.4 539.3,418.5 523.3,418.4 472.6,417.0 459.0,417.0 446.2,417.0 257.5,418.3 248.6,418.3 236.2,418.3 144.2,419.3 139.3,419.2 114.1,419.1 79.7,419.1 -11.5,418.5 -24.3,418.4 -29.1,418.4 -53.2,418.4 -147.1,419.2 -188.0,418.9 -196.0,418.9 -203.0,418.8 -281.9,418.5 -285.7,418.5 -339.0,418.4 -399.3,418.7 -413.9,418.6 -416.8,418.6 -447.4,419.2 -497.9,428.3 -507.0,430.1 -518.1,430.8 -548.2,431.4 -562.5,431.4 -593.6,430.5 -602.5,430.0 -611.1,429.5 -622.7,428.7 -628.2,427.9 -634.5,425.8 -639.5,423.5 -643.3,420.7 -645.9,418.1 -647.7,415.7 -651.1,410.9 -656.5,402.8 -665.9,387.6 -667.5,385.2 -668.6,383.4 -674.2,372.9 -676.3,369.8 -679.2,366.6 -681.0,364.5 -685.0,361.6 -694.4,357.2 -703.5,354.3 -710.0,352.5 -715.3,351.3 -722.5,350.4 -729.7,349.8 -739.2,349.7 -747.6,349.9 -776.8,351.4"/>
    <polyline points="545.6,284.8 615.5,295.4 628.2,296.6 688.3,297.3 741.2,296.9 761.3,297.0 810.1,297.2 860.8,297.4 940.6,297.5 986.8,297.3 1005.9,296.4 1052.7,291.9 1073.1,289.8 1116.4,285.5 1123.7,284.8 1130.1,284.6 1136.3,284.8 1208.6,290.9 1243.2,293.6"/>
    <polyline points="-56.0,-298.2 -56.0,-287.0 -56.2,-204.0 -55.8,-188.0 -57.1,-182.7 -64.0,-146.0 -62.7,-141.8 -58.2,-137.4 -42.2,-122.3 -33.7,-113.9 -26.7,-106.7 -0.6,-79.9 11.0,-69.9 40.9,-39.6 47.1,-33.9 98.6,16.8 115.8,32.0 158.6,69.1 170.9,81.3 189.4,107.5 191.5,110.6 211.6,139.4 216.8,146.4 220.9,150.0 228.2,154.3 244.6,162.9 255.8,170.4 262.2,174.5 269.6,179.7 286.1,193.4 292.9,198.7 295.3,201.1 297.0,203.1 298.4,206.9 298.7,209.5 299.1,218.9 299.2,226.0 300.0,237.1 300.5,240.3 302.4,244.8 305.7,249.2 307.9,250.8 311.4,252.1 316.1,253.4 328.5,255.5 345.2,257.4 354.1,258.3 361.6,258.3 365.1,258.4 369.6,258.7 372.1,259.0 386.5,263.3 401.1,264.7 438.2,268.7 481.8,275.2 521.3,281.0 527.1,281.9 545.6,284.8"/>
    <polyline points="248.0,296.7 236.9,299.1 232.1,300.2 220.9,302.6 197.3,307.8 186.5,309.6 176.4,310.4 168.5,310.6 149.0,310.8 136.7,310.8 130.2,310.6 124.6,310.1 120.9,309.1 117.6,307.1 104.6,298.5 101.6,296.7 96.3,294.6 92.5,293.6 86.8,292.8 43.4,292.6 16.6,292.9 2.3,294.2 -16.2,294.3 -29.4,294.3 -36.7,294.1 -58.9,292.7 -76.1,291.8 -83.6,291.7 -123.0,291.8 -169.5,291.7 -188.0,291.6 -274.2,291.7 -343.8,291.7 -467.6,291.7 -509.6,291.7 -551.6,291.7 -637.8,291.5 -710.4,288.9 -736.5,288.1 -771.2,288.3"/>
    <polyline points="264.3,293.2 248.0,296.7"/>
    <polyline points="248.3,297.0 264.5,293.5"/>
    <polyline points="232.4,300.6 234.6,299.8 236.9,299.1"/>
    <polyline points="237.2,299.5 234.6,299.8 232.1,300.2"/>
    <polyline points="245.2,172.7 223.6,178.5 194.2,186.1 162.7,199.5 149.6,212.1 149.2,223.8 143.6,235.9 140.0,243.6 128.5,299.3 128.4,306.4 128.5,313.9 130.2,338.4 131.9,362.5 131.6,380.5 131.5,392.3 131.1,423.3 131.0,431.4 130.5,479.4 130.4,497.5 132.8,566.7 132.8,578.1 132.8,584.7 133.0,646.5 134.6,656.1 136.1,665.1 135.4,713.3 135.0,739.4 135.1,748.8 135.1,757.3 132.2,815.8 132.1,817.5 131.8,824.8 131.2,906.3 131.4,920.9"/>
  </g>

  <!-- 지하철 역 -->
  <g>
    <circle cx="439.2" cy="226.5" r="3" fill="#dc2626" stroke="#fff" stroke-width="1"/>
    <circle cx="122.2" cy="291.8" r="3" fill="#dc2626" stroke="#fff" stroke-width="1"/>
    <circle cx="376.7" cy="477.3" r="3" fill="#dc2626" stroke="#fff" stroke-width="1"/>
    <circle cx="373.4" cy="106.9" r="3" fill="#dc2626" stroke="#fff" stroke-width="1"/>
    <circle cx="91.9" cy="136.2" r="3" fill="#dc2626" stroke="#fff" stroke-width="1"/>
    <circle cx="265.9" cy="477.6" r="3" fill="#dc2626" stroke="#fff" stroke-width="1"/>
    <circle cx="608.2" cy="475.0" r="3" fill="#dc2626" stroke="#fff" stroke-width="1"/>
    <circle cx="641.9" cy="106.9" r="3" fill="#dc2626" stroke="#fff" stroke-width="1"/>
    <circle cx="530.8" cy="349.0" r="3" fill="#dc2626" stroke="#fff" stroke-width="1"/>
    <circle cx="531.2" cy="107.5" r="3" fill="#dc2626" stroke="#fff" stroke-width="1"/>
    <circle cx="532.9" cy="193.1" r="3" fill="#dc2626" stroke="#fff" stroke-width="1"/>
    <circle cx="527.6" cy="478.8" r="3" fill="#dc2626" stroke="#fff" stroke-width="1"/>
    <circle cx="530.6" cy="282.0" r="3" fill="#dc2626" stroke="#fff" stroke-width="1"/>
    <circle cx="476.1" cy="273.7" r="3" fill="#dc2626" stroke="#fff" stroke-width="1"/>
    <circle cx="356.1" cy="258.5" r="3" fill="#dc2626" stroke="#fff" stroke-width="1"/>
    <circle cx="627.8" cy="296.6" r="3" fill="#dc2626" stroke="#fff" stroke-width="1"/>
    <circle cx="299.8" cy="218.7" r="3" fill="#dc2626" stroke="#fff" stroke-width="1"/>
    <circle cx="257.8" cy="169.1" r="3" fill="#dc2626" stroke="#fff" stroke-width="1"/>
    <circle cx="193.2" cy="109.4" r="3" fill="#dc2626" stroke="#fff" stroke-width="1"/>
    <circle cx="248.5" cy="418.8" r="3" fill="#dc2626" stroke="#fff" stroke-width="1"/>
    <circle cx="132.3" cy="419.7" r="3" fill="#dc2626" stroke="#fff" stroke-width="1"/>
    <circle cx="251.4" cy="299.3" r="3" fill="#dc2626" stroke="#fff" stroke-width="1"/>
    <circle cx="133.8" cy="310.8" r="3" fill="#dc2626" stroke="#fff" stroke-width="1"/>
    <circle cx="631.6" cy="428.4" r="3" fill="#dc2626" stroke="#fff" stroke-width="1"/>
    <circle cx="459.0" cy="417.4" r="3" fill="#dc2626" stroke="#fff" stroke-width="1"/>
    <circle cx="531.7" cy="419.0" r="3" fill="#dc2626" stroke="#fff" stroke-width="1"/>
    <circle cx="131.3" cy="478.0" r="3" fill="#dc2626" stroke="#fff" stroke-width="1"/>
    <circle cx="132.2" cy="380.5" r="3" fill="#dc2626" stroke="#fff" stroke-width="1"/>
    <circle cx="144.2" cy="236.0" r="3" fill="#dc2626" stroke="#fff" stroke-width="1"/>
  </g>
</svg>